<svg xmlns="http://www.w3.org/2000/svg" viewBox="0 0 24 24"><g fill="none" fill-rule="evenodd" stroke="#6590ED"><path stroke-width="2" d="M16.132 17.999A7.875 7.875 0 0019 11.922C19 7.547 15.418 4 11 4s-8 3.547-8 7.922A7.875 7.875 0 005.87 18"/><path stroke-linecap="round" stroke-linejoin="round" stroke-width="2" d="M8.552 8.012A4.532 4.532 0 007.25 9.236a4.706 4.706 0 00-.87 2.741c0 1.162.414 2.224 1.098 3.035"/><path stroke-linejoin="round" stroke-width="2" d="M5 23l1-5h10l1 5z"/><g stroke-linecap="round" stroke-linejoin="round"><path d="M18 4V2M17 3h2"/></g><g stroke-linecap="round" stroke-linejoin="round"><path d="M21 7.5v-2M20 6.5h2"/></g></g></svg>
