<svg xmlns="http://www.w3.org/2000/svg" viewBox="0 0 24 24"><path fill="#33CCAB" d="M10.714 7.844l.086-.167c.58-1.199.72-2.98.22-5.48-.178-.89.824-1.538 1.561-1.01 4.45 3.178 5.873 5.873 5.37 9.185-.06.398-.117.698-.223 1.12l-.125.472c.205-.192.433-.414.69-.671a1 1 0 011.626.313C22.815 18.364 18.893 23 13 23c-4.716 0-9-3.57-9-8 0-1.412.271-2.281.933-3.412l.415-.686c.87-1.482 1.092-2.75.662-5.76a1 1 0 01.365-.923c1.135-.908 2.42-.141 3.348 1.314.366.574.67 1.24.889 1.952l.102.36zM13.3 4.288c.157 3.252-.898 5.437-2.786 6.57A1 1 0 019 10c0-1.091-.314-2.24-.802-3.121.113 2.162-.253 3.528-1.09 4.975l-.153.257-.299.492C6.165 13.442 6 13.99 6 15c0 3.237 3.316 6 7 6 4.155 0 6.837-2.724 5.578-7.212C17.577 14.68 16.92 15 16 15a1 1 0 01-.97-1.243l.093-.36.05-.188.526-1.866c.11-.406.172-.676.222-.95l.053-.32c.308-2.03-.331-3.728-2.674-5.785z"/></svg>
