<svg xmlns="http://www.w3.org/2000/svg" width="24" height="24" viewBox="0 0 24 24">
  <g fill="none" fill-rule="evenodd">
    <g stroke="#6590ED" stroke-linecap="round" stroke-linejoin="round" stroke-width="2" transform="translate(2 2)">
      <rect width="20" height="18" y="2" rx="2"/>
      <line x1="14" x2="14" y2="4"/>
      <line x1="6" x2="6" y2="4"/>
    </g>
    <path fill="#6590ED" fill-rule="nonzero" d="M10 9C10.5522847 9 11 9.44771525 11 10 11 10.5522847 10.5522847 11 10 11 9.44771525 11 9 10.5522847 9 10 9 9.44771525 9.44771525 9 10 9zM14 13C14.5522847 13 15 13.4477153 15 14 15 14.5522847 14.5522847 15 14 15 13.4477153 15 13 14.5522847 13 14 13 13.4477153 13.4477153 13 14 13zM6 17C6.55228475 17 7 17.4477153 7 18 7 18.5522847 6.55228475 19 6 19 5.44771525 19 5 18.5522847 5 18 5 17.4477153 5.44771525 17 6 17z"/>
  </g>
</svg>
