<svg xmlns="http://www.w3.org/2000/svg" width="24" height="24" viewBox="0 0 24 24">
  <g fill="none" fill-rule="evenodd">
    <g stroke="#6590ED" stroke-linecap="round" stroke-linejoin="round" stroke-width="2" transform="translate(2 2)">
      <rect width="20" height="18" y="2" rx="2"/>
      <line x1="14" x2="14" y2="4"/>
      <line x1="6" x2="6" y2="4"/>
    </g>
    <path fill="#6590ED" fill-rule="nonzero" d="M6 9C6.55228475 9 7 9.44771525 7 10 7 10.5522847 6.55228475 11 6 11 5.44771525 11 5 10.5522847 5 10 5 9.44771525 5.44771525 9 6 9zM10 9C10.5522847 9 11 9.44771525 11 10 11 10.5522847 10.5522847 11 10 11 9.44771525 11 9 10.5522847 9 10 9 9.44771525 9.44771525 9 10 9zM14 9C14.5522847 9 15 9.44771525 15 10 15 10.5522847 14.5522847 11 14 11 13.4477153 11 13 10.5522847 13 10 13 9.44771525 13.4477153 9 14 9zM18 9C18.5522847 9 19 9.44771525 19 10 19 10.5522847 18.5522847 11 18 11 17.4477153 11 17 10.5522847 17 10 17 9.44771525 17.4477153 9 18 9zM6 13C6.55228475 13 7 13.4477153 7 14 7 14.5522847 6.55228475 15 6 15 5.44771525 15 5 14.5522847 5 14 5 13.4477153 5.44771525 13 6 13zM10 13C10.5522847 13 11 13.4477153 11 14 11 14.5522847 10.5522847 15 10 15 9.44771525 15 9 14.5522847 9 14 9 13.4477153 9.44771525 13 10 13zM14 13C14.5522847 13 15 13.4477153 15 14 15 14.5522847 14.5522847 15 14 15 13.4477153 15 13 14.5522847 13 14 13 13.4477153 13.4477153 13 14 13zM18 13C18.5522847 13 19 13.4477153 19 14 19 14.5522847 18.5522847 15 18 15 17.4477153 15 17 14.5522847 17 14 17 13.4477153 17.4477153 13 18 13zM6 17C6.55228475 17 7 17.4477153 7 18 7 18.5522847 6.55228475 19 6 19 5.44771525 19 5 18.5522847 5 18 5 17.4477153 5.44771525 17 6 17zM10 17C10.5522847 17 11 17.4477153 11 18 11 18.5522847 10.5522847 19 10 19 9.44771525 19 9 18.5522847 9 18 9 17.4477153 9.44771525 17 10 17zM14 17C14.5522847 17 15 17.4477153 15 18 15 18.5522847 14.5522847 19 14 19 13.4477153 19 13 18.5522847 13 18 13 17.4477153 13.4477153 17 14 17zM18 17C18.5522847 17 19 17.4477153 19 18 19 18.5522847 18.5522847 19 18 19 17.4477153 19 17 18.5522847 17 18 17 17.4477153 17.4477153 17 18 17z"/>
  </g>
</svg>
