<svg xmlns="http://www.w3.org/2000/svg" width="24" height="24" viewBox="0 0 24 24">
  <g fill="none" fill-rule="evenodd">
    <path stroke="#6590ED" stroke-linecap="round" stroke-linejoin="round" stroke-width="1.5" d="M4.50122411 20C-1.30803872 15.2902389 5.4723123 2 14.212106 2 22.9518997 2 19.3778673 8.46420117 21.1648835 13.7321006 22.9518997 19 10.3104869 24.7097611 4.50122411 20zM9 13C9.66666667 11.6666667 12.3333333 11.6666667 17 13"/>
    <path fill="#6590ED" fill-rule="nonzero" d="M15 6C15.5522847 6 16 6.44771525 16 7 16 7.55228475 15.5522847 8 15 8 14.4477153 8 14 7.55228475 14 7 14 6.44771525 14.4477153 6 15 6zM10 7C10.5522847 7 11 7.44771525 11 8 11 8.55228475 10.5522847 9 10 9 9.44771525 9 9 8.55228475 9 8 9 7.44771525 9.44771525 7 10 7z"/>
  </g>
</svg>
