<svg xmlns="http://www.w3.org/2000/svg" width="56" height="56" viewBox="0 0 56 56">
  <g fill="none" fill-rule="evenodd" stroke="#000" stroke-linecap="round" stroke-linejoin="round" stroke-width="2" transform="translate(6 8)">
    <path d="M2.0250468e-13,35.246933 C0.0955698487,33.6492577 0.474909168,31.3864005 1.64407979,30.4663022 C3.92206117,28.67374 6.13150083,32.9299494 9.36265464,27.8457684 C10.1024929,26.6815037 10.3137877,25.1122828 11.2004578,24.0504606 C15.6146645,18.7642753 25.1258736,17.4281892 27.6484832,16.1881084 C29.0086316,15.5192755 29.4108752,12.9332717 30.4054169,11.7599992 C32.3777084,9.43222044 33.1756401,9.03454553 36.1024694,7.78378378"/>
    <path d="M17.327791 19.3689011C19.0806957 16.3453592 16.8459241 15.7824175 17.443018 13.2079083 17.748982 11.8880493 18.8155971 10.2446226 19.5171035 9.03454553M25.3707621 16.9596191C25.8847896 16.8822829 26.8062377 16.3511558 27.7070254 16.4904888 29.4854615 16.765959 31.2399317 17.8422743 33.1786915 17.4140491 34.8546526 17.0439858 36.3091357 16.0168845 38.0536889 15.5675676M3.90734743 29.466978C5.74263117 27.4327245 4.47741409 25.1375609 4.19719699 22.461182 4.07082276 21.2532522 4.4271778 18.5482528 4.7520545 17.5135135M9.76100596 27.521032C10.3146447 27.6328032 14.6390547 25.5750861 17.565884 25.5750861 20.4927133 25.5750861 21.7588991 28.5218755 25.3707621 26.669328M17.6049374 13.6216216C21.468323 13.8994104 24.3678726 9.25668921 25.3707621 8.75675676M33.2572447 8.75675676C32.9174332 8.44548027 32.9641492 1.35936271 34.1512499 0"/>
    <path d="M32.2000304,17.5135135 C32.2153144,17.5608822 33.7167465,17.9593361 33.9424108,18.1348787 C34.7767395,18.7806249 34.8118029,19.7718836 35.7827889,20.3988216 C36.6971341,20.9888399 38.005268,21.0083447 39.0292986,21.4054054"/>
  </g>
</svg>
