<svg xmlns="http://www.w3.org/2000/svg" viewBox="0 0 110 110"><g fill="none" fill-rule="evenodd"><circle cx="55" cy="55" r="55" fill="#FFE4DA"/><path fill="#FFBCA3" d="M71.007 88c0 2.762-7.165 5-16.003 5C46.164 93 39 90.762 39 88s7.165-5 16.004-5c8.838 0 16.003 2.238 16.003 5"/><path fill="#7A3814" d="M38.696 55.784s11.962-4.635 32.698 0l-1.787 3.478-14.11 4.292-14.604-4.126-2.197-3.644z"/><path fill="#000" d="M38.696 55.784s11.962-4.635 32.698 0l-1.787 3.478-14.11 4.292-14.604-4.126-2.197-3.644z" opacity=".3"/><path fill="#33CCAB" d="M61.455 28.304c-1.901-10.787-9.857-10.293-9.868-10.293-.407-.034-7.935-.494-9.836 10.293-1.955 11.089 0 28.773 0 28.773l9.812 1.6v.012l.04-.007.038.007v-.013l9.814-1.6s1.954-17.683 0-28.772"/><path fill="#000" fill-opacity=".05" d="M61.455 28.304c-1.901-10.787-9.857-10.293-9.868-10.293-.407-.034-7.935-.494-9.836 10.293-1.955 11.089 0 28.773 0 28.773l9.812 1.6v.012l.04-.007.038.007v-.013l9.814-1.6s1.954-17.683 0-28.772"/><path fill="#33CCAB" d="M67.784 40.222c-1.19-6.749-6.167-6.439-6.174-6.44-.255-.02-4.964-.309-6.153 6.44-1.223 6.937 0 18 0 18l6.138 1.002v.008l.024-.005.025.005v-.008l6.14-1.001s1.222-11.064 0-18"/><path fill="#7A3814" d="M38.696 55.784s16.527 4.447 32.698 0c0 0 .841 15.133-2.042 22.242 0 0-3.39 10.767-8.667 10.767H49.228c-5.278 0-8.665-10.767-8.665-10.767-2.884-7.11-1.923-22.258-1.867-22.242"/><path fill="#000" fill-rule="nonzero" d="M61 59c5 14.069-.61 28.245-7.215 28.245-3.659.5-5.1.751-4.324.755H61c6.751-1.36 10.394-21.54 8.898-30.532L61 59z" opacity=".15"/><path fill="#29A389" d="M53.094 22.243a.485.485 0 1 1 .84.485l-1.091 1.892a.966.966 0 0 1-.465.41l.105-.055a.98.98 0 0 1-.217.093l-.01.002a.774.774 0 0 1-.1.023l-.026.003a.818.818 0 0 1-.184.008.907.907 0 0 1-.076-.007l-.027-.005a.86.86 0 0 1-.099-.02c-.003-.003-.006-.003-.01-.004a.788.788 0 0 1-.217-.093l.105.054a.966.966 0 0 1-.465-.41l-1.092-1.89a.485.485 0 1 1 .84-.486L52 24.137zm0 15a.485.485 0 1 1 .84.485l-1.091 1.892a.966.966 0 0 1-.465.41l.105-.055a.98.98 0 0 1-.217.093l-.01.002a.774.774 0 0 1-.1.023l-.026.003a.818.818 0 0 1-.184.008.908.908 0 0 1-.076-.007l-.027-.005a.86.86 0 0 1-.099-.02c-.003-.003-.006-.003-.01-.004a.788.788 0 0 1-.217-.093l.105.054a.966.966 0 0 1-.465-.41l-1.092-1.89a.485.485 0 1 1 .84-.486L52 39.137zm-5-8a.485.485 0 1 1 .84.485l-1.091 1.892a.966.966 0 0 1-.465.41l.105-.055a.98.98 0 0 1-.217.093l-.01.002a.774.774 0 0 1-.1.023l-.026.003a.818.818 0 0 1-.184.008.907.907 0 0 1-.076-.007l-.027-.005a.86.86 0 0 1-.099-.02c-.003-.003-.006-.003-.01-.004a.788.788 0 0 1-.217-.093l.105.054a.966.966 0 0 1-.465-.41l-1.092-1.89a.485.485 0 0 1 .84-.486L47 31.137zm-1 14a.485.485 0 1 1 .84.485l-1.091 1.892a.966.966 0 0 1-.465.41l.105-.055a.98.98 0 0 1-.217.093l-.01.002a.774.774 0 0 1-.1.023l-.026.003a.818.818 0 0 1-.184.008.907.907 0 0 1-.076-.007l-.027-.005a.86.86 0 0 1-.099-.02c-.003-.003-.006-.003-.01-.004a.788.788 0 0 1-.217-.093l.105.054a.966.966 0 0 1-.465-.41l-1.092-1.89a.485.485 0 0 1 .84-.486L46 45.137zm5 9a.485.485 0 1 1 .84.485l-1.091 1.892a.966.966 0 0 1-.465.41l.105-.055a.98.98 0 0 1-.217.093l-.01.002a.774.774 0 0 1-.1.023l-.026.003a.818.818 0 0 1-.184.008.908.908 0 0 1-.076-.007l-.027-.005a.86.86 0 0 1-.099-.02c-.003-.003-.006-.003-.01-.004a.788.788 0 0 1-.217-.093l.105.054a.966.966 0 0 1-.465-.41l-1.092-1.89a.485.485 0 1 1 .84-.486L51 54.137zm13-12a.485.485 0 1 1 .84.485l-1.091 1.892a.966.966 0 0 1-.465.41l.105-.055a.98.98 0 0 1-.217.093l-.01.002a.774.774 0 0 1-.1.023l-.026.003a.818.818 0 0 1-.184.008.908.908 0 0 1-.076-.007l-.027-.005a.86.86 0 0 1-.099-.02c-.003-.003-.006-.003-.01-.004a.788.788 0 0 1-.217-.093l.105.054a.966.966 0 0 1-.465-.41l-1.092-1.89a.485.485 0 1 1 .84-.486L64 42.137zm0 14a.485.485 0 1 1 .84.485l-1.091 1.892a.966.966 0 0 1-.465.41l.105-.055a.98.98 0 0 1-.217.093l-.01.002a.774.774 0 0 1-.1.023l-.026.003a.818.818 0 0 1-.184.008.908.908 0 0 1-.076-.007l-.027-.005a.86.86 0 0 1-.099-.02c-.003-.003-.006-.003-.01-.004a.788.788 0 0 1-.217-.093l.105.054a.966.966 0 0 1-.465-.41l-1.092-1.89a.485.485 0 1 1 .84-.486L64 56.137zm-5-8a.485.485 0 1 1 .84.485l-1.091 1.892a.966.966 0 0 1-.465.41l.105-.055a.98.98 0 0 1-.217.093l-.01.002a.774.774 0 0 1-.1.023l-.026.003a.818.818 0 0 1-.184.008.908.908 0 0 1-.076-.007l-.027-.005a.86.86 0 0 1-.099-.02c-.003-.003-.006-.003-.01-.004a.788.788 0 0 1-.217-.093l.105.054a.966.966 0 0 1-.465-.41l-1.092-1.89a.485.485 0 1 1 .84-.486L59 48.137z"/></g></svg>