<svg xmlns="http://www.w3.org/2000/svg" viewBox="0 0 110 110"><g fill="none" fill-rule="evenodd"><circle cx="55" cy="55" r="55" fill="#DCF7F4"/><path fill="#33CCAB" fill-opacity=".6" d="M70 90c0 2.762-6.715 5-15 5s-15-2.238-15-5 6.715-5 15-5 15 2.238 15 5"/><path fill="#29A389" d="M60.281 34.464c.755-4.127-6.936-17.838-6.936-17.838s1.374 13.452-.512 21.237l-.93 4.602 3.187 9.01 5.244-12.429-.053-4.582z"/><path fill="#07454C" d="M48.442 56.13c-2.352-13.218-5.396-37.973-5.396-37.973s-3.363 17.855-3.04 26.542c0 0-.656 12.121 1.288 16.408l3.604 4.04 3.544-2.797v-6.22zm13.946-9.132c2.866-6.85 2.015-12.492 1.464-19.632-.119-1.535.168-4.585.168-4.585s-2.406 9.274-4.35 13.415c-2.15 4.579-5.202 6.269-5.886 11.986l-.44 5.173 1.83 10.673 1.425 1.119 5.789-18.15z"/><path fill="#33CCAB" d="M56.315 62.687c.278-12.407-5.637-32.314-5.637-32.314s-1.936 5.466-2.713 8.252c-.778 2.786-1.366 4.666-1.115 7.634 0 0 .037 5.402.72 10.001l3.789 12.443 5.656.066-.7-6.082"/><path fill="#29A389" d="M53.345 68.426A51.963 51.963 0 0 0 40.499 45.25c-1.206-1.256-2.478-2.452-3.85-3.523-2.017-1.573-6.611-3.844-6.611-3.844s11.538 14.823 13.68 23.69l.155 4.444 2.918 2.68 6.554-.271z"/><path fill="#33CCAB" d="M66.74 52.103c4.312-6.354 10.876-11.197 18.241-13.365-.828.453-10.775 9.502-14.205 17.884l-1.44 5.386-8.157 5.966 1.399-15.66 4.161-.211z"/><path fill="#07454C" d="M49.213 68.662C43.108 56.273 24.665 51.3 24.665 51.3S38.898 63.17 40.661 69.22l8.552-.559zm19.769.914c3.342-9.33 10.39-17.865 19.108-22.578-5.205 1.942-10.25 4.392-14.734 7.67-4.484 3.278-5.864 4.728-9.15 9.088l-2.654 5.214 7.43.606z"/><path fill="#29A389" d="M56.307 68.507C53.734 50.555 77.395 28.89 77.395 28.89s-2.394 3.881-3.496 5.71c-6.284 10.443-8.803 22.298-10.483 34.37"/><path fill="#CB8557" d="M63.643 90.642l6.199-21.31s-4.683-.496-6.938-.686c-4.15-.348-7.945-.21-11.917-.315-3.684-.098-11.227.814-11.227.814l6.513 21.495s4.809.376 6.808.505c3.42.22 10.562-.503 10.562-.503"/><path fill="#FFBCA3" d="M39.76 69.146l6.513 21.494s4.81.377 6.808.504c3.42.22 10.561-.502 10.561-.502l6.2-21.31s-4.683-.496-6.938-.686c-4.151-.348-7.945-.21-11.918-.315a20.523 20.523 0 0 0-.59-.007c-3.84 0-10.636.822-10.636.822"/></g></svg>