<svg xmlns="http://www.w3.org/2000/svg" viewBox="0 0 110 110"><g fill="none" fill-rule="evenodd"><circle cx="55" cy="55" r="55" fill="#FFE4DA"/><path fill="#FFBCA3" d="M83.31 83c0 2.762-11.71 5-26.155 5S31 85.762 31 83s11.71-5 26.155-5 26.156 2.238 26.156 5"/><path fill="#29A389" d="M68.364 60.196l-38.214 7.47c-2.92-1.628-8.735-20.406-8.186-23.943.455-2.937 1.913-5.62 3.833-7.73 1.922-2.112 4.288-3.685 6.764-4.922 8.425-4.216 18.38-4.618 27.066-1.09 2.666 1.083 5.092 3.153 7.077 5.38 1.984 2.229 3.725 6.356 2.698 9.509l-1.038 15.326z"/><path fill="#33CCAB" d="M82.155 71.42c7.591-9.919 6.79-23.415 3.088-27.192-3.702-3.778-5.257-2.884-8.222-3.14-4.215-.362-8.653.868-11.717 3.782s-4.517 7.594-3.133 11.59c.467 1.356 1.229 2.593 2.095 3.736L82.155 71.42z"/><path fill="#B9EFE9" d="M90.47 58.669c-22.246-.389-66.301.007-66.301.007s-.574 10.629 2.568 14.835c2.752 3.685 6.7 6.905 15.4 9.181 9.65 2.524 20.673 2.524 30.322 0 8.701-2.276 12.65-5.496 15.402-9.181 3.14-4.206 2.568-14.835 2.568-14.835s-44.057-.396-66.302-.007"/><path fill="#000" fill-rule="nonzero" d="M82.842 60c0 14.667-13.614 21.816-40.842 21.447 4.248.929 10.796 1.393 19.645 1.393C65.465 82.84 89 81 89 60h-6.158z" opacity=".1"/><path stroke="#4A8C69" stroke-width=".5" d="M48.384 35.515l1.55-2.811M36.69 27.578l.935 3.075M41.821 34.221l2.659 1.783M50.746 45.005l-3.188.202M23.746 48.005l-3.188.202M49.757 29.606l-1.202-2.98M31.636 42.505l-2.963 1.2M25.627 34.599l1.059 3.034M37.692 43.748l2.928-1.285M31.672 56.597l-3.045-.973M38.638 37.649l-.965-3.066M34.465 40.025l-2.631-1.823M45.747 30.156l-3.193-.098M34.39 45.704l1.529 2.824M44.234 42.418l1.852-2.62M30.639 34.61l3.032-1.01M77.69 39.578l.935 3.075M88.746 47.005l-3.188.202M87.713 56.755l-3.118.699M75.757 58.606l-1.202-2.98M81.465 52.025l-2.631-1.823M75.747 52.156l-3.193-.098M85.234 53.418l1.852-2.62M80.639 45.61l3.032-1.01M27.384 49.515l1.55-2.811M39.69 49.578l.935 3.075M53.821 34.221l2.659 1.783M57.746 42.005l-3.188.202M68.713 55.755l-3.118.699M38.757 56.606l-1.202-2.98M60.636 55.505l-2.963 1.2M31.627 50.599l1.059 3.034M55.204 30.722l-.086-3.215M64.574 31.56l-.827 3.105M24.128 44.334l2.064-2.454M52.75 39.074l-3.195.067M59.487 28.656l1.337 2.92M62.746 37.005l-3.188.202M64.234 42.418l1.852-2.62M66.639 36.61l3.032-1.01M58.692 45.748l2.928-1.285M56.672 49.597l-3.045-.973M53.638 55.649l-.965-3.066M69.747 50.173l-3.192-.132M70.729 47.66l.86-3.097M48.465 52.025l-2.631-1.823M44.747 46.156l-3.193-.098M71.39 39.704l1.529 2.824M63.86 45.166l2.582 1.894M63.6 52.787l-2.9-1.351M44.234 57.418l1.852-2.62M22.639 54.61l3.032-1.01M80.384 57.515l1.55-2.811M74.821 45.221l2.659 1.783"/></g></svg>