<svg xmlns="http://www.w3.org/2000/svg" viewBox="0 0 110 110"><g fill="none" fill-rule="evenodd"><circle cx="55" cy="55" r="55" fill="#DCF7F4"/><path fill="#77DDC8" d="M78.481 88c0 2.762-10.406 5-23.24 5C42.406 93 32 90.762 32 88s10.406-5 23.241-5c12.834 0 23.24 2.238 23.24 5"/><path fill="#F5DD48" d="M34.279 64.524c-1.428 2.786-2.021 5.419-2.238 8.542-.218 3.123.426 6.355 2.134 8.979 2.128 3.272 5.736 5.358 9.495 6.415 3.713 1.044 7.61 1.189 11.467 1.303 3.856-.114 7.753-.259 11.466-1.303 3.759-1.057 7.367-3.143 9.496-6.415 1.708-2.624 2.352-5.856 2.134-8.979-.218-3.123-1.48-6.515-2.906-9.302C72.304 57.864 64.042 55 55.616 55c-8.967.001-18.12 3.244-21.337 9.524"/><path fill="#000" fill-rule="nonzero" d="M63 59c11.27 13.382 12.68 26-9.215 29.245-3.659.5-5.1.751-4.323.755h7.843C84 88.245 78.274 67.437 71 59h-8z" opacity=".05"/><path fill="#33CCAB" d="M75.621 28.788c-2.661.759-5.463 1.031-8.037 2.046-2.575 1.015-5.008 3.021-5.473 5.75l-.748 1.713 4.347 10.025h4.324l6.656-1.637c2.828-2.755 3.879-6.856 4.268-10.785.391-3.929.253-7.94 1.249-11.76-1.235 2.476-3.924 3.889-6.586 4.648M27.872 35.9c.39 3.929 1.441 8.03 4.268 10.785l6.656 1.637h4.324l4.347-10.025-.747-1.713c-.466-2.729-2.899-4.735-5.474-5.75-2.574-1.015-5.376-1.287-8.037-2.046-2.661-.759-5.351-2.172-6.586-4.648.997 3.82.858 7.831 1.249 11.76"/><path fill="#000" d="M75.621 28.788c-2.661.759-5.463 1.031-8.037 2.046-2.575 1.015-5.008 3.021-5.473 5.75l-.748 1.713 4.347 10.025h4.324l6.656-1.637c2.828-2.755 3.879-6.856 4.268-10.785.391-3.929.253-7.94 1.249-11.76-1.235 2.476-3.924 3.889-6.586 4.648M27.872 35.9c.39 3.929 1.441 8.03 4.268 10.785l6.656 1.637h4.324l4.347-10.025-.747-1.713c-.466-2.729-2.899-4.735-5.474-5.75-2.574-1.015-5.376-1.287-8.037-2.046-2.661-.759-5.351-2.172-6.586-4.648.997 3.82.858 7.831 1.249 11.76" opacity=".1"/><path stroke="#29A389" stroke-width=".5" d="M27.995 27.406c7.278 16.435 16.186 23.537 26.725 21.305M81.005 27.406C73.727 43.841 64.819 50.943 54.28 48.711"/><path fill="#33CCAB" d="M37.344 39.409c-.411 6.513 8.005 14.1 8.005 14.1 6.546-4.924 6.278-16.445 6.278-16.445.456-2.688-.335-3.552-1.633-5.698-1.298-2.144-2.985-3.885-4.413-5.903-1.426-2.018-2.627-4.459-2.658-7.178-2.595 6.825-5.111 13.723-5.579 21.124"/><path fill="#33CCAB" d="M23.702 54.712c2.713 4.081 7.092 6.867 11.792 7.959 4.7 1.094 9.869.378 14.409-1.279l-6.707-13.663c-2.492-1.395-5.404-1.273-8.296-1.152-.896.037-1.788.075-2.667.067C26.306 46.594 16 40.22 16 40.22s4.772 10.082 7.702 14.492m53.822-8.068c-.879.008-1.772-.03-2.667-.067-2.892-.121-5.805-.243-8.295 1.152l-6.708 13.663c4.54 1.657 9.71 2.373 14.409 1.279 4.7-1.092 9.08-3.878 11.793-7.959 2.929-4.41 7.702-14.492 7.702-14.492s-10.306 6.374-16.234 6.424"/><path fill="#33CCAB" d="M63.534 25.177c-1.427 2.019-3.115 3.76-4.412 5.905-1.298 2.145-2.089 3.009-1.634 5.697 0 0-.268 11.522 6.278 16.445 0 0 8.417-7.586 8.005-14.1-.468-7.401-2.983-14.299-5.579-21.124-.03 2.719-1.23 5.16-2.658 7.177"/><path fill="#000" d="M37.344 39.409c-.411 6.513 8.005 14.1 8.005 14.1 6.546-4.924 6.278-16.445 6.278-16.445.456-2.688-.335-3.552-1.633-5.698-1.298-2.144-2.985-3.885-4.413-5.903-1.426-2.018-2.627-4.459-2.658-7.178-2.595 6.825-5.111 13.723-5.579 21.124" opacity=".05"/><path fill="#000" d="M23.702 54.712c2.713 4.081 7.092 6.867 11.792 7.959 4.7 1.094 9.869.378 14.409-1.279l-6.707-13.663c-2.492-1.395-5.404-1.273-8.296-1.152-.896.037-1.788.075-2.667.067C26.306 46.594 16 40.22 16 40.22s4.772 10.082 7.702 14.492m53.822-8.068c-.879.008-1.772-.03-2.667-.067-2.892-.121-5.805-.243-8.295 1.152l-6.708 13.663c4.54 1.657 9.71 2.373 14.409 1.279 4.7-1.092 9.08-3.878 11.793-7.959 2.929-4.41 7.702-14.492 7.702-14.492s-10.306 6.374-16.234 6.424" opacity=".05"/><path fill="#000" d="M63.534 25.177c-1.427 2.019-3.115 3.76-4.412 5.905-1.298 2.145-2.089 3.009-1.634 5.697 0 0-.268 11.522 6.278 16.445 0 0 8.417-7.586 8.005-14.1-.468-7.401-2.983-14.299-5.579-21.124-.03 2.719-1.23 5.16-2.658 7.177" opacity=".05"/><path stroke="#29A389" stroke-width=".5" d="M17 41.22c12 13.382 22.667 17.383 32 12.004M93 41.22C81 54.602 70.333 58.603 61 53.224M66.1 20.133c.037 17.974-5.213 28.085-15.748 30.333M42.9 20.133c-.037 17.974 5.213 28.085 15.748 30.333"/><path fill="#33CCAB" d="M51.474 23.118c-.191 2.28-.528 4.108-1.406 6.198-1.413 3.365-3.861 6.203-5.397 9.514-2.404 5.181-2.366 11.435.1 16.586 1.097 2.293 2.685 4.399 4.807 5.796 2.123 1.399 6.504 1.446 6.647 1.434 2.563-.211 5.692-2.142 7.118-4.343 1.459-2.251 2.817-4.644 3.291-7.285.975-5.434-1.948-10.806-5.385-15.128-3.436-4.322-9.585-16.193-9.585-16.193s-.184 3.353-.19 3.421"/><path stroke="#29A389" stroke-width=".5" d="M52.141 20.133c5.116 20.502 6.022 34.674 2.718 42.514"/></g></svg>