<svg xmlns="http://www.w3.org/2000/svg" width="163" height="179" viewBox="0 0 163 179">
  <g fill="none" fill-rule="evenodd">
    <path fill="#33CCAB" fill-rule="nonzero" d="M161,107.995968 C155.853516,135.840745 120.952457,155.623006 99.2188927,163.858323 C77.485328,172.135444 58.2398723,185.410755 35.38,174.416398 C12.4784126,163.42204 5.26953125,142.920276 2.13476563,119.640276 C-1,96.3602764 -1,82.0575421 12,57.0802764 C25,32.1030108 49.2053648,14.2701235 75.95,14.2701235 C164.959677,27.0204783 166.146484,80.1511904 161,107.995968 Z" transform="matrix(1 0 0 -1 0 192.86)"/>
    <path fill="#29A389" fill-rule="nonzero" d="M140.255146,153.685004 C126.343665,168.284625 105.391902,178.758921 75.95,178.590153 C54.6695723,178.590153 34.9968123,167.299761 21.2974255,150.103512 C27.5440091,139.750791 36.7,139 36.7,139 L124.41,139 C128.524033,139 135.322341,142.492325 140.255146,153.685004 Z"/>
    <path fill="#FDB797" fill-rule="nonzero" d="M65.63,106.30283 L94.02,106.30283 C95.8701539,106.30283 97.37,107.802677 97.37,109.65283 L97.37,134.37283 C97.37,144.059905 89.5170745,151.91283 79.83,151.91283 L79.83,151.91283 C70.1429255,151.91283 62.29,144.059905 62.29,134.37283 L62.29,109.65283 C62.29,107.806575 63.7837525,106.308342 65.63,106.30283 Z"/>
    <path fill="#000" fill-rule="nonzero" d="M62.28,107.60283 L97.37,107.60283 L97.37,135.67283 C97.37,145.359905 89.5170745,153.21283 79.83,153.21283 L79.83,153.21283 C70.1429255,153.21283 62.29,145.359905 62.29,135.67283 L62.29,107.60283 L62.28,107.60283 Z" opacity=".05"/>
    <path fill="#000" fill-rule="nonzero" d="M62.35,120.85283 C73.6586913,125.079472 86.1074023,125.114949 97.44,120.95283 L97.44,116.64283 L62.35,116.64283 L62.35,120.85283 Z" opacity=".1"/>
    <path fill="#F4F0EB" fill-rule="nonzero" d="M54.697421,116.781113 C49.2643338,116.343473 44.5471875,115.79051 42.8338065,115.590682 C39.9688884,115.252718 36.0467827,111.846988 32.4093099,107.452336 C31.6717271,108.040255 31.254185,108.067326 31.2588746,107.403568 C26.7439224,110.978312 20.5739902,111.633382 15.4090825,109.08636 C20.8266809,105.773059 22.6721191,99.2669177 23.4345793,92.7141438 C23.111761,91.8460738 22.8623479,91.0298707 22.6984132,90.2842395 C22.5862982,90.090302 22.4733493,89.8978748 22.3597804,89.7066079 C21.6154031,90.3652107 20.7219724,90.8519012 19.7414857,91.1164064 C18.7537374,91.3828706 17.7289458,91.4100053 16.747746,91.2103564 C13.408689,92.0235718 9.822761,91.6747151 6.62265014,90.0966132 C13.4091717,85.9461042 14.5902265,76.7853613 15.0588457,68.7989419 C14.2227627,70.4383706 12.7318506,71.6473339 10.9550534,72.1266593 C9.17825616,72.6059847 7.281594,72.3108851 5.73441865,71.3143864 C11.0391613,67.7758598 14.523683,62.4818801 17.7310557,56.8830996 C18.7213395,52.2383184 19.3581567,47.1506934 21.9829687,43.1979339 C24.6100864,39.2417024 26.5477643,38.4194183 31.4028906,36.3502777 C39.1060156,33.0673871 31.4028906,22.1373871 49.2466406,16.5475433 C57.371201,14.0023932 57.6242969,7.27801206 65.6802344,7.27801206 C67.3351699,7.27801206 78.5571846,6.65248492 79.6799219,7.27801206 C84.453098,9.93736186 80.3318493,13.4361819 85.3540625,15.5885589 C87.4706818,16.4956815 91.7713,13.2147748 94.0728125,13.1373871 C98.8442155,12.9769498 106.918628,15.4272011 111.69,15.5885589 C115.520439,15.7180963 116.589044,22.1373871 120.679922,22.1373871 C128.475312,22.1373871 134.249922,27.4923269 134.249922,36.3502777 C134.249922,42.0252058 136.211306,47.6497292 138.111997,53.3022092 C143.768739,62.115515 147.579363,72.5468062 156.225766,78.3143864 C154.678591,79.3108851 152.781929,79.6059847 151.005132,79.1266593 C149.228334,78.6473339 147.737422,77.4383706 146.901339,75.7989419 C147.369958,83.7853613 148.551013,92.9461042 155.337535,97.0966132 C150.172627,99.6436346 144.002695,98.9885652 139.487743,95.413821 C139.537673,102.480893 135.148851,110.261249 128.122601,111.09011 C125.849564,111.35521 121.321395,111.362023 116.933802,110.871782 C118.154375,113.407239 119.880541,115.577759 122.347264,117.08636 C117.279495,119.585479 111.244149,119.00182 106.753954,115.602162 C98.9350574,120.618413 89.679833,123.52 79.76,123.52 C70.6451206,123.52 62.0913656,121.070211 54.697421,116.781113 Z"/>
    <path fill="#F9C9B8" fill-rule="nonzero" d="M129.808678,79.7520969 C126.637386,104.474407 105.514868,123.58 79.93,123.58 C54.3734597,123.58 33.2693936,104.516692 30.0619219,79.8341952 C27.7693659,79.2673788 26,75.5908976 26,71.14 C26,66.2964627 28.0953074,62.37 30.68,62.37 C30.7294932,62.37 30.7788069,62.3714397 30.8279299,62.374298 C35.8133014,39.8482042 55.9040962,23 79.93,23 C103.955246,23 124.045598,39.8472813 129.03166,62.3724472 C131.56477,62.48359 133.6,66.366405 133.6,71.14 C133.6,75.414125 131.968388,78.9741258 129.808679,79.7520908 Z"/>
    <path fill="#F4F0EB" d="M60,95.237429 C65.610045,88.2198797 72.374637,84.8101208 80.2937759,85.0081525 C92.1724843,85.3052 95.9315556,88.806677 100.587552,95.237429 C88.0597248,95.237429 74.5305408,95.237429 60,95.237429 Z" transform="matrix(-1 0 0 1 160.588 0)"/>
    <path fill="#F4F0EB" d="M79.8048268,44.6687334 C66.7291937,44.1793064 52.5765828,41.6201759 44.0491165,34.71 C39.7598226,31.234199 47.9468529,26.2711065 51.2491165,23 C61.1391165,13.22 77.3591165,11.16 85.6791165,1.77635684e-14 C86.5932767,1.59720771 86.7887083,3.50671488 86.2170494,5.25599112 C85.6453905,7.00526736 84.3600557,8.43086397 82.6791165,9.18 C90.6791165,9.13 99.8891165,8.43 104.389117,1.87 C106.662337,7.1611302 105.685256,13.288323 101.879117,17.61 C108.939117,17.93 116.479117,22.72 116.939117,29.78 C117.058015,31.6427478 116.667985,33.4662264 115.912832,35.1570544 C123.199152,43.4091407 128.02379,53.6711517 129.774531,62.9935083 C120.548424,50.2407324 112.117588,43.6617888 104.482025,43.2566775 C102.963087,43.5173844 101.210292,43.7639114 99.2742586,43.9790289 C99.001668,44.0717782 98.7301969,44.1732192 98.4598456,44.2833521 C92.9776493,46.5166307 86.7593097,46.6450912 79.8048268,44.6687334 Z"/>
  </g>
</svg>
