<svg xmlns="http://www.w3.org/2000/svg" xmlns:xlink="http://www.w3.org/1999/xlink" width="164" height="173" viewBox="0 0 164 173">
  <defs>
    <path id="alek-a" d="M132.922912,53.6023614 C148.899794,76.6779708 164.91839,96.7855217 163.958943,117.770949 C162.999496,138.79818 145.062005,160.745091 123.32844,168.980408 C101.594875,177.257529 76.0652371,171.864859 53.2053648,160.870502 C30.3037774,149.876145 10.0302411,133.2801 2.93867484,111.082367 C-4.15289138,88.9264373 1.89579745,61.1688203 17.7892488,38.0932109 C33.6409851,15.0176015 59.2957687,-3.3341965 80.1116014,0.511738397 C100.927434,4.35767329 116.904316,30.4849484 132.922912,53.6023614 Z"/>
  </defs>
  <g fill="none" fill-rule="evenodd">
    <mask id="alek-b" fill="#fff">
      <use xlink:href="#alek-a"/>
    </mask>
    <use fill="#FFBCA3" fill-rule="nonzero" xlink:href="#alek-a"/>
    <path fill="#FF9770" fill-rule="nonzero" d="M104.14,188.360153 C126.307739,188.396473 147.995803,181.906748 166.5,169.7 C162.31,146.85 146.41,145.54 146.41,145.54 L58.7,145.54 C58.7,145.54 43.7,146.77 39,167.79 C58.0688858,181.207448 80.8237135,188.392999 104.14,188.360153 Z" mask="url(#alek-b)"/>
    <ellipse cx="102.95" cy="75.07" fill="#4A2212" fill-rule="nonzero" rx="50.76" ry="51.76"/>
    <path fill="#714129" fill-rule="nonzero" d="M88.59,116.38 L116.98,116.38 C118.830154,116.38 120.33,117.879846 120.33,119.73 L120.33,144.45 C120.33,154.137075 112.477075,161.99 102.79,161.99 L102.79,161.99 C93.1029255,161.99 85.25,154.137075 85.25,144.45 L85.25,119.73 C85.25,117.879846 86.7498461,116.38 88.6,116.38 L88.59,116.38 Z"/>
    <path fill="#000" fill-rule="nonzero" d="M85.27,117.68 L120.360026,117.68 L120.360026,145.75 C120.367965,150.407093 118.523523,154.876171 115.233272,158.172051 C111.94302,161.46793 107.4771,163.32 102.82,163.32 L102.82,163.32 C93.1329255,163.32 85.28,155.467075 85.28,145.78 L85.28,117.68 L85.27,117.68 Z" opacity=".1"/>
    <path fill="#000" fill-rule="nonzero" d="M85.31,130.93 C96.6186913,135.156642 109.067402,135.192118 120.4,131.03 L120.4,126.72 L85.31,126.72 L85.31,130.93 Z" opacity=".1"/>
    <circle cx="102.95" cy="82.99" r="50.29" fill="#714129" fill-rule="nonzero"/>
    <ellipse cx="52.64" cy="82.94" fill="#714129" fill-rule="nonzero" rx="4.68" ry="8.77"/>
    <ellipse cx="153.23" cy="82.94" fill="#714129" fill-rule="nonzero" rx="4.68" ry="8.77"/>
  </g>
</svg>
