<svg xmlns="http://www.w3.org/2000/svg" width="164" height="174" viewBox="0 0 164 174">
  <g fill="none">
    <path fill="#29A389" d="M132.922912,54.6023614 C148.899794,77.6779708 164.91839,97.7855217 163.958943,118.770949 C162.999496,139.79818 145.062005,161.745091 123.32844,169.980408 C101.594875,178.257529 76.0652371,172.864859 53.2053648,161.870502 C30.3037774,150.876145 10.0302411,134.2801 2.93867484,112.082367 C-4.15289138,89.9264373 1.89579745,62.1688203 17.7892488,39.0932109 C33.6409851,16.0176015 59.2957687,-2.3341965 80.1116014,1.5117384 C100.927434,5.35767329 116.904316,31.4849484 132.922912,54.6023614 Z" transform="matrix(-1 0 0 1 164 0)"/>
    <path fill="#07454C" d="M135.652683,146.540002 C128.173641,152.493768 119.682027,157.603935 110.794635,161.870502 C87.9347629,172.864859 62.4051245,178.257529 40.6715598,169.980408 C37.3219418,168.711166 34.062494,167.116224 30.9414749,165.249147 C36.4294148,147.628188 49.7,146.54 49.7,146.54 L135.652686,146.54 Z"/>
    <circle cx="93.95" cy="73.07" r="54.76" fill="#F6F5FA"/>
    <path fill="#FFDFDF" d="M79.59,117.38 L107.98,117.38 C109.830154,117.38 111.33,118.879846 111.33,120.73 L111.33,145.45 C111.33,155.137075 103.477075,162.99 93.79,162.99 L93.79,162.99 C84.1029255,162.99 76.25,155.137075 76.25,145.45 L76.25,120.73 C76.25,118.879846 77.7498461,117.38 79.6,117.38 L79.59,117.38 Z"/>
    <path fill="#000" d="M76,119 L111.090026,119 L111.090026,147.07 C111.097965,151.727093 109.253523,156.196171 105.963272,159.492051 C102.67302,162.78793 98.2070997,164.64 93.55,164.64 L93.55,164.64 C83.8629255,164.64 76.01,156.787075 76.01,147.1 L76.01,119 L76,119 Z" opacity=".1"/>
    <path fill="#000" d="M76.31,131.93 C87.6186913,136.156642 100.067402,136.192118 111.4,132.03 L111.4,127.72 L76.31,127.72 L76.31,131.93 Z" opacity=".1"/>
    <path fill="#FFDFDF" d="M143.882237,92.6861535 C139.885942,116.463793 119.203604,134.58 94.29,134.58 C69.3108467,134.58 48.5852549,116.368338 44.6665661,92.4983561 C44.3362073,92.636904 43.9926589,92.71 43.64,92.71 C41.0553074,92.71 38.96,88.7835373 38.96,83.94 C38.96,79.0964627 41.0553074,75.17 43.64,75.17 C44.0324162,75.17 44.4135519,75.260506 44.7777871,75.4309865 C48.9630588,51.881504 69.5383049,34 94.29,34 C118.965308,34 139.489905,51.7713042 143.762996,75.213117 C143.916601,75.1845998 144.072391,75.17 144.23,75.17 C146.814693,75.17 148.91,79.0964627 148.91,83.94 C148.91,88.7835373 146.814693,92.71 144.23,92.71 C144.113027,92.71 143.997057,92.7019582 143.882237,92.6861535 Z"/>
    <path fill="#000" d="M58.13,38.25 C58.13,38.25 79.32,81.25 139.13,56.25 L125.21,34.42 L100.54,25.56 L58.13,38.25 Z" opacity=".1"/>
    <path fill="#F6F5FA" d="M58.13,37.62 C58.13,37.62 79.32,80.62 139.13,55.62 L125.21,33.79 L100.54,24.93 L58.13,37.62 Z"/>
    <path fill="#F6F5FA" d="M57.94,34.71 C59.3686125,30.286862 61.8377363,26.2711065 65.14,23 C75.03,13.22 91.25,11.16 99.57,0 C100.48416,1.59720771 100.679592,3.50671488 100.107933,5.25599112 C99.5362739,7.00526736 98.2509392,8.43086397 96.57,9.18 C104.57,9.13 113.78,8.43 118.28,1.87 C120.55322,7.1611302 119.576139,13.288323 115.77,17.61 C122.83,17.93 130.37,22.72 130.83,29.78 C131.13,34.48 128.19,38.93 124.32,41.63 C120.45,44.33 115.79,45.54 111.19,46.54 C97.77,49.54 49.18,61.95 57.94,34.71 Z"/>
  </g>
</svg>
