<svg xmlns="http://www.w3.org/2000/svg" width="1065" height="837" viewBox="0 0 1065 837">
  <g fill="none" transform="matrix(-1 0 0 1 1065 0)">
    <path fill="#F2F2F2" d="M664.01461,134.62623 L664.01461,551.61556 C664.01461,561.939745 655.645205,570.30915 645.32102,570.30915 L44.4937,570.30915 C40.998869,570.30915 37.6471762,568.920838 35.1759566,566.449621 C32.7047369,563.978403 31.31642,560.626711 31.31642,557.13188 L31.31642,186.1268 C31.31642,139.272967 69.2989566,101.29043 116.15279,101.29043 L630.67879,101.29043 C639.519997,101.29043 647.999091,104.80258 654.25077,111.054256 C660.502449,117.305931 664.01461,125.785023 664.01461,134.62623 Z"/>
    <path fill="#2F2E41" d="M440.882305,474.15665 C440.93112,507.495363 433.298404,540.397155 418.57615,570.30915 L44.4937,570.30915 C40.998869,570.30915 37.6471762,568.920838 35.1759566,566.449621 C32.7047369,563.978403 31.31642,560.626711 31.31642,557.13188 L31.31642,370.04768 C78.9249535,282.415639 179.929012,238.263289 276.584585,262.832525 C373.240158,287.401761 440.899623,374.427312 440.882305,474.15668 L440.882305,474.15665 Z"/>
    <path fill="#3F3D56" d="M664.01465,439.36557 L664.01465,551.61557 C664.01465,561.939755 655.645205,570.30916 645.32102,570.30916 L43.66518,570.30916 C36.4413248,570.30916 30.58248,564.454215 30.58248,557.23036 L30.58248,557.09736 C30.58248,463.60189 321.38148,383.85401 404.06526,352.88702 C500.269456,316.971712 608.49798,352.976589 664.01465,439.36557 L664.01465,439.36557 Z"/>
    <circle cx="580.926" cy="229.738" r="54.315" fill="#FFBCA3"/>
    <path fill="#F5DD47" d="M281.36145,242.20046 C281.36145,348.1493 218.37655,385.14268 140.68073,385.14268 C62.98491,385.14268 0,348.14929 0,242.20046 C0,136.25163 140.68073,1.46798 140.68073,1.46798 C140.68073,1.46798 281.36145,136.25162 281.36145,242.20046 Z"/>
    <polygon fill="#3F3D56" points="135.556 368.936 136.997 280.266 196.958 170.569 137.222 266.356 137.87 226.487 179.195 147.122 138.042 215.936 138.042 215.936 139.206 144.229 183.459 81.045 139.39 132.953 140.118 1.468 135.543 175.531 135.919 168.35 90.928 99.484 135.198 182.134 131.006 262.219 130.881 260.093 79.014 187.621 130.724 267.603 130.2 277.618 130.106 277.769 130.149 278.591 119.513 481.772 133.723 481.772 135.428 376.825 187.011 297.04"/>
    <path fill="#F5DD47" d="M510.73941,193.64365 C510.73941,278.86822 460.07476,308.62545 397.57674,308.62545 C335.07872,308.62545 284.41408,278.86822 284.41408,193.64365 C284.41408,108.41908 397.57674,0 397.57674,0 C397.57674,0 510.73941,108.41909 510.73941,193.64365 Z"/>
    <polygon fill="#3F3D56" points="393.454 295.589 394.613 224.263 442.846 136.024 394.795 213.075 395.316 181.004 428.558 117.163 395.454 172.517 395.454 172.517 396.391 114.836 431.987 64.011 396.538 105.766 397.124 0 393.444 140.015 393.747 134.239 357.556 78.843 393.166 145.327 389.794 209.746 389.694 208.036 347.972 149.74 389.567 214.077 389.146 222.133 389.07 222.254 389.105 222.916 380.549 386.353 391.98 386.353 393.351 301.935 434.845 237.756"/>
    <path fill="#F5DD47" d="M743.86988,313.86519 C743.86988,371.24151 709.76057,391.27519 667.6846,391.27519 C625.60863,391.27519 591.49933,371.24152 591.49933,313.86519 C591.49933,256.48886 667.6846,183.49719 667.6846,183.49719 C667.6846,183.49719 743.86988,256.48888 743.86988,313.86519 Z"/>
    <polygon fill="#3F3D56" points="664.909 382.498 665.689 334.48 698.161 275.073 665.812 326.947 666.162 305.355 688.542 262.376 666.255 299.642 666.255 299.642 666.886 260.809 690.851 226.592 666.985 254.703 667.38 183.497 664.902 277.76 665.106 273.872 640.741 236.577 664.715 281.337 662.445 324.706 662.377 323.555 634.289 284.308 662.292 327.622 662.008 333.045 661.958 333.127 661.981 333.572 656.221 443.604 663.917 443.604 664.84 386.771 692.775 343.563"/>
    <path fill="#F5DD47" d="M182.23166 419.72706C178.85995 425.10545 174.48531 424.97896 170.54115 422.50637 166.59699 420.03378 164.57689 416.15142 167.94861 410.77303 171.32033 405.39464 182.75119 403.02948 182.75119 403.02948 182.75119 403.02948 185.60337 414.34866 182.23166 419.72706zM77.27129 434.40683C73.89958 439.78523 69.52493 439.65873 65.58078 437.18615 61.63663 434.71357 59.61652 430.83115 62.98823 425.4528 66.35994 420.07445 77.79082 417.70925 77.79082 417.70925 77.79082 417.70925 80.643 429.02843 77.27129 434.40683zM449.36176 408.53456C449.9857 414.8517 446.44812 417.42834 441.81554 417.88589 437.18296 418.34344 433.20968 416.50867 432.58573 410.19152 431.96178 403.87437 439.55605 395.00952 439.55605 395.00952 439.55605 395.00952 448.73781 402.21742 449.36176 408.53456zM328.2954 330.18045C324.92369 335.55884 320.54904 335.43235 316.60488 332.95976 312.66072 330.48717 310.64063 326.60476 314.01234 321.22641 317.38405 315.84806 328.81493 313.48287 328.81493 313.48287 328.81493 313.48287 331.66711 324.80205 328.2954 330.18045zM607.21107 413.12116C603.83936 418.49956 599.46471 418.37306 595.52056 415.90048 591.57641 413.4279 589.5563 409.54548 592.92801 404.16713 596.29972 398.78878 607.7306 396.42358 607.7306 396.42358 607.7306 396.42358 610.58278 407.74276 607.21107 413.12116z"/>
    <path fill="#FFB9B9" d="M925.61342,732.76742 C925.61342,732.76742 933.14295,765.52984 944.87153,772.59088 C956.60011,779.65192 916.24453,793.04182 916.24453,793.04182 C916.24453,793.04182 911.74599,758.35628 901.50724,744.57502 C891.26849,730.79376 925.61342,732.76742 925.61342,732.76742 Z"/>
    <path fill="#33CCAB" d="M884.84131,334.19493 L880.89478,332.78545 C880.89478,332.78545 870.74656,331.37597 861.44402,343.21557 C852.14148,355.05517 830.85839,390.9968 830.85839,390.9968 L822.96533,409.60188 L850.87295,410.44757 L871.87414,364.21676 L884.84131,334.19493 Z"/>
    <path fill="#000" d="M884.84131,334.19493 L880.89478,332.78545 C880.89478,332.78545 870.74656,331.37597 861.44402,343.21557 C852.14148,355.05517 830.85839,390.9968 830.85839,390.9968 L822.96533,409.60188 L850.87295,410.44757 L871.87414,364.21676 L884.84131,334.19493 Z" opacity=".1"/>
    <path fill="#2F2E41" d="M880.61288,620.45946 C880.61288,620.45946 896.53995,623.98315 893.86195,636.24559 C891.18395,648.50803 910.49376,664.4351 912.32608,667.11311 C914.1584,669.79112 916.8364,670.91869 915.14508,675.00617 C913.45376,679.09365 954.46946,736.74117 946.2945,741.95627 C938.11954,747.17137 871.87418,767.60873 865.95438,763.52127 C860.03458,759.43381 855.24238,625.67454 855.24238,625.67454 L880.61288,620.45946 Z"/>
    <path fill="#000" d="M880.61288,620.45946 C880.61288,620.45946 896.53995,623.98315 893.86195,636.24559 C891.18395,648.50803 910.49376,664.4351 912.32608,667.11311 C914.1584,669.79112 916.8364,670.91869 915.14508,675.00617 C913.45376,679.09365 954.46946,736.74117 946.2945,741.95627 C938.11954,747.17137 871.87418,767.60873 865.95438,763.52127 C860.03458,759.43381 855.24238,625.67454 855.24238,625.67454 L880.61288,620.45946 Z" opacity=".1"/>
    <path fill="#FFB9B9" d="M844.38936,765.91736 C844.38936,765.91736 834.52303,798.05341 841.14756,810.03395 C847.77209,822.01449 806.12973,813.42505 806.12973,813.42505 C806.12973,813.42505 819.58255,781.13966 817.60928,764.08504 C815.63601,747.03042 844.38936,765.91736 844.38936,765.91736 Z"/>
    <path fill="#FFBCA3" d="M1065,836.073936 C1065,794.974357 894.019935,776.539927 866.501357,778.090018 C838.982778,779.64011 668,792.823806 668,836.073936 C668,836.690697 1065,836.073936 1065,836.073936 Z" opacity=".5"/>
    <path fill="#2F2E41" d="M825.92523,444.69783 C831.385731,440.79741 837.962419,438.770007 844.67123,438.91898 C855.52423,439.34182 891.04299,447.79867 890.05635,449.49004 C889.082798,450.978448 887.999173,452.391875 886.81456,453.71847 C886.81456,453.71847 889.06972,464.00765 888.08309,464.99428 C887.09646,465.98091 907.39291,489.23728 895.55331,539.1327 C883.71371,589.02812 884.98224,623.5603 884.98224,623.5603 C884.98224,623.5603 889.77446,769.86389 876.10254,772.82379 C862.43062,775.78369 808.58865,773.81042 806.0516,768.03157 C803.51455,762.25272 813.80371,582.82645 813.80371,582.82645 C813.80371,582.82645 814.9313,492.62 817.6093,481.62609 C820.2873,470.63218 825.92523,444.69783 825.92523,444.69783 Z"/>
    <path fill="#333" d="M908.99678,771.5 C908.99678,771.5 891.81678,795.84 880.36678,795.36 C880.36678,795.36 848.36678,801.56 870.36678,807.29 C892.36678,813.02 956.75678,791.54 956.75678,791.54 L949.09678,766.54 L908.99678,771.5 Z" transform="rotate(-17 909.7 787.4)"/>
    <path fill="#333" d="M815.68678,787 C815.68678,787 796.59678,803.22 777.98678,803.7 C777.98678,803.7 745.53678,802.7 754.59678,809.91 C763.65678,817.12 844.32678,827.56 844.32678,827.56 L847.91678,799.69 L815.68678,787 Z" transform="rotate(-11 800.458 807.28)"/>
    <circle cx="888.013" cy="283.383" r="33.968" fill="#FFB9B9"/>
    <path fill="#FFB9B9" d="M882.86805,305.86446 C882.86805,305.86446 903.86924,326.44281 877.93488,342.36989 C859.67358,353.58471 922.05147,333.63114 922.05147,333.63114 C922.05147,333.63114 909.0843,300.50846 911.05756,292.89729 C913.03082,285.28612 882.86805,305.86446 882.86805,305.86446 Z"/>
    <path fill="#33CCAB" d="M888.08311,338.00051 C888.08311,338.00051 917.25926,324.61051 922.05147,329.40271 C926.84368,334.19491 947.56299,353.92759 925.01137,388.88259 C902.45975,423.83759 898.09037,450.05384 894.2848,453.01373 C890.47923,455.97362 888.08311,449.20815 888.08311,449.20815 C888.08311,449.20815 877.0892,439.20087 869.90087,439.20087 C862.71254,439.20087 831.98597,442.58361 831.98597,442.58361 L840.58377,408.4743 C840.58377,408.4743 836.35535,381.5533 850.732,368.1633 C865.10865,354.7733 880.89478,332.78546 880.89478,332.78546 L889.03588,331.29829 L883.66018,338.14414 C883.66018,338.14414 882.86805,340.25567 888.08311,338.00051 Z"/>
    <path fill="#FFB9B9" d="M820.99206,412.42083 C820.99206,412.42083 808.44773,429.33454 816.76363,435.67718 C825.07953,442.01982 842.55704,431.16686 842.55704,431.16686 C842.55704,431.16686 882.86804,459.21543 882.30426,442.72456 C881.74048,426.23369 852.84621,414.81694 852.84621,414.81694 L833.39545,415.38073 L836.35535,405.65535 L828.18035,404.80966 L820.99206,412.42083 Z"/>
    <path fill="#000" d="M820.99206,412.42083 C820.99206,412.42083 808.44773,429.33454 816.76363,435.67718 C825.07953,442.01982 842.55704,431.16686 842.55704,431.16686 C842.55704,431.16686 882.86804,459.21543 882.30426,442.72456 C881.74048,426.23369 852.84621,414.81694 852.84621,414.81694 L833.39545,415.38073 L836.35535,405.65535 L828.18035,404.80966 L820.99206,412.42083 Z" opacity=".1"/>
    <path fill="#FFB9B9" d="M905.13777,379.86194 C905.13777,379.86194 825.92523,440.89224 820.85111,419.46821 C817.55341,405.54458 820.08998,371.26056 822.27023,348.96192 C823.828659,332.726454 831.079245,317.56541 842.73929,306.16092 C847.49164,301.53107 851.89985,298.62583 854.11474,300.79038 C860.31644,306.85113 839.59714,331.09411 839.59714,331.09411 C839.59714,331.09411 836.2144,380.28481 842.97988,385.92272 C842.97988,385.92272 867.49033,362.25548 872.57166,362.60187 C877.65299,362.94826 905.13777,379.86194 905.13777,379.86194 Z"/>
    <path fill="#2F2E41" d="M957.60649,315.14624 C951.11749,305.37836 945.75985,289.66771 939.97861,275.83116 C938.10496,271.34686 936.39321,266.80399 934.71714,262.24216 C931.33899,253.04769 916.63169,241.17951 897.37014,241.17951 C875.35477,241.17951 857.50783,252.25822 857.50783,261.55358 C857.50783,269.23873 869.71183,275.71609 886.3801,277.73126 C880.52403,290.80248 876.9961,305.30896 876.9961,315.14626 C876.9961,337.40626 895.04135,327.99078 917.30132,327.99078 C939.56129,327.99078 969.92396,333.68772 957.60649,315.14624 Z"/>
    <path fill="#33CCAB" d="M922.05147,341.8061 C922.05147,341.8061 936.14623,377.74773 904.43303,385.92269 C904.43303,385.92269 898.23133,377.32489 888.08311,375.91541 C877.93489,374.50593 868.91424,363.93487 868.91424,363.93487 C868.91424,363.93487 889.63353,334.75872 905.8425,334.19493 C922.05147,333.63114 922.05147,341.8061 922.05147,341.8061 Z"/>
  </g>
</svg>
