<svg xmlns="http://www.w3.org/2000/svg" xmlns:xlink="http://www.w3.org/1999/xlink" width="168" height="208" viewBox="0 0 168 208">
  <defs>
    <path id="audrey-a" d="M133.703074,53.6023614 C149.679955,76.6779708 166.490122,100.525228 167.135142,117.652995 C167.780162,134.780762 168.706919,150.52 124.108602,168.980408 C102.375037,177.257529 57.8001901,174.608615 34.9403178,163.614258 C6.14344278,154.185076 1.43250528,109.515625 0.606333404,99.7578125 C-0.219838471,90 2.67595898,61.1688203 18.5694103,38.0932109 C34.4211466,15.0176015 60.0759303,-3.3341965 80.8917629,0.511738397 C101.707595,4.35767329 117.684477,30.4849484 133.703074,53.6023614 Z"/>
  </defs>
  <g fill="none" fill-rule="evenodd">
    <use fill="#B9EFE9" fill-rule="nonzero" transform="matrix(-1 0 0 1 167.78 32)" xlink:href="#audrey-a"/>
    <path fill="#07454C" fill-rule="nonzero" d="M82.14,207.590153 C104.307739,207.626473 125.995803,201.136748 144.5,188.93 C140.32,166.09 124.41,164.78 124.41,164.78 L36.7,164.78 C36.7,164.78 21.7,166.01 17,187.03 C36.0700645,200.443899 58.8247959,207.625926 82.14,207.590153 L82.14,207.590153 Z"/>
    <path fill="#F8D1B9" fill-rule="nonzero" d="M66.63,135.61 L95.02,135.61 C96.8701539,135.61 98.37,137.109846 98.37,138.96 L98.37,163.68 C98.37,173.367075 90.5170745,181.22 80.83,181.22 L80.83,181.22 C71.1429255,181.22 63.29,173.367075 63.29,163.68 L63.29,138.96 C63.29,137.113744 64.7837525,135.615511 66.63,135.61 Z"/>
    <path fill="#000" fill-rule="nonzero" d="M63.28,136.91 L98.37,136.91 L98.37,164.98 C98.37,174.667075 90.5170745,182.52 80.83,182.52 L80.83,182.52 C71.1429255,182.52 63.29,174.667075 63.29,164.98 L63.29,136.91 L63.28,136.91 Z" opacity=".1"/>
    <path fill="#000" fill-rule="nonzero" d="M63.35,150.16 C74.6586913,154.386642 87.1074023,154.422118 98.44,150.26 L98.44,145.95 L63.35,145.95 L63.35,150.16 Z" opacity=".1"/>
    <circle cx="81.29" cy="85.739" r="54.76" fill="#390F20" fill-rule="nonzero"/>
    <g fill="#390F20" fill-rule="nonzero" transform="translate(55.707 .799)">
      <circle cx="26.635" cy="25.059" r="25.059"/>
      <path d="M15.7649054,38.8019048 C3.55226486,33.3237728 -2.19918507,19.2150028 2.70300066,6.76 C2.52966733,7.10666667 2.35633399,7.46571429 2.19538161,7.8247619 C-1.46931287,15.9945753 -0.497086579,25.4988855 4.74583223,32.7575107 C9.98875105,40.0161359 18.7058383,43.9263182 27.6134515,43.0151298 C36.5210647,42.1039414 44.2659255,36.5098135 47.9306197,28.34 C48.0915721,27.9809524 48.2401435,27.6219048 48.3887149,27.2504762 C42.3460552,39.1977844 27.9792399,44.284782 15.7649054,38.8019048 Z"/>
    </g>
    <circle cx="80.95" cy="102.22" r="50.29" fill="#F8D1B9" fill-rule="nonzero"/>
    <path fill="#000" fill-rule="nonzero" d="M45.48,50.9189535 C45.48,50.9189535 66.67,93.9189535 126.48,68.9189535 L112.56,47.0889535 L87.89,38.2289535 L45.48,50.9189535 Z" opacity=".1"/>
    <path fill="#390F20" fill-rule="nonzero" d="M45.48,50.2789535 C45.48,50.2789535 66.67,93.2789535 126.48,68.2789535 L112.56,46.4489535 L87.89,37.5889535 L45.48,50.2789535 Z"/>
    <ellipse cx="31.7" cy="100.07" fill="#F8D1B9" fill-rule="nonzero" rx="4.68" ry="8.77"/>
    <ellipse cx="129.94" cy="100.07" fill="#F8D1B9" fill-rule="nonzero" rx="4.68" ry="8.77"/>
  </g>
</svg>
