<svg xmlns="http://www.w3.org/2000/svg" width="746" height="824" viewBox="0 0 746 824">
  <g fill="none" fill-rule="evenodd" transform="translate(-1 -1)">
    <path fill="#F5DD48" fill-rule="nonzero" d="M109.57,771.18 C109.57,771.18 63.57,768.41 68.97,800.66 C68.97,800.66 67.9,806.36 73.06,808.95 C73.06,808.95 73.14,806.56 77.78,807.37 C79.4319692,807.64128 81.1096426,807.721808 82.78,807.61 C85.040336,807.452453 87.1882309,806.564516 88.9,805.08 L88.9,805.08 C88.9,805.08 101.83,799.74 106.9,778.6 C106.9,778.6 110.63,773.98 110.48,772.8 L102.71,776.11 C102.71,776.11 105.36,781.72 103.28,786.37 C103.28,786.37 103.03,776.37 101.53,776.56 C101.23,776.56 97.53,778.5 97.53,778.5 C97.53,778.5 102.1,788.26 98.65,795.35 C98.65,795.35 99.96,783.35 96.1,779.2 L90.57,782.39 C90.57,782.39 95.9,792.48 92.28,800.7 C92.28,800.7 93.21,788.08 89.42,783.17 L84.42,787.04 C84.42,787.04 89.42,796.97 86.42,803.79 C86.42,803.79 86.02,789.11 83.42,788 C83.42,788 79.09,791.82 78.42,793.39 C78.42,793.39 81.86,800.6 79.73,804.39 C79.73,804.39 78.42,794.6 77.35,794.56 C77.35,794.56 73.03,801.04 72.58,805.48 C72.58,805.48 72.77,798.87 76.3,793.94 C76.3,793.94 72.13,794.65 69.69,797.36 C69.69,797.36 70.36,792.78 77.37,792.36 C77.37,792.36 80.94,787.44 81.89,787.14 C81.89,787.14 74.89,786.56 70.7,788.43 C70.7,788.43 74.42,784.11 83.17,786.07 L88.06,782.07 C88.06,782.07 78.89,780.81 75,782.2 C75,782.2 79.47,778.38 89.38,781.2 L94.7,778.02 C94.7,778.02 86.88,776.33 82.22,776.94 C82.22,776.94 87.14,774.29 96.22,777.16 L100.07,775.46 C100.07,775.46 94.34,774.34 92.66,774.16 C90.98,773.98 90.9,773.52 90.9,773.52 C94.5285705,772.915246 98.2538146,773.330701 101.66,774.72 C101.66,774.72 109.74,771.69 109.57,771.18 Z"/>
    <ellipse cx="77.9" cy="811.76" fill="#F5DD48" fill-rule="nonzero" opacity=".1" rx="32.57" ry="5.51"/>
    <path fill="#F5DD48" fill-rule="nonzero" d="M197.89,686.21 C197.89,686.21 171.94,684.64 175,702.82 C174.673342,704.713321 175.601511,706.601944 177.3,707.5 C177.3,707.5 177.3,706.15 179.96,706.61 C180.89218,706.758663 181.838096,706.802269 182.78,706.74 C184.053821,706.654439 185.265021,706.155916 186.23,705.32 L186.23,705.32 C186.23,705.32 193.52,702.32 196.36,690.38 C196.36,690.38 198.46,687.78 198.36,687.12 L193.98,688.99 C193.98,688.99 195.47,692.14 194.3,694.77 C194.3,694.77 194.15,689.1 193.3,689.23 C193.13,689.23 191.03,690.33 191.03,690.33 C191.03,690.33 193.6,695.83 191.66,699.83 C191.66,699.83 192.4,693.05 190.22,690.73 L187.14,692.53 C187.14,692.53 190.14,698.21 188.14,702.85 C188.14,702.85 188.66,695.73 186.52,692.96 L183.73,695.14 C183.73,695.14 186.56,700.74 184.83,704.59 C184.83,704.59 184.61,696.31 183.12,695.68 C182.064894,696.562086 181.121266,697.569518 180.31,698.68 C180.31,698.68 182.24,702.74 181.04,704.89 C181.04,704.89 180.31,699.37 179.7,699.35 C179.7,699.35 177.27,703 177.02,705.5 C177.136995,703.184863 177.857506,700.940591 179.11,698.99 C177.707466,699.260405 176.414495,699.934696 175.39,700.93 C175.39,700.93 175.76,698.34 179.71,698.11 C179.71,698.11 181.71,695.34 182.26,695.17 C182.26,695.17 178.34,694.85 175.95,695.9 C175.95,695.9 178.05,693.46 182.95,694.57 L185.71,692.32 C185.71,692.32 180.54,691.61 178.35,692.39 C178.35,692.39 180.87,690.24 186.45,691.81 L189.45,690.01 C187.152757,689.50598 184.799507,689.304273 182.45,689.41 C182.45,689.41 185.22,687.91 190.37,689.53 L192.51,688.53 C192.51,688.53 189.28,687.89 188.34,687.79 C187.4,687.69 187.34,687.43 187.34,687.43 C189.387257,687.089917 191.488744,687.325339 193.41,688.11 C193.41,688.11 197.96,686.46 197.89,686.21 Z"/>
    <ellipse cx="180.01" cy="709.09" fill="#F5DD48" fill-rule="nonzero" opacity=".1" rx="18.36" ry="3.1"/>
    <path fill="#F5DD48" fill-rule="nonzero" d="M44.74,701.98 C44.74,701.98 13.41,700.1 17.1,722.05 C16.7107858,724.333178 17.832108,726.608091 19.88,727.69 C19.88,727.69 19.94,726.06 23.1,726.61 C24.2226659,726.800528 25.3639281,726.857591 26.5,726.78 C28.0382215,726.680335 29.5005341,726.075725 30.66,725.06 L30.66,725.06 C30.66,725.06 39.47,721.42 42.89,707.06 C42.89,707.06 45.43,703.92 45.33,703.06 L40.04,705.32 C40.04,705.32 41.85,709.13 40.43,712.32 C40.43,712.32 40.25,705.48 39.24,705.64 C39.03,705.64 36.49,706.96 36.49,706.96 C36.49,706.96 39.6,713.61 37.25,718.43 C37.25,718.43 38.14,710.25 35.52,707.43 L31.8,709.6 C31.8,709.6 35.43,716.47 32.97,722.07 C32.97,722.07 33.6,713.48 31.02,710.13 L27.65,712.76 C27.65,712.76 31.06,719.53 28.98,724.17 C28.98,724.17 28.7,714.17 26.91,713.42 C26.91,713.42 23.96,716.02 23.51,717.09 C23.51,717.09 25.85,722 24.4,724.59 C24.4,724.59 23.51,717.93 22.78,717.9 C22.78,717.9 19.84,722.31 19.54,725.34 C19.6776444,722.536904 20.5501677,719.819322 22.07,717.46 C20.3737955,717.778077 18.8087478,718.588423 17.57,719.79 C17.57,719.79 18.03,716.67 22.8,716.39 C22.8,716.39 25.22,713.05 25.88,712.84 C25.88,712.84 21.13,712.45 18.26,713.72 C18.26,713.72 20.79,710.78 26.74,712.11 L30.07,709.46 C30.07,709.46 23.83,708.6 21.18,709.55 C21.18,709.55 24.23,706.94 30.97,708.84 L34.6,706.67 C34.6,706.67 29.27,705.53 26.1,705.94 C26.1,705.94 29.45,704.14 35.66,706.09 L38.25,704.93 C38.25,704.93 34.35,704.16 33.25,704.04 C32.15,703.92 32.04,703.6 32.04,703.6 C34.5121517,703.190287 37.0494952,703.474137 39.37,704.42 C39.37,704.42 44.83,702.33 44.74,701.98 Z"/>
    <ellipse cx="23.15" cy="729.61" fill="#F5DD48" fill-rule="nonzero" opacity=".1" rx="22.17" ry="3.75"/>
    <path stroke="#444053" d="M308.72,194.27 C300.44,197.48 291.09,201.85 288.94,210.46 C288.254109,213.782862 288.433163,217.226199 289.46,220.46 C291.916191,228.901711 297.639399,236.014327 305.36,240.22 C314.87,245.33 326.68,245.61 335.36,251.97 C340.667919,255.891158 344.27446,261.69454 345.44,268.19 C345.91,270.91 345.95,273.74 346.95,276.32 C349.62,283.23 358.02,285.92 365.42,286.32 C368.98,286.53 372.88,286.54 375.6,288.85 C376.687308,289.876908 377.611306,291.063943 378.34,292.37 C384.1,301.56 390.06,311.37 390.12,322.24 C390.12,330.76 386.52,338.86 382.31,346.24 C376.82,355.87 370.07,365.33 368.81,376.34 C367.33,389.34 373.81,401.88 374.65,414.91 C375.4633,428.97281 369.788427,442.633041 359.25,451.98"/>
    <path fill="#F5DD48" fill-rule="nonzero" d="M275.21,80.53 C281.57,126.85 280.49,185.1 238.9,190.81 C197.31,196.52 130.97,147.52 124.57,101.21 C118.17,54.9 146.77,12.72 188.36,7.01 C229.95,1.3 268.85,34.22 275.21,80.53 Z"/>
    <path fill="#F5DD48" fill-rule="nonzero" d="M262.57,207.01 C262.57,207.01 255.77,210.09 254.74,203.47 C254.655889,202.880466 254.615778,202.285489 254.62,201.69 C254.591909,199.639825 254.209614,197.609938 253.49,195.69 C253.236992,195.009358 252.949964,194.341851 252.63,193.69 C251.189309,190.73738 249.250994,188.054861 246.9,185.76 L262.9,173.54 C262.9,173.54 260.08,183.4 262.77,185.77 C263.164299,186.108123 263.67084,186.286482 264.19,186.27 C264.675802,186.266978 265.15699,186.175485 265.61,186 C266.16,185.81 266.66,185.66 267.12,185.54 C272.53,184.16 272.12,187.61 272.12,187.61 C276.39,195.09 262.57,207.01 262.57,207.01 Z"/>
    <path fill="#444053" fill-rule="nonzero" d="M264.19,186.21 L253.51,195.66 C253.256992,194.979358 252.969964,194.311851 252.65,193.66 C255.54,191.54 259.97,188 262.77,185.74 C263.168679,186.067325 263.674762,186.234832 264.19,186.21 Z"/>
    <path fill="#F5DD48" fill-rule="nonzero" d="M262.57,207.01 C262.57,207.01 255.77,210.09 254.74,203.47 C257.484739,202.462271 260.005523,200.926699 262.16,198.95 C265.01,196.06 267.77,189.53 267.1,185.48 C272.51,184.1 272.1,187.55 272.1,187.55 C276.39,195.09 262.57,207.01 262.57,207.01 Z"/>
    <path fill="#000" fill-rule="nonzero" d="M262.57,207.01 C262.57,207.01 255.77,210.09 254.74,203.47 C257.484739,202.462271 260.005523,200.926699 262.16,198.95 C265.01,196.06 267.77,189.53 267.1,185.48 C272.51,184.1 272.1,187.55 272.1,187.55 C276.39,195.09 262.57,207.01 262.57,207.01 Z" opacity=".1"/>
    <path fill="#FFF" fill-rule="nonzero" d="M158.82,31.93 C158.82,31.93 138.66,42.12 141.65,58.05 C141.65,58.05 145.11,54.77 148.65,53.99 C150.430628,53.6927988 152.116173,52.9802109 153.57,51.91 C153.57,51.91 151.84,43.11 158.82,31.93 Z" opacity=".1"/>
    <path fill="#F5DD48" fill-rule="nonzero" d="M290.94,310.56 C290.129748,316.000252 288.547121,321.297001 286.24,326.29 C285.63,327.69 284.96,329.11 284.24,330.51 C265.41,366.65 213.08,401.95 174,396.65 C137.51,391.7 109.33,366.58 101.74,335.82 C101.37,334.32 101.04,332.82 100.74,331.26 C99.5031358,324.224073 99.3614626,317.039217 100.32,309.96 C104.9,276.32 133.32,251.16 168.58,246.13 C171.691858,245.671328 174.826596,245.384228 177.97,245.27 C179.49,245.2 181.03,245.18 182.58,245.2 C186.540647,245.224511 190.495564,245.505096 194.42,246.04 C196.59,246.34 198.81,246.65 201.03,247.04 C201.22,247.04 201.4,247.11 201.59,247.13 C215.097357,249.132836 228.418385,252.236505 241.42,256.41 C245.42,257.74 249.29,259.16 253.01,260.78 C255.6,261.87 258.12,263.04 260.55,264.28 C271.46,269.82 280.39,276.75 285.78,285.4 C286.32,286.26 286.78,287.13 287.28,288.04 L287.49,288.46 C289.331473,292.088751 290.526033,296.010835 291.02,300.05 C291.453974,303.541704 291.427077,307.075306 290.94,310.56 L290.94,310.56 Z"/>
    <path fill="#000" fill-rule="nonzero" d="M290.94,310.56 C290.129748,316.000252 288.547121,321.297001 286.24,326.29 C285.63,327.69 284.96,329.11 284.24,330.51 C265.41,366.65 213.08,401.95 174,396.65 C137.51,391.7 109.33,366.58 101.74,335.82 C101.37,334.32 101.04,332.82 100.74,331.26 C99.5031358,324.224073 99.3614626,317.039217 100.32,309.96 C104.9,276.32 133.32,251.16 168.58,246.13 C171.691858,245.671328 174.826596,245.384228 177.97,245.27 C179.49,245.2 181.03,245.18 182.58,245.2 C186.540647,245.224511 190.495564,245.505096 194.42,246.04 C196.59,246.34 198.81,246.65 201.03,247.04 C201.22,247.04 201.4,247.11 201.59,247.13 C215.097357,249.132836 228.418385,252.236505 241.42,256.41 C245.42,257.74 249.29,259.16 253.01,260.78 C255.6,261.87 258.12,263.04 260.55,264.28 C271.46,269.82 280.39,276.75 285.78,285.4 C286.32,286.26 286.78,287.13 287.28,288.04 L287.49,288.46 C289.331473,292.088751 290.526033,296.010835 291.02,300.05 C291.453974,303.541704 291.427077,307.075306 290.94,310.56 L290.94,310.56 Z" opacity=".1"/>
    <path fill="#F5DD48" fill-rule="nonzero" d="M307.38,298.65 C306.786512,298.5916 306.200297,298.474357 305.63,298.3 C303.642564,297.772113 301.577501,297.599461 299.53,297.79 C298.784553,297.833387 298.042875,297.926932 297.31,298.07 C295.138097,298.454654 293.022058,299.10626 291.01,300.01 C290.030828,300.429943 289.078959,300.910887 288.16,301.45 L282.99,288.58 L282.92,288.39 L280.68,282.81 C282.310155,283.78674 284.011646,284.639157 285.77,285.36 C288.23,286.36 290.96,287.13 292.41,286.2 C292.834517,285.901603 293.139289,285.462165 293.27,284.96 C293.402526,284.488818 293.443265,283.996558 293.39,283.51 C293.39,282.93 293.34,282.41 293.34,281.92 C293.48,276.36 296.71,277.65 296.71,277.65 C300.42,276.74 304.02,279.47 306.87,282.76 C307.29,283.26 307.69,283.76 308.06,284.24 C309.91294,286.690528 311.533291,289.308531 312.9,292.06 C312.9,292.06 314.04,299.46 307.38,298.65 Z"/>
    <path fill="#444053" fill-rule="nonzero" d="M299.57,297.79 C298.824553,297.833387 298.082875,297.926932 297.35,298.07 C296.35,295.24 294.55,291.07 293.15,287.86 C293.06,287.62 292.96,287.41 292.87,287.18 C292.78,286.95 292.57,286.5 292.45,286.18 C292.874517,285.881603 293.179289,285.442165 293.31,284.94 L294.25,286.88 L294.62,287.65 L299.57,297.79 Z"/>
    <path fill="#F5DD48" fill-rule="nonzero" d="M307.38,298.65 C307.13861,295.734942 306.330139,292.895103 305,290.29 C304.067544,288.795263 302.918351,287.447236 301.59,286.29 C301.202258,285.934225 300.794958,285.600372 300.37,285.29 C298.36204,283.588399 295.952428,282.428343 293.37,281.92 C293.51,276.36 296.74,277.65 296.74,277.65 C300.45,276.74 304.05,279.47 306.9,282.76 C307.32,283.26 307.72,283.76 308.09,284.24 C309.94294,286.690528 311.563291,289.308531 312.93,292.06 C312.93,292.06 314.04,299.46 307.38,298.65 Z"/>
    <path fill="#000" fill-rule="nonzero" d="M307.38,298.65 C307.13861,295.734942 306.330139,292.895103 305,290.29 C304.067544,288.795263 302.918351,287.447236 301.59,286.29 C301.202258,285.934225 300.794958,285.600372 300.37,285.29 C298.36204,283.588399 295.952428,282.428343 293.37,281.92 C293.51,276.36 296.74,277.65 296.74,277.65 C300.45,276.74 304.05,279.47 306.9,282.76 C307.32,283.26 307.72,283.76 308.09,284.24 C309.94294,286.690528 311.563291,289.308531 312.93,292.06 C312.93,292.06 314.04,299.46 307.38,298.65 Z" opacity=".1"/>
    <path fill="#FFF" fill-rule="nonzero" d="M116.41,345.13 C116.41,345.13 120.82,367.29 136.97,368.67 C136.97,368.67 134.74,364.46 134.97,360.88 C135.168802,359.08111 134.935685,357.260745 134.29,355.57 C134.29,355.57 125.31,354.86 116.41,345.13 Z" opacity=".1"/>
    <path fill="#F5DD48" fill-rule="nonzero" d="M349.18,114.82 C341.05,133.39 330.56,153.13 318.13,168.18 C308.6,179.77 297.9,188.55 286.26,191.89 C281.235043,193.350364 275.951086,193.691705 270.78,192.89 C267.286304,192.353224 263.881797,191.343983 260.66,189.89 C237.95,179.94 217.84,149.24 209.03,116.89 C202.94,94.46 202.26,71.31 209.94,53.77 C228.7,11.01 275.07,-10.04 313.57,6.8 C352.07,23.64 367.93,72 349.18,114.82 Z"/>
    <path fill="#000" fill-rule="nonzero" d="M349.18,114.82 C341.05,133.39 330.56,153.13 318.13,168.18 C308.6,179.77 297.9,188.55 286.26,191.89 C281.235043,193.350364 275.951086,193.691705 270.78,192.89 C267.286304,192.353224 263.881797,191.343983 260.66,189.89 C237.95,179.94 217.84,149.24 209.03,116.89 C202.94,94.46 202.26,71.31 209.94,53.77 C228.7,11.01 275.07,-10.04 313.57,6.8 C352.07,23.64 367.93,72 349.18,114.82 Z" opacity=".1"/>
    <path fill="#F5DD48" fill-rule="nonzero" d="M290.7,204.51 C290.4,213.15 272.39,216.12 272.39,216.12 C272.39,216.12 264.98,215.18 267.58,209.01 C267.808254,208.462956 268.079085,207.934667 268.39,207.43 C269.450276,205.654952 270.194641,203.709451 270.59,201.68 C270.73,200.95 270.85,200.23 270.92,199.51 C271.123368,197.305123 271.076402,195.084308 270.78,192.89 C270.644854,191.834527 270.441089,190.788979 270.17,189.76 L290.17,187.66 C288.771799,188.979254 287.46542,190.392549 286.26,191.89 C284.61,193.99 283.18,196.4 283.67,198.03 C283.833915,198.537781 284.19394,198.95901 284.67,199.2 C285.081752,199.459775 285.540376,199.636431 286.02,199.72 C286.533881,199.820061 287.041425,199.950286 287.54,200.11 C292.83,201.75 290.7,204.51 290.7,204.51 Z"/>
    <path fill="#444053" fill-rule="nonzero" d="M284.63,199.2 L270.63,201.68 C270.77,200.95 270.89,200.23 270.96,199.51 C274.51,199.2 280.14,198.51 283.71,198.03 C283.854724,198.523836 284.184232,198.942883 284.63,199.2 L284.63,199.2 Z"/>
    <path fill="#F5DD48" fill-rule="nonzero" d="M290.7,204.51 C290.4,213.15 272.39,216.12 272.39,216.12 C272.39,216.12 264.98,215.18 267.58,209.01 C270.448768,209.578557 273.401232,209.578557 276.27,209.01 C280.19,208.01 285.96,203.92 287.5,200.11 C292.83,201.75 290.7,204.51 290.7,204.51 Z"/>
    <path fill="#000" fill-rule="nonzero" d="M290.7,204.51 C290.4,213.15 272.39,216.12 272.39,216.12 C272.39,216.12 264.98,215.18 267.58,209.01 C270.448768,209.578557 273.401232,209.578557 276.27,209.01 C280.19,208.01 285.96,203.92 287.5,200.11 C292.83,201.75 290.7,204.51 290.7,204.51 Z" opacity=".1"/>
    <path fill="#FFF" fill-rule="nonzero" d="M275.29,12.61 C275.29,12.61 252.78,10.77 247.01,25.93 C247.01,25.93 251.67,24.93 255.07,26.09 C256.743767,26.7766574 258.558039,27.0510274 260.36,26.89 C260.36,26.89 263.49,18.46 275.29,12.61 Z" opacity=".1"/>
    <g fill="#000" fill-rule="nonzero" opacity=".1" transform="translate(26 216)">
      <path d="M19.27 84.15C19.09 87.72 21.33 91.92 21.33 91.92 5.19 90.55.77 68.4.77 68.4 9.67 78.12 18.59 78.84 18.59 78.84 19.2371945 80.5303658 19.4703578 82.3510964 19.27 84.15L19.27 84.15zM172.57 24.71L165.1 6.07C166.730155 7.04674005 168.431646 7.899157 170.19 8.62 172.992257 13.0579462 174.778245 18.0607618 175.42 23.27 174.442092 23.6926476 173.490387 24.1735092 172.57 24.71L172.57 24.71zM175.57 31.09C175.5 31.98 175.41 32.91 175.29 33.83 174.473797 39.2681462 172.884387 44.5616899 170.57 49.55 169.96 50.95 169.28 52.37 168.57 53.78 152.43 84.78 111.67 115.15 75.71 119.78 73.6177306 111.325267 73.1427229 102.551197 74.31 93.92 78.89 60.28 107.31 35.12 142.57 30.09 151.137275 28.8590076 159.834358 28.8287159 168.41 30 170.77 30.37 173.17 30.7 175.57 31.09z"/>
      <path d="M191.75,21.91 C191.153245,21.8515385 190.563719,21.7343032 189.99,21.56 C188.005913,21.0324619 185.944193,20.8598055 183.9,21.05 C183.15444,21.0921505 182.412677,21.1857061 181.68,21.33 C178.457223,21.9295674 175.359787,23.0725079 172.52,24.71 L165.05,6.07 C166.680155,7.04674005 168.381646,7.899157 170.14,8.62 C172.59,9.62 175.32,10.39 176.77,9.46 C177.194599,9.15964149 177.502031,8.72146225 177.64,8.22 C177.763848,7.74726172 177.801116,7.2560114 177.75,6.77 C177.75,6.19 177.75,5.68 177.75,5.19 C177.89,-0.37 181.11,0.91 181.11,0.91 C189.5,-1.15 197.3,15.32 197.3,15.32 C197.3,15.32 198.4,22.71 191.75,21.91 Z"/>
      <path d="M183.9 21.05C183.15444 21.0921505 182.412677 21.1857061 181.68 21.33 180.44 17.99 178.2 12.78 176.77 9.46 177.194599 9.15964149 177.502031 8.72146225 177.64 8.22L183.9 21.05zM191.75 21.91C191.498467 18.9955475 190.686969 16.1570016 189.36 13.55 187.36 10.04 181.79 5.63 177.71 5.19 177.85-.37 181.07.91 181.07.91 189.46-1.15 197.26 15.32 197.26 15.32 197.26 15.32 198.4 22.71 191.75 21.91z"/>
      <path d="M191.75 21.91C191.498467 18.9955475 190.686969 16.1570016 189.36 13.55 187.36 10.04 181.79 5.63 177.71 5.19 177.85-.37 181.07.91 181.07.91 189.46-1.15 197.26 15.32 197.26 15.32 197.26 15.32 198.4 22.71 191.75 21.91zM21.33 91.92C5.19 90.55.77 68.4.77 68.4 9.67 78.12 18.59 78.84 18.59 78.84 19.2371945 80.5303658 19.4703578 82.3510964 19.27 84.15 19.09 87.72 21.33 91.92 21.33 91.92z"/>
    </g>
    <path fill="#F5DD48" fill-rule="nonzero" d="M201.3,245.15 C201.21,245.76 201.11,246.37 201.02,247 C200.105574,251.790146 198.611242,256.451117 196.57,260.88 C196.38,261.3 196.19,261.74 195.98,262.16 C195.54,263.16 195.05,264.16 194.53,265.1 C178.23,296.38 136.88,327.01 100.69,331.26 C95.2457704,331.960446 89.7342296,331.960446 84.29,331.26 C37.97,324.97 5,286.15 10.63,244.57 C15.21,210.93 43.63,185.77 78.9,180.74 C79.99,180.58 81.09,180.44 82.21,180.32 C89.7025548,179.52248 97.2640303,179.633284 104.73,180.65 C120.22,182.73 136.78,186 151.73,190.98 C154.883333,192.033333 157.956667,193.16 160.95,194.36 C161.75,194.67 162.54,195.02 163.31,195.36 C164.76,195.97 166.19,196.63 167.59,197.28 C168.71,197.79 169.78,198.33 170.86,198.87 C181.77,204.41 190.69,211.34 196.09,219.99 C198.892071,224.424385 200.678105,229.423913 201.32,234.63 C201.77383,238.122426 201.767106,241.659325 201.3,245.15 Z"/>
    <path fill="#F5DD48" fill-rule="nonzero" d="M217.75,233.24 C217.153245,233.181538 216.563719,233.064303 215.99,232.89 C214.005618,232.364222 211.944794,232.188257 209.9,232.37 C209.154699,232.420507 208.413266,232.517361 207.68,232.66 C205.50653,233.046508 203.387803,233.69455 201.37,234.59 C200.392872,235.018051 199.441286,235.502191 198.52,236.04 L191.05,217.4 C192.682535,218.372398 194.383698,219.224651 196.14,219.95 C198.59,220.95 201.32,221.72 202.77,220.79 C203.194599,220.489641 203.502031,220.051462 203.64,219.55 C203.763848,219.077262 203.801116,218.586011 203.75,218.1 C203.75,217.52 203.75,217 203.75,216.51 C203.89,210.95 207.11,212.24 207.11,212.24 C215.5,210.18 223.3,226.65 223.3,226.65 C223.3,226.65 224.4,234.03 217.75,233.24 Z"/>
    <path fill="#444053" fill-rule="nonzero" d="M209.9,232.37 C209.154699,232.420507 208.413266,232.517361 207.68,232.66 C206.44,229.31 204.2,224.11 202.77,220.79 C203.194599,220.489641 203.502031,220.051462 203.64,219.55 L209.9,232.37 Z"/>
    <path fill="#F5DD48" fill-rule="nonzero" d="M217.75,233.24 C217.499707,230.325319 216.688142,227.48654 215.36,224.88 C213.36,221.37 207.79,216.96 203.71,216.51 C203.85,210.95 207.07,212.24 207.07,212.24 C215.46,210.18 223.26,226.65 223.26,226.65 C223.26,226.65 224.4,234.03 217.75,233.24 Z"/>
    <path fill="#000" fill-rule="nonzero" d="M217.75,233.24 C217.499707,230.325319 216.688142,227.48654 215.36,224.88 C213.36,221.37 207.79,216.96 203.71,216.51 C203.85,210.95 207.07,212.24 207.07,212.24 C215.46,210.18 223.26,226.65 223.26,226.65 C223.26,226.65 224.4,234.03 217.75,233.24 Z" opacity=".1"/>
    <path fill="#FFF" fill-rule="nonzero" d="M26.76,279.72 C26.76,279.72 31.18,301.87 47.33,303.26 C47.33,303.26 45.09,299.05 45.28,295.47 C45.4788017,293.67111 45.2456854,291.850745 44.6,290.16 C44.6,290.16 35.67,289.46 26.76,279.72 Z" opacity=".1"/>
    <g fill="#000" fill-rule="nonzero" opacity=".1" transform="translate(44 70)">
      <path d="M12.21 20.88C11.1771295 22.369033 9.80641813 23.5923929 8.21 24.45 5.15 26.32 2.93 30.53 2.93 30.53-5.07 16.42 10.78.27 10.78.27 7.77 13.12 12.21 20.88 12.21 20.88zM119.36 125.32C121.96 126.42 124.476667 127.59 126.91 128.83 123.839429 129.617482 120.718913 130.195479 117.57 130.56 92.34 133.56 60.03 125.67 34.99 110.72 43.5538966 109.488639 52.2477305 109.458347 60.82 110.63 76.31 112.71 92.87 115.98 107.82 120.96 111.77 122.29 115.65 123.71 119.36 125.32zM155.69 106.38C153.607194 111.193061 150.494047 115.490705 146.57 118.97 145.673187 118.392895 144.737634 117.87834 143.77 117.43L154.94 100.7C155.051119 102.609093 155.301789 104.507495 155.69 106.38L155.69 106.38z"/>
      <path d="M165.45,132.54 C165.45,132.54 160.01,137.66 156.9,131.73 C156.626662,131.194401 156.392709,130.639599 156.2,130.07 C155.512645,128.134627 154.497884,126.331735 153.2,124.74 C152.73,124.16 152.2,123.6 151.73,123.08 C150.181964,121.502913 148.445556,120.122519 146.56,118.97 C145.663187,118.392895 144.727634,117.87834 143.76,117.43 L154.93,100.7 C155.047713,102.609587 155.305067,104.507994 155.7,106.38 C156.24,109 157.17,111.66 158.76,112.38 C159.241977,112.550834 159.768023,112.550834 160.25,112.38 C160.714912,112.226885 161.146064,111.985847 161.52,111.67 C161.98,111.32 162.4,111 162.8,110.74 C167.47,107.74 168.22,111.09 168.22,111.09 C174.66,116.82 165.45,132.54 165.45,132.54 Z"/>
      <path d="M160.24 112.34L153.19 124.74C152.72 124.16 152.19 123.6 151.72 123.08 153.77 120.16 156.81 115.37 158.72 112.34 159.211032 112.518004 159.748968 112.518004 160.24 112.34zM165.45 132.54C165.45 132.54 160.01 137.66 156.9 131.73 159.167455 129.879458 161.055478 127.607718 162.46 125.04 164.22 121.4 164.73 114.32 162.79 110.7 167.46 107.7 168.21 111.05 168.21 111.05 174.66 116.82 165.45 132.54 165.45 132.54z"/>
      <path d="M165.45 132.54C165.45 132.54 160.01 137.66 156.9 131.73 159.167455 129.879458 161.055478 127.607718 162.46 125.04 164.22 121.4 164.73 114.32 162.79 110.7 167.46 107.7 168.21 111.05 168.21 111.05 174.66 116.82 165.45 132.54 165.45 132.54zM12.21 20.88C11.1771295 22.369033 9.80641813 23.5923929 8.21 24.45 5.15 26.32 2.93 30.53 2.93 30.53-5.07 16.42 10.78.27 10.78.27 7.77 13.12 12.21 20.88 12.21 20.88z"/>
    </g>
    <path fill="#F5DD48" fill-rule="nonzero" d="M199.69,174.04 C197.609755,178.854519 194.496231,183.152685 190.57,186.63 C187.92601,188.975562 184.979828,190.956499 181.81,192.52 C177.327121,194.722665 172.567508,196.310323 167.66,197.24 C165.66,197.66 163.66,197.96 161.54,198.24 C161.4,198.24 161.28,198.24 161.14,198.29 C137.08,201.07 106.66,193.94 82.27,180.29 C65.66,171.02 51.86,158.75 44.73,144.53 C23.8,102.73 37.23,53.61 74.73,34.8 C112.23,15.99 159.65,34.62 180.57,76.46 C187.57,90.46 194.24,105.94 198.57,121.1 C198.97,122.48 199.34,123.83 199.69,125.19 C204.43,143.3 205.57,160.68 199.69,174.04 Z"/>
    <path fill="#000" fill-rule="nonzero" d="M199.69,174.04 C197.609755,178.854519 194.496231,183.152685 190.57,186.63 C187.92601,188.975562 184.979828,190.956499 181.81,192.52 C177.327121,194.722665 172.567508,196.310323 167.66,197.24 C165.66,197.66 163.66,197.96 161.54,198.24 C161.4,198.24 161.28,198.24 161.14,198.29 C137.08,201.07 106.66,193.94 82.27,180.29 C65.66,171.02 51.86,158.75 44.73,144.53 C23.8,102.73 37.23,53.61 74.73,34.8 C112.23,15.99 159.65,34.62 180.57,76.46 C187.57,90.46 194.24,105.94 198.57,121.1 C198.97,122.48 199.34,123.83 199.69,125.19 C204.43,143.3 205.57,160.68 199.69,174.04 Z" opacity=".1"/>
    <path fill="#F5DD48" fill-rule="nonzero" d="M209.45,200.21 C209.45,200.21 204.01,205.32 200.9,199.39 C200.624882,198.855231 200.390873,198.300294 200.2,197.73 C199.510308,195.795691 198.495762,193.993181 197.2,192.4 C196.738866,191.824947 196.248207,191.274206 195.73,190.75 C194.181935,189.170079 192.44559,187.786376 190.56,186.63 C189.660324,186.057715 188.725096,185.543339 187.76,185.09 L198.93,168.37 C199.04802,170.276252 199.305374,172.171312 199.7,174.04 C200.24,176.66 201.17,179.32 202.76,180.04 C203.2411,180.215859 203.7689,180.215859 204.25,180.04 C204.712447,179.885993 205.142851,179.648762 205.52,179.34 C205.98,178.99 206.4,178.66 206.8,178.4 C211.47,175.4 212.22,178.75 212.22,178.75 C218.66,184.46 209.45,200.21 209.45,200.21 Z"/>
    <path fill="#444053" fill-rule="nonzero" d="M204.24,180 L197.19,192.4 C196.728866,191.824947 196.238207,191.274206 195.72,190.75 C197.77,187.83 200.81,183.04 202.72,180 C203.210097,180.183253 203.749903,180.183253 204.24,180 Z"/>
    <path fill="#F5DD48" fill-rule="nonzero" d="M209.45,200.21 C209.45,200.21 204.01,205.32 200.9,199.39 C203.167522,197.54348 205.055671,195.274985 206.46,192.71 C208.22,189.06 208.73,181.99 206.79,178.36 C211.46,175.36 212.21,178.71 212.21,178.71 C218.66,184.46 209.45,200.21 209.45,200.21 Z"/>
    <path fill="#000" fill-rule="nonzero" d="M209.45,200.21 C209.45,200.21 204.01,205.32 200.9,199.39 C203.167522,197.54348 205.055671,195.274985 206.46,192.71 C208.22,189.06 208.73,181.99 206.79,178.36 C211.46,175.36 212.21,178.71 212.21,178.71 C218.66,184.46 209.45,200.21 209.45,200.21 Z" opacity=".1"/>
    <path fill="#FFF" fill-rule="nonzero" d="M54.77,67.93 C54.77,67.93 38.97,84.08 46.94,98.2 C46.94,98.2 49.15,93.97 52.22,92.11 C53.8168528,91.257434 55.1879409,90.0371657 56.22,88.55 C56.22,88.55 51.76,80.78 54.77,67.93 Z" opacity=".1"/>
    <path fill="#F5DD48" fill-rule="nonzero" d="M498.1,202.8 C492.87,244.46 451.03,273.46 404.63,267.67 C382.11,264.85 357.31,259.61 338.36,250.18 C327.36,244.71 318.36,237.86 312.9,229.24 C310.049127,224.83836 308.198943,219.864712 307.48,214.67 C307.019703,211.165048 307.019703,207.614952 307.48,204.11 C308.74,194.04 313.48,183.39 320.58,173.11 C342.85,140.92 388.42,112.42 423.58,116.85 C469.95,122.67 503.34,161.15 498.1,202.8 Z"/>
    <path fill="#F5DD48" fill-rule="nonzero" d="M318.04,231.77 C316.390146,230.803398 314.672298,229.957843 312.9,229.24 C310.42,228.24 307.69,227.52 306.26,228.47 C305.815949,228.762222 305.506499,229.219199 305.4,229.74 C305.282032,230.203488 305.241485,230.683288 305.28,231.16 C305.28,231.74 305.35,232.28 305.35,232.75 C305.28,238.33 302.03,237.07 302.03,237.07 C293.67,239.22 285.7,222.8 285.7,222.8 C285.7,222.8 284.49,215.44 291.15,216.16 C291.740819,216.225724 292.32582,216.336039 292.9,216.49 C294.89589,217.00893 296.968277,217.168084 299.02,216.96 C299.759039,216.902269 300.493784,216.798737 301.22,216.65 C303.377052,216.227906 305.477789,215.556744 307.48,214.65 C308.467837,214.212049 309.426482,213.711015 310.35,213.15 L318.04,231.77 Z"/>
    <path fill="#444053" fill-rule="nonzero" d="M306.26,228.46 C305.815949,228.752222 305.506499,229.209199 305.4,229.73 L299.02,216.95 C299.759039,216.892269 300.493784,216.788737 301.22,216.64 C302.5,219.99 304.79,225.18 306.26,228.46 Z"/>
    <path fill="#F5DD48" fill-rule="nonzero" d="M305.35,232.75 C305.28,238.33 302.03,237.07 302.03,237.07 C293.67,239.22 285.7,222.8 285.7,222.8 C285.7,222.8 284.49,215.44 291.15,216.16 C291.419992,219.068431 292.259245,221.895389 293.62,224.48 C295.66,227.98 301.26,232.35 305.35,232.75 Z"/>
    <path fill="#000" fill-rule="nonzero" d="M305.35,232.75 C305.28,238.33 302.03,237.07 302.03,237.07 C293.67,239.22 285.7,222.8 285.7,222.8 C285.7,222.8 284.49,215.44 291.15,216.16 C291.419992,219.068431 292.259245,221.895389 293.62,224.48 C295.66,227.98 301.26,232.35 305.35,232.75 Z" opacity=".1"/>
    <path fill="#FFF" fill-rule="nonzero" d="M481.67,167.8 C481.67,167.8 477.03,145.69 460.87,144.46 C460.87,144.46 463.14,148.65 462.99,152.24 C462.813028,154.040349 463.06667,155.856976 463.73,157.54 C463.73,157.54 472.66,158.16 481.67,167.8 Z" opacity=".1"/>
    <path fill="#000" fill-rule="nonzero" d="M338.36 250.18C327.36 244.71 318.36 237.86 312.9 229.24 310.42 228.24 307.69 227.52 306.26 228.47 305.815949 228.762222 305.506499 229.219199 305.4 229.74 305.282032 230.203488 305.241485 230.683288 305.28 231.16 305.28 231.74 305.35 232.28 305.35 232.75 305.28 238.33 302.03 237.07 302.03 237.07 293.67 239.22 285.7 222.8 285.7 222.8 285.7 222.8 284.49 215.44 291.15 216.16 291.740819 216.225724 292.32582 216.336039 292.9 216.49 294.89589 217.00893 296.968277 217.168084 299.02 216.96 299.759039 216.902269 300.493784 216.798737 301.22 216.65 303.377052 216.227906 305.477789 215.556744 307.48 214.65 307.019703 211.145048 307.019703 207.594952 307.48 204.09 308.74 194.02 313.48 183.37 320.58 173.09 332.5 198.76 341.98 227.87 338.36 250.18zM306.87 282.76C304.759566 283.741232 302.588456 284.586295 300.37 285.29 298.345758 285.932374 296.289685 286.469757 294.21 286.9L292.83 287.18C291.03 287.51 289.16 287.79 287.27 288 285.84 288.18 284.4 288.3 282.92 288.39 255.22 290.19 220.48 279.87 196.02 262.16 189.269618 257.365608 183.195109 251.68463 177.96 245.27 175.218433 241.859357 172.83897 238.172865 170.86 234.27 165.204135 223.055244 161.890197 210.806601 161.12 198.27 161.05 196.94 161 195.65 161 194.34 160.61 165.34 174.58 138.34 199.71 125.15 204.43 143.3 205.55 160.68 199.71 174.04 200.25 176.66 201.18 179.32 202.77 180.04 203.2511 180.215859 203.7789 180.215859 204.26 180.04 204.722447 179.885993 205.152851 179.648762 205.53 179.34 205.99 178.99 206.41 178.66 206.81 178.4 211.48 175.4 212.23 178.75 212.23 178.75 218.68 184.52 209.47 200.25 209.47 200.25 209.47 200.25 204.03 205.36 200.92 199.43 200.644882 198.895231 200.410873 198.340294 200.22 197.77 199.530308 195.835691 198.515762 194.033181 197.22 192.44 196.758866 191.864947 196.268207 191.314206 195.75 190.79 194.201935 189.210079 192.46559 187.826376 190.58 186.67 187.93601 189.015562 184.989828 190.996499 181.82 192.56 177.337121 194.762665 172.577508 196.350323 167.67 197.28 168.79 197.79 169.86 198.33 170.94 198.87 181.85 204.41 190.77 211.34 196.17 219.99 198.62 220.99 201.35 221.76 202.8 220.83 203.224599 220.529641 203.532031 220.091462 203.67 219.59 203.793848 219.117262 203.831116 218.626011 203.78 218.14 203.78 217.56 203.78 217.04 203.78 216.55 203.92 210.99 207.14 212.28 207.14 212.28 215.53 210.22 223.33 226.69 223.33 226.69 223.33 226.69 224.47 234.07 217.82 233.28 217.223245 233.221538 216.633719 233.104303 216.06 232.93 214.075618 232.404222 212.014794 232.228257 209.97 232.41 209.224699 232.460507 208.483266 232.557361 207.75 232.7 205.57653 233.086508 203.457803 233.73455 201.44 234.63 201.880769 238.137785 201.857233 241.688367 201.37 245.19 201.28 245.8 201.18 246.41 201.09 247.04 201.28 247.04 201.46 247.11 201.65 247.13 215.157357 249.132836 228.478385 252.236505 241.48 256.41 245.48 257.74 249.35 259.16 253.07 260.78 255.66 261.87 258.18 263.04 260.61 264.28 271.52 269.82 280.45 276.75 285.84 285.4 288.3 286.4 291.03 287.17 292.48 286.24 292.904517 285.941603 293.209289 285.502165 293.34 285 293.472526 284.528818 293.513265 284.036558 293.46 283.55 293.46 282.97 293.41 282.45 293.41 281.96 293.55 276.4 296.78 277.69 296.78 277.69 300.42 276.74 304.02 279.46 306.87 282.76z" opacity=".1"/>
    <g fill="#000" fill-rule="nonzero" opacity=".1" transform="translate(177 110)">
      <path d="M12.36 61.26C11.3253095 62.742245 9.95465498 63.9587009 8.36 64.81 5.3 66.68 3.08 70.91 3.08 70.91-4.92 56.8 10.93 40.66 10.93 40.66 7.92 53.51 12.36 61.26 12.36 61.26zM136.76 49.14C138.23 52.08 139.7 55.14 141.13 58.14 131.6 69.73 120.9 78.51 109.26 81.85 107.61 83.95 106.18 86.36 106.67 87.99 106.833915 88.4977809 107.19394 88.91901 107.67 89.16 108.081752 89.4197751 108.540376 89.5964305 109.02 89.68 109.533881 89.780061 110.041425 89.9102862 110.54 90.07 115.87 91.71 113.74 94.47 113.74 94.47 113.44 103.11 95.43 106.08 95.43 106.08 95.43 106.08 88.02 105.14 90.62 98.97 90.8482537 98.4229557 91.1190851 97.8946673 91.43 97.39 92.4902759 95.6149516 93.2346412 93.6694514 93.63 91.64 93.77 90.91 93.89 90.19 93.96 89.47 94.1633677 87.2651231 94.1164019 85.0443078 93.82 82.85 90.3263038 82.3132241 86.9217969 81.3039829 83.7 79.85 60.99 69.9 40.88 39.2 32.07 6.85 69.36-10.9 116.02 7.77 136.76 49.14zM155.82 146.74C153.741901 151.561767 150.632282 155.869494 146.71 159.36 145.811622 158.782565 144.876274 158.264783 143.91 157.81L155.08 141.09C155.197082 142.988048 155.44433 144.87582 155.82 146.74z"/>
      <path d="M165.57,172.93 C165.57,172.93 160.13,178.04 157.02,172.11 C156.740673,171.577207 156.506519,171.021928 156.32,170.45 C155.639194,168.514697 154.623768,166.714008 153.32,165.13 C152.866646,164.545267 152.375602,163.990754 151.85,163.47 C150.299282,161.895893 148.563257,160.515803 146.68,159.36 C145.781622,158.782565 144.846274,158.264783 143.88,157.81 L155.05,141.09 C155.167082,142.988048 155.41433,144.87582 155.79,146.74 C156.35,149.36 157.29,152.04 158.88,152.74 C159.359269,152.925912 159.890731,152.925912 160.37,152.74 C160.830517,152.588514 161.258087,152.350974 161.63,152.04 C162.043138,151.707258 162.473752,151.396816 162.92,151.11 C167.59,148.05 168.34,151.46 168.34,151.46 C174.82,157.21 165.57,172.93 165.57,172.93 Z"/>
      <path d="M160.41 152.72L153.34 165.11C152.882265 164.538247 152.394932 163.990833 151.88 163.47 153.93 160.53 156.98 155.75 158.88 152.71 159.369804 152.90963 159.917628 152.913211 160.41 152.72L160.41 152.72zM165.57 172.93C165.57 172.93 160.13 178.04 157.02 172.11 159.28667 170.277192 161.172199 168.017954 162.57 165.46 164.34 161.81 164.84 154.74 162.91 151.11 167.58 148.11 168.34 151.46 168.34 151.46 174.82 157.2 165.57 172.93 165.57 172.93z"/>
      <path d="M165.57 172.93C165.57 172.93 160.13 178.04 157.02 172.11 159.28667 170.277192 161.172199 168.017954 162.57 165.46 164.34 161.81 164.84 154.74 162.91 151.11 167.58 148.11 168.34 151.46 168.34 151.46 174.82 157.2 165.57 172.93 165.57 172.93zM12.36 61.26C11.3253095 62.742245 9.95465498 63.9587009 8.36 64.81 5.3 66.68 3.08 70.91 3.08 70.91-4.92 56.8 10.93 40.66 10.93 40.66 7.92 53.51 12.36 61.26 12.36 61.26z"/>
    </g>
    <path fill="#F5DD48" fill-rule="nonzero" d="M311.43,163.81 C332.38,205.6 350.14,261.1 312.62,279.91 C275.1,298.72 196.49,273.73 175.54,231.91 C154.59,190.09 168.03,140.99 205.54,122.18 C243.05,103.37 290.48,122.02 311.43,163.81 Z"/>
    <path fill="#F5DD48" fill-rule="nonzero" d="M340.26,287.61 C340.26,287.61 334.82,292.71 331.71,286.78 C331.444919,286.245336 331.214445,285.694202 331.02,285.13 C330.338855,283.188764 329.323571,281.381558 328.02,279.79 C327.561404,279.212806 327.070625,278.661932 326.55,278.14 C324.227542,275.808645 321.521435,273.894073 318.55,272.48 L329.73,255.77 C329.73,255.77 330.24,266 333.55,267.38 C334.03519,267.571124 334.57481,267.571124 335.06,267.38 C335.518064,267.218343 335.944445,266.97808 336.32,266.67 C336.78,266.31 337.21,266 337.6,265.74 C342.27,262.69 343.03,266.08 343.03,266.08 C349.49,271.87 340.26,287.61 340.26,287.61 Z"/>
    <path fill="#444053" fill-rule="nonzero" d="M335.07,267.4 L328.01,279.79 C327.551404,279.212806 327.060625,278.661932 326.54,278.14 C328.54,275.21 331.64,270.42 333.54,267.38 C334.028517,267.582854 334.576347,267.590015 335.07,267.4 L335.07,267.4 Z"/>
    <path fill="#F5DD48" fill-rule="nonzero" d="M340.26,287.61 C340.26,287.61 334.82,292.71 331.71,286.78 C333.983821,284.937163 335.875894,282.668034 337.28,280.1 C339.04,276.45 339.55,269.38 337.61,265.76 C342.28,262.71 343.04,266.1 343.04,266.1 C349.49,271.87 340.26,287.61 340.26,287.61 Z"/>
    <path fill="#000" fill-rule="nonzero" d="M340.26,287.61 C340.26,287.61 334.82,292.71 331.71,286.78 C333.983821,284.937163 335.875894,282.668034 337.28,280.1 C339.04,276.45 339.55,269.38 337.61,265.76 C342.28,262.71 343.04,266.1 343.04,266.1 C349.49,271.87 340.26,287.61 340.26,287.61 Z" opacity=".1"/>
    <path fill="#FFF" fill-rule="nonzero" d="M185.57,155.32 C185.57,155.32 169.77,171.47 177.74,185.59 C177.74,185.59 179.96,181.37 183.02,179.5 C184.616853,178.647434 185.987941,177.427166 187.02,175.94 C187.02,175.94 182.57,168.17 185.57,155.32 Z" opacity=".1"/>
    <path stroke="#444053" d="M330.73,275.31 C324.3,279.84 323.88,290.7 329.94,295.73 C337.41,301.92 348.57,298.04 358.22,299.08 C367.87,300.12 376.34,306.44 382.47,314.01 C394.1026,328.578295 398.726556,347.531393 395.11,365.82 C393.22,375.03 389.27,383.73 387.48,392.96 C385.34,404.02 386.39,415.44 387.74,426.63 C388.74,434.97 389.98,443.52 394.05,450.87 C400.52,462.54 413.13,469.42 425.7,473.87 C438.27,478.32 451.57,481.07 463.28,487.46 C479.406323,496.39856 491.174296,511.544812 495.85,529.38 C496.331347,530.733333 496.366394,532.205292 495.95,533.58 C495.4,534.9 493.64,535.78 492.49,534.94"/>
    <path stroke="#444053" d="M297.11,294.88 C296.5,297.75 298.59,300.74 301.35,301.73 C304.196326,302.584319 307.276286,302.10652 309.73,300.43 C312.73,298.52 315.42,295.31 319,295.43 C321.6,295.5 323.79,297.38 325.41,299.43 C327.03,301.48 328.33,303.8 330.35,305.43 C332.102014,306.752307 334.122885,307.673988 336.27,308.13 C338.795995,308.855833 341.456464,308.982522 344.04,308.5 C349.56,307.29 353.61,302.37 359.04,300.8 C366.22,298.73 373.64,302.97 379.39,307.74 C386.28,313.45 392.48,320.43 395.34,328.91 C397.24,334.52 397.6,340.5 398.34,346.37 C399.08,352.24 400.4,358.25 403.84,363.06 C407.28,367.87 413.35,371.24 419.12,369.94"/>
    <path fill="#EFB7B9" fill-rule="nonzero" d="M708.17,289.02 L708.17,294.59 L684.77,301.08 C684.77,301.08 682.63,299.87 679.3,298.28 C673.16,295.33 662.99,291.04 654.69,290.52 C641.9,289.69 599.86,277.04 612.51,274.19 C625.16,271.34 624.17,274.19 624.17,274.19 C624.17,274.19 636.46,258.52 652.66,269.27 C664.96,277.45 690.61,284.6 702.23,287.57 C705.91,288.46 708.17,289.02 708.17,289.02 Z"/>
    <path fill="#925978" fill-rule="nonzero" d="M604.73,238.22 C600.85,237.37 596.89,236.51 592.93,236.79 C588.97,237.07 584.93,238.66 582.52,241.85 C581.2,243.64 580.47,245.85 579.17,247.62 C572.94,256.32 558.06,252.37 550.12,259.55 C545.22,263.98 544.47,271.24 543.38,277.76 C542.29,284.28 539.71,291.63 533.47,293.81 C530.47,294.81 527.25,294.46 524.12,294.67 C520.99,294.88 517.52,296.02 516.12,298.84 C513.75,303.72 518.84,310.74 514.94,314.52 C511.46,317.88 503.94,314.8 501.78,319.13 C500.72,321.25 501.91,323.84 503.55,325.55 C505.19,327.26 507.3,328.55 508.66,330.47 C510.430524,332.997918 510.674177,336.292533 509.294785,339.053404 C507.915393,341.814274 505.134588,343.597802 502.05,343.7 C499.3,343.79 496.19,342.61 493.99,344.28 C492.669675,345.492941 491.99572,347.255593 492.17,349.04 C492.596778,355.352121 497.925608,360.204532 504.25,360.04 C508.92,359.74 512.86,356.66 516.71,354.04 C520.56,351.42 525.21,348.96 529.71,350.15 C531.804822,350.862593 533.775301,351.898444 535.55,353.22 C540.999126,356.695847 546.977107,359.262663 553.25,360.82 C558.77,362.19 565.05,362.63 569.74,359.41 C575.05,355.77 577.04,348.32 582.74,345.41 C588.74,342.36 595.85,345.58 602.03,348.26 C608.21,350.94 616.3,352.75 620.95,347.88 C625.95,342.63 623.06,333.8 625.65,327.02 C626.720753,324.476188 628.315376,322.186473 630.33,320.3 C633.77,316.84 637.84,314.06 641.33,310.64 C644.82,307.22 647.76,302.89 648.06,298.02 C648.44,292.16 644.97,286.78 641.23,282.25 C637.49,277.72 633.23,273.34 631.48,267.73 C630.18,263.55 630.39,258.98 628.81,254.89 C626.730583,249.907395 622.292112,246.29879 616.99,245.28 C613.99,244.68 613.55,244.99 611.81,242.69 C610.191209,240.262857 607.617371,238.637849 604.73,238.22 L604.73,238.22 Z"/>
    <path fill="#000" fill-rule="nonzero" d="M23.7 5.66C23.15 8.06 23.86 10.81 24.25 13.39 24.85 11.14 24.09 8.38 23.7 5.66zM16.68 35.95C17.2408107 36.7586205 17.6476196 37.6637703 17.88 38.62 18.505803 36.2226938 18.0685395 33.6719903 16.68 31.62 15.32 29.68 13.22 28.41 11.57 26.7 10.9112874 26.0210851 10.370523 25.2369767 9.97 24.38 9.90761263 24.4627885 9.85081977 24.5496481 9.8 24.64 8.74 26.76 9.93 29.35 11.57 31.06 13.21 32.77 15.32 34.01 16.68 35.95zM149.38 11.76C145.91 15.19 141.84 17.96 138.38 21.42 136.366042 23.3109518 134.771636 25.6037634 133.7 28.15 131.11 34.93 134.01 43.75 129 49 124.35 53.87 116.26 52.06 110.08 49.38 103.9 46.7 96.79 43.48 90.79 46.53 85.06 49.45 83.07 56.91 77.79 60.53 73.1 63.75 66.79 63.31 61.3 61.94 55.0271068 60.3826631 49.0491263 57.8158467 43.6 54.34 41.8253009 53.0184439 39.854822 51.9825928 37.76 51.27 33.24 50.08 28.6 52.52 24.76 55.17 20.92 57.82 16.97 60.89 12.3 61.17 6.91 61.52 1.72 57.36.49 52.17.285948527 52.9223509.194952624 53.7008714.22 54.48.651761925 60.7897127 5.97753992 65.6393449 12.3 65.48 16.97 65.18 20.91 62.1 24.76 59.48 28.61 56.86 33.26 54.4 37.76 55.59 39.8543982 56.2990519 41.8249114 57.3315468 43.6 58.65 49.0465571 62.1329831 55.0251835 64.7034547 61.3 66.26 66.82 67.62 73.1 68.06 77.79 64.85 83.1 61.21 85.09 53.76 90.79 50.85 96.79 47.79 103.9 51.01 110.08 53.69 116.26 56.37 124.35 58.18 129 53.31 134 48.07 131.11 39.24 133.7 32.46 134.773982 29.915055 136.36807 27.6227016 138.38 25.73 141.82 22.28 145.89 19.5 149.38 16.08 152.87 12.66 155.81 8.32 156.11 3.46 156.175828 2.43428364 156.125508 1.40441328 155.96.39 155.27 4.77 152.57 8.64 149.38 11.76z" opacity=".1" transform="translate(492 295)"/>
    <path fill="#33CCAB" fill-rule="nonzero" d="M648.25,439.06 L657.14,439.78 C657.14,439.78 650.44,454.91 636.14,447.44 C621.84,439.97 648.25,439.06 648.25,439.06 Z"/>
    <path fill="#000" fill-rule="nonzero" d="M648.25,439.06 L657.14,439.78 C657.14,439.78 650.44,454.91 636.14,447.44 C621.84,439.97 648.25,439.06 648.25,439.06 Z" opacity=".1"/>
    <path fill="#EFB7B9" fill-rule="nonzero" d="M477.57 594.09C477.57 594.09 466.39 601.85 456.14 610.48 448.8 616.66 441.94 623.29 440.01 627.83 435.34 638.72 407.86 653.46 407.86 653.46L382 679.05C375.53 682.18 370 691.25 367.81 695.29 367.14 696.52 366.81 697.29 366.81 697.29L355.11 697.29 348.04 690.21C348.04 690.21 344.23 673.07 356.2 671.71 358.531428 671.309485 360.752723 670.423693 362.72 669.11 374.84 661.74 390.49 641.5 390.49 641.5 390.49 641.5 416.07 599.32 425.05 596.87 426.01136 596.59362 426.942662 596.221769 427.83 595.76 436.71 591.28 448.46 577.55 448.46 577.55L477.57 594.09zM610.48 688.99C609.84 707.71 600.48 744.58 597 752.47 592.64 762.27 592.1 780.78 592.1 780.78L592.1 793.57C592.017774 795.34019 591.618088 797.081195 590.92 798.71 590.551817 799.651143 590.127728 800.569446 589.65 801.46L565.65 797.38C565.65 797.38 566.29 791.91 567.51 785.57 568.81 778.87 570.76 771.2 573.27 767.99 578.17 761.73 576.47 742.13 576.47 742.13 576.47 742.13 576.26 704.03 577.08 699.13 577.841097 694.454332 578.0859 689.709167 577.81 684.98 577.7 682.44 577.47 679.55 577.08 676.27 575.72 664.84 577.08 647.97 577.08 647.97L604.57 649.33 609.19 679.27C610.3 681.01 610.65 684.46 610.48 688.99z"/>
    <path fill="#000" fill-rule="nonzero" d="M367.81,695.24 C367.14,696.47 366.81,697.24 366.81,697.24 L355.11,697.24 L348.04,690.16 C348.04,690.16 344.23,673.02 356.2,671.66 C358.531428,671.259485 360.752723,670.373693 362.72,669.06 C364.37,674.06 359.11,679.19 359.11,679.19 C359.11,679.19 356.93,681.27 358.56,689.35 C359.62,694.83 364.7,695.37 367.81,695.24 Z" opacity=".1"/>
    <path fill="#444053" fill-rule="nonzero" d="M369.210117,696.14 C368.82,699.04 362.09,704.14 357.38,707.32 C355.07,708.91 353.24,710.05 352.89,710.32 C351.8,711.05 344.81,705.06 343.27,699.71 C341.73,694.36 324.94,679.21 324.94,679.21 C320.992199,672.899148 318.227061,665.921918 316.78,658.62 C315.24,651.25 318.36,650.23 322.13,651.45 C324.921358,652.490293 327.502553,654.024783 329.75,655.98 C332.26,658.15 336.2,659.06 339.29,659.44 C344.004736,659.978483 348.602895,661.268128 352.91,663.26 C356.73,665.07 360.52,667.4 361.45,669.77 C363.45,674.95 357.97,680.3 357.97,680.3 C357.97,680.3 355.79,682.38 357.42,690.46 C359.05,698.54 369.25,695.87 369.210117,696.14 Z"/>
    <path fill="#000" fill-rule="nonzero" d="M357.38 707.32C355.07 708.91 353.24 710.05 352.89 710.32 351.8 711.05 344.81 705.06 343.27 699.71 341.73 694.36 324.94 679.21 324.94 679.21 320.992199 672.899148 318.227061 665.921918 316.78 658.62 315.24 651.25 318.36 650.23 322.13 651.45 323.49 657.27 326.49 668.55 330.3 674.13 334.83 680.74 352.57 701.66 357.38 707.32zM590.65 798.3L590.92 798.71C590.551817 799.651143 590.127728 800.569446 589.65 801.46L565.65 797.38C565.65 797.38 566.29 791.91 567.51 785.57 576.3 781.81 591.43 796.05 591.43 796.05L590.65 798.3z" opacity=".1"/>
    <path fill="#444053" fill-rule="nonzero" d="M594.36,815.25 C594.36,815.25 576.04,824.5 567.25,824.59 C560.57,824.66 559.9,821.65 559.52,815.33 C559.41,813.33 559.32,810.96 559.08,808.26 C558.08,797.11 562.25,794.26 562.25,794.26 C567.06,774.12 591.48,797.1 591.48,797.1 L590.65,799.35 C592.610622,802.421492 593.816801,805.913245 594.17,809.54 C594.414291,811.432999 594.477911,813.344948 594.36,815.25 L594.36,815.25 Z"/>
    <path fill="#000" fill-rule="nonzero" d="M594.36,815.25 C594.36,815.25 576.04,824.5 567.25,824.59 C560.57,824.66 559.9,821.65 559.52,815.33 C564.355647,818.38279 570.247444,819.274717 575.77,817.79 C582.30758,816.068147 588.521906,813.295342 594.17,809.58 C594.41176,811.459798 594.475376,813.358234 594.36,815.25 L594.36,815.25 Z" opacity=".1"/>
    <path fill="#EFB7B9" fill-rule="nonzero" d="M628.84,336.73 L625.68,370.59 L625.03,377.59 L611.36,381.16 L597.27,384.85 L580.94,381.23 C580.94,381.23 574.66,366.98 576.8,355.38 C577.416729,351.266789 579.558661,347.536258 582.8,344.93 C583.817459,344.144683 584.728436,343.230345 585.51,342.21 C586.413272,341.030688 587.106737,339.704649 587.56,338.29 C588.102609,336.547699 588.326195,334.721746 588.22,332.9 C587.84,323.9 580.98,315 580.98,315 C580.98,315 612.55,299.4 610.92,307 C609.86,311.94 615.59,319.55 619.74,324.28 C622,326.85 623.74,328.58 623.74,328.58 L628.84,336.73 Z"/>
    <circle cx="593.64" cy="299.31" r="28.94" fill="#000" fill-rule="nonzero" opacity=".1"/>
    <circle cx="593.64" cy="298.22" r="28.94" fill="#EFB7B9" fill-rule="nonzero"/>
    <path fill="#444053" fill-rule="nonzero" d="M641.01,446.1 C640.47,452.61 635.55,463.37 635.55,463.37 L596.76,478.46 L564.25,452.33 C564.25,452.33 564.25,452.27 564.25,452.15 C564.77,449.23 571.08,412.47 562.04,404.79 C552.6,396.79 552.41,370.87 552.41,370.87 C552.41,370.87 564.57,352.51 566.97,348.16 C569.37,343.81 587.57,338.25 587.57,338.25 C586.79,339.62 586.11,340.93 585.52,342.17 C583.90008,345.41451 582.787152,348.888195 582.22,352.47 C581.42,358.11 582.95,361.42 583.97,362.94 C584.518565,363.730832 584.96541,364.587565 585.3,365.49 C590.21,378.79 604.23,375 609.74,372.9 C611.15,372.36 612.01,371.9 612.01,371.9 L625.73,370.56 L634.33,369.73 C634.33,369.73 639.23,437.73 640.86,443.02 C641.105784,444.027732 641.156697,445.073154 641.01,446.1 L641.01,446.1 Z"/>
    <path fill="#925978" fill-rule="nonzero" d="M585.49,342.2 C585.49,342.2 585.49,342.2 585.49,342.25 C584.860873,343.553234 584.300112,344.888379 583.81,346.25 L568.97,346.25 C571.420634,344.649626 574.031407,343.309049 576.76,342.25 L585.49,342.2 Z"/>
    <path fill="#FFF" fill-rule="nonzero" d="M582.93 348.92C582.594253 350.11127 582.340328 351.324097 582.17 352.55 582.17 352.69 582.17 352.83 582.12 352.97L564.12 352.97C565.12 351.34 566.02 349.92 566.58 348.92L582.93 348.92zM582.45 359.69L559.82 359.69C560.7 358.33 561.59 356.95 562.42 355.69L581.94 355.69C581.939009 357.039609 582.110396 358.383817 582.45 359.69L582.45 359.69zM585.57 366.46L555.42 366.46C556.22 365.26 557.12 363.87 558.08 362.46L583.57 362.46C583.7 362.69 583.83 362.91 583.96 363.1 584.510416 363.886133 584.957418 364.739805 585.29 365.64 585.36 365.86 585.47 366.14 585.57 366.46zM552.45 370.92L552.45 373.14 591.15 373.14C589.47196 372.129255 588.051366 370.742892 587 369.09L553.66 369.09 552.45 370.92z"/>
    <path fill="#925978" fill-rule="nonzero" d="M634.57,373.14 L609.25,373.14 L609.69,372.98 C611.1,372.43 611.96,371.98 611.96,371.98 L625.68,370.64 L634.28,369.8 C634.28,369.8 634.37,371.04 634.57,373.14 Z"/>
    <path fill="#FFF" fill-rule="nonzero" d="M635.02 379.86L553.02 379.86C552.86 378.38 552.74 377.02 552.65 375.86L634.65 375.86C634.81 377.02 634.91 378.38 635.02 379.86zM635.57 386.59L554.02 386.59C553.77 385.2 553.55 383.85 553.38 382.59L635.23 382.59C635.33 383.83 635.42 385.18 635.57 386.59zM636.05 393.31L555.62 393.31C555.23 391.98 554.88 390.62 554.62 389.26L635.78 389.26C635.84 390.58 635.95 391.93 636.05 393.31zM636.57 400.03L558.34 400.03C557.643752 398.739271 557.035695 397.402881 556.52 396.03L636.26 396.03C636.36 397.32 636.47 398.67 636.57 400.03zM637.12 406.76L563.7 406.76C563.265586 406.03789 562.718708 405.389738 562.08 404.84 561.341392 404.20484 560.671094 403.494324 560.08 402.72L636.8 402.72C636.89 404.07 637 405.46 637.12 406.76zM637.68 413.46L566.04 413.46C565.791754 412.100001 565.43392 410.762307 564.97 409.46L637.34 409.46C637.45 410.78 637.57 412.14 637.68 413.46z"/>
    <path fill="#925978" fill-rule="nonzero" d="M638.25 420.2L566.8 420.2C566.72 418.81 566.62 417.46 566.45 416.2L637.91 416.2C638.02 417.53 638.13 418.88 638.25 420.2zM638.86 426.93L566.86 426.93C566.86 425.57 566.86 424.22 566.86 422.93L638.45 422.93C638.57 424.28 638.74 425.63 638.86 426.93zM639.57 433.65L566.57 433.65C566.67 432.33 566.74 430.97 566.81 429.65L639.12 429.65C639.26 431.04 639.4 432.39 639.57 433.65zM640.31 440.37L565.95 440.37C566.09 439.08 566.22 437.73 566.35 436.37L639.81 436.37C640 437.91 640.16 439.27 640.31 440.37z"/>
    <path fill="#FFF" fill-rule="nonzero" d="M641.01 446.17C641.01 446.48 640.95 446.78 640.9 447.1L565.09 447.1C565.27 445.91 565.45 444.54 565.62 443.1L640.79 443.1C640.791277 443.123316 640.791277 443.146684 640.79 443.17 641.05047 444.147414 641.125096 445.165045 641.01 446.17zM640.4 449.78C640.09 451.09 639.7 452.48 639.27 453.83L566.05 453.83 564.25 452.38C564.25 452.38 564.25 452.31 564.25 452.19 564.31 451.84 564.45 451.01 564.65 449.78L640.4 449.78zM638.35 456.46C637.81 457.98 637.26 459.37 636.79 460.46L574.41 460.46 569.41 456.46 638.35 456.46z"/>
    <polygon fill="#FFF" fill-rule="nonzero" points="635.65 463.23 635.55 463.45 625.7 467.27 582.78 467.27 577.78 463.27"/>
    <polygon fill="#925978" fill-rule="nonzero" points="618.81 469.95 608.39 473.99 591.14 473.99 586.11 469.95"/>
    <polygon fill="#925978" fill-rule="nonzero" points="601.47 476.68 596.75 478.51 594.48 476.68"/>
    <path fill="#000" fill-rule="nonzero" d="M641.01,446.1 C634.7,447.59 628.84,448.68 628.84,448.68 L595.67,451.76 L591.1,417.28 C591.1,417.28 597.45,409.66 603.26,406.77 C608.74,404.02 614.73,397.06 611.36,381.12 C611.17,380.21 610.95,379.26 610.69,378.28 C610.222443,376.514232 609.88817,374.71584 609.69,372.9 C608.3,360.33 614.33,352.44 616.06,350.47 C616.34,350.14 616.5,349.98 616.5,349.98 L618.6,324.25 C618.96635,324.228459 619.33365,324.228459 619.7,324.25 C621.96,326.82 623.7,328.55 623.7,328.55 L628.79,336.72 L625.63,370.58 L634.23,369.75 C634.23,369.75 639.13,437.75 640.76,443.04 C641.036679,444.034908 641.121521,445.073376 641.01,446.1 Z" opacity=".1"/>
    <path fill="#33CCAB" fill-rule="nonzero" d="M669.3,369.76 C664.872836,374.468559 662.184747,380.546745 661.68,386.99 C660.77,397.87 656.96,398.6 656.96,398.6 L656.78,429.46 C656.78,429.46 653.87,436.54 657.14,439.8 C660.41,443.06 629.93,448.7 629.93,448.7 L596.76,451.78 L592.19,417.3 C592.19,417.3 598.54,409.68 604.34,406.79 C610.14,403.9 616.5,396.26 611.78,378.3 C607.66,362.6 615.18,352.73 617.15,350.49 C617.43,350.16 617.59,350 617.59,350 L619.69,324.27 C619.69,324.27 625.39,323.87 628.84,328.04 C629.561068,328.939098 630.346467,329.784654 631.19,330.57 C633.55,332.72 635.61,333.19 638.09,331.68 C641.36,329.68 655.51,321.4 659.68,327.17 C663.85,332.94 669.3,369.76 669.3,369.76 Z"/>
    <path fill="#33CCAB" fill-rule="nonzero" d="M631.19,330.55 L627.77,348.12 L617.15,350.46 C617.43,350.13 617.59,349.97 617.59,349.97 L619.69,324.24 C619.69,324.24 625.39,323.84 628.84,328.01 C629.560691,328.912543 630.346098,329.761451 631.19,330.55 Z"/>
    <path fill="#000" fill-rule="nonzero" d="M631.19 330.55L627.77 348.12 617.15 350.46C617.43 350.13 617.59 349.97 617.59 349.97L619.69 324.24C619.69 324.24 625.39 323.84 628.84 328.01 629.560691 328.912543 630.346098 329.761451 631.19 330.55zM708.17 289.02L708.17 294.59 684.77 301.08C684.77 301.08 682.63 299.87 679.3 298.28 681.83 297.38 693.3 293.28 699.22 290.51 701.41 289.51 702.86 288.69 702.86 288.29 702.86 288.07 702.63 287.83 702.23 287.57 705.91 288.46 708.17 289.02 708.17 289.02z" opacity=".1"/>
    <path fill="#33CCAB" fill-rule="nonzero" d="M740.77,320.94 C740.77,320.94 716.43,344.94 700.13,350.47 C700.13,350.47 677.46,360.47 669.3,369.76 L654.06,332.2 L659.68,327.15 C659.68,327.15 667.68,330.74 673.83,328.39 C679.98,326.04 686.89,324.24 686.89,324.24 C686.89,324.24 698.32,318.41 703.4,317.32 C707.9,316.32 705.29,310.7 700.35,308.16 C699.712121,307.821135 699.042167,307.546454 698.35,307.34 C698.35,307.34 695.81,312.06 690.92,310.06 C689.057703,309.179626 687.365146,307.977911 685.92,306.51 C683.733756,304.360889 681.727059,302.036465 679.92,299.56 C679.92,299.56 693.62,294.71 700.34,291.62 C702.53,290.62 703.98,289.8 703.98,289.4 C703.98,287.76 690.56,284.32 690.56,284.32 C690.56,284.32 700.81,277.61 705.75,280.87 C705.75,280.87 703.17,283.41 705.75,285.23 C708.33,287.05 739.17,304.9 739.17,304.9 C739.17,304.9 753.84,309.88 740.77,320.94 Z"/>
    <path fill="#000" fill-rule="nonzero" d="M715.02,304.07 L700.35,308.16 C699.712121,307.821135 699.042167,307.546454 698.35,307.34 C698.35,307.34 695.81,312.06 690.92,310.06 C689.057703,309.179626 687.365146,307.977911 685.92,306.51 C684.148129,304.67129 682.504282,302.713375 681,300.65 C681,300.65 694.69,295.8 701.42,292.71 L715.02,304.07 Z" opacity=".1"/>
    <path fill="#33CCAB" fill-rule="nonzero" d="M713.93,302.98 L698.32,307.34 C698.32,307.34 695.78,312.06 690.89,310.06 C686,308.06 679.89,299.54 679.89,299.54 C679.89,299.54 693.59,294.69 700.31,291.6 L713.93,302.98 Z"/>
    <path fill="#FFF" fill-rule="nonzero" d="M713.93,302.57 L698.32,306.93 C698.32,306.93 695.78,311.65 690.89,309.65 C686,307.65 679.89,299.13 679.89,299.13 C679.89,299.13 693.59,294.28 700.31,291.19 L713.93,302.57 Z" opacity=".1"/>
    <path fill="#000" fill-rule="nonzero" d="M448.41 577.46L477.57 594.09C477.57 594.09 466.39 601.85 456.14 610.48 445.52 605.16 435.52 600.26 427.82 595.7 436.66 591.22 448.41 577.46 448.41 577.46zM610.48 688.99C602.77 689.56 590.48 686.89 590.48 686.89 590.48 686.89 585.48 686.45 577.87 684.98 577.76 682.44 577.53 679.55 577.14 676.27 575.78 664.84 577.14 647.97 577.14 647.97L604.63 649.33 609.25 679.27C610.3 681.01 610.65 684.46 610.48 688.99z" opacity=".1"/>
    <path fill="#444053" fill-rule="nonzero" d="M642.44,560.89 C638.09,569.6 627.75,605.52 627.75,605.52 C625.211821,611.991028 622.203799,618.267768 618.75,624.3 C613.85,632.46 611.94,649.6 609.22,663.48 C606.5,677.36 611.94,674.1 612.22,681.17 C612.5,688.24 586.09,682.53 586.09,682.53 C586.09,682.53 533.02,677.91 513.16,648.53 C493.3,619.15 426.64,598.71 411.57,582.66 C396.5,566.61 413.84,571.77 411.93,562.25 C410.02,552.73 416.28,543.74 416.28,543.74 C416.28,543.74 439.14,533.94 442.41,528.74 C445.68,523.54 463.1,509.46 463.1,509.46 C463.1,509.46 479.98,499.39 481.88,496.4 C483.78,493.41 503.88,482.25 510.18,479.8 C516.48,477.35 521.57,467.27 521.57,467.27 C521.57,467.27 525.66,467.27 530.83,460.74 C536,454.21 560.22,446.04 560.22,446.04 C606.79,471.62 635.57,463.37 635.57,463.37 L637.02,469.17 C663.4,495.57 646.8,552.18 642.44,560.89 Z"/>
    <path fill="#000" fill-rule="nonzero" d="M637 469.17C637 469.17 601.9 486.05 560.26 446.04 606.79 471.62 635.57 463.37 635.57 463.37L637 469.17zM576.57 498.29C576.57 498.29 536.57 575.85 533.84 578.85 531.11 581.85 573.86 497.75 576.57 498.29zM598.63 489.86C598.63 489.86 571.42 547.28 573.05 554.36 573.05 554.36 599.45 499.11 598.63 489.86zM620.4 501.83C620.4 501.83 617.97 532.28 629.65 547.83L620.4 501.83zM633.74 501.83C633.74 501.83 637.5 527.41 641.06 532.31L633.74 501.83z" opacity=".1"/>
    <polygon fill="#000" fill-rule="nonzero" points="547.19 489.86 504.19 513.54 521.06 513.54" opacity=".1"/>
    <path fill="#000" fill-rule="nonzero" d="M610.51,279.82 C608.43,281.62 606.87,284.28 604.21,284.99 C602.32,285.49 600.34,284.87 598.46,284.33 C593.7,282.96 588.39,282.11 583.92,284.26 C577.55,287.33 574.92,295.48 568.55,298.6 C565.386984,300.162571 561.692509,300.235874 558.47,298.8 C555.655558,297.526147 553.456642,295.19429 552.35,292.31 C550.49,287.39 552.25,281.64 555.69,277.66 C559.13,273.68 564.01,271.23 568.95,269.43 C581.87,264.73 595.84,263.92 609.58,263.16 C610.692026,262.993145 611.828561,263.142142 612.86,263.59 C615.13,264.85 619.68,272.14 619.28,274.87 C618.75,278.46 610.51,276.86 610.51,279.82 Z" opacity=".1"/>
    <path fill="#925978" fill-rule="nonzero" d="M610.51,278.73 C608.43,280.54 606.87,283.19 604.21,283.9 C602.32,284.41 600.34,283.79 598.46,283.24 C593.7,281.87 588.39,281.02 583.92,283.17 C577.55,286.24 574.92,294.4 568.55,297.51 C566.596958,298.470658 564.418323,298.87872 562.25,298.69 C560.942493,298.572953 559.66434,298.234817 558.47,297.69 C555.655558,296.416147 553.456642,294.08429 552.35,291.2 C550.49,286.28 552.25,280.53 555.69,276.56 C559.13,272.59 564.01,270.12 568.95,268.32 C581.87,263.62 595.84,262.81 609.58,262.05 C610.692962,261.886283 611.829533,262.03875 612.86,262.49 C615.13,263.75 619.68,271.03 619.28,273.76 C618.75,277.46 610.51,275.77 610.51,278.73 Z"/>
    <path fill="#EFB7B9" fill-rule="nonzero" d="M437.79,322.76 L435.79,340.85 L429.7,338.19 L396.7,323.72 C396.7,323.72 373.44,325.9 369.21,307.52 C364.98,289.14 394.93,303.98 396.56,305.21 C398.19,306.44 401.87,308.46 401.87,308.46 L432.42,320.61 L437.79,322.76 Z"/>
    <path fill="#000" fill-rule="nonzero" d="M437.79 322.76L435.79 340.85 429.7 338.19C429.92 330.09 430.9 322.54 432.46 320.63L437.79 322.76zM603.62 417.65L602.17 455.02 564.29 452.12C564.81 449.2 571.12 412.44 562.08 404.76 552.64 396.76 552.45 370.84 552.45 370.84 552.45 370.84 564.57 352.51 566.97 348.16 569.37 343.81 587.57 338.25 587.57 338.25 588.112609 336.507699 588.336195 334.681746 588.23 332.86 588.996277 334.028723 589.642874 335.271664 590.16 336.57 590.98 343.25 588.92 348.17 582.22 352.47 581.63 352.85 581.01 353.22 580.35 353.59 579.28 354.18 578.12 354.77 576.85 355.34L576.28 355.6C564.85 360.68 563.21 368.12 563.21 368.12 559.762109 374.140806 558.725764 381.245132 560.31 388 562.98 399.17 603.62 417.65 603.62 417.65z" opacity=".1"/>
    <path fill="#33CCAB" fill-rule="nonzero" d="M601.44,417.65 L599.99,455.02 L557.35,451.76 C557.35,451.76 556.81,437.76 558.98,431.76 C561.15,425.76 557.72,404.01 557.72,404.01 C537.58,387.31 544.83,370.62 544.83,370.62 C544.83,370.62 491.83,368.99 490.77,367.54 C489.71,366.09 471.18,359 471.18,359 C471.18,359 451.76,356.65 448.86,354.29 C447.78896,353.392572 446.637414,352.595862 445.42,351.91 C445.068807,351.709385 444.704672,351.532328 444.33,351.38 L444.51,363.54 C444.37018,363.550047 444.22982,363.550047 444.09,363.54 L443.86,363.54 C440.796775,363.644588 437.761492,362.926341 435.07,361.46 C430.36,358.74 431.07,322.08 435.07,320.28 C435.829319,319.969178 436.65497,319.855651 437.47,319.95 C440.74,320.18 445.07,322.49 447.05,323.63 L447.85,324.11 L448.14,324.29 C448.14,324.29 472.81,330.43 478.07,334.06 C483.33,337.69 520.57,338.25 520.57,338.25 C520.57,338.25 537.44,339.99 539.26,337.36 C541.08,334.73 565.56,327.66 568.1,330.93 C570.64,334.2 576.4,332.93 576.4,332.93 C579.89,327.65 582.98,329.12 585.08,331.6 C586.290168,333.111252 587.264544,334.797024 587.97,336.6 C588.87,343.87 586.35,349.05 578.16,353.6 C576.93,354.28 575.58,354.95 574.09,355.6 C562.66,360.68 561.03,368.12 561.03,368.12 C557.576787,374.13881 556.536747,381.24396 558.12,388 C560.8,399.17 601.44,417.65 601.44,417.65 Z"/>
    <path fill="#000" fill-rule="nonzero" d="M437.47,319.9 C437.01664,319.927761 436.572407,320.039667 436.16,320.23 C432.16,322.03 431.45,358.69 436.16,361.41 C438.515472,362.745962 441.154552,363.503412 443.86,363.62 L444.09,363.62 C444.22982,363.630047 444.37018,363.630047 444.51,363.62 L444.33,351.46 C444.704672,351.612328 445.068807,351.789385 445.42,351.99 L445.42,351.46 C441.989559,342.449081 442.889166,332.361682 447.86,324.1 L437.47,319.9 Z" opacity=".1"/>
    <path fill="#33CCAB" fill-rule="nonzero" d="M444.33,351.46 L444.51,363.62 C441.219766,363.83921 437.937524,363.088189 435.07,361.46 C430.36,358.74 431.07,322.08 435.07,320.28 C438.22,318.84 444.52,322.17 447.07,323.63 C441.846701,331.964969 440.832473,342.266422 444.33,351.46 L444.33,351.46 Z"/>
    <path fill="#FFF" fill-rule="nonzero" d="M444.33,351.46 L444.51,363.62 C441.219766,363.83921 437.937524,363.088189 435.07,361.46 C430.36,358.74 431.07,322.08 435.07,320.28 C438.22,318.84 444.52,322.17 447.07,323.63 C441.846701,331.964969 440.832473,342.266422 444.33,351.46 L444.33,351.46 Z" opacity=".1"/>
    <path fill="#33CCAB" fill-rule="nonzero" d="M578.12,353.59 L571.42,348.76 L585.04,331.59 C586.250168,333.101252 587.224544,334.787024 587.93,336.59 C588.83,343.84 586.31,349.02 578.12,353.59 Z"/>
    <path fill="#000" fill-rule="nonzero" d="M578.12 353.2L571.42 348.37 585.04 331.2C586.248023 332.712717 587.222204 334.398151 587.93 336.2 588.83 343.46 586.31 348.63 578.12 353.2zM610.51 276.56C608.43 278.36 606.86 281.01 604.21 281.72 602.32 282.23 600.34 281.61 598.46 281.07 593.69 279.69 588.38 278.84 583.91 281 577.55 284.07 574.91 292.22 568.54 295.34 566.58785 296.29204 564.413913 296.696413 562.25 296.51 557.786626 296.142881 553.933269 293.239241 552.35 289.05 551.970646 288.034405 551.735036 286.970792 551.65 285.89 551.480721 287.696679 551.719958 289.518297 552.35 291.22 553.452896 294.106643 555.652989 296.439748 558.47 297.71 559.663945 298.25592 560.942291 298.594107 562.25 298.71 564.415081 298.898409 566.590419 298.490317 568.54 297.53 574.89 294.42 577.54 286.26 583.91 283.19 588.38 281.04 593.69 281.89 598.46 283.26 600.34 283.81 602.32 284.43 604.21 283.92 606.86 283.21 608.43 280.56 610.51 278.75 610.51 275.75 618.75 277.43 619.28 273.8 619.32372 273.254137 619.266084 272.704896 619.11 272.18 617.84 275.06 610.51 273.77 610.51 276.56zM596.76 362.32C596.76 362.32 601.28 371.16 597.48 374.83 597.48 374.83 600.48 361.95 603.2 361.83" opacity=".1"/>
    <path fill="#EFB7B9" fill-rule="nonzero" d="M379.66,298.71 C379.66,298.71 403.38,314.38 388.36,319.35 C373.34,324.32 379.66,298.71 379.66,298.71 Z"/>
  </g>
</svg>
