<svg xmlns="http://www.w3.org/2000/svg" width="231" height="210" viewBox="0 0 231 210">
  <g fill="none" fill-rule="evenodd" transform="translate(19 12)">
    <g fill-rule="nonzero" transform="translate(.568 139)">
      <path fill="#FFBCA3" d="M189,21.4084888 C189,30.6332218 145.552153,47 91.9565182,47 C38.3608833,47 0,13.8326869 0,4.60795676 C0,-4.61677336 38.360889,13.5942881 91.9565182,13.5942881 C145.552147,13.5942881 189,12.1837559 189,21.4084888 Z"/>
      <path fill="#000" d="M189,21.4084888 C189,30.6332218 145.552153,47 91.9565182,47 C38.3608833,47 0,13.8326869 0,4.60795676 C0,-4.61677336 38.360889,13.5942881 91.9565182,13.5942881 C145.552147,13.5942881 189,12.1837559 189,21.4084888 Z" opacity=".1"/>
      <path fill="#FFBCA3" d="M189,21.0769645 C189,30.423298 145.552153,38 91.9565182,38 C38.3608833,38 0,13.5002595 0,4.153926 C0,-5.1924075 38.360889,4.153926 91.9565182,4.153926 C145.552147,4.153926 189,11.730628 189,21.0769645 Z"/>
    </g>
    <g opacity=".7" transform="translate(153.568)">
      <path fill="#F5DD48" fill-rule="nonzero" d="M32.1826625,20.4230396 C28.6408998,27.2063045 17.4153763,35.1993584 10.5409249,31.7045713 C3.66647356,28.2097841 3.74631593,14.5505624 7.28807864,7.76729745 C10.8306085,0.985482574 19.2735825,-1.67922573 26.1471813,1.81512852 C33.0207802,5.30948277 35.7227863,13.6400016 32.1826625,20.4230396 L32.1826625,20.4230396 Z"/>
      <path fill="#AD644A" fill-rule="nonzero" d="M11.1225497,33.4983123 C10.6695142,32.6270982 9.70499634,32.1367623 8.72307458,32.2784813 L9.95930017,29.9108303 L12.3587781,31.1306613 L11.1225497,33.4983123 Z"/>
      <path stroke="#2F2E41" stroke-width="2" d="M9.37367034,31.0477071 C9.93271977,31.8100674 10.8288544,32.2610598 11.7825098,32.2599914"/>
      <ellipse cx="27.613" cy="11.546" fill="#FFF" fill-rule="nonzero" opacity=".4" rx="3.506" ry="2.944" transform="rotate(-62.742 27.613 11.546)"/>
      <path stroke="#2F2E41" stroke-width="2" d="M10.4765871,31.7895128 L0.0302657627,57.7281307"/>
    </g>
    <path fill="#33CCAB" fill-rule="nonzero" d="M187.888517,62.1272106 C180.262479,69.9840961 161.854446,76.2103373 154.160935,68.4223586 C146.467424,60.6343798 152.401806,41.7813273 160.027846,33.9244448 C167.654685,26.0722103 180.069914,26.0185769 187.76153,33.8046362 C195.453145,41.5906955 195.509992,54.2695469 187.888517,62.1272106 Z"/>
    <path stroke="#33CCAB" stroke-width="2" d="M152.567639,67 C153.035954,68.432024 154.152013,69.5480823 155.567639,70"/>
    <path stroke="#2F2E41" d="M153.567639,69 L127.567639,95"/>
    <ellipse cx="185.876" cy="48.202" fill="#FFF" fill-rule="nonzero" opacity=".4" rx="5.017" ry="4.181" transform="rotate(-45.252 185.876 48.202)"/>
    <path fill="#F5DD48" fill-rule="nonzero" d="M164.022641,37.542931 C161.469724,48.2488773 148.717218,63.2658907 138.012318,60.7127253 C127.307418,58.1595599 122.703847,39.0030401 125.256775,28.2971082 C127.815634,17.5979308 138.559238,10.9961903 149.259081,13.5481479 C159.958923,16.1001055 166.567198,26.8403427 164.022641,37.542931 Z"/>
    <path stroke="#F5DD48" stroke-width="2" d="M136.567639,60 C137.673187,60.8760707 139.161265,61.2020342 140.567639,60.8762002"/>
    <ellipse cx="154.791" cy="26.279" fill="#FFF" fill-rule="nonzero" opacity=".4" rx="5.017" ry="4.181" transform="rotate(-76.587 154.791 26.279)"/>
    <path stroke="#2F2E41" d="M137.567639,61 L129.567639,96"/>
    <path fill="#2F2E41" fill-rule="nonzero" d="M106.133972,17 L110.00131,17 C115.284648,17 119.567639,21.2829922 119.567639,26.5663309 L119.567639,40 L96.5676393,40 L96.5676393,26.5663338 C96.5676385,24.0291841 97.5755168,21.5959492 99.3695524,19.8019135 C101.163588,18.0078777 103.596822,16.9999992 106.133972,17 L106.133972,17 Z"/>
    <path fill="#FEDCB4" fill-rule="nonzero" d="M95.6054653,77 L92.5743558,83.0083466 C92.5743558,83.0083466 90.1037894,91.079752 92.9031954,91.9425748 C95.7026015,92.8053976 96.2490429,83.6597674 96.2490429,83.6597674 L98.5676393,77.6036619 L95.6054653,77 Z"/>
    <path fill="#000" fill-rule="nonzero" d="M95.6054653,77 L92.5743558,83.0083466 C92.5743558,83.0083466 90.1037894,91.079752 92.9031954,91.9425748 C95.7026015,92.8053976 96.2490429,83.6597674 96.2490429,83.6597674 L98.5676393,77.6036619 L95.6054653,77 Z" opacity=".1"/>
    <polygon fill="#476D71" fill-rule="nonzero" points="95.357 68 91.568 80.923 97.568 84 97.568 68.615"/>
    <path fill="#FEDCB4" fill-rule="nonzero" d="M105.409744,32.8219184 C105.409744,32.8219184 105.093955,37.7534262 104.462375,37.7534262 C103.830795,37.7534262 102.567639,43.6095893 102.567639,43.6095893 L107.93606,47 L114.567639,41.1438369 L112.672892,36.5205485 C112.672892,36.5205485 111.725522,34.6712349 112.041312,32.8219184 C112.357102,30.972602 105.409744,32.8219184 105.409744,32.8219184 Z"/>
    <path fill="#000" fill-rule="nonzero" d="M105.409744,32.8219184 C105.409744,32.8219184 105.093955,37.7534262 104.462375,37.7534262 C103.830795,37.7534262 102.567639,43.6095893 102.567639,43.6095893 L107.93606,47 L114.567639,41.1438369 L112.672892,36.5205485 C112.672892,36.5205485 111.725522,34.6712349 112.041312,32.8219184 C112.357102,30.972602 105.409744,32.8219184 105.409744,32.8219184 Z" opacity=".1"/>
    <path fill="#FEDCB4" fill-rule="nonzero" d="M125.567639 81.8980991L126.138592 88.4841534C126.138592 88.4841534 128.136925 96.5670396 130.706207 95.9683069 133.27549 95.3695741 129.278827 87.286688 129.278827 87.286688L128.136925 81 125.567639 81.8980991zM111.567639 149.064097C111.567639 149.064097 113.367638 160.403104 112.167639 162.548323 110.96764 164.693543 113.367638 165 113.367638 165L120.567639 163.161249 120.567639 159.790184C120.567639 159.790184 118.167641 148.757637 118.167641 148.144717 118.167641 147.531797 111.567639 149.064097 111.567639 149.064097z"/>
    <path fill="#07454C" fill-rule="nonzero" d="M96.5676393,98.2469235 C96.5676393,98.2469235 98.6878699,120.291381 102.019663,127.333361 C105.351455,134.375342 108.380357,153.664243 109.89481,153.970416 C111.409262,154.276589 122.91909,152.133379 124.433539,150.908686 C125.947989,149.683993 114.135271,119.985208 114.135271,119.679035 C114.135271,119.372861 111.409251,92.1234603 111.409251,92.1234603 L107.774568,86 L96.5676393,98.2469235 Z"/>
    <path fill="#000" fill-rule="nonzero" d="M96.5676393,98.2469235 C96.5676393,98.2469235 98.6878699,120.291381 102.019663,127.333361 C105.351455,134.375342 108.380357,153.664243 109.89481,153.970416 C111.409262,154.276589 122.91909,152.133379 124.433539,150.908686 C125.947989,149.683993 114.135271,119.985208 114.135271,119.679035 C114.135271,119.372861 111.409251,92.1234603 111.409251,92.1234603 L107.774568,86 L96.5676393,98.2469235 Z" opacity=".1"/>
    <path fill="#2F2E41" fill-rule="nonzero" d="M114.128048,162.004875 C114.128048,162.004875 111.085208,160.480277 110.476639,161.395036 L108.042377,165.05407 C108.042377,165.05407 97.6967193,169.932781 101.348128,170.54262 C104.999536,171.15246 111.998069,171.15246 112.910922,170.54262 C113.823775,169.932781 123.865148,164.444231 123.560864,164.139311 C123.25658,163.834391 120.8223,157.431082 120.518024,158.040921 C120.213748,158.650761 115.953754,163.22456 114.128048,162.004875 Z"/>
    <path fill="#FEDCB4" fill-rule="nonzero" d="M62.3845975,136 C62.3845975,136 55.395725,140.869566 52.0532041,139.956522 C48.7106832,139.043478 52.0532041,146.652174 52.0532041,146.652174 L58.1304937,150 L59.9536794,148.478262 C59.9536794,148.478262 66.3348338,139.956522 69.0696167,139.652174 C71.8043995,139.347826 62.3845975,136 62.3845975,136 Z"/>
    <path fill="#07454C" fill-rule="nonzero" d="M95.0089248,79.2672922 L96.2362136,85.773945 L73.2245692,121.095789 C73.2245692,121.095789 59.417582,135.038617 60.644865,136.587833 C61.8721481,138.137049 69.5427029,147.122414 71.3836332,145.883054 C73.2245635,144.643693 115.872817,98.1675689 115.565992,91.970757 C115.259167,85.773945 105.134046,74 105.134046,74 L95.008922,78.6476104 L95.0089248,79.2672922 Z"/>
    <path fill="#2F2E41" fill-rule="nonzero" d="M54.3825806,142.031635 C54.3825806,142.031635 57.1960155,138.984866 55.6329936,138.680189 C53.8749896,138.37819 52.1006572,138.174738 50.3187415,138.070835 C49.693535,138.070835 41.2532565,133.805358 40.62805,135.328735 C40.0028435,136.852112 44.3792859,144.773717 46.8801088,145.687749 C49.3809318,146.60178 58.4464081,153 58.4464081,153 C58.4464081,153 63.1354537,149.039203 62.5102472,148.125172 C61.8850408,147.21114 53.1321677,145.38308 54.3825806,142.031635 Z"/>
    <circle cx="108.068" cy="28.5" r="7.5" fill="#FEDCB4" fill-rule="nonzero"/>
    <path fill="#E3E8F4" fill-rule="nonzero" d="M109.670298,39.54622 C109.670298,39.54622 104.393729,39.8554662 102.8418,38.9277302 C101.28987,37.9999942 97.8756177,51.6068225 97.8756177,51.6068225 L95.7029176,69.5430874 C95.7029176,69.5430874 95.3925311,71.7078085 95.7029176,72.9447937 C96.0133042,74.1817789 92.5990551,72.3263011 93.8405984,75.7280161 C95.0821417,79.1297311 92.9094416,80.6759511 95.0821445,80.9851974 C97.2548475,81.2944436 108.739141,76.655755 108.739141,76.655755 L114.015709,49.1328579 L115.567639,38 L109.670298,39.54622 Z"/>
    <path fill="#476D71" fill-rule="nonzero" d="M104.567639 37.2434214C104.567639 37.2434214 101.793918 36.6713788 100.890633 37.2811466 99.987347 37.8909143 96.6753055 42.4641696 96.6753055 43.6837023 96.6753055 44.903235 95.4709248 58.318117 95.4709248 59.5376525 95.4709248 60.757188 94.5676393 67.1597409 94.5676393 67.7695087 94.5676393 68.3792764 95.3399528 71 95.3399528 71L97.2774931 67.4646248C97.2774931 67.4646248 96.6753055 62.8913723 98.782969 55.574165 100.890633 48.2569576 104.567639 37.2434214 104.567639 37.2434214zM108.314256 42.8413297C108.314256 42.8413297 112.49692 36.4304367 112.753801 37.0409985 113.010682 37.6515603 117.707114 38.5674001 117.707114 38.5674001 117.707114 38.5674001 126.160684 44.3677313 125.534493 46.8099784 124.908302 49.2522255 120.524971 67.5690617 120.524971 67.5690617 120.524971 67.5690617 116.454733 77.0327606 119.585684 83.7489345 122.716636 90.4651083 118.959493 92.9073526 118.959493 92.9073526 118.959493 92.9073526 116.454733 94.1284761 117.080923 95.3495968 117.707114 96.5707175 109.879745 101.149931 108.940447 97.7918439 108.001149 94.433757 96.4166394 74.2852355 98.9214032 66.9584999 101.426167 59.6317643 108.314256 42.8413297 108.314256 42.8413297z"/>
    <path fill="#476D71" fill-rule="nonzero" d="M123.395906,45 C123.395906,45 126.715338,51.5280677 126.111813,52.4606496 C125.508288,53.3932315 128.224178,58.9887172 128.224178,58.9887172 C128.036283,59.4887396 128.036283,60.0429952 128.224178,60.5430175 C128.525945,61.4755995 130.336546,65.5167849 130.336546,67.0710881 C130.336546,68.6253913 130.034779,73.5991558 130.336546,75.7751773 C130.638313,77.9511989 134.561276,83.2358269 131.241843,83.5466876 C127.922411,83.8575482 122.490614,86.6552911 122.792381,83.5466876 C123.094147,80.4380841 123.999448,72.9774345 122.792381,71.7339919 C121.585313,70.4905494 120.680016,70.4905522 121.283546,68.9362404 C121.887077,67.3819285 118.567639,63.3407546 118.567639,63.3407546 L123.395906,45 Z"/>
    <polygon fill="#2F2E41" fill-rule="nonzero" points="114.622 27 103.162 27 100.568 21 116.568 21"/>
    <ellipse cx="100.642" cy="30.086" fill="#FEDCB4" fill-rule="nonzero" rx="1" ry="1.569" transform="rotate(-16.16 100.642 30.086)"/>
    <ellipse cx="115.348" cy="30.086" fill="#FEDCB4" fill-rule="nonzero" rx="1.569" ry="1" transform="rotate(-73.84 115.348 30.086)"/>
  </g>
</svg>
