<svg xmlns="http://www.w3.org/2000/svg" width="20" height="24" viewBox="0 0 20 24">
  <path fill="#07454C" d="M55.875,2274.375 C55.875,2271.096 53.645625,2268.33488 50.625,2267.50875 L50.625,2265 L46.875,2265 L46.875,2267.50875 C43.854375,2268.33488 41.625,2271.096 41.625,2274.375 L41.625,2281.34475 L39,2283.96975 L39,2286 L45.022125,2286 C45.209625,2287.68487 46.640625,2289 48.375,2289 C50.109375,2289 51.540375,2287.68487 51.727875,2286 L58.5,2286 L58.5,2283.96975 L55.875,2281.34475 L55.875,2274.375 Z M55.125,2280 L42.375,2280 L42.375,2278.5 L55.125,2278.5 L55.125,2280 Z M47.625,2265.75 L49.875,2265.75 L49.875,2267.34787 C49.507875,2267.289 49.133625,2267.25 48.75,2267.25 C48.366375,2267.25 47.992125,2267.289 47.625,2267.34787 L47.625,2265.75 Z M48.75,2268 C52.26525,2268 55.125,2270.85975 55.125,2274.375 L55.125,2277.75 L42.375,2277.75 L42.375,2274.375 C42.375,2270.85975 45.23475,2268 48.75,2268 Z M48.375,2288.25 C47.055,2288.25 45.962625,2287.27013 45.78,2286 L50.97,2286 C50.787375,2287.27013 49.695,2288.25 48.375,2288.25 Z M57.75,2284.28025 L57.75,2285.25 L39.75,2285.25 L39.75,2284.28025 L42.375,2281.65525 L42.375,2280.75 L55.125,2280.75 L55.125,2281.65525 L57.75,2284.28025 Z" transform="translate(-39 -2265)"/>
</svg>
