<svg xmlns="http://www.w3.org/2000/svg" width="852" height="668" viewBox="0 0 852 668">
  <g fill="none" fill-rule="evenodd">
    <path fill="#FFDED1" fill-opacity=".8" fill-rule="nonzero" d="M158.54,667.366243 C246.099224,667.366243 317.08,667.366243 317.08,667.366243 C317.08,660.468207 246.099224,642.386243 158.54,642.386243 C70.9807758,642.386243 -2.84217094e-14,660.468207 -2.84217094e-14,667.366243 C-2.84217094e-14,667.366243 70.9807758,667.366243 158.54,667.366243 Z"/>
    <ellipse cx="439.33" cy="643.61" fill="#FFDED1" fill-opacity=".8" fill-rule="nonzero" rx="25.33" ry="2.57"/>
    <g transform="translate(345)">
      <ellipse cx="111.808" cy="601.92" fill="#FFDED1" fill-opacity=".8" fill-rule="nonzero" rx="22.99" ry="2.57"/>
      <ellipse cx="220.998" cy="575.84" fill="#FFDED1" fill-opacity=".8" fill-rule="nonzero" rx="83.87" ry="12.49"/>
      <ellipse cx="339.878" cy="566.75" fill="#FFDED1" fill-opacity=".8" fill-rule="nonzero" rx="20.49" ry="2.81"/>
      <ellipse cx="418.358" cy="574.71" fill="#FFDED1" fill-opacity=".8" fill-rule="nonzero" rx="20.49" ry="2.81"/>
      <ellipse cx="386.948" cy="597.37" fill="#FFDED1" fill-opacity=".8" fill-rule="nonzero" rx="14.57" ry="2"/>
      <ellipse cx="468.408" cy="595.37" fill="#FFDED1" fill-opacity=".8" fill-rule="nonzero" rx="14.57" ry="2"/>
      <path fill="#F5DD48" fill-rule="nonzero" d="M418.797712,574.08 C418.797712,574.08 390.067712,479.88 423.297712,442.14 C448.157712,413.92 476.377712,417.3 489.017712,420.79 C495.630374,422.54643 501.139335,427.115906 504.087712,433.29 C508.507712,442.83 507.707712,458.29 476.517712,476.36 C424.297712,506.59 421.047712,548.07 421.047712,548.07 L418.797712,574.08 Z"/>
      <path stroke="#565987" d="M484.557712 434.15C484.557712 434.15 399.847712 460.63 418.837712 574.08M435.047712 443.64C435.047712 443.64 446.707712 451.5 443.047712 463.32M476.017712 450.64C476.017712 450.64 468.887712 443.39 460.217712 447.39M442.557712 487.12C442.557712 487.12 430.037712 480.77 426.797712 488.73M411.557712 500.36C411.557712 500.36 420.957712 499.62 421.127712 504.11"/>
      <path fill="#F5DD48" fill-rule="nonzero" d="M417.637712,574.83 C417.637712,574.83 451.297712,506.36 460.537712,507.83 C464.927712,508.54 466.957712,512.83 467.867712,517.2 C469.000825,522.812004 468.361317,528.637467 466.037712,533.87 C461.257712,544.85 448.437712,565.66 417.637712,574.83 Z"/>
      <path stroke="#565987" d="M460.287712 520.85C460.287712 520.85 424.967712 572.08 418.137712 574.33M463.537712 528.85L455.287712 528.85M453.657712 547.59L440.737712 548.14M445.797712 532.6L447.197712 539.33M432.057712 553.09L432.297712 559.21"/>
      <path fill="#F5DD48" fill-rule="nonzero" d="M418.637712,574.83 C418.637712,574.83 384.987712,506.36 375.737712,507.83 C371.347712,508.54 369.327712,512.83 368.407712,517.2 C367.274598,522.812004 367.914106,528.637467 370.237712,533.87 C375.017712,544.85 387.847712,565.66 418.637712,574.83 Z"/>
      <path stroke="#565987" d="M375.987712 520.85C375.987712 520.85 411.317712 572.08 418.137712 574.33M372.737712 528.85L380.987712 528.85M382.617712 547.59L395.537712 548.14M390.477712 532.6L389.077712 539.33M404.227712 553.09L403.977712 559.21"/>
      <path fill="#33CCAB" fill-rule="nonzero" d="M476.427712 590.82C477.343435 590.073295 478.009725 589.065139 478.337712 587.93 478.642784 586.756296 478.089258 585.52855 477.007712 584.98 475.777712 584.51 474.457712 585.36 473.467712 586.22 472.477712 587.08 471.327712 588.07 470.027712 587.88 471.392093 586.645374 472.007291 584.784589 471.647712 582.98 471.590929 582.610203 471.43156 582.263747 471.187712 581.98 470.507712 581.25 469.277712 581.56 468.457712 582.13 465.857712 583.96 465.127712 587.49 465.117712 590.67 464.992503 589.500007 464.992503 588.319993 465.117712 587.15 465.221686 585.958419 464.727042 584.793008 463.797712 584.04 463.182524 583.714034 462.493694 583.552159 461.797712 583.57 460.625006 583.400135 459.435514 583.738431 458.527712 584.5 457.527712 585.56 457.797712 587.34 458.657712 588.5 459.619606 589.591556 460.763146 590.508417 462.037712 591.21 463.007149 591.784829 463.834364 592.571025 464.457712 593.51 464.527841 593.641992 464.588009 593.77904 464.637712 593.92L471.957712 593.92C473.578743 593.089719 475.081961 592.047218 476.427712 590.82zM348.187712 563.29C349.102485 562.542437 349.768563 561.534602 350.097712 560.4 350.403984 559.226298 349.844499 557.99877 348.757712 557.46 347.527712 556.99 346.217712 557.84 345.217712 558.7 344.217712 559.56 343.087712 560.54 341.777712 560.36 343.143826 559.126504 343.759357 557.264715 343.397712 555.46 343.343808 555.091252 343.187949 554.744898 342.947712 554.46 342.267712 553.73 341.027712 554.05 340.217712 554.62 337.617712 556.45 336.887712 559.98 336.877712 563.15 336.735899 561.985132 336.719137 560.808434 336.827712 559.64 336.929895 558.448703 336.435593 557.284098 335.507712 556.53 334.895565 556.196005 334.204547 556.033615 333.507712 556.06 332.336458 555.887387 331.14714 556.221996 330.237712 556.98 329.364796 558.187272 329.418248 559.831955 330.367712 560.98 331.330019 562.068421 332.47359 562.981925 333.747712 563.68 334.715335 564.261492 335.541867 565.050455 336.167712 565.99 336.238117 566.120557 336.295076 566.257929 336.337712 566.4L343.667712 566.4C345.30868 565.57351 346.829343 564.527214 348.187712 563.29zM390.927712 590.82C391.840606 590.07074 392.506265 589.063538 392.837712 587.93 393.145219 586.753482 392.586049 585.522473 391.497712 584.98 390.267712 584.51 388.957712 585.36 387.957712 586.22 386.957712 587.08 385.827712 588.07 384.517712 587.88 385.885568 586.64764 386.501432 584.78484 386.137712 582.98 386.09042 582.609354 385.933754 582.261208 385.687712 581.98 385.007712 581.25 383.767712 581.56 382.957712 582.13 380.357712 583.96 379.627712 587.49 379.617712 590.67 379.492503 589.500007 379.492503 588.319993 379.617712 587.15 379.716351 585.95927 379.222723 584.796254 378.297712 584.04 377.682049 583.7153 376.993555 583.553504 376.297712 583.57 375.125006 583.400135 373.935514 583.738431 373.027712 584.5 372.027712 585.56 372.297712 587.34 373.157712 588.5 374.119606 589.591556 375.263146 590.508417 376.537712 591.21 377.507149 591.784829 378.334364 592.571025 378.957712 593.51 379.027712 593.64 379.077712 593.78 379.137712 593.92L386.457712 593.92C388.078743 593.089719 389.581961 592.047218 390.927712 590.82z"/>
      <path fill="#FFD037" fill-rule="nonzero" d="M492.557712,539.65 C492.557712,540.92 492.697712,541.94 492.867712,541.94 C493.037712,541.94 493.187712,540.94 493.187712,539.65 C493.187712,538.36 493.007712,538.98 492.837712,538.98 C492.667712,538.98 492.557712,538.39 492.557712,539.65 Z"/>
      <path fill="#FFD037" fill-rule="nonzero" d="M490.777712,541.16 C491.887712,541.77 492.857712,542.16 492.937712,541.98 C493.017712,541.8 492.197712,541.21 491.087712,540.61 C489.977712,540.01 490.417712,540.44 490.327712,540.61 C490.237712,540.78 489.667712,540.56 490.777712,541.16 Z"/>
      <path fill="#F5DD48" fill-rule="nonzero" d="M315.057712 59.49C315.057712 59.49 287.557712 36.68 337.717712-1.0658141e-13 337.717712-1.0658141e-13 362.617712 47.62 329.257712 63.74 329.257712 63.74 329.887712 40.23 326.797712 40.27 323.707712 40.31 315.057712 59.49 315.057712 59.49zM272.977712 82.68C272.977712 82.68 224.427712 87.17 237.497712 3.38 237.497712 3.38 307.497712 25.38 290.787712 73.1 290.787712 73.1 268.727712 49.79 265.787712 52.81 262.847712 55.83 272.977712 82.68 272.977712 82.68zM42.3477116 189.84C42.3477116 189.84-5.67228842 198.29.557711585 113.69.557711585 113.69 72.0877116 129.91 59.3477116 178.84 59.3477116 178.84 35.4677116 157.41 32.7777116 160.66 30.0877116 163.91 42.3477116 189.84 42.3477116 189.84zM402.787712 79.29C402.787712 79.29 448.977712 94.89 455.637712 10.35 455.637712 10.35 382.487712 15.56 387.637712 65.85 387.637712 65.85 414.487712 48.28 416.637712 51.9 418.787712 55.52 402.787712 79.29 402.787712 79.29zM159.107712 104.04C159.107712 104.04 113.037712 88.1 159.507712 17.17 159.507712 17.17 214.177712 66.06 179.287712 102.66 179.287712 102.66 168.817712 72.33 164.887712 73.87 160.957712 75.41 159.107712 104.04 159.107712 104.04zM326.257712 79.29C326.257712 79.29 323.537712 53.36 368.427712 59.8 368.427712 59.8 357.127712 97.35 331.507712 88.75 331.507712 88.75 343.817712 76.8 342.187712 75.25 340.557712 73.7 326.257712 79.29 326.257712 79.29zM280.777712 133.04C280.777712 133.04 278.047712 107.11 322.937712 113.55 322.937712 113.55 311.647712 151.1 286.017712 142.55 286.017712 142.55 298.327712 130.55 296.697712 129.05 295.067712 127.55 280.777712 133.04 280.777712 133.04zM375.897712 144.45C375.897712 144.45 356.207712 127.37 393.387712 101.45 393.387712 101.45 410.777712 136.6 386.187712 147.81 386.187712 147.81 387.027712 130.68 384.767712 130.66 382.507712 130.64 375.897712 144.45 375.897712 144.45zM296.487712 291.29C296.487712 291.29 320.847712 282 326.157712 327.03 326.157712 327.03 286.967712 325.76 288.687712 298.79 288.687712 298.79 303.397712 307.62 304.487712 305.64 305.577712 303.66 296.487712 291.29 296.487712 291.29zM298.407712 245.68C298.407712 245.68 278.717712 228.6 315.907712 202.68 315.907712 202.68 333.297712 237.83 308.697712 249.05 308.697712 249.05 309.537712 231.91 307.287712 231.89 305.037712 231.87 298.407712 245.68 298.407712 245.68zM146.927712 197.17C146.927712 197.17 123.297712 208.17 114.807712 163.62 114.807712 163.62 153.997712 162.11 154.177712 189.14 154.177712 189.14 138.877712 181.37 137.937712 183.42 136.997712 185.47 146.927712 197.17 146.927712 197.17zM89.7777116 144.29C89.7777116 144.29 66.1377116 155.29 57.6577116 110.74 57.6577116 110.74 96.8477116 109.23 97.0277116 136.27 97.0277116 136.27 81.7277116 128.5 80.7877116 130.55 79.8477116 132.6 89.7777116 144.29 89.7777116 144.29zM169.317712 267.03C169.317712 267.03 143.317712 268.03 152.747712 223.64 152.747712 223.64 189.437712 237.47 179.117712 262.45 179.117712 262.45 168.037712 249.35 166.367712 250.87 164.697712 252.39 169.317712 267.03 169.317712 267.03zM164.707712 298.51C164.707712 298.51 169.337712 324.16 124.097712 321.06 124.097712 321.06 132.587712 282.77 158.777712 289.46 158.777712 289.46 147.377712 302.28 149.127712 303.71 150.877712 305.14 164.707712 298.51 164.707712 298.51zM104.027712 278.65C104.027712 278.65 94.1577116 302.78 57.6577116 275.86 57.6577116 275.86 85.3877116 248.13 103.887712 267.86 103.887712 267.86 87.3877116 272.55 88.0877116 274.69 88.7877116 276.83 104.027712 278.65 104.027712 278.65zM309.357712 184.09C309.357712 184.09 281.857712 161.29 332.017712 124.6 332.017712 124.6 356.917712 172.23 323.557712 188.35 323.557712 188.35 324.187712 164.84 321.097712 164.88 318.007712 164.92 309.357712 184.09 309.357712 184.09zM422.937712 137.04C422.937712 137.04 402.837712 107.5 461.207712 86.17 461.207712 86.17 471.917712 138.84 435.397712 145.07 435.397712 145.07 442.517712 122.66 439.537712 121.84 436.557712 121.02 422.937712 137.04 422.937712 137.04zM419.797712 229.95C419.797712 229.95 392.297712 207.15 442.457712 170.46 442.457712 170.46 467.357712 218.08 433.997712 234.2 433.997712 234.2 434.627712 210.7 431.537712 210.74 428.447712 210.78 419.797712 229.95 419.797712 229.95zM370.687712 274.38C370.687712 274.38 381.607712 240.38 434.327712 273.26 434.327712 273.26 399.397712 314.1 372.027712 289.14 372.027712 289.14 394.027712 280.97 392.887712 278.14 391.747712 275.31 370.687712 274.38 370.687712 274.38zM441.137712 249.66C441.137712 249.66 452.057712 215.66 504.777712 248.54 504.777712 248.54 469.847712 289.38 442.467712 264.42 442.467712 264.42 464.467712 256.25 463.337712 253.42 462.207712 250.59 441.137712 249.66 441.137712 249.66z"/>
      <path fill="#F5DD48" fill-rule="nonzero" d="M215.197712 120.89C215.197712 120.89 180.027712 114.6 205.587712 57.96 205.587712 57.96 250.727712 87.13 229.647712 117.59 229.647712 117.59 218.647712 96.83 215.937712 98.39 213.227712 99.95 215.197712 120.89 215.197712 120.89zM131.557712 134.06C131.557712 134.06 96.1977116 139.29 102.457712 77.44 102.457712 77.44 154.527712 90.77 144.207712 126.35 144.207712 126.35 127.147712 110.17 125.107712 112.49 123.067712 114.81 131.557712 134.06 131.557712 134.06zM109.627712 225.73C109.627712 225.73 74.2777116 230.93 80.5377116 169.1 80.5377116 169.1 132.607712 182.43 122.287712 218.01 122.287712 218.01 105.227712 201.83 103.187712 204.15 101.147712 206.47 109.627712 225.73 109.627712 225.73zM72.2077116 253.57C72.2077116 253.57 41.7177116 272.18 23.2977116 212.83 23.2977116 212.83 76.4277116 204.73 80.8477116 241.52 80.8477116 241.52 58.8477116 233.3 57.8477116 236.23 56.8477116 239.16 72.2077116 253.57 72.2077116 253.57zM358.657712 225.09C358.657712 225.09 331.147712 202.28 381.307712 165.6 381.307712 165.6 406.207712 213.22 372.857712 229.34 372.857712 229.34 373.477712 205.83 370.387712 205.87 367.297712 205.91 358.657712 225.09 358.657712 225.09z"/>
      <path fill="#6F5D5E" fill-rule="nonzero" d="M163.557712,563.79 C163.557712,563.79 229.057712,561.03 235.957712,432.79 C242.857712,304.55 174.587712,282.79 174.587712,282.79 C174.587712,282.79 152.957712,270.71 143.367712,270.21 C133.777712,269.71 101.727712,272.73 101.727712,272.73 L137.067712,265.92 C137.067712,265.92 87.3477116,246.99 72.4577116,245.47 L126.207712,256.83 C126.207712,256.83 126.967712,227.05 114.097712,217.21 C114.097712,217.21 125.097712,216.39 130.917712,237.84 C134.2731,250.389152 143.376852,260.605833 155.457712,265.38 C175.397712,273.16 202.957712,285.43 209.237712,295.95 C209.237712,295.95 220.847712,308.06 219.087712,276.52 C217.327712,244.98 208.987712,217.96 205.957712,217.2 C205.957712,217.2 182.237712,191.97 148.957712,190.46 C148.957712,190.46 168.387712,182.63 201.197712,207.11 C201.197712,207.11 203.967712,194.75 191.607712,180.11 C179.247712,165.47 160.057712,134.68 139.107712,131.4 C139.107712,131.4 168.387712,129.63 191.607712,167.49 C191.607712,167.49 200.187712,173.04 200.947712,158.91 C201.707712,144.78 206.747712,127.11 206.747712,127.11 C206.747712,127.11 213.817712,159.67 198.927712,174.3 C198.927712,174.3 227.437712,211.4 226.177712,253.05 C226.177712,253.05 235.017712,271.97 238.297712,249.76 C238.297712,249.76 240.197712,219.18 243.987712,193.23 C247.092628,172.095839 241.255271,150.623353 227.877712,133.97 C221.567712,126.12 217.177712,118.49 219.617712,114.49 L252.677712,153.86 C252.677712,153.86 280.437712,89.51 300.677712,75.63 C320.917712,61.75 323.397712,58.72 323.397712,58.72 L290.837712,96.83 L331.727712,82.44 L290.717712,101.39 C290.717712,101.39 271.787712,116.78 260.937712,158.93 C250.087712,201.08 249.077712,227.29 249.077712,227.29 C249.077712,227.29 307.377712,181.11 318.477712,182.62 L280.747712,211.19 C259.989434,226.893042 247.054991,250.821397 245.287712,276.79 L245.287712,276.79 C245.287712,276.79 318.227712,258.11 335.897712,254.58 L369.207712,220.51 L343.967712,252.81 L395.967712,252.06 L425.747712,230.86 C425.747712,230.86 402.277712,250.54 404.547712,251.8 C406.817712,253.06 441.147712,254.58 441.147712,254.58 C441.147712,254.58 353.817712,254.07 344.227712,260.38 C334.637712,266.69 313.227712,268.96 313.227712,268.96 L375.057712,278.3 L301.367712,273 C301.367712,273 245.557712,283.1 242.557712,300.51 C242.557712,300.51 253.917712,330.15 261.487712,341.9 C267.767712,351.67 280.407712,383.29 282.937712,411.05 C285.467712,438.81 288.937712,481.46 279.397712,507.46 C269.857712,533.46 266.277712,548.34 271.077712,556.17 C275.877712,564 280.407712,574.09 264.767712,576.1 C249.127712,578.11 180.467712,575.1 180.467712,575.1 C180.467712,575.1 159.477712,579.23 163.557712,563.79 Z"/>
      <path fill="#000" fill-rule="nonzero" d="M200.207712 550.02C207.072888 546.546364 214.936037 545.580715 222.437712 547.29 235.297712 550.07 254.977712 548.59 256.777712 548.29M241.317712 398.89C241.317712 398.89 244.447712 448.22 238.887712 457.95L241.317712 398.89zM252.857712 457.95C252.857712 457.95 248.857712 504.16 246.077712 513.19 243.297712 522.22 252.857712 457.95 252.857712 457.95zM256.777712 344.35C259.607712 345.35 271.777712 370.06 269.337712 377.35 266.897712 384.64 256.777712 344.35 256.777712 344.35zM225.937712 318.74C227.257712 319.34 232.937712 333.55 231.787712 337.74 230.637712 341.93 225.937712 318.74 225.937712 318.74zM278.557712 401.59C277.157712 415.91 276.397712 425.29 277.287712 436.76 278.041724 445.667442 277.91444 454.62757 276.907712 463.51M126.337712 234.78C127.929504 236.860503 128.76538 239.421036 128.707712 242.04 128.787712 244.64 128.457712 247.24 128.627712 249.83 128.797712 252.42 130.097712 255.76 132.807712 256.13M172.937712 149.37C176.390446 152.803897 179.455497 156.606707 182.077712 160.71 182.837294 162.00965 183.703611 163.243901 184.667712 164.4 186.22712 165.892471 187.898688 167.263157 189.667712 168.5 193.612239 171.703662 196.417879 176.094489 197.667712 181.02M304.867712 75.63C304.035398 77.2430789 302.940441 78.7064007 301.627712 79.96 300.487712 81.05 299.177712 81.96 298.147712 83.16 297.319536 84.1988967 296.570753 85.2986716 295.907712 86.45 293.129869 90.6528113 290.00209 94.6135491 286.557712 98.29M243.767712 148.64C245.947712 150 246.517712 152.91 246.467712 155.47 246.417712 158.03 245.977712 160.7 246.937712 163.08 247.367712 164.17 248.067712 165.08 248.527712 166.2 249.185176 168.103442 249.43724 170.123358 249.267712 172.13 249.267712 174.45 249.201045 176.783333 249.067712 179.13 248.947712 181.92 248.677712 184.96 246.777712 187.01" opacity=".1"/>
      <path d="M262.057712,221.04 C260.022364,222.114891 258.119481,223.423753 256.387712,224.94 C254.648286,226.472305 253.487014,228.55483 253.097712,230.84 C252.977712,231.84 253.037712,232.84 252.827712,233.77 C252.445181,235.079622 251.783318,236.290763 250.887712,237.32 C249.422707,239.195183 247.825287,240.963038 246.107712,242.61"/>
      <path fill="#000" fill-rule="nonzero" d="M245.557712 286.94C246.991194 285.761038 248.515981 284.6977 250.117712 283.76 251.585699 282.867187 253.166334 282.174399 254.817712 281.7 257.327712 281.03 259.977712 281.13 262.567712 280.86 265.157712 280.59 267.867712 279.86 269.637712 277.96M348.187712 255.05C345.117712 255.14 341.927712 255.25 339.187712 256.65 337.797712 257.37 336.587712 258.4 335.187712 259.16 333.414564 260.140131 331.423692 260.659339 329.397712 260.67M305.617712 267.72C306.37738 267.314757 307.319867 267.537526 307.817712 268.24 308.367712 268.86 308.667712 269.68 309.237712 270.29 310.357712 271.51 312.237712 271.64 313.837712 271.7M288.057712 202.5L285.057712 204.04C281.991285 205.521679 279.077371 207.300171 276.357712 209.35M254.337712 231.35C252.397712 230.89 250.727712 232.96 250.337712 234.92 249.947712 236.88 250.397712 238.92 249.837712 240.87 249.233228 242.536597 248.234883 244.032399 246.927712 245.23M221.557712 234.95C219.787712 240.22 223.557712 245.95 222.437712 251.42 222.107712 253.08 221.337712 254.63 220.947712 256.27 219.947712 260.61 221.677712 265.22 224.517712 268.66" opacity=".1"/>
    </g>
    <ellipse cx="564.78" cy="593.57" fill="#FFDED1" fill-opacity=".8" fill-rule="nonzero" opacity=".1" rx="22.99" ry="2.57"/>
    <path fill="#444" fill-rule="nonzero" d="M166.29,305.386243 C165.682247,306.664924 165.216143,308.006229 164.9,309.386243 C164.56,311.236243 164.77,313.176243 164.23,314.966243 C163.44,317.576243 161.23,319.456243 159.48,321.526243 C155.816168,325.848308 153.84111,331.350762 153.92,337.016243 C153.97,340.286243 154.71,343.566243 154.28,346.806243 C153.93,349.356243 152.87,351.746243 152.28,354.246243 C151.781549,356.612647 151.556741,359.0285 151.61,361.446243 C151.63364,369.717074 153.126853,377.917896 156.02,385.666243 C156.134384,386.051015 156.352322,386.396947 156.65,386.666243 C156.990443,386.889985 157.3834,387.020971 157.79,387.046243 L164.97,388.046243 C165.635702,388.219198 166.340261,388.162833 166.97,387.886243 C167.459866,387.527792 167.829473,387.029171 168.03,386.456243 C173.31,374.776243 174.21,361.626243 174.14,348.806243 C174.07,335.986243 173.14,323.096243 174.93,310.416243 C175.51,306.416243 176.37,302.416243 176.64,298.416243 C176.81,295.806243 175.73,289.826243 172.01,292.906243 C169.17,295.326243 167.73,302.036243 166.29,305.386243 Z"/>
    <path fill="#000" fill-rule="nonzero" d="M174.8,292.356243 C174.911529,293.090631 174.948383,293.834428 174.91,294.576243 C174.64,298.626243 173.78,302.576243 173.2,306.576243 C171.36,319.256243 172.33,332.146243 172.41,344.966243 C172.49,357.786243 171.58,370.966243 166.3,382.606243 C166.099473,383.179171 165.729866,383.677792 165.24,384.036243 C164.61141,384.316168 163.906818,384.376058 163.24,384.206243 L156.05,383.206243 C155.643715,383.187267 155.24999,383.05948 154.91,382.836243 L154.8,382.716243 C155.1,383.636243 155.41,384.546243 155.75,385.456243 C155.871782,385.837617 156.08858,386.181742 156.38,386.456243 C156.71999,386.67948 157.113715,386.807267 157.52,386.826243 L164.71,387.826243 C165.375771,387.998413 166.080069,387.942069 166.71,387.666243 C167.17928,387.296522 167.527485,386.795107 167.71,386.226243 C172.99,374.556243 173.9,361.396243 173.82,348.586243 C173.74,335.776243 172.82,322.876243 174.61,310.196243 C175.2,306.196243 176.05,302.196243 176.32,298.196243 C176.48,296.576243 176.08,293.536243 174.8,292.356243 Z" opacity=".1"/>
    <path fill="#FEDCB4" fill-rule="nonzero" d="M162.52 362.266243C163.776967 364.594936 165.152093 366.857886 166.64 369.046243L145.89 360.506243C145.89 360.506243 125.63 345.616243 130.27 344.886243 131.36 344.706243 132.93 342.886243 134.68 340.266243 138.066822 334.820175 141.119128 329.173074 143.82 323.356243 146.31 318.186243 148.09 314.126243 148.09 314.126243L166.64 322.676243C164.760379 325.677833 163.051015 328.782733 161.52 331.976243 159.742747 335.551561 158.351558 339.306093 157.37 343.176243 156.08 348.726243 159.48 356.646243 162.52 362.266243zM121.48 482.176243C121.48 482.176243 118.92 491.696243 118.92 493.896243 118.92 496.096243 117.45 500.896243 117.45 500.896243 117.45 500.896243 110.88 515.546243 110.78 526.156243L105.37 540.626243 99.51 551.056243C99.51 551.056243 82.85 571.386243 79.92 591.156243L68.57 624.806243 89.07 626.086243C87.5442359 621.277369 88.4303211 616.027873 91.45 611.986243 96.58 604.986243 105.19 588.916243 105.19 588.916243L113.24 572.446243C113.24 572.446243 117.64 562.926243 121.48 561.086243 125.32 559.246243 131.73 552.306243 133.93 546.626243L154.44 500.266243 164.17 476.866243 121.48 482.176243z"/>
    <path fill="#000" fill-rule="nonzero" d="M164.17,476.866243 L154.44,500.266243 L133.93,546.586243 C131.73,552.266243 125.33,559.216243 121.48,561.046243 C117.63,562.876243 113.24,572.406243 113.24,572.406243 L105.17,588.916243 C105.17,588.916243 96.56,605.036243 91.43,611.986243 C89.7272381,614.296153 88.6897004,617.028336 88.43,619.886243 C88.2133059,621.976326 88.4381629,624.088618 89.09,626.086243 L68.59,624.806243 L70.07,620.426243 L79.94,591.116243 C82.87,571.346243 99.53,551.016243 99.53,551.016243 L105.39,540.586243 L110.8,526.116243 C110.9,515.506243 117.47,500.856243 117.47,500.856243 C117.47,500.856243 118.94,496.096243 118.94,493.856243 C118.94,491.616243 121.5,482.136243 121.5,482.136243 L164.17,476.866243 Z" opacity=".03"/>
    <path fill="#000" fill-rule="nonzero" d="M89.07,626.086243 L68.57,624.806243 L70.05,620.426243 C71.73,623.146243 83.58,623.336243 83.58,623.336243 C85.0432885,621.993584 86.6653364,620.834978 88.41,619.886243 C88.1933059,621.976326 88.4181629,624.088618 89.07,626.086243 Z" opacity=".1"/>
    <path fill="#AEAEAE" fill-rule="nonzero" d="M111.17,657.566243 L97.42,658.306243 C97.42,658.306243 87.28,656.666243 83.62,654.646243 C79.96,652.626243 72.62,651.716243 65.68,650.076243 C58.74,648.436243 58.54,645.676243 58.54,645.676243 C58.2025592,643.920445 58.1856196,642.118075 58.49,640.356243 C58.49,640.236243 58.49,640.116243 58.54,640.006243 C59.09,636.336243 64.03,630.296243 64.03,630.296243 C64.03,630.296243 64.4,626.296243 65.31,626.086243 C66.22,625.876243 66.96,620.226243 67.31,619.086243 C67.66,617.946243 69.92,620.816243 69.92,620.816243 C70.92,623.816243 83.6,624.036243 83.6,624.036243 C85.2851598,622.469807 87.2008046,621.17135 89.28,620.186243 C92.02,619.086243 90.93,630.436243 90.93,630.436243 C90.5345483,635.480792 93.0445232,640.310651 97.4,642.886243 C98.93,646.556243 104.11,645.816243 104.11,645.816243 L104.88,646.036243 L114.36,648.566243 C114.408185,648.604437 114.451806,648.648058 114.49,648.696243 C115.981527,650.119877 116.480173,652.295898 115.757388,654.226951 C115.034604,656.158005 113.229726,657.471828 111.17,657.566243 Z"/>
    <path fill="#E8F5FF" fill-rule="nonzero" d="M111.17,657.566243 L97.42,658.306243 C97.42,658.306243 87.28,656.666243 83.62,654.646243 C79.96,652.626243 72.62,651.716243 65.68,650.076243 C58.74,648.436243 58.54,645.676243 58.54,645.676243 C58.54,645.676243 58.49,645.476243 58.43,645.096243 C58.37,644.716243 58.36,644.576243 58.33,644.226243 C58.2513622,642.934161 58.3049741,641.637425 58.49,640.356243 L73.37,645.496243 C73.37,645.496243 84.37,649.156243 88.56,649.886243 C88.56,649.886243 103.4,650.986243 104.86,650.986243 C105.93,650.986243 105.86,648.346243 104.86,646.076243 L114.34,648.606243 C114.388185,648.644437 114.431806,648.688058 114.47,648.736243 C115.93219,650.161078 116.414651,652.315134 115.699932,654.227549 C114.985213,656.139963 113.208272,657.449622 111.17,657.566243 L111.17,657.566243 Z"/>
    <circle cx="79.14" cy="644.166" r="1" fill="#E8F5FF" fill-rule="nonzero"/>
    <circle cx="82.89" cy="627.366" r="1" fill="#E8F5FF" fill-rule="nonzero"/>
    <circle cx="84.45" cy="631.766" r="1" fill="#E8F5FF" fill-rule="nonzero"/>
    <circle cx="86.44" cy="635.976" r="1" fill="#E8F5FF" fill-rule="nonzero"/>
    <circle cx="89.14" cy="639.866" r="1" fill="#E8F5FF" fill-rule="nonzero"/>
    <circle cx="92.17" cy="642.926" r="1" fill="#E8F5FF" fill-rule="nonzero"/>
    <circle cx="95.78" cy="645.906" r="1" fill="#E8F5FF" fill-rule="nonzero"/>
    <circle cx="100.04" cy="648.196" r="1" fill="#E8F5FF" fill-rule="nonzero"/>
    <circle cx="83.58" cy="645.496" r="1" fill="#E8F5FF" fill-rule="nonzero"/>
    <path fill="#AEAEAE" fill-rule="nonzero" d="M97.5,655.976243 L97.36,655.976243 C93.11,655.976243 86.01,653.806243 84.31,653.106243 C82.8,652.486243 73.43,650.226243 73.31,650.196243 C73.19,650.166243 66.17,648.036243 63.87,647.406243 C61.9787846,646.773432 60.1370731,646.001317 58.36,645.096243 C58.36,644.866243 58.29,644.576243 58.26,644.226243 C60.1305848,645.189761 62.0690805,646.015293 64.06,646.696243 C66.37,647.336243 73.42,649.466243 73.5,649.496243 C73.86,649.576243 82.99,651.796243 84.56,652.436243 C86.13,653.076243 93.27,655.266243 97.37,655.266243 L97.49,655.266243 L97.5,655.976243 Z"/>
    <polygon fill="#000" fill-rule="nonzero" points="146.75 476.366 146.59 477.076 144.26 487.646 142.72 494.626 130.94 491.116 120.04 487.856 120.04 479.986" opacity=".1"/>
    <polygon fill="#E8F4FF" fill-rule="nonzero" points="146.75 475.636 146.59 476.346 144.26 486.916 142.72 493.896 130.94 490.386 120.04 487.126 120.04 479.246"/>
    <polygon fill="#000" fill-rule="nonzero" points="146.75 475.636 146.59 476.346 144.26 486.916 142.72 493.896 130.94 490.386 120.04 487.126 120.04 479.246" opacity=".03"/>
    <path fill="#000" fill-rule="nonzero" d="M166.64,322.656243 C164.760379,325.657833 163.051015,328.762733 161.52,331.956277 L161.27,331.956277 C154.423478,331.968179 147.966084,328.774637 143.82,323.326243 C146.31,318.156243 148.09,314.096243 148.09,314.096243 L166.64,322.656243 Z" opacity=".1"/>
    <circle cx="161.27" cy="308.526" r="21.97" fill="#FEDCB4" fill-rule="nonzero"/>
    <path fill="#FEDCB4" fill-rule="nonzero" d="M169.63 407.476243L185.01 416.816243 208.63 431.096243C208.63 431.096243 221.63 439.156243 227.85 438.096243 234.07 437.036243 256.78 444.686243 244.15 450.546243 231.52 456.406243 217.05 447.796243 217.05 447.796243 217.05 447.796243 209.91 443.226243 207.17 443.226243 204.43 443.226243 169.63 426.556243 169.63 426.556243L169.63 407.476243zM225.29 623.706243L225.29 633.706243 210.46 636.706243 208.32 633.376243 196.73 615.376243 190.41 604.666243C177.96 589.926243 177.41 571.346243 177.41 571.346243L177.41 563.926243C177.41 563.926243 174.11 558.346243 174.11 556.326243 173.870951 554.812399 173.311854 553.366928 172.47 552.086243 171.89 551.086243 171.38 550.006243 170.9 548.936243 169.21 545.176243 163.67 537.746243 163.67 537.746243 159.27 534.086243 150.76 512.116243 150.76 512.116243 150.66 509.446243 147.85 505.596243 145.47 502.796243 143.69 500.706243 142.16 499.206243 142.16 499.206243L170.99 490.146243 180.61 490.966243 180.92 491.916243 191.41 523.836243 198.73 544.426243C201.48 548.176243 201.11 556.796243 200.38 558.526243 200.141884 559.595571 200.074383 560.695828 200.18 561.786243 200.362996 565.946485 201.30869 570.037716 202.97 573.856243 206.63 582.406243 212.7 600.576243 212.56 602.656243 212.45 604.086243 213.47 606.656243 214.38 608.706243 215.05 610.186243 215.68 611.706243 216.21 613.226243 217.72 617.596243 221.5 620.946243 223.68 622.586243 224.65 623.266243 225.29 623.706243 225.29 623.706243z"/>
    <path fill="#000" fill-rule="nonzero" d="M180.93,491.916243 C177.646187,493.569387 174.044067,494.493795 170.37,494.626243 C166.37,494.626243 153.02,499.756243 145.48,502.796243 C143.7,500.706243 142.17,499.206243 142.17,499.206243 L171,490.146243 L180.62,490.966243 L180.93,491.916243 Z" opacity=".1"/>
    <path fill="#E8F4FF" fill-rule="nonzero" d="M180.62,490.966243 C177.214779,492.743459 173.458083,493.744107 169.62,493.896243 C163.95,493.896243 139.41,504.236243 139.41,504.236243 L136.41,499.386243 L130.89,490.386243 L127.79,485.306243 L125.09,480.896243 C125.09,480.896243 135.38,478.406243 146.54,476.346243 C159.79,473.886243 174.26,472.026243 174.16,475.636243 C174.167025,477.431605 174.488553,479.211852 175.11,480.896243 C175.88124,483.057078 176.862606,485.13704 178.04,487.106243 C178.831201,488.437588 179.692409,489.726062 180.62,490.966243 Z"/>
    <path fill="#FFF" fill-rule="nonzero" d="M180.62,490.966243 C177.214779,492.743459 173.458083,493.744107 169.62,493.896243 C163.95,493.896243 139.41,504.236243 139.41,504.236243 L136.41,499.386243 L164.82,486.386243 C169.211791,486.847948 173.624043,487.088253 178.04,487.106243 C178.831201,488.437588 179.692409,489.726062 180.62,490.966243 L180.62,490.966243 Z" opacity=".5"/>
    <path fill="#000" fill-rule="nonzero" d="M225.29,623.706243 L225.29,633.706243 L210.46,636.706243 L208.32,633.376243 C209.431859,633.549837 210.554744,633.643411 211.68,633.656243 C215.68,633.716243 220.84,628.526243 220.84,628.526243 C221.62,628.126243 222.16,626.446243 222.52,624.526243 C222.660725,623.755906 223.076514,623.062925 223.69,622.576243 C224.65,623.266243 225.29,623.706243 225.29,623.706243 Z" opacity=".1"/>
    <path fill="#AEAEAE" fill-rule="nonzero" d="M268.56,634.876243 C268.87,640.246243 254.83,648.186243 254.83,648.186243 C254.83,648.186243 242.38,653.546243 239.94,654.096243 C237.5,654.646243 221.57,660.016243 221.57,660.016243 C214.31,660.746243 214.73,654.466243 214.73,654.466243 C214.73,654.466243 211.73,646.836243 211.73,645.986243 C211.454386,644.493516 211.070029,643.022931 210.58,641.586243 L206.91,633.536243 C206.91,633.536243 208.44,634.326243 212.41,634.386243 C216.38,634.446243 221.57,629.266243 221.57,629.266243 C222.35,628.866243 222.89,627.186243 223.26,625.266243 C223.485219,624.080595 224.341516,623.113425 225.491142,622.746212 C226.640768,622.378999 227.899171,622.670694 228.77,623.506243 C230.44,625.116243 232.37,626.896243 234.26,628.426243 C239.26,632.476243 248.12,631.336243 248.12,631.336243 C250.273768,631.895903 252.552198,631.727131 254.6,630.856243 C254.787031,630.767769 254.964606,630.660554 255.13,630.536243 C257.827705,629.594418 260.605965,628.901527 263.43,628.466243 C266.67,628.156243 268.26,629.506243 268.56,634.876243 Z"/>
    <path fill="#E8F5FF" fill-rule="nonzero" d="M268.56,634.876243 C268.87,640.246243 254.83,648.186243 254.83,648.186243 C254.83,648.186243 242.38,653.546243 239.94,654.096243 C237.5,654.646243 221.57,660.016243 221.57,660.016243 C219.07,660.266243 217.48,659.686243 216.47,658.816243 C216.193426,658.585694 215.948032,658.32013 215.74,658.026243 C215.047565,656.971075 214.698284,655.727634 214.74,654.466243 C217.445859,654.157178 220.121604,653.625374 222.74,652.876243 C222.74,652.876243 243.92,647.016243 246.74,644.766243 C246.74,644.766243 256.94,640.186243 257.48,637.986243 C257.48,637.986243 254.48,633.566243 254.57,630.856243 C254.757031,630.767769 254.934606,630.660554 255.1,630.536243 C257.797705,629.594418 260.575965,628.901527 263.4,628.466243 C266.67,628.156243 268.26,629.506243 268.56,634.876243 Z"/>
    <path fill="#AEAEAE" fill-rule="nonzero" d="M253.72,646.686243 C251.8,649.256243 241.16,652.326243 239.89,652.566243 C238.62,652.806243 230.79,655.396243 230.72,655.426243 L223.08,657.746243 C221.314037,658.532562 219.391875,658.905365 217.46,658.836243 L216.46,658.836243 C216.183426,658.605694 215.938032,658.34013 215.73,658.046243 C217.48,658.186243 220.62,658.216243 222.79,657.046243 L230.48,654.696243 C230.8,654.586243 238.48,652.066243 239.74,651.816243 C241.36,651.506243 251.46,648.446243 253.13,646.216243 L253.72,646.686243 Z"/>
    <path fill="#000" fill-rule="nonzero" d="M175.17 480.896243C175.04587 480.97737 174.91131 481.041285 174.77 481.086243 170.77 482.366243 155.77 482.726243 155.77 482.726243 152.09669 484.492896 148.258116 485.893005 144.31 486.906243 140.71 487.756243 137.18 487.956243 135.31 486.386243 133.8 485.156243 131.04 484.966243 127.94 485.306243 125.305519 485.62535 122.700623 486.153685 120.15 486.886243L120.15 479.266243 146.85 475.656243 146.69 476.366243C159.94 473.906243 174.41 472.046243 174.31 475.656243 174.290487 477.439576 174.581496 479.2127 175.17 480.896243L175.17 480.896243zM166.64 369.026243L145.89 360.486243C145.89 360.486243 125.63 345.596243 130.27 344.866243 131.36 344.686243 132.93 342.866243 134.68 340.246243 140.280725 341.880225 145.304433 345.066414 149.17 349.436243 153.29 354.026243 160.17 360.196243 162.53 362.246243 163.783713 364.574722 165.155498 366.837668 166.64 369.026243z" opacity=".1"/>
    <path fill="#33CCAB" fill-rule="nonzero" d="M175.67,466.616243 C175.67,466.616243 178.79,478.336243 174.76,479.616243 C170.73,480.896243 155.76,481.266243 155.76,481.266243 C155.76,481.266243 140.17,488.956243 135.17,484.926243 C131.67,482.076243 121.52,484.816243 115.89,486.666243 C113.56,487.426243 112.01,488.036243 112.01,488.036243 C112.01,488.036243 107.89,467.716243 114.48,456.036243 C121.07,444.356243 112.48,415.946243 112.1,413.196243 C112,412.436243 111.99,409.726243 112.04,406.136243 C112.2,396.766243 112.87,381.436243 113.93,379.326243 C115.062471,376.783371 115.982284,374.151031 116.68,371.456243 C116.68,371.456243 117.6,364.126243 119.06,363.026243 C120.52,361.926243 121.06,358.456243 121.06,358.456243 C121.06,358.456243 122.9,350.766243 124.73,348.746243 C126.56,346.726243 127.29,340.506243 127.29,340.506243 C129.391007,340.058316 131.570787,340.144269 133.63,340.756243 C139.642902,342.253734 145.060937,345.538026 149.17,350.176243 C154.17,355.746243 163.32,363.666243 163.32,363.666243 L174.95,376.356243 C182.64,387.886243 178.43,404.546243 174.4,412.606243 C172.4,416.706243 172.63,424.606243 173.4,431.436243 C174.252877,438.810187 174.517045,446.24035 174.19,453.656243 C173.7,463.316243 175.67,466.616243 175.67,466.616243 Z"/>
    <path fill="#000" fill-rule="nonzero" d="M143.45,371.416243 L141.45,383.416243 L141.45,383.476243 C141.45,383.476243 128.26,412.036243 126.07,415.556243 C123.88,419.076243 121.67,427.966243 121.67,427.966243 C121.67,427.966243 120.94,443.896243 119.48,446.966243 C118.02,450.036243 116.36,469.306243 116.36,469.306243 L115.45,482.116243 C115.717581,483.599689 115.881312,485.100001 115.94,486.606243 C113.61,487.366243 112.06,487.976243 112.06,487.976243 C112.06,487.976243 107.94,467.656243 114.53,455.976243 C121.12,444.296243 112.53,415.886243 112.15,413.136243 C112.05,412.376243 112.04,409.666243 112.09,406.076243 L114.72,396.076243 L118.01,379.596243 L119.26,377.326243 L123.5,369.526243 L137.6,364.956243 L143.45,371.416243 Z" opacity=".1"/>
    <path fill="#FEDCB4" fill-rule="nonzero" d="M142.72,369.946243 L140.72,381.946243 L140.72,381.946243 C140.72,381.946243 127.54,410.516243 125.35,414.026243 C123.16,417.536243 120.95,426.436243 120.95,426.436243 C120.95,426.436243 120.22,442.366243 118.75,445.436243 C117.28,448.506243 115.64,467.766243 115.64,467.766243 L114.73,480.586243 C114.73,480.586243 118.73,500.586243 104.66,503.836243 C90.59,507.086243 101.17,479.436243 102.07,477.266243 C102.97,475.096243 103.54,456.946243 103.54,454.926243 C103.54,452.906243 106.28,423.626243 107.02,421.786243 C107.772678,419.272499 108.383639,416.71848 108.85,414.136243 L113.97,394.696243 L117.27,378.216243 L118.51,375.936243 L122.76,368.146243 L136.86,363.566243 L142.72,369.946243 Z"/>
    <path fill="#000" fill-rule="nonzero" d="M142.72,369.946243 L140.72,381.946243 C140.35,361.266243 117.28,379.616243 117.28,379.616243 C117.28,379.616243 117.78,378.136243 118.52,375.876243 L122.77,368.086243 L136.87,363.506243 L142.72,369.946243 Z" opacity=".1"/>
    <path fill="#33CCAB" fill-rule="nonzero" d="M135.58,345.046243 C135.58,345.046243 125.69,349.436243 124.23,355.666243 C122.77,361.896243 117.23,378.186243 117.23,378.186243 C117.23,378.186243 141.4,358.966243 140.66,382.026243 C142.566562,379.78423 143.665256,376.967066 143.78,374.026243 C144.14,368.716243 149.27,357.366243 144.97,352.606243 C142.243515,349.622487 139.076943,347.073042 135.58,345.046243 Z"/>
    <path fill="#000" fill-rule="nonzero" d="M185.86,299.886243 C189.86,294.126243 188.09,285.206243 182.2,281.396243 C179.42,279.596243 176.07,278.916243 173.1,277.446243 C169.82,275.836243 167.1,273.306243 163.87,271.556243 C155.98,267.256243 145.78,268.296243 138.28,273.236243 C130.78,278.176243 125.94,286.586243 124.28,295.406243 C123.15,301.406243 123.37,307.806243 121.17,313.546243 C116.73,325.176243 103.52,331.686243 99.12,343.326243 C97.12,348.586243 97.17,354.326243 96.99,359.996243 C96.1557333,384.496319 90.5440022,408.597549 80.47,430.946243 C78.75,434.756243 76.54,438.836243 72.61,440.256243 C79.22,441.706243 86.25,439.936243 92.03,436.426243 C97.81,432.916243 102.45,427.796243 106.38,422.296243 C118.13264,405.754297 123.989083,385.744493 123.01,365.476243 C122.78,361.006243 122.34,356.096243 125.01,352.476243 C127.68,348.856243 132.37,347.876243 135.94,345.326243 C144.52,339.186243 144.33,326.716243 147.49,316.646243 C147.950508,314.843513 148.846764,313.18149 150.1,311.806243 C159.58,302.656243 177.89,310.346243 185.86,299.886243 Z" opacity=".1"/>
    <path fill="#444" fill-rule="nonzero" d="M185.17,299.156243 C189.17,293.396243 187.39,284.476243 181.51,280.666243 C178.73,278.866243 175.38,278.176243 172.4,276.716243 C169.13,275.096243 166.4,272.566243 163.18,270.826243 C155.29,266.526243 145.09,267.566243 137.59,272.506243 C130.09,277.446243 125.25,285.846243 123.59,294.676243 C122.45,300.676243 122.67,307.066243 120.48,312.816243 C116.04,324.436243 102.83,330.946243 98.48,342.596243 C96.48,347.856243 96.48,353.596243 96.34,359.256243 C95.516827,383.77386 89.9047473,407.893573 79.82,430.256243 C78.1,434.066243 75.9,438.146243 71.97,439.566243 C78.57,441.016243 85.61,439.246243 91.39,435.736243 C97.17,432.226243 101.81,427.106243 105.74,421.606243 C117.486988,405.061559 123.342846,385.053752 122.37,364.786243 C122.14,360.316243 121.7,355.396243 124.37,351.786243 C127.04,348.176243 131.73,347.186243 135.3,344.636243 C143.88,338.496243 143.69,326.016243 146.85,315.956243 C147.302559,314.152522 148.195962,312.489418 149.45,311.116243 C158.85,301.926243 177.17,309.616243 185.17,299.156243 Z"/>
    <circle cx="223.34" cy="632.856" r="1" fill="#E8F5FF" fill-rule="nonzero"/>
    <circle cx="227.49" cy="635.366" r="1" fill="#E8F5FF" fill-rule="nonzero"/>
    <circle cx="231.95" cy="637.106" r="1" fill="#E8F5FF" fill-rule="nonzero"/>
    <circle cx="236.65" cy="637.966" r="1" fill="#E8F5FF" fill-rule="nonzero"/>
    <circle cx="241.29" cy="638.516" r="1" fill="#E8F5FF" fill-rule="nonzero"/>
    <circle cx="246.11" cy="638.516" r="1" fill="#E8F5FF" fill-rule="nonzero"/>
    <circle cx="250.99" cy="637.966" r="1" fill="#E8F5FF" fill-rule="nonzero"/>
    <path fill="#000" fill-rule="nonzero" d="M154.81 466.186243C154.81 466.186243 169.38 464.686243 172.26 464.966243 175.14 465.246243 154.81 466.186243 154.81 466.186243zM158.54 469.856243C158.54 469.856243 167.37 468.636243 170.79 469.856243 174.21 471.076243 158.54 469.856243 158.54 469.856243zM159.81 473.616243C159.81 473.616243 170.62 474.616243 172.54 474.056243M152.88 399.786243C152.88 399.786243 163.88 404.676243 164.88 407.476243 165.88 410.276243 172.51 411.996243 172.51 411.996243" opacity=".1"/>
  </g>
</svg>
