<svg xmlns="http://www.w3.org/2000/svg" width="974" height="424" viewBox="0 0 974 424">
  <g fill="none" transform="translate(0 .181)">
    <path fill="#FFE7DE" d="M974,422.82566 C974,389.506737 554.517422,374.562172 487.003328,375.818812 C419.489235,377.075452 0,387.763312 0,422.82566 C0,423.32566 974,422.82566 974,422.82566 Z"/>
    <path fill="#2F2E41" d="M513.5,158.763312 C513.5,158.763312 513.5,152.763312 526.5,155.763312 C539.5,158.763312 579.5,166.763312 582.5,165.763312 C585.5,164.763312 584.5,171.763312 571.5,174.763312 C558.5,177.763312 543.5,170.763312 540.5,168.763312 C537.5,166.763312 513.5,158.763312 513.5,158.763312 Z" transform="rotate(-11 548.703 165.212)"/>
    <path fill="#2F2E41" d="M467.5,152.763312 L462.5,264.763312 C462.5,264.763312 475.5,370.763312 472.5,373.763312 C469.5,376.763312 461.5,382.763312 467.5,389.763312 C473.5,396.763312 495.5,401.763312 496.5,397.763312 C497.5,393.763312 499.5,279.763312 499.5,279.763312 L506.5,144.763312 L467.5,152.763312 Z"/>
    <path fill="#000" d="M467.5,152.763312 L462.5,264.763312 C462.5,264.763312 475.5,370.763312 472.5,373.763312 C469.5,376.763312 461.5,382.763312 467.5,389.763312 C473.5,396.763312 495.5,401.763312 496.5,397.763312 C497.5,393.763312 499.5,279.763312 499.5,279.763312 L506.5,144.763312 L467.5,152.763312 Z" opacity=".2"/>
    <path fill="#2F2E41" d="M472.5,387.763312 C472.5,387.763312 447.5,406.763312 444.5,406.763312 C441.5,406.763312 414.5,415.763312 433.5,419.763312 C452.5,423.763312 498.5,421.763312 499.5,415.763312 C500.5,409.763312 496.5,391.554652 496.5,391.554652 L472.5,387.763312 Z"/>
    <path fill="#000" d="M472.5,387.763312 C472.5,387.763312 447.5,406.763312 444.5,406.763312 C441.5,406.763312 414.5,415.763312 433.5,419.763312 C452.5,423.763312 498.5,421.763312 499.5,415.763312 C500.5,409.763312 496.5,391.554652 496.5,391.554652 L472.5,387.763312 Z" opacity=".2"/>
    <polygon fill="#2F2E41" points="399.476 193.985 397.524 193.542 402.247 172.764 385.5 172.764 385.5 159.764 387.5 159.764 387.5 170.764 404.753 170.764"/>
    <path fill="#33CCAB" d="M410.5,68.7633118 C410.5,68.7633118 399.5,72.7633118 399.5,75.7633118 C399.5,78.7633118 389.5,116.763312 387.5,118.763312 C385.5,120.763312 384.5,129.763312 384.5,129.763312 C384.5,129.763312 374.5,152.763312 376.5,152.763312 C378.5,152.763312 395.5,148.763312 396.5,152.763312 C397.5,156.763312 405.5,127.763312 405.5,127.763312 L422.5,93.7633118 L410.5,68.7633118 Z"/>
    <path fill="#CF9595" d="M376.5,156.763312 C376.5,156.763312 379.5,178.763312 387.5,180.763312 C395.5,182.763312 387.5,152.763312 387.5,152.763312 L376.5,156.763312 Z"/>
    <path fill="#000" d="M409.5,80.7633118 L432,53.2633118 C432,53.2633118 457.5,45.7633118 468.5,60.7633118 C479.5,75.7633118 509.5,112.763312 519.5,120.763312 C529.5,128.763312 543.5,159.763312 538.5,160.763312 C533.5,161.763312 505.5,149.763312 494.5,157.763312 C483.5,165.763312 462.5,166.763312 461.5,162.763312 C460.5,158.763312 400.5,91.7633118 400.5,82.7633118 C400.5,73.7633118 406.89359,71.8321818 406.89359,71.8321818 L409.5,80.7633118 Z" opacity=".1"/>
    <path fill="#CF9595" d="M400.5,52.452723 C400.5,52.452723 407.25,66.8671457 410.625,74.6287579 C414,82.3903702 445.5,54.6703265 445.5,54.6703265 C445.5,54.6703265 428.625,42.4735072 428.625,36.9294985 C428.625,31.3854897 400.5,52.452723 400.5,52.452723 Z"/>
    <path fill="#3F3D56" d="M98.03916,381.818772 C104.7455,406.609432 127.71624,421.962922 127.71624,421.962922 C127.71624,421.962922 139.81384,397.122792 133.1075,372.332122 C126.40116,347.541452 103.43043,332.187982 103.43043,332.187982 C103.43043,332.187982 91.33282,357.028062 98.03916,381.818772 Z"/>
    <path fill="#F5DD48" d="M107.89366,376.490992 C126.29595,394.404882 128.54366,421.942712 128.54366,421.942712 C128.54366,421.942712 100.95535,420.436372 82.55305,402.522482 C64.15075,384.608592 61.90305,357.070762 61.90305,357.070762 C61.90305,357.070762 89.49136,358.577062 107.89366,376.490992 Z"/>
    <path fill="#2F2E41" d="M336.5 422.763312C286.242088 422.763312 245.5 382.021224 245.5 331.763312 245.5 281.5054 286.242088 240.763312 336.5 240.763312 386.757912 240.763312 427.5 281.5054 427.5 331.763312 427.443326 381.99773 386.734418 422.706637 336.5 422.763312L336.5 422.763312zM336.5 242.763312C287.346657 242.763312 247.5 282.609969 247.5 331.763312 247.5 380.916655 287.346657 420.763312 336.5 420.763312 385.653343 420.763312 425.5 380.916655 425.5 331.763312 425.444582 282.632942 385.63037 242.81873 336.5 242.763312zM616.5 422.763312C566.242088 422.763312 525.5 382.021224 525.5 331.763312 525.5 281.5054 566.242088 240.763312 616.5 240.763312 666.757912 240.763312 707.5 281.5054 707.5 331.763312 707.443326 381.99773 666.734418 422.706637 616.5 422.763312L616.5 422.763312zM616.5 242.763312C567.346657 242.763312 527.5 282.609969 527.5 331.763312 527.5 380.916655 567.346657 420.763312 616.5 420.763312 665.653343 420.763312 705.5 380.916655 705.5 331.763312 705.444753 282.632871 665.63044 242.818559 616.5 242.763312L616.5 242.763312z"/>
    <circle cx="336.5" cy="331.763" r="6" fill="#2F2E41"/>
    <circle cx="618.5" cy="331.763" r="6" fill="#2F2E41"/>
    <polygon fill="#2F2E41" points="345.42 323.156 343.58 322.371 395.845 199.75 544.055 202.774 544.342 203.224 617.342 317.224 615.658 318.303 542.945 204.753 397.155 201.777"/>
    <polygon fill="#2F2E41" points="501.125 345.947 539.538 210.491 541.462 211.036 503.875 343.58 604.374 330.771 604.626 332.756"/>
    <rect width="2" height="147.085" x="442" y="209.721" fill="#2F2E41" transform="rotate(-44.449 443 283.263)"/>
    <rect width="22.804" height="2" x="536.098" y="188.763" fill="#2F2E41" transform="rotate(-74.769 547.5 189.763)"/>
    <rect width="26" height="10" x="451.5" y="337.763" fill="#2F2E41"/>
    <path fill="#2F2E41" d="M502.5,364.763312 C491.454305,364.763312 482.5,355.809007 482.5,344.763312 C482.5,333.717617 491.454305,324.763312 502.5,324.763312 C513.545695,324.763312 522.5,333.717617 522.5,344.763312 C522.487716,355.803914 513.540603,364.751028 502.5,364.763312 L502.5,364.763312 Z M502.5,326.763312 C492.558875,326.763312 484.5,334.822186 484.5,344.763312 C484.5,354.704437 492.558875,362.763312 502.5,362.763312 C512.441125,362.763312 520.5,354.704437 520.5,344.763312 C520.488461,334.82697 512.436342,326.774851 502.5,326.763312 Z"/>
    <ellipse cx="410.5" cy="36.5" fill="#CF9595" rx="27" ry="26.5"/>
    <path fill="#2F2E41" d="M487.5,154.763312 C487.5,154.763312 418.5,194.763312 419.5,207.763312 C420.5,220.763312 472.5,291.763312 472.5,291.763312 C472.5,291.763312 476.5,312.763312 480.5,312.763312 C484.5,312.763312 509.5,321.763312 510.5,315.763312 C511.5,309.763312 502.5,302.763312 503.5,298.763312 C504.5,294.763312 459.5,221.763312 459.5,221.763312 C459.5,221.763312 555.80708,185.763312 535.65354,154.763312 C515.5,123.763312 487.5,154.763312 487.5,154.763312 Z"/>
    <path fill="#33CCAB" d="M411.5,79.7633118 L434,52.2633118 C434,52.2633118 459.5,44.7633118 470.5,59.7633118 C481.5,74.7633118 511.5,111.763312 521.5,119.763312 C531.5,127.763312 545.5,158.763312 540.5,159.763312 C535.5,160.763312 507.5,148.763312 496.5,156.763312 C485.5,164.763312 464.5,165.763312 463.5,161.763312 C462.5,157.763312 402.5,90.7633118 402.5,81.7633118 C402.5,72.7633118 408.89359,70.8321818 408.89359,70.8321818 L411.5,79.7633118 Z"/>
    <path fill="#2F2E41" d="M489.5,308.763312 C489.5,308.763312 477.5,311.763312 475.5,315.763312 C473.5,319.763312 438.5,332.763312 448.5,335.763312 C458.5,338.763312 516.5,339.763312 518.5,337.763312 C520.5,335.763312 518.5,312.550712 510.5,312.657012 C502.5,312.763312 493.5,315.763312 489.5,308.763312 Z"/>
    <rect width="38" height="6" x="372.5" y="153.763" fill="#2F2E41" rx="3" transform="rotate(19.471 391.5 156.763)"/>
    <path fill="#CF9595" d="M355.5,146.763312 C355.5,146.763312 320.5,156.763312 323.5,167.763312 C326.5,178.763312 358.5,154.763312 358.5,154.763312 L355.5,146.763312 Z"/>
    <path fill="#000" d="M448.5,61.7633118 C448.5,61.7633118 434.5,73.7633118 431.5,87.7633118 C428.5,101.763312 413.5,126.763312 413.5,126.763312 L352.5,146.763312 C352.5,146.763312 348.5,165.763312 354.5,165.763312 C360.5,165.763312 427.5,151.763312 429.5,148.763312 C431.5,145.763312 474.5,88.7633118 474.5,88.7633118 C474.5,88.7633118 478.5,57.7633118 448.5,61.7633118 Z" opacity=".1"/>
    <path fill="#000" d="M443.5,63.7633118 C443.5,63.7633118 429.5,75.7633118 426.5,89.7633118 C423.5,103.763312 408.5,128.763312 408.5,128.763312 C417.833333,145.429978 423.166667,152.763312 424.5,150.763312 C426.5,147.763312 469.5,90.7633118 469.5,90.7633118 C469.5,90.7633118 473.5,59.7633118 443.5,63.7633118 Z" opacity=".1"/>
    <path fill="#33CCAB" d="M446.5,59.7633118 C446.5,59.7633118 432.5,71.7633118 429.5,85.7633118 C426.5,99.7633118 411.5,124.763312 411.5,124.763312 L350.5,144.763312 C350.5,144.763312 346.5,163.763312 352.5,163.763312 C358.5,163.763312 425.5,149.763312 427.5,146.763312 C429.5,143.763312 472.5,86.7633118 472.5,86.7633118 C472.5,86.7633118 476.5,55.7633118 446.5,59.7633118 Z"/>
    <path fill="#2F2E41" d="M394.010035 5.56166452C393.352533 6.13395818 392.565152 6.53312795 391.717997 6.72363423 390.832676 6.88307819 389.985996 6.29059765 389.822547 5.39725763 389.332523 6.77137736 388.421471 7.95181302 387.221813 8.76698666 385.948446 9.43745447 383.979425 8.87525817 383.795888 7.43652094 383.609951 8.52891973 383.131547 9.54905627 382.412542 10.3863299 381.632427 11.2199038 380.333476 11.2637674 379.5 10.484682 380.057653 13.5633429 379.713507 16.7294253 379.888582 19.854201 380.063658 22.9789767 380.888516 26.2916941 383.225458 28.3464488 386.633614 31.3430804 391.758652 30.6035021 396.241803 30.0357788 396.91976 29.8920526 397.623209 29.9309254 398.281603 30.1484989 399.960244 30.8709793 399.884093 33.2316196 399.906722 35.0747629 400.189461 41.7527855 405.205176 47.247887 411.771054 48.0730515 413.550507 48.3505234 415.366206 47.9028599 416.819063 46.8284571 418.091941 45.7385186 418.742125 43.9620479 420.200698 43.1432825 422.573279 41.8114238 425.45076 43.7537954 427.185424 45.8627646 428.920087 47.9717337 430.62972 50.56597 433.316957 50.9520313 436.870953 51.4626082 439.577906 47.8036197 440.905974 44.4344299 444.607621 34.8944602 444.338081 24.2485147 440.158511 14.9121871 432.737642-1.42961076 407.387618-4.01437692 394.010035 5.56166452zM802.88867 422.722302L801.11132 421.804302C824.19332 377.180302 811.85058 319.229102 797.43261 278.472302 787.642388 251.077722 775.155138 224.723397 760.15478 199.797492L761.84521 198.729132C776.923441 223.781738 789.475791 250.270184 799.31738 277.804332 813.86816 318.934212 826.29785 377.463512 802.88867 422.722302z"/>
    <rect width="72.18" height="1.999" x="778.413" y="233.77" fill="#2F2E41" transform="rotate(-79.645 814.503 234.77)"/>
    <rect width="2.001" height="98.351" x="765.5" y="247.088" fill="#2F2E41" transform="rotate(-42.94 766.5 296.263)"/>
    <rect width="58.009" height="2" x="808.996" y="361.763" fill="#2F2E41" transform="rotate(-54.137 838 362.763)"/>
    <circle cx="826" cy="170.263" r="10" fill="#F5DD48"/>
    <circle cx="717" cy="247.263" r="10" fill="#3F3D56"/>
    <circle cx="761" cy="257.263" r="10" fill="#3F3D56"/>
    <circle cx="741" cy="296.263" r="10" fill="#F5DD48"/>
    <circle cx="866" cy="321.263" r="10" fill="#3F3D56"/>
    <circle cx="833" cy="332.263" r="10" fill="#3F3D56"/>
    <circle cx="856" cy="364.263" r="10" fill="#3F3D56"/>
    <circle cx="751" cy="182.263" r="10" fill="#3F3D56"/>
    <path fill="#3F3D56" d="M109,316.125662 C96.8497355,316.125662 87,306.275926 87,294.125662 C87,281.975397 96.8497355,272.125662 109,272.125662 C121.150264,272.125662 131,281.975397 131,294.125662 C130.986283,306.27024 121.144578,316.111945 109,316.125662 Z M109,274.125662 C97.954305,274.125662 89,283.079967 89,294.125662 C89,305.171357 97.954305,314.125662 109,314.125662 C120.045695,314.125662 129,305.171357 129,294.125662 C128.987716,283.085059 120.040603,274.137946 109,274.125662 L109,274.125662 Z"/>
  </g>
</svg>
