<svg xmlns="http://www.w3.org/2000/svg" width="168" height="196" viewBox="0 0 168 196">
  <g fill="none" fill-rule="evenodd">
    <path fill="#29A389" fill-rule="nonzero" d="M133.703074,74.6023614 C149.679955,97.6779708 166.490122,121.525228 167.135142,138.652995 C167.780162,155.780762 168.706919,171.52 124.108602,189.980408 C102.375037,198.257529 57.8001901,195.608615 34.9403178,184.614258 C6.14344278,175.185076 1.43250528,130.515625 0.606333404,120.757813 C-0.219838471,111 2.67595898,82.1688203 18.5694103,59.0932109 C34.4211466,36.0176015 60.0759303,17.6658035 80.8917629,21.5117384 C101.707595,25.3576733 117.684477,51.4849484 133.703074,74.6023614 Z" transform="matrix(-1 0 0 1 167.78 0)"/>
    <path fill="#E09774" fill-rule="nonzero" d="M67.63,124.61 L96.02,124.61 C97.8701539,124.61 99.37,126.109846 99.37,127.96 L99.37,152.68 C99.37,162.367075 91.9770745,176.625488 82.29,176.625488 L81.895,176.625488 C72.2079255,176.625488 64.29,162.367075 64.29,152.68 L64.29,127.96 C64.29,126.113744 65.7837525,124.615511 67.63,124.61 Z"/>
    <path fill="#E09774" d="M64.2089844,139.515625 C64.2089844,161.231445 94.8828125,188.68457 103.19043,192.811035 C72.3691406,200.245605 35.8574219,191.686523 18,176.03 C18,161.154206 33.4029948,148.982747 64.2089844,139.515625 Z"/>
    <path fill="#FFAC00" d="M106.98291,140.02 C106.98291,161.73582 137.061523,190.212871 145.369141,194.339336 C127.530273,198.977031 82.1347656,193.339336 60.5952148,177.496074 C60.5952148,162.62028 76.0577799,150.128255 106.98291,140.02 Z" transform="matrix(-1 0 0 1 205.964 0)"/>
    <path fill="#000" fill-rule="nonzero" d="M64.35,139.16 C75.6586913,143.386642 88.1074023,143.422118 99.44,139.26 L99.44,134.95 L64.35,134.95 L64.35,139.16 Z" opacity=".1"/>
    <circle cx="81.76" cy="81.76" r="54.76" fill="#72351C" fill-rule="nonzero"/>
    <circle cx="82.29" cy="91.29" r="50.29" fill="#E09774" fill-rule="nonzero"/>
    <path fill="#72351C" fill-rule="nonzero" d="M49.4817153,55.2397277 C68.4221913,61.5867574 94.4547022,61.5867574 114.279295,55.2397277 C134.103888,48.892698 96.1958795,40 80.870716,40 C65.5455525,40 30.5412393,48.892698 49.4817153,55.2397277 Z" transform="matrix(-1 0 0 1 163.889 0)"/>
    <circle cx="82.24" cy="23.22" r="22.24" fill="#72351C" fill-rule="nonzero"/>
    <ellipse cx="32.7" cy="89.07" fill="#E09774" fill-rule="nonzero" rx="4.68" ry="8.77"/>
    <ellipse cx="130.94" cy="89.07" fill="#E09774" fill-rule="nonzero" rx="4.68" ry="8.77"/>
  </g>
</svg>
