<svg xmlns="http://www.w3.org/2000/svg" width="267" height="159" viewBox="0 0 267 159">
  <g fill="none" fill-rule="evenodd" transform="translate(-4)">
    <g transform="translate(96.087)">
      <g transform="translate(2)">
        <path fill="#FFBCA3" fill-opacity=".502" d="M71.7173217,80.3478261 C71.7173217,83.5184039 59.7733883,86.0869565 45.0420008,86.0869565 C30.3091508,86.0869565 18.3652174,83.5184039 18.3652174,80.3478261 C18.3652174,77.1772483 30.3091508,74.6086957 45.0420008,74.6086957 C59.7733883,74.6086957 71.7173217,77.1772483 71.7173217,80.3478261"/>
        <path fill="#F5DD48" d="M20.9810552,53.4014609 C19.3419595,56.5993043 18.6612987,59.6215304 18.4122204,63.2061913 L18.4122204,63.2061913 C18.1619943,66.7908522 18.9011943,70.5006261 20.8616813,73.5125217 L20.8616813,73.5125217 C23.3042552,77.2682087 27.4456117,79.6625739 31.76029,80.8758261 L31.76029,80.8758261 C36.0221682,82.0741565 40.4963943,82.2405913 44.9224117,82.3714435 L44.9224117,82.3714435 C49.3484291,82.2405913 53.8215073,82.0741565 58.0833856,80.8758261 L58.0833856,80.8758261 C62.3980639,79.6625739 66.5394204,77.2682087 68.9831421,73.5125217 L68.9831421,73.5125217 C70.9436291,70.5006261 71.6828291,66.7908522 71.432603,63.2061913 L71.432603,63.2061913 C71.1823769,59.6215304 69.7349682,55.7281043 68.0970204,52.529113 L68.0970204,52.529113 C64.6271421,45.7569391 55.143803,42.4695652 45.4722204,42.4695652 L45.4722204,42.4695652 C35.1796639,42.470713 24.6736117,46.193113 20.9810552,53.4014609"/>
        <path fill="#000" fill-rule="nonzero" d="M53.9478261,47.0608696 C66.8836677,62.4205043 68.5028099,76.9043478 43.3706087,80.6294606 C39.1708173,81.2026828 37.5166234,81.4914133 38.4080268,81.4956522 L47.411398,81.4956522 C78.0516961,80.6294606 71.479606,56.74456 63.1304348,47.0608696 L53.9478261,47.0608696 Z" opacity=".05"/>
        <path fill="#33CCAB" d="M68.4345391 12.3827478C65.3801739 13.2539478 62.1639652 13.5661565 59.2094609 14.7312L59.2094609 14.7312C56.2538087 15.8962435 53.4611478 18.1987826 52.9274087 21.3312L52.9274087 21.3312 52.0688348 23.2974261 57.0584348 34.8043826 62.0216348 34.8043826 69.6615652 32.9253913C72.9076174 29.7631304 74.1139826 25.0558957 74.560487 20.546087L74.560487 20.546087C75.009287 16.0362783 74.850887 11.4323478 75.9941217 7.04765217L75.9941217 7.04765217C74.5765565 9.88966957 71.4900522 11.5115478 68.4345391 12.3827478M13.6269913 20.546087C14.0746435 25.0558957 15.2810087 29.7631304 18.525913 32.9253913L18.525913 32.9253913 26.1658435 34.8043826 31.1290435 34.8043826 36.1186435 23.2974261 35.2612174 21.3312C34.7263304 18.1987826 31.9336696 15.8962435 28.9780174 14.7312L28.9780174 14.7312C26.023513 13.5661565 22.8073043 13.2539478 19.7529391 12.3827478L19.7529391 12.3827478C16.6985739 11.5115478 13.6109217 9.88966957 12.1933565 7.04765217L12.1933565 7.04765217C13.3377391 11.4323478 13.1781913 16.0362783 13.6269913 20.546087"/>
        <path fill="#000" d="M68.4345391 12.3827478C65.3801739 13.2539478 62.1639652 13.5661565 59.2094609 14.7312L59.2094609 14.7312C56.2538087 15.8962435 53.4611478 18.1987826 52.9274087 21.3312L52.9274087 21.3312 52.0688348 23.2974261 57.0584348 34.8043826 62.0216348 34.8043826 69.6615652 32.9253913C72.9076174 29.7631304 74.1139826 25.0558957 74.560487 20.546087L74.560487 20.546087C75.009287 16.0362783 74.850887 11.4323478 75.9941217 7.04765217L75.9941217 7.04765217C74.5765565 9.88966957 71.4900522 11.5115478 68.4345391 12.3827478M13.6269913 20.546087C14.0746435 25.0558957 15.2810087 29.7631304 18.525913 32.9253913L18.525913 32.9253913 26.1658435 34.8043826 31.1290435 34.8043826 36.1186435 23.2974261 35.2612174 21.3312C34.7263304 18.1987826 31.9336696 15.8962435 28.9780174 14.7312L28.9780174 14.7312C26.023513 13.5661565 22.8073043 13.2539478 19.7529391 12.3827478L19.7529391 12.3827478C16.6985739 11.5115478 13.6109217 9.88966957 12.1933565 7.04765217L12.1933565 7.04765217C13.3377391 11.4323478 13.1781913 16.0362783 13.6269913 20.546087" opacity=".1"/>
        <path stroke="#29A389" stroke-width=".5" d="M10.3304348,16.0695652 C24.1043478,31.42975 36.3478261,36.0225848 47.0608696,29.8480696" transform="rotate(18 28.696 24.287)"/>
        <path stroke="#29A389" stroke-width=".5" d="M41.3217391,16.0695652 C55.0956522,31.42975 67.3391304,36.0225848 78.0521739,29.8480696" transform="scale(-1 1) rotate(18 0 -352.562)"/>
        <path fill="#33CCAB" d="M24.4992,24.5738087 C24.0274435,32.0496 33.6875478,40.7581565 33.6875478,40.7581565 L33.6875478,40.7581565 C41.2012174,35.1062609 40.8936,21.8821565 40.8936,21.8821565 L40.8936,21.8821565 C41.4170087,18.7968 40.5090783,17.8050783 39.0192,15.3418435 L39.0192,15.3418435 C37.5293217,12.8809043 35.5929391,10.8825391 33.9538435,8.56622609 L33.9538435,8.56622609 C32.3170435,6.24991304 30.9385043,3.44806957 30.9029217,0.327130435 L30.9029217,0.327130435 C27.924313,8.16104348 25.0363826,16.0787478 24.4992,24.5738087"/>
        <path fill="#33CCAB" d="M8.84055652 42.1389913C11.9546087 46.8232696 16.9809391 50.021113 22.3757217 51.2745391L22.3757217 51.2745391C27.7705043 52.5302609 33.7036174 51.7084174 38.9147478 49.8064696L38.9147478 49.8064696 31.2162783 34.1237217C28.3558957 32.5225043 25.0134261 32.6625391 21.693913 32.8014261L21.693913 32.8014261C20.6654609 32.8438957 19.6416 32.887513 18.6326609 32.8783304L18.6326609 32.8783304C11.8294957 32.8209391 0 25.5046957 0 25.5046957L0 25.5046957C0 25.5046957 5.47742609 37.0770783 8.84055652 42.1389913M70.6188522 32.8783304C69.609913 32.887513 68.5849043 32.8438957 67.5576 32.8014261L67.5576 32.8014261C64.238087 32.6625391 60.8944696 32.5225043 58.0363826 34.1237217L58.0363826 34.1237217 50.3367652 49.8064696C55.5478957 51.7084174 61.4821565 52.5302609 66.8757913 51.2745391L66.8757913 51.2745391C72.2705739 50.021113 77.2980522 46.8232696 80.4121043 42.1389913L80.4121043 42.1389913C83.774087 37.0770783 89.2526609 25.5046957 89.2526609 25.5046957L89.2526609 25.5046957C89.2526609 25.5046957 77.4231652 32.8209391 70.6188522 32.8783304"/>
        <path fill="#33CCAB" d="M54.5607652,8.23794783 C52.9228174,10.5554087 50.985287,12.5537739 49.4965565,15.0158609 L49.4965565,15.0158609 C48.0066783,17.4779478 47.0987478,18.4696696 47.6210087,21.5550261 L47.6210087,21.5550261 C47.6210087,21.5550261 47.3133913,34.7802783 54.8270609,40.4310261 L54.8270609,40.4310261 C54.8270609,40.4310261 64.488313,31.7236174 64.0154087,24.2466783 L64.0154087,24.2466783 C63.4782261,15.7516174 60.5914435,7.83391304 57.611687,0 L57.611687,0 C57.5772522,3.12093913 56.1998609,5.92278261 54.5607652,8.23794783"/>
        <path fill="#000" d="M24.4992,24.5738087 C24.0274435,32.0496 33.6875478,40.7581565 33.6875478,40.7581565 L33.6875478,40.7581565 C41.2012174,35.1062609 40.8936,21.8821565 40.8936,21.8821565 L40.8936,21.8821565 C41.4170087,18.7968 40.5090783,17.8050783 39.0192,15.3418435 L39.0192,15.3418435 C37.5293217,12.8809043 35.5929391,10.8825391 33.9538435,8.56622609 L33.9538435,8.56622609 C32.3170435,6.24991304 30.9385043,3.44806957 30.9029217,0.327130435 L30.9029217,0.327130435 C27.924313,8.16104348 25.0363826,16.0787478 24.4992,24.5738087" opacity=".05"/>
        <path fill="#000" d="M8.84055652 42.1389913C11.9546087 46.8232696 16.9809391 50.021113 22.3757217 51.2745391L22.3757217 51.2745391C27.7705043 52.5302609 33.7036174 51.7084174 38.9147478 49.8064696L38.9147478 49.8064696 31.2162783 34.1237217C28.3558957 32.5225043 25.0134261 32.6625391 21.693913 32.8014261L21.693913 32.8014261C20.6654609 32.8438957 19.6416 32.887513 18.6326609 32.8783304L18.6326609 32.8783304C11.8294957 32.8209391 0 25.5046957 0 25.5046957L0 25.5046957C0 25.5046957 5.47742609 37.0770783 8.84055652 42.1389913M70.6188522 32.8783304C69.609913 32.887513 68.5849043 32.8438957 67.5576 32.8014261L67.5576 32.8014261C64.238087 32.6625391 60.8944696 32.5225043 58.0363826 34.1237217L58.0363826 34.1237217 50.3367652 49.8064696C55.5478957 51.7084174 61.4821565 52.5302609 66.8757913 51.2745391L66.8757913 51.2745391C72.2705739 50.021113 77.2980522 46.8232696 80.4121043 42.1389913L80.4121043 42.1389913C83.774087 37.0770783 89.2526609 25.5046957 89.2526609 25.5046957L89.2526609 25.5046957C89.2526609 25.5046957 77.4231652 32.8209391 70.6188522 32.8783304" opacity=".05"/>
        <path fill="#000" d="M54.5607652,8.23794783 C52.9228174,10.5554087 50.985287,12.5537739 49.4965565,15.0158609 L49.4965565,15.0158609 C48.0066783,17.4779478 47.0987478,18.4696696 47.6210087,21.5550261 L47.6210087,21.5550261 C47.6210087,21.5550261 47.3133913,34.7802783 54.8270609,40.4310261 L54.8270609,40.4310261 C54.8270609,40.4310261 64.488313,31.7236174 64.0154087,24.2466783 L64.0154087,24.2466783 C63.4782261,15.7516174 60.5914435,7.83391304 57.611687,0 L57.611687,0 C57.5772522,3.12093913 56.1998609,5.92278261 54.5607652,8.23794783" opacity=".05"/>
        <path stroke="#29A389" stroke-width=".5" d="M1.14782609,26.6525217 C14.9217391,42.0127065 27.1652174,46.6055413 37.8782609,40.4310261"/>
        <path stroke="#29A389" stroke-width=".5" d="M51.6521739,26.6525217 C65.426087,42.0127065 77.6695652,46.6055413 88.3826087,40.4310261" transform="matrix(-1 0 0 1 140.035 0)"/>
        <path stroke="#29A389" stroke-width=".5" d="M30.9913043,12.626087 C44.7652174,27.9862717 57.0086957,32.5791065 67.7217391,26.4045913" transform="scale(-1 1) rotate(42 0 -107.735)"/>
        <path stroke="#29A389" stroke-width=".5" d="M20.6608696,12.626087 C34.4347826,27.9862717 46.6782609,32.5791065 57.3913043,26.4045913" transform="rotate(42 39.026 20.843)"/>
        <path fill="#33CCAB" d="M40.7179826,5.87457391 C40.4987478,8.49161739 40.1119304,10.5898435 39.1041391,12.9888 L39.1041391,12.9888 C37.4822609,16.8512348 34.6723826,20.1087652 32.9093217,23.9092174 L32.9093217,23.9092174 C30.1499478,29.8561043 30.1935652,37.0346087 33.0241043,42.9470609 L33.0241043,42.9470609 C34.2832696,45.5790261 36.1060174,47.9963478 38.5417043,49.5998609 L38.5417043,49.5998609 C40.9785391,51.2056696 46.0071652,51.2596174 46.1713043,51.2458435 L46.1713043,51.2458435 C49.1131826,51.0036522 52.7047304,48.7872 54.3415304,46.2608348 L54.3415304,46.2608348 C56.0162087,43.6770783 57.5749565,40.9303304 58.1190261,37.8989217 L58.1190261,37.8989217 C59.2381565,31.6616348 55.8830609,25.495513 51.9379826,20.5346087 L51.9379826,20.5346087 C47.9940522,15.5737043 40.9360696,1.94786087 40.9360696,1.94786087 L40.9360696,1.94786087 C40.9360696,1.94786087 40.7248696,5.79652174 40.7179826,5.87457391"/>
        <path stroke="#29A389" stroke-width=".5" d="M41.4835826,2.44794675 C47.3562553,25.9811392 48.3962843,42.2475807 44.6036697,51.2472713"/>
      </g>
      <text fill="#07454C" font-family="Lato-Bold, Lato" font-size="16" font-weight="bold">
        <tspan x="4.988" y="110">Community</tspan>
      </text>
    </g>
    <g transform="translate(197.983 42.47)">
      <g transform="translate(11)">
        <path fill="#FFBCA3" fill-opacity=".502" d="M38.1431438,82.6434783 C38.1431438,85.1799405 30.631689,87.2347826 21.3672241,87.2347826 C12.1018395,87.2347826 4.59130435,85.1799405 4.59130435,82.6434783 C4.59130435,80.107016 12.1018395,78.0521739 21.3672241,78.0521739 C30.631689,78.0521739 38.1431438,80.107016 38.1431438,82.6434783"/>
        <path fill="#07454C" d="M47.9302283,32.4589745 C47.7448719,31.5057793 47.290567,30.426898 46.3501558,30.2259839 C45.520595,30.0480052 44.7364647,30.6525824 44.1458683,31.2681685 C42.5603441,32.9231871 41.3818771,34.9359979 39.8299714,36.6240434 C38.0436445,38.5662131 35.7675768,40.0450878 33.2788944,40.8900279 C33.5369396,39.1432678 33.7141185,37.3845813 33.5623807,35.6295644 C33.4969607,34.874531 33.3624865,34.1167453 33.1535062,33.3828125 C36.898796,30.8406526 39.5473938,26.9544783 41.0284278,22.636201 C42.5612527,18.1665501 42.7157163,13.266631 41.7571329,8.63643224 C41.2501286,6.18968367 40.3833148,3.71449519 38.6178859,1.96039572 C36.8533655,0.207213672 34.0103253,-0.624882676 31.8205756,0.540235694 C29.2801024,1.89250694 28.5350423,5.27868954 28.9030293,8.15387141 C29.2710163,11.0290533 30.4503919,13.769375 30.6257536,16.6629052 C30.8638094,20.6087116 29.0647619,24.6159848 25.9982036,27.0654856 C24.6707246,26.7379681 22.3846622,26.3875152 22.2520052,26.3618275 C20.1485733,25.9774302 17.9588236,26.2361415 15.9253547,26.9746615 C13.789213,25.2902856 12.6343698,22.9288567 12.3018186,20.1756912 C12.0037946,17.7105943 12.5716758,15.2344884 12.817909,12.7620522 C13.0632337,10.2905334 12.925125,7.60250437 11.4413651,5.62088572 C11.0670178,5.11997656 10.5981752,4.66860787 10.0166648,4.44475836 C8.93905356,4.03008631 7.71879052,4.47870275 6.75657268,5.11997656 C3.97804374,6.97223955 2.39342816,10.371266 2.29984134,13.7308435 C2.11811937,20.2940379 7.89415222,28.6562851 10.7508216,30.2663502 C10.1029828,30.9232201 9.53419301,31.6599052 9.12259275,32.4855796 C7.69334945,35.3506699 8.31211276,38.7772188 8.96358602,41.9166165 C10.2965167,48.3431159 11.6294473,54.77145 12.962378,61.1988668 L29.8934141,61.5117057 C30.4394886,58.1613023 30.9864717,54.8631916 31.5334548,51.5623287 C35.9238577,50.5293183 40.2025015,48.6559547 43.4162545,45.4780256 C46.8071865,42.1257874 48.8470156,37.1607317 47.9302283,32.4589745"/>
        <path stroke="#29A389" stroke-width=".5" d="M0.560082958,9.5647035 L4.71540895,8.92828774 L3.24657295,12.6219108 L0.560082958,9.5647035 Z"/>
        <path stroke="#29A389" stroke-width=".5" d="M8.27730447,18.2903371 L12.466173,17.6447596 L10.9854803,21.3915553 L8.27730447,18.2903371 Z" transform="rotate(40 10.419 19.438)"/>
        <path stroke="#29A389" stroke-width=".5" d="M5.9816523,40.5919642 L10.1705209,39.9463867 L8.68982813,43.6931823 L5.9816523,40.5919642 Z" transform="rotate(60 8.123 41.74)"/>
        <path stroke="#29A389" stroke-width=".5" d="M14.2733104,25.5128544 L18.4621789,24.8672769 L16.9814862,28.6140726 L14.2733104,25.5128544 Z" transform="rotate(70 16.415 26.66)"/>
        <path stroke="#29A389" stroke-width=".5" d="M17.4390937,37.6830563 L21.6279623,37.0374788 L20.1472695,40.7842745 L17.4390937,37.6830563 Z" transform="rotate(110 19.58 38.83)"/>
        <path stroke="#29A389" stroke-width=".5" d="M27.7098899,2.77725177 L31.8652158,2.14083602 L30.3963798,5.83445912 L27.7098899,2.77725177 Z"/>
        <path stroke="#29A389" stroke-width=".5" d="M35.4271114,11.5028854 L39.6159799,10.8573079 L38.1352872,14.6041035 L35.4271114,11.5028854 Z" transform="rotate(40 37.569 12.65)"/>
        <path stroke="#29A389" stroke-width=".5" d="M8.27730447,63.8632272 L12.466173,63.2176498 L10.9854803,66.9644454 L8.27730447,63.8632272 Z" transform="rotate(40 10.419 65.011)"/>
        <path stroke="#29A389" stroke-width=".5" d="M13.1254843,52.2275957 L17.3143528,51.5820183 L15.8336601,55.3288139 L13.1254843,52.2275957 Z" transform="rotate(50 15.267 53.375)"/>
        <path stroke="#29A389" stroke-width=".5" d="M20.9224381,60.9554094 L25.0777641,60.3189937 L23.6089281,64.0126168 L20.9224381,60.9554094 Z" transform="rotate(90 23.048 62.087)"/>
        <path stroke="#29A389" stroke-width=".5" d="M27.7098899,48.3501419 L31.8652158,47.7137262 L30.3963798,51.4073493 L27.7098899,48.3501419 Z"/>
        <path stroke="#29A389" stroke-width=".5" d="M40.2752912,45.440144 L44.4641597,44.7945665 L42.983467,48.5413622 L40.2752912,45.440144 Z" transform="rotate(50 42.417 46.588)"/>
        <path stroke="#29A389" stroke-width=".5" d="M27.4113755,35.8027403 L31.5667015,35.1663245 L30.0978655,38.8599476 L27.4113755,35.8027403 Z" transform="rotate(90 29.537 36.934)"/>
        <path stroke="#29A389" stroke-width=".5" d="M7.89833199,28.9157838 L12.053658,28.279368 L10.584822,31.9729911 L7.89833199,28.9157838 Z" transform="rotate(90 10.024 30.047)"/>
        <path stroke="#29A389" stroke-width=".5" d="M38.8896363,18.585349 L43.0449623,17.9489332 L41.5761263,21.6425563 L38.8896363,18.585349 Z" transform="rotate(90 41.015 19.717)"/>
        <path stroke="#29A389" stroke-width=".5" d="M23.9678972,55.3157838 L28.1232232,54.679368 L26.6543872,58.3729911 L23.9678972,55.3157838 Z" transform="rotate(90 26.093 56.447)"/>
        <path stroke="#29A389" stroke-width=".5" d="M27.6700237,25.0777888 L31.8588922,24.4322114 L30.3781995,28.179007 L27.6700237,25.0777888 Z" transform="rotate(20 29.812 26.226)"/>
        <path stroke="#29A389" stroke-width=".5" d="M37.7227635,34.9523385 L41.9116321,34.3067611 L40.4309394,38.0535567 L37.7227635,34.9523385 Z" transform="rotate(60 39.864 36.1)"/>
        <path stroke="#29A389" stroke-width=".5" d="M46.8845528,32.0434307 L51.0734213,31.3978532 L49.5927286,35.1446488 L46.8845528,32.0434307 Z" transform="rotate(110 49.026 33.191)"/>
        <path fill="#F57647" d="M31.4650068,82.681613 C24.6853385,82.7078418 17.9056701,82.7349752 11.1269077,82.761204 L7.87476853,62.7341113 C16.8222277,62.6997425 25.7687809,62.6644692 34.7162401,62.6301003 L31.4650068,82.681613 Z"/>
        <polygon fill="#000" fill-opacity=".05" points="8.287 64.896 34.572 64.896 34.572 60.423 8.287 60.423"/>
        <polygon fill="#F57647" points="6.756 63.748 35.835 63.748 35.835 59.275 6.756 59.275"/>
      </g>
      <text fill="#07454C" font-family="Lato-Bold, Lato" font-size="16" font-weight="bold">
        <tspan x=".34" y="113">Creativity</tspan>
      </text>
    </g>
    <g transform="translate(0 39.026)">
      <g transform="translate(7)">
        <path fill="#FFBCA3" fill-opacity=".502" d="M52.8,84.9391304 C52.8,88.1097083 45.0918192,90.6782609 35.5826087,90.6782609 C26.0733982,90.6782609 18.3652174,88.1097083 18.3652174,84.9391304 C18.3652174,81.7685526 26.0733982,79.2 35.5826087,79.2 C45.0918192,79.2 52.8,81.7685526 52.8,84.9391304"/>
        <path fill="#29A389" d="M41.6448467,21.1937943 C42.5109635,16.4561148 33.6825958,0.718544596 33.6825958,0.718544596 C33.6825958,0.718544596 35.2600914,16.1591011 33.095838,25.0954738 L32.0282504,30.3773322 L35.6858802,40.7198465 L41.7050802,26.4528055 L41.6448467,21.1937943 Z"/>
        <path fill="#07454C" d="M28.0549138 46.0621461C25.3558281 30.8905635 21.8612442 2.47591006 21.8612442 2.47591006 21.8612442 2.47591006 18.0011051 22.9698529 18.3728914 32.9416194 18.3728914 32.9416194 17.6189337 46.8545287 19.8506902 51.7749858L23.9870728 56.4119299 28.0549138 53.2018976 28.0549138 46.0621461zM44.0626002 35.5797446C47.3525978 27.7171906 46.3753605 21.242085 45.7429083 13.0461694 45.6068636 11.2838191 45.9360711 7.78300422 45.9360711 7.78300422 45.9360711 7.78300422 43.1746748 18.4287632 40.9429183 23.1809819 38.4743816 28.4368775 34.9714897 30.3768129 34.1874152 36.9391533L33.6826996 42.8773496 35.781527 55.1276055 37.4182176 56.4122415 44.0626002 35.5797446z"/>
        <path fill="#33CCAB" d="M37.0922296,53.588327 C37.4110519,39.3472487 30.621278,16.4979667 30.621278,16.4979667 C30.621278,16.4979667 28.3999066,22.7716015 27.5078271,25.9691717 C26.6147091,29.1677804 25.939678,31.3258027 26.2283836,34.7321133 C26.2283836,34.7321133 26.269924,40.9330524 27.0539985,46.2117953 L31.4032755,60.4944139 L37.8960358,60.5691866 L37.0922296,53.588327"/>
        <path fill="#29A389" d="M33.6825958,60.1753839 C31.1766728,50.2337342 26.0412442,40.9671155 18.9378405,33.5739677 C17.5535076,32.1325168 16.0933635,30.7596075 14.5179448,29.5300124 C12.2041461,27.7250832 6.93059578,25.1173863 6.93059578,25.1173863 C6.93059578,25.1173863 20.1736666,42.132323 22.6328566,52.3097143 L22.8104417,57.410872 L26.1606728,60.4869366 L33.6825958,60.1753839 Z"/>
        <path fill="#33CCAB" d="M49.0574147,41.4396373 C54.0069501,34.1472248 61.5413352,28.5880845 69.9958395,26.0987776 C69.0456035,26.6190708 57.6271935,37.006241 53.6912432,46.6269913 L52.0368979,52.8092373 L42.6747364,59.6571677 L44.2802718,41.6816099 L49.0574147,41.4396373 Z"/>
        <path fill="#07454C" d="M28.9403468 60.4471617C21.932486 46.2268537.76351205 40.518168.76351205 40.518168.76351205 40.518168 17.1003021 54.1444487 19.1243568 61.0889605L28.9403468 60.4471617zM51.63136 61.4958484C55.4676134 50.7857019 63.5565625 40.9894435 73.5636383 35.5798484 67.5901327 37.809528 61.7994047 40.6218112 56.6525525 44.3843304 51.5057004 48.1468497 49.9209352 49.8105416 46.1490693 54.815118L43.1031215 60.8000472 51.63136 61.4958484z"/>
        <path fill="#29A389" d="M37.0830907,60.268642 C34.1295702,39.6635786 61.2886658,14.7954345 61.2886658,14.7954345 C61.2886658,14.7954345 58.5397317,19.2506395 57.2758658,21.3494668 C50.0623801,33.3359414 47.1711702,46.9435289 45.2426584,60.8003588"/>
        <path fill="#CB8557" d="M45.5027011,85.6756686 L52.618567,61.2156586 C52.618567,61.2156586 47.2432427,60.6465555 44.6552775,60.4284686 C39.8905968,60.0286425 35.5350887,60.1875344 30.9760328,60.0670673 C26.7472229,59.9549083 18.0902092,61.0017257 18.0902092,61.0017257 L25.5653993,85.6735916 C25.5653993,85.6735916 31.0850763,86.1056114 33.3801819,86.2530798 C37.3047086,86.5054375 45.5027011,85.6756686 45.5027011,85.6756686"/>
        <path fill="#FFBCA3" d="M18.0897938,61.0020373 L25.5649839,85.6739031 C25.5649839,85.6739031 31.0856994,86.105923 33.3797665,86.2523528 L33.3797665,86.2523528 C37.3053317,86.5047106 45.5022857,85.6759801 45.5022857,85.6759801 L45.5022857,85.6759801 L52.6181516,61.2159702 C52.6181516,61.2159702 47.2428273,60.6468671 44.6548621,60.4287801 L44.6548621,60.4287801 C39.8901814,60.028954 35.5357118,60.187846 30.9756174,60.0673789 L30.9756174,60.0673789 C30.760646,60.0611478 30.5342509,60.0590708 30.2985093,60.0590708 L30.2985093,60.0590708 C25.8900373,60.0590708 18.0897938,61.0020373 18.0897938,61.0020373"/>
      </g>
      <text fill="#07454C" font-family="Lato-Bold, Lato" font-size="16" font-weight="bold">
        <tspan x="3.932" y="116">Motivation</tspan>
      </text>
    </g>
  </g>
</svg>
