<svg xmlns="http://www.w3.org/2000/svg" width="17" height="24" viewBox="0 0 17 24">
  <path fill="#07454C" d="M14,15 L14,18 L16.5,18 C16.8537323,18 17.0956112,18.3572631 16.9642383,18.6856953 L15.6367114,22.0045126 C15.6333679,22.0136343 15.6297412,22.0227075 15.6258279,22.0317215 L14.9642383,23.6856953 C14.8883067,23.8755245 14.7044523,24 14.5,24 L2.5,24 C2.29554771,24 2.11169333,23.8755245 2.03576165,23.6856953 L1.37417217,22.0317216 C1.37025876,22.0227075 1.36663211,22.0136343 1.36328856,22.0045126 L0.0357616546,18.6856953 C-0.0956112241,18.3572631 0.146267699,18 0.5,18 L3,18 L3,15 L1.5,15 C1.22385763,15 1,14.7761424 1,14.5 C1,14.2238576 1.22385763,14 1.5,14 L3,14 L3,12 L1.5,12 C1.22385763,12 1,11.7761424 1,11.5 C1,11.2238576 1.22385763,11 1.5,11 L3,11 L3,9 L1.5,9 C1.22385763,9 1,8.77614237 1,8.5 C1,8.22385763 1.22385763,8 1.5,8 L3,8 L3,6.26759188 L1.7226499,5.41602515 C1.49288556,5.26284892 1.43079862,4.95241425 1.58397485,4.7226499 C1.73715108,4.49288556 2.04758575,4.43079862 2.2773501,4.58397485 L3.40870719,5.33821291 L4.43442978,4.14153656 L3.14644661,2.85355339 C2.95118446,2.65829124 2.95118446,2.34170876 3.14644661,2.14644661 C3.34170876,1.95118446 3.65829124,1.95118446 3.85355339,2.14644661 L5.08714373,3.38003695 L6,2.31503796 L6,0.5 C6,0.223857625 6.22385763,0 6.5,0 C6.77614237,0 7,0.223857625 7,0.5 L7,2 L10,2 L10,0.5 C10,0.223857625 10.2238576,0 10.5,0 C10.7761424,0 11,0.223857625 11,0.5 L11,2.31503796 L11.9128563,3.38003695 L13.1464466,2.14644661 C13.3417088,1.95118446 13.6582912,1.95118446 13.8535534,2.14644661 C14.0488155,2.34170876 14.0488155,2.65829124 13.8535534,2.85355339 L12.5655702,4.14153656 L13.5912928,5.33821291 L14.7226499,4.58397485 C14.9524142,4.43079862 15.2628489,4.49288556 15.4160251,4.7226499 C15.5692014,4.95241425 15.5071144,5.26284892 15.2773501,5.41602515 L14,6.26759188 L14,8 L15.5,8 C15.7761424,8 16,8.22385763 16,8.5 C16,8.77614237 15.7761424,9 15.5,9 L14,9 L14,11 L15.5,11 C15.7761424,11 16,11.2238576 16,11.5 C16,11.7761424 15.7761424,12 15.5,12 L14,12 L14,14 L15.5,14 C15.7761424,14 16,14.2238576 16,14.5 C16,14.7761424 15.7761424,15 15.5,15 L14,15 Z M2.09562179,21.1427633 L4.27646028,20.0527529 C4.41721098,19.9824039 4.58286666,19.9824163 4.7236068,20.0527864 L6.5,20.940983 L8.2763932,20.0527864 C8.41715695,19.9824045 8.58284305,19.9824045 8.7236068,20.0527864 L10.5,20.940983 L12.2763932,20.0527864 C12.4171333,19.9824163 12.582789,19.9824039 12.7235397,20.0527529 L14.9043782,21.1427633 L15.7614835,19 L13.5,19 L3.5,19 L1.23851648,19 L2.09562179,21.1427633 Z M2.46829513,22.0744466 L2.83851648,23 L14.1614835,23 L14.5317049,22.0744466 L12.5000419,21.058996 L10.7236068,21.9472136 C10.5828431,22.0175955 10.4171569,22.0175955 10.2763932,21.9472136 L8.5,21.059017 L6.7236068,21.9472136 C6.58284305,22.0175955 6.41715695,22.0175955 6.2763932,21.9472136 L4.49995808,21.058996 L2.46829513,22.0744466 Z M13,18 L13,6.18496204 L10.2700325,3 L6.72996746,3 L4,6.18496204 L4,18 L13,18 Z M11,16.5 C11,16.7761424 10.7761424,17 10.5,17 C10.2238576,17 10,16.7761424 10,16.5 L10,12.5 C10,12.2238576 10.2238576,12 10.5,12 C10.7761424,12 11,12.2238576 11,12.5 L11,16.5 Z M6,15.5 C6,15.2238576 6.22385763,15 6.5,15 C6.77614237,15 7,15.2238576 7,15.5 L7,16.5 C7,16.7761424 6.77614237,17 6.5,17 C6.22385763,17 6,16.7761424 6,16.5 L6,15.5 Z M6,12.5 C6,12.2238576 6.22385763,12 6.5,12 C6.77614237,12 7,12.2238576 7,12.5 L7,13.5 C7,13.7761424 6.77614237,14 6.5,14 C6.22385763,14 6,13.7761424 6,13.5 L6,12.5 Z M6,6.5 C6,6.22385763 6.22385763,6 6.5,6 C6.77614237,6 7,6.22385763 7,6.5 L7,7.5 C7,7.77614237 6.77614237,8 6.5,8 C6.22385763,8 6,7.77614237 6,7.5 L6,6.5 Z M10,6.5 C10,6.22385763 10.2238576,6 10.5,6 C10.7761424,6 11,6.22385763 11,6.5 L11,7.5 C11,7.77614237 10.7761424,8 10.5,8 C10.2238576,8 10,7.77614237 10,7.5 L10,6.5 Z M6.14644661,9.85355338 C5.95118446,9.65829124 5.95118446,9.34170875 6.14644661,9.1464466 C6.34170875,8.95118445 6.65829124,8.95118445 6.85355339,9.14644659 C7.99162457,10.2845178 9.00837543,10.2845178 10.1464466,9.14644659 C10.3417088,8.95118445 10.6582912,8.95118445 10.8535534,9.1464466 C11.0488155,9.34170875 11.0488155,9.65829124 10.8535534,9.85355338 C9.32495791,11.3821488 7.67504209,11.3821488 6.14644661,9.85355338 Z"/>
</svg>
