<svg xmlns="http://www.w3.org/2000/svg" width="17" height="24" viewBox="0 0 17 24">
  <g fill="none" fill-rule="evenodd" stroke="#07454C" stroke-linecap="round" stroke-linejoin="round">
    <polygon points="13.5 18.5 3.5 18.5 3.5 6 6.5 2.5 10.5 2.5 13.5 6 13.5 14"/>
    <polygon points=".5 18.5 16.5 18.5 14.5 23.5 2.5 23.5"/>
    <polyline points="1.833 21.833 4.5 20.5 6.5 21.5 8.5 20.5 10.5 21.5 12.5 20.5 15.167 21.833"/>
    <path d="M10.5 16.5L10.5 12.5M6.5 15.5L6.5 16.5M6.5 12.5L6.5 13.5M6.5 6.5L6.5 7.5M10.5 6.5L10.5 7.5M6.5 9.5C7.83333333 10.8333333 9.16666667 10.8333333 10.5 9.5M6.5 2.5L6.5.5M3.5 8.5L1.5 8.5M3.5 11.5L1.5 11.5M3.5 14.5L1.5 14.5M3.5 6L2 5M5.115 4.115L3.5 2.5M10.5 2.5L10.5.5M13.5 8.5L15.5 8.5M13.5 11.5L15.5 11.5M13.5 14.5L15.5 14.5M13.5 6L15 5M11.885 4.115L13.5 2.5"/>
  </g>
</svg>
