<svg xmlns="http://www.w3.org/2000/svg" width="22" height="24" viewBox="0 0 22 24">
  <path fill="#CC33A1" d="M28.2727273,12 C28.8752197,12 29.3636364,12.4884166 29.3636364,13.0909091 L29.3636364,13.0909091 L29.363,14.181 L31.5454545,14.1818182 C33.3529319,14.1818182 34.8181818,15.6470681 34.8181818,17.4545455 L34.8181818,32.7272727 C34.8181818,34.5347501 33.3529319,36 31.5454545,36 L16.2727273,36 C14.4652499,36 13,34.5347501 13,32.7272727 L13,17.4545455 C13,15.6470681 14.4652499,14.1818182 16.2727273,14.1818182 L18.454,14.181 L18.4545455,13.0909091 C18.4545455,12.5285828 18.8800106,12.0656292 19.426588,12.0064013 L19.5454545,12 C20.147947,12 20.6363636,12.4884166 20.6363636,13.0909091 L20.6363636,13.0909091 L20.636,14.181 L27.181,14.181 L27.1818182,13.0909091 C27.1818182,12.5285828 27.6072833,12.0656292 28.1538607,12.0064013 Z M32.636,22.909 L15.181,22.909 L15.1818182,32.7272727 C15.1818182,33.3297652 15.6702348,33.8181818 16.2727273,33.8181818 L31.5454545,33.8181818 C32.147947,33.8181818 32.6363636,33.3297652 32.6363636,32.7272727 L32.636,22.909 Z M18.454,16.363 L16.2727273,16.3636364 C15.6702348,16.3636364 15.1818182,16.852053 15.1818182,17.4545455 L15.181,20.727 L32.636,20.727 L32.6363636,17.4545455 C32.6363636,16.852053 32.147947,16.3636364 31.5454545,16.3636364 L29.363,16.363 L29.3636364,17.4545455 C29.3636364,18.0168717 28.9381712,18.4798253 28.3915938,18.5390532 L28.2727273,18.5454545 C27.6702348,18.5454545 27.1818182,18.0570379 27.1818182,17.4545455 L27.1818182,17.4545455 L27.181,16.363 L20.636,16.363 L20.6363636,17.4545455 C20.6363636,18.0168717 20.2108985,18.4798253 19.6643211,18.5390532 L19.5454545,18.5454545 C18.9429621,18.5454545 18.4545455,18.0570379 18.4545455,17.4545455 L18.4545455,17.4545455 L18.454,16.363 Z" transform="translate(-13 -12)"/>
</svg>
