<svg xmlns="http://www.w3.org/2000/svg" width="168" height="176" viewBox="0 0 168 176">
  <g fill="none" fill-rule="evenodd">
    <path fill="#F5DD48" fill-rule="nonzero" d="M133.703074,53.6023614 C149.679955,76.6779708 166.490122,100.525228 167.135142,117.652995 C167.780162,134.780762 168.706919,150.52 124.108602,168.980408 C102.375037,177.257529 57.8001901,174.608615 34.9403178,163.614258 C6.14344278,154.185076 1.43250528,109.515625 0.606333404,99.7578125 C-0.219838471,90 2.67595898,61.1688203 18.5694103,38.0932109 C34.4211466,15.0176015 60.0759303,-3.3341965 80.8917629,0.511738397 C101.707595,4.35767329 117.684477,30.4849484 133.703074,53.6023614 Z" transform="matrix(-1 0 0 1 167.78 0)"/>
    <path fill="#482919" fill-rule="nonzero" d="M139.57,72 C139.57,113.78 147.968513,127.715 83.695,127.715 C19.4214874,127.715 22.82,113.78 22.82,72 C22.82,30.22 50.08,9 83.71,9 C117.34,9 139.57,30.23 139.57,72 Z"/>
    <path fill="#33CCAB" fill-rule="nonzero" d="M82.14,175.590153 C104.307739,175.626473 125.995803,169.136748 144.5,156.93 C140.32,134.09 124.41,132.78 124.41,132.78 L36.7,132.78 C36.7,132.78 21.7,134.01 17,155.03 C36.0700645,168.443899 58.8247959,175.625926 82.14,175.590153 L82.14,175.590153 Z"/>
    <path fill="#FFBA90" fill-rule="nonzero" d="M66.63,103.61 L95.02,103.61 C96.8701539,103.61 98.37,105.109846 98.37,106.96 L98.37,131.68 C98.37,141.367075 90.5170745,149.22 80.83,149.22 L80.83,149.22 C71.1429255,149.22 63.29,141.367075 63.29,131.68 L63.29,106.96 C63.29,105.113744 64.7837525,103.615511 66.63,103.61 Z"/>
    <path fill="#000" fill-rule="nonzero" d="M63.28,104.91 L98.37,104.91 L98.37,132.98 C98.37,142.667075 90.5170745,150.52 80.83,150.52 L80.83,150.52 C71.1429255,150.52 63.29,142.667075 63.29,132.98 L63.29,104.91 L63.28,104.91 Z" opacity=".1"/>
    <path fill="#000" fill-rule="nonzero" d="M63.35,118.16 C74.6586913,122.386642 87.1074023,122.422118 98.44,118.26 L98.44,113.95 L63.35,113.95 L63.35,118.16 Z" opacity=".1"/>
    <path fill="#FFBA90" fill-rule="nonzero" d="M131.197957,76.5195563 C128.129702,101.354498 106.955029,120.58 81.29,120.58 C55.7301613,120.58 34.6239462,101.511771 31.4206809,76.8246381 C28.9660243,76.5538781 27.02,72.7378072 27.02,68.07 C27.02,63.2264627 29.1153074,59.3 31.7,59.3 C31.8667502,59.3 32.0314636,59.3163424 32.1937089,59.3482192 C37.1888097,36.8352018 57.2733688,20 81.29,20 C105.30335,20 125.385702,36.8306021 130.384243,59.3389924 C132.760574,59.7583019 134.62,63.507234 134.62,68.07 C134.62,72.0968828 133.171694,75.4898706 131.197957,76.5195563 Z"/>
    <path fill="#482919" d="M35,53.9988629 C64.3276635,60.7690031 97.8543302,60.7690031 135.58,53.9988629 C128.28252,28.4541792 111.449361,16.1642736 85.0805247,17.129146 C45.5272699,18.5764546 21.6840054,44.276842 35,53.9988629 Z"/>
  </g>
</svg>
