<svg xmlns="http://www.w3.org/2000/svg" width="944" height="606" viewBox="0 0 944 606">
  <defs>
    <linearGradient id="celebrate-a" x1="49.5%" x2="49.5%" y1="61.148%" y2="39.148%">
      <stop offset="0%" stop-color="gray" stop-opacity=".25"/>
      <stop offset="54%" stop-color="gray" stop-opacity=".12"/>
      <stop offset="100%" stop-color="gray" stop-opacity=".1"/>
    </linearGradient>
  </defs>
  <g fill="none" fill-rule="evenodd" transform="translate(.943 .02)">
    <ellipse cx="462.847" cy="564.42" fill="#FFBCA3" fill-rule="nonzero" opacity=".701" rx="427.67" ry="41.08"/>
    <path fill="#FFBCA3" fill-rule="nonzero" d="M82.5067999,160.649692 C102.0268,204.739692 77.1267999,255.509692 47.8167999,293.739692 C38.0067999,306.559692 27.1767999,319.999692 25.8167999,336.079692 C24.1767999,355.749692 37.4967999,373.829692 53.2967999,385.649692 C82.1167999,407.189692 121.4768,413.849692 155.7768,402.979692 C185.4168,393.589692 210.3368,372.379692 240.2368,363.829692 C290.2368,349.509692 343.2368,373.249692 386.0568,402.829692 C416.3668,423.739692 448.8268,449.219692 485.3668,444.739692 C511.0768,441.589692 532.8968,423.539692 547.7068,402.289692 C554.8568,392.029692 561.0768,380.529692 571.4868,373.609692 C577.6768,369.489692 584.9468,367.309692 592.2168,365.749692 C658.6068,351.559692 729.0668,386.189692 794.5768,368.379692 C838.8268,356.379692 874.1068,321.379692 896.0468,281.109692 C917.9868,240.839692 928.2268,195.369692 936.7568,150.319692 C942.8168,118.319692 947.8468,83.7496925 933.9168,54.3196925 C919.1768,23.1596925 885.0568,4.26969248 850.7668,0.729692476 C816.4768,-2.81030752 782.0868,6.95969248 750.4968,20.7396925 C711.0268,37.9996925 672.3368,62.1596925 629.2568,62.2396925 C599.9168,62.2996925 571.9368,51.0396925 543.8868,42.4496925 C496.9868,28.0996925 448.2168,20.9696925 399.6168,14.3896925 C353.0868,8.08969248 306.0968,2.22969248 259.2868,5.94969248 C226.1668,8.57969248 196.9168,21.2396925 164.7768,27.0996925 C143.8268,30.9196925 122.7768,28.0996925 102.2168,34.4996925 C76.8967999,42.4196925 50.8567999,60.7696925 49.4567999,89.6696925 C48.1367999,117.179692 72.1567999,137.259692 82.5067999,160.649692 Z" opacity=".5"/>
    <path fill="#444176" fill-rule="nonzero" d="M412.8368 505.879692L396.5068 521.529692C392.7668 537.529692 383.5768 540.239692 383.5768 540.239692 358.7468 544.659692 369.9668 521.239692 369.9668 521.239692L385.7168 494.589692 387.6568 491.299692C387.6568 491.299692 398.8868 487.899692 406.3668 489.939692 407.311179 490.198557 408.183564 490.670672 408.9168 491.319692 413.6068 495.389692 412.8368 505.879692 412.8368 505.879692zM513.5268 519.829692C501.9568 523.229692 493.7968 510.989692 494.5268 507.919692 495.2568 504.849692 483.9568 480.739692 483.9568 480.739692L484.8368 474.379692 485.6568 468.489692 504.6568 469.849692 506.4468 473.609692 517.5868 497.059692C517.5868 497.059692 525.0968 516.429692 513.5268 519.829692z"/>
    <path fill="#000" fill-rule="nonzero" d="M409.0968 493.979692C407.3068 497.049692 392.7968 495.499692 385.7268 494.539692L387.6668 491.249692C387.6668 491.249692 398.8968 487.849692 406.3768 489.889692 407.321179 490.148557 408.193564 490.620672 408.9268 491.269692 409.0268 492.929692 409.0968 493.979692 409.0968 493.979692zM506.4668 473.589692C496.7368 480.069692 486.3768 475.169692 484.8168 474.359692L485.6368 468.469692 504.6368 469.829692 506.4668 473.589692z" opacity=".1"/>
    <path fill="#476D71" fill-rule="nonzero" d="M509.1068,439.549692 C505.7068,444.989692 509.1068,470.169692 509.1068,470.169692 C497.8768,480.379692 484.6168,472.889692 484.6168,472.889692 L482.6168,411.319692 C482.6168,411.319692 460.5068,360.629692 444.8568,361.989692 C429.2068,363.349692 403.3568,418.119692 403.3568,418.119692 C403.3568,418.119692 410.4968,465.059692 409.1368,469.119692 C407.7768,473.179692 409.1368,492.929692 409.1368,492.929692 C406.7568,497.009692 381.9268,492.929692 381.9268,492.929692 L374.7868,404.479692 L384.2668,384.739692 C389.7168,365.419692 398.9768,344.739692 404.5168,333.139692 C407.2668,327.369692 409.1068,323.849692 409.1068,323.849692 L427.2068,320.079692 L485.9568,307.899692 L507.0668,384.739692 C511.1468,392.219692 513.5268,409.229692 513.5268,409.229692 C513.5268,409.229692 512.5068,434.109692 509.1068,439.549692 Z"/>
    <g fill="#000" fill-rule="nonzero" opacity=".1" transform="translate(374.057 306.98)">
      <path d="M116,165.91 L114,104.34 C114,104.34 91.89,53.65 76.24,55.01 C75.5403057,55.0781707 74.8517385,55.2326785 74.19,55.47 C89.45,60.54 108.56,104.34 108.56,104.34 L110.56,165.91 C114.732459,168.035641 119.435612,168.894236 124.09,168.38 C121.268673,168.040667 118.529723,167.204424 116,165.91 Z"/>
      <path d="M13.27,185.98 L6.13,97.53 L15.65,77.76 C21.1,58.44 30.36,37.76 35.9,26.16 C38.65,20.39 40.49,16.87 40.49,16.87 L58.59,13.1 L112.22,1.95 L111.93,0.88 L53.15,13.1 L35.05,16.87 C35.05,16.87 33.21,20.39 30.46,26.16 C24.9,37.76 15.66,58.48 10.21,77.76 L0.69,97.49 L7.83,185.94 C7.83,185.94 21.39,188.17 29.43,187.68 C24.0181069,187.386275 18.6245437,186.818882 13.27,185.98 L13.27,185.98 Z"/>
    </g>
    <path fill="#CED2DF" fill-rule="nonzero" d="M345.9568,218.949692 C345.9568,218.949692 326.5668,219.949692 329.2868,240.379692 L334.7268,241.059692 L342.8868,232.219692 L346.9668,224.739692 L346.9668,223.039692 L345.9568,218.949692 Z"/>
    <path fill="#000" fill-rule="nonzero" d="M345.9568,218.949692 C345.9568,218.949692 326.5668,219.949692 329.2868,240.379692 L334.7268,241.059692 L342.8868,232.219692 L346.9668,224.739692 L346.9668,223.039692 L345.9568,218.949692 Z" opacity=".1"/>
    <path fill="#CED2DF" fill-rule="nonzero" d="M561.6668,226.429692 C561.6668,226.429692 577.6668,234.929692 573.5768,244.799692 L568.4768,246.799692 L561.6768,243.059692 L560.6768,234.219692 L561.3568,228.099692 L561.6668,226.429692 Z"/>
    <path fill="#000" fill-rule="nonzero" d="M561.6668,226.429692 C561.6668,226.429692 577.6668,234.929692 573.5768,244.799692 L568.4768,246.799692 L561.6768,243.059692 L560.6768,234.219692 L561.3568,228.099692 L561.6668,226.429692 Z" opacity=".1"/>
    <rect width="55.79" height="42.18" x="424.237" y="138.66" fill="#88455E" fill-rule="nonzero" rx="21.09"/>
    <path fill="#EC8C9C" fill-rule="nonzero" d="M345.8268 221.839692L333.9168 240.839692 332.9168 237.459692 316.7368 184.739692C316.18346 182.942515 316.271833 181.008903 316.9868 179.269692 321.0768 169.329692 335.4968 136.269692 340.7268 151.719692 346.8468 169.719692 330.1768 189.139692 330.1768 189.139692 332.0768 204.899692 340.9268 216.319692 344.4068 220.279692 345.2868 221.309692 345.8268 221.839692 345.8268 221.839692zM559.1168 229.999692C559.1168 229.999692 577.8268 212.309692 577.1168 205.169692 577.1168 205.169692 559.4268 176.599692 568.2768 170.169692 575.2768 165.049692 585.9068 190.849692 590.0268 201.819692 591.129281 204.777554 590.869441 208.07129 589.3168 210.819692L566.9568 250.409692 559.1168 229.999692zM438.0068 180.679692C438.0068 180.679692 441.4068 202.449692 431.5468 210.619692 421.6868 218.789692 459.7868 218.739692 459.7868 218.739692L473.3968 206.149692C473.3968 206.149692 457.7468 191.519692 462.5068 180.639692L438.0068 180.679692z"/>
    <path fill="#000" fill-rule="nonzero" d="M437.3268,205.509692 C437.3268,205.509692 451.9568,216.399692 466.5768,204.149692 L490.3868,253.479692 L489.0268,313.689692 C489.0268,313.689692 439.6968,339.199692 419.2868,323.559692 C398.8768,307.919692 415.8868,299.749692 415.8868,299.749692 L411.1268,253.489692 L416.2268,223.549692 C416.2268,223.549692 425.4068,209.259692 426.0968,209.259692 C426.7868,209.259692 437.3268,205.509692 437.3268,205.509692 Z" opacity=".1"/>
    <path fill="#EBF1F6" fill-rule="nonzero" d="M437.3268,204.829692 C437.3268,204.829692 451.9568,215.739692 466.5868,203.469692 L490.3968,252.799692 L489.0368,313.009692 C489.0368,313.009692 439.7068,338.519692 419.2968,322.879692 C398.8868,307.239692 415.8968,299.069692 415.8968,299.069692 L411.1368,252.809692 L416.2368,222.869692 C416.2368,222.869692 425.4168,208.579692 426.1068,208.579692 C426.7968,208.579692 437.3268,204.829692 437.3268,204.829692 Z"/>
    <path fill="#000" fill-rule="nonzero" d="M437.3268,199.739692 C437.3268,199.739692 423.4568,207.639692 408.3968,207.249692 C405.54319,207.160367 402.773006,208.219449 400.7068,210.189692 C396.4168,214.309692 388.9068,220.829692 384.2568,220.829692 C383.2568,220.829692 354.3168,226.609692 354.3168,226.609692 L346.6668,218.959692 C346.6668,218.959692 335.2668,241.239692 329.8268,240.219692 L339.6968,253.149692 C339.6968,253.149692 358.4068,261.309692 382.8968,251.449692 L397.1868,251.449692 L404.6668,274.579692 C404.6668,274.579692 400.9268,305.879692 397.8668,312.679692 C394.8068,319.479692 398.8668,332.749692 398.8668,332.749692 L425.7368,331.749692 C425.7368,331.749692 427.0968,318.479692 429.1368,316.749692 C431.1768,315.019692 421.9968,256.539692 421.9968,256.539692 C421.9968,256.539692 415.8768,223.539692 438.3268,211.639692 L437.3268,199.739692 Z" opacity=".1"/>
    <path fill="#000" fill-rule="nonzero" d="M427.1968 320.119692C426.207295 324.155296 425.50223 328.255368 425.0868 332.389692L404.5168 333.169692C407.2668 327.399692 409.1068 323.879692 409.1068 323.879692L427.1968 320.119692zM345.8268 221.839692L333.9168 240.839692 332.9168 237.459692C337.2868 233.119692 342.4068 224.049692 344.4468 220.269692 345.2868 221.309692 345.8268 221.839692 345.8268 221.839692z" opacity=".1"/>
    <path fill="#E6E8EC" fill-rule="nonzero" d="M437.3268,199.739692 C437.3268,199.739692 422.7668,207.639692 407.7168,207.249692 C404.86319,207.160367 402.093006,208.219449 400.0268,210.189692 C395.7368,214.309692 388.2268,220.829692 383.5768,220.829692 C382.5768,220.829692 353.6368,226.609692 353.6368,226.609692 L345.9568,218.949692 C345.9568,218.949692 334.5568,241.229692 329.1168,240.209692 L338.9868,253.139692 C338.9868,253.139692 357.6968,261.299692 382.1868,251.439692 L396.4768,251.439692 L403.9568,274.559692 C403.9568,274.559692 400.2168,305.859692 397.1568,312.659692 C394.0968,319.459692 398.1568,332.729692 398.1568,332.729692 L425.0268,331.729692 C425.0268,331.729692 426.3868,318.459692 428.4268,316.729692 C430.4668,314.999692 421.2868,256.519692 421.2868,256.519692 C421.2868,256.519692 415.1668,223.519692 437.6168,211.619692 L437.3268,199.739692 Z"/>
    <path fill="#000" fill-rule="nonzero" d="M466.5868,197.679692 C466.5868,197.679692 480.4668,208.259692 498.9968,209.479692 C501.024243,209.606906 502.962766,210.357866 504.5468,211.629692 C509.220126,215.594252 513.180609,220.329244 516.2568,225.629692 C523.7368,237.879692 542.1068,236.519692 542.1068,236.519692 C542.1068,236.519692 559.9668,230.909692 560.9868,226.519692 C560.9868,226.519692 561.4968,250.519692 572.7268,244.719692 L557.9568,261.739692 C556.074978,263.912769 553.379018,265.211896 550.5068,265.329692 C544.9568,265.549692 535.3168,265.619692 527.1768,264.039692 C514.9268,261.659692 506.0868,255.879692 499.6268,260.979692 C499.6268,260.979692 491.1268,287.509692 496.9068,297.039692 C502.6868,306.569692 512.9068,322.549692 508.1368,326.639692 C503.3668,330.729692 497.5868,330.379692 488.0668,320.519692 C478.5468,310.659692 477.5168,293.989692 477.5168,293.989692 L479.8968,251.129692 C479.8968,251.129692 470.7168,218.809692 461.8968,212.349692 L466.5868,197.679692 Z" opacity=".1"/>
    <path fill="#000" fill-rule="nonzero" d="M574.0768,244.289692 L559.2668,261.379692 C558.282541,262.513425 557.064694,263.42084 555.6968,264.039692 L555.6968,264.039692 C554.480657,264.588523 553.170028,264.897506 551.8368,264.949692 C546.2868,265.179692 536.6468,265.249692 528.5068,263.659692 C517.0468,261.429692 508.5668,256.229692 502.2268,259.739692 C501.777418,259.987234 501.34929,260.271537 500.9468,260.589692 C500.9468,260.589692 492.4468,287.119692 498.2268,296.649692 C504.0068,306.179692 514.2268,322.159692 509.4568,326.249692 C508.658404,326.951886 507.762417,327.534614 506.7968,327.979692 C502.5168,329.909692 497.2068,328.239692 489.3868,320.129692 C479.8668,310.259692 478.8368,293.599692 478.8368,293.599692 L481.2168,250.739692 C481.2168,250.739692 472.0368,218.419692 463.2168,211.959692 L467.1068,198.009692 C469.7868,199.829692 483.1668,208.379692 499.7068,209.469692 C501.734243,209.596906 503.672766,210.347866 505.2568,211.619692 C509.929566,215.584807 513.889963,220.319697 516.9668,225.619692 C524.4468,237.869692 542.8168,236.509692 542.8168,236.509692 C547.220777,235.104762 551.521243,233.393932 555.6868,231.389692 L555.6868,231.389692 C558.2968,230.109692 560.5968,228.709692 561.6868,227.389692 C561.99278,227.044941 562.215201,226.634317 562.3368,226.189692 C562.3368,226.189692 562.8568,250.069692 574.0768,244.289692 Z" opacity=".1"/>
    <path fill="#E6E8EC" fill-rule="nonzero" d="M573.3968,244.629692 L558.5968,261.739692 C557.782961,262.678717 556.807572,263.464447 555.7168,264.059692 L555.7168,264.059692 C554.319209,264.818655 552.76591,265.246326 551.1768,265.309692 C545.6268,265.539692 535.9868,265.609692 527.8468,264.019692 C516.7968,261.869692 508.5068,256.949692 502.2568,259.759692 C501.542693,260.070578 500.870709,260.470408 500.2568,260.949692 C500.2568,260.949692 491.7568,287.479692 497.5368,297.009692 C503.3168,306.539692 513.5368,322.519692 508.7668,326.609692 C508.149863,327.140772 507.479627,327.606586 506.7668,327.999692 C502.3668,330.429692 496.9268,328.999692 488.6768,320.489692 C479.1568,310.619692 478.1268,293.959692 478.1268,293.959692 L480.5068,251.099692 C480.5068,251.099692 471.3268,218.779692 462.5068,212.319692 L466.5868,197.689692 L467.0768,198.029692 C469.7568,199.849692 483.1368,208.399692 499.6768,209.489692 C501.704243,209.616906 503.642766,210.367866 505.2268,211.639692 C509.899566,215.604807 513.859963,220.339697 516.9368,225.639692 C524.4168,237.889692 542.7868,236.529692 542.7868,236.529692 C547.190777,235.124762 551.491243,233.413932 555.6568,231.409692 L555.6568,231.409692 C558.7468,229.829692 561.2668,228.099692 561.6568,226.519692 C561.6568,226.519692 561.6568,226.829692 561.6568,227.379692 C561.9568,231.509692 563.4568,249.739692 573.3968,244.629692 Z"/>
    <path fill="#000" fill-rule="nonzero" d="M462.8068,181.189692 L437.8068,181.189692 C438.356623,185.1646 438.514048,189.183958 438.2768,193.189692 C446.053729,198.662149 456.216842,199.393032 464.6968,195.089692 C462.2968,190.649692 460.8368,185.609692 462.8068,181.189692 Z" opacity=".1"/>
    <circle cx="452.977" cy="172.51" r="24.83" fill="#EC8C9C" fill-rule="nonzero"/>
    <path fill="#000" fill-rule="nonzero" d="M447.8168,168.089692 C450.5868,167.759692 453.3568,166.779692 456.0868,167.329692 C458.5668,167.829692 460.6768,169.539692 463.1568,170.059692 C467.9368,171.059692 472.3768,167.539692 475.9868,164.259692 L483.7868,157.159692 C485.5168,155.589692 487.2968,153.939692 488.1868,151.779692 C489.0768,149.619692 488.7668,146.779692 486.8668,145.419692 C484.0168,143.419692 479.1068,145.419692 477.0468,142.579692 C476.1168,141.299692 476.2568,139.579692 475.7768,138.049692 C474.7768,134.989692 471.3368,133.319692 468.1168,133.279692 C464.8968,133.239692 461.8168,134.419692 458.7368,135.279692 C452.248311,137.161858 445.46425,137.809736 438.7368,137.189692 C436.921141,136.857261 435.055017,136.922081 433.2668,137.379692 C431.034606,138.332572 429.387013,140.288161 428.8268,142.649692 C427.2868,148.089692 429.9168,156.859692 432.5568,161.729692 C435.1968,166.599692 442.5468,168.739692 447.8168,168.089692 Z" opacity=".1"/>
    <path fill="#88455E" fill-rule="nonzero" d="M447.8168,167.409692 C450.5868,167.079692 453.3568,166.099692 456.0868,166.649692 C458.5668,167.149692 460.6768,168.859692 463.1568,169.379692 C467.9368,170.379692 472.3768,166.859692 475.9868,163.579692 L483.7868,156.479692 C485.5168,154.909692 487.2968,153.259692 488.1868,151.099692 C489.0768,148.939692 488.7668,146.099692 486.8668,144.739692 C484.0168,142.739692 479.1068,144.739692 477.0468,141.899692 C476.1168,140.619692 476.2568,138.899692 475.7768,137.369692 C474.7768,134.309692 471.3368,132.639692 468.1168,132.599692 C464.8968,132.559692 461.8168,133.739692 458.7368,134.599692 C452.248311,136.481858 445.46425,137.129736 438.7368,136.509692 C436.921141,136.177261 435.055017,136.242081 433.2668,136.699692 C431.034606,137.652572 429.387013,139.608161 428.8268,141.969692 C427.2868,147.409692 429.9168,156.179692 432.5568,161.049692 C435.1968,165.919692 442.5468,168.009692 447.8168,167.409692 Z"/>
    <path fill="#000" fill-rule="nonzero" d="M404.5068 274.739692C404.5068 274.739692 409.9468 275.419692 412.6668 278.819692 415.3868 282.219692 420.1468 283.239692 420.1468 283.239692M355.5168 229.829692C355.5168 229.829692 359.9568 239.739692 357.2168 240.739692 354.4768 241.739692 355.5168 248.899692 355.5168 248.899692" opacity=".1"/>
    <path fill="#000" fill-rule="nonzero" d="M.99 27.45C.99 27.45 29.9 21.67 30.9 21.67 35.56 21.67 43.06 15.15 47.35 11.03 48.6546339 9.78012376 50.2597069 8.88803385 52.01 8.44L51.64 8.44C48.7863904 8.35067438 46.0162061 9.40975656 43.95 11.38 39.66 15.5 32.15 22.02 27.5 22.02 26.69 22.02 8.19 25.69.68 27.18L.99 27.45zM81.31 2.19L81.31.92C74.3553415 4.46612955 66.8714704 6.86056304 59.15 8.01 66.8110904 7.32822189 74.3025859 5.36069014 81.31 2.19L81.31 2.19zM45.56 133.58C45.56 133.58 41.48 120.31 44.56 113.51 47.64 106.71 51.36 75.41 51.36 75.41L43.9 52.28 29.57 52.28 28.7 52.62 40.45 52.62 47.9 75.76C47.9 75.76 44.16 107.06 41.1 113.86 38.04 120.66 42.1 133.93 42.1 133.93L68.97 132.93 68.97 132.72 45.56 133.58z" opacity=".1" transform="translate(356.057 198.98)"/>
    <path fill="#000" fill-rule="nonzero" d="M31.05 77.19C30.4330634 77.7210792 29.7628274 78.1868932 29.05 78.58 24.65 81.01 19.21 79.58 10.96 71.07 3.4 63.24 1.2 51.07.61 46.46L.41 49.98C.41 49.98 1.41 66.65 10.96 76.51 19.21 85.05 24.65 86.45 29.05 84.02 29.7628274 83.6268932 30.4330634 83.1610792 31.05 82.63 32.48 81.4 32.56 79.09 31.81 76.21 31.6241096 76.5838008 31.3657704 76.9169224 31.05 77.19L31.05 77.19zM90.53 1.16L80.9 12.29C80.0861609 13.2290248 79.1107724 14.0147545 78.02 14.61L78.02 14.61C76.6224091 15.368963 75.0691098 15.7966335 73.48 15.86 67.93 16.09 58.29 16.16 50.15 14.57 39.1 12.42 30.81 7.5 24.56 10.31 23.8458933 10.6208855 23.1739095 11.0207158 22.56 11.5 22.56 11.5 17.07 28.64 17.91 40.31 18.56 29.4 22.56 16.94 22.56 16.94 23.1739095 16.4607158 23.8458933 16.0608855 24.56 15.75 30.82 12.94 39.1 17.86 50.15 20.01 58.29 21.59 67.92 21.52 73.48 21.3 75.0691098 21.2366335 76.6224091 20.808963 78.02 20.05L78.02 20.05C79.108357 19.4637262 80.0835875 18.6882825 80.9 17.76L95.71.67C94.1560154 1.63750742 92.2378393 1.81895652 90.53 1.16z" opacity=".1" transform="translate(478.057 243.98)"/>
    <path fill="url(#celebrate-a)" fill-rule="nonzero" d="M133.6968,367.629692 C133.940538,367.865873 134.310169,367.914616 134.6068,367.749692 C134.299193,367.75507 133.992498,367.714627 133.6968,367.629692 L133.6968,367.629692 Z"/>
    <path fill="#FFBDC6" fill-rule="nonzero" d="M168.0868,381.059692 L167.1868,385.949692 L166.4968,389.689692 L165.2368,396.529692 L153.0168,405.079692 C153.0168,405.079692 151.9168,404.139692 150.0968,402.649692 C145.0968,398.529692 134.5668,390.169692 126.8368,385.649692 C124.850352,384.381281 122.700662,383.388857 120.4468,382.699692 L168.0868,381.059692 Z"/>
    <path fill="#000" fill-rule="nonzero" d="M168.0868,381.059692 L167.1868,385.949692 C164.493196,386.099519 161.791296,385.962077 159.1268,385.539692 L130.6168,385.949692 C129.2668,385.869692 128.0068,385.759692 126.8268,385.639692 C124.840352,384.371281 122.690662,383.378857 120.4368,382.689692 L168.0868,381.059692 Z" opacity=".1"/>
    <path fill="#757575" fill-rule="nonzero" d="M159.1268,384.739692 C159.1268,384.739692 173.3868,387.179692 174.1968,381.069692 C175.0068,374.959692 166.8668,371.739692 159.9568,371.279692 C153.0468,370.819692 111.4768,373.739692 111.4768,373.739692 C111.4768,373.739692 104.1468,383.509692 130.6168,385.139692 L159.1268,384.739692 Z"/>
    <path fill="#000" fill-rule="nonzero" d="M168.0868,381.059692 L167.1868,385.949692 L166.4968,389.689692 L165.2368,396.529692 L153.0168,405.079692 C153.0168,405.079692 151.9168,404.139692 150.0968,402.649692 C145.0968,398.529692 134.5668,390.169692 126.8368,385.649692 C124.850352,384.381281 122.700662,383.388857 120.4468,382.699692 L168.0868,381.059692 Z" opacity=".1"/>
    <path fill="#000" fill-rule="nonzero" d="M168.0868,381.059692 L167.1868,385.949692 C164.493196,386.099519 161.791296,385.962077 159.1268,385.539692 L130.6168,385.949692 C129.2668,385.869692 128.0068,385.759692 126.8268,385.639692 C124.840352,384.371281 122.690662,383.378857 120.4368,382.689692 L168.0868,381.059692 Z" opacity=".1"/>
    <path fill="#000" fill-rule="nonzero" d="M159.1268,384.739692 C159.1268,384.739692 173.3868,387.179692 174.1968,381.069692 C175.0068,374.959692 166.8668,371.739692 159.9568,371.279692 C153.0468,370.819692 111.4768,373.739692 111.4768,373.739692 C111.4768,373.739692 104.1468,383.509692 130.6168,385.139692 L159.1268,384.739692 Z" opacity=".1"/>
    <rect width="74.53" height="88.38" x="115.747" y="183.93" fill="#A66477" fill-rule="nonzero"/>
    <rect width="74.53" height="88.38" x="115.747" y="183.93" fill="#000" fill-rule="nonzero" opacity=".1"/>
    <path fill="#FEDCB4" fill-rule="nonzero" d="M28.3867999 335.239692C27.1567999 335.549692 25.5967999 336.729692 23.8467999 338.449692 16.3167999 345.889692 5.57679993 363.339692 5.57679993 363.339692-8.18320007 346.959692 7.04679993 334.009692 13.5767999 329.559692 15.1567999 328.479692 16.2167999 327.899692 16.2167999 327.899692L28.3867999 335.239692zM167.2768 211.829692C167.2768 211.829692 170.9468 237.489692 183.5668 243.599692 196.1868 249.709692 167.2768 261.109692 167.2768 261.109692L127.7668 246.449692C127.7668 246.449692 150.1668 239.119692 145.6868 217.529692L167.2768 211.829692zM124.9568 366.189692L124.0568 371.079692 123.3668 374.819692 122.1068 381.659692 109.8868 390.209692C109.8868 390.209692 108.7868 389.269692 106.9668 387.779692 101.9668 383.659692 91.4367999 375.299692 83.7067999 370.779692 81.7203523 369.511281 79.5706618 368.518857 77.3167999 367.829692L124.9568 366.189692z"/>
    <path fill="#000" fill-rule="nonzero" d="M124.9568,366.189692 L124.0568,371.079692 C121.363196,371.229519 118.661296,371.092077 115.9968,370.669692 L87.4867999,371.079692 C86.1367999,370.999692 84.8767999,370.889692 83.6967999,370.769692 C81.7103523,369.501281 79.5606618,368.508857 77.3067999,367.819692 L124.9568,366.189692 Z" opacity=".1"/>
    <path fill="#757575" fill-rule="nonzero" d="M115.9568,369.859692 C115.9568,369.859692 130.2168,372.299692 131.0268,366.189692 C131.8368,360.079692 123.6968,356.819692 116.7668,356.419692 C109.8368,356.019692 68.2967999,358.859692 68.2967999,358.859692 C68.2967999,358.859692 60.9667999,368.629692 87.4367999,370.259692 L115.9568,369.859692 Z"/>
    <path fill="#000" fill-rule="nonzero" d="M123.3268,374.829692 L122.0668,381.669692 L109.8468,390.219692 C109.8468,390.219692 108.7468,389.279692 106.9268,387.789692 L123.0868,374.539692 L123.3268,374.829692 Z" opacity=".1"/>
    <path fill="#7A3814" fill-rule="nonzero" d="M203.9568,468.069692 C203.3968,467.796359 202.830133,467.506359 202.2568,467.199692 L200.7668,465.299692 L181.0868,440.299692 L181.0868,440.739692 C180.9568,444.889692 179.5368,477.989692 168.4768,481.039692 C156.6668,484.299692 142.4068,485.109692 135.8968,463.119692 C129.3868,441.129692 117.5668,393.069692 105.3468,390.219692 L123.4668,375.349692 C123.4668,375.349692 135.4668,389.349692 140.3668,402.829692 C140.1868,401.969692 131.8968,363.259692 138.7368,356.419692 L198.1968,356.419692 C198.1968,356.419692 207.3568,382.559692 213.6768,395.519692 C218.5768,405.579692 225.9268,429.359692 230.6768,445.449692 C235.3768,461.369692 218.9568,475.369692 203.9568,468.069692 Z"/>
    <path fill="#000" fill-rule="nonzero" d="M202.2968,363.739692 C193.1268,369.169692 152.8068,366.959692 139.6668,366.079692 L136.0968,365.819692 C135.7068,365.819692 136.1568,365.599692 136.1568,365.599692 L136.5268,361.899692 L146.2968,337.059692 L198.6368,306.739692 C197.5768,309.929692 197.2168,314.819692 197.3068,320.429692 C197.5668,338.409692 202.2968,363.739692 202.2968,363.739692 Z" opacity=".1"/>
    <path fill="#B9EFE9" fill-rule="nonzero" d="M202.2968,362.529692 C193.1268,367.959692 152.8068,365.749692 139.6668,364.869692 L136.0968,364.609692 L135.5068,364.609692 L136.1568,364.439692 L139.3768,363.589692 L146.2968,335.889692 L198.6368,305.549692 C197.5768,308.739692 197.2168,313.629692 197.3068,319.239692 C197.5668,337.189692 202.2968,362.529692 202.2968,362.529692 Z"/>
    <path fill="#000" fill-rule="nonzero" d="M197.3068 319.199692C186.6668 321.649692 163.2468 328.859692 154.2468 346.199692 148.2468 357.779692 143.2468 362.749692 139.6768 364.829692L136.1068 364.569692 136.1668 364.349692 139.3868 363.499692 146.3068 335.799692 198.6468 305.459692C197.5668 308.739692 197.2168 313.589692 197.3068 319.199692zM16.1667999 327.909692L28.3867999 335.239692C27.1567999 335.549692 25.5967999 336.729692 23.8467999 338.449692 22.8467999 335.449692 16.4267999 331.329692 13.5267999 329.569692 15.1067999 328.489692 16.1667999 327.909692 16.1667999 327.909692zM133.9568 365.079692C133.677044 365.235665 133.328292 365.191057 133.0968 364.969692 133.376455 365.048659 133.666272 365.085729 133.9568 365.079692L133.9568 365.079692z" opacity=".1"/>
    <path fill="#FFBCA3" fill-rule="nonzero" d="M161.5668,241.969692 C161.5668,241.969692 150.5668,243.189692 142.8268,235.049692 C142.8268,235.049692 110.2468,244.419692 99.2467999,265.599692 C88.2467999,286.779692 13.3067999,328.319692 13.3067999,328.319692 C13.3067999,328.319692 26.3067999,335.649692 25.1167999,339.319692 L74.3967999,310.809692 C74.3967999,310.809692 91.9067999,298.179692 96.7967999,295.329692 C101.6868,292.479692 128.5668,274.969692 134.2668,322.619692 C139.9668,370.269692 134.2668,364.619692 134.2668,364.619692 C134.2668,364.619692 142.4168,367.469692 154.2668,344.619692 C166.1168,321.769692 202.7368,316.519692 202.7368,316.519692 L204.7368,292.519692 C204.7368,292.519692 212.0068,276.599692 206.4368,269.959692 C204.738191,268.005871 203.610309,265.622095 203.1768,263.069692 C202.2468,256.969692 203.1768,246.799692 216.1768,238.349692 C236.1768,225.349692 243.8768,214.729692 243.8768,214.729692 C243.8768,214.729692 244.2868,206.989692 232.0668,203.329692 C219.8468,199.669692 170.1568,179.709692 170.1568,179.709692 L168.5268,186.629692 L207.6268,214.329692 C207.6268,214.329692 188.0768,230.209692 172.6268,229.809692 C172.5668,229.739692 175.4168,241.559692 161.5668,241.969692 Z"/>
    <path fill="#000" fill-rule="nonzero" d="M169.1168,222.999692 C168.15381,219.717882 167.402268,216.377695 166.8668,212.999692 L145.2768,218.739692 C146.22193,222.859574 146.052801,227.156836 144.7868,231.189692 C153.807822,233.596365 163.392918,230.365876 169.1168,222.989692 L169.1168,222.999692 Z" opacity=".1"/>
    <circle cx="151.187" cy="207.55" r="23.22" fill="#FEDCB4" fill-rule="nonzero"/>
    <path fill="#000" fill-rule="nonzero" d="M163.5268 154.739692C169.9668 155.469692 176.0968 158.239692 182.4368 159.739692 184.020943 160.236509 185.708883 160.302093 187.3268 159.929692 189.7868 159.169692 191.7868 156.589692 194.3268 156.669692 195.8968 156.669692 197.3268 157.789692 198.5868 158.819692 200.674116 160.403334 202.636567 162.145135 204.4568 164.029692 208.8268 168.779692 211.5468 175.179692 215.5368 180.339692 219.5268 185.499692 225.8168 189.519692 231.4868 187.149692 227.6368 202.149692 214.9968 213.619692 201.3368 214.549692 195.8868 214.919692 190.3368 213.789692 185.0268 215.389692 183.710875 215.926171 182.322241 216.263218 180.9068 216.389692 177.9068 216.389692 175.4268 213.599692 173.5268 210.889692 169.0868 204.509692 165.5268 197.269692 160.5268 191.459692 158.8768 189.539692 156.9268 187.709692 154.5968 187.359692 152.2668 187.009692 150.1168 188.119692 148.0368 189.199692 144.6068 190.979692 141.0968 192.819692 138.4368 195.859692 135.7768 198.899692 134.0968 203.449692 135.1968 207.569692 135.7868 209.789692 137.1468 211.789692 137.1968 214.119692 137.1968 217.819692 133.9768 220.529692 133.3268 224.119692 133.183597 225.635208 133.13017 227.157867 133.1668 228.679692 132.8768 233.619692 129.6568 237.679692 126.2768 240.769692 124.9668 241.979692 123.5068 243.269692 123.1268 245.139692 122.8668 246.409692 123.1268 247.759692 122.9568 249.049692 122.4668 252.259692 119.2668 253.879692 116.4368 254.299692 113.131572 254.784119 109.757 254.383863 106.6568 253.139692 110.6568 251.269692 113.0468 245.939692 112.1268 241.139692 110.8668 234.529692 104.2268 229.789692 104.7868 223.049692 105.099966 220.985695 105.720164 218.980163 106.6268 217.099692 108.075873 213.463487 109.128625 209.681627 109.7668 205.819692 110.421045 202.847365 110.355905 199.761761 109.5768 196.819692 108.7268 194.229692 106.9968 192.169692 105.5168 189.979692 103.512497 187.002395 101.930765 183.761526 100.8168 180.349692 100.413135 179.341336 100.258766 178.250459 100.3668 177.169692 100.689268 175.894778 101.385802 174.745498 102.3668 173.869692 106.0068 170.059692 109.9068 166.089692 114.7468 164.989692 117.059371 164.604465 119.411427 164.513743 121.7468 164.719692 125.824064 164.849424 129.905329 164.67561 133.9568 164.199692 137.2968 163.809692 142.9568 163.859692 145.7768 161.679692 148.4068 159.679692 149.8968 157.129692 153.1468 155.849692 156.463725 154.63538 160.028106 154.254218 163.5268 154.739692L163.5268 154.739692zM176.4368 394.499692C176.4368 394.499692 189.8768 420.969692 185.8068 429.119692M200.8068 465.299692L181.1268 440.299692 181.1268 440.739692C181.1268 440.739692 179.9868 432.659692 183.7368 435.379692 191.9468 441.319692 205.0868 451.059692 205.3668 452.739692 205.6468 454.419692 202.7068 461.159692 200.8068 465.299692z" opacity=".1"/>
    <path fill="#000" fill-rule="nonzero" d="M159.9 50.76C159.9 50.76 161.56 57.64 156.19 61.08 164.46 59.66 164.82 53.23 164.57 50.43 163.026387 50.679887 161.463415 50.7903325 159.9 50.76zM5.15 147.71C5.15 147.71 80.09 106.17 91.09 84.99 98.98 69.79 117.99 60.68 128.09 56.74 120.72 59.21 95.92 68.68 86.6 86.62 75.6 107.8.66 149.34.66 149.34L5.15 147.71zM174.48 47.53C187.23 43.53 199.42 33.66 199.42 33.66L160.32 5.96 161.21 2.16 157.47.66 155.84 7.58 194.94 35.28C188.665556 40.2122423 181.790657 44.3284452 174.48 47.53L174.48 47.53zM174.73 141.39C179.726024 139.684479 184.853094 138.39017 190.06 137.52L190.13 136.73C184.883789 137.88239 179.73498 139.440406 174.73 141.39L174.73 141.39zM127.34 184.06L126.98 184.06C126.700244 184.215973 126.351492 184.171365 126.12 183.95 126.399828 184.028115 126.689519 184.065169 126.98 184.06 128.32 183.28 130.33 177.2 126.12 142 121.62 104.42 103.96 107.37 94.29 111.69 104.17 108.97 117.77 111.32 121.64 143.63 125.85 178.83 123.84 184.92 122.5 185.69 124.236881 185.625416 125.917905 185.059286 127.34 184.06zM122.5 185.7C122.209519 185.705169 121.919828 185.668115 121.64 185.59 121.871492 185.811365 122.220244 185.855973 122.5 185.7L122.5 185.7z" opacity=".1" transform="translate(13.057 178.98)"/>
    <path fill="#A66477" fill-rule="nonzero" d="M163.5268,153.949692 C169.9668,154.679692 176.0968,157.449692 182.4368,158.949692 C184.020943,159.446509 185.708883,159.512093 187.3268,159.139692 C189.7868,158.379692 191.7868,155.799692 194.3268,155.879692 C195.8968,155.879692 197.3268,156.999692 198.5868,158.029692 C200.674116,159.613334 202.636567,161.355135 204.4568,163.239692 C208.8268,167.989692 211.5468,174.389692 215.5368,179.549692 C219.5268,184.709692 225.8168,188.729692 231.4868,186.359692 C227.6368,201.359692 214.9968,212.829692 201.3368,213.759692 C195.8868,214.129692 190.3368,212.999692 185.0268,214.599692 C183.710875,215.136171 182.322241,215.473218 180.9068,215.599692 C177.9068,215.599692 175.4268,212.809692 173.5268,210.099692 C169.0868,203.719692 165.5268,196.479692 160.5268,190.669692 C158.8768,188.749692 156.9268,186.919692 154.5968,186.569692 C152.2668,186.219692 150.1168,187.329692 148.0368,188.409692 C144.6068,190.189692 141.0968,192.029692 138.4368,195.069692 C135.7768,198.109692 134.0968,202.659692 135.1968,206.779692 C135.7868,208.999692 137.1468,210.999692 137.1968,213.329692 C137.1968,217.029692 133.9768,219.739692 133.3268,223.329692 C133.183597,224.845208 133.13017,226.367867 133.1668,227.889692 C132.8768,232.829692 129.6568,236.889692 126.2768,239.979692 C124.9668,241.189692 123.5068,242.479692 123.1268,244.349692 C122.8668,245.619692 123.1268,246.969692 122.9568,248.259692 C122.4668,251.469692 119.2668,253.089692 116.4368,253.509692 C113.131572,253.994119 109.757,253.593863 106.6568,252.349692 C110.6568,250.479692 113.0468,245.149692 112.1268,240.349692 C110.8668,233.739692 104.2268,228.999692 104.7868,222.259692 C105.099966,220.195695 105.720164,218.190163 106.6268,216.309692 C108.075873,212.673487 109.128625,208.891627 109.7668,205.029692 C110.421045,202.057365 110.355905,198.971761 109.5768,196.029692 C108.7268,193.439692 106.9968,191.379692 105.5168,189.189692 C103.512497,186.212395 101.930765,182.971526 100.8168,179.559692 C100.413135,178.551336 100.258766,177.460459 100.3668,176.379692 C100.689268,175.104778 101.385802,173.955498 102.3668,173.079692 C106.0068,169.269692 109.9068,165.299692 114.7468,164.199692 C117.059371,163.814465 119.411427,163.723743 121.7468,163.929692 C125.824064,164.059424 129.905329,163.88561 133.9568,163.409692 C137.2968,163.019692 142.9568,163.069692 145.7768,160.889692 C148.4068,158.889692 149.8968,156.339692 153.1468,155.059692 C156.463725,153.84538 160.028106,153.464218 163.5268,153.949692 Z"/>
    <path fill="#493545" fill-rule="nonzero" d="M661.7668 408.439692C661.7668 408.439692 656.0668 399.439692 647.5068 407.629692 638.9468 415.819692 632.8468 443.059692 632.8468 443.059692 632.8468 443.059692 629.5868 465.059692 640.5868 459.349692 640.5868 459.349692 653.5868 441.019692 657.2868 440.209692 660.9868 439.399692 665.0268 429.209692 665.0268 429.209692L661.7668 408.439692zM722.8568 430.429692C722.8568 430.429692 715.1168 426.759692 712.6768 429.619692 710.2368 432.479692 702.0868 460.979692 702.0868 460.979692 702.0868 460.979692 699.6468 479.719692 707.7868 478.899692 715.9268 478.079692 730.1868 448.739692 730.1868 448.739692L722.8568 430.429692z"/>
    <path fill="#000" fill-rule="nonzero" d="M722.8568,430.429692 C722.8568,430.429692 715.1168,426.759692 712.6768,429.619692 C710.2368,432.479692 702.0868,460.979692 702.0868,460.979692 C702.0868,460.979692 699.6468,479.719692 707.7868,478.899692 C715.9268,478.079692 730.1868,448.739692 730.1868,448.739692 L722.8568,430.429692 Z" opacity=".05"/>
    <path fill="#07454C" fill-rule="nonzero" d="M749.7368,375.039692 L767.2468,402.329692 C767.2468,402.329692 766.0268,408.439692 755.4368,407.219692 L719.1868,430.029692 C719.1868,430.029692 716.0368,457.799692 726.1068,455.279692 C727.7368,454.869692 739.1068,443.059692 747.2868,443.879692 L795.3568,425.139692 C795.3568,425.139692 806.7568,418.619692 800.6468,397.039692 C794.5368,375.459692 774.3368,325.419692 774.3368,325.419692 L742.4068,343.279692 L749.7368,375.039692 Z"/>
    <path fill="#000" fill-rule="nonzero" d="M749.7368,375.039692 L767.2468,402.329692 C767.2468,402.329692 766.0268,408.439692 755.4368,407.219692 L719.1868,430.029692 C719.1868,430.029692 716.0368,457.799692 726.1068,455.279692 C727.7368,454.869692 739.1068,443.059692 747.2868,443.879692 L795.3568,425.139692 C795.3568,425.139692 806.7568,418.619692 800.6468,397.039692 C794.5368,375.459692 774.3368,325.419692 774.3368,325.419692 L742.4068,343.279692 L749.7368,375.039692 Z" opacity=".05"/>
    <path fill="#07454C" fill-rule="nonzero" d="M760.7368,415.359692 C763.1768,430.839692 749.3368,432.059692 749.3368,432.059692 C749.3368,432.059692 687.0168,433.279692 679.6868,431.649692 C672.3568,430.019692 662.5768,434.499692 662.5768,434.499692 C649.9468,426.759692 660.1368,407.619692 660.1368,407.619692 C660.1368,407.619692 686.2068,406.809692 692.3168,405.619692 C698.4268,404.429692 729.3768,402.739692 729.3768,402.739692 C729.3768,402.739692 726.9368,387.669692 710.6368,349.389692 C699.5668,323.389692 707.6368,308.089692 714.0068,300.959692 C715.63228,299.067729 717.513745,297.41177 719.5968,296.039692 L769.6968,298.479692 C769.642893,301.006323 769.736385,303.533948 769.9768,306.049692 C770.833299,314.686658 773.078869,323.128648 776.6268,331.049692 C773.7768,331.049692 755.4468,348.159692 755.4468,348.159692 C755.4468,348.159692 758.2868,399.889692 760.7368,415.359692 Z"/>
    <path fill="#000" fill-rule="nonzero" d="M663.7968,409.249692 C663.7968,409.249692 689.8668,408.439692 695.9768,407.249692 C702.0868,406.059692 733.0368,404.399692 733.0368,404.399692 C733.0368,404.399692 730.5968,389.329692 714.2968,351.049692 C703.2268,325.049692 711.2968,309.749692 717.6668,302.619692 C719.29228,300.727729 721.173745,299.07177 723.2568,297.699692 L769.6768,299.959692 C769.6768,299.479692 769.6768,298.959692 769.6768,298.509692 L719.5768,296.069692 C717.493745,297.44177 715.61228,299.097729 713.9868,300.989692 C707.6468,308.129692 699.5468,323.419692 710.6168,349.419692 C726.9568,387.669692 729.3768,402.739692 729.3768,402.739692 C729.3768,402.739692 698.3768,404.369692 692.3168,405.589692 C686.2568,406.809692 660.1368,407.589692 660.1368,407.589692 C660.1368,407.589692 649.9568,426.739692 662.5768,434.509692 C662.5768,434.509692 662.9568,434.329692 663.5768,434.069692 C655.1868,425.439692 663.7968,409.249692 663.7968,409.249692 Z" opacity=".1"/>
    <rect width="25.25" height="63.94" x="713.077" y="146.55" fill="#493545" fill-rule="nonzero"/>
    <rect width="25.25" height="63.94" x="713.077" y="146.55" fill="#000" fill-rule="nonzero" opacity=".1"/>
    <path fill="#493545" fill-rule="nonzero" d="M752.7668,137.169692 C753.6368,137.409692 754.6168,137.439692 755.2068,138.639692 C755.57313,139.598723 755.772675,140.613361 755.7968,141.639692 L757.3868,161.399692 C757.409229,162.693408 757.659736,163.973021 758.1268,165.179692 C758.7968,166.519692 759.9068,166.679692 760.7768,167.539692 C762.5268,169.279692 763.0368,173.639692 762.5568,177.189692 C762.0768,180.739692 760.8668,183.779692 759.9168,186.989692 C758.5568,191.589692 757.6568,196.759692 755.7468,200.639692 C753.8368,204.519692 750.3668,206.639692 748.1268,203.379692 C745.8868,200.119692 746.1868,193.539692 745.7668,188.149692 C745.0668,179.149692 741.5568,171.389692 741.3168,162.329692 C741.1168,154.999692 743.0868,148.159692 744.3168,141.209692 C745.1968,136.439692 745.2468,130.649692 746.5268,126.359692 C747.5968,131.459692 749.6368,136.309692 752.7668,137.169692 Z"/>
    <path fill="#000" fill-rule="nonzero" d="M752.7668,137.169692 C753.6368,137.409692 754.6168,137.439692 755.2068,138.639692 C755.57313,139.598723 755.772675,140.613361 755.7968,141.639692 L757.3868,161.399692 C757.409229,162.693408 757.659736,163.973021 758.1268,165.179692 C758.7968,166.519692 759.9068,166.679692 760.7768,167.539692 C762.5268,169.279692 763.0368,173.639692 762.5568,177.189692 C762.0768,180.739692 760.8668,183.779692 759.9168,186.989692 C758.5568,191.589692 757.6568,196.759692 755.7468,200.639692 C753.8368,204.519692 750.3668,206.639692 748.1268,203.379692 C745.8868,200.119692 746.1868,193.539692 745.7668,188.149692 C745.0668,179.149692 741.5568,171.389692 741.3168,162.329692 C741.1168,154.999692 743.0868,148.159692 744.3168,141.209692 C745.1968,136.439692 745.2468,130.649692 746.5268,126.359692 C747.5968,131.459692 749.6368,136.309692 752.7668,137.169692 Z" opacity=".1"/>
    <path fill="#C77485" fill-rule="nonzero" d="M645.8768 109.079692L636.1068 117.229692C636.1068 117.229692 634.9468 115.869692 633.2168 113.669692 626.4268 104.999692 610.8168 83.2496925 621.8468 79.3596925 632.8768 75.4696925 641.5968 96.6796925 644.6768 105.439692 645.4568 107.659692 645.8768 109.079692 645.8768 109.079692zM822.2368 106.229692C818.1668 112.339692 812.4668 106.229692 812.4668 106.229692 812.4668 106.229692 811.7368 105.139692 810.7068 103.379692 807.3568 97.7096925 800.7868 85.1396925 805.1368 80.1596925 810.1368 74.4696925 822.5268 93.8896925 822.9068 102.999692 823.024494 104.119821 822.790311 105.248792 822.2368 106.229692L822.2368 106.229692zM722.0368 172.209692C722.0368 172.209692 730.1868 198.279692 727.7368 206.009692 725.2868 213.739692 745.2568 222.739692 745.2568 222.739692L768.0668 222.739692C768.0668 222.739692 776.2168 206.039692 774.1768 201.149692 772.1368 196.259692 754.6268 192.599692 754.6268 192.599692 754.6268 192.599692 744.4468 192.599692 744.8568 165.309692L722.0368 172.209692z"/>
    <path fill="#000" fill-rule="nonzero" d="M645.8768 109.079692L636.1068 117.229692C636.1068 117.229692 634.9468 115.869692 633.2168 113.669692 636.7668 113.039692 642.2768 107.859692 644.6868 105.439692 645.4568 107.659692 645.8768 109.079692 645.8768 109.079692zM822.2368 106.229692C818.1668 112.339692 812.4668 106.229692 812.4668 106.229692 812.4668 106.229692 811.7368 105.139692 810.7068 103.379692L810.8368 102.969692C813.4768 104.859692 821.6868 103.249692 822.9068 102.969692 823.030882 104.099733 822.796495 105.240183 822.2368 106.229692zM769.9568 306.039692C757.3568 311.789692 716.4168 301.549692 713.9568 300.939692 715.58228 299.047729 717.463745 297.39177 719.5468 296.019692L769.6468 298.459692C769.602472 300.99024 769.705982 303.521216 769.9568 306.039692z" opacity=".1"/>
    <path fill="#33CCAB" fill-rule="nonzero" d="M727.3368,194.609692 C727.3368,194.609692 717.5668,197.869692 703.7168,185.239692 C703.7168,185.239692 672.7168,154.689692 670.7168,147.359692 L646.7168,105.359692 C646.7168,105.359692 636.5368,116.359692 632.4568,114.729692 L659.3368,161.569692 C659.3368,161.569692 664.2268,170.569692 668.7068,172.969692 C668.7068,172.969692 702.1068,215.739692 702.5068,224.289692 C702.9068,232.839692 717.5568,255.739692 717.5568,255.739692 C717.5568,255.739692 722.4468,292.799692 713.8868,299.319692 C713.8868,299.319692 761.5368,311.539692 771.7168,303.389692 C771.7168,303.389692 767.2368,257.389692 771.7168,252.479692 C771.7168,252.479692 785.5668,236.189692 776.1968,218.269692 C776.1968,218.269692 774.1968,208.499692 779.4568,203.609692 C784.7168,198.719692 808.3768,162.469692 808.3768,162.469692 C808.3768,162.469692 814.0768,154.319692 814.0768,149.029692 C814.0768,149.029692 824.6668,113.189692 823.0768,103.819692 C823.0768,103.819692 813.7068,105.819692 810.8568,103.819692 C810.8568,103.819692 797.0068,145.819692 795.3768,147.399692 C793.7468,148.979692 782.3768,182.019692 767.2768,185.689692 C752.1768,189.359692 749.7668,190.979692 749.7668,190.979692 C749.7668,190.979692 779.0868,209.309692 764.8368,217.449692 C750.5868,225.589692 727.3368,194.609692 727.3368,194.609692 Z"/>
    <path fill="#000" fill-rule="nonzero" d="M745.8468,178.479692 C745.362974,174.643039 745.165762,170.775661 745.2568,166.909692 L722.4468,173.829692 C723.046997,175.34924 723.525177,176.914191 723.8768,178.509692 C726.4868,179.659692 730.0068,182.379692 733.0368,182.379692 C737.620257,182.529531 742.124442,181.158234 745.8468,178.479692 L745.8468,178.479692 Z" opacity=".1"/>
    <circle cx="732.627" cy="159.99" r="21.18" fill="#C77485" fill-rule="nonzero"/>
    <path fill="#000" fill-rule="nonzero" d="M707.4268,127.359692 C702.7668,127.719692 697.5668,130.939692 697.8268,135.609692 C697.9668,138.179692 699.7268,140.349692 700.4968,142.809692 C702.3468,148.759692 698.2268,154.729692 694.6068,159.809692 C690.9868,164.889692 687.6068,171.619692 690.7068,176.999692 C691.590415,178.294963 692.545216,179.54021 693.5668,180.729692 C697.3968,185.899692 697.3468,192.879692 699.0468,199.089692 C703.554655,215.585766 720.1678,225.683607 736.8868,222.089692 C733.855593,218.220413 732.343999,213.376199 732.6368,208.469692 C732.8668,204.909692 734.0168,201.189692 732.6368,197.899692 C730.8568,193.669692 725.6368,191.999692 722.9468,188.299692 C720.2568,184.599692 720.4368,179.469692 721.7368,175.059692 C723.0368,170.649692 725.2868,166.559692 726.3668,162.059692 C726.633373,160.746774 726.967145,159.4484 727.3668,158.169692 C729.2468,152.829692 734.8668,149.729692 740.3668,148.399692 C745.8668,147.069692 751.6468,146.989692 757.0168,145.239692 C762.3868,143.489692 767.6068,139.389692 768.2268,133.759692 C763.7068,135.569692 759.5168,130.849692 755.1568,128.679692 C747.9768,125.119692 739.7868,128.469692 732.3868,129.289692 C723.9568,130.229692 715.9568,126.739692 707.4268,127.359692 Z" opacity=".1"/>
    <path fill="#493545" fill-rule="nonzero" d="M707.0168,126.549692 C702.3568,126.909692 697.1568,130.129692 697.4168,134.799692 C697.5568,137.369692 699.3168,139.539692 700.0868,141.999692 C701.9368,147.949692 697.8168,153.919692 694.1968,158.999692 C690.5768,164.079692 687.1968,170.809692 690.2968,176.189692 C691.180415,177.484963 692.135216,178.73021 693.1568,179.919692 C696.9868,185.089692 696.9368,192.069692 698.6368,198.279692 C703.144655,214.775766 719.7578,224.873607 736.4768,221.279692 C733.445593,217.410413 731.933999,212.566199 732.2268,207.659692 C732.4568,204.099692 733.6068,200.379692 732.2268,197.089692 C730.4468,192.859692 725.2268,191.189692 722.5368,187.489692 C719.8468,183.789692 720.0268,178.659692 721.3268,174.249692 C722.6268,169.839692 724.8768,165.749692 725.9568,161.249692 C726.223373,159.936774 726.557145,158.6384 726.9568,157.359692 C728.8368,152.019692 734.4568,148.919692 739.9568,147.589692 C745.4568,146.259692 751.2368,146.179692 756.6068,144.429692 C761.9768,142.679692 767.1968,138.579692 767.8168,132.949692 C763.2968,134.759692 759.1068,130.039692 754.7468,127.869692 C747.5668,124.309692 739.3768,127.659692 731.9768,128.479692 C723.5668,129.409692 715.5968,125.879692 707.0168,126.549692 Z"/>
    <path fill="#000" fill-rule="nonzero" d="M753.6068 207.039692C753.6068 207.039692 762.0868 214.609692 763.7568 217.949692M771.9568 252.249692C771.9568 252.249692 761.3668 252.249692 756.4768 253.469692 751.5868 254.689692 739.7768 253.469692 739.7768 253.469692" opacity=".1"/>
    <path fill="#000" fill-rule="nonzero" d="M132.75 114.44C131.837062 114.962465 130.848664 115.340283 129.82 115.56 132.476179 116.148864 135.255888 115.750747 137.64 114.44 151.9 106.29 122.57 87.97 122.57 87.97L117.68 87.97C117.68 87.97 147.01 106.3 132.75 114.44zM191.09 1.55C191.09 1.29 191.03 1.04 190.99.81 189.314982 1.15712574 187.622551 1.41416159 185.92 1.58 187.638743 1.76904241 189.373567 1.75897573 191.09 1.55L191.09 1.55zM86.73 196.31C95.28 189.79 90.4 152.73 90.4 152.73 90.4 152.73 75.74 129.92 75.33 121.37 74.92 112.82 41.53 70.05 41.53 70.05 37.05 67.61 32.16 58.65 32.16 58.65 32.16 58.65 4.46 13.44.39 11.81L27.27 58.65C27.27 58.65 32.16 67.65 36.64 70.05 36.64 70.05 70.04 112.82 70.44 121.37 70.84 129.92 85.5 152.76 85.5 152.76 85.5 152.76 90.39 189.82 81.83 196.34 81.83 196.34 111.12 203.85 128.68 203.17 111.08 202.55 86.73 196.31 86.73 196.31zM95.52 91.95L95.28 91.64C95.001279 91.7224424 94.7172963 91.7859209 94.43 91.83 94.81 91.88 95.17 91.92 95.52 91.95z" opacity=".1" transform="translate(632.057 102.98)"/>
    <path fill="#000" fill-rule="nonzero" d="M51.99.76L51.74.81C51.31 13.32 42.63 42.71 42.63 42.71 42.63 48 36.93 56.15 36.93 56.15 36.93 56.15 13.31 92.4 8.01 97.29 2.71 102.18 4.75 111.95 4.75 111.95L4.8 112.05C4.64 108.76 5.04 103.66 8.41 100.54 13.7 95.65 37.33 59.4 37.33 59.4 37.33 59.4 43.03 51.25 43.03 45.96 43.03 46.02 53.62 10.18 51.99.76zM.27 146.21C.88 149.67.47 146.01.68 149.47.68 149.47 10.68 137.74 7.95 123.24 8.77 136.2.27 146.21.27 146.21z" opacity=".1" transform="translate(771.057 102.98)"/>
    <path stroke="#535461" stroke-width="2" d="M297.0668,578.739692 C297.0668,578.739692 282.5068,529.289692 299.7968,492.899692 C307.150291,477.680578 309.367965,460.486591 306.1168,443.899692 C304.510922,436.037122 302.187874,428.338261 299.1768,420.899692"/>
    <path fill="#F5DD48" fill-rule="nonzero" d="M309.9568 397.919692C309.9568 403.979692 298.9568 421.549692 298.9568 421.549692 298.9568 421.549692 287.9568 403.979692 287.9568 397.919692 287.652422 393.806828 289.674185 389.869237 293.193917 387.719869 296.713649 385.570501 301.139951 385.570501 304.659683 387.719869 308.179415 389.869237 310.201178 393.806828 309.8968 397.919692L309.9568 397.919692zM328.0668 431.479692C324.7768 436.569692 306.0168 445.349692 306.0168 445.349692 306.0168 445.349692 306.3568 424.639692 309.6468 419.549692 311.635795 415.948081 315.468429 413.757527 319.581175 413.87167 323.693921 413.985812 327.399159 416.385567 329.185332 420.091952 330.971506 423.798336 330.539982 428.191672 328.0668 431.479692zM327.2768 488.849692C321.8668 491.579692 301.2768 489.689692 301.2768 489.689692 301.2768 489.689692 312.0268 471.979692 317.4368 469.249692 320.971961 467.127157 325.397293 467.159974 328.900588 469.334703 332.403882 471.509432 334.396709 475.460797 334.06299 479.570681 333.729271 483.680565 331.125059 487.258655 327.3168 488.839692L327.2768 488.849692zM316.9068 532.109692C312.0368 535.709692 291.3768 537.339692 291.3768 537.339692 291.3768 537.339692 298.9768 518.069692 303.8568 514.459692 308.724495 511.501839 315.04499 512.749105 318.424151 517.334366 321.803311 521.919627 321.123268 528.32602 316.8568 532.099692L316.9068 532.109692zM282.9568 446.529692C287.3068 450.749692 307.5568 455.129692 307.5568 455.129692 307.5568 455.129692 302.5568 435.019692 298.2468 430.789692 295.505607 427.716903 291.27776 426.432446 287.290519 427.461078 283.303278 428.48971 280.224451 431.65915 279.311874 435.674542 278.399297 439.689935 279.805813 443.878757 282.9568 446.529692zM271.4868 497.289692C276.8968 500.019692 297.4868 498.129692 297.4868 498.129692 297.4868 498.129692 286.7768 480.419692 281.3668 477.739692 276.04584 475.530642 269.921851 477.801452 267.327481 482.945552 264.733111 488.089652 266.547417 494.364053 271.4868 497.329692L271.4868 497.289692zM267.0868 548.149692C271.9568 551.749692 292.6168 553.379692 292.6168 553.379692 292.6168 553.379692 285.0168 534.109692 280.1368 530.499692 277.017604 527.740777 272.60788 526.979772 268.744405 528.533658 264.88093 530.087543 262.226141 533.689888 261.885833 537.840212 261.545526 541.990536 263.57805 545.977218 267.1368 548.139692L267.0868 548.149692z"/>
    <path fill="#F5DD48" fill-rule="nonzero" d="M309.9568 397.919692C309.9568 403.979692 298.9568 421.549692 298.9568 421.549692 298.9568 421.549692 287.9568 403.979692 287.9568 397.919692 287.652422 393.806828 289.674185 389.869237 293.193917 387.719869 296.713649 385.570501 301.139951 385.570501 304.659683 387.719869 308.179415 389.869237 310.201178 393.806828 309.8968 397.919692L309.9568 397.919692zM328.0668 431.479692C324.7768 436.569692 306.0168 445.349692 306.0168 445.349692 306.0168 445.349692 306.3568 424.639692 309.6468 419.549692 311.635795 415.948081 315.468429 413.757527 319.581175 413.87167 323.693921 413.985812 327.399159 416.385567 329.185332 420.091952 330.971506 423.798336 330.539982 428.191672 328.0668 431.479692zM327.2768 488.849692C321.8668 491.579692 301.2768 489.689692 301.2768 489.689692 301.2768 489.689692 312.0268 471.979692 317.4368 469.249692 320.971961 467.127157 325.397293 467.159974 328.900588 469.334703 332.403882 471.509432 334.396709 475.460797 334.06299 479.570681 333.729271 483.680565 331.125059 487.258655 327.3168 488.839692L327.2768 488.849692zM316.9068 532.109692C312.0368 535.709692 291.3768 537.339692 291.3768 537.339692 291.3768 537.339692 298.9768 518.069692 303.8568 514.459692 308.724495 511.501839 315.04499 512.749105 318.424151 517.334366 321.803311 521.919627 321.123268 528.32602 316.8568 532.099692L316.9068 532.109692z" opacity=".1"/>
    <path fill="#444" fill-rule="nonzero" d="M316.9068,532.109692 C312.0368,535.709692 291.3768,537.339692 291.3768,537.339692 C291.3768,537.339692 298.9768,518.069692 303.8568,514.459692 C308.724495,511.501839 315.04499,512.749105 318.424151,517.334366 C321.803311,521.919627 321.123268,528.32602 316.8568,532.099692 L316.9068,532.109692 Z" opacity=".1"/>
    <path fill="#F5DD48" fill-rule="nonzero" d="M282.9568 446.529692C287.3068 450.749692 307.5568 455.129692 307.5568 455.129692 307.5568 455.129692 302.5568 435.019692 298.2468 430.789692 295.505607 427.716903 291.27776 426.432446 287.290519 427.461078 283.303278 428.48971 280.224451 431.65915 279.311874 435.674542 278.399297 439.689935 279.805813 443.878757 282.9568 446.529692zM271.4868 497.289692C276.8968 500.019692 297.4868 498.129692 297.4868 498.129692 297.4868 498.129692 286.7768 480.419692 281.3668 477.739692 276.04584 475.530642 269.921851 477.801452 267.327481 482.945552 264.733111 488.089652 266.547417 494.364053 271.4868 497.329692L271.4868 497.289692zM267.0868 548.149692C271.9568 551.749692 292.6168 553.379692 292.6168 553.379692 292.6168 553.379692 285.0168 534.109692 280.1368 530.499692 277.017604 527.740777 272.60788 526.979772 268.744405 528.533658 264.88093 530.087543 262.226141 533.689888 261.885833 537.840212 261.545526 541.990536 263.57805 545.977218 267.1368 548.139692L267.0868 548.149692z" opacity=".1"/>
    <path fill="#444" fill-rule="nonzero" d="M267.0868,548.149692 C271.9568,551.749692 292.6168,553.379692 292.6168,553.379692 C292.6168,553.379692 285.0168,534.109692 280.1368,530.499692 C277.017604,527.740777 272.60788,526.979772 268.744405,528.533658 C264.88093,530.087543 262.226141,533.689888 261.885833,537.840212 C261.545526,541.990536 263.57805,545.977218 267.1368,548.139692 L267.0868,548.149692 Z" opacity=".1"/>
    <path stroke="#535461" stroke-width="2" d="M591.7068,579.449692 C591.7068,579.449692 577.1468,529.999692 594.4368,493.609692 C601.790291,478.390578 604.007965,461.196591 600.7568,444.609692 C599.150922,436.747122 596.827874,429.048261 593.8168,421.609692"/>
    <path fill="#F5DD48" fill-rule="nonzero" d="M604.5768 398.619692C604.5768 404.679692 593.5768 422.249692 593.5768 422.249692 593.5768 422.249692 582.5768 404.679692 582.5768 398.619692 583.001927 392.875232 587.78663 388.431542 593.5468 388.431542 599.30697 388.431542 604.091673 392.875232 604.5168 398.619692L604.5768 398.619692zM622.7168 432.179692C619.4268 437.269692 600.6668 446.049692 600.6668 446.049692 600.6668 446.049692 601.0068 425.339692 604.2968 420.249692 606.285795 416.648081 610.118429 414.457527 614.231175 414.57167 618.343921 414.685812 622.049159 417.085567 623.835332 420.791952 625.621506 424.498336 625.189982 428.891672 622.7168 432.179692zM621.9568 489.549692C616.5468 492.279692 595.9568 490.389692 595.9568 490.389692 595.9568 490.389692 606.7068 472.679692 612.1168 469.949692 615.656557 467.807214 620.099156 467.832327 623.614465 470.014688 627.129773 472.197049 629.123076 476.167448 628.773229 480.290274 628.423381 484.413101 625.789572 487.990861 621.9568 489.549692L621.9568 489.549692zM611.5468 532.809692C606.6768 536.409692 586.0168 538.039692 586.0168 538.039692 586.0168 538.039692 593.6168 518.769692 598.4968 515.159692 603.364495 512.201839 609.68499 513.449105 613.064151 518.034366 616.443311 522.619627 615.763268 529.02602 611.4968 532.799692L611.5468 532.809692zM577.6168 447.229692C581.9668 451.449692 602.2168 455.829692 602.2168 455.829692 602.2168 455.829692 597.2168 435.719692 592.9068 431.489692 590.165607 428.416903 585.93776 427.132446 581.950519 428.161078 577.963278 429.18971 574.884451 432.35915 573.971874 436.374542 573.059297 440.389935 574.465813 444.578757 577.6168 447.229692L577.6168 447.229692zM566.1268 497.989692C571.5368 500.719692 592.1268 498.829692 592.1268 498.829692 592.1268 498.829692 581.3768 481.119692 575.9668 478.389692 570.64584 476.180642 564.521851 478.451452 561.927481 483.595552 559.333111 488.739652 561.147417 495.014053 566.0868 497.979692L566.1268 497.989692zM561.7368 548.849692C566.6068 552.449692 587.2668 554.079692 587.2668 554.079692 587.2668 554.079692 579.6668 534.809692 574.7868 531.199692 569.919105 528.241839 563.59861 529.489105 560.219449 534.074366 556.840289 538.659627 557.520332 545.06602 561.7868 548.839692L561.7368 548.849692z"/>
    <path fill="#F5DD48" fill-rule="nonzero" d="M604.5768 398.619692C604.5768 404.679692 593.5768 422.249692 593.5768 422.249692 593.5768 422.249692 582.5768 404.679692 582.5768 398.619692 583.001927 392.875232 587.78663 388.431542 593.5468 388.431542 599.30697 388.431542 604.091673 392.875232 604.5168 398.619692L604.5768 398.619692zM622.7168 432.179692C619.4268 437.269692 600.6668 446.049692 600.6668 446.049692 600.6668 446.049692 601.0068 425.339692 604.2968 420.249692 606.285795 416.648081 610.118429 414.457527 614.231175 414.57167 618.343921 414.685812 622.049159 417.085567 623.835332 420.791952 625.621506 424.498336 625.189982 428.891672 622.7168 432.179692zM621.9568 489.549692C616.5468 492.279692 595.9568 490.389692 595.9568 490.389692 595.9568 490.389692 606.7068 472.679692 612.1168 469.949692 615.656557 467.807214 620.099156 467.832327 623.614465 470.014688 627.129773 472.197049 629.123076 476.167448 628.773229 480.290274 628.423381 484.413101 625.789572 487.990861 621.9568 489.549692L621.9568 489.549692zM611.5468 532.809692C606.6768 536.409692 586.0168 538.039692 586.0168 538.039692 586.0168 538.039692 593.6168 518.769692 598.4968 515.159692 603.364495 512.201839 609.68499 513.449105 613.064151 518.034366 616.443311 522.619627 615.763268 529.02602 611.4968 532.799692L611.5468 532.809692z" opacity=".1"/>
    <path fill="#444" fill-rule="nonzero" d="M611.5468,532.809692 C606.6768,536.409692 586.0168,538.039692 586.0168,538.039692 C586.0168,538.039692 593.6168,518.769692 598.4968,515.159692 C603.364495,512.201839 609.68499,513.449105 613.064151,518.034366 C616.443311,522.619627 615.763268,529.02602 611.4968,532.799692 L611.5468,532.809692 Z" opacity=".1"/>
    <path fill="#F5DD48" fill-rule="nonzero" d="M577.6168 447.229692C581.9668 451.449692 602.2168 455.829692 602.2168 455.829692 602.2168 455.829692 597.2168 435.719692 592.9068 431.489692 590.165607 428.416903 585.93776 427.132446 581.950519 428.161078 577.963278 429.18971 574.884451 432.35915 573.971874 436.374542 573.059297 440.389935 574.465813 444.578757 577.6168 447.229692L577.6168 447.229692zM566.1268 497.989692C571.5368 500.719692 592.1268 498.829692 592.1268 498.829692 592.1268 498.829692 581.3768 481.119692 575.9668 478.389692 570.64584 476.180642 564.521851 478.451452 561.927481 483.595552 559.333111 488.739652 561.147417 495.014053 566.0868 497.979692L566.1268 497.989692zM561.7368 548.849692C566.6068 552.449692 587.2668 554.079692 587.2668 554.079692 587.2668 554.079692 579.6668 534.809692 574.7868 531.199692 569.919105 528.241839 563.59861 529.489105 560.219449 534.074366 556.840289 538.659627 557.520332 545.06602 561.7868 548.839692L561.7368 548.849692z" opacity=".1"/>
    <path fill="#444" fill-rule="nonzero" d="M561.7368,548.849692 C566.6068,552.449692 587.2668,554.079692 587.2668,554.079692 C587.2668,554.079692 579.6668,534.809692 574.7868,531.199692 C569.919105,528.241839 563.59861,529.489105 560.219449,534.074366 C556.840289,538.659627 557.520332,545.06602 561.7868,548.839692 L561.7368,548.849692 Z" opacity=".1"/>
    <path fill="#444" fill-rule="nonzero" d="M662.9568 15.2896925L656.6768 15.2896925C658.296998 15.3669983 659.828328 14.5466339 660.661571 13.1549708 661.494813 11.7633078 661.494813 10.0260772 660.661571 8.63441411 659.828328 7.24275105 658.296998 6.42238666 656.6768 6.49969248L605.7568 6.49969248C603.410942 6.61162228 601.566502 8.54616575 601.566502 10.8946925 601.566502 13.2432192 603.410942 15.1777627 605.7568 15.2896925L612.0368 15.2896925C609.690942 15.4016223 607.846502 17.3361658 607.846502 19.6846925 607.846502 22.0332192 609.690942 23.9677627 612.0368 24.0796925L603.2468 24.0796925C601.626602 24.0023867 600.095271 24.8227511 599.262029 26.2144141 598.428787 27.6060772 598.428787 29.3433078 599.262029 30.7349708 600.095271 32.1266339 601.626602 32.9469983 603.2468 32.8696925L654.1268 32.8696925C655.746998 32.9469983 657.278328 32.1266339 658.111571 30.7349708 658.944813 29.3433078 658.944813 27.6060772 658.111571 26.2144141 657.278328 24.8227511 655.746998 24.0023867 654.1268 24.0796925L662.9568 24.0796925C665.302658 23.9677627 667.147098 22.0332192 667.147098 19.6846925 667.147098 17.3361658 665.302658 15.4016223 662.9568 15.2896925L662.9568 15.2896925zM368.7368 40.9296925L363.9568 40.9296925C365.195495 40.9974455 366.370221 40.375124 367.009958 39.3122545 367.649696 38.249385 367.649696 36.9199999 367.009958 35.8571304 366.370221 34.794261 365.195495 34.1719395 363.9568 34.2396925L325.2368 34.2396925C323.46039 34.3368569 322.069762 35.8056273 322.069762 37.5846925 322.069762 39.3637576 323.46039 40.832528 325.2368 40.9296925L330.0168 40.9296925C328.778105 40.8619395 327.603379 41.484261 326.963641 42.5471304 326.323904 43.6099999 326.323904 44.939385 326.963641 46.0022545 327.603379 47.065124 328.778105 47.6874455 330.0168 47.6196925L323.3268 47.6196925C322.088105 47.5519395 320.913379 48.174261 320.273641 49.2371304 319.633904 50.2999999 319.633904 51.629385 320.273641 52.6922545 320.913379 53.755124 322.088105 54.3774455 323.3268 54.3096925L362.0468 54.3096925C363.285495 54.3774455 364.460221 53.755124 365.099958 52.6922545 365.739696 51.629385 365.739696 50.2999999 365.099958 49.2371304 364.460221 48.174261 363.285495 47.5519395 362.0468 47.6196925L368.7368 47.6196925C370.51321 47.522528 371.903838 46.0537576 371.903838 44.2746925 371.903838 42.4956273 370.51321 41.0268569 368.7368 40.9296925L368.7368 40.9296925z" opacity=".103"/>
    <path stroke="#29A389" d="M43.7367999,458.739692 C43.7367999,458.739692 61.2367999,493.089692 46.9767999,511.879692 C32.7167999,530.669692 48.2767999,581.879692 48.2767999,581.879692"/>
    <path fill="#33CCAB" fill-rule="nonzero" d="M48.9567999,447.999692 C48.9567999,454.619692 44.0967999,459.999692 44.0967999,459.999692 C44.0967999,459.999692 39.2367999,454.629692 39.2367999,447.999692 C39.2367999,441.369692 44.0967999,435.999692 44.0967999,435.999692 C44.0967999,435.999692 48.9567999,441.379692 48.9567999,447.999692 Z"/>
    <path stroke="#29A389" d="M52.8067999,458.739692 C52.8067999,458.739692 35.3067999,493.089692 49.5667999,511.879692 C63.8267999,530.669692 48.2667999,581.879692 48.2667999,581.879692"/>
    <path fill="#33CCAB" fill-rule="nonzero" d="M47.6267999,447.999692 C47.6267999,454.619692 52.4867999,459.999692 52.4867999,459.999692 C52.4867999,459.999692 57.3467999,454.629692 57.3467999,447.999692 C57.3467999,441.369692 52.4867999,435.999692 52.4867999,435.999692 C52.4867999,435.999692 47.6267999,441.379692 47.6267999,447.999692 Z"/>
    <path fill="#000" fill-rule="nonzero" d="M47.6267999,447.999692 C47.6267999,454.619692 52.4867999,459.999692 52.4867999,459.999692 C52.4867999,459.999692 57.3467999,454.629692 57.3467999,447.999692 C57.3467999,441.369692 52.4867999,435.999692 52.4867999,435.999692 C52.4867999,435.999692 47.6267999,441.379692 47.6267999,447.999692 Z" opacity=".1"/>
    <path stroke="#29A389" d="M59.9567999,458.739692 C59.9567999,458.739692 77.4567999,493.089692 63.1967999,511.879692 C48.9367999,530.669692 64.4967999,581.879692 64.4967999,581.879692"/>
    <path fill="#33CCAB" fill-rule="nonzero" d="M65.1267999 447.999692C65.1267999 454.619692 60.2667999 459.999692 60.2667999 459.999692 60.2667999 459.999692 55.4067999 454.629692 55.4067999 447.999692 55.4067999 441.369692 60.2667999 435.999692 60.2667999 435.999692 60.2667999 435.999692 65.1267999 441.379692 65.1267999 447.999692zM62.3967999 475.519692C57.8067999 480.289692 50.5767999 480.789692 50.5767999 480.789692 50.5767999 480.789692 50.7967999 473.549692 55.3867999 468.789692 59.9767999 464.029692 67.2067999 463.519692 67.2067999 463.519692 67.2067999 463.519692 66.9567999 470.739692 62.3967999 475.519692zM62.8567999 499.219692C58.2667999 503.989692 51.0367999 504.489692 51.0367999 504.489692 51.0367999 504.489692 51.2567999 497.249692 55.8467999 492.489692 60.4367999 487.729692 67.6667999 487.219692 67.6667999 487.219692 67.6667999 487.219692 67.4467999 494.439692 62.8567999 499.219692zM37.9567999 512.249692C42.2967999 517.249692 42.1467999 524.489692 42.1467999 524.489692 42.1467999 524.489692 34.9567999 523.619692 30.6167999 518.619692 26.2767999 513.619692 26.4267999 506.379692 26.4267999 506.379692 26.4267999 506.379692 33.6167999 507.249692 37.9567999 512.249692zM41.9567999 461.739692C47.4767999 465.399692 49.2667999 472.419692 49.2667999 472.419692 49.2667999 472.419692 42.1067999 473.509692 36.5867999 469.849692 31.0667999 466.189692 29.2767999 459.169692 29.2767999 459.169692 29.2767999 459.169692 36.4667999 458.059692 41.9567999 461.739692z"/>
    <path fill="#000" fill-rule="nonzero" d="M41.9567999,461.739692 C47.4767999,465.399692 49.2667999,472.419692 49.2667999,472.419692 C49.2667999,472.419692 42.1067999,473.509692 36.5867999,469.849692 C31.0667999,466.189692 29.2767999,459.169692 29.2767999,459.169692 C29.2767999,459.169692 36.4667999,458.059692 41.9567999,461.739692 Z" opacity=".1"/>
    <path stroke="#29A389" d="M69.0067999,458.739692 C69.0067999,458.739692 51.5067999,493.089692 65.7667999,511.879692 C80.0267999,530.669692 64.4667999,581.879692 64.4667999,581.879692"/>
    <path fill="#33CCAB" fill-rule="nonzero" d="M63.8267999,447.999692 C63.8267999,454.619692 68.6867999,459.999692 68.6867999,459.999692 C68.6867999,459.999692 73.5467999,454.629692 73.5467999,447.999692 C73.5467999,441.369692 68.6867999,435.999692 68.6867999,435.999692 C68.6867999,435.999692 63.8267999,441.379692 63.8267999,447.999692 Z"/>
    <path fill="#000" fill-rule="nonzero" d="M63.8267999,447.999692 C63.8267999,454.619692 68.6867999,459.999692 68.6867999,459.999692 C68.6867999,459.999692 73.5467999,454.629692 73.5467999,447.999692 C73.5467999,441.369692 68.6867999,435.999692 68.6867999,435.999692 C68.6867999,435.999692 63.8267999,441.379692 63.8267999,447.999692 Z" opacity=".1"/>
    <path fill="#33CCAB" fill-rule="nonzero" d="M65.2267999,476.029692 C60.5767999,480.749692 60.2267999,488.029692 60.2267999,488.029692 C60.2267999,488.029692 67.4567999,487.619692 72.1067999,482.899692 C76.7567999,478.179692 77.1067999,470.899692 77.1067999,470.899692 C77.1067999,470.899692 69.8767999,471.309692 65.2267999,476.029692 Z"/>
    <path fill="#000" fill-rule="nonzero" d="M65.2267999,476.029692 C60.5767999,480.749692 60.2267999,488.029692 60.2267999,488.029692 C60.2267999,488.029692 67.4567999,487.619692 72.1067999,482.899692 C76.7567999,478.179692 77.1067999,470.899692 77.1067999,470.899692 C77.1067999,470.899692 69.8767999,471.309692 65.2267999,476.029692 Z" opacity=".1"/>
    <path fill="#33CCAB" fill-rule="nonzero" d="M74.3367999,508.839692 C69.6867999,513.559692 69.3367999,520.839692 69.3367999,520.839692 C69.3367999,520.839692 76.5667999,520.429692 81.2167999,515.709692 C85.8667999,510.989692 86.2167999,503.709692 86.2167999,503.709692 C86.2167999,503.709692 78.9567999,504.119692 74.3367999,508.839692 Z"/>
    <path stroke="#29A389" d="M60.9567999 501.629692C60.9567999 501.629692 71.4867999 485.029692 86.2767999 484.629692M52.7267999 491.599692C52.7267999 491.599692 42.1967999 474.999692 27.4067999 474.599692M51.3567999 515.299692C51.3567999 515.299692 61.8867999 498.699692 76.6767999 498.299692"/>
    <circle cx="85.767" cy="484.54" r="2.73" fill="#33CCAB" fill-rule="nonzero"/>
    <circle cx="27.667" cy="474.74" r="2.73" fill="#33CCAB" fill-rule="nonzero"/>
    <path stroke="#29A389" d="M59.1067999,520.739692 C59.1067999,520.739692 48.5767999,504.139692 33.7867999,503.739692"/>
    <circle cx="34.047" cy="503.9" r="2.73" fill="#33CCAB" fill-rule="nonzero"/>
    <circle cx="76.877" cy="498.44" r="2.73" fill="#33CCAB" fill-rule="nonzero"/>
    <path fill="#A8A8A8" fill-rule="nonzero" d="M117.3368,561.889692 C117.3368,561.889692 91.9567999,556.809692 85.1767999,550.039692 C78.3967999,543.269692 47.9567999,531.429692 44.5667999,539.889692 C41.1767999,548.349692 -1.12320007,577.119692 27.6467999,582.199692 C56.4167999,587.279692 95.3367999,588.969692 103.7968,585.579692 C112.2568,582.189692 117.3368,561.889692 117.3368,561.889692 Z"/>
    <path fill="#000" fill-rule="nonzero" d="M27.6467999,579.049692 C56.4167999,584.129692 95.3367999,585.819692 103.7968,582.429692 C110.2368,579.849692 114.7168,567.429692 116.4868,561.709692 L117.3368,561.889692 C117.3368,561.889692 112.2568,582.199692 103.7968,585.579692 C95.3367999,588.959692 56.4167999,587.269692 27.6467999,582.199692 C19.3467999,580.729692 16.9667999,577.289692 17.8667999,572.939692 C18.5667999,575.739692 21.4667999,577.959692 27.6467999,579.049692 Z" opacity=".2"/>
    <path fill="#F5DD48" fill-rule="nonzero" d="M887.8868,466.519692 C887.8868,466.519692 896.2668,477.519692 884.0168,494.019692 C871.7668,510.519692 861.6668,524.529692 865.7568,534.849692 C865.7568,534.849692 884.2368,504.119692 899.2768,503.689692 C914.3168,503.259692 904.4368,484.989692 887.8868,466.519692 Z"/>
    <path fill="#000" fill-rule="nonzero" d="M887.8868,466.519692 C888.617044,467.579468 889.192812,468.737738 889.5968,469.959692 C904.2768,487.199692 912.0868,503.289692 897.9868,503.699692 C884.8468,504.079692 869.0868,527.569692 865.3068,533.509692 C865.431531,533.967725 865.581766,534.418428 865.7568,534.859692 C865.7568,534.859692 884.2368,504.129692 899.2768,503.699692 C914.3168,503.269692 904.4368,484.989692 887.8868,466.519692 Z" opacity=".1"/>
    <path fill="#FFD037" fill-rule="nonzero" d="M903.4668,480.479692 C903.4668,484.339692 903.0368,487.479692 902.4668,487.479692 C901.8968,487.479692 901.4668,484.349692 901.4668,480.479692 C901.4668,476.609692 902.0068,478.479692 902.5368,478.479692 C903.0668,478.479692 903.4668,476.629692 903.4668,480.479692 Z"/>
    <path fill="#FFD037" fill-rule="nonzero" d="M908.8168,485.089692 C905.4268,486.939692 902.4768,488.089692 902.2268,487.579692 C901.9768,487.069692 904.5068,485.229692 907.8968,483.389692 C911.2868,481.549692 909.9468,482.889692 910.2068,483.389692 C910.4668,483.889692 912.1968,483.239692 908.8168,485.089692 Z"/>
    <path fill="#F5DD48" fill-rule="nonzero" d="M843.6268,466.519692 C843.6268,466.519692 835.2468,477.519692 847.4968,494.019692 C859.7468,510.519692 869.8468,524.529692 865.7568,534.849692 C865.7568,534.849692 847.2768,504.119692 832.2368,503.689692 C817.1968,503.259692 827.0768,484.989692 843.6268,466.519692 Z"/>
    <path fill="#000" fill-rule="nonzero" d="M843.6268,466.519692 C842.896556,467.579468 842.320788,468.737738 841.9168,469.959692 C827.2368,487.199692 819.4268,503.289692 833.5268,503.699692 C846.6668,504.079692 862.4268,527.569692 866.2068,533.509692 C866.082069,533.967725 865.931834,534.418428 865.7568,534.859692 C865.7568,534.859692 847.2768,504.129692 832.2368,503.699692 C817.1968,503.269692 827.0768,484.989692 843.6268,466.519692 Z" opacity=".1"/>
    <path fill="#FFD037" fill-rule="nonzero" d="M828.0468,536.479692 C828.0468,540.339692 828.4768,543.479692 829.0468,543.479692 C829.6168,543.479692 830.0468,540.349692 830.0468,536.479692 C830.0468,532.609692 829.5068,534.479692 828.9768,534.479692 C828.4468,534.479692 828.0468,532.629692 828.0468,536.479692 Z"/>
    <path fill="#FFD037" fill-rule="nonzero" d="M822.6968,541.089692 C826.0868,542.939692 829.0368,544.089692 829.2868,543.579692 C829.5368,543.069692 827.0068,541.229692 823.6168,539.389692 C820.2268,537.549692 821.5668,538.889692 821.3068,539.389692 C821.0468,539.889692 819.3068,539.239692 822.6968,541.089692 Z"/>
    <path fill="#A8A8A8" fill-rule="nonzero" d="M830.7168,533.409692 C830.7168,533.409692 854.1468,532.689692 861.2068,527.659692 C868.2668,522.629692 897.2068,516.659692 898.9968,524.659692 C900.7868,532.659692 934.2068,564.769692 907.7568,564.979692 C881.3068,565.189692 846.2968,560.859692 839.2468,556.569692 C832.1968,552.279692 830.7168,533.409692 830.7168,533.409692 Z"/>
    <path fill="#000" fill-rule="nonzero" d="M908.2268,562.209692 C881.7768,562.419692 846.7668,558.089692 839.7168,553.799692 C834.3468,550.529692 832.2068,538.799692 831.4968,533.389692 L830.7168,533.389692 C830.7168,533.389692 832.1968,552.289692 839.2468,556.579692 C846.2968,560.869692 881.3068,565.209692 907.7568,564.989692 C915.3968,564.929692 918.0268,562.209692 917.8868,558.189692 C916.8268,560.639692 913.9568,562.159692 908.2268,562.209692 Z" opacity=".2"/>
    <path fill="#444" fill-rule="nonzero" d="M170.8968,74.6196925 L164.6168,74.6196925 C166.236998,74.6969983 167.768328,73.8766339 168.601571,72.4849708 C169.434813,71.0933078 169.434813,69.3560772 168.601571,67.9644141 C167.768328,66.5727511 166.236998,65.7523867 164.6168,65.8296925 L113.7368,65.8296925 C111.390942,65.9416223 109.546502,67.8761658 109.546502,70.2246925 C109.546502,72.5732192 111.390942,74.5077627 113.7368,74.6196925 L120.0168,74.6196925 C117.670942,74.7316223 115.826502,76.6661658 115.826502,79.0146925 C115.826502,81.3632192 117.670942,83.2977627 120.0168,83.4096925 L111.2268,83.4096925 C108.880942,83.5216223 107.036502,85.4561658 107.036502,87.8046925 C107.036502,90.1532192 108.880942,92.0877627 111.2268,92.1996925 L162.1068,92.1996925 C163.726998,92.2769983 165.258328,91.4566339 166.091571,90.0649708 C166.924813,88.6733078 166.924813,86.9360772 166.091571,85.5444141 C165.258328,84.1527511 163.726998,83.3323867 162.1068,83.4096925 L170.8968,83.4096925 C173.242658,83.2977627 175.087098,81.3632192 175.087098,79.0146925 C175.087098,76.6661658 173.242658,74.7316223 170.8968,74.6196925 L170.8968,74.6196925 Z" opacity=".103"/>
    <circle cx="88.187" cy="66.01" r="46.49" fill="#F5DD48" fill-rule="nonzero"/>
  </g>
</svg>
