<svg xmlns="http://www.w3.org/2000/svg" width="420" height="267" viewBox="0 0 420 267">
  <defs>
    <linearGradient id="celebrate2-a" x1="49.5%" x2="49.5%" y1="61.148%" y2="39.148%">
      <stop offset="0%" stop-color="gray" stop-opacity=".25"/>
      <stop offset="54%" stop-color="gray" stop-opacity=".12"/>
      <stop offset="100%" stop-color="gray" stop-opacity=".1"/>
    </linearGradient>
  </defs>
  <g fill="none">
    <ellipse cx="205.025" cy="248.518" fill="#FFBCA3" opacity=".402" rx="189.95" ry="18.467"/>
    <path fill="#FFBCA3" d="M38.1374813,74.3652409 C46.7842608,93.9057829 35.7543013,116.406879 22.7708429,133.350288 C18.4253047,139.03207 13.6279367,144.988633 13.0254972,152.115236 C12.299026,160.832915 18.1993898,168.845911 25.19832,174.084496 C37.9647229,183.630953 55.4000324,186.582643 70.5939123,181.765095 C83.7235509,177.603478 94.7623698,168.203276 108.007181,164.413944 C130.155694,158.067368 153.633117,168.588857 172.601104,181.698615 C186.027533,190.965858 200.406347,202.258509 216.592481,200.272988 C227.981246,198.876919 237.646857,190.877218 244.207247,181.459289 C247.374484,176.912091 250.129759,171.815329 254.74108,168.748408 C257.483065,166.922437 260.703459,165.956269 263.923853,165.264882 C293.332649,158.975921 324.544333,174.323822 353.563315,166.430489 C373.164749,161.112129 388.79274,145.600245 398.511508,127.752714 C408.230275,109.905183 412.766291,89.7530299 416.544827,69.7870191 C419.229227,55.6047251 421.457367,40.2834155 415.286791,27.240137 C408.75741,13.4301282 393.643264,5.05814271 378.453814,3.48922643 C363.264364,1.92031016 348.030617,6.25034181 334.037186,12.3575922 C316.55315,20.007167 299.41463,30.714799 280.331472,30.7502548 C267.334724,30.7768466 254.940416,25.7864518 242.5151,21.9793923 C221.739795,15.6195198 200.136135,12.4595274 178.607781,9.5432932 C157.996375,6.75115406 137.181202,4.15402147 116.445764,5.80271315 C101.774589,6.96832044 88.8177089,12.5791905 74.5806447,15.1763231 C65.3004177,16.8693345 55.9758937,15.6195198 46.8684251,18.4559786 C35.6524181,21.9660964 24.1174725,30.0987556 23.4973142,42.9071399 C22.9125934,55.0994808 33.5527391,63.9988704 38.1374813,74.3652409 Z" opacity=".402"/>
    <path fill="#444176" d="M183.897748 226.636085L176.313879 233.369461C174.576973 240.253424 170.309016 241.419395 170.309016 241.419395 158.777634 243.321089 163.988351 233.244689 163.988351 233.244689L171.30286 221.778589 172.203822 220.363074C172.203822 220.363074 177.419183 218.900232 180.892994 219.777938 181.331576 219.889314 181.736723 220.09244 182.077248 220.371679 184.255346 222.122787 183.897748 226.636085 183.897748 226.636085zM229.625555 232.963785C224.541959 234.41468 220.956639 229.191459 221.277385 227.881387 221.59813 226.571314 216.633166 216.282764 216.633166 216.282764L217.019818 213.568738 217.380107 211.055276 225.728277 211.635634 226.514763 213.240153 231.409427 223.247058C231.409427 223.247058 234.709151 231.51289 229.625555 232.963785z"/>
    <path fill="#000" d="M182.864322 221.787692C182.056044 223.270436 175.504028 222.521819 172.311558 222.05816L173.187568 220.46916C173.187568 220.46916 178.258494 218.827033 181.636101 219.812309 182.062537 219.937336 182.456464 220.165357 182.787558 220.47882 182.832713 221.280564 182.864322 221.787692 182.864322 221.787692zM226.130653 213.619948C221.388002 216.86586 216.338273 214.411389 215.577889 214.00565L215.977578 211.055276 225.238664 211.736517 226.130653 213.619948z" opacity=".1"/>
    <path fill="#476D71" d="M227.346571,198.348565 C225.84664,200.745091 227.346571,211.837833 227.346571,211.837833 C222.392386,216.335725 216.542653,213.036096 216.542653,213.036096 L215.66034,185.912182 C215.66034,185.912182 205.906373,163.581319 199.002277,164.18045 C192.09818,164.779582 180.694289,188.907839 180.694289,188.907839 C180.694289,188.907839 183.844145,209.586685 183.244172,211.375269 C182.6442,213.163852 183.244172,221.864475 183.244172,221.864475 C182.19422,223.661869 171.240309,221.864475 171.240309,221.864475 L168.090452,182.898903 L172.272614,174.202686 C174.676916,165.691495 178.762024,156.581173 181.20603,151.470934 C182.41921,148.92903 183.230938,147.378337 183.230938,147.378337 L191.215867,145.71751 L217.133802,140.351759 L226.446612,174.202686 C228.24653,177.497909 229.296482,184.991458 229.296482,184.991458 C229.296482,184.991458 228.846503,195.952039 227.346571,198.348565 Z"/>
    <g fill="#000" opacity=".1" transform="translate(165.98 140.352)">
      <path d="M52.8820101,72.6399497 L51.9702513,45.6829146 C51.9702513,45.6829146 41.8907578,23.4894419 34.7562452,24.0848872 C34.437269,24.1147342 34.1233654,24.1823819 33.8216925,24.2862878 C40.7784121,26.5060729 49.4902673,45.6829146 49.4902673,45.6829146 L50.4020261,72.6399497 C52.3041643,73.5706138 54.4482348,73.9465302 56.5700744,73.7213835 C55.2838897,73.5728141 54.0352587,73.206684 52.8820101,72.6399497 Z"/>
      <path d="M6.0495196,81.4271464 L2.7945407,42.7013097 L7.13451256,34.0454613 C9.61905528,25.5866353 13.8404985,16.5323639 16.3660704,11.4535657 C17.6197387,8.9273014 18.4585568,7.38614883 18.4585568,7.38614883 L26.7099739,5.7355394 L51.1587859,0.853763498 L51.0265809,0.385288143 L24.2299899,5.7355394 L15.9785729,7.38614883 C15.9785729,7.38614883 15.1397548,8.9273014 13.8860864,11.4535657 C11.351397,16.5323639 7.13907136,25.6041484 4.65452864,34.0454613 L0.314556784,42.6837966 L3.56953568,81.4096333 C3.56953568,81.4096333 9.7512603,82.3859885 13.4165307,82.171453 C10.9493601,82.0428519 8.49054574,81.7944321 6.0495196,81.4271464 L6.0495196,81.4271464 Z"/>
    </g>
    <path fill="#CED2DF" d="M153.95602,100.251256 C153.95602,100.251256 145.972735,100.728541 147.092619,110.479467 L149.332385,110.80402 L152.692035,106.584824 L154.371859,103.014734 L154.371859,102.203351 L153.95602,100.251256 Z"/>
    <path fill="#000" d="M153.95602,100.251256 C153.95602,100.251256 145.972735,100.728541 147.092619,110.479467 L149.332385,110.80402 L152.692035,106.584824 L154.371859,103.014734 L154.371859,102.203351 L153.95602,100.251256 Z" opacity=".1"/>
    <path fill="#CED2DF" d="M250.86397,102.361809 C250.86397,102.361809 258.329997,106.324924 256.421494,110.926799 L254.041698,111.859296 L250.868637,110.115526 L250.40201,105.993887 L250.719316,103.140444 L250.86397,102.361809 Z"/>
    <path fill="#000" d="M250.86397,102.361809 C250.86397,102.361809 258.329997,106.324924 256.421494,110.926799 L254.041698,111.859296 L250.868637,110.115526 L250.40201,105.993887 L250.719316,103.140444 L250.86397,102.361809 Z" opacity=".1"/>
    <rect width="24.271" height="18.995" x="189.196" y="64.372" fill="#88455E" rx="9.497"/>
    <path fill="#EC8C9C" d="M156.482412 102.626179L150.934243 110.80402 150.468402 109.349225 142.931091 86.6578687C142.673322 85.8843409 142.71449 85.0520896 143.047551 84.3035113 144.952842 80.0252092 151.670272 65.795766 154.106622 72.4456419 156.95757 80.1930702 149.191997 88.5516845 149.191997 88.5516845 150.077095 95.3349883 154.19979 100.250301 155.820918 101.954735 156.230858 102.39806 156.482412 102.626179 156.482412 102.626179zM250.40201 104.918461C250.40201 104.918461 258.528791 97.0733339 258.220399 93.9069003 258.220399 93.9069003 250.53666 81.2367312 254.380701 78.385167 257.421186 76.1145592 262.038379 87.556294 263.827922 92.4212487 264.30679 93.7329955 264.193927 95.1936954 263.51953 96.4125515L253.807353 113.969849 250.40201 104.918461zM195.89599 84.4387291C195.89599 84.4387291 197.381344 93.4833608 193.073816 96.8776944 188.766287 100.272028 205.410997 100.251256 205.410997 100.251256L211.356784 95.0205743C211.356784 95.0205743 204.519784 88.9423491 206.59928 84.4221106L195.89599 84.4387291z"/>
    <path fill="#000" d="M195.282503,93.4638306 C195.282503,93.4638306 201.751361,98.2643103 208.215797,92.8643216 L218.743719,114.609745 L218.142376,141.151241 C218.142376,141.151241 196.330431,152.396442 187.305866,145.502089 C178.281302,138.607736 185.802509,135.006274 185.802509,135.006274 L183.697809,114.614154 L185.952845,101.41614 C185.952845,101.41614 190.011909,95.1168883 190.317003,95.1168883 C190.622096,95.1168883 195.282503,93.4638306 195.282503,93.4638306 Z" opacity=".1"/>
    <path fill="#EBF1F6" d="M195.278081,93.4638306 C195.278081,93.4638306 201.746939,98.2731266 208.215797,92.8643216 L218.743719,114.609745 L218.142376,141.151241 C218.142376,141.151241 196.330431,152.396442 187.305866,145.502089 C178.281302,138.607736 185.802509,135.006274 185.802509,135.006274 L183.697809,114.614154 L185.952845,101.41614 C185.952845,101.41614 190.011909,95.1168883 190.317003,95.1168883 C190.622096,95.1168883 195.278081,93.4638306 195.278081,93.4638306 Z"/>
    <path fill="#000" d="M195.089966,92.8643216 C195.089966,92.8643216 189.019452,96.3115631 182.428108,96.1413828 C181.179163,96.1024047 179.96673,96.5645455 179.062409,97.4242803 C177.184795,99.2220821 173.897876,102.067147 171.862701,102.067147 C171.425028,102.067147 158.758794,104.589306 158.758794,104.589306 L155.410601,101.251155 C155.410601,101.251155 150.421138,110.973248 148.040201,110.528161 L152.360026,116.170292 C152.360026,116.170292 160.548873,119.730987 171.267466,115.428481 L177.521803,115.428481 L180.795591,125.52148 C180.795591,125.52148 179.158697,139.179538 177.81942,142.146784 C176.480143,145.11403 178.257092,150.904523 178.257092,150.904523 L190.017345,150.468163 C190.017345,150.468163 190.612579,144.67767 191.50543,143.922768 C192.398282,143.167865 188.380451,117.649551 188.380451,117.649551 C188.380451,117.649551 185.701897,103.249682 195.527638,98.0570018 L195.089966,92.8643216 Z" opacity=".1"/>
    <path fill="#000" d="M190.251256 144.572864C189.79085 146.530877 189.462791 148.520169 189.269496 150.526079L179.698492 150.904523C180.978038 148.105008 181.834171 146.397158 181.834171 146.397158L190.251256 144.572864zM153.316583 102.031426L149.422441 110.80402 149.095477 109.243422C150.52431 107.239577 152.198366 103.051817 152.865373 101.306533 153.140022 101.786717 153.316583 102.031426 153.316583 102.031426z" opacity=".1"/>
    <path fill="#E6E8EC" d="M195.400713,92.8643216 C195.400713,92.8643216 189.028206,96.3120815 182.441238,96.1418756 C181.192293,96.1028917 179.97986,96.5651019 179.075539,97.424966 C177.197925,99.2230383 173.911007,102.068531 171.875831,102.068531 C171.438159,102.068531 158.771924,104.591069 158.771924,104.591069 L155.410601,101.248052 C155.410601,101.248052 150.421138,110.971607 148.040201,110.526454 L152.360026,116.169433 C152.360026,116.169433 160.548873,119.730663 171.267466,115.42751 L177.521803,115.42751 L180.795591,125.517663 C180.795591,125.517663 179.158697,139.177775 177.81942,142.145467 C176.480143,145.113159 178.257092,150.904523 178.257092,150.904523 L190.017345,150.468097 C190.017345,150.468097 190.612579,144.676734 191.50543,143.921718 C192.398282,143.166702 188.380451,117.64455 188.380451,117.64455 C188.380451,117.64455 185.701897,103.242515 195.527638,98.0490542 L195.400713,92.8643216 Z"/>
    <path fill="#000" d="M209.189863,90.7537688 C209.189863,90.7537688 215.2692,95.4262734 223.385202,95.9650688 C224.273207,96.021251 225.122265,96.3529014 225.81606,96.9145853 C227.862942,98.6654757 229.597604,100.756617 230.944953,103.097484 C234.221137,108.50752 242.26706,107.906895 242.26706,107.906895 C242.26706,107.906895 250.089607,105.429319 250.53636,103.490539 C250.53636,103.490539 250.759736,114.089793 255.678392,111.528307 L249.209242,119.044945 C248.385018,120.004653 247.204208,120.578393 245.946198,120.630416 C243.515339,120.727576 239.293091,120.758491 235.727832,120.060707 C230.362423,119.009614 226.490569,116.45696 223.661137,118.709302 C223.661137,118.709302 219.9382,130.425894 222.469797,134.634681 C225.001394,138.843468 229.477678,145.900805 227.388454,147.707094 C225.299229,149.513384 222.767632,149.358812 218.597943,145.004285 C214.428254,140.649758 213.977122,133.287692 213.977122,133.287692 L215.019544,114.359191 C215.019544,114.359191 210.998773,100.085529 207.135678,97.2325629 L209.189863,90.7537688 Z" opacity=".1"/>
    <path fill="#000" d="M255.678392,111.305651 L249.193478,118.894926 C248.762496,119.39839 248.229233,119.801352 247.630268,120.076171 L247.630268,120.076171 C247.09775,120.319894 246.52386,120.457106 245.940074,120.480281 C243.509873,120.582418 239.288767,120.613504 235.724473,119.907421 C230.706437,118.91713 226.993265,116.60793 224.217144,118.16664 C224.020371,118.276567 223.832905,118.40282 223.656665,118.544105 C223.656665,118.544105 219.934736,130.325467 222.465648,134.55752 C224.99656,138.789574 229.471632,145.885924 227.382973,147.702199 C227.033376,148.014026 226.641047,148.272803 226.218228,148.470452 C224.344127,149.32752 222.019016,148.585912 218.594841,144.984448 C214.426281,140.601408 213.975271,133.203086 213.975271,133.203086 L215.017411,114.169947 C215.017411,114.169947 210.997727,99.8173797 207.135678,96.9486425 L208.839008,90.7537688 C210.012511,91.5619889 215.871265,95.358847 223.113701,95.8428908 C224.001466,95.8993836 224.850295,96.2328673 225.543902,96.7976563 C227.589985,98.5584725 229.32414,100.661128 230.671407,103.014734 C233.946704,108.454677 241.99045,107.850732 241.99045,107.850732 C243.918837,107.226835 245.801899,106.467095 247.625889,105.577058 L247.625889,105.577058 C248.76874,105.008639 249.77585,104.386932 250.253133,103.80075 C250.387114,103.647654 250.484506,103.465305 250.537751,103.267858 C250.537751,103.267858 250.765445,113.872416 255.678392,111.305651 Z" opacity=".1"/>
    <path fill="#E6E8EC" d="M255.678392,111.491771 L249.19961,119.050937 C248.843347,119.465796 248.416365,119.81293 247.938874,120.075908 L247.938874,120.075908 C247.327071,120.411217 246.647105,120.600161 245.951464,120.628156 C243.52192,120.72977 239.301957,120.760696 235.738626,120.058237 C230.901428,119.108371 227.272434,116.934724 224.536462,118.176177 C224.223858,118.313525 223.929693,118.49017 223.660951,118.701916 C223.660951,118.701916 219.940028,130.42282 222.470256,134.633156 C225.000483,138.843492 229.474344,145.903425 227.38625,147.710379 C227.116183,147.945009 226.822783,148.150805 226.510739,148.324479 C224.584615,149.398048 222.203225,148.766277 218.591741,145.006575 C214.424308,140.646028 213.97342,133.285672 213.97342,133.285672 L215.015278,114.350205 C215.015278,114.350205 210.996682,100.071291 207.135678,97.217275 L208.921721,90.7537688 L209.136221,90.9039802 C210.309406,91.7080527 216.166576,95.4854264 223.407052,95.9669864 C224.294577,96.0231892 225.143176,96.3549616 225.836596,96.9168523 C227.882125,98.6686325 229.615811,100.760498 230.962713,103.102026 C234.237125,108.514052 242.278694,107.913207 242.278694,107.913207 C244.20656,107.292511 246.089113,106.53667 247.912608,105.651201 L247.912608,105.651201 C249.265273,104.95316 250.368417,104.188849 250.539142,103.490808 C250.539142,103.490808 250.539142,103.627765 250.539142,103.870754 C250.670468,105.69538 251.327102,113.74936 255.678392,111.491771 Z"/>
    <path fill="#000" d="M206.319792,83.3668342 L195.527638,83.3668342 C195.764989,85.1269352 195.832947,86.9067196 195.730531,88.6804709 C199.087723,91.1036915 203.474998,91.4273285 207.135678,89.5217967 C206.099632,87.5557511 205.46937,85.3240237 206.319792,83.3668342 Z" opacity=".1"/>
    <circle cx="203.442" cy="79.673" r="11.08" fill="#EC8C9C"/>
    <path fill="#000" d="M199.10084,77.1724992 C200.361348,77.0311446 201.621855,76.6113643 202.864159,76.8469552 C203.9927,77.0611289 204.95287,77.7936027 206.08141,78.0163433 C208.256581,78.4446906 210.277033,76.9369082 211.919788,75.5319291 L215.46923,72.4906635 C216.256478,71.8181583 217.066479,71.1113853 217.47148,70.1861552 C217.87648,69.2609252 217.735412,68.0444189 216.870805,67.4618666 C215.573893,66.6051721 213.339565,67.4618666 212.402148,66.2453604 C211.978945,65.6970759 212.042653,64.9603186 211.824226,64.3049473 C211.369169,62.9942046 209.803774,62.2788647 208.338492,62.2617308 C206.873209,62.2445969 205.471634,62.7500467 204.07006,63.1184253 C201.117429,63.9246457 198.030297,64.2021624 194.968926,63.9365686 C194.142698,63.7941726 193.293506,63.8219379 192.479765,64.0179546 C191.46399,64.4261178 190.714242,65.263789 190.459314,66.2753447 C189.758526,68.6055538 190.955326,72.3621594 192.156675,74.4482106 C193.358025,76.5342617 196.702692,77.4509249 199.10084,77.1724992 Z" opacity=".1"/>
    <path fill="#88455E" d="M199.10084,77.1724992 C200.361348,77.0311446 201.621855,76.6113643 202.864159,76.8469552 C203.9927,77.0611289 204.95287,77.7936027 206.08141,78.0163433 C208.256581,78.4446906 210.277033,76.9369082 211.919788,75.5319291 L215.46923,72.4906635 C216.256478,71.8181583 217.066479,71.1113853 217.47148,70.1861552 C217.87648,69.2609252 217.735412,68.0444189 216.870805,67.4618666 C215.573893,66.6051721 213.339565,67.4618666 212.402148,66.2453604 C211.978945,65.6970759 212.042653,64.9603186 211.824226,64.3049473 C211.369169,62.9942046 209.803774,62.2788647 208.338492,62.2617308 C206.873209,62.2445969 205.471634,62.7500467 204.07006,63.1184253 C201.117429,63.9246457 198.030297,64.2021624 194.968926,63.9365686 C194.142698,63.7941726 193.293506,63.8219379 192.479765,64.0179546 C191.46399,64.4261178 190.714242,65.263789 190.459314,66.2753447 C189.758526,68.6055538 190.955326,72.3621594 192.156675,74.4482106 C193.358025,76.5342617 196.702692,77.4295075 199.10084,77.1724992 Z"/>
    <path fill="#000" d="M179.698492 125.577889C179.698492 125.577889 181.900808 125.915578 183.001966 127.60402 184.103124 129.292462 186.030151 129.798995 186.030151 129.798995M159.721583 104.472362C159.721583 104.472362 161.402975 109.407868 160.365359 109.905901 159.327744 110.403934 159.721583 113.969849 159.721583 113.969849" opacity=".1"/>
    <path fill="#000" d="M.445918617 12.3219268C.445918617 12.3219268 13.4676431 9.72736443 13.9180659 9.72736443 16.0170364 9.72736443 19.3952077 6.80062627 21.3275218 4.95121503 21.9151587 4.39016281 22.6381202 3.98971594 23.4264922 3.78859971L23.2598358 3.78859971C21.9745048 3.74850267 20.7267505 4.22391007 19.7960841 5.10832521 17.8637701 6.95773644 14.4810945 9.88447461 12.3866283 9.88447461 12.0217858 9.88447461 3.68896311 11.531887.306287535 12.2007275L.445918617 12.3219268zM36.6238816.983060827L36.6238816.412975324C33.4913445 2.00478402 30.120438 3.07961223 26.6425113 3.59557864 30.0932415 3.28953784 33.4675822 2.40633994 36.6238816.983060827L36.6238816.983060827zM20.5212649 59.9622216C20.5212649 59.9622216 18.6835396 54.0055014 20.070842 50.9530751 21.4581444 47.9006488 23.1337174 33.85051 23.1337174 33.85051L19.7735629 23.4677717 13.3190036 23.4677717 12.9271357 23.620393 18.2196041 23.620393 21.5752543 34.0076202C21.5752543 34.0076202 19.8906729 48.0577589 18.512379 51.1101853 17.1340851 54.1626116 18.9628018 60.1193317 18.9628018 60.1193317L31.0656637 59.6704455 31.0656637 59.5761794 20.5212649 59.9622216z" opacity=".1" transform="translate(159.648 90.754)"/>
    <path fill="#000" d="M13.6526382 35.0453605C13.3813721 35.286478 13.0866703 35.4979642 12.7732412 35.6764403 10.8385678 36.779695 8.44660804 36.1304546 4.81909548 32.2667933 1.49497487 28.7118616.527638191 23.1865081.26821608 21.0935024L.180276382 22.6916326C.180276382 22.6916326.619974874 30.2600503 4.81909548 34.7366308 8.44660804 38.6139126 10.8385678 39.2495325 12.7732412 38.1462779 13.0866703 37.9678018 13.3813721 37.7563156 13.6526382 37.5151981 14.281407 36.9567605 14.3165829 35.9079876 13.986809 34.6004266 13.9050733 34.7701375 13.791482 34.9213794 13.6526382 35.0453605L13.6526382 35.0453605zM39.8059045.526656539L35.571608 5.57983522C35.2137642 6.00616587 34.7848873 6.36289835 34.3052764 6.6331483L34.3052764 6.6331483C33.6907578 6.97772833 33.0077744 7.17189683 32.3090452 7.20066612 29.8687186 7.3050894 25.6300251 7.3368704 22.0508794 6.61498773 17.1922111 5.63885708 13.5471106 3.40510693 10.798995 4.68088699 10.4850033 4.82203342 10.1895331 5.00356211 9.91959799 5.22116396 9.91959799 5.22116396 7.50565327 13.0029683 7.875 18.3013147 8.16080402 13.3480192 9.91959799 7.69100152 9.91959799 7.69100152 10.1895331 7.47339967 10.4850033 7.29187098 10.798995 7.15072455 13.5515075 5.87494449 17.1922111 8.10869464 22.0508794 9.08482529 25.6300251 9.80216782 29.8643216 9.77038682 32.3090452 9.67050368 33.0077744 9.64173439 33.6907578 9.44756589 34.3052764 9.10298586L34.3052764 9.10298586C34.7838253 8.8368092 35.2126327 8.48474672 35.571608 8.06329321L42.0835427.304189552C41.400258.743451716 40.5568389.825832195 39.8059045.526656539z" opacity=".1" transform="translate(214.523 110.804)"/>
    <path fill="url(#celebrate2-a)" d="M60.4997487,166.091512 C60.7569594,166.340748 61.1470231,166.392185 61.4600503,166.218145 C61.1354394,166.22382 60.8117921,166.181141 60.4997487,166.091512 L60.4997487,166.091512 Z"/>
    <path fill="#FFBDC6" d="M76.281407,172.01005 L75.862752,174.158386 L75.5417832,175.801489 L74.9556662,178.806522 L69.2712619,182.562814 C69.2712619,182.562814 68.7595724,182.149842 67.912959,181.495236 C65.587098,179.685187 60.6888346,176.012368 57.0930534,174.026586 C56.1690132,173.469332 55.1690369,173.033328 54.120603,172.730555 L76.281407,172.01005 Z"/>
    <path fill="#000" d="M76.281407,172.01005 L75.8628399,175.13836 C74.6101134,175.234209 73.3535281,175.146283 72.1143387,174.876068 L58.8550623,175.13836 C58.2272116,175.087181 57.6412176,175.01681 57.0924296,174.940042 C56.1685833,174.128593 55.1688169,173.493704 54.120603,173.05282 L76.281407,172.01005 Z" opacity=".1"/>
    <path fill="#757575" d="M71.6270102,173.902869 C71.6270102,173.902869 78.0046661,175.007156 78.3669312,172.241914 C78.7291964,169.476672 75.0886551,168.019376 71.9982202,167.811191 C68.9077853,167.603006 50.3159793,168.924529 50.3159793,168.924529 C50.3159793,168.924529 47.0377032,173.3462 58.876171,174.0839 L71.6270102,173.902869 Z"/>
    <path fill="#000" d="M76.281407,172.01005 L75.862752,174.158386 L75.5417832,175.801489 L74.9556662,178.806522 L69.2712619,182.562814 C69.2712619,182.562814 68.7595724,182.149842 67.912959,181.495236 C65.587098,179.685187 60.6888346,176.012368 57.0930534,174.026586 C56.1690132,173.469332 55.1690369,173.033328 54.120603,172.730555 L76.281407,172.01005 Z" opacity=".1"/>
    <path fill="#000" d="M76.281407,172.01005 L75.8628399,175.13836 C74.6101134,175.234209 73.3535281,175.146283 72.1143387,174.876068 L58.8550623,175.13836 C58.2272116,175.087181 57.6412176,175.01681 57.0924296,174.940042 C56.1685833,174.128593 55.1688169,173.493704 54.120603,173.05282 L76.281407,172.01005 Z" opacity=".1"/>
    <path fill="#000" d="M71.6270102,173.902869 C71.6270102,173.902869 78.0046661,175.007156 78.3669312,172.241914 C78.7291964,169.476672 75.0886551,168.019376 71.9982202,167.811191 C68.9077853,167.603006 50.3159793,168.924529 50.3159793,168.924529 C50.3159793,168.924529 47.0377032,173.3462 58.876171,174.0839 L71.6270102,173.902869 Z" opacity=".1"/>
    <rect width="32.714" height="39.045" x="53.065" y="84.422" fill="#A66477"/>
    <rect width="32.714" height="39.045" x="53.065" y="84.422" fill="#000" opacity=".1"/>
    <path fill="#FEDCB4" d="M14.0201005 150.798519C13.4256739 150.927748 12.671767 151.419655 11.826038 152.136671 8.18698731 155.238183 2.9966281 162.512563 2.9966281 162.512563-3.65321759 155.684234 3.7070404 150.285769 6.86281746 148.430698 7.62638986 147.980478 8.13865995 147.738693 8.13865995 147.738693L14.0201005 150.798519zM75.6634874 97.0854271C75.6634874 97.0854271 77.370493 108.624515 83.2403598 111.372131 89.1102266 114.119746 75.6634874 119.246231 75.6634874 119.246231L57.2864322 112.653752C57.2864322 112.653752 67.7052132 109.357512 65.621457 99.6486695L75.6634874 97.0854271zM57.2864322 165.678392L56.8677772 167.826727 56.5468083 169.46983 55.9606914 172.474864 50.276287 176.231156C50.276287 176.231156 49.7645975 175.818183 48.9179841 175.163578 46.5921231 173.353529 41.6938597 169.68071 38.0980786 167.694928 37.1740383 167.137673 36.174062 166.70167 35.1256281 166.398897L57.2864322 165.678392z"/>
    <path fill="#000" d="M57.2864322,164.623116 L56.867865,167.751425 C55.6151385,167.847274 54.3585533,167.759348 53.1193639,167.489133 L39.8600874,167.751425 C39.2322367,167.700246 38.6462428,167.629875 38.0974547,167.553107 C37.1736084,166.741658 36.173842,166.106769 35.1256281,165.665885 L57.2864322,164.623116 Z" opacity=".1"/>
    <path fill="#757575" d="M52.6330978,167.570734 C52.6330978,167.570734 59.0097529,168.677437 59.3719612,165.906145 C59.7341695,163.134852 56.0941995,161.656224 52.9953061,161.474798 C49.8964127,161.293371 31.3209391,162.581501 31.3209391,162.581501 C31.3209391,162.581501 28.0431774,167.012847 39.8797875,167.752161 L52.6330978,167.570734 Z"/>
    <path fill="#000" d="M56.2311558,170.016601 L55.663623,172.778625 L50.1594558,176.231156 C50.1594558,176.231156 49.6639907,175.851579 48.8442211,175.24991 L56.1230543,169.899497 L56.2311558,170.016601 Z" opacity=".1"/>
    <path fill="#B9EFE9" d="M91.2786052,211.815096 C91.0256373,211.691813 90.7696579,211.561014 90.510667,211.422697 L89.8375916,210.565735 L80.9475769,199.289916 L80.9475769,199.48837 C80.8888522,201.360156 80.2473979,216.289341 75.2512818,217.664991 C69.9163695,219.135358 63.4747226,219.500694 60.5339708,209.582483 C57.5932189,199.664273 52.2537893,177.987638 46.7336683,176.702194 L54.9189868,169.995337 C54.9189868,169.995337 60.3397276,176.309796 62.5531967,182.389718 C62.4718856,182.001829 58.7270572,164.542351 61.8168794,161.457286 L88.6766497,161.457286 C88.6766497,161.457286 92.8144818,173.247283 95.6694052,179.092668 C97.8828743,183.630058 101.203078,194.355617 103.348788,201.612734 C105.471911,208.793176 98.0545311,215.107635 91.2786052,211.815096 Z"/>
    <path fill="#000" d="M91.0552764,164.07553 C86.9721436,166.536589 69.0188267,165.534942 63.167969,165.136097 L61.5783524,165.018256 C61.4046968,165.018256 61.6050686,164.918545 61.6050686,164.918545 L61.7698188,163.24158 L66.1201141,151.983253 L89.4255854,138.241206 C88.9535984,139.687022 88.7933009,141.903335 88.8333753,144.445976 C88.9491457,152.595119 91.0552764,164.07553 91.0552764,164.07553 Z" opacity=".1"/>
    <path fill="#33CCAB" d="M91.0552764,163.019724 C86.99849,165.481596 69.1610169,164.479619 63.3479119,164.080641 L61.7685523,163.962761 L61.5075377,163.962761 L61.7950962,163.885686 L63.2196166,163.50031 L66.2810083,150.941586 L89.436101,137.18593 C88.9671595,138.632223 88.8078963,140.849269 88.8477121,143.39275 C88.9627355,151.530985 91.0552764,163.019724 91.0552764,163.019724 Z"/>
    <path fill="#000" d="M89.3895123 143.535718C84.5420579 144.667958 73.8721911 147.99998 69.7719008 156.013468 67.0383738 161.365036 64.7604347 163.661867 63.1339862 164.623116L61.5075377 164.502959 61.534873 164.401289 63.0018657 164.008471 66.1545335 151.207224 90 137.18593C89.5079652 138.701745 89.3485094 140.943119 89.3895123 143.535718zM7.75803648 147.738693L12.9648241 150.674244C12.4407367 150.798394 11.7760404 151.270966 11.0303875 151.959799 10.6043001 150.758346 7.8688192 149.10835 6.63316583 148.403498 7.30638387 147.970974 7.75803648 147.738693 7.75803648 147.738693zM61.4336683 165.160032C61.1384486 165.324626 60.7704184 165.277553 60.5261307 165.043952 60.8212441 165.127283 61.1270815 165.166402 61.4336683 165.160032L61.4336683 165.160032z" opacity=".1"/>
    <path fill="#33CCAB" d="M72.4528956,111.050412 C72.4528956,111.050412 67.5694677,111.592878 64.1333102,107.973471 C64.1333102,107.973471 49.6694845,112.139791 44.7860565,121.557366 C39.9026286,130.97494 6.63316583,149.44548 6.63316583,149.44548 C6.63316583,149.44548 12.4044898,152.704725 11.8761917,154.336571 L33.7539489,141.659751 C33.7539489,141.659751 41.5274783,136.043889 43.698384,134.776652 C45.8692897,133.509414 57.8026118,125.723686 60.3331153,146.911005 C62.8636189,168.098324 60.3331153,165.586082 60.3331153,165.586082 C60.3331153,165.586082 63.9512915,166.853319 69.2120753,156.693188 C74.472859,146.533057 90.7302346,144.198673 90.7302346,144.198673 L91.6181306,133.5272 C91.6181306,133.5272 94.8456325,126.448457 92.3728422,123.496016 C91.6187482,122.62726 91.1180272,121.567327 90.9255717,120.432415 C90.5127001,117.720082 90.9255717,113.198046 96.6968956,109.440798 C105.575856,103.660417 108.994975,98.9382908 108.994975,98.9382908 C108.994975,98.9382908 109.176274,95.496741 103.751229,93.8693415 C98.3261848,92.2419419 76.2664089,83.3668342 76.2664089,83.3668342 L75.5427737,86.4437753 L92.9011403,98.7604329 C92.9011403,98.7604329 84.221957,105.82139 77.3629604,105.643533 C77.3363236,105.612407 78.6015754,110.868107 72.4528956,111.050412 Z"/>
    <path fill="#000" d="M75.2261307,102.090488 C74.8084485,100.447922 74.4824786,98.7761379 74.2502277,97.0854271 L64.8858968,99.9583319 C65.2958325,102.020357 65.2224753,104.171163 64.6733668,106.189632 C68.5860965,107.394186 72.743485,105.777307 75.2261307,102.085483 L75.2261307,102.090488 Z" opacity=".1"/>
    <circle cx="67.839" cy="94.975" r="10.553" fill="#FEDCB4"/>
    <path fill="#000" d="M73.6438116 71.8517168C76.4937468 72.1830857 79.2064956 73.4404718 82.0121771 74.1213669 82.7132183 74.3468866 83.4601934 74.3766574 84.1761806 74.2076136 85.2648204 73.8626267 86.1498934 72.6914873 87.2739362 72.7278017 87.9687185 72.7278017 88.6015457 73.2362033 89.1591417 73.7037512 90.0828551 74.4226135 90.9513115 75.2132692 91.756831 76.0687266 93.6907156 78.2248942 94.8944149 81.1300462 96.6601356 83.4723251 98.4258563 85.8146039 101.209411 87.6394026 103.718593 86.5635884 102.014827 93.3725386 96.4211659 98.5791158 90.3761171 99.0012707 87.9642931 99.1692248 85.5082155 98.6562839 83.1583466 99.382572 82.5760016 99.6260955 81.9614804 99.7790913 81.3350962 99.836502 80.0074867 99.836502 78.9099961 98.5700372 78.0691767 97.3398869 76.1043146 94.4438134 74.5288846 91.1573602 72.3162021 88.5200268 71.5860168 87.6484812 70.7230706 86.8177893 69.6919606 86.6589138 68.6608505 86.5000382 67.709397 87.0039006 66.788921 87.494145 65.2710208 88.3021404 63.7177177 89.1373716 62.5405705 90.5173188 61.3634234 91.8972661 60.6199621 93.9626476 61.1067522 95.8328393 61.3678488 96.8405639 61.9696984 97.7484239 61.9918253 98.8060808 61.9918253 100.485622 60.5668577 101.715772 60.279209 103.345381 60.2158364 104.033319 60.1921932 104.7245 60.2084031 105.415302 60.0800675 107.657716 58.6551 109.500672 57.1593265 110.903316 56.5796037 111.452571 55.9335004 112.038141 55.7653365 112.88699 55.650277 113.463481 55.7653365 114.076286 55.6901053 114.661856 55.4732624 116.118971 54.0571456 116.854338 52.8047673 117.044989 51.3420833 117.264884 49.8487119 117.083196 48.4767602 116.51843 50.2469062 115.669581 51.3045685 113.250134 50.8974349 111.07127 50.3398389 108.070792 47.4013965 105.919164 47.6492169 102.859676 47.7878042 101.922765 48.0622644 101.012394 48.4634841 100.158792 49.1047518 98.5082094 49.5706329 96.7915096 49.8530487 95.0384617 50.1425762 93.6892329 50.1137491 92.2885847 49.7689668 90.9530917 49.3928108 89.7774129 48.6272226 88.8423171 47.9722686 87.8482104 47.0852916 86.4967256 46.3853173 85.0255982 45.892347 83.4768644 45.7137106 83.0191411 45.6453965 82.5239594 45.6932055 82.0333669 45.8359096 81.4546449 46.144151 80.9329524 46.5782786 80.5353979 48.1891115 78.8059246 49.9150039 77.0038224 52.0568806 76.5044994 53.0802776 76.3296333 54.1211482 76.2884517 55.1546362 76.3819383 56.9589743 76.4408272 58.7650834 76.3619282 60.558007 76.1458947 62.0360789 75.968862 64.5408356 75.9915585 65.7887885 75.0019911 66.9526596 74.0941311 67.612039 72.9366095 69.0502826 72.3555791 70.518143 71.8043664 72.0955118 71.6313454 73.6438116 71.8517168L73.6438116 71.8517168zM80.5025126 178.341709C80.5025126 178.341709 86.0986579 189.637616 84.4039919 193.115578M90.9895235 210L81.6352573 198.747714 81.6352573 198.945754C81.6352573 198.945754 81.0933944 195.309016 82.8758384 196.533264 86.7782024 199.206807 93.0238862 203.590698 93.1569754 204.346852 93.2900645 205.103005 91.8926284 208.136621 90.9895235 210z" opacity=".1"/>
    <path fill="#000" d="M71.7139447 22.3429662C71.7139447 22.3429662 72.4584422 25.3713272 70.0500377 26.8855078 73.7590704 26.2604681 73.9205276 23.430183 73.8084045 22.1977105 73.1161056 22.3077029 72.4151244 22.3563176 71.7139447 22.3429662zM2.30973618 65.0173273C2.30973618 65.0173273 35.9197613 46.7327171 40.8531784 37.4099428 44.3917839 30.7193776 52.9176256 26.7094402 57.4473995 24.9751753 54.1420101 26.0623922 43.019397 30.2307903 38.8394472 38.1274178 33.9060302 47.4501921.296005025 65.7348024.296005025 65.7348024L2.30973618 65.0173273zM78.2529648 20.9212211C83.9712437 19.160546 89.4383668 14.8160804 89.4383668 14.8160804L71.9023116 2.6234058 72.3014698.950764518 70.624108.29051138 69.8930653 3.33647919 87.4291206 15.5291538C84.6150798 17.7001728 81.5317395 19.5119967 78.2529648 20.9212211L78.2529648 20.9212211zM78.3650879 62.2354607C80.6057673 61.4847436 82.9052194 60.9150291 85.2404774 60.5320076L85.2718719 60.1842743C82.9189856 60.6915204 80.6097836 61.3773105 78.3650879 62.2354607L78.3650879 62.2354607zM57.1110302 81.0174616L56.9495729 81.0174616C56.8241045 81.0861159 56.6676916 81.0664809 56.5638693 80.9690431 56.6893701 81.003427 56.8192945 81.0197368 56.9495729 81.0174616 57.5505528 80.67413 58.4520226 77.997904 56.5638693 62.5039637 54.5456533 45.9624217 46.6252764 47.2609196 42.2883543 49.1624486 46.7194598 47.9651896 52.8189573 48.9995862 54.5546231 63.2214387 56.4427764 78.715379 55.5413065 81.3960068 54.9403266 81.7349367 55.7193045 81.7065087 56.4732313 81.4573159 57.1110302 81.0174616zM54.9403266 81.7393384C54.8100482 81.7416136 54.6801239 81.7253038 54.5546231 81.6909198 54.6584454 81.7883577 54.8148583 81.8079927 54.9403266 81.7393384L54.9403266 81.7393384z" opacity=".1" transform="translate(6.633 82.312)"/>
    <path fill="#A66477" d="M73.6438116,69.741164 C76.4937468,70.0725329 79.2064956,71.3299191 82.0121771,72.0108141 C82.7132183,72.2363338 83.4601934,72.2661046 84.1761806,72.0970608 C85.2648204,71.752074 86.1498934,70.5809346 87.2739362,70.617249 C87.9687185,70.617249 88.6015457,71.1256506 89.1591417,71.5931985 C90.0828551,72.3120607 90.9513115,73.1027165 91.756831,73.9581738 C93.6907156,76.1143414 94.8944149,79.0194935 96.6601356,81.3617723 C98.4258563,83.7040512 101.209411,85.5288498 103.718593,84.4530357 C102.014827,91.2619858 96.4211659,96.4685631 90.3761171,96.890718 C87.9642931,97.0586721 85.5082155,96.5457312 83.1583466,97.2720192 C82.5760016,97.5155427 81.9614804,97.6685385 81.3350962,97.7259492 C80.0074867,97.7259492 78.9099961,96.4594845 78.0691767,95.2293341 C76.1043146,92.3332607 74.5288846,89.0468074 72.3162021,86.409474 C71.5860168,85.5379284 70.7230706,84.7072365 69.6919606,84.548361 C68.6608505,84.3894855 67.709397,84.8933478 66.788921,85.3835922 C65.2710208,86.1915876 63.7177177,87.0268188 62.5405705,88.4067661 C61.3634234,89.7867133 60.6199621,91.8520949 61.1067522,93.7222865 C61.3678488,94.7300111 61.9696984,95.6378712 61.9918253,96.6955281 C61.9918253,98.3750691 60.5668577,99.6052194 60.279209,101.234828 C60.2158364,101.922766 60.1921932,102.613947 60.2084031,103.304749 C60.0800675,105.547163 58.6551,107.390119 57.1593265,108.792763 C56.5796037,109.342018 55.9335004,109.927588 55.7653365,110.776437 C55.650277,111.352928 55.7653365,111.965734 55.6901053,112.551303 C55.4732624,114.008419 54.0571456,114.743785 52.8047673,114.934436 C51.3420833,115.154331 49.8487119,114.972643 48.4767602,114.407877 C50.2469062,113.559028 51.3045685,111.139581 50.8974349,108.960717 C50.3398389,105.96024 47.4013965,103.808611 47.6492169,100.749123 C47.7878042,99.8122125 48.0622644,98.9018416 48.4634841,98.0482395 C49.1047518,96.3976567 49.5706329,94.6809568 49.8530487,92.927909 C50.1425762,91.5786802 50.1137491,90.178032 49.7689668,88.8425389 C49.3928108,87.6668602 48.6272226,86.7317643 47.9722686,85.7376576 C47.0852916,84.3861729 46.3853173,82.9150454 45.892347,81.3663116 C45.7137106,80.9085883 45.6453965,80.4134066 45.6932055,79.9228142 C45.8359096,79.3440922 46.144151,78.8223996 46.5782786,78.4248451 C48.1891115,76.6953718 49.9150039,74.8932697 52.0568806,74.3939466 C53.0802776,74.2190805 54.1211482,74.177899 55.1546362,74.2713855 C56.9589743,74.3302744 58.7650834,74.2513754 60.558007,74.0353419 C62.0360789,73.8583092 64.5408356,73.8810057 65.7887885,72.8914383 C66.9526596,71.9835783 67.612039,70.8260568 69.0502826,70.2450263 C70.518143,69.6938136 72.0955118,69.5207927 73.6438116,69.741164 Z"/>
    <path fill="#493545" d="M295.463635 184.481809C295.463635 184.481809 293.0673 180.419249 289.468593 184.116178 285.869886 187.813108 283.305387 200.109122 283.305387 200.109122 283.305387 200.109122 281.934852 210.039823 286.559358 207.462355 286.559358 207.462355 292.024684 199.188275 293.5802 198.822645 295.135716 198.457014 296.834171 193.857294 296.834171 193.857294L295.463635 184.481809zM322.846485 193.951262C322.846485 193.951262 319.113308 192.33746 317.936441 193.595082 316.759573 194.852705 312.828644 207.384956 312.828644 207.384956 312.828644 207.384956 311.651777 215.625462 315.577883 215.264885 319.503989 214.904308 326.38191 202.002684 326.38191 202.002684L322.846485 193.951262z"/>
    <path fill="#000" d="M322.846485,193.951262 C322.846485,193.951262 319.113308,192.33746 317.936441,193.595082 C316.759573,194.852705 312.828644,207.384956 312.828644,207.384956 C312.828644,207.384956 311.651777,215.625462 315.577883,215.264885 C319.503989,214.904308 326.38191,202.002684 326.38191,202.002684 L322.846485,193.951262 Z" opacity=".05"/>
    <path fill="#07454C" d="M334.787912,169.485772 L342.51213,181.446227 C342.51213,181.446227 341.973949,184.124072 337.302364,183.58938 L321.311336,193.586374 C321.311336,193.586374 319.921771,205.7572 324.363968,204.652753 C325.083013,204.473062 330.098681,199.297064 333.707139,199.656447 L354.912345,191.443222 C354.912345,191.443222 359.941248,188.585685 357.245932,179.127766 C354.550617,169.669847 345.639755,147.738693 345.639755,147.738693 L331.554416,155.566239 L334.787912,169.485772 Z"/>
    <path fill="#000" d="M334.787912,169.485772 L342.51213,181.446227 C342.51213,181.446227 341.973949,184.124072 337.302364,183.58938 L321.311336,193.586374 C321.311336,193.586374 319.921771,205.7572 324.363968,204.652753 C325.083013,204.473062 330.098681,199.297064 333.707139,199.656447 L354.912345,191.443222 C354.912345,191.443222 359.941248,188.585685 357.245932,179.127766 C354.550617,169.669847 345.639755,147.738693 345.639755,147.738693 L331.554416,155.566239 L334.787912,169.485772 Z" opacity=".05"/>
    <path fill="#07454C" d="M339.327764,187.820599 C340.418685,194.66351 334.23084,195.202809 334.23084,195.202809 C334.23084,195.202809 306.367656,195.742108 303.090423,195.021569 C299.81319,194.30103 295.440566,196.281407 295.440566,196.281407 C289.793711,192.859952 294.349645,184.399144 294.349645,184.399144 C294.349645,184.399144 306.005506,184.041085 308.737278,183.515047 C311.469051,182.98901 325.306752,182.241948 325.306752,182.241948 C325.306752,182.241948 324.215832,175.580278 316.928124,158.658662 C311.978743,147.165402 315.586829,140.402061 318.434847,137.250255 C319.161597,136.413916 320.002797,135.681902 320.934128,135.075377 L343.333768,136.153975 C343.309666,137.270868 343.351466,138.388201 343.458955,139.500282 C343.841895,143.318239 344.845886,147.050008 346.432161,150.551494 C345.15793,150.551494 336.962613,158.114943 336.962613,158.114943 C336.962613,158.114943 338.232373,180.98211 339.327764,187.820599 Z"/>
    <path fill="#000" d="M297.950563,185.11365 C297.950563,185.11365 309.108308,184.755539 311.723338,184.229425 C314.338368,183.703311 327.584713,182.969405 327.584713,182.969405 C327.584713,182.969405 326.540413,176.306772 319.564147,159.382712 C314.826278,147.887792 318.280172,141.123473 321.006479,137.971213 C321.702172,137.134752 322.507423,136.402633 323.398953,135.79602 L343.266332,136.795194 C343.266332,136.58298 343.266332,136.353082 343.266332,136.154131 L321.823944,135.075377 C320.932414,135.681989 320.127162,136.414109 319.43147,137.25057 C316.718002,140.407252 313.251268,147.167149 317.989137,158.662069 C324.982523,175.572866 326.018263,182.235498 326.018263,182.235498 C326.018263,182.235498 312.750518,182.956142 310.156888,183.495519 C307.563258,184.034896 296.384113,184.379743 296.384113,184.379743 C296.384113,184.379743 292.027156,192.846194 297.428413,196.281407 C297.428413,196.281407 297.591049,196.201827 297.856404,196.086878 C294.265553,192.271448 297.950563,185.11365 297.950563,185.11365 Z" opacity=".1"/>
    <rect width="11.608" height="28.492" x="316.884" y="67.538" fill="#493545"/>
    <rect width="11.608" height="28.492" x="316.884" y="67.538" fill="#000" opacity=".1"/>
    <path fill="#493545" d="M335.684884,64.793758 C336.070542,64.8968404 336.50496,64.9097257 336.766498,65.4251378 C336.928887,65.8370513 337.017342,66.2728485 337.028036,66.7136681 L337.732859,75.2007878 C337.742801,75.7564518 337.853847,76.3060586 338.060889,76.824336 C338.35789,77.3998795 338.849936,77.4686011 339.235593,77.8379798 C340.011341,78.5853274 340.237416,80.4579914 340.02464,81.9827523 C339.811863,83.5075131 339.275489,84.8132239 338.854369,86.1919513 C338.251502,88.1676978 337.852545,90.388265 337.005872,92.0547642 C336.159198,93.7212634 334.621001,94.6318248 333.628044,93.2316219 C332.635086,91.8314189 332.768072,89.0052425 332.581892,86.690183 C332.271593,82.8245921 330.715664,79.4915937 330.609276,75.6002322 C330.520619,72.4519231 331.39389,69.514074 331.93913,66.5289788 C332.32922,64.4802156 332.351384,61.9933521 332.918788,60.1507538 C333.393103,62.3412553 334.297403,64.4243793 335.684884,64.793758 Z"/>
    <path fill="#000" d="M335.684884,64.793758 C336.070542,64.8968404 336.50496,64.9097257 336.766498,65.4251378 C336.928887,65.8370513 337.017342,66.2728485 337.028036,66.7136681 L337.732859,75.2007878 C337.742801,75.7564518 337.853847,76.3060586 338.060889,76.824336 C338.35789,77.3998795 338.849936,77.4686011 339.235593,77.8379798 C340.011341,78.5853274 340.237416,80.4579914 340.02464,81.9827523 C339.811863,83.5075131 339.275489,84.8132239 338.854369,86.1919513 C338.251502,88.1676978 337.852545,90.388265 337.005872,92.0547642 C336.159198,93.7212634 334.621001,94.6318248 333.628044,93.2316219 C332.635086,91.8314189 332.768072,89.0052425 332.581892,86.690183 C332.271593,82.8245921 330.715664,79.4915937 330.609276,75.6002322 C330.520619,72.4519231 331.39389,69.514074 331.93913,66.5289788 C332.32922,64.4802156 332.351384,61.9933521 332.918788,60.1507538 C333.393103,62.3412553 334.297403,64.4243793 335.684884,64.793758 Z" opacity=".1"/>
    <path fill="#C77485" d="M288.39196 51.5096615L283.581406 54.8743719C283.581406 54.8743719 283.010245 54.3128987 282.158427 53.4046333 278.815166 49.8252421 271.129112 40.8458003 276.560065 39.2398219 281.991018 37.6338436 286.284573 46.3903475 287.801104 50.0068951 288.18516 50.9234175 288.39196 51.5096615 288.39196 51.5096615zM367.192318 51.5141803C365.183314 54.3258676 362.369721 51.5141803 362.369721 51.5141803 362.369721 51.5141803 362.009384 51.0125864 361.500963 50.2026732 359.84736 47.5934642 356.604324 41.8090275 358.75154 39.5173413 361.219604 36.8989288 367.335466 45.8355845 367.523039 50.0278056 367.581134 50.543264 367.465538 51.0627917 367.192318 51.5141803L367.192318 51.5141803zM322.160804 81.1333526C322.160804 81.1333526 325.60312 92.6302241 324.568313 96.0391545 323.533507 99.4480849 331.968235 103.417085 331.968235 103.417085L341.602495 103.417085C341.602495 103.417085 345.044811 96.0523845 344.183176 93.8958942 343.321541 91.739404 335.925842 90.1253438 335.925842 90.1253438 335.925842 90.1253438 331.626116 90.1253438 331.799287 78.0904523L322.160804 81.1333526z"/>
    <path fill="#000" d="M287.336683 51.9564745L284.079164 54.8743719C284.079164 54.8743719 283.692396 54.3874589 283.115578 53.5998056 284.299221 53.3742504 286.136369 51.5196849 286.939913 50.6532663 287.196647 51.4480801 287.336683 51.9564745 287.336683 51.9564745zM366.240035 50.2698506C364.835575 53.5069079 362.868641 50.2698506 362.868641 50.2698506 362.868641 50.2698506 362.616735 49.6923722 362.261307 48.7599302L362.306166 48.5427136C363.217168 49.5440292 366.050243 48.6910566 366.471236 48.5427136 366.514054 49.1414053 366.433173 49.7456116 366.240035 50.2698506zM343.266332 138.670035C337.805276 140.732837 320.061181 137.059255 318.994975 136.840418 319.699486 136.16168 320.514945 135.567607 321.417776 135.075377L343.131972 135.950723C343.11276 136.858552 343.157623 137.766536 343.266332 138.670035z" opacity=".1"/>
    <path fill="#33CCAB" d="M324.575557,89.8392896 C324.575557,89.8392896 320.306332,91.2842355 314.254259,85.6861783 C314.254259,85.6861783 300.708103,72.145351 299.834157,68.896439 L289.34681,50.2805717 C289.34681,50.2805717 284.898427,55.156156 283.115578,54.4336831 L294.861407,75.1948074 C294.861407,75.1948074 296.998204,79.1839218 298.955842,80.2476856 C298.955842,80.2476856 313.550733,99.2048437 313.725522,102.994502 C313.900311,106.784161 320.301963,116.934241 320.301963,116.934241 C320.301963,116.934241 322.43876,133.360528 318.698272,136.250419 C318.698272,136.250419 339.520026,141.66675 343.968409,138.054386 C343.968409,138.054386 342.010771,117.665579 343.968409,115.489295 C343.968409,115.489295 350.020482,108.268998 345.926047,100.326228 C345.926047,100.326228 345.052102,95.9958228 347.350579,93.828404 C349.649055,91.6609852 359.987832,75.5937188 359.987832,75.5937188 C359.987832,75.5937188 362.478577,71.9813541 362.478577,69.6366413 C362.478577,69.6366413 367.106119,53.7511013 366.411332,49.5979899 C366.411332,49.5979899 362.316897,50.4844598 361.071524,49.5979899 C361.071524,49.5979899 355.019451,68.2138572 354.307185,68.9141684 C353.59492,69.6144796 348.626539,84.2589618 342.02825,85.885634 C335.429961,87.5123062 334.376856,88.2303468 334.376856,88.2303468 C334.376856,88.2303468 347.188899,96.3548431 340.962036,99.9627755 C334.735174,103.570708 324.575557,89.8392896 324.575557,89.8392896 Z"/>
    <path fill="#000" d="M332.713568,82.8225002 C332.495376,81.253336 332.406438,79.671606 332.447494,78.0904523 L322.160804,80.9206832 C322.431477,81.5421675 322.647123,82.1822214 322.805695,82.83477 C323.982734,83.3051118 325.570158,84.4175726 326.936606,84.4175726 C329.003621,84.4788556 331.034885,83.9180047 332.713568,82.8225002 L332.713568,82.8225002 Z" opacity=".1"/>
    <circle cx="327.437" cy="73.869" r="9.497" fill="#C77485"/>
    <path fill="#000" d="M317.190379,60.2769785 C315.191795,60.4356978 312.961614,61.8553536 313.073123,63.9142954 C313.133167,65.0473747 313.887997,66.0040992 314.218235,67.088681 C315.011665,69.711958 313.244676,72.3440528 311.692127,74.5837582 C310.139579,76.8234636 308.689962,79.7906324 310.019492,82.1626039 C310.398458,82.7336717 310.807953,83.2826848 311.246091,83.807112 C312.888705,86.0864972 312.867261,89.1638877 313.596358,91.9017953 C315.529691,99.1746978 322.654749,103.626704 329.825207,102.042194 C328.525181,100.336279 327.876887,98.200529 328.002464,96.0373144 C328.101107,94.4677571 328.59432,92.8276578 328.002464,91.3771399 C327.239056,89.5121884 325.000298,88.7759073 323.846609,87.1446258 C322.69292,85.5133443 322.770118,83.2515945 323.327663,81.3072833 C323.885208,79.3629721 324.85019,77.5597447 325.313381,75.5757537 C325.42771,74.9969051 325.570858,74.424469 325.742262,73.8607037 C326.548558,71.5063677 328.958868,70.1396183 331.317713,69.5532387 C333.676557,68.9668592 336.155488,68.9315882 338.458578,68.1600361 C340.761668,67.3884841 343.000426,65.5808478 343.266332,63.0986546 C341.32779,63.8966599 339.53078,61.8156737 337.66086,60.8589492 C334.581495,59.2893918 331.068962,60.7663629 327.895244,61.1278902 C324.279779,61.5423239 320.848732,60.0036286 317.190379,60.2769785 Z" opacity=".1"/>
    <path fill="#493545" d="M315.079826,60.2769785 C313.081242,60.4356978 310.851062,61.8553536 310.962571,63.9142954 C311.022614,65.0473747 311.777444,66.0040992 312.107682,67.088681 C312.901112,69.711958 311.134123,72.3440528 309.581574,74.5837582 C308.029026,76.8234636 306.579409,79.7906324 307.908939,82.1626039 C308.287905,82.7336717 308.697401,83.2826848 309.135538,83.807112 C310.778152,86.0864972 310.756708,89.1638877 311.485805,91.9017953 C313.419138,99.1746978 320.544197,103.626704 327.714655,102.042194 C326.414628,100.336279 325.766335,98.200529 325.891911,96.0373144 C325.990554,94.4677571 326.483767,92.8276578 325.891911,91.3771399 C325.128503,89.5121884 322.889746,88.7759073 321.736056,87.1446258 C320.582367,85.5133443 320.659566,83.2515945 321.217111,81.3072833 C321.774656,79.3629721 322.739637,77.5597447 323.202829,75.5757537 C323.317157,74.9969051 323.460305,74.424469 323.631709,73.8607037 C324.438005,71.5063677 326.848315,70.1396183 329.20716,69.5532387 C331.566004,68.9668592 334.044935,68.9315882 336.348025,68.1600361 C338.651115,67.3884841 340.889873,65.5808478 341.155779,63.0986546 C339.217238,63.8966599 337.420227,61.8156737 335.550307,60.8589492 C332.470943,59.2893918 328.958409,60.7663629 325.784691,61.1278902 C322.177804,61.537915 318.759624,59.9815843 315.079826,60.2769785 Z"/>
    <path fill="#000" d="M335.879397 96.0301508C335.879397 96.0301508 339.405995 98.9590022 340.100503 100.251256M343.266332 115.025126C343.266332 115.025126 338.751729 115.025126 336.667083 115.755702 334.582437 116.486278 329.547739 115.755702 329.547739 115.755702" opacity=".1"/>
    <path fill="#000" d="M58.3699749 50.9110848C57.9685573 51.1435147 57.5339605 51.3115948 57.0816583 51.4093408 58.2495761 51.6713095 59.4718102 51.4941987 60.5201005 50.9110848 66.790201 47.2853828 53.8938442 39.1353385 53.8938442 39.1353385L51.7437186 39.1353385C51.7437186 39.1353385 64.6400754 47.2898315 58.3699749 50.9110848zM84.0219849.689550695C84.0219849.573884127 83.995603.462666273 83.9780151.360345847 83.2415121.514772168 82.4973528.62912007 81.7487437.702896837 82.5044723.7869964 83.2672718.782518023 84.0219849.689550695L84.0219849.689550695zM38.1350503 87.3327077C41.8944724 84.432146 39.7487437 67.9452114 39.7487437 67.9452114 39.7487437 67.9452114 33.3027638 57.7976944 33.1224874 53.9940437 32.9422111 50.1903931 18.2606784 31.1632427 18.2606784 31.1632427 16.2908291 30.0777564 14.1407035 26.0917085 14.1407035 26.0917085 14.1407035 26.0917085 1.96105528 5.97907183.171482412 5.25393142L11.9905779 26.0917085C11.9905779 26.0917085 14.1407035 30.0955513 16.1105528 31.1632427 16.1105528 31.1632427 30.7964824 50.1903931 30.9723618 53.9940437 31.1482412 57.7976944 37.5942211 67.9585575 37.5942211 67.9585575 37.5942211 67.9585575 39.7443467 84.4454922 35.9805276 87.3460538 35.9805276 87.3460538 48.8592965 90.6870381 56.580402 90.3845256 48.8417085 90.1087053 38.1350503 87.3327077 38.1350503 87.3327077zM42 40.9059267L41.8944724 40.7680166C41.7719191 40.8046928 41.6470524 40.8329326 41.5207286 40.8525421 41.6878141 40.8747857 41.8461055 40.8925805 42 40.9059267z" opacity=".1" transform="translate(282.06 48.543)"/>
    <path fill="#000" d="M21.7384944.331497487L21.6339623.353306533C21.4541671 5.80992965 17.8248127 18.6292864 17.8248127 18.6292864 17.8248127 20.9366834 15.441481 24.4915578 15.441481 24.4915578 15.441481 24.4915578 5.56528871 40.3031156 3.34920831 42.4360402 1.1331279 44.5689648 1.98610979 48.8304523 1.98610979 48.8304523L2.00701621 48.8740704C1.94011567 47.4390352 2.10736702 45.2145126 3.51645966 43.8536281 5.72835878 41.7207035 15.6087323 25.9091457 15.6087323 25.9091457 15.6087323 25.9091457 17.9920641 22.3542714 17.9920641 20.0468744 17.9920641 20.0730452 22.4200436 4.44032161 21.7384944.331497487zM.112894662 63.7740101C.367952972 65.283196.196520338 63.6867739.284327297 65.1959598.284327297 65.1959598 4.46561107 60.0795578 3.3241206 53.7549347 3.66698587 59.4078392.112894662 63.7740101.112894662 63.7740101z" opacity=".1" transform="translate(344.322 49.598)"/>
    <path fill="#444" d="M296.08221 10.2017413L293.373703 10.2017413C294.07248 10.2357582 294.732929 9.87477231 295.092298 9.26239714 295.451668 8.65002198 295.451668 7.88558629 295.092298 7.27321113 294.732929 6.66083596 294.07248 6.29985003 293.373703 6.33386701L271.412371 6.33386701C270.400624 6.38311961 269.605134 7.2343791 269.605134 8.26780413 269.605134 9.30122917 270.400624 10.1524887 271.412371 10.2017413L274.120878 10.2017413C273.109131 10.2509939 272.313641 11.1022534 272.313641 12.1356784 272.313641 13.1691034 273.109131 14.0203629 274.120878 14.0696155L270.329831 14.0696155C269.631054 14.0355985 268.970606 14.3965845 268.611236 15.0089596 268.251866 15.6213348 268.251866 16.3857705 268.611236 16.9981457 268.970606 17.6105208 269.631054 17.9715068 270.329831 17.9374898L292.273911 17.9374898C292.972688 17.9715068 293.633137 17.6105208 293.992507 16.9981457 294.351876 16.3857705 294.351876 15.6213348 293.992507 15.0089596 293.633137 14.3965845 292.972688 14.0355985 292.273911 14.0696155L296.08221 14.0696155C297.093957 14.0203629 297.889447 13.1691034 297.889447 12.1356784 297.889447 11.1022534 297.093957 10.2509939 296.08221 10.2017413L296.08221 10.2017413zM164.633054 21.1063189L162.600265 21.1063189C163.127044 21.1383649 163.62662 20.8440183 163.898681 20.3413006 164.170742 19.838583 164.170742 19.2098084 163.898681 18.7070907 163.62662 18.2043731 163.127044 17.9100265 162.600265 17.9420724L146.133822 17.9420724C145.378369 17.9880294 144.786977 18.6827307 144.786977 19.5241957 144.786977 20.3656607 145.378369 21.060362 146.133822 21.1063189L148.166611 21.1063189C147.639832 21.074273 147.140257 21.3686196 146.868196 21.8713372 146.596135 22.3740549 146.596135 23.0028295 146.868196 23.5055472 147.140257 24.0082648 147.639832 24.3026114 148.166611 24.2705655L145.321557 24.2705655C144.794778 24.2385196 144.295202 24.5328661 144.023141 25.0355838 143.75108 25.5383014 143.75108 26.1670761 144.023141 26.6697937 144.295202 27.1725114 144.794778 27.4668579 145.321557 27.434812L161.788 27.434812C162.314779 27.4668579 162.814355 27.1725114 163.086416 26.6697937 163.358477 26.1670761 163.358477 25.5383014 163.086416 25.0355838 162.814355 24.5328661 162.314779 24.2385196 161.788 24.2705655L164.633054 24.2705655C165.388507 24.2246085 165.979899 23.5299072 165.979899 22.6884422 165.979899 21.8469772 165.388507 21.1522759 164.633054 21.1063189L164.633054 21.1063189zM76.572522 35.5283744L73.8457303 35.5283744C74.5492244 35.5623914 75.2141319 35.2014055 75.5759277 34.5890303 75.9377235 33.9766551 75.9377235 33.2122195 75.5759277 32.5998443 75.2141319 31.9874691 74.5492244 31.6264832 73.8457303 31.6605002L51.7535072 31.6605002C50.7349298 31.7097528 49.9340694 32.5610123 49.9340694 33.5944373 49.9340694 34.6278623 50.7349298 35.4791218 51.7535072 35.5283744L54.4802989 35.5283744C53.4617215 35.577627 52.6608611 36.4288865 52.6608611 37.4623116 52.6608611 38.4957366 53.4617215 39.3469961 54.4802989 39.3962487L50.6636589 39.3962487C49.6450815 39.4455013 48.8442211 40.2967608 48.8442211 41.3301858 48.8442211 42.3636108 49.6450815 43.2148703 50.6636589 43.2641229L72.755882 43.2641229C73.4593762 43.2981399 74.1242836 42.937154 74.4860794 42.3247788 74.8478752 41.7124037 74.8478752 40.947968 74.4860794 40.3355928 74.1242836 39.7232176 73.4593762 39.3622317 72.755882 39.3962487L76.572522 39.3962487C77.5910994 39.3469961 78.3919598 38.4957366 78.3919598 37.4623116 78.3919598 36.4288865 77.5910994 35.577627 76.572522 35.5283744L76.572522 35.5283744z" opacity=".103"/>
    <circle cx="27.739" cy="20.05" r="20.05" fill="#F5DD48"/>
  </g>
</svg>
