<svg xmlns="http://www.w3.org/2000/svg" width="921" height="656" viewBox="0 0 921 656">
  <g fill="none" fill-rule="evenodd" transform="translate(0 .13)">
    <g transform="translate(0 384.87)">
      <ellipse cx="30.65" cy="221.77" fill="#F5DD48" fill-rule="nonzero" opacity=".1" rx="30.65" ry="4.21"/>
      <ellipse cx="148.06" cy="233.68" fill="#F5DD48" fill-rule="nonzero" opacity=".1" rx="30.65" ry="4.21"/>
      <ellipse cx="101.07" cy="267.57" fill="#F5DD48" fill-rule="nonzero" opacity=".1" rx="21.79" ry="2.99"/>
      <ellipse cx="222.92" cy="264.58" fill="#F5DD48" fill-rule="nonzero" opacity=".1" rx="21.79" ry="2.99"/>
      <path fill="#F5DD48" fill-rule="nonzero" d="M148.71,232.72965 C148.71,232.72965 105.71,91.8096502 155.44,35.3696502 C192.63,-6.85034985 234.84,-1.80034985 253.75,3.41965015 C263.652755,6.05400925 271.898015,12.9061682 276.3,22.1596502 C282.91,36.4196502 281.71,59.5696502 235.06,86.5796502 C156.94,131.80965 152.06,193.84965 152.06,193.84965 L148.71,232.72965 Z"/>
      <path stroke="#565987" d="M247.02 23.4596502C247.02 23.4596502 120.31 63.0796502 148.71 232.77965M173.01 37.6096502C173.01 37.6096502 190.46 49.3696502 184.91 67.0396502M234.31 48.0796502C234.31 48.0796502 223.64 37.2296502 210.66 43.2096502M184.22 102.64965C184.22 102.64965 165.49 93.1396502 160.65 105.04965M137.87 122.45965C137.87 122.45965 151.94 121.33965 152.19 128.06965"/>
      <path fill="#F5DD48" fill-rule="nonzero" d="M146.98,233.84965 C146.98,233.84965 197.32,131.45965 211.15,133.66965 C217.72,134.73965 220.75,141.19965 222.15,147.66965 C223.850983,156.062407 222.893218,164.776678 219.41,172.59965 C212.23,189.00965 193.04,220.13965 146.98,233.84965 Z"/>
      <path stroke="#565987" d="M210.78 153.10965C210.78 153.10965 157.93 229.73965 147.72 233.10965M215.64 165.07965L203.3 165.07965M200.86 193.10965L181.53 193.93965M189.1 170.67965L191.2 180.74965M168.54 201.32965L168.91 210.48965"/>
      <path fill="#F5DD48" fill-rule="nonzero" d="M148.47,233.84965 C148.47,233.84965 98.13,131.45965 84.3,133.66965 C77.73,134.73965 74.7,141.19965 73.3,147.66965 C71.6037131,156.062619 72.5613208,164.775451 76.04,172.59965 C83.22,189.00965 102.41,220.13965 148.47,233.84965 Z"/>
      <path stroke="#565987" d="M84.67 153.10965C84.67 153.10965 137.51 229.73965 147.67 233.10965M79.81 165.07965L92.15 165.07965M94.59 193.10965L113.92 193.93965M106.35 170.67965L104.25 180.74965M126.91 201.32965L126.54 210.48965"/>
      <path fill="#33CCAB" fill-rule="nonzero" d="M234.91 257.76965C236.28053 256.656293 237.281227 255.153504 237.78 253.45965 238.231668 251.705095 237.398913 249.873032 235.78 249.05965 233.94 248.35965 231.97 249.62965 230.48 250.91965 228.99 252.20965 227.29 253.66965 225.34 253.39965 227.380398 251.552445 228.299484 248.768604 227.76 246.06965 227.674862 245.521728 227.443385 245.006951 227.09 244.57965 226.09 243.48965 224.21 243.95965 222.99 244.81965 219.1 247.54965 217.99 252.81965 217.99 257.57965 217.6 255.86965 217.93 254.07965 217.92 252.31965 217.91 250.55965 217.43 248.61965 215.92 247.66965 214.998907 247.175732 213.964771 246.930986 212.92 246.95965 211.17 246.89965 209.23 247.06965 208.03 248.34965 206.55 249.93965 206.93 252.59965 208.22 254.34965 209.51 256.09965 211.48 257.19965 213.28 258.34965 214.730005 259.213779 215.967178 260.392853 216.9 261.79965 217.003889 261.999987 217.094095 262.207127 217.17 262.41965L228.12 262.41965C230.583705 261.184693 232.867977 259.620353 234.91 257.76965L234.91 257.76965zM43.08 216.51965C44.4456968 215.399686 45.4423311 213.894281 45.94 212.19965 46.3969376 210.441925 45.5633765 208.603922 43.94 207.78965 42.1 207.08965 40.14 208.35965 38.65 209.64965 37.16 210.93965 35.45 212.40965 33.5 212.12965 35.5421322 210.283574 36.4615488 207.498729 35.92 204.79965 35.8348619 204.251728 35.6033852 203.736951 35.25 203.30965 34.25 202.21965 32.38 202.68965 31.15 203.54965 27.27 206.27965 26.15 211.54965 26.15 216.30965 25.76 214.59965 26.09 212.80965 26.08 211.05965 26.07 209.30965 25.59 207.34965 24.08 206.39965 23.1589071 205.905732 22.1247706 205.660986 21.08 205.68965 19.33 205.62965 17.39 205.80965 16.19 207.07965 14.71 208.66965 15.1 211.33965 16.39 213.07965 17.68 214.81965 19.64 215.92965 21.39 217.13965 22.8395563 218.000091 24.0768101 219.175824 25.01 220.57965 25.1179185 220.778043 25.2082634 220.985501 25.28 221.19965L36.23 221.19965C38.7161464 219.959458 41.0208647 218.384848 43.08 216.51965L43.08 216.51965zM107.01 257.76965C108.38053 256.656293 109.381227 255.153504 109.88 253.45965 110.331668 251.705095 109.498913 249.873032 107.88 249.05965 106.04 248.35965 104.07 249.62965 102.58 250.91965 101.09 252.20965 99.38 253.66965 97.43 253.39965 99.4688786 251.551192 100.390877 248.770019 99.86 246.06965 99.7714832 245.52086 99.536564 245.00611 99.18 244.57965 98.18 243.48965 96.31 243.95965 95.09 244.81965 91.2 247.54965 90.09 252.81965 90.09 257.57965 89.69 255.86965 90.02 254.07965 90.02 252.31965 90.02 250.55965 89.52 248.61965 88.02 247.66965 87.0989071 247.175732 86.0647706 246.930986 85.02 246.95965 83.27 246.89965 81.32 247.06965 80.13 248.34965 78.65 249.93965 79.03 252.59965 80.32 254.34965 81.61 256.09965 83.57 257.19965 85.38 258.34965 86.8300053 259.213779 88.0671784 260.392853 89 261.79965 89.1046264 261.998318 89.1916265 262.20578 89.26 262.41965L100.26 262.41965C102.709664 261.181584 104.980312 259.61736 107.01 257.76965L107.01 257.76965z"/>
    </g>
    <ellipse cx="536.045" cy="592.639" fill="#000" fill-rule="nonzero" opacity=".1" rx="212.045" ry="17.213"/>
    <path fill="#3F3D56" fill-rule="nonzero" d="M472.875977,103.042022 C472.875977,103.042022 535.229795,119.484898 536.323657,127.158229 C537.417519,134.831561 504.599817,155.754159 504.599817,155.754159 L435.682435,122.773463 L472.875977,103.042022 Z"/>
    <path fill="#000" fill-rule="nonzero" d="M472.875977,103.042022 C472.875977,103.042022 535.229795,119.484898 536.323657,127.158229 C537.417519,134.831561 504.599817,155.754159 504.599817,155.754159 L435.682435,122.773463 L472.875977,103.042022 Z" opacity=".1"/>
    <path fill="#CF9595" fill-rule="nonzero" d="M505.146785,90.4358115 C505.146785,90.4358115 485.456115,114.552031 461.389726,112.359642 C437.323338,110.167253 490.925744,163.880684 490.925744,163.880684 L518.273902,139.764464 C518.273902,139.764464 525.931391,107.974937 532.494956,106.878712 C539.05852,105.782487 505.146785,90.4358115 505.146785,90.4358115 Z"/>
    <path fill="#000" fill-rule="nonzero" d="M505.146785,90.4358115 C505.146785,90.4358115 485.456115,114.552031 461.389726,112.359642 C437.323338,110.167253 490.925744,163.880684 490.925744,163.880684 L518.273902,139.764464 C518.273902,139.764464 525.931391,107.974937 532.494956,106.878712 C539.05852,105.782487 505.146785,90.4358115 505.146785,90.4358115 Z" opacity=".1"/>
    <path fill="#FFB9B9" fill-rule="nonzero" d="M626.572637,417.100917 C626.572637,417.100917 629.85442,436.832432 620.009085,441.217136 C610.16375,445.601841 590.473067,512.469595 590.473067,512.469595 L609.069814,531.104847 L661.578284,445.601902 C661.578284,445.601902 676.893261,414.90854 671.423656,414.90854 C665.954051,414.90854 626.572637,417.100917 626.572637,417.100917 Z"/>
    <path fill="#000" fill-rule="nonzero" d="M626.572637,417.100917 C626.572637,417.100917 629.85442,436.832432 620.009085,441.217136 C610.16375,445.601841 590.473067,512.469595 590.473067,512.469595 L609.069814,531.104847 L661.578284,445.601902 C661.578284,445.601902 676.893261,414.90854 671.423656,414.90854 C665.954051,414.90854 626.572637,417.100917 626.572637,417.100917 Z" opacity=".1"/>
    <path fill="#2F2E41" fill-rule="nonzero" d="M594.848773,510.277218 L590.473067,508.084828 C590.473067,508.084828 565.312756,521.239127 568.594526,527.816343 C571.876296,534.39356 579.533796,547.547785 579.533796,551.932551 C579.533796,556.317317 583.909502,582.625926 598.130543,584.818303 C612.351584,587.01068 612.351596,573.856394 610.163737,568.375427 C607.975878,562.89446 606.881955,544.259219 607.975891,537.682064 C608.928582,533.087306 610.637715,528.683458 613.033251,524.650989 L594.848773,510.277218 Z"/>
    <path fill="#FFB9B9" fill-rule="nonzero" d="M572.970182,411.619962 C572.970182,411.619962 569.688412,493.834342 592.660926,527.816282 C592.660926,527.816282 601.412338,551.932489 602.506298,554.124879 C603.600258,556.317268 622.197042,546.451535 622.197042,546.451535 C622.197042,546.451535 612.35167,480.680043 613.44563,469.718122 C614.53959,458.756201 607.976001,444.505714 607.976001,444.505714 L606.882065,411.619962 L572.970182,411.619962 Z"/>
    <path fill="#2F2E41" fill-rule="nonzero" d="M624.384766,540.97058 L601.542963,551.78877 C601.542963,551.78877 603.60016,568.375365 604.694084,571.663943 C605.788007,574.952521 589.379107,599.06874 606.88193,601.261117 C624.384754,603.453494 641.887589,601.261117 637.511884,595.780163 C633.136178,590.299208 626.572613,566.182988 627.666512,559.605833 C628.760411,553.028678 624.384766,540.97058 624.384766,540.97058 Z"/>
    <path fill="#FFB9B9" fill-rule="nonzero" d="M578.439873 105.782499C578.439873 105.782499 564.21882 104.686311 562.030973 146.341582 560.686504 170.438986 560.686504 194.592838 562.030973 218.690241L597.03662 219.78643 593.754837 154.014926 578.439873 105.782499zM620.009085 73.9929356C620.009085 73.9929356 623.290855 98.1091553 607.975891 100.301532 592.660926 102.493909 625.478714 136.475862 625.478714 136.475862L668.141849 112.359642C668.141849 112.359642 651.732949 82.7624678 660.484361 68.511981 669.235772 54.2614943 620.009085 73.9929356 620.009085 73.9929356z"/>
    <path fill="#000" fill-rule="nonzero" d="M620.009085,73.9929356 C620.009085,73.9929356 623.290855,98.1091553 607.975891,100.301532 C592.660926,102.493909 625.478714,136.475862 625.478714,136.475862 L668.141849,112.359642 C668.141849,112.359642 651.732949,82.7624678 660.484361,68.511981 C669.235772,54.2614943 620.009085,73.9929356 620.009085,73.9929356 Z" opacity=".1"/>
    <ellipse cx="532.495" cy="83.859" fill="#CF9595" fill-rule="nonzero" rx="38.287" ry="38.367"/>
    <ellipse cx="635.324" cy="48.781" fill="#FFB9B9" fill-rule="nonzero" rx="38.287" ry="38.367"/>
    <path fill="#CF9595" fill-rule="nonzero" d="M417.632668 183.6121C417.632668 183.6121 416.538732 224.171196 417.632668 230.748339 418.726604 237.325482 411.069103 293.231265 411.069103 293.231265L435.135491 275.692201C435.135491 275.692201 453.732238 216.497852 446.07475 201.151165 438.417262 185.804477 417.632668 183.6121 417.632668 183.6121zM543.434214 201.151165C543.434214 201.151165 539.058508 234.036917 553.279586 236.229306 567.500664 238.421695 570.782409 211.016898 570.782409 211.016898L565.31278 183.6121 543.434214 201.151165z"/>
    <path fill="#3F3D56" fill-rule="nonzero" d="M511.783847,75.4471635 C513.754246,77.2407297 515.72802,79.1988194 518.26589,80.0038057 C522.515474,81.3516792 527.690748,79.2538778 531.315302,81.8536107 C534.762348,84.326001 535.035206,89.9686512 538.806079,91.9090972 C540.37859,92.5591163 542.084921,92.8174285 543.778876,92.6619022 L557.113809,92.5041287 C556.445599,94.2190087 556.547105,96.1392406 557.392369,97.7737849 C558.237633,99.4083292 559.744697,100.598698 561.528177,101.040493 C562.923535,101.305211 564.673776,101.239406 565.365222,102.482425 C566.112324,103.825528 565.761233,106.499807 567.254382,106.145321 C568.99085,103.166805 571.401425,100.638814 574.291774,98.765147 C575.921131,97.7114388 577.77331,96.7943193 578.74575,95.1130462 C580.087083,92.7938677 579.305589,89.8958998 579.209981,87.2170835 C578.912473,78.8814406 585.631608,71.0862872 583.922987,62.9229261 C583.404093,60.8866115 582.625729,58.9257147 581.607091,57.088592 L573.07606,40.0243357 C571.568407,37.008677 569.815148,33.7564935 566.702396,32.4730352 C561.990482,30.5302162 556.936778,33.9899815 551.918792,34.875625 C546.2159,35.8821683 540.546418,33.4919968 534.97609,31.9065041 C529.405762,30.3210115 522.755424,29.7500541 518.440687,33.6200524 C516.687723,35.1923276 515.473002,37.3916883 513.426456,38.5544312 C509.93471,40.5382551 504.418505,39.3760039 502.639577,42.981653 C501.766917,44.7504319 502.342989,46.9103615 501.773935,48.7993024 C500.997974,51.3750963 498.372791,52.8192666 496.181901,54.3747218 C493.991012,55.930177 491.862895,58.5075447 492.756144,61.044928 C493.13645,62.1252924 494.018398,62.975882 494.374017,64.0646564 C495.028432,66.0682511 493.760595,68.1256132 492.78261,69.9931849 C489.521539,76.2219894 494.88696,77.4283684 498.952004,74.6317016 C503.904297,71.2245848 506.801038,70.9115462 511.783847,75.4471635 Z"/>
    <path fill="#B9EFE9" fill-rule="nonzero" d="M609.069814,92.6282007 C609.069814,92.6282007 611.257673,114.552031 628.760558,114.552031 C646.263442,114.552031 662.494932,99.9091273 662.494932,99.9091273 C662.494932,99.9091273 693.30221,107.974851 693.30221,112.359642 C693.30221,116.744433 668.141898,148.533972 668.141898,148.533972 C668.141898,148.533972 657.202627,231.84454 661.578333,236.229306 C665.954039,240.614072 711.898956,397.369475 704.24148,410.523774 C696.584004,423.678072 699.865775,423.678072 648.451216,426.966649 C597.036657,430.255227 592.660963,441.217136 570.782434,424.77426 C548.903905,408.331384 545.622122,398.465664 536.870711,397.369475 C528.119299,396.273287 518.273951,275.692201 527.025339,259.249325 C535.776726,242.806449 551.091715,221.978807 556.561356,217.594041 C562.030998,213.209275 574.983073,171.425984 574.983073,171.425984 L575.158103,103.59011 L609.069814,92.6282007 Z"/>
    <g transform="translate(833 384.87)">
      <path stroke="#535461" stroke-width="2" d="M42.3914348,239.949321 C42.3914348,239.949321 24.2090818,178.206968 45.8079054,132.770497 C55.0052351,113.762105 57.7844784,92.2820062 53.7279054,71.5587327 C51.7264018,61.7419258 48.8283711,52.129474 45.0702583,42.8422621"/>
      <path fill="#33CCAB" fill-rule="nonzero" d="M58.464376 14.1257916C58.464376 21.6963798 44.7596701 43.6316739 44.7596701 43.6316739 44.7596701 43.6316739 31.0679054 21.6963798 31.0679054 14.1257916 30.9143796 9.13148341 33.4911507 4.44942372 37.7925732 1.90689588 42.0939958-.63563196 47.4382855-.63563196 51.7397081 1.90689588 56.0411307 4.44942372 58.6179017 9.13148341 58.464376 14.1257916L58.464376 14.1257916zM81.1114348 56.0422621C76.9961407 62.3834386 53.5726112 73.3575563 53.5726112 73.3575563 53.5726112 73.3575563 53.9996701 47.4752033 58.1149642 41.146968 62.3197497 35.030833 70.6292534 33.3734564 76.8587318 37.4084196 83.0882102 41.4433828 84.9735223 49.7041544 81.1114348 56.0422621L81.1114348 56.0422621zM80.1279054 127.658733C73.3726112 131.075203 47.6067289 128.719909 47.6067289 128.719909 47.6067289 128.719909 61.0267289 106.603439 67.782023 103.199909 74.4952877 100.050127 82.496198 102.811443 85.8376875 109.431375 89.179177 116.051307 86.6490317 124.128299 80.1279054 127.658733zM67.1737877 181.714027C61.0914348 186.204615 35.2996701 188.184615 35.2996701 188.184615 35.2996701 188.184615 44.7984936 164.114027 50.8290818 159.610497 56.9077935 155.555707 65.0986683 156.983153 69.44741 162.855163 73.7961517 168.727173 72.77313 176.978322 67.122023 181.610497L67.1737877 181.714027zM24.804376 74.8328504C30.2396701 80.0999092 55.5137877 85.5610857 55.5137877 85.5610857 55.5137877 85.5610857 49.3279054 60.4422621 43.8667289 55.1752033 38.4038988 50.1357351 29.9198077 50.3690408 24.7421867 55.7011129 19.5645656 61.0331851 19.5806722 69.5204681 24.7784936 74.8328504L24.804376 74.8328504zM10.4655524 138.205792C17.2208465 141.609321 42.9737877 139.254027 42.9737877 139.254027 42.9737877 139.254027 29.5537877 117.137556 22.7984936 113.734027 16.0693333 110.511689 7.9988346 113.264257 4.64109456 119.926887 1.28335451 126.589517 3.87217682 134.714022 10.4655524 138.205792L10.4655524 138.205792zM4.96555242 201.708145C11.0479054 206.211674 36.8396701 208.178733 36.8396701 208.178733 36.8396701 208.178733 27.3408465 184.108145 21.3102583 179.617556 15.2315467 175.562766 7.04067189 176.990211 2.69193016 182.862222-1.65681157 188.734232-.633789884 196.985381 5.01731713 201.617556L4.96555242 201.708145z"/>
    </g>
    <path fill="#FFB9B9" fill-rule="nonzero" d="M683.456826,110.167265 C683.456826,110.167265 708.617137,106.878687 700.959649,133.187284 C693.302161,159.495881 682.36289,207.72832 664.860067,209.920697 C647.357243,212.113074 668.141849,146.341582 668.141849,146.341582 L683.456826,110.167265 Z"/>
    <path fill="#3F3D56" fill-rule="nonzero" d="M629.487243,7.95932038 C641.548486,5.30077906 654.331654,4.68668975 666.111057,8.40352538 C677.89046,12.120361 688.539622,20.6184004 692.889217,32.2005957 C697.238812,43.7827909 694.175103,58.3101189 684.274406,65.7071255 C679.116433,69.5607588 672.524389,71.3912478 667.974156,75.9491196 C663.06644,80.865166 660.670961,88.7642763 654.142783,91.1220866 C652.700477,86.2787456 652.549873,81.1412274 653.705974,76.2213992 C654.524938,73.6581146 655.108258,71.0251507 655.448644,68.3554002 C655.581282,65.6674854 654.626193,62.6951186 652.280788,61.3840696 C649.788108,59.9907035 646.697736,60.8834414 643.851216,60.6729211 C636.769444,60.1491408 632.184855,53.0326148 629.524421,46.4352215 C626.863986,39.8378281 624.481048,32.3478443 618.338795,28.7766958 C612.554234,25.4136209 606.139834,26.9600268 599.970366,27.8221617 C599.043289,24.4263812 608.555423,17.0358173 611.349476,15.139364 C616.891205,11.6247206 623.044645,9.18881043 629.487243,7.95932038 Z"/>
    <path fill="#FFB9B9" fill-rule="nonzero" d="M677.987184,183.6121 C677.987184,183.6121 668.141812,139.764439 668.141812,134.283485 C668.141812,128.80253 662.672183,102.493958 665.953953,95.9167661 C669.235723,89.3395739 676.893224,52.0691051 664.86003,55.3576827 C652.826836,58.6462604 647.357206,105.782499 647.357206,105.782499 C647.357206,105.782499 649.545065,133.187284 647.357206,141.956816 C645.169347,150.726348 646.263283,208.824508 653.920771,209.920697 C661.57826,211.016885 677.987184,205.535931 677.987184,183.6121 Z"/>
    <ellipse cx="688.379" cy="24.116" fill="#3F3D56" fill-rule="nonzero" rx="24.066" ry="24.116"/>
    <path fill="#7E8D96" fill-rule="nonzero" d="M430.212818,122.773463 C430.212818,122.773463 408.881256,154.014926 408.881256,190.189256 C408.881256,190.189256 435.135491,189.093067 450.450468,211.016898 C465.765445,232.940728 430.212818,122.773463 430.212818,122.773463 Z"/>
    <path fill="#CF9595" fill-rule="nonzero" d="M427.478003 502.603874C427.478003 502.603874 443.886903 537.682003 443.886903 555.221067 443.886903 572.760131 477.798663 558.509645 477.798663 558.509645 477.798663 558.509645 455.920134 501.507673 458.107919 493.834342 460.295705 486.16101 427.478003 502.603874 427.478003 502.603874zM487.643962 500.411485C487.643962 500.411485 492.241495 565.722357 486.66097 571.433627 481.080446 577.144898 508.428567 573.856332 508.428567 573.856332 508.428567 573.856332 508.428567 524.527704 517.179979 504.796251L487.643962 500.411485z"/>
    <path fill="#07454C" fill-rule="nonzero" d="M440.605121,271.307435 C440.605121,271.307435 407.787321,286.654122 407.787321,293.231265 C407.787321,299.808408 402.317691,332.69416 400.129832,335.982738 C397.941973,339.271315 397.941986,368.868489 400.129832,373.253256 C402.317679,377.638022 406.693397,512.469595 423.102297,512.469595 C439.511197,512.469595 462.48365,504.796251 463.577573,498.219108 C463.577573,498.219108 448.262609,437.928559 453.732201,422.581883 C459.201794,407.235208 461.38969,356.81038 472.32896,350.233237 C483.268231,343.656094 483.268219,356.81038 483.268219,356.81038 L481.080372,448.89048 C481.080372,448.89048 478.892513,508.084828 483.268219,509.181017 C487.643925,510.277205 516.086019,514.661984 519.367801,510.277218 C522.649584,505.892452 533.588842,445.601902 533.588842,439.024759 C533.588842,432.447616 544.528113,362.291334 545.622036,354.618003 C546.71596,346.944671 549.997742,281.173192 542.340254,276.788389 C534.682766,272.403586 440.605121,271.307435 440.605121,271.307435 Z"/>
    <path fill="#2F2E41" fill-rule="nonzero" d="M458.107919,554.124879 C458.107919,554.124879 447.168661,545.355346 440.605096,561.798222 C436.834893,571.466981 430.837606,580.105934 423.102273,587.01063 C423.102273,587.01063 418.726567,597.97254 437.323314,595.780163 C455.92006,593.587786 487.643937,573.856332 487.643937,573.856332 C487.643937,573.856332 479.837971,553.820188 476.083465,553.972527 C472.32896,554.124866 470.141138,561.798222 458.107919,554.124879 Z"/>
    <path fill="#2F2E41" fill-rule="nonzero" d="M504.052861,566.182988 C504.052861,566.182988 487.654391,561.798222 484.367394,566.182988 C481.080397,570.567755 476.704703,595.780163 482.174332,599.06874 C487.643962,602.357318 511.71035,601.261117 514.992132,599.06874 C518.273915,596.876363 514.992132,582.625864 514.992132,582.625864 L504.052861,566.182988 Z"/>
    <path fill="#7E8D96" fill-rule="nonzero" d="M485.456115,129.898706 C485.456115,129.898706 469.047215,115.64822 473.422921,103.59011 C473.422921,103.59011 424.196221,120.032986 425.290144,133.187284 C426.384067,146.341582 446.07475,201.151165 446.07475,201.151165 C446.07475,201.151165 414.35091,262.537902 430.759786,275.692201 C447.168661,288.846499 442.79298,273.499811 471.235062,283.365544 C499.677143,293.231277 511.71035,288.846499 522.649645,286.654122 C533.58894,284.461745 535.776775,285.557921 543.434251,285.557921 C551.091727,285.557921 546.716033,263.634152 543.434251,251.575981 C540.152468,239.51781 535.776775,221.978807 539.058545,217.594041 C542.340315,213.209275 570.782385,136.475862 570.782385,136.475862 C570.782385,136.475862 548.691513,118.753708 522.543449,124.874314 C522.543449,124.874314 504.052861,139.764439 485.456115,129.898706 Z"/>
    <path fill="#7E8D96" fill-rule="nonzero" d="M559.843114,139.764439 C559.843114,138.668251 570.782385,136.475862 570.782385,136.475862 C570.782385,136.475862 577.345937,180.323523 574.064167,189.093067 C570.782397,197.862612 543.434214,207.72832 539.058508,206.632132 C534.682802,205.535943 559.843114,139.764439 559.843114,139.764439 Z"/>
    <ellipse cx="535.759" cy="31.094" fill="#3F3D56" fill-rule="nonzero" rx="25.767" ry="25.82"/>
  </g>
</svg>
