<svg xmlns="http://www.w3.org/2000/svg" width="570" height="407" viewBox="0 0 570 407">
  <g fill="none" fill-rule="evenodd" transform="translate(0 .258)">
    <ellipse cx="292.401" cy="382.452" fill="#FFDDD1" fill-rule="nonzero" rx="97.117" ry="11.064"/>
    <path fill="#2F2E41" fill-rule="nonzero" d="M265.97023,338.810514 C265.97023,338.810514 262.28223,354.791804 263.51157,360.938444 C264.74091,367.085084 264.7409,380.607724 264.7409,380.607724 L268.4289,380.607724 L268.4289,365.855724 C268.4289,365.855724 278.26354,370.773044 280.7222,378.149024 C283.18086,385.525004 308.99678,383.066344 310.22611,380.607684 C311.45544,378.149024 297.93281,373.231684 297.93281,373.231684 L286.86881,340.039784 L265.97023,338.810514 Z"/>
    <path fill="#2F2E41" fill-rule="nonzero" d="M257.36492,193.749644 C257.36492,193.749644 263.51157,215.877584 263.51157,224.482884 C263.51157,233.088184 258.59425,343.727884 263.51157,343.727884 C268.42889,343.727884 288.09816,346.186544 289.32749,341.269224 C290.55682,336.351904 286.86883,290.866704 289.32749,285.949394 C291.78615,281.032084 308.99677,176.539054 307.76749,175.309724 C306.53821,174.080394 263.51157,170.392354 257.36492,193.749644 Z"/>
    <path fill="#3F3D56" fill-rule="nonzero" d="M254.90626,172.851014 C254.90626,172.851014 243.84226,202.354924 253.67693,202.354924 C263.5116,202.354924 269.65822,193.749614 277.0342,196.208274 C284.41018,198.666934 306.53811,167.933694 306.53811,167.933694 L254.90626,172.851014 Z"/>
    <circle cx="301.006" cy="29.634" r="19.669" fill="#FFB9B9" fill-rule="nonzero"/>
    <path fill="#FFB9B9" fill-rule="nonzero" d="M310.84076,35.7807537 C310.84076,35.7807537 302.23545,64.0553437 304.69411,67.7433237 C307.15277,71.4313037 281.33685,66.5139937 281.33685,66.5139937 C281.33685,66.5139937 289.94216,43.1567337 288.71285,38.2394137 C287.48354,33.3220937 310.84076,35.7807537 310.84076,35.7807537 Z"/>
    <path fill="#B9EFE9" fill-rule="nonzero" d="M296.70347,54.8353637 C296.70347,54.8353637 285.63947,51.1473637 281.95147,54.8353637 C278.26347,58.5233637 264.74086,145.805764 256.13555,154.411064 C247.53024,163.016364 241.3836,175.309674 248.75955,176.539004 C256.1355,177.768334 316.37268,185.144314 318.83134,181.456324 C321.29,177.768334 320.67534,141.503104 319.44601,132.897804 C318.21668,124.292504 308.99677,56.0646937 296.70347,54.8353637 Z"/>
    <polygon fill="#FFB9B9" fill-rule="nonzero" points="286.869 176.539 291.786 188.833 302.85 180.227 301.621 171.622"/>
    <path fill="#000" fill-rule="nonzero" d="M281.33685,75.1193037 C281.33685,75.1193037 280.72219,59.7526837 273.34621,79.4219637 C265.97023,99.0912437 249.98894,124.907154 263.51157,144.576434 C277.0342,164.245714 277.40787,172.828074 283.79551,172.236344 C290.18315,171.644614 310.2261,178.997664 310.2261,176.539004 C310.2261,174.080344 286.86885,135.971124 286.86885,135.971124 C285.64076,128.80809 287.927334,121.491056 293.0155,116.301854 C301.62079,107.696544 297.31814,78.8072937 281.33685,75.1193037 Z" opacity=".1"/>
    <path fill="#B9EFE9" fill-rule="nonzero" d="M289.32749,59.7526437 C289.32749,59.7526437 275.80487,57.2939837 268.42889,76.9632637 C261.05291,96.6325437 245.07163,122.448454 258.59425,142.117734 C272.11687,161.787014 279.01087,181.410404 285.39851,180.818674 C291.78615,180.226944 305.30878,176.538964 305.30878,174.080304 C305.30878,171.621644 281.95151,133.512424 281.95151,133.512424 C280.723426,126.349391 283.01,119.03236 288.09816,113.843154 C296.70347,105.237884 305.30878,63.4406437 289.32749,59.7526437 Z"/>
    <g transform="translate(0 255.742)">
      <ellipse cx="17" cy="124.009" fill="#F5DD48" fill-rule="nonzero" opacity=".1" rx="17" ry="2.5"/>
      <ellipse cx="82" cy="130.009" fill="#F5DD48" fill-rule="nonzero" opacity=".1" rx="17" ry="2.5"/>
      <ellipse cx="56" cy="149.009" fill="#F5DD48" fill-rule="nonzero" opacity=".1" rx="12" ry="1.5"/>
      <ellipse cx="123" cy="147.009" fill="#F5DD48" fill-rule="nonzero" opacity=".1" rx="12" ry="1.5"/>
      <path fill="#F5DD48" fill-rule="nonzero" d="M82.5799011,129.508929 C82.5799011,129.508929 58.7174078,51.3982109 86.3146587,20.1140148 C106.952941,-3.28816015 130.37703,-0.488989528 140.870978,2.4044106 C146.366429,3.8646127 150.942068,7.66270421 153.384913,12.7918279 C157.053078,20.6960206 156.387148,33.5278622 130.499117,48.4992678 C87.1470713,73.5698594 84.4389558,107.958086 84.4389558,107.958086 L82.5799011,129.508929 Z"/>
      <path stroke="#565987" d="M137 13.5089286C137 13.5089286 66.5085079 35.4653589 82.3080373 129.508929M96 21.5089286C96 21.5089286 105.403385 27.9024046 102.412624 37.5089286M130 27.5089286C130 27.5089286 124.134884 21.0005517 117 24.5876571M102 57.3081646C102 57.3081646 91.6694951 52.5501371 89 58.5089286M76 68.545819C76 68.545819 83.8603352 67.9542535 84 71.5089286"/>
      <path fill="#F5DD48" fill-rule="nonzero" d="M81,130.508929 C81,130.508929 108.822918,74.3153951 116.466758,75.5282842 C120.097997,76.1155201 121.772678,79.660888 122.546458,83.2117442 C123.486592,87.8178447 122.957235,92.6003985 121.03206,96.8937911 C117.063674,105.899904 106.457362,122.984626 81,130.508929 Z"/>
      <path stroke="#565987" d="M117 85.5089286C117 85.5089286 87.6668252 127.655429 82 129.508929M119 92.0089286L112 92.0089286M111 107.593929L100 108.423929M105 95.5089286L106 101.508929M93.315 112.508929L93.685 117.508929"/>
      <path fill="#F5DD48" fill-rule="nonzero" d="M82,130.508929 C82,130.508929 54.1759678,74.3153951 46.5318207,75.5282842 C42.9004363,76.1155201 41.2256882,79.660888 40.4518772,83.2117442 C39.5143019,87.8179611 40.0435929,92.5997251 41.9663359,96.8937911 C45.9348808,105.899904 56.5416185,122.984626 82,130.508929 Z"/>
      <path stroke="#565987" d="M47 85.5089286C47 85.5089286 76.3555556 127.655429 82 129.508929M44 92.0089286L51 92.0089286M52 107.593929L63 108.423929M59 95.5089286L58 101.508929M70.685 112.508929L70.315 117.508929"/>
      <path fill="#33CCAB" fill-rule="nonzero" d="M130.350008 143.991969C131.105816 143.389329 131.657672 142.575897 131.932732 141.659045 132.181814 140.709336 131.722573 139.717674 130.829788 139.277405 129.81508 138.898508 128.728681 139.585936 127.906988 140.284189 127.085295 140.982442 126.147793 141.772714 125.072423 141.626568 126.197645 140.626709 126.704494 139.119867 126.406985 137.658973 126.360033 137.362392 126.23238 137.083753 126.037498 136.852463 125.486027 136.262466 124.44926 136.516868 123.776464 136.982371 121.631239 138.46007 121.019105 141.312624 121.019105 143.889125 120.804031 142.963533 120.986017 141.994639 120.980502 141.041983 120.974987 140.089328 120.710281 139.039241 119.877559 138.525023 119.369602 138.257675 118.799305 138.125198 118.223143 138.140713 117.258067 138.108237 116.188212 138.200254 115.526446 138.893095 114.710268 139.753733 114.919827 141.193542 115.631226 142.140785 116.342624 143.088028 117.429024 143.683438 118.421673 144.305912 119.22131 144.773649 119.903576 145.41186 120.418001 146.173334 120.475292 146.281773 120.525039 146.393894 120.566898 146.508929L126.605514 146.508929C127.964178 145.840469 129.22389 144.99372 130.350008 143.991969L130.350008 143.991969zM23.3541528 120.982568C24.1073433 120.377988 24.6569935 119.565339 24.9314611 118.650542 25.1834651 117.701685 24.7237508 116.709494 23.8284483 116.269933 22.8136765 115.892058 21.7327239 116.57763 20.9109794 117.273999 20.0892349 117.970368 19.1461589 118.763904 18.0707214 118.612755 19.1969704 117.616204 19.7040346 116.112887 19.4053669 114.655869 19.3584127 114.360089 19.2307518 114.082202 19.0358576 113.851536 18.4843512 113.263131 17.4530342 113.516847 16.7746814 113.981093 14.6348365 115.454803 14.0171493 118.299659 14.0171493 120.869205 13.8020618 119.946112 13.9840589 118.979833 13.9785439 118.035146 13.9730288 117.09046 13.7083057 116.032411 12.8755311 115.519582 12.3675424 115.252955 11.7972095 115.120836 11.2210119 115.136309 10.2558757 115.10392 9.18595323 115.201088 8.52414554 115.88666 7.70791606 116.744975 7.92300356 118.186296 8.63444682 119.125584 9.34589008 120.064872 10.4268426 120.664073 11.3919788 121.317256 12.1914184 121.78174 12.8737718 122.416425 13.388432 123.17424 13.4479498 123.281336 13.4977755 123.393326 13.5373388 123.508929L19.5763339 123.508929C20.9474595 122.839447 22.2185264 121.98944 23.3541528 120.982568L23.3541528 120.982568zM56.3500078 138.991969C57.1058164 138.389329 57.6576725 137.575897 57.9327319 136.659045 58.1818143 135.709336 57.7225731 134.717674 56.8297883 134.277405 55.8150802 133.898508 54.7286808 134.585936 53.9069878 135.284189 53.0852948 135.982442 52.1422781 136.772714 51.0669081 136.626568 52.1912921 135.626031 52.6997484 134.120633 52.4069845 132.658973 52.35817 132.361923 52.2286187 132.083298 52.0319837 131.852463 51.4805119 131.262466 50.4492597 131.516868 49.7764641 131.982371 47.6312388 133.46007 47.0191051 136.312624 47.0191051 138.889125 46.7985164 137.963533 46.9805021 136.994639 46.9805021 136.041983 46.9805021 135.089328 46.7047662 134.039241 45.8775585 133.525023 45.3696018 133.257675 44.7993047 133.125198 44.2231431 133.140713 43.2580675 133.108237 42.1826975 133.200254 41.5264461 133.893095 40.7102678 134.753733 40.9198271 136.193542 41.6312257 137.140785 42.3426243 138.088028 43.423509 138.683438 44.421673 139.305912 45.22131 139.773649 45.903576 140.41186 46.4180009 141.173334 46.4756994 141.280869 46.5236775 141.393164 46.5613835 141.508929L52.6275732 141.508929C53.978494 140.838786 55.2306924 139.9921 56.3500078 138.991969L56.3500078 138.991969z"/>
    </g>
    <g transform="translate(508 215.742)">
      <path stroke="#535461" stroke-width="2" d="M30.2855799,172.909091 C30.2855799,172.909091 16.8566278,128.741866 32.8088848,96.2390102 C39.6017625,82.6414084 41.65443,67.2756777 38.6583642,52.4513403 C37.1801125,45.428914 35.0397121,38.5526727 32.2640803,31.9090909"/>
      <path fill="#33CCAB" fill-rule="nonzero" d="M41.9952592 10.9453673C41.9952592 16.3242174 31.9952786 31.9090909 31.9952786 31.9090909 31.9952786 31.9090909 22.0047408 16.3242174 22.0047408 10.9453673 21.8927169 7.39694618 23.7729222 4.07037543 26.9115625 2.26392713 30.0502028.457478835 33.9497972.457478835 37.0884375 2.26392713 40.2270778 4.07037543 42.1072831 7.39694618 41.9952592 10.9453673L41.9952592 10.9453673zM57.5760198 40.6553263C54.650656 45.1428783 38 52.9090909 38 52.9090909 38 52.9090909 38.3035755 34.5925518 41.2289394 30.114158 44.2179184 25.7858643 50.1247433 24.6129646 54.5529787 27.4684454 58.9812141 30.3239262 60.3213914 36.1699459 57.5760198 40.6553263L57.5760198 40.6553263zM56.9346797 92.5673098C52.1706913 95.0419497 34 93.335948 34 93.335948 34 93.335948 43.4640919 77.3164039 48.2280803 74.8511376 52.9624285 72.5696669 58.604854 74.5697611 60.9613491 79.3647528 63.3178442 84.1597446 61.5335276 90.0101232 56.9346797 92.5673098zM47.4955071 131.299041C43.20282 134.498416 25 135.909091 25 135.909091 25 135.909091 31.7038986 118.759705 35.9600522 115.55111 40.2501694 112.662225 46.0309688 113.679226 49.1001409 117.862812 52.1693129 122.046397 51.4473041 127.92503 47.4589736 131.22528L47.4955071 131.299041zM17.8394683 54.3401068C21.7616863 58.0561219 40 61.9090909 40 61.9090909 40 61.9090909 35.5361424 44.1872596 31.5952472 40.4712445 27.6531586 36.9157991 21.5308672 37.0804009 17.7945913 40.8422842 14.0583154 44.6041675 14.0699382 50.5921151 17.8207911 54.3401068L17.8394683 54.3401068zM8.13085977 99.5772144C12.8831254 102.038119 31 100.335136 31 100.335136 31 100.335136 21.5591965 84.3439347 16.8069309 81.8830301 12.0730501 79.5531355 6.39555439 81.5433655 4.03342592 86.3607461 1.67129746 91.1781266 3.49250183 97.0525082 8.13085977 99.5772144L8.13085977 99.5772144zM3.50449292 145.297108C7.79718002 148.507048 26 149.909091 26 149.909091 26 149.909091 19.2961014 132.752514 15.0399478 129.551798 10.7498306 126.661702 4.96903118 127.679129 1.89985915 131.864469-1.16931289 136.049809-.447304141 141.930906 3.54102643 145.23254L3.50449292 145.297108z"/>
    </g>
    <g transform="matrix(-1 0 0 1 486 286.742)">
      <path stroke="#535461" stroke-width="2" d="M21.5237199,118 C21.5237199,118 12.5710852,87.6154553 23.2059232,65.2553345 C27.7345083,55.900956 29.1029533,45.3302051 27.1055762,35.131902 C26.120075,30.3008712 24.6931414,25.5704073 22.8427202,21"/>
      <path fill="#33CCAB" fill-rule="nonzero" d="M28.9966814 6.79876787C28.9966814 10.4425051 21.996695 21 21.996695 21 21.996695 21 15.0033186 10.4425051 15.0033186 6.79876787 14.9249018 4.39499873 16.2410455 2.14151532 18.4380938.91779228 20.635142-.30593076 23.364858-.30593076 25.5619062.91779228 27.7589545 2.14151532 29.0750982 4.39499873 28.9966814 6.79876787L28.9966814 6.79876787zM39.9828713 27.3769804C37.8933257 30.5348875 26 36 26 36 26 36 26.2168396 23.1105836 28.3063853 19.9591213 30.4413703 16.913285 34.6605309 16.0879111 37.8235562 18.0973235 40.9865815 20.1067359 41.943851 24.2206017 39.9828713 27.3769804L39.9828713 27.3769804zM39.5628184 63.0607532C36.330112 64.7930012 24 63.5987999 24 63.5987999 24 63.5987999 30.4220623 52.3851191 33.6547688 50.6594327 36.8673622 49.0624032 40.696151 50.4624692 42.2952012 53.8189634 43.8942514 57.1754576 42.6834652 61.2707226 39.5628184 63.0607532zM32.5738126 88.856784C29.6019523 91.0381759 17 92 17 92 17 92 21.6411606 80.3072366 24.5877284 78.1195583 27.5578096 76.1498639 31.5599015 76.8432737 33.6847129 79.6957186 35.8095243 82.5481635 35.3096721 86.5563219 32.5485202 88.8064926L32.5738126 88.856784z"/>
      <path fill="#33CCAB" fill-rule="nonzero" d="M12.9308385 36.6386363C15.5979467 39.2708136 28 42 28 42 28 42 24.9645768 29.4470362 22.2847681 26.8148588 19.6041479 24.2964183 15.4409897 24.4130113 12.9003221 27.0776786 10.3596545 29.7423459 10.367558 33.9838088 12.918138 36.6386363L12.9308385 36.6386363zM5.48165485 68.0676865C8.70640651 69.7903196 21 68.5982313 21 68.5982313 21 68.5982313 14.5937405 57.4043906 11.3689888 55.6817575 8.15671257 54.0508312 4.30412619 55.4439922 2.70125331 58.8161586 1.09838042 62.188325 2.33419767 66.3003921 5.48165485 68.0676865L5.48165485 68.0676865zM2.42618741 98.8554662C5.39804771 101.044062 18 102 18 102 18 102 13.3588394 90.3023342 10.4122716 88.1200277 7.44219043 86.1495074 3.44009851 86.843208 1.3152871 89.6968489-.809524305 92.5504897-.309672098 96.5603286 2.45147984 98.8114427L2.42618741 98.8554662z"/>
    </g>
    <path fill="#2F2E41" fill-rule="nonzero" d="M294.90952,0.199943747 C284.79503,-1.22910625 274.82222,5.18049375 269.22847,13.7277237 C263.63472,22.2749537 261.6078,32.6210637 260.13426,42.7291837 C259.838948,45.7834512 259.139287,48.7849677 258.05363,51.6550037 C255.60881,57.2701537 250.07269,61.5101237 249.17163,67.5677637 C248.60163,71.3993137 250.02934,75.2039137 250.77511,79.0051537 C252.75611,89.1024537 249.82093,99.7212637 244.43634,108.489744 C242.03258,112.404114 238.52848,116.358544 233.9371,116.498744 L243.55876,117.990304 C241.932682,121.54668 239.116624,124.424201 235.59618,126.126674 C259.250939,123.158451 277.289394,103.518296 278.23943,79.6969737 C278.37835,76.2135437 278.20931,72.4754837 280.10155,69.5475237 C281.73848,67.0146237 284.5953,65.6094137 287.19155,64.0748637 C296.11142,58.8025637 303.5644,50.0604937 304.75503,39.7673037 C305.27831,35.2430037 304.5877,30.7156937 304.40903,26.1941137 C304.22076,21.4296337 312.22133,18.2140137 313.29952,13.6528437 C314.93803,6.72088375 301.2746,1.09924375 294.90952,0.199943747 Z"/>
  </g>
</svg>
