<svg xmlns="http://www.w3.org/2000/svg" width="24" height="24" viewBox="0 0 24 24">
  <path fill="#07454C" d="M9.821999,14.6473517 C9.71526025,11.8357064 10.5978672,10.2828424 12.5358133,10.2828424 C14.4712743,10.2828424 15.3692106,11.8338532 15.2928835,14.6473517 L15.8112503,14.6473517 C16.1125568,14.6473517 16.356814,14.8916089 16.356814,15.1929154 L16.356814,19.5574247 C16.356814,19.8587312 16.1125568,20.1029884 15.8112503,20.1029884 L9.26448629,20.1029884 C8.9631798,20.1029884 8.71892262,19.8587312 8.71892262,19.5574247 L8.71892262,15.1929154 C8.71892262,14.8916089 8.9631798,14.6473517 9.26448629,14.6473517 L9.821999,14.6473517 Z M14.2024092,14.6473517 C14.2794574,12.3700883 13.7030939,11.3739697 12.5358133,11.3739697 C11.3713513,11.3739697 10.8085438,12.3678098 10.912886,14.6473517 L14.2024092,14.6473517 Z M9.92757422,3.50026257 C12.7973286,2.29614252 15.8136937,3.25258145 18.0413083,6.51230479 C21.520212,7.11540095 23.3492441,9.41604755 22.9445739,12.0890764 C22.5495841,14.6981615 20.8153164,16.2840427 18.2607964,16.2811647 C17.9567596,16.2808222 17.7431666,15.982232 17.7740747,15.682515 C17.8049828,15.382798 18.0689138,15.2028905 18.3727245,15.1957934 C20.3751705,15.1490155 21.5572685,13.9633405 21.8657394,11.9257515 C22.1853833,9.81435954 20.7010284,8.00479236 17.6403791,7.55298888 L17.3978388,7.51718584 L17.2635725,7.31205125 C15.3064004,4.32184683 12.7826437,3.48558923 10.3497434,4.50640969 C8.18795905,5.41347265 6.5626218,7.66831878 6.5626218,9.73727869 L6.5626218,10.3225936 L5.9787515,10.2814959 C3.51944188,10.1083887 2.24161825,11.0168867 2.10297761,12.4642992 C1.9803827,13.7441938 2.82294889,15.0340202 3.80884961,15.1929154 C4.30670637,15.1929154 4.30670637,15.1929154 6.79599016,15.1929154 C7.09729665,15.1929154 7.34155382,15.4371725 7.34155382,15.738479 C7.34155382,16.0397855 7.09729665,16.2840427 6.79599016,16.2840427 C4.30670637,16.2840427 4.30670637,16.2840427 3.72549887,16.277638 C2.04251666,16.017459 0.842478895,14.1804041 1.01682153,12.3602616 C1.20365164,10.4097495 2.81967125,9.14684406 5.50275017,9.17080213 C5.7590664,6.82644745 7.56504823,4.49155469 9.92757422,3.50026257 Z M9.81004996,15.738479 L9.81004996,19.011861 L15.2656866,19.011861 L15.2656866,15.738479 L9.81004996,15.738479 Z M11.9923046,17.0114609 C11.9923046,16.6097189 12.2365618,16.2840427 12.5378683,16.2840427 C12.8391748,16.2840427 13.083432,16.6097189 13.083432,17.0114609 L13.083432,17.7388792 C13.083432,18.1406211 12.8391748,18.4662974 12.5378683,18.4662974 C12.2365618,18.4662974 11.9923046,18.1406211 11.9923046,17.7388792 L11.9923046,17.0114609 Z"/>
</svg>
