<svg xmlns="http://www.w3.org/2000/svg" width="48" height="48" viewBox="0 0 48 48">
  <path fill="#07454C" d="M10.3190008,5.08425751 C11.0181668,5.78292344 11.4032583,6.71264425 11.4032583,7.70137908 C11.4032583,7.99244821 11.3662495,8.27701579 11.301234,8.55308136 C19.1515985,2.08904615 30.8138683,2.52314925 38.1501107,9.85939161 C45.9499631,17.658744 45.9499631,30.3502582 38.1501107,38.1501107 C34.2501844,42.0500369 29.1274678,44 24.0047511,44 C18.8820345,44 13.7593178,42.0500369 9.85939161,38.1501107 C2.52214901,30.8128681 2.08904615,19.1480977 8.55558195,11.2972331 C8.27501532,11.3637489 7.98844726,11.4007577 7.70137908,11.4007577 C6.75365399,11.4007577 5.80542879,11.040172 5.08425751,10.3185006 C4.38509146,9.61933459 4,8.6901139 4,7.70137908 C4,6.71264425 4.38509146,5.78292344 5.08425751,5.08425751 C5.78292344,4.38509146 6.71264425,4 7.70137908,4 C8.6901139,4 9.61983471,4.38509146 10.3190008,5.08425751 Z M5.79142546,9.61183281 C6.84467561,10.665083 8.55908278,10.6645828 9.61133269,9.61133269 C10.1214538,9.10121154 10.4025206,8.42255036 10.4025206,7.70137908 C10.4025206,6.97970768 10.121954,6.30154662 9.61133269,5.79142546 C9.08520774,5.26480039 8.39254323,5.00123779 7.70137908,5.00123779 C7.01021493,5.00123779 6.31805054,5.26480039 5.79142546,5.79142546 C5.28130431,6.30154662 5.00023756,6.97970768 5.00023756,7.70137908 C5.00023756,8.42305047 5.28130431,9.10121154 5.79142546,9.61183281 Z M37.4429427,10.5665596 C33.7380628,6.86167965 28.871407,5.00923969 24.0047511,5.00923969 C19.1380953,5.00923969 14.2714395,6.86167965 10.5665596,10.5665596 C3.15679974,17.9763194 3.15679974,30.0331829 10.5665596,37.4429427 C17.9763194,44.8527025 30.0331829,44.8527025 37.4429427,37.4429427 C44.8527025,30.0331829 44.8527025,17.9763194 37.4429427,10.5665596 Z M12.5425289,35.4664733 C6.22252785,29.1464723 6.22252785,18.86303 12.5425289,12.543029 C15.604256,9.48130181 19.6752229,7.79490129 24.0047511,7.79490129 C28.3342794,7.79490129 32.4052462,9.48080169 35.4669734,12.5425289 C38.6582313,15.7337868 40.235606,19.9352846 40.2040985,24.1272802 C40.2206024,24.1777922 40.235606,24.2288043 40.235606,24.2848176 C40.235606,24.3543342 40.2211025,24.42085 40.1955965,24.4808642 C40.0790688,28.4718121 38.5061952,32.4272515 35.4669734,35.4664733 C32.4052462,38.5282004 28.3342794,40.214601 24.0047511,40.214601 C19.6752229,40.214601 15.604256,38.5282004 12.5425289,35.4664733 Z M12.8421,13.6787987 C10.2039734,16.5279754 8.85965417,20.1478351 8.80764181,23.785199 L11.5137845,23.785199 C11.7903502,23.785199 12.0139033,24.0092522 12.0139033,24.2853178 C12.0139033,24.5613833 11.7903502,24.7854365 11.5137845,24.7854365 L8.82364562,24.7854365 C8.99568648,28.16824 10.2879934,31.5040322 12.7015666,34.1816681 L14.5239994,32.3592353 C14.7195459,32.1636889 15.035621,32.1636889 15.2311674,32.3592353 C15.4267138,32.5547818 15.4267138,32.8708568 15.2311674,33.0664033 L13.397732,34.8998387 C16.1573874,37.5869769 19.6912267,39.0193171 23.2760781,39.1898576 L23.2760781,36.8052913 C23.2760781,36.5292257 23.4996312,36.3051725 23.7761968,36.3051725 C24.0527625,36.3051725 24.2763156,36.5292257 24.2763156,36.8052913 L24.2763156,39.2008602 C27.8956752,39.1373451 31.4950301,37.7930258 34.3312037,35.1674023 L32.6773109,33.5140096 C32.4817644,33.3189633 32.4817644,33.0023881 32.6773109,32.8068416 C32.8728573,32.6112952 33.1889324,32.6112952 33.3844788,32.8068416 L35.0408722,34.4627349 C37.6234856,31.739088 39.0073142,28.2882685 39.1858566,24.7849364 L36.9288206,24.7849364 C36.6522549,24.7849364 36.4287018,24.5608832 36.4287018,24.2848176 C36.4287018,24.0087521 36.6522549,23.7846989 36.9288206,23.7846989 L39.2018604,23.7846989 C39.1478476,20.0263062 37.7140071,16.2869181 34.8993386,13.3967317 L33.1599255,15.136645 C33.0624023,15.2341681 32.9343719,15.2831798 32.8063415,15.2831798 C32.6783111,15.2831798 32.5502807,15.2341681 32.4527575,15.136645 C32.2572111,14.9415986 32.2572111,14.6250234 32.4527575,14.429477 L34.181168,12.7010665 C31.3690001,10.1664645 27.83166,8.87165702 24.2758155,8.80864205 L24.2758155,11.4492692 C24.2758155,11.7253348 24.0522624,11.949388 23.7756967,11.949388 C23.499131,11.949388 23.2755779,11.7253348 23.2755779,11.4492692 L23.2755779,8.81964467 C19.7542416,8.98718446 16.2834173,10.3730136 13.5462672,12.9681299 L15.4127105,14.8350733 C15.608257,15.0306198 15.608257,15.347195 15.4127105,15.5422413 C15.3151874,15.6397644 15.1871569,15.6887761 15.0591265,15.6887761 C14.9310961,15.6887761 14.8030657,15.6397644 14.7055426,15.5422413 L12.8421,13.6787987 Z M21.3801278,26.6233731 L16.6935147,17.4962053 C16.5944912,17.3026594 16.6309999,17.0676036 16.7850364,16.9140671 C16.939073,16.7600305 17.174629,16.7235218 17.3671747,16.8225454 L26.4943424,21.5091584 C26.5873645,21.5571698 26.6628824,21.6326878 26.7108938,21.7257099 L31.3970068,30.8528776 C31.4960303,31.0464235 31.4595216,31.2814794 31.3054851,31.4350158 C31.2094622,31.5310386 31.0814318,31.5815506 30.9519011,31.5815506 C30.8743827,31.5815506 30.795864,31.5635463 30.7233468,31.5265376 L21.5966792,26.8399245 C21.5036571,26.7919131 21.4281392,26.7163951 21.3801278,26.6233731 Z M25.8936998,22.3258524 L18.2938948,18.4234256 L22.1968217,26.0232305 L29.7961266,29.9256573 L25.8936998,22.3258524 Z"/>
</svg>
