<svg xmlns="http://www.w3.org/2000/svg" xmlns:xlink="http://www.w3.org/1999/xlink" viewBox="0 0 302 236"><defs><filter id="a" width="127.1%" height="195.9%" x="-13.5%" y="-33.1%" filterUnits="objectBoundingBox"><feMorphology in="SourceAlpha" radius="4" result="shadowSpreadOuter1"/><feOffset dy="11" in="shadowSpreadOuter1" result="shadowOffsetOuter1"/><feGaussianBlur in="shadowOffsetOuter1" result="shadowBlurOuter1" stdDeviation="14"/><feColorMatrix in="shadowBlurOuter1" values="0 0 0 0 0 0 0 0 0 0 0 0 0 0 0 0 0 0 0.38 0"/></filter><rect id="b" width="262" height="74" x="0" y="24" rx="8"/></defs><g fill="none" fill-rule="evenodd" transform="translate(20)"><rect width="223" height="46" x="20" y="136" fill="#4A61C4" rx="8"/><rect width="223" height="46" x="20" fill="#4A61C4" rx="8"/><g opacity=".6" transform="translate(20 190)"><rect width="223" height="46" fill="#4A61C4" rx="8"/><rect width="171" height="14" x="36" y="16" fill="#6175CC" rx="7"/></g><rect width="171" height="14" x="56" y="16" fill="#6175CC" rx="7"/><use fill="#000" filter="url(#a)" xlink:href="#b"/><use fill="#7183D1" xlink:href="#b"/><rect width="193" height="18" x="50" y="52" fill="#97A4DD" rx="9"/><rect width="171" height="14" x="56" y="152" fill="#6175CC" rx="7"/><path fill="#000" fill-opacity=".5" fill-rule="nonzero" d="M25 50a1.02 1.02 0 01.484.125.878.878 0 01.111.071c.04.03.077.061.112.097l-.09-.08.008.007.082.073 3 3a1 1 0 01-1.414 1.414L26 53.414V60h6.585l-1.292-1.293a1 1 0 01-.083-1.32l.083-.094a1 1 0 011.414 0l3 3A1.006 1.006 0 0136 61l-.004-.086.003.054L36 61a1.018 1.018 0 01-.146.52 1.035 1.035 0 01-.147.187l.08-.09a1.003 1.003 0 01-.007.008l-.073.082-3 3a1 1 0 01-1.414-1.414L32.585 62H26v6.585l1.293-1.292a1 1 0 011.32-.083l.094.083a1 1 0 010 1.414l-3 3A1.006 1.006 0 0125 72l.085-.004a1.006 1.006 0 01-.052.003L25 72a1.018 1.018 0 01-.52-.146 1.035 1.035 0 01-.187-.147l.09.08a1.006 1.006 0 01-.09-.08l-3-3a1 1 0 011.414-1.414L24 68.585V62h-6.586l1.293 1.293a1 1 0 01.083 1.32l-.083.094a1 1 0 01-1.414 0l-3-3-.073-.082A1.003 1.003 0 0114 61l.004.09a1.006 1.006 0 01-.004-.07V61a1.02 1.02 0 01.125-.484.878.878 0 01.071-.111.999.999 0 01.097-.112l-.08.09c.025-.031.051-.062.08-.09l3-3a1 1 0 011.414 1.414L17.414 60H24v-6.586l-1.293 1.293a1 1 0 01-1.32.083l-.094-.083a1 1 0 010-1.414l3-3 .082-.073A1.003 1.003 0 0125 50l-.09.004.072-.004z"/></g></svg>
