<svg xmlns="http://www.w3.org/2000/svg" viewBox="0 0 228 216"><path fill="#6590ED" fill-rule="evenodd" d="M53.357 52.362l-.037.097-.04.082-.05.092-.058.09-.061.074-.068.072-.074.07-.08.068-.083.052-.088.052-.093.049-.093.035-.094.02-.099.02-.1.019-.1.005-.099-.008-.099-.009-.194-.043-.094-.034-.088-.046-.088-.046-6.776-4.257-1.839 13.25-.021.11-.03.106-.04.103-.049.099-.059.096-.063.081-.077.09-.082.074-.085.06-.098.069-.097.042-.103.041-.11.038-.11.025-.112.012-.111-.002-.115-.002-.107-.026-.11-.028-.11-.027-.103-.05-.1-.05-.096-.06-.087-.071-.08-.081-.076-.08-.063-.101-.06-.087-.047-.109-.044-.094-.027-.114-.02-.111-.01-.108-.002-.105.011-.113 1.991-14.347-8.614-5.411-.082-.058-.08-.056-.072-.068-.065-.08-.061-.077-.053-.088-.048-.086-.038-.097-.034-.096-.027-.092-.018-.104-.01-.1-.004-.098.003-.096.015-.105.022-.103.03-.1.036-.097.04-.082.05-.092.058-.09.061-.074.067-.073.075-.069.08-.068.082-.053.089-.05.093-.05.093-.034.094-.022.098-.02.102-.018.1-.005.097.008.1.009.097.021.097.022.093.034.09.046.086.046 7.65 4.804 1.209-8.715.02-.11.031-.106.04-.103.049-.1.054-.084.069-.092.073-.078.08-.074.09-.072.094-.057.1-.055.104-.04.105-.027.111-.025.112-.011.115-.01.11.014.113.014.11.027.212.078.097.061.095.06.088.072.08.081.076.08.067.09.056.098.05.096.04.106.032.103.018.11.01.109-.001.116-.007.102-1.361 9.813 7.741 4.864.082.057.079.056.072.068.065.08.062.077.053.088.048.087.039.097.032.095.028.093.017.102.01.101.005.098-.004.096-.014.105-.023.103-.028.1zm-36.533 87.515l-.032.082-.038.08-.043.078-.048.077-.05.062-.06.072-.059.06-.063.057-.07.055-.073.054-.073.04-.076.04-.078.025-.079.025-.083.023-.081.01-.083.011-.086.009-.083-.003-.08-.016-.08-.016-.082-.016-.077-.028-4.109-1.65L8.366 149.2l-.034.103-.045.098-.057.094-.068.09-.08.085-.084.071-.096.067-.104.064-.11.05-.115.034-.12.032-.125.019-.126.005-.13.003-.128-.02-.129-.022-.127-.034-.128-.033-.12-.057-.117-.055-.109-.078-.104-.076-.095-.086-.087-.095-.08-.093-.07-.101-.056-.11-.048-.107-.036-.115-.025-.11-.014-.108v-.115l.01-.11.024-.106 2.84-10.447-6.82-2.737-.073-.04-.073-.04-.071-.04-.066-.05-.065-.05-.058-.062-.054-.06-.05-.071-.044-.07-.039-.081-.039-.068-.025-.09-.027-.077-.018-.087-.013-.085-.008-.083.001-.094.002-.08.01-.09.017-.088.021-.086.028-.084.032-.082.038-.08.044-.078.043-.065.054-.074.055-.06.064-.07.064-.058.069-.056.07-.042.072-.04.077-.04.081-.037.08-.024.082-.024.08-.01.084-.01.081.002.083.003.085.004.08.016.155.056 6.558 2.632 3.234-11.9.034-.102.05-.11.056-.094.068-.09.075-.074.09-.082.095-.067.101-.052.11-.05.118-.046.117-.02.125-.019.13-.017.127.009.13.009.129.021.127.034.124.045.238.112.112.066.104.076.096.086.086.095.08.093.07.102.056.11.048.106.036.115.025.11.01.12v.114l-.01.11-.023.107-3.304 12.153 4.373 1.756.076.028.073.04.072.04.065.05.06.062.058.061.055.061.054.06.04.082.043.069.034.08.03.077.027.077.018.087.013.085.004.096.003.081-.006.092-.007.078-.015.088-.023.086-.027.084zm53.42-123.085l-.03.074-.04.083-.041.07-.054.077-.055.065-.061.062-.068.06-.069.048-.078.057-.076.032-.084.043-.086.03-.085.017-.089.016-.092.015-.091.003-.09-.008-.09-.01-.089-.019-.09-.02-.085-.032-.083-.042-5.15-2.466-1.464 6.562-.025.094-.033.09-.039.09-.046.086-.05.072-.06.081-.062.068-.07.064-.075.063-.077.05-.083.047-.088.045-.088.032-.094.03-.093.018-.096.016-.095.004-.095-.008-.096-.01-.092-.02-.095-.022-.18-.065-.081-.056-.085-.043-.074-.066-.07-.064-.07-.064-.06-.073-.053-.084-.048-.082-.044-.08-.035-.09-.03-.088-.018-.097-.013-.095-.007-.093.005-.101.007-.088.018-.096 1.587-7.113-8.544-4.089-.082-.041-.08-.042-.07-.062-.072-.05-.063-.072-.058-.07-.055-.068-.048-.078-.044-.076-.033-.085-.03-.084-.025-.082-.015-.09-.008-.088-.003-.086.003-.084.015-.091.016-.08.026-.087.034-.085.036-.071.046-.08.05-.068.055-.064.06-.063.068-.06.074-.058.074-.046.08-.044.08-.031.085-.03.085-.018.09-.016.091-.015.092-.003.088.008.092.01.088.02.09.02.172.063 8.049 3.852 2.202-9.875.025-.094.032-.091.039-.09.047-.085.05-.072.06-.082.061-.067.07-.065.076-.063.076-.049.083-.047.088-.045.09-.032.093-.03.092-.018.093-.005.1-.016.093.009.096.009.094.021.093.021.091.033.086.044.086.044.083.044.074.065.071.065.068.063.062.074.053.084.048.082.044.08.035.09.024.1.023.085.013.095.007.092-.005.102-.007.087-.017.097-2.325 10.425 5.646 2.703.077.053.08.041.075.051.068.061.065.06.06.071.051.08.052.067.04.087.037.074.03.084.02.092.018.08.01.088-.002.096-.002.084-.01.081-.02.09-.028.087zM27.35 181.762l-.033.085-.038.084-.044.08-.05.08-.056.076-.062.075-.062.06-.068.06-.074.056-.078.055-.079.04-.082.04-.086.038-.087.024-.088.023-.18.018-.087-.004-.09-.005-.092-.006-.087-.017-.085-.031-5.103-1.722-2.095 7.18-.03.09-.04.087-.048.085-.057.081-.064.079-.072.075-.076.062-.084.058-.09.056-.094.043-.1.04-.1.027-.105.026-.106.012h-.106l-.11-.002-.107-.014-.11-.014-.101-.037-.108-.027-.098-.048-.098-.049-.093-.059-.085-.07-.084-.068-.074-.078-.071-.077-.062-.086-.057-.084-.046-.093-.037-.103-.028-.1-.023-.096-.014-.095-.002-.102.006-.1.014-.097.026-.105 2.114-7.245-8.011-2.702-.084-.031-.08-.043-.079-.042-.077-.042-.072-.055-.065-.065-.063-.064-.055-.076-.058-.063-.043-.085-.04-.084-.037-.083-.032-.08-.023-.092-.018-.09-.014-.088-.001-.098.001-.097.005-.081.014-.092.021-.09.031-.1.031-.085.039-.084.045-.08.05-.08.056-.076.056-.063.068-.072.068-.059.073-.057.079-.054.077-.041.083-.04.087-.037.086-.024.089-.024.088-.01.091-.008.088.004.09.005.086.018.177.036 7.905 2.666 2.937-10.072.03-.091.04-.087.048-.085.057-.081.064-.079.072-.075.076-.061.084-.06.09-.055.094-.043.098-.04.102-.027.1-.014.11-.024h.107l.11.002.107.014.212.052.205.075.098.048.092.059.086.07.083.068.075.078.071.077.062.086.053.096.046.093.04.09.03.1.02.097.012.106.006.091-.005.1-.014.097-.027.105-2.957 10.138 5.211 1.759.084.03.08.043.078.043.144.108.07.053.063.064.056.076.052.075.05.073.04.084.036.083.032.081.023.092.018.09.008.1.007.086-.003.096-.009.094-.013.092-.02.09-.027.087zM83.636 70.088l-.035.09-.044.088-.047.073-.058.082-.061.068-.068.066-.074.063-.08.062-.082.047-.088.046-.09.032-.092.03-.098.03-.093.005-.102.014-.094-.008-.103.001-.19-.044-.186-.067-.089-.045-.088-.045-.08-.055-.075-.066-.072-.065-.065-.076-.062-.074-.052-.083-.047-.082-.04-.092-.032-.09-.023-.098-.017-.097-1.268-8.834-8.456-.135-.08-.004-.079-.016-.083-.005-.079-.017-.228-.083-.072-.039-.071-.038-.066-.049-.065-.048-.062-.048-.057-.058-.054-.058-.049-.068-.044-.066-.043-.065-.038-.064-.032-.075-.028-.072-.024-.072-.015-.08-.016-.069-.006-.077-.002-.076.001-.075.012-.083.01-.071.018-.07.025-.077.026-.066.031-.064.04-.073.04-.06.046-.059.05-.057.056-.055.06-.053.06-.041.066-.05.068-.039.067-.025.075-.036.073-.023.078-.022.075-.01.08-.009.08-.008.083-.007 8.188.136-1.545-10.764-.01-.094-.003-.091.007-.1.01-.088.023-.095.028-.093.037-.09.044-.087.047-.073.058-.082.06-.069.072-.077.07-.052.08-.061.083-.048.087-.045.089-.033.093-.03.097-.03.095-.004.1-.015.1-.003.097.01.096.022.193.045.09.045.087.045.087.045.082.055.074.066.073.065.064.075.061.074.053.084.048.082.038.091.033.09.023.098.017.097 1.59 11.078 3.527.06.08.004.083.005.079.016.079.016.228.083.072.039.071.038.066.05.065.048.062.048.057.058.055.057.048.068.05.056.042.065.034.075.032.074.027.073.024.071.02.07.01.079.007.078.004.076-.003.074-.006.073-.017.082-.017.068-.02.068-.03.077-.032.063-.04.073-.04.06-.046.06-.05.056-.056.055-.054.043-.064.052-.064.04-.068.037-.071.037-.074.035-.074.023-.077.023-.076.01-.08.008-.079.009-.08-.004-3.262-.053 1.222 8.523.01.094.004.092-.009.1-.01.087-.021.095-.03.093zm-8.617 58.057l-.04.09-.046.078-.052.075-.062.071-.07.069-.075.066-.082.052-.087.05-.089.039-.096.035-.097.024-.097.011-.103.01-.107.008-.1-.014-.105-.014-.102-.025-.102-.026-.099-.036-.095-.046-.09-.056-8.55-5.349-2.73 5.625-.04.076-.04.063-.05.073-.05.06-.056.057-.06.056-.061.043-.07.052-.07.04-.073.038-.077.037-.077.024-.08.022-.083.022-.082.01-.084.008-.083-.005-.084-.004-.086-.006-.082-.017-.084-.017-.084-.018-.08-.029-.076-.04-.075-.04-.075-.04-.068-.052-.068-.05-.066-.05-.059-.06-.057-.06-.05-.07-.048-.07-.043-.068-.036-.077-.033-.077-.027-.075-.024-.074-.016-.083-.01-.082-.006-.08v-.078l.004-.076.013-.086.014-.073.024-.082.026-.069.034-.078 2.866-5.908-8.748-5.471-.088-.056-.081-.064-.075-.074-.07-.073-.061-.08-.057-.08-.047-.088-.038-.096-.03-.093-.023-.09-.013-.099-.005-.096.003-.092.012-.09.023-.097.03-.083.039-.091.045-.078.054-.074.06-.072.07-.068.077-.066.08-.053.083-.04.093-.049.092-.025.1-.033.1-.011.102-.01.102.002.105.003.104.014.102.026.103.025.099.036.094.046.09.056 8.446 5.281 2.107-4.344.04-.076.04-.063.045-.062.055-.07.055-.058.06-.056.062-.043.07-.052.07-.04.073-.038.077-.037.077-.024.08-.022.079-.01.086-.021.084-.009.083.005.084.004.085.005.083.017.084.018.084.018.08.029.151.08.075.04.068.052.068.05.066.05.059.06.057.06.05.07.048.07.043.068.036.077.033.077.028.075.023.074.015.083.01.082.006.08.001.078-.004.076-.013.086-.014.073-.025.082-.025.069-.034.078-2.244 4.629 8.854 5.538.087.055.082.065.074.074.07.072.063.082.055.079.048.087.037.096.031.093.024.091.012.098.004.096-.003.092-.012.09-.023.097-.028.084zm-3.263 36.074l-.032.077-.039.074-.039.06-.048.071-.05.057-.058.067-.06.054-.065.051-.064.04-.074.048-.073.036-.073.024-.08.034-.08.021-.08.009-.085.019-.081-.004-.086.006-6.442-.259-.663 7.514-.01.083-.02.093-.023.078-.03.077-.04.084-.043.072-.055.08-.055.067-.063.064-.065.051-.073.06-.077.048-.077.034-.087.043-.085.03-.088.019-.092.016-.093.016-.094.003-.095.003-.095-.01-.091-.02-.094-.022-.092-.021-.086-.044-.088-.032-.085-.043-.08-.054-.072-.064-.07-.063-.068-.062-.06-.072-.057-.07-.05-.08-.044-.079-.035-.087-.031-.086-.024-.083-.019-.082-.01-.091-.002-.088.003-.086.643-7.298-6.271-.252-.08-.016-.085-.006-.082-.018-.083-.017-.08-.03-.074-.039-.148-.079-.069-.05-.066-.05-.064-.048-.055-.07-.056-.058-.05-.068-.045-.067-.039-.077-.034-.075-.03-.074-.027-.073-.017-.081-.013-.08-.01-.08.002-.086.001-.075.012-.084.016-.082.022-.08.023-.067.032-.076.039-.074.043-.072.044-.06.054-.068.055-.055.06-.054.064-.052.068-.05.07-.038.073-.036.077-.035.077-.022.08-.021.083-.02.082-.008.084-.007.082.005 6.443.258.662-7.514.01-.083.02-.092.023-.08.035-.086.036-.074.044-.071.053-.08.056-.067.062-.065.065-.05.075-.06.075-.048.082-.045.082-.032.087-.031.086-.018.096-.028.09-.005.093-.003.097-.002.094.01.091.02.093.021.094.022.088.032.086.044.084.043.079.053.073.064.074.052.064.074.06.071.058.071.048.08.045.078.035.088.03.086.025.083.02.082.008.09.003.089-.004.085-.642 7.298 6.27.253.084.005.082.017.082.017.083.018.157.057.075.04.074.04.068.05.067.049.06.06.06.059.05.068.054.058.041.078.043.065.034.076.031.074.022.083.017.082.014.08.009.079.002.076-.005.086-.011.084-.013.07-.022.08-.027.078zm40.986-16.679l-.032.082-.038.08-.044.079-.048.076-.05.062-.059.073-.06.059-.063.057-.069.055-.073.054-.073.04-.077.04-.077.025-.08.025-.082.024-.082.01-.082.01-.086.01-.083-.004-.08-.016-.163-.032-.076-.028-4.11-1.65-2.771 10.193-.034.102-.045.098-.057.094-.068.09-.08.086-.085.07-.095.068-.104.064-.11.049-.115.034-.121.033-.124.018-.126.005-.13.004-.128-.021-.13-.022-.127-.033-.127-.034-.12-.056-.117-.056-.109-.078-.104-.076-.095-.085-.087-.096-.08-.092-.07-.102-.057-.11-.048-.107-.035-.114-.025-.111-.014-.107-.001-.115.011-.11.024-.107 2.84-10.446-6.821-2.738-.072-.04-.074-.04-.07-.039-.066-.05-.065-.05-.058-.062-.055-.06-.049-.072-.045-.07-.038-.081-.04-.068-.024-.09-.028-.077-.017-.086-.013-.086-.008-.083v-.094l.002-.08.01-.09.017-.087.022-.087.028-.083.032-.082.038-.08.044-.079.043-.064.054-.075.054-.06.065-.07.063-.058.07-.055.069-.042.072-.04.077-.04.082-.037.079-.025.083-.024.08-.01.084-.01.08.002.084.004.085.004.08.016.155.056 6.557 2.632 3.234-11.9.035-.103.05-.109.056-.094.067-.09.076-.074.089-.083.096-.067.1-.052.11-.05.119-.045.117-.021.125-.019.129-.016.127.008.13.01.13.02.127.034.123.045.24.113.11.066.105.076.096.086.085.094.08.093.07.102.057.11.048.106.036.115.025.111.01.119v.114l-.011.11-.022.107-3.304 12.154 4.373 1.756.076.028.072.04.072.039.066.05.06.063.057.06.056.061.054.06.04.082.043.07.034.078.03.079.026.076.019.087.013.086.004.095.003.082-.006.091-.007.078-.016.088-.022.086-.027.084zm22.398 60.568l-.033.086-.038.083-.044.08-.05.08-.056.077-.062.074-.062.06-.068.06-.074.056-.078.055-.079.04-.082.04-.086.038-.087.024-.088.023-.09.01-.09.008-.087-.004-.09-.005-.092-.006-.087-.017-.085-.031-5.104-1.722-2.094 7.18-.03.09-.04.088-.048.084-.057.081-.064.079-.072.075-.076.062-.084.058-.09.056-.094.043-.1.04-.1.027-.105.026-.106.012h-.105l-.11-.002-.108-.014-.11-.014-.101-.037-.108-.027-.196-.097-.093-.059-.085-.069-.084-.069-.074-.078-.071-.076-.062-.087-.057-.084-.046-.093-.037-.103-.028-.1-.023-.096-.013-.094-.003-.103.006-.1.014-.097.026-.104 2.115-7.245-8.012-2.703-.084-.03-.159-.086-.077-.042-.072-.054-.065-.065-.063-.065-.055-.076-.058-.062-.043-.086-.04-.084-.037-.083-.032-.08-.023-.092-.018-.09-.013-.088-.002-.098.001-.097.005-.081.014-.092.021-.09.031-.1.031-.085.039-.083.045-.081.05-.08.056-.076.056-.063.068-.072.068-.059.073-.056.079-.055.077-.041.083-.04.087-.037.086-.024.09-.024.087-.01.091-.008.088.005.09.004.086.018.089.018.088.019 7.905 2.665 2.937-10.072.03-.09.04-.088.049-.085.056-.08.064-.08.072-.075.076-.061.084-.059.09-.056.094-.042.098-.041.102-.027.1-.014.111-.023h.106l.11.002.107.013.105.026.107.026.205.075.098.048.092.059.086.07.083.068.076.078.07.077.062.086.053.096.047.093.039.09.03.1.02.097.012.106.006.092-.005.1-.014.096-.027.105-2.957 10.138 5.211 1.76.084.03.158.085.073.054.071.054.07.053.063.064.056.077.052.074.05.073.04.084.036.083.032.081.023.092.018.09.008.1.007.086-.003.096-.008.094-.014.092-.02.09-.027.087zm58.747-78.838l-.037.097-.04.082-.05.092-.059.09-.06.074-.068.072-.074.07-.081.067-.083.053-.087.051-.093.05-.094.034-.093.022-.099.019-.1.019-.101.005-.098-.008-.1-.009-.096-.021-.097-.022-.094-.034-.089-.046-.088-.046-6.776-4.257-1.838 13.25-.021.11-.03.106-.04.103-.05.099-.058.096-.064.08-.076.09-.082.074-.086.06-.097.07-.097.042-.104.04-.11.04-.11.024-.112.011h-.11l-.115-.004-.107-.026-.221-.054-.103-.05-.1-.05-.096-.06-.087-.071-.08-.082-.076-.08-.062-.1-.061-.088-.047-.108-.043-.094-.027-.114-.02-.111-.01-.108-.003-.105.012-.113 1.991-14.348-8.615-5.41-.081-.058-.08-.057-.072-.067-.066-.08-.06-.077-.053-.088-.048-.087-.039-.097-.034-.095-.026-.093-.018-.103-.01-.1-.004-.098.003-.096.015-.105.021-.103.03-.1.037-.097.039-.082.05-.092.06-.09.06-.074.067-.073.075-.07.08-.067.082-.053.088-.05.094-.05.093-.035.094-.02.097-.02.102-.019.1-.005.097.008.1.009.098.021.097.022.093.033.089.047.087.045 7.65 4.805 1.208-8.715.021-.11.03-.106.04-.103.05-.1.054-.084.069-.092.072-.078.081-.075.09-.071.094-.057.1-.055.104-.04.105-.027.11-.025.112-.012.115-.01.11.014.113.015.11.027.212.077.097.062.095.06.088.071.08.082.076.08.067.089.057.099.05.096.039.106.032.103.019.11.01.109-.002.116-.006.102-1.361 9.813 7.741 4.863.081.058.08.056.072.068.065.079.062.078.053.088.047.086.04.097.032.095.028.093.016.103.01.1.005.1-.003.095-.015.105-.022.102-.028.1zm-18.212 45.77l-.032.077-.038.074-.04.061-.048.07-.05.058-.058.067-.06.053-.064.052-.065.04-.074.048-.073.036-.073.024-.08.033-.08.021-.08.01-.085.018-.08-.004-.087.006-6.442-.259-.662 7.514-.01.084-.02.092-.024.079-.03.076-.04.085-.043.072-.055.08-.055.066-.063.065-.065.05-.073.061-.077.047-.077.034-.086.043-.086.031-.088.018-.091.017-.094.015-.093.004-.096.002-.094-.01-.092-.02-.093-.022-.093-.02-.086-.044-.088-.033-.085-.043-.079-.054-.073-.064-.07-.063-.067-.061-.061-.072-.057-.07-.05-.08-.044-.08-.035-.087-.03-.086-.024-.083-.02-.082-.01-.09-.002-.088.003-.087.643-7.298-6.271-.252-.08-.016-.085-.006-.082-.017-.082-.018-.08-.029-.075-.04-.074-.04-.074-.039-.068-.05-.066-.049-.065-.048-.055-.07-.056-.059-.05-.068-.045-.067-.038-.077-.035-.075-.03-.074-.027-.072-.017-.082-.013-.08-.01-.079.003-.087v-.075l.013-.084.015-.082.023-.08.023-.067.032-.076.038-.074.043-.072.044-.06.054-.068.056-.055.059-.054.064-.052.068-.05.07-.038.074-.036.077-.034.076-.023.081-.02.082-.021.083-.008.084-.007.082.005 6.443.259.661-7.514.01-.084.02-.092.024-.079.034-.087.036-.074.044-.07.053-.081.056-.067.063-.064.064-.051.075-.06.075-.048.082-.045.082-.032.087-.03.087-.019.095-.027.09-.005.093-.004.097-.002.094.01.092.02.092.022.094.021.088.033.086.043.085.044.078.053.073.064.074.052.065.073.06.072.057.07.048.08.045.079.036.087.03.086.025.084.019.081.009.09.003.09-.004.085-.643 7.297 6.271.253.083.005.082.017.083.018.082.017.158.058.074.04.074.039.068.05.067.05.061.06.059.058.05.069.054.057.042.078.042.066.035.075.03.074.022.083.018.082.014.08.008.079.002.076-.005.086-.01.084-.013.071-.023.08-.027.078zM226.3 89.83l-.03.073-.04.083-.042.07-.053.077-.056.065-.06.062-.068.06-.07.048-.077.057-.077.032-.084.043-.086.03-.085.017-.088.016-.092.015-.092.003-.09-.008-.09-.01-.088-.019-.09-.02-.086-.032-.082-.042-5.151-2.465-1.463 6.561-.026.094-.033.09-.039.09-.045.086-.05.072-.06.081-.063.068-.07.064-.074.063-.078.05-.082.047-.088.045-.09.032-.092.03-.094.018-.096.016-.095.004-.095-.008-.095-.01-.093-.02-.095-.022-.18-.065-.081-.056-.084-.043-.074-.066-.07-.064-.07-.064-.06-.073-.053-.084-.049-.082-.044-.08-.035-.09-.029-.088-.02-.097-.012-.095-.006-.093.004-.101.007-.088.018-.096 1.587-7.112-8.544-4.09-.081-.041-.08-.042-.07-.062-.073-.05-.062-.072-.059-.07-.055-.068-.048-.078-.043-.076-.034-.085-.03-.084-.024-.082-.016-.09-.008-.088-.003-.086.004-.084.014-.091.016-.08.027-.087.033-.085.036-.071.046-.08.05-.068.055-.064.061-.063.068-.06.073-.058.074-.046.08-.044.08-.031.085-.03.085-.018.09-.016.092-.015.091-.003.089.008.092.01.088.02.09.02.172.063 8.049 3.852 2.201-9.875.025-.094.032-.091.04-.09.046-.085.05-.072.06-.082.062-.067.069-.065.076-.062.077-.05.082-.047.088-.045.09-.032.093-.03.093-.018.093-.005.099-.016.093.009.096.009.094.021.094.021.09.033.086.044.086.044.083.044.074.065.072.065.068.063.061.074.053.084.049.082.043.08.035.09.024.1.024.085.012.095.007.092-.004.102-.008.087-.017.097-2.324 10.425 5.645 2.703.078.053.08.041.074.051.068.061.066.06.06.071.05.08.052.067.04.087.037.074.03.084.02.092.019.08.01.088-.003.096-.002.084-.01.081-.02.09-.027.087zm-2.133 57.166l-.036.09-.044.087-.046.074-.059.082-.06.068-.069.066-.074.063-.08.061-.081.048-.088.046-.09.032-.092.03-.098.03-.093.004-.102.015-.095-.009-.102.002-.19-.044-.187-.067-.176-.09-.08-.056-.076-.066-.071-.065-.066-.075-.061-.074-.053-.084-.046-.081-.04-.092-.033-.09-.023-.098-.017-.097-1.267-8.834-8.457-.135-.08-.005-.078-.015-.083-.006-.08-.016-.228-.083-.072-.039-.07-.038-.067-.05-.064-.048-.062-.047-.057-.059-.055-.057-.048-.068-.045-.066-.042-.066-.039-.064-.032-.074-.027-.073-.024-.07-.015-.082-.016-.068-.007-.077-.002-.076.002-.075.011-.083.011-.071.017-.07.026-.078.025-.065.032-.064.04-.073.04-.06.046-.06.05-.056.055-.055.06-.053.06-.041.067-.051.067-.038.068-.026.075-.035.073-.023.078-.022.075-.01.079-.01.08-.007.083-.008 8.189.138-1.545-10.765-.01-.094-.003-.091.007-.101.01-.087.023-.095.028-.093.037-.09.044-.087.046-.073.059-.083.06-.068.072-.077.07-.052.08-.062.082-.047.088-.045.088-.033.093-.03.098-.03.094-.004.1-.015.1-.003.098.01.095.022.097.022.096.022.178.09.087.045.082.056.074.066.072.065.064.075.062.074.053.083.047.082.038.092.033.09.024.098.017.097 1.59 11.078 3.527.06.08.004.082.004.158.033.229.083.072.039.071.038.066.05.064.048.063.047.057.059.054.057.048.068.05.055.042.066.035.075.031.074.028.073.024.07.019.07.011.08.007.077.003.077-.002.074-.007.073-.016.081-.017.07-.02.067-.031.076-.031.064-.04.073-.041.06-.046.059-.05.057-.055.055-.055.043-.063.052-.064.039-.068.038-.072.036-.073.036-.075.023-.076.022-.077.01-.079.009-.08.008-.079-.003-3.263-.053 1.222 8.523.01.094.004.092-.008.1-.01.087-.022.095-.03.093zm-8.617 58.057l-.041.09-.045.078-.053.074-.061.072-.07.068-.076.067-.081.052-.087.05-.089.039-.096.035-.097.023-.098.012-.102.01-.108.007-.1-.013-.105-.014-.203-.051-.099-.036-.095-.046-.09-.056-8.55-5.349-2.73 5.625-.04.076-.04.063-.05.073-.05.06-.056.057-.06.056-.062.042-.069.053-.07.04-.073.038-.077.036-.077.024-.08.023-.083.022-.083.009-.083.008-.083-.004-.084-.005-.086-.005-.083-.017-.083-.017-.084-.018-.08-.029-.076-.04-.076-.041-.074-.04-.069-.051-.067-.05-.067-.05-.058-.061-.058-.06-.05-.07-.047-.07-.044-.067-.035-.078-.033-.077-.027-.074-.025-.074-.015-.084-.01-.081-.006-.08v-.078l.003-.077.014-.086.014-.072.024-.082.025-.07.034-.078 2.868-5.908-8.75-5.47-.088-.056-.08-.065-.075-.074-.07-.072-.062-.081-.057-.08-.047-.087-.038-.096-.03-.093-.023-.09-.013-.1-.005-.095.004-.092.011-.09.024-.097.029-.083.04-.092.045-.077.053-.074.06-.072.07-.069.077-.065.08-.053.083-.04.093-.049.093-.025.1-.034.1-.01.102-.01.102.002.105.003.104.014.204.051.1.036.094.046.089.056 8.446 5.282 2.108-4.345.039-.076.04-.063.045-.062.055-.07.056-.059.06-.055.062-.043.069-.053.07-.04.073-.037.077-.037.077-.024.08-.023.08-.01.086-.02.083-.009.083.004.085.005.085.005.083.017.167.035.081.03.075.04.15.08.069.052.068.05.066.05.058.06.058.06.05.07.047.07.044.067.035.078.033.077.028.075.024.074.015.083.01.082.006.08v.078l-.003.076-.014.086-.014.073-.024.082-.025.069-.034.078-2.245 4.628 8.855 5.539.087.055.082.065.073.073.07.073.063.081.056.08.047.087.038.096.03.093.024.09.012.099.005.096-.003.092-.012.09-.023.097-.028.084z"/></svg>
