<svg xmlns="http://www.w3.org/2000/svg" width="284" height="458" viewBox="0 0 284 458">
  <path fill="none" stroke="#47445E" stroke-linecap="round" stroke-linejoin="round" stroke-width="3" d="M1804.96231,770.038127 L1819.89508,784.001087 M1803.11038,785.540768 L1818.23601,771.138287 M1636.13463,607.82342 L1621.60384,622.205946 M1620.75223,605.337793 L1634.49703,621.068709 M1579.93513,688.348176 L1562.31449,698.697221 M1565.63899,682.139298 L1575.08953,700.780131 M1641.38357,730.331274 L1633.08492,749.032133 M1626.15544,733.635824 L1644.67717,743.26332 M1688.41698,805.21636 L1668.61438,810.227227 M1676.41768,795.25661 L1680.30195,815.799566 M1687.35536,680.456083 L1668.41964,672.78607 M1683.53768,665.318689 L1674.57045,684.197752 M1682.62146,549 L1697.76387,562.73438 M1681.0044,564.529006 L1695.91028,549.898276 M1800.37131,708.212185 L1780.36335,712.323059 M1788.83245,697.720311 L1791.78824,718.417899 M1747.15949,752.032699 L1735.6028,768.907679 M1731.5855,752.504713 L1748.04922,765.349442 M1748.19135,655.482599 L1751.02312,675.751356 M1737.01391,666.360267 L1757.81415,664.71022 M1886.04394,604.876879 L1868.02717,614.516773 M1872.00505,598.104161 L1880.70962,617.106263 M1937.18091,656.689527 L1955.43716,647.513197 M1951.04287,663.818814 L1942.82474,644.600442 M1862.30031,700.365845 L1845.75414,688.367257 M1862.21854,684.752741 L1848.99295,700.924416 M1957.15674,736.232263 L1942.62595,750.614789 M1941.77434,733.746636 L1955.51914,749.477552 M2008.37747,808.864927 L1989.44174,801.194914 M2004.55979,793.727532 L1995.59256,812.606596 M2003.64356,677.408843 L2018.78598,691.143223 M2002.02651,692.93785 L2016.93239,678.30712" transform="rotate(64 1362.78 -853.138)"/>
</svg>
