<svg xmlns="http://www.w3.org/2000/svg" xmlns:xlink="http://www.w3.org/1999/xlink" width="168" height="175" viewBox="0 0 168 175">
  <defs>
    <path id="dada-a" d="M133.703074,53.6023614 C149.679955,76.6779708 166.490122,100.525228 167.135142,117.652995 C167.780162,134.780762 168.706919,150.52 124.108602,168.980408 C102.375037,177.257529 57.8001901,174.608615 34.9403178,163.614258 C6.14344278,154.185076 1.43250528,109.515625 0.606333404,99.7578125 C-0.219838471,90 2.67595898,61.1688203 18.5694103,38.0932109 C34.4211466,15.0176015 60.0759303,-3.3341965 80.8917629,0.511738397 C101.707595,4.35767329 117.684477,30.4849484 133.703074,53.6023614 Z"/>
  </defs>
  <g fill="none" fill-rule="evenodd">
    <use fill="#29A389" fill-rule="nonzero" transform="matrix(-1 0 0 1 167.78 0)" xlink:href="#dada-a"/>
    <path fill="#BB835E" fill-rule="nonzero" d="M67.63,103.61 L96.02,103.61 C97.8701539,103.61 99.37,105.109846 99.37,106.96 L99.37,131.68 C99.37,141.367075 91.9770745,155.625488 82.29,155.625488 L81.895,155.625488 C72.2079255,155.625488 64.29,141.367075 64.29,131.68 L64.29,106.96 C64.29,105.113744 65.7837525,103.615511 67.63,103.61 Z"/>
    <path fill="#000" fill-rule="nonzero" d="M64.28,104.91 L99.37,104.91 L99.37,132.98 C99.37,142.667075 91.5820745,156.421875 81.895,156.421875 L81.83,156.421875 C72.1429255,156.421875 64.29,142.667075 64.29,132.98 L64.29,104.91 L64.28,104.91 Z" opacity=".1"/>
    <path fill="#DACEB5" d="M64.2089844,118.515625 C64.2089844,140.231445 94.8828125,167.68457 103.19043,171.811035 C72.3691406,179.245605 35.8574219,170.686523 18,155.03 C18,140.154206 33.4029948,127.982747 64.2089844,118.515625 Z"/>
    <path fill="#EBE4D6" d="M106.98291,119.02 C106.98291,140.73582 137.061523,169.212871 145.369141,173.339336 C127.530273,177.977031 82.1347656,172.339336 60.5952148,156.496074 C60.5952148,141.62028 76.0577799,129.128255 106.98291,119.02 Z" transform="matrix(-1 0 0 1 205.964 0)"/>
    <path fill="#000" fill-rule="nonzero" d="M64.35,118.16 C75.6586913,122.386642 88.1074023,122.422118 99.44,118.26 L99.44,113.95 L64.35,113.95 L64.35,118.16 Z" opacity=".1"/>
    <ellipse cx="81.76" cy="64.76" fill="#BFBFBF" fill-rule="nonzero" rx="50.76" ry="51.76"/>
    <path fill="#BB835E" fill-rule="nonzero" d="M132.197957,76.5195563 C129.129702,101.354498 107.955029,120.58 82.29,120.58 C56.7301613,120.58 35.6239462,101.511771 32.4206809,76.8246381 C29.9660243,76.5538781 28.02,72.7378072 28.02,68.07 C28.02,63.2264627 30.1153074,59.3 32.7,59.3 C32.8667502,59.3 33.0314636,59.3163424 33.1937089,59.3482192 C38.1888097,36.8352018 58.2733688,20 82.29,20 C106.30335,20 126.385702,36.8306021 131.384243,59.3389924 C133.760574,59.7583019 135.62,63.507234 135.62,68.07 C135.62,72.0968828 134.171694,75.4898706 132.197957,76.5195563 Z"/>
    <path fill="#BFBFBF" fill-rule="nonzero" d="M51.0895376,34.2397277 C69.0594586,40.5867574 93.7580017,40.5867574 112.566735,34.2397277 C131.375469,27.892698 95.409957,19 80.8700913,19 C66.3302256,19 33.1196166,27.892698 51.0895376,34.2397277 Z" transform="matrix(-1 0 0 1 163.777 0)"/>
  </g>
</svg>
