<svg xmlns="http://www.w3.org/2000/svg" width="817" height="712" viewBox="0 0 817 712">
  <g fill="none" fill-rule="evenodd" transform="translate(.68)">
    <ellipse cx="227" cy="657.68" fill="#FFDED1" fill-rule="nonzero" opacity=".7" rx="227" ry="37.21"/>
    <path fill="#663D5B" fill-rule="nonzero" d="M139.925724,105.450334 C141.925724,99.8103336 149.745724,98.8603336 155.435724,100.770334 C157.775724,101.550334 160.085724,102.660334 162.555724,102.770334 C167.295724,102.910334 171.345724,99.2703336 176.025724,98.5003336 C182.755724,97.3803336 188.925724,102.300334 193.415724,107.430334 C197.905724,112.560334 202.165724,118.530334 208.625724,120.720334 C221.855724,125.180334 234.995724,111.420334 248.915724,112.490334 C256.555724,113.080334 263.155724,118.110334 268.305724,123.780334 C273.455724,129.450334 277.695724,135.970334 283.395724,141.090334 C288.395724,145.590334 294.395724,148.860334 300.445724,151.890334 C303.975724,153.660334 307.745724,155.410334 311.685724,155.150334 C316.145724,154.860334 321.045724,152.150334 324.685724,154.690334 C325.831259,155.588581 326.726589,156.766285 327.285724,158.110334 C331.765724,167.430334 328.155724,179.840334 319.385724,185.320334 C317.855724,186.270334 315.995724,187.320334 315.905724,189.150334 C315.934214,190.005091 316.189618,190.836877 316.645724,191.560334 C318.245724,194.660334 320.045724,197.750334 320.645724,201.180334 C321.245724,204.610334 320.435724,208.560334 317.645724,210.640334 C315.824093,211.85204 313.660559,212.444645 311.475724,212.330334 C301.355724,212.280334 292.675724,204.330334 282.575724,203.720334 C281.283279,203.572522 279.974813,203.772762 278.785724,204.300334 C276.645724,205.410334 275.785724,207.980334 274.915724,210.220334 C270.235724,221.910334 258.615724,230.040334 246.215724,232.270334 C233.815724,234.500334 220.865724,231.360334 209.765724,225.400334 C208.954176,225.012229 208.208462,224.49934 207.555724,223.880334 C206.629075,222.754926 205.975363,221.430389 205.645724,220.010334 C202.245724,209.260334 197.645724,198.010334 188.225724,191.800334 C182.115724,187.800334 173.825724,185.550334 171.055724,178.800334 C169.315724,174.530334 170.405724,169.680334 169.965724,165.080334 C169.081813,157.032267 163.668605,150.200667 156.035724,147.500334 C154.395724,146.950334 152.595724,146.560334 151.395724,145.310334 C150.421435,144.083101 149.799233,142.614014 149.595724,141.060334 C148.105724,134.290334 147.115724,127.140334 145.035724,120.530334 C143.445724,115.350334 137.795724,111.380334 139.925724,105.450334 Z" transform="matrix(-1 0 0 1 468.666 0)"/>
    <path fill="#000" fill-rule="nonzero" d="M179.15 103.79C177.322415 104.985018 175.160124 105.563265 172.98 105.44 162.87 105.44 154.19 97.44 144.09 96.84 142.79844 96.6885646 141.489882 96.8853662 140.3 97.41 138.15 98.52 137.3 101.09 136.43 103.33 131.75 115.03 120.12 123.16 107.72 125.39 95.32 127.62 82.37 124.48 71.28 118.52 70.4691077 118.130762 69.7235621 117.617988 69.07 117 68.1451752 115.873415 67.4916833 114.549324 67.16 113.13 63.76 102.37 59.16 91.13 49.74 84.91 43.62 80.86 35.33 78.67 32.57 71.91 30.82 67.63 31.91 62.78 31.48 58.19 30.5990372 50.1375459 25.17971 43.303129 17.54 40.61 15.9 40.06 14.1 39.66 12.9 38.42 11.9245476 37.1906736 11.3053726 35.7171063 11.11 34.16 9.61 27.4 8.63 20.24 6.55 13.64 5.15 9.22.74 5.64.96.92.830520276 1.16922936.716959519 1.42641107.62 1.69-1.52 7.62 4.14 11.59 5.75 16.69 7.83 23.29 8.81 30.45 10.31 37.21 10.5053726 38.7671063 11.1245476 40.2406736 12.1 41.47 13.3 42.71 15.1 43.11 16.74 43.66 24.3827087 46.354677 29.8026737 53.1937863 30.68 61.25 31.11 65.84 30.02 70.69 31.77 74.97 34.53 81.76 42.82 83.97 48.94 87.97 58.34 94.2 62.94 105.43 66.36 116.19 66.6916833 117.609324 67.3451752 118.933415 68.27 120.06 68.9235621 120.677988 69.6691077 121.190762 70.48 121.58 81.57 127.58 94.48 130.67 106.92 128.45 119.36 126.23 130.92 118.09 135.63 106.39 136.53 104.15 137.36 101.58 139.5 100.47 140.689882 99.9453662 141.99844 99.7485646 143.29 99.9 153.39 100.51 162.07 108.46 172.18 108.5 174.363424 108.614408 176.525987 108.025574 178.35 106.82 180.176999 105.339163 181.306987 103.16611 181.47 100.82 180.964771 101.992936 180.165733 103.015842 179.15 103.79zM180.89 78.44C179.36 79.44 177.49 80.44 177.4 82.27 177.391155 82.6373008 177.448747 83.0031777 177.57 83.35 178.32988 82.6310349 179.176404 82.0095786 180.09 81.5 185.090174 78.2250553 188.505555 73.0204928 189.52 67.13 188.041579 71.786519 184.990914 75.7845518 180.89 78.44z" opacity=".1" transform="matrix(-1 0 0 1 329 103.74)"/>
    <path fill="#CC818C" fill-rule="nonzero" d="M345.80238,599.180334 C341.17238,610.060334 345.93238,620.300334 348.05238,627.060334 C350.17238,633.820334 342.93238,638.430334 336.43238,640.060334 C329.93238,641.690334 313.43238,659.430334 313.43238,659.430334 C313.43238,659.430334 293.43238,671.800334 286.55238,670.430334 C279.67238,669.060334 294.17238,654.680334 294.17238,654.680334 L311.55238,623.300334 C311.80238,620.060334 317.17238,606.300334 317.17238,606.300334 L327.11238,556.100334 L328.43238,549.430334 L363.67238,547.300334 C363.67238,547.300334 361.82238,553.020334 359.27238,560.750334 C354.98238,573.750334 348.70238,592.390334 345.80238,599.180334 Z" transform="matrix(-1 0 0 1 648.372 0)"/>
    <path fill="#CC818C" fill-rule="nonzero" d="M143.995471,423.710334 C142.745471,426.090334 128.375471,428.960334 128.375471,428.960334 L118.745471,430.830334 C118.745471,430.830334 102.995471,438.590334 91.4954715,438.590334 L29.5554715,448.180334 L21.2454715,449.470334 L21.2454715,414.330334 C21.2454715,414.330334 25.4254715,414.770334 31.3454715,415.330334 C44.5754715,416.490334 66.4654715,418.030334 69.4954715,415.870334 C73.8754715,412.750334 76.7454715,400.750334 84.1154715,402.130334 C91.4854715,403.510334 100.245471,413.630334 100.245471,413.630334 C100.245471,413.630334 110.495471,418.500334 120.495471,416.000334 C130.495471,413.500334 145.245471,421.330334 143.995471,423.710334 Z" transform="matrix(-1 0 0 1 165.315 0)"/>
    <path fill="#000" fill-rule="nonzero" d="M139.946079,445.460334 C139.946079,445.460334 139.056079,446.460334 137.756079,448.170334 L129.446079,449.460334 L129.446079,414.330334 C129.446079,414.330334 133.626079,414.770334 139.546079,415.330334 C149.486079,423.180334 139.946079,445.460334 139.946079,445.460334 Z" opacity=".1" transform="matrix(-1 0 0 1 273.516 0)"/>
    <path fill="#33CCAB" fill-rule="nonzero" d="M131.447816,437.340334 L164.717816,465.100334 C169.914159,469.431903 176.364123,471.98034 183.117816,472.370334 C193.457816,472.980334 209.597816,474.470334 221.317816,478.090334 L226.197816,457.710334 C226.197816,457.710334 240.197816,458.210334 243.197816,453.460334 C244.959758,450.656115 246.921506,447.982523 249.067816,445.460334 C249.067816,445.460334 259.197816,421.840334 247.697816,414.590334 C247.697816,414.590334 234.947816,410.710334 232.317816,407.210334 C229.687816,403.710334 211.947816,397.340334 206.447816,397.710334 C200.947816,398.080334 184.697816,398.960334 184.697816,398.960334 C184.697816,398.960334 178.317816,391.710334 175.447816,392.460334 C172.577816,393.210334 162.567816,392.460334 162.567816,392.460334 C162.567816,392.460334 159.817816,385.390334 157.067816,375.260334 C154.317816,365.130334 137.947816,361.510334 137.947816,361.510334 L131.447816,437.340334 Z" transform="matrix(-1 0 0 1 384.638 0)"/>
    <path fill="#000" fill-rule="nonzero" d="M131.447816,437.340334 L164.717816,465.100334 C169.914159,469.431903 176.364123,471.98034 183.117816,472.370334 C193.457816,472.980334 209.597816,474.470334 221.317816,478.090334 L226.197816,457.710334 C226.197816,457.710334 240.197816,458.210334 243.197816,453.460334 C244.959758,450.656115 246.921506,447.982523 249.067816,445.460334 C249.067816,445.460334 259.197816,421.840334 247.697816,414.590334 C247.697816,414.590334 234.947816,410.710334 232.317816,407.210334 C229.687816,403.710334 211.947816,397.340334 206.447816,397.710334 C200.947816,398.080334 184.697816,398.960334 184.697816,398.960334 C184.697816,398.960334 178.317816,391.710334 175.447816,392.460334 C172.577816,393.210334 162.567816,392.460334 162.567816,392.460334 C162.567816,392.460334 159.817816,385.390334 157.067816,375.260334 C154.317816,365.130334 137.947816,361.510334 137.947816,361.510334 L131.447816,437.340334 Z" opacity=".1" transform="matrix(-1 0 0 1 384.638 0)"/>
    <path fill="#CC818C" fill-rule="nonzero" d="M350.07,188.460334 L346.39,189.150334 L346.16,189.150334 L345.62,189.250334 L339.32,190.420334 L337.38,192.720334 L337.3,192.800334 L331.07,200.180334 L325.82,205.330334 L325.77,205.390334 L321.33,209.710334 L313.82,217.180334 L312.56,220.290334 L309.82,227.180334 L309.11,228.930334 L301.61,236.930334 L296.82,247.180334 L285.62,253.680334 L273.57,247.430334 L268.07,239.430334 L269.32,227.970334 L269.57,225.680334 L273.24,219.790334 L276.57,214.430334 L283.07,205.180334 L295.57,196.680334 L297.81,196.090334 L300.32,195.430334 C300.511824,195.156738 300.688748,194.872992 300.85,194.580334 C301.061691,194.228762 301.252035,193.864771 301.42,193.490334 C304.23,187.430334 303.24,178.420334 301.34,170.430334 C299.883757,164.453226 297.954338,158.601435 295.57,152.930334 L328.57,148.180334 C328.57,148.180334 328.25,154.580334 328.25,164.560334 L328.25,164.560334 C328.25,167.060334 328.25,169.770334 328.32,172.670334 C328.48,181.670334 336.84,185.570334 343.15,187.230334 C344.774919,187.663302 346.424619,187.997249 348.09,188.230334 C349.31,188.420334 350.07,188.460334 350.07,188.460334 Z" transform="matrix(-1 0 0 1 618.14 0)"/>
    <path fill="#CC818C" fill-rule="nonzero" d="M349.241006,193.180334 C349.241006,193.180334 350.741006,187.180334 338.741006,171.930334 C326.741006,156.680334 324.491006,131.430334 324.491006,131.430334 C324.491006,131.430334 321.491006,118.430334 324.491006,114.680334 C327.491006,110.930334 332.491006,69.6803336 332.491006,69.6803336 L340.741006,46.4303336 C340.741006,46.4303336 380.991006,5.43033357 364.241006,0.430333568 C352.861006,-2.96966643 339.241006,14.5403336 331.751006,26.1003336 C328.051414,31.7808663 325.660446,38.2125702 324.751006,44.9303336 L324.751006,44.9303336 L301.991006,107.180334 C301.991006,107.180334 299.741006,114.680334 301.991006,127.680334 C304.241006,140.680334 309.241006,163.680334 309.241006,163.680334 L321.991006,195.960334 C321.991006,195.960334 328.701006,216.060334 325.221006,218.510334 L332.991006,207.020334 L349.241006,193.180334 Z" transform="matrix(-1 0 0 1 669.311 0)"/>
    <path fill="#CC818C" fill-rule="nonzero" d="M307.70689,250.710334 C307.70689,250.710334 303.20689,262.710334 293.95689,261.710334 C284.70689,260.710334 240.20689,247.960334 240.20689,247.960334 C240.20689,247.960334 221.70689,238.710334 214.45689,238.960334 C207.20689,239.210334 173.95689,223.710334 173.95689,223.710334 C173.95689,223.710334 171.61689,226.790334 169.00689,230.030334 C166.16689,233.580334 163.00689,237.330334 162.20689,237.460334 C160.70689,237.710334 137.45689,240.960334 137.45689,240.960334 L121.70689,233.710334 L120.20689,227.180334 L119.49689,224.180334 L122.98689,220.290334 L127.57689,215.180334 L136.18689,205.360334 L136.23689,205.300334 L147.72689,192.810334 L147.80689,192.730334 L155.16689,189.730334 L156.58689,189.150334 L156.81689,189.150334 C157.69689,189.000334 161.07689,188.690334 165.60689,191.250334 C168.761623,193.036742 172.264666,194.121423 175.87689,194.430334 C183.066766,194.943197 189.875154,197.859568 195.20689,202.710334 L232.20689,222.180334 L290.45689,243.180334 C290.45689,243.180334 295.45689,214.430334 303.95689,220.680334 C312.45689,226.930334 307.70689,250.710334 307.70689,250.710334 Z" transform="matrix(-1 0 0 1 428.527 0)"/>
    <path fill="#000" fill-rule="nonzero" d="M350.07,230.030334 C347.23,233.580334 344.07,237.330334 343.27,237.460334 C341.77,237.710334 318.52,240.960334 318.52,240.960334 L302.77,233.710334 L301.27,227.180334 L300.56,228.930334 L293.06,236.930334 L288.27,247.180334 L277.07,253.680334 L265.02,247.430334 L259.52,239.430334 L260.77,227.970334 C261.4,226.610334 263.12,222.910334 264.69,219.790334 C265.431766,218.07135 266.364279,216.441129 267.47,214.930334 C268.47,214.270334 269.52,207.180334 269.52,207.180334 C274.06,194.090334 289.27,192.080334 289.27,192.080334 L291.7,194.360334 L292.76,195.460334 C292.33,195.390334 292.84,194.460334 292.29,194.610334 C291.41,194.860334 291.02,196.190334 289.89,196.920334 C283.74,200.920334 274.13,210.250334 270.33,214.680334 C269.41,215.750334 268.46,216.800334 267.49,217.820334 C262,223.630334 263.01,231.330334 263.01,231.330334 C261.64,237.330334 273.76,241.830334 273.76,241.830334 C277.14,236.210334 300.01,220.710334 300.01,220.710334 L315.41,203.460334 C320.13,195.240334 329.41,189.810334 334.59,187.270334 C336.88,186.150334 338.38,185.590334 338.38,185.590334 L344.14,188.050334 C342.619161,187.642877 341.009837,187.712695 339.53,188.250334 C338.679896,188.513293 337.853606,188.847824 337.06,189.250334 C336.76,189.400334 336.46,189.560334 336.18,189.730334 C334.604837,190.644941 333.124259,191.713503 331.76,192.920334 L318.82,207.050334 C308.93,217.840334 316.38,235.290334 331.01,235.540334 L331.14,235.540334 C340.08,237.600334 346.49,233.460334 350.07,230.030334 Z" opacity=".1" transform="matrix(-1 0 0 1 609.59 0)"/>
    <path fill="#000" fill-rule="nonzero" d="M321.26,547.330334 C321.26,547.330334 319.41,553.050334 316.86,560.780334 C307.08,561.510334 290.93,557.730334 284.7,556.130334 L286.02,549.460334 L321.26,547.330334 Z" opacity=".1" transform="matrix(-1 0 0 1 605.96 0)"/>
    <path fill="#33CCAB" fill-rule="nonzero" d="M273.070684,195.460334 L269.870684,192.180334 C269.870684,192.180334 258.320684,193.760334 251.150684,206.100334 C251.150684,206.100334 247.800684,215.350334 246.770684,216.010334 C245.740684,216.670334 239.820684,229.600334 239.820684,229.600334 C239.820684,229.600334 232.740684,250.510334 238.650684,263.350334 C244.560684,276.190334 244.820684,282.100334 244.820684,282.100334 L249.240684,301.100334 L251.070684,317.760334 L266.950684,357.010334 L281.570684,377.840334 C281.570684,377.840334 280.200684,393.210334 277.200684,395.340334 C274.200684,397.470334 275.570684,408.460334 275.570684,408.460334 L273.700684,437.340334 C273.700684,437.340334 267.820684,445.960334 267.450684,459.960334 C267.080684,473.960334 264.950684,477.960334 264.950684,477.960334 C264.950684,477.960334 263.950684,489.710334 266.700684,495.090334 C269.450684,500.470334 262.320684,506.090334 262.320684,506.090334 L268.450684,526.960334 L266.070684,553.460334 C266.070684,553.460334 294.320684,561.340334 304.820684,558.090334 C315.320684,554.840334 320.820684,557.090334 320.820684,557.090334 L339.570684,481.180334 L346.070684,421.560334 C346.070684,421.560334 346.450684,379.310334 352.070684,366.430334 C356.890684,355.430334 350.570684,316.240334 328.860684,308.840334 C324.330684,307.300334 322.030684,302.160334 318.160684,299.340334 C314.700684,296.830334 309.050684,290.900334 311.820684,280.180334 C315.700684,265.180334 325.450684,241.560334 325.450684,241.560334 L332.670684,227.180334 C332.670684,227.180334 324.820684,239.880334 310.450684,236.630334 L310.320684,236.630334 C295.690684,236.370334 288.240684,218.920334 298.130684,208.140334 L311.070684,194.000334 C311.070684,194.000334 318.200684,187.430334 323.450684,189.090334 L317.700684,186.630334 C317.700684,186.630334 301.510684,192.630334 294.700684,204.500334 L279.300684,221.750334 C279.300684,221.750334 256.450684,237.180334 253.070684,242.840334 C253.070684,242.840334 240.950684,238.340334 242.320684,232.340334 C242.320684,232.340334 241.320684,224.630334 246.800684,218.820334 C247.800684,217.820334 248.720684,216.760334 249.640684,215.690334 C254.570684,209.930334 268.200684,194.650334 273.070684,195.460334 Z" transform="matrix(-1 0 0 1 589.89 0)"/>
    <path fill="#000" fill-rule="nonzero" d="M316.849465,298.460334 C316.849465,298.460334 313.219465,324.840334 315.969465,330.210334 L316.849465,298.460334 Z" opacity=".1" transform="matrix(-1 0 0 1 631.79 0)"/>
    <path fill="#000" fill-rule="nonzero" d="M308.528888,308.710334 L312.408888,323.840334 C312.408888,323.840334 313.778888,314.590334 308.528888,308.710334 Z" opacity=".1" transform="matrix(-1 0 0 1 621.099 0)"/>
    <path fill="#000" fill-rule="nonzero" d="M319.32,305.180334 C319.32,305.180334 327.07,343.680334 335.57,355.310334" opacity=".1" transform="matrix(-1 0 0 1 654.89 0)"/>
    <path fill="#000" fill-rule="nonzero" d="M290.95,351.590334 C290.95,351.590334 277.7,364.090334 272.57,363.180334 C272.57,363.180334 292.95,364.060334 299.32,353.310334 C299.32,353.340334 295.2,350.340334 290.95,351.590334 Z" opacity=".1" transform="matrix(-1 0 0 1 571.89 0)"/>
    <path fill="#000" fill-rule="nonzero" d="M282.94,350.590334 C282.94,350.590334 265.94,362.960334 262.57,364.090334 C262.57,364.090334 280.94,358.840334 282.94,350.590334 Z" opacity=".1" transform="matrix(-1 0 0 1 545.51 0)"/>
    <path fill="#000" fill-rule="nonzero" d="M332.82,258.710334 C332.82,258.710334 324.32,269.590334 320.07,268.340334 C320.07,268.340334 330.45,268.710334 332.82,258.710334 Z" opacity=".1" transform="matrix(-1 0 0 1 652.89 0)"/>
    <path fill="#000" fill-rule="nonzero" d="M283.19,272.710334 C283.19,272.710334 301.69,247.590334 310.44,248.590334 C310.44,248.590334 289.44,266.840334 283.19,272.710334 Z" opacity=".1" transform="matrix(-1 0 0 1 593.63 0)"/>
    <path fill="#000" fill-rule="nonzero" d="M295.413103,263.570334 C295.413103,263.570334 283.663103,269.460334 284.913103,271.180334 C286.163103,272.900334 295.413103,263.570334 295.413103,263.570334 Z" opacity=".1" transform="matrix(-1 0 0 1 580.233 0)"/>
    <path fill="#000" fill-rule="nonzero" d="M319.19,456.460334 C319.19,456.460334 279.94,479.340334 276.32,480.460334 C276.32,480.460334 283.07,485.590334 289.44,483.090334 C295.81,480.590334 319.19,456.460334 319.19,456.460334 Z" opacity=".1" transform="matrix(-1 0 0 1 595.51 0)"/>
    <path fill="#000" fill-rule="nonzero" d="M324.337836,504.090334 C324.337836,504.090334 308.587836,502.460334 309.207836,507.590334 C309.827836,512.720334 324.337836,504.090334 324.337836,504.090334 Z" opacity=".1" transform="matrix(-1 0 0 1 633.528 0)"/>
    <path fill="#000" fill-rule="nonzero" d="M322.57,148.180334 C322.57,148.180334 322.25,154.580334 322.25,164.560334 L322.25,164.560334 C314.738705,170.715926 304.73071,172.895296 295.34,170.420334 C293.883757,164.443226 291.954338,158.591435 289.57,152.920334 L322.57,148.180334 Z" opacity=".1" transform="matrix(-1 0 0 1 612.14 0)"/>
    <circle cx="309.07" cy="139.22" r="30.25" fill="#CC818C" fill-rule="nonzero" transform="matrix(-1 0 0 1 618.14 0)"/>
    <path fill="#000" fill-rule="nonzero" d="M218.661977,157.680334 C219.511977,170.050334 222.111977,184.200334 232.851977,190.420334 C240.611977,194.910334 250.391977,193.730334 258.981977,191.170334 C267.571977,188.610334 275.981977,184.790334 284.921977,184.360334 C291.791977,184.030334 298.581977,185.720334 305.431977,186.150334 C312.281977,186.580334 319.781977,185.510334 324.671977,180.690334 C331.671977,173.830334 330.391977,161.360334 323.761977,154.150334 C317.131977,146.940334 306.761977,144.320334 296.941977,144.590334 C284.941977,144.920334 271.541977,148.590334 262.051977,141.310334 C255.681977,136.410334 253.271977,127.910334 247.911977,121.920334 C238.961977,111.920334 199.381977,97.4803336 191.001977,113.780334 C187.071977,121.410334 204.931977,126.860334 209.071977,132.380334 C215.611977,141.090334 217.881977,146.260334 218.661977,157.680334 Z" opacity=".1" transform="matrix(-1 0 0 1 519.802 0)"/>
    <path fill="#663D5B" fill-rule="nonzero" d="M217.731968,156.610334 C218.591968,168.990334 221.181968,183.140334 231.921968,189.350334 C239.681968,193.840334 249.461968,192.660334 258.051968,190.110334 C266.641968,187.560334 275.051968,183.730334 284.001968,183.300334 C290.861968,182.970334 297.651968,184.650334 304.511968,185.090334 C311.371968,185.530334 318.851968,184.450334 323.741968,179.630334 C330.741968,172.760334 329.461968,160.300334 322.831968,153.090334 C316.201968,145.880334 305.831968,143.260334 296.021968,143.530334 C284.021968,143.850334 270.611968,147.530334 261.121968,140.240334 C254.751968,135.340334 252.341968,126.850334 246.981968,120.850334 C238.031968,110.850334 198.451968,96.4203336 190.071968,112.720334 C186.141968,120.340334 204.001968,125.790334 208.151968,131.320334 C214.681968,140.020334 216.951968,145.180334 217.731968,156.610334 Z" transform="matrix(-1 0 0 1 517.942 0)"/>
    <path fill="#000" fill-rule="nonzero" d="M324.7,241.820334 C325.638885,233.836204 329.971348,226.643367 336.59,222.080334" opacity=".1" transform="matrix(-1 0 0 1 661.29 0)"/>
    <path fill="#000" fill-rule="nonzero" d="M226.323348,398.460334 C226.230444,399.440478 225.991117,400.401156 225.613348,401.310334 C224.302911,405.23664 222.72591,409.068886 220.893348,412.780334 C223.563348,412.550334 225.763348,410.450334 226.893348,408.030334 C227.880658,405.5406 228.425512,402.897551 228.503348,400.220334 C228.601558,399.384085 228.624984,398.540744 228.573348,397.700334 C228.503348,396.920334 228.003348,393.940334 226.713348,394.470334 C225.673348,394.910334 226.343348,397.670334 226.323348,398.460334 Z" opacity=".1" transform="matrix(-1 0 0 1 449.493 0)"/>
    <path fill="#000" fill-rule="nonzero" d="M326.981019,176.500334 C322.081019,181.320334 314.601019,182.400334 307.741019,181.960334 C300.881019,181.520334 294.061019,179.840334 287.231019,180.180334 C278.231019,180.610334 269.891019,184.430334 261.291019,186.990334 C252.691019,189.550334 242.921019,190.730334 235.151019,186.240334 C224.421019,180.020334 221.821019,165.870334 220.971019,153.500334 C220.191019,142.080334 217.911019,136.910334 211.381019,128.200334 C207.431019,122.930334 191.031019,117.730334 192.911019,110.650334 C192.367567,111.288774 191.897926,111.986526 191.511019,112.730334 C187.581019,120.350334 205.441019,125.800334 209.591019,131.330334 C216.121019,140.030334 218.391019,145.210334 219.171019,156.620334 C220.031019,169.000334 222.621019,183.150334 233.361019,189.360334 C241.121019,193.850334 250.901019,192.670334 259.491019,190.120334 C268.081019,187.570334 276.491019,183.740334 285.441019,183.310334 C292.301019,182.980334 299.091019,184.660334 305.951019,185.100334 C312.811019,185.540334 320.291019,184.460334 325.181019,179.640334 C326.569907,178.262301 327.674198,176.624552 328.431019,174.820334 C327.991621,175.416799 327.506848,175.978466 326.981019,176.500334 Z" opacity=".1" transform="matrix(-1 0 0 1 519.381 0)"/>
    <polygon fill="#000" fill-rule="nonzero" points="342.43 267.43 339.41 275.43 338.76 275.43" opacity=".1" transform="matrix(-1 0 0 1 681.19 0)"/>
    <ellipse cx="640.39" cy="665.09" fill="#FFDED1" fill-rule="nonzero" opacity=".7" rx="41" ry="5.63"/>
    <path fill="#F5DD48" fill-rule="nonzero" d="M641.28,663.83 C641.28,663.83 583.78,475.33 650.28,399.83 C700.02,343.35 756.49,350.11 781.78,357.09 C795.024584,360.616997 806.051728,369.783127 811.94,382.16 C820.78,401.24 819.19,432.16 756.78,468.33 C652.28,528.83 645.78,611.83 645.78,611.83 L641.28,663.83 Z"/>
    <path stroke="#565987" d="M772.78 383.83C772.78 383.83 603.28 436.83 641.28 663.83M673.78 402.83C673.78 402.83 697.11 418.56 689.7 442.19M755.78 416.83C755.78 416.83 741.51 402.31 724.14 410.32M688.78 489.83C688.78 489.83 663.72 477.11 657.24 493.04M626.78 516.33C626.78 516.33 645.59 514.83 645.93 523.83"/>
    <path fill="#F5DD48" fill-rule="nonzero" d="M639,665.33 C639,665.33 706.34,528.33 724.84,531.33 C733.63,532.75 737.68,541.4 739.51,550.08 C741.769751,561.316258 740.469394,572.977532 735.79,583.44 C726.24,605.35 700.57,646.98 639,665.33 Z"/>
    <path stroke="#565987" d="M724.29 557.33C724.29 557.33 653.61 659.83 639.95 664.33M730.79 573.33L714.29 573.33M711.03 610.83L685.17 611.94M695.29 580.83L698.1 594.3M667.79 621.83L668.29 634.07"/>
    <path fill="#F5DD48" fill-rule="nonzero" d="M641,665.33 C641,665.33 573.66,528.33 555.16,531.33 C546.37,532.75 542.32,541.4 540.49,550.08 C538.198933,561.305914 539.464295,572.966817 544.11,583.44 C553.66,605.35 579.33,646.98 641,665.33 Z"/>
    <path stroke="#565987" d="M555.61 557.33C555.61 557.33 626.29 659.83 639.95 664.33M549.1 573.33L565.6 573.33M568.87 610.83L594.73 611.94M584.6 580.83L581.8 594.3M612.1 621.83L611.6 634.07"/>
    <path fill="#F5DD48" fill-rule="nonzero" d="M764.58 689.32C766.418364 687.828993 767.758012 685.812543 768.42 683.54 768.91 681.24 767.93 678.49 765.74 677.65 763.28 676.71 760.65 678.41 758.66 680.13 756.67 681.85 754.38 683.82 751.77 683.45 754.496806 680.975489 755.723288 677.250475 755 673.64 754.892193 672.902503 754.580475 672.209796 754.1 671.64 752.74 670.18 750.26 670.81 748.62 671.96 743.42 675.62 741.97 682.68 741.95 689.04 741.42 686.74 741.86 684.35 741.85 682.04 741.84 679.73 741.19 677.04 739.21 675.82 737.986943 675.142898 736.607804 674.798114 735.21 674.82 732.87 674.74 730.27 674.97 728.67 676.68 726.67 678.8 727.2 682.37 728.93 684.68 730.66 686.99 733.28 688.48 735.69 690.1 737.633339 691.248046 739.288773 692.824812 740.53 694.71 740.677514 694.970409 740.798136 695.245159 740.89 695.53L755.54 695.53C758.819275 693.876604 761.860115 691.787708 764.58 689.32zM500 642.15C501.835873 640.654492 503.171976 638.634639 503.83 636.36 504.33 634.06 503.35 631.36 501.15 630.47 498.69 629.53 496.07 631.23 494.07 632.96 492.07 634.69 489.79 636.64 487.19 636.28 489.914595 633.791839 491.133242 630.056175 490.4 626.44 490.288162 625.703686 489.976916 625.012029 489.5 624.44 488.13 622.98 485.66 623.6 484.02 624.75 478.82 628.41 477.37 635.47 477.34 641.83 476.82 639.54 477.26 637.15 477.25 634.83 477.24 632.51 476.59 629.83 474.6 628.6 473.372749 627.939781 471.992858 627.615507 470.6 627.66 468.27 627.57 465.66 627.8 464.07 629.51 462.07 631.64 462.6 635.2 464.32 637.51 466.04 639.82 468.67 641.31 471.09 642.93 473.025902 644.084273 474.676796 645.659971 475.92 647.54 476.069817 647.802756 476.190531 648.081069 476.28 648.37L490.94 648.37C494.224763 646.711487 497.271984 644.619466 500 642.15zM585.49 705.32C587.328364 703.828993 588.668012 701.812543 589.33 699.54 589.82 697.24 588.84 694.49 586.65 693.65 584.19 692.71 581.56 694.41 579.57 696.13 577.58 697.85 575.29 699.82 572.68 699.45 575.410456 696.977604 576.640841 693.252274 575.92 689.64 575.812193 688.902503 575.500475 688.209796 575.02 687.64 573.66 686.18 571.18 686.81 569.54 687.96 564.34 691.62 562.89 698.68 562.87 705.04 562.34 702.74 562.78 700.35 562.77 698.04 562.76 695.73 562.11 693.04 560.13 691.82 558.906943 691.142898 557.527804 690.798114 556.13 690.82 553.79 690.74 551.19 690.97 549.59 692.68 547.59 694.8 548.12 698.37 549.85 700.68 551.58 702.99 554.2 704.48 556.61 706.1 558.553339 707.248046 560.208773 708.824812 561.45 710.71 561.597514 710.970409 561.718136 711.245159 561.81 711.53L576.46 711.53C579.735765 709.875831 582.7732 707.786964 585.49 705.32L585.49 705.32z"/>
  </g>
</svg>
