<svg xmlns="http://www.w3.org/2000/svg" width="506" height="506"><path fill="#005A5F" d="M206.835 478.063l10.142 33.118-1.912.586-10.142-33.118 1.912-.586zm-23.706 3.713l1.63 1.16-20.085 28.218-1.63-1.16 20.085-28.218zm67.776-12.796l13.032 32.091-1.853.753-13.032-32.092 1.853-.752zm71.72-.926l10.468 33.017-1.906.604-10.468-33.017 1.907-.604zM142.77 487.608l.628 1.899-32.881 10.885-.629-1.899 32.882-10.885zm240.19-10.337l.747 1.856-32.13 12.933-.748-1.855 32.131-12.934zM3.054 454.33l.93 34.624-1.999.054-.93-34.624 1.999-.054zm456.703 10.617l28.829 19.198-1.109 1.665-28.829-19.198 1.109-1.665zM36.863 445.937l14.502 31.455-1.817.837-14.501-31.454 1.816-.838zm54.394-1.84l1.932.518-8.969 33.455-1.931-.518 8.968-33.455zm176.513 5.475l28.527 19.644-1.135 1.647-28.526-19.644 1.134-1.647zm-101.062 13.013l.126 1.996-34.569 2.173-.125-1.996 34.568-2.173zm261.127-31.522l10.142 33.118-1.912.586-10.142-33.118 1.912-.586zm44.07-9.083l13.032 32.091-1.853.753-13.032-32.092 1.853-.752zm-115.585-2.102l16.571 30.414-1.756.957-16.571-30.415 1.756-.956zm-152.087 28.224l34.62 1.06-.06 1.998-34.62-1.059.06-1.999zm101.272-9.65l33.014 10.474-.604 1.907-33.015-10.476.605-1.906zm-187.748-25.506l28.829 19.198-1.109 1.665-28.829-19.198 1.109-1.665zm159.372-12.17l1.63 1.16-20.085 28.218-1.63-1.16 20.085-28.218zm-91.6-5.905l1.75.97-16.812 30.283-1.749-.97 16.812-30.283zM41.812 423.31l.041 2-34.628.723-.042-2 34.629-.723zm446.959-20.738l28.527 19.644-1.135 1.647-28.526-19.644 1.134-1.647zm-252 4.036l.628 1.899-32.881 10.885-.629-1.899 32.882-10.885zm87.788-2.944l.8 1.833-31.756 13.831-.799-1.834 31.755-13.83zM-5.608 390.71l1.526 1.292-22.38 26.435-1.526-1.292 22.38-26.435zm49.365 6.236l28.829 19.198-1.109 1.665-28.829-19.198 1.109-1.665zm67.773-18.075l1.748.97-16.811 30.283-1.749-.97 16.812-30.283zm313.703 22.231l34.62 1.06-.06 1.998-34.62-1.059.06-1.999zm-87.441-22.175l27.99 20.4-1.177 1.616-27.991-20.4 1.178-1.616zM11.835 363.063l10.142 33.118-1.912.586-10.142-33.118 1.912-.586zm44.07-9.083l13.032 32.091-1.853.753-13.032-32.092 1.853-.752zm71.72-.926l10.468 33.017-1.906.604-10.468-33.017 1.907-.604zm133.083 28.53l.126 1.997-34.569 2.173-.125-1.996 34.568-2.173zm237.421-27.808l1.63 1.16-20.085 28.218-1.63-1.16 20.085-28.218zm-310.169 8.495l.747 1.856-32.13 12.933-.748-1.855 32.131-12.934zm220.57-17.4l1.748.97-16.811 30.283-1.749-.97 16.812-30.283zm49.24 14.737l.628 1.899-32.881 10.885-.629-1.899 32.882-10.885zm-144.975-7.95l.434 1.953-33.809 7.524-.435-1.952 33.81-7.525zm27.828-7.072l31.43 14.553-.84 1.815-31.43-14.553.84-1.815zM72.77 334.572l28.527 19.644-1.135 1.647-28.526-19.644 1.134-1.647zm138.192-15.547l11.478 32.679-1.887.662-11.478-32.679 1.887-.662zm109.424-10.939l1.926.54-9.335 33.354-1.926-.539 9.335-33.355zm-77.142 28.818l34.607 1.428-.083 1.999-34.607-1.429.083-1.998zm238.464-2.32l.126 1.997-34.569 2.173-.125-1.996 34.568-2.173zM161.32 304.879l16.571 30.414-1.756.957-16.571-30.415 1.756-.956zM9.233 333.102l34.62 1.06-.06 1.998-34.62-1.059.06-1.999zm101.272-9.65l33.014 10.474-.604 1.907-33.015-10.476.605-1.906zm243.354-16.597l26.146 22.716-1.311 1.51-26.147-22.717 1.312-1.51zm70.936 4.803l.434 1.953-33.809 7.524-.435-1.952 33.81-7.525zM82.129 285.776l1.63 1.16-20.085 28.218-1.63-1.16 20.085-28.218zm144.656-3.116l24.093 24.884-1.436 1.39-24.094-24.882 1.437-1.392zm205.177-10.635l11.478 32.679-1.887.662-11.478-32.679 1.887-.662zM41.77 291.608l.628 1.899-32.881 10.885-.629-1.899 32.882-10.885zm87.788-2.944l.8 1.833-31.756 13.831-.799-1.834 31.755-13.83zm140.908 1.69l33.418 9.105-.526 1.93-33.418-9.106.526-1.93zm75.748-26.444l1.79.892L332.55 295.8l-1.79-.892 15.453-30.998zm24.005.927l17.975 29.607-1.71 1.038-17.974-29.607 1.71-1.038zm-382.257-2.812L-.56 294.704l-1.887.662-11.478-32.679 1.887-.662zm476.282 27.879l34.607 1.428-.083 1.999-34.607-1.429.083-1.998zM199.579 256.15l1.958.412-7.125 33.895-1.957-.411 7.124-33.896zm-56.787 7.777l27.99 20.4-1.177 1.616-27.991-20.4 1.178-1.616zm157.028-23.909l11.69 32.604-1.882.675-11.69-32.604 1.882-.675zM65.708 266.585l.126 1.996-34.569 2.173-.125-1.996 34.568-2.173zm173.16-22.038l25.857 23.045-1.33 1.494-25.858-23.046 1.331-1.493zm208.917-8.887l24.093 24.884-1.436 1.39-24.094-24.882 1.437-1.392zm43.68 7.693l33.419 9.106-.526 1.93-33.418-9.106.526-1.93zm-128.668.832l.056 2-34.622.976-.056-2 34.622-.976zm-245.002-7.527l.434 1.953-33.809 7.524-.435-1.952 33.81-7.525zm27.828-7.072l31.43 14.553-.84 1.815-31.43-14.553.84-1.815zm274.956-20.436l1.958.412-7.125 33.895-1.957-.411 7.124-33.896zm-404.617-5.125l11.478 32.679-1.887.662-11.478-32.679 1.887-.662zm234.826 9.02l28.09 20.263-1.17 1.622-28.09-20.264 1.17-1.622zm112.582-12.127l15.176 31.134-1.798.877-15.176-31.135 1.798-.876zM-1.292 225.585l.126 1.996-34.569 2.173-.125-1.996 34.568-2.173zm126.678-32.499l1.926.54-9.335 33.354-1.926-.539 9.335-33.355zm-77.142 28.818l34.607 1.428-.083 1.999-34.607-1.429.083-1.998zm411.624-24.357l25.857 23.045-1.33 1.494-25.858-23.046 1.331-1.493zm-246.687-13.422l7.984 33.704-1.946.461-7.984-33.704 1.946-.46zm86.4 17.495l32.053 13.127-.758 1.85-32.052-13.127.758-1.85zm-140.722-9.765l26.146 22.716-1.311 1.51-26.147-22.717 1.312-1.51zm235.195-12.526l.93 34.624-1.999.054-.93-34.624 1.999-.054zm-32.662-9.62l1.526 1.293-22.38 26.435-1.526-1.292 22.38-26.435zM31.785 167.66l24.093 24.884-1.436 1.39-24.094-24.882 1.437-1.392zm440.003-1.616l28.09 20.264-1.17 1.622-28.09-20.264 1.17-1.622zm-396.322 9.31l33.418 9.105-.526 1.93-33.418-9.106.526-1.93zm170.761 6.862l34.626.845-.049 2-34.626-.845.05-2zm-95.013-33.306l1.79.892L137.55 180.8l-1.79-.892 15.453-30.998zm24.005.927l17.975 29.607-1.71 1.038-17.974-29.607 1.71-1.038zM4.58 141.15l1.958.412-7.125 33.895-1.957-.411 7.124-33.896zm429.602-4.025l7.984 33.704-1.946.461-7.984-33.704 1.946-.46zm-96.37 25.185l.041 2-34.628.723-.042-2 34.629-.723zm-232.99-37.292l11.69 32.604-1.883.675-11.69-32.604 1.882-.675zm105.415.717l21.495 27.16-1.569 1.241-21.495-27.16 1.569-1.24zm-166.368 3.812l25.857 23.045-1.33 1.494-25.858-23.046 1.331-1.493zm238.186-10.218l.93 34.624-1.999.054-.93-34.624 1.999-.054zm98.173 22.887l34.626.845-.049 2-34.626-.845.05-2zm-64.364-31.279l14.502 31.455-1.817.837-14.501-31.454 1.816-.838zm54.394-1.84l1.932.518-8.969 33.455-1.931-.518 8.968-33.455zm96.97 26.12l34.626.844-.049 2-34.626-.845.05-2zm-299.43-6.032l.056 2-34.622.976-.056-2 34.622-.976zm-112.01-31.14l28.09 20.263-1.17 1.622-28.09-20.264 1.17-1.622zM168.37 85.917l15.176 31.134-1.798.877-15.176-31.135 1.798-.876zm320.387 2.028l28.829 19.198-1.109 1.665-28.829-19.198 1.109-1.665zm-57.521-9.21l21.495 27.16-1.569 1.24-21.495-27.16 1.569-1.24zM18.18 69.125l7.984 33.703-1.946.461-7.984-33.704 1.946-.46zM257.77 80.571l28.527 19.644-1.135 1.647-28.526-19.644 1.134-1.647zM104.582 86.62l32.052 13.127-.758 1.85-32.052-13.127.758-1.85zm291.38-21.595l11.478 32.679-1.887.662-11.478-32.679 1.887-.662zm67.873-8.962l10.142 33.118-1.912.586-10.142-33.118 1.912-.586zM166.392 54.71l1.526 1.292-22.38 26.435-1.526-1.292 22.38-26.435zm179.928-3.832l16.571 30.414-1.756.957-16.571-30.415 1.756-.956zM194.233 79.102l34.62 1.06-.06 1.998-34.62-1.059.06-1.999zm101.272-9.65l33.014 10.474-.604 1.907L294.9 71.357l.605-1.906zM51.227 67.215l34.626.845-.049 2-34.626-.845.05-2zM-1.87 33.776l1.63 1.16-20.085 28.218-1.63-1.16L-1.87 33.776zm269-2l1.63 1.16-20.085 28.218-1.63-1.16 20.085-28.218zm144.656-3.116l24.093 24.884-1.436 1.39-24.094-24.882 1.437-1.392zM226.77 37.608l.628 1.899-32.881 10.885-.629-1.899 32.882-10.885zm87.788-2.944l.8 1.833-31.756 13.831-.799-1.834 31.755-13.83zM142.811 47.31l.041 2-34.628.723-.042-2 34.629-.723zM15.236 10.735l21.495 27.16-1.569 1.241-21.495-27.16 1.569-1.24zM87.054 4.33l.93 34.624-1.999.054-.93-34.624 1.999-.054zM384.579 2.15l1.958.412-7.125 33.895-1.957-.411 7.124-33.896zm-56.787 7.777l27.99 20.4-1.177 1.616-27.991-20.4 1.178-1.616zm133.441 16.175l34.62 1.06-.06 1.998-34.62-1.059.06-1.999zM120.863-4.063l14.502 31.455-1.817.837-14.501-31.454 1.816-.838zm54.394-1.84l1.932.518-8.969 33.455-1.931-.518 8.968-33.455zm256.648.883l13.032 32.091-1.853.753-13.032-32.092 1.853-.752zM250.708 12.585l.126 1.996-34.569 2.173-.125-1.996 34.568-2.173zM493.77-15.392l.628 1.899-32.881 10.885-.629-1.899 32.882-10.885zm-190.975 3.05l.434 1.953-33.809 7.524-.435-1.952 33.81-7.525zM68.708-7.415l.126 1.996-34.569 2.173-.125-1.996 34.568-2.173z"/></svg>
