<svg xmlns="http://www.w3.org/2000/svg" width="165" height="169" viewBox="0 0 165 169">
  <g fill="none">
    <path fill="#33CCAB" d="M141.732675,42.6023614 C149.667184,55.4318659 164.768706,96.4648437 164.768706,113.770949 C164.768706,143.201854 145.871768,156.745091 124.138203,164.980408 C102.404638,173.257529 76.8749997,167.864859 54.0151274,156.870502 C31.11354,145.876145 10.8400037,129.2801 3.74843744,107.082367 C-3.34312878,84.9264373 -0.190237399,55.4318659 12.5990114,34.0932109 C20.4455844,21.0013306 46.1667009,-5.43935123 80.921364,1.5117384 C105.962106,6.52 127.282079,19.2368371 141.732675,42.6023614 Z" transform="matrix(-1 0 0 1 164.81 0)"/>
    <path fill="#07454C" d="M137.808412,139.776521 C129.823851,146.490428 120.547553,152.188422 110.794635,156.870502 C87.9347629,167.864859 62.4051245,173.257529 40.6715598,164.980408 C35.7685428,163.122549 31.0098925,160.99455 26.5800048,158.474939 C31.8200592,139.678155 45.7,138.54 45.7,138.54 L133.41,138.54 C133.41,138.54 135.233615,138.690248 137.808412,139.776521 Z"/>
    <circle cx="89.95" cy="65.07" r="54.76" fill="#6F6661"/>
    <path fill="#C98664" d="M75.59,109.38 L103.98,109.38 C105.830154,109.38 107.33,110.879846 107.33,112.73 L107.33,137.45 C107.33,147.137075 99.4770745,154.99 89.79,154.99 L89.79,154.99 C80.1029255,154.99 72.25,147.137075 72.25,137.45 L72.25,112.73 C72.25,110.879846 73.7498461,109.38 75.6,109.38 L75.59,109.38 Z"/>
    <path fill="#000" d="M72.27,110.68 L107.360026,110.68 L107.360026,138.75 C107.367965,143.407093 105.523523,147.876171 102.233272,151.172051 C98.9430198,154.46793 94.4770997,156.32 89.82,156.32 L89.82,156.32 C80.1329255,156.32 72.28,148.467075 72.28,138.78 L72.28,110.68 L72.27,110.68 Z" opacity=".1"/>
    <path fill="#000" d="M72.31,123.93 C83.6186913,128.156642 96.0674023,128.192118 107.4,124.03 L107.4,119.72 L72.31,119.72 L72.31,123.93 Z" opacity=".1"/>
    <path fill="#C98664" d="M139.544894,84.9053707 C135.458689,108.575051 114.826985,126.58 89.99,126.58 C65.1500467,126.58 44.5163798,108.570747 40.4336421,84.8968837 C40.1882969,84.9713135 39.9365593,85.01 39.68,85.01 C37.0953074,85.01 35,81.0835373 35,76.24 C35,71.3964627 37.0953074,67.47 39.68,67.47 C39.9423031,67.47 40.1995661,67.5104381 40.4501105,67.5881689 C44.5715745,43.9611173 65.1832654,26 89.99,26 C114.793701,26 135.403384,43.9567243 139.528377,67.5795004 C139.769922,67.5074339 140.017628,67.47 140.27,67.47 C142.854693,67.47 144.95,71.3964627 144.95,76.24 C144.95,81.0835373 142.854693,85.01 140.27,85.01 C140.023377,85.01 139.78121,84.9742522 139.544894,84.9053707 Z"/>
    <path fill="#444" d="M122.247314,64 L92.4914524,64 C92.0411973,64 91.6164566,64.2025 91.331295,64.549 C91.0476342,64.8955 90.9320688,65.353 91.0206189,65.794 L91.5774345,68.5765 C90.2116605,68.1805 88.7693432,68.1805 87.4035693,68.575 L87.9603848,65.794 C88.048935,65.353 87.9348704,64.8955 87.6497088,64.549 C87.3645472,64.2025 86.9383057,64 86.4880505,64 L56.7321891,64 C53.5773964,64 52,64.598 52,65.794 L57.0017085,80.794 C57.1397868,81.4945 57.7551355,82 58.4710411,82 L81.4863496,82 C82.2022553,82 82.8176039,81.4945 82.957183,80.794 L86.66365,72.2665 C88.3115838,70.927 90.6679191,70.9285 92.3158529,72.268 L96.0223199,80.794 C96.161899,81.4945 96.7772477,82 97.4931533,82 L120.508462,82 C121.224367,82 121.839716,81.4945 121.979295,80.794 L126.981004,65.794 C126.981004,64.598 125.403107,64 122.247314,64 Z M79.6177818,79 L59.3621581,79 L54.98997,67 L83.98997,67 L83.2190088,70.9015 C83.1315344,71.104 83.0885385,71.317 83.0944689,71.5345 L79.6177818,79 Z M118.619264,79 L98.3606755,79 L94.885471,71.5315 C94.8899188,71.3155 94.8484055,71.1025 94.7609311,70.9015 L93.98997,67 L122.98997,67 L118.619264,79 Z" opacity=".3"/>
    <path fill="#6F6661" d="M57.4137128,38.0621369 C76.3541888,44.4091666 102.3867,44.4091666 122.211293,38.0621369 C142.035886,31.7151072 104.127877,22.8224092 88.8027135,22.8224092 C73.47755,22.8224092 38.4732368,31.7151072 57.4137128,38.0621369 Z" transform="matrix(-1 0 0 1 179.753 0)"/>
  </g>
</svg>
