<svg xmlns="http://www.w3.org/2000/svg" width="927" height="532" viewBox="0 0 927 532">
  <g fill="none" fill-rule="evenodd">
    <path fill="#FFBCA3" fill-rule="nonzero" d="M854.225696,254.487625 C844.983217,274.802207 825.646229,293.15134 804.889195,310.528874 C786.642262,325.807457 767.12405,340.571809 746.334557,354.821931 C740.573222,358.777551 734.719922,362.683726 728.774657,366.540456 L724.644348,369.203082 C720.981979,371.57151 717.257397,373.917687 713.470604,376.241614 L713.016189,376.523452 C709.343,378.807823 705.637353,381.069943 701.899247,383.309813 C689.670611,390.652433 676.744123,397.943135 662.45439,403.9804 C657.585656,406.042267 652.562746,407.963216 647.361315,409.68391 C644.548269,410.618426 641.675716,411.493607 638.743656,412.309453 C633.939839,413.644475 629.006189,414.808911 623.853446,415.765676 C622.993303,415.928846 622.125045,416.084598 621.256788,416.232934 C615.982326,417.137782 610.642948,417.797876 605.246768,418.2503 C585.471595,419.904244 565.047257,418.695308 545.239625,415.862095 C535.339867,414.445488 525.594285,412.620958 516.16517,410.544258 C515.004789,410.292087 513.852522,410.032499 512.69214,409.802579 C480.582841,402.459959 450.437265,392.491796 418.100759,385.482932 C406.956768,383.065059 395.59639,381.013081 384.019623,379.326998 C378.371892,378.506207 372.691702,377.764528 366.979055,377.101961 C353.533235,375.574103 348.583964,375.329349 334.910937,374.810174 C316.474665,374.068495 353.162352,373.608654 335.618682,376.553119 C333.281689,376.943737 330.974451,377.383799 328.696965,377.873307 C325.808183,378.491373 322.973498,379.195968 320.19291,379.987092 C312.696947,382.200874 305.401448,384.946003 298.372869,388.197476 C296.98528,388.820486 295.61392,389.450913 294.24256,390.088757 C289.941845,392.09129 285.697932,394.138323 281.389103,396.126022 C273.634292,399.835931 265.56372,402.966143 257.256412,405.486008 C252.706209,406.799602 247.657117,408.007903 242.974793,408.848431 C230.583866,411.117968 153.428279,408.789097 140.185323,408.848431 C133.799168,408.848431 94.0574666,404.162768 85.0063413,402.086938 C12.6088262,385.482932 12.6088262,249.376049 35.5481213,162.11895 C42.8804514,134.228038 89.9967934,65.040614 101.316599,58.6695933 C109.777859,53.9348078 118.646575,49.8371112 127.834969,46.4170598 C138.219759,42.5293148 148.902903,39.3438904 159.798206,36.8864875 C169.240854,34.7453366 178.810111,33.1010531 188.458818,31.9617404 C193.700822,31.3387302 199.007741,30.856639 204.347119,30.5303003 C208.458494,30.2682405 212.588804,30.1025989 216.738047,30.0333755 L217.379097,30.0333755 C219.916248,29.9888748 222.453399,29.9888748 224.99055,30.0333755 C243.490641,30.2951601 261.939953,31.8797731 280.169532,34.772703 C291.578598,36.5156481 302.89029,38.651683 313.966659,41.0028047 C320.577317,42.4021054 327.128469,43.8681571 333.620114,45.4009599 C335.600066,45.8682175 337.580018,46.342892 339.535626,46.8249832 C385.72368,58.1355846 426.361377,73.7553397 470.861603,86.5715491 C471.088811,86.6383002 471.307904,86.7050513 471.535111,86.7569688 C480.66858,89.3242257 489.942651,91.4532773 499.319352,93.1354063 C506.20861,94.3962602 513.252045,95.486528 520.417198,96.4432937 C531.388078,97.9266512 542.59428,99.0985037 553.881628,100.107187 L556.372796,100.32969 C572.934606,101.813048 589.642477,102.918149 605.871589,104.208671 C611.632924,104.668511 617.345572,105.143186 622.977074,105.692028 C626.547478,106.018367 630.085425,106.364483 633.590913,106.730378 C636.106426,106.997383 638.630053,107.264387 641.15368,107.546225 C643.677307,107.828063 646.346996,108.124734 648.943653,108.428823 C650.631481,108.621659 652.311194,108.821913 653.999022,109.036999 C664.223363,110.275603 674.42336,111.662542 684.509753,113.249735 C690.644358,114.213917 696.746504,115.252268 702.775619,116.372203 C707.141251,117.183105 711.469014,118.038508 715.758909,118.938411 C718.939815,119.596033 722.093673,120.288266 725.220482,121.015112 C750.627157,126.852124 774.402807,134.506249 794.892061,144.837834 C848.099206,171.605021 871.907314,215.638491 854.225696,254.487625 Z"/>
    <ellipse cx="460.196" cy="421.204" fill="#000" fill-rule="nonzero" opacity=".1" rx="438" ry="20.312"/>
    <polygon fill="#F5DD48" fill-rule="nonzero" points="214.9 171 322.35 294.75 429.81 418.5 214.9 418.5 0 418.5 107.45 294.75"/>
    <polygon fill="#000" fill-rule="nonzero" points="214.9 171 322.35 294.75 429.8 418.5 214.9 418.5 0 418.5 107.45 294.75" opacity=".2"/>
    <polygon fill="#F5DD48" fill-rule="nonzero" points="366.9 171 474.35 294.75 581.81 418.5 366.9 418.5 152 418.5 259.45 294.75"/>
    <polygon fill="#000" fill-rule="nonzero" points="366.9 171 474.35 294.75 581.8 418.5 366.9 418.5 152 418.5 259.45 294.75" opacity=".1"/>
    <polygon fill="#F5DD48" fill-rule="nonzero" points="270 418.7 749.33 418.7 926.29 418.7 601.58 2"/>
    <polygon fill="#000" fill-rule="nonzero" points="925.71 418.77 748.75 418.77 601 3" opacity=".1"/>
    <path fill="#F5DD48" fill-rule="nonzero" d="M814.318884,387.84 C814.318884,387.84 746.688884,428.64 871.318884,491.46 C871.318884,491.46 898.778884,440.46 868.418884,398.89 C856.231104,382.123591 833.435238,377.111764 815.338884,387.22 L814.318884,387.84 Z" transform="matrix(-1 0 0 1 1678.707 0)"/>
    <path stroke="#535461" d="M815.098884,386.98 C815.098884,386.98 872.978884,431.22 871.348884,491.46" transform="matrix(-1 0 0 1 1686.482 0)"/>
    <g transform="translate(124.25 253.488)">
      <path stroke="#535461" stroke-width="2" d="M50.9391091,278.082278 C50.9391091,278.082278 29.7491091,206.082278 54.9391091,153.172278 C65.6366164,131.026076 68.8613428,106.007251 64.1291091,81.8722784 C61.7946703,70.4342104 58.4172216,59.2340682 54.0391091,48.4122784"/>
      <path fill="#33CCAB" fill-rule="nonzero" d="M69.6691091 14.9422784C69.6691091 23.7622784 53.6691091 49.3322784 53.6691091 49.3322784 53.6691091 49.3322784 37.7491091 23.7322784 37.7491091 14.9422784 38.3061294 6.53474624 45.2881452 5.32907052e-14 53.7141091 5.32907052e-14 62.1400731 5.32907052e-14 69.1220889 6.53474624 69.6791091 14.9422784L69.6691091 14.9422784zM96.0591091 63.7922784C91.2691091 71.1922784 63.9691091 83.9822784 63.9691091 83.9822784 63.9691091 83.9822784 64.4691091 53.8422784 69.2591091 46.4422784 72.1681345 41.2327596 77.7342369 38.0747165 83.6983661 38.2498678 89.6624952 38.4250191 95.0336774 41.9042625 97.6319723 47.2755173 100.230267 52.646772 99.6239537 59.0175739 96.0591091 63.8022784L96.0591091 63.7922784zM94.9091091 147.262278C87.0391091 151.262278 57.0191091 148.492278 57.0191091 148.492278 57.0191091 148.492278 72.6491091 122.732278 80.5291091 118.732278 85.669144 115.701883 92.0683894 115.783416 97.1295468 118.943787 102.190704 122.104158 105.072791 127.818225 104.606038 133.766788 104.139284 139.715351 100.401249 144.909971 94.9091091 147.242278L94.9091091 147.262278zM79.8091091 210.212278C72.7191091 215.452278 42.6691091 217.822278 42.6691091 217.822278 42.6691091 217.822278 53.7291091 189.822278 60.8191091 184.532278 67.9102641 179.944571 77.3460337 181.65859 82.3706764 188.447147 87.3953192 195.235704 86.2781846 204.760598 79.8191091 210.202278L79.8091091 210.212278zM30.4391091 85.7322784C36.7591091 91.8722784 66.2291091 98.2422784 66.2291091 98.2422784 66.2291091 98.2422784 59.0091091 68.9722784 52.6891091 62.8322784 46.2706674 57.3769784 36.7217631 57.8324888 30.8517518 63.8739836 24.9817405 69.9154784 24.8013027 79.4735381 30.4391091 85.7322784L30.4391091 85.7322784zM13.7491091 159.542278C21.6191091 163.542278 51.6391091 160.772278 51.6391091 160.772278 51.6391091 160.772278 35.9991091 135.002278 28.1191091 131.032278 22.9776672 127.988334 16.5685511 128.062755 11.4991766 131.225264 6.42980215 134.387773 3.54491021 140.111383 4.01815921 146.067561 4.4914082 152.023739 8.24393775 157.219971 13.7491091 159.542278zM7.31910911 233.552278C14.4091091 238.792278 44.4591091 241.162278 44.4591091 241.162278 44.4591091 241.162278 33.3991091 213.162278 26.3091091 207.872278 21.7535511 204.034285 15.4430356 203.044774 9.93138221 205.304195 4.41972884 207.563615.619552763 212.697853.0687575368 218.62912-.482037689 224.560387 2.30774817 230.306588 7.30910911 233.542278L7.31910911 233.552278z"/>
    </g>
    <path fill="#252223" fill-rule="nonzero" d="M430.5 13.22L424.59 13.22C426.876459 13.22 428.73 11.3664589 428.73 9.08 428.73 6.79354114 426.876459 4.94 424.59 4.94L376.71 4.94C374.423541 4.94 372.57 6.79354114 372.57 9.08 372.57 11.3664589 374.423541 13.22 376.71 13.22L382.62 13.22C380.333541 13.22 378.48 15.0735411 378.48 17.36 378.48 19.6464589 380.333541 21.5 382.62 21.5L374.34 21.5C372.053541 21.5 370.2 23.3535411 370.2 25.64 370.2 27.9264589 372.053541 29.78 374.34 29.78L422.22 29.78C424.506459 29.78 426.36 27.9264589 426.36 25.64 426.36 23.3535411 424.506459 21.5 422.22 21.5L430.5 21.5C432.786459 21.5 434.64 19.6464589 434.64 17.36 434.64 15.0735411 432.786459 13.22 430.5 13.22zM331.71 76.82L325.8 76.82C328.086459 76.82 329.94 74.9664589 329.94 72.68 329.94 70.3935411 328.086459 68.54 325.8 68.54L277.93 68.54C275.643541 68.54 273.79 70.3935411 273.79 72.68 273.79 74.9664589 275.643541 76.82 277.93 76.82L283.84 76.82C281.553541 76.82 279.7 78.6735411 279.7 80.96 279.7 83.2464589 281.553541 85.1 283.84 85.1L275.56 85.1C273.273541 85.1 271.42 86.9535411 271.42 89.24 271.42 91.5264589 273.273541 93.38 275.56 93.38L323.44 93.38C325.726459 93.38 327.58 91.5264589 327.58 89.24 327.58 86.9535411 325.726459 85.1 323.44 85.1L331.72 85.1C334.006459 85.1 335.86 83.2464589 335.86 80.96 335.86 78.6735411 334.006459 76.82 331.72 76.82L331.71 76.82zM823.93 64.8L818 64.8C820.286459 64.8 822.14 62.9464589 822.14 60.66 822.14 58.3735411 820.286459 56.52 818 56.52L770.15 56.52C767.863541 56.52 766.01 58.3735411 766.01 60.66 766.01 62.9464589 767.863541 64.8 770.15 64.8L776.06 64.8C773.773541 64.8 771.92 66.6535411 771.92 68.94 771.92 71.2264589 773.773541 73.08 776.06 73.08L767.78 73.08C765.493541 73.08 763.64 74.9335411 763.64 77.22 763.64 79.5064589 765.493541 81.36 767.78 81.36L815.66 81.36C817.946459 81.36 819.8 79.5064589 819.8 77.22 819.8 74.9335411 817.946459 73.08 815.66 73.08L823.94 73.08C826.226459 73.08 828.08 71.2264589 828.08 68.94 828.08 66.6535411 826.226459 64.8 823.94 64.8L823.93 64.8z" opacity=".1"/>
    <circle cx="142.81" cy="43.81" r="43.81" fill="#F5DD48" fill-rule="nonzero"/>
  </g>
</svg>
