<svg xmlns="http://www.w3.org/2000/svg" width="1038" height="773" viewBox="0 0 1038 773">
  <g fill="none" fill-rule="evenodd" transform="translate(-.71 -.46)">
    <path fill="#FFBCA3" fill-rule="nonzero" d="M740.710842 725.459326C740.710842 725.459326 924.710842 698.459326 1038.71084 725.459326M15.7108416 765.459326C15.7108416 765.459326 199.710842 738.459326 313.710842 765.459326M526.710842 772.386686C526.710842 772.386686 635.690702 744.748016 703.210842 772.386686"/>
    <path fill="#F2F2F2" fill-rule="nonzero" d="M305.680842,147.589326 L290.160842,157.429326 L299.580842,140.289326 C296.913452,138.161091 293.612953,136.982341 290.200842,136.939326 L289.950842,136.939326 C288.8725,136.955469 287.794875,136.875149 286.730842,136.699326 L281.470842,140.069326 L283.720842,135.969326 C279.990496,134.668707 276.76919,132.217714 274.520842,128.969326 L265.110842,134.969326 L271.050842,124.159326 C265.550842,117.549326 258.130842,113.499326 249.960842,113.499326 C240.170842,113.499326 231.450842,119.319326 225.820842,128.389326 C222.431102,133.9342 216.315621,137.221271 209.820842,136.989326 L209.300842,136.989326 C198.490842,136.989326 189.730842,149.249326 189.730842,164.369326 C189.730842,179.489326 198.490842,191.739326 209.300842,191.739326 C211.675544,191.72699 214.012009,191.1403 216.110842,190.029326 C223.557234,186.406351 232.219417,186.238153 239.800842,189.569326 C246.208217,192.435679 253.533466,192.435679 259.940842,189.569326 C267.460031,186.308447 276.025201,186.47632 283.410842,190.029326 C285.495187,191.117065 287.809761,191.689708 290.160842,191.699326 C300.970842,191.699326 309.730842,179.439326 309.730842,164.329326 C309.808652,158.49769 308.415774,152.740461 305.680842,147.589326 Z"/>
    <path fill="#000" fill-rule="nonzero" d="M276.430842,187.639326 C270.784259,186.564183 264.945312,187.197868 259.660842,189.459326 C253.255502,192.318887 245.936181,192.318887 239.530842,189.459326 C232.140842,186.189326 222.890842,186.259326 215.840842,189.929326 C213.738135,191.038392 211.398097,191.621685 209.020842,191.629326 C199.420842,191.629326 191.430842,181.959326 189.770842,169.199326 C191.687157,167.799279 193.316684,166.044143 194.570842,164.029326 C200.200842,154.899326 208.900842,149.069326 218.710842,149.069326 C228.520842,149.069326 237.110842,154.819326 242.710842,163.799326 C246.121829,169.316038 252.175295,172.6407 258.660842,172.559326 L258.910842,172.559326 C266.590842,172.569326 273.210842,178.699326 276.430842,187.639326 Z" opacity=".03"/>
    <path fill="#F2F2F2" fill-rule="nonzero" d="M835.660842,319.199326 L827.900842,324.069326 L832.600842,315.519326 C831.269378,314.458757 829.622936,313.871244 827.920842,313.849326 L827.800842,313.849326 C827.261599,313.8599 826.722558,313.819723 826.190842,313.729326 L823.570842,315.399326 L824.690842,313.349326 C822.834373,312.69823 821.228978,311.481068 820.100842,309.869326 L815.410842,312.869326 L818.410842,307.469326 C815.879929,304.215519 812.021843,302.269958 807.900842,302.169326 C803.020842,302.169326 798.670842,305.079326 795.900842,309.599326 C794.203463,312.367929 791.146195,314.00739 787.900842,313.889326 L787.640842,313.889326 C782.250842,313.889326 777.880842,319.999326 777.880842,327.539326 C777.880842,335.079326 782.250842,341.189326 787.640842,341.189326 C788.826283,341.185482 789.993055,340.893789 791.040842,340.339326 C794.753478,338.535226 799.070777,338.451146 802.850842,340.109326 C806.04883,341.536545 809.702853,341.536545 812.900842,340.109326 C816.653155,338.485848 820.925172,338.569756 824.610842,340.339326 C825.647976,340.881702 826.800453,341.166391 827.970842,341.169326 C833.360842,341.169326 837.731054,335.059326 837.731054,327.519326 C837.745177,324.6168 837.033601,321.756746 835.660842,319.199326 Z"/>
    <path fill="#000" fill-rule="nonzero" d="M821.070842,339.169326 C818.252198,338.63937 815.339739,338.956017 812.700842,340.079326 C811.126967,340.779434 809.423406,341.140589 807.700842,341.13933 C805.97726,341.130454 804.274424,340.762641 802.700842,340.059326 C798.917386,338.400779 794.596912,338.484849 790.880842,340.289326 C789.833489,340.84492 788.666432,341.136684 787.480842,341.13933 C782.690842,341.13933 778.710842,336.319326 777.880842,329.949326 C778.838603,329.250868 779.653351,328.375013 780.280842,327.369326 C783.080842,322.849326 787.430842,319.939326 792.280842,319.939326 C797.130842,319.939326 801.460842,322.809326 804.280842,327.289326 C805.990542,330.05457 809.030218,331.714993 812.280842,331.659326 L812.410842,331.659326 C816.160842,331.659326 819.460842,334.719326 821.070842,339.169326 Z" opacity=".03"/>
    <path stroke="#3F3D56" stroke-width="2" d="M938.690842,754.829326 C941.690842,749.319326 938.280842,742.569326 934.400842,737.649326 C930.520842,732.729326 925.790842,727.649326 925.890842,721.359326 C926.040842,712.359326 935.590842,707.049326 943.220842,702.279326 C948.881639,698.736046 954.104436,694.536998 958.780842,689.769326 C960.735273,687.931127 962.352999,685.765134 963.560842,683.369326 C965.140842,679.849326 965.090842,675.849326 964.990842,671.989326 C964.664175,659.149326 964.030842,646.319326 963.090842,633.499326"/>
    <path fill="#F5DD48" fill-rule="nonzero" d="M977.600842 632.799326C977.384756 628.02204 974.745139 623.685527 970.600842 621.299326L967.460842 627.519326 967.550842 619.989326C966.052834 619.546977 964.490831 619.361024 962.930842 619.439326 955.217605 619.822075 949.271067 626.378421 949.640751 634.092295 950.010434 641.806168 956.556697 647.763803 964.271186 647.407187 971.985675 647.050571 977.95439 640.514408 977.610842 632.799326L977.600842 632.799326zM952.570842 727.789326C949.536775 733.669965 942.799713 736.623226 936.419094 734.869614 930.038474 733.116001 925.756998 727.13447 926.154483 720.529209 926.551968 713.923948 931.51985 708.499016 938.064717 707.52322 944.609585 706.547425 950.943875 710.287281 953.250842 716.489326L944.480842 723.629326 954.130842 721.389326C954.127283 723.616372 953.59248 725.810437 952.570842 727.789326L952.570842 727.789326zM945.640842 700.549326C938.393582 701.090134 931.937542 695.995698 930.778287 688.821342 929.619032 681.646987 934.142068 674.778517 941.190842 673.009326L941.110842 678.789326 944.290842 672.499326 944.290842 672.499326C948.011597 672.317473 951.651405 673.625998 954.404683 676.135291 957.157961 678.644583 958.797649 682.147706 958.960842 685.869326 959.042374 687.48879 958.839299 689.110007 958.360842 690.659326 956.620103 696.30122 951.537725 700.252849 945.640842 700.549326zM979.710842 677.869326C971.978855 678.233834 965.41535 672.261313 965.050842 664.529326 964.686334 656.79734 970.658855 650.233834 978.390842 649.869326 981.015469 649.738824 983.623218 650.356084 985.910842 651.649326L983.430842 658.439326 988.540842 653.549326C991.271499 656.049996 992.900323 659.530575 993.070842 663.229326 993.137826 664.529388 993.019985 665.832377 992.720842 667.099326 991.281769 673.195491 985.968502 677.593945 979.710842 677.869326z"/>
    <path fill="#000" fill-rule="nonzero" d="M975.710842 636.539326C972.470842 636.899326 969.320842 637.909326 966.070842 638.109326 962.820842 638.309326 959.250842 637.529326 957.190842 634.999326 956.090842 633.639326 955.530842 631.919326 954.600842 630.429326 953.711364 629.048764 952.49556 627.908518 951.060842 627.109326 948.74513 631.940061 949.389116 637.668724 952.719566 641.864748 956.050017 646.060772 961.482937 647.988382 966.713237 646.829728 971.943537 645.671074 976.054081 641.629327 977.300842 636.419326 976.770842 636.449326 976.240842 636.479326 975.710842 636.539326zM979.710842 677.869326C974.786838 678.119167 970.094406 675.760543 967.357181 671.659832 964.619956 667.559121 964.241505 662.320916 966.360842 657.869326 967.477032 658.618966 968.435158 659.580489 969.180842 660.699326 970.180842 662.209326 970.790842 663.949326 971.960842 665.329326 974.150842 667.909326 977.880842 668.749326 981.270842 668.589326 984.660842 668.429326 987.930842 667.479326 991.270842 667.169326 991.740842 667.119326 992.210842 667.089326 992.690842 667.079326 991.262522 673.173092 985.963 677.578473 979.710842 677.869326zM945.640842 700.549326C940.762448 700.7999 936.106189 698.489618 933.354768 694.453383 930.603347 690.417148 930.154654 685.238652 932.170842 680.789326 933.34213 681.540991 934.360138 682.508099 935.170842 683.639326 936.260842 685.179326 936.940842 686.949326 938.170842 688.369326 940.540842 691.009326 944.520842 691.929326 948.100842 691.849326 951.680842 691.769326 954.930842 690.919326 958.380842 690.659326 956.637597 696.307842 951.545206 700.26104 945.640842 700.549326zM952.570842 727.789326C949.409011 734.855809 941.117325 738.021156 934.050842 734.859326 926.984359 731.697496 923.819012 723.40581 926.980842 716.339326 928.13698 717.099773 929.174787 718.026386 930.060842 719.089326 931.400842 720.719326 932.280842 722.559326 933.820842 724.089326 936.690842 726.899326 941.320842 728.089326 945.450842 728.169326 947.829609 728.183915 950.20714 728.057024 952.570842 727.789326z" opacity=".1"/>
    <path fill="#656380" fill-rule="nonzero" d="M917.520842,748.489326 C917.520842,748.489326 928.600842,748.139326 931.940842,745.769326 C935.280842,743.399326 948.940842,740.549326 949.800842,744.359326 C950.660842,748.169326 966.450842,763.359326 953.940842,763.429326 C941.430842,763.499326 924.940842,761.429326 921.550842,759.429326 C918.160842,757.429326 917.520842,748.489326 917.520842,748.489326 Z"/>
    <path fill="#000" fill-rule="nonzero" d="M954.170842,762.069326 C941.660842,762.169326 925.110842,760.119326 921.780842,758.069326 C919.240842,756.529326 918.230842,750.979326 917.890842,748.419326 L917.520842,748.419326 C917.520842,748.419326 918.220842,757.349326 921.520842,759.419326 C924.820842,761.489326 941.410842,763.499326 953.910842,763.419326 C957.520842,763.419326 958.770842,762.099326 958.700842,760.199326 C958.230842,761.359326 956.900842,762.069326 954.170842,762.069326 Z" opacity=".2"/>
    <g fill-rule="nonzero" transform="translate(509.666 621.012)">
      <path fill="#915766" d="M131.125559 31.6695489C131.125559 45.4397243 138.183805 46.2477945 149.950296 56.5960401 161.716787 66.9442857 168.766787 45.4397243 168.766787 31.6695489 168.766787 17.8993734 160.33977 6.73481202 149.950296 6.73481202 139.560822 6.73481202 131.125559 17.8993734 131.125559 31.6695489zM40.9845064 120.928321C40.9845064 120.928321 39.3353836 134.945865 46.7564362 135.770426 50.3748081 136.095558 54.0087859 136.213938 57.6406468 136.124987 61.9253477 136.071938 65.8495741 133.715956 67.9106759 129.959184 69.9717776 126.202412 69.8504315 121.626881 67.5931029 117.984637L67.3704713 117.638321C59.9494187 106.086216 40.9845064 120.928321 40.9845064 120.928321z"/>
      <path fill="#B56D7E" d="M45.1073134,109.384461 C45.1073134,109.384461 63.2476643,133.296742 90.4581906,111.858145 C117.668717,90.4195489 84.6862608,80.524812 84.6862608,80.524812 L50.0546819,80.524812 L29.4406468,89.5949875 L45.1073134,109.384461 Z"/>
      <path fill="#915766" d="M119.31784,89.5949875 C119.31784,89.5949875 127.563454,99.4897243 134.984506,98.6651629 C140.93784,98.0055138 152.729068,103.711479 150.774857,114.084461 C150.225754,117.163696 148.469118,119.895908 145.895562,121.67355 C143.322006,123.451193 140.144875,124.126903 137.070647,123.550426 C133.854483,122.937823 131.189454,120.694575 130.037138,117.630075 C130.037138,117.630075 103.651173,119.279198 104.475734,111.858145 C105.300296,104.437093 119.31784,89.5949875 119.31784,89.5949875 Z"/>
      <path fill="#9C5E6D" d="M51.3162608,94.1300752 C51.3162608,94.1300752 62.0355591,110.621303 51.3162608,121.340601 C40.5969626,132.0599 29.0531029,133.709023 29.0531029,133.709023 C29.0531029,133.709023 33.1759099,141.130075 17.5092433,140.305514 C1.8425766,139.480952 -3.10479182,134.533584 1.8425766,127.112531 C6.78994502,119.691479 19.1583661,111.445865 16.6846819,105.673935 C14.2109977,99.902005 10.912752,87.533584 15.8601205,80.1125313 C13.8657112,78.4612743 12.1165784,76.5344519 10.6653836,74.3900752 C6.28696257,67.727619 15.0520503,60.2241103 21.1125766,65.4106015 L25.7548573,69.3932331 C25.7548573,69.3932331 39.7724012,57.8493734 70.2811731,63.6213032 C70.2811731,63.6213032 82.6495941,62.7967418 85.1232784,53.7265664 C85.1232784,53.7265664 71.9302959,24.8669173 106.561875,3.42832079 C112.788867,0.725358371 119.584314,-0.407216014 126.351349,0.130075178 C137.895208,0.954636582 150.263629,1.77919799 158.509243,19.9195489 C158.509243,19.9195489 165.24591,32.2879699 173.161699,37.0539348 C177.480586,39.7413304 180.410877,44.1804357 181.184682,49.2079699 C183.567664,63.4151629 180.54977,86.0081454 132.123278,74.3406015 C132.123278,74.3406015 128.412752,104.437093 105.325033,116.805514 C105.325033,116.805514 103.67591,125.051128 105.325033,127.524812 C106.974156,129.998496 115.21977,141.542356 102.026787,140.717794 C95.4302959,140.313759 90.342752,140.305514 86.8383661,140.412707 C83.7850527,140.507677 80.9294349,138.906819 79.4173719,136.252501 C77.9053089,133.598182 77.9846097,130.325414 79.6234538,127.747444 C79.6646819,127.673233 79.7141555,127.599023 79.7636292,127.524812 C79.8131029,127.450601 82.2373134,115.980952 73.9916994,106.910777 L72.3425766,97.0160401 L51.3162608,94.1300752 Z"/>
      <ellipse cx="167.555" cy="46.314" fill="#915766" rx="10.719" ry="4.123"/>
      <path fill="#915766" d="M114.634331,31.6695489 C114.634331,45.4397243 107.584331,46.2477945 95.8178398,56.5960401 C84.0513485,66.9442857 77.0013485,45.4397243 77.0013485,31.6695489 C77.0013485,17.8993734 85.4283661,6.73481202 95.8178398,6.73481202 C106.207313,6.73481202 114.634331,17.8993734 114.634331,31.6695489 Z"/>
    </g>
    <path stroke="#3F3D56" d="M523.020842,485.379326 C521.670842,488.649326 523.540842,492.509326 526.330842,494.669326 C529.120842,496.829326 532.650842,497.759326 536.000842,498.879326 C551.000842,503.879326 564.420842,514.319326 571.840842,528.299326 C579.260842,542.279326 580.250842,559.829326 573.220842,574.019326 C569.470842,581.589326 563.660842,588.019326 560.220842,595.709326 C553.300842,611.009326 545.090825,663.202528 591.562404,680.331264 C591.562404,688.110079 626.410842,704.669326 641.410842,695.669326"/>
    <path fill="#333" fill-rule="nonzero" d="M362.800842 668.549326C359.844081 670.200815 356.724069 671.541314 353.490842 672.549326 347.710842 674.129326 341.490842 673.549326 335.680842 674.899326 333.290842 675.449326 330.680842 676.609326 329.930842 678.899326 329.370842 680.609326 329.930842 682.459326 330.560842 684.169326 337.010842 703.089326 340.900842 723.169326 351.200842 740.339326 355.528519 747.538799 360.900326 754.056412 367.140842 759.679326 369.480842 761.789326 372.140842 763.859326 375.260842 764.189326 378.201039 764.499175 381.082633 763.213962 382.816637 760.819385 384.550641 758.424808 384.8726 755.286067 383.660842 752.589326 382.730842 750.589326 381.020842 748.949326 379.910842 746.989326 378.550842 744.589326 378.180842 741.769326 377.840842 738.989326 376.840842 730.899326 375.840842 722.439326 378.650842 714.769326 380.530842 709.629326 383.980842 705.249326 386.850842 700.599326 389.720842 695.949326 392.120842 690.599326 391.480842 685.169326 391.040842 681.459326 389.230842 678.069326 387.320842 674.859326 385.410842 671.649326 381.620842 662.999326 377.770842 661.929326 373.920842 660.859326 366.290842 666.759326 362.800842 668.549326zM468.080842 733.929326C468.139995 735.762172 467.886364 737.591695 467.330842 739.339326 466.120842 742.519326 463.130842 744.699326 461.590842 747.729326 459.440842 751.939326 460.420842 757.039326 461.840842 761.549326 462.730842 764.379326 463.900842 767.319326 466.290842 769.069326 468.230842 770.479326 470.700842 770.909326 473.070842 771.239326 493.620842 774.079326 514.480842 772.449326 535.210842 773.049326 538.990842 773.159326 542.990842 773.289326 546.290842 771.439326 549.590842 769.589326 551.630842 764.949326 549.380842 761.909326 547.380842 759.179326 543.380842 759.209326 540.000842 759.039326 531.171201 758.595899 522.761897 755.132622 516.180842 749.229326 514.881132 748.124172 513.755184 746.829669 512.840842 745.389326 512.132422 744.114287 511.546467 742.774963 511.090842 741.389326 508.181327 733.51982 504.722822 725.864327 500.740842 718.479326 499.630842 716.409326 498.370842 714.259326 496.290842 713.149326 494.776095 712.463648 493.133541 712.10583 491.470842 712.099326 486.300842 711.759326 472.920842 709.999326 468.930842 714.019326 465.240842 717.719326 468.160842 729.219326 468.080842 733.929326z"/>
    <g fill-rule="nonzero" transform="translate(425.278 171.34)">
      <circle cx="67.933" cy="61.62" r="39.5" fill="#FBBEBE"/>
      <path fill="#3F3D56" d="M47.0835966,64.9536919 C49.3363496,62.008881 53.6683447,61.6145225 57.2609622,62.4838723 C60.8535797,63.3532222 64.1920129,65.208019 67.7730833,65.9614357 C69.4418193,66.4327233 71.2310565,66.1803321 72.7057922,65.2656241 C74.1036227,64.1873816 74.5311243,62.2976446 74.8315486,60.5470335 C76.0993475,52.9682038 76.3947223,45.2577042 75.7104639,37.6037233 C75.5229279,36.5281324 75.5942666,35.4231137 75.9185348,34.3807585 C76.8196778,32.2127606 79.5575102,31.6909428 81.7870645,30.995246 C89.376259,28.4255647 94.2617295,21.0164451 93.6516685,13.0018366 C93.6002365,11.1313111 92.8157757,9.35668481 91.4685596,8.06315515 C89.9206526,6.79954395 87.7604427,6.71848217 85.7619576,6.69538036 C75.5192384,6.61852648 65.2726653,6.61896188 55.0222382,6.69668656 C51.233201,6.69684756 47.2477755,6.82454395 43.9553916,8.725996 C41.5294245,10.1288965 39.7156746,12.3780867 37.5322827,14.1519646 C31.8485313,18.7895528 24.1433474,19.6941628 17.223634,22.0595037 C13.8418794,23.0267834 10.7712059,24.865486 8.31686129,27.3928309 C6.00636127,30.0362167 4.90876145,33.9548213 6.35261933,37.1545291 C7.09755044,38.48579 7.9271008,39.7675396 8.83612515,40.991828 C12.9252366,47.5419065 10.1986187,56.0631469 10.8105475,63.7495231 C11.5725699,73.3719851 25.7576968,88.9876474 35.3803692,91.2595384 C50.9175785,94.8991954 41.9427166,71.2491085 47.0835966,64.9536919 Z" transform="rotate(8 49.703 49.138)"/>
    </g>
    <path fill="#FBBEBE" fill-rule="nonzero" d="M470.070842,269.419326 C468.070842,274.679326 464.780842,279.609326 459.940842,282.419326 L505.580842,291.729326 C503.920011,285.069074 503.701805,278.130779 504.940842,271.379326 C505.385049,269.75077 505.477093,268.046247 505.210842,266.379326 C504.350842,263.069326 500.620842,261.469326 497.290842,260.709326 C488.960842,258.809326 481.590842,257.789326 473.850842,254.119326 C471.490842,258.169326 471.820842,264.749326 470.070842,269.419326 Z"/>
    <path fill="#3F3D56" fill-rule="nonzero" d="M459.550842,270.069326 C469.501127,265.573465 480.961213,265.875531 490.660842,270.889326 C496.510842,273.969326 501.360842,278.629326 506.120842,283.219326 C510.510842,287.449326 515.190842,292.299326 515.500842,298.389326 C515.650842,301.339326 514.730842,304.219326 514.260842,307.139326 C512.553908,319.502145 518.851754,331.592405 529.960842,337.279326 C533.580842,343.279326 534.330842,350.639326 534.390842,357.689326 C534.600842,384.379326 526.180842,411.399326 532.190842,437.409326 C533.600842,443.509326 535.790842,449.409326 537.010842,455.569326 C538.590842,463.569326 538.510842,471.719326 539.340842,479.799326 C540.235023,488.543691 542.189371,497.146852 545.160842,505.419326 C543.160842,508.579326 539.040842,509.789326 535.320842,509.529326 C531.600842,509.269326 528.110842,507.659326 524.790842,505.959326 C508.710842,497.729326 493.970842,486.879326 477.310842,479.879326 C466.310842,475.249326 454.550842,472.369326 443.860842,467.019326 C433.170842,461.669326 423.220842,453.189326 419.950842,441.699326 C418.540842,436.699326 418.450842,431.489326 418.370842,426.319326 C418.050842,404.549326 417.750842,382.539326 422.490842,361.319326 C426.660842,342.579326 434.720842,324.659326 436.490842,305.539326 C437.060842,299.309326 437.070842,292.649326 440.550842,287.459326 C445.450842,280.069326 456.060842,278.199326 459.550842,270.069326 Z"/>
    <path fill="#50515D" fill-rule="nonzero" d="M462.470842,606.579326 C463.320842,612.639326 464.410842,618.729326 464.120842,624.839326 C463.710842,633.369326 460.640842,641.599326 460.070842,650.119326 C459.640842,656.489326 460.630842,662.929326 459.740842,669.249326 C459.170842,673.249326 457.860842,677.189326 457.040842,681.249326 C454.44454,694.411131 457.310617,708.062895 464.980842,719.069326 C465.536409,720.005872 466.329941,720.778703 467.280842,721.309326 C468.194324,721.646011 469.171136,721.775797 470.140842,721.689326 C479.746988,721.486982 489.327135,720.611502 498.810842,719.069326 C499.36445,719.136758 499.92107,718.969974 500.346378,718.609221 C500.771685,718.248469 501.027048,717.726518 501.050842,717.169326 C502.810842,708.169326 498.800842,699.069326 497.780842,689.919326 C496.690842,680.149326 499.030842,670.359326 501.360842,660.799326 C502.41483,656.088773 503.73359,651.441397 505.310842,646.879326 C506.430842,643.799326 507.790842,640.819326 508.770842,637.689326 C510.1498,632.795324 510.991433,627.765646 511.280842,622.689326 C511.947508,614.689326 512.304175,606.639326 512.350842,598.539326 C512.350842,590.899326 512.130842,583.209326 510.460842,575.749326 C508.320842,566.259326 503.940842,557.439326 499.590842,548.749326 C497.240842,549.119326 495.190842,550.489326 493.200842,551.749326 C487.601883,555.370976 481.757778,558.598766 475.710842,561.409326 C471.650842,563.289326 463.710842,564.629326 461.150842,568.569326 C458.590842,572.509326 460.250842,580.349326 460.440842,584.629326 C460.780842,591.979326 461.460842,599.309326 462.470842,606.579326 Z"/>
    <path fill="#000" fill-rule="nonzero" d="M462.470842,606.579326 C463.320842,612.639326 464.410842,618.729326 464.120842,624.839326 C463.710842,633.369326 460.640842,641.599326 460.070842,650.119326 C459.640842,656.489326 460.630842,662.929326 459.740842,669.249326 C459.170842,673.249326 457.860842,677.189326 457.040842,681.249326 C454.44454,694.411131 457.310617,708.062895 464.980842,719.069326 C465.536409,720.005872 466.329941,720.778703 467.280842,721.309326 C468.194324,721.646011 469.171136,721.775797 470.140842,721.689326 C479.746988,721.486982 489.327135,720.611502 498.810842,719.069326 C499.36445,719.136758 499.92107,718.969974 500.346378,718.609221 C500.771685,718.248469 501.027048,717.726518 501.050842,717.169326 C502.810842,708.169326 498.800842,699.069326 497.780842,689.919326 C496.690842,680.149326 499.030842,670.359326 501.360842,660.799326 C502.41483,656.088773 503.73359,651.441397 505.310842,646.879326 C506.430842,643.799326 507.790842,640.819326 508.770842,637.689326 C510.1498,632.795324 510.991433,627.765646 511.280842,622.689326 C511.947508,614.689326 512.304175,606.639326 512.350842,598.539326 C512.350842,590.899326 512.130842,583.209326 510.460842,575.749326 C508.320842,566.259326 503.940842,557.439326 499.590842,548.749326 C497.240842,549.119326 495.190842,550.489326 493.200842,551.749326 C487.601883,555.370976 481.757778,558.598766 475.710842,561.409326 C471.650842,563.289326 463.710842,564.629326 461.150842,568.569326 C458.590842,572.509326 460.250842,580.349326 460.440842,584.629326 C460.780842,591.979326 461.460842,599.309326 462.470842,606.579326 Z" opacity=".1"/>
    <path fill="#50515D" fill-rule="nonzero" d="M417.900842,477.129326 C413.520842,488.929326 419.960842,501.679326 425.560842,512.949326 C439.300842,540.719326 448.900842,570.359326 458.400842,599.869326 C459.110842,602.079326 459.830842,604.489326 459.030842,606.669326 C458.34824,608.220809 457.233983,609.543338 455.820842,610.479326 C449.250842,615.479326 440.890842,617.249326 433.070842,619.859326 C425.510738,622.38344 418.268994,625.77612 411.490842,629.969326 C405.830842,633.479326 400.490842,637.539326 395.220842,641.589326 L378.350842,654.469326 C377.256139,655.20459 376.301214,656.12904 375.530842,657.199326 C373.900842,659.749326 374.530842,663.079326 375.380842,665.999326 C377.523461,673.722591 380.285757,681.260382 383.640842,688.539326 C384.340842,690.069326 385.160842,691.669326 386.640842,692.469326 C389.280842,693.879326 392.500842,692.009326 394.510842,689.789326 C396.520842,687.569326 398.260842,684.789326 401.090842,683.879326 C403.920842,682.969326 407.040842,684.079326 409.990842,683.669326 C414.780842,682.989326 417.990842,678.589326 421.400842,675.209326 C435.480842,661.389326 458.990842,662.389326 474.490842,650.209326 C476.850842,648.349326 479.000842,646.209326 481.580842,644.659326 C484.160842,643.109326 487.170842,642.269326 489.890842,640.899326 C498.150842,636.739326 503.350842,628.129326 506.130842,619.309326 C508.910842,610.489326 509.710842,601.169326 511.710842,592.129326 C512.710842,587.459326 514.100842,582.839326 514.560842,578.129326 C514.8575,573.699689 514.763805,569.252538 514.280842,564.839326 L508.690842,495.689326 C508.230842,490.059326 507.780842,484.429326 506.890842,478.849326 C490.290842,479.439326 473.700842,480.109326 457.090842,480.309326 C443.900842,480.379326 430.400842,481.309326 417.900842,477.129326 Z"/>
    <path fill="#3F3D56" fill-rule="nonzero" d="M411.760842,493.299326 C414.010842,496.929326 419.490842,496.849326 423.260842,494.869326 C427.030842,492.889326 429.970842,489.539326 433.750842,487.579326 C438.840842,484.929326 444.850842,485.029326 450.580842,485.189326 C459.650842,485.449326 468.830842,485.719326 477.580842,488.189326 C486.580842,490.759326 495.390842,495.709326 504.730842,494.719326 C506.350842,494.549326 508.130842,494.079326 509.010842,492.719326 C509.52376,491.722503 509.768445,490.60936 509.720842,489.489326 L510.020842,481.329326 C510.204839,479.922062 509.979158,478.49159 509.370842,477.209326 C508.59017,476.138629 507.517311,475.315757 506.280842,474.839326 C492.990842,468.409326 477.850842,467.209326 463.100842,466.699326 C455.600842,466.45266 448.097508,466.349326 440.590842,466.389326 C434.230842,466.389326 426.590842,465.509326 420.390842,467.209326 C412.060842,469.499326 407.540842,486.529326 411.760842,493.299326 Z"/>
    <path fill="#33CCAB" fill-rule="nonzero" d="M495.170842,279.759326 C477.760842,279.609326 461.990842,268.119326 444.590842,267.839326 C442.485705,267.698352 440.377317,268.061749 438.440842,268.899326 C436.020842,270.119326 434.440842,272.479326 432.580842,274.479326 C427.440842,280.049326 419.980842,283.029326 414.700842,288.479326 C409.700842,293.579326 406.980842,301.169326 408.940842,308.009326 C410.900842,314.849326 418.280842,320.089326 425.200842,318.449326 C427.9892,309.427024 433.743592,301.611201 441.530842,296.269326 C445.579289,293.665821 449.84911,291.42383 454.290842,289.569326 C462.120842,286.019326 470.860842,282.409326 479.030842,285.069326 C482.043358,286.204987 484.883765,287.753076 487.470842,289.669326 L501.080842,298.809326 C499.500842,292.549326 498.070842,285.529326 495.170842,279.759326 Z"/>
    <path fill="#33CCAB" fill-rule="nonzero" d="M423.200842,312.389326 C420.890842,315.269326 424.200842,319.449326 423.710842,323.109326 C423.370842,325.539326 421.370842,327.399326 420.530842,329.709326 C419.690842,332.019326 420.130842,334.709326 419.800842,337.269326 C419.471725,339.103971 418.986631,340.907181 418.350842,342.659326 C416.883281,347.897252 415.859661,353.249517 415.290842,358.659326 L412.240842,381.419326 C411.698151,384.839171 411.3642,388.288888 411.240842,391.749326 C411.240842,394.339326 411.400842,396.979326 410.720842,399.479326 C410.040842,401.979326 408.560842,404.149326 407.550842,406.479326 C406.540842,408.809326 406.080842,411.719326 407.440842,413.909326 C402.890842,417.689326 401.540842,425.129326 404.720842,430.119326 C405.327402,430.895707 405.800531,431.767617 406.120842,432.699326 C406.297678,433.999478 406.081766,435.322809 405.500842,436.499326 L402.420842,444.709326 C401.630842,446.809326 401.420842,450.009326 403.580842,450.489326 C401.762554,452.374221 400.347132,454.609636 399.420842,457.059326 C398.502606,459.556959 398.921055,462.350385 400.530842,464.469326 C401.292308,465.143867 401.94352,465.933419 402.460842,466.809326 C402.930842,467.969326 402.520842,469.279326 402.230842,470.499326 C401.299365,474.122646 401.90739,477.969852 403.910842,481.129326 C406.005315,484.285034 409.771209,485.898989 413.500842,485.239326 C419.660842,483.849326 425.200842,481.659326 431.410842,482.799326 C444.790842,485.249326 458.210842,487.719326 471.170842,491.859326 C485.950842,496.579326 500.270842,503.499326 515.730842,504.949326 C516.753459,505.167609 517.820608,505.003979 518.730842,504.489326 C519.517353,503.743487 520.007512,502.738307 520.110842,501.659326 L524.900842,479.269326 C526.826965,470.993598 528.292549,462.617398 529.290842,454.179326 C529.840842,448.739326 529.990842,443.259326 530.150842,437.789326 L531.380842,394.249326 C531.970867,387.833441 531.123667,381.366703 528.900842,375.319326 L521.820842,352.719326 C517.820842,339.819326 508.510842,328.379326 505.210842,315.269326 C503.120842,306.969326 501.580842,298.069326 495.970842,291.599326 C487.970842,282.379326 474.170842,280.949326 462.080842,282.529326 C456.610842,283.249326 451.080842,284.529326 446.380842,287.319326 C440.910842,290.589326 436.890842,295.749326 432.990842,300.799326 C429.750842,304.949326 426.480842,308.289326 423.200842,312.389326 Z"/>
    <path fill="#FBBEBE" fill-rule="nonzero" d="M451.440842,440.459326 C452.440842,444.759326 454.530842,448.719326 455.810842,452.939326 C457.950842,460.009326 457.810842,467.629326 459.910842,474.699326 C460.810842,477.699326 462.120842,480.519326 462.760842,483.549326 C464.270842,490.629326 462.070842,497.939326 459.340842,504.639326 C456.610842,511.339326 453.290842,517.939326 452.400842,525.119326 C451.780842,530.169326 452.680842,535.879326 456.570842,539.119326 C460.620842,542.529326 466.490842,542.299326 471.760842,541.839326 C473.653465,541.786042 475.521951,541.400159 477.280842,540.699326 C481.280842,538.789326 483.000842,534.019326 483.950842,529.699326 C487.100842,515.099326 486.200842,499.969326 485.280842,485.059326 L482.900842,446.069326 C482.440842,438.569326 481.900842,430.909326 479.630842,423.699326 C478.790842,421.079326 477.330842,415.779326 474.930842,414.099326 C472.530842,412.419326 465.790842,412.369326 462.850842,412.229326 C449.050842,411.589326 449.210842,430.819326 451.440842,440.459326 Z"/>
    <path fill="#3F3D56" fill-rule="nonzero" d="M466.700842,296.499326 C463.890842,295.029326 460.350842,295.659326 457.630842,297.309326 C454.910842,298.959326 452.840842,301.449326 450.820842,303.909326 C444.740842,311.329326 438.310842,319.849326 439.210842,329.399326 C439.550842,332.979326 440.920842,336.399326 441.850842,339.849326 C445.920842,355.079326 441.420842,371.199326 441.930842,386.969326 C442.230842,396.079326 444.210842,405.039326 446.190842,413.969326 C446.590842,415.779326 447.190842,417.879326 448.990842,418.499326 C450.310842,418.949326 451.740842,418.359326 452.990842,417.869326 C462.865128,414.219584 473.898226,415.607583 482.560842,421.589326 C485.830842,419.849326 484.560842,414.349326 483.870842,410.719326 C481.700842,399.949326 484.650842,388.839326 488.230842,378.449326 C491.810842,368.059326 496.100842,357.689326 496.700842,346.719326 C497.370842,334.279326 493.250842,322.149326 489.180842,310.379326 C488.290842,307.809326 487.320842,305.119326 485.260842,303.379326 C483.499222,302.073225 481.482017,301.153216 479.340842,300.679326 C475.070842,299.329326 470.690842,298.589326 466.700842,296.499326 Z"/>
    <g fill-rule="nonzero">
      <path fill="#3F3D56" d="M144.285143,585.938633 C147.912603,579.651225 149.784919,572.515127 149.708598,565.267816 C149.708598,546.591551 138.098755,531.459326 123.702549,531.459326 C109.306343,531.459326 97.713085,546.591551 97.713085,565.267816 C97.6367638,572.515127 99.5090803,579.651225 103.13654,585.938633 C95.9053997,598.782154 95.9053997,614.436747 103.13654,627.280267 C95.9053997,640.123788 95.9053997,655.778381 103.13654,668.621902 C95.9053997,681.465422 95.9053997,697.120015 103.13654,709.963536 C99.5113281,716.251856 97.6391738,723.387337 97.713085,730.634353 C97.713085,749.310617 109.322928,764.459326 123.702549,764.459326 C138.082169,764.459326 149.708598,749.310617 149.708598,730.634353 C149.782509,723.387337 147.910355,716.251856 144.285143,709.963536 C151.497737,697.132815 151.497737,681.502074 144.285143,668.671353 C151.516283,655.827833 151.516283,640.17324 144.285143,627.329719 C151.516283,614.486198 151.516283,598.831605 144.285143,585.988085 L144.285143,585.938633 Z"/>
      <ellipse cx="123.711" cy="524.459" fill="#3F3D56" rx="26" ry="34"/>
      <ellipse cx="123.711" cy="483.459" fill="#3F3D56" rx="26" ry="34"/>
      <path fill="#B9EFE9" d="M27.1407811,200.564722 C23.6223601,196.075334 20.4135307,191.351301 17.5365704,186.425421 L85.2758577,175.281874 L12.0108601,175.82506 C-2.17833929,144.905052 -3.02884709,109.503186 9.65914415,77.9363221 L107.921402,128.962905 L17.3063325,62.249763 C40.4224914,22.1772685 83.9678725,-1.61309613 130.145942,0.601537884 C176.324011,2.81617189 217.397262,30.6647248 236.579493,72.7657895 C255.761724,114.866854 249.838799,164.166058 221.231354,200.515342 C226.72729,207.492854 231.447592,215.048739 235.308759,223.049339 L147.390761,268.874502 L241.130489,237.386163 C254.499515,276.956953 247.009101,320.608369 221.214908,353.446948 C261.048431,404.106537 255.284032,476.90235 207.974855,520.649193 C160.665679,564.396037 87.7064561,564.396037 40.3972794,520.649193 C-6.91189726,476.90235 -12.6762959,404.106537 27.1572266,353.446948 C-8.07995603,308.612871 -8.07995603,245.46464 27.1572266,200.630563 L27.1407811,200.564722 Z"/>
      <path fill="#000" d="M247.692478,277.280076 C247.728345,304.976804 238.414747,331.875193 221.25915,353.621562 C261.100665,404.236924 255.33511,476.969185 208.016441,520.677837 C160.697772,564.386489 87.7239109,564.386489 40.4052421,520.677837 C-6.91342669,476.969185 -12.678982,404.236924 27.1625328,353.621562 C10.5327294,332.603807 247.692478,263.416252 247.692478,277.280076 Z" opacity=".1"/>
    </g>
  </g>
</svg>
