<svg xmlns="http://www.w3.org/2000/svg" width="19" height="4" viewBox="0 0 19 4">
  <path fill="#7A3814" d="M17.5,18.3529412 C16.5741109,18.3529412 15.8235294,17.6023597 15.8235294,16.6764706 C15.8235294,15.7505814 16.5741109,15 17.5,15 C18.4258891,15 19.1764706,15.7505814 19.1764706,16.6764706 C19.1764706,17.6023597 18.4258891,18.3529412 17.5,18.3529412 Z M17.5,17.2352941 C17.8086297,17.2352941 18.0588235,16.9851003 18.0588235,16.6764706 C18.0588235,16.3678409 17.8086297,16.1176471 17.5,16.1176471 C17.1913703,16.1176471 16.9411765,16.3678409 16.9411765,16.6764706 C16.9411765,16.9851003 17.1913703,17.2352941 17.5,17.2352941 Z M25.3235294,18.3529412 C24.3976403,18.3529412 23.6470588,17.6023597 23.6470588,16.6764706 C23.6470588,15.7505814 24.3976403,15 25.3235294,15 C26.2494186,15 27,15.7505814 27,16.6764706 C27,17.6023597 26.2494186,18.3529412 25.3235294,18.3529412 Z M25.3235294,17.2352941 C25.6321591,17.2352941 25.8823529,16.9851003 25.8823529,16.6764706 C25.8823529,16.3678409 25.6321591,16.1176471 25.3235294,16.1176471 C25.0148997,16.1176471 24.7647059,16.3678409 24.7647059,16.6764706 C24.7647059,16.9851003 25.0148997,17.2352941 25.3235294,17.2352941 Z M9.67647059,18.3529412 C8.75058145,18.3529412 8,17.6023597 8,16.6764706 C8,15.7505814 8.75058145,15 9.67647059,15 C10.6023597,15 11.3529412,15.7505814 11.3529412,16.6764706 C11.3529412,17.6023597 10.6023597,18.3529412 9.67647059,18.3529412 Z M9.67647059,17.2352941 C9.9851003,17.2352941 10.2352941,16.9851003 10.2352941,16.6764706 C10.2352941,16.3678409 9.9851003,16.1176471 9.67647059,16.1176471 C9.36784088,16.1176471 9.11764706,16.3678409 9.11764706,16.6764706 C9.11764706,16.9851003 9.36784088,17.2352941 9.67647059,17.2352941 Z" transform="translate(-8 -15)"/>
</svg>
