<svg width="189" height="92" viewBox="0 0 189 92" fill="none" xmlns="http://www.w3.org/2000/svg">
<rect width="189" height="92" rx="16" fill="white"/>
<path d="M109.92 42.08V44.22C109.92 44.86 109.847 45.38 109.7 45.78C109.567 46.1667 109.433 46.4933 109.3 46.76L98.36 69.32C98.1333 69.7867 97.8133 70.1867 97.4 70.52C96.9867 70.84 96.4267 71 95.72 71H92.14L103.34 48.9C103.807 47.9933 104.327 47.2133 104.9 46.56H91.06C90.7533 46.56 90.4867 46.4467 90.26 46.22C90.0333 45.9933 89.92 45.7267 89.92 45.42V42.08H109.92ZM133.403 56.54C133.403 59.06 133.13 61.2533 132.583 63.12C132.05 64.9733 131.303 66.5067 130.343 67.72C129.396 68.9333 128.27 69.84 126.963 70.44C125.67 71.0267 124.27 71.32 122.763 71.32C121.256 71.32 119.856 71.0267 118.563 70.44C117.283 69.84 116.17 68.9333 115.223 67.72C114.276 66.5067 113.536 64.9733 113.003 63.12C112.47 61.2533 112.203 59.06 112.203 56.54C112.203 54.0067 112.47 51.8133 113.003 49.96C113.536 48.1067 114.276 46.5733 115.223 45.36C116.17 44.1467 117.283 43.2467 118.563 42.66C119.856 42.06 121.256 41.76 122.763 41.76C124.27 41.76 125.67 42.06 126.963 42.66C128.27 43.2467 129.396 44.1467 130.343 45.36C131.303 46.5733 132.05 48.1067 132.583 49.96C133.13 51.8133 133.403 54.0067 133.403 56.54ZM128.303 56.54C128.303 54.4467 128.15 52.7133 127.843 51.34C127.536 49.9667 127.123 48.8733 126.603 48.06C126.096 47.2467 125.51 46.68 124.843 46.36C124.176 46.0267 123.483 45.86 122.763 45.86C122.056 45.86 121.37 46.0267 120.703 46.36C120.05 46.68 119.47 47.2467 118.963 48.06C118.456 48.8733 118.05 49.9667 117.743 51.34C117.45 52.7133 117.303 54.4467 117.303 56.54C117.303 58.6333 117.45 60.3667 117.743 61.74C118.05 63.1133 118.456 64.2067 118.963 65.02C119.47 65.8333 120.05 66.4067 120.703 66.74C121.37 67.06 122.056 67.22 122.763 67.22C123.483 67.22 124.176 67.06 124.843 66.74C125.51 66.4067 126.096 65.8333 126.603 65.02C127.123 64.2067 127.536 63.1133 127.843 61.74C128.15 60.3667 128.303 58.6333 128.303 56.54ZM138.556 71V62.792H139.764C140.02 62.792 140.188 62.912 140.268 63.152L140.396 63.76C140.54 63.6 140.689 63.4533 140.844 63.32C141.004 63.1867 141.172 63.072 141.348 62.976C141.529 62.88 141.721 62.8053 141.924 62.752C142.132 62.6933 142.359 62.664 142.604 62.664C143.121 62.664 143.545 62.8053 143.876 63.088C144.212 63.3653 144.463 63.736 144.628 64.2C144.756 63.928 144.916 63.696 145.108 63.504C145.3 63.3067 145.511 63.1467 145.74 63.024C145.969 62.9013 146.212 62.8107 146.468 62.752C146.729 62.6933 146.991 62.664 147.252 62.664C147.705 62.664 148.108 62.7333 148.46 62.872C148.812 63.0107 149.108 63.2133 149.348 63.48C149.588 63.7467 149.769 64.072 149.892 64.456C150.02 64.84 150.084 65.28 150.084 65.776V71H148.108V65.776C148.108 65.2533 147.993 64.8613 147.764 64.6C147.535 64.3333 147.199 64.2 146.756 64.2C146.553 64.2 146.364 64.2347 146.188 64.304C146.017 64.3733 145.865 64.4747 145.732 64.608C145.604 64.736 145.503 64.8987 145.428 65.096C145.353 65.2933 145.316 65.52 145.316 65.776V71H143.332V65.776C143.332 65.2267 143.22 64.8267 142.996 64.576C142.777 64.3253 142.452 64.2 142.02 64.2C141.737 64.2 141.471 64.272 141.22 64.416C140.975 64.5547 140.745 64.7467 140.532 64.992V71H138.556ZM154.129 62.792V71H152.153V62.792H154.129ZM154.425 60.4C154.425 60.5707 154.39 60.7307 154.321 60.88C154.251 61.0293 154.158 61.16 154.041 61.272C153.929 61.384 153.795 61.4747 153.641 61.544C153.486 61.608 153.321 61.64 153.145 61.64C152.974 61.64 152.811 61.608 152.657 61.544C152.507 61.4747 152.377 61.384 152.265 61.272C152.153 61.16 152.062 61.0293 151.993 60.88C151.929 60.7307 151.897 60.5707 151.897 60.4C151.897 60.224 151.929 60.0587 151.993 59.904C152.062 59.7493 152.153 59.616 152.265 59.504C152.377 59.392 152.507 59.304 152.657 59.24C152.811 59.1707 152.974 59.136 153.145 59.136C153.321 59.136 153.486 59.1707 153.641 59.24C153.795 59.304 153.929 59.392 154.041 59.504C154.158 59.616 154.251 59.7493 154.321 59.904C154.39 60.0587 154.425 60.224 154.425 60.4ZM156.368 71V62.792H157.577C157.833 62.792 158.001 62.912 158.081 63.152L158.217 63.8C158.382 63.6293 158.555 63.4747 158.737 63.336C158.923 63.1973 159.118 63.0773 159.321 62.976C159.529 62.8747 159.75 62.7973 159.985 62.744C160.219 62.6907 160.475 62.664 160.753 62.664C161.201 62.664 161.598 62.7413 161.945 62.896C162.291 63.0453 162.579 63.2587 162.809 63.536C163.043 63.808 163.219 64.136 163.337 64.52C163.459 64.8987 163.521 65.3173 163.521 65.776V71H161.545V65.776C161.545 65.2747 161.427 64.888 161.193 64.616C160.963 64.3387 160.617 64.2 160.153 64.2C159.811 64.2 159.491 64.2773 159.193 64.432C158.894 64.5867 158.611 64.7973 158.345 65.064V71H156.368Z" fill="#5E5A7C"/>
<circle cx="44" cy="44" r="28" fill="#F2F6F7"/>
<path d="M43.7667 34.2C49.4367 34.2 54.0334 38.7966 54.0334 44.4666C54.0334 50.1366 49.4367 54.7333 43.7667 54.7333C38.0967 54.7333 33.5 50.1366 33.5 44.4666C33.5 38.7966 38.0967 34.2 43.7667 34.2ZM43.7667 36.0666C42.6636 36.0666 41.5713 36.2839 40.5521 36.706C39.533 37.1282 38.607 37.7469 37.827 38.5269C37.047 39.3069 36.4282 40.2329 36.0061 41.2521C35.5839 42.2712 35.3667 43.3635 35.3667 44.4666C35.3667 45.5697 35.5839 46.662 36.0061 47.6811C36.4282 48.7003 37.047 49.6263 37.827 50.4063C38.607 51.1863 39.533 51.8051 40.5521 52.2272C41.5713 52.6493 42.6636 52.8666 43.7667 52.8666C45.9945 52.8666 48.1311 51.9816 49.7064 50.4063C51.2817 48.831 52.1667 46.6944 52.1667 44.4666C52.1667 42.2388 51.2817 40.1022 49.7064 38.5269C48.1311 36.9516 45.9945 36.0666 43.7667 36.0666ZM43.7667 37.9333C44.0142 37.9333 44.2516 38.0316 44.4266 38.2066C44.6017 38.3817 44.7 38.6191 44.7 38.8666V43.8898L47.9172 45.4989C48.1307 45.614 48.291 45.8077 48.3641 46.0389C48.4372 46.2702 48.4175 46.5208 48.309 46.7378C48.2006 46.9547 48.0119 47.1209 47.783 47.2011C47.5541 47.2814 47.303 47.2694 47.0828 47.1677L43.3495 45.301C43.1945 45.2236 43.0641 45.1045 42.9729 44.9571C42.8818 44.8097 42.8334 44.6399 42.8333 44.4666V38.8666C42.8333 38.6191 42.9317 38.3817 43.1067 38.2066C43.2817 38.0316 43.5191 37.9333 43.7667 37.9333Z" fill="#33CCAB"/>
<path d="M101.328 25.272C101.328 26.1307 101.192 26.912 100.92 27.616C100.648 28.32 100.264 28.9227 99.768 29.424C99.272 29.9253 98.6773 30.3147 97.984 30.592C97.2907 30.864 96.5227 31 95.68 31H91.392V19.536H95.68C96.5227 19.536 97.2907 19.6747 97.984 19.952C98.6773 20.224 99.272 20.6133 99.768 21.12C100.264 21.6213 100.648 22.224 100.92 22.928C101.192 23.632 101.328 24.4133 101.328 25.272ZM99.736 25.272C99.736 24.568 99.64 23.9387 99.448 23.384C99.256 22.8293 98.984 22.36 98.632 21.976C98.28 21.592 97.8533 21.2987 97.352 21.096C96.8507 20.8933 96.2933 20.792 95.68 20.792H92.952V29.744H95.68C96.2933 29.744 96.8507 29.6427 97.352 29.44C97.8533 29.2373 98.28 28.9467 98.632 28.568C98.984 28.184 99.256 27.7147 99.448 27.16C99.64 26.6053 99.736 25.976 99.736 25.272ZM104.447 22.896V28.064C104.447 28.6773 104.588 29.152 104.871 29.488C105.154 29.824 105.58 29.992 106.151 29.992C106.567 29.992 106.959 29.8933 107.327 29.696C107.695 29.4987 108.034 29.224 108.343 28.872V22.896H109.767V31H108.919C108.716 31 108.588 30.9013 108.535 30.704L108.423 29.832C108.071 30.2213 107.676 30.536 107.239 30.776C106.802 31.0107 106.3 31.128 105.735 31.128C105.292 31.128 104.9 31.056 104.559 30.912C104.223 30.7627 103.94 30.5547 103.711 30.288C103.482 30.0213 103.308 29.6987 103.191 29.32C103.079 28.9413 103.023 28.5227 103.023 28.064V22.896H104.447ZM112.106 31V22.896H112.922C113.076 22.896 113.183 22.9253 113.242 22.984C113.3 23.0427 113.34 23.144 113.362 23.288L113.458 24.552C113.735 23.9867 114.076 23.5467 114.482 23.232C114.892 22.912 115.372 22.752 115.922 22.752C116.146 22.752 116.348 22.7787 116.53 22.832C116.711 22.88 116.879 22.9493 117.034 23.04L116.85 24.104C116.812 24.2373 116.73 24.304 116.602 24.304C116.527 24.304 116.412 24.28 116.258 24.232C116.103 24.1787 115.887 24.152 115.61 24.152C115.114 24.152 114.698 24.296 114.362 24.584C114.031 24.872 113.754 25.2907 113.53 25.84V31H112.106ZM124.214 31H123.582C123.443 31 123.331 30.9787 123.246 30.936C123.16 30.8933 123.104 30.8027 123.078 30.664L122.918 29.912C122.704 30.104 122.496 30.2773 122.294 30.432C122.091 30.5813 121.878 30.7093 121.654 30.816C121.43 30.9173 121.19 30.9947 120.934 31.048C120.683 31.1013 120.403 31.128 120.094 31.128C119.779 31.128 119.483 31.0853 119.206 31C118.934 30.9093 118.696 30.776 118.494 30.6C118.291 30.424 118.128 30.2027 118.006 29.936C117.888 29.664 117.83 29.344 117.83 28.976C117.83 28.656 117.918 28.3493 118.094 28.056C118.27 27.7573 118.552 27.4933 118.942 27.264C119.336 27.0347 119.851 26.848 120.486 26.704C121.12 26.5547 121.896 26.4693 122.814 26.448V25.816C122.814 25.1867 122.678 24.712 122.406 24.392C122.139 24.0667 121.742 23.904 121.214 23.904C120.867 23.904 120.574 23.9493 120.334 24.04C120.099 24.1253 119.894 24.224 119.718 24.336C119.547 24.4427 119.398 24.5413 119.27 24.632C119.147 24.7173 119.024 24.76 118.902 24.76C118.806 24.76 118.72 24.736 118.646 24.688C118.576 24.6347 118.52 24.5707 118.478 24.496L118.222 24.04C118.67 23.608 119.152 23.2853 119.67 23.072C120.187 22.8587 120.76 22.752 121.39 22.752C121.843 22.752 122.246 22.8267 122.598 22.976C122.95 23.1253 123.246 23.3333 123.486 23.6C123.726 23.8667 123.907 24.1893 124.03 24.568C124.152 24.9467 124.214 25.3627 124.214 25.816V31ZM120.518 30.128C120.768 30.128 120.998 30.104 121.206 30.056C121.414 30.0027 121.608 29.9307 121.79 29.84C121.976 29.744 122.152 29.6293 122.318 29.496C122.488 29.3627 122.654 29.2107 122.814 29.04V27.352C122.158 27.3733 121.6 27.4267 121.142 27.512C120.683 27.592 120.31 27.6987 120.022 27.832C119.734 27.9653 119.523 28.1227 119.39 28.304C119.262 28.4853 119.198 28.688 119.198 28.912C119.198 29.1253 119.232 29.3093 119.302 29.464C119.371 29.6187 119.464 29.7467 119.582 29.848C119.699 29.944 119.838 30.016 119.998 30.064C120.158 30.1067 120.331 30.128 120.518 30.128ZM128.827 31.128C128.187 31.128 127.694 30.9493 127.347 30.592C127.006 30.2347 126.835 29.72 126.835 29.048V24.088H125.859C125.774 24.088 125.702 24.064 125.643 24.016C125.584 23.9627 125.555 23.8827 125.555 23.776V23.208L126.883 23.04L127.211 20.536C127.222 20.456 127.256 20.392 127.315 20.344C127.374 20.2907 127.448 20.264 127.539 20.264H128.259V23.056H130.579V24.088H128.259V28.952C128.259 29.2933 128.342 29.5467 128.507 29.712C128.672 29.8773 128.886 29.96 129.147 29.96C129.296 29.96 129.424 29.9413 129.531 29.904C129.643 29.8613 129.739 29.816 129.819 29.768C129.899 29.72 129.966 29.6773 130.019 29.64C130.078 29.5973 130.128 29.576 130.171 29.576C130.246 29.576 130.312 29.6213 130.371 29.712L130.787 30.392C130.542 30.6213 130.246 30.8027 129.899 30.936C129.552 31.064 129.195 31.128 128.827 31.128ZM133.924 22.896V31H132.5V22.896H133.924ZM134.244 20.352C134.244 20.4907 134.215 20.6213 134.156 20.744C134.103 20.8613 134.028 20.968 133.932 21.064C133.841 21.1547 133.735 21.2267 133.612 21.28C133.489 21.3333 133.359 21.36 133.22 21.36C133.081 21.36 132.951 21.3333 132.828 21.28C132.711 21.2267 132.604 21.1547 132.508 21.064C132.417 20.968 132.345 20.8613 132.292 20.744C132.239 20.6213 132.212 20.4907 132.212 20.352C132.212 20.2133 132.239 20.0827 132.292 19.96C132.345 19.832 132.417 19.7227 132.508 19.632C132.604 19.536 132.711 19.4613 132.828 19.408C132.951 19.3547 133.081 19.328 133.22 19.328C133.359 19.328 133.489 19.3547 133.612 19.408C133.735 19.4613 133.841 19.536 133.932 19.632C134.028 19.7227 134.103 19.832 134.156 19.96C134.215 20.0827 134.244 20.2133 134.244 20.352ZM139.714 22.768C140.306 22.768 140.839 22.8667 141.314 23.064C141.794 23.2613 142.199 23.5413 142.53 23.904C142.866 24.2667 143.122 24.7067 143.298 25.224C143.479 25.736 143.57 26.3093 143.57 26.944C143.57 27.584 143.479 28.16 143.298 28.672C143.122 29.184 142.866 29.6213 142.53 29.984C142.199 30.3467 141.794 30.6267 141.314 30.824C140.839 31.016 140.306 31.112 139.714 31.112C139.122 31.112 138.586 31.016 138.106 30.824C137.631 30.6267 137.226 30.3467 136.89 29.984C136.554 29.6213 136.295 29.184 136.114 28.672C135.932 28.16 135.842 27.584 135.842 26.944C135.842 26.3093 135.932 25.736 136.114 25.224C136.295 24.7067 136.554 24.2667 136.89 23.904C137.226 23.5413 137.631 23.2613 138.106 23.064C138.586 22.8667 139.122 22.768 139.714 22.768ZM139.714 30C140.514 30 141.111 29.7333 141.506 29.2C141.9 28.6613 142.098 27.912 142.098 26.952C142.098 25.9867 141.9 25.2347 141.506 24.696C141.111 24.1573 140.514 23.888 139.714 23.888C139.308 23.888 138.956 23.9573 138.658 24.096C138.359 24.2347 138.108 24.4347 137.906 24.696C137.708 24.9573 137.559 25.28 137.458 25.664C137.362 26.0427 137.314 26.472 137.314 26.952C137.314 27.432 137.362 27.8613 137.458 28.24C137.559 28.6187 137.708 28.9387 137.906 29.2C138.108 29.456 138.359 29.6533 138.658 29.792C138.956 29.9307 139.308 30 139.714 30ZM145.324 31V22.896H146.172C146.375 22.896 146.503 22.9947 146.556 23.192L146.668 24.072C147.02 23.6827 147.412 23.368 147.844 23.128C148.282 22.888 148.786 22.768 149.356 22.768C149.799 22.768 150.188 22.8427 150.524 22.992C150.866 23.136 151.148 23.344 151.372 23.616C151.602 23.8827 151.775 24.2053 151.892 24.584C152.01 24.9627 152.068 25.3813 152.068 25.84V31H150.644V25.84C150.644 25.2267 150.503 24.752 150.22 24.416C149.943 24.0747 149.516 23.904 148.94 23.904C148.519 23.904 148.124 24.0053 147.756 24.208C147.394 24.4107 147.058 24.6853 146.748 25.032V31H145.324Z" fill="#7C7995"/>
</svg>
