<svg xmlns="http://www.w3.org/2000/svg" width="878" height="441" viewBox="0 0 878 441">
  <g fill="none" fill-rule="evenodd">
    <g transform="matrix(-1 0 0 1 878 101.68)">
      <path stroke="#535461" stroke-width="2" d="M63.8822046,338.12 C63.8822046,338.12 89.5722046,251 59.0822046,186.8 C46.2822046,159.87 42.0822046,129.65 47.9522046,100.43 C50.7820444,86.5714755 54.8758262,73.0014089 60.1822046,59.89"/>
      <path fill="#33CCAB" fill-rule="nonzero" d="M41.2122046 19.34C41.2122046 30.02 60.5522046 61 60.5522046 61 60.5522046 61 79.8822046 30 79.8822046 19.34 79.8822046 8.65881294 71.2233917 0 60.5422046 0 49.8610176 0 41.2022046 8.65881294 41.2022046 19.34L41.2122046 19.34zM9.24220462 78.51C15.0522046 87.51 48.1222046 102.97 48.1222046 102.97 48.1222046 102.97 47.5222046 66.45 41.7122046 57.49 35.8010875 48.8089332 24.042151 46.4319945 15.2233381 52.1355692 6.40452519 57.839144 3.74938066 69.5384018 9.24220462 78.49L9.24220462 78.51zM10.6322046 179.63C20.1722046 184.44 56.5422046 181.12 56.5422046 181.12 56.5422046 181.12 37.5422046 149.9 28.0522046 145.12 21.8822279 142.008217 14.5208176 142.424454 8.74094589 146.211919 2.96107415 149.999384-.359159095 156.58267.030945895 163.481919.421050885 170.381167 4.46222788 176.548217 10.6322046 179.66L10.6322046 179.63zM28.8822046 255.9C37.4722046 262.25 73.8822046 265.12 73.8822046 265.12 73.8822046 265.12 60.4822046 231.12 51.8822046 224.8 43.2941768 218.448725 31.1834792 220.261972 24.8322046 228.85 18.48093 237.438028 20.2941768 249.548725 28.8822046 255.9zM88.7322046 105C81.0722046 112.44 45.3722046 120.15 45.3722046 120.15 45.3722046 120.15 54.1122046 84.69 61.7722046 77.25 69.4351555 69.7941559 81.6913605 69.9620491 89.1472046 77.625 96.6030487 85.2879509 96.4351555 97.5441559 88.7722046 105L88.7322046 105zM108.982205 194.51C99.4422046 199.32 63.0722046 196 63.0722046 196 63.0722046 196 82.0722046 164.78 91.5622046 160 97.7321814 156.888217 105.093592 157.304454 110.873464 161.091919 116.653335 164.879384 119.973569 171.46267 119.583464 178.361919 119.193359 185.261167 115.152181 191.428217 108.982205 194.54L108.982205 194.51zM116.732205 284.17C108.142205 290.52 71.7322046 293.39 71.7322046 293.39 71.7322046 293.39 85.1322046 259.39 93.7322046 253.07 102.320232 246.718726 114.43093 248.531973 120.782204 257.12 127.133479 265.708028 125.320232 277.818725 116.732205 284.17z"/>
    </g>
    <path stroke="#535461" stroke-width="2" d="M32.9323769,394.67 C32.9323769,394.67 44.9323769,353.83 30.6723769,323.77 C24.5993317,311.200155 22.7676629,296.999459 25.4523769,283.3 C26.7778958,276.80491 28.6959181,270.444975 31.1823769,264.3" transform="matrix(-1 0 0 1 61.902 0)"/>
    <path fill="#F5DD48" fill-rule="nonzero" d="M21.49,245.31 C21.49,250.31 30.55,264.83 30.55,264.83 C30.55,264.83 39.61,250.32 39.61,245.31 C39.61,240.303539 35.5514613,236.245 30.545,236.245 C25.5385387,236.245 21.48,240.303539 21.48,245.31 L21.49,245.31 Z" transform="matrix(-1 0 0 1 61.09 0)"/>
    <path fill="#F5DD48" fill-rule="nonzero" d="M37.8054586,273.04 C40.5254586,277.24 56.0254586,284.5 56.0254586,284.5 C56.0254586,284.5 55.7454586,267.39 53.0254586,263.19 C51.2659257,260.472995 48.1905452,258.901078 44.9577833,259.066376 C41.7250214,259.231674 38.8260116,261.109073 37.352783,263.991376 C35.8795543,266.873679 36.0559252,270.322995 37.8154586,273.04 L37.8054586,273.04 Z" transform="matrix(-1 0 0 1 92.385 0)"/>
    <path fill="#F5DD48" fill-rule="nonzero" d="M37.4025618,320.41 C41.8725618,322.66 58.9125618,321.11 58.9125618,321.11 C58.9125618,321.11 50.0325618,306.48 45.5625618,304.23 C41.0945782,301.976678 35.6458836,303.772016 33.3925618,308.24 C31.13924,312.707984 32.9345782,318.156678 37.4025618,320.41 Z" transform="matrix(-1 0 0 1 91.333 0)"/>
    <path fill="#F5DD48" fill-rule="nonzero" d="M27.9527707,356.15 C31.9527707,359.15 49.0327707,360.47 49.0327707,360.47 C49.0327707,360.47 42.7527707,344.55 38.7327707,341.58 C34.7093762,338.603186 29.034586,339.451607 26.0577715,343.475001 C23.0809569,347.498395 23.9293769,353.173185 27.9527707,356.15 L27.9527707,356.15 Z" transform="matrix(-1 0 0 1 73.313 0)"/>
    <path fill="#F5DD48" fill-rule="nonzero" d="M34.9124771,285.47 C31.3224771,288.96 14.5924771,292.57 14.5924771,292.57 C14.5924771,292.57 18.6924771,275.96 22.2824771,272.47 C25.8723281,268.982322 31.6097985,269.06515 35.0974765,272.655001 C38.5851544,276.244851 38.5023274,281.982322 34.9124771,285.47 L34.9124771,285.47 Z" transform="matrix(-1 0 0 1 52.252 0)"/>
    <path fill="#F5DD48" fill-rule="nonzero" d="M24.3774388,327.38 C19.9074388,329.63 2.86743879,328.08 2.86743879,328.08 C2.86743879,328.08 11.7474388,313.45 16.2174388,311.25 C20.6854223,308.996679 26.1341165,310.792017 28.3874382,315.26 C30.6407599,319.727984 28.845422,325.176678 24.3774388,327.43 L24.3774388,327.38 Z" transform="matrix(-1 0 0 1 32.227 0)"/>
    <path fill="#F5DD48" fill-rule="nonzero" d="M21.627229,369.39 C17.627229,372.39 0.547228996,373.71 0.547228996,373.71 C0.547228996,373.71 6.827229,357.79 10.847229,354.82 C14.8706234,351.843186 20.5454139,352.691606 23.5222285,356.715 C26.4990432,360.738395 25.650623,366.413185 21.627229,369.39 L21.627229,369.39 Z" transform="matrix(-1 0 0 1 25.847 0)"/>
    <path fill="#F5DD48" fill-rule="nonzero" d="M495.648498,111.47 L439.918498,104.25 C437.658498,103.96 435.918498,103.1 435.978498,102.35 L435.978498,102.35 C436.078498,101.6 437.978498,101.25 440.288498,101.58 L495.898498,109.63 C497.428498,109.85 498.588498,110.43 498.518498,110.94 L498.518498,110.94 C498.448498,111.42 497.168498,111.67 495.648498,111.47 Z" transform="matrix(-1 0 0 1 934.498 0)"/>
    <path fill="#F5DD48" fill-rule="nonzero" d="M495.990985,112.42 L440.090985,106.64 C437.820985,106.41 435.890985,106.83 435.820985,107.58 L435.820985,107.58 C435.750985,108.33 437.560985,109.12 439.820985,109.32 L495.820985,114.32 C497.360985,114.46 498.620985,114.16 498.670985,113.65 L498.670985,113.65 C498.710985,113.11 497.520985,112.58 495.990985,112.42 Z" transform="matrix(-1 0 0 1 934.491 0)"/>
    <path fill="#F5DD48" fill-rule="nonzero" d="M297.861502,154.47 L353.581502,147.25 C355.841502,146.96 357.581502,146.1 357.521502,145.35 L357.521502,145.35 C357.421502,144.6 355.521502,144.25 353.211502,144.58 L297.601502,152.63 C296.071502,152.85 294.911502,153.43 294.981502,153.94 L294.981502,153.94 C295.051502,154.42 296.331502,154.67 297.861502,154.47 Z" transform="matrix(-1 0 0 1 652.502 0)"/>
    <path fill="#F5DD48" fill-rule="nonzero" d="M297.509015,155.42 L353.409015,149.64 C355.679015,149.41 357.609015,149.83 357.679015,150.58 L357.679015,150.58 C357.749015,151.33 355.939015,152.12 353.679015,152.32 L297.679015,157.32 C296.139015,157.46 294.879015,157.16 294.829015,156.65 L294.829015,156.65 C294.789015,156.11 295.979015,155.58 297.509015,155.42 Z" transform="matrix(-1 0 0 1 652.509 0)"/>
    <rect width="13.59" height="194.86" x="538.97" y="214.32" fill="#40414D" fill-rule="nonzero" transform="matrix(-1 0 0 1 1091.53 0)"/>
    <rect width="13.59" height="194.86" x="242.15" y="214.32" fill="#40414D" fill-rule="nonzero" transform="matrix(-1 0 0 1 497.89 0)"/>
    <path fill="#DFE6F5" fill-rule="nonzero" d="M243.75,198.46 L557.75,198.46 C569.900264,198.46 579.75,208.309736 579.75,220.46 L579.75,223.38 L221.75,223.38 L221.75,220.46 C221.75,208.309736 231.599736,198.46 243.75,198.46 L243.75,198.46 Z" transform="matrix(-1 0 0 1 801.5 0)"/>
    <path fill="#000" fill-rule="nonzero" d="M244.75,198.46 L558.75,198.46 C570.900264,198.46 580.75,208.309736 580.75,220.46 L580.75,223.38 L222.75,223.38 L222.75,220.46 C222.75,208.309736 232.599736,198.46 244.75,198.46 L244.75,198.46 Z" opacity=".1" transform="matrix(-1 0 0 1 803.5 0)"/>
    <path fill="#DFE6F5" fill-rule="nonzero" d="M243.75,193.92 L557.75,193.92 C569.900264,193.92 579.75,203.769736 579.75,215.92 L579.75,218.84 L221.75,218.84 L221.75,215.92 C221.75,203.769736 231.599736,193.92 243.75,193.92 Z" transform="matrix(-1 0 0 1 801.5 0)"/>
    <circle cx="400.75" cy="150.87" r="27.19" fill="#FFD77C" fill-rule="nonzero" stroke="#FFF" transform="matrix(-1 0 0 1 801.5 0)"/>
    <circle cx="400.75" cy="150.87" r="21.55" fill="#FFD77C" fill-rule="nonzero" stroke="#FFF" transform="matrix(-1 0 0 1 801.5 0)"/>
    <circle cx="400.75" cy="150.87" r="16.42" fill="#FFD77C" fill-rule="nonzero" stroke="#FFF" transform="matrix(-1 0 0 1 801.5 0)"/>
    <circle cx="400.75" cy="150.87" r="9.23" fill="#FFD77C" fill-rule="nonzero" stroke="#FFF" transform="matrix(-1 0 0 1 801.5 0)"/>
    <circle cx="416.61" cy="165.6" r="27.19" fill="#FFD77C" fill-rule="nonzero" stroke="#FFF" transform="matrix(-1 0 0 1 833.22 0)"/>
    <circle cx="416.61" cy="165.6" r="21.55" fill="#FFD77C" fill-rule="nonzero" stroke="#FFF" transform="matrix(-1 0 0 1 833.22 0)"/>
    <circle cx="416.61" cy="165.6" r="16.42" fill="#FFD77C" fill-rule="nonzero" stroke="#FFF" transform="matrix(-1 0 0 1 833.22 0)"/>
    <circle cx="416.61" cy="165.6" r="9.23" fill="#FFD77C" fill-rule="nonzero" stroke="#FFF" transform="matrix(-1 0 0 1 833.22 0)"/>
    <circle cx="384.89" cy="165.6" r="27.19" fill="#FFD77C" fill-rule="nonzero" stroke="#FFF" transform="matrix(-1 0 0 1 769.78 0)"/>
    <circle cx="384.89" cy="165.6" r="21.55" fill="#FFD77C" fill-rule="nonzero" stroke="#FFF" transform="matrix(-1 0 0 1 769.78 0)"/>
    <circle cx="384.89" cy="165.6" r="16.42" fill="#FFD77C" fill-rule="nonzero" stroke="#FFF" transform="matrix(-1 0 0 1 769.78 0)"/>
    <circle cx="384.89" cy="165.6" r="9.23" fill="#FFD77C" fill-rule="nonzero" stroke="#FFF" transform="matrix(-1 0 0 1 769.78 0)"/>
    <path fill="#33CCAB" fill-rule="nonzero" d="M344.11,157.68 L457.4,157.68 L457.4,163 C457.4,173.60866 453.185726,183.782816 445.684271,191.284271 C438.182816,198.785726 428.00866,203 417.4,203 L384.11,203 C362.01861,203 344.11,185.09139 344.11,163 L344.11,157.68 Z" transform="matrix(-1 0 0 1 801.51 0)"/>
    <path fill="#000" fill-rule="nonzero" d="M411.89,157.67 C411.276954,182.243875 391.18152,201.846795 366.6,201.85 L344.11,201.85 C347.390807,202.599289 350.744727,202.981636 354.11,202.990004 L376.77,202.990004 C388.793076,202.995306 400.325534,198.222876 408.829009,189.723152 C417.332484,181.223429 422.11,169.693077 422.11,157.67 L411.89,157.67 Z" opacity=".1" transform="matrix(-1 0 0 1 766.22 0)"/>
    <rect width="13.59" height="294.56" x="389.425" y="222.245" fill="#40414D" fill-rule="nonzero" transform="rotate(90 26.695 0)"/>
    <rect width="11.89" height="108.18" x="653.94" y="315.27" fill="#40414D" fill-rule="nonzero" transform="matrix(-1 0 0 1 1319.77 0)"/>
    <rect width="11.89" height="108.18" x="560.03" y="315.27" fill="#40414D" fill-rule="nonzero" transform="matrix(-1 0 0 1 1131.95 0)"/>
    <path fill="#7A3814" fill-rule="nonzero" d="M658.68,297.44 C658.68,304.66 634.2,310.52 604,310.52 C573.8,310.52 550.51,304.67 550.51,297.44 C550.51,290.21 573.8,284.36 604,284.36 C634.2,284.36 658.68,290.25 658.68,297.44 Z" transform="matrix(-1 0 0 1 1209.19 0)"/>
    <path fill="#40414D" fill-rule="nonzero" d="M550.52,297.43 L675.34,297.43 L675.34,308.33 C675.34,314.12899 670.63899,318.83 664.84,318.83 L568.52,318.83 C558.578875,318.83 550.52,310.771125 550.52,300.83 L550.52,297.43 L550.52,297.43 Z" transform="matrix(-1 0 0 1 1225.86 0)"/>
    <path fill="#40414D" fill-rule="nonzero" d="M677.591244,170.238819 L680.231244,170.238819 C684.097237,170.238819 687.231244,173.372855 687.231244,177.238848 L687.231244,318.818848 L683.231244,318.818848 C676.239319,318.818848 670.571244,313.150773 670.571244,306.158848 L670.571244,177.238848 C670.571244,175.378862 671.311479,173.595347 672.628562,172.282016 C673.945646,170.968685 675.731266,170.233534 677.591244,170.238819 Z" transform="scale(-1 1) rotate(-12.72 0 6335.454)"/>
    <rect width="11.89" height="108.18" x="133.68" y="317.19" fill="#40414D" fill-rule="nonzero" transform="matrix(1 0 0 -1 0 742.56)"/>
    <rect width="11.89" height="108.18" x="227.59" y="317.19" fill="#40414D" fill-rule="nonzero" transform="matrix(1 0 0 -1 0 742.56)"/>
    <path fill="#7A3814" fill-rule="nonzero" d="M140.81,299.36 C140.81,306.58 165.29,312.44 195.49,312.44 C225.69,312.44 248.98,306.59 248.98,299.36 C248.98,292.13 225.68,286.25 195.49,286.25 C165.3,286.25 140.81,292.14 140.81,299.36 Z" transform="matrix(-1 0 0 1 389.79 0)"/>
    <path fill="#40414D" fill-rule="nonzero" d="M142.17,299.36 L238.49,299.36 C244.28899,299.36 248.99,304.06101 248.99,309.86 L248.99,320.76 L124.17,320.76 L124.17,317.36 C124.17,307.418875 132.228875,299.36 142.17,299.36 Z" transform="matrix(1 0 0 -1 0 620.12)"/>
    <path fill="#40414D" fill-rule="nonzero" d="M124.918732,172.136174 L128.918732,172.136174 L128.918732,313.736174 C128.918732,317.602167 125.784726,320.736174 121.918732,320.736174 L119.278732,320.736174 C115.412739,320.736174 112.278732,317.602167 112.278732,313.736174 L112.278732,184.796174 C112.278732,177.812052 117.934619,172.147207 124.918732,172.136174 Z" transform="scale(1 -1) rotate(12.72 2331.56 0)"/>
    <path fill="#B8616E" fill-rule="nonzero" d="M181.036446,373.6 C181.036446,373.6 183.686446,402.77 170.426446,406.31 C157.166446,409.85 169.546446,423.99 180.146446,421.31 C190.746446,418.63 229.656446,404.51 232.306446,383.31 C234.956446,362.11 205.786446,355.02 205.786446,355.02 L181.036446,373.6 Z" transform="matrix(-1 0 0 1 397.146 0)"/>
    <path fill="#000" fill-rule="nonzero" d="M181.036446,373.6 C181.036446,373.6 183.686446,402.77 170.426446,406.31 C157.166446,409.85 169.546446,423.99 180.146446,421.31 C190.746446,418.63 229.656446,404.51 232.306446,383.31 C234.956446,362.11 205.786446,355.02 205.786446,355.02 L181.036446,373.6 Z" opacity=".05" transform="matrix(-1 0 0 1 397.146 0)"/>
    <path fill="#B8616E" fill-rule="nonzero" d="M175.706446,374.48 C175.706446,374.48 178.356446,403.65 165.096446,407.19 C151.836446,410.73 164.216446,424.87 174.816446,422.19 C185.416446,419.51 224.326446,405.39 226.976446,384.19 C229.626446,362.99 200.456446,355.9 200.456446,355.9 L175.706446,374.48 Z" transform="matrix(-1 0 0 1 386.486 0)"/>
    <path fill="#000" fill-rule="nonzero" d="M202.66,356.8 L177.93,375.37 C177.93,375.37 178.04,376.63 178.11,378.64 C187.45,376.08 207.8,369.28 208.11,358.64 C206.331817,357.918087 204.511873,357.303647 202.66,356.8 Z" opacity=".1" transform="matrix(-1 0 0 1 386.04 0)"/>
    <rect width="10.61" height="7.96" x="198.85" y="102.63" fill="#F8BDC5" fill-rule="nonzero" transform="matrix(-1 0 0 1 408.31 0)"/>
    <path fill="#777B9B" fill-rule="nonzero" d="M289.155843,231.25 C289.155843,231.25 272.305843,244.49 258.465843,247.63 C250.236995,249.410761 242.259838,252.201927 234.715843,255.94 L202.885843,272.12 C197.011985,275.074895 193.041794,280.811708 192.345843,287.35 C191.435843,296.35 195.055843,308.19 216.655843,315.23 L284.725843,371.81 L305.945843,354.13 L233.455843,298.45 L289.155843,263.97 L289.155843,231.25 Z" transform="matrix(-1 0 0 1 498.166 0)"/>
    <path fill="#000" fill-rule="nonzero" d="M289.155843,231.25 C289.155843,231.25 272.305843,244.49 258.465843,247.63 C250.236995,249.410761 242.259838,252.201927 234.715843,255.94 L202.885843,272.12 C197.011985,275.074895 193.041794,280.811708 192.345843,287.35 C191.435843,296.35 195.055843,308.19 216.655843,315.23 L284.725843,371.81 L305.945843,354.13 L233.455843,298.45 L289.155843,263.97 L289.155843,231.25 Z" opacity=".1" transform="matrix(-1 0 0 1 498.166 0)"/>
    <path fill="#FEDCB4" fill-rule="nonzero" d="M312.283874,172.03 C312.283874,172.03 279.573874,172.91 256.583874,155.23 C233.593874,137.55 207.963874,142.85 213.263874,153.46 C218.563874,164.07 245.973874,172.91 250.393874,173.79 C254.813874,174.67 318.463874,192.36 318.463874,192.36 L312.283874,172.03 Z" transform="matrix(-1 0 0 1 531.024 0)"/>
    <path fill="#000" fill-rule="nonzero" d="M312.283874,172.03 C312.283874,172.03 279.573874,172.91 256.583874,155.23 C233.593874,137.55 207.963874,142.85 213.263874,153.46 C218.563874,164.07 245.973874,172.91 250.393874,173.79 C254.813874,174.67 318.463874,192.36 318.463874,192.36 L312.283874,172.03 Z" opacity=".05" transform="matrix(-1 0 0 1 531.024 0)"/>
    <path fill="#777B9B" fill-rule="nonzero" d="M219.226133,223.31 L208.616133,255.14 C208.616133,255.14 148.946133,291.83 144.076133,296.69 C140.296133,300.47 135.236133,315.26 152.916133,327.63 C170.596133,340 219.216133,378.91 219.216133,378.91 C219.216133,378.91 256.346133,370.91 253.696133,355.91 L192.696133,311.71 C192.696133,311.71 219.216133,288.71 246.626133,292.26 C274.036133,295.81 278.456133,290.49 278.456133,290.49 C278.456133,290.49 299.676133,269.25 292.596133,248.95 C285.516133,228.65 219.226133,223.31 219.226133,223.31 Z" transform="matrix(-1 0 0 1 434.426 0)"/>
    <path fill="#FEDCB4" fill-rule="nonzero" d="M176.3,79.25 C176.3,79.25 206.36,111.96 204.59,121.68 C202.82,131.4 228.46,93.39 228.46,93.39 C228.46,93.39 220.46,73.94 222.27,52.72 L176.3,79.25 Z" transform="matrix(-1 0 0 1 404.76 0)"/>
    <path fill="#000" fill-rule="nonzero" d="M162.585847,109.25 C164.636433,107.084892 166.795894,105.025561 169.055847,103.08 C173.57929,99.3705025 177.729047,95.2274439 181.445847,90.71 C187.635847,82.71 210.615847,117.23 210.615847,117.23 C210.615847,117.23 224.755847,133.14 222.995847,171.16 C221.235847,209.18 225.205847,260.01 225.205847,260.01 L219.855847,261.5 C210.719621,264.548795 200.681454,263.122708 192.755847,257.65 C185.695847,252.77 176.755847,247.65 169.955847,247.19 C156.695847,246.31 144.755847,238.79 144.755847,238.79 C144.755847,238.79 150.505847,225.09 141.665847,180.88 C132.825847,136.67 155.355847,105.25 155.355847,105.25 C155.355847,105.25 157.135847,114.87 162.585847,109.25 Z" opacity=".1" transform="matrix(-1 0 0 1 364.816 0)"/>
    <path fill="#07454C" fill-rule="nonzero" d="M225.165129,256.02 L219.865129,257.79 L216.715129,258.84 C207.579049,261.890402 197.540148,260.464211 189.615129,254.99 C182.565129,250.12 173.615129,244.99 166.815129,244.53 C153.575129,243.64 138.575129,233.92 138.575129,233.92 C138.575129,233.92 147.415129,222.43 138.575129,178.22 C129.735129,134.01 152.275129,102.63 152.275129,102.63 C152.275129,102.63 154.055129,112.2 159.505129,106.57 C161.551401,104.407244 163.707584,102.351194 165.965129,100.41 C170.488571,96.7005025 174.638329,92.5574439 178.355129,88.04 C184.545129,80.04 207.525129,114.56 207.525129,114.56 C207.525129,114.56 221.665129,130.47 219.905129,168.49 C219.715129,172.49 219.635129,176.61 219.625129,180.78 C219.495129,216.36 225.165129,256.02 225.165129,256.02 Z" transform="matrix(-1 0 0 1 361.685 0)"/>
    <path fill="#000" fill-rule="nonzero" d="M213.089451,169.38 L213.969451,188.83 C213.969451,188.83 167.109451,191.48 157.389451,181.76 C147.669451,172.04 183.889451,210.35 191.889451,212.7 C199.399451,214.91 218.789451,216.86 228.959451,217.06 C234.895347,217.251064 240.385012,213.921974 242.959451,208.57 C244.144888,205.992459 244.528137,203.11809 244.059451,200.32 C242.289451,188.83 244.059451,164.07 244.059451,164.07 L213.089451,169.38 Z" opacity=".1" transform="matrix(-1 0 0 1 400 0)"/>
    <path fill="#FEDCB4" fill-rule="nonzero" d="M255.655581,167.61 L256.535581,187.06 C256.535581,187.06 209.675581,189.71 199.955581,179.99 C190.235581,170.27 155.065581,172.42 155.755581,179.99 C156.195581,184.85 179.625581,200.32 193.755581,201.21 C207.885581,202.1 226.455581,208.58 234.455581,210.93 C241.965581,213.14 261.355581,215.09 271.525581,215.29 C277.461477,215.481064 282.951143,212.151974 285.525581,206.8 C286.711018,204.222459 287.094268,201.34809 286.625581,198.55 C284.855581,187.06 286.625581,162.3 286.625581,162.3 L255.655581,167.61 Z" transform="matrix(-1 0 0 1 442.566 0)"/>
    <path fill="#000" fill-rule="nonzero" d="M169.909504,111.03 C169.909504,111.03 149.579504,113.68 152.229504,143.74 C154.879504,173.8 158.419504,176.45 158.419504,176.45 C158.419504,176.45 188.479504,173.8 192.009504,172.91 C195.539504,172.02 193.779504,139.32 193.779504,139.32 C193.779504,139.32 192.889504,110.15 169.909504,111.03 Z" opacity=".1" transform="matrix(-1 0 0 1 346.21 0)"/>
    <path fill="#07454C" fill-rule="nonzero" d="M169.909504,110.15 C169.909504,110.15 149.579504,112.8 152.229504,142.86 C154.879504,172.92 158.419504,175.57 158.419504,175.57 C158.419504,175.57 188.479504,172.92 192.009504,172.03 C195.539504,171.14 193.779504,138.44 193.779504,138.44 C193.779504,138.44 192.889504,109.25 169.909504,110.15 Z" transform="matrix(-1 0 0 1 346.21 0)"/>
    <path fill="#000" fill-rule="nonzero" d="M225.4,71.69 C224.01,64.69 226.86,62.53 227.61,53.57 L181.61,80.09 C181.61,80.09 186.88,85.83 192.87,93.2 C195.546966,93.8770541 198.298772,94.2130499 201.06,94.200366 C213.11,94.25 219.7,81.31 225.4,71.69 Z" opacity=".1" transform="matrix(-1 0 0 1 409.22 0)"/>
    <circle cx="209.02" cy="60.64" r="32.71" fill="#FEDCB4" fill-rule="nonzero" transform="matrix(-1 0 0 1 418.04 0)"/>
    <path fill="#000" fill-rule="nonzero" d="M224.537442,50.71 C219.537442,53.89 219.467442,61.08 222.687442,66.06 C225.907442,71.04 231.457442,74.33 236.797442,77.43 C238.347442,78.33 240.057442,79.26 241.797442,79.06 C243.135178,78.7992899 244.374421,78.172745 245.377442,77.25 C249.114355,74.3342676 252.680258,71.2057552 256.057442,67.88 C260.917442,63.1 265.587442,57.21 264.827442,50.54 C263.967442,42.97 256.487442,37.27 253.467442,30.1 C250.927442,24.1 251.687442,17.37 249.467442,11.24 C247.247442,5.11 239.467442,-0.56 233.647442,2.65 C231.497442,3.83 230.197442,5.94 228.397442,7.53 C223.937442,11.47 216.747442,11.86 210.647442,10.06 C204.547442,8.26 202.737442,0.91 194.227442,0.89 C198.457442,2.38 201.317442,6.79 200.667442,10.81 C197.257442,12.74 192.777442,11.64 188.667442,11.57 C184.557442,11.5 179.667442,13.8 180.377442,17.5 C180.997442,20.5 185.327442,22.73 184.687442,25.73 C177.175466,29.6872978 168.986665,32.1975348 160.547442,33.13 C159.017442,33.3 169.737442,42.21 170.957442,42.8 C175.427442,44.94 180.797442,46.51 185.527442,48.15 C198.377442,52.58 211.537442,54.16 224.537442,50.71 Z" opacity=".1" transform="matrix(-1 0 0 1 425.307 0)"/>
    <path fill="#444" fill-rule="nonzero" d="M224.537442,49.82 C219.537442,53 219.467442,60.19 222.687442,65.17 C225.907442,70.15 231.457442,73.44 236.797442,76.54 C238.347442,77.44 240.057442,78.37 241.797442,78.17 C243.135178,77.9092899 244.374421,77.282745 245.377442,76.36 C249.114355,73.4442676 252.680258,70.3157552 256.057442,66.99 C260.917442,62.21 265.587442,56.32 264.827442,49.65 C263.967442,42.08 256.487442,36.38 253.467442,29.21 C250.927442,23.21 251.687442,16.48 249.467442,10.35 C247.247442,4.22 239.467442,-1.45 233.647442,1.76 C231.497442,2.94 230.197442,5.05 228.397442,6.64 C223.937442,10.58 216.747442,10.97 210.647442,9.17 C204.547442,7.37 202.737442,0.02 194.227442,0 C198.457442,1.49 201.317442,5.9 200.667442,9.92 C197.257442,11.85 192.777442,10.75 188.667442,10.68 C184.557442,10.61 179.667442,12.91 180.377442,16.61 C180.997442,19.61 185.327442,21.84 184.687442,24.84 C177.175466,28.7972978 168.986665,31.3075348 160.547442,32.24 C159.017442,32.41 169.737442,41.32 170.957442,41.91 C175.427442,44.05 180.797442,45.62 185.527442,47.26 C198.377442,51.7 211.537442,53.25 224.537442,49.82 Z" transform="matrix(-1 0 0 1 425.307 0)"/>
    <path fill="#FFF" fill-rule="nonzero" d="M224.278446,371.14 C225.698169,374.413923 226.192776,378.014521 225.708446,381.55 C223.058446,402.77 184.158446,416.91 173.548446,419.55 C167.958446,420.95 161.868446,417.68 159.318446,413.75 C160.958446,418.37 168.018446,422.92 174.438446,421.32 C185.048446,418.67 223.948446,404.52 226.598446,383.32 C227.177536,379.115546 226.362607,374.837168 224.278446,371.14 Z" opacity=".1" transform="matrix(-1 0 0 1 386.098 0)"/>
    <path fill="#000" fill-rule="nonzero" d="M482.49687,243.93 C482.49687,243.93 470.49687,284.93 506.49687,291.93 L545.49687,289.93 C545.49687,289.93 600.49687,278.93 615.49687,286.93 C615.49687,286.93 621.49687,287.93 619.49687,295.93 C617.49687,303.93 622.49687,357.93 622.49687,357.93 L622.49687,375.93 C622.49687,375.93 656.49687,375.93 660.49687,371.93 C660.49687,371.93 657.49687,355.93 660.49687,342.93 C663.49687,329.93 655.49687,288.93 655.49687,288.93 L654.70687,264.25 C654.587557,258.040665 651.122541,252.380375 645.64687,249.45 C643.754308,248.446722 641.648804,247.911773 639.50687,247.89 C639.50687,247.89 571.50687,236.89 547.50687,238.89 C523.50687,240.89 482.49687,243.93 482.49687,243.93 Z" opacity=".1" transform="matrix(-1 0 0 1 1141.747 0)"/>
    <path fill="#F4CFA4" fill-rule="nonzero" d="M497.611039,161.93 C497.611039,161.93 505.611039,171.93 510.611039,161.93 C515.611039,151.93 526.611039,118.93 526.611039,118.93 C526.611039,118.93 553.611039,89.93 562.611039,98.93 C571.611039,107.93 540.611039,123.93 540.611039,123.93 C540.611039,123.93 529.611039,184.93 519.611039,185.93 C509.611039,186.93 494.611039,185.93 494.611039,185.93 L489.611039,174.93 L497.611039,161.93 Z" transform="matrix(-1 0 0 1 1053.861 0)"/>
    <path fill="#000" fill-rule="nonzero" d="M497.611039,161.93 C497.611039,161.93 505.611039,171.93 510.611039,161.93 C515.611039,151.93 526.611039,118.93 526.611039,118.93 C526.611039,118.93 553.611039,89.93 562.611039,98.93 C571.611039,107.93 540.611039,123.93 540.611039,123.93 C540.611039,123.93 529.611039,184.93 519.611039,185.93 C509.611039,186.93 494.611039,185.93 494.611039,185.93 L489.611039,174.93 L497.611039,161.93 Z" opacity=".05" transform="matrix(-1 0 0 1 1053.861 0)"/>
    <path fill="#29A389" fill-rule="nonzero" d="M566.25,111.93 C566.25,111.93 584.25,132.93 586.25,139.93 C588.25,146.93 610.25,164.93 610.25,164.93 C610.25,164.93 594.25,176.93 597.25,182.93 C600.25,188.93 576.25,162.93 576.25,162.93 L548.25,121.93 L566.25,111.93 Z" transform="matrix(-1 0 0 1 1158.5 0)"/>
    <path fill="#000" fill-rule="nonzero" d="M566.25,111.93 C566.25,111.93 584.25,132.93 586.25,139.93 C588.25,146.93 610.25,164.93 610.25,164.93 C610.25,164.93 594.25,176.93 597.25,182.93 C600.25,188.93 576.25,162.93 576.25,162.93 L548.25,121.93 L566.25,111.93 Z" opacity=".1" transform="matrix(-1 0 0 1 1158.5 0)"/>
    <path fill="#F1D0AA" fill-rule="nonzero" d="M626.269396,87.93 C626.269396,87.93 617.269396,116.93 617.269396,127.93 C617.269396,138.93 579.269396,124.93 580.269396,118.93 C581.269396,112.93 602.269396,90.93 603.269396,81.93 C604.269396,72.93 626.269396,87.93 626.269396,87.93 Z" transform="matrix(-1 0 0 1 1206.52 0)"/>
    <path fill="#29A389" fill-rule="nonzero" d="M611.578204,105.93 C611.578204,105.93 576.578204,96.93 571.578204,147.93 C566.578204,198.93 575.578204,204.93 560.578204,235.93 C545.578204,266.93 662.578204,239.93 662.578204,239.93 C662.578204,239.93 643.857825,231.25 632.578204,223.38 L628.578204,208.93 C628.578204,208.93 625.578204,196.93 642.578204,196.93 C659.578204,196.93 651.578204,161.93 651.578204,161.93 C651.578204,161.93 642.578204,131.93 637.578204,128.93 C632.578204,125.93 623.578204,107.93 611.578204,105.93 Z" transform="matrix(-1 0 0 1 1221.828 0)"/>
    <path fill="#F4CFA4" fill-rule="nonzero" d="M453.0395,171.93 C453.0395,171.93 526.0395,179.93 538.0395,177.93 C538.0395,177.93 591.6395,171.33 578.0395,184.93 C577.0395,185.93 542.0395,193.93 538.0395,192.93 C534.0395,191.93 449.0395,192.93 449.0395,192.93 L448.0395,182.93 L453.0395,171.93 Z" transform="matrix(-1 0 0 1 1028.29 0)"/>
    <path fill="#CF9595" fill-rule="nonzero" d="M568.051432,152.93 L621.051432,200.93 C621.051432,200.93 631.051432,180.93 634.051432,180.93 C637.051432,180.93 598.051432,121.93 598.051432,121.93 C598.051432,121.93 588.051432,109.93 582.051432,115.93 C576.051432,121.93 558.051432,117.93 568.051432,152.93 Z" opacity=".1" transform="matrix(-1 0 0 1 1199.301 0)"/>
    <path fill="#29A389" fill-rule="nonzero" d="M569.051432,150.93 L622.051432,198.93 C622.051432,198.93 632.051432,178.93 635.051432,178.93 C638.051432,178.93 599.051432,119.93 599.051432,119.93 C599.051432,119.93 589.051432,107.93 583.051432,113.93 C577.051432,119.93 559.051432,115.93 569.051432,150.93 Z" transform="matrix(-1 0 0 1 1201.301 0)"/>
    <circle cx="589.25" cy="72.93" r="33" fill="#F4CFA4" fill-rule="nonzero" transform="matrix(-1 0 0 1 1178.5 0)"/>
    <path fill="#BB7684" fill-rule="nonzero" d="M703.908419,63.64 C709.508419,65.85 716.368419,63.2 719.668419,58.17 C722.968419,53.14 722.868419,46.29 720.088419,40.95 C717.308419,35.61 712.168419,31.73 706.498419,29.71 C703.058419,28.49 699.228419,27.79 696.588419,25.27 C694.918419,23.68 693.928419,21.53 692.678419,19.59 C688.008419,12.31 679.678419,8.01 671.208419,6.32 C662.738419,4.63 653.978419,5.23 645.358419,5.83 C642.138419,6.06 638.358419,6.64 636.898419,9.52 C635.808419,11.68 636.518419,14.27 636.378419,16.68 C635.928419,24.35 627.378419,28.6 619.908419,30.44 C612.438419,32.28 603.778419,34.01 600.138419,40.77 C596.878419,46.84 599.208419,54.2 600.218419,61.02 C601.945573,72.9328746 599.364039,85.0710483 592.938419,95.25 C589.668419,100.38 585.458419,104.94 582.868419,110.45 C580.003366,116.607371 579.339688,123.561872 580.988419,130.15 C581.478419,132.08 582.168419,134.04 581.828419,136 C581.436511,137.610888 580.661179,139.103232 579.568419,140.35 C570.705639,151.690187 557.454625,158.746251 543.098419,159.77 C544.238419,164.06 548.388419,166.77 552.338419,168.77 C559.078596,172.236718 566.181865,174.946558 573.518419,176.85 C578.448419,178.13 583.608419,179.04 588.628419,178.17 C593.648419,177.3 598.538419,174.35 600.628419,169.69 C601.828419,166.99 602.008419,163.94 603.068419,161.18 C605.458419,154.99 611.828419,151.25 615.248419,145.56 C618.518419,140.12 619.788419,139.48 620.618419,133.2 C621.448419,126.92 623.278419,120.14 628.438419,116.45 C633.838419,112.58 641.438419,113.32 647.438419,116.29 C653.438419,119.26 657.148419,118.1 662.158419,122.46 C670.947255,130.094896 680.783668,136.432495 691.368419,141.28 C690.368419,132.56 688.758419,122.83 681.678419,117.64 C679.678419,116.15 677.148419,115.01 676.088419,112.73 C674.398419,109.1 677.288419,104.67 675.978419,100.88 C674.668419,97.09 669.688419,95.69 667.478419,92.25 C665.598419,89.33 666.108419,85.36 667.868419,82.36 C669.628419,79.36 672.408419,77.14 675.178419,75.04 C677.638419,73.18 680.131753,71.3633333 682.658419,69.59 C684.941592,68.1411599 686.991609,66.3541382 688.738419,64.29 C689.738419,62.92 690.398419,59.92 691.788419,58.95 C695.288419,56.53 700.668419,62.37 703.908419,63.64 Z" transform="matrix(-1 0 0 1 1265.258 0)"/>
    <path fill="#FFF" fill-rule="nonzero" d="M34.61 8.13C34.685151 5.46818605 35.067689 2.82397607 35.75.25L35.25.42C34.7509336 2.95824775 34.5362756 5.54420541 34.61 8.13zM39.75 45.25C31.75 45.72 6.75 34.25 1.75 28.25 1.09336713 27.4374708.689989288 26.4498906.59 25.41.293574963 27.1142399.713246293 28.8652823 1.75 30.25 6.75 36.25 31.75 47.72 39.75 47.25 48.25 46.75 76.75 48.25 77.75 35.25 77.8246388 34.8910048 77.7752825 34.5173075 77.61 34.19 75.32 46.17 48.04 44.76 39.75 45.25z" opacity=".1" transform="matrix(-1 0 0 1 525 360.68)"/>
    <path fill="#2F2E41" fill-rule="nonzero" d="M500.463982,370.016108 C500.463982,370.016108 489.524724,361.246576 482.961159,377.689452 C479.190956,387.358211 473.193669,395.997163 465.458336,402.90186 C465.458336,402.90186 461.08263,413.863769 479.679377,411.671392 C498.276123,409.479015 530,389.747562 530,389.747562 C530,389.747562 522.194034,369.711418 518.439529,369.863757 C514.685023,370.016096 512.497201,377.689452 500.463982,370.016108 Z" transform="rotate(6 497.505 389.82)"/>
    <polygon fill="#F4CFA4" points="485.86 356.8 485.86 394.67 510.638 389.213 503.811 353.042" transform="matrix(-1 0 0 1 996.498 0)"/>
    <polygon fill="#000" points="485.86 356.8 485.86 394.67 510.638 389.213 503.811 353.042" opacity=".1" transform="matrix(-1 0 0 1 996.498 0)"/>
    <path fill="#2F2E41" fill-rule="nonzero" d="M491.463982,381.016108 C491.463982,381.016108 480.524724,372.246576 473.961159,388.689452 C470.190956,398.358211 464.193669,406.997163 456.458336,413.90186 C456.458336,413.90186 452.08263,424.863769 470.679377,422.671392 C489.276123,420.479015 521,400.747562 521,400.747562 C521,400.747562 513.194034,380.711418 509.439529,380.863757 C505.685023,381.016096 503.497201,388.689452 491.463982,381.016108 Z" transform="rotate(6 488.505 400.82)"/>
    <path fill="#C4C9D8" fill-rule="nonzero" d="M482.49687,242.93 C482.49687,242.93 470.49687,283.93 506.49687,290.93 L545.49687,288.93 C545.49687,288.93 576.49687,285.93 591.49687,293.93 C591.49687,293.93 597.49687,294.93 595.49687,302.93 C593.49687,310.93 614.49687,356.93 614.49687,356.93 L614.49687,374.93 C614.49687,374.93 656.49687,374.93 660.49687,370.93 C660.49687,370.93 657.49687,354.93 660.49687,341.93 C663.49687,328.93 655.49687,287.93 655.49687,287.93 L654.70687,263.25 C654.587557,257.040665 651.122541,251.380375 645.64687,248.45 C643.754308,247.446722 641.648804,246.911773 639.50687,246.89 C639.50687,246.89 571.50687,235.89 547.50687,237.89 C523.50687,239.89 482.49687,242.93 482.49687,242.93 Z" transform="matrix(-1 0 0 1 1141.747 0)"/>
    <path fill="#000" fill-rule="nonzero" d="M482.49687,242.93 C482.49687,242.93 470.49687,283.93 506.49687,290.93 L545.49687,288.93 C545.49687,288.93 576.49687,285.93 591.49687,293.93 C591.49687,293.93 597.49687,294.93 595.49687,302.93 C593.49687,310.93 614.49687,356.93 614.49687,356.93 L614.49687,374.93 C614.49687,374.93 656.49687,374.93 660.49687,370.93 C660.49687,370.93 657.49687,354.93 660.49687,341.93 C663.49687,328.93 655.49687,287.93 655.49687,287.93 L654.70687,263.25 C654.587557,257.040665 651.122541,251.380375 645.64687,248.45 C643.754308,247.446722 641.648804,246.911773 639.50687,246.89 C639.50687,246.89 571.50687,235.89 547.50687,237.89 C523.50687,239.89 482.49687,242.93 482.49687,242.93 Z" opacity=".1" transform="matrix(-1 0 0 1 1141.747 0)"/>
    <path fill="#C4C9D8" fill-rule="nonzero" d="M482.49687,242.93 C482.49687,242.93 470.49687,283.93 506.49687,290.93 L545.49687,288.93 C545.49687,288.93 600.49687,277.93 615.49687,285.93 C615.49687,285.93 621.49687,286.93 619.49687,294.93 C617.49687,302.93 622.49687,356.93 622.49687,356.93 L622.49687,374.93 C622.49687,374.93 656.49687,374.93 660.49687,370.93 C660.49687,370.93 657.49687,354.93 660.49687,341.93 C663.49687,328.93 655.49687,287.93 655.49687,287.93 L654.70687,263.25 C654.587557,257.040665 651.122541,251.380375 645.64687,248.45 C643.754308,247.446722 641.648804,246.911773 639.50687,246.89 C639.50687,246.89 571.50687,235.89 547.50687,237.89 C523.50687,239.89 482.49687,242.93 482.49687,242.93 Z" transform="matrix(-1 0 0 1 1141.747 0)"/>
  </g>
</svg>
