<svg xmlns="http://www.w3.org/2000/svg" width="896" height="456" viewBox="0 0 896 456">
  <g fill="none" fill-rule="evenodd" transform="translate(0 .32)">
    <g transform="translate(0 101.68)">
      <ellipse cx="63.862" cy="338" fill="#FFBCA3" fill-rule="nonzero" opacity=".5" rx="45" ry="16"/>
      <path stroke="#535461" stroke-width="2" d="M63.8822046,338.12 C63.8822046,338.12 89.5722046,251 59.0822046,186.8 C46.2822046,159.87 42.0822046,129.65 47.9522046,100.43 C50.7820444,86.5714755 54.8758262,73.0014089 60.1822046,59.89"/>
      <path fill="#33CCAB" fill-rule="nonzero" d="M41.2122046 19.34C41.2122046 30.02 60.5522046 61 60.5522046 61 60.5522046 61 79.8822046 30 79.8822046 19.34 79.8822046 8.65881294 71.2233917 0 60.5422046 0 49.8610176 0 41.2022046 8.65881294 41.2022046 19.34L41.2122046 19.34zM9.24220462 78.51C15.0522046 87.51 48.1222046 102.97 48.1222046 102.97 48.1222046 102.97 47.5222046 66.45 41.7122046 57.49 35.8010875 48.8089332 24.042151 46.4319945 15.2233381 52.1355692 6.40452519 57.839144 3.74938066 69.5384018 9.24220462 78.49L9.24220462 78.51zM10.6322046 179.63C20.1722046 184.44 56.5422046 181.12 56.5422046 181.12 56.5422046 181.12 37.5422046 149.9 28.0522046 145.12 21.8822279 142.008217 14.5208176 142.424454 8.74094589 146.211919 2.96107415 149.999384-.359159095 156.58267.030945895 163.481919.421050885 170.381167 4.46222788 176.548217 10.6322046 179.66L10.6322046 179.63zM28.8822046 255.9C37.4722046 262.25 73.8822046 265.12 73.8822046 265.12 73.8822046 265.12 60.4822046 231.12 51.8822046 224.8 43.2941768 218.448725 31.1834792 220.261972 24.8322046 228.85 18.48093 237.438028 20.2941768 249.548725 28.8822046 255.9zM88.7322046 105C81.0722046 112.44 45.3722046 120.15 45.3722046 120.15 45.3722046 120.15 54.1122046 84.69 61.7722046 77.25 69.4351555 69.7941559 81.6913605 69.9620491 89.1472046 77.625 96.6030487 85.2879509 96.4351555 97.5441559 88.7722046 105L88.7322046 105zM108.982205 194.51C99.4422046 199.32 63.0722046 196 63.0722046 196 63.0722046 196 82.0722046 164.78 91.5622046 160 97.7321814 156.888217 105.093592 157.304454 110.873464 161.091919 116.653335 164.879384 119.973569 171.46267 119.583464 178.361919 119.193359 185.261167 115.152181 191.428217 108.982205 194.54L108.982205 194.51zM116.732205 284.17C108.142205 290.52 71.7322046 293.39 71.7322046 293.39 71.7322046 293.39 85.1322046 259.39 93.7322046 253.07 102.320232 246.718726 114.43093 248.531973 120.782204 257.12 127.133479 265.708028 125.320232 277.818725 116.732205 284.17z"/>
    </g>
    <ellipse cx="850.85" cy="392.4" fill="#FFBCA3" fill-rule="nonzero" opacity=".5" rx="45" ry="16"/>
    <path stroke="#535461" stroke-width="2" d="M849.03,394.67 C849.03,394.67 861.03,353.83 846.77,323.77 C840.696955,311.200155 838.865286,296.999459 841.55,283.3 C842.875519,276.80491 844.793541,270.444975 847.28,264.3"/>
    <path fill="#F5DD48" fill-rule="nonzero" d="M838.4 245.31C838.4 250.31 847.46 264.83 847.46 264.83 847.46 264.83 856.52 250.32 856.52 245.31 856.52 240.303539 852.461461 236.245 847.455 236.245 842.448539 236.245 838.39 240.303539 838.39 245.31L838.4 245.31zM823.42 273.04C826.14 277.24 841.64 284.5 841.64 284.5 841.64 284.5 841.36 267.39 838.64 263.19 836.880467 260.472995 833.805087 258.901078 830.572325 259.066376 827.339563 259.231674 824.440553 261.109073 822.967324 263.991376 821.494096 266.873679 821.670467 270.322995 823.43 273.04L823.42 273.04zM824.07 320.41C828.54 322.66 845.58 321.11 845.58 321.11 845.58 321.11 836.7 306.48 832.23 304.23 827.762016 301.976678 822.313322 303.772016 820.06 308.24 817.806678 312.707984 819.602016 318.156678 824.07 320.41zM832.64 356.15C836.64 359.15 853.72 360.47 853.72 360.47 853.72 360.47 847.44 344.55 843.42 341.58 839.396606 338.603186 833.721815 339.451607 830.745001 343.475001 827.768186 347.498395 828.616606 353.173185 832.64 356.15L832.64 356.15zM860.66 285.47C857.07 288.96 840.34 292.57 840.34 292.57 840.34 292.57 844.44 275.96 848.03 272.47 851.619851 268.982322 857.357321 269.06515 860.844999 272.655001 864.332677 276.244851 864.24985 281.982322 860.66 285.47L860.66 285.47zM870.15 327.38C865.68 329.63 848.64 328.08 848.64 328.08 848.64 328.08 857.52 313.45 861.99 311.25 866.457984 308.996679 871.906678 310.792017 874.159999 315.26 876.413321 319.727984 874.617983 325.176678 870.15 327.43L870.15 327.38zM873.78 369.39C869.78 372.39 852.7 373.71 852.7 373.71 852.7 373.71 858.98 357.79 863 354.82 867.023394 351.843186 872.698185 352.691606 875.675 356.715 878.651814 360.738395 877.803394 366.413185 873.78 369.39L873.78 369.39zM439.15 111.47L383.42 104.25C381.16 103.96 379.42 103.1 379.48 102.35L379.48 102.35C379.58 101.6 381.48 101.25 383.79 101.58L439.4 109.63C440.93 109.85 442.09 110.43 442.02 110.94L442.02 110.94C441.95 111.42 440.67 111.67 439.15 111.47zM439.5 112.42L383.6 106.64C381.33 106.41 379.4 106.83 379.33 107.58L379.33 107.58C379.26 108.33 381.07 109.12 383.33 109.32L439.33 114.32C440.87 114.46 442.13 114.16 442.18 113.65L442.18 113.65C442.22 113.11 441.03 112.58 439.5 112.42zM523.36 154.47L579.08 147.25C581.34 146.96 583.08 146.1 583.02 145.35L583.02 145.35C582.92 144.6 581.02 144.25 578.71 144.58L523.1 152.63C521.57 152.85 520.41 153.43 520.48 153.94L520.48 153.94C520.55 154.42 521.83 154.67 523.36 154.47zM523 155.42L578.9 149.64C581.17 149.41 583.1 149.83 583.17 150.58L583.17 150.58C583.24 151.33 581.43 152.12 579.17 152.32L523.17 157.32C521.63 157.46 520.37 157.16 520.32 156.65L520.32 156.65C520.28 156.11 521.47 155.58 523 155.42z"/>
    <rect width="13.59" height="194.86" x="325.44" y="214.32" fill="#40414D" fill-rule="nonzero"/>
    <rect width="13.59" height="194.86" x="622.26" y="214.32" fill="#40414D" fill-rule="nonzero"/>
    <path fill="#DFE6F5" fill-rule="nonzero" d="M320.25,198.46 L634.25,198.46 C646.400264,198.46 656.25,208.309736 656.25,220.46 L656.25,223.38 L298.25,223.38 L298.25,220.46 C298.25,208.309736 308.099736,198.46 320.25,198.46 L320.25,198.46 Z"/>
    <path fill="#000" fill-rule="nonzero" d="M319.25,198.46 L633.25,198.46 C645.400264,198.46 655.25,208.309736 655.25,220.46 L655.25,223.38 L297.25,223.38 L297.25,220.46 C297.25,208.309736 307.099736,198.46 319.25,198.46 L319.25,198.46 Z" opacity=".1"/>
    <path fill="#DFE6F5" fill-rule="nonzero" d="M320.25,193.92 L634.25,193.92 C646.400264,193.92 656.25,203.769736 656.25,215.92 L656.25,218.84 L298.25,218.84 L298.25,215.92 C298.25,203.769736 308.099736,193.92 320.25,193.92 Z"/>
    <circle cx="477.25" cy="150.87" r="27.19" fill="#FFD77C" fill-rule="nonzero" stroke="#FFF"/>
    <circle cx="477.25" cy="150.87" r="21.55" fill="#FFD77C" fill-rule="nonzero" stroke="#FFF"/>
    <circle cx="477.25" cy="150.87" r="16.42" fill="#FFD77C" fill-rule="nonzero" stroke="#FFF"/>
    <circle cx="477.25" cy="150.87" r="9.23" fill="#FFD77C" fill-rule="nonzero" stroke="#FFF"/>
    <circle cx="461.39" cy="165.6" r="27.19" fill="#FFD77C" fill-rule="nonzero" stroke="#FFF"/>
    <circle cx="461.39" cy="165.6" r="21.55" fill="#FFD77C" fill-rule="nonzero" stroke="#FFF"/>
    <circle cx="461.39" cy="165.6" r="16.42" fill="#FFD77C" fill-rule="nonzero" stroke="#FFF"/>
    <circle cx="461.39" cy="165.6" r="9.23" fill="#FFD77C" fill-rule="nonzero" stroke="#FFF"/>
    <circle cx="493.11" cy="165.6" r="27.19" fill="#FFD77C" fill-rule="nonzero" stroke="#FFF"/>
    <circle cx="493.11" cy="165.6" r="21.55" fill="#FFD77C" fill-rule="nonzero" stroke="#FFF"/>
    <circle cx="493.11" cy="165.6" r="16.42" fill="#FFD77C" fill-rule="nonzero" stroke="#FFF"/>
    <circle cx="493.11" cy="165.6" r="9.23" fill="#FFD77C" fill-rule="nonzero" stroke="#FFF"/>
    <path fill="#33CCAB" fill-rule="nonzero" d="M420.6,157.68 L533.89,157.68 L533.89,163 C533.89,173.60866 529.675726,183.782816 522.174271,191.284271 C514.672816,198.785726 504.49866,203 493.89,203 L460.6,203 C438.50861,203 420.6,185.09139 420.6,163 L420.6,157.68 Z"/>
    <path fill="#000" fill-rule="nonzero" d="M523.67,157.67 C523.056954,182.243875 502.96152,201.846795 478.38,201.85 L455.89,201.85 C459.170807,202.599289 462.524727,202.981636 465.89,202.990004 L488.55,202.990004 C500.573076,202.995306 512.105534,198.222876 520.609009,189.723152 C529.112484,181.223429 533.89,169.693077 533.89,157.67 L523.67,157.67 Z" opacity=".1"/>
    <rect width="13.59" height="294.56" x="474.985" y="222.245" fill="#40414D" fill-rule="nonzero" transform="rotate(90 481.78 369.525)"/>
    <rect width="11.89" height="108.18" x="212.17" y="315.27" fill="#40414D" fill-rule="nonzero"/>
    <rect width="11.89" height="108.18" x="306.08" y="315.27" fill="#40414D" fill-rule="nonzero"/>
    <path fill="#7A3814" fill-rule="nonzero" d="M327.49,297.44 C327.49,304.66 303.01,310.52 272.81,310.52 C242.61,310.52 219.32,304.67 219.32,297.44 C219.32,290.21 242.61,284.36 272.81,284.36 C303.01,284.36 327.49,290.25 327.49,297.44 Z"/>
    <path fill="#40414D" fill-rule="nonzero" d="M202.66,297.43 L327.48,297.43 L327.48,308.33 C327.48,314.12899 322.77899,318.83 316.98,318.83 L220.66,318.83 C210.718875,318.83 202.66,310.771125 202.66,300.83 L202.66,297.43 L202.66,297.43 Z"/>
    <path fill="#40414D" fill-rule="nonzero" d="M197.788756,170.238819 L200.428756,170.238819 C204.294749,170.238819 207.428756,173.372855 207.428756,177.238848 L207.428756,318.818848 L203.428756,318.818848 C196.436831,318.818848 190.768756,313.150773 190.768756,306.158848 L190.768756,177.238848 C190.768756,175.378862 191.508991,173.595347 192.826075,172.282016 C194.143158,170.968685 195.928778,170.233534 197.788756,170.238819 Z" transform="rotate(-12.72 199.099 244.529)"/>
    <rect width="11.89" height="108.18" x="732.43" y="317.19" fill="#40414D" fill-rule="nonzero" transform="rotate(-180 738.375 371.28)"/>
    <rect width="11.89" height="108.18" x="638.52" y="317.19" fill="#40414D" fill-rule="nonzero" transform="rotate(-180 644.465 371.28)"/>
    <path fill="#7A3814" fill-rule="nonzero" d="M629.02,299.36 C629.02,306.58 653.5,312.44 683.7,312.44 C713.9,312.44 737.19,306.59 737.19,299.36 C737.19,292.13 713.89,286.25 683.7,286.25 C653.51,286.25 629.02,292.14 629.02,299.36 Z"/>
    <path fill="#40414D" fill-rule="nonzero" d="M647.01,299.36 L743.33,299.36 C749.12899,299.36 753.83,304.06101 753.83,309.86 L753.83,320.76 L629.01,320.76 L629.01,317.36 C629.01,307.418875 637.068875,299.36 647.01,299.36 Z" transform="rotate(-180 691.42 310.06)"/>
    <path fill="#40414D" fill-rule="nonzero" d="M761.721268,172.136174 L765.721268,172.136174 L765.721268,313.736174 C765.721268,317.602167 762.587261,320.736174 758.721268,320.736174 L756.081268,320.736174 C752.215274,320.736174 749.081268,317.602167 749.081268,313.736174 L749.081268,184.796174 C749.081268,177.812052 754.737155,172.147207 761.721268,172.136174 Z" transform="rotate(-167.28 757.401 246.436)"/>
    <path fill="#B8616E" fill-rule="nonzero" d="M661.89,373.6 C661.89,373.6 664.54,402.77 651.28,406.31 C638.02,409.85 650.4,423.99 661,421.31 C671.6,418.63 710.51,404.51 713.16,383.31 C715.81,362.11 686.64,355.02 686.64,355.02 L661.89,373.6 Z"/>
    <path fill="#000" fill-rule="nonzero" d="M661.89,373.6 C661.89,373.6 664.54,402.77 651.28,406.31 C638.02,409.85 650.4,423.99 661,421.31 C671.6,418.63 710.51,404.51 713.16,383.31 C715.81,362.11 686.64,355.02 686.64,355.02 L661.89,373.6 Z" opacity=".05"/>
    <path fill="#B8616E" fill-rule="nonzero" d="M667.22,374.48 C667.22,374.48 669.87,403.65 656.61,407.19 C643.35,410.73 655.73,424.87 666.33,422.19 C676.93,419.51 715.84,405.39 718.49,384.19 C721.14,362.99 691.97,355.9 691.97,355.9 L667.22,374.48 Z"/>
    <path fill="#000" fill-rule="nonzero" d="M694.62,356.8 L669.89,375.37 C669.89,375.37 670,376.63 670.07,378.64 C679.41,376.08 699.76,369.28 700.07,358.64 C698.291817,357.918087 696.471873,357.303647 694.62,356.8 Z" opacity=".1"/>
    <rect width="10.61" height="7.96" x="668.54" y="102.63" fill="#F8BDC5" fill-rule="nonzero"/>
    <path fill="#777B9B" fill-rule="nonzero" d="M668.99,231.25 C668.99,231.25 652.14,244.49 638.3,247.63 C630.071152,249.410761 622.093995,252.201927 614.55,255.94 L582.72,272.12 C576.846142,275.074895 572.875951,280.811708 572.18,287.35 C571.27,296.35 574.89,308.19 596.49,315.23 L664.56,371.81 L685.78,354.13 L613.29,298.45 L668.99,263.97 L668.99,231.25 Z"/>
    <path fill="#000" fill-rule="nonzero" d="M668.99,231.25 C668.99,231.25 652.14,244.49 638.3,247.63 C630.071152,249.410761 622.093995,252.201927 614.55,255.94 L582.72,272.12 C576.846142,275.074895 572.875951,280.811708 572.18,287.35 C571.27,296.35 574.89,308.19 596.49,315.23 L664.56,371.81 L685.78,354.13 L613.29,298.45 L668.99,263.97 L668.99,231.25 Z" opacity=".1"/>
    <path fill="#CF9595" fill-rule="nonzero" d="M659.26,172.03 C659.26,172.03 626.55,172.91 603.56,155.23 C580.57,137.55 554.94,142.85 560.24,153.46 C565.54,164.07 592.95,172.91 597.37,173.79 C601.79,174.67 665.44,192.36 665.44,192.36 L659.26,172.03 Z"/>
    <path fill="#000" fill-rule="nonzero" d="M659.26,172.03 C659.26,172.03 626.55,172.91 603.56,155.23 C580.57,137.55 554.94,142.85 560.24,153.46 C565.54,164.07 592.95,172.91 597.37,173.79 C601.79,174.67 665.44,192.36 665.44,192.36 L659.26,172.03 Z" opacity=".05"/>
    <path fill="#777B9B" fill-rule="nonzero" d="M662.8,223.31 L652.19,255.14 C652.19,255.14 592.52,291.83 587.65,296.69 C583.87,300.47 578.81,315.26 596.49,327.63 C614.17,340 662.79,378.91 662.79,378.91 C662.79,378.91 699.92,370.91 697.27,355.91 L636.27,311.71 C636.27,311.71 662.79,288.71 690.2,292.26 C717.61,295.81 722.03,290.49 722.03,290.49 C722.03,290.49 743.25,269.25 736.17,248.95 C729.09,228.65 662.8,223.31 662.8,223.31 Z"/>
    <path fill="#CF9595" fill-rule="nonzero" d="M649.54,79.25 C649.54,79.25 679.6,111.96 677.83,121.68 C676.06,131.4 701.7,93.39 701.7,93.39 C701.7,93.39 693.7,73.94 695.51,52.72 L649.54,79.25 Z"/>
    <path fill="#000" fill-rule="nonzero" d="M675.77,109.25 C677.820586,107.084892 679.980046,105.025561 682.24,103.08 C686.763442,99.3705025 690.9132,95.2274439 694.63,90.71 C700.82,82.71 723.8,117.23 723.8,117.23 C723.8,117.23 737.94,133.14 736.18,171.16 C734.42,209.18 738.39,260.01 738.39,260.01 L733.04,261.5 C723.903774,264.548795 713.865607,263.122708 705.94,257.65 C698.88,252.77 689.94,247.65 683.14,247.19 C669.88,246.31 657.94,238.79 657.94,238.79 C657.94,238.79 663.69,225.09 654.85,180.88 C646.01,136.67 668.54,105.25 668.54,105.25 C668.54,105.25 670.32,114.87 675.77,109.25 Z" opacity=".1"/>
    <path fill="#B9EFE9" fill-rule="nonzero" d="M741.48,256.02 L736.18,257.79 L733.03,258.84 C723.89392,261.890402 713.855019,260.464211 705.93,254.99 C698.88,250.12 689.93,244.99 683.13,244.53 C669.89,243.64 654.89,233.92 654.89,233.92 C654.89,233.92 663.73,222.43 654.89,178.22 C646.05,134.01 668.59,102.63 668.59,102.63 C668.59,102.63 670.37,112.2 675.82,106.57 C677.866272,104.407244 680.022455,102.351194 682.28,100.41 C686.803442,96.7005025 690.9532,92.5574439 694.67,88.04 C700.86,80.04 723.84,114.56 723.84,114.56 C723.84,114.56 737.98,130.47 736.22,168.49 C736.03,172.49 735.95,176.61 735.94,180.78 C735.81,216.36 741.48,256.02 741.48,256.02 Z"/>
    <path fill="#000" fill-rule="nonzero" d="M691.09,169.38 L691.97,188.83 C691.97,188.83 645.11,191.48 635.39,181.76 C625.67,172.04 661.89,210.35 669.89,212.7 C677.4,214.91 696.79,216.86 706.96,217.06 C712.895896,217.251064 718.385561,213.921974 720.96,208.57 C722.145437,205.992459 722.528686,203.11809 722.06,200.32 C720.29,188.83 722.06,164.07 722.06,164.07 L691.09,169.38 Z" opacity=".1"/>
    <path fill="#CF9595" fill-rule="nonzero" d="M691.09,167.61 L691.97,187.06 C691.97,187.06 645.11,189.71 635.39,179.99 C625.67,170.27 590.5,172.42 591.19,179.99 C591.63,184.85 615.06,200.32 629.19,201.21 C643.32,202.1 661.89,208.58 669.89,210.93 C677.4,213.14 696.79,215.09 706.96,215.29 C712.895896,215.481064 718.385561,212.151974 720.96,206.8 C722.145437,204.222459 722.528686,201.34809 722.06,198.55 C720.29,187.06 722.06,162.3 722.06,162.3 L691.09,167.61 Z"/>
    <path fill="#000" fill-rule="nonzero" d="M701.7,111.03 C701.7,111.03 681.37,113.68 684.02,143.74 C686.67,173.8 690.21,176.45 690.21,176.45 C690.21,176.45 720.27,173.8 723.8,172.91 C727.33,172.02 725.57,139.32 725.57,139.32 C725.57,139.32 724.68,110.15 701.7,111.03 Z" opacity=".1"/>
    <path fill="#B9EFE9" fill-rule="nonzero" d="M701.7,110.15 C701.7,110.15 681.37,112.8 684.02,142.86 C686.67,172.92 690.21,175.57 690.21,175.57 C690.21,175.57 720.27,172.92 723.8,172.03 C727.33,171.14 725.57,138.44 725.57,138.44 C725.57,138.44 724.68,109.25 701.7,110.15 Z"/>
    <path fill="#000" fill-rule="nonzero" d="M694.18,71.69 C692.79,64.69 695.64,62.53 696.39,53.57 L650.39,80.09 C650.39,80.09 655.66,85.83 661.65,93.2 C664.326966,93.8770541 667.078772,94.2130499 669.84,94.200366 C681.89,94.25 688.48,81.31 694.18,71.69 Z" opacity=".1"/>
    <circle cx="668.98" cy="60.64" r="32.71" fill="#CF9595" fill-rule="nonzero"/>
    <path fill="#000" fill-rule="nonzero" d="M677.23,50.71 C672.23,53.89 672.16,61.08 675.38,66.06 C678.6,71.04 684.15,74.33 689.49,77.43 C691.04,78.33 692.75,79.26 694.49,79.06 C695.827736,78.7992899 697.06698,78.172745 698.07,77.25 C701.806913,74.3342676 705.372816,71.2057552 708.75,67.88 C713.61,63.1 718.28,57.21 717.52,50.54 C716.66,42.97 709.18,37.27 706.16,30.1 C703.62,24.1 704.38,17.37 702.16,11.24 C699.94,5.11 692.16,-0.56 686.34,2.65 C684.19,3.83 682.89,5.94 681.09,7.53 C676.63,11.47 669.44,11.86 663.34,10.06 C657.24,8.26 655.43,0.91 646.92,0.89 C651.15,2.38 654.01,6.79 653.36,10.81 C649.95,12.74 645.47,11.64 641.36,11.57 C637.25,11.5 632.36,13.8 633.07,17.5 C633.69,20.5 638.02,22.73 637.38,25.73 C629.868024,29.6872978 621.679224,32.1975348 613.24,33.13 C611.71,33.3 622.43,42.21 623.65,42.8 C628.12,44.94 633.49,46.51 638.22,48.15 C651.07,52.58 664.23,54.16 677.23,50.71 Z" opacity=".1"/>
    <path fill="#916168" fill-rule="nonzero" d="M677.23,49.82 C672.23,53 672.16,60.19 675.38,65.17 C678.6,70.15 684.15,73.44 689.49,76.54 C691.04,77.44 692.75,78.37 694.49,78.17 C695.827736,77.9092899 697.06698,77.282745 698.07,76.36 C701.806913,73.4442676 705.372816,70.3157552 708.75,66.99 C713.61,62.21 718.28,56.32 717.52,49.65 C716.66,42.08 709.18,36.38 706.16,29.21 C703.62,23.21 704.38,16.48 702.16,10.35 C699.94,4.22 692.16,-1.45 686.34,1.76 C684.19,2.94 682.89,5.05 681.09,6.64 C676.63,10.58 669.44,10.97 663.34,9.17 C657.24,7.37 655.43,0.02 646.92,8.52651283e-14 C651.15,1.49 654.01,5.9 653.36,9.92 C649.95,11.85 645.47,10.75 641.36,10.68 C637.25,10.61 632.36,12.91 633.07,16.61 C633.69,19.61 638.02,21.84 637.38,24.84 C629.868024,28.7972978 621.679224,31.3075348 613.24,32.24 C611.71,32.41 622.43,41.32 623.65,41.91 C628.12,44.05 633.49,45.62 638.22,47.26 C651.07,51.7 664.23,53.25 677.23,49.82 Z"/>
    <path fill="#FFF" fill-rule="nonzero" d="M716.18,371.14 C717.599723,374.413923 718.09433,378.014521 717.61,381.55 C714.96,402.77 676.06,416.91 665.45,419.55 C659.86,420.95 653.77,417.68 651.22,413.75 C652.86,418.37 659.92,422.92 666.34,421.32 C676.95,418.67 715.85,404.52 718.5,383.32 C719.07909,379.115546 718.264161,374.837168 716.18,371.14 Z" opacity=".1"/>
    <path fill="#000" fill-rule="nonzero" d="M218.75,243.93 C218.75,243.93 206.75,284.93 242.75,291.93 L281.75,289.93 C281.75,289.93 336.75,278.93 351.75,286.93 C351.75,286.93 357.75,287.93 355.75,295.93 C353.75,303.93 358.75,357.93 358.75,357.93 L358.75,375.93 C358.75,375.93 392.75,375.93 396.75,371.93 C396.75,371.93 393.75,355.93 396.75,342.93 C399.75,329.93 391.75,288.93 391.75,288.93 L390.96,264.25 C390.840687,258.040665 387.375672,252.380375 381.9,249.45 C380.007438,248.446722 377.901935,247.911773 375.76,247.89 C375.76,247.89 307.76,236.89 283.76,238.89 C259.76,240.89 218.75,243.93 218.75,243.93 Z" opacity=".1"/>
    <path fill="#CF9595" fill-rule="nonzero" d="M321.75,161.93 C321.75,161.93 329.75,171.93 334.75,161.93 C339.75,151.93 350.75,118.93 350.75,118.93 C350.75,118.93 377.75,89.93 386.75,98.93 C395.75,107.93 364.75,123.93 364.75,123.93 C364.75,123.93 353.75,184.93 343.75,185.93 C333.75,186.93 318.75,185.93 318.75,185.93 L313.75,174.93 L321.75,161.93 Z"/>
    <path fill="#000" fill-rule="nonzero" d="M321.75,161.93 C321.75,161.93 329.75,171.93 334.75,161.93 C339.75,151.93 350.75,118.93 350.75,118.93 C350.75,118.93 377.75,89.93 386.75,98.93 C395.75,107.93 364.75,123.93 364.75,123.93 C364.75,123.93 353.75,184.93 343.75,185.93 C333.75,186.93 318.75,185.93 318.75,185.93 L313.75,174.93 L321.75,161.93 Z" opacity=".05"/>
    <path fill="#FFBCA3" fill-rule="nonzero" d="M285.75,111.93 C285.75,111.93 303.75,132.93 305.75,139.93 C307.75,146.93 329.75,164.93 329.75,164.93 C329.75,164.93 313.75,176.93 316.75,182.93 C319.75,188.93 295.75,162.93 295.75,162.93 L267.75,121.93 L285.75,111.93 Z"/>
    <path fill="#000" fill-rule="nonzero" d="M285.75,111.93 C285.75,111.93 303.75,132.93 305.75,139.93 C307.75,146.93 329.75,164.93 329.75,164.93 C329.75,164.93 313.75,176.93 316.75,182.93 C319.75,188.93 295.75,162.93 295.75,162.93 L267.75,121.93 L285.75,111.93 Z" opacity=".1"/>
    <path fill="#CF9595" fill-rule="nonzero" d="M297.75,87.93 C297.75,87.93 288.75,116.93 288.75,127.93 C288.75,138.93 250.75,124.93 251.75,118.93 C252.75,112.93 273.75,90.93 274.75,81.93 C275.75,72.93 297.75,87.93 297.75,87.93 Z"/>
    <path fill="#000" fill-rule="nonzero" d="M267.75,107.93 C267.75,107.93 232.75,98.93 227.75,149.93 C222.75,200.93 231.75,206.93 216.75,237.93 C201.75,268.93 318.75,241.93 318.75,241.93 C318.75,241.93 312.75,234.93 293.75,237.93 L284.75,210.93 C284.75,210.93 281.75,198.93 298.75,198.93 C315.75,198.93 307.75,163.93 307.75,163.93 C307.75,163.93 298.75,133.93 293.75,130.93 C288.75,127.93 279.75,109.93 267.75,107.93 Z" opacity=".1"/>
    <path fill="#FFBCA3" fill-rule="nonzero" d="M267.75,105.93 C267.75,105.93 232.75,96.93 227.75,147.93 C222.75,198.93 231.75,204.93 216.75,235.93 C201.75,266.93 318.75,239.93 318.75,239.93 C318.75,239.93 300.02962,231.25 288.75,223.38 L284.75,208.93 C284.75,208.93 281.75,196.93 298.75,196.93 C315.75,196.93 307.75,161.93 307.75,161.93 C307.75,161.93 298.75,131.93 293.75,128.93 C288.75,125.93 279.75,107.93 267.75,105.93 Z"/>
    <path fill="#CF9595" fill-rule="nonzero" d="M302.75,177.93 C302.75,177.93 375.75,185.93 387.75,183.93 C387.75,183.93 441.35,177.33 427.75,190.93 C426.75,191.93 391.75,199.93 387.75,198.93 C383.75,197.93 298.75,198.93 298.75,198.93 L297.75,188.93 L302.75,177.93 Z"/>
    <path fill="#CF9595" fill-rule="nonzero" d="M246.75,152.93 L299.75,200.93 C299.75,200.93 309.75,180.93 312.75,180.93 C315.75,180.93 276.75,121.93 276.75,121.93 C276.75,121.93 266.75,109.93 260.75,115.93 C254.75,121.93 236.75,117.93 246.75,152.93 Z" opacity=".1"/>
    <path fill="#FFBCA3" fill-rule="nonzero" d="M245.75,150.93 L298.75,198.93 C298.75,198.93 308.75,178.93 311.75,178.93 C314.75,178.93 275.75,119.93 275.75,119.93 C275.75,119.93 265.75,107.93 259.75,113.93 C253.75,119.93 235.75,115.93 245.75,150.93 Z"/>
    <circle cx="288.75" cy="72.93" r="33" fill="#CF9595" fill-rule="nonzero"/>
    <path fill="#000" fill-rule="nonzero" d="M317.65,64.64 C323.25,66.85 330.11,64.2 333.41,59.17 C336.71,54.14 336.61,47.29 333.83,41.95 C331.05,36.61 325.91,32.73 320.24,30.71 C316.8,29.49 312.97,28.79 310.33,26.27 C308.66,24.68 307.67,22.53 306.42,20.59 C301.75,13.31 293.42,9.01 284.95,7.32 C276.48,5.63 267.72,6.23 259.1,6.83 C255.88,7.06 252.1,7.64 250.64,10.52 C249.55,12.68 250.26,15.27 250.12,17.68 C249.67,25.35 241.12,29.6 233.65,31.44 C226.18,33.28 217.52,35.01 213.88,41.77 C210.62,47.84 212.95,55.2 213.96,62.02 C215.687153,73.9328746 213.105619,86.0710483 206.68,96.25 C203.41,101.38 199.2,105.94 196.61,111.45 C193.744947,117.607371 193.081268,124.561872 194.73,131.15 C195.22,133.08 195.91,135.04 195.57,137 C195.178092,138.610888 194.402759,140.103232 193.31,141.35 C184.44722,152.690187 171.196206,159.746251 156.84,160.77 C157.98,165.06 162.13,167.77 166.08,169.77 C172.820177,173.236718 179.923446,175.946558 187.26,177.85 C192.19,179.13 197.35,180.04 202.37,179.17 C207.39,178.3 212.28,175.35 214.37,170.69 C215.57,167.99 215.75,164.94 216.81,162.18 C219.2,155.99 225.57,152.25 228.99,146.56 C232.26,141.12 233.53,140.48 234.36,134.2 C235.19,127.92 237.02,121.14 242.18,117.45 C247.58,113.58 255.18,114.32 261.18,117.29 C267.18,120.26 270.89,119.1 275.9,123.46 C284.688836,131.094896 294.525248,137.432495 305.11,142.28 C304.11,133.56 302.5,123.83 295.42,118.64 C293.42,117.15 290.89,116.01 289.83,113.73 C288.14,110.1 291.03,105.67 289.72,101.88 C288.41,98.09 283.43,96.69 281.22,93.25 C279.34,90.33 279.85,86.36 281.61,83.36 C283.37,80.36 286.15,78.14 288.92,76.04 C291.38,74.18 293.873333,72.3633333 296.4,70.59 C298.683172,69.1411599 300.73319,67.3541382 302.48,65.29 C303.48,63.92 304.14,60.92 305.53,59.95 C309.03,57.53 314.41,63.37 317.65,64.64 Z" opacity=".1"/>
    <path fill="#3F3D56" fill-rule="nonzero" d="M316.65,63.64 C322.25,65.85 329.11,63.2 332.41,58.17 C335.71,53.14 335.61,46.29 332.83,40.95 C330.05,35.61 324.91,31.73 319.24,29.71 C315.8,28.49 311.97,27.79 309.33,25.27 C307.66,23.68 306.67,21.53 305.42,19.59 C300.75,12.31 292.42,8.01 283.95,6.32 C275.48,4.63 266.72,5.23 258.1,5.83 C254.88,6.06 251.1,6.64 249.64,9.52 C248.55,11.68 249.26,14.27 249.12,16.68 C248.67,24.35 240.12,28.6 232.65,30.44 C225.18,32.28 216.52,34.01 212.88,40.77 C209.62,46.84 211.95,54.2 212.96,61.02 C214.687153,72.9328746 212.105619,85.0710483 205.68,95.25 C202.41,100.38 198.2,104.94 195.61,110.45 C192.744947,116.607371 192.081268,123.561872 193.73,130.15 C194.22,132.08 194.91,134.04 194.57,136 C194.178092,137.610888 193.402759,139.103232 192.31,140.35 C183.44722,151.690187 170.196206,158.746251 155.84,159.77 C156.98,164.06 161.13,166.77 165.08,168.77 C171.820177,172.236718 178.923446,174.946558 186.26,176.85 C191.19,178.13 196.35,179.04 201.37,178.17 C206.39,177.3 211.28,174.35 213.37,169.69 C214.57,166.99 214.75,163.94 215.81,161.18 C218.2,154.99 224.57,151.25 227.99,145.56 C231.26,140.12 232.53,139.48 233.36,133.2 C234.19,126.92 236.02,120.14 241.18,116.45 C246.58,112.58 254.18,113.32 260.18,116.29 C266.18,119.26 269.89,118.1 274.9,122.46 C283.688836,130.094896 293.525248,136.432495 304.11,141.28 C303.11,132.56 301.5,122.83 294.42,117.64 C292.42,116.15 289.89,115.01 288.83,112.73 C287.14,109.1 290.03,104.67 288.72,100.88 C287.41,97.09 282.43,95.69 280.22,92.25 C278.34,89.33 278.85,85.36 280.61,82.36 C282.37,79.36 285.15,77.14 287.92,75.04 C290.38,73.18 292.873333,71.3633333 295.4,69.59 C297.683172,68.1411599 299.73319,66.3541382 301.48,64.29 C302.48,62.92 303.14,59.92 304.53,58.95 C308.03,56.53 313.41,62.37 316.65,63.64 Z"/>
    <path fill="#FFF" fill-rule="nonzero" d="M34.61 8.13C34.685151 5.46818605 35.067689 2.82397607 35.75.25L35.25.42C34.7509336 2.95824775 34.5362756 5.54420541 34.61 8.13zM39.75 45.25C31.75 45.72 6.75 34.25 1.75 28.25 1.09336713 27.4374708.689989288 26.4498906.59 25.41.293574963 27.1142399.713246293 28.8652823 1.75 30.25 6.75 36.25 31.75 47.72 39.75 47.25 48.25 46.75 76.75 48.25 77.75 35.25 77.8246388 34.8910048 77.7752825 34.5173075 77.61 34.19 75.32 46.17 48.04 44.76 39.75 45.25z" opacity=".1" transform="translate(353 360.68)"/>
    <rect width="1" height="41" x="432.25" y="107.43" fill="#FFD77C" fill-rule="nonzero" stroke="#FFAB50" stroke-width=".25"/>
    <rect width="1" height="41" x="433.25" y="107.43" fill="#FFD77C" fill-rule="nonzero" stroke="#FFAB50" stroke-width=".25"/>
    <rect width="1" height="41" x="434.25" y="107.43" fill="#FFD77C" fill-rule="nonzero" stroke="#FFAB50" stroke-width=".25"/>
    <rect width="1" height="41" x="435.25" y="107.43" fill="#FFD77C" fill-rule="nonzero" stroke="#FFAB50" stroke-width=".25"/>
    <rect width="1" height="41" x="436.25" y="107.43" fill="#FFD77C" fill-rule="nonzero" stroke="#FFAB50" stroke-width=".25"/>
    <path fill="#2F2E41" fill-rule="nonzero" d="M383.453719,370.016108 C383.453719,370.016108 372.514461,361.246576 365.950896,377.689452 C362.180693,387.358211 356.183405,395.997163 348.448072,402.90186 C348.448072,402.90186 344.072367,413.863769 362.669113,411.671392 C381.26586,409.479015 412.989737,389.747562 412.989737,389.747562 C412.989737,389.747562 405.18377,369.711418 401.429265,369.863757 C397.67476,370.016096 395.486938,377.689452 383.453719,370.016108 Z" transform="scale(-1 1) rotate(6 0 -6870.454)"/>
    <rect width="1" height="41" x="437.25" y="107.43" fill="#FFD77C" fill-rule="nonzero" stroke="#FFAB50" stroke-width=".25"/>
    <rect width="1" height="41" x="438.25" y="107.43" fill="#FFD77C" fill-rule="nonzero" stroke="#FFAB50" stroke-width=".25"/>
    <polygon fill="#CF9595" points="367.362 356.8 367.362 394.67 392.14 389.213 385.313 353.042"/>
    <path fill="#2F2E41" fill-rule="nonzero" d="M392.453719,381.016108 C392.453719,381.016108 381.514461,372.246576 374.950896,388.689452 C371.180693,398.358211 365.183405,406.997163 357.448072,413.90186 C357.448072,413.90186 353.072367,424.863769 371.669113,422.671392 C390.26586,420.479015 421.989737,400.747562 421.989737,400.747562 C421.989737,400.747562 414.18377,380.711418 410.429265,380.863757 C406.67476,381.016096 404.486938,388.689452 392.453719,381.016108 Z" transform="scale(-1 1) rotate(6 0 -7031.184)"/>
    <path fill="#C4C9D8" fill-rule="nonzero" d="M218.75,242.93 C218.75,242.93 206.75,283.93 242.75,290.93 L281.75,288.93 C281.75,288.93 312.75,285.93 327.75,293.93 C327.75,293.93 333.75,294.93 331.75,302.93 C329.75,310.93 350.75,356.93 350.75,356.93 L350.75,374.93 C350.75,374.93 392.75,374.93 396.75,370.93 C396.75,370.93 393.75,354.93 396.75,341.93 C399.75,328.93 391.75,287.93 391.75,287.93 L390.96,263.25 C390.840687,257.040665 387.375672,251.380375 381.9,248.45 C380.007438,247.446722 377.901935,246.911773 375.76,246.89 C375.76,246.89 307.76,235.89 283.76,237.89 C259.76,239.89 218.75,242.93 218.75,242.93 Z"/>
    <path fill="#000" fill-rule="nonzero" d="M218.75,242.93 C218.75,242.93 206.75,283.93 242.75,290.93 L281.75,288.93 C281.75,288.93 312.75,285.93 327.75,293.93 C327.75,293.93 333.75,294.93 331.75,302.93 C329.75,310.93 350.75,356.93 350.75,356.93 L350.75,374.93 C350.75,374.93 392.75,374.93 396.75,370.93 C396.75,370.93 393.75,354.93 396.75,341.93 C399.75,328.93 391.75,287.93 391.75,287.93 L390.96,263.25 C390.840687,257.040665 387.375672,251.380375 381.9,248.45 C380.007438,247.446722 377.901935,246.911773 375.76,246.89 C375.76,246.89 307.76,235.89 283.76,237.89 C259.76,239.89 218.75,242.93 218.75,242.93 Z" opacity=".1"/>
    <path fill="#C4C9D8" fill-rule="nonzero" d="M218.75,242.93 C218.75,242.93 206.75,283.93 242.75,290.93 L281.75,288.93 C281.75,288.93 336.75,277.93 351.75,285.93 C351.75,285.93 357.75,286.93 355.75,294.93 C353.75,302.93 358.75,356.93 358.75,356.93 L358.75,374.93 C358.75,374.93 392.75,374.93 396.75,370.93 C396.75,370.93 393.75,354.93 396.75,341.93 C399.75,328.93 391.75,287.93 391.75,287.93 L390.96,263.25 C390.840687,257.040665 387.375672,251.380375 381.9,248.45 C380.007438,247.446722 377.901935,246.911773 375.76,246.89 C375.76,246.89 307.76,235.89 283.76,237.89 C259.76,239.89 218.75,242.93 218.75,242.93 Z"/>
  </g>
</svg>
