<svg xmlns="http://www.w3.org/2000/svg" width="20" height="16" viewBox="0 0 20 16">
  <path fill="#FFF" fill-rule="evenodd" d="M19.9373078,1.50384446 C19.859191,1.51364724 19.7822529,1.54209522 19.7132688,1.59038404 L10,8.38967222 L0.286731172,1.59038404 C0.217747142,1.54209522 0.140809041,1.51364724 0.0626921961,1.50384446 C0.284824652,0.641789902 1.07110234,0 2,0 L18,0 C18.9288977,0 19.7151753,0.641789902 19.9373078,1.50384446 Z M20,2.61032778 L20,14 C20,15.1 19.1,16 18,16 L2,16 C0.9,16 0,15.1 0,14 L0,2.61032778 L9.71326883,9.40961596 C9.8854289,9.53012801 10.1145711,9.53012801 10.2867312,9.40961596 L20,2.61032778 Z"/>
</svg>
