<svg xmlns="http://www.w3.org/2000/svg" width="22" height="18" viewBox="0 0 22 18">
  <path fill="#FFF" d="M21.4999877,2.99212501 C21.500057,2.99679354 21.500061,3.00146064 21.5,3.00612486 L21.5,15 C21.5,16.3761424 20.3761424,17.5 19,17.5 L3,17.5 C1.62385763,17.5 0.5,16.3761424 0.5,15 L0.5,3.00612486 C0.499938965,3.00146064 0.49994297,2.99679354 0.50001227,2.99212501 C0.504289947,1.61957269 1.62648354,0.5 3,0.5 L19,0.5 C20.3735165,0.5 21.4957101,1.61957269 21.4999877,2.99212501 Z M20.4796043,2.75394919 C20.3610436,2.04569504 19.7401301,1.5 19,1.5 L3,1.5 C2.25986986,1.5 1.63895644,2.04569504 1.52039568,2.75394919 L11,9.38967222 L20.4796043,2.75394919 Z M20.5,3.96032778 L11.2867312,10.409616 C11.1145711,10.530128 10.8854289,10.530128 10.7132688,10.409616 L1.5,3.96032778 L1.5,15 C1.5,15.8238576 2.17614237,16.5 3,16.5 L19,16.5 C19.8238576,16.5 20.5,15.8238576 20.5,15 L20.5,3.96032778 Z"/>
</svg>
