<svg xmlns="http://www.w3.org/2000/svg" width="837" height="549" viewBox="0 0 837 549">
  <g fill="none">
    <path fill="#FFBCA3" d="M837 442.84655C837 465.990973 752.829532 507 649 507 545.170468 507 461 465.990973 461 442.84655 461 419.702127 545.170468 423.186621 649 423.186621 752.829532 423.186621 837 419.702121 837 442.84655zM434 548.859062C434 527.727467 247.084765 518.249295 217.001483 519.046284 186.918201 519.843272 0 526.621748 0 548.859062 0 549.176173 434 548.859062 434 548.859062z" opacity=".6"/>
    <path fill="#FFB8B8" d="M390.62962,241.13667 C390.62962,241.13667 396.91509,195.04318 407.39089,207.61413 C417.86669,220.18508 407.39089,239.04151 407.39089,239.04151 L399.01025,249.51731 L390.62962,243.23183 L390.62962,241.13667 Z"/>
    <path fill="#33CCAB" d="M365.48771,255.80278 C365.48771,255.80278 386.4393,232.75604 390.62962,236.94635 C394.81994,241.13666 407.39089,243.23183 405.29573,251.61246 C403.20057,259.99309 359.20223,287.23016 359.20223,287.23016 L365.48771,255.80278 Z"/>
    <path fill="#000" d="M365.48771,255.80278 C365.48771,255.80278 386.4393,232.75604 390.62962,236.94635 C394.81994,241.13666 407.39089,243.23183 405.29573,251.61246 C403.20057,259.99309 359.20223,287.23016 359.20223,287.23016 L365.48771,255.80278 Z" opacity=".1"/>
    <path fill="#FFB8B8" d="M246.06366 253.70762L246.06366 270.46889C246.06366 270.46889 243.9685 308.18175 256.53945 306.08659 269.1104 303.99143 262.82493 272.56405 262.82493 272.56405L260.72977 253.70762 246.06366 253.70762zM252.34914 375.22683C252.34914 375.22683 233.49271 404.55906 227.20723 406.65422 220.92175 408.74938 187.39923 427.6058 183.2089 446.46222L153.87667 484.17508 168.54278 503.03151C168.54278 503.03151 235.58787 431.79611 254.44429 425.51063 273.30071 419.22515 292.15715 387.79778 292.15715 387.79778L252.34914 375.22683zM401.10541 327.03818C401.10541 327.03818 440.91341 333.32366 434.62795 358.46556 428.34249 383.60746 367.58287 435.98646 367.58287 435.98646L365.48771 448.55746 342.441 452.74771 331.96521 442.27192 334.06037 435.98644C334.06037 435.98644 359.20227 412.93969 361.29743 404.55906 363.39259 396.17843 386.43934 362.65588 396.91513 360.56072L382.249 352.18009 401.10541 327.03818z"/>
    <path fill="#2F2E41" d="M160.14191 483.711351C160.14191 483.711351 168.52254 471.140351 155.95159 473.235561 143.38064 475.330771 135 477.425871 135 485.806511 135 494.187151 145.4758 552.851591 158.04675 548.661271 170.6177 544.470951 160.14191 525.614531 160.14191 525.614531 160.14191 525.614531 166.42738 508.853261 170.6177 506.758101 174.80802 504.662941 174.80802 494.187151 170.6177 494.187151 166.42738 494.187151 158.04676 487.901721 160.14191 483.711351zM338.25065 438.0816C338.25065 438.0816 338.25065 427.6058 329.87001 438.0816 321.48937 448.5574 317.29906 456.93803 325.67969 463.2235 334.06032 469.50897 363.39255 484.17509 363.39255 484.17509 363.39255 484.17509 394.81993 490.46057 390.62962 475.79446 390.62962 475.79446 369.67803 465.31866 369.67803 456.93803 369.67803 448.5574 369.67803 433.89128 363.39255 438.0816 357.10707 442.27192 338.25065 444.36707 338.25065 438.0816zM298.44263 280.94469C298.44263 280.94469 269.11041 285.13501 271.20556 327.03818 271.20556 327.03818 233.49271 364.75104 243.9685 377.32199 254.44429 389.89294 277.49104 412.93969 285.87168 406.65422 294.25232 400.36875 319.39422 352.18009 319.39422 352.18009 319.39422 352.18009 378.05866 373.13167 388.53446 362.65588 399.01026 352.18009 409.48605 327.03818 409.48605 327.03818L357.10705 299.80112 298.44263 280.94469z"/>
    <circle cx="380.154" cy="136.379" r="25.142" fill="#FFB8B8"/>
    <path fill="#FFB8B8" d="M361.29739,138.47389 C361.29739,138.47389 346.63128,161.52064 342.44096,163.6158 C338.25064,165.71096 371.77319,186.66254 371.77319,186.66254 C371.77319,186.66254 371.77319,159.42548 382.24898,153.14 L361.29739,138.47389 Z"/>
    <path fill="#33CCAB" d="M359.20223,161.52064 C359.20223,161.52064 325.67969,151.04484 319.39423,167.80611 C313.10877,184.56738 298.44264,215.99477 300.5378,236.94635 C302.63296,257.89793 306.82327,253.70762 300.5378,259.9931 C294.25233,266.27858 290.062,262.08826 292.15716,270.46889 C294.25232,278.84952 296.34748,278.84953 294.25232,283.03989 C292.15716,287.23025 319.39422,301.89628 342.441,303.99146 L365.48775,306.08662 C365.48775,306.08662 365.48775,268.37377 369.67807,259.99313 C373.86839,251.61249 382.24907,234.85122 382.24907,228.56575 L382.24907,211.93487 C382.24907,200.86558 379.360348,189.987914 373.86844,180.37708 L373.86844,180.37708 C373.86844,180.37708 361.29739,161.52064 359.20223,161.52064 Z"/>
    <path fill="#33CCAB" d="M334.06033,169.90127 C334.06033,169.90127 256.53945,176.18675 248.15882,197.13834 C239.77819,218.08993 235.58787,259.9931 243.9685,259.9931 C252.34913,259.9931 262.82493,264.18342 264.92009,259.9931 C267.01525,255.80278 275.39588,213.89961 277.49104,213.89961 C279.5862,213.89961 342.44096,207.61413 342.44096,207.61413 C342.44096,207.61413 369.678,174.09159 334.06033,169.90127 Z"/>
    <path fill="#2F2E41" d="M381.164,130.14572 C381.164,130.14572 387.83594,118.55111 396.17574,128.62208 C404.51554,138.69305 418.08269,120.18587 416,116.23683 C413.91731,112.28779 406.5623,116.41439 393.95788,112.294 C381.35346,108.17361 357.07326,99.77953 353.00688,127.16127 C348.9405,154.54301 358.62515,151.67244 358.62515,151.67244 C358.62515,151.67244 363.06429,127.40926 367.0764,134.37869 L371.08851,141.34813 L374.56871,142.20467 L381.164,130.14572 Z"/>
    <circle cx="618.309" cy="75.314" r="30.674" fill="#2F2E41"/>
    <path fill="#9F616A" d="M608.50364,98.0181 C608.50364,98.0181 610.09098,126.59018 606.91631,126.59018 C603.74164,126.59018 626.758,140.08255 626.758,140.08255 L641.044,132.14587 L641.044,122.62187 C641.044,122.62187 621.99594,120.24087 629.93263,99.60547 C637.86932,78.97007 608.50364,98.0181 608.50364,98.0181 Z"/>
    <polygon fill="#9F616A" points="541.835 411.517 539.454 435.327 547.391 437.708 553.74 431.359 556.121 411.517"/>
    <polygon fill="#9F616A" points="656.124 425.01 660.092 440.089 671.203 447.232 683.109 440.883 669.616 418.66"/>
    <circle cx="616.043" cy="87.304" r="23.016" fill="#9F616A"/>
    <path fill="#9F616A" d="M602.15429,173.41665 L596.59861,171.03565 C596.59861,171.03565 587.07461,165.47997 586.28092,154.36865 C585.48723,143.25733 594.2176,128.97125 594.2176,128.97125 L606.91631,125.00291 L621.83631,137.14629 L621.99604,156.74966 L602.15429,173.41665 Z"/>
    <path fill="#9F616A" d="M596.59861 130.55853L593.42394 128.97119C593.42394 128.97119 577.55056 128.17752 575.96322 147.22557 574.37588 166.27362 568.82022 198.02038 568.82022 198.02038 568.82022 198.02038 556.12152 220.24311 556.91522 244.05318L550.56587 264.68857C550.56587 264.68857 541.83551 294.84798 552.1532 294.84798 562.47089 294.84798 561.6772 262.30756 561.6772 262.30756 561.6772 262.30756 580.7252 216.27477 582.31259 208.33808 583.89998 200.40139 597.3923 163.09895 593.42396 152.78126 589.45562 142.46357 596.59861 130.55853 596.59861 130.55853zM608.50364 180.55967L608.50364 189.29002C608.50364 189.29002 614.05933 195.63938 611.67832 199.60772 609.29731 203.57606 606.91632 211.51272 606.91632 211.51272L618.02767 228.97346 655.33011 232.14813 662.74811 182.44866 608.50364 180.55967zM643.42507 125.00285L649.77442 121.82817C649.77442 121.82817 663.2668 112.30417 674.37816 110.71681L708.50592 87.70041 730.72865 34.52459C730.72865 34.52459 729.93498 5.95252 736.28433 9.12719 742.63368 12.30186 741.84 36.9056 741.84 36.9056 741.84 36.9056 729.935 86.11307 719.61728 99.60544 709.29956 113.09781 671.99714 135.32054 671.99714 135.32054 671.99714 135.32054 661.67945 147.22554 662.47314 152.78126 663.26683 158.33698 643.42507 125.00285 643.42507 125.00285z"/>
    <path fill="#2F2E41" d="M614.05933 211.51275C614.05933 211.51275 605.32897 205.95707 599.77333 215.4811 594.21769 225.00513 583.89995 227.3861 577.5506 255.95821 571.20125 284.53032 556.1215 329.76946 552.15315 332.94409 548.1848 336.11872 531.51776 369.45286 541.04179 416.27932L556.91517 416.27932 570.40754 348.81746C570.40754 348.81746 614.05933 294.84797 617.234 272.62525L631.52 355.96046C631.52 355.96046 632.31367 387.70721 644.2187 402.78692L656.9174 432.94634 673.5844 425.00965 654.5364 348.81744C654.5364 348.81744 664.0604 271.83156 657.71107 250.4025L656.79868 222.30859C656.79868 222.30859 630.72637 223.41779 614.05933 211.51275zM547.39114 431.35903L537.86714 431.35903C536.27981 431.35903 523.58114 441.67672 529.13679 447.23241 534.69244 452.7881 543.42279 463.10578 543.42279 463.10578 543.42279 463.10578 574.37587 467.04247 575.16954 461.48678 575.96321 455.93109 561.67717 444.05772 561.67717 444.05772L557.70883 431.35902C557.70883 431.35902 549.77215 422.62867 547.39114 431.35903zM673.58449 439.29572C673.58449 439.29572 660.09212 438.50205 657.71111 437.70838 655.3301 436.91471 650.56811 458.34377 657.71111 459.93111 664.85411 461.51845 694.21988 463.89946 694.21988 463.89946 694.21988 463.89946 717.23628 463.10579 715.64894 456.75646 714.0616 450.40713 683.10852 437.70846 683.10852 437.70846 683.10852 437.70846 679.14017 429.77169 673.58449 439.29572z"/>
    <path fill="#F5DD48" d="M610.88465,124.20918 L606.91631,121.82818 L602.15431,125.79652 C602.15431,125.79652 616.44031,135.32052 613.26568,144.05091 C610.09105,152.7813 596.59863,171.03565 596.59863,171.03565 C596.59863,171.03565 608.50363,184.52802 608.50363,189.29003 C608.50363,189.29003 597.802297,211.907237 591.59863,219.439106 C602.667656,227.938995 649.392026,220.347532 662.47312,226.66254 C662.47312,226.66254 662.47312,173.41666 665.64779,170.24203 C668.82246,167.0674 670.40979,155.95603 662.47312,146.43197 C656.881565,139.42393 651.839983,131.994231 647.39341,124.20924 L639.45672,119.44724 L635.36882,120.7439 C635.36882,120.7439 643.42506,129.7649 635.48838,130.55861 C627.5517,131.35232 614.853,128.97119 610.88465,124.20918 Z"/>
    <path fill="#2F2E41" d="M632.72756,27.0164 C630.030674,30.0262564 626.337448,31.9608036 622.32756,32.46402 C615.39422,33.4545 620.84185,44.34975 620.84185,44.34975 C620.84185,44.34975 618.86085,40.38784 622.82285,36.92117 C626.78485,33.4545 632.72756,31.47354 632.72756,27.0164 Z"/>
    <circle cx="627.36" cy="42.628" r="8.549" fill="#2F2E41"/>
    <path fill="#F5DD48" d="M637.34038,51.04546 C630.73619,47.59594 619.37498,44.88282 613.33865,45.07676 L614.86565,39.23888 C620.20957,42.86951 631.51105,45.63329 638.86738,45.20758 L637.34038,51.04546 Z"/>
    <path fill="#2F2E41" d="M623.69635,51.55928 C623.69635,51.55928 613.28947,64.93954 592.47572,67.91294 C571.66197,70.88634 588.01563,103.59365 588.01563,103.59365 C588.01563,103.59365 582.06885,91.70008 593.96242,81.29321 C605.85599,70.88634 623.69635,64.93954 623.69635,51.55928 Z"/>
    <path fill="#2F2E41" d="M624.49,50.76561 C624.49,50.76561 630.43678,71.57936 639.357,74.55275 C648.27722,77.52614 643.81709,108.74675 628.95013,111.72016 C628.95013,111.72016 641.58705,94.62316 634.15357,81.24289 C626.72009,67.86262 622.26,57.45574 624.49,50.76561 Z"/>
    <rect width="54.763" height="6.349" x="709.696" y="15.873" fill="#2F2E41"/>
    <ellipse cx="764.46" cy="19.048" fill="#2F2E41" rx="4.762" ry="19.048"/>
    <ellipse cx="709.696" cy="19.048" fill="#2F2E41" rx="4.762" ry="19.048"/>
    <rect width="54.763" height="6.349" x="737.475" y="442.882" fill="#2F2E41"/>
    <ellipse cx="792.238" cy="446.057" fill="#2F2E41" rx="4.762" ry="19.048"/>
    <ellipse cx="737.475" cy="446.057" fill="#2F2E41" rx="4.762" ry="19.048"/>
  </g>
</svg>
