<svg xmlns="http://www.w3.org/2000/svg" viewBox="0 0 20 20"><path d="M3 3h6a1 1 0 0 1 .117 1.993L9 5H3a1 1 0 0 0-.993.883L2 6v11a1 1 0 0 0 .883.993L3 18h11a1 1 0 0 0 .993-.883L15 17v-6a1 1 0 0 1 1.993-.117L17 11v6a3 3 0 0 1-2.824 2.995L14 20H3a3 3 0 0 1-2.995-2.824L0 17V6a3 3 0 0 1 2.824-2.995L3 3h6zm10-3h6.02c.023 0 .046.002.07.004L19 0a1.008 1.008 0 0 1 .595.196c.04.03.077.061.112.097l-.09-.08a1.006 1.006 0 0 1 .376.67l.003.03.003.055L20 1v6a1 1 0 0 1-1.993.117L18 7V3.414l-9.293 9.293a1 1 0 0 1-1.32.083l-.094-.083a1 1 0 0 1 0-1.414L16.584 2H13a1 1 0 0 1-.117-1.993L13 0h6z"/></svg>
