<svg xmlns="http://www.w3.org/2000/svg" width="1194" height="847" viewBox="0 0 1194 847">
  <g fill="none" transform="translate(.142)">
    <ellipse cx="577.5" cy="711.5" fill="#FFDDD1" rx="538.5" ry="36.5"/>
    <g transform="translate(937 276)">
      <path fill="#29A389" d="M256,218.976231 C256,315.34991 198.692451,349 128,349 C57.3075639,349 0,315.34991 0,218.976231 C0,122.602552 128,0 128,0 C128,0 256,122.602552 256,218.976231 Z"/>
      <polygon fill="#3F3D56" points="123.296 333.571 124.602 253.081 179 153.503 124.807 240.454 125.396 204.262 162.886 132.219 125.55 194.686 125.55 194.686 126.608 129.593 166.753 72.236 126.773 119.358 127.434 0 123.284 158.007 123.625 151.489 82.808 88.974 122.971 164.002 119.167 236.7 119.053 234.769 72 168.982 118.912 241.586 118.435 250.678 118.35 250.814 118.39 251.56 108.741 436 121.633 436 123.179 340.733 169.977 268.308"/>
    </g>
    <g transform="translate(0 277)">
      <path fill="#29A389" d="M256,218.97624 C256,315.349923 198.692451,349 128,349 C57.3075344,349 0,315.349923 0,218.97624 C0,122.602557 128,0 128,0 C128,0 256,122.602484 256,218.97624 Z"/>
      <polygon fill="#3F3D56" points="123.295 333.573 124.602 253.082 179 153.503 124.808 240.455 125.395 204.263 162.885 132.219 125.551 194.685 125.551 194.687 126.607 129.594 166.753 72.237 126.774 119.358 127.434 0 123.283 158.007 123.625 151.489 82.808 88.974 122.97 164.001 119.168 236.699 119.054 234.77 72 168.982 118.912 241.587 118.436 250.677 118.351 250.814 118.389 251.561 108.741 436 121.632 436 123.179 340.734 169.976 268.309"/>
    </g>
    <polygon fill="#575A89" points="861.749 31 861.749 88.283 787 88.283 787 713 943 713 943 112.062 943 88.283 943 31"/>
    <polygon fill="#575A89" points="450.49 415.438 450.49 317 355.588 317 355.588 415.438 320 415.438 320 714 485 714 485 415.438"/>
    <rect width="129" height="139" x="338" y="576" fill="#3F3D56"/>
    <rect width="21" height="139" x="338" y="576" fill="#000" opacity=".1"/>
    <polygon fill="#3F3D56" points="731.796 0 731.796 33.482 541.286 33.482 541.286 0 485 0 485 715 787 715 787 0"/>
    <rect width="42" height="33" x="732" fill="#000" opacity=".1"/>
    <rect width="42" height="715" x="486" fill="#000" opacity=".1"/>
    <polygon fill="#3F3D56" points="270.135 204.008 270.135 177 241.95 177 241.95 204.008 191 204.008 191 715 320 715 320 204.008"/>
    <rect width="15" height="27" x="242" y="177" fill="#000" opacity=".1"/>
    <rect width="15" height="511" x="192" y="204" fill="#000" opacity=".1"/>
    <rect width="42" height="440" x="732" y="275" fill="#000" opacity=".1"/>
    <rect width="39" height="94" x="281" y="204" fill="#000" opacity=".1"/>
    <rect width="61" height="26" x="532" y="90" fill="#F5DD48"/>
    <rect width="61" height="26" x="660" y="357" fill="#FF6584"/>
    <rect width="61" height="26" x="532" y="544" fill="#F5DD48"/>
    <rect width="61" height="26" x="226" y="321" fill="#F5DD48"/>
    <rect width="61" height="26" x="373" y="591" fill="#F5DD48"/>
    <rect width="104" height="43" x="351" y="439" fill="#000" opacity=".1"/>
    <rect width="104" height="43" x="805" y="138" fill="#000" opacity=".1"/>
    <rect width="104" height="43" x="805" y="230" fill="#000" opacity=".1"/>
    <rect width="104" height="43" x="805" y="322" fill="#000" opacity=".1"/>
    <rect width="104" height="43" x="805" y="414" fill="#000" opacity=".1"/>
    <rect width="104" height="43" x="805" y="506" fill="#000" opacity=".1"/>
    <rect width="104" height="43" x="805" y="597" fill="#000" opacity=".1"/>
    <polygon fill="#3F3D56" points="977.983 333.729 977.983 216 902.101 216 902.101 333.729 875 333.729 875 715 1004 715 1004 333.729"/>
    <rect width="24" height="118" x="903" y="216" fill="#000" opacity=".1"/>
    <rect width="24" height="381" x="876" y="334" fill="#000" opacity=".1"/>
    <rect width="64" height="38" x="940" y="525" fill="#000" opacity=".1"/>
    <rect width="61" height="26" x="942" y="469" fill="#F5DD48"/>
    <path fill="#FBBEBE" d="M436.592263,385.637309 C436.592263,385.637309 450.592263,419.637309 429.592263,427.637309 C429.592263,427.637309 459.592263,440.637309 466.592263,437.637309 C473.592263,434.637309 478.592263,427.637309 478.592263,425.637309 C478.592263,423.637309 471.592263,422.637309 471.592263,422.637309 C471.592263,422.637309 458.592263,423.637309 468.592263,390.637309 L436.592263,385.637309 Z"/>
    <circle cx="452.592" cy="378.637" r="25" fill="#FBBEBE"/>
    <ellipse cx="436.092" cy="373.137" fill="#FF6584" rx="22" ry="31"/>
    <ellipse cx="420.092" cy="363.137" fill="#FF6584" rx="22" ry="31"/>
    <ellipse cx="398.092" cy="340.637" fill="#FF6584" rx="11" ry="15.5"/>
    <path fill="#FBBEBE" d="M477.592263 421.637309C477.592263 421.637309 483.592263 409.637309 505.592263 403.637309 527.592263 397.637309 570.592263 325.637309 570.592263 325.637309 570.592263 325.637309 568.592263 282.637309 578.592263 295.637309 588.592263 308.637309 580.592263 334.637309 580.592263 334.637309L554.788083 379.208159C549.973596 387.527042 543.950437 395.084856 536.915683 401.634309 520.961923 416.483729 492.456683 442.637309 489.592263 442.637309 485.592263 442.637309 477.592263 421.637309 477.592263 421.637309zM442.592263 592.637309C442.592263 592.637309 449.592263 677.637309 447.592263 685.637309 445.592263 693.637309 439.592263 709.637309 449.592263 756.637309 459.592263 803.637309 447.592263 800.637309 447.592263 800.637309L479.592263 814.637309C479.592263 814.637309 468.592263 760.637309 470.592263 745.637309 472.592263 730.637309 471.592263 699.637309 477.592263 678.637309 483.592263 657.637309 484.592263 598.637309 484.592263 598.637309L442.592263 592.637309z"/>
    <path fill="#000" d="M442.592263,592.637309 C442.592263,592.637309 449.592263,677.637309 447.592263,685.637309 C445.592263,693.637309 439.592263,709.637309 449.592263,756.637309 C459.592263,803.637309 447.592263,800.637309 447.592263,800.637309 L479.592263,814.637309 C479.592263,814.637309 468.592263,760.637309 470.592263,745.637309 C472.592263,730.637309 471.592263,699.637309 477.592263,678.637309 C483.592263,657.637309 484.592263,598.637309 484.592263,598.637309 L442.592263,592.637309 Z" opacity=".1"/>
    <path fill="#3F3D56" d="M478.347273,803.818349 C475.867933,805.540539 469.499093,807.288349 457.592273,794.637349 C457.592273,794.637349 450.592273,784.637349 444.592273,794.637349 C438.592273,804.637349 442.592273,805.637349 446.592273,810.637349 C450.453603,815.463999 481.339003,848.246599 494.270573,846.915619 C494.72,846.87154 495.163225,846.778223 495.592273,846.637349 C507.592273,842.637349 490.592273,829.637349 490.592273,829.637349 C490.592273,829.637349 479.446913,812.490639 479.383363,804.393529 C479.390337,804.144402 479.257961,803.912134 479.040062,803.791168 C478.822162,803.670202 478.555025,803.680683 478.347273,803.818349 Z"/>
    <path fill="#FBBEBE" d="M418.592263,582.637309 C418.592263,582.637309 401.592263,621.637309 394.592263,641.637309 C390.917263,652.137309 379.800393,655.471059 370.068533,656.269059 C358.035456,657.205704 346.346264,660.728318 335.799283,666.596319 C321.803023,674.452459 302.704593,683.367639 290.592283,681.637319 C269.592283,678.637319 286.592283,711.637319 286.592283,711.637319 C286.592283,711.637319 317.592283,692.637319 346.592283,690.637319 C375.592283,688.637319 406.592283,685.637319 420.592283,667.637319 C434.592283,649.637319 468.592283,592.637319 468.592283,592.637319 L418.592263,582.637309 Z"/>
    <path fill="#3F3D56" d="M287.592263,706.637309 C287.592263,706.637309 277.592263,699.637309 285.592263,692.637309 C293.592263,685.637309 296.592263,679.637309 296.592263,679.637309 C296.592263,679.637309 282.592263,664.637309 277.592263,672.637309 C272.592263,680.637309 250.592263,716.637309 255.592263,727.637309 C260.592263,738.637309 265.592263,741.637309 271.592263,729.637309 C277.592263,717.637309 292.724423,708.189899 292.724423,708.189899 L287.592263,706.637309 Z"/>
    <path fill="#33CCAB" d="M473.592263,426.637309 C473.592263,426.637309 470.267983,433.285879 439.375263,426.884619 C431.003015,425.03917 422.433275,429.036588 418.467263,436.637309 C414.592263,444.387309 414.092263,455.637309 427.592263,469.637309 C427.592263,469.637309 451.592263,496.637309 439.592263,507.637309 C427.592263,518.637309 496.592263,500.637309 496.592263,500.637309 C496.592263,500.637309 487.592263,494.637309 495.592263,476.637309 C501.877983,462.494449 501.372873,454.525059 496.502263,448.363619 C493.562347,444.530659 491.562543,440.061509 490.663553,435.315299 C489.298063,428.621169 485.924913,420.232489 477.592273,419.637299 C477.592273,419.637299 468.833053,419.124299 468.212663,421.380779 C467.592273,423.637259 475.592263,425.637309 473.592263,426.637309 Z"/>
    <path fill="#FBBEBE" d="M437.030493,447.850679 C436.823963,446.440579 436.571203,445.039489 436.394173,443.625379 C435.789793,438.797469 433.494533,427.099549 425.553563,429.112379 C415.592263,431.637319 404.592263,456.637319 404.592263,456.637319 C404.592263,456.637319 395.592263,484.637319 382.592263,491.637319 C369.592263,498.637319 333.592263,534.637319 333.592263,534.637319 C333.592263,534.637319 303.592263,542.637319 314.592263,550.637319 C325.592263,558.637319 339.592263,545.637319 339.592263,545.637319 L374.960763,524.416249 C387.331575,516.975016 397.96807,506.974358 406.156763,495.085109 C413.525003,484.413689 422.751843,472.080529 428.598763,468.005419 C432.140077,465.637693 434.797489,462.163755 436.155923,458.126219 C437.223743,454.811848 437.522827,451.297838 437.030493,447.850679 L437.030493,447.850679 Z"/>
    <path fill="#33CCAB" d="M445.592263,505.637309 C445.592263,505.637309 399.592263,499.637309 373.592263,530.637309 C347.592263,561.637309 328.592263,552.637309 330.592263,557.637309 C332.592263,562.637309 428.592263,621.637309 484.592263,614.637309 C518.684963,610.375719 536.840343,606.484769 545.827673,604.092659 C549.685127,603.100872 553.087057,600.818962 555.468123,597.626139 C556.801769,595.858923 558.455053,594.357532 560.342223,593.199839 C562.300407,591.913428 563.65344,589.888135 564.092213,587.586653 C564.530986,585.285172 564.018012,582.904128 562.670483,580.987489 C546.810673,558.041629 503.753803,497.258839 491.592263,495.637309 C476.592263,493.637309 445.592263,505.637309 445.592263,505.637309 Z"/>
    <ellipse cx="453.092" cy="351.637" fill="#FF6584" rx="16" ry="11.5"/>
    <path fill="#A0616A" d="M772.409093 249.165779C773.428791 243.889001 774.822364 238.691397 776.579273 233.612279 778.386633 228.669739 780.672523 224.453189 783.220853 224.453189 789.399003 224.453189 761.597333 198.196049 761.597333 198.196049 761.597333 198.196049 759.852183 201.439539 756.963723 205.810609 754.829487 209.074106 752.519585 212.219284 750.044223 215.232249 746.748957 219.396456 742.831254 223.027615 738.429223 225.997719 726.072973 233.720409 772.409093 249.165779 772.409093 249.165779zM854.205953 351.549949C854.205953 351.549949 916.143073 390.682829 897.058953 397.113049 877.974833 403.543269 846.358713 357.569109 846.358713 357.569109L854.205953 351.549949z"/>
    <path fill="#33CCAB" d="M771.129463,262.662849 C771.129463,262.662849 800.793593,284.293849 809.462923,300.748469 C818.132253,317.203089 863.203723,353.768409 863.203723,353.768409 C863.203723,353.768409 853.898173,372.154349 849.399293,371.045109 C844.900413,369.935869 752.148663,300.934359 742.390663,295.346899 C732.632663,289.759439 747.505153,255.247329 771.129463,262.662849 Z"/>
    <path fill="#000" d="M771.129463,262.662849 C771.129463,262.662849 800.793593,284.293849 809.462923,300.748469 C818.132253,317.203089 863.203723,353.768409 863.203723,353.768409 C863.203723,353.768409 853.898173,372.154349 849.399293,371.045109 C844.900413,369.935869 752.148663,300.934359 742.390663,295.346899 C732.632663,289.759439 747.505153,255.247329 771.129463,262.662849 Z" opacity=".1"/>
    <path fill="#A0616A" d="M858.903183,301.680049 C858.903183,301.680049 928.407363,324.848109 911.417453,335.659869 C894.427543,346.471629 852.725033,309.402739 852.725033,309.402739 L858.903183,301.680049 Z"/>
    <path fill="#333" d="M814.111603,618.310189 C814.111603,618.310189 843.457813,605.953899 840.368733,624.488339 C837.279653,643.022779 823.378823,660.012699 823.378823,669.279919 C823.378823,678.547139 797.121693,698.626129 792.488073,693.992519 C787.854453,689.358909 800.210763,670.824459 797.121693,660.012699 C794.032623,649.200939 790.943543,624.488339 790.943543,624.488339 L814.111603,618.310189 Z"/>
    <path fill="#000" d="M814.111603,618.310189 C814.111603,618.310189 843.457813,605.953899 840.368733,624.488339 C837.279653,643.022779 823.378823,660.012699 823.378823,669.279919 C823.378823,678.547139 797.121693,698.626129 792.488073,693.992519 C787.854453,689.358909 800.210763,670.824459 797.121693,660.012699 C794.032623,649.200939 790.943543,624.488339 790.943543,624.488339 L814.111603,618.310189 Z" opacity=".1"/>
    <path fill="#333" d="M804.844373,632.211029 C804.844373,632.211029 834.190583,619.854729 831.101513,638.389179 C828.012443,656.923629 814.111603,673.913539 814.111603,683.180759 C814.111603,692.447979 787.854463,712.526969 783.220853,707.893359 C778.587243,703.259749 790.943543,684.725299 787.854463,673.913539 C784.765383,663.101779 781.676313,638.389179 781.676313,638.389179 L804.844373,632.211029 Z"/>
    <path fill="#535461" d="M736.884733,519.459809 C736.884733,519.459809 828.012433,605.953899 824.923363,613.676579 C821.834293,621.399259 801.755303,638.389179 801.755303,638.389179 C801.755303,638.389179 732.251123,547.261479 736.884733,519.459809 Z"/>
    <path fill="#000" d="M736.884733,519.459809 C736.884733,519.459809 828.012433,605.953899 824.923363,613.676579 C821.834293,621.399259 801.755303,638.389179 801.755303,638.389179 C801.755303,638.389179 732.251123,547.261479 736.884733,519.459809 Z" opacity=".1"/>
    <path fill="#535461" d="M715.261213,363.461539 C715.261213,363.461539 738.429273,386.629599 732.251123,431.421179 C726.072973,476.212759 736.884733,519.459809 749.241033,533.360639 C761.597333,547.261469 812.567033,627.577419 812.567033,627.577419 C812.567033,627.577419 790.943513,663.101769 773.953603,644.567329 C756.963693,626.032889 705.993963,550.350549 705.993963,550.350549 C705.993963,550.350549 659.657873,459.222849 655.024263,434.510249 C650.390653,409.797649 648.846113,371.184249 661.202413,363.461529 C673.558713,355.738809 715.261213,363.461539 715.261213,363.461539 Z"/>
    <path fill="#000" d="M753.565743,210.691359 C771.605933,214.429139 769.814273,215.155069 780.904053,219.047359 C780.965833,218.862009 781.027613,218.707559 781.089393,218.553099 C782.788393,214.506419 783.854113,219.819629 786.309933,219.819629 C792.488073,219.819629 764.686403,193.562489 764.686403,193.562489 C764.686403,193.562489 763.636123,195.508609 761.829013,198.427779 C761.288423,199.277279 760.701503,200.203999 760.052793,201.177059 C759.512203,201.995659 758.925283,202.860609 758.307463,203.756439 L753.565743,210.691359 Z" opacity=".1"/>
    <circle cx="786.31" cy="202.83" r="29.346" fill="#A0616A"/>
    <path fill="#33CCAB" d="M732.251123,224.453189 C732.251123,224.453189 777.042703,229.086799 786.309933,249.165779 C795.577163,269.244759 729.162053,366.550619 724.528433,368.095149 C719.894813,369.639679 655.024263,377.362379 655.024263,377.362379 C655.024263,377.362379 658.113333,278.511989 718.350263,241.443099 C718.350293,241.443099 732.251123,235.264949 732.251123,224.453189 Z"/>
    <path fill="#33CCAB" d="M756.963723,235.264949 C756.963723,235.264949 790.943543,249.165779 803.299843,263.066619 C815.656143,276.967459 868.170403,301.680049 868.170403,301.680049 C868.170403,301.680049 863.536793,321.759049 858.903183,321.759049 C854.269573,321.759049 747.696493,276.967449 736.884733,273.878379 C726.072973,270.789309 732.251123,233.720409 756.963723,235.264949 Z"/>
    <path fill="#3F3D56" d="M783.993123,206.691009 C783.993123,206.691009 791.715813,198.968319 776.270433,192.790169 C776.270433,192.790169 791.715813,186.612019 794.804883,177.344799 C797.893953,168.077579 808.705723,152.632199 817.972943,177.344799 C827.240163,202.057399 844.230073,234.492679 788.626733,234.492679 C788.626733,234.492679 774.725903,237.581749 774.725903,225.225459 C774.725903,217.933143 778.159271,211.0664 783.993123,206.691009 L783.993123,206.691009 Z"/>
  </g>
</svg>
