<svg xmlns="http://www.w3.org/2000/svg" width="270" height="172" viewBox="0 0 270 172">
  <defs>
    <linearGradient id="foodtruck-a" x1="49.993%" x2="49.993%" y1="99.967%" y2=".015%">
      <stop offset="0%" stop-color="gray" stop-opacity=".25"/>
      <stop offset="54%" stop-color="gray" stop-opacity=".12"/>
      <stop offset="100%" stop-color="gray" stop-opacity=".1"/>
    </linearGradient>
  </defs>
  <g fill="none">
    <path fill="#F5DD48" d="M125.005084,17.6029672 C115.83932,16.5059335 107.266245,13.1362975 98.6144724,10.2869549 C88.9915433,7.13362538 79.1750571,4.60217951 69.2259899,2.70834162 C58.626462,0.686069166 47.6998488,-0.631843828 37.0732686,0.310574403 C26.4466884,1.25299263 16.0783334,4.64226236 9.30053781,10.8391531 C-2.18187431,21.3505522 -1.21291514,37.2833105 2.57930579,51.3263238 C7.07980143,67.9879836 14.8609863,84.4582147 27.5976349,98.6484809 C36.6502712,108.735301 48.0097189,117.467395 59.2683359,126.135679 C65.6329713,131.026928 72.0566296,135.952536 79.4910549,139.798289 C86.4065706,143.371625 94.0426575,145.933825 101.62464,148.459211 C109.720614,151.158847 117.836262,153.873208 126.195379,155.937202 C152.876186,162.524312 180.963706,162.318158 208.426566,161.731601 C218.091565,161.527901 228.194317,161.191674 236.302587,157.424455 C242.620496,154.479398 247.123451,149.708406 250.534482,144.62082 C254.998089,137.955175 257.816432,130.001067 254.646411,122.567252 C249.973765,111.601823 233.958886,105.142331 228.627152,94.3437893 C221.795252,80.4872962 235.065566,65.8405462 231.310234,51.4171297 C229.748587,45.4165761 225.344003,39.9927629 220.676276,34.9346275 C209.543083,22.8746192 194.745551,11.8895567 174.857295,13.4946128 C158.018556,14.849339 142.660307,19.7184998 125.005084,17.6029672 Z" opacity=".3"/>
    <ellipse cx="135" cy="144.5" fill="#FFCFBD" rx="135" ry="27.5" transform="matrix(-1 0 0 1 270 0)"/>
    <polygon fill="#F5F5F5" points="225 138 211.358 137.002 32 137.002 32 111 225 111" transform="matrix(-1 0 0 1 257 0)"/>
    <path fill="#EDEDF4" d="M239,43 L227,43 L227,35.934688 C227,33.2093351 229.209335,31 231.934688,31 L234.065312,31 C236.790665,31 239,33.2093351 239,35.934688 L239,43 Z" transform="matrix(-1 0 0 1 466 0)"/>
    <path fill="#B9EFE9" d="M249,98.183689 L249,138 L235.84415,137.830147 C235.84415,137.547059 235.864101,137.263972 235.864101,136.997869 C235.864101,122.770463 224.252385,111.236871 209.928609,111.236871 C195.604832,111.236871 183.993117,122.770463 183.993117,136.997869 C183.993117,137.054486 183.993117,137.111104 183.993117,137.164891 L170.862917,136.995038 L102.809326,136.995038 C102.808486,136.049217 102.755204,135.10416 102.649723,134.164159 C102.601272,133.711219 102.541421,133.266771 102.46447,132.825153 C102.281253,131.689692 102.020343,130.567952 101.683555,129.467731 C101.546752,129.014791 101.39855,128.570343 101.233246,128.128725 C100.808039,126.979188 100.301361,125.861022 99.7170176,124.782627 C99.471913,124.326855 99.209708,123.882407 98.9361028,123.443621 C98.2005403,122.263786 97.3703839,121.144793 96.4537057,120.097522 C96.048998,119.635145 95.6300401,119.18881 95.1968319,118.758516 C85.0717733,108.717726 68.673045,108.717726 58.5479865,118.758516 C58.1128783,119.190697 57.6939203,119.637033 57.2911127,120.097522 C56.3744345,121.144793 55.5442781,122.263786 54.8087156,123.443621 C54.5237102,123.882407 54.2729054,124.326855 54.0278008,124.782627 C53.4434578,125.861022 52.9367794,126.979188 52.511572,128.128725 C52.3491189,128.570343 52.198066,129.014791 52.0612634,129.467731 C51.7249776,130.564247 51.4640721,131.682187 51.2803486,132.81383 C51.2033972,133.255447 51.143546,133.699895 51.0950951,134.152836 C50.9896142,135.092836 50.9363325,136.037894 50.9354921,136.983714 L25,136.983714 L25,49 L207.91362,49 L226.059915,88.301091 L248.612393,98.0166672 L249,98.183689 Z" transform="matrix(-1 0 0 1 274 0)"/>
    <path fill="#F5F5F5" d="M69.0433482,40 L240.871389,40 C244.808412,40 248,43.409 248,47.6142134 L248,49 L65,49 L65,44.3157366 C65,43.1706045 65.4260851,42.0724184 66.1844421,41.2629734 C66.942799,40.4535284 67.9712479,39.9991929 69.0433482,40 Z" transform="matrix(-1 0 0 1 313 0)"/>
    <path fill="#EDEDF4" d="M149,40 L107,40 L107,38.4990937 C107,36.5102104 107.832704,34.6027865 109.314928,33.1964337 C110.797151,31.7900808 112.807477,31 114.903657,31 L139.17631,31 L149,40 Z" transform="matrix(-1 0 0 1 256 0)"/>
    <rect width="24" height="17" x="229" y="123" fill="#000" opacity=".1" rx="8.5" transform="matrix(-1 0 0 1 482 0)"/>
    <polygon fill="#000" points="103.334 137 84 137 84 48 122 48 122 109.588" opacity=".1" transform="matrix(-1 0 0 1 206 0)"/>
    <rect width="24" height="17" x="229" y="124" fill="#F5F5F5" rx="8.5" transform="matrix(-1 0 0 1 482 0)"/>
    <rect width="13" height="19" x="19" y="123" fill="#000" opacity=".1" rx="6.5" transform="matrix(-1 0 0 1 51 0)"/>
    <rect width="13" height="19" x="18" y="123" fill="#F5F5F5" rx="6.5" transform="matrix(-1 0 0 1 49 0)"/>
    <rect width="77" height="42" x="148" y="57" fill="#1A2246" transform="matrix(-1 0 0 1 373 0)"/>
    <rect width="41" height="36" x="148" y="61" fill="#F5F5F5" transform="matrix(-1 0 0 1 337 0)"/>
    <polygon fill="#FFF" points="155 89.644 184.877 68 189 69.008 155 93" transform="matrix(-1 0 0 1 344 0)"/>
    <polygon fill="#FFF" points="165 81.313 180.667 64 188 65.714 165 88" transform="matrix(-1 0 0 1 353 0)"/>
    <rect width="28" height="39" x="89" y="55" fill="#F5F5F5" rx="14" transform="matrix(-1 0 0 1 206 0)"/>
    <rect width="4" height="8" x="91" y="97" fill="#1A2246" transform="matrix(-1 0 0 1 186 0)"/>
    <path fill="#F5F5F5" d="M56,60.5695792 L56,88.4291634 C56,89.2967125 56.7280312,90 57.6261031,90 L75.3747829,90 C75.9635455,89.99969 76.5061467,89.6919691 76.7933714,89.1954878 C77.0805961,88.6990066 77.0675744,88.0913245 76.7593272,87.6067507 L59.0106474,59.7471666 C58.6293158,59.1490966 57.8833154,58.868274 57.1836258,59.0594069 C56.4839361,59.2505397 56.0006439,59.8671658 56,60.5695792 L56,60.5695792 Z" transform="matrix(-1 0 0 1 133 0)"/>
    <polygon fill="#FFF" points="113.117 54 104 62.546 104 67 117 54" transform="matrix(-1 0 0 1 221 0)"/>
    <polygon fill="#FFF" points="96 72.126 96 77 118 55 113.701 55" transform="matrix(-1 0 0 1 214 0)"/>
    <polygon fill="#FFF" points="75.026 64 69 71.95 69 75 77 67.047" transform="matrix(-1 0 0 1 146 0)"/>
    <polygon fill="#FFF" points="75.62 72 65 80.584 65 83 78 75.002" transform="matrix(-1 0 0 1 143 0)"/>
    <circle cx="197" cy="137" r="18" fill="#1A2246" transform="matrix(-1 0 0 1 394 0)"/>
    <circle cx="197.5" cy="137.5" r="10.5" fill="#FFF" transform="matrix(-1 0 0 1 395 0)"/>
    <circle cx="197" cy="137" r="3" fill="#1A2246" transform="matrix(-1 0 0 1 394 0)"/>
    <circle cx="64" cy="137" r="18" fill="#1A2246" transform="matrix(-1 0 0 1 128 0)"/>
    <circle cx="63.5" cy="137.5" r="10.5" fill="#FFF" transform="matrix(-1 0 0 1 127 0)"/>
    <circle cx="64" cy="137" r="3" fill="#1A2246" transform="matrix(-1 0 0 1 128 0)"/>
    <rect width="126" height="1" x="123" y="109" fill="#000" opacity=".1" transform="matrix(-1 0 0 1 372 0)"/>
    <polyline fill="#000" points="85 110 27 110 27.675 109.249 27.675 109 85 109" opacity=".1" transform="matrix(-1 0 0 1 112 0)"/>
    <polyline fill="#000" points="85 105 27 105 27 104 85 104" opacity=".1" transform="matrix(-1 0 0 1 112 0)"/>
    <polyline fill="#000" points="85 99 27 99 27 98 84.606 98" opacity=".1" transform="matrix(-1 0 0 1 112 0)"/>
    <path fill="#000" d="M249,114 C248.210375,114.30349 247.442388,114.637271 246.699128,115 L209,115 L209,114 L249,114 Z" opacity=".1" transform="matrix(-1 0 0 1 458 0)"/>
    <path fill="#000" d="M185,114 L185,115 L124.33312,115 C123.579443,114.637271 122.800692,114.30349 122,114 L185,114 Z" opacity=".1" transform="matrix(-1 0 0 1 307 0)"/>
    <path fill="#000" d="M249,119 C248.561266,119.322763 248.138816,119.656096 247.732652,120 L215,120 L215,119 L249,119 Z" opacity=".1" transform="matrix(-1 0 0 1 464 0)"/>
    <path fill="#000" d="M178,119 L178,120 L123.25801,120 C122.852937,119.654686 122.4336,119.321353 122,119 L178,119 Z" opacity=".1" transform="matrix(-1 0 0 1 300 0)"/>
    <path fill="#000" d="M249,124 C248.714802,124.327696 248.463827,124.659619 248.218557,125 L219,125 L219,124 L249,124 Z" opacity=".1" transform="matrix(-1 0 0 1 468 0)"/>
    <path fill="#000" d="M175,124 L175,125 L123.777772,125 C123.533654,124.659619 123.272504,124.327696 123,124 L175,124 Z" opacity=".1" transform="matrix(-1 0 0 1 298 0)"/>
    <path fill="#000" d="M229,129 C228.826087,129.32981 228.664378,129.661734 228.517925,130 L221,130 L221,129 L229,129 Z" opacity=".1" transform="matrix(-1 0 0 1 450 0)"/>
    <path fill="#000" d="M173,129 L173,130 L123.451093,130 C123.314052,129.661734 123.165591,129.32981 123,129 L173,129 Z" opacity=".1" transform="matrix(-1 0 0 1 296 0)"/>
    <path fill="#000" d="M229,133 C228.925994,133.32981 228.868433,133.661734 228.821836,134 L223,134 L223,133 L229,133 Z" opacity=".1" transform="matrix(-1 0 0 1 452 0)"/>
    <path fill="#000" d="M171,133 L171,134 L122.186464,134 C122.137697,133.661734 122.077454,133.32981 122,133 L171,133 Z" opacity=".1" transform="matrix(-1 0 0 1 293 0)"/>
    <path fill="#FE5858" d="M152.97493,93 L151,93 L151,87.8870414 L151.835655,86.1095364 C151.866832,86.0423931 151.930437,86 152,86 C152.069563,86 152.133168,86.0423931 152.164345,86.1095364 L153,87.8870414 L152.97493,93 Z" transform="matrix(-1 0 0 1 304 0)"/>
    <rect width="2" height="1" x="151" y="88" fill="#000" opacity=".1" transform="matrix(-1 0 0 1 304 0)"/>
    <path fill="#F1C413" d="M149.97493,93 L148,93 L148,87.8870414 L148.835655,86.1095364 C148.866832,86.0423931 148.930437,86 149,86 C149.069563,86 149.133168,86.0423931 149.164345,86.1095364 L150,87.8870414 L149.97493,93 Z" transform="matrix(-1 0 0 1 298 0)"/>
    <rect width="2" height="1" x="148" y="88" fill="#000" opacity=".1" transform="matrix(-1 0 0 1 298 0)"/>
    <path fill="url(#foodtruck-a)" d="M212.824016,87.3850735 C212.81352,87.3425914 212.799682,87.3010086 212.782632,87.2607147 C212.895749,86.088978 213.226824,82.2089821 212.749524,81.2804361 C212.377065,80.5563913 211.370044,80.5619183 210.180932,80.810636 C210.180932,80.6862772 210.197485,80.5619183 210.197485,80.434796 L210.197485,76.4691306 C210.158168,73.9635496 208.099774,71.9635888 205.598298,72.0005029 L204.853378,72.0005029 C202.351902,71.9635888 200.293509,73.9635496 200.254191,76.4691306 L200.254191,80.434796 C200.254191,80.5508642 200.254191,80.6669325 200.267986,80.7830007 C198.979551,80.8714337 197.757331,81.6783844 198.041504,84.5773272 L198.041504,87.8742183 L198.300847,87.8742183 C198.389752,87.9344439 198.481853,87.9897957 198.576743,88.0400301 L199.183714,93.6417051 L201.164648,93.6417051 L201.139817,93.9180581 L208.892497,93.9180581 C209.527058,93.9650381 210.15886,93.9982004 210.652714,93.9954369 C210.972007,94.0114124 211.292013,93.9853979 211.604555,93.9180581 C212.454315,93.6417051 212.454315,91.9835872 212.454315,91.9835872 L212.730211,87.8576371 C212.831986,87.7227754 212.866546,87.5486749 212.824016,87.3850735 L212.824016,87.3850735 Z M201.639189,88.3965254 L201.666779,88.3965254 L201.666779,88.4490325 L201.639189,88.4269243 L201.639189,88.3965254 Z M209.069071,89.0874079 L209.209778,91.1711094 L209.069071,91.1711094 L209.069071,89.0874079 Z M201.164648,90.8947564 L201.639189,88.4683772 L201.669538,88.4683772 L201.669538,88.4683772 L201.440544,90.9251552 L201.164648,90.8947564 Z" transform="matrix(-1 0 0 1 411 0)"/>
    <path fill="#F7C4A7" d="M204,88 L204.667747,94 L211.329831,94 C211.329831,94 214.056208,92.2882012 212.542238,91.7166344 C211.028268,91.1450677 210.120501,91.426499 210.120501,91.426499 L206.790998,91.1363636 L207.421819,88 L204,88 Z" transform="matrix(-1 0 0 1 417 0)"/>
    <path fill="#000" d="M207,88 L206.711502,92.1245452 C206.711502,92.1245452 206.711502,93.6686326 205.846009,93.9277252 C204.980515,94.1868179 200.451099,93.6660155 200.451099,93.6660155 C200.451099,93.6660155 198.748961,93.6660155 199.031689,92.3784037 C199.314417,91.0907918 200.733826,90.8343163 201.302167,90.8343163 C201.870508,90.8343163 202.721577,91.3577357 202.721577,91.3577357 L203.58707,91.3577357 L203.364927,88.2617097 L207,88 Z" opacity=".1" transform="matrix(-1 0 0 1 406 0)"/>
    <path fill="#F7C4A7" d="M207,88 L206.711502,92.1245452 C206.711502,92.1245452 206.711502,93.6686326 205.846009,93.9277252 C204.980515,94.1868179 200.451099,93.6660155 200.451099,93.6660155 C200.451099,93.6660155 198.748961,93.6660155 199.031689,92.3784037 C199.314417,91.0907918 200.733826,90.8343163 201.302167,90.8343163 C201.870508,90.8343163 202.721577,91.3577357 202.721577,91.3577357 L203.58707,91.3577357 L203.362042,88.2617097 L207,88 Z" transform="matrix(-1 0 0 1 406 0)"/>
    <path fill="#FC6681" d="M203.884049,80.7049919 C203.884049,80.7049919 198.475093,78.0524743 199.041581,84.1473704 L199.041581,87.6192214 L201.535231,87.6192214 L202.144326,94 L210.066534,94 L210.856007,87.6192214 C210.856007,87.6192214 213.177905,87.9139455 213.744393,87.3244972 C213.744393,87.3244972 214.319508,81.8131549 213.744393,80.6548888 C213.169279,79.4966228 211.182257,80.1125963 209.200986,80.6902557 C207.219715,81.2679151 203.884049,80.7049919 203.884049,80.7049919 Z" transform="matrix(-1 0 0 1 413 0)"/>
    <path fill="#000" d="M210,87.1252165 C210,87.1252165 210.971798,88.3278306 212.988279,87.9129287 C213.204504,87.8708372 210.361995,86.6050859 210,87.1252165 Z" opacity=".1" transform="matrix(-1 0 0 1 423 0)"/>
    <rect width="10" height="13" x="201" y="72" fill="#965D7B" rx="5" transform="matrix(-1 0 0 1 412 0)"/>
    <path fill="#000" d="M199,88 C199,88 203.327595,87.9387036 202.980144,86.7274871 C202.632694,85.5162706 199.279655,86.1831753 199.279655,86.1831753 L199,88 Z" opacity=".1" transform="matrix(-1 0 0 1 402 0)"/>
    <path fill="#FC6681" d="M209,87.235996 C209,87.235996 210.405034,88.522342 213.286207,87.7567839 C216.167379,86.9912258 209.423786,86.7855146 209,87.235996 Z" transform="matrix(-1 0 0 1 423 0)"/>
    <path fill="#FC6681" d="M199,88 C199,88 203.327595,87.9387036 202.980144,86.7274871 C202.632694,85.5162706 199.279655,86.1831753 199.279655,86.1831753 L199,88 Z" transform="matrix(-1 0 0 1 402 0)"/>
    <path fill="#965D7B" d="M203.962505,77.9344329 C203.862915,77.5651748 203.707672,77.2129594 203.628586,76.8408609 C203.362668,75.429921 204.159029,74.0327342 205.532509,73.5004956 C205.729275,73.4198392 205.944099,73.3895201 206.15641,73.4124418 C207.011711,73.5459428 207.137663,74.8326651 207.949027,75.1365929 C208.110128,75.1962423 208.285875,75.2076041 208.449905,75.2615726 C208.884325,75.4494551 209.207484,75.8181952 209.328639,76.2642502 C209.497349,76.737393 209.561228,77.2397284 209.516102,77.7384421 C209.472165,78.2127967 209.331568,78.6757895 209.293489,79.1586654 C209.224216,79.635608 209.362106,80.1190442 209.674274,80.4936754 C209.847418,80.6545125 210.044993,80.7886279 210.260096,80.8913379 C210.409481,80.9708704 210.596944,81.0504029 210.737542,80.9595086 C210.800658,80.9113824 210.847565,80.8461189 210.872281,80.7720391 C211.083177,80.2692801 210.980658,79.7040312 210.930863,79.1643463 C210.874113,78.3355 210.882926,77.5036557 210.957225,76.676115 C211.001162,76.0057696 211.045098,75.3098602 210.793195,74.6878023 C210.605749,74.2735376 210.352751,73.8901945 210.043342,73.5516237 C209.779976,73.2129821 209.473947,72.907629 209.132388,72.6426807 C208.481427,72.2098378 207.707113,71.9853699 206.917979,72.0007398 C206.134567,72.0154362 205.35497,72.1106501 204.592264,72.2847844 C204.032804,72.3955619 203.420619,72.5347437 203.083772,72.975013 C202.91992,73.2170294 202.804643,73.4868603 202.743994,73.7703381 L202.512595,74.5883867 C202.227299,75.4541137 202.05509,76.3511195 202,77.2584066 C202,77.9202307 202.105448,79.3518158 202.878734,79.6387009 C203.883419,80.0022781 204.129465,78.5820547 203.962505,77.9344329 Z" transform="matrix(-1 0 0 1 413 0)"/>
    <path fill="#F5DD48" d="M212,71 C212,71 215.561892,77.75 225,71" transform="matrix(-1 0 0 1 437 0)"/>
    <path fill="#F5DD48" d="M200,71 C200,71 203.561892,77.75 213,71" transform="matrix(-1 0 0 1 413 0)"/>
    <path fill="#F5DD48" d="M188,71 C188,71 191.561892,77.75 201,71" transform="matrix(-1 0 0 1 389 0)"/>
    <path fill="#F5DD48" d="M176,71 C176,71 179.561892,77.75 189,71" transform="matrix(-1 0 0 1 365 0)"/>
    <path fill="#F5DD48" d="M163,71 C163,71 166.561892,77.75 176,71" transform="matrix(-1 0 0 1 339 0)"/>
    <path fill="#F5DD48" d="M152,71 C152,71 155.561892,77.75 165,71" transform="matrix(-1 0 0 1 317 0)"/>
    <path fill="#F5DD48" d="M139,71 C139,71 142.561892,77.75 152,71" transform="matrix(-1 0 0 1 291 0)"/>
    <path fill="#F5DD48" d="M134,70 C134,70 137.530114,76.4538297 140,70.4295273" transform="matrix(-1 0 0 1 274 0)"/>
    <polygon fill="#B9EFE9" points="237 71 134 71 141.454 54 229.208 54" transform="matrix(-1 0 0 1 371 0)"/>
    <polygon fill="#000" points="237 71 134 71 141.454 54 229.208 54" opacity=".1" transform="matrix(-1 0 0 1 371 0)"/>
    <path fill="#F5DD48" d="M224,71 C224,71 227.561892,77.75 237,71" transform="matrix(-1 0 0 1 461 0)"/>
    <rect width="83" height="6" x="144" y="100" fill="#EDEDF4" transform="matrix(-1 0 0 1 371 0)"/>
    <rect width="95" height="8" x="138" y="93" fill="#EDEDF4" transform="matrix(-1 0 0 1 371 0)"/>
    <rect width="83" height="1" x="144" y="102" fill="#000" opacity=".1" transform="matrix(-1 0 0 1 371 0)"/>
    <g transform="matrix(-1 0 0 1 143 75)">
      <path fill="#2F2E41" d="M20.6405119 70.1555425C20.6405119 70.1555425 21.6334251 73.5823048 22.2953669 74.4666351 22.9573086 75.3509654 23.5089278 76.7879929 23.1779563 77.00908 22.8469848 77.230167 22.185043 79.8831413 23.0676324 79.9936836 23.9502218 80.1042258 25.9360483 77.1196222 26.0463734 76.1247548 26.1566985 75.1298874 26.5979926 71.5925802 26.5979926 71.5925802 26.5979926 71.5925802 27.3702582 68.4974369 26.1567024 68.276355 24.9431466 68.055273 23.0676388 67.9447321 23.0676388 67.9447321L20.6405119 70.1555425zM16.006916 73.8033906C16.006916 73.8033906 14.5727074 77.5617784 14.2417372 77.7828604 13.9107669 78.0039423 12.6972047 79.9936772 15.1243266 79.9936772 17.5514484 79.9936772 18.8753318 79.3304326 18.8753318 79.3304326L19.6475987 78.4461049C19.6475987 78.4461049 19.6475987 76.1247484 19.426951 75.7931255 19.2063033 75.4615026 19.426951 73.8033906 19.426951 73.8033906L16.006916 73.8033906z"/>
      <path fill="#2F2E41" d="M6.18810615,39.4251915 C6.18810615,39.4251915 4.42292735,51.3636059 5.96745976,55.232527 C7.51199217,59.1014481 9.0565233,60.2068642 9.0565233,60.2068642 L20.7508345,71.1504061 C20.7508345,71.1504061 24.3915172,69.2712122 24.0605457,68.0552628 C24.0605457,68.0552628 23.2882801,67.613104 23.1779563,67.2814773 C23.0676324,66.9498505 21.6334251,66.8393185 21.6334251,66.8393185 C21.6334251,66.8393185 20.9714821,66.065533 20.9714821,65.6233704 C20.9714821,65.1812078 15.2346504,57.332808 13.3591477,56.7801032 C13.3591477,56.7801032 12.3662332,55.5641538 12.4765571,55.3430719 C12.5868809,55.1219899 12.1455868,54.3482044 12.1455868,54.3482044 L13.2488239,50.037113 L20.1992166,48.9317046 C20.1992166,48.9317046 23.0676324,38.761947 20.6405068,37.9881615 C18.2133811,37.214376 6.18810615,39.4251915 6.18810615,39.4251915 Z"/>
      <path fill="#2F2E41" d="M19.9785689,47.1630491 L20.1992166,48.9317033 C20.1992166,48.9317033 20.1992166,53.5744176 19.9785689,54.0165815 C19.7579212,54.4587454 19.6475987,55.1219899 19.9785689,55.5641525 C20.3095391,56.0063151 20.8611583,57.1117248 20.6405119,57.5538874 C20.4198655,57.99605 21.0818021,70.4871654 20.1992217,71.3714918 C19.3166412,72.2558183 19.6476038,73.3612267 19.7579315,73.4717677 C19.8682591,73.5823087 19.6476089,74.0244725 19.6476089,74.0244725 C19.6476089,74.0244725 15.1243368,74.798258 15.4553083,74.0244725 C15.7862798,73.250687 15.7862785,72.8085232 16.0069262,72.5874412 C16.2275739,72.3663593 16.0069262,72.0347377 16.0069262,72.0347377 C16.0069262,72.0347377 16.3378977,68.4974305 16.0069262,68.2763486 C15.6759547,68.0552666 14.6830414,57.4433464 14.6830414,57.3328067 C14.6830414,57.222267 14.3520712,57.0011838 14.3520712,56.5590199 C14.3520712,56.1168561 14.3520712,54.679826 13.800452,54.4587441 C13.2488329,54.2376622 13.3591618,48.8211624 13.3591618,48.8211624 L19.9785689,47.1630491 Z"/>
      <path fill="#FFB9B9" d="M12.1455868,7.6999719 C12.1455868,7.6999719 12.5868771,11.0161971 13.9107656,11.6794417 C15.2346542,12.3426862 16.1172398,12.6743091 16.1172398,12.6743091 L15.0140027,16.5432417 L14.5727125,19.8594657 L9.49781736,19.8594657 L6.73972533,17.6486489 L7.62231473,14.000802 L8.06360495,13.3375575 C8.06360495,13.3375575 8.61522285,10.9056587 8.17392879,10.1318732 C7.73263473,9.35808772 12.1455868,7.6999719 12.1455868,7.6999719 Z"/>
      <path fill="#575A89" d="M9.9391191,15.7694524 L10.7113847,17.2064837 C10.7113847,17.2064837 11.2630038,15.2167488 12.0352694,14.8851259 C12.807535,14.553503 14.6830376,14.0007994 14.6830376,13.5586356 C14.6830376,13.1164717 14.5727138,12.0110646 15.0140091,12.0110646 C15.4553045,12.0110646 19.7579276,13.3375549 20.4198706,13.7797175 C21.0818136,14.2218801 21.1921362,14.664044 21.1921362,14.664044 L19.9785753,27.37624 C19.9785753,27.37624 21.7437554,33.3454472 21.1921362,35.6668024 C20.640517,37.9881577 20.199223,38.3197831 18.8753382,38.651406 C17.5514535,38.983029 18.3237203,37.8776205 14.4623899,38.983029 C10.6010596,40.0884374 8.1739403,39.7568145 7.29134962,39.7568145 C6.40875894,39.7568145 5.85714233,40.1989732 5.63649466,40.3095193 C5.41584699,40.4200654 5.52617082,39.7568145 6.29843639,38.761947 C7.07070195,37.7670796 6.73972661,36.1089676 6.73972661,36.1089676 C6.73972661,36.1089676 5.85713721,33.2349063 6.4087551,32.1294978 C6.960373,31.0240894 7.73263984,29.587053 7.07069811,29.1448943 C6.40875638,28.7027355 5.5261657,25.3865052 5.5261657,25.3865052 L3.09904389,16.7643198 L8.06361135,13.3375575 C8.06361135,13.3375575 7.84296368,14.8851285 8.61522924,15.2167514 C9.38749481,15.5483743 9.9391191,15.7694524 9.9391191,15.7694524 Z"/>
      <path fill="#575A89" d="M3.76098562,16.6537789 L3.09904261,16.6537789 C3.09904261,16.6537789 1.99580554,18.532974 1.99580554,19.8594631 C1.99580554,21.1859522 2.54742472,28.7027304 2.54742472,28.7027304 L5.74681209,32.0189556 L6.51907766,29.4765107 L6.73972533,23.838929 L3.76098562,16.6537789 Z"/>
      <path fill="#575A89" d="M5.52616442,28.3711075 C5.52616442,28.3711075 1.88548299,27.37624 1.99580554,28.9238123 C2.1061281,30.4713846 2.65774855,32.3505747 4.42292735,32.7927411 C6.18810615,33.2349075 6.73972533,30.8030062 6.73972533,30.8030062 C6.73972533,30.8030062 6.96037812,28.5921894 5.52616442,28.3711075 Z"/>
      <path fill="#FFB9B9" d="M19.2063033,33.4559856 C19.2063033,33.4559856 18.9856557,38.5408651 17.6617709,39.0935686 L20.8611583,39.8673541 C20.8611583,39.8673541 22.4056907,34.561394 22.185043,34.3403134 C21.9643954,34.1192327 19.2063033,33.4559856 19.2063033,33.4559856 Z"/>
      <path fill="#2F2E41" d="M1.38147324,22.445146 L3.4496756,22.4436531 C3.52691922,22.4436531 3.60097699,22.4742699 3.65555705,22.528923 C3.71013711,22.5835761 3.74076855,22.6577329 3.74071288,22.7350798 L3.73691389,28.0054383 C3.73677208,28.2021738 3.57738443,28.3617744 3.38091161,28.3619162 L1.44170544,28.363316 C1.24523262,28.3634577 1.08607489,28.204087 1.0862166,28.0073515 L1.09001561,22.7369878 C1.09013454,22.5759233 1.22062373,22.445262 1.38147324,22.445146 L1.38147324,22.445146 Z" transform="rotate(-23.598 2.413 25.403)"/>
      <path fill="#000" d="M1.38147324,22.445146 L3.4496756,22.4436531 C3.52691922,22.4436531 3.60097699,22.4742699 3.65555705,22.528923 C3.71013711,22.5835761 3.74076855,22.6577329 3.74071288,22.7350798 L3.73691389,28.0054383 C3.73677208,28.2021738 3.57738443,28.3617744 3.38091161,28.3619162 L1.44170544,28.363316 C1.24523262,28.3634577 1.08607489,28.204087 1.0862166,28.0073515 L1.09001561,22.7369878 C1.09013454,22.5759233 1.22062373,22.445262 1.38147324,22.445146 L1.38147324,22.445146 Z" opacity=".1" transform="rotate(-23.598 2.413 25.403)"/>
      <path fill="#2F2E41" d="M1.44625239,22.7559891 L3.24938465,22.7546876 C3.41023615,22.7545715 3.54053795,22.8850477 3.54042193,23.0461142 L3.53681684,28.0474637 C3.53667503,28.2441992 3.37728738,28.4037998 3.18081456,28.4039416 L1.5066785,28.40515 C1.31020568,28.4052917 1.15104794,28.2459211 1.15118966,28.0491856 L1.15479476,23.0478361 C1.15491086,22.8867695 1.28540088,22.7561052 1.44625239,22.7559891 L1.44625239,22.7559891 Z" transform="rotate(-23.598 2.346 25.58)"/>
      <ellipse cx="1.695" cy="24.815" fill="#F2F2F2" rx="1" ry="1" transform="rotate(-23.598 1.695 24.815)"/>
      <path fill="#000" d="M20.0337308,16.1563458 L20.7508345,15.1062079 C20.7508345,15.1062079 23.3986039,19.1962186 23.1779563,21.959739 C22.9573086,24.7232593 22.736666,24.8338016 22.736666,25.2759642 C22.736666,25.7181268 22.1850469,25.7181229 22.736666,26.2708316 C23.2882852,26.8235403 24.0605495,27.597322 23.6192554,28.0394858 C23.1779614,28.4816497 22.8469886,28.4816446 22.9573124,29.0343533 C23.0278696,29.4358769 23.064773,29.8426117 23.0676363,30.2503014 C23.0676363,30.2503014 22.129885,32.0742261 21.7989109,32.0742261 C21.4679368,32.0742261 18.3237152,35.0035579 18.3237152,34.671935 C18.3237152,34.3403121 18.6546854,32.0189556 18.6546854,31.6873314 C18.6546854,31.3557072 18.7650093,30.2503001 18.9856569,29.9186785 C19.2063046,29.5870568 19.2063046,29.6975965 18.9856569,29.3659736 C18.7650093,29.0343507 18.7650093,29.3659736 18.7650093,29.034352 C18.7650093,28.7027304 18.8753331,28.2605652 18.5443629,28.1500242 C18.2133926,28.0394833 17.8824199,28.1500242 18.1030727,27.5973207 C18.3237254,27.0446171 18.1030727,26.6024532 17.9927488,26.6024532 C17.882425,26.6024532 17.3308071,26.4919123 17.6617773,26.1602945 C17.9927475,25.8286767 16.9998356,19.4173044 16.9998356,19.4173044 C16.9998356,19.4173044 17.1653149,17.8144642 20.0337308,16.1563458 Z" opacity=".1"/>
      <path fill="#575A89" d="M19.426951,13.7797175 L21.3024536,14.664044 C21.3024536,14.664044 23.9502218,18.7540547 23.7295754,21.5175764 C23.5089291,24.281098 23.2882852,24.3916377 23.2882852,24.8338016 C23.2882852,25.2759655 22.7366673,25.2759603 23.2882852,25.828669 C23.8399031,26.3813777 24.61217,27.1551581 24.1708746,27.597322 C23.7295793,28.0394858 23.3986091,28.0394807 23.5089329,28.5921894 C23.57949,28.9937134 23.6163934,29.4004487 23.6192567,29.8081388 C23.6192567,29.8081388 22.6263435,35.1140989 22.295372,35.1140989 C21.9644005,35.1140989 18.8753408,34.561394 18.8753408,34.2297724 C18.8753408,33.8981508 19.2063123,31.5767917 19.2063123,31.2451688 C19.2063123,30.9135459 19.3166361,29.8081388 19.5372838,29.4765159 C19.7579315,29.144893 19.7579302,29.2554339 19.5372838,28.9238123 C19.3166374,28.5921907 19.3166361,28.9238123 19.3166361,28.5921894 C19.3166361,28.2605665 19.42696,27.8184039 19.0959884,27.7078629 C18.7650169,27.597322 18.4340467,27.7078629 18.6546982,27.1551581 C18.8753497,26.6024532 18.6546982,26.1602907 18.5443757,26.1602907 C18.4340531,26.1602907 17.8824327,26.0497497 18.2134042,25.7181319 C18.5443757,25.3865141 17.5514624,18.9751405 17.5514624,18.9751405 C17.5514624,18.9751405 16.5585338,15.4378308 19.426951,13.7797175 Z"/>
      <path fill="#FFB9B9" d="M2.68645865,29.1605986 C2.47469642,29.2167803 2.25264649,29.1163807 2.15458174,28.9201112 C1.6476085,27.9044499 0.27397145,24.9254524 1.55450893,24.8338054 C2.7358463,24.7492581 3.78810022,27.057346 4.21765511,28.147518 C4.27294734,28.2875892 4.26572706,28.4446798 4.19782008,28.5790662 C4.1299131,28.7134526 4.00782098,28.8122684 3.86241712,28.850526 L2.68645865,29.1605986 Z"/>
      <g transform="translate(3.479)">
        <ellipse cx="6.176" cy="7.424" fill="#FFB9B9" rx="4.519" ry="4.528"/>
        <path fill="#2F2E41" d="M4.08798301,4.81622652 C3.52397424,5.01134241 2.94185471,5.14918582 2.35039999,5.22767873 C1.90525749,5.29739283 1.38435555,5.33317655 1.0716146,5.00849378 C0.764701225,4.6898582 0.814529553,4.15818398 1.02405809,3.76801866 C1.23358663,3.37785334 1.56914111,3.0719123 1.82090562,2.70765301 C2.21686962,2.13476128 2.45069065,1.37535321 3.08366509,1.08661848 C3.34597768,0.98594771 3.62431485,0.933778538 3.90515599,0.932645155 C5.54746576,0.82724543 7.25690493,0.732217253 8.77760094,1.36137112 C9.34898186,1.57932663 9.8551556,1.94007416 10.2480255,2.40933545 C10.5053603,2.75487265 10.7038811,3.14069013 10.835558,3.55118247 C11.6612995,6.00735499 11.1536352,8.71773317 9.49500433,10.7082888 C8.94088223,10.2081373 9.18229072,9.05198169 8.48103687,8.7972541 C8.25097219,8.71368453 7.99084753,8.77196684 7.75518472,8.70583056 C7.01454715,8.49797528 7.0520987,7.35112541 6.43561033,6.8905184 C6.30096225,6.81795157 6.18172728,6.71979522 6.08456568,6.60153221 C6.03038894,6.4880961 6.00687173,6.36238745 6.01636231,6.23695863 C6.01198499,5.80733002 6.21375217,4.71594957 5.80477475,4.42159057 C5.38847497,4.12196118 4.48813215,4.67134832 4.08798301,4.81622652 Z" transform="rotate(-9 6.04 5.782)"/>
      </g>
    </g>
  </g>
</svg>
