<svg xmlns="http://www.w3.org/2000/svg" width="164" height="173" viewBox="0 0 164 173">
  <g fill="none">
    <path fill="#F5DD48" d="M132.922912,53.6023614 C148.899794,76.6779708 164.91839,96.7855217 163.958943,117.770949 C162.999496,138.79818 145.062005,160.745091 123.32844,168.980408 C101.594875,177.257529 76.0652371,171.864859 53.2053648,160.870502 C30.3037774,149.876145 10.0302411,133.2801 2.93867484,111.082367 C-4.15289138,88.9264373 1.89579745,61.1688203 17.7892488,38.0932109 C33.6409851,15.0176015 59.2957687,-3.3341965 80.1116014,0.511738397 C100.927434,4.35767329 116.904316,30.4849484 132.922912,53.6023614 Z"/>
    <path fill="#EEE" d="M152.073699,147.360996 C144.696045,156.869998 134.515099,164.741542 123.32844,168.980408 C101.594875,177.257529 76.0652371,171.864859 53.2053648,160.870502 C49.9930753,159.328379 46.8324907,157.676047 43.7527357,155.913507 C49.9788723,146.255132 58.7,145.54 58.7,145.54 L146.41,145.54 C146.41,145.54 148.851767,145.741177 152.073699,147.360996 Z"/>
    <path fill="#C02D22" d="M152.064388,147.356315 C148.847061,145.740789 146.41,145.54 146.41,145.54 C134.966794,145.54 126.38439,145.54 120.662787,145.54 C121.713296,152.469963 121.654298,161.564532 120.813151,169.799027 C133.761383,166.950076 149.552627,152.131786 152.064388,147.356315 Z"/>
    <path fill="#C02D22" d="M83.7714874,155.712847 C77.5544256,146.24855 68.9544684,145.54 68.9544684,145.54 C57.5112628,145.54 48.9288585,145.54 43.2072556,145.54 C44.3234306,152.903147 44.1870552,162.70997 43.1907935,171.33239 C61.0459334,169.073585 82.075295,157.204796 83.7714874,155.712847 Z" transform="matrix(-1 0 0 1 126.962 0)"/>
    <circle cx="102.95" cy="72.07" r="54.76" fill="#BFBFBF"/>
    <path fill="#F0D1C2" d="M88.59,116.38 L116.98,116.38 C118.830154,116.38 120.33,117.879846 120.33,119.73 L120.33,144.45 C120.33,154.137075 112.477075,161.99 102.79,161.99 L102.79,161.99 C93.1029255,161.99 85.25,154.137075 85.25,144.45 L85.25,119.73 C85.25,117.879846 86.7498461,116.38 88.6,116.38 L88.59,116.38 Z"/>
    <path fill="#000" d="M85.27,117.68 L120.360026,117.68 L120.360026,145.75 C120.367965,150.407093 118.523523,154.876171 115.233272,158.172051 C111.94302,161.46793 107.4771,163.32 102.82,163.32 L102.82,163.32 C93.1329255,163.32 85.28,155.467075 85.28,145.78 L85.28,117.68 L85.27,117.68 Z" opacity=".1"/>
    <path fill="#000" d="M85.31,130.93 C96.6186913,135.156642 109.067402,135.192118 120.4,131.03 L120.4,126.72 L85.31,126.72 L85.31,130.93 Z" opacity=".1"/>
    <path fill="#F0D1C2" d="M151.513705,96.1014901 C145.745763,117.517901 126.188599,133.28 102.95,133.28 C79.7046649,133.28 60.1428997,117.508763 54.3812824,96.0828655 C53.8430478,96.4874172 53.255395,96.71 52.64,96.71 C50.0553074,96.71 47.96,92.7835373 47.96,87.94 C47.96,83.0964627 50.0553074,79.17 52.64,79.17 C52.6943957,79.17 52.7485747,79.1717391 52.802522,79.1751891 C54.7520304,53.1828728 76.4589996,32.7 102.95,32.7 C129.440411,32.7 151.147004,53.1819619 153.097348,79.1734551 C153.141416,79.1711568 153.185636,79.17 153.23,79.17 C155.814693,79.17 157.91,83.0964627 157.91,87.94 C157.91,92.7835373 155.814693,96.71 153.23,96.71 C152.624115,96.71 152.045121,96.4942433 151.513705,96.1014934 Z"/>
    <path fill="#000" d="M67.13,37.25 C67.13,37.25 88.32,80.25 148.13,55.25 L134.21,33.42 L109.54,24.56 L67.13,37.25 Z" opacity=".1"/>
    <path fill="#BFBFBF" d="M67.13,36.62 C67.13,36.62 88.32,79.62 148.13,54.62 L134.21,32.79 L109.54,23.93 L67.13,36.62 Z"/>
  </g>
</svg>
