<svg xmlns="http://www.w3.org/2000/svg" width="933" height="615" viewBox="0 0 933 615">
  <g fill="none" fill-rule="evenodd" transform="translate(-.02 -.017)">
    <ellipse cx="466.41" cy="596.567" fill="#FFDED1" fill-rule="nonzero" opacity=".7" rx="57.73" ry="18.04"/>
    <ellipse cx="554.47" cy="484.917" fill="#FFDED1" fill-rule="nonzero" opacity=".7" rx="31.08" ry="9.71"/>
    <ellipse cx="715.12" cy="512.117" fill="#FFDED1" fill-rule="nonzero" opacity=".7" rx="31.08" ry="9.71"/>
    <ellipse cx="777.03" cy="585.907" fill="#FFDED1" fill-rule="nonzero" opacity=".7" rx="57.73" ry="18.04"/>
    <path fill="#FFCCD0" fill-rule="nonzero" d="M479.78,108.567033 L438.49,132.817033 C438.49,132.817033 388.83,119.937033 402.49,108.937033 C408.57,104.047033 411.12,93.597033 412.06,83.497033 C412.35,80.337033 412.49,77.207033 412.54,74.297033 C412.623614,69.1636641 412.429998,64.0295246 411.96,58.917033 C411.96,58.917033 469.55,49.077033 462.35,63.857033 C460.6,67.447033 460.74,71.927033 461.93,76.667033 C462.426808,78.5699923 463.041324,80.4402591 463.77,82.267033 C468.98,95.437033 479.78,108.567033 479.78,108.567033 Z"/>
    <path fill="#000" fill-rule="nonzero" d="M462.35,63.857033 C460.6,67.447033 460.74,71.927033 461.93,76.667033 C455.416165,82.2898449 447.094994,85.3783341 438.49,85.3670639 C429.02,85.3670639 425.39,77.307033 418.96,71.367033 C418.46,70.897033 415.38,72.177033 414.96,71.687033 C415.1,63.037033 411.96,58.947033 411.96,58.947033 C411.96,58.947033 469.58,49.077033 462.35,63.857033 Z" opacity=".1"/>
    <path fill="#FFCCD0" fill-rule="nonzero" d="M474.490006,48.227033 C474.479507,66.1465956 461.291192,81.3302141 443.549481,83.8486472 C425.807769,86.3670802 408.914958,75.4534726 403.918006,58.2447162 C398.921053,41.0359598 407.341516,22.772069 423.672881,15.396612 C440.004245,8.02115502 459.27366,13.7799361 468.88,28.907033 C472.548011,34.6830472 474.494007,41.3847653 474.490006,48.227033 L474.490006,48.227033 Z"/>
    <path fill="#000" fill-rule="nonzero" d="M468.88,28.907033 C468.241615,29.2242815 467.571137,29.4723583 466.88,29.647033 C464.04,30.367033 461.07,30.057033 458.16,29.777033 C457.70038,29.6807839 457.221786,29.7406081 456.8,29.947033 C456.29,30.277033 456.16,30.947033 455.97,31.547033 C455.18,33.877033 452.77,35.237033 450.45,36.037033 C445.712692,37.6372322 440.601999,37.7662197 435.79,36.407033 C435.151436,36.1684439 434.470828,36.0629498 433.79,36.097033 C432.22,36.287033 431.29,37.977033 431.04,39.537033 C430.79,41.097033 430.94,42.757033 430.35,44.207033 C429.35,46.747033 426.49,47.907033 424.01,49.027033 C421.53,50.147033 418.8,51.937033 418.68,54.667033 C418.6,56.237033 419.43,57.667033 419.68,59.227033 C420.065663,62.0356016 418.719261,64.7994774 416.27,66.227033 C415.70712,69.0541675 414.955437,71.8404085 414.02,74.567033 C403.728443,65.077818 399.870889,50.483099 404.129726,37.1480455 C408.388562,23.8129919 419.991455,14.1558997 433.878054,12.3884997 C447.764653,10.6210996 461.416641,17.0639076 468.88,28.907033 L468.88,28.907033 Z" opacity=".1"/>
    <path fill="#E3787D" fill-rule="nonzero" d="M465.15,5.10703303 C461.648486,2.490525 457.401038,1.06419562 453.03,1.03703303 C449.38,1.15703303 445.88,2.57703303 442.24,2.79703303 C434.14,3.29703303 425.8,-2.12296697 418.29,0.947033031 C412.77,3.20703303 409.21,9.62703303 403.29,10.257033 C401.63,10.427033 399.96,10.107033 398.29,10.187033 C396.62,10.267033 394.83,10.897033 394.04,12.367033 C393.531663,13.6910715 393.437507,15.13829 393.77,16.517033 C394.516787,22.8652256 393.682004,29.2995752 391.34,35.247033 C390.21,38.097033 388.71,41.057033 389.24,44.077033 C389.772284,46.3470442 391.081046,48.3597074 392.94,49.767033 C393.255668,50.7810597 393.831443,51.6947138 394.61,52.417033 C396.12,53.817033 398.1,54.887033 398.87,56.797033 C400.06,59.727033 397.87,63.377033 399.49,66.097033 C400.21086,67.117253 401.177313,67.9392542 402.3,68.487033 C405.68,70.487033 409.133333,72.3536997 412.66,74.087033 C413.678415,71.1456304 414.496946,68.1387838 415.11,65.087033 C417.559261,63.6594774 418.905663,60.8956016 418.52,58.087033 C418.24,56.547033 417.41,55.087033 417.52,53.527033 C417.65,50.797033 420.36,48.997033 422.85,47.877033 C425.34,46.757033 428.18,45.597033 429.2,43.067033 C429.79,41.607033 429.63,39.957033 429.88,38.397033 C430.13,36.837033 431.06,35.137033 432.63,34.947033 C433.311516,34.9161395 433.992146,35.0250401 434.63,35.267033 C439.443629,36.6179843 444.552824,36.4855495 449.29,34.887033 C451.62,34.097033 454.03,32.727033 454.81,30.397033 C455,29.807033 455.13,29.127033 455.65,28.797033 C456.067987,28.5898619 456.5437,28.5299573 457,28.627033 C459.91,28.907033 462.89,29.207033 465.72,28.507033 C470.761191,27.0481297 474.442305,22.717408 475.07,17.507033 C475.64,12.307033 469.02,7.80703303 465.15,5.10703303 Z"/>
    <path fill="#000" fill-rule="nonzero" d="M465.15,5.10703303 C463.752598,4.1292141 462.262029,3.29181545 460.7,2.60703303 C461.44,3.02703303 462.18,3.47703303 462.88,3.96703303 C466.75,6.66703303 473.37,11.187033 472.76,16.397033 C472.138934,21.6069717 468.460292,25.9394187 463.42,27.397033 C460.58,28.107033 457.61,27.797033 454.7,27.517033 C454.240206,27.4252883 453.763064,27.4849311 453.34,27.687033 C452.82,28.017033 452.7,28.687033 452.5,29.287033 C451.73,31.627033 449.32,32.987033 446.99,33.777033 C442.251194,35.3857041 437.135734,35.5182109 432.32,34.157033 C431.681502,33.9174624 431.001372,33.8086416 430.32,33.837033 C428.75,34.027033 427.82,35.727033 427.57,37.287033 C427.32,38.847033 427.48,40.497033 426.89,41.957033 C425.89,44.487033 423.02,45.657033 420.53,46.777033 C418.04,47.897033 415.34,49.687033 415.21,52.417033 C415.13,53.977033 415.95,55.417033 416.21,56.977033 C416.595663,59.7856016 415.249261,62.5494774 412.8,63.977033 C412.182993,67.0038953 411.367906,69.9869786 410.36,72.907033 C411.12,73.297033 411.86,73.707033 412.62,74.077033 C413.638415,71.1356304 414.456946,68.1287838 415.07,65.077033 C417.519261,63.6494774 418.865663,60.8856016 418.48,58.077033 C418.2,56.537033 417.37,55.077033 417.48,53.517033 C417.61,50.787033 420.32,48.987033 422.81,47.867033 C425.3,46.747033 428.14,45.587033 429.16,43.057033 C429.75,41.597033 429.59,39.947033 429.84,38.387033 C430.09,36.827033 431.02,35.127033 432.59,34.937033 C433.271516,34.9061395 433.952146,35.0150401 434.59,35.257033 C439.403629,36.6079843 444.512824,36.4755495 449.25,34.877033 C451.58,34.087033 453.99,32.717033 454.77,30.387033 C454.96,29.797033 455.09,29.117033 455.61,28.787033 C456.027987,28.5798619 456.5037,28.5199573 456.96,28.617033 C459.87,28.897033 462.85,29.197033 465.68,28.497033 C470.721191,27.0381297 474.402305,22.707408 475.03,17.497033 C475.64,12.307033 469.02,7.80703303 465.15,5.10703303 Z" opacity=".1"/>
    <path fill="#FFCCD0" fill-rule="nonzero" d="M386.47,59.677033 C386.47,59.677033 378.23,73.037033 374.53,73.037033 C372.737157,73.170722 370.982771,73.6245593 369.35,74.377033 C367.713767,75.0556873 366.123702,75.8406982 364.59,76.727033 L351.23,62.807033 C351.23,62.807033 352.93,61.007033 355.23,58.477033 C359.63,53.627033 366.23,46.097033 367.14,43.477033 C368.56,39.477033 392.14,29.827033 393.29,36.367033 C394.44,42.907033 386.47,59.677033 386.47,59.677033 Z"/>
    <path fill="#CE828D" fill-rule="nonzero" d="M614.12,295.767033 C614.12,295.767033 612.36,297.877033 609.59,300.967033 C601.92,309.527033 586.49,325.537033 579.25,324.557033 C569.41,323.227033 574.7,297.087033 580.58,295.947033 C584.15,295.257033 592.58,291.017033 598.68,287.777033 C602.68,285.677033 605.59,284.007033 605.59,284.007033 L614.12,295.767033 Z"/>
    <path fill="#FFCCD0" fill-rule="nonzero" d="M571.77 326.547033C556.42 332.807033 558.41 303.547033 559.03 299.357033 559.49 296.187033 558.12 288.917033 557.44 285.657033 557.23 284.657033 557.08 284.007033 557.08 284.007033L560.97 274.167033C560.97 274.167033 579.97 274.537033 579.97 277.097033 579.97 278.147033 581.08 281.097033 582.38 284.217033 584.26 288.717033 586.55 293.587033 586.55 293.587033 586.55 293.587033 587.12 320.307033 571.77 326.547033zM479.69 560.737033C479.69 560.737033 456.1 573.807033 458.37 564.147033 458.818721 561.541883 458.675172 558.869135 457.95 556.327033 456.686122 551.510131 454.891816 546.84829 452.6 542.427033 450.27 537.727033 448.14 534.307033 448.14 534.307033 448.14 534.307033 472.01 519.237033 472.3 524.927033 472.794767 529.003888 473.499032 533.052576 474.41 537.057033 475.87 544.117033 477.73 552.307033 478.81 556.967033L479.69 560.737033z"/>
    <path fill="#000" fill-rule="nonzero" d="M479.69,560.737033 C479.69,560.737033 456.1,573.807033 458.37,564.147033 C458.818721,561.541883 458.675172,558.869135 457.95,556.327033 C460.646116,555.25102 463.500922,554.626004 466.4,554.477033 C469.51,552.197033 477.22,556.107033 478.81,556.967033 L479.69,560.737033 Z" opacity=".1"/>
    <path fill="#4D507F" fill-rule="nonzero" d="M466.4,555.617033 C466.4,555.617033 453.54,556.187033 454.96,562.157033 C456.38,568.127033 450.42,584.887033 450.42,584.887033 C450.42,584.887033 444.16,594.267033 448.14,598.537033 C452.12,602.807033 486.79,605.927033 488.21,602.227033 C489.63,598.527033 484.21,575.517033 484.21,575.517033 L479.11,558.307033 C479.11,558.307033 469.88,553.057033 466.4,555.617033 Z"/>
    <path fill="#FFCCD0" fill-rule="nonzero" d="M560.97,428.677033 L543.25,433.677033 C542.606746,431.151237 541.705333,428.698322 540.56,426.357033 C539.954704,425.117875 539.259513,423.924687 538.48,422.787033 C535.67,418.727033 531.48,415.487033 525.54,417.307033 C512.54,421.307033 525.54,391.587033 525.54,391.587033 C525.54,391.587033 529.06,390.087033 532.61,388.407033 L533.44,387.997033 C536.31,386.587033 539.04,385.107033 539.71,384.247033 C540.99,382.627033 552.81,395.407033 557.3,400.367033 C558.36,401.537033 559,402.277033 559,402.277033 L559.83,413.427033 L560.97,428.677033 Z"/>
    <path fill="#000" fill-rule="nonzero" d="M560.97,428.677033 L543.25,433.677033 C542.606746,431.151237 541.705333,428.698322 540.56,426.357033 C541.28,423.987033 543.21,419.997033 547.9,420.597033 C553.3,421.297033 552.54,402.417033 544.96,397.867033 C537.38,393.317033 532.83,393.037033 532.83,393.037033 C532.345668,391.540828 532.269718,389.94242 532.61,388.407033 L533.44,387.997033 C536.31,386.587033 539.04,385.107033 539.71,384.247033 C540.99,382.627033 552.81,395.407033 557.3,400.367033 C558.19,405.267033 558.58,409.877033 559.83,413.427033 L560.97,428.677033 Z" opacity=".1"/>
    <path fill="#4D507F" fill-rule="nonzero" d="M533.97,393.057033 C533.130704,390.467012 533.518816,387.635591 535.024103,385.366949 C536.529391,383.098307 538.987397,381.640301 541.7,381.407033 C546.25,381.017033 551.2,382.117033 554.15,387.407033 C560.69,399.067033 557.84,412.717033 563.81,418.117033 C569.78,423.517033 572.34,441.117033 568.08,443.687033 C563.82,446.257033 549.7,458.747033 548.37,451.637033 C547.04,444.527033 541.31,428.057033 541.31,428.057033 C541.31,428.057033 542.45,419.807033 549.03,420.657033 C554.44,421.357033 553.68,402.477033 546.1,397.927033 C538.52,393.377033 533.97,393.097033 533.97,393.097033 L533.97,393.057033 Z"/>
    <path fill="#000" fill-rule="nonzero" d="M474.41 537.057033C468.31 538.817033 459.49 541.207033 452.6 542.427033 450.27 537.727033 448.14 534.307033 448.14 534.307033 448.14 534.307033 472.01 519.237033 472.3 524.927033 472.794767 529.003888 473.499032 533.052576 474.41 537.057033L474.41 537.057033zM538.48 422.807033C535.67 418.747033 531.48 415.507033 525.54 417.327033 512.54 421.327033 525.54 391.607033 525.54 391.607033 525.54 391.607033 529.63 389.867033 533.44 388.017033 535.79 387.857033 539.86 388.097033 541.17 391.257033 543.02 395.707033 543.42 413.177033 538.48 422.807033z" opacity=".1"/>
    <path fill="#C4C9D8" fill-rule="nonzero" d="M537.01,423.467033 C531.7,432.937033 506.31,429.907033 506.31,429.907033 C486.23,416.647033 468.8,360.907033 468.8,360.907033 L466.14,431.017033 C466.14,431.017033 472.58,437.447033 471.07,441.627033 C469.56,445.807033 472.21,453.367033 472.21,453.367033 C472.21,453.367033 477.89,515.887033 476.37,519.687033 C474.85,523.487033 481.68,532.567033 481.68,532.567033 C481.68,532.567033 445.68,543.937033 442.26,540.147033 C438.84,536.357033 442.26,532.147033 442.26,532.147033 L442.26,524.557033 C426.74,492.727033 426.35,461.277033 425.26,460.137033 C424.17,458.997033 423.37,452.137033 422.97,450.297033 C422.57,448.457033 422.97,441.947033 422.97,441.947033 C422.97,441.947033 423.41,436.647033 421.14,433.617033 C418.87,430.587033 422.97,421.487033 422.97,421.487033 C422.320064,414.387388 420.413767,407.45971 417.34,401.027033 C412.42,391.177033 406.15,353.277033 406.15,353.277033 C406.15,353.277033 404.46,347.587033 405.98,344.567033 C407.5,341.547033 398.4,324.107033 398.4,324.107033 C398.4,324.107033 400.68,311.597033 401.05,308.567033 C401.42,305.537033 391.58,299.277033 391.58,299.277033 L396.18,287.067033 L401.05,274.067033 C401.05,274.067033 513.97,276.337033 518.52,277.847033 C520.72,278.577033 522.73,282.737033 524.23,286.847033 C525.2614,289.736188 526.142579,292.676788 526.87,295.657033 C526.87,295.657033 525.73,336.197033 528,343.397033 C530.27,350.597033 529.51,354.397033 529.51,354.397033 C529.51,354.397033 526.87,368.797033 528.75,373.717033 C530.63,378.637033 530.65,388.127033 530.65,388.127033 C530.65,388.127033 538.23,386.607033 540.12,391.127033 C542.01,395.647033 542.3,413.997033 537.01,423.467033 Z"/>
    <path fill="#4D507F" fill-rule="nonzero" d="M763.98 588.107033C762.67 587.927033 756.41 566.507033 756.79 559.107033 757.02 554.657033 758.5 547.027033 759.65 541.667033 760.41 538.157033 761.02 535.667033 761.02 535.667033L785.21 538.307033C785.21 538.307033 785.53 540.947033 785.92 544.647033 786.7 551.917033 787.73 563.267033 787.11 566.527033 786.11 571.467033 792.79 572.597033 796.95 585.477033 801.11 598.357033 765.31 588.307033 763.98 588.107033zM732.15 467.037033C730.86 469.137033 730.3 473.827033 730.06 477.777033 729.83 481.327033 729.88 484.287033 729.88 484.287033 729.88 484.287033 730.45 499.827033 723.25 508.527033 716.05 517.227033 706.39 509.097033 702.41 494.137033 699.65 483.737033 706.95 472.357033 711.66 466.377033 713.73 463.757033 715.29 462.177033 715.29 462.177033 715.29 462.177033 734.58 463.057033 732.15 467.037033z"/>
    <path fill="#29A389" fill-rule="nonzero" d="M743.04 106.857033C743.04 106.857033 716.24 104.777033 715.29 118.607033 714.34 132.437033 716.7 143.087033 737.22 144.777033 757.74 146.467033 750.34 107.127033 750.34 107.127033L743.04 106.857033zM792.64 113.797033C792.64 113.797033 818.93 109.697033 818.74 119.937033 818.55 130.177033 798.67 143.487033 798.67 143.487033L792.64 113.797033z"/>
    <path fill="#000" fill-rule="nonzero" d="M744.03 106.857033C744.03 106.857033 717.24 104.777033 716.29 118.607033 715.34 132.437033 717.69 143.087033 738.21 144.777033 758.73 146.467033 751.34 107.127033 751.34 107.127033L744.03 106.857033zM794.87 113.797033C794.87 113.797033 821.16 109.697033 820.97 119.937033 820.78 130.177033 800.89 143.487033 800.89 143.487033L794.87 113.797033z" opacity=".15"/>
    <path fill="#663D5C" fill-rule="nonzero" d="M750.58,102.937033 C743.221655,105.893087 736.301137,109.839498 730.01,114.667033 C729.120327,115.209546 728.450934,116.048943 728.12,117.037033 C728.066894,117.833632 728.083625,118.633352 728.17,119.427033 C728.01,123.427033 721.96,123.767033 719.24,126.737033 C717.31,128.837033 717.34,132.137033 718.24,134.837033 C719.14,137.537033 720.85,139.917033 721.93,142.557033 C724.321922,148.567474 723.548739,155.375984 719.87,160.697033 C716.77,165.087033 711.98,167.947033 708.23,171.787033 C703.23,176.957033 700.16,185.367033 704.14,191.407033 C706.57,195.107033 711.02,197.037033 713.62,200.607033 C716.42,204.477033 716.62,209.667033 715.95,214.397033 C715.28,219.127033 713.85,223.777033 713.81,228.557033 C713.72,237.897033 719.14,246.757033 726.69,252.267033 C734.24,257.777033 743.69,260.267033 753,260.767033 C756.31,260.957033 759.75,260.897033 762.76,259.517033 C765.77,258.137033 768.13,255.517033 770.19,252.857033 C776.400625,244.864299 781.168813,235.849072 784.28,226.217033 C785.63,222.047033 786.75,217.617033 789.65,214.337033 C791.772511,212.198943 794.240464,210.434188 796.95,209.117033 L810.27,201.657033 C814.64,199.207033 819.43,196.227033 820.58,191.357033 C821.88,185.837033 818.04,179.417033 821.16,174.677033 C822.16,173.137033 823.8,172.087033 824.95,170.677033 C828.18,166.597033 826.95,160.577033 824.66,155.907033 C822.794162,152.084367 820.367342,148.562108 817.46,145.457033 C814.95,142.797033 812.02,140.347033 810.64,136.957033 C809.58,134.357033 809.54,131.427033 808.59,128.787033 C806.59,123.287033 801.17,119.937033 797.53,115.367033 C794.53,111.577033 792.7,106.867033 789.19,103.557033 C783.5,98.177033 777.19,99.897033 770.19,100.107033 C766.73,100.217033 763.51,98.937033 760.1,98.877033 C756.1,98.767033 754.35,101.427033 750.58,102.937033 Z"/>
    <path fill="#33CCAB" fill-rule="nonzero" d="M795.95,112.517033 L737.09,106.517033 C737.09,106.517033 737.3,105.817033 737.66,104.517033 C739.074571,99.3411967 740.212845,94.0937846 741.07,88.797033 C742.58,79.197033 764.58,76.737033 764.58,76.737033 C775.89374,75.6942702 786.806957,81.2149826 792.67,90.947033 L795.16,107.307033 L795.95,112.517033 Z"/>
    <path fill="#CE828D" fill-rule="nonzero" d="M807.09 176.207033L798 199.507033 759.63 206.047033C759.63 206.047033 714.73 196.387033 735.47 176.207033 737.883064 173.890214 740.116187 171.392994 742.15 168.737033 744.178348 166.122623 745.80619 163.220818 746.98 160.127033 750.3 150.867033 745.14 146.367033 745.14 146.367033 745.14 146.367033 782.93 129.027033 783.5 148.637033 783.624989 153.049717 784.94525 157.345748 787.32 161.067033 788.638119 163.124188 790.191977 165.020366 791.95 166.717033 796.327861 170.839553 801.471551 174.063702 807.09 176.207033L807.09 176.207033zM931.1 151.197033C930.1 151.197033 926.2 154.197033 922.93 156.877033 920.27 159.067033 918.02 161.047033 918.02 161.047033L911.77 140.397033C913.238011 139.645412 914.648513 138.786409 915.99 137.827033 917.48 136.727033 918.78 135.427033 918.78 134.307033 918.78 131.677033 924.66 109.507033 929.02 118.037033 933.38 126.567033 932.99 151.197033 931.1 151.197033z"/>
    <path fill="#000" fill-rule="nonzero" d="M479.78 108.567033L438.49 132.817033C438.49 132.817033 388.83 119.937033 402.49 108.937033 408.57 104.047033 411.12 93.597033 412.06 83.497033 420.34 97.627033 433.92 98.497033 440.13 98.007033 442 97.877033 443.88 97.887033 445.75 97.837033 454.35 97.597033 462.25 84.887033 463.75 82.267033 468.98 95.437033 479.78 108.567033 479.78 108.567033zM524.14 286.957033C524.14 287.127033 524.14 287.287033 524.14 287.417033 523.76 290.827033 507.84 296.517033 507.84 296.517033 507.84 296.517033 434.71 305.607033 428.27 299.517033 422.27 293.917033 399.53 287.997033 396.11 287.117033L400.98 274.117033C400.98 274.117033 513.9 276.387033 518.45 277.897033 520.63 278.677033 522.64 282.837033 524.14 286.957033z" opacity=".1"/>
    <path fill="#B9EFE9" fill-rule="nonzero" d="M522.98,245.747033 C522.98,245.747033 532.83,262.407033 525.98,266.207033 C519.13,270.007033 524.47,281.737033 524.09,285.147033 C523.71,288.557033 507.79,294.237033 507.79,294.237033 C507.79,294.237033 434.66,303.337033 428.22,297.237033 C421.78,291.137033 395.62,284.727033 395.62,284.727033 C392.137671,275.811163 387.694818,267.301004 382.37,259.347033 C374.03,247.217033 385.02,224.857033 385.02,224.857033 C385.02,224.857033 382.37,210.467033 376.69,206.287033 C371.01,202.107033 363.45,162.757033 361.58,151.007033 C359.71,139.257033 335.43,155.177033 335.43,155.177033 C335.43,155.177033 304.74,157.077033 298.31,155.177033 C298.181371,155.140807 298.059697,155.083349 297.95,155.007033 C293.17,151.777033 323.31,116.897033 323.31,116.897033 C323.31,116.897033 346.05,112.737033 345.66,105.897033 C345.4,101.117033 356.45,94.117033 363.11,90.347033 C365.98,88.717033 368.03,87.697033 368.03,87.697033 L377.12,87.697033 C380.53,87.697033 379.02,82.397033 379.02,82.397033 C379.02,82.397033 385.84,83.157033 389.63,79.747033 C393.42,76.337033 411.99,84.457033 411.99,84.457033 C420.26,98.737033 433.93,99.577033 440.16,99.117033 C442.03,98.997033 443.91,99.007033 445.78,98.947033 C455.37,98.687033 464.08,82.947033 464.08,82.947033 C464.08,82.947033 491.18,84.697033 510.08,96.827033 C528.98,108.957033 548.35,144.187033 548.35,144.187033 C548.35,144.187033 519.93,179.437033 515.35,178.687033 C510.77,177.937033 520.64,195.737033 520.64,195.737033 L522.98,245.747033 Z"/>
    <path fill="#000" fill-rule="nonzero" d="M363.08 90.367033C362.02 93.937033 360.81 98.077033 360.41 99.847033 359.66 103.257033 351.71 106.677033 351.71 106.677033 351.71 106.677033 344.12 116.897033 344.88 118.797033 345.64 120.697033 338.44 127.887033 335.4 134.707033 332.36 141.527033 300.58 155.177033 300.58 155.177033 299.699688 155.225971 298.816686 155.168895 297.95 155.007033 293.17 151.777033 323.31 116.897033 323.31 116.897033 323.31 116.897033 346.05 112.737033 345.66 105.897033 345.37 101.137033 356.42 94.137033 363.08 90.367033zM369.35 74.377033C367.713767 75.0556873 366.123702 75.8406982 364.59 76.727033L351.23 62.807033C351.23 62.807033 352.93 61.007033 355.23 58.477033 355.39 63.567033 365.31 71.407033 369.35 74.377033z" opacity=".1"/>
    <path fill="#B9EFE9" fill-rule="nonzero" d="M354.35,58.167033 L343.35,64.987033 C343.35,64.987033 331.98,67.237033 327.81,76.717033 C323.64,86.197033 311.58,88.477033 311.58,88.477033 L304.01,100.987033 C304.01,100.987033 285.06,108.987033 283.92,132.817033 C282.78,156.647033 298.32,155.177033 298.32,155.177033 C298.32,155.177033 330.15,141.537033 333.18,134.707033 C336.21,127.877033 343.42,120.707033 342.66,118.797033 C341.9,116.887033 349.48,106.677033 349.48,106.677033 C349.48,106.677033 357.48,103.257033 358.19,99.847033 C358.9,96.437033 362.74,84.227033 362.74,84.227033 L369.94,76.717033 C369.94,76.717033 351.7,64.227033 354.35,58.167033 Z"/>
    <path fill="#000" fill-rule="nonzero" d="M582.42,284.217033 C576.7,283.737033 560.18,282.637033 557.42,285.657033 C557.21,284.657033 557.06,284.007033 557.06,284.007033 L560.95,274.167033 C560.95,274.167033 579.95,274.537033 579.95,277.097033 C580.01,278.147033 581.12,281.097033 582.42,284.217033 Z" opacity=".1"/>
    <path fill="#B9EFE9" fill-rule="nonzero" d="M534.35,132.817033 L548.35,144.187033 L554.79,165.027033 C554.79,165.027033 563.13,182.457033 568.06,191.557033 C572.99,200.657033 574.88,215.047033 574.88,215.047033 C574.88,215.047033 576.01,221.867033 578.29,224.137033 C580.57,226.407033 578.29,233.617033 578.29,233.617033 C578.29,233.617033 580.94,241.947033 583.21,244.987033 C585.48,248.027033 583.21,262.037033 583.21,262.037033 L584.21,267.717033 C584.21,267.717033 588.13,273.787033 585.86,274.157033 C583.59,274.527033 584.34,282.157033 584.34,282.157033 C584.34,282.157033 558.19,279.507033 557.06,284.057033 C557.06,284.057033 552.89,272.687033 553.65,268.897033 C554.41,265.107033 548.34,254.897033 548.34,254.897033 C548.34,254.897033 545.69,250.727033 546.83,246.177033 C547.97,241.627033 541.9,228.747033 541.9,228.747033 C541.9,228.747033 540.76,217.377033 538.49,218.137033 C536.22,218.897033 534.7,213.217033 534.32,210.937033 C533.94,208.657033 525.98,193.507033 525.98,193.507033 L510.07,174.177033 L534.35,132.817033 Z"/>
    <path fill="#000" fill-rule="nonzero" d="M787.32,161.067033 C775.319987,170.262486 758.538677,169.871449 746.98,160.127033 C750.3,150.867033 745.14,146.367033 745.14,146.367033 C745.14,146.367033 782.93,129.027033 783.5,148.637033 C783.624989,153.049717 784.94525,157.345748 787.32,161.067033 L787.32,161.067033 Z" opacity=".1"/>
    <circle cx="767.73" cy="134.307" r="32.26" fill="#CE828D" fill-rule="nonzero"/>
    <path fill="#000" fill-rule="nonzero" d="M807.09 176.207033L798 199.507033 759.63 206.047033C759.63 206.047033 714.73 196.387033 735.47 176.207033 737.883064 173.890214 740.116187 171.392994 742.15 168.737033 751.97 193.307033 768.58 190.987033 768.58 190.987033 791.58 186.637033 792.31 171.267033 791.99 166.717033 796.356041 170.835148 801.485769 174.059063 807.09 176.207033L807.09 176.207033zM922.93 156.877033C920.27 159.067033 918.02 161.047033 918.02 161.047033L911.77 140.397033C913.238011 139.645412 914.648513 138.786409 915.99 137.827033 918.69 141.307033 921.29 150.237033 922.93 156.877033zM614.12 295.767033C614.12 295.767033 612.36 297.877033 609.59 300.967033 606.35 297.637033 601.19 292.027033 598.68 287.777033 602.68 285.677033 605.59 284.007033 605.59 284.007033L614.12 295.767033z" opacity=".1"/>
    <path fill="#33CCAB" fill-rule="nonzero" d="M923.58,164.837033 L909.93,169.127033 C909.93,169.127033 890.04,179.337033 887.2,184.127033 C884.36,188.917033 837.75,204.017033 837.75,204.017033 C839.17,209.697033 824.67,231.867033 824.67,231.867033 C824.67,231.867033 822.97,251.197033 817.28,260.577033 C812.28,268.787033 816.04,289.577033 817.06,294.687033 C817.19,295.407033 817.28,295.817033 817.28,295.817033 C817.28,295.817033 702.46,303.207033 699.62,298.087033 C699.477762,297.820426 699.376621,297.533858 699.32,297.237033 C697.75,290.907033 707.16,270.947033 710.14,267.967033 C713.26,264.837033 708.83,243.527033 708.83,243.527033 C708.83,243.527033 680.58,261.997033 675.75,270.527033 C670.92,279.057033 621.47,298.667033 621.47,298.667033 L613.47,302.667033 C613.47,302.667033 596.42,286.187033 598.41,281.917033 C600.4,277.647033 614.97,272.307033 614.97,272.307033 C614.97,272.307033 645.66,249.007033 647.97,247.577033 C649.743999,246.233593 651.278836,244.600715 652.51,242.747033 L655.36,240.747033 C655.36,240.747033 657.36,238.747033 662.75,236.487033 C668.14,234.227033 680.94,218.017033 680.94,218.017033 C680.94,218.017033 694.29,203.807033 696,197.017033 C697.344589,192.297412 699.365561,187.79738 702,183.657033 C708.245646,182.64386 714.111338,179.993947 719,175.977033 C727.47,169.207033 741.67,169.187033 741.86,169.187033 C751.64,194.497033 768.55,192.187033 768.55,192.187033 C795.65,187.077033 791.82,166.637033 791.82,166.637033 C791.82,166.637033 811.08,155.527033 815.34,155.817033 C819.6,156.107033 839.79,156.947033 844.62,159.507033 C849.45,162.067033 862.81,157.237033 862.81,157.237033 C862.81,157.237033 869.91,151.547033 878.15,150.127033 C886.39,148.707033 900.32,143.307033 900.32,143.307033 C900.32,143.307033 907.99,135.067033 913.11,136.487033 C918.23,137.907033 923.58,164.837033 923.58,164.837033 Z"/>
    <path fill="#000" fill-rule="nonzero" d="M817.32 295.857033C817.32 295.857033 702.5 303.247033 699.66 298.127033 699.517762 297.860426 699.416621 297.573858 699.36 297.277033 699.450135 297.17366 699.550664 297.079833 699.66 296.997033L718.14 298.787033C718.14 298.787033 726.51 285.057033 729.99 277.097033 729.99 277.097033 742.29 255.497033 742.29 248.397033 742.29 248.397033 797.14 247.257033 805.39 243.277033 805.39 243.277033 806.92 292.277033 811.39 295.087033L817.08 294.727033C817.23 295.447033 817.32 295.857033 817.32 295.857033zM732.15 467.037033C730.86 469.137033 730.3 473.827033 730.06 477.777033 723.73 477.447033 714.16 474.337033 714.16 474.337033 713.755165 471.554895 712.911335 468.85464 711.66 466.337033 713.73 463.717033 715.29 462.137033 715.29 462.137033 715.29 462.137033 734.58 463.057033 732.15 467.037033zM785.92 544.627033C778.92 544.627033 766.78 544.227033 759.65 541.627033 760.41 538.117033 761.02 535.627033 761.02 535.627033L785.21 538.307033C785.21 538.307033 785.58 540.927033 785.92 544.627033z" opacity=".1"/>
    <path fill="#575A89" fill-rule="nonzero" d="M823.58,341.897033 C821.108265,356.670585 817.769158,371.285855 813.58,385.667033 C813.58,385.667033 808.18,406.397033 808.46,412.227033 C808.74,418.057033 804.46,453.587033 804.46,453.587033 C804.46,453.587033 799.63,471.777033 800.77,480.017033 C801.91,488.257033 790.77,531.177033 790.77,531.177033 L791.34,542.257033 C791.34,542.257033 757.52,543.687033 754.11,535.437033 L755.53,525.777033 L758.37,499.067033 C758.37,499.067033 762.07,469.217033 760.37,462.067033 C758.67,454.917033 755.94,426.307033 755.94,426.307033 L755.65,456.997033 C755.65,456.997033 750.54,466.667033 744.85,468.937033 C739.16,471.207033 738.31,474.937033 732.35,475.477033 C726.39,476.017033 714.16,472.067033 714.16,472.067033 C713.696614,468.864244 712.634814,465.777221 711.03,462.967033 C708.47,458.707033 711.03,444.207033 711.03,444.207033 C711.03,444.207033 713.3,434.547033 709.89,432.277033 C706.48,430.007033 703.07,414.657033 704.49,410.107033 C704.8,409.107033 704.57,407.347033 704.04,405.107033 C702.71,399.307033 699.49,390.197033 698.45,381.897033 C697.974382,378.714374 698.018286,375.47563 698.58,372.307033 C701.13,359.797033 699.71,341.307033 699.71,341.307033 C699.71,341.307033 695.17,301.237033 699.71,298.107033 L718.19,299.907033 C718.19,299.907033 726.56,286.177033 730.04,278.217033 C730.04,278.217033 742.34,256.617033 742.34,249.507033 C742.34,249.507033 797.19,248.377033 805.44,244.397033 C805.44,244.397033 806.97,293.397033 811.44,296.197033 L817.35,295.837033 C817.35,295.837033 827.27,318.877033 823.58,341.897033 Z"/>
    <path fill="#CE828D" fill-rule="nonzero" d="M796.69,448.307033 C796.61745,449.364353 796.302668,450.390816 795.77,451.307033 C794.08,455.017033 790.41,460.677033 788.33,461.877033 C784.92,463.877033 769.58,456.477033 769.33,453.777033 C769.294466,451.932562 769.530322,450.092888 770.03,448.317033 C770.39,446.817033 770.75,445.677033 770.75,445.677033 C770.75,445.677033 792.07,450.517033 795.75,448.237033 L795.81,448.237033 C796.37,447.817033 796.64,447.897033 796.69,448.307033 Z"/>
    <path fill="#000" fill-rule="nonzero" d="M756,224.207033 C755.91,227.987033 756,236.697033 756,242.847033 C756,246.687033 756.07,249.527033 756.07,249.527033 L741.16,249.527033 C741.16,249.527033 741.02,246.927033 740.87,242.847033 C740.7,238.137033 740.52,231.477033 740.55,224.577033 C740.55,222.827033 740.55,221.067033 740.61,219.307033 C740.71,214.207033 740.96,209.227033 741.44,205.057033 C743.28,188.847033 727.7,171.057033 727.7,171.057033 C731.29,166.797033 740.7,169.057033 740.7,169.057033 C740.7,169.057033 745.98,184.227033 750.09,195.457033 C752.763081,202.933057 754.679344,210.658412 755.81,218.517033 C756.017395,219.819605 756.104428,221.138504 756.07,222.457033 C756.05,222.827033 756.03,223.407033 756,224.207033 Z" opacity=".1"/>
    <path fill="#575A89" fill-rule="nonzero" d="M757.14,224.207033 C757.05,227.987033 757.14,236.697033 757.14,242.847033 C757.14,246.687033 757.21,249.527033 757.21,249.527033 L742.29,249.527033 C742.29,249.527033 742.16,246.927033 742.01,242.847033 C741.84,238.137033 741.66,231.477033 741.69,224.577033 C741.69,222.827033 741.69,221.067033 741.75,219.307033 C741.85,214.207033 742.1,209.227033 742.58,205.057033 C744.42,188.847033 728.83,171.057033 728.83,171.057033 C732.43,166.797033 741.83,169.057033 741.83,169.057033 C741.83,169.057033 747.1,184.227033 751.22,195.457033 C753.888402,202.934469 755.804548,210.659351 756.94,218.517033 C757.147395,219.819605 757.234428,221.138504 757.2,222.457033 C757.19,222.827033 757.16,223.407033 757.14,224.207033 Z"/>
    <path fill="#000" fill-rule="nonzero" d="M818.88,214.157033 C818.61,215.527033 818.36,217.777033 818.1,220.407033 C817.56,225.717033 816.99,232.587033 816.1,237.027033 C815.6,239.447033 814.99,241.127033 814.24,241.437033 L810.58,242.847033 L806.48,244.417033 L801.1,245.267033 L802.1,242.847033 C802.74,241.337033 803.61,239.247033 804.52,237.027033 C806.6,231.967033 808.86,226.177033 809.01,224.657033 C809.08,223.987033 809.31,222.447033 809.58,220.407033 C809.82,218.627033 810.08,216.467033 810.28,214.157033 C810.85,207.867033 810.99,200.477033 809.01,196.667033 C805.46,189.847033 797.01,164.247033 797.01,164.247033 C798.397163,160.422541 802.482106,158.297502 806.41,159.357033 C806.41,159.357033 814.12,184.727033 814.25,188.147033 C814.38,191.567033 820.02,208.467033 818.88,214.157033 Z" opacity=".1"/>
    <path fill="#575A89" fill-rule="nonzero" d="M817.74,214.157033 C817.47,215.527033 817.22,217.777033 816.96,220.407033 C816.43,225.717033 815.86,232.587033 814.96,237.027033 C814.46,239.447033 813.85,241.127033 813.1,241.437033 L809.52,242.847033 C808.059388,243.458344 806.69253,244.273072 805.46,245.267033 L799.53,246.187033 C799.53,246.187033 800.45,244.327033 801.07,242.847033 C801.69,241.367033 802.58,239.247033 803.49,237.027033 C805.57,231.967033 807.84,226.177033 807.98,224.657033 C808.05,223.987033 808.28,222.447033 808.55,220.407033 C808.79,218.627033 809.05,216.467033 809.26,214.157033 C809.83,207.867033 809.96,200.477033 807.98,196.667033 C804.44,189.847033 795.98,164.247033 795.98,164.247033 C797.367163,160.422541 801.452106,158.297502 805.38,159.357033 C805.38,159.357033 813.09,184.727033 813.23,188.147033 C813.37,191.567033 818.88,208.467033 817.74,214.157033 Z"/>
    <path fill="#FFF" fill-rule="nonzero" d="M757.22 222.527033C757.22 222.827033 757.16 223.407033 757.14 224.207033L741.69 224.577033C741.69 222.827033 741.69 221.067033 741.75 219.307033L756.96 218.587033C757.167395 219.889605 757.254428 221.208504 757.22 222.527033zM757.22 249.527033L742.29 249.527033C742.29 249.527033 742.16 246.927033 742.01 242.847033L757.15 242.847033C757.19 246.687033 757.22 249.527033 757.22 249.527033zM817.74 214.157033C817.47 215.527033 817.22 217.777033 816.96 220.407033L808.51 220.407033C808.75 218.627033 809.01 216.467033 809.22 214.157033L817.74 214.157033zM814.92 237.027033C814.42 239.447033 813.81 241.127033 813.06 241.437033L809.48 242.847033 801.03 242.847033C801.67 241.337033 802.54 239.247033 803.45 237.027033L814.92 237.027033z"/>
    <path fill="#000" fill-rule="nonzero" d="M487.34 132.817033C487.34 132.817033 490.83 163.537033 501.79 166.567033 512.75 169.597033 507.27 155.197033 507.27 155.197033L497.99 143.487033 487.34 132.817033zM414.58 188.037033C414.58 188.037033 456.23 229.647033 474.27 221.577033 492.31 213.507033 434.03 217.877033 414.58 188.037033zM461.93 244.417033C461.93 244.417033 489.71 246.087033 497.99 237.027033 506.27 227.967033 461.93 244.417033 461.93 244.417033zM442 279.787033C440.78 278.917033 492.33 277.297033 506.28 266.787033 520.23 256.277033 475.38 303.697033 442 279.787033zM354.3 116.097033C354.3 116.097033 365.3 127.257033 366.3 136.257033 367.3 145.257033 354.3 116.097033 354.3 116.097033zM382.21 125.787033C382.21 125.787033 381.21 155.417033 393.4 161.047033 405.59 166.677033 378.22 148.177033 382.21 125.787033zM541.31 205.307033C541.31 205.307033 563.08 196.307033 566.57 202.157033 570.06 208.007033 563.57 208.997033 563.57 208.997033L541.31 205.307033zM569.58 234.307033C560.58 239.937033 553.83 239.447033 554.48 244.427033 555.13 249.407033 555.93 247.477033 562.01 246.197033 568.09 244.917033 569.58 234.307033 569.58 234.307033zM576.21 257.487033C576.21 257.487033 565.38 266.827033 561.99 267.327033 558.6 267.827033 576.21 257.487033 576.21 257.487033z" opacity=".05"/>
    <path fill="#000" fill-rule="nonzero" d="M730 333.597033C728.58 332.187033 776.84 333.597033 788.3 330.597033 788.3 330.597033 794.11 339.067033 782.98 341.067033 771.85 343.067033 722.53 346.067033 722.53 346.067033 722.53 346.067033 737.46 341.077033 730 333.597033zM717.09 393.387033C715.33 396.387033 709.46 401.087033 704.09 405.057033 702.76 399.257033 699.54 390.147033 698.5 381.847033L708.92 376.947033C708.58 376.947033 720.58 387.407033 717.09 393.387033zM665.84 240.977033C665.84 240.977033 698.14 235.637033 708.09 224.577033 708.09 224.577033 704.33 243.527033 665.84 240.977033zM657.75 259.857033C657.75 259.857033 662.75 261.857033 671.21 259.857033 679.67 257.857033 657.75 259.857033 657.75 259.857033zM728.83 257.487033C728.83 257.487033 710.7 272.627033 715.12 275.957033 719.54 279.287033 728.83 257.487033 728.83 257.487033zM728.83 229.457033C728.83 229.457033 713.14 229.147033 717.09 237.027033 721.04 244.907033 728.83 229.457033 728.83 229.457033zM758.37 126.227033C759.351685 126.122187 760.299571 125.808498 761.15 125.307033 765.116224 123.494196 769.569801 123.040753 773.82 124.017033 779.91 125.437033 784.98 129.677033 790.92 131.647033 794.34 132.787033 798.92 132.697033 800.61 129.507033 802.1 126.677033 800.34 123.287033 798.61 120.587033 795.61 115.797033 792.32 110.807033 787.33 108.087033 784.4578 106.687512 781.389337 105.733253 778.23 105.257033 771.89 104.027033 765.39 103.087033 758.98 103.927033 753.98 104.587033 739.51 107.927033 741.79 115.617033 742.93 119.467033 746.95 118.927033 749.96 120.237033 752.82 121.497033 755.18 126.307033 758.37 126.227033z" opacity=".1"/>
    <path fill="#663D5C" fill-rule="nonzero" d="M758.37,123.957033 C759.349597,123.842647 760.295555,123.529596 761.15,123.037033 C765.114828,121.21906 769.570133,120.765441 773.82,121.747033 C779.91,123.167033 784.98,127.397033 790.92,129.377033 C794.34,130.517033 798.92,130.427033 800.61,127.237033 C802.1,124.397033 800.34,121.017033 798.61,118.317033 C795.61,113.527033 792.32,108.537033 787.33,105.817033 C784.459599,104.412978 781.390426,103.458499 778.23,102.987033 C771.89,101.757033 765.39,100.817033 758.98,101.647033 C753.98,102.307033 739.51,105.647033 741.79,113.347033 C742.93,117.197033 746.95,116.647033 749.96,117.967033 C752.82,119.217033 755.18,124.007033 758.37,123.957033 Z"/>
    <path fill="#000" fill-rule="nonzero" d="M795.95,112.517033 L737.09,106.517033 C737.09,106.517033 737.3,105.817033 737.66,104.517033 C750.01,101.247033 780.54,94.887033 795.16,107.267033 L795.95,112.517033 Z" opacity=".1"/>
    <path fill="#29A389" fill-rule="nonzero" d="M732.29,107.307033 C732.29,107.307033 786.17,89.617033 800,114.377033 C800,114.307033 771.36,118.517033 732.29,107.307033 Z"/>
    <path fill="#000" fill-rule="nonzero" d="M757.75 408.517033C756.761371 409.008 755.561906 408.605195 755.07 407.617033 754.642749 406.636255 754.500648 405.554897 754.66 404.497033L754.93 399.757033C755.34 392.537033 755.76 385.217033 758 378.337033 760.525073 371.060889 764.622178 364.430407 770 358.917033M749.58 265.307033C749.58 265.307033 776.58 258.307033 782.95 260.747033 789.32 263.187033 787.17 266.977033 782.95 267.357033 778.73 267.737033 749.58 265.307033 749.58 265.307033zM741.69 284.017033C747.69 288.187033 795.95 288.187033 795.95 288.187033L741.69 284.017033zM519.76 296.517033C519.76 296.517033 521.76 301.447033 508.89 306.367033 496.02 311.287033 519.76 296.517033 519.76 296.517033zM510.1 334.037033C510.1 334.037033 493.26 333.657033 499.03 341.617033 504.8 349.577033 510.1 334.037033 510.1 334.037033zM406.65 300.787033C406.65 300.787033 433.17 315.087033 444.16 316.607033 455.15 318.127033 424.08 322.877033 406.65 300.787033zM429.38 417.777033C429.38 417.777033 430.7 424.597033 441.98 428.007033 453.26 431.417033 461.89 428.767033 461.980185 428.007033 462.07 427.247033 429.38 417.777033 429.38 417.777033zM459.51 567.707033C459.51 567.707033 473.44 574.707033 476.56 567.707033M555.29 429.707033C555.29 429.707033 552.99 437.127033 548.75 437.387033M800.58 124.957033C798.9 128.157033 794.31 128.237033 790.89 127.097033 784.95 125.097033 779.89 120.897033 773.79 119.467033 769.539801 118.490753 765.086224 118.944196 761.12 120.757033 760.270218 121.259923 759.322015 121.573717 758.34 121.677033 755.15 121.727033 752.79 116.947033 749.94 115.677033 746.94 114.357033 742.94 114.897033 741.77 111.047033 741.723945 110.899485 741.687206 110.749189 741.66 110.597033 741.45364 111.50066 741.491607 112.442938 741.77 113.327033 742.91 117.177033 746.93 116.627033 749.94 117.947033 752.79 119.197033 755.15 123.947033 758.34 123.947033 759.319965 123.834313 760.266254 123.521153 761.12 123.027033 765.084828 121.20906 769.540133 120.755441 773.79 121.737033 779.88 123.157033 784.95 127.387033 790.89 129.367033 794.31 130.497033 798.89 130.417033 800.58 127.227033 801.12997 126.136665 801.288828 124.890506 801.03 123.697033 800.942486 124.136796 800.790869 124.561325 800.58 124.957033L800.58 124.957033zM796.69 448.307033C796.61745 449.364353 796.302668 450.390816 795.77 451.307033L769.99 448.307033C770.35 446.807033 770.71 445.667033 770.71 445.667033 770.71 445.667033 792.03 450.507033 795.71 448.227033L795.77 448.227033 796.69 448.307033z" opacity=".1"/>
    <path fill="#575A89" fill-rule="nonzero" d="M769.77,443.167033 C769.67,443.457033 769.26,447.057033 769.26,447.057033 L797.9,450.367033 L797.9,447.367033 L769.77,443.167033 Z"/>
    <ellipse cx="30.65" cy="470.617" fill="#F5DD48" fill-rule="nonzero" opacity=".1" rx="30.65" ry="4.21"/>
    <ellipse cx="148.06" cy="482.527" fill="#F5DD48" fill-rule="nonzero" opacity=".1" rx="30.65" ry="4.21"/>
    <ellipse cx="101.07" cy="516.417" fill="#F5DD48" fill-rule="nonzero" opacity=".1" rx="21.79" ry="2.99"/>
    <ellipse cx="222.92" cy="513.427" fill="#F5DD48" fill-rule="nonzero" opacity=".1" rx="21.79" ry="2.99"/>
    <path fill="#F5DD48" fill-rule="nonzero" d="M148.71,481.577033 C148.71,481.577033 105.71,340.657033 155.44,284.217033 C192.63,241.997033 234.84,247.047033 253.75,252.267033 C263.652755,254.901392 271.898015,261.753551 276.3,271.007033 C282.91,285.267033 281.71,308.417033 235.06,335.427033 C156.94,380.657033 152.06,442.697033 152.06,442.697033 L148.71,481.577033 Z"/>
    <path stroke="#565987" d="M247.02 272.307033C247.02 272.307033 120.31 311.927033 148.71 481.627033M173.01 286.457033C173.01 286.457033 190.46 298.217033 184.91 315.887033M234.31 296.927033C234.31 296.927033 223.64 286.077033 210.66 292.057033M184.22 351.497033C184.22 351.497033 165.49 341.987033 160.65 353.897033M137.87 371.307033C137.87 371.307033 151.94 370.187033 152.19 376.917033"/>
    <path fill="#F5DD48" fill-rule="nonzero" d="M146.98,482.697033 C146.98,482.697033 197.32,380.307033 211.15,382.517033 C217.72,383.587033 220.75,390.047033 222.15,396.517033 C223.850983,404.909789 222.893218,413.62406 219.41,421.447033 C212.23,437.857033 193.04,468.987033 146.98,482.697033 Z"/>
    <path stroke="#565987" d="M210.78 401.957033C210.78 401.957033 157.93 478.587033 147.72 481.957033M215.64 413.927033L203.3 413.927033M200.86 441.957033L181.53 442.787033M189.1 419.527033L191.2 429.597033M168.54 450.177033L168.91 459.337033"/>
    <path fill="#F5DD48" fill-rule="nonzero" d="M148.47,482.697033 C148.47,482.697033 98.13,380.307033 84.3,382.517033 C77.73,383.587033 74.7,390.047033 73.3,396.517033 C71.6037131,404.910001 72.5613208,413.622833 76.04,421.447033 C83.22,437.857033 102.41,468.987033 148.47,482.697033 Z"/>
    <path stroke="#565987" d="M84.67 401.957033C84.67 401.957033 137.51 478.587033 147.67 481.957033M79.81 413.927033L92.15 413.927033M94.59 441.957033L113.92 442.787033M106.35 419.527033L104.25 429.597033M126.91 450.177033L126.54 459.337033"/>
    <path fill="#33CCAB" fill-rule="nonzero" d="M234.91 506.617033C236.28053 505.503676 237.281227 504.000887 237.78 502.307033 238.231668 500.552477 237.398913 498.720415 235.78 497.907033 233.94 497.207033 231.97 498.477033 230.48 499.767033 228.99 501.057033 227.29 502.517033 225.34 502.247033 227.380398 500.399828 228.299484 497.615987 227.76 494.917033 227.674862 494.369111 227.443385 493.854334 227.09 493.427033 226.09 492.337033 224.21 492.807033 222.99 493.667033 219.1 496.397033 217.99 501.667033 217.99 506.427033 217.6 504.717033 217.93 502.927033 217.92 501.167033 217.91 499.407033 217.43 497.467033 215.92 496.517033 214.998907 496.023115 213.964771 495.778369 212.92 495.807033 211.17 495.747033 209.23 495.917033 208.03 497.197033 206.55 498.787033 206.93 501.447033 208.22 503.197033 209.51 504.947033 211.48 506.047033 213.28 507.197033 214.730005 508.061162 215.967178 509.240236 216.9 510.647033 217.003889 510.84737 217.094095 511.05451 217.17 511.267033L228.12 511.267033C230.583705 510.032076 232.867977 508.467736 234.91 506.617033L234.91 506.617033zM43.08 465.367033C44.4456968 464.247069 45.4423311 462.741664 45.94 461.047033 46.3969376 459.289308 45.5633765 457.451305 43.94 456.637033 42.1 455.937033 40.14 457.207033 38.65 458.497033 37.16 459.787033 35.45 461.257033 33.5 460.977033 35.5421322 459.130957 36.4615488 456.346112 35.92 453.647033 35.8348619 453.099111 35.6033852 452.584334 35.25 452.157033 34.25 451.067033 32.38 451.537033 31.15 452.397033 27.27 455.127033 26.15 460.397033 26.15 465.157033 25.76 463.447033 26.09 461.657033 26.08 459.907033 26.07 458.157033 25.59 456.197033 24.08 455.247033 23.1589071 454.753115 22.1247706 454.508369 21.08 454.537033 19.33 454.477033 17.39 454.657033 16.19 455.927033 14.71 457.517033 15.1 460.187033 16.39 461.927033 17.68 463.667033 19.64 464.777033 21.39 465.987033 22.8395563 466.847474 24.0768101 468.023207 25.01 469.427033 25.1179185 469.625425 25.2082634 469.832884 25.28 470.047033L36.23 470.047033C38.7161464 468.806841 41.0208647 467.232231 43.08 465.367033L43.08 465.367033zM107.01 506.617033C108.38053 505.503676 109.381227 504.000887 109.88 502.307033 110.331668 500.552477 109.498913 498.720415 107.88 497.907033 106.04 497.207033 104.07 498.477033 102.58 499.767033 101.09 501.057033 99.38 502.517033 97.43 502.247033 99.4688786 500.398575 100.390877 497.617402 99.86 494.917033 99.7714832 494.368243 99.536564 493.853493 99.18 493.427033 98.18 492.337033 96.31 492.807033 95.09 493.667033 91.2 496.397033 90.09 501.667033 90.09 506.427033 89.69 504.717033 90.02 502.927033 90.02 501.167033 90.02 499.407033 89.52 497.467033 88.02 496.517033 87.0989071 496.023115 86.0647706 495.778369 85.02 495.807033 83.27 495.747033 81.32 495.917033 80.13 497.197033 78.65 498.787033 79.03 501.447033 80.32 503.197033 81.61 504.947033 83.57 506.047033 85.38 507.197033 86.8300053 508.061162 88.0671784 509.240236 89 510.647033 89.1046264 510.845701 89.1916265 511.053162 89.26 511.267033L100.26 511.267033C102.709664 510.028967 104.980312 508.464743 107.01 506.617033L107.01 506.617033z"/>
  </g>
</svg>
