<svg xmlns="http://www.w3.org/2000/svg" width="867" height="529" viewBox="0 0 867 529">
  <g fill="none" fill-rule="evenodd" transform="translate(.45 -.523)">
    <ellipse cx="396.5" cy="476.273" fill="#FECEBA" fill-rule="nonzero" rx="396.5" ry="46"/>
    <polygon fill="#D4DFEC" fill-rule="nonzero" points="207.65 253.823 247.89 305.553 243.76 307.173 192.36 298.393 192.36 309.453 245.98 314.513 247.89 324.413 205.7 361.833 213.18 372.243 257.43 320.513 257.43 329.623 257.43 402.503 269.47 402.503 262.63 319.213 266.21 328.163 307.51 387.533 315.1 380.053 269.47 320.533 266.21 316.283 271.09 318.233 271.58 321.653 332.26 332.713 333.13 322.283 269.87 314.513 268.9 307.743 316.15 261.953 308.67 253.823 264.83 305.713 260.68 303.353 267.68 228.203 256.53 226.903 256.21 303.843 253.12 299.453 214.32 245.113"/>
    <polygon fill="#000" fill-rule="nonzero" points="207.65 253.823 247.89 305.553 243.76 307.173 192.36 298.393 192.36 309.453 245.98 314.513 247.89 324.413 205.7 361.833 213.18 372.243 257.43 320.513 257.43 329.623 257.43 402.503 269.47 402.503 262.63 319.213 266.21 328.163 307.51 387.533 315.1 380.053 269.47 320.533 266.21 316.283 271.09 318.233 271.58 321.653 332.26 332.713 333.13 322.283 269.87 314.513 268.9 307.743 316.15 261.953 308.67 253.823 264.83 305.713 260.68 303.353 267.68 228.203 256.53 226.903 256.21 303.843 253.12 299.453 214.32 245.113" opacity=".1"/>
    <path fill="#65617D" fill-rule="nonzero" d="M337.1,300.132728 C327.1,248.502728 285.73,213.082728 244.62,221.022728 C203.51,228.962728 178.27,277.242728 188.24,328.872728 C198.21,380.502728 239.61,415.872728 280.72,407.992728 C321.83,400.112728 347.1,351.772728 337.1,300.132728 Z M278.69,397.492728 C242.2,404.492728 205.45,373.092728 196.6,327.262728 C187.75,281.432728 210.16,238.562728 246.65,231.512728 C283.14,224.462728 319.89,255.912728 328.74,301.752728 C337.59,347.592728 315.17,390.452728 278.68,397.492728 L278.69,397.492728 Z"/>
    <path fill="#000" fill-rule="nonzero" d="M337.1,300.132728 C327.1,248.502728 285.73,213.082728 244.62,221.022728 C203.51,228.962728 178.27,277.242728 188.24,328.872728 C198.21,380.502728 239.61,415.872728 280.72,407.992728 C321.83,400.112728 347.1,351.772728 337.1,300.132728 Z M278.69,397.492728 C242.2,404.492728 205.45,373.092728 196.6,327.262728 C187.75,281.432728 210.16,238.562728 246.65,231.512728 C283.14,224.462728 319.89,255.912728 328.74,301.752728 C337.59,347.592728 315.17,390.452728 278.68,397.492728 L278.69,397.492728 Z" opacity=".1"/>
    <ellipse cx="257.228" cy="315.552" fill="#65617D" fill-rule="nonzero" rx="15.57" ry="17.54" transform="rotate(-10.93 257.228 315.552)"/>
    <path fill="#3F3D56" fill-rule="nonzero" d="M419.76,448.612728 L419.76,457.772728 C419.76,457.772728 459.17,453.062728 463.24,451.142728 C467.31,449.222728 491.72,431.752728 491.72,430.522728 C491.72,429.292728 488.3,426.932728 488.3,426.932728 L443.55,430.522728 L419.76,448.612728 Z"/>
    <path fill="#000" fill-rule="nonzero" d="M419.76,448.612728 L419.76,457.772728 C419.76,457.772728 459.17,453.062728 463.24,451.142728 C467.31,449.222728 491.72,431.752728 491.72,430.522728 C491.72,429.292728 488.3,426.932728 488.3,426.932728 L443.55,430.522728 L419.76,448.612728 Z" opacity=".1"/>
    <path fill="#3F3D56" fill-rule="nonzero" d="M422.85,466.212728 L426.1,466.212728 C426.1,466.212728 466.1,455.712728 464.44,464.922728 C462.78,474.132728 435.95,490.822728 435.95,490.822728 L412.18,496.412728 L396.18,497.692728 L386.65,494.862728 L381.01,487.202728 L422.85,466.212728 Z"/>
    <path fill="#D4DFEC" fill-rule="nonzero" d="M474.59,416.912728 L489.59,414.342728 C489.59,414.342728 493.23,423.642728 490.45,424.342728 C487.67,425.042728 474.6,425.252728 474.6,425.252728 L474.59,416.912728 Z"/>
    <polygon fill="#D4DFEC" fill-rule="nonzero" points="327.95 302.953 391.3 302.953 391.3 375.153 381.49 375.153 381.49 311.473 323.7 309.063"/>
    <path fill="#D4DFEC" fill-rule="nonzero" d="M356.68,201.412728 C356.68,201.412728 376.23,198.712728 373.31,246.042728 L365.1,240.262728 C365.1,240.262728 370.35,209.262728 351.1,201.412728 L356.68,201.412728 Z"/>
    <path fill="#3F3D56" fill-rule="nonzero" d="M366.96,236.622728 L225.18,236.622728 L232.46,273.242728 L372.1,282.672728 C372.1,282.672728 379.38,238.552728 366.96,236.622728 Z"/>
    <path fill="#D4DFEC" fill-rule="nonzero" d="M112.56 125.862728C112.56 125.862728 115.56 110.472728 97.96 112.622728 80.36 114.772728 91.1 99.3427279 91.1 99.3427279 91.1 99.3427279 120.64 94.8327279 120.22 122.782728 119.8 150.732728 112.56 125.862728 112.56 125.862728zM196.48 99.0727279C196.48 99.0727279 214.48 95.9127279 214.9 114.762728L220.47 114.762728C220.47 114.762728 223.47 93.3427279 196.47 92.0627279L196.48 99.0727279z"/>
    <polygon fill="#D4DFEC" fill-rule="nonzero" points="128.37 200.863 132.66 276.253 137.8 273.253 137.8 197.003"/>
    <polygon fill="#D4DFEC" fill-rule="nonzero" points="225.18 178.163 232.7 228.963 239.74 224.853 232.46 173.873"/>
    <path fill="#D4DFEC" fill-rule="nonzero" d="M232.46,204.282728 C232.46,204.282728 245.31,194.002728 257.31,197.002728 L259.02,200.372728 C259.02,200.372728 235.46,207.712728 234.6,211.132728 L232.46,204.282728 Z"/>
    <path fill="#3F3D56" fill-rule="nonzero" d="M124.95 123.332728C124.95 123.332728 109.95 119.472728 111.24 132.332728 112.53 145.192728 124.95 208.152728 124.95 208.152728L137.8 208.152728 137.8 273.252728 234.6 246.052728 227.75 184.592728 234.6 184.592728 223.04 113.912728C223.04 113.912728 217.9 106.632728 213.62 110.062728 211.146883 112.046835 208.573493 113.902613 205.91 115.622728L124.95 123.332728zM64.98 106.192728C64.98 106.192728 61.98 118.192728 69.27 120.762728 76.56 123.332728 100.53 114.762728 100.53 114.762728 100.53 114.762728 94.11 102.662728 100.53 99.0727279 100.53 99.0727279 74.83 96.3427279 64.98 106.192728zM169.5 95.9127279C169.5 95.9127279 163.85 110.352728 172.88 109.132728 181.91 107.912728 202.1 102.562728 202.1 102.562728 202.1 102.562728 198.67 90.7727279 202.1 89.0627279 202.1 89.0627279 177.21 89.9127279 169.5 95.9127279z"/>
    <polygon fill="#3F3D56" fill-rule="nonzero" points="234.6 249.263 142.08 283.963 157.07 310.943 239.74 280.103"/>
    <path fill="#3F3D56" fill-rule="nonzero" d="M273.58 185.432728L347.26 188.002728C347.26 188.002728 383.66 194.862728 352.82 206.422728L259.02 203.772728C259.02 203.772728 231.18 188.002728 273.58 185.432728zM228.82 291.642728C229.89 292.302728 371.46 300.872728 371.46 300.872728L372.1 305.772728C372.1 305.772728 334.41 347.772728 273.15 341.102728 211.89 334.432728 211.47 332.542728 211.47 332.542728L228.82 291.642728z"/>
    <path fill="#000" fill-rule="nonzero" d="M228.82,291.642728 C229.89,292.302728 371.46,300.872728 371.46,300.872728 L372.1,305.772728 C372.1,305.772728 334.41,347.772728 273.15,341.102728 C211.89,334.432728 211.47,332.542728 211.47,332.542728 L228.82,291.642728 Z" opacity=".1"/>
    <polygon fill="#D4DFEC" fill-rule="nonzero" points="267.58 341.353 303.13 341.353 303.13 424.883 291.78 424.883 291.78 351.203 262.66 348.423"/>
    <path fill="#65617D" fill-rule="nonzero" d="M320.91,487.192728 C320.91,509.082728 305.91,526.822728 287.5,526.822728 C269.09,526.822728 254.1,509.082728 254.1,487.192728 C254.1,465.302728 269.1,447.582728 287.51,447.582728 L288.17,447.582728 C292.641217,447.687726 297.026743,448.831181 300.98,450.922728 C312.71,457.072728 320.91,471.002728 320.91,487.192728 Z"/>
    <path fill="#000" fill-rule="nonzero" d="M300.97,450.932728 C298.64,469.282728 295.17,491.432728 291.9,493.412728 C286.22,496.832728 279.58,498.762728 280.01,488.482728 L288.16,447.592728 C292.631217,447.697726 297.016743,448.841181 300.97,450.932728 Z" opacity=".1"/>
    <path fill="#D4DFEC" fill-rule="nonzero" d="M279.36,487.202728 L291.79,424.872728 L303.1,424.872728 C303.1,424.872728 296.89,488.702728 291.21,492.122728 C285.53,495.542728 278.94,497.482728 279.36,487.202728 Z"/>
    <ellipse cx="377.78" cy="429.033" fill="#65617D" fill-rule="nonzero" rx="28.88" ry="34.25"/>
    <path fill="#D4DFEC" fill-rule="nonzero" d="M370.75 429.032728L381.49 375.152728 391.3 375.152728C391.3 375.152728 385.93 430.322728 381.03 433.292728 376.13 436.262728 370.38 437.912728 370.75 429.032728zM300.78 361.052728C300.78 361.052728 291.78 368.332728 300.78 371.972728 309.78 375.612728 328.2 375.152728 328.2 375.152728 328.2 375.152728 333.98 375.402728 335.69 384.152728 337.4 392.902728 369.32 472.152728 369.32 472.152728L376.81 468.292728 344.04 379.622728C344.04 379.622728 338.26 362.712728 326.91 362.062728 315.56 361.412728 300.78 361.052728 300.78 361.052728zM374.46 487.202728C374.46 487.202728 383.46 503.262728 388.16 501.552728 392.86 499.842728 389.66 491.052728 389.66 491.052728L381.02 483.982728 374.46 487.202728zM412.15 480.772728L429.28 475.852728C429.28 475.852728 437.42 487.202728 431.21 490.202728 425 493.202728 412.15 494.862728 412.15 494.862728L412.15 480.772728z"/>
    <path fill="#3F3D56" fill-rule="nonzero" d="M366.32,468.772728 C366.32,468.772728 369.43,490.582728 376.65,490.772728 C383.87,490.962728 426.1,466.212728 426.1,466.212728 C426.1,466.212728 419.46,443.512728 415.61,444.792728 C411.76,446.072728 366.32,468.772728 366.32,468.772728 Z"/>
    <path fill="#3F3D56" fill-rule="nonzero" d="M381.02 485.352728L416.87 479.422728C416.87 479.422728 413.08 490.962728 418.72 494.862728L388.16 501.552728 381.02 485.352728zM442.04 408.882728C442.04 408.882728 410.98 426.482728 411.2 427.882728 411.42 429.282728 416.12 452.012728 419.34 452.232728 422.56 452.452728 449.75 429.102728 449.75 429.102728L442.04 408.882728z"/>
    <path fill="#3F3D56" fill-rule="nonzero" d="M443.96,421.282728 L476.52,414.342728 C476.52,414.342728 476.3,426.262728 478.87,427.902728 L443.55,434.352728 L443.96,421.282728 Z"/>
    <path fill="#D4DFEC" fill-rule="nonzero" d="M368.36,312.392728 C368.36,312.392728 367.58,318.602728 370.08,318.822728 C372.58,319.042728 388.28,316.252728 392.14,321.602728 C396,326.952728 435.83,417.122728 435.83,417.122728 L443.29,412.182728 L405.77,321.602728 C405.77,321.602728 392.56,303.612728 368.36,312.392728 Z"/>
    <path fill="#C37098" fill-rule="nonzero" d="M154.78 108.282728L156.29 109.892728 183.35 138.832728 188.24 144.062728 193.12 145.552728 215.12 152.272728C215.12 152.272728 211.33 125.662728 203.54 120.272728 202.647969 119.65381 202.065136 118.681208 201.94 117.602728 201.808452 116.360371 201.934406 115.104233 202.31 113.912728 202.824159 112.197641 203.51101 110.539148 204.36 108.962728 205.345587 107.098037 206.427034 105.285612 207.6 103.532728L208.44 102.292728C211.367952 98.0865851 214.536569 94.0531923 217.93 90.2127279 217.93 90.2127279 213.15 86.2127279 207.17 81.6227279 196.66 73.5327279 182.46 63.5427279 184.01 69.8927279 184.8 73.1027279 182.01 78.2227279 178.01 83.6927279 177.85 83.9027279 177.69 84.1227279 177.52 84.3327279 174.111455 88.674039 170.469414 92.8268336 166.61 96.7727279 160.34 103.292728 154.78 108.282728 154.78 108.282728zM408 376.602728C408 376.602728 417.58 407.752728 433.39 412.292728 449.2 416.832728 468.87 411.612728 468.87 411.612728 468.87 411.612728 474.53 427.282728 466.67 431.082728 458.81 434.882728 430.67 430.252728 425.18 432.082728 419.69 433.912728 405.36 441.482728 405.36 441.482728 405.36 441.482728 401.65 427.162728 402.08 420.422728 402.51 413.682728 396.1 381.772728 396.1 381.772728L408 376.602728z"/>
    <path fill="#29A389" fill-rule="nonzero" d="M418.35,419.482728 C418.35,419.482728 429.53,409.262728 429.6,408.632728 C429.6,408.632728 448.8,411.762728 453.38,411.312728 C457.96,410.862728 490.65,409.062728 481.19,422.702728 C471.73,436.342728 416.19,444.132728 415.56,444.222728 C414.93,444.312728 406.38,437.472728 407.81,431.222728 C409.24,424.972728 412.71,419.332728 418.35,419.482728 Z"/>
    <path fill="#65617D" fill-rule="nonzero" d="M246.1,248.562728 L262.41,254.442728 C262.41,254.442728 283.41,256.162728 301.08,251.212728 C318.75,246.262728 379.08,250.212728 386.73,255.712728 C394.38,261.212728 400.22,277.932728 400.22,277.932728 C400.22,277.932728 397.96,303.702728 401.32,308.282728 C404.68,312.862728 412.32,379.522728 412.32,379.522728 C412.32,379.522728 397.56,391.432728 386.7,390.212728 C375.84,388.992728 353.1,291.842728 353.1,291.842728 L240.45,275.772728 L246.1,248.562728 Z"/>
    <path fill="#C37098" fill-rule="nonzero" d="M377.65,426.362728 L388.32,439.772728 L396.75,450.392728 C396.75,450.392728 398.58,457.872728 401.3,465.662728 C404.08,473.662728 407.77,481.952728 411.3,482.842728 C418.38,484.612728 458.3,474.842728 458.3,474.842728 C458.3,474.842728 455.66,453.842728 434.08,448.842728 C432.895367,448.567512 431.732303,448.206562 430.6,447.762728 C418.1,442.922728 410.71,429.152728 407.25,420.352728 C405.46,415.782728 404.73,412.552728 404.88,412.562705 L377.65,426.362728 Z"/>
    <path fill="#000" fill-rule="nonzero" d="M401.3,465.682728 C404.08,473.682728 407.77,481.972728 411.3,482.862728 C418.38,484.632728 458.3,474.862728 458.3,474.862728 C458.3,474.862728 455.66,453.862728 434.08,448.862728 C432.895367,448.587512 431.732303,448.226562 430.6,447.782728 C424.91,453.122728 405.54,463.452728 401.3,465.682728 Z" opacity=".1"/>
    <path fill="#29A389" fill-rule="nonzero" d="M401.04,466.832728 C401.04,466.832728 432.47,450.492728 432.78,446.332728 C432.78,446.332728 452.02,449.142728 458.01,447.642728 C464,446.142728 498.1,446.432728 490.47,460.772728 C482.84,475.112728 441.47,486.332728 441.47,486.332728 C441.47,486.332728 402.98,490.822728 401.28,488.692728 C399.58,486.562728 401.04,466.832728 401.04,466.832728 Z"/>
    <path fill="#C37098" fill-rule="nonzero" d="M246,189.382728 C246,189.382728 248.61,190.662728 252.69,192.382728 C265.75,197.962728 293.93,208.382728 300.25,197.112728 C308.54,182.362728 274.95,182.112728 271.15,184.282728 C269.15,185.412728 265.51,184.282728 262.5,182.842728 C260.797195,182.05057 259.144144,181.155584 257.55,180.162728 L246,189.382728 Z"/>
    <path fill="#000" fill-rule="nonzero" d="M177.48,84.3127279 C183.100817,94.8833068 193.580697,101.994654 205.48,103.312728 C206.2,103.392728 206.92,103.452728 207.63,103.492728 C210.781825,98.8341295 214.232397,94.3847962 217.96,90.1727279 C217.96,90.1727279 181.61,59.8827279 184.04,69.8527279 C184.83,73.2027279 181.83,78.6027279 177.48,84.3127279 Z" opacity=".1"/>
    <path fill="#C37098" fill-rule="nonzero" d="M173.6,61.9127279 C172.504464,71.482094 175.263445,81.0939255 181.267605,88.6253943 C187.271766,96.1568631 196.027121,100.988326 205.6,102.052728 C206.55,102.162728 207.5,102.232728 208.44,102.272728 C228.105426,102.939399 244.721519,87.8166417 245.904252,68.1754964 C247.086984,48.5343511 232.405675,31.5269563 212.802351,29.8289775 C193.199027,28.1309988 175.812055,42.3607393 173.6,61.9127279 L173.6,61.9127279 Z"/>
    <path fill="#000" fill-rule="nonzero" d="M246 189.382728C246 189.382728 248.61 190.662728 252.69 192.382728 255.91 188.262728 260.24 184.822728 262.5 182.842728 260.797195 182.05057 259.144144 181.155584 257.55 180.162728L246 189.382728zM202.31 113.892728C202.824159 112.177641 203.51101 110.519148 204.36 108.942728L204.05 108.562728C203.216013 110.246193 202.629943 112.041451 202.31 113.892728L202.31 113.892728zM154.78 108.282728L188.24 144.062728 215.1 152.272728C215.1 152.272728 211.31 125.662728 203.52 120.272728 202.627969 119.65381 202.045136 118.681208 201.92 117.602728 201.57 130.272728 209.92 143.942728 209.92 143.942728 209.92 143.942728 207.33 143.942728 204.12 135.212728 200.91 126.482728 178.67 102.912728 174.81 99.8927279 173.42 98.8027279 170.51 97.5927279 166.61 96.7827279 160.34 103.292728 154.78 108.282728 154.78 108.282728z" opacity=".1"/>
    <path fill="#33CCAB" fill-rule="nonzero" d="M203.91,109.842728 C203.91,109.842728 208.59,115.652728 212.81,115.482728 C217.03,115.312728 232.22,132.542728 231.81,136.052728 C231.4,139.562728 232.22,146.772728 236.81,148.902728 C241.4,151.032728 242.75,159.272728 242.75,159.272728 C242.75,159.272728 253.75,165.042728 252.31,169.082728 C250.87,173.122728 260.73,180.382728 262.61,180.922728 C264.49,181.462728 244.42,193.092728 247.67,204.442728 C250.92,215.792728 239.21,230.652728 242.5,235.872728 C245.79,241.092728 257.05,277.112728 252.65,278.872728 C248.25,280.632728 144.65,276.052728 144.65,276.052728 C144.65,276.052728 148.27,228.462728 145.06,219.692728 C141.85,210.922728 140.45,157.422728 138.06,149.692728 C135.67,141.962728 123.13,107.272728 139.06,100.692728 C154.99,94.1127279 170.71,98.1227279 174.57,101.152728 C178.43,104.182728 200.67,127.692728 203.88,136.462728 C207.09,145.232728 209.68,145.202728 209.68,145.202728 C209.68,145.202728 196.82,123.912728 203.91,109.842728 Z"/>
    <path fill="#000" fill-rule="nonzero" d="M253.32,263.432728 C253.32,263.432728 300.87,263.152728 303.27,261.972728 C305.67,260.792728 356.92,256.392728 372.05,266.972728 C387.18,277.552728 394.27,300.672728 394.27,300.672728 L397.56,343.072728 L409.56,415.402728 C409.56,415.402728 389.1,445.542728 380.89,436.262728 C378.03,433.032728 371.23,397.342728 363.03,389.792728 C354.83,382.242728 349.53,321.792728 349.96,318.002728 C349.96,318.002728 342.48,315.542728 336.96,318.312728 C331.44,321.082728 249.08,320.672728 248.61,320.612728 C248.14,320.552728 225.13,266.562728 225.13,266.562728 L253.32,263.432728 Z" opacity=".1"/>
    <path fill="#000" fill-rule="nonzero" d="M377.65,426.362728 L388.32,439.772728 C395.56,435.912728 404.06,424.822728 407.27,420.392728 C405.48,415.822728 404.75,412.592728 404.9,412.602705 L377.65,426.362728 Z" opacity=".1"/>
    <path fill="#65617D" fill-rule="nonzero" d="M251.9,264.572728 C251.9,264.572728 299.45,264.282728 301.85,263.102728 C304.25,261.922728 355.5,257.522728 370.63,268.102728 C385.76,278.682728 392.85,301.812728 392.85,301.812728 L396.14,344.212728 L408.14,416.532728 C408.14,416.532728 387.66,446.652728 379.43,437.372728 C376.56,434.142728 369.77,398.462728 361.57,390.902728 C353.37,383.342728 348.07,322.902728 348.5,319.112728 C348.5,319.112728 341.02,316.652728 335.5,319.422728 C329.98,322.192728 247.69,321.772728 247.21,321.772728 C246.73,321.772728 223.74,267.712728 223.74,267.712728 L251.9,264.572728 Z"/>
    <path fill="#000" fill-rule="nonzero" d="M141.42,153.372728 C146.18,153.372728 151.03,154.502728 155.84,154.322728 C166.77,153.932728 175.71,147.112728 183.35,138.832728 C184.48,137.622728 185.59,136.362728 186.66,135.092728 C188.55,132.852728 190.36,130.572728 192.1,128.322728 C193.69,126.262728 195.38,123.912728 195.1,121.322728 C194.92,119.612728 193.89,118.132728 193.17,116.572728 C190.64,111.042728 192.17,104.752728 195.07,99.2227279 C195.91569,97.6143646 196.867806,96.0642515 197.92,94.5827279 C200.97,90.2627279 204.57,86.1527279 207.19,81.5827279 C208.48941,79.3991941 209.472535,77.0423873 210.11,74.5827279 C211.05,70.8427279 210.99,66.9227279 211.76,63.1427279 C213.371143,55.524773 218.289646,49.0193022 225.18,45.3927279 C228.05,43.8427279 231.95,42.3927279 235.54,40.5027279 C222.787689,27.5686496 202.438484,26.0509491 187.908613,36.950246 C173.378741,47.8495429 169.141286,67.8104427 177.99,83.6727279 C177.83,83.8827279 177.67,84.1027279 177.5,84.3127279 C174.098506,88.66036 170.46314,92.8198325 166.61,96.7727279 C160.34,103.302728 154.78,108.292728 154.78,108.292728 L156.29,109.902728 C149.59,112.482728 145.63,119.212728 142.94,124.412728 C140.95,128.242728 140.68,140.012728 141.42,153.372728 Z" opacity=".1"/>
    <path fill="#D4DFEC" fill-rule="nonzero" d="M131.37 220.932728C131.37 220.932728 109.96 223.562728 114.24 255.252728L117.24 298.942728C117.24 298.942728 117.67 316.502728 128.38 316.082728 139.09 315.662728 122.52 252.682728 122.52 252.682728 122.52 252.682728 119.81 230.412728 133.09 226.982728L131.37 220.932728zM274.87 341.352728L267.58 341.352728 266.43 267.712728 266.3 259.652728C266.3 259.652728 258.58 234.272728 245.74 232.552728 232.9 230.832728 250.05 226.552728 250.05 226.552728 250.05 226.552728 274.44 234.042728 274.87 259.642728 275.3 285.242728 274.87 341.352728 274.87 341.352728z"/>
    <path fill="#3F3D56" fill-rule="nonzero" d="M146.37,214.132728 L232.46,217.562728 C232.46,217.562728 289.86,229.982728 239.74,236.622728 L137.8,232.122728 C137.8,232.122728 101.82,221.412728 146.37,214.132728 Z"/>
    <path fill="#000" fill-rule="nonzero" d="M271.870008,275.012728 L271.870008,338.102728 C271.871659,339.226899 271.622256,340.337252 271.14,341.352728 L267.58,341.352728 L266.43,267.712728 C269.65742,268.676334 271.869334,271.644527 271.870008,275.012728 L271.870008,275.012728 Z" opacity=".1"/>
    <path fill="#3F3D56" fill-rule="nonzero" d="M141.19,260.162728 L264.1,268.052728 C268.108229,268.311009 271.227771,271.636186 271.23,275.652728 L271.23,338.772728 C271.23,340.887338 270.350829,342.906763 268.803419,344.347978 C267.256009,345.789193 265.179294,346.522582 263.07,346.372728 L140.16,337.572728 C136.173192,337.289115 133.085177,333.969608 133.089994,329.972728 L133.089994,267.772728 C133.088582,265.667533 133.958159,263.65555 135.49244,262.214083 C137.026722,260.772617 139.088986,260.030117 141.19,260.162728 Z"/>
    <polygon fill="#D4DFEC" fill-rule="nonzero" points="225.9 383.523 224.75 397.253 219.05 396.213 147.47 383.163 144.86 382.693 144.22 378.193 137.8 375.623 142.08 381.213 146.23 386.623 196.69 452.443 202.16 459.573 192.17 469.433 187.21 462.303 140.26 394.793 137.8 391.263 133.09 379.483 134.63 398.303 141.36 480.303 142.08 489.133 126.23 489.133 126.23 381.193 114.05 395.423 72.87 443.573 67.98 449.293 58.12 435.593 64.01 430.363 109.04 390.443 113.68 386.333 111.16 373.283 103.43 372.563 46.48 367.193 40.56 366.633 40.56 352.063 46.91 353.153 105.48 363.163 108.24 363.633 113.68 361.493 109.73 356.423 65.48 299.523 60.7 293.383 69.48 281.923 74.34 288.733 118.5 350.583 120.56 353.463 124.62 359.243 124.66 349.513 125.02 266.273 125.05 257.943 139.72 259.653 138.99 267.513 131.27 350.513 130.52 358.603 135.98 361.703 140.56 356.273 189.54 298.303 193.69 293.383 203.55 304.093 198.01 309.453 144.49 361.313 141.33 364.383 142.61 373.283 148.42 374.003 219.79 382.773"/>
    <path fill="#000" fill-rule="nonzero" d="M219.79,382.772728 C219.775512,387.258904 219.531861,391.741412 219.06,396.202728 L224.75,397.202728 L225.9,383.482728 L219.79,382.772728 Z M189.54,298.302728 C192.594229,301.838204 195.423143,305.562217 198.01,309.452728 L203.55,304.082728 L193.7,293.382728 L189.54,298.302728 Z M187.21,462.302728 L192.21,469.432728 L202.21,459.582728 L196.74,452.452728 C193.846272,455.995398 190.658256,459.287117 187.21,462.292728 L187.21,462.302728 Z M126.21,478.882728 L126.21,489.132728 L142.1,489.132728 L141.38,480.302728 C136.293187,480.374307 131.213579,479.894846 126.23,478.872728 L126.21,478.882728 Z M139.71,259.662728 L125.1,257.932728 L125.1,266.262728 C129.796192,266.212012 134.48583,266.62738 139.1,267.502728 L139.71,259.662728 Z M60.71,293.392728 L65.49,299.532728 C68.1450221,295.713283 71.104675,292.11488 74.34,288.772728 L69.48,281.952728 L60.71,293.392728 Z M58.1,435.582728 L67.95,449.292728 L72.84,443.572728 C69.5904241,439.375477 66.6302519,434.961948 63.98,430.362728 L58.1,435.582728 Z M40.54,352.062728 L40.54,366.622728 L46.45,367.182728 C46.3409109,362.511528 46.4877976,357.837859 46.89,353.182728 L40.54,352.062728 Z" opacity=".1"/>
    <path fill="#65617D" fill-rule="nonzero" d="M231.1,354.362728 C217.98,286.362728 163.46,239.752728 109.34,250.202728 C55.22,260.652728 21.99,324.202728 35.12,392.202728 C48.25,460.202728 102.76,506.772728 156.88,496.362728 C211,485.952728 244.24,422.342728 231.1,354.362728 Z M154.2,482.542728 C106.2,491.822728 57.77,450.422728 46.12,390.082728 C34.47,329.742728 63.97,273.292728 112.01,264.022728 C160.05,254.752728 208.46,296.142728 220.1,356.482728 C231.74,416.822728 202.26,473.272728 154.21,482.542728 L154.2,482.542728 Z"/>
    <path fill="#000" fill-rule="nonzero" d="M144.22,378.192728 L137.8,375.622728 L142.08,381.202728 L146.23,386.612728 C144.852217,389.745335 142.804093,392.537611 140.23,394.792728 L137.77,391.252728 L133.1,379.472728 L134.64,398.292728 C131.982016,399.398003 129.11676,399.916478 126.24,399.812728 L126.24,381.182728 L114.1,395.422728 C112.202341,394.004276 110.518452,392.320387 109.1,390.422728 L113.74,386.312728 L111.23,373.312728 L103.5,372.582728 C103.585707,369.353393 104.263613,366.167238 105.5,363.182728 L108.26,363.652728 L113.7,361.512728 L109.75,356.442728 C112.121865,353.773568 115.142682,351.761986 118.52,350.602728 L120.58,353.482728 L124.65,359.262728 L124.65,349.542728 C126.893644,349.505684 129.127718,349.843668 131.26,350.542728 L130.51,358.632728 L135.97,361.732728 L140.56,356.312728 C142.06518,357.813742 143.381575,359.492818 144.48,361.312728 L141.32,364.372728 L142.61,373.282728 L148.41,373.992728 C148.616247,377.081162 148.294987,380.182165 147.46,383.162728 L144.86,382.692728 L144.22,378.192728 Z" opacity=".1"/>
    <ellipse cx="125.967" cy="374.658" fill="#65617D" fill-rule="nonzero" rx="20.5" ry="23.1" transform="rotate(-10.93 125.967 374.658)"/>
    <path fill="#E8EAF2" fill-rule="nonzero" d="M290.33,193.512728 C290.33,199.322728 280.16,205.152728 267.61,205.152728 C255.06,205.152728 244.88,199.322728 244.88,193.512728 C244.88,187.702728 255.05,184.092728 267.61,184.092728 C280.17,184.092728 290.33,187.692728 290.33,193.512728 Z"/>
    <path fill="#000" fill-rule="nonzero" d="M290.33,193.512728 C290.33,199.322728 280.16,205.152728 267.61,205.152728 C255.06,205.152728 244.88,199.322728 244.88,193.512728 C244.88,187.702728 255.05,184.092728 267.61,184.092728 C280.17,184.092728 290.33,187.692728 290.33,193.512728 Z" opacity=".1"/>
    <ellipse cx="267.6" cy="193.513" fill="#E8EAF2" fill-rule="nonzero" rx="22.73" ry="10.53"/>
    <ellipse cx="267.67" cy="193.913" fill="#000" fill-rule="nonzero" opacity=".05" rx="13.56" ry="5.46"/>
    <path fill="#65617D" fill-rule="nonzero" d="M299.1 181.212728C298.64 178.362728 294.87 176.472728 290.04 176.372728 288.754481 176.346915 287.469258 176.437282 286.2 176.642728 279.66 177.692728 274.82 181.452728 275.39 185.032728 275.85 187.862728 279.55 189.732728 284.31 189.872728 285.648574 189.913803 286.988007 189.82674 288.31 189.612728 294.81 188.552728 299.65 184.772728 299.1 181.212728zM287.97 187.772728C287.285224 187.883853 286.593563 187.947338 285.9 187.962728 282.11 188.062728 279.07 186.672728 278.72 184.492728 278.31 181.922728 281.78 179.232728 286.47 178.492728 287.584254 178.317801 288.714185 178.264155 289.84 178.332728 293 178.542728 295.41 179.852728 295.72 181.772728 296.1 184.322728 292.66 187.012728 287.97 187.772728zM278.54 192.972728C278.526592 193.521334 278.32939 194.049555 277.98 194.472728 276.56 196.342728 272.56 197.692728 267.85 197.692728 263.46 197.692728 259.69 196.522728 258.04 194.852728 257.508778 194.367692 257.192193 193.691352 257.16 192.972728 257.16 190.362728 261.95 188.252728 267.85 188.252728 273.75 188.252728 278.54 190.362728 278.54 192.972728z"/>
    <path fill="#000" fill-rule="nonzero" d="M278.54 192.972728C278.526592 193.521334 278.32939 194.049555 277.98 194.472728 275.152257 195.864832 272.041836 196.586833 268.89 196.582745L266.32 196.582745C263.470134 196.584159 260.650881 195.995112 258.04 194.852728 257.508778 194.367692 257.192193 193.691352 257.16 192.972728 257.16 190.362728 261.95 188.252728 267.85 188.252728 273.75 188.252728 278.54 190.362728 278.54 192.972728zM290.01 176.372728C290.01 177.022728 289.93 177.672728 289.84 178.312728 288.714185 178.244155 287.584254 178.297801 286.47 178.472728 281.78 179.232728 278.31 181.922728 278.72 184.472728 279.07 186.652728 282.11 188.042728 285.9 187.942728 285.401079 188.613127 284.859985 189.251084 284.28 189.852728 279.52 189.712728 275.82 187.852728 275.36 185.012728 274.79 181.432728 279.63 177.672728 286.17 176.622728 287.439865 176.423976 288.725084 176.340302 290.01 176.372728L290.01 176.372728z" opacity=".1"/>
    <path fill="#65617D" fill-rule="nonzero" d="M245.67,172.642728 L245.67,175.582728 C245.67,186.987408 254.91532,196.232728 266.32,196.232728 L268.89,196.232728 C280.29468,196.232728 289.54,186.987408 289.54,175.582728 L289.54,172.642728 L245.67,172.642728 Z"/>
    <ellipse cx="267.5" cy="171.993" fill="#65617D" fill-rule="nonzero" rx="22.03" ry="6.27"/>
    <ellipse cx="267.6" cy="171.603" fill="#000" fill-rule="nonzero" opacity=".1" rx="20.89" ry="5.67"/>
    <ellipse cx="267.67" cy="171.393" fill="#FDF9F9" fill-rule="nonzero" rx="20.4" ry="5.67"/>
    <path fill="#000" fill-rule="nonzero" d="M260.53,167.502728 C260.53,167.502728 249.11,168.052728 254.53,171.702728 C259.95,175.352728 275.36,173.292728 275.36,173.292728 C275.36,173.292728 283.89,171.142728 278.36,168.612728 C272.83,166.082728 264.59,167.672728 264.59,167.672728 C264.59,167.672728 255.11,169.412728 262.4,170.932728 C262.4,170.932728 271.18,171.732728 271.56,169.932728 C271.94,168.132728 266.62,169.412728 266.62,169.412728 C266.62,169.412728 269.44,170.042728 267.5,170.352728 C265.56,170.662728 263.37,170.142728 263.37,169.592728 C263.37,169.042728 266.25,168.592728 267.09,168.652728 C267.93,168.712728 272.28,167.962728 273.95,169.902728 C274.102692,170.079659 274.16144,170.319003 274.108022,170.546524 C274.054604,170.774046 273.895478,170.962237 273.68,171.052728 C272.14,171.702728 268.14,172.952728 261.74,171.962728 C253.35,170.692728 260.53,167.502728 260.53,167.502728 Z" opacity=".1"/>
    <path fill="#C37098" fill-rule="nonzero" d="M234.29,201.092728 C234.29,201.092728 256.96,213.672728 268.42,220.952728 C279.88,228.232728 299.57,248.552728 280.55,249.482728 C261.53,250.412728 232.79,214.342728 232.79,214.342728 L234.29,201.092728 Z"/>
    <path fill="#000" fill-rule="nonzero" d="M187.78,131.992728 C187.78,131.992728 185.41,147.242728 190.13,148.422728 C194.85,149.602728 195.78,161.342728 194.13,161.482728 C192.48,161.622728 202.88,169.902728 200.49,173.842728 C198.1,177.782728 202.49,182.142728 206.58,182.932728 C210.67,183.722728 216.22,186.282728 217.78,189.692728 C219.34,193.102728 232.45,200.082728 236.92,200.582728 C241.39,201.082728 239.79,218.042728 234.79,219.422728 C229.79,220.802728 213.79,209.932728 208.42,216.422728 C203.05,222.912728 186.65,236.272728 178.99,232.492728 C171.33,228.712728 158.45,216.912728 152.42,215.912728 C146.39,214.912728 139.24,146.532728 144.62,136.142728 C150,125.752728 160.49,109.232728 187.78,131.992728 Z" opacity=".1"/>
    <path fill="#33CCAB" fill-rule="nonzero" d="M141.42,163.012728 C142.7,185.782728 146.94,213.162728 150.74,213.802728 C156.74,214.802728 169.66,226.602728 177.32,230.382728 C184.98,234.162728 201.32,220.812728 206.74,214.312728 C212.16,207.812728 228.1,218.662728 233.11,217.312728 C238.12,215.962728 239.71,198.982728 235.24,198.482728 C230.77,197.982728 217.65,190.972728 216.1,187.562728 C214.55,184.152728 209.01,181.562728 204.9,180.802728 C200.79,180.042728 196.43,175.642728 198.82,171.702728 C201.21,167.762728 190.82,159.492728 192.45,159.352728 C193.09,159.292728 193.34,157.462728 193.12,155.192728 C192.77,151.642728 191.31,147.002728 188.43,146.282728 C187.642355,146.048611 186.996,145.482594 186.66,144.732728 C184.42,140.562728 186.09,129.852728 186.09,129.852728 C172.43,118.482728 162.99,116.932728 156.29,119.522728 C149.59,122.112728 145.63,128.842728 142.94,134.032728 C140.95,137.882728 140.68,149.642728 141.42,163.012728 Z"/>
    <path fill="#3F3D56" fill-rule="nonzero" d="M242.86,32.2527279 C244.86,28.0927279 240.81,23.3127279 236.44,21.8027279 C232.07,20.2927279 227.18,20.5427279 222.97,18.6227279 C215.77,15.3427279 212.37,6.62272793 205.35,2.99272793 C199.89,0.152727934 193.3,0.932727934 187.28,2.20272793 C178.38,4.08272793 168.16,8.53272793 166.8,17.5327279 C166.19,21.5827279 167.6,25.9027279 166.14,29.7327279 C162.4,39.5627279 145.48,36.1727279 139.79,45.0127279 C138.4,47.1727279 137.93,49.7827279 137.48,52.3127279 L131.59,85.6527279 C130.78,90.2327279 129.91,94.9527279 127.34,98.8227279 C123.57,104.482728 116.88,107.302728 110.57,109.822728 C106.06,111.622728 101.34,113.462728 96.5,113.002728 C94.11,112.782728 91.57,112.002728 89.4,113.062728 C87.23,114.122728 86.23,116.562728 85.54,118.852728 C82.6746632,128.40825 82.244956,138.528715 84.29,148.292728 C85.11,152.202728 86.29,156.292728 85.1,160.092728 C84.04,163.372728 81.37,165.812728 79.05,168.362728 C74.0246441,173.884965 70.3212242,180.477942 68.22,187.642728 C66.66,192.992728 66.3,199.502728 70.22,203.432728 C74.14,207.362728 80.4,206.982728 85.86,206.432728 C91.59,205.812728 97.77,204.982728 101.86,200.972728 C104.1,198.782728 105.48,195.882728 106.81,193.042728 L115.09,175.312728 C119.46,165.962728 125.09,155.562728 135.09,153.172728 C141.42,151.662728 148.03,153.822728 154.54,153.582728 C169.92,153.022728 181.38,139.752728 190.8,127.582728 C192.4,125.522728 194.08,123.172728 193.8,120.582728 C193.61,118.872728 192.58,117.392728 191.86,115.832728 C188.59,108.682728 192.08,100.262728 196.61,93.8327279 C201.14,87.4027279 206.9,81.4627279 208.81,73.8327279 C209.75,70.0927279 209.68,66.1627279 210.45,62.3827279 C212.071179,54.7664232 216.991365,48.2635714 223.88,44.6327279 C229.73,41.4827279 239.77,38.6727279 242.86,32.2527279 Z"/>
    <path fill="#000" fill-rule="nonzero" d="M242.86,32.2527279 C244.86,28.0927279 240.81,23.3127279 236.44,21.8027279 C232.07,20.2927279 227.18,20.5427279 222.97,18.6227279 C215.77,15.3427279 212.37,6.62272793 205.35,2.99272793 C199.89,0.152727934 193.3,0.932727934 187.28,2.20272793 C178.38,4.08272793 168.16,8.53272793 166.8,17.5327279 C166.19,21.5827279 167.6,25.9027279 166.14,29.7327279 C162.4,39.5627279 145.48,36.1727279 139.79,45.0127279 C138.4,47.1727279 137.93,49.7827279 137.48,52.3127279 L131.59,85.6527279 C130.78,90.2327279 129.91,94.9527279 127.34,98.8227279 C123.57,104.482728 116.88,107.302728 110.57,109.822728 C106.06,111.622728 101.34,113.462728 96.5,113.002728 C94.11,112.782728 91.57,112.002728 89.4,113.062728 C87.23,114.122728 86.23,116.562728 85.54,118.852728 C82.6746632,128.40825 82.244956,138.528715 84.29,148.292728 C85.11,152.202728 86.29,156.292728 85.1,160.092728 C84.04,163.372728 81.37,165.812728 79.05,168.362728 C74.0246441,173.884965 70.3212242,180.477942 68.22,187.642728 C66.66,192.992728 66.3,199.502728 70.22,203.432728 C74.14,207.362728 80.4,206.982728 85.86,206.432728 C91.59,205.812728 97.77,204.982728 101.86,200.972728 C104.1,198.782728 105.48,195.882728 106.81,193.042728 L115.09,175.312728 C119.46,165.962728 125.09,155.562728 135.09,153.172728 C141.42,151.662728 148.03,153.822728 154.54,153.582728 C169.92,153.022728 181.38,139.752728 190.8,127.582728 C192.4,125.522728 194.08,123.172728 193.8,120.582728 C193.61,118.872728 192.58,117.392728 191.86,115.832728 C188.59,108.682728 192.08,100.262728 196.61,93.8327279 C201.14,87.4027279 206.9,81.4627279 208.81,73.8327279 C209.75,70.0927279 209.68,66.1627279 210.45,62.3827279 C212.071179,54.7664232 216.991365,48.2635714 223.88,44.6327279 C229.73,41.4827279 239.77,38.6727279 242.86,32.2527279 Z" opacity=".2"/>
    <path fill="#000" fill-rule="nonzero" d="M18.03 112.25C17.42 112.19 16.8 112.1 16.18 112.01 16.92 112.01 17.68 112.17 18.43 112.27L18.03 112.25zM7.44 205.66C13.16 205.04 19.34 204.22 23.44 200.21 25.69 198.02 27.06 195.11 28.39 192.27 31.15 186.363333 33.9133333 180.453333 36.68 174.54 41.04 165.2 46.68 154.8 56.68 152.4 63.02 150.89 69.63 153.06 76.14 152.82 91.52 152.26 102.98 138.99 112.4 126.82 113.99 124.76 115.68 122.4 115.4 119.82 115.21 118.12 114.18 116.64 113.47 115.08 110.2 107.93 113.68 99.51 118.22 93.08 122.76 86.65 128.51 80.72 130.42 73.08 131.35 69.34 131.29 65.41 132.06 61.63 133.669841 54.0114512 138.58872 47.5054831 145.48 43.88 151.26 40.75 161.29 37.95 164.38 31.53 166.38 27.36 162.38 22.59 157.96 21.08 153.54 19.57 148.7 19.82 144.49 17.9 137.29 14.62 133.9 5.9 126.87 2.26 125.259859 1.439707 123.527388.885856707 121.74.62 124.192633.750316619 126.592296 1.38341923 128.79 2.48 135.79 6.12 139.21 14.83 146.41 18.12 150.62 20.03 155.51 19.78 159.88 21.3 164.25 22.82 168.3 27.58 166.29 31.75 163.2 38.17 153.17 40.97 147.4 44.1 140.506747 47.7254038 135.584689 54.2307305 133.97 61.85 133.2 65.63 133.27 69.55 132.33 73.3 130.42 80.92 124.67 86.86 120.13 93.3 115.59 99.74 112.13 108.14 115.38 115.3 116.1 116.86 117.13 118.3 117.32 120.05 117.61 122.64 115.93 124.99 114.32 127.05 104.9 139.22 93.44 152.49 78.06 153.05 71.55 153.28 64.94 151.12 58.61 152.63 48.61 155.02 42.96 165.43 38.61 174.77 35.85 180.683333 33.0866667 186.593333 30.32 192.5 29 195.34 27.62 198.25 25.38 200.43 21.25 204.43 15.07 205.27 9.38 205.89 6.33989076 206.316305 3.2570842 206.3432.21 205.97 2.62443016 206.075618 5.04347161 205.971897 7.44 205.66L7.44 205.66z" opacity=".1" transform="translate(76.55 .523)"/>
    <path fill="#000" fill-rule="nonzero" d="M215.1 140.672728C215.1 140.672728 229.44 160.142728 228.59 168.932728 228.103366 174.32661 228.684436 179.763519 230.3 184.932728M235.52 160.592728C235.52 160.592728 241.45 185.432728 243.38 185.432728 245.31 185.432728 235.52 160.592728 235.52 160.592728z" opacity=".1"/>
    <path fill="#65617D" fill-rule="nonzero" d="M462.24,379.052728 C462.24,379.052728 450.87,390.692728 443.1,391.772728 C435.33,392.852728 428.96,417.842728 439.77,419.772728 C450.58,421.702728 471.38,413.942728 474.43,410.622728 C477.48,407.302728 488.57,387.622728 488.57,387.622728 L462.24,379.052728 Z"/>
    <path fill="#3F3D56" fill-rule="nonzero" d="M577.02,287.932728 C577.02,287.932728 534.69,311.222728 532.1,320.462728 C529.51,329.702728 538.38,337.092728 538.38,337.092728 C538.38,337.092728 539.86,345.042728 540.38,350.952728 C540.9,356.862728 547.78,414.352728 550.92,419.162728 C554.06,423.972728 551.47,442.082728 551.47,442.082728 L561.64,442.082728 L560.9,414.352728 C560.9,414.352728 549.44,332.842728 559.05,324.522728 C568.66,316.202728 576.61,306.782728 579.38,307.522728 C582.15,308.262728 577.02,287.932728 577.02,287.932728 Z"/>
    <path fill="#000" fill-rule="nonzero" d="M577.02,287.932728 C577.02,287.932728 534.69,311.222728 532.1,320.462728 C529.51,329.702728 538.38,337.092728 538.38,337.092728 C538.38,337.092728 539.86,345.042728 540.38,350.952728 C540.9,356.862728 547.78,414.352728 550.92,419.162728 C554.06,423.972728 551.47,442.082728 551.47,442.082728 L561.64,442.082728 L560.9,414.352728 C560.9,414.352728 549.44,332.842728 559.05,324.522728 C568.66,316.202728 576.61,306.782728 579.38,307.522728 C582.15,308.262728 577.02,287.932728 577.02,287.932728 Z" opacity=".1"/>
    <path fill="#3F3D56" fill-rule="nonzero" d="M524.9,254.842728 C524.9,254.842728 497.17,307.842728 496.62,315.002728 C496.07,322.162728 472.5,352.712728 472.5,352.712728 L501.89,389.862728 C501.89,389.862728 505.77,380.442728 512.42,377.112728 C519.07,373.782728 517.69,366.302728 517.69,366.302728 C517.69,366.302728 524.62,366.302728 529.61,357.982728 C534.6,349.662728 540.7,341.342728 540.7,337.772728 C540.7,334.202728 577.3,296.462728 577.3,296.462728 L574.53,256.262728 L567.04,243.502728 L524.9,254.842728 Z"/>
    <path fill="#000" fill-rule="nonzero" d="M452.81,257.892728 L452.57,258.102728 C449.2,261.102728 411.5,294.522728 411.5,295.322728 C411.5,296.122728 397.92,318.612728 414.83,338.022728 C431.74,357.432728 470.56,389.312728 470.56,389.312728 C470.56,389.312728 487.47,401.512728 489.69,404.002728 C491.91,406.492728 525.45,404.002728 505.49,381.272728 C485.53,358.542728 466.67,333.032728 466.67,333.032728 C466.67,333.032728 499.94,325.032728 502.16,319.442728 C504.38,313.852728 458.36,244.582728 458.36,244.582728 L452.81,257.892728 Z" opacity=".1"/>
    <path fill="#3F3D56" fill-rule="nonzero" d="M451.7,257.892728 L451.46,258.102728 C448.09,261.102728 410.39,294.522728 410.39,295.322728 C410.39,296.122728 396.81,318.612728 413.72,338.022728 C430.63,357.432728 469.45,389.312728 469.45,389.312728 C469.45,389.312728 486.36,401.512728 488.58,404.002728 C490.8,406.492728 524.34,404.002728 504.38,381.272728 C484.42,358.542728 465.57,333.032728 465.57,333.032728 C465.57,333.032728 498.84,325.032728 501.05,319.442728 C503.26,313.852728 547.05,245.972728 547.05,245.972728 L457.22,244.582728 L451.7,257.892728 Z"/>
    <path fill="#FBBEBE" fill-rule="nonzero" d="M547.63,108.772728 L544.3,138.992728 C544.3,138.992728 510.2,152.572728 509.37,152.302728 C508.54,152.032728 486.64,132.302728 490.24,119.302728 C492.05,112.772728 492.88,103.712728 493.24,96.3027279 C493.6,88.8927279 493.55,83.2527279 493.55,83.2527279 C493.55,83.2527279 543.18,65.5127279 538.74,77.7127279 C537.13,82.1327279 537.85,87.4427279 539.44,92.4027279 C541.424246,98.201686 544.178906,103.707642 547.63,108.772728 L547.63,108.772728 Z"/>
    <path fill="#000" fill-rule="nonzero" d="M539.46,92.3727279 C539.16,92.7327279 538.85,93.0627279 538.54,93.3727279 C526.554726,106.095454 506.760609,107.354444 493.26,96.2527279 C493.63,88.9127279 493.57,83.2027279 493.57,83.2027279 C493.57,83.2027279 543.2,65.4627279 538.76,77.6627279 C537.15,82.1027279 537.87,87.4127279 539.46,92.3727279 Z" opacity=".1"/>
    <path fill="#FBBEBE" fill-rule="nonzero" d="M547.63,69.4527279 C547.624477,87.819114 532.733055,102.704567 514.366668,102.702726 C496.000281,102.700885 481.111843,87.8124471 481.110002,69.4460603 C481.108161,51.0796734 495.993614,36.1882508 514.36,36.1827279 C523.200904,36.1263891 531.696032,39.6135167 537.947621,45.8651065 C544.199211,52.1166963 547.686339,60.6118244 547.63,69.4527279 L547.63,69.4527279 Z"/>
    <path fill="#000" fill-rule="nonzero" d="M506.6,140.102728 C506.6,140.102728 493.6,111.222728 489.13,111.222728 C484.66,111.222728 477.76,260.612728 477.76,260.612728 L545.69,261.682728 L548.46,183.242728 L534.6,113.772728 C534.6,113.772728 522.1,141.172728 506.6,140.102728 Z" opacity=".1"/>
    <path fill="#000" fill-rule="nonzero" d="M506.6,142.322728 C506.6,142.322728 493.6,113.442728 489.13,113.442728 C484.66,113.442728 477.76,262.832728 477.76,262.832728 L554.84,263.992728 L548.46,185.462728 L534.6,115.942728 C534.6,115.942728 522.1,143.392728 506.6,142.322728 Z" opacity=".1"/>
    <path fill="#65617D" fill-rule="nonzero" d="M506.6,141.212728 C506.6,141.212728 493.6,112.332728 489.13,112.332728 C484.66,112.332728 477.76,261.772728 477.76,261.772728 L554.84,262.932728 L548.46,184.402728 L534.6,114.832728 C534.6,114.832728 522.1,142.282728 506.6,141.212728 Z"/>
    <path fill="#000" fill-rule="nonzero" d="M493.96,103.262728 C493.96,103.262728 491.63,99.8627279 488.3,100.972728 C484.97,102.082728 482.48,99.0227279 479.15,102.072728 C475.82,105.122728 462.52,109.282728 460.02,107.902728 C457.52,106.522728 448.65,112.612728 446.71,116.212728 C444.77,119.812728 438.39,129.522728 438.39,129.522728 C438.39,129.522728 432.85,136.182728 433.68,139.782728 C434.51,143.382728 431.74,147.542728 428.41,149.212728 C425.08,150.882728 418.41,167.512728 418.41,167.512728 C418.41,167.512728 420.2,189.752728 412.72,193.642728 C405.24,197.532728 410.78,214.432728 410.78,214.432728 L446.14,206.042728 L456.14,183.312728 C456.14,183.312728 452.26,249.852728 447.54,255.952728 C442.82,262.052728 442.28,265.952728 442.28,265.952728 C442.28,265.952728 460.57,269.832728 464.46,273.162728 C468.35,276.492728 478.6,272.332728 478.6,272.332728 L488.6,183.882728 C488.6,183.882728 492.2,167.252728 492.2,158.652728 C492.2,150.052728 493.96,103.262728 493.96,103.262728 Z" opacity=".1"/>
    <path fill="#F5DD48" fill-rule="nonzero" d="M492.85,103.262728 C492.85,103.262728 490.52,99.8627279 487.19,100.972728 C483.86,102.082728 481.37,99.0227279 478.04,102.072728 C474.71,105.122728 461.41,109.282728 458.91,107.902728 C456.41,106.522728 447.54,112.612728 445.6,116.212728 C443.66,119.812728 437.29,129.522728 437.29,129.522728 C437.29,129.522728 431.74,136.182728 432.57,139.782728 C433.4,143.382728 430.63,147.542728 427.3,149.212728 C423.97,150.882728 417.3,167.512728 417.3,167.512728 C417.3,167.512728 419.1,189.772728 411.63,193.642728 C409.76,194.642728 408.7,196.772728 408.17,199.462728 C406.02,210.332728 414.92,220.272728 426,219.922728 L445.1,212.042728 L455.1,183.312728 C455.1,183.312728 451.22,249.852728 446.5,255.952728 C441.78,262.052728 441.24,265.952728 441.24,265.952728 C441.24,265.952728 459.54,269.832728 463.42,273.162728 C467.3,276.492728 477.56,272.332728 477.56,272.332728 L487.56,183.882728 C487.56,183.882728 491.16,167.252728 491.16,158.652728 C491.16,150.052728 492.85,103.262728 492.85,103.262728 Z"/>
    <path fill="#000" fill-rule="nonzero" d="M431.74 151.432728C431.74 151.432728 435.1 160.572728 444.22 159.772728 453.34 158.972728 431.74 151.432728 431.74 151.432728zM440.61 137.562728C440.61 137.562728 446.71 138.672728 448.93 143.942728 451.15 149.212728 440.61 137.562728 440.61 137.562728zM457.8 128.142728C457.8 129.252728 461.68 148.652728 457.8 156.692728 453.92 164.732728 454.48 174.162728 454.48 174.162728L457.8 128.142728zM539.64 96.5927279C539.64 96.5927279 541.81 94.0327279 544.03 94.3127279 546.25 94.5927279 547.63 95.9727279 550.4 97.0827279 553.17 98.1927279 559.83 98.4727279 559.83 99.3027279 559.83 100.132728 565.65 103.462728 569.53 104.302728 573.41 105.142728 585.62 113.452728 588.67 129.532728 591.72 145.612728 596.98 150.332728 596.98 150.332728L567.59 164.772728C567.59 164.772728 590.33 261.222728 593.1 268.152728 595.87 275.082728 596.1 316.152728 596.1 316.152728 596.1 316.152728 578.1 324.152728 573.37 326.692728 568.64 329.232728 570.59 302.852728 560.89 287.602728 551.19 272.352728 540.1 250.172728 540.1 250.172728L523.23 202.772728C523.23 202.772728 512.42 139.552728 521.57 127.912728 530.72 116.272728 540.47 100.772728 539.64 96.5927279z" opacity=".1"/>
    <path fill="#F5DD48" fill-rule="nonzero" d="M540.75,96.5927279 C540.75,96.5927279 542.92,94.0327279 545.14,94.3127279 C547.36,94.5927279 548.74,95.9727279 551.51,97.0827279 C554.28,98.1927279 560.94,98.4727279 560.94,99.3027279 C560.94,100.132728 566.76,103.462728 570.64,104.302728 C574.52,105.142728 586.72,113.452728 589.77,129.532728 C592.82,145.612728 598.09,150.332728 598.09,150.332728 L568.7,164.772728 C568.7,164.772728 591.44,261.262728 594.21,268.192728 C596.98,275.122728 597.21,316.192728 597.21,316.192728 C597.21,316.192728 579.21,324.192728 574.48,326.732728 C569.75,329.272728 571.75,302.772728 562.1,287.562728 C552.45,272.352728 541.31,250.132728 541.31,250.132728 L524.34,202.772728 C524.34,202.772728 513.53,139.552728 522.68,127.912728 C531.83,116.272728 541.58,100.772728 540.75,96.5927279 Z"/>
    <path fill="#000" fill-rule="nonzero" d="M600.86,217.972728 C600.04,218.102728 599,218.222728 597.79,218.332728 C588.91,219.142728 571.48,219.332728 571.48,219.332728 C571.48,219.332728 558.48,193.552728 547.35,194.332728 C547.35,194.332728 557.61,182.682728 561.77,184.072728 C562.47,184.302728 562.9,183.792728 563.11,182.802728 C564.22,177.802728 560.39,160.802728 560.39,160.802728 L555.12,137.802728 L585.62,145.292728 C588.39,145.842728 596.98,150.292728 596.98,150.292728 C596.98,150.292728 597.26,162.212728 599.48,164.982728 C601.7,167.752728 604.19,181.062728 603.91,184.392728 C603.63,187.722728 606.96,203.242728 603.64,207.392728 C600.32,211.542728 607.8,216.862728 600.86,217.972728 Z" opacity=".1"/>
    <path fill="#F5DD48" fill-rule="nonzero" d="M601.97,217.972728 C601.15,218.102728 600.11,218.222728 598.9,218.332728 C590.02,219.142728 572.58,219.332728 572.58,219.332728 C572.58,219.332728 559.58,193.552728 548.46,194.332728 C548.46,194.332728 558.72,182.682728 562.88,184.072728 C563.58,184.302728 564.01,183.792728 564.22,182.802728 C565.33,177.802728 561.49,160.802728 561.49,160.802728 L556.23,137.802728 L586.72,145.292728 C589.5,145.842728 598.09,150.292728 598.09,150.292728 C598.09,150.292728 598.37,162.212728 600.59,164.982728 C602.81,167.752728 605.3,181.062728 605.02,184.392728 C604.74,187.722728 608.07,203.242728 604.75,207.392728 C601.43,211.542728 608.9,216.862728 601.97,217.972728 Z"/>
    <path fill="#000" fill-rule="nonzero" d="M570.64,157.522728 C570.64,157.522728 596.15,160.302728 597.26,166.672728 C598.37,173.042728 570.64,157.522728 570.64,157.522728 Z" opacity=".1"/>
    <path fill="#65617D" fill-rule="nonzero" d="M486.91,399.572728 C486.91,399.572728 485.25,408.722728 487.19,414.572728 C489.13,420.422728 488.85,433.142728 487.47,437.572728 C486.09,442.002728 481.37,448.112728 494.12,450.882728 C506.87,453.652728 515.47,451.162728 516.03,448.942728 C516.59,446.722728 519.35,437.852728 517.13,432.862728 C514.91,427.872728 514.13,414.862728 518.24,407.352728 C522.35,399.842728 519.63,388.222728 515.75,386.832728 C511.87,385.442728 505.21,382.402728 505.21,382.402728 C505.21,382.402728 512.42,395.402728 505.77,398.202728 C499.12,401.002728 486.91,399.572728 486.91,399.572728 Z"/>
    <path fill="#000" fill-rule="nonzero" d="M547.63,69.4527279 C547.645799,77.9479801 544.390715,86.1232887 538.54,92.2827279 C538.505721,92.2371762 538.478732,92.1865719 538.46,92.1327279 C537.46,90.0227279 536.53,87.8227279 536.61,85.5227279 C536.7,82.7227279 538.31,80.2027279 538.83,77.4427279 C539.48,73.9627279 538.34,70.4427279 537.22,67.0627279 C536.4,64.6027279 534.81,61.6227279 532.22,61.9227279 C531.719061,62.0428379 531.205087,62.099946 530.69,62.0927279 C529.31,61.8827279 529.04,60.0927279 528.88,58.7127279 C528.020156,52.0648831 522.948605,46.7423852 516.35,45.5627279 C515.618417,45.397424 514.854727,45.4460225 514.15,45.7027279 C513.15,46.1427279 512.67,47.1827279 511.8,47.7827279 C508.99,49.7327279 505.4,45.9927279 501.99,46.2827279 C499.08,46.5227279 497.31,49.5027279 496.11,52.1627279 C494.91,54.8227279 493.41,57.8527279 490.56,58.4727279 C490.110495,58.6077848 489.625069,58.5498235 489.22,58.3127279 C488.34,57.6727279 488.95,56.3127279 489.4,55.3127279 C490.56,52.6727279 489.79,50.5727279 488.4,48.7027279 C497.21817,37.6600761 512.051487,33.3953041 525.388074,38.0681742 C538.724661,42.7410444 547.652355,55.3311932 547.65,69.4627279 L547.63,69.4527279 Z" opacity=".1"/>
    <path fill="#512E4E" fill-rule="nonzero" d="M489.42,54.1927279 C488.97,55.1927279 488.35,56.5727279 489.25,57.1927279 C489.657635,57.42302 490.141534,57.4771878 490.59,57.3427279 C493.43,56.7227279 494.94,53.6827279 496.13,51.0327279 C497.32,48.3827279 499.13,45.3927279 502.01,45.1527279 C505.43,44.8727279 509.01,48.6027279 511.82,46.6527279 C512.69,46.0527279 513.22,45.0127279 514.18,44.5727279 C514.882674,44.3228127 515.641223,44.274321 516.37,44.4327279 C522.969327,45.6143986 528.042882,50.9347533 528.91,57.5827279 C529.05,58.9627279 529.34,60.7527279 530.7,60.9727279 C531.218792,60.9764679 531.736054,60.9160087 532.24,60.7927279 C534.81,60.4927279 536.39,63.4727279 537.24,65.9327279 C538.36,69.2927279 539.5,72.8327279 538.85,76.3227279 C538.33,79.0727279 536.71,81.5927279 536.63,84.3927279 C536.55,86.7027279 537.53,88.8927279 538.48,90.9927279 C539.43,93.0927279 540.99,95.5527279 543.28,95.2627279 C545.15,95.0127279 546.19,93.0227279 547.09,91.3627279 C547.99,89.7027279 549.61,87.9027279 551.43,88.4327279 C552.24,88.6627279 553.09,89.3527279 553.83,88.9427279 C554.217689,88.6509418 554.470311,88.2142663 554.53,87.7327279 C555.41,83.8527279 554.14,79.5027279 556.02,76.0027279 C557.47,73.3027279 560.42,71.8527279 562.81,69.9427279 C566.922581,66.6564571 569.52482,61.8413834 570.020633,56.6004802 C570.516445,51.359577 568.863344,46.1419297 565.44,42.1427279 C562.88,39.1427279 559.2,36.5027279 558.99,32.5727279 C558.84,29.5727279 560.86,26.8227279 560.88,23.8227279 C560.9,20.8227279 559.03,18.2927279 556.88,16.3027279 C550.616163,10.5707165 541.933835,8.28609007 533.66,10.1927279 C531.51,10.7027279 529.35,11.5127279 527.15,11.1927279 C524.61,10.8827279 522.49,9.19272793 520.2,8.02272793 C512.325142,4.32695599 502.93262,6.86433222 497.99,14.0227279 C495.36,18.1027279 494.34,23.4427279 490.42,26.3127279 C487.84,28.1927279 484.15,28.8927279 482.73,31.7527279 C481.87,33.4627279 482.11,35.4927279 482.37,37.3927279 C482.780701,40.4962979 484.275445,43.3547302 486.59,45.4627279 C488.97,47.9927279 491.02,50.5727279 489.42,54.1927279 Z"/>
    <polygon fill="#3F3D56" fill-rule="nonzero" points="457.25 474.983 456.97 529.053 446.99 528.223 410.67 232.943 421.39 232.623 428.96 232.393"/>
    <polygon fill="#000" fill-rule="nonzero" points="456.97 529.053 446.99 528.223 410.67 232.943 421.39 232.623 420.93 234.333" opacity=".2"/>
    <polygon fill="#3F3D56" fill-rule="nonzero" points="505.76 233.503 469.17 526.283 462.31 527.833 456.97 529.053 457.25 474.983 489.41 234.613 490.04 234.563"/>
    <polygon fill="#000" fill-rule="nonzero" points="462.24 527.663 462.31 527.833 456.97 529.053 457.25 474.983 489.41 234.613 490.04 234.563 496.62 235.993" opacity=".2"/>
    <polygon fill="#65617D" fill-rule="nonzero" points="589.5 413.713 588.66 481.913 585.34 494.323 552.07 233.223 559.92 232.373 562.32 232.113"/>
    <polygon fill="#000" fill-rule="nonzero" points="589.5 413.713 588.66 481.913 585.34 494.323 552.07 233.223 559.92 232.373 562.32 232.113" opacity=".2"/>
    <polygon fill="#3F3D56" fill-rule="nonzero" points="589.5 413.713 588.66 481.913 560.38 234.613 559.92 232.373 562.32 232.113"/>
    <polygon fill="#65617D" fill-rule="nonzero" points="598.92 323.603 599.75 494.873 595.12 494.693 585.34 494.323 589.22 231.283 596.68 232.213 600.31 232.663"/>
    <polygon fill="#000" fill-rule="nonzero" points="598.92 323.603 599.75 494.873 595.12 494.693 585.34 494.323 589.22 231.283 596.68 232.213 600.31 232.663" opacity=".2"/>
    <polygon fill="#3F3D56" fill-rule="nonzero" points="598.92 323.603 599.75 494.873 595.12 494.693 596.68 232.213 600.31 232.663"/>
    <polygon fill="#65617D" fill-rule="nonzero" points="281.47 230.453 282.02 222.133 329.71 222.413 473.05 220.193 583.67 226.293 654.09 227.673 654.93 235.443 473.88 238.773"/>
    <polygon fill="#3F3D56" fill-rule="nonzero" points="281.47 230.453 282.02 222.133 329.71 222.413 473.05 220.193 583.67 226.293 654.09 227.673 654.93 235.443 473.88 238.773"/>
    <polygon fill="#3F3D56" fill-rule="nonzero" points="282.02 222.133 423.42 228.233 654.09 227.673 481.64 217.143"/>
    <polygon fill="#000" fill-rule="nonzero" points="282.02 222.133 423.42 228.233 654.09 227.673 481.64 217.143" opacity=".1"/>
    <path fill="#E8EAF2" fill-rule="nonzero" d="M468.65,212.932728 C468.65,218.542728 458.84,224.152728 446.73,224.152728 C434.62,224.152728 424.81,218.542728 424.81,212.932728 C424.81,207.322728 434.63,203.842728 446.73,203.842728 C458.83,203.842728 468.65,207.322728 468.65,212.932728 Z"/>
    <path fill="#000" fill-rule="nonzero" d="M468.65,212.932728 C468.65,218.542728 458.84,224.152728 446.73,224.152728 C434.62,224.152728 424.81,218.542728 424.81,212.932728 C424.81,207.322728 434.63,203.842728 446.73,203.842728 C458.83,203.842728 468.65,207.322728 468.65,212.932728 Z" opacity=".1"/>
    <ellipse cx="446.73" cy="212.933" fill="#E8EAF2" fill-rule="nonzero" rx="21.92" ry="10.16"/>
    <ellipse cx="446.8" cy="213.313" fill="#000" fill-rule="nonzero" opacity=".05" rx="13.08" ry="5.27"/>
    <path fill="#F1CEC8" fill-rule="nonzero" d="M477.1,201.072728 C476.66,198.322728 473.02,196.502728 468.36,196.402728 C467.124675,196.377907 465.889639,196.464928 464.67,196.662728 C458.35,197.662728 453.67,201.302728 454.24,204.752728 C454.68,207.482728 458.24,209.292728 462.84,209.422728 C464.125426,209.462056 465.411607,209.374971 466.68,209.162728 C472.96,208.152728 477.63,204.532728 477.1,201.072728 Z M466.39,207.392728 C465.728901,207.505066 465.060427,207.568571 464.39,207.582728 C460.74,207.672728 457.81,206.342728 457.47,204.232728 C457.07,201.762728 460.42,199.162728 464.94,198.432728 C466.017271,198.257715 467.110769,198.204046 468.2,198.272728 C471.2,198.482728 473.56,199.742728 473.86,201.592728 C474.24,204.072728 470.89,206.672728 466.36,207.392728 L466.39,207.392728 Z"/>
    <path fill="#65617D" fill-rule="nonzero" d="M457.27,212.412728 C457.256376,212.940962 457.070233,213.45022 456.74,213.862728 C455.37,215.662728 451.51,216.962728 446.97,216.962728 C442.74,216.962728 439.1,215.832728 437.51,214.222728 C436.994871,213.75819 436.688497,213.105794 436.66,212.412728 C436.66,209.902728 441.27,207.862728 446.97,207.862728 C452.67,207.862728 457.27,209.902728 457.27,212.412728 Z"/>
    <path fill="#000" fill-rule="nonzero" d="M457.27 212.412728C457.256376 212.940962 457.070233 213.45022 456.74 213.862728 454.008343 215.19204 451.007901 215.876291 447.97 215.862728L445.49 215.862728C442.736396 215.866684 440.012057 215.297979 437.49 214.192728 436.974871 213.72819 436.668497 213.075794 436.64 212.382728 436.64 209.872728 441.25 207.832728 446.95 207.832728 452.65 207.832728 457.27 209.902728 457.27 212.412728zM468.33 196.402728C468.33 197.032728 468.26 197.662728 468.18 198.272728 467.090769 198.204046 465.997271 198.257715 464.92 198.432728 460.4 199.162728 457.05 201.762728 457.45 204.232728 457.79 206.342728 460.72 207.672728 464.37 207.582728 463.891103 208.229758 463.369967 208.844431 462.81 209.422728 458.22 209.292728 454.65 207.482728 454.21 204.752728 453.66 201.302728 458.32 197.682728 464.64 196.662728 465.859639 196.464928 467.094675 196.377907 468.33 196.402728z" opacity=".1"/>
    <path fill="#65617D" fill-rule="nonzero" d="M425.58,192.772728 L425.58,195.612728 C425.58,206.608717 434.494011,215.522728 445.49,215.522728 L447.97,215.522728 C458.965989,215.522728 467.88,206.608717 467.88,195.612728 L467.88,192.772728 L425.58,192.772728 Z"/>
    <ellipse cx="446.63" cy="192.183" fill="#65617D" fill-rule="nonzero" rx="21.25" ry="6.05"/>
    <ellipse cx="446.73" cy="191.803" fill="#000" fill-rule="nonzero" opacity=".1" rx="20.14" ry="5.47"/>
    <ellipse cx="446.8" cy="191.603" fill="#FDF9F9" fill-rule="nonzero" rx="19.68" ry="5.47"/>
    <path fill="#000" fill-rule="nonzero" d="M439.9 187.852728C439.9 187.852728 428.9 188.382728 434.08 191.902728 439.26 195.422728 454.17 193.442728 454.17 193.442728 454.17 193.442728 462.39 191.362728 457.1 188.922728 451.81 186.482728 443.82 188.022728 443.82 188.022728 443.82 188.022728 434.68 189.692728 441.71 191.162728 441.71 191.162728 450.18 191.932728 450.55 190.222728 450.92 188.512728 445.79 189.722728 445.79 189.722728 445.79 189.722728 448.5 190.322728 446.63 190.632728 444.76 190.942728 442.63 190.422728 442.63 189.892728 442.63 189.362728 445.41 188.952728 446.21 188.992728 447.01 189.032728 451.21 188.322728 452.83 190.202728 452.975195 190.372485 453.030651 190.601346 452.979267 190.818737 452.927884 191.036128 452.775833 191.215941 452.57 191.302728 451.08 191.932728 447.22 193.132728 441.06 192.182728 432.98 190.922728 439.9 187.852728 439.9 187.852728zM585.89 182.482728C587.56 183.032728 597.26 185.532728 599.2 191.352728 601.14 197.172728 585.89 182.482728 585.89 182.482728z" opacity=".1"/>
    <path fill="#000" fill-rule="nonzero" d="M78.63 2.7C78.889744 1.94750132 79.0870776 1.17489033 79.22.39 78.9614487 1.14285567 78.7641403 1.91536835 78.63 2.7zM8.43 27.25C8.56630728 26.7450373 8.74701139 26.2531206 8.97 25.78 10.58 22.16 8.53 19.58 6.14 17.15 3.82196558 15.0446872 2.32651054 12.1848953 1.92 9.08 1.79291264 8.22859551 1.71611283 7.37044112 1.69 6.51 1.49029037 6.76212772 1.31610295 7.03345812 1.17 7.32.31 9.03.55 11.06.81 12.96 1.22070053 16.0635699 2.71544457 18.9220023 5.03 21.03 6.86 22.89 8.47 24.84 8.43 27.25zM70.97 60.05C69.15 59.52 67.53 61.31 66.63 62.98 65.73 64.65 64.69 66.63 62.82 66.87 60.53 67.17 58.97 64.71 58.02 62.61 57.07 60.51 56.09 58.32 56.16 56.01 56.16 55.73 56.16 55.46 56.24 55.19 55.5986765 56.6837604 55.200315 58.2704545 55.06 59.89 54.98 62.2 55.96 64.39 56.91 66.49 57.86 68.59 59.42 71.05 61.71 70.76 63.58 70.51 64.62 68.52 65.52 66.86 66.42 65.2 68.04 63.4 69.86 63.93 70.67 64.16 71.52 64.85 72.26 64.44 72.647689 64.1482139 72.9003113 63.7115383 72.96 63.23 73.1421971 62.3608083 73.2492587 61.47755 73.28 60.59 72.55 60.91 71.75 60.25 70.97 60.05zM82.35 41.56C79.96 43.47 77.01 44.92 75.56 47.62 74.975363 48.7890815 74.6351064 50.0650437 74.56 51.37 76.03 48.76 78.91 47.32 81.26 45.44 84.9483346 42.4611394 87.4346332 38.2486392 88.26 33.58 87.0056934 36.7021127 84.9707143 39.4498509 82.35 41.56L82.35 41.56zM57.33 51.36C57.7808589 50.2534403 58.1322476 49.108917 58.38 47.94 59.04 44.45 57.9 40.94 56.78 37.55 55.95 35.09 54.37 32.11 51.78 32.41 51.2791514 32.5306288 50.7651123 32.5877443 50.25 32.58 48.89 32.37 48.6 30.58 48.45 29.2 47.5931975 22.5507052 42.5201996 17.226689 35.92 16.05 35.1912232 15.8915931 34.432674 15.9400848 33.73 16.19 32.73 16.63 32.24 17.67 31.37 18.27 28.55 20.27 24.98 16.49 21.56 16.77 18.66 17.01 16.88 19.99 15.68 22.65 14.48 25.31 12.98 28.34 10.14 28.96 9.69060288 29.0962961 9.20467227 29.0382745 8.8 28.8 8.52442118 28.6137296 8.35949886 28.3026261 8.36 27.97 8.26698332 28.5557769 8.09893524 29.1271404 7.86 29.67 7.41 30.67 6.79 32.05 7.69 32.67 8.09763523 32.900292 8.58153434 32.9544598 9.03 32.82 11.87 32.2 13.38 29.16 14.57 26.51 15.76 23.86 17.57 20.87 20.45 20.63 23.87 20.35 27.45 24.08 30.26 22.13 31.13 21.53 31.66 20.49 32.62 20.05 33.322674 19.8000848 34.0812232 19.7515931 34.81 19.91 41.4093269 21.0916706 46.4828819 26.4120254 47.35 33.06 47.49 34.44 47.78 36.23 49.14 36.45 49.6587922 36.45374 50.1760544 36.3932808 50.68 36.27 53.25 35.97 54.83 38.95 55.68 41.41 56.74 44.64 57.81 48.02 57.33 51.36z" opacity=".1" transform="translate(481.55 24.523)"/>
    <path fill="#FBBEBE" fill-rule="nonzero" d="M557.28,192.192728 C557.28,192.192728 543.14,196.492728 536.76,196.492728 C530.38,196.492728 505.43,196.352728 505.43,196.352728 C505.43,196.352728 440.28,174.592728 459.82,204.352728 C479.36,234.112728 510.28,217.522728 510.28,217.522728 C510.28,217.522728 512.78,218.072728 515.83,218.772728 C518.88,219.472728 577.83,218.912728 579.73,216.552728 C581.63,214.192728 557.28,192.192728 557.28,192.192728 Z"/>
    <path fill="#000" fill-rule="nonzero" d="M597.79,218.332728 C588.91,219.142728 571.48,219.332728 571.48,219.332728 C571.48,219.332728 558.48,193.552728 547.35,194.332728 C547.35,194.332728 557.61,182.682728 561.77,184.072728 C562.47,184.302728 562.9,183.792728 563.11,182.802728 C573.98,186.112728 594.68,194.232728 596.71,208.472728 C597.25,212.352728 597.59,215.592728 597.79,218.332728 Z" opacity=".1"/>
    <path fill="#F5DD48" fill-rule="nonzero" d="M598.9,218.332728 C590.02,219.142728 572.58,219.332728 572.58,219.332728 C572.58,219.332728 559.58,193.552728 548.46,194.332728 C548.46,194.332728 558.72,182.682728 562.88,184.072728 C563.58,184.302728 564.01,183.792728 564.22,182.802728 C575.09,186.112728 595.79,194.232728 597.81,208.472728 C598.36,212.352728 598.7,215.592728 598.9,218.332728 Z"/>
    <path fill="#000" fill-rule="nonzero" d="M597.79 219.362728C588.91 220.172728 571.48 220.362728 571.48 220.362728 571.48 220.362728 558.48 194.582728 547.35 195.412728 547.35 195.412728 557.61 183.762728 561.77 185.152728 562.47 185.382728 562.9 184.872728 563.11 183.872728 573.98 187.192728 594.68 195.312728 596.71 209.552728 597.25 213.382728 597.59 216.622728 597.79 219.362728zM521.02 292.552728C521.02 292.552728 546.02 286.452728 549.85 289.772728 553.68 293.092728 521.02 292.552728 521.02 292.552728zM449.48 316.392728C449.48 316.392728 460.02 322.492728 461.13 327.482728 462.24 332.472728 449.48 316.392728 449.48 316.392728zM491.63 428.772728C491.63 428.772728 506.04 426.552728 509.74 428.962728 513.44 431.372728 491.63 428.772728 491.63 428.772728z" opacity=".1"/>
    <ellipse cx="674.58" cy="462.603" fill="#F5DD48" fill-rule="nonzero" opacity=".1" rx="20.49" ry="2.81"/>
    <ellipse cx="753.07" cy="470.563" fill="#F5DD48" fill-rule="nonzero" opacity=".1" rx="20.49" ry="2.81"/>
    <ellipse cx="845.52" cy="459.793" fill="#F5DD48" fill-rule="nonzero" opacity=".1" rx="20.49" ry="2.81"/>
    <ellipse cx="721.66" cy="493.223" fill="#F5DD48" fill-rule="nonzero" opacity=".1" rx="14.57" ry="2"/>
    <ellipse cx="803.11" cy="491.223" fill="#F5DD48" fill-rule="nonzero" opacity=".1" rx="14.57" ry="2"/>
    <path fill="#F5DD48" fill-rule="nonzero" d="M753.51,469.922728 C753.51,469.922728 724.78,375.722728 758.01,337.992728 C782.87,309.762728 811.09,313.142728 823.73,316.642728 C830.34784,318.401154 835.858419,322.979285 838.8,329.162728 C843.22,338.692728 842.42,354.162728 811.23,372.222728 C759.01,402.462728 755.76,443.942728 755.76,443.942728 L753.51,469.922728 Z"/>
    <path stroke="#565987" d="M819.23 330.002728C819.23 330.002728 734.52 356.482728 753.51 469.922728M769.75 339.492728C769.75 339.492728 781.42 347.352728 777.75 359.162728M810.73 346.492728C810.73 346.492728 803.6 339.232728 794.92 343.232728M777.25 382.972728C777.25 382.972728 764.73 376.612728 761.49 384.572728M746.27 396.212728C746.27 396.212728 755.67 395.462728 755.84 399.962728"/>
    <path fill="#F5DD48" fill-rule="nonzero" d="M752.35,470.672728 C752.35,470.672728 786.01,402.212728 795.25,403.672728 C799.64,404.382728 801.67,408.672728 802.58,413.042728 C803.713113,418.654732 803.073605,424.480195 800.75,429.712728 C795.97,440.702728 783.1,461.512728 752.35,470.672728 Z"/>
    <path stroke="#565987" d="M795 416.702728C795 416.702728 759.67 467.932728 752.85 470.172728M798.25 424.702728L790 424.702728M788.37 443.442728L775.45 444.002728M780.51 428.452728L781.91 435.182728M766.76 448.942728L767.01 455.062728"/>
    <path fill="#F5DD48" fill-rule="nonzero" d="M753.35,470.672728 C753.35,470.672728 719.7,402.212728 710.45,403.672728 C706.06,404.382728 704.03,408.672728 703.12,413.042728 C701.974079,418.673948 702.613808,424.522397 704.95,429.772728 C709.73,440.702728 722.56,461.512728 753.35,470.672728 Z"/>
    <path stroke="#565987" d="M710.7 416.702728C710.7 416.702728 746.03 467.932728 752.85 470.172728M707.45 424.702728L715.69 424.702728M717.32 443.442728L730.25 444.002728M725.19 428.452728L723.79 435.182728M738.93 448.942728L738.68 455.062728"/>
    <path fill="#F5DD48" fill-rule="nonzero" d="M811.1 486.662728C812.048076 485.92806 812.746486 484.918857 813.1 483.772728 813.406273 482.599026 812.846787 481.371498 811.76 480.832728 810.53 480.362728 809.22 481.212728 808.23 482.072728 807.24 482.932728 806.09 483.912728 804.78 483.732728 806.146115 482.499232 806.761645 480.637443 806.4 478.832728 806.346096 478.46398 806.190237 478.117626 805.95 477.832728 805.27 477.102728 804.03 477.422728 803.22 477.992728 800.62 479.822728 799.89 483.352728 799.88 486.532728 799.73816 485.364514 799.721398 484.184499 799.83 483.012728 799.932184 481.821431 799.437882 480.656826 798.51 479.902728 797.897854 479.568733 797.206836 479.406343 796.51 479.432728 795.338746 479.260115 794.149429 479.594724 793.24 480.352728 792.367085 481.56 792.420537 483.204683 793.37 484.352728 794.332307 485.441149 795.475879 486.354652 796.75 487.052728 797.717623 487.63422 798.544156 488.423183 799.17 489.362728 799.23965 489.494952 799.299802 489.631964 799.35 489.772728L806.67 489.772728C808.279373 488.939283 809.769386 487.893247 811.1 486.662728zM693.64 446.662728C694.554774 445.915165 695.220851 444.90733 695.55 443.772728 695.856273 442.599026 695.296787 441.371498 694.21 440.832728 692.98 440.362728 691.67 441.212728 690.67 442.072728 689.67 442.932728 688.54 443.912728 687.23 443.732728 688.592656 442.496979 689.207525 440.63719 688.85 438.832728 688.796096 438.46398 688.640237 438.117626 688.4 437.832728 687.72 437.102728 686.48 437.422728 685.67 437.992728 683.07 439.822728 682.34 443.352728 682.33 446.532728 682.18816 445.364514 682.171398 444.184499 682.28 443.012728 682.382184 441.821431 681.887882 440.656826 680.96 439.902728 680.347854 439.568733 679.656836 439.406343 678.96 439.432728 677.788746 439.260115 676.599429 439.594724 675.69 440.352728 674.809897 441.557793 674.863507 443.207353 675.82 444.352728 676.782307 445.441149 677.925879 446.354652 679.2 447.052728 680.166674 447.631895 680.99041 448.421452 681.61 449.362728 681.687815 449.49086 681.74834 449.628723 681.79 449.772728L689.1 449.772728C690.746541 448.945344 692.273698 447.899208 693.64 446.662728L693.64 446.662728zM846.85 430.922728C846.85 430.922728 849.59 434.512728 845.58 439.922728 841.57 445.332728 838.26 449.922728 839.58 453.302728 839.58 453.302728 845.58 443.232728 850.58 443.092728 855.58 442.952728 852.27 436.982728 846.85 430.922728z"/>
    <path fill="#000" fill-rule="nonzero" d="M846.85,430.922728 C847.087441,431.272026 847.275863,431.652234 847.41,432.052728 C852.22,437.702728 854.78,442.972728 850.16,443.102728 C845.85,443.232728 840.69,450.922728 839.45,452.872728 C839.490998,453.022311 839.541091,453.169251 839.6,453.312728 C839.6,453.312728 845.6,443.242728 850.6,443.102728 C855.6,442.962728 852.27,436.982728 846.85,430.922728 Z" opacity=".1"/>
    <path fill="#FFD037" fill-rule="nonzero" d="M851.95,435.502728 C851.95,436.762728 851.81,437.792728 851.64,437.792728 C851.47,437.792728 851.32,436.792728 851.32,435.502728 C851.32,434.212728 851.5,434.832728 851.67,434.832728 C851.84,434.832728 851.95,434.242728 851.95,435.502728 Z"/>
    <path fill="#FFD037" fill-rule="nonzero" d="M853.7,437.012728 C852.59,437.612728 851.63,438.012728 851.54,437.832728 C851.45,437.652728 852.29,437.062728 853.4,436.452728 C854.51,435.842728 854.07,436.292728 854.16,436.452728 C854.25,436.612728 854.81,436.402728 853.7,437.012728 Z"/>
    <path fill="#F5DD48" fill-rule="nonzero" d="M832.35,430.922728 C832.35,430.922728 829.6,434.512728 833.61,439.922728 C837.62,445.332728 840.94,449.922728 839.61,453.302728 C839.61,453.302728 833.55,443.232728 828.61,443.092728 C823.67,442.952728 826.93,436.982728 832.35,430.922728 Z"/>
    <path fill="#000" fill-rule="nonzero" d="M832.35,430.922728 C832.107916,431.269295 831.919152,431.650194 831.79,432.052728 C826.98,437.702728 824.42,442.972728 829.04,443.102728 C833.34,443.232728 838.51,450.922728 839.74,452.872728 C839.702465,453.022145 839.655709,453.169093 839.6,453.312728 C839.6,453.312728 833.54,443.242728 828.6,443.102728 C823.66,442.962728 826.93,436.982728 832.35,430.922728 Z" opacity=".1"/>
    <path fill="#FFD037" fill-rule="nonzero" d="M827.24,435.502728 C827.24,436.762728 827.39,437.792728 827.56,437.792728 C827.73,437.792728 827.88,436.792728 827.88,435.502728 C827.88,434.212728 827.7,434.832728 827.53,434.832728 C827.36,434.832728 827.24,434.242728 827.24,435.502728 Z"/>
    <path fill="#FFD037" fill-rule="nonzero" d="M825.49,437.012728 C826.6,437.612728 827.57,438.012728 827.65,437.832728 C827.73,437.652728 826.91,437.062728 825.8,436.452728 C824.69,435.842728 825.12,436.292728 825.04,436.452728 C824.96,436.612728 824.38,436.402728 825.49,437.012728 Z"/>
    <path fill="#A8A8A8" fill-rule="nonzero" d="M828.1,452.842728 C828.1,452.842728 835.77,452.602728 838.1,450.962728 C840.43,449.322728 849.9,447.342728 850.48,449.962728 C851.06,452.582728 862.01,463.102728 853.35,463.172728 C844.69,463.242728 833.21,461.822728 830.9,460.422728 C828.59,459.022728 828.1,452.842728 828.1,452.842728 Z"/>
    <path fill="#000" fill-rule="nonzero" d="M853.51,462.272728 C844.85,462.342728 833.38,460.922728 831.07,459.522728 C829.31,458.452728 828.61,454.602728 828.37,452.832728 L828.1,452.832728 C828.1,452.832728 828.58,459.022728 830.89,460.432728 C833.2,461.842728 844.67,463.252728 853.34,463.182728 C855.84,463.182728 856.7,462.272728 856.66,460.952728 C856.33,461.772728 855.37,462.262728 853.51,462.272728 Z" opacity=".2"/>
  </g>
</svg>
