<svg width="237" height="248" viewBox="0 0 237 248" fill="none" xmlns="http://www.w3.org/2000/svg">
<circle cx="122.191" cy="139.587" r="90.8692" fill="#F4F2F0"/>
<circle cx="122.163" cy="139.559" r="71.2694" fill="#ECE7E4"/>
<circle cx="122.14" cy="139.535" r="51.6743" fill="#E8E1DE"/>
<circle cx="122.111" cy="139.507" r="32.0738" fill="#E3DCD8"/>
<line x1="19.3124" y1="117.196" x2="121.831" y2="139.564" stroke="white"/>
<line x1="122.225" y1="45.9215" x2="122.225" y2="140.053" stroke="white"/>
<line x1="223.424" y1="117.24" x2="121.837" y2="140.54" stroke="white"/>
<path d="M121.473 139.288L173.64 217.928" stroke="white"/>
<path d="M121.47 139.889L69.7781 220.21" stroke="white"/>
<g style="mix-blend-mode:multiply">
<path d="M172.518 128.403C168.752 104.868 144.133 87.861 122.191 87.861C100.249 87.861 79.9526 112.524 71.3975 128.403C62.8424 144.282 51.2295 204.458 71.3976 216.476C91.5657 228.494 137.869 190.723 150.151 182.458C162.432 174.194 176.284 151.937 172.518 128.403Z" fill="#6590ED"/>
</g>
<g style="mix-blend-mode:multiply">
<path d="M191.992 124.675C185.306 99.7894 137.447 107.332 122.315 107.332C107.183 107.332 55.8044 98.1821 52.7579 124.675C49.7115 151.168 101.392 145.488 114.221 151.32C127.05 157.151 136.391 214.311 161.377 198.827C186.362 183.343 198.679 149.56 191.992 124.675Z" fill="#CC33A1"/>
<path d="M191.992 124.675C185.306 99.7894 137.447 107.332 122.315 107.332C107.183 107.332 55.8044 98.1821 52.7579 124.675C49.7115 151.168 101.392 145.488 114.221 151.32C127.05 157.151 136.391 214.311 161.377 198.827C186.362 183.343 198.679 149.56 191.992 124.675Z" stroke="#CC33A1"/>
</g>
<path d="M9.87696 112.394C5.25069 110.887 7.90273 110.94 8.64734 109.242C8.83771 108.808 7.60747 109.75 6.89821 109.404C6.63122 109.274 8.00148 107.456 8.05018 107.288C8.37663 106.16 5.00418 107.327 5.82008 105.919C6.07156 105.484 7.50326 105.125 7.07397 104.872C5.1659 104.47 4.22826 103.921 4.26103 103.226C4.31018 102.184 4.92295 102.576 5.23054 101.906C5.72787 100.823 2.49073 101.877 3.43494 100.213C3.95276 99.3009 5.14753 99.1206 3.52592 97.9463C2.93312 97.517 2.25709 97.6443 2.06293 96.9443C1.89719 96.3469 2.97226 96.7269 3.01519 96.1052C3.0956 94.9409 1.67995 94.0281 1.7439 92.8631C1.77278 92.3371 2.70982 92.0917 3.22854 92.2189C4.05775 92.4222 4.44947 93.4762 5.26436 93.7263C5.71874 93.8657 6.16804 93.1496 6.63041 93.263C7.69907 93.5251 6.46903 95.3438 6.65051 95.52C6.97292 95.8329 7.72693 94.6514 7.94586 95.0416C8.35452 95.77 7.47598 96.7818 7.79198 97.5545C7.93296 97.8992 9.59793 96.6536 9.96947 97.5732C10.2172 98.1863 10.1024 99.3154 9.62522 100.96C10.1253 101.439 11.0926 100.691 11.7427 100.948C13.2859 101.557 10.6011 103.669 11.9242 104.416C12.3198 104.639 12.8638 103.988 13.2821 104.137C14.6461 104.623 11.475 106.138 13.1089 106.842C13.623 107.064 14.2947 106.247 14.7808 106.521C15.8045 107.098 14.8057 109.225 14.4857 109.659" fill="#0D7F8C"/>
<path d="M2.69592 92.2756C2.03346 93.9188 3.17258 95.2273 4.33345 95.3553C4.66857 95.3923 3.40131 95.6723 3.25517 96.4467C3.20016 96.7383 5.24082 97.2468 5.38674 97.3485C6.36486 98.0306 3.68034 99.4445 5.12646 100.011C5.57219 100.185 6.61581 99.4755 6.55794 99.9791C5.79101 101.636 5.66236 102.734 6.172 103.271C6.93645 104.078 6.99635 103.333 7.63976 103.658C8.68009 104.185 6.15062 105.596 7.84786 106.278C8.77866 106.652 9.56472 105.963 9.50168 108.043C9.47863 108.803 9.01606 109.173 9.40418 109.873C9.73547 110.47 10.0592 109.413 10.5226 109.884C11.3905 110.767 11.2561 112.492 12.1154 113.387C12.5034 113.791 13.1934 113.335 13.3893 112.87C13.5981 112.374 12.3238 109.404 9.56648 103.959C7.97641 100.584 6.92109 98.4357 6.40053 97.5146C5.41343 95.7681 4.17856 94.0218 2.69592 92.2756Z" fill="#29A389"/>
<path d="M15.1546 111.555C13.3588 108.295 14.8114 109.709 16.1127 109.146C16.4454 109.001 15.2674 108.888 15.0521 108.323C14.971 108.111 16.6841 107.806 16.7991 107.737C17.5702 107.275 15.0786 106.17 16.269 105.805C16.636 105.693 17.6229 106.238 17.5151 105.872C16.6601 104.651 16.423 103.853 16.804 103.481C17.3754 102.921 17.5124 103.462 18.0337 103.246C18.8765 102.898 16.5198 101.8 17.915 101.359C18.6801 101.117 19.4411 101.64 19.1488 100.135C19.0419 99.5843 18.5982 99.3028 18.8551 98.8088C19.0743 98.3871 19.4761 99.1613 19.8245 98.8349C20.4769 98.2236 20.1631 96.9726 20.8068 96.3523C21.0974 96.0722 21.7484 96.4236 21.9716 96.7657C22.3283 97.3125 21.997 98.1083 22.3213 98.6739C22.5021 98.9893 23.1266 98.822 23.3255 99.1269C23.7852 99.8317 22.1496 100.21 22.159 100.404C22.1756 100.748 23.213 100.478 23.1316 100.811C22.9796 101.433 21.9613 101.543 21.7344 102.141C21.6332 102.408 23.2125 102.578 22.94 103.288C22.7584 103.761 22.1051 104.335 20.9803 105.009C21.0099 105.538 21.94 105.623 22.1689 106.107C22.7123 107.254 20.1117 107.038 20.4604 108.147C20.5647 108.479 21.2079 108.398 21.3636 108.7C21.8714 109.684 19.3107 108.88 19.8554 110.127C20.0269 110.52 20.8281 110.412 20.9564 110.819C21.2264 111.678 19.559 112.35 19.154 112.426" fill="#0D7F8C"/>
<path d="M9.95743 112.408C5.29865 107.574 8.47194 109.327 10.4242 107.67C10.9233 107.246 8.85239 107.646 8.2094 106.76C7.96736 106.427 10.7503 105.017 10.9135 104.837C12.0076 103.628 7.20684 102.949 9.06637 101.699C9.63952 101.314 11.5934 101.773 11.2311 101.182C9.17373 99.4642 8.38024 98.1793 8.8506 97.3277C9.55614 96.0503 10.0535 96.9329 10.8406 96.2875C12.1133 95.2438 7.54659 94.5086 9.71932 93.0203C10.9109 92.204 12.4671 92.7372 11.2345 90.232C10.7839 89.3162 9.8878 89.0461 10.0869 88.0439C10.2569 87.1885 11.321 88.3491 11.7583 87.5959C12.5772 86.1853 11.4316 84.1392 12.231 82.7173C12.592 82.0753 13.8769 82.363 14.4252 82.8525C15.3016 83.6349 15.1219 85.2071 15.952 86.0392C16.4149 86.5032 17.402 85.8899 17.8906 86.3262C19.0201 87.3347 16.4057 88.8359 16.516 89.1724C16.7118 89.7703 18.3557 88.7664 18.3785 89.3955C18.421 90.5697 16.7318 91.2814 16.6349 92.4523C16.5916 92.9747 19.3765 92.4696 19.2557 93.8603C19.1751 94.7875 18.3365 96.132 16.7399 97.894C17.0481 98.8121 18.681 98.4885 19.3078 99.224C20.7959 100.97 16.241 101.914 17.3775 103.694C17.7174 104.225 18.7784 103.754 19.1917 104.207C20.5395 105.685 15.7666 105.571 17.3057 107.493C17.79 108.098 19.1085 107.499 19.5262 108.152C20.4058 109.528 17.8799 111.563 17.2242 111.905" fill="#33CCAB"/>
<path d="M13.5715 82.3463C15.2636 83.7898 14.7752 85.9301 13.5715 86.7635C13.224 87.0041 14.7839 86.5637 15.3985 87.3428C15.6298 87.636 13.6798 89.4179 13.5786 89.6184C12.9006 90.9625 16.6859 90.9475 15.4246 92.4404C15.0358 92.9005 13.4705 92.7274 13.8292 93.2561C15.6447 94.6532 16.4292 95.8038 16.1826 96.7078C15.8128 98.0639 15.3107 97.2668 14.7925 98.0133C13.9548 99.2202 17.5676 99.2942 16.0976 101.066C15.2915 102.038 14.022 101.735 15.3096 104.023C15.7802 104.859 16.5062 104.997 16.4888 106.011C16.4739 106.876 15.498 105.886 15.2636 106.689C14.8246 108.192 15.9831 110.041 15.5606 111.553C15.3699 112.235 14.3424 112.135 13.8543 111.731C13.3341 111.301 12.9981 107.223 12.8463 99.495C12.6209 94.7756 12.5252 91.7462 12.5592 90.4068C12.6236 87.8671 12.961 85.1803 13.5715 82.3463Z" fill="#29A389"/>
<path d="M5.75293 110.26L9.31688 122.774C9.31688 122.774 10.7474 123.144 14.2215 123.144C17.6956 123.144 18.8224 122.775 18.8224 122.775L22.215 110.26" fill="#1F3B7A"/>
<path d="M226.633 83.0553C226.395 83.04 222.006 82.8139 220.897 88.0928C219.758 93.5184 220.897 108.625 220.897 108.625H232.387C232.387 108.625 233.526 93.5184 232.387 88.0928C231.278 82.8139 226.639 83.0562 226.633 83.0553Z" fill="#2AA98E"/>
<path d="M222.381 88.9674L223.538 90.7093L224.841 89.0964" stroke="black" stroke-opacity="0.2" stroke-width="0.5"/>
<path d="M227.047 86.031L228.567 87.468L229.474 85.6032" stroke="black" stroke-opacity="0.2" stroke-width="0.5"/>
<path d="M227.981 92.2573L229.228 93.9362L230.445 92.2573" stroke="black" stroke-opacity="0.2" stroke-width="0.5"/>
<path d="M223.236 95.7628L224.3 97.5629L225.686 96.0204" stroke="black" stroke-opacity="0.2" stroke-width="0.5"/>
<path d="M222.381 102.68L223.538 104.422L224.841 102.809" stroke="black" stroke-opacity="0.2" stroke-width="0.5"/>
<path d="M227.047 99.7436L228.567 101.181L229.474 99.3158" stroke="black" stroke-opacity="0.2" stroke-width="0.5"/>
<path d="M227.981 105.969L229.228 107.648L230.445 105.969" stroke="black" stroke-opacity="0.2" stroke-width="0.5"/>
<path d="M234.56 99.1554C233.952 95.7338 231.408 95.8909 231.404 95.8903C231.274 95.8803 228.867 95.7338 228.259 99.1554C227.634 102.672 228.259 108.281 228.259 108.281L231.397 108.788V108.793L231.409 108.79L231.421 108.793V108.788L234.56 108.281C234.56 108.281 235.185 102.672 234.56 99.1554Z" fill="#33CCAB"/>
<path d="M231.208 99.9202L232.432 101.533L233.627 99.9202" stroke="black" stroke-opacity="0.2" stroke-width="0.5"/>
<path d="M229.191 104.759L230.415 106.373L231.611 104.759" stroke="black" stroke-opacity="0.2" stroke-width="0.5"/>
<path d="M236.13 106.776C236.13 106.776 236.561 113.433 235.082 116.56C235.082 116.56 233.343 121.295 230.635 121.295H227.741H227.65H224.756C222.048 121.295 220.309 116.56 220.309 116.56C218.83 113.433 219.322 106.769 219.351 106.776H236.13Z" fill="#294FA3"/>
<path d="M194.785 224.426C195.283 221.678 190.2 212.552 190.2 212.552C190.2 212.552 191.109 221.506 189.862 226.688L189.248 229.751L191.354 235.749L194.819 227.476L194.785 224.426Z" fill="#29A389"/>
<path d="M192.773 236.516C188.589 228.665 181.608 213.682 181.608 213.682C181.608 213.682 183.144 225.627 185.125 231.037C185.125 231.037 187.191 238.813 189.292 241.118L192.387 242.926L194.046 240.437L192.773 236.516Z" fill="#07454C"/>
<path d="M193.241 232.276C196.109 228.065 200.476 224.854 205.377 223.417C204.826 223.717 198.208 229.716 195.926 235.272L194.968 238.842L189.541 242.797L190.472 232.416L193.241 232.276Z" fill="#33CCAB"/>
<path d="M195.53 228.263C197.221 224.292 196.719 221.021 196.393 216.882C196.324 215.992 196.493 214.223 196.493 214.223C196.493 214.223 195.073 219.6 193.926 222.001C192.658 224.655 190.857 225.635 190.454 228.95L190.195 231.949L191.274 238.136L192.115 238.785L195.53 228.263Z" fill="#07454C"/>
<path d="M190.817 238.626C189.564 233.558 186.998 228.833 183.448 225.064C182.756 224.329 182.027 223.629 181.239 223.002C180.083 222.082 177.448 220.752 177.448 220.752C177.448 220.752 184.066 229.427 185.295 234.616L185.383 237.217L187.058 238.785L190.817 238.626Z" fill="#29A389"/>
<path d="M196.015 239.407C197.934 234.011 201.979 229.075 206.984 226.349C203.997 227.472 201.101 228.889 198.526 230.785C195.952 232.681 195.16 233.519 193.273 236.041L191.75 239.057L196.015 239.407Z" fill="#07454C"/>
<path d="M189.167 214.223C189.167 214.223 185.842 221.229 185.842 226.315C185.842 229.705 187.121 234.779 189.678 241.537L193.926 241.584L193.4 237.25C193.608 228.409 189.167 214.223 189.167 214.223Z" fill="#33CCAB"/>
<path d="M191.128 237.756C186.72 228.729 173.406 225.105 173.406 225.105C173.406 225.105 183.681 233.755 184.954 238.164L191.128 237.756Z" fill="#07454C"/>
<path d="M190.018 242.497C188.252 229.685 204.497 214.223 204.497 214.223C204.497 214.223 202.853 216.993 202.097 218.298C197.782 225.751 196.052 234.212 194.899 242.827" fill="#238C76"/>
<path d="M197.704 236.87C193.012 236.704 183.721 236.873 183.721 236.873C183.721 236.873 183.6 241.42 184.263 243.219C184.843 244.796 185.676 246.174 187.511 247.147C189.546 248.227 191.87 248.227 193.905 247.147C195.74 246.174 196.573 244.796 197.153 243.219C197.816 241.42 197.695 236.873 197.695 236.873C197.695 236.873 188.404 236.704 183.713 236.87" fill="#5C82D6"/>
<path d="M60.1688 225.401C60.0794 224.941 59.8605 224.42 59.4073 224.323C59.0075 224.237 58.6296 224.529 58.345 224.826C57.5809 225.625 57.0129 226.596 56.265 227.411C55.4041 228.348 54.3072 229.062 53.1078 229.47C53.2322 228.627 53.3176 227.778 53.2445 226.931C53.2129 226.567 53.1481 226.201 53.0474 225.847C54.8524 224.62 56.1288 222.745 56.8426 220.661C57.5813 218.504 57.6557 216.139 57.1938 213.905C56.9494 212.724 56.5317 211.529 55.6809 210.683C54.8305 209.837 53.4603 209.435 52.405 209.997C51.1807 210.65 50.8216 212.284 50.999 213.672C51.1763 215.059 51.7447 216.382 51.8292 217.778C51.9439 219.682 51.0769 221.616 49.599 222.798C48.9593 222.64 47.8576 222.471 47.7936 222.459C46.7799 222.273 45.7246 222.398 44.7446 222.754C43.7151 221.941 43.1586 220.802 42.9983 219.473C42.8547 218.284 43.1284 217.089 43.247 215.895C43.3653 214.703 43.2987 213.406 42.5836 212.449C42.4032 212.208 42.1773 211.99 41.897 211.882C41.3777 211.682 40.7896 211.898 40.3259 212.208C38.9868 213.101 38.2231 214.742 38.178 216.363C38.0905 219.53 40.8741 223.566 42.2508 224.343C41.9386 224.66 41.6645 225.015 41.4661 225.414C40.7773 226.796 41.0755 228.45 41.3895 229.965C42.0319 233.066 42.6743 236.169 43.3167 239.27L51.4763 239.421C51.7394 237.804 52.003 236.213 52.2666 234.62C54.3825 234.121 56.4445 233.217 57.9933 231.684C59.6275 230.066 60.6106 227.67 60.1688 225.401Z" fill="#07454C"/>
<path fill-rule="evenodd" clip-rule="evenodd" d="M41.6478 230.199L42.9604 231.826L40.9892 232.117L41.6478 230.199Z" stroke="#33CCAB" stroke-width="0.5"/>
<path fill-rule="evenodd" clip-rule="evenodd" d="M55.1708 221.624L56.4833 223.251L54.5121 223.542L55.1708 221.624Z" stroke="#33CCAB" stroke-width="0.5"/>
<path fill-rule="evenodd" clip-rule="evenodd" d="M47.1403 223.232L48.149 225.061L46.157 225.007L47.1403 223.232Z" stroke="#33CCAB" stroke-width="0.5"/>
<path fill-rule="evenodd" clip-rule="evenodd" d="M38.8947 212.678L39.9034 214.506L37.9114 214.452L38.8947 212.678Z" stroke="#33CCAB" stroke-width="0.5"/>
<path fill-rule="evenodd" clip-rule="evenodd" d="M47.224 229.33L46.8155 231.375L45.3244 230.06L47.224 229.33Z" stroke="#33CCAB" stroke-width="0.5"/>
<path fill-rule="evenodd" clip-rule="evenodd" d="M52.831 219.105L52.4224 221.15L50.9314 219.835L52.831 219.105Z" stroke="#33CCAB" stroke-width="0.5"/>
<path fill-rule="evenodd" clip-rule="evenodd" d="M42.6064 218.115L42.1978 220.161L40.7068 218.846L42.6064 218.115Z" stroke="#33CCAB" stroke-width="0.5"/>
<path fill-rule="evenodd" clip-rule="evenodd" d="M44.135 235.487L45.7114 236.862L43.8209 237.489L44.135 235.487Z" stroke="#33CCAB" stroke-width="0.5"/>
<path fill-rule="evenodd" clip-rule="evenodd" d="M50.7397 233.982L52.9378 233.604L52.1608 235.802L50.7397 233.982Z" stroke="#33CCAB" stroke-width="0.5"/>
<path fill-rule="evenodd" clip-rule="evenodd" d="M51.5305 227.907L51.9092 230.106L49.7111 229.329L51.5305 227.907Z" stroke="#33CCAB" stroke-width="0.5"/>
<path fill-rule="evenodd" clip-rule="evenodd" d="M54.1691 212.075L54.5479 214.273L52.3498 213.496L54.1691 212.075Z" stroke="#33CCAB" stroke-width="0.5"/>
<path fill-rule="evenodd" clip-rule="evenodd" d="M58.1271 229.227L58.5059 231.425L56.3078 230.648L58.1271 229.227Z" stroke="#33CCAB" stroke-width="0.5"/>
<path fill-rule="evenodd" clip-rule="evenodd" d="M57.7973 215.704L58.176 217.902L55.978 217.125L57.7973 215.704Z" stroke="#33CCAB" stroke-width="0.5"/>
<path fill-rule="evenodd" clip-rule="evenodd" d="M42.6249 225.269L43.0037 227.467L40.8056 226.69L42.6249 225.269Z" stroke="#33CCAB" stroke-width="0.5"/>
<path fill-rule="evenodd" clip-rule="evenodd" d="M50.2111 237.143L50.5898 239.341L48.3918 238.564L50.2111 237.143Z" stroke="#33CCAB" stroke-width="0.5"/>
<path d="M54.6673 235.793V238.035L54.0818 238.035L52.4882 247.711C48.9935 247.725 45.4987 247.738 42.0045 247.752L40.4015 238.035L39.825 238.035V235.793H54.6673Z" fill="#5C82D6"/>
<path d="M40.5795 238.783H53.9126L54.1642 238.035H40.3279L40.5795 238.783Z" fill="black" fill-opacity="0.05"/>
<path d="M102.581 12.9923C102.828 15.495 103.494 18.1073 105.284 19.8622L109.5 20.905H112.239L114.993 14.5192L114.52 13.428C114.225 11.6897 112.683 10.4119 111.052 9.76533C109.422 9.11879 107.647 8.94553 105.962 8.46206C104.276 7.97859 102.572 7.07852 101.79 5.50134C102.421 7.93463 102.333 10.4896 102.581 12.9923Z" fill="#238C76"/>
<path d="M102.551 7.57672C105.99 13.7108 109.156 17.5537 112.048 19.1053" stroke="black" stroke-opacity="0.2"/>
<path d="M128.391 10.1481C126.746 10.797 125.192 12.0796 124.895 13.8245L127.194 21.3295C130.623 21.935 132.939 21.6506 134.144 20.4763C135.95 18.7148 136.685 15.8992 136.934 13.3871C137.184 10.875 137.095 8.31051 137.732 5.8681C136.943 7.45119 135.225 8.35463 133.525 8.83992C131.825 9.3252 130.035 9.49911 128.391 10.1481Z" fill="#238C76"/>
<path d="M136.586 7.92737C134.414 13.7194 130.932 16.7263 126.139 16.9483" stroke="black" stroke-opacity="0.2"/>
<path d="M100.754 23.828C102.456 26.3037 105.204 27.9937 108.153 28.6562C111.102 29.3198 114.345 28.8855 117.193 27.8803L112.985 19.592C111.422 18.7457 109.595 18.8197 107.78 18.8931C107.218 18.9156 106.658 18.9386 106.107 18.9338C102.388 18.9034 95.9216 15.0368 95.9216 15.0368C95.9216 15.0368 98.9157 21.1528 100.754 23.828Z" fill="#238C76"/>
<path d="M97.7554 16.8708C106.557 27.7093 111.908 25.9712 115.36 24.7928" stroke="black" stroke-opacity="0.2"/>
<path d="M114.192 28.9234C120.445 29.6689 120.771 26.4654 120.771 26.4654L117.431 17.0139C117.557 15.1096 116.934 14.5672 115.859 13.1705C114.784 11.7752 113.463 10.6892 112.305 9.39124C111.149 8.09311 110.121 6.48391 109.9 4.59429C108.563 9.53619 107.288 14.523 107.498 19.7076C107.684 24.27 114.192 28.9234 114.192 28.9234Z" fill="#2AA98E"/>
<path d="M109.827 7.72882C111.133 20.405 115.601 27.1432 123.23 27.9436" stroke="black" stroke-opacity="0.2"/>
<path d="M110.622 33.8084C110.539 35.2608 110.784 36.7638 111.434 37.9842C112.243 39.5059 113.616 40.476 115.046 40.9676C116.458 41.4531 117.941 41.5205 119.408 41.5736C120.875 41.5205 122.358 41.4531 123.77 40.9676C125.2 40.476 126.573 39.5059 127.383 37.9842C128.033 36.7638 128.278 35.2608 128.195 33.8084C128.112 32.3559 127.632 30.7784 127.089 29.4823C126.899 29.0287 126.46 28.5302 126.19 28.3451C126.19 28.2706 112.757 28.2706 112.738 28.2706C112.172 28.7759 111.776 29.1138 111.473 29.8358C110.93 31.1314 110.704 32.3559 110.622 33.8084Z" fill="#294FA3"/>
<path d="M122.872 4.65463C121.948 5.96405 120.856 7.09317 120.017 8.48431C119.177 9.87545 118.665 10.4358 118.96 12.1791C118.96 12.1791 118.786 19.6517 123.022 22.8445C123.022 22.8445 128.469 17.9246 128.202 13.6999C127.899 8.90003 126.272 4.42634 124.592 0C124.572 1.7634 123.796 3.34651 122.872 4.65463Z" fill="#2AA98E"/>
<path d="M124.899 2.65314C123.978 11.227 122.582 16.5925 120.71 18.7494" stroke="black" stroke-opacity="0.2"/>
<path d="M131.685 18.5377C131.13 18.5427 130.566 18.5188 130.001 18.4954C128.174 18.4191 126.334 18.3422 124.761 19.2218L120.523 27.8373C123.391 28.8822 126.657 29.3337 129.625 28.6438C132.594 27.9553 135.361 26.1985 137.075 23.6251C138.925 20.8443 141.94 14.4869 141.94 14.4869C141.94 14.4869 135.43 18.5061 131.685 18.5377Z" fill="#2AA98E"/>
<path d="M140.293 16.3347C132.066 23.198 126.209 26.0984 122.72 25.036" stroke="black" stroke-opacity="0.2"/>
<path d="M117.553 5.72033C117.439 7.08845 117.238 8.18535 116.713 9.43946C115.869 11.4586 114.406 13.1616 113.488 15.1484C112.051 18.2572 112.074 22.01 113.547 25.1009C114.203 26.4768 115.152 27.7405 116.42 28.5788C117.689 29.4182 120.307 29.4465 120.393 29.4393C121.925 29.3126 123.795 28.1539 124.647 26.8332C125.519 25.4825 126.33 24.0466 126.614 22.4618C127.196 19.2011 125.449 15.9776 123.395 13.3842C121.342 10.7908 117.667 3.66754 117.667 3.66754C117.667 3.66754 117.557 5.67952 117.553 5.72033Z" fill="#33CCAB"/>
<path d="M118.146 6.53119C120.777 16.7688 121.254 24.2251 119.576 28.9001" stroke="black" stroke-opacity="0.2"/>
</svg>
