<svg xmlns="http://www.w3.org/2000/svg" width="24" height="24"><path d="M12 0a3 3 0 013 3v.086c.001.26.156.493.404.6a.647.647 0 00.709-.123l.204-.195a3 3 0 014.1 4.38l-.052.051a.65.65 0 00-.13.717 1 1 0 01.064.2.647.647 0 00.531.284H21a3 3 0 010 6h-.086a.654.654 0 00-.6.404.647.647 0 00.123.709l.195.204a3 3 0 01-4.38 4.1l-.051-.052a.654.654 0 00-.727-.126.649.649 0 00-.394.591V21a3 3 0 01-6 0v-.067c-.006-.266-.175-.502-.484-.618a.647.647 0 00-.709.122l-.204.195a3 3 0 01-4.1-4.38l.052-.051a.654.654 0 00.126-.727.649.649 0 00-.591-.394H3a3 3 0 010-6h.067c.266-.006.502-.175.618-.484a.647.647 0 00-.122-.709l-.195-.204a3 3 0 014.38-4.1l.051.052a.65.65 0 00.717.13l.098-.037.101-.027.082-.066A.646.646 0 009 3.17V3a3 3 0 013-3zm0 2a1 1 0 00-1 1v.174a2.65 2.65 0 01-1.606 2.425 1 1 0 01-.264.073 2.655 2.655 0 01-2.737-.615l-.06-.06a1 1 0 10-1.416 1.416l.068.068c.71.726.939 1.788.624 2.687l-.143.354A2.66 2.66 0 013.09 11.08H3a1 1 0 000 2h.174a2.646 2.646 0 012.42 1.596 2.654 2.654 0 01-.537 2.931l-.06.06a1 1 0 101.416 1.416l.068-.068c.726-.71 1.788-.939 2.687-.624l.354.143a2.66 2.66 0 011.558 2.376V21a1 1 0 002 0v-.174a2.646 2.646 0 011.596-2.42 2.654 2.654 0 012.931.537l.06.06a1 1 0 101.416-1.416l-.068-.068a2.646 2.646 0 01-.534-2.913A2.651 2.651 0 0120.91 13H21a1 1 0 000-2h-.174a2.65 2.65 0 01-2.425-1.606 1 1 0 01-.057-.174l-.016-.09-.055-.179a2.656 2.656 0 01.67-2.558l.06-.06a1 1 0 10-1.416-1.416l-.068.068a2.646 2.646 0 01-2.913.534A2.651 2.651 0 0113 3.09V3a1 1 0 00-1-1zm0 6a4 4 0 110 8 4 4 0 010-8zm0 2a2 2 0 100 4 2 2 0 000-4z"/></svg>
