<svg xmlns="http://www.w3.org/2000/svg" width="1082" height="643" viewBox="0 0 1082 643">
  <g fill="none" fill-rule="evenodd" transform="translate(0 .004)">
    <path fill="#FFBCA3" fill-rule="nonzero" d="M1082,642.070321 C1082,600.970742 709.892251,582.536312 650.002952,584.086403 C590.113654,585.636495 218,598.820191 218,642.070321 C218,642.687082 1082,642.070321 1082,642.070321 Z" opacity=".5"/>
    <ellipse cx="25.82" cy="575.84" fill="#FFDDD1" fill-rule="nonzero" opacity=".861" rx="25.82" ry="3.55"/>
    <ellipse cx="124.73" cy="585.87" fill="#F5DD48" fill-rule="nonzero" opacity=".1" rx="25.82" ry="3.55"/>
    <ellipse cx="85.14" cy="614.43" fill="#FFDDD1" fill-rule="nonzero" opacity=".861" rx="18.36" ry="2.52"/>
    <ellipse cx="187.81" cy="611.91" fill="#FFDDD1" fill-rule="nonzero" opacity=".861" rx="18.36" ry="2.52"/>
    <path fill="#B9EFE9" fill-rule="nonzero" d="M125.29,585.069962 C125.29,585.069962 89.07,466.349962 130.95,418.799962 C162.29,383.219962 197.85,387.479962 213.78,391.879962 C222.122178,394.10283 229.068226,399.875361 232.78,407.669962 C238.35,419.669962 237.34,439.179962 198.03,461.939962 C132.21,500.049962 128.12,552.319962 128.12,552.319962 L125.29,585.069962 Z"/>
    <path stroke="#565987" d="M208.11 408.719962C208.11 408.719962 101.35 442.099962 125.29 585.069962M145.76 420.689962C145.76 420.689962 160.46 430.589962 155.76 445.479962M197.4 429.489962C197.4 429.489962 188.4 420.349962 177.48 425.389962M155.2 475.489962C155.2 475.489962 139.42 467.489962 135.34 477.489962M116.15 492.169962C116.15 492.169962 128 491.229962 128.22 496.899962"/>
    <path fill="#B9EFE9" fill-rule="nonzero" d="M123.85,586.019962 C123.85,586.019962 166.27,499.729962 177.92,501.619962 C183.45,502.519962 186,507.959962 187.16,513.429962 C188.597546,520.519429 187.790117,527.880667 184.85,534.489962 C178.85,548.239962 162.63,574.489962 123.85,586.019962 Z"/>
    <path stroke="#565987" d="M177.57 517.999962C177.57 517.999962 133.05 582.559962 124.45 585.389962M181.67 528.069962L171.28 528.069962M169.22 551.689962L152.94 552.389962M159.31 532.799962L161.08 541.279962M141.99 558.619962L142.31 566.329962"/>
    <path fill="#B9EFE9" fill-rule="nonzero" d="M125.08,586.019962 C125.08,586.019962 82.66,499.729962 71.01,501.619962 C65.48,502.519962 62.93,507.959962 61.77,513.429962 C60.343698,520.501032 61.1545631,527.84076 64.09,534.429962 C70.1,548.239962 86.27,574.489962 125.08,586.019962 Z"/>
    <path stroke="#565987" d="M71.33 517.999962C71.33 517.999962 115.85 582.559962 124.45 585.389962M67.24 528.069962L77.63 528.069962M79.68 551.689962L95.97 552.389962M89.6 532.799962L87.83 541.279962M106.92 558.619962L106.6 566.329962"/>
    <path fill="#33CCAB" fill-rule="nonzero" d="M197.91 606.169962C199.066662 605.229687 199.910553 603.960363 200.33 602.529962 200.712774 601.049434 200.008265 599.502847 198.64 598.819962 197.09 598.219962 195.43 599.299962 194.18 600.379962 192.93 601.459962 191.48 602.709962 189.84 602.479962 191.542663 600.912187 192.301286 598.568044 191.84 596.299962 191.7711 595.836936 191.577519 595.40138 191.28 595.039962 190.42 594.119962 188.86 594.519962 187.83 595.239962 184.55 597.539962 183.64 601.989962 183.62 605.999962 183.439866 604.52981 183.419749 603.044454 183.56 601.569962 183.56 600.089962 183.14 598.439962 181.89 597.649962 181.116449 597.224835 180.242076 597.017473 179.36 597.049962 177.88 597.049962 176.25 597.139962 175.24 598.219962 173.99 599.559962 174.31 601.799962 175.4 603.279962 176.6159 604.650455 178.056536 605.80364 179.66 606.689962 180.862348 607.422629 181.887008 608.413134 182.66 609.589962 182.749518 609.755994 182.823177 609.930098 182.88 610.109962L192.11 610.109962C194.214955 609.068972 196.166604 607.743196 197.91 606.169962L197.91 606.169962zM36.28 571.419962C37.4376072 570.480547 38.2817114 569.210902 38.7 567.779962 39.0800114 566.296965 38.3769181 564.749327 37.01 564.059962 35.46 563.469962 33.81 564.549962 32.55 565.629962 31.29 566.709962 29.86 567.949962 28.21 567.719962 29.9178502 566.155515 30.6774388 563.808386 30.21 561.539962 30.1350375 561.079869 29.9382189 560.64825 29.64 560.289962 28.78 559.369962 27.22 559.759962 26.19 560.489962 22.91 562.789962 22 567.239962 21.98 571.249962 21.7998483 569.776463 21.7797311 568.287791 21.92 566.809962 21.92 565.329962 21.51 563.689962 20.26 562.899962 19.482786 562.474949 18.6052422 562.267655 17.72 562.299962 16.25 562.239962 14.61 562.389962 13.6 563.469962 12.35 564.809962 12.68 567.049962 13.76 568.469962 14.9743468 569.84884 16.4191978 571.006074 18.03 571.889962 19.2352569 572.618858 20.2606783 573.610099 21.03 574.789962 21.1204469 574.956867 21.1973602 575.130758 21.26 575.309962L30.49 575.309962C32.5874437 574.281808 34.5352971 572.973147 36.28 571.419962L36.28 571.419962zM90.15 606.169962C91.3066616 605.229687 92.150553 603.960363 92.57 602.529962 92.9527742 601.049434 92.2482646 599.502847 90.88 598.819962 89.33 598.219962 87.67 599.299962 86.42 600.379962 85.17 601.459962 83.72 602.709962 82.08 602.479962 83.7826635 600.912187 84.5412858 598.568044 84.08 596.299962 84.0110996 595.836936 83.8175194 595.40138 83.52 595.039962 82.66 594.119962 81.1 594.519962 80.07 595.239962 76.79 597.539962 75.88 601.989962 75.86 605.999962 75.6798664 604.52981 75.6597487 603.044454 75.8 601.569962 75.8 600.089962 75.39 598.439962 74.14 597.649962 73.3624299 597.225879 72.4851448 597.018646 71.6 597.049962 70.13 597.049962 68.49 597.139962 67.48 598.219962 66.23 599.559962 66.55 601.799962 67.64 603.279962 68.8559002 604.650455 70.2965359 605.80364 71.9 606.689962 73.1023481 607.422629 74.1270081 608.413134 74.9 609.589962 74.9895179 609.755994 75.0631774 609.930098 75.12 610.109962L84.35 610.109962C86.4549548 609.068972 88.4066039 607.743196 90.15 606.169962L90.15 606.169962z"/>
    <path fill="#FEC2BE" fill-rule="nonzero" d="M742.56,251.356385 C750.78,254.476385 769.92,254.826385 778.42,254.816587 C781,254.816587 782.6,254.816587 782.6,254.816587 L788.05,243.726385 L782.6,234.476385 C782.6,234.476385 777.6,233.106385 770.96,231.906385 C761.16,230.136385 747.75,228.756385 741.36,232.726385 C730.64,239.346385 731.84,247.286385 742.56,251.356385 Z"/>
    <path fill="#000" fill-rule="nonzero" d="M778.42,254.816385 C781,254.816385 782.6,254.816385 782.6,254.816385 L788.05,243.726385 L782.6,234.476385 C782.6,234.476385 777.6,233.106385 770.96,231.906385 C776.35,235.846385 789.31,244.436385 778.42,254.816385 Z" opacity=".1"/>
    <path fill="#4C4981" fill-rule="nonzero" d="M868.68,118.586385 L866.27,115.816385 C866.27,115.816385 853.88,135.416385 852.59,142.816385 C851.3,150.216385 849.59,158.726385 849.59,158.726385 C849.59,158.726385 846.5,168.326385 844.5,172.586385 C842.5,176.846385 840.62,180.906385 840.44,182.756385 C840.26,184.606385 841.18,188.676385 837.29,191.256385 C833.4,193.836385 832.48,200.876385 832.48,200.876385 C832.48,200.876385 818.48,214.556385 811.03,214.926385 C803.58,215.296385 782.37,218.996385 783.11,222.696385 C783.85,226.396385 774.23,228.616385 770.35,229.536385 C766.47,230.456385 795.35,241.536385 778.49,255.796385 C778.49,255.796385 789.21,258.016385 790.32,260.606385 C791.43,263.196385 802.71,259.126385 802.71,259.126385 C802.71,259.126385 805.12,253.396385 813.44,253.026385 C821.76,252.656385 826.01,248.956385 826.01,248.396385 C826.01,247.836385 834.33,243.226385 838.96,241.926385 C843.59,240.626385 849.68,240.076385 849.87,238.786385 C850.06,237.496385 877.6,118.586385 877.6,118.586385 L868.68,118.586385 Z"/>
    <path fill="#000" fill-rule="nonzero" d="M868.68,118.586385 L866.27,115.816385 C866.27,115.816385 853.88,135.416385 852.59,142.816385 C851.3,150.216385 849.59,158.726385 849.59,158.726385 C849.59,158.726385 846.5,168.326385 844.5,172.586385 C842.5,176.846385 840.62,180.906385 840.44,182.756385 C840.26,184.606385 841.18,188.676385 837.29,191.256385 C833.4,193.836385 832.48,200.876385 832.48,200.876385 C832.48,200.876385 818.48,214.556385 811.03,214.926385 C803.58,215.296385 782.37,218.996385 783.11,222.696385 C783.85,226.396385 774.23,228.616385 770.35,229.536385 C766.47,230.456385 795.35,241.536385 778.49,255.796385 C778.49,255.796385 789.21,258.016385 790.32,260.606385 C791.43,263.196385 802.71,259.126385 802.71,259.126385 C802.71,259.126385 805.12,253.396385 813.44,253.026385 C821.76,252.656385 826.01,248.956385 826.01,248.396385 C826.01,247.836385 834.33,243.226385 838.96,241.926385 C843.59,240.626385 849.68,240.076385 849.87,238.786385 C850.06,237.496385 877.6,118.586385 877.6,118.586385 L868.68,118.586385 Z" opacity=".05"/>
    <path fill="#CA8496" fill-rule="nonzero" d="M897.5,631.736385 C921.91,636.316385 926.35,617.596385 926.35,617.596385 C926.35,617.596385 929.35,600.956385 930.51,599.706385 C930.786273,599.224061 930.854845,598.650226 930.7,598.116385 L930.7,598.116385 C930.061317,595.294435 928.864495,592.628787 927.18,590.276385 C925.65,588.466385 926.9,580.976385 926.9,580.976385 L898.61,573.766385 C898.61,573.766385 896.11,579.456385 895.84,582.086385 C895.57,584.716385 891.4,596.656385 891.84,598.316385 C892.28,599.976385 890.04,605.116385 889.76,607.746385 C889.48,610.376385 886.02,614.266385 885.76,615.656385 C885.321305,616.901727 884.810439,618.120458 884.23,619.306385 C883.475012,621.133354 882.872946,623.019828 882.43,624.946385 C880.98,630.766385 897.5,631.736385 897.5,631.736385 Z"/>
    <path fill="#000" fill-rule="nonzero" d="M897.5,631.736385 C921.91,636.316385 926.35,617.596385 926.35,617.596385 C926.35,617.596385 929.35,600.956385 930.51,599.706385 C930.786273,599.224061 930.854845,598.650226 930.7,598.116385 L924.82,614.956385 C924.82,614.956385 919.97,625.086385 901.94,623.556385 C891.68,622.696385 886.63,620.786385 884.18,619.306385 C883.425012,621.133354 882.822946,623.019828 882.38,624.946385 C880.98,630.766385 897.5,631.736385 897.5,631.736385 Z" opacity=".1"/>
    <path fill="#000" fill-rule="nonzero" d="M916.5,605.386385 C916.5,605.386385 910.4,605.526385 909.98,600.536385 L916.5,605.386385 Z" opacity=".1"/>
    <path fill="#535461" fill-rule="nonzero" d="M810.38,441.456385 C813.38,446.036385 816.9,466.006385 816.9,466.006385 C816.9,466.006385 819.26,470.586385 819.12,474.466385 C818.98,478.346385 821.34,485.466385 821.34,485.466385 L829.11,514.176385 C829.11,514.176385 828.27,521.796385 831.19,527.176385 C834.11,532.556385 833.82,530.926385 832.43,540.356385 C831.04,549.786385 834.1,558.526385 839.09,561.296385 C844.08,564.066385 836.87,570.586385 836.87,570.586385 C836.87,570.586385 868.77,579.186385 875.43,573.916385 C882.09,568.646385 871.96,542.576385 871.96,542.576385 C871.96,542.576385 873.62,520.656385 872.52,517.466385 C871.42,514.276385 866.69,487.066385 866.69,487.066385 C866.69,487.066385 863.78,474.726385 864.89,472.646385 C866,470.566385 864.19,464.596385 864.19,464.596385 C864.19,464.596385 859.48,457.946385 859.89,455.866385 C860.3,453.786385 858.5,450.066385 858.5,450.066385 C858.5,450.066385 872.64,428.426385 871.4,424.406385 C870.16,420.386385 871.95,413.866385 871.95,413.866385 C871.95,413.866385 873.74,410.796385 875.89,407.136385 C878.52,402.636385 881.7,397.246385 882.77,395.566385 C884.13,393.416385 887.41,384.316385 889.24,379.076385 L890.54,375.316385 C890.54,375.316385 892.75,416.086385 894.7,420.246385 C896.65,424.406385 899.55,457.246385 899.55,457.246385 C900.623427,460.175479 901.096153,463.290706 900.94,466.406385 C900.66,471.536385 905.38,493.866385 905.38,493.866385 C905.38,493.866385 907.46,509.676385 906.07,513.866385 C904.68,518.056385 905.79,548.676385 905.79,548.676385 C905.79,548.676385 898.16,554.676385 896.22,559.216385 C894.28,563.756385 896.5,576.276385 896.5,576.276385 C896.5,576.276385 918.69,587.366385 928.5,584.456385 C938.31,581.546385 934.32,564.766385 934.32,564.766385 C934.32,564.766385 940.98,553.666385 940.98,549.366385 C940.98,545.066385 943.34,531.896385 943.34,531.896385 C951.8,516.356385 948.47,478.636385 949.85,475.586385 C951.23,472.536385 946.99,461.156385 943.5,456.066385 C940.01,450.976385 941.42,437.066385 943.5,433.066385 C945.58,429.066385 941.44,415.066385 941.44,415.066385 C941.44,415.066385 945.44,388.156385 945.33,383.996385 C945.22,379.836385 948.8,367.496385 948.8,367.496385 C948.8,367.496385 952.4,361.116385 951.57,359.176385 C950.74,357.236385 954.34,352.236385 953.37,350.016385 C952.4,347.796385 954.2,341.016385 956.01,337.016385 C956.93,334.946385 958.08,329.276385 959.01,324.236385 C959.86,319.446385 960.49,315.236385 960.49,315.236385 L937.6,296.796385 L880.46,281.796385 L858.96,274.856385 L838.02,307.856385 C838.02,307.856385 835.86,311.306385 833.94,315.286385 C832.3,318.716385 830.83,322.546385 831.09,324.916385 C831.439069,327.920199 830.754849,330.953339 829.15,333.516385 C829.15,333.516385 816.62,373.066385 816.9,384.456385 C817.18,395.846385 812.5,420.796385 812.5,420.796385 C812.5,420.796385 807.33,436.876385 810.38,441.456385 Z"/>
    <polygon fill="#33CCAB" fill-rule="nonzero" points="870.11 167.756 870.11 254.306 847.23 300.466 847.23 300.466 846.5 301.926 785.93 297.926 762.65 296.386 708.61 292.816 708.61 189.286 762.65 190.816 786.82 191.496 847.95 193.226"/>
    <polygon fill="#000" fill-rule="nonzero" points="870.11 172.866 870.11 254.306 864.52 265.576 864.52 265.586 858.78 277.136 858.78 277.146 847.23 300.466 848.52 213.916 848.78 196.456 859.77 184.296 859.77 184.296 864.56 178.996" opacity=".1"/>
    <polygon fill="#33CCAB" fill-rule="nonzero" points="873.21 144.776 873.21 175.006 870.11 179.956 864.56 188.796 859.64 196.626 848.78 213.926 848.52 213.916 703.85 206.476 703.85 176.656 704.21 176.266 721.48 157.566 727.74 150.806 739.04 138.566"/>
    <polygon fill="#000" fill-rule="nonzero" points="848.78 184.116 848.78 213.926 703.85 206.476 703.85 176.656 704.21 176.266" opacity=".1"/>
    <polygon fill="#000" fill-rule="nonzero" points="873.21 144.776 873.21 175.006 848.78 213.926 848.78 184.116" opacity=".15"/>
    <polygon fill="#3F3D56" fill-rule="nonzero" points="864.58 158.686 864.56 178.996 864.56 188.796 864.52 265.576 864.52 265.586 858.78 277.136 859.64 196.626 859.77 184.296 859.77 184.296 859.97 166.106 721.48 157.566 727.74 150.806"/>
    <polygon fill="#3F3D56" fill-rule="nonzero" points="796.61 159.686 786.9 180.756 786.82 191.496 785.93 297.926 762.65 296.386 762.65 179.346 775.07 159.686"/>
    <path fill="#3F3D56" fill-rule="nonzero" d="M764.65,161.066385 C759.045,162.930267 753.022061,163.142025 747.3,161.676385 C746.202392,161.450768 745.174131,160.967486 744.3,160.266385 C743.350851,159.213681 742.701603,157.925547 742.42,156.536385 C741.409761,153.663055 740.849814,150.650813 740.76,147.606385 C740.83,144.606385 741.99,141.386385 744.47,139.606385 C744.977054,139.305237 745.449837,138.949812 745.88,138.546385 C746.401231,137.89871 746.773383,137.144163 746.97,136.336385 C748.67,131.276385 751.97,125.926385 757.23,125.116385 C762.1,124.376385 766.53,127.776385 770.28,130.966385 L778.51,137.966385 C780.388467,132.950162 785.151343,129.599604 790.507256,129.526629 C795.863168,129.453654 800.715562,132.673204 802.73,137.636385 C807.71455,132.015571 814.001503,127.702948 821.04,125.076385 C822.6,124.496385 824.43,124.016385 825.85,124.886385 C826.727035,125.535092 827.391776,126.429534 827.76,127.456385 C830.002756,132.358054 831.217725,137.667163 831.33,143.056385 C832.513888,142.653769 833.819967,143.106982 834.5,144.156385 C835.140103,145.19426 835.504933,146.378237 835.56,147.596385 C835.780119,149.478364 835.890001,151.371577 835.890001,153.266385 C835.890001,155.266385 835.7,157.416385 834.4,158.936385 C832.72,160.886385 829.82,161.096385 827.24,161.156385 C828.48,162.256385 827.87,164.476385 826.5,165.416385 C825.023432,166.204093 823.343634,166.528204 821.68,166.346385 C815.28,166.286385 808.47,166.106385 803.14,162.546385 C801.04,161.146385 799.28,159.276385 797.14,157.876385 C791.97,154.456385 785.48,154.296385 779.5,154.576385 C774.08,154.896385 769.79,159.386385 764.65,161.066385 Z"/>
    <path fill="#3F3D56" fill-rule="nonzero" d="M763.5,159.686385 C763.5,159.686385 710.08,167.136385 702.62,199.436385 L713.81,197.786385 L721.67,211.866385 C721.67,211.866385 729.96,180.386385 754.39,172.936385 C778.82,165.486385 787.51,164.236385 787.51,164.236385 C787.51,164.236385 804.51,168.386385 819.81,217.656385 L828.51,205.656385 L843.83,208.976385 C843.83,208.976385 832.65,170.466385 802.42,159.696385 L763.5,159.686385 Z"/>
    <path fill="#FEC2BE" fill-rule="nonzero" d="M894.87,119.966385 C895.75,119.606385 956.08,94.6963849 947.77,89.7363849 C942.84,86.7963849 936.77,74.3463849 932.61,64.5963849 C929.71,57.7763849 927.74,52.2963849 927.74,52.2963849 C927.74,52.2963849 879.32,43.6963849 896.65,73.3763849 C899.383308,77.9284256 901.441429,82.8530965 902.76,87.9963849 C907.7,108.206385 895.27,119.596385 894.87,119.966385 Z"/>
    <path fill="#000" fill-rule="nonzero" d="M896.65,73.3763849 C899.383308,77.9284256 901.441429,82.8530965 902.76,87.9963849 C915.280038,87.1166785 926.284844,79.3798265 931.35,67.8963849 C931.830438,66.8204228 932.251079,65.7187448 932.61,64.5963849 C929.71,57.7763849 927.74,52.2963849 927.74,52.2963849 C927.74,52.2963849 879.32,43.6963849 896.65,73.3763849 Z" opacity=".1"/>
    <path fill="#FEC2BE" fill-rule="nonzero" d="M866.55,53.1263849 C866.55,69.1251404 877.755143,82.9375749 893.40985,86.2376257 C909.064556,89.5376765 924.891382,81.4235442 931.35,66.7863849 C933.25862,62.4858229 934.239924,57.8314424 934.230075,53.1263849 C934.230075,34.437069 919.079316,19.2863849 900.39,19.2863849 C881.700684,19.2863849 866.55,34.437069 866.55,53.1263849 L866.55,53.1263849 Z"/>
    <path fill="#000" fill-rule="nonzero" d="M833.9,315.326385 C837.45,318.546385 838.81,324.676385 838.81,324.676385 C838.81,324.676385 855.5,336.066385 854.35,328.836385 C853.2,321.606385 862.95,292.506385 862.95,292.506385 L861.84,332.166385 C861.84,332.166385 915.09,329.676385 918.98,325.786385 C922.87,321.896385 945.61,314.416385 945.61,314.416385 C945.61,314.416385 952.61,320.006385 958.97,324.246385 C959.82,319.456385 960.45,315.246385 960.45,315.246385 L937.56,296.806385 L880.42,281.806385 L858.92,274.866385 L837.98,307.866385 C837.98,307.866385 835.82,311.346385 833.9,315.326385 Z" opacity=".1"/>
    <path fill="#FFF" fill-rule="nonzero" d="M832.16,312.196385 C836.59,314.976385 838.26,322.466385 838.26,322.466385 C838.26,322.466385 854.9,333.836385 853.79,326.626385 C852.68,319.416385 862.39,290.286385 862.39,290.286385 L861.28,329.946385 C861.28,329.946385 914.54,327.456385 918.42,323.566385 C922.3,319.676385 945.05,312.196385 945.05,312.196385 C945.05,312.196385 964.74,328.006385 968.35,326.626385 C971.96,325.246385 961.97,298.326385 961.97,298.326385 L951.71,140.776385 C951.71,140.776385 954.48,93.8963849 950.32,92.2363849 C949.678145,91.9767453 949.086073,91.6079689 948.57,91.1463849 C945.83,88.6763849 945.01,83.6763849 944.77,79.4763849 C944.5,74.4763849 937.84,76.9763849 937.84,76.9763849 L941.72,81.9763849 L907.35,102.866385 L907.05,103.056385 C905.710829,102.350416 904.331848,101.722695 902.92,101.176385 C899.92,100.006385 895.83,98.9063849 893.18,100.006385 C891.699,100.755542 890.443022,101.883852 889.54,103.276385 C887.578583,106.225412 886.005614,109.415044 884.86,112.766385 L872.38,133.846385 C872.38,133.846385 866,161.846385 866,162.966385 C866,164.086385 864.06,189.596385 861.84,192.366385 C859.62,195.136385 857.4,209.016385 858.23,213.176385 C859.06,217.336385 856.84,232.866385 856.84,232.866385 C847.69,240.356385 842.97,265.866385 842.97,265.866385 C842.97,265.866385 828.55,294.436385 827.44,297.766385 C826.33,301.096385 827.72,309.426385 832.16,312.196385 Z"/>
    <path fill="#000" fill-rule="nonzero" d="M907.35,103.976385 C910.72,108.976385 920.46,115.976385 920.46,115.976385 L948.57,92.2363849 C945.83,89.7663849 945.01,84.7663849 944.77,80.5663849 C944.5,75.5663849 937.84,78.0663849 937.84,78.0663849 L938.64,79.0663849 C939.421791,80.0715442 939.737772,81.3624246 939.508635,82.6150377 C939.279499,83.8676508 938.526999,84.9630775 937.44,85.6263849 L907.35,103.976385 Z" opacity=".1"/>
    <path fill="#FFF" fill-rule="nonzero" d="M907.35,102.866385 C910.72,107.866385 920.46,114.866385 920.46,114.866385 L948.57,91.1263849 C945.83,88.6563849 945.01,83.6563849 944.77,79.4563849 C944.5,74.4563849 937.84,76.9563849 937.84,76.9563849 L938.64,77.9563849 C939.421791,78.9615442 939.737772,80.2524246 939.508635,81.5050377 C939.279499,82.7576508 938.526999,83.8530775 937.44,84.5163849 L907.35,102.866385 Z"/>
    <path fill="#000" fill-rule="nonzero" d="M894.35,106.606385 C897.98,110.956385 903.13,115.876385 902.89,113.406385 C902.65,110.936385 905.96,105.496385 908.07,103.056385 C904.775463,102.008715 901.223728,102.103851 897.99,103.326385 C896.510736,104.082628 895.255657,105.213578 894.35,106.606385 L894.35,106.606385 Z" opacity=".1"/>
    <path fill="#FFF" fill-rule="nonzero" d="M893.79,104.946385 C897.43,109.286385 902.57,114.216385 902.33,111.746385 C902.09,109.276385 905.06,105.286385 907.17,102.846385 C904.17,101.676385 900.09,100.576385 897.43,101.666385 C895.946394,102.416306 894.68982,103.548603 893.79,104.946385 L893.79,104.946385 Z"/>
    <circle cx="902.89" cy="125.796" r="2.22" fill="#FFBCA3" fill-rule="nonzero"/>
    <circle cx="886.06" cy="185.706" r="2.22" fill="#FFBCA3" fill-rule="nonzero"/>
    <circle cx="867.01" cy="246.366" r="2.22" fill="#FFBCA3" fill-rule="nonzero"/>
    <circle cx="866.46" cy="312.376" r="2.22" fill="#FFBCA3" fill-rule="nonzero"/>
    <circle cx="893.09" cy="154.086" r="2.22" fill="#FFBCA3" fill-rule="nonzero"/>
    <circle cx="878.11" cy="215.666" r="2.22" fill="#FFBCA3" fill-rule="nonzero"/>
    <circle cx="863.5" cy="276.136" r="2.22" fill="#FFBCA3" fill-rule="nonzero"/>
    <circle cx="866.83" cy="319.776" r="2.22" fill="#FFBCA3" fill-rule="nonzero"/>
    <path fill="#000" fill-rule="nonzero" d="M948.56,92.5163849 C948.56,92.5163849 948.19,89.1863849 953,94.9163849 C957.81,100.646385 966.87,105.646385 966.87,105.646385 C966.87,105.646385 987.4,120.066385 988.5,126.726385 C989.6,133.386385 996.26,162.226385 992.75,171.846385 C989.24,181.466385 962.42,227.506385 962.42,227.506385 C962.42,227.506385 969.42,235.826385 967.79,245.626385 C966.16,255.426385 964.09,268.926385 965.01,271.886385 C965.93,274.846385 963.9,282.236385 967.01,284.826385 C970.12,287.416385 973.48,291.826385 963.68,297.776385 C963.68,297.776385 961.83,302.776385 963.49,303.876385 C965.15,304.976385 938.9,316.456385 928.54,310.346385 C918.18,304.236385 899.54,255.426385 899.14,244.516385 C898.74,233.606385 904.87,197.516385 908.2,189.036385 C911.53,180.556385 921.52,147.436385 925.77,140.036385 C930.02,132.636385 948.56,92.5163849 948.56,92.5163849 Z" opacity=".1"/>
    <path fill="#4C4981" fill-rule="nonzero" d="M949.67,92.5163849 C949.67,92.5163849 949.3,89.1863849 954.11,94.9163849 C958.92,100.646385 967.98,105.646385 967.98,105.646385 C967.98,105.646385 988.5,120.066385 989.62,126.726385 C990.74,133.386385 997.38,162.226385 993.87,171.846385 C990.36,181.466385 963.5,227.506385 963.5,227.506385 C963.5,227.506385 970.5,235.826385 968.87,245.626385 C967.24,255.426385 965.17,268.926385 966.09,271.886385 C967.01,274.846385 964.98,282.236385 968.09,284.826385 C971.2,287.416385 974.56,291.826385 964.76,297.776385 C964.76,297.776385 962.91,302.776385 964.57,303.876385 C966.23,304.976385 939.98,316.456385 929.62,310.346385 C919.26,304.236385 900.62,255.426385 900.22,244.516385 C899.82,233.606385 905.95,197.516385 909.28,189.036385 C912.61,180.556385 922.6,147.436385 926.85,140.036385 C931.1,132.636385 949.67,92.5163849 949.67,92.5163849 Z"/>
    <path fill="#000" fill-rule="nonzero" d="M957.07 123.946385C957.07 123.946385 941.17 141.516385 941.72 153.166385 941.72 153.166385 941.5 134.306385 957.07 123.946385zM935.06 152.796385C935.06 153.356385 924.34 193.296385 924.89 198.286385 925.44 203.276385 921.75 218.066385 921.75 218.066385L916.75 216.766385C916.75 216.766385 920.63 196.246385 921.37 188.666385 922.11 181.086385 935.06 152.796385 935.06 152.796385zM930.81 266.706385C931.18 267.266385 956.15 295.556385 949.12 297.586385 942.09 299.616385 930.81 266.706385 930.81 266.706385zM951.34 259.496385C951.89 259.866385 961.34 279.836385 962.43 274.496385 963.52 269.156385 954.3 289.106385 952.82 274.306385L951.34 259.496385zM903.4 98.7963849C903.4 98.7963849 893.09 92.5163849 880.14 108.596385 880.14 108.596385 870.71 113.966385 867.94 115.256385 865.17 116.546385 862.02 150.946385 862.02 150.946385 862.02 150.946385 855.92 165.736385 857.58 174.246385 859.24 182.756385 852.78 211.976385 852.78 211.976385 852.78 211.976385 842.05 264.486385 842.42 265.976385 842.79 267.466385 853.33 249.516385 853.14 240.646385 852.95 231.776385 862.02 204.026385 863.32 202.366385 864.62 200.706385 873.5 153.166385 873.5 153.166385 873.5 153.166385 880.71 133.006385 885.33 126.356385 889.95 119.706385 895.69 107.126385 898.09 104.906385 899.815904 103.408935 901.745029 102.163253 903.82 101.206385L903.4 98.7963849z" opacity=".1"/>
    <path fill="#4C4981" fill-rule="nonzero" d="M903.5,98.7963849 C903.5,98.7963849 891.94,92.5163849 878.99,108.596385 C878.99,108.596385 869.56,113.966385 866.79,115.256385 C864.02,116.546385 860.87,150.946385 860.87,150.946385 C860.87,150.946385 854.77,165.736385 856.43,174.246385 C858.09,182.756385 851.63,211.976385 851.63,211.976385 C851.63,211.976385 840.9,264.486385 841.27,265.976385 C841.64,267.466385 852.18,249.516385 852,240.646385 C851.82,231.776385 860.87,204.026385 862.17,202.366385 C863.47,200.706385 872.34,153.176385 872.34,153.176385 C872.34,153.176385 879.55,133.016385 884.17,126.366385 C888.79,119.716385 894.53,107.136385 896.93,104.916385 C899.33,102.696385 903.77,101.216385 903.77,101.216385 L903.5,98.7963849 Z"/>
    <path fill="#FEC2BE" fill-rule="nonzero" d="M852.78,214.376385 C852.78,214.376385 830.78,199.956385 820.14,207.066385 C809.5,214.176385 792.14,224.266385 809.23,231.576385 C826.32,238.886385 850,237.486385 850,237.486385 L852.78,214.376385 Z"/>
    <path fill="#000" fill-rule="nonzero" d="M868.08 353.526385C871.36 360.526385 874.08 395.916385 875.9 407.126385 878.53 402.626385 881.71 397.236385 882.78 395.556385 884.14 393.406385 887.42 384.306385 889.25 379.066385 887.16 373.986385 881.39 359.426385 881.39 354.066385 881.39 347.546385 870.85 339.366385 870.85 339.366385 870.85 339.366385 864.19 345.206385 868.08 353.526385zM938.81 462.126385C938.81 462.126385 914.4 451.716385 907.19 459.126385 899.98 466.536385 938.81 462.126385 938.81 462.126385zM925.08 466.286385C925.08 466.286385 949.77 480.156385 941.31 482.506385 932.85 484.856385 925.08 466.286385 925.08 466.286385zM851.3 454.216385C851.3 454.216385 861.84 454.906385 857.81 456.986385 853.78 459.066385 851.3 454.216385 851.3 454.216385zM838.12 457.406385C838.26 458.096385 868.77 467.946385 862.81 472.406385 856.85 476.866385 838.12 457.406385 838.12 457.406385zM935.2 542.286385C930.63 541.596385 905.11 529.806385 915.09 538.286385 925.07 546.766385 935.2 542.286385 935.2 542.286385zM922.58 551.576385C922.58 551.576385 920.36 560.176385 911.9 559.066385 903.44 557.956385 922.58 551.576385 922.58 551.576385zM929.66 569.066385C928.13 568.646385 909.96 560.326385 909.55 564.206385 909.14 568.086385 926.88 574.886385 928.27 572.806385 929.066114 571.710012 929.546828 570.416579 929.66 569.066385L929.66 569.066385zM870.85 559.066385C868.63 558.926385 847.85 552.276385 843.67 558.236385L870.85 559.066385zM851.99 562.946385C851.99 562.946385 848.38 559.756385 844.78 561.426385 841.18 563.096385 851.99 562.946385 851.99 562.946385zM898.03 597.346385C897.561844 599.754624 895.713498 601.65791 893.32 602.196385L898.03 597.346385z" opacity=".1"/>
    <path fill="#CA8496" fill-rule="nonzero" d="M792.21,610.386385 C793.6,616.066385 813.02,616.626385 822.31,615.096385 C831.6,613.566385 850.88,608.066385 850.88,608.066385 C850.88,608.066385 871.13,606.126385 877.09,603.626385 C883.05,601.126385 878.34,594.746385 878.34,594.746385 C878.34,594.746385 878.34,594.536385 878.34,594.156385 C878.48,591.836385 878.9,583.426385 877.47,581.156385 C875.8,578.526385 876.77,569.926385 876.77,569.926385 C876.77,569.926385 848.07,575.476385 847.51,572.836385 C846.95,570.196385 842.51,566.456385 840.44,565.626385 C838.37,564.796385 836.83,572.556385 836.83,572.556385 C836.83,572.556385 823.83,583.656385 822.96,587.676385 C822.09,591.696385 812.96,593.776385 812.96,593.776385 C812.96,593.776385 799.09,597.666385 795.48,599.606385 C793.350724,600.606999 791.89854,602.646882 791.65,604.986385 C791.514131,606.805363 791.703767,608.633995 792.21,610.386385 Z"/>
    <path fill="#000" fill-rule="nonzero" d="M792.21,610.386385 C793.6,616.066385 813.02,616.626385 822.31,615.096385 C831.6,613.566385 850.88,608.066385 850.88,608.066385 C850.88,608.066385 871.13,606.126385 877.09,603.626385 C883.05,601.126385 878.34,594.746385 878.34,594.746385 C878.34,594.746385 878.34,594.536385 878.34,594.156385 L849.34,600.576385 C849.34,600.576385 835.06,606.676385 825.91,606.676385 C817.91,606.676385 800.01,609.956385 791.7,604.986385 C791.547896,606.802389 791.720595,608.630968 792.21,610.386385 Z" opacity=".1"/>
    <path fill="#000" fill-rule="nonzero" d="M831.5 588.466385C831.5 588.466385 832.89 597.626385 838.44 600.676385L831.5 588.466385zM867.87 43.7563849C868.392919 44.0365486 868.942258 44.2643232 869.51 44.4363849 872.12 45.1363849 874.66 43.3863849 876.97 41.9863849 879.28 40.5863849 882.47 39.5463849 884.47 41.3563849 887.08 43.7263849 885.19 48.7963849 887.88 51.0763849 889.58 52.5263849 892.28 52.0763849 894.17 53.2263849 896.06 54.3763849 896.63 57.0163849 897.11 59.2763849 897.59 61.5363849 898.54 64.0963849 900.75 64.7563849 902.96 65.4163849 905 63.9663849 907.17 64.0463849 907.62 64.0463849 908.17 64.1163849 908.45 63.7863849 908.649332 63.4938721 908.724827 63.1343712 908.66 62.7863849 908.389417 60.0988089 908.63033 57.3843011 909.37 54.7863849 910.26 52.2363849 912.37 49.9163849 915 49.5063849 918.9 48.9063849 922.17 52.3263849 924.46 55.5063849 926.867326 58.8844205 929.058375 62.4114748 931.02 66.0663849 931.1424 66.3039203 931.252545 66.5475732 931.35 66.7963849 933.25862 62.4958229 934.239924 57.8414424 934.230075 53.1363849 934.23537 36.2709189 921.821076 21.9759927 905.121262 19.6179871 888.421448 17.2599814 872.53453 27.55879 867.87 43.7663849L867.87 43.7563849z" opacity=".1"/>
    <path fill="#9A5E7F" fill-rule="nonzero" d="M924.5,54.9463849 C922.21,51.7363849 918.94,48.3263849 915.04,48.9463849 C912.37,49.3563849 910.3,51.6663849 909.41,54.2163849 C908.670087,56.8142797 908.432508,59.5294673 908.71,62.2163849 C908.764716,62.5668903 908.68235,62.9250046 908.48,63.2163849 C908.18,63.5463849 907.66,63.4963849 907.21,63.4763849 C905.04,63.3963849 902.88,64.8063849 900.79,64.1863849 C898.7,63.5663849 897.63,60.9663849 897.15,58.7063849 C896.67,56.4463849 896.15,53.8863849 894.21,52.7063849 C892.27,51.5263849 889.62,52.0063849 887.92,50.5563849 C885.23,48.2663849 887.12,43.1963849 884.51,40.8363849 C882.51,39.0163849 879.32,40.0563849 877.01,41.4563849 C874.7,42.8563849 872.16,44.6063849 869.55,43.9163849 C868.67,43.6763849 867.88,43.1663849 867.02,42.8363849 C862.91,41.2763849 857.58,43.9263849 854.2,41.1063849 C852.971348,39.8809946 852.08822,38.3527698 851.64,36.6763849 C850.713486,34.4139878 850.08489,32.0407845 849.77,29.6163849 C849.470183,27.1621398 850.145213,24.6882274 851.65,22.7263849 C853.85,20.1263849 857.57,19.4863849 860.38,17.5663849 C862.77,15.9363849 864.38,13.4363849 865.96,10.9863849 C867.54,8.53638495 869.07,5.98638495 871.37,4.25638495 C873.67,2.52638495 876.93,1.67638495 879.51,2.98638495 C880.326103,3.54784065 881.227787,3.97335438 882.18,4.24638495 C883.236728,4.26755241 884.277528,3.98653624 885.18,3.43638495 C894.8,-1.09361505 906,-0.293615052 916.55,1.05638495 C920.77,1.59638495 925.05,2.23638495 928.9,4.05638495 C932.75,5.87638495 936.15,9.05638495 937.23,13.1863849 C938.09,16.4463849 937.43,19.9863849 938.47,23.1863849 C939.17,25.3663849 940.61,27.1863849 941.47,29.3763849 C943.72,35.2163849 941.03,41.6363849 939.89,47.7963849 C938.64,54.5263849 939.27,61.7963849 936.41,68.1863849 C935.85,69.4363849 935.22,71.6263849 933.81,70.7963849 C932.81,70.1863849 931.75,66.6363849 931.15,65.5363849 C929.162696,61.8674482 926.941443,58.330145 924.5,54.9463849 L924.5,54.9463849 Z"/>
    <path fill="#000" fill-rule="nonzero" d="M985.36,163.336385 L990.36,177.576385 C990.36,177.576385 978.52,221.576385 972.97,230.836385 C967.42,240.096385 959.29,251.916385 959.29,251.916385 C959.29,251.916385 945.61,258.756385 929.7,255.616385 C913.79,252.476385 867.38,244.146385 867.38,244.146385 C867.38,244.146385 863.5,244.886385 861.47,241.926385 C859.44,238.966385 848.89,237.486385 848.89,237.486385 C848.89,237.486385 836.69,219.736385 851.67,212.336385 C851.67,212.336385 853.51,216.406385 861.47,213.636385 C869.43,210.866385 871.82,215.856385 871.82,215.856385 C871.82,215.856385 884.77,218.446385 891.98,217.516385 C899.19,216.586385 917.13,216.226385 918.98,214.746385 C919.951593,213.883187 921.437115,213.963485 922.31,214.926385 C922.31,214.926385 926.74,213.266385 928.22,211.606385 C929.7,209.946385 931.74,213.446385 931.74,213.446385 C931.74,213.446385 934.33,211.976385 933.59,210.126385 C932.85,208.276385 935.99,201.246385 935.99,201.246385 C935.99,201.246385 937.47,196.626385 936.54,192.926385 C935.61,189.226385 941.17,175.926385 941.17,175.926385 C941.242326,173.68245 940.993133,171.439713 940.43,169.266385 C939.5,165.936385 947.43,159.266385 947.43,159.266385 C947.43,159.266385 955.2,121.546385 971.66,133.936385 C988.12,146.326385 985.36,163.336385 985.36,163.336385 Z" opacity=".1"/>
    <path fill="#4C4981" fill-rule="nonzero" d="M986.5,163.336385 L991.5,177.576385 C991.5,177.576385 979.66,221.576385 974.11,230.836385 C968.56,240.096385 960.43,251.916385 960.43,251.916385 C960.43,251.916385 946.74,258.756385 930.84,255.616385 C914.94,252.476385 868.5,244.146385 868.5,244.146385 C868.5,244.146385 864.62,244.886385 862.59,241.926385 C860.56,238.966385 850.01,237.486385 850.01,237.486385 C850.01,237.486385 837.81,219.736385 852.79,212.336385 C852.79,212.336385 854.63,216.406385 862.59,213.636385 C870.55,210.866385 872.94,215.856385 872.94,215.856385 C872.94,215.856385 885.94,218.446385 893.1,217.516385 C900.26,216.586385 918.25,216.226385 920.1,214.746385 C921.06826,213.884316 922.550619,213.964685 923.42,214.926385 C923.42,214.926385 927.86,213.266385 929.34,211.606385 C930.82,209.946385 932.86,213.446385 932.86,213.446385 C932.86,213.446385 935.44,211.976385 934.7,210.126385 C933.96,208.276385 937.11,201.246385 937.11,201.246385 C937.11,201.246385 938.59,196.626385 937.66,192.926385 C936.73,189.226385 942.29,175.926385 942.29,175.926385 C942.362326,173.68245 942.113133,171.439713 941.55,169.266385 C940.62,165.936385 948.55,159.266385 948.55,159.266385 C948.55,159.266385 956.32,121.546385 972.78,133.936385 C989.24,146.326385 986.5,163.336385 986.5,163.336385 Z"/>
    <path fill="#000" fill-rule="nonzero" d="M866.27 222.886385C866.46 224.176385 870.53 229.356385 869.05 230.276385 867.57 231.196385 865.16 230.646385 867.38 233.606385 869.6 236.566385 869.38 241.006385 867.94 240.446385 866.5 239.886385 864.06 233.236385 864.06 230.646385 864.06 228.056385 866.27 222.886385 866.27 222.886385zM921.2 219.926385C921.2 219.926385 922.31 232.866385 931.37 236.566385 940.43 240.266385 921.2 219.926385 921.2 219.926385zM940.06 215.486385C940.61 215.666385 953 222.326385 947.45 226.206385 941.9 230.086385 940.06 215.486385 940.06 215.486385zM940.8 206.236385C940.8 206.236385 958.92 209.936385 952.8 213.076385 946.68 216.216385 940.8 206.236385 940.8 206.236385z" opacity=".1"/>
    <path fill="#000" fill-rule="nonzero" d="M60.37 25.07C61.26 22.52 63.37 20.21 66 19.8 69.9 19.2 73.17 22.61 75.46 25.8 77.8694617 29.1731406 80.0606053 32.6970073 82.02 36.35 82.62 37.46 83.64 41.01 84.68 41.62 86.09 42.45 86.68 40.25 87.28 39 90.14 32.64 89.51 25.35 90.76 18.62 91.49 14.69 92.84 10.62 93.14 6.73 93.56 11.56 91.67 16.65 90.76 21.58 89.51 28.31 90.14 35.58 87.28 41.96 86.72 43.21 86.09 45.4 84.68 44.58 83.68 43.97 82.62 40.42 82.02 39.31 80.0731647 35.6615051 77.8954029 32.1410129 75.5 28.77 73.21 25.55 69.94 22.15 66.04 22.77 63.37 23.18 61.3 25.49 60.41 28.04 59.9638831 29.3836925 59.7146317 30.7848895 59.67 32.2 59.4522435 29.8004582 59.6897409 27.3813775 60.37 25.07L60.37 25.07zM2.6 7.51C3.05085215 9.18529361 3.9336075 10.7128742 5.16 11.94 8.54 14.76 13.87 12.1 17.98 13.67 18.8032522 14.0724 19.64784 14.4295972 20.51 14.74 23.12 15.44 25.66 13.74 27.97 12.29 30.28 10.84 33.47 9.85 35.47 11.66 38.08 14.03 36.19 19.1 38.88 21.38 40.58 22.84 43.28 22.38 45.17 23.53 47.06 24.68 47.63 27.32 48.11 29.53 48.59 31.74 49.54 34.35 51.75 35.01 53.96 35.67 56 34.22 58.17 34.3 58.62 34.3 59.17 34.37 59.44 34.04 59.5120247 33.9624751 59.5665849 33.8704047 59.6 33.77 59.6 34.51 59.6 35.25 59.67 35.99 59.7226544 36.340429 59.6404619 36.6977878 59.44 36.99 59.14 37.32 58.62 37.27 58.17 37.25 56 37.17 53.84 38.58 51.75 37.96 49.66 37.34 48.59 34.73 48.11 32.48 47.63 30.23 47.11 27.66 45.17 26.43 43.23 25.2 40.58 25.73 38.88 24.28 36.19 22 38.08 16.93 35.47 14.56 33.47 12.75 30.28 13.79 27.97 15.19 25.66 16.59 23.12 18.34 20.51 17.64 19.63 17.4 18.84 16.9 17.98 16.57 13.87 15 8.54 17.66 5.16 14.84 3.93134953 13.6106578 3.04836721 12.0792353 2.6 10.4 1.67110458 8.1384028 1.04242451 5.7648834.73 3.34.659966731 2.51360473.680085192 1.68204169.79.86 1.13586628 3.13883855 1.7432063 5.3702259 2.6 7.51L2.6 7.51z" opacity=".1" transform="translate(849 25.996)"/>
    <path fill="#35323E" fill-rule="nonzero" d="M395.56,521.196385 C395.56,583.616385 431.79,634.196385 476.48,634.196385 C521.17,634.196385 557.4,583.596385 557.4,521.196385 C557.4,458.796385 521.17,408.196385 476.48,408.196385 C431.79,408.196385 395.56,458.786385 395.56,521.196385 Z M401.14,519.686385 C401.14,465.046385 433,420.746385 472.29,420.746385 C511.58,420.746385 543.5,465.066385 543.5,519.686385 C543.5,574.306385 511.64,618.626385 472.34,618.626385 C433.04,618.626385 401.14,574.326385 401.14,519.686385 Z"/>
    <path fill="#464353" fill-rule="nonzero" d="M466.71,274.246385 L472.29,369.126385 L581.95,369.126385 C591.460693,369.035585 600.659662,372.514636 607.73,378.876385 C614.08317,384.676036 618.029795,392.647791 618.79,401.216385 L618.79,543.526385 L604.79,543.526385 L604.89,533.756385 L466.66,533.756385 L466.66,519.756385 L605.08,519.756385 L606.22,405.576385 C606.239158,404.140816 606.091502,402.707881 605.78,401.306385 C604.92,397.546385 602.51,390.686385 596.06,386.836385 C593.234299,385.207416 590.021303,384.371346 586.76,384.416385 L462.5,384.416385 L455.5,285.356385 L413.7,285.356385 L413.7,274.246385 L466.71,274.246385 Z"/>
    <path fill="#000" fill-rule="nonzero" d="M466.71,274.246385 L472.29,369.126385 L581.95,369.126385 C591.460693,369.035585 600.659662,372.514636 607.73,378.876385 C614.08317,384.676036 618.029795,392.647791 618.79,401.216385 L618.79,543.526385 L604.79,543.526385 L604.89,533.756385 L466.66,533.756385 L466.66,519.756385 L605.08,519.756385 L606.22,405.576385 C606.239158,404.140816 606.091502,402.707881 605.78,401.306385 C604.92,397.546385 602.51,390.686385 596.06,386.836385 C593.234299,385.207416 590.021303,384.371346 586.76,384.416385 L462.5,384.416385 L455.5,285.356385 L413.7,285.356385 L413.7,274.246385 L466.71,274.246385 Z" opacity=".1"/>
    <polygon fill="#35323E" fill-rule="nonzero" points="463.23 325.166 357.89 321.686 363.47 468.176 616 470.966 609.72 411.676 472.29 434.696"/>
    <rect width="139.52" height="13.95" x="367.65" y="519.796" fill="#464353" fill-rule="nonzero"/>
    <path fill="#464353" fill-rule="nonzero" d="M462.5 509.226385L462.5 468.226385 473.66 468.226385 473.66 509.226385C477.79 512.316385 480.66 518.696385 480.66 526.086385 480.66 536.486385 475.03 544.916385 468.1 544.916385 461.17 544.916385 455.54 536.486385 455.54 526.086385 455.55 518.696385 458.4 512.316385 462.5 509.226385zM517.35 544.136385C512.577243 539.704276 505.275585 539.444567 500.2 543.526385L500.2 543.526385C500.2 543.526385 483.46 554.686385 498.8 602.126385 498.8 602.126385 509.97 609.126385 504.38 586.776385 498.79 564.426385 501.59 550.496385 507.17 550.496385 512.75 550.496385 519.73 565.846385 519.73 565.846385L529.5 561.666385C529.5 561.666385 525.09 551.376385 517.35 544.136385zM621.99 544.136385C617.217243 539.704276 609.915585 539.444567 604.84 543.526385L604.84 543.526385C604.84 543.526385 588.1 554.686385 603.44 602.126385 603.44 602.126385 614.61 609.126385 609.03 586.776385 603.45 564.426385 606.23 550.496385 611.82 550.496385 617.41 550.496385 624.37 565.846385 624.37 565.846385L634.14 561.666385C634.14 561.666385 629.73 551.376385 621.99 544.136385z"/>
    <ellipse cx="620.88" cy="597.936" fill="#35323E" fill-rule="nonzero" rx="31.39" ry="41.86"/>
    <ellipse cx="516.39" cy="599.856" fill="#35323E" fill-rule="nonzero" rx="31.39" ry="41.86"/>
    <path fill="#A1616A" fill-rule="nonzero" d="M535.67,524.656385 C535.67,524.656385 542.27,538.316385 541.95,539.286385 C541.63,540.256385 556.13,551.856385 556.13,551.856385 L571.93,540.576385 L570.32,532.836385 C570.32,532.836385 552.59,516.836385 551.32,515.006385 C550.05,513.176385 535.67,524.656385 535.67,524.656385 Z"/>
    <path fill="#67647E" fill-rule="nonzero" d="M625.78,570.886385 C614.78,581.526385 601.92,578.296385 595.78,577.656385 C589.64,577.016385 556.93,557.336385 553.78,556.046385 C552.595039,555.327311 551.608502,554.323587 550.91,553.126385 L550.91,553.126385 C548.802206,549.860918 546.950021,546.437385 545.37,542.886385 C545.59,542.946385 556.32,546.006385 559.03,542.886385 C559.03,542.886385 563.54,537.346385 564.51,537.346385 C565.48,537.346385 564.58,527.636385 564.58,527.636385 C564.58,527.636385 576.12,534.126385 579.99,537.636385 C583.86,541.146385 601.91,545.536385 601.91,545.536385 C606.38525,547.479105 610.727947,549.713924 614.91,552.226385 C623.5,557.476385 632.02,564.836385 625.78,570.886385 Z"/>
    <path fill="#000" fill-rule="nonzero" d="M625.78,570.886385 C614.78,581.526385 601.92,578.296385 595.78,577.656385 C589.64,577.016385 556.93,557.336385 553.78,556.046385 C552.595039,555.327311 551.608502,554.323587 550.91,553.126385 C554.73,550.846385 579.65,566.696385 586.63,569.596385 C593.61,572.496385 611.25,570.886385 621.25,566.696385 C626.25,564.606385 621.18,558.176385 614.88,552.256385 C623.5,557.476385 632.02,564.836385 625.78,570.886385 Z" opacity=".1"/>
    <path fill="#A1616A" fill-rule="nonzero" d="M624.5,537.346385 C624.5,537.346385 629.1,571.846385 627.93,576.346385 C626.76,580.846385 656.75,560.866385 656.75,560.866385 C656.75,560.866385 646.26,539.246385 649.33,534.276385 C652.4,529.306385 624.5,537.346385 624.5,537.346385 Z"/>
    <path fill="#4C4981" fill-rule="nonzero" d="M653.19,537.996385 C653.19,537.996385 634.49,543.476385 624.19,542.826385 C615.19,542.266385 616.5,533.546385 616.98,531.386385 C617.05,531.076385 617.1,530.896385 617.1,530.896385 C610.65,523.806385 596.1,470.896385 598.1,465.116385 C600.1,459.336385 596.49,454.116385 595.72,454.116385 C594.95,454.116385 593.91,447.666385 595.52,444.116385 C597.13,440.566385 588.43,437.346385 588.43,437.346385 C561.02,439.926385 531.68,435.346385 531.68,435.346385 C531.68,435.346385 533.93,443.446385 535.87,446.666385 C537.81,449.886385 543.29,468.276385 543.29,472.146385 C543.29,476.016385 551.99,509.226385 554.57,510.836385 C555.65,511.516385 556.62,513.206385 557.38,514.936385 C558.059032,516.53985 558.630301,518.186843 559.09,519.866385 C558.09,541.466385 533.61,533.086385 530.09,530.186385 C527.974684,528.44637 526.785427,525.824096 526.87,523.086385 C526.87,523.086385 494.87,490.596385 499.06,477.066385 C503.25,463.536385 488.74,463.206385 488.74,463.206385 C488.74,463.206385 466.5,453.506385 463.4,447.706385 C461.49,444.136385 444.8,436.296385 432.24,430.786385 C424.37,427.336385 418.12,424.786385 418.12,424.786385 L423.35,406.066385 L427.5,391.276385 L435.26,388.356385 L460.04,379.066385 L504.59,372.936385 L508.67,373.466385 L551.94,379.066385 C551.94,379.066385 615.14,397.116385 621.59,399.966385 C628.04,402.816385 631.59,430.966385 631.59,430.966385 C631.59,430.966385 645.13,477.726385 644.49,483.876385 C643.85,490.026385 649,507.066385 649,507.066385 C649,507.066385 649,526.356385 651.19,527.666385 L651.26,527.666385 C653.5,528.646385 653.19,537.996385 653.19,537.996385 Z"/>
    <path fill="#000" fill-rule="nonzero" d="M588.38,437.386385 C560.97,439.966385 531.63,435.386385 531.63,435.386385 C529.69,429.296385 502.63,412.526385 502.63,412.526385 C524.82,407.066385 588.38,437.386385 588.38,437.386385 Z" opacity=".1"/>
    <path fill="#444053" fill-rule="nonzero" d="M559.04 519.936385C558.04 541.536385 533.56 533.156385 530.04 530.256385 529.533487 529.837528 529.074111 529.364739 528.67 528.846385 537.24 532.006385 552.42 534.436385 557.36 515.006385 558.02884 516.610594 558.590082 518.257573 559.04 519.936385L559.04 519.936385zM653.19 537.996385C653.19 537.996385 634.49 543.476385 624.19 542.826385 615.19 542.266385 616.5 533.546385 616.98 531.386385 626.45 531.086385 642.75 530.196385 651.21 527.636385L651.28 527.636385C653.5 528.646385 653.19 537.996385 653.19 537.996385z"/>
    <path fill="#000" fill-rule="nonzero" d="M559.04 519.936385C558.04 541.536385 533.56 533.156385 530.04 530.256385 529.533487 529.837528 529.074111 529.364739 528.67 528.846385 537.24 532.006385 552.42 534.436385 557.36 515.006385 558.02884 516.610594 558.590082 518.257573 559.04 519.936385L559.04 519.936385zM653.19 537.996385C653.19 537.996385 634.49 543.476385 624.19 542.826385 615.19 542.266385 616.5 533.546385 616.98 531.386385 626.45 531.086385 642.75 530.196385 651.21 527.636385L651.28 527.636385C653.5 528.646385 653.19 537.996385 653.19 537.996385z" opacity=".1"/>
    <path fill="#67647E" fill-rule="nonzero" d="M699.3,605.386385 C689.3,612.156385 674.15,608.936385 674.15,608.936385 C674.15,608.936385 651.26,597.936385 644.49,597.936385 C637.72,597.936385 621.27,591.166385 621.27,591.166385 L621.82,586.606385 L624.5,564.756385 C624.5,564.756385 649.62,564.116385 650.62,561.856385 C650.62,561.856385 655.14,550.746385 656.75,554.856385 C658.36,558.966385 682.55,587.986385 688.67,587.986385 C691.59,587.986385 696.42,590.406385 699.59,593.666385 C703.06,597.236385 704.5,601.846385 699.3,605.386385 Z"/>
    <path fill="#000" fill-rule="nonzero" d="M612.56 414.816385C612.56 414.816385 591.56 428.036385 597.41 430.936385 603.26 433.836385 612.56 414.816385 612.56 414.816385zM621.27 440.286385C621.27 440.286385 603.21 457.436385 609.98 457.886385 616.75 458.336385 621.27 440.286385 621.27 440.286385zM640.62 494.786385C640.62 494.786385 631.5 512.066385 634.9 515.006385 638.3 517.946385 640.62 494.786385 640.62 494.786385zM539.69 512.196385C542.91 515.426385 509.05 501.556385 516.79 500.906385 524.53 500.256385 539.69 512.196385 539.69 512.196385z" opacity=".1"/>
    <path fill="#A1616A" fill-rule="nonzero" d="M471.97,270.356385 L470.9,270.196385 C466.9,269.576385 452.35,267.296385 439.31,264.466385 C436.13,263.776385 433.05,263.056385 430.22,262.316385 C420.22,259.696385 413.53,256.866385 417.8,254.556385 C423.46,251.486385 426.44,245.906385 428.01,241.106385 C428.163333,240.633052 428.303333,240.173052 428.43,239.726385 C429.124752,237.306039 429.560528,234.818761 429.73,232.306385 C429.73,232.306385 466.17,219.406385 459.07,232.306385 C455.59,238.636385 457.93,243.796385 461.22,247.416385 C463.477354,249.807158 466.133675,251.786709 469.07,253.266385 L471.97,270.356385 Z"/>
    <path fill="#000" fill-rule="nonzero" d="M432.96,260.356385 C432.96,260.356385 445.96,269.706385 459.3,261.966385 C472.64,254.226385 490.03,330.336385 490.03,330.336385 L508.09,374.826385 C508.09,374.826385 519.79,384.506385 505.23,388.696385 C490.67,392.886385 458.38,384.506385 450.18,396.756385 C441.98,409.006385 426.5,410.946385 424.87,410.946385 C423.24,410.946385 417.14,364.836385 417.14,364.836385 L415.5,298.066385 L432.96,260.356385 Z" opacity=".1"/>
    <path fill="#F3F5F9" fill-rule="nonzero" d="M504.59,386.116385 C490.03,390.306385 457.73,381.926385 449.59,394.176385 C446.132118,399.155481 441.313414,403.033357 435.71,405.346385 C432.08535,406.962323 428.22119,407.975651 424.27,408.346385 C424.06,408.346385 423.76,407.496385 423.4,406.036385 C421.13,396.706385 416.54,362.236385 416.54,362.236385 L414.95,295.486385 L430.27,262.296385 L432.36,257.756385 C434.41855,259.125809 436.651894,260.21221 439,260.986385 C445.485112,263.388685 452.700716,262.799282 458.71,259.376385 C462.62,257.106385 466.88,262.046385 470.95,270.176385 C480.74,289.736385 489.43,327.736385 489.43,327.736385 L507.49,372.226385 C507.921078,372.597141 508.331684,372.991055 508.72,373.406385 C511.23,376.126385 516.04,382.816385 504.59,386.116385 Z"/>
    <path fill="#000" fill-rule="nonzero" d="M435.23,388.356385 C435.948037,393.993916 436.092109,399.689762 435.66,405.356385 C435.150709,413.41011 434.148835,421.425103 432.66,429.356385 C432.57636,429.854267 432.445777,430.343114 432.27,430.816385 C424.4,427.366385 418.15,424.816385 418.15,424.816385 L423.35,406.066385 C421.08,396.736385 416.49,362.266385 416.49,362.266385 L414.9,295.516385 L430.22,262.326385 C420.22,259.706385 413.53,256.876385 417.8,254.566385 C424,251.196385 426.99,244.806385 428.43,239.736385 C431.061112,243.391438 434.138241,246.703718 437.59,249.596385 L437.79,249.766385 L438.95,261.016385 L439.31,264.476385 L440.05,271.656385 C440.05,271.656385 436.5,356.456385 433.92,361.296385 C431.34,366.136385 432.63,375.486385 434.92,386.446385 C435.02,387.066385 435.13,387.696385 435.23,388.356385 Z" opacity=".1"/>
    <path fill="#F5DD47" fill-rule="nonzero" d="M433.6,385.146385 C435.86,396.146385 433.92,414.146385 431.34,428.036385 C428.76,441.926385 401.34,432.876385 396.2,428.036385 C391.06,423.196385 375.88,420.946385 375.88,420.946385 C375.88,420.946385 375.24,357.736385 370.4,349.676385 C368.1,345.856385 367.55,333.376385 367.61,321.326385 C367.61,310.496385 368.19,300.016385 368.39,296.456385 C368.44,295.636385 368.46,295.186385 368.46,295.186385 C368.46,295.186385 347.46,259.716385 347.83,257.136385 C348.2,254.556385 354.28,254.236385 354.28,254.236385 C354.28,254.236385 377.49,236.176385 381.36,238.436385 C385.23,240.696385 395.87,234.886385 395.87,234.886385 C395.87,234.886385 409.36,236.416385 412.14,233.816385 C412.487738,233.522765 412.673665,233.080258 412.64,232.626385 C412.32,228.496385 426.38,219.686385 426.82,219.416385 C414.97,230.076385 434.13,246.496385 436.3,248.296385 L436.5,248.466385 L438.76,270.356385 C438.76,270.356385 435.21,355.156385 432.63,359.996385 C430.05,364.836385 431.34,374.186385 433.6,385.146385 Z"/>
    <circle cx="432.35" cy="293.026" r="1.61" fill="#444053" fill-rule="nonzero"/>
    <path fill="#000" fill-rule="nonzero" d="M435.66,249.586385 L425.86,259.066385 L411.5,235.066385 C411.843766,234.769863 412.028813,234.329452 412,233.876385 C411.68,229.746385 425.74,220.936385 426.17,220.666385 C414.32,231.366385 433.5,247.786385 435.66,249.586385 Z" opacity=".1"/>
    <circle cx="429.13" cy="344.616" r="1.61" fill="#000" fill-rule="nonzero" opacity=".1"/>
    <circle cx="429.13" cy="343.966" r="1.61" fill="#444053" fill-rule="nonzero"/>
    <path fill="#F5DD47" fill-rule="nonzero" d="M436.3,248.296385 L426.5,257.776385 L412.13,233.776385 C412.477738,233.482765 412.663665,233.040258 412.63,232.586385 C412.31,228.456385 426.37,219.646385 426.81,219.376385 C414.97,230.066385 434.13,246.496385 436.3,248.296385 Z"/>
    <path fill="#000" fill-rule="nonzero" d="M555.5,382.246385 C547.44,385.796385 494.55,376.446385 486.82,374.186385 C479.09,371.926385 467.82,354.516385 473.27,341.936385 C478.72,329.356385 471.33,317.066385 471.33,317.066385 C471.33,317.066385 459.72,292.246385 457.14,287.406385 C454.56,282.566385 449.14,268.486385 448.43,266.126385 C448.378185,265.591278 448.543983,265.057842 448.89,264.646385 C450.99,261.456385 459.07,255.806385 459.07,255.806385 C461.35,256.626385 461.63,250.106385 461.54,245.316385 C461.49,242.636385 461.33,240.496385 461.33,240.496385 C461.33,240.496385 462.4,241.586385 464.15,243.066385 C464.79,243.606385 465.52,244.196385 466.32,244.806385 C469.362513,247.249865 472.807307,249.144839 476.5,250.406385 C484.24,252.686385 495.2,263.256385 495.2,263.256385 L491.97,312.786385 C491.97,312.786385 499.39,359.356385 507.13,368.386385 C514.87,377.416385 538.13,377.086385 545.82,377.086385 C553.51,377.086385 555.5,382.246385 555.5,382.246385 Z" opacity=".1"/>
    <path fill="#F5DD47" fill-rule="nonzero" d="M556.13,380.316385 C548.07,383.856385 495.19,374.506385 487.45,372.246385 C479.71,369.986385 468.45,352.576385 473.91,340.006385 C479.37,327.436385 471.97,315.176385 471.97,315.176385 C471.97,315.176385 460.36,290.346385 457.78,285.506385 C455.2,280.666385 449.83,266.586385 449.08,264.226385 C449.013709,263.692935 449.181451,263.156892 449.54,262.756385 C451.63,259.556385 459.72,253.906385 459.72,253.906385 C462,254.736385 462.28,248.216385 462.19,243.426385 C462.14,240.736385 461.98,238.596385 461.98,238.596385 C461.98,238.596385 463.05,239.686385 464.79,241.176385 C465.43,241.706385 466.16,242.306385 466.97,242.916385 C470.006867,245.345069 473.445425,247.223415 477.13,248.466385 C484.87,250.756385 495.83,261.326385 495.83,261.326385 L492.61,310.846385 C492.61,310.846385 500.03,357.416385 507.76,366.446385 C515.49,375.476385 538.76,375.156385 546.46,375.156385 C554.16,375.156385 556.13,380.316385 556.13,380.316385 Z"/>
    <path fill="#000" fill-rule="nonzero" d="M468.43,239.886385 C468.43,239.886385 468.12,241.596385 467.61,244.206385 C465.88,253.056385 461.74,272.396385 458.75,271.646385 C456.61,271.106385 452.99,267.316385 450.18,264.046385 C452.28,260.846385 460.36,255.196385 460.36,255.196385 C462.64,256.026385 462.92,249.506385 462.83,244.716385 L465.44,242.466385 L468.43,239.886385 Z" opacity=".1"/>
    <path fill="#F5DD47" fill-rule="nonzero" d="M467.78,238.596385 C467.78,238.596385 467.48,240.306385 466.97,242.916385 C465.23,251.766385 461.09,271.106385 458.11,270.356385 C455.97,269.816385 452.35,266.026385 449.54,262.756385 C451.63,259.556385 459.72,253.906385 459.72,253.906385 C462,254.736385 462.28,248.216385 462.19,243.426385 L464.79,241.176385 L467.78,238.596385 Z"/>
    <polygon fill="#29A389" fill-rule="nonzero" points="466.46 287.826 466.46 320.546 457.81 337.996 457.81 337.996 457.54 338.546 434.64 337.036 425.84 336.446 405.41 335.096 405.41 295.966 425.84 296.546 434.98 296.806 458.08 297.456"/>
    <polygon fill="#000" fill-rule="nonzero" points="466.46 289.756 466.46 320.546 464.35 324.806 464.35 324.806 462.18 329.176 462.18 329.176 457.81 337.996 458.3 305.276 458.4 298.676 462.55 294.086 462.55 294.076 464.36 292.076" opacity=".1"/>
    <polygon fill="#29A389" fill-rule="nonzero" points="467.63 279.146 467.63 290.566 466.46 292.436 464.36 295.786 462.5 298.746 458.4 305.286 458.3 305.276 403.62 302.466 403.62 291.196 403.75 291.046 410.28 283.976 412.65 281.426 416.92 276.796"/>
    <polygon fill="#000" fill-rule="nonzero" points="458.4 294.016 458.4 305.286 403.62 302.466 403.62 291.196 403.75 291.046" opacity=".1"/>
    <polygon fill="#000" fill-rule="nonzero" points="467.63 279.146 467.63 290.566 458.4 305.286 458.4 294.016" opacity=".15"/>
    <polygon fill="#3F3D56" fill-rule="nonzero" points="464.37 284.396 464.36 292.076 464.36 295.786 464.35 324.806 464.35 324.806 462.18 329.176 462.5 298.746 462.55 294.086 462.55 294.076 462.63 287.206 410.28 283.976 412.65 281.426"/>
    <polygon fill="#3F3D56" fill-rule="nonzero" points="438.68 284.776 435.01 292.746 434.98 296.806 434.64 337.036 425.84 336.446 425.84 292.216 430.54 284.776"/>
    <path fill="#3F3D56" fill-rule="nonzero" d="M426.6,285.316385 C424.481699,286.026442 422.202829,286.106342 420.04,285.546385 C419.61872,285.467589 419.223577,285.28548 418.89,285.016385 C418.527932,284.620786 418.282223,284.132828 418.18,283.606385 C417.792837,282.520054 417.580202,281.37925 417.55,280.226385 C417.521459,279.062394 418.039557,277.952183 418.95,277.226385 C419.13891,277.110099 419.31637,276.976167 419.48,276.826385 C419.68019,276.580757 419.823612,276.293914 419.9,275.986385 C420.54,274.076385 421.78,272.056385 423.77,271.746385 C425.76,271.436385 427.29,272.746385 428.71,273.956385 L431.82,276.606385 C432.527537,274.709799 434.326493,273.44182 436.350554,273.413063 C438.374615,273.384305 440.208867,274.600665 440.97,276.476385 C442.854011,274.353894 445.230193,272.726279 447.89,271.736385 C448.455197,271.442676 449.121212,271.4134 449.71,271.656385 C450.043241,271.913747 450.296422,272.260569 450.44,272.656385 C451.282775,274.51162 451.738715,276.519116 451.78,278.556385 C452.228969,278.391365 452.731932,278.567402 452.98,278.976385 C453.224164,279.367538 453.362038,279.815631 453.38,280.276385 C453.468316,280.986273 453.511735,281.701027 453.51,282.416385 C453.581652,283.174898 453.379459,283.934009 452.94,284.556385 C452.196359,285.200365 451.217728,285.504828 450.24,285.396385 C450.435421,285.640385 450.516673,285.956547 450.46311,286.264535 C450.409547,286.572523 450.226325,286.842688 449.96,287.006385 C449.403655,287.307556 448.769107,287.433071 448.14,287.366385 C445.72,287.366385 443.14,287.266385 441.14,285.926385 C440.34,285.396385 439.68,284.686385 438.88,284.166385 C436.93,282.866385 434.47,282.806385 432.21,282.916385 C430.16,282.966385 428.5,284.666385 426.6,285.316385 Z"/>
    <path fill="#3F3D56" fill-rule="nonzero" d="M426.15,284.786385 C426.15,284.786385 405.96,287.596385 403.15,299.786385 L407.37,299.166385 L410.37,304.486385 C410.37,304.486385 413.5,292.586385 422.73,289.766385 C431.96,286.946385 435.25,286.486385 435.25,286.486385 C435.25,286.486385 441.67,288.046385 447.46,306.676385 L450.75,302.136385 L456.54,303.386385 C456.54,303.386385 452.31,288.826385 440.89,284.766385 L426.15,284.786385 Z"/>
    <path fill="#A1616A" fill-rule="nonzero" d="M488.42,333.556385 C488.42,333.556385 472.29,330.336385 467.78,323.236385 C463.27,316.136385 432.56,310.016385 436.3,317.436385 C440.04,324.856385 467.78,349.116385 467.78,349.116385 L479.78,366.326385 L495.78,362.256385 L502.54,349.116385 L488.42,333.556385 Z"/>
    <path fill="#000" fill-rule="nonzero" d="M450.27 351.956385C450.27 351.956385 465.89 357.756385 468.27 365.496385 470.65 373.236385 450.27 351.956385 450.27 351.956385zM440.69 360.966385C440.69 360.966385 439.27 369.026385 458.85 368.376385L440.69 360.966385zM356.21 257.776385L349.12 257.136385C349.12 257.136385 341.38 262.936385 335.57 262.936385 329.76 262.936385 326.22 270.356385 326.22 270.356385 326.22 270.356385 316.55 274.866385 313.32 275.516385 310.09 276.166385 304.62 279.386385 306.23 280.676385 307.84 281.966385 305.91 284.866385 303.01 287.126385 300.11 289.386385 295.59 300.986385 299.46 302.596385 303.33 304.206385 313.97 307.436385 316.87 309.046385 319.77 310.656385 323.32 309.046385 323.32 309.046385 323.32 309.046385 340.4 286.796385 349.11 290.996385 357.82 295.196385 369.75 295.186385 369.75 295.186385L379.11 275.516385 356.21 257.776385z" opacity=".1"/>
    <path fill="#F5DD47" fill-rule="nonzero" d="M504.59,363.876385 C503.309363,366.091031 501.111185,367.622429 498.59,368.056385 C492.281141,368.794165 485.88772,368.204894 479.82,366.326385 C479.82,366.326385 512.3,356.006385 481.02,330.916385 L489.4,330.916385 L492.2,329.856385 L490.92,323.176385 L489.08,262.936385 L495.85,261.326385 C495.85,261.326385 501.3,300.986385 502.61,305.826385 C503.92,310.666385 504.88,329.366385 504.88,329.366385 C504.88,329.366385 506.17,337.106385 508.11,340.976385 C509.5,343.886385 509.17,356.996385 504.59,363.876385 Z"/>
    <path fill="#000" fill-rule="nonzero" d="M503.3,363.876385 C502.018316,366.090069 499.820644,367.621114 497.3,368.056385 C490.981265,368.797507 484.577367,368.208213 478.5,366.326385 C478.5,366.326385 510.98,356.006385 479.7,330.916385 L488.09,330.916385 L490.88,329.856385 C495.5,337.986385 502.71,352.456385 503.3,363.876385 Z" opacity=".1"/>
    <path d="M504.59,363.876385 C503.309363,366.091031 501.111185,367.622429 498.59,368.056385 C492.281141,368.794165 485.88772,368.204894 479.82,366.326385 C479.82,366.326385 512.3,356.006385 481.02,330.916385 L489.4,330.916385 L492.2,329.856385 C496.77,337.986385 504,352.456385 504.59,363.876385 Z"/>
    <path fill="#F5DD47" fill-rule="nonzero" d="M504.59,363.876385 C503.309363,366.091031 501.111185,367.622429 498.59,368.056385 C492.281141,368.794165 485.88772,368.204894 479.82,366.326385 C479.82,366.326385 512.3,356.006385 481.02,330.916385 L489.4,330.916385 L492.2,329.856385 C496.77,337.986385 504,352.456385 504.59,363.876385 Z"/>
    <path fill="#000" fill-rule="nonzero" d="M461.22,247.416385 C449.919892,252.526117 436.627864,249.984582 428.01,241.066385 C428.163333,240.593052 428.303333,240.133052 428.43,239.686385 C429.124752,237.266039 429.560528,234.778761 429.73,232.266385 C429.73,232.266385 466.17,219.366385 459.07,232.266385 C455.59,238.636385 457.93,243.796385 461.22,247.416385 Z" opacity=".1"/>
    <path fill="#A1616A" fill-rule="nonzero" d="M478.42,219.406385 L478.42,219.686385 C478.42,220.686385 478.36,221.586385 478.26,222.516385 C478.16,223.446385 478.03,224.286385 477.86,225.156385 C475.249661,238.147943 464.26048,247.780786 451.038946,248.667054 C437.817411,249.553323 425.6409,241.473327 421.32,228.946385 C421.13,228.376385 420.95,227.806385 420.79,227.226385 C420.084799,224.679618 419.728217,222.048983 419.729993,219.406385 C419.729993,218.726385 419.729993,218.056385 419.81,217.406385 C420.901008,201.639356 434.285087,189.569802 450.080623,190.108806 C465.876159,190.647811 478.406342,203.601661 478.42,219.406385 L478.42,219.406385 Z"/>
    <path fill="#000" fill-rule="nonzero" d="M478.42,219.686385 C478.264856,220.621198 478.211212,221.570042 478.26,222.516385 C478.26854,223.027618 478.24181,223.538831 478.18,224.046385 C478.122579,224.42884 478.014985,224.802056 477.86,225.156385 C476.67,227.936385 472.8,229.736385 470.25,227.946385 C469.265376,227.136512 468.481584,226.109712 467.96,224.946385 C465.25,219.946385 461.48,214.116385 455.55,214.016385 C453.02,213.966385 450.64,215.016385 448.19,215.656385 C445.74,216.296385 442.85,216.356385 441.02,214.656385 C439.62,213.376385 438.96,211.186385 437.08,210.736385 C435.2,210.286385 433.46,212.016385 432.6,213.736385 C431.74,215.456385 431.05,217.406385 429.31,218.286385 C428.53,218.666385 427.62,218.776385 426.86,219.186385 C423.35,221.116385 424.96,227.846385 421.32,228.936385 L420.97,229.016385 L420.79,227.216385 C420.456667,223.936385 420.123333,220.656385 419.79,217.376385 C420.881008,201.609356 434.265087,189.539802 450.060623,190.078806 C465.856159,190.617811 478.386342,203.571661 478.4,219.376385 L478.42,219.686385 Z" opacity=".1"/>
    <path fill="#464353" fill-rule="nonzero" d="M426.29,175.606385 C422.85,177.066385 419.29,179.316385 418.48,182.836385 C418.296405,184.4026 418.242889,185.981333 418.32,187.556385 C418.16,190.736385 416.64,193.686385 415.68,196.726385 C414.72,199.766385 414.36,203.326385 416.3,205.916385 C416.91,206.726385 417.71,207.396385 418.25,208.246385 C418.956918,209.561169 419.344047,211.024039 419.38,212.516385 L420.97,228.386385 C425.07,227.626385 423.24,220.536385 426.86,218.556385 C427.62,218.146385 428.53,218.026385 429.31,217.646385 C431.05,216.776385 431.73,214.786385 432.6,213.096385 C433.47,211.406385 435.17,209.676385 437.08,210.096385 C438.99,210.516385 439.62,212.736385 441.02,214.006385 C442.85,215.676385 445.76,215.596385 448.2,215.006385 C450.64,214.416385 453.02,213.316385 455.55,213.356385 C461.48,213.456385 465.25,219.256385 467.96,224.286385 C468.485286,225.447505 469.26848,226.473523 470.25,227.286385 C473.13,229.286385 477.68,226.756385 478.18,223.376385 C478.45,221.486385 477.86,219.376385 478.96,217.766385 C480.06,216.156385 482.41,215.766385 484.26,214.966385 C488.97,212.796385 490.43,206.916385 489.65,201.966385 C489.08,198.416385 487.65,194.746385 488.83,191.326385 C489.23,190.146385 489.92,189.066385 490.29,187.886385 C491.29,184.566385 489.63,180.886385 486.97,178.546385 C484.31,176.206385 480.83,174.886385 477.41,173.736385 C468.61,170.796385 459.41,167.946385 450.02,167.336385 C445.92,167.076385 440.55,165.796385 437.3,168.336385 C433.5,171.376385 431.06,173.586385 426.29,175.606385 Z"/>
    <circle cx="433.96" cy="267.546" r="1.61" fill="#000" fill-rule="nonzero" opacity=".1"/>
    <circle cx="433.96" cy="266.906" r="1.61" fill="#444053" fill-rule="nonzero"/>
    <circle cx="423.65" cy="368.796" r="1.61" fill="#000" fill-rule="nonzero" opacity=".1"/>
    <circle cx="423.65" cy="368.156" r="1.61" fill="#444053" fill-rule="nonzero"/>
    <circle cx="429.13" cy="395.566" r="1.61" fill="#000" fill-rule="nonzero" opacity=".1"/>
    <circle cx="429.13" cy="394.916" r="1.61" fill="#444053" fill-rule="nonzero"/>
    <path fill="#000" fill-rule="nonzero" d="M484.55 293.066385C484.55 293.066385 488.1 317.146385 484.55 321.346385 481 325.546385 484.55 293.066385 484.55 293.066385zM379.11 337.746385C379.11 337.746385 372.33 352.336385 379.11 366.326385 385.89 380.316385 390.11 385.996385 387.81 394.926385 385.51 403.856385 379.11 337.746385 379.11 337.746385zM699.3 605.386385C689.3 612.156385 674.15 608.936385 674.15 608.936385 674.15 608.936385 651.26 597.936385 644.49 597.936385 637.72 597.936385 621.27 591.166385 621.27 591.166385L621.82 586.606385C628.51 587.896385 643.7 590.956385 645.45 592.456385 647.71 594.396385 675.45 603.746385 675.45 603.746385 675.45 603.746385 694.33 601.386385 699.59 593.626385 703.06 597.236385 704.5 601.846385 699.3 605.386385z" opacity=".1"/>
    <path fill="#000" fill-rule="nonzero" d="M4.32 1.99C4.32 1.64 4.32 1.29 4.32.93 4.32 1.34 4.32 1.74 4.32 2.14 4.32488174 2.09011916 4.32488174 2.03988084 4.32 1.99zM70.26 29.41C68.41 30.27 66.08 30.57 64.96 32.21 63.84 33.85 64.45 35.93 64.18 37.82 63.68 41.2 59.13 43.75 56.25 41.73 55.2664205 40.9191203 54.4828312 39.8925842 53.96 38.73 51.25 33.73 47.48 27.9 41.55 27.8 39.02 27.8 36.64 28.8 34.2 29.45 31.76 30.1 28.85 30.15 27.02 28.45 25.62 27.18 24.96 24.99 23.08 24.54 21.2 24.09 19.47 25.81 18.6 27.54 17.73 29.27 17.05 31.22 15.31 32.09 14.53 32.47 13.62 32.59 12.86 33 9.25 35 11.07 42.07 6.97 42.83L5.38 26.96C5.34404723 25.4676541 4.95691763 24.0047838 4.25 22.69 3.71 21.84 2.91 21.17 2.3 20.36 1.57268395 19.3565178 1.11789463 18.1816454.98 16.95.633255576 19.0452991 1.10590081 21.1936865 2.3 22.95 2.91 23.76 3.71 24.43 4.25 25.28 4.95691763 26.5947838 5.34404723 28.0576541 5.38 29.55L6.97 45.42C11.07 44.66 9.25 37.57 12.86 35.59 13.62 35.18 14.53 35.06 15.31 34.68 17.05 33.81 17.74 31.82 18.6 30.13 19.46 28.44 21.17 26.71 23.08 27.13 24.99 27.55 25.62 29.77 27.02 31.04 28.85 32.71 31.76 32.63 34.2 32.04 36.64 31.45 39.02 30.35 41.55 30.39 47.48 30.49 51.25 36.29 53.96 41.32 54.4852863 42.4811197 55.2684805 43.5071383 56.25 44.32 59.13 46.32 63.68 43.79 64.18 40.41 64.45 38.52 63.86 36.41 64.96 34.8 66.06 33.19 68.41 32.8 70.26 32 74.57 30 76.15 24.93 75.79 20.3 75.5 24.07 73.78 27.79 70.26 29.41zM76.29 2.34C75.92 3.52 75.23 4.6 74.83 5.78 74.4100175 7.16911462 74.2974113 8.63299529 74.5 10.07 74.5647397 9.50521592 74.6887565 8.94881636 74.87 8.41 75.27 7.23 75.96 6.15 76.33 4.97 76.6568409 3.87712884 76.7219284 2.72268308 76.52 1.6 76.456051 1.85044111 76.3792832 2.09743302 76.29 2.34L76.29 2.34z" opacity=".1" transform="translate(414 182.996)"/>
    <path fill="#000" fill-rule="nonzero" d="M395.55,328.706385 C388.13,327.086385 370.72,321.946385 370.72,321.946385 L367.61,321.326385 C367.61,310.496385 368.19,300.016385 368.39,296.456385 L368.46,296.456385 C368.46,296.456385 383.3,301.286385 386.84,303.866385 C390.38,306.446385 401.35,305.806385 401.35,305.806385 C401.35,305.806385 418.44,306.806385 432.63,322.576385 C446.82,338.346385 402.97,330.336385 395.55,328.706385 Z" opacity=".1"/>
    <path fill="#A1616A" fill-rule="nonzero" d="M323.07,299.926385 C321.714302,300.531529 320.766664,301.7932 320.563258,303.263827 C320.359851,304.734454 320.929454,306.205979 322.07,307.156385 C325.99,310.406385 331.73,314.306385 337.2,314.856385 C346.34,315.776385 368.32,320.186385 370.51,320.626385 L370.85,320.706385 C372.66,321.236385 388.52,325.886385 395.51,327.416385 C402.93,329.046385 446.78,337.106385 432.59,321.306385 C419.53,306.756385 404.02,304.786385 401.59,304.556385 C401.400132,304.546387 401.209868,304.546387 401.02,304.556385 C399.36,304.636385 390.02,304.956385 386.76,302.556385 C385.073612,301.502049 383.288513,300.614523 381.43,299.906385 C374.419867,297.005514 367.107975,294.895799 359.63,293.616385 L344.5,291.066385 C343.637125,290.91567 342.74888,291.027136 341.95,291.386385 L323.07,299.926385 Z"/>
    <path fill="#F5DD47" fill-rule="nonzero" d="M354.92,257.776385 L347.83,257.136385 C347.83,257.136385 340.09,262.936385 334.28,262.936385 C328.47,262.936385 324.93,270.356385 324.93,270.356385 C324.93,270.356385 315.26,274.866385 312.03,275.516385 C308.8,276.166385 303.33,279.386385 304.94,280.676385 C306.55,281.966385 304.62,284.866385 301.72,287.126385 C298.82,289.386385 294.3,300.986385 298.17,302.596385 C302.04,304.206385 312.68,307.436385 315.58,309.046385 C318.48,310.656385 322.03,309.046385 322.03,309.046385 C322.03,309.046385 339.11,286.796385 347.82,290.996385 C356.53,295.196385 368.5,295.186385 368.5,295.186385 L377.86,275.516385 L354.92,257.776385 Z"/>
    <polygon fill="#464353" fill-rule="nonzero" points="370.44 376.066 370.44 459.776 504.38 459.776 504.38 473.776 371.84 473.776 371.84 533.776 357.84 533.776 357.84 376.066"/>
    <path fill="#464353" fill-rule="nonzero" d="M309.05,274.246385 L362.05,274.246385 L367.63,369.126385 L477.31,369.126385 C486.820693,369.035585 496.019662,372.514636 503.09,378.876385 C509.44317,384.676036 513.389795,392.647791 514.15,401.216385 L514.15,543.526385 L500.2,543.526385 L501.58,405.626385 C501.599158,404.190816 501.451502,402.757881 501.14,401.356385 C500.28,397.596385 497.87,390.736385 491.42,386.886385 C488.594299,385.257416 485.381303,384.421346 482.12,384.466385 L357.89,384.466385 L350.89,285.406385 L309.05,285.406385 L309.05,274.246385 Z"/>
    <path fill="#35323E" fill-rule="nonzero" d="M290.92,521.196385 C290.92,583.616385 327.15,634.196385 371.84,634.196385 C416.53,634.196385 452.76,583.596385 452.76,521.196385 C452.76,458.796385 416.53,408.196385 371.84,408.196385 C327.15,408.196385 290.92,458.786385 290.92,521.196385 Z M296.5,519.686385 C296.5,465.046385 328.36,420.746385 367.65,420.746385 C406.94,420.746385 438.81,465.046385 438.81,519.686385 C438.81,574.326385 406.95,618.626385 367.65,618.626385 C328.35,618.626385 296.5,574.326385 296.5,519.686385 Z"/>
    <ellipse cx="363.47" cy="524.686" fill="#35323E" fill-rule="nonzero" rx="12.56" ry="18.84"/>
    <ellipse cx="360.68" cy="525.386" fill="#464353" fill-rule="nonzero" rx="2.79" ry="5.58"/>
    <path fill="#464353" fill-rule="nonzero" d="M511.36,497.486385 L511.36,512.826385 C515.74,510.096385 520.55,510.826385 524.8,512.666385 C531.649043,515.792277 536.753486,521.801814 538.73,529.066385 C542.11,540.766385 548.73,563.786385 554.61,585.426385 C562.98,616.066385 578.33,609.066385 578.33,609.066385 L685.06,616.746385 L730.41,593.746385 L730.41,579.746385 L616,579.746385 C616,579.746385 589.49,589.516385 578.33,593.746385 C567.17,597.976385 571.33,589.556385 556.62,536.916385 C541.91,484.276385 511.36,497.486385 511.36,497.486385 Z"/>
    <polygon fill="#000" fill-rule="nonzero" points="578.33 609.096 685.06 616.766 730.41 593.746 618.79 592.356" opacity=".1"/>
  </g>
</svg>
