<svg xmlns="http://www.w3.org/2000/svg" width="983" height="417" viewBox="0 0 983 417">
  <g fill="none" fill-rule="evenodd">
    <g transform="translate(801 99)">
      <path fill="#F5DD48" fill-rule="nonzero" d="M165.042452,317 C165.042452,317 208.042452,285 154.042452,173 C154.042452,173 82.0424524,84 154.042452,0 C154.042452,0 -2.95754759,4 0.0424524077,150 C3.04245241,296 78.5424524,317 78.5424524,317 L165.042452,317 Z"/>
      <path stroke="#535461" stroke-width="2" d="M124.882452,317 C124.882452,317 114.052452,240 85.0524524,193 C79.3312967,183.502777 75.2160476,173.126809 72.8724524,162.29 C63.1824524,119.66 77.0024524,75.08 108.312452,44.57 L154.062452,-5.68434189e-14"/>
      <path fill="#000" fill-rule="nonzero" d="M165.042452,317 C165.042452,317 208.042452,285 154.042452,173 C154.042452,173 82.0424524,84 154.042452,0 C154.042452,0 -2.95754759,4 0.0424524077,150 C3.04245241,296 78.5424524,317 78.5424524,317 L165.042452,317 Z" opacity=".1"/>
    </g>
    <g transform="translate(646 139)">
      <path stroke="#535461" stroke-width="2" d="M-2.20268248e-13,276.08 C-2.20268248e-13,276.08 74.48,159 83.48,109 C92.48,59 109.48,13 109.48,13"/>
      <path fill="#F5DD48" fill-rule="nonzero" d="M126.48,113 L79.48,117 C79.48,117 104.48,160 126.48,113 Z"/>
      <path fill="#F5DD48" fill-rule="nonzero" d="M44.48 87L81.7 116.81C81.7 116.81 33.48 136 44.48 87zM132.48 72L90.12 77.66C90.12 77.66 127.48 108 132.48 72zM62.48 57L90.42 76.61C90.42 76.61 56.48 91 62.48 57zM100.79 39.19C100.79 39.19 135.48 30 140.48 32 145.48 34 142.48 56 128.48 57 114.48 58 100.79 39.19 100.79 39.19zM77.48 13C77.48 13 99.48 34 100.48 39 101.48 44 82.48 56 72.48 39 62.48 22 77.48 13 77.48 13z"/>
      <circle cx="118.48" cy="15" r="10" fill="#FFD037" fill-rule="nonzero"/>
      <circle cx="100.48" cy="10" r="10" fill="#FFD037" fill-rule="nonzero"/>
    </g>
    <g transform="translate(718 281)">
      <path fill="#F5DD48" fill-rule="nonzero" d="M12.555507,134.173146 C12.555507,134.173146 -20.444493,75.1731456 20.555507,28.1731456 C61.555507,-18.8268544 109.555507,7.1731456 109.555507,7.1731456 C109.555507,7.1731456 169.555507,35.1731456 155.555507,102.173146 C155.555507,102.173146 147.555507,136.173146 123.555507,134.173146 L12.555507,134.173146 Z"/>
      <path fill="#FFF" fill-rule="nonzero" d="M12.555507,134.173146 C12.555507,134.173146 -20.444493,75.1731456 20.555507,28.1731456 C61.555507,-18.8268544 109.555507,7.1731456 109.555507,7.1731456 C109.555507,7.1731456 169.555507,35.1731456 155.555507,102.173146 C155.555507,102.173146 147.555507,136.173146 123.555507,134.173146 L12.555507,134.173146 Z" opacity=".2"/>
      <path stroke="#535461" d="M64.385507 134.253146L100.555507 24.1731456M133.555507 41.1731456C133.555507 41.1731456 114.935507 32.4131456 96.245507 37.2931456 96.245507 37.2931456 86.555507 13.1731456 64.555507 9.1731456M142.555507 79.1731456C142.555507 79.1731456 110.895507 56.2931456 87.725507 63.2331456 87.725507 63.2331456 61.555507 32.1731456 43.555507 34.1731456M135.555507 120.173146C135.555507 120.173146 108.495507 100.593146 75.025507 101.903146 75.025507 101.903146 49.555507 71.1931456 25.555507 69.1931456M78.835507 134.253146C74.6852527 132.295604 70.3549992 130.745018 65.905507 129.623146 65.905507 129.623146 45.045507 102.503146 3.29550703 111.333146"/>
    </g>
    <g transform="translate(53 35)">
      <path stroke="#535461" stroke-width="2" d="M115.015584,380.173541 C115.015584,380.173541 60.0155845,290.493541 74.6955845,209.583541 C80.8655845,175.583541 76.4855845,140.583541 61.0555845,109.673541 C53.708227,95.0379685 45.0353052,81.1063975 35.1455845,68.0535409"/>
      <path fill="#33CCAB" fill-rule="nonzero" d="M44.1055845 17.0135409C47.3355845 28.9535409 35.1055845 69.4235409 35.1055845 69.4235409 35.1055845 69.4235409 4.10558447 40.6435409.905584468 28.7035409-1.37843138 20.9144153.730055547 12.499132 6.41688209 6.70713662 12.1037086.915141261 20.4789466-1.3471802 28.3086134.793736476 36.1382802 2.93465315 42.1971159 9.14377717 44.1455845 17.0235409L44.1055845 17.0135409zM97.7155845 73.4935409C93.9355845 85.2735409 61.6455845 112.573541 61.6455845 112.573541 61.6455845 112.573541 51.2855845 71.5735409 55.0655845 59.8035409 59.0011913 48.234627 71.4827969 41.9547857 83.1181037 45.6895419 94.7534106 49.4242981 101.248371 61.7953278 97.7155845 73.4935409L97.7155845 73.4935409zM126.695584 186.943541C117.485584 195.203541 75.8355845 202.473541 75.8355845 202.473541 75.8355845 202.473541 87.5855845 161.853541 96.8355845 153.593541 102.764139 148.05981 111.220718 146.162707 118.944995 148.633635 126.669272 151.104564 132.454725 157.557569 134.070845 165.504776 135.686966 173.451982 132.881318 181.652048 126.735584 186.943541L126.695584 186.943541zM129.285584 277.683541C121.605584 287.373541 81.7755845 301.583541 81.7755845 301.583541 81.7755845 301.583541 86.4955845 259.583541 94.1755845 249.863541 101.915011 240.365899 115.848991 238.848248 125.451605 246.457041 135.054219 254.065834 136.76232 267.977751 129.285584 277.683541L129.285584 277.683541zM16.8755845 127.153541C27.6855845 133.153541 69.8755845 130.993541 69.8755845 130.993541 69.8755845 130.993541 49.3955845 93.9935409 38.5855845 87.9935409 31.5789554 83.9601585 22.9425717 84.0153097 15.9880256 88.1378468 9.03347951 92.2603839 4.84001382 99.8105502 5.01559886 107.89326 5.19118389 115.975969 9.70857145 123.336905 16.8355845 127.153541L16.8755845 127.153541zM21.2555845 233.273541C33.3655845 235.773541 73.0155845 221.073541 73.0155845 221.073541 73.0155845 221.073541 42.4355845 191.903541 30.2955845 189.403541 18.3460404 187.286555 6.88388757 195.070413 4.44503944 206.958443 2.0061913 218.846473 9.47773678 230.514609 21.2955845 233.273541L21.2555845 233.273541zM39.6655845 335.833541C51.1855845 340.343541 92.7455845 332.553541 92.7455845 332.553541 92.7455845 332.553541 67.5055845 298.633541 55.9855845 294.123541 44.5489291 289.936712 31.8626311 295.654646 27.4249402 306.996318 22.9872493 318.33799 28.4243977 331.147141 39.6655845 335.833541L39.6655845 335.833541z"/>
    </g>
    <g transform="translate(0 175)">
      <path fill="#F5DD48" fill-rule="nonzero" d="M172.949334,241 C172.949334,241 205.949334,187 123.949334,107 C41.9493338,27 46.9493338,12 53.9493338,0 C53.9493338,0 -12.0506662,8 1.94933383,107 C15.9493338,206 75.9493338,241 75.9493338,241 L172.949334,241 Z"/>
      <path stroke="#535461" stroke-width="2" d="M126.449334,241 C126.449334,241 101.949334,170 64.9493338,127 C27.9493338,84 34.9493338,13 53.9493338,0"/>
    </g>
    <g transform="matrix(-1 0 0 1 303 188)">
      <path fill="#F5DD48" fill-rule="nonzero" d="M54.9616375,225.39 C54.9616375,225.39 -92.1783625,192.49 95.0416375,8.52651283e-13 C95.0416375,8.52651283e-13 175.741638,76.49 146.141638,171.57 C134.241638,209.8 95.9416375,233.4 57.1416375,225.84 L54.9616375,225.39 Z"/>
      <path fill="#FFF" fill-rule="nonzero" d="M54.9616375,225.39 C51.7316375,224.67 -89.0383625,189.24 95.0416375,8.52651283e-13 C95.0416375,8.52651283e-13 175.741638,76.49 146.141638,171.57 C134.241638,209.8 95.9416375,233.4 57.1416375,225.84 L54.9616375,225.39 Z" opacity=".4"/>
      <path stroke="#535461" d="M56.8916375,226.48 C56.8916375,226.48 134.611638,109.39 95.0416375,-2.13162821e-13"/>
    </g>
    <g fill-rule="nonzero" transform="translate(206)">
      <rect width="93" height="198" x="82.84" y="217.02" fill="#3F3D56"/>
      <rect width="93" height="198" x="82.84" y="217.02" fill="#000" opacity=".1"/>
      <path fill="#5F5478" d="M131.94,264.88 L238.14,264.88 L238.14,414.88 L173,414.88 C150.356325,414.88 132,396.523675 132,373.88 L132,264.88 L131.94,264.88 Z"/>
      <rect width="113.73" height="113.73" x="164.82" y="190.2" fill="#D4A1A1"/>
      <rect width="113.73" height="113.73" x="164.82" y="201.2" fill="#000" opacity=".1"/>
      <path fill="#5F5478" d="M369.68,188.15 C369.68,188.15 479.98,238.85 476.56,264.2 C473.14,289.55 450.56,292.97 450.56,292.97 L384.11,260.77 L337.52,223.77 L369.68,188.15 Z"/>
      <path fill="#FBBEBE" d="M263.35,242.16 C264.12,247.16 264.58,252.44 262.76,257.16 C260.76,262.34 256.31,266.16 253.87,271.16 C250.22,278.58 251.59,287.73 255.62,294.96 C259.65,302.19 265.99,307.83 272.51,312.96 C282.21,320.54 292.75,327.35 304.51,330.9 C318.6,335.14 333.64,334.5 348.34,333.82 C350.766584,333.836378 353.17916,333.451177 355.48,332.68 C357.086006,331.957464 358.597296,331.040615 359.98,329.95 C367.66,324.37 375.46,318.56 380.65,310.61 C387.757052,299.543449 389.082921,285.726111 384.21,273.51 C379.38,261.74 369.1,252.59 365.6,240.36 C363.06,231.48 364.4,222.02 364.37,212.78 C364.485473,211.229315 364.185146,209.675899 363.5,208.28 C362.11,205.98 359.09,205.4 356.42,205.06 C338.32,202.69 320.05,200.92 301.77,201.55 C292.513686,201.830452 283.296039,202.870614 274.21,204.66 C269.3,205.66 257.48,206.56 256.21,212.87 C255.47,216.64 258.82,222.3 259.84,225.87 C261.345001,231.222374 262.517243,236.662777 263.35,242.16 L263.35,242.16 Z"/>
      <path fill="#000" d="M263.35,242.16 C264.12,247.16 264.58,252.44 262.76,257.16 C260.76,262.34 256.31,266.16 253.87,271.16 C250.22,278.58 251.59,287.73 255.62,294.96 C259.65,302.19 265.99,307.83 272.51,312.96 C282.21,320.54 292.75,327.35 304.51,330.9 C318.6,335.14 333.64,334.5 348.34,333.82 C350.766584,333.836378 353.17916,333.451177 355.48,332.68 C357.086006,331.957464 358.597296,331.040615 359.98,329.95 C367.66,324.37 375.46,318.56 380.65,310.61 C387.757052,299.543449 389.082921,285.726111 384.21,273.51 C379.38,261.74 369.1,252.59 365.6,240.36 C363.06,231.48 364.4,222.02 364.37,212.78 C364.485473,211.229315 364.185146,209.675899 363.5,208.28 C362.11,205.98 359.09,205.4 356.42,205.06 C338.32,202.69 320.05,200.92 301.77,201.55 C292.513686,201.830452 283.296039,202.870614 274.21,204.66 C269.3,205.66 257.48,206.56 256.21,212.87 C255.47,216.64 258.82,222.3 259.84,225.87 C261.345001,231.222374 262.517243,236.662777 263.35,242.16 L263.35,242.16 Z" opacity=".1"/>
      <circle cx="184.69" cy="148.41" r="86.33" fill="#D4A1A1"/>
      <circle cx="312.47" cy="160.4" r="86.33" fill="#FBBEBE"/>
      <path fill="#EEE" d="M361.74,112.53 C358.02,114.17 354.82,116.8 351.2,118.65 C340.79,123.96 328.29,122.25 316.88,119.71 C310.83,118.36 303.73,115.71 302.58,109.63 C301.35,103.17 307.74,97.95 309.78,91.71 C300.105638,89.9028866 290.104625,91.725784 281.69,96.83 C271.18,103.26 263.5,114.65 251.59,117.77 C249.395602,118.477401 247.034398,118.477401 244.84,117.77 C242.568642,116.710012 240.769821,114.847075 239.79,112.54 C234.33,101.25 241.79,88.33 243.66,75.92 C245.19,65.58 243.11,53.63 250.1,45.86 C257.32,37.86 269.91,39.01 280.45,36.68 C287.667464,35.0810837 294.337321,31.6116545 299.79,26.62 C301.268207,25.1031326 302.881543,23.7240992 304.61,22.5 C306.842304,21.2125813 309.311706,20.3894472 311.87,20.08 C321.819087,18.5556647 331.986564,20.6033308 340.57,25.86 C346.57,29.53 351.71,34.75 358.43,36.71 C362.03,37.77 365.84,37.8 369.55,38.33 C385.139851,40.7860665 398.072611,51.7033821 403.11,66.66 C403.99,69.4 404.61,72.28 406.19,74.66 C409.32,79.43 415.4,81.22 419.69,84.98 C423.98,88.74 426.21,94.36 428.07,99.76 C432.973042,114.355083 435.797412,129.567632 436.46,144.95 C436.82,153.32 436.28,162.42 430.92,168.85 C429.650311,170.188729 428.448792,171.590502 427.32,173.05 C423.61,178.6 425.61,186.05 424.8,192.64 C424.130653,197.96152 421.605898,202.876471 417.67,206.52 C416.743474,207.546681 415.450509,208.168022 414.07,208.25 C412.47,208.17 411.23,206.83 410.36,205.48 C407.3,200.72 406.52,194.87 404.27,189.67 C402.02,184.47 397.19,179.5 391.58,180.29 C390.15,180.49 388.8,181.05 387.37,181.29 C383.37,181.93 379.26,179.67 376.75,176.45 C374.24,173.23 373.05,169.18 372.21,165.19 C369.83,153.84 369.92,142.19 370.83,130.64 C371.18,126.18 373.75,118.25 372.56,114.03 C371.37,109.81 365.21,110.99 361.74,112.53 Z"/>
      <path fill="#3F3D56" d="M322.67,317.36 C309.009011,311.89198 297.549738,302.043618 290.09,289.36 C284.62,280 281.48,269.36 275.27,260.44 C266.22,247.44 249.15,253.99 233.34,253.91 C213.09,253.81 196.54,251.14 179.91,262.7 C168.83,270.39 156.91,279.26 153.91,292.39 C151.26,303.77 155.99,315.91 153.34,327.3 C151.55,334.98 153.83,342.04 152.53,349.83 C150.7,360.83 149.23,371.1 154.86,380.71 L174.3,413.89 L385.3,414.69 C385.17,414.69 384.91,415.08 384.78,415.08 L535.88,415.08 C535.61,407.93 535.16,400.9 532.88,394.14 C530.47,387.14 527.02,380.54 523.59,373.98 L485.47,301.19 C478.19,287.27 470.22,272.63 456.62,264.77 C449.19,260.48 440.62,258.59 432.73,255.34 C422.38,251.11 419.61,254.07 408.81,251.17 C398.01,248.27 377.97,240.71 372.08,250.17 C367.44,257.65 368.8,267.23 367.08,275.86 C365.52,283.7 361.36,290.78 356.75,297.32 C352.52,303.32 347.75,309.11 341.75,313.32 C335.75,317.53 329.51,320.09 322.67,317.36 Z"/>
      <path fill="#FBBEBE" d="M322.06,359.09 C322.06,359.09 250.81,364.57 251.49,379.64 C251.49,379.64 319.32,398.14 319.32,397.46 C319.32,396.78 322.06,359.09 322.06,359.09 Z"/>
      <path fill="#3F3D56" d="M234.37,326.89 C234.37,326.89 239.85,370.05 259.71,378.27 C279.57,386.49 342.62,387.86 342.62,387.86 L385.09,415.27 L175.44,415.27 C175.44,415.27 165.85,302.27 175.44,302.27 C185.03,302.27 234.37,326.89 234.37,326.89 Z"/>
      <path fill="#3F3D56" d="M400.85,310.44 L450.21,351.55 L315.93,354.98 C315.93,354.98 296.45,378.98 304.48,385.82 C312.51,392.66 350.18,397.46 350.18,397.46 L385.12,415.27 L531.98,415.09 L483.1,326.89 L400.85,310.44 Z"/>
      <path fill="#000" d="M400.85,310.44 L450.21,351.55 L315.93,354.98 C315.93,354.98 296.45,378.98 304.48,385.82 C312.51,392.66 350.18,397.46 350.18,397.46 L385.12,415.27 L531.98,415.09 L483.1,326.89 L400.85,310.44 Z" opacity=".1"/>
      <polygon fill="#5F5478" points="426.23 247.07 341.27 316.95 403.62 366.28 474.19 273.79"/>
      <path fill="#E0AAAA" d="M381.67,322.78 C381.67,322.78 438.53,312.5 448.81,307.7 C459.09,302.9 500.21,285.09 489.21,298.8 C478.21,312.51 473.46,313.18 473.46,313.18 C473.46,313.18 515.93,316.61 514.56,324.83 C513.19,333.05 508.4,334.42 508.4,334.42 C508.4,334.42 526.21,344.7 522.1,347.42 C517.99,350.14 520.73,359.75 520.04,361.81 C519.35,363.87 524.84,374.81 519.36,376.2 C513.88,377.59 455.64,374.83 443.36,372.09 C431.08,369.35 375.53,372.77 375.53,372.77 L381.67,322.78 Z"/>
      <path fill="#5F5478" d="M117.55,230.63 C117.55,230.63 95.63,257.35 117.55,289.55 C139.47,321.75 184.69,358.75 209.36,364.91 C234.03,371.07 397.77,373.82 397.77,373.82 C397.77,373.82 405.31,299.82 397.77,297.08 C390.23,294.34 256.63,303.25 238.13,289.55 C219.63,275.85 164.13,236.11 147.7,234.74 C137.586628,233.883779 127.52354,232.511995 117.55,230.63 Z"/>
      <path fill="#3F3D56" d="M240.83,87.943166 C234.821794,85.3980856 228.587162,83.4329205 222.21,82.0741153 C190.77,75.4198399 160.49,112.627407 167.99,143.563243 C170.99,156.046301 179.45,167.603197 178.11,180.388265 C176.85,192.539112 166.98,202.283951 164.94,214.324062 C164.3345,217.054077 164.596869,219.906638 165.69,222.478318 C167.59,226.354106 172.04,228.347369 174.28,232.031884 C178.05,238.233145 173.84,246.759879 167.56,250.363859 C161.28,253.967839 153.72,254.108776 146.56,254.702728 C137.570866,255.449389 128.667647,257.016204 119.96,259.383875 C115.02,260.732851 110.04,262.40397 106.05,265.625404 C96.61,273.236043 95.31,287.561359 98.76,299.228991 C102.21,310.896624 109.38,321.034075 114.55,332.037287 C119.72,343.040498 122.81,356.198044 117.71,367.22139 C112.37,378.768219 98.64,386.992943 99.2,399.727676 C99.35,403.160517 100.61,406.522889 100.37,409.945663 C99.84,417.858311 68.71,416.217393 63.69,410.086601 C55.3451436,399.895855 50.2064494,387.432715 48.93,374.288411 C47.71,361.523478 50.19,348.416267 47.21,335.943276 C44.44,324.376313 37.26,314.480469 31.07,304.343018 C11.170195,271.697745 0.435985079,234.231228 0.01,195.931685 C-0.08,186.277449 0.51,176.492343 3.41,167.291121 C7.05,155.764426 14.13,145.697444 19.41,134.825103 C25,123.318542 38.07,89.654553 49.88,58.4771087 C61.8486789,26.7603114 93.1728463,6.79986142 126.77,9.48110566 C131.041216,9.94968791 135.355208,9.84813947 139.6,9.17909619 C147.22,7.6891828 154.22,3.91406443 161.73,1.880534 C182.73,-3.79724404 206.97,6.21940338 217.95,25.1553972 C221.14,30.6620365 223.29,36.7928287 227.03,41.9370567 C230.37,46.5276006 234.82,50.1416473 238.69,54.279177 C240.838884,56.5756049 242.808092,59.035932 244.58,61.6381411"/>
    </g>
  </g>
</svg>
