<svg xmlns="http://www.w3.org/2000/svg" width="506" height="506" viewBox="0 0 506 506">
  <path fill="none" stroke="#07454C" stroke-width="2" d="M410.534858,310.352372 L422.071079,284.409318 L410.534858,310.352372 L399.85696,289.219904 L410.534858,310.352372 Z M410.534858,310.352372 L409.965384,311.633024 L410.534858,310.352372 L411.181951,311.633024 L410.534858,310.352372 Z M19.9804504,397.204064 L18.4064868,397.070277 L19.9804504,397.204064 L18.4064868,395.463641 L19.9804504,397.204064 Z M19.9804504,397.204064 L37.5644623,398.698713 L19.9804504,397.204064 L38.3907084,417.561354 L19.9804504,397.204064 Z M393.161299,125.899383 L414.414164,106.068967 L393.161299,125.899383 L391.975008,102.450525 L393.161299,125.899383 Z M393.161299,125.899383 L393.217298,127.006275 L393.161299,125.899383 L391.975008,127.006275 L393.161299,125.899383 Z M192.729228,155.589177 L192.399744,155.566775 L192.729228,155.589177 L192.399744,155.281727 L192.729228,155.589177 Z M192.729228,155.589177 L211.762821,156.883281 L192.729228,155.589177 L214.183001,175.608254 L192.729228,155.589177 Z M274.721154,32.5938445 L275.922561,31.1278456 L274.721154,32.5938445 L275.922561,32.3939715 L274.721154,32.5938445 Z M274.721154,32.5938445 L256.62967,54.6697011 L274.721154,32.5938445 L251.905037,36.3896639 L274.721154,32.5938445 Z M86.7388235,73.0031859 L114.995285,67.2095359 L86.7388235,73.0031859 L98.1629092,51.9360301 L86.7388235,73.0031859 Z M86.7388235,73.0031859 L85.8085564,73.1939261 L86.7388235,73.0031859 L86.6353908,73.1939261 L86.7388235,73.0031859 Z M332.43285,223.29258 L306.728643,238.358163 L332.43285,223.29258 Z M311.578272,214.254029 L332.43285,223.29258 L311.578272,214.254029 Z M81.3436193,228.235568 L97.8021824,253.0709 L81.3436193,228.235568 Z M98.1629092,253.0709 L99.8032683,234.296515 L98.1629092,253.0709 Z M37.3722561,131.001086 L20.5138764,155.566775 L37.3722561,131.001086 Z M37.3722561,131.001086 L38.6701602,150.386884 L37.3722561,131.001086 Z M201.838148,325.330111 L216.852611,335.685359 L201.838148,325.330111 Z M202.611362,355.728189 L201.064934,325.330111 L202.611362,355.728189 Z M333.112948,436.029831 L304.312552,428.399939 L333.112948,436.029831 Z M324.836488,414.861245 L305.279648,427.398483 L324.836488,414.861245 Z M136.677989,437.848859 L128.896525,455.651739 L136.677989,437.848859 Z M116.198686,427.989499 L128.896525,455.651739 L116.198686,427.989499 Z M211.274324,501.274926 L237.905715,487.916518 L211.274324,501.274926 Z M237.905715,487.916518 L219.507282,483.676286 L237.905715,487.916518 Z M490.681316,393.423001 L478.843469,408.829464 L490.681316,393.423001 Z M473.177269,378.924133 L478.843469,408.829464 L473.177269,378.924133 Z M482.227062,189.76749 L461.510082,200.638103 L482.227062,189.76749 Z M483.563607,189.76749 L470.482613,217.250616 L483.563607,189.76749 Z M482.227062,20.4369937 L501.612204,21.7446563 L482.227062,20.4369937 Z M479.868171,43.0432867 L501.612204,21.7446563 L479.868171,43.0432867 Z M22.5723401,14.2837629 L43.0083557,27.9548069 L22.5723401,14.2837629 Z M22.5723401,14.2837629 L52.9147984,11.8817142 L22.5723401,14.2837629 Z M419.861247,473.971936 L435.365768,499.413789 L419.861247,473.971936 Z M419.861247,473.971936 L438.077669,480.728835 L419.861247,473.971936 Z"/>
</svg>
