<svg xmlns="http://www.w3.org/2000/svg" width="730" height="668" viewBox="0 0 730 668">
  <g fill="none" fill-rule="evenodd">
    <path fill="#FFDED1" fill-opacity=".8" fill-rule="nonzero" d="M158.54,667.366243 C246.099224,667.366243 317.08,667.366243 317.08,667.366243 C317.08,660.468207 246.099224,642.386243 158.54,642.386243 C70.9807758,642.386243 -2.84217094e-14,660.468207 -2.84217094e-14,667.366243 C-2.84217094e-14,667.366243 70.9807758,667.366243 158.54,667.366243 Z"/>
    <ellipse cx="317.33" cy="643.61" fill="#FFDED1" fill-opacity=".8" fill-rule="nonzero" rx="25.33" ry="2.57"/>
    <g transform="translate(223)">
      <ellipse cx="111.808" cy="601.92" fill="#FFDED1" fill-opacity=".8" fill-rule="nonzero" rx="22.99" ry="2.57"/>
      <ellipse cx="220.998" cy="575.84" fill="#FFDED1" fill-opacity=".8" fill-rule="nonzero" rx="83.87" ry="12.49"/>
      <ellipse cx="339.878" cy="566.75" fill="#FFDED1" fill-opacity=".8" fill-rule="nonzero" rx="20.49" ry="2.81"/>
      <ellipse cx="418.358" cy="574.71" fill="#FFDED1" fill-opacity=".8" fill-rule="nonzero" rx="20.49" ry="2.81"/>
      <ellipse cx="386.948" cy="597.37" fill="#FFDED1" fill-opacity=".8" fill-rule="nonzero" rx="14.57" ry="2"/>
      <ellipse cx="468.408" cy="595.37" fill="#FFDED1" fill-opacity=".8" fill-rule="nonzero" rx="14.57" ry="2"/>
      <path fill="#F5DD48" fill-rule="nonzero" d="M418.797712,574.08 C418.797712,574.08 390.067712,479.88 423.297712,442.14 C448.157712,413.92 476.377712,417.3 489.017712,420.79 C495.630374,422.54643 501.139335,427.115906 504.087712,433.29 C508.507712,442.83 507.707712,458.29 476.517712,476.36 C424.297712,506.59 421.047712,548.07 421.047712,548.07 L418.797712,574.08 Z"/>
      <path stroke="#565987" d="M484.557712 434.15C484.557712 434.15 399.847712 460.63 418.837712 574.08M435.047712 443.64C435.047712 443.64 446.707712 451.5 443.047712 463.32M476.017712 450.64C476.017712 450.64 468.887712 443.39 460.217712 447.39M442.557712 487.12C442.557712 487.12 430.037712 480.77 426.797712 488.73M411.557712 500.36C411.557712 500.36 420.957712 499.62 421.127712 504.11"/>
      <path fill="#F5DD48" fill-rule="nonzero" d="M417.637712,574.83 C417.637712,574.83 451.297712,506.36 460.537712,507.83 C464.927712,508.54 466.957712,512.83 467.867712,517.2 C469.000825,522.812004 468.361317,528.637467 466.037712,533.87 C461.257712,544.85 448.437712,565.66 417.637712,574.83 Z"/>
      <path stroke="#565987" d="M460.287712 520.85C460.287712 520.85 424.967712 572.08 418.137712 574.33M463.537712 528.85L455.287712 528.85M453.657712 547.59L440.737712 548.14M445.797712 532.6L447.197712 539.33M432.057712 553.09L432.297712 559.21"/>
      <path fill="#F5DD48" fill-rule="nonzero" d="M418.637712,574.83 C418.637712,574.83 384.987712,506.36 375.737712,507.83 C371.347712,508.54 369.327712,512.83 368.407712,517.2 C367.274598,522.812004 367.914106,528.637467 370.237712,533.87 C375.017712,544.85 387.847712,565.66 418.637712,574.83 Z"/>
      <path stroke="#565987" d="M375.987712 520.85C375.987712 520.85 411.317712 572.08 418.137712 574.33M372.737712 528.85L380.987712 528.85M382.617712 547.59L395.537712 548.14M390.477712 532.6L389.077712 539.33M404.227712 553.09L403.977712 559.21"/>
      <path fill="#33CCAB" fill-rule="nonzero" d="M476.427712 590.82C477.343435 590.073295 478.009725 589.065139 478.337712 587.93 478.642784 586.756296 478.089258 585.52855 477.007712 584.98 475.777712 584.51 474.457712 585.36 473.467712 586.22 472.477712 587.08 471.327712 588.07 470.027712 587.88 471.392093 586.645374 472.007291 584.784589 471.647712 582.98 471.590929 582.610203 471.43156 582.263747 471.187712 581.98 470.507712 581.25 469.277712 581.56 468.457712 582.13 465.857712 583.96 465.127712 587.49 465.117712 590.67 464.992503 589.500007 464.992503 588.319993 465.117712 587.15 465.221686 585.958419 464.727042 584.793008 463.797712 584.04 463.182524 583.714034 462.493694 583.552159 461.797712 583.57 460.625006 583.400135 459.435514 583.738431 458.527712 584.5 457.527712 585.56 457.797712 587.34 458.657712 588.5 459.619606 589.591556 460.763146 590.508417 462.037712 591.21 463.007149 591.784829 463.834364 592.571025 464.457712 593.51 464.527841 593.641992 464.588009 593.77904 464.637712 593.92L471.957712 593.92C473.578743 593.089719 475.081961 592.047218 476.427712 590.82zM348.187712 563.29C349.102485 562.542437 349.768563 561.534602 350.097712 560.4 350.403984 559.226298 349.844499 557.99877 348.757712 557.46 347.527712 556.99 346.217712 557.84 345.217712 558.7 344.217712 559.56 343.087712 560.54 341.777712 560.36 343.143826 559.126504 343.759357 557.264715 343.397712 555.46 343.343808 555.091252 343.187949 554.744898 342.947712 554.46 342.267712 553.73 341.027712 554.05 340.217712 554.62 337.617712 556.45 336.887712 559.98 336.877712 563.15 336.735899 561.985132 336.719137 560.808434 336.827712 559.64 336.929895 558.448703 336.435593 557.284098 335.507712 556.53 334.895565 556.196005 334.204547 556.033615 333.507712 556.06 332.336458 555.887387 331.14714 556.221996 330.237712 556.98 329.364796 558.187272 329.418248 559.831955 330.367712 560.98 331.330019 562.068421 332.47359 562.981925 333.747712 563.68 334.715335 564.261492 335.541867 565.050455 336.167712 565.99 336.238117 566.120557 336.295076 566.257929 336.337712 566.4L343.667712 566.4C345.30868 565.57351 346.829343 564.527214 348.187712 563.29zM390.927712 590.82C391.840606 590.07074 392.506265 589.063538 392.837712 587.93 393.145219 586.753482 392.586049 585.522473 391.497712 584.98 390.267712 584.51 388.957712 585.36 387.957712 586.22 386.957712 587.08 385.827712 588.07 384.517712 587.88 385.885568 586.64764 386.501432 584.78484 386.137712 582.98 386.09042 582.609354 385.933754 582.261208 385.687712 581.98 385.007712 581.25 383.767712 581.56 382.957712 582.13 380.357712 583.96 379.627712 587.49 379.617712 590.67 379.492503 589.500007 379.492503 588.319993 379.617712 587.15 379.716351 585.95927 379.222723 584.796254 378.297712 584.04 377.682049 583.7153 376.993555 583.553504 376.297712 583.57 375.125006 583.400135 373.935514 583.738431 373.027712 584.5 372.027712 585.56 372.297712 587.34 373.157712 588.5 374.119606 589.591556 375.263146 590.508417 376.537712 591.21 377.507149 591.784829 378.334364 592.571025 378.957712 593.51 379.027712 593.64 379.077712 593.78 379.137712 593.92L386.457712 593.92C388.078743 593.089719 389.581961 592.047218 390.927712 590.82z"/>
      <path fill="#FFD037" fill-rule="nonzero" d="M492.557712,539.65 C492.557712,540.92 492.697712,541.94 492.867712,541.94 C493.037712,541.94 493.187712,540.94 493.187712,539.65 C493.187712,538.36 493.007712,538.98 492.837712,538.98 C492.667712,538.98 492.557712,538.39 492.557712,539.65 Z"/>
      <path fill="#FFD037" fill-rule="nonzero" d="M490.777712,541.16 C491.887712,541.77 492.857712,542.16 492.937712,541.98 C493.017712,541.8 492.197712,541.21 491.087712,540.61 C489.977712,540.01 490.417712,540.44 490.327712,540.61 C490.237712,540.78 489.667712,540.56 490.777712,541.16 Z"/>
      <path fill="#B9EFE9" fill-rule="nonzero" d="M315.057712 59.49C315.057712 59.49 287.557712 36.68 337.717712-1.0658141e-13 337.717712-1.0658141e-13 362.617712 47.62 329.257712 63.74 329.257712 63.74 329.887712 40.23 326.797712 40.27 323.707712 40.31 315.057712 59.49 315.057712 59.49zM272.977712 82.68C272.977712 82.68 224.427712 87.17 237.497712 3.38 237.497712 3.38 307.497712 25.38 290.787712 73.1 290.787712 73.1 268.727712 49.79 265.787712 52.81 262.847712 55.83 272.977712 82.68 272.977712 82.68zM42.3477116 189.84C42.3477116 189.84-5.67228842 198.29.557711585 113.69.557711585 113.69 72.0877116 129.91 59.3477116 178.84 59.3477116 178.84 35.4677116 157.41 32.7777116 160.66 30.0877116 163.91 42.3477116 189.84 42.3477116 189.84zM402.787712 79.29C402.787712 79.29 448.977712 94.89 455.637712 10.35 455.637712 10.35 382.487712 15.56 387.637712 65.85 387.637712 65.85 414.487712 48.28 416.637712 51.9 418.787712 55.52 402.787712 79.29 402.787712 79.29zM159.107712 104.04C159.107712 104.04 113.037712 88.1 159.507712 17.17 159.507712 17.17 214.177712 66.06 179.287712 102.66 179.287712 102.66 168.817712 72.33 164.887712 73.87 160.957712 75.41 159.107712 104.04 159.107712 104.04zM326.257712 79.29C326.257712 79.29 323.537712 53.36 368.427712 59.8 368.427712 59.8 357.127712 97.35 331.507712 88.75 331.507712 88.75 343.817712 76.8 342.187712 75.25 340.557712 73.7 326.257712 79.29 326.257712 79.29zM280.777712 133.04C280.777712 133.04 278.047712 107.11 322.937712 113.55 322.937712 113.55 311.647712 151.1 286.017712 142.55 286.017712 142.55 298.327712 130.55 296.697712 129.05 295.067712 127.55 280.777712 133.04 280.777712 133.04zM375.897712 144.45C375.897712 144.45 356.207712 127.37 393.387712 101.45 393.387712 101.45 410.777712 136.6 386.187712 147.81 386.187712 147.81 387.027712 130.68 384.767712 130.66 382.507712 130.64 375.897712 144.45 375.897712 144.45zM296.487712 291.29C296.487712 291.29 320.847712 282 326.157712 327.03 326.157712 327.03 286.967712 325.76 288.687712 298.79 288.687712 298.79 303.397712 307.62 304.487712 305.64 305.577712 303.66 296.487712 291.29 296.487712 291.29zM298.407712 245.68C298.407712 245.68 278.717712 228.6 315.907712 202.68 315.907712 202.68 333.297712 237.83 308.697712 249.05 308.697712 249.05 309.537712 231.91 307.287712 231.89 305.037712 231.87 298.407712 245.68 298.407712 245.68zM146.927712 197.17C146.927712 197.17 123.297712 208.17 114.807712 163.62 114.807712 163.62 153.997712 162.11 154.177712 189.14 154.177712 189.14 138.877712 181.37 137.937712 183.42 136.997712 185.47 146.927712 197.17 146.927712 197.17zM89.7777116 144.29C89.7777116 144.29 66.1377116 155.29 57.6577116 110.74 57.6577116 110.74 96.8477116 109.23 97.0277116 136.27 97.0277116 136.27 81.7277116 128.5 80.7877116 130.55 79.8477116 132.6 89.7777116 144.29 89.7777116 144.29zM169.317712 267.03C169.317712 267.03 143.317712 268.03 152.747712 223.64 152.747712 223.64 189.437712 237.47 179.117712 262.45 179.117712 262.45 168.037712 249.35 166.367712 250.87 164.697712 252.39 169.317712 267.03 169.317712 267.03zM164.707712 298.51C164.707712 298.51 169.337712 324.16 124.097712 321.06 124.097712 321.06 132.587712 282.77 158.777712 289.46 158.777712 289.46 147.377712 302.28 149.127712 303.71 150.877712 305.14 164.707712 298.51 164.707712 298.51zM104.027712 278.65C104.027712 278.65 94.1577116 302.78 57.6577116 275.86 57.6577116 275.86 85.3877116 248.13 103.887712 267.86 103.887712 267.86 87.3877116 272.55 88.0877116 274.69 88.7877116 276.83 104.027712 278.65 104.027712 278.65zM309.357712 184.09C309.357712 184.09 281.857712 161.29 332.017712 124.6 332.017712 124.6 356.917712 172.23 323.557712 188.35 323.557712 188.35 324.187712 164.84 321.097712 164.88 318.007712 164.92 309.357712 184.09 309.357712 184.09zM422.937712 137.04C422.937712 137.04 402.837712 107.5 461.207712 86.17 461.207712 86.17 471.917712 138.84 435.397712 145.07 435.397712 145.07 442.517712 122.66 439.537712 121.84 436.557712 121.02 422.937712 137.04 422.937712 137.04zM419.797712 229.95C419.797712 229.95 392.297712 207.15 442.457712 170.46 442.457712 170.46 467.357712 218.08 433.997712 234.2 433.997712 234.2 434.627712 210.7 431.537712 210.74 428.447712 210.78 419.797712 229.95 419.797712 229.95zM370.687712 274.38C370.687712 274.38 381.607712 240.38 434.327712 273.26 434.327712 273.26 399.397712 314.1 372.027712 289.14 372.027712 289.14 394.027712 280.97 392.887712 278.14 391.747712 275.31 370.687712 274.38 370.687712 274.38zM441.137712 249.66C441.137712 249.66 452.057712 215.66 504.777712 248.54 504.777712 248.54 469.847712 289.38 442.467712 264.42 442.467712 264.42 464.467712 256.25 463.337712 253.42 462.207712 250.59 441.137712 249.66 441.137712 249.66z"/>
      <path fill="#B9EFE9" fill-rule="nonzero" d="M215.197712 120.89C215.197712 120.89 180.027712 114.6 205.587712 57.96 205.587712 57.96 250.727712 87.13 229.647712 117.59 229.647712 117.59 218.647712 96.83 215.937712 98.39 213.227712 99.95 215.197712 120.89 215.197712 120.89zM131.557712 134.06C131.557712 134.06 96.1977116 139.29 102.457712 77.44 102.457712 77.44 154.527712 90.77 144.207712 126.35 144.207712 126.35 127.147712 110.17 125.107712 112.49 123.067712 114.81 131.557712 134.06 131.557712 134.06zM109.627712 225.73C109.627712 225.73 74.2777116 230.93 80.5377116 169.1 80.5377116 169.1 132.607712 182.43 122.287712 218.01 122.287712 218.01 105.227712 201.83 103.187712 204.15 101.147712 206.47 109.627712 225.73 109.627712 225.73zM72.2077116 253.57C72.2077116 253.57 41.7177116 272.18 23.2977116 212.83 23.2977116 212.83 76.4277116 204.73 80.8477116 241.52 80.8477116 241.52 58.8477116 233.3 57.8477116 236.23 56.8477116 239.16 72.2077116 253.57 72.2077116 253.57zM358.657712 225.09C358.657712 225.09 331.147712 202.28 381.307712 165.6 381.307712 165.6 406.207712 213.22 372.857712 229.34 372.857712 229.34 373.477712 205.83 370.387712 205.87 367.297712 205.91 358.657712 225.09 358.657712 225.09z"/>
      <path fill="#6F5D5E" fill-rule="nonzero" d="M163.557712,563.79 C163.557712,563.79 229.057712,561.03 235.957712,432.79 C242.857712,304.55 174.587712,282.79 174.587712,282.79 C174.587712,282.79 152.957712,270.71 143.367712,270.21 C133.777712,269.71 101.727712,272.73 101.727712,272.73 L137.067712,265.92 C137.067712,265.92 87.3477116,246.99 72.4577116,245.47 L126.207712,256.83 C126.207712,256.83 126.967712,227.05 114.097712,217.21 C114.097712,217.21 125.097712,216.39 130.917712,237.84 C134.2731,250.389152 143.376852,260.605833 155.457712,265.38 C175.397712,273.16 202.957712,285.43 209.237712,295.95 C209.237712,295.95 220.847712,308.06 219.087712,276.52 C217.327712,244.98 208.987712,217.96 205.957712,217.2 C205.957712,217.2 182.237712,191.97 148.957712,190.46 C148.957712,190.46 168.387712,182.63 201.197712,207.11 C201.197712,207.11 203.967712,194.75 191.607712,180.11 C179.247712,165.47 160.057712,134.68 139.107712,131.4 C139.107712,131.4 168.387712,129.63 191.607712,167.49 C191.607712,167.49 200.187712,173.04 200.947712,158.91 C201.707712,144.78 206.747712,127.11 206.747712,127.11 C206.747712,127.11 213.817712,159.67 198.927712,174.3 C198.927712,174.3 227.437712,211.4 226.177712,253.05 C226.177712,253.05 235.017712,271.97 238.297712,249.76 C238.297712,249.76 240.197712,219.18 243.987712,193.23 C247.092628,172.095839 241.255271,150.623353 227.877712,133.97 C221.567712,126.12 217.177712,118.49 219.617712,114.49 L252.677712,153.86 C252.677712,153.86 280.437712,89.51 300.677712,75.63 C320.917712,61.75 323.397712,58.72 323.397712,58.72 L290.837712,96.83 L331.727712,82.44 L290.717712,101.39 C290.717712,101.39 271.787712,116.78 260.937712,158.93 C250.087712,201.08 249.077712,227.29 249.077712,227.29 C249.077712,227.29 307.377712,181.11 318.477712,182.62 L280.747712,211.19 C259.989434,226.893042 247.054991,250.821397 245.287712,276.79 L245.287712,276.79 C245.287712,276.79 318.227712,258.11 335.897712,254.58 L369.207712,220.51 L343.967712,252.81 L395.967712,252.06 L425.747712,230.86 C425.747712,230.86 402.277712,250.54 404.547712,251.8 C406.817712,253.06 441.147712,254.58 441.147712,254.58 C441.147712,254.58 353.817712,254.07 344.227712,260.38 C334.637712,266.69 313.227712,268.96 313.227712,268.96 L375.057712,278.3 L301.367712,273 C301.367712,273 245.557712,283.1 242.557712,300.51 C242.557712,300.51 253.917712,330.15 261.487712,341.9 C267.767712,351.67 280.407712,383.29 282.937712,411.05 C285.467712,438.81 288.937712,481.46 279.397712,507.46 C269.857712,533.46 266.277712,548.34 271.077712,556.17 C275.877712,564 280.407712,574.09 264.767712,576.1 C249.127712,578.11 180.467712,575.1 180.467712,575.1 C180.467712,575.1 159.477712,579.23 163.557712,563.79 Z"/>
      <path fill="#000" fill-rule="nonzero" d="M200.207712 550.02C207.072888 546.546364 214.936037 545.580715 222.437712 547.29 235.297712 550.07 254.977712 548.59 256.777712 548.29M241.317712 398.89C241.317712 398.89 244.447712 448.22 238.887712 457.95L241.317712 398.89zM252.857712 457.95C252.857712 457.95 248.857712 504.16 246.077712 513.19 243.297712 522.22 252.857712 457.95 252.857712 457.95zM256.777712 344.35C259.607712 345.35 271.777712 370.06 269.337712 377.35 266.897712 384.64 256.777712 344.35 256.777712 344.35zM225.937712 318.74C227.257712 319.34 232.937712 333.55 231.787712 337.74 230.637712 341.93 225.937712 318.74 225.937712 318.74zM278.557712 401.59C277.157712 415.91 276.397712 425.29 277.287712 436.76 278.041724 445.667442 277.91444 454.62757 276.907712 463.51M126.337712 234.78C127.929504 236.860503 128.76538 239.421036 128.707712 242.04 128.787712 244.64 128.457712 247.24 128.627712 249.83 128.797712 252.42 130.097712 255.76 132.807712 256.13M172.937712 149.37C176.390446 152.803897 179.455497 156.606707 182.077712 160.71 182.837294 162.00965 183.703611 163.243901 184.667712 164.4 186.22712 165.892471 187.898688 167.263157 189.667712 168.5 193.612239 171.703662 196.417879 176.094489 197.667712 181.02M304.867712 75.63C304.035398 77.2430789 302.940441 78.7064007 301.627712 79.96 300.487712 81.05 299.177712 81.96 298.147712 83.16 297.319536 84.1988967 296.570753 85.2986716 295.907712 86.45 293.129869 90.6528113 290.00209 94.6135491 286.557712 98.29M243.767712 148.64C245.947712 150 246.517712 152.91 246.467712 155.47 246.417712 158.03 245.977712 160.7 246.937712 163.08 247.367712 164.17 248.067712 165.08 248.527712 166.2 249.185176 168.103442 249.43724 170.123358 249.267712 172.13 249.267712 174.45 249.201045 176.783333 249.067712 179.13 248.947712 181.92 248.677712 184.96 246.777712 187.01" opacity=".1"/>
      <path d="M262.057712,221.04 C260.022364,222.114891 258.119481,223.423753 256.387712,224.94 C254.648286,226.472305 253.487014,228.55483 253.097712,230.84 C252.977712,231.84 253.037712,232.84 252.827712,233.77 C252.445181,235.079622 251.783318,236.290763 250.887712,237.32 C249.422707,239.195183 247.825287,240.963038 246.107712,242.61"/>
      <path fill="#000" fill-rule="nonzero" d="M245.557712 286.94C246.991194 285.761038 248.515981 284.6977 250.117712 283.76 251.585699 282.867187 253.166334 282.174399 254.817712 281.7 257.327712 281.03 259.977712 281.13 262.567712 280.86 265.157712 280.59 267.867712 279.86 269.637712 277.96M348.187712 255.05C345.117712 255.14 341.927712 255.25 339.187712 256.65 337.797712 257.37 336.587712 258.4 335.187712 259.16 333.414564 260.140131 331.423692 260.659339 329.397712 260.67M305.617712 267.72C306.37738 267.314757 307.319867 267.537526 307.817712 268.24 308.367712 268.86 308.667712 269.68 309.237712 270.29 310.357712 271.51 312.237712 271.64 313.837712 271.7M288.057712 202.5L285.057712 204.04C281.991285 205.521679 279.077371 207.300171 276.357712 209.35M254.337712 231.35C252.397712 230.89 250.727712 232.96 250.337712 234.92 249.947712 236.88 250.397712 238.92 249.837712 240.87 249.233228 242.536597 248.234883 244.032399 246.927712 245.23M221.557712 234.95C219.787712 240.22 223.557712 245.95 222.437712 251.42 222.107712 253.08 221.337712 254.63 220.947712 256.27 219.947712 260.61 221.677712 265.22 224.517712 268.66" opacity=".1"/>
    </g>
    <ellipse cx="442.78" cy="593.57" fill="#FFDED1" fill-opacity=".8" fill-rule="nonzero" opacity=".1" rx="22.99" ry="2.57"/>
    <g fill-rule="nonzero" transform="translate(65.086 302)">
      <path fill="#2F2E41" d="M85.7344935,0.00532850757 C85.7344935,0.00532850757 60.8837594,-0.989921907 60.2121193,24.223138 C59.5404792,49.4361978 60.2121193,71 60.2121193,71 L109.913613,71 L109.913613,25.5501632 C109.913613,25.5501632 108.906127,1.6640792 85.7344935,0.00532850757 Z"/>
      <path fill="#CF9595" d="M76.1690637,44.6973074 C76.1690637,44.6973074 77.6562899,61.0700389 72.6988441,62.5146957 C67.7413983,63.9593524 74.6818123,84.666042 74.6818123,84.666042 L94.5115263,89 L105.913613,66.8486537 L100.956205,60.5884887 C100.956205,60.5884887 92.5285769,49.5128156 96.4945197,41.8079816 C100.460462,34.1031477 76.1690637,44.6973074 76.1690637,44.6973074 Z"/>
      <path fill="#000" d="M76.1690637,44.6973074 C76.1690637,44.6973074 77.6562899,61.0700389 72.6988441,62.5146957 C67.7413983,63.9593524 74.6818123,84.666042 74.6818123,84.666042 L94.5115263,89 L105.913613,66.8486537 L100.956205,60.5884887 C100.956205,60.5884887 92.5285769,49.5128156 96.4945197,41.8079816 C100.460462,34.1031477 76.1690637,44.6973074 76.1690637,44.6973074 Z" opacity=".1"/>
      <circle cx="83.414" cy="33.5" r="18.5" fill="#CF9595"/>
      <path fill="#CF9595" d="M24.7488277,92.5209424 C24.7488277,92.5209424 13.1144024,101.252652 16.5077772,108.043973 C19.901152,114.835294 30.0812703,138.119846 30.0812703,138.119846 C30.0812703,138.119846 32.0203442,156.068353 40.2613947,155.098165 C48.5024451,154.127977 40.2613947,136.179452 40.2613947,136.179452 L30.0812703,108.529073 L33.4746636,103.193027 L24.7488277,92.5209424 Z" transform="rotate(-36 29.906 123.829)"/>
      <path fill="#CF9595" d="M166.092917,102 C166.092917,102 179.23469,112.141369 171.446972,116.004747 C163.659253,119.868125 130.561445,138.219172 130.561445,138.219172 C130.561445,138.219172 110.605416,153.189763 108.171752,141.599647 C105.738087,130.009532 121.313531,130.492435 121.313531,130.492435 C121.313531,130.492435 152.464406,111.658448 153.924601,107.795088 C155.384796,103.931729 166.092917,102 166.092917,102 Z"/>
      <path fill="#575A89" d="M50.799235,168.709091 C50.799235,168.709091 44.5397046,202.837517 47.9102205,222.06477 C49.8944675,234.033208 49.5675953,246.27005 46.9472177,258.115908 L65.7258212,260.038632 C65.7258212,260.038632 77.7633563,188.897724 84.5044248,189.378405 C91.2454933,189.859086 105.690523,261 105.690523,261 L125.913613,258.115908 C125.913613,258.115908 119.654082,226.390905 122.543078,216.777273 C125.432074,207.16364 123.506081,172.554545 116.283554,168.709091 C109.061027,164.863637 50.799235,168.709091 50.799235,168.709091 Z"/>
      <path fill="#2F2E41" d="M67.9136126 256.902001C67.9136126 256.902001 45.840753 249.613933 43.8787176 254.958513 41.9166821 260.303093 42.4071957 320.065255 42.897703 323.952255 43.3882103 327.839255 44.8597321 325.895737 43.3882103 327.839224 41.9166884 329.782712 41.9166884 325.409866 42.4071957 330.754447 42.897703 336.099027 43.3882165 337.070743 43.3882165 337.070743 43.3882165 337.070743 34.5590726 357.47733 50.2553311 356.991459 65.9515896 356.505589 58.5939677 341.929453 58.5939677 341.929453 58.5939677 341.929453 61.0465104 337.556613 59.5749823 335.127261 58.1034541 332.69791 57.6129531 328.810934 59.5749823 326.867447 61.5370115 324.923959 57.6129531 321.036996 57.1224458 319.579378 56.6319385 318.121761 55.1604103 318.607638 59.084475 313.748928 63.0085396 308.890218 61.0465104 306.46086 60.5560031 305.003249 60.0654958 303.545637 63.9895791 294.799952 63.9895791 294.799952L67.9136126 256.902001zM104.913613 256.902C104.913613 256.902 126.986468 249.613934 128.948503 254.958512 130.910537 260.303091 130.420024 320.065235 129.929517 323.952234 129.43901 327.839233 127.967482 325.895715 129.43901 327.839202 130.910537 329.782689 130.910531 325.409845 130.420024 330.754424 129.929517 336.099002 129.43901 337.070749 129.43901 337.070749 129.43901 337.070749 138.26815 357.47733 122.571898 356.991459 106.875647 356.505589 114.233266 341.929457 114.233266 341.929457 114.233266 341.929457 111.780724 337.556619 113.252245 335.127268 114.723766 332.697917 115.21428 328.810943 113.252245 326.867455 111.290211 324.923968 115.21428 321.037006 115.704787 319.57939 116.195294 318.121773 117.666821 318.607649 113.742759 313.748941 109.818696 308.890232 111.780724 306.460875 112.271231 305.003264 112.761738 303.545653 108.837657 294.799971 108.837657 294.799971L104.913613 256.902z"/>
      <path fill="#33CCAB" d="M84.127356,78.236097 C84.127356,78.236097 80.7238844,68.0783602 78.77907,66.1435752 C76.8342556,64.2087901 75.5723526,59.2019933 75.5723526,59.2019933 C75.5723526,59.2019933 64.6790575,63.2413638 61.7618112,64.2087655 C58.8445649,65.1761673 49.1204126,65.1761673 49.1204126,66.627276 L49.1204126,97.584181 C49.1204126,97.584181 48.1479992,103.872305 50.0928321,119.834458 C52.0376651,135.796611 57.8721515,145.470647 51.0652455,152.242472 C44.2583395,159.014296 50.0928321,175.460151 53.4962851,178.362362 C56.8997381,181.264573 123.023953,196.259319 123.51016,160.9491 C123.51016,160.9491 107.465314,132.8944 114.27222,123.704071 C121.079126,114.513742 126.913613,99.0352837 126.913613,99.0352837 L126.913613,68.0783787 C126.913613,68.0783787 116.217047,64.692448 112.813594,64.2087655 C109.410141,63.7250831 101.144615,54.5347358 100.172201,55.0184367 C99.199788,55.5021375 97.3206469,55 97.3206469,55 L97.2549551,61.7902612 L84.127356,78.236097 Z"/>
      <path fill="#33CCAB" d="M54.9136126 68.4210468L48.1302199 66C48.1302199 66 39.8932457 70.3578904 39.8932457 71.3263091 39.8932457 72.2947278 35.0479678 76.6526244 32.6253258 78.5894618 30.2026838 80.5262993 23.4192973 81.0105148 23.4192973 81.978952 23.4192973 82.9473891 2.10006483 98.4420948 4.03817966 100.863166 5.9762945 103.284238 12.2751539 112 15.6668502 112 19.0585466 112 27.2955392 103.28417 28.7491146 102.799985 30.2026899 102.3158 45.2230692 93.1157796 50.068347 94.5684077 54.9136126 96.0210357 54.9136126 68.4210468 54.9136126 68.4210468zM116.922168 69.9411476L126.065562 68C126.065562 68 143.389895 81.1027292 143.871125 81.5880146 144.352356 82.0733 171.301295 99.5436035 169.857621 102.940601 168.413948 106.337599 153.014519 111.190471 149.164668 109.734608 145.314817 108.278746 128.952952 96.1465999 122.696942 97.6024745 116.440931 99.058349 116.922168 69.9411476 116.922168 69.9411476z"/>
      <path fill="#2F2E41" d="M103.359418,28.1872865 C105.665851,18.6841156 104.722719,16.159826 104.722719,16.159826 L75.1976312,9 L64.9136126,18.7633825 L64.9136126,28.8522353 L65.9516514,32 C65.9516514,32 70.2214898,28.8522353 68.5627801,24.2959781 C68.5627492,24.2960265 101.700671,35.0216725 103.359418,28.1872865 Z"/>
      <path fill="#2F2E41" d="M102.432362,21.8168087 L99.9136126,24.7919601 C103.886149,24.8450374 98.5950241,60.1295586 100.351112,65.8351377 L106.913613,66 L106.913613,19 L102.432362,21.8168087 Z"/>
      <ellipse cx="65.414" cy="31.5" fill="#CF9595" rx="1.5" ry="3.5"/>
      <ellipse cx="101.414" cy="31.5" fill="#CF9595" rx="1.5" ry="3.5"/>
    </g>
  </g>
</svg>
