<svg xmlns="http://www.w3.org/2000/svg" viewBox="0 0 156 150"><g fill="none"><path fill="#000" fill-opacity=".1" d="M124.962 140c0 5.524-20.812 10-46.48 10C52.812 150 32 145.524 32 140s20.812-10 46.482-10c25.668 0 46.48 4.476 46.48 10"/><path fill="#294FA3" d="M36.558 93.048c-2.856 5.572-4.042 10.838-4.476 17.084-.436 6.246.852 12.71 4.268 17.958 4.256 6.544 11.472 10.716 18.99 12.83 7.426 2.088 15.22 2.378 22.934 2.606 7.712-.228 15.506-.518 22.932-2.606 7.518-2.114 14.734-6.286 18.992-12.83 3.416-5.248 4.704-11.712 4.268-17.958-.436-6.246-2.96-13.03-5.812-18.604C112.608 79.728 96.084 74 79.232 74c-17.934.002-36.24 6.488-42.674 19.048"/><path fill="#000" d="M94 82c22.54 26.762 25.36 52-18.43 58.49-7.318 1-10.2 1.502-8.646 1.51H82.61C136 140.49 124.548 98.874 110 82H94z" opacity=".05"/><path fill="#2DB799" d="M119.242 21.576c-5.322 1.518-10.926 2.062-16.074 4.092-5.15 2.03-10.016 6.042-10.946 11.5l-1.496 3.426 8.694 20.05h8.648l13.312-3.274c5.656-5.51 7.758-13.712 8.536-21.57.782-7.858.506-15.88 2.498-23.52-2.47 4.952-7.848 7.778-13.172 9.296"/><path fill="#29A389" d="M130.466 19.014c-14.64 33.062-32.65 47.42-54.01 42.898a.5.5 0 0 1 .208-.98c20.796 4.408 38.416-9.64 52.888-42.32a.5.5 0 0 1 .914.404v-.002z"/><path fill="#2DB799" d="M23.744 35.8c.78 7.858 2.882 16.06 8.536 21.57l13.312 3.274h8.648l8.694-20.05-1.494-3.426c-.932-5.458-5.798-9.47-10.948-11.5-5.148-2.03-10.752-2.574-16.074-4.092-5.322-1.518-10.702-4.344-13.172-9.296 1.994 7.64 1.716 15.662 2.498 23.52"/><path fill="#29A389" d="M23.534 19.014c14.64 33.062 32.65 47.42 54.01 42.898a.5.5 0 0 0-.208-.98c-20.796 4.408-38.416-9.64-52.888-42.32a.5.5 0 0 0-.914.404v-.002z"/><path fill="#30C1A2" d="M42.688 42.818c-.822 13.026 16.01 28.2 16.01 28.2 13.092-9.848 12.556-32.89 12.556-32.89.912-5.376-.67-7.104-3.266-11.396-2.596-4.288-5.97-7.77-8.826-11.806C56.31 10.89 53.908 6.008 53.846.57c-5.19 13.65-10.222 27.446-11.158 42.248"/><path fill="#29A389" d="M53.3 4.264c-.072 36.16 10.54 56.6 31.894 61.156a.5.5 0 0 0 .208-.978c-20.79-4.434-31.174-24.436-31.1-60.174a.5.5 0 0 0-1-.004H53.3z"/><path fill="#30C1A2" d="M15.404 73.424c5.426 8.162 14.184 13.734 23.584 15.918 9.4 2.188 19.738.756 28.818-2.558L54.392 59.458c-4.984-2.79-10.808-2.546-16.592-2.304-1.792.074-3.576.15-5.334.134C20.612 57.188 0 44.44 0 44.44s9.544 20.164 15.404 28.984"/><path fill="#29A389" d="M1.628 46.774c24.14 26.92 45.706 35.01 64.62 24.108a.5.5 0 1 0-.498-.868c-18.418 10.616-39.518 2.7-63.378-23.908a.5.5 0 1 0-.744.668z"/><path fill="#30C1A2" d="M123.048 57.288c-1.758.016-3.544-.06-5.334-.134-5.784-.242-11.61-.486-16.59 2.304L87.708 86.784c9.08 3.314 19.42 4.746 28.818 2.558 9.4-2.184 18.16-7.756 23.586-15.918 5.858-8.82 15.404-28.984 15.404-28.984s-20.612 12.748-32.468 12.848"/><path fill="#29A389" d="M154.372 46.774c-24.14 26.92-45.706 35.01-64.62 24.108a.5.5 0 1 1 .498-.868c18.418 10.616 39.518 2.7 63.378-23.908a.5.5 0 1 1 .744.668z"/><g><path fill="#30C1A2" d="M95.068 14.354c-2.854 4.038-6.23 7.52-8.824 11.81-2.596 4.29-4.18 6.018-3.268 11.394 0 0-.536 23.044 12.556 32.89 0 0 16.834-15.172 16.01-28.2C110.606 27.446 105.576 13.65 100.38 0c-.06 5.438-2.46 10.32-5.314 14.354"/><path fill="#29A389" d="M101.212 5.596c.634 35.66-9.484 55.664-30.412 59.826a.5.5 0 0 1-.196-.98c20.346-4.048 30.234-23.596 29.608-58.83a.5.5 0 0 1 1-.016z"/></g><g><path fill="#33CCAB" d="M70.948 10.236c-.382 4.56-1.056 8.216-2.812 12.396-2.826 6.73-7.722 12.406-10.794 19.028-4.808 10.362-4.732 22.87.2 33.172 2.194 4.586 5.37 8.798 9.614 11.592 4.246 2.798 13.008 2.892 13.294 2.868 5.126-.422 11.384-4.284 14.236-8.686 2.918-4.502 5.634-9.288 6.58-14.57 1.952-10.868-3.894-21.612-10.768-30.256-6.872-8.644-19.17-32.386-19.17-32.386s-.368 6.706-.38 6.842"/><path fill="#29A389" d="M71.8 8.396c10.202 37.51 12.008 63.414 5.464 77.66a.5.5 0 1 0 .908.418c6.672-14.524 4.854-40.62-5.408-78.34a.5.5 0 1 0-.966.262h.002z"/></g></g></svg>
