<svg xmlns="http://www.w3.org/2000/svg" width="1060" height="638" viewBox="0 0 1060 638">
  <g fill="none" fill-rule="evenodd" transform="translate(-59.876)">
    <path fill="#FFBCA3" fill-rule="nonzero" d="M1119.87642,636.5443 C1119.87642,568.21881 700.393846,537.57272 632.879753,540.14965 C565.365659,542.72658 145.876425,564.643653 145.876425,636.5443 C145.876425,637.569625 1119.87642,636.5443 1119.87642,636.5443 Z" opacity=".5"/>
    <path fill="#33CCAB" fill-rule="nonzero" d="M327.348751,550.697286 C341.749323,603.992754 391.074555,637 391.074555,637 C391.074555,637 417.051818,583.598181 402.651246,530.302692 C388.250675,477.007203 338.925463,444 338.925463,444 C338.925463,444 312.94818,497.401711 327.348751,550.697286 Z"/>
    <path fill="#B9EFE9" fill-rule="nonzero" d="M347.998302,538.910752 C387.210506,577.570675 392,637 392,637 C392,637 333.213923,633.749171 294.001698,595.089248 C254.789473,556.429325 250,497 250,497 C250,497 308.786077,500.250742 347.998302,538.910752 Z"/>
    <g transform="scale(-1 1) rotate(11 -626.853 -937.133)">
      <path stroke="#535461" d="M98.4618633,523 C98.4618633,523 137.913072,388.357438 91.0906759,289.137368 C71.4341762,247.517486 64.9843873,200.812961 73.9987352,155.653919 C78.3444183,134.235792 84.6310918,113.263472 92.7799064,93"/>
      <path fill="#F5DD48" fill-rule="nonzero" d="M63.0155119 29.802623C63.0155119 46.2603279 93.0155119 94 93.0155119 94 93.0155119 94 123 46.2295082 123 29.802623 123 13.3430888 109.568542 0 93 0 76.4314575 0 63 13.3430888 63 29.802623L63.0155119 29.802623zM14.3827692 121.360035C23.2916198 135.209573 74 159 74 159 74 159 73.079981 102.801655 64.1711304 89.0136714 55.1072305 75.6549204 37.0764889 71.9971981 23.5540299 80.7740727 10.0315709 89.5509472 5.96026529 107.554204 14.3827692 121.329258L14.3827692 121.360035zM16.359493 277.942774C31.0384396 285.429891 87 280.262068 87 280.262068 87 280.262068 57.7652008 231.665857 43.1631879 224.225438 33.6696073 219.38172 22.3427994 220.029624 13.4494631 225.925089 4.55612675 231.820555-.552628634 242.067922.047615633 252.807106.6478599 263.54629 6.86591243 273.145753 16.359493 277.989471L16.359493 277.942774zM44.1687564 395.786983C57.4987649 405.575775 114 410 114 410 114 410 93.2058075 357.587574 79.8602809 347.845029 66.5333328 338.054272 47.7398868 340.849468 37.8839444 354.088274 28.0280021 367.327079 30.8418082 385.996227 44.1687564 395.786983zM136.898807 162.515937C125.080429 174.048704 70 186 70 186 70 186 83.4846764 131.033341 95.3030542 119.500573 107.125985 107.943245 126.035705 108.203497 137.539097 120.081862 149.042489 131.960226 148.783452 150.958609 136.960521 162.515937L136.898807 162.515937zM168.640507 300.942774C153.96156 308.429891 98 303.262068 98 303.262068 98 303.262068 127.234799 254.665857 141.836812 247.225438 151.330392 242.38172 162.6572 243.029623 171.550537 248.925089 180.443873 254.820555 185.552629 265.067922 184.952384 275.807106 184.35214 286.54629 178.134087 296.145753 168.640507 300.989471L168.640507 300.942774zM180.831244 438.786983C167.501236 448.575775 111 453 111 453 111 453 131.794193 400.587573 145.139719 390.845028 158.466668 381.054272 177.260113 383.849469 187.116056 397.088274 196.971998 410.327079 194.158192 428.996227 180.831244 438.786983z"/>
    </g>
    <g transform="rotate(15 21.289 3153.247)">
      <path stroke="#535461" d="M98.4618633,523 C98.4618633,523 137.913072,388.357438 91.0906759,289.137368 C71.4341762,247.517486 64.9843873,200.812961 73.9987352,155.653919 C78.3444183,134.235792 84.6310918,113.263472 92.7799064,93"/>
      <path fill="#F5DD48" fill-rule="nonzero" d="M63.0155119 29.802623C63.0155119 46.2603279 93.0155119 94 93.0155119 94 93.0155119 94 123 46.2295082 123 29.802623 123 13.3430888 109.568542 0 93 0 76.4314575 0 63 13.3430888 63 29.802623L63.0155119 29.802623zM14.3827692 121.360035C23.2916198 135.209573 74 159 74 159 74 159 73.079981 102.801655 64.1711304 89.0136714 55.1072305 75.6549204 37.0764889 71.9971981 23.5540299 80.7740727 10.0315709 89.5509472 5.96026529 107.554204 14.3827692 121.329258L14.3827692 121.360035zM16.359493 277.942774C31.0384396 285.429891 87 280.262068 87 280.262068 87 280.262068 57.7652008 231.665857 43.1631879 224.225438 33.6696073 219.38172 22.3427994 220.029624 13.4494631 225.925089 4.55612675 231.820555-.552628634 242.067922.047615633 252.807106.6478599 263.54629 6.86591243 273.145753 16.359493 277.989471L16.359493 277.942774zM44.1687564 395.786983C57.4987649 405.575775 114 410 114 410 114 410 93.2058075 357.587574 79.8602809 347.845029 66.5333328 338.054272 47.7398868 340.849468 37.8839444 354.088274 28.0280021 367.327079 30.8418082 385.996227 44.1687564 395.786983zM136.898807 162.515937C125.080429 174.048704 70 186 70 186 70 186 83.4846764 131.033341 95.3030542 119.500573 107.125985 107.943245 126.035705 108.203497 137.539097 120.081862 149.042489 131.960226 148.783452 150.958609 136.960521 162.515937L136.898807 162.515937zM168.640507 300.942774C153.96156 308.429891 98 303.262068 98 303.262068 98 303.262068 127.234799 254.665857 141.836812 247.225438 151.330392 242.38172 162.6572 243.029623 171.550537 248.925089 180.443873 254.820555 185.552629 265.067922 184.952384 275.807106 184.35214 286.54629 178.134087 296.145753 168.640507 300.989471L168.640507 300.942774zM180.831244 438.786983C167.501236 448.575775 111 453 111 453 111 453 131.794193 400.587573 145.139719 390.845028 158.466668 381.054272 177.260113 383.849469 187.116056 397.088274 196.971998 410.327079 194.158192 428.996227 180.831244 438.786983z"/>
    </g>
    <g transform="translate(914.876 410)">
      <path fill="#B9EFE9" fill-rule="nonzero" d="M54.4985469,225.39 C51.2685469,224.67 -89.5014531,189.24 94.5785469,-5.68434189e-14 C94.5785469,-5.68434189e-14 175.278547,76.49 145.678547,171.57 C133.778547,209.8 95.4785469,233.4 56.6785469,225.84 L54.4985469,225.39 Z"/>
      <path stroke="#535461" d="M56.4285469,226.48 C56.4285469,226.48 134.148547,109.39 94.5785469,-2.13162821e-13"/>
    </g>
    <path fill="#2F2E41" fill-rule="nonzero" d="M513.566425,27.9123494 C502.959389,33.1295661 493.276425,58.22 491.276425,63.2 C489.126425,68.49 483.546425,72.2 479.276425,76.47 C470.836425,84.89 467.086425,96.47 469.276425,107.27 C470.786425,114.74 474.916425,121.64 477.366425,128.93 C480.366425,137.85 480.786425,147.2 481.206425,156.45 C481.986425,173.82 482.756425,191.36 478.846425,208.45 C477.846425,212.74 475.146425,277.97 469.916425,277.840388 C483.796425,276.65 497.756425,276.52 511.706425,276.38 L720.706425,274.38 C711.076425,261.78 704.926425,187.32 702.886425,172.47 C699.366425,146.87 707.886425,121.24 708.886425,95.47 C709.026425,92.15 709.026425,88.74 707.656425,85.62 C706.216425,82.35 703.336425,79.56 702.376425,76.17 C700.996425,71.32 703.766425,66.35 703.856425,61.37 C704.036425,51.37 693.856425,43.7 685.786425,36.29 C678.006425,29.16 671.536425,21.06 663.506425,14.11 C655.476425,7.16 645.386425,1.27 633.906425,0.2 C624.476425,-0.67 615.106425,1.78 606.076425,4.2 C595.306425,7.08 585.076425,10.72 573.646425,10.54 C561.036425,10.32 533.621685,8.69807889 513.566425,27.9123494 Z"/>
    <path fill="#000" fill-rule="nonzero" d="M204.14 3.38C204.430953 4.47394252 204.854069 5.52837359 205.4 6.52 205.265298 4.26990269 204.719629 2.06350238 203.79.01 203.746698 1.14423293 203.864539 2.27887296 204.14 3.38L204.14 3.38zM1.45 163.95L.29 164.05C.679128153 164.058183 1.06801339 164.024659 1.45 163.95L1.45 163.95z" opacity=".1" transform="translate(485.876 41.78)"/>
    <path fill="#FBBEBE" fill-rule="nonzero" d="M704.356425 566.09C703.08131 567.078268 701.559317 567.697443 699.956425 567.88 674.386425 573.13 648.586425 577.61 622.516425 579.03 599.516425 580.29 576.446425 579.16 553.436425 578.03 530.426425 576.9 507.436425 575.76 484.976425 571.11 494.282339 552.371792 500.142284 532.112639 502.276425 511.3 503.221139 502.16522 503.451838 492.970663 502.966425 483.8 502.89233 482.69694 502.758803 481.598679 502.566425 480.51 501.496425 473.93 498.856425 464.4 501.256425 459.64 504.336425 453.52 516.166425 453.32 521.946425 452.18 531.766425 450.25 541.636425 448.64 551.546425 447.29 590.876425 441.94 630.606425 440.72 670.236425 439.53 675.556425 439.37 681.896425 439.73 684.666425 444.28 686.216425 446.83 686.136425 450.01 686.056425 453 685.876425 459.473333 685.939758 465.946667 686.246425 472.42 687.636497 501.12362 693.779936 529.397634 704.426425 556.09 705.746425 559.36 706.956425 563.64 704.356425 566.09zM548.756425 209.98C544.576425 215.13 538.686425 218.59 532.756425 221.63 525.672698 225.289619 518.376324 228.522063 510.906425 231.31 509.396425 233.6 510.596425 236.64 511.906425 239.08 523.636425 261.86 539.336425 284.5 563.016425 294.29 575.166425 299.29 588.496425 300.54 601.596425 301.71 605.676425 302.07 609.836425 302.43 613.816425 301.45 617.796425 300.47 621.496425 298.1 624.816425 295.59 646.512312 279.172192 660.799545 254.809799 664.536425 227.86 664.856425 225.47 664.856425 222.54 662.806425 221.26 661.556425 220.49 659.966425 220.64 658.496425 220.65 648.906425 220.75 640.406425 213.65 635.976425 205.16 631.546425 196.67 630.366425 186.88 629.276425 177.35 629.276425 177.14 572.896425 175.95 567.806425 175.91 559.866425 175.84 557.246425 176.77 556.476425 184.91 555.666425 193.89 554.666425 202.66 548.756425 209.98z"/>
    <path fill="#000" fill-rule="nonzero" d="M548.756425,209.98 C544.576425,215.13 538.686425,218.59 532.756425,221.63 C525.672698,225.289619 518.376324,228.522063 510.906425,231.31 C509.396425,233.6 510.596425,236.64 511.906425,239.08 C523.636425,261.86 539.336425,284.5 563.016425,294.29 C575.166425,299.29 588.496425,300.54 601.596425,301.71 C605.676425,302.07 609.836425,302.43 613.816425,301.45 C617.796425,300.47 621.496425,298.1 624.816425,295.59 C646.512312,279.172192 660.799545,254.809799 664.536425,227.86 C664.856425,225.47 664.856425,222.54 662.806425,221.26 C661.556425,220.49 659.966425,220.64 658.496425,220.65 C648.906425,220.75 640.406425,213.65 635.976425,205.16 C631.546425,196.67 630.366425,186.88 629.276425,177.35 C629.276425,177.14 572.896425,175.95 567.806425,175.91 C559.866425,175.84 557.246425,176.77 556.476425,184.91 C555.666425,193.89 554.666425,202.66 548.756425,209.98 Z" opacity=".1"/>
    <circle cx="593.566" cy="122.33" r="77" fill="#FBBEBE" fill-rule="nonzero"/>
    <path fill="#2F2E41" fill-rule="nonzero" d="M738.296425,637.12 C738.296425,637.12 451.876425,637.12 451.876425,637.12 C457.292277,620.998453 464.756699,599.739422 474.086425,585.52 C475.579173,583.508052 476.746727,581.274177 477.546425,578.9 C477.986073,576.690241 478.210456,574.443063 478.216425,572.19 C478.703058,565.289267 481.379613,558.724 485.856425,553.45 C487.936425,554.583333 490.036425,555.673333 492.156425,556.72 C516.175032,568.650425 542.33188,575.670686 569.096425,577.37 C583.175387,578.091711 597.287907,577.807656 611.326425,576.52 C642.986425,573.97 675.906425,568.09 701.406425,549.42 C702.476425,548.64 703.536425,547.83 704.586425,547 C716.976425,558 724.146425,574.86 729.276425,590.62 C732.326425,599.84 735.146425,628.04 738.296425,637.12 Z"/>
    <path fill="#33CCAB" fill-rule="nonzero" d="M650.036425,213.62 C650.886425,224.42 534.816425,234.53 530.436425,221.21 C527.836425,224.28 523.066425,224.53 519.266425,223.21 C515.466425,221.89 512.266425,219.35 508.666425,217.48 C502.666425,214.35 495.906425,213.19 489.256425,212.06 C478.426425,210.23 465.846425,208.89 457.826425,216.4 C455.056425,218.99 453.166425,222.4 450.386425,225 C445.526425,229.52 438.656425,230.93 432.386425,233 C423.336425,236 414.996425,240.8 406.446425,245 C386.482605,254.829596 365.197171,261.708035 343.256425,265.42 C338.586425,266.21 333.886425,266.85 329.256425,267.96 C322.756425,269.52 316.256425,272.19 311.826425,277.2 C317.006425,283.82 324.446425,287.43 332.436425,290.04 L409.536425,315.24 C421.136425,319.03 432.916425,322.9 443.066425,329.69 C459.976425,340.97 470.976425,359.51 476.996425,378.92 C483.016425,398.33 484.270599,418.819803 486.066425,439.08 C493.815878,526.508 475.306425,573.08 471.846425,581.24 C489.805403,583.356118 519.966934,579.056789 537.846425,576.35 C555.056425,573.73 572.076425,584.87 589.486425,585.032719 C608.486425,585.22 626.896425,575.38 645.626425,578.71 C664.356425,582.04 717.026425,582.14 732.806425,571.51 C729.446425,566.98 688.397909,506.106172 696.806425,442.89 L696.406425,416.26 C696.227981,413.045877 696.442907,409.821992 697.046425,406.66 C698.386425,400.96 702.156425,396.18 704.566425,390.85 C709.216425,380.56 708.566425,368.8 708.826425,357.51 C709.086425,346.22 710.666425,334.09 718.296425,325.83 C723.296425,320.44 730.296425,317.38 737.396425,315.49 C749.536425,312.25 762.236425,312.04 774.776425,311.15 C815.659656,308.218803 855.656688,297.802627 892.776425,280.42 C890.556425,275.73 885.396425,273.07 880.686425,270.89 C869.546425,265.74 857.746425,260.46 845.526425,261.61 C839.616425,262.17 833.766425,264.23 827.876425,263.48 C822.296425,262.76 817.356425,259.6 811.936425,258.09 C807.826425,256.95 803.526425,256.78 799.306425,256.14 C789.566425,254.65 780.426425,250.64 771.416425,246.67 L748.656425,236.67 C742.656425,234.02 736.406425,231.19 732.286425,226.07 C730.946425,224.4 729.866425,222.52 728.406425,220.95 C725.896425,218.26 722.406425,216.67 718.916425,215.56 C714.531504,214.034087 709.857898,213.521255 705.246425,214.06 C702.083422,214.688322 698.961109,215.506468 695.896425,216.51 C680.856425,220.57 665.336425,216.35 650.036425,213.62 Z"/>
    <path fill="#FBBEBE" fill-rule="nonzero" d="M549.396425,229.49 C553.276425,227.37 557.466425,225.49 561.886425,225.429343 C568.526425,225.37 574.466425,229.43 579.386425,233.91 C583.934712,238.018154 588.049582,242.582041 591.666425,247.53 C593.466425,249.98 595.186425,252.67 595.456425,255.7 C595.726425,258.73 594.066425,262.14 591.106425,262.86 C589.236791,263.175367 587.316607,262.787056 585.716425,261.77 C578.876425,258.01 573.806425,249.4 566.046425,250.24 C560.726425,250.81 557.126425,255.76 554.216425,260.24 C551.626425,264.24 549.006425,268.35 547.846425,272.97 C546.686425,277.59 547.246425,282.97 550.466425,286.45 C552.966425,289.18 556.616425,290.45 560.026425,291.87 C567.568902,294.991681 574.473552,299.472755 580.396425,305.09 C583.266425,307.83 585.996425,311.09 586.396425,315.09 C586.796425,319.09 583.766425,323.49 579.806425,323.21 C578.020891,322.930561 576.337079,322.197121 574.916425,321.08 C567.756425,316.35 560.446425,311.39 552.046425,309.65 C543.496425,307.88 534.666425,309.65 526.046425,310.97 C516.593091,312.383333 507.093091,313.39 497.546425,313.99 C494.712927,314.315007 491.844096,314.128719 489.076425,313.44 C479.636425,310.52 476.886425,298.51 477.986425,289.83 C479.156425,280.55 485.986425,278.44 493.126425,273.83 C513.206425,260.69 528.106425,241.09 549.396425,229.49 Z"/>
    <path fill="#FBBEBE" fill-rule="nonzero" d="M623.366425,229.49 C619.476425,227.37 615.296425,225.49 610.866425,225.429343 C604.226425,225.37 598.286425,229.43 593.366425,233.91 C588.821625,238.018659 584.710121,242.582528 581.096425,247.53 C579.306425,249.98 577.586425,252.67 577.316425,255.7 C577.046425,258.73 578.696425,262.14 581.656425,262.86 C583.529252,263.175031 585.452436,262.786832 587.056425,261.77 C593.896425,258.01 598.966425,249.4 606.716425,250.24 C612.046425,250.81 615.646425,255.76 618.546425,260.24 C621.136425,264.24 623.766425,268.35 624.916425,272.97 C626.066425,277.59 625.516425,282.97 622.296425,286.45 C619.806425,289.18 616.146425,290.45 612.736425,291.87 C605.19167,294.993023 598.283968,299.473878 592.356425,305.09 C589.486425,307.83 586.766425,311.09 586.356425,315.09 C585.946425,319.09 588.986425,323.49 592.946425,323.21 C594.732464,322.932301 596.4167,322.198676 597.836425,321.08 C604.996425,316.35 612.306425,311.39 620.706425,309.65 C629.256425,307.88 638.086425,309.65 646.706425,310.97 C656.136425,312.45 665.646425,313.48 675.176425,314.05 C678.013246,314.374911 680.88534,314.188631 683.656425,313.5 C693.086425,310.58 695.836425,298.57 694.746425,289.89 C693.566425,280.61 686.746425,278.5 679.596425,273.89 C659.556425,260.69 644.666425,241.09 623.366425,229.49 Z"/>
    <path fill="#000" fill-rule="nonzero" d="M497.416425,268.31 C485.127814,270.763743 472.578746,271.657465 460.066425,270.97 C455.156425,270.71 450.226425,270.2 445.336425,270.66 C439.436425,271.22 433.766425,273.17 428.016425,274.59 C398.226425,281.92 367.096425,274.76 336.686425,270.74 C331.316425,270.03 325.826425,269.42 320.506425,270.46 C315.636425,271.41 311.136425,273.69 306.826425,276.14 C299.843148,280.111258 293.158757,284.586458 286.826425,289.53 C280.196425,294.71 273.506425,301.31 273.046425,309.7 C272.646425,316.92 277.046425,323.57 282.376425,328.48 C296.776425,341.81 318.156425,345.82 337.436425,342.21 C344.766425,340.84 351.916425,338.48 359.326425,337.66 C366.916425,336.82 374.586425,337.66 382.216425,337.3 C397.716425,336.61 412.556425,331.22 427.606425,327.47 C451.108494,321.618255 475.419561,319.7123 499.546425,321.83 C499.121487,322.014051 498.636515,321.998464 498.224274,321.787505 C497.812033,321.576546 497.515709,321.192315 497.416425,320.74 C495.646425,315.86 495.556425,310.55 495.586425,305.36 C495.666425,292.77 496.256425,280.85 497.416425,268.31 Z" opacity=".1"/>
    <path fill="#33CCAB" fill-rule="nonzero" d="M495.416425,269.31 C483.127814,271.763743 470.578746,272.657465 458.066425,271.97 C453.156425,271.71 448.226425,271.2 443.336425,271.66 C437.436425,272.22 431.766425,274.17 426.016425,275.59 C396.226425,282.92 365.096425,275.76 334.686425,271.74 C329.316425,271.03 323.826425,270.42 318.506425,271.46 C313.636425,272.41 309.136425,274.69 304.826425,277.14 C297.843148,281.111258 291.158757,285.586458 284.826425,290.53 C278.196425,295.71 271.506425,302.31 271.046425,310.7 C270.646425,317.92 275.046425,324.57 280.376425,329.48 C294.776425,342.81 316.156425,346.82 335.436425,343.21 C342.766425,341.84 349.916425,339.48 357.326425,338.66 C364.916425,337.82 372.586425,338.66 380.216425,338.3 C395.716425,337.61 410.556425,332.22 425.606425,328.47 C449.108494,322.618255 473.419561,320.7123 497.546425,322.83 C497.121487,323.014051 496.636515,322.998464 496.224274,322.787505 C495.812033,322.576546 495.515709,322.192315 495.416425,321.74 C493.646425,316.86 493.556425,311.55 493.586425,306.36 C493.666425,293.77 494.256425,281.85 495.416425,269.31 Z"/>
    <path fill="#000" fill-rule="nonzero" d="M677.666425,262.96 C692.906425,266.43 729.586425,267.96 745.206425,267.44 C752.336425,267.22 759.446425,266.58 766.576425,266.6 C778.796425,266.6 790.996425,268.6 803.186425,267.79 C818.936425,266.71 834.406425,260.92 850.116425,262.41 C857.836425,263.15 865.266425,265.61 872.626425,268.07 C879.986425,270.53 888.006425,273.31 893.186425,279.29 C897.986425,284.83 899.736425,292.29 901.326425,299.45 C902.216425,303.45 903.106425,307.58 902.326425,311.59 C900.836425,319.2 893.826425,324.35 887.096425,328.19 C879.096425,332.75 870.316425,336.67 861.096425,336.46 C855.626425,336.34 850.306425,334.76 845.096425,333.12 C830.166425,328.43 814.906425,323.12 799.306425,324.29 C788.396425,325.13 777.496425,329.15 766.766425,326.98 C760.456425,325.7 754.766425,322.36 748.766425,320.14 C734.146425,314.79 697.036425,316.21 681.536425,317.69 C682.436425,308.98 682.326425,300.2 683.226425,291.48 C683.926425,284.81 684.596425,277.9 682.456425,271.54 C681.116425,267.73 680.666425,265.66 677.666425,262.96 Z" opacity=".1"/>
    <path fill="#33CCAB" fill-rule="nonzero" d="M678.666425,264.96 C693.906425,268.43 730.586425,269.96 746.206425,269.44 C753.336425,269.22 760.446425,268.58 767.576425,268.6 C779.796425,268.6 791.996425,270.6 804.186425,269.79 C819.936425,268.71 835.406425,262.92 851.116425,264.41 C858.836425,265.15 866.266425,267.61 873.626425,270.07 C880.986425,272.53 889.006425,275.31 894.186425,281.29 C898.986425,286.83 900.736425,294.29 902.326425,301.45 C903.216425,305.45 904.106425,309.58 903.326425,313.59 C901.836425,321.2 894.826425,326.35 888.096425,330.19 C880.096425,334.75 871.316425,338.67 862.096425,338.46 C856.626425,338.34 851.306425,336.76 846.096425,335.12 C831.166425,330.43 815.906425,325.12 800.306425,326.29 C789.396425,327.13 778.496425,331.15 767.766425,328.98 C761.456425,327.7 755.766425,324.36 749.766425,322.14 C735.146425,316.79 698.036425,318.21 682.536425,319.69 C683.436425,310.98 683.326425,302.2 684.226425,293.48 C684.926425,286.81 685.596425,279.9 683.456425,273.54 C682.116425,269.73 681.666425,267.66 678.666425,264.96 Z"/>
    <path fill="#FBBEBE" fill-rule="nonzero" d="M519.776425 112.68C517.436425 112.07 516.536425 109.11 514.426425 107.92 512.316425 106.73 509.676425 107.67 508.156425 109.44 506.744394 111.313083 505.979306 113.59431 505.976425 115.94 505.591718 126.303735 511.753112 135.793883 521.376425 139.66 519.285479 130.557133 518.477658 121.206601 518.976425 111.88L519.776425 112.68zM667.346425 112.68C669.686425 112.07 670.576425 109.11 672.686425 107.92 674.796425 106.73 677.436425 107.67 678.956425 109.44 680.37303 111.31067 681.138648 113.593476 681.136425 115.94 681.521131 126.303735 675.359737 135.793883 665.736425 139.66 667.82737 130.557133 668.635191 121.206601 668.136425 111.88L667.346425 112.68z"/>
    <path fill="#2F2E41" d="M658.563925,47.78 C640.537464,60.1107477 626.637973,77.0286295 607.20455,87.1471875 C581.346318,100.611002 535.774994,114.155132 510.665487,89.045625 C507.570043,85.9501809 509.97473,80.1737567 518.993612,71.233125 C527.246564,63.0517785 536.971105,56.4841583 546.345175,49.6159375 C583.825511,22.1547348 601.456561,20.406682 645.524862,35.6003125" transform="rotate(13 583.973 64.583)"/>
  </g>
</svg>
