<svg xmlns="http://www.w3.org/2000/svg" width="188" height="193" viewBox="0 0 188 193">
  <g fill="none" fill-rule="evenodd">
    <path fill="#B9EFE9" fill-rule="nonzero" d="M140.848072,54.6708123 C155.89697,75.6629138 173.74937,83.91 181.299175,106.36395 C188.848979,128.817899 198.385989,166.176898 145.462626,187.416044 C119.672117,196.939071 66.7766058,193.891432 39.649544,181.242158 C5.47723555,170.393657 -1.25185448,112.946017 0.262429554,95.1180086 C1.77671359,77.29 3.15464328,66.37 20.2227243,36.8271598 C37.2908053,7.28431969 59.0873604,-3.60762146 86.178619,1.58876739 C113.269878,6.78515625 125.799175,33.6787109 140.848072,54.6708123 Z" transform="matrix(-1 0 0 1 187.3 0)"/>
    <g transform="translate(32.38 13)">
      <path fill="#000" fill-rule="nonzero" d="M51.35,111.990218 C62.6586913,116.216859 75.1074023,116.252336 86.44,112.090218 L86.44,107.780218 L51.35,107.780218 L51.35,111.990218 Z" opacity=".1"/>
      <path fill="#7A3814" fill-rule="nonzero" d="M131,32.7833078 C126.988729,9.34134731 122.740078,0.78 112.41,0.78 L24.7,0.78 C1,-0.0502175418 5.68434189e-14,44.5069407 5.68434189e-14,44.5069407 C16.193694,56.1697825 98.2200612,62.4468821 131,32.7833078 Z" transform="translate(0 125.83)"/>
      <path fill="#FFC07D" fill-rule="nonzero" d="M54.63,97.4402175 L83.02,97.4402175 C84.8701539,97.4402175 86.37,98.9400636 86.37,100.790218 L86.37,125.510218 C86.37,135.197292 78.5170745,143.050218 68.83,143.050218 L68.83,143.050218 C59.1429255,143.050218 51.29,135.197292 51.29,125.510218 L51.29,100.790218 C51.29,98.9439618 52.7837525,97.4457288 54.63,97.4402175 Z"/>
      <path fill="#000" fill-rule="nonzero" d="M51.28,98.7402175 L86.37,98.7402175 L86.37,126.810218 C86.37,136.497292 78.5170745,144.350218 68.83,144.350218 L68.83,144.350218 C59.1429255,144.350218 51.29,136.497292 51.29,126.810218 L51.29,98.7402175 L51.28,98.7402175 Z" opacity=".05"/>
      <circle cx="68.76" cy="54.76" r="54.76" fill="#34251D" fill-rule="nonzero"/>
      <path fill="#FFC07D" fill-rule="nonzero" d="M118.808678,70.7520969 C115.637386,95.474407 94.5148683,114.58 68.93,114.58 C43.3734597,114.58 22.2693936,95.5166917 19.0619219,70.8341952 C16.7693659,70.2673788 15,66.5908976 15,62.14 C15,57.2964627 17.0953074,53.37 19.68,53.37 C19.7294932,53.37 19.7788069,53.3714397 19.8279299,53.374298 C24.8133014,30.8482042 44.9040962,14 68.93,14 C92.9552458,14 113.045598,30.8472813 118.03166,53.3724472 C120.56477,53.48359 122.6,57.366405 122.6,62.14 C122.6,66.414125 120.968388,69.9741258 118.808679,70.7520908 Z"/>
      <path fill="#34251D" d="M36.6194753,17.4059339 C79.2094753,-14.0134591 118.096585,26.8965287 110.859475,50.9923568 C109.033749,43.5353291 102.812241,40.7300051 92.194949,42.5763847 C60.1912998,48.1419175 41.6661419,39.7517672 36.6194753,17.4059339 Z"/>
    </g>
  </g>
</svg>
