<svg xmlns="http://www.w3.org/2000/svg" width="188" height="193" viewBox="0 0 188 193">
  <g fill="none" fill-rule="evenodd">
    <path fill="#33CCAB" fill-rule="nonzero" d="M140.848072,54.6708123 C155.89697,75.6629138 173.74937,83.91 181.299175,106.36395 C188.848979,128.817899 198.385989,166.176898 145.462626,187.416044 C119.672117,196.939071 66.7766058,193.891432 39.649544,181.242158 C5.47723555,170.393657 -1.25185448,112.946017 0.262429554,95.1180086 C1.77671359,77.29 3.15464328,66.37 20.2227243,36.8271598 C37.2908053,7.28431969 59.0873604,-3.60762146 86.178619,1.58876739 C113.269878,6.78515625 125.799175,33.6787109 140.848072,54.6708123 Z" transform="matrix(-1 0 0 1 187.3 0)"/>
    <g transform="translate(32.38 6)">
      <path fill="#000" fill-rule="nonzero" d="M51.35,118.990218 C62.6586913,123.216859 75.1074023,123.252336 86.44,119.090218 L86.44,114.780218 L51.35,114.780218 L51.35,118.990218 Z" opacity=".1"/>
      <path fill="#B9EFE9" fill-rule="nonzero" d="M131,165.613525 C126.988729,142.171565 122.740078,133.610218 112.41,133.610218 L24.7,133.610218 C1,132.78 5.68434189e-14,177.337158 5.68434189e-14,177.337158 C16.193694,189 98.2200612,195.2771 131,165.613525 Z"/>
      <path fill="#FFC07D" fill-rule="nonzero" d="M54.63,104.440218 L83.02,104.440218 C84.8701539,104.440218 86.37,105.940064 86.37,107.790218 L86.37,132.510218 C86.37,142.197292 78.5170745,150.050218 68.83,150.050218 L68.83,150.050218 C59.1429255,150.050218 51.29,142.197292 51.29,132.510218 L51.29,107.790218 C51.29,105.943962 52.7837525,104.445729 54.63,104.440218 Z"/>
      <path fill="#000" fill-rule="nonzero" d="M51.28,105.740218 L86.37,105.740218 L86.37,133.810218 C86.37,143.497292 78.5170745,151.350218 68.83,151.350218 L68.83,151.350218 C59.1429255,151.350218 51.29,143.497292 51.29,133.810218 L51.29,105.740218 L51.28,105.740218 Z" opacity=".05"/>
      <path fill="#72351C" d="M24.8554687,96.5319183 C18.66,96.5319183 16.1662084,94.7337206 14.6738281,89.6842621 C11.1230469,77.6702175 1.17779532,76.4422494 6.85351562,49.9655121 C7.85395025,45.2985723 8.48270195,40.1740847 11.1230469,36.1979339 C13.7501645,32.2417024 15.6878424,31.4194183 20.5429687,29.3502777 C28.2460937,26.0673871 20.5429687,15.1373871 38.3867187,9.54754331 C46.5112791,7.00239317 46.764375,0.278012061 54.8203125,0.278012061 C56.4752481,0.278012061 67.6972627,-0.347515076 68.82,0.278012061 C73.5931762,2.93736186 69.4719275,6.43618186 74.4941406,8.58855894 C76.6107599,9.49568148 80.9113782,6.21477484 83.2128906,6.13738706 C87.9842937,5.97694984 96.0587061,8.42720114 100.830078,8.58855894 C104.660517,8.71809634 105.729122,15.1373871 109.82,15.1373871 C117.615391,15.1373871 123.39,20.4923269 123.39,29.3502777 C123.39,38.2983277 128.266393,47.1210615 130.092309,56.1256683 C136.959432,89.9912725 109.82,100.36395 95.4570312,100.36395 L24.8554687,96.5319183 Z"/>
      <path fill="#FFC07D" fill-rule="nonzero" d="M118.948756,77.7520969 C115.777464,102.474407 94.6549465,121.58 69.0700781,121.58 C43.5135378,121.58 22.4094718,102.516692 19.202,77.8341952 C16.9094441,77.2673788 15.1400781,73.5908976 15.1400781,69.14 C15.1400781,64.2964627 17.2353855,60.37 19.8200781,60.37 C19.8695713,60.37 19.918885,60.3714397 19.9680081,60.374298 C24.9533795,37.8482042 45.0441743,21 69.0700781,21 C93.0953239,21 113.185676,37.8472813 118.171739,60.3724472 C120.704848,60.48359 122.740078,64.366405 122.740078,69.14 C122.740078,73.414125 121.108466,76.9741258 118.948757,77.7520908 Z"/>
      <path fill="#72351C" d="M51.1609987,29.0938316 C37.637292,38.7142553 25.5902925,41.3714607 15.02,37.0654477 C18.5073173,34.8299879 31.7781995,21.9141012 44.0729451,21.1215579 C84.3877402,-4.29564275 113.960084,29.611622 118.914609,55.9935083 C107.19263,39.7908172 96.7544018,33.5540984 87.5999237,37.2833521 C77.8040186,41.2739034 65.6577103,38.5440633 51.1609987,29.0938316 Z"/>
    </g>
  </g>
</svg>
