<svg xmlns="http://www.w3.org/2000/svg" width="163" height="172" viewBox="0 0 163 172">
  <g fill="none">
    <path fill="#F5DD48" d="M161,100.995968 C155.853516,128.840745 120.952457,148.623006 99.2188927,156.858323 C77.485328,165.135444 58.2398723,178.410755 35.38,167.416398 C12.4784126,156.42204 5.26953125,135.920276 2.13476563,112.640276 C-1,89.3602764 -1,75.0575421 12,50.0802764 C25,25.1030108 49.2053648,7.27012354 75.95,7.27012354 C164.959677,20.0204783 166.146484,73.1511904 161,100.995968 Z" transform="matrix(1 0 0 -1 0 178.86)"/>
    <path fill="#33CCAB" d="M140.255146,146.685004 C126.343665,161.284625 105.391902,171.758921 75.95,171.590153 C54.6695723,171.590153 34.9968123,160.299761 21.2974255,143.103512 C27.5440091,132.750791 36.7,132 36.7,132 L124.41,132 C128.524033,132 135.322341,135.492325 140.255146,146.685004 Z"/>
    <path fill="#FDB797" d="M65.63,99.3028305 L94.02,99.3028305 C95.8701539,99.3028305 97.37,100.802677 97.37,102.65283 L97.37,127.37283 C97.37,137.059905 89.5170745,144.91283 79.83,144.91283 L79.83,144.91283 C70.1429255,144.91283 62.29,137.059905 62.29,127.37283 L62.29,102.65283 C62.29,100.806575 63.7837525,99.3083417 65.63,99.3028305 Z"/>
    <path fill="#000" d="M62.28,100.60283 L97.37,100.60283 L97.37,128.67283 C97.37,138.359905 89.5170745,146.21283 79.83,146.21283 L79.83,146.21283 C70.1429255,146.21283 62.29,138.359905 62.29,128.67283 L62.29,100.60283 L62.28,100.60283 Z" opacity=".05"/>
    <path fill="#000" d="M62.35,113.85283 C73.6586913,118.079472 86.1074023,118.114949 97.44,113.95283 L97.44,109.64283 L62.35,109.64283 L62.35,113.85283 Z" opacity=".1"/>
    <path fill="#F9C9B8" d="M129.808678,72.7520969 C126.637386,97.474407 105.514868,116.58 79.93,116.58 C54.3734597,116.58 33.2693936,97.5166917 30.0619219,72.8341952 C27.7693659,72.2673788 26,68.5908976 26,64.14 C26,59.2964627 28.0953074,55.37 30.68,55.37 C30.7294932,55.37 30.7788069,55.3714397 30.8279299,55.374298 C35.8133014,32.8482042 55.9040962,16 79.93,16 C103.955246,16 124.045598,32.8472813 129.03166,55.3724472 C131.56477,55.48359 133.6,59.366405 133.6,64.14 C133.6,68.414125 131.968388,71.9741258 129.808679,72.7520908 Z"/>
    <path fill="#72351C" d="M128.92,55.37 C134.51249,95.9950614 116.413462,137.801563 79.18,139.101563 C41.9465383,140.401563 26,91.4951301 29.64,55.37 C32.9841599,39.7724646 46.4625181,27.4637282 45.4665932,30.1920773 C19.4665932,101.419413 65.1380147,110.745224 78.6240724,111.066387 C92.0699851,111.386594 138.542693,107.358571 115.797208,30.1920773 C115.797208,30.1920773 126.711763,40.6871083 128.92,55.37 Z"/>
    <path fill="#72351C" d="M42.6614936,33.498715 C44.7576617,43.0129824 75.5107422,55.37 124.239117,47.62 L111.693931,25.79 L89.4604746,16.93 C59.0891639,10.4900824 43.4895036,16.0129874 42.6614936,33.498715 Z"/>
    <path fill="#72351C" d="M45.3730453,34.71 C35.36,12.7359446 79.5258651,12.7359446 87.0030453,7.10542736e-15 C87.9172055,1.59720771 88.112637,3.50671488 87.5409781,5.25599112 C86.9693192,7.00526736 85.6839845,8.43086397 84.0030453,9.18 C92.0030453,9.13 101.213045,8.43 105.713045,1.87 C107.986266,7.1611302 107.009185,13.288323 103.203045,17.61 C110.263045,17.93 117.803045,22.72 118.263045,29.78 C118.563045,34.48 115.623045,38.93 111.753045,41.63 C107.883045,44.33 103.223045,45.54 98.6230453,46.54 C85.2030453,49.54 66.6739287,49.54 45.3730453,34.71 Z"/>
  </g>
</svg>
