<svg xmlns="http://www.w3.org/2000/svg" width="890" height="717" viewBox="0 0 890 717">
  <g fill="none" fill-rule="evenodd" transform="translate(.22 -.017)">
    <path fill="#FFDED1" fill-rule="nonzero" d="M161.6,613.777185 C153.1,612.917185 144.22,611.997185 136.17,614.247185 C128.12,616.497185 121.45,623.067185 123.84,629.347185 C129.18,643.347185 160.52,633.597185 174.97,643.167185 C180.13,646.587185 182.14,651.967185 186.17,656.167185 C192.69,662.987185 203.9,666.167185 214.72,667.917185 C279.72,678.427185 353.82,651.377185 410.79,677.427185 C429.24,685.867185 443.79,699.297185 464.02,704.927185 C490.82,712.387185 520.17,704.417185 547.9,699.307185 C582.48329,692.98753 617.735427,691.139053 652.79,693.807185 C678.72,695.807185 713.21,696.477185 721.51,677.647185 C726.85,665.537185 715.55,652.057185 700.55,646.327185 C685.55,640.597185 667.99,640.777185 651.24,641.327185 C618.91,642.487185 586.57,644.827185 554.24,643.687185 C491.72,641.467185 432.66,616.687185 371.78,615.867185 C300.88,615.007185 232.83,620.957185 161.6,613.777185 Z" opacity=".7"/>
    <path fill="#F5DD48" fill-rule="nonzero" d="M95.87 300.327185C85.87 310.437185 85.26 325.937185 85.26 325.937185 85.26 325.937185 100.75 325.057185 110.71 314.937185 120.67 304.817185 121.33 289.327185 121.33 289.327185 121.33 289.327185 105.83 290.237185 95.87 300.327185zM136.12 50.5671853C139.65 64.3171853 152.6 72.8671853 152.6 72.8671853 152.6 72.8671853 159.83 59.1371853 156.3 45.3871853 152.77 31.6371853 139.82 23.0971853 139.82 23.0971853 139.82 23.0971853 132.55 36.8271853 136.12 50.5671853zM720.96 88.3871853C710.96 98.4971853 710.34 113.997185 710.34 113.997185 710.34 113.997185 725.84 113.117185 735.8 102.997185 745.76 92.8771853 746.41 77.3771853 746.41 77.3771853 746.41 77.3771853 730.92 78.3271853 720.96 88.3871853z"/>
    <path fill="#F5DD48" fill-rule="nonzero" d="M808.878872,172.757185 C807.718872,186.897185 817.148872,199.217185 817.148872,199.217185 C817.148872,199.217185 828.478872,188.607185 829.638872,174.457185 C830.798872,160.307185 821.368872,148.017185 821.368872,148.017185 C821.368872,148.017185 810.038872,158.607185 808.878872,172.757185 Z" transform="rotate(15 819.259 173.617)"/>
    <path fill="#F5DD48" fill-rule="nonzero" d="M744.23,428.377185 C743.07,442.517185 752.5,454.837185 752.5,454.837185 C752.5,454.837185 763.83,444.227185 764.99,430.087185 C766.15,415.947185 756.72,403.627185 756.72,403.627185 C756.72,403.627185 745.39,414.237185 744.23,428.377185 Z"/>
    <rect width="29" height="30.5" x="545.79" y="175.647" fill="#B9EFE9" fill-rule="nonzero"/>
    <path fill="#8E5362" fill-rule="nonzero" d="M510.55 527.817185C508 540.567185 504.22 550.477185 497.22 556.317185 490.22 562.157185 480.39 577.817185 480.39 577.817185 480.22 598.647185 474.72 604.977185 474.72 604.977185L469.05 606.477185 455.05 606.477185C455.05 606.477185 452.55 599.477185 452.05 595.317185 451.88 593.927185 452.87 591.597185 454.25 589.097185 459.254405 579.933326 462.366016 569.857145 463.4 559.467185L464.05 553.317185C462.87 515.147185 478.05 502.757185 484.42 499.227185 486.205953 498.230797 487.390307 496.422509 487.59 494.387185L487.59 494.387185 488.72 483.477185 526.38 485.327185C526.38 485.327185 525.58 488.647185 527.01 496.327185 527.3 497.917185 527.69 499.687185 528.21 501.657185 531.21 513.147185 510.71 526.977185 510.55 527.817185zM574.41 501.457185C573.118171 507.040501 571.33454 512.498477 569.08 517.767185 567.118194 522.477604 566.033714 527.506882 565.88 532.607185 565.88 532.777185 565.88 532.947185 565.88 533.117185 565.393223 548.23329 562.255567 563.146464 556.61 577.177185 551.08 591.017185 543.75 609.027185 541.55 612.817185 537.89 619.147185 540.05 629.817185 540.05 629.817185L518.85 628.317185 519.22 592.647185C517.01 567.177185 525.15 543.647185 529.56 533.017185 531.3419 528.765721 532.357553 524.232522 532.56 519.627185L533.56 495.967185 533.87 488.967185C533.87 488.967185 571.35 483.637185 574.51 492.137185 575.38 494.387185 575.17 497.737185 574.41 501.457185z"/>
    <path fill="#000" fill-rule="nonzero" d="M527.01 496.327185L487.55 494.387185 488.68 483.477185 526.38 485.327185C526.38 485.327185 525.55 488.637185 527.01 496.327185zM574.41 501.457185L533.55 495.967185 533.86 488.967185C533.86 488.967185 571.34 483.637185 574.5 492.137185 575.38 494.387185 575.17 497.737185 574.41 501.457185z" opacity=".1"/>
    <path fill="#C4C9D8" fill-rule="nonzero" d="M595.88,428.477185 L579.55,500.147185 L531.22,493.647185 L531.22,468.977185 L527.04,494.327185 L469.04,491.487185 L472.04,435.987185 C475.148088,424.911939 477.322366,413.595658 478.54,402.157185 C479.67,389.617185 485.61,358.687185 488.48,344.157185 C489.48,339.367185 490.04,336.347185 490.04,336.347185 C490.04,336.347185 589.38,357.007185 595.88,364.507185 C596.99,365.787185 597.72,368.507185 598.17,372.117185 C600.35,389.637185 595.88,428.477185 595.88,428.477185 Z"/>
    <path fill="#000" fill-rule="nonzero" d="M479.88 433.147185C479.88 433.147185 518.98 412.647185 528.51 416.977185L479.88 433.147185zM501.21 366.147185C501.21 366.147185 533.71 390.817185 534.71 397.477185L501.21 366.147185zM492.38 451.147185C492.38 451.147185 515.88 450.147185 523.38 456.147185L492.38 451.147185zM534.71 424.767185C534.71 424.767185 545.88 461.327185 541.04 471.327185 536.2 481.327185 531.21 468.987185 531.21 468.987185L534.71 424.767185z" opacity=".1"/>
    <path fill="#494457" fill-rule="nonzero" d="M519.02,615.327185 C519.02,615.327185 508.02,616.997185 510.02,643.657185 C512.02,670.317185 515.02,674.997185 519.02,675.327185 C523.02,675.657185 542.52,680.497185 541.52,670.657185 C540.52,660.817185 539.52,638.997185 540.85,635.657185 C542.18,632.317185 544.48,623.527185 539.44,621.357185 L538.35,626.497185 C538.35,626.497185 527.68,616.657185 521.35,623.827185 C521.078136,622.07928 520.639466,620.361434 520.04,618.697185 C519.41,617.137185 518.03,616.327185 519.02,615.327185 Z"/>
    <path fill="#8E5362" fill-rule="nonzero" d="M720.33,288.147185 C720.33,288.147185 717.81,289.557185 714.11,291.317185 C708.4,294.037185 699.89,297.617185 693.59,298.147185 C683.21,299.027185 679.96,300.027185 668.09,291.527185 C658.98,285.007185 643.73,275.917185 637.09,272.037185 L634.2,270.327185 L633.91,270.157185 L633.91,270.037185 L639.42,254.897185 L658.92,244.527185 L663.76,248.677185 L678.17,261.027185 C678.17,261.027185 680.42,264.647185 684.05,264.397185 C687.68,264.147185 707.05,265.767185 707.05,265.767185 L710.71,266.367185 L718.42,267.647185 L720.33,288.147185 Z"/>
    <path fill="#000" fill-rule="nonzero" d="M720.33,288.147185 C720.33,288.147185 717.81,289.557185 714.11,291.317185 C710.2,289.317185 705.34,285.567185 707.21,279.397185 C708.9,273.847185 709.36,269.517185 710.75,266.397185 L718.46,267.677185 L720.33,288.147185 Z" opacity=".1"/>
    <path fill="#8E5362" fill-rule="nonzero" d="M717.71 261.147185C717.71 261.147185 739.46 254.897185 737.84 281.147185 736.22 307.397185 719.46 293.027185 719.46 293.027185 719.46 293.027185 705.21 289.277185 708.21 279.397185 711.21 269.517185 710.34 263.527185 717.71 261.147185zM492.21 176.147185L469.55 185.667185 469.2 185.817185 468.95 185.697185 467.54 184.987185C461.68 182.067185 441.54 172.077185 428.87 166.147185 413.87 159.147185 416.2 152.147185 416.2 152.147185L414.04 78.8171853 410.2 65.6471853C410.2 65.6471853 407.49 21.0071853 429.2 9.81718534 450.91-1.37281466 436.87 74.4771853 436.87 74.4771853L438.55 90.2371853C439.63503 100.319106 441.626417 110.282735 444.5 120.007185 445.438393 123.204225 446.028486 126.493326 446.26 129.817185 446.93 140.477185 451.93 139.767185 451.93 139.767185 459.827442 141.007297 467.452255 143.598515 474.47 147.427185 477.076208 148.803124 479.570518 150.381294 481.93 152.147185L492.21 176.147185zM572.88 211.147185L553.54 209.147185C553.54 209.147185 559.24 200.667185 561.75 192.417185 562.105015 191.28604 562.388903 190.133789 562.6 188.967185 563.18 185.697185 563.03 182.667185 561.54 180.477185 555.88 172.147185 595.21 160.477185 595.21 160.477185 594.73203 165.087422 594.588322 169.726204 594.78 174.357185 594.892328 177.579677 595.226451 180.790607 595.78 183.967185 596.97 190.437185 599.34 196.527185 603.86 199.647185 616.21 208.147185 572.88 211.147185 572.88 211.147185z"/>
    <path fill="#000" fill-rule="nonzero" d="M572.88 211.147185L553.54 209.147185C553.54 209.147185 559.24 200.667185 561.75 192.417185 563.98 195.587185 564.75 195.517185 567.88 196.147185 567.88 196.147185 587.4 199.037185 595.8 183.967185 596.99 190.437185 599.36 196.527185 603.88 199.647185 616.21 208.147185 572.88 211.147185 572.88 211.147185zM637.13 272.037185C637.107179 272.631711 637.133938 273.227104 637.21 273.817185L634.21 270.327185 633.96 270.037185 639.47 254.897185 658.97 244.527185 663.81 248.677185C656.88 251.327185 637.44 259.737185 637.13 272.037185zM492.21 176.147185L469.55 185.667185 468.95 185.667185 467.2 185.787185C467.2 185.787185 467.33 185.497185 467.54 184.957185 469.43 180.367185 478.2 157.957185 474.41 147.397185 477.016208 148.773124 479.510518 150.351294 481.87 152.117185L492.21 176.147185zM598.17 372.087185C589.35 371.297185 501.11 363.137185 492.88 350.147185 491.579074 348.030768 490.107518 346.024102 488.48 344.147185 489.48 339.357185 490.04 336.337185 490.04 336.337185 490.04 336.337185 589.38 356.997185 595.88 364.497185 596.99 365.757185 597.72 368.467185 598.17 372.087185z" opacity=".1"/>
    <path fill="#B9EFE9" fill-rule="nonzero" d="M567.88,197.147185 C567.88,197.147185 587.61,200.067185 595.95,184.737185 C595.95,184.737185 609.88,196.177185 618.21,197.157185 C626.54,198.137185 665.21,246.817185 665.21,246.817185 C665.21,246.817185 634.21,256.817185 636.21,272.817185 L621.54,255.817185 C621.54,255.817185 614.21,255.477185 607.88,275.817185 C607.88,275.817185 600.21,287.477185 601.21,324.477185 C602.21,361.477185 598.88,370.147185 598.88,370.147185 C598.88,370.147185 501.54,361.817185 492.88,348.147185 C484.22,334.477185 482.88,341.147185 482.88,341.147185 C482.88,341.147185 481.54,315.147185 490.54,294.147185 C499.54,273.147185 497.54,212.817185 497.54,212.817185 C497.54,212.817185 498.54,183.147185 469.21,185.817185 C469.21,185.817185 481.54,157.147185 475.88,146.147185 C475.88,146.147185 492.75,150.727185 504.77,150.867185 C512.14763,150.924525 519.418814,152.63298 526.05,155.867185 C529.66,157.637185 532.99,159.867185 534.88,162.527185 C540.54,170.527185 549.88,166.867185 549.88,166.867185 C552.234138,174.187797 555.142553,181.318429 558.58,188.197185 C558.97,188.927185 559.36,189.647185 559.76,190.337185 C560.34,191.337185 560.94,192.337185 561.54,193.157185 C563.94,196.587185 564.62,196.497185 567.88,197.147185 Z"/>
    <path fill="#000" fill-rule="nonzero" d="M594.78,174.327185 C593.716544,175.837 592.532682,177.258302 591.24,178.577185 C584.669882,185.319393 575.654022,189.12048 566.24,189.11719 C565.034408,189.117822 563.829549,189.057746 562.63,188.937185 C563.21,185.667185 563.06,182.637185 561.57,180.447185 C555.91,172.117185 595.24,160.447185 595.24,160.447185 C594.75202,165.056696 594.598285,169.69548 594.78,174.327185 L594.78,174.327185 Z" opacity=".1"/>
    <path fill="#8E5362" fill-rule="nonzero" d="M601.210244,153.147185 C601.210244,172.477152 585.539966,188.147185 566.21,188.147185 C546.880034,188.147185 531.21,172.477152 531.21,153.147185 C531.21,133.817219 546.880034,118.146942 566.21,118.146942 C575.503175,118.112474 584.425744,121.788816 590.997057,128.360129 C597.568369,134.931441 601.244711,143.854011 601.210244,153.147185 L601.210244,153.147185 Z"/>
    <path fill="#000" fill-rule="nonzero" d="M618.55 233.147185L619.27 256.567185C619.27 256.567185 629.72 248.147185 630.05 240.147185 630.38 232.147185 618.55 233.147185 618.55 233.147185zM534.21 256.567185C534.21 256.567185 561.71 294.317185 577.71 298.147185 593.71 301.977185 540.21 268.807185 534.21 256.567185zM563.38 260.497185C563.38 260.497185 578.71 277.817185 589.71 279.977185L563.38 260.497185zM509.38 304.147185C509.38 304.147185 537.38 331.647185 553.38 333.317185L509.38 304.147185zM601.210005 153.147185C601.214783 162.296711 597.623268 171.081556 591.21 177.607185L587.37 175.217185C585.88452 174.443892 584.602977 173.330252 583.63 171.967185 582.36 169.847185 582.73 167.187185 582.83 164.717185 583.04 159.487185 581.6 153.827185 577.51 150.557185 570.88 145.247185 560.25 148.187185 553.51 142.977185 551.886949 141.598941 550.457374 140.007909 549.26 138.247185L542.94 129.777185C542.56 129.277185 542.1 128.777185 541.61 128.187185 551.671253 118.293517 566.689636 115.409317 579.700032 120.872197 592.710428 126.335078 601.16786 139.076439 601.15 153.187185L601.210005 153.147185z" opacity=".1"/>
    <path fill="#362133" fill-rule="nonzero" d="M545.12,108.327185 C548.25,105.937185 552.07,104.677185 555.59,102.917185 C559.11,101.157185 562.22,98.9171853 565.74,97.4171853 C569.26,95.9171853 573.33,95.0371853 576.98,96.2871853 C584.81,98.9771853 587.77,109.917185 595.82,111.837185 C597.18,112.157185 598.58,112.187185 599.95,112.397185 C605.239301,113.399909 609.844957,116.622048 612.6,121.247185 C615.287008,125.861035 616.669612,131.118386 616.6,136.457185 C616.711285,139.420214 616.280901,142.378678 615.33,145.187185 C612.95,151.717185 606.98,156.187185 602.95,161.837185 C599.135158,167.243999 597.11031,173.710224 597.16,180.327185 L587.4,174.257185 C585.912356,173.487074 584.630128,172.372838 583.66,171.007185 C582.39,168.887185 582.76,166.227185 582.86,163.757185 C583.07,158.527185 581.63,152.867185 577.55,149.597185 C570.91,144.287185 560.28,147.227185 553.55,142.017185 C551.926949,140.638941 550.497374,139.047909 549.3,137.287185 L542.98,128.817185 C541.61,126.977185 538.98,124.687185 538.38,122.447185 C537.05,117.627185 541.6,111.037185 545.12,108.327185 Z"/>
    <path fill="#000" fill-rule="nonzero" d="M588.49,173.127185 C587.002356,172.357074 585.720128,171.242838 584.75,169.877185 C583.48,167.757185 583.85,165.097185 583.95,162.627185 C584.16,157.397185 582.72,151.737185 578.63,148.467185 C572,143.157185 561.37,146.097185 554.63,140.887185 C553.006949,139.508941 551.577374,137.917909 550.38,136.157185 L544.06,127.687185 C542.68,125.847185 540.06,123.557185 539.46,121.317185 C538.37,117.457185 541.13,112.427185 544.08,109.207185 C540.77,112.267185 537.14,118.077185 538.37,122.407185 C539.01,124.647185 541.6,126.937185 542.97,128.777185 L549.29,137.247185 C550.487374,139.007909 551.916949,140.598941 553.54,141.977185 C560.25,147.187185 570.88,144.247185 577.54,149.557185 C581.62,152.827185 583.06,158.487185 582.85,163.717185 C582.75,166.187185 582.38,168.847185 583.65,170.967185 C584.620128,172.332838 585.902356,173.447074 587.39,174.217185 L597.15,180.287185 C597.15,179.707185 597.15,179.127185 597.21,178.557185 L588.49,173.127185 Z" opacity=".1"/>
    <path fill="#494457" fill-rule="nonzero" d="M453.62,590.267185 C453.62,590.267185 443.88,592.267185 445.88,618.977185 C447.88,645.687185 450.88,650.317185 454.88,650.647185 C458.88,650.977185 478.38,655.817185 477.38,645.977185 C476.38,636.137185 475.38,614.317185 476.71,610.977185 C478.04,607.637185 483.32,598.667185 478.28,596.497185 L474.21,601.817185 C474.21,601.817185 463.54,591.977185 457.21,599.147185 C457.21,599.147185 451.29,592.597185 453.62,590.267185 Z"/>
    <path fill="#000" fill-rule="nonzero" d="M459.78 606.827185C461.89 607.827185 463.86 609.047185 465.96 610.047185 468.028062 611.130138 470.336009 611.673589 472.67 611.627185 473.660883 611.608624 474.620293 611.275981 475.41 610.677185M523.88 632.947185C525.13 634.097185 526.1 635.567185 527.51 636.517185 529.51 637.857185 532.07 637.937185 534.51 637.967185 534.91613 638.003918 535.325408 637.952758 535.71 637.817185 536.145826 637.580161 536.514075 637.236003 536.78 636.817185L538.09 635.127185" opacity=".1"/>
    <path fill="#FFC1C7" fill-rule="nonzero" d="M359.55 189.477185C359.55 189.477185 355.05 146.817185 372.55 157.317185 390.05 167.817185 378 186.477185 378 186.477185L373.89 199.647185 359.55 189.477185zM387.55 53.1471853L397.55 43.3271853C397.55 43.3271853 416.72-11.8428147 435.72 2.32718534 454.72 16.4971853 411.64 52.3271853 411.64 52.3271853L400.22 65.6571853 387.55 53.1471853z"/>
    <path fill="#33CCAB" fill-rule="nonzero" d="M241.21,271.327185 L240.71,282.657185 C240.71,282.657185 249.88,298.657185 253.71,299.827185 C257.54,300.997185 257.21,265.987185 257.21,265.987185 L241.21,271.327185 Z"/>
    <path fill="#000" fill-rule="nonzero" d="M241.21,271.327185 L240.71,282.657185 C240.71,282.657185 249.88,298.657185 253.71,299.827185 C257.54,300.997185 257.21,265.987185 257.21,265.987185 L241.21,271.327185 Z" opacity=".1"/>
    <polygon fill="#FFC1C7" fill-rule="nonzero" points="256.54 258.887 257.22 300.647 303.71 300.647 300.21 276.317"/>
    <path fill="#575988" fill-rule="nonzero" d="M267.38,363.147185 L269.55,376.477185 L296.72,436.817185 C296.72,436.817185 309.05,455.817185 299.05,471.817185 C289.05,487.817185 278.72,512.817185 277.05,527.977185 C275.38,543.137185 262.22,557.977185 262.22,557.977185 L290.89,570.147185 C290.89,570.147185 292.89,546.317185 300.89,535.147185 C308.89,523.977185 334.55,474.817185 334.55,474.817185 C334.55,474.817185 342.72,467.477185 340.89,445.647185 C339.06,423.817185 339.22,408.477185 339.22,408.477185 L336.39,373.647185 L267.38,363.147185 Z"/>
    <path fill="#000" fill-rule="nonzero" d="M267.38,363.147185 L269.55,376.477185 L296.72,436.817185 C296.72,436.817185 309.05,455.817185 299.05,471.817185 C289.05,487.817185 278.72,512.817185 277.05,527.977185 C275.38,543.137185 262.22,557.977185 262.22,557.977185 L290.89,570.147185 C290.89,570.147185 292.89,546.317185 300.89,535.147185 C308.89,523.977185 334.55,474.817185 334.55,474.817185 C334.55,474.817185 342.72,467.477185 340.89,445.647185 C339.06,423.817185 339.22,408.477185 339.22,408.477185 L336.39,373.647185 L267.38,363.147185 Z" opacity=".1"/>
    <path fill="#C4747B" fill-rule="nonzero" d="M264.71,556.147185 C264.71,556.147185 234.04,565.477185 244.21,580.817185 C254.38,596.157185 287.38,625.317185 300.71,624.317185 C314.04,623.317185 308.71,613.477185 308.71,613.477185 L297.54,602.477185 C297.54,602.477185 295.54,579.147185 296.38,572.317185 C297.22,565.487185 286.88,562.317185 285.54,566.317185 C284.2,570.317185 264.71,556.147185 264.71,556.147185 Z"/>
    <path fill="#575988" fill-rule="nonzero" d="M284.04,282.907185 L259.73,285.597185 C255.226575,286.094512 251.854293,289.957861 251.97,294.487185 C252.23,304.207185 252.4,319.667185 251.04,322.487185 C249.04,326.657185 242.88,356.327185 269.54,376.487185 L305.71,387.987185 L247.71,392.157185 L249.55,424.327185 L258.55,419.327185 L368.55,424.327185 C368.55,424.327185 399.72,421.157185 378.55,387.327185 C357.38,353.497185 312.39,320.327185 312.39,320.327185 L311.89,293.987185 L308.55,286.327185 L284.04,282.907185 Z"/>
    <path fill="#000" fill-rule="nonzero" d="M314.21,387.477185 C322.180073,383.997434 331.239927,383.997434 339.21,387.477185 L314.21,387.477185 Z" opacity=".1"/>
    <path fill="#C4747B" fill-rule="nonzero" d="M250.55,391.977185 C250.55,391.977185 214.72,386.817185 214.55,393.647185 C214.38,400.477185 219.55,466.977185 236.72,462.477185 C253.89,457.977185 246.55,435.977185 246.55,435.977185 L259.39,423.647185 C259.39,423.647185 260.72,416.817185 252.22,417.477185 L250.55,391.977185 Z"/>
    <path fill="#33CCAB" fill-rule="nonzero" d="M309.88,205.477185 L324.04,221.647185 C324.04,221.647185 330.21,229.317185 337.54,217.647185 C344.87,205.977185 358.54,185.147185 358.54,185.147185 C358.54,185.147185 373.71,198.477185 377.71,195.817185 C381.71,193.157185 340.88,251.327185 340.88,251.327185 C340.88,251.327185 327.88,270.487185 308.54,247.827185 L302.88,245.157185 L309.88,205.477185 Z"/>
    <path fill="#000" fill-rule="nonzero" d="M309.88,205.477185 L324.04,221.647185 C324.04,221.647185 330.21,229.317185 337.54,217.647185 C344.87,205.977185 358.54,185.147185 358.54,185.147185 C358.54,185.147185 373.71,198.477185 377.71,195.817185 C381.71,193.157185 340.88,251.327185 340.88,251.327185 C340.88,251.327185 327.88,270.487185 308.54,247.827185 L302.88,245.157185 L309.88,205.477185 Z" opacity=".1"/>
    <circle cx="266.56" cy="110.267" r="29.5" fill="#FFC1C7" fill-rule="nonzero"/>
    <path fill="#000" fill-rule="nonzero" d="M266.55,126.147185 C266.55,126.147185 241.2,138.147185 244.2,159.147185 C247.2,180.147185 247.7,206.647185 247.7,206.647185 C247.7,206.647185 259.21,223.647185 243.95,256.147185 C243.95,256.147185 234.2,272.647185 240.7,284.647185 C240.7,284.647185 247.91,265.647185 266.55,279.647185 C285.19,293.647185 315.2,300.147185 315.2,300.147185 C315.2,300.147185 299.7,232.147185 309.2,222.647185 C309.2,222.647185 325.7,198.147185 310.7,182.647185 C295.7,167.147185 303.2,152.647185 303.2,152.647185 L351.37,126.817185 C351.37,126.817185 361.53,126.977185 375.2,105.647185 C384.049883,92.0162109 393.794629,78.9875829 404.37,66.6471853 C404.37,66.6471853 394.03,51.1471853 384.37,49.9771853 C384.37,49.9771853 380.53,53.9771853 377.87,64.8171853 C376.45,70.5671853 366.8,80.1771853 358.07,87.9271853 C351.87,93.4271853 345.89,99.1371853 339.92,104.927185 C335.5,109.177185 325.66,115.257185 304.2,118.697185 C268.88,124.327185 266.55,126.147185 266.55,126.147185 Z" opacity=".1"/>
    <path fill="#33CCAB" fill-rule="nonzero" d="M266.55,124.147185 C266.55,124.147185 241.2,136.147185 244.2,157.147185 C247.2,178.147185 247.7,204.647185 247.7,204.647185 C247.7,204.647185 259.21,221.647185 243.95,254.147185 C243.95,254.147185 234.2,270.647185 240.7,282.647185 C240.7,282.647185 247.91,263.647185 266.55,277.647185 C285.19,291.647185 315.2,298.147185 315.2,298.147185 C315.2,298.147185 299.7,230.147185 309.2,220.647185 C309.2,220.647185 325.7,196.147185 310.7,180.647185 C295.7,165.147185 303.2,150.647185 303.2,150.647185 L351.37,124.817185 C351.37,124.817185 361.53,124.977185 375.2,103.647185 C384.049883,90.0162109 393.794629,76.9875829 404.37,64.6471853 C404.37,64.6471853 394.03,49.1471853 384.37,47.9771853 C384.37,47.9771853 380.53,51.9771853 377.87,62.8171853 C376.45,68.5671853 366.8,78.1771853 358.07,85.9271853 C351.87,91.4271853 345.89,97.1371853 339.92,102.927185 C335.5,107.177185 325.66,113.257185 304.2,116.697185 C268.88,122.327185 266.55,124.147185 266.55,124.147185 Z"/>
    <path fill="#000" fill-rule="nonzero" d="M288.38 249.817185C288.38 249.817185 308.04 278.817185 308.540025 283.817185 308.55 283.817185 305.55 252.647185 288.38 249.817185zM262.55 152.147185C262.55 152.147185 276.26 168.647185 296.07 154.817185 285.004887 158.574386 272.880809 157.608656 262.55 152.147185L262.55 152.147185z" opacity=".1"/>
    <path fill="#000" fill-rule="nonzero" d="M273.18,79.4171853 C272.820567,77.9185221 272.076004,76.5397003 271.02,75.4171853 C266.5,69.7471853 261.59,63.9271853 254.86,61.2371853 C245.690381,57.8113908 235.358521,60.754086 229.37,68.4971853 C226.95,71.7571853 225.51,75.6371853 223.42,79.1271853 C219.56,85.5871853 213.59,90.5671853 207.17,94.5071853 C203.3,96.8771853 199.22,98.9271853 195.57,101.617185 C182.3,111.387185 176.17,129.447185 179.51,145.617185 C180.98,152.697185 184.09,159.677185 183.25,166.867185 C182.6,172.447185 179.63,177.447185 176.62,182.187185 C173.61,186.927185 170.4,191.727185 169.2,197.187185 C168,202.647185 169.26,209.117185 173.79,212.427185 C175.46,213.647185 177.47,214.427185 178.9,215.887185 C179.84634,217.023674 180.636659,218.281459 181.25,219.627185 C186.064198,228.508617 194.320432,235.018132 204.08,237.627185 C208.38,238.757185 214.15,238.347185 215.72,234.187185 C215.900264,233.45261 216.172409,232.743688 216.53,232.077185 C217.95,230.077185 221.08,231.197185 223.28,232.347185 C228.288297,234.965285 233.775581,236.54037 239.41,236.977185 C241.644722,237.271894 243.917673,237.00024 246.02,236.187185 C247.795012,235.285814 249.322706,233.964101 250.47,232.337185 C255.73,225.487185 257.24,216.537185 258.14,207.947185 C258.73,202.357185 259.14,196.667185 258.07,191.147185 C256.37,182.287185 250.98,174.007185 251.78,165.027185 C252.63,155.427185 260.42,147.577185 261.61,138.027185 C262.214898,133.02709 260.96614,127.978694 258.1,123.837185 C257.042405,122.558286 256.145707,121.154467 255.43,119.657185 C254.731616,118.107716 255.0486,116.289024 256.23,115.067185 C256.863229,114.621065 257.566114,114.28314 258.31,114.067185 C264.74,111.597185 268.17,105.157185 268.63,98.5671853 C268.81,96.0671853 268.63,93.7671853 269.32,91.3271853 C270.42,87.5571853 273.75,83.4371853 273.18,79.4171853 Z" opacity=".1"/>
    <path fill="#BB7684" fill-rule="nonzero" d="M271.18,79.4171853 C270.820567,77.9185221 270.076004,76.5397003 269.02,75.4171853 C264.5,69.7471853 259.59,63.9271853 252.86,61.2371853 C243.690381,57.8113908 233.358521,60.754086 227.37,68.4971853 C224.95,71.7571853 223.51,75.6371853 221.42,79.1271853 C217.56,85.5871853 211.59,90.5671853 205.17,94.5071853 C201.3,96.8771853 197.22,98.9271853 193.57,101.617185 C180.3,111.387185 174.17,129.447185 177.51,145.617185 C178.98,152.697185 182.09,159.677185 181.25,166.867185 C180.6,172.447185 177.63,177.447185 174.62,182.187185 C171.61,186.927185 168.4,191.727185 167.2,197.187185 C166,202.647185 167.26,209.117185 171.79,212.427185 C173.46,213.647185 175.47,214.427185 176.9,215.887185 C177.84634,217.023674 178.636659,218.281459 179.25,219.627185 C184.064198,228.508617 192.320432,235.018132 202.08,237.627185 C206.38,238.757185 212.15,238.347185 213.72,234.187185 C213.900264,233.45261 214.172409,232.743688 214.53,232.077185 C215.95,230.077185 219.08,231.197185 221.28,232.347185 C226.288297,234.965285 231.775581,236.54037 237.41,236.977185 C239.644722,237.271894 241.917673,237.00024 244.02,236.187185 C245.795012,235.285814 247.322706,233.964101 248.47,232.337185 C253.73,225.487185 255.24,216.537185 256.14,207.947185 C256.73,202.357185 257.14,196.667185 256.07,191.147185 C254.37,182.287185 248.98,174.007185 249.78,165.027185 C250.63,155.427185 258.42,147.577185 259.61,138.027185 C260.214898,133.02709 258.96614,127.978694 256.1,123.837185 C255.042405,122.558286 254.145707,121.154467 253.43,119.657185 C252.731616,118.107716 253.0486,116.289024 254.23,115.067185 C254.863229,114.621065 255.566114,114.28314 256.31,114.067185 C262.74,111.597185 266.17,105.157185 266.63,98.5671853 C266.81,96.0671853 266.63,93.7671853 267.32,91.3271853 C268.42,87.5571853 271.75,83.4371853 271.18,79.4171853 Z"/>
    <path fill="#000" fill-rule="nonzero" d="M7.77 173.01C7.41293204 173.677855 7.13761546 174.386291 6.95 175.12 6.02 177.6 3.59 178.74.88 179.02 4.65 179.4 8.68 178.49 9.95 175.12 10.1376155 174.386291 10.412932 173.677855 10.77 173.01 11.0216861 172.642665 11.3669163 172.34922 11.77 172.16 10.25 171.72 8.69 171.74 7.77 173.01zM67.45 20.39C67.100424 18.8875866 66.3545454 17.50633 65.29 16.39 60.77 10.72 55.86 4.9 49.13 2.21 46.2050696 1.06798148 43.0612714.596411747 39.93.83 42.0559961.963794037 44.1479647 1.42942575 46.13 2.21 52.86 4.9 57.77 10.72 62.29 16.39 63.3545454 17.50633 64.100424 18.8875866 64.45 20.39 65.02 24.39 61.7 28.54 60.6 32.24 59.87 34.68 60.08 36.97 59.91 39.48 59.44 46.06 56.02 52.48 49.58 54.98 48.8361137 55.1959542 48.1332293 55.5338794 47.5 55.98 46.3176841 57.2059505 46.0044527 59.0298295 46.71 60.58 47.4221387 62.0770096 48.3154971 63.4808585 49.37 64.76 52.2389746 68.8966862 53.4913697 73.9418461 52.89 78.94 51.69 88.51 43.89 96.35 43.05 105.94 42.25 114.94 47.65 123.2 49.34 132.05 50.4 137.57 50 143.26 49.41 148.85 48.51 157.44 47.01 166.4 41.74 173.24 40.596727 174.866767 39.0722835 176.188638 37.3 177.09 36.2640265 177.544088 35.1581474 177.818021 34.03 177.9 36.1548267 178.152982 38.3092232 177.874663 40.3 177.09 42.0753618 176.212465 43.6097496 174.914929 44.77 173.31 50.04 166.47 51.54 157.51 52.44 148.92 53.03 143.33 53.44 137.64 52.37 132.12 50.68 123.27 45.28 114.98 46.08 106.01 46.94 96.4 54.72 88.56 55.92 79.01 56.5213697 74.0118461 55.2689746 68.9666862 52.4 64.83 51.3454971 63.5508585 50.4521387 62.1470096 49.74 60.65 49.0344527 59.0998295 49.3476841 57.2759505 50.53 56.05 51.1632293 55.6038794 51.8661137 55.2659542 52.61 55.05 59.05 52.57 62.47 46.13 62.94 39.55 63.11 37.04 62.94 34.75 63.63 32.31 64.7 28.54 68.02 24.42 67.45 20.39z" opacity=".1" transform="translate(203.78 59.017)"/>
    <path fill="#000" fill-rule="nonzero" d="M233.37 432.327185C236.867094 436.145521 242.238873 437.629266 247.2 436.147185M297.45 603.327185C295.515761 604.889595 292.993828 605.525561 290.55 605.067185" opacity=".1"/>
    <ellipse cx="26.93" cy="629.817" fill="#FFDED1" fill-rule="nonzero" opacity=".7" rx="26.93" ry="4.55"/>
    <ellipse cx="220.21" cy="712.417" fill="#FFDED1" fill-rule="nonzero" opacity=".7" rx="26.93" ry="4.55"/>
    <ellipse cx="764.21" cy="632.837" fill="#FFDED1" fill-rule="nonzero" opacity=".7" rx="26.93" ry="4.55"/>
    <ellipse cx="103.29" cy="672.067" fill="#FFDED1" fill-rule="nonzero" opacity=".7" rx="26.93" ry="4.55"/>
    <ellipse cx="849.38" cy="672.067" fill="#FFDED1" fill-rule="nonzero" opacity=".7" rx="40.21" ry="6.8"/>
    <path fill="#33CCAB" fill-rule="nonzero" d="M866 660.947185C867.835312 659.449234 869.174048 657.430671 869.84 655.157185 870.33 652.857185 869.35 650.107185 867.16 649.267185 864.7 648.327185 862.07 650.027185 860.08 651.757185 858.09 653.487185 855.8 655.437185 853.19 655.077185 855.920456 652.60479 857.150841 648.879459 856.43 645.267185 856.316694 644.531305 856.005618 643.840025 855.53 643.267185 854.16 641.807185 851.69 642.437185 850.05 643.587185 844.85 647.247185 843.4 654.307185 843.37 660.667185 842.85 658.377185 843.29 655.987185 843.28 653.667185 843.27 651.347185 842.62 648.667185 840.64 647.437185 839.415749 646.763117 838.03743 646.418538 836.64 646.437185 834.3 646.357185 831.7 646.587185 830.1 648.297185 828.1 650.427185 828.63 653.987185 830.36 656.297185 832.09 658.607185 834.71 660.097185 837.12 661.717185 839.059532 662.870259 840.713936 664.446045 841.96 666.327185 842.103906 666.589388 842.224374 666.863787 842.32 667.147185L856.97 667.147185C860.245433 665.496534 863.282894 663.411013 866 660.947185zM236.84 701.537185C238.672558 700.038678 240.007919 698.019946 240.67 695.747185 241.16 693.447185 240.19 690.747185 237.99 689.857185 235.53 688.917185 232.9 690.617185 230.91 692.347185 228.92 694.077185 226.63 696.027185 224.02 695.667185 226.750456 693.19479 227.980841 689.469459 227.26 685.857185 227.152193 685.119689 226.840475 684.426982 226.36 683.857185 225 682.397185 222.52 683.027185 220.89 684.177185 215.69 687.837185 214.24 694.897185 214.21 701.257185 213.68 698.967185 214.12 696.577185 214.11 694.257185 214.1 691.937185 213.45 689.257185 211.47 688.027185 210.242191 687.36747 208.863325 687.03999 207.47 687.077185 205.13 686.997185 202.53 687.227185 200.93 688.937185 198.93 691.067185 199.46 694.627185 201.19 696.937185 202.92 699.247185 205.54 700.737185 207.96 702.357185 209.895902 703.511458 211.546796 705.087157 212.79 706.967185 212.933906 707.229388 213.054374 707.503787 213.15 707.787185L227.8 707.787185C231.080166 706.11899 234.120809 704.016775 236.84 701.537185z"/>
    <path stroke="#535461" stroke-width="2" d="M133.79,619.327185 C133.79,619.327185 119.74,571.617185 136.43,536.507185 C143.537028,521.818882 145.684625,505.220624 142.55,489.207185 C141.003384,481.621471 138.763996,474.193667 135.86,467.017185"/>
    <path fill="#F5DD48" fill-rule="nonzero" d="M146.21 444.827185C146.21 450.677185 135.62 467.627185 135.62 467.627185 135.62 467.627185 125.04 450.677185 125.04 444.827185 124.921366 440.967947 126.912508 437.349992 130.236334 435.385311 133.560161 433.420631 137.689839 433.420631 141.013666 435.385311 144.337492 437.349992 146.328634 440.967947 146.21 444.827185L146.21 444.827185zM163.71 477.217185C160.53 482.117185 142.43 490.597185 142.43 490.597185 142.43 490.597185 142.76 470.597185 145.94 465.707185 149.189152 460.981081 155.610133 459.700381 160.42382 462.818307 165.237508 465.936233 166.69434 472.319557 163.71 477.217185L163.71 477.217185zM162.95 532.557185C157.73 535.197185 137.82 533.377185 137.82 533.377185 137.82 533.377185 148.19 516.287185 153.41 513.657185 158.597523 511.223262 164.780044 513.357007 167.362104 518.472409 169.944164 523.587811 167.989052 529.829123 162.95 532.557185zM152.94 574.327185C148.24 577.797185 128.31 579.327185 128.31 579.327185 128.31 579.327185 135.65 560.727185 140.31 557.247185 145.007186 554.113938 151.336499 555.216964 154.69689 559.754427 158.057281 564.291889 157.266765 570.667777 152.9 574.247185L152.94 574.327185zM120.2 491.737185C124.4 495.807185 143.93 500.027185 143.93 500.027185 143.93 500.027185 139.15 480.617185 134.93 476.547185 130.708722 472.653051 124.152834 472.833332 120.151945 476.95357 116.151056 481.073808 116.163502 487.632163 120.18 491.737185L120.2 491.737185zM109.12 540.707185C114.34 543.337185 134.24 541.517185 134.24 541.517185 134.24 541.517185 123.87 524.427185 118.65 521.797185 113.450194 519.307197 107.2139 521.434181 104.619283 526.582577 102.024665 531.730973 104.025119 538.009 109.12 540.707185L109.12 540.707185zM104.87 589.777185C109.57 593.257185 129.5 594.777185 129.5 594.777185 129.5 594.777185 122.16 576.177185 117.5 572.707185 112.802814 569.573938 106.473501 570.676964 103.11311 575.214427 99.7527187 579.751889 100.543235 586.127777 104.91 589.707185L104.87 589.777185z"/>
    <path fill="#A8A8A8" fill-rule="nonzero" d="M100.55,616.327185 C100.55,616.327185 117.66,612.927185 122.23,608.397185 C126.8,603.867185 147.32,595.947185 149.6,601.607185 C151.88,607.267185 180.4,626.517185 161.01,629.917185 C141.62,633.317185 115.38,634.447185 109.68,632.187185 C103.98,629.927185 100.55,616.327185 100.55,616.327185 Z"/>
    <path fill="#000" fill-rule="nonzero" d="M161.04,627.787185 C141.65,631.187185 115.41,632.317185 109.71,630.047185 C105.36,628.327185 102.34,620.047185 101.15,616.177185 L100.55,616.327185 C100.55,616.327185 103.97,629.917185 109.68,632.187185 C115.39,634.457185 141.62,633.317185 161.01,629.917185 C166.61,628.917185 168.21,626.637185 167.61,623.717185 C167.16,625.587185 165.21,627.057185 161.04,627.787185 Z" opacity=".2"/>
  </g>
</svg>
