<svg xmlns="http://www.w3.org/2000/svg" width="1022" height="706" viewBox="0 0 1022 706">
  <g fill="none">
    <path fill="#29A389" d="M24.15793,464.85096 C31.36947,478.22509 46.67493,483.96631 46.67493,483.96631 C46.67493,483.96631 50.28819,468.0238 43.07664,454.64967 C35.86509,441.27554 20.55964,435.53432 20.55964,435.53432 C20.55964,435.53432 16.94639,451.47684 24.15793,464.85096 Z"/>
    <path fill="#000" d="M24.15793,464.85096 C31.36947,478.22509 46.67493,483.96631 46.67493,483.96631 C46.67493,483.96631 50.28819,468.0238 43.07664,454.64967 C35.86509,441.27554 20.55964,435.53432 20.55964,435.53432 C20.55964,435.53432 16.94639,451.47684 24.15793,464.85096 Z" opacity=".1"/>
    <path fill="#29A389" d="M29.1147,460.45097 C42.1345,468.28412 47.14884,483.84291 47.14884,483.84291 C47.14884,483.84291 31.0539,486.70166 18.0341,478.86851 C5.0143,471.03536 -7.81597009e-14,455.47657 -7.81597009e-14,455.47657 C-7.81597009e-14,455.47657 16.09489,452.61782 29.1147,460.45097 Z"/>
    <path fill="#B9EFE9" d="M710.70605,242.97173 C710.70605,349.9061 647.13527,387.24358 568.71674,387.24358 C490.29821,387.24358 426.72742,349.9061 426.72742,242.97173 C426.72742,136.03736 568.71674,3.99999999e-05 568.71674,3.99999999e-05 C568.71674,3.99999999e-05 710.70605,136.03737 710.70605,242.97173 Z"/>
    <polygon fill="#3F3D56" points="563.544 370.886 564.998 281.391 625.518 170.674 565.226 267.352 565.88 227.112 607.59 147.009 566.053 216.463 566.053 216.463 567.229 144.089 611.893 80.317 567.414 132.708 568.148 0 563.532 175.682 563.911 168.435 518.501 98.927 563.183 182.347 558.952 263.176 558.826 261.031 506.476 187.885 558.667 268.61 558.138 278.719 558.043 278.871 558.087 279.701 547.352 484.772 561.694 484.772 563.415 378.848 615.478 298.321"/>
    <g transform="translate(738)">
      <path fill="#B9EFE9" d="M283.97863,242.97173 C283.97863,349.9061 220.40785,387.24358 141.98932,387.24358 C63.57079,387.24358 -1.13686838e-13,349.9061 -1.13686838e-13,242.97173 C-1.13686838e-13,136.03736 141.98932,3.99999999e-05 141.98932,3.99999999e-05 C141.98932,3.99999999e-05 283.97863,136.03737 283.97863,242.97173 Z"/>
      <polygon fill="#3F3D56" points="136.817 370.886 138.271 281.391 198.791 170.674 138.499 267.352 139.153 227.112 180.863 147.009 139.326 216.463 139.326 216.463 140.502 144.089 185.166 80.317 140.687 132.708 141.421 0 136.805 175.682 137.184 168.435 91.774 98.927 136.456 182.347 132.225 263.176 132.099 261.031 79.749 187.885 131.94 268.61 131.411 278.719 131.316 278.871 131.36 279.701 120.625 484.772 134.967 484.772 136.688 378.848 188.751 298.321"/>
    </g>
    <circle cx="109.216" cy="274.472" r="54.315" fill="#F5DD48"/>
    <polygon fill="#3F3D56" points="40.303 376.635 32.33 363.346 106.746 299.561 298.103 299.561 298.103 318.165 229.002 392.581 149.27 408.528"/>
    <polygon fill="#CCC" points="331.043 336.993 331.043 295.411 305.99 295.411 305.99 308.523 298.103 299.561 234.317 363.346 223.686 373.977 210.398 427.132 234.317 485.602 356.573 485.602 356.573 366.004"/>
    <rect width="201.988" height="122.256" x="32.33" y="363.346" fill="#F2F2F2"/>
    <rect width="42.524" height="37.208" x="163.887" y="401.884" fill="#3F3D56"/>
    <rect width="37.208" height="85.047" x="109.404" y="400.555" fill="#CCC"/>
    <polygon fill="#3F3D56" points="66.88 413.843 66.88 400.555 50.934 400.555 50.934 413.843 65.551 413.843"/>
    <polygon fill="#3F3D56" points="65.551 424.474 50.934 424.474 50.934 437.763 66.88 437.763 66.88 424.474"/>
    <rect width="15.946" height="13.289" x="77.511" y="400.555" fill="#3F3D56"/>
    <rect width="15.946" height="13.289" x="77.511" y="424.474" fill="#3F3D56"/>
    <polygon fill="#3F3D56" points="291.459 415.172 291.459 401.884 275.512 401.884 275.512 415.172 290.13 415.172"/>
    <polygon fill="#3F3D56" points="290.13 425.803 275.512 425.803 275.512 439.092 291.459 439.092 291.459 425.803"/>
    <rect width="15.946" height="13.289" x="302.089" y="401.884" fill="#3F3D56"/>
    <rect width="15.946" height="13.289" x="302.089" y="425.803" fill="#3F3D56"/>
    <polygon fill="#3F3D56" points="423.812 376.562 415.839 363.274 490.256 299.488 681.612 299.488 681.612 318.092 612.511 392.509 532.779 408.455"/>
    <polygon fill="#CCC" points="714.553 336.92 714.553 295.338 689.499 295.338 689.499 308.45 681.612 299.488 617.827 363.274 607.196 373.904 593.907 427.059 617.827 485.529 740.082 485.529 740.082 365.931"/>
    <rect width="201.988" height="122.256" x="415.839" y="363.274" fill="#F2F2F2"/>
    <rect width="42.524" height="37.208" x="547.397" y="401.811" fill="#3F3D56"/>
    <rect width="37.208" height="85.047" x="492.913" y="400.482" fill="#CCC"/>
    <polygon fill="#3F3D56" points="450.39 413.77 450.39 400.482 434.443 400.482 434.443 413.77 449.061 413.77"/>
    <polygon fill="#3F3D56" points="449.061 424.401 434.443 424.401 434.443 437.69 450.39 437.69 450.39 424.401"/>
    <rect width="15.946" height="13.289" x="461.021" y="400.482" fill="#3F3D56"/>
    <rect width="15.946" height="13.289" x="461.021" y="424.401" fill="#3F3D56"/>
    <polygon fill="#3F3D56" points="674.968 415.099 674.968 401.811 659.022 401.811 659.022 415.099 673.639 415.099"/>
    <polygon fill="#3F3D56" points="673.639 425.73 659.022 425.73 659.022 439.019 674.968 439.019 674.968 425.73"/>
    <rect width="15.946" height="13.289" x="685.599" y="401.811" fill="#3F3D56"/>
    <rect width="15.946" height="13.289" x="685.599" y="425.73" fill="#3F3D56"/>
    <rect width="2" height="79" x="759.082" y="406.597" fill="#3F3D56"/>
    <path fill="#29A389" d="M782.54015,416.6651 C782.66747,444.28943 763.23229,466.77342 763.23229,466.77342 C763.23229,466.77342 743.59069,444.46953 743.46337,416.8452 C743.33605,389.22087 762.77124,366.73687 762.77124,366.73687 C762.77124,366.73687 782.41284,389.04077 782.54015,416.6651 Z"/>
    <rect width="2" height="79" x="395.082" y="404.597" fill="#3F3D56"/>
    <path fill="#29A389" d="M415.54015,414.6651 C415.66747,442.28943 396.23229,464.77342 396.23229,464.77342 C396.23229,464.77342 376.59069,442.46953 376.46337,414.8452 C376.33605,387.22087 395.77124,364.73687 395.77124,364.73687 C395.77124,364.73687 415.41284,387.04077 415.54015,414.6651 Z"/>
    <path fill="#000" d="M415.54015,414.6651 C415.66747,442.28943 396.23229,464.77342 396.23229,464.77342 C396.23229,464.77342 376.59069,442.46953 376.46337,414.8452 C376.33605,387.22087 395.77124,364.73687 395.77124,364.73687 C395.77124,364.73687 415.41284,387.04077 415.54015,414.6651 Z" opacity=".1"/>
    <rect width="2" height="79" x="369.082" y="404.597" fill="#3F3D56"/>
    <path fill="#29A389" d="M389.54015,414.6651 C389.66747,442.28943 370.23229,464.77342 370.23229,464.77342 C370.23229,464.77342 350.59069,442.46953 350.46337,414.8452 C350.33605,387.22087 369.77124,364.73687 369.77124,364.73687 C369.77124,364.73687 389.41284,387.04077 389.54015,414.6651 Z"/>
    <rect width="957" height="2" x="3.706" y="483.602" fill="#3F3D56"/>
    <path fill="#2F2E41" d="M261.12745,423.76244 C261.12745,423.76244 262.15179,424.93634 260.39667,427.20769 C258.64155,429.47904 260.05877,434.40769 263.39324,434.53321 C266.72771,434.65873 268.34473,436.05534 267.54083,437.89502 C266.73693,439.7347 265.77092,444.10608 269.40229,443.44141 C273.03366,442.77674 274.18134,444.22241 273.53844,445.33354 C272.89554,446.44467 275.15768,443.12385 275.15768,443.12385 C275.15768,443.12385 277.18125,446.13855 279.66494,444.0282 C282.14863,441.91785 283.1361,422.788 278.07272,422.46377 C273.00934,422.13954 261.12745,423.76244 261.12745,423.76244 Z"/>
    <polygon fill="#FFB8B8" points="286.797 514.735 287.95 522.812 293.143 522.812 291.412 513.581"/>
    <path fill="#F2F2F2" d="M293.71967,517.9084 C293.71967,517.9084 300.6428,524.2546 298.91202,524.83153 C297.18124,525.40846 290.83502,532.33153 289.68118,532.90853 C288.64918,533.42453 277.56571,536.94702 279.29649,532.90853 C280.569289,530.282345 282.572411,528.078914 285.06577,526.56233 L286.21962,519.63921 L293.71967,517.9084 Z"/>
    <path fill="#000" d="M293.71967,517.9084 C293.71967,517.9084 300.6428,524.2546 298.91202,524.83153 C297.18124,525.40846 290.83502,532.33153 289.68118,532.90853 C288.64918,533.42453 277.56571,536.94702 279.29649,532.90853 C280.569289,530.282345 282.572411,528.078914 285.06577,526.56233 L286.21962,519.63921 L293.71967,517.9084 Z" opacity=".1"/>
    <polygon fill="#FFB8B8" points="293.72 508.678 294.874 516.755 300.066 516.755 298.335 507.524"/>
    <path fill="#FFB8B8" d="M272.02358,487.23718 L279.58496,462.23493 C279.58496,462.23493 266.89256,450.69638 275.54647,447.23482 C284.20038,443.77326 286.50808,461.08104 286.50808,461.08104 L283.62345,491.08126 L272.0849,491.08126 L272.02358,487.23718 Z"/>
    <path fill="#F5DD48" d="M289.68118,468.86959 C289.68118,468.86959 274.77033,487.99421 277.03341,490.83583 C279.29649,493.67745 283.33498,510.98528 283.33498,510.98528 C283.33498,510.98528 282.75806,517.9084 285.06577,517.9084 C287.37348,517.9084 293.14277,516.75455 293.14277,515.02377 C293.14277,513.29299 287.95042,491.36977 287.95042,491.36977 L302.95053,471.75424 L289.68118,468.86959 Z"/>
    <path fill="#F5DD48" d="M290.835,470.02344 L305.83511,461.94644 C305.83511,461.94644 316.2198,467.13879 313.33511,471.7542 C310.45042,476.36961 297.18111,488.48509 297.18111,488.48509 C297.18111,488.48509 301.2196,508.10062 300.64267,508.67755 C300.06574,509.25448 293.71954,511.56218 291.98876,510.98526 C290.25798,510.40834 281.02715,487.90817 283.33485,486.75426 C285.64255,485.60035 293.14262,473.48494 293.14262,473.48494 L290.835,470.02344 Z"/>
    <path fill="#2F2E41" d="M249.87321,690.75574 C249.87321,690.75574 260.2579,697.10194 261.41175,697.10194 C262.5656,697.10194 278.14264,701.14043 271.21951,704.02506 C264.29638,706.90969 237.75773,702.87121 238.33466,701.14043 C238.91159,699.40965 238.33466,689.02495 239.48851,689.02495 C240.64236,689.02495 249.87321,690.75574 249.87321,690.75574 Z"/>
    <path fill="#2F2E41" d="M261.41175,689.83272 C261.41175,689.83272 271.79644,696.17892 272.95029,696.17892 C274.10414,696.17892 289.68118,700.21741 282.75806,703.10204 C275.83494,705.98667 249.29628,701.94819 249.87321,700.21741 C250.45014,698.48663 249.87321,688.10194 251.02706,688.10194 C252.18091,688.10194 261.41175,689.83272 261.41175,689.83272 Z"/>
    <path fill="#575A88" d="M249.45013,569.52415 C249.45013,569.52415 252.18091,585.17805 255.06555,591.52425 C257.95019,597.87045 254.48862,627.87067 252.75784,632.48609 C251.02706,637.10151 234.29617,691.90959 239.48851,692.48652 C244.68085,693.06345 255.06551,692.48652 255.06551,692.48652 L271.7964,639.98614 L268.9118,569.60104 L249.45013,569.52415 Z"/>
    <path fill="#000" d="M249.45013,569.52415 C249.45013,569.52415 252.18091,585.17805 255.06555,591.52425 C257.95019,597.87045 254.48862,627.87067 252.75784,632.48609 C251.02706,637.10151 234.29617,691.90959 239.48851,692.48652 C244.68085,693.06345 255.06551,692.48652 255.06551,692.48652 L271.7964,639.98614 L268.9118,569.60104 L249.45013,569.52415 Z" opacity=".1"/>
    <path fill="#575A88" d="M253.9117,568.10104 C253.9117,568.10104 256.2194,583.67804 261.4117,587.13964 C266.604,590.60124 264.87326,594.06277 264.87326,594.06277 L262.5656,624.63994 C262.5656,624.63994 240.06544,680.02494 246.9886,686.94808 C253.91176,693.87122 260.25793,690.98657 263.1426,690.40964 C266.02727,689.83271 271.2196,677.71725 268.33495,674.25564 C265.4503,670.79403 274.10422,650.0247 276.41195,646.56314 C278.71968,643.10158 276.41195,638.48614 279.29658,637.3323 C282.18121,636.17846 288.52742,628.67839 288.52742,623.48605 C288.52742,618.29371 296.60442,562.90869 291.41206,559.44712 C286.2197,555.98555 252.93715,566.59151 252.93715,566.59151 L253.9117,568.10104 Z"/>
    <circle cx="242.95" cy="474.639" r="12.692" fill="#FFB8B8"/>
    <circle cx="271.796" cy="428.485" r="10.385" fill="#FFB8B8"/>
    <path fill="#FFB8B8" d="M251.604,474.63886 C251.604,474.63886 258.52712,487.33126 261.98869,487.33126 C265.45026,487.33126 248.14243,500.60059 248.14243,500.60059 C248.14243,500.60059 242.37316,483.8697 241.21931,483.29277 C240.06546,482.71584 251.604,474.63886 251.604,474.63886 Z"/>
    <path fill="#33CCAB" d="M253.9117,486.17741 C253.9117,486.17741 238.91159,491.36975 239.48851,493.10053 C240.06543,494.83131 235.45002,498.8698 235.45002,500.60059 C235.45002,502.33138 234.29617,517.9084 241.2193,530.6008 C248.14243,543.2932 259.104,552.52404 253.9117,558.29331 C248.7194,564.06258 240.64237,573.87031 249.29628,573.87031 C257.95019,573.87031 271.79644,561.17792 284.48884,565.79331 C297.18124,570.4087 294.2966,553.10091 294.2966,553.10091 C294.2966,553.10091 296.02738,539.83159 292.56582,535.7931 C289.10426,531.75461 276.98882,502.90825 276.98882,499.44668 C276.98882,495.98511 265.45024,482.71584 262.5656,482.71584 C259.68096,482.71584 253.9117,486.17741 253.9117,486.17741 Z"/>
    <path fill="#FFB8B8" d="M274.68108,434.83088 C274.68108,434.83088 279.37901,443.76309 279.62622,445.35472 C279.87343,446.94635 287.9504,434.83088 287.9504,434.83088 L278.71957,428.48468 L274.68108,434.83088 Z"/>
    <path fill="#F2F2F2" d="M276.41186,441.75404 L286.21962,431.36935 L297.75817,436.56169 C297.75817,436.56169 308.51937,460.21569 309.1965,461.94649 C309.87363,463.67729 291.98889,471.75425 290.25811,471.75425 C288.52733,471.75425 276.41186,453.86951 276.41186,453.86951 C276.41186,453.86951 273.52722,445.21557 276.41186,441.75404 Z"/>
    <polygon fill="#FFB8B8" points="271.796 455.6 271.796 465.985 278.72 465.985 276.443 455.6"/>
    <path fill="#FFB8B8" d="M275.74648,463.38878 C273.955117,463.364556 272.336181,464.452796 271.68227,466.12072 C271.23127,467.34044 271.38435,468.62233 273.52722,469.15805 C278.14264,470.31191 278.71957,469.15805 278.71957,469.15805 C278.71957,469.15805 286.73167,468.0042 285.03333,465.69649 C283.33499,463.38878 278.71957,463.38878 278.71957,463.38878 L275.74648,463.38878 Z"/>
    <path fill="#F2F2F2" d="M300.6428,513.29304 C300.6428,513.29304 307.56593,519.63924 305.83515,520.21616 C304.10437,520.79308 297.75815,527.71622 296.60431,528.29316 C295.57231,528.80916 284.48884,532.33165 286.21962,528.29316 C287.492414,525.666974 289.495532,523.463543 291.98889,521.94696 L293.14275,515.02384 L300.6428,513.29304 Z"/>
    <path fill="#2F2E41" d="M238.42781,464.86885 C239.22189,464.40354 240.15973,463.82403 240.18241,462.90394 C240.140108,462.213074 239.692207,461.613038 239.04189,461.37603 C238.401714,461.155155 237.723997,461.063826 237.04819,461.10736 C236.788888,461.094118 236.529068,461.119868 236.27741,461.18375 C235.62024,461.38645 235.24166,462.05375 234.72405,462.5065 C233.903525,463.081244 232.961091,463.458245 231.97055,463.60798 C230.350981,464.028196 228.797805,464.671855 227.35575,465.52042 C227.070971,465.664412 226.821556,465.869597 226.62537,466.12128 C226.398492,466.584781 226.297311,467.099735 226.33195,467.61462 C226.20171,469.57205 225.02814,471.27592 224.15204,473.03119 C223.27594,474.78646 222.70037,476.97304 223.72867,478.64371 C224.136785,479.163552 224.517654,479.704219 224.86974,480.26353 C225.59851,481.78211 224.68893,483.65194 225.21548,485.25192 C225.451121,485.881748 225.829169,486.448578 226.3201,486.90814 C227.333253,487.928496 228.581572,488.684314 229.9553,489.10914 C231.2663,489.51282 232.89294,489.78184 233.40641,491.05391 C233.520247,491.629454 233.682861,492.194265 233.89249,492.74223 C234.366241,493.306964 235.052106,493.651083 235.78803,493.69328 C236.59275,493.877295 237.42087,493.937227 238.2437,493.871 C239.075294,493.799122 239.840994,493.389252 240.36198,492.73711 C240.594574,492.281699 240.882666,491.856843 241.21968,491.47224 C242.05503,490.77408 243.32389,491.32553 244.39674,491.14053 C245.284207,490.973097 245.994276,490.306624 246.21753,489.43153 C246.246972,488.974931 246.372934,488.52977 246.5871,488.12544 C247.25335,487.27285 249.00644,487.87474 249.44632,486.88616 C249.73215,486.24378 249.13415,485.56516 248.55592,485.16516 C247.56589,484.587571 246.616222,483.943423 245.71347,483.23716 C244.80097,482.505825 244.342294,481.347129 244.50699,480.18938 C244.90399,478.5166 247.08804,477.59554 247.1604,475.87781 C247.097871,474.878332 246.554643,473.971204 245.70307,473.44424 C244.861304,472.93383 244.054018,472.368611 243.28644,471.75224 C242.76917,471.2515 242.37912,470.62311 241.81682,470.17353 C240.706477,469.480955 239.421973,469.118649 238.11338,469.12894 C237.41868,469.05764 234.6476,468.73672 234.75661,467.67852 C234.84715,466.79969 237.72268,465.28204 238.42781,464.86885 Z"/>
    <path fill="#F2F2F2" d="M276.41186,441.17704 C276.41186,441.17704 270.06566,443.48475 270.06566,446.36939 C270.06566,449.25403 267.18102,458.48486 270.06566,458.48486 C272.9503,458.48486 278.71957,456.27028 278.71957,456.27028 L276.41186,441.17704 Z"/>
    <path fill="#FFB8B8" d="M274.68108,482.71584 C274.68108,482.71584 291.41197,476.94657 291.98889,476.94657 C292.56581,476.94657 300.6428,472.33115 300.06589,470.60037 L297.75819,456.17719 C297.75819,456.17719 288.52735,437.13859 294.87355,437.13859 C301.21975,437.13859 304.68131,452.1387 304.68131,452.1387 C304.68131,452.1387 318.52757,478.10042 311.02751,483.8697 C303.52745,489.63898 272.37339,500.0237 270.64261,498.29288 C268.91183,496.56206 274.68108,482.71584 274.68108,482.71584 Z"/>
    <path fill="#FFB8B8" d="M290.835,445.21557 L294.72926,448.96835 L289.68114,453.86948 C289.68114,453.86948 282.75802,450.98484 283.33494,452.71563 C283.91186,454.44642 287.37344,459.63875 289.68114,459.63875 C291.98884,459.63875 303.99944,452.13875 304.05188,449.83099 C304.10432,447.52323 296.60427,439.4463 294.87349,438.86937 C293.14271,438.29244 290.835,445.21557 290.835,445.21557 Z"/>
    <path fill="#F2F2F2" d="M283.51253,441.19409 C283.51253,441.19409 291.98889,448.67709 293.14275,448.67709 C294.29661,448.67709 296.39505,437.43409 296.39505,437.43409 C296.39505,437.43409 289.55593,432.97792 287.02238,434.19286 C284.48883,435.4078 283.51253,441.19409 283.51253,441.19409 Z"/>
    <path fill="#33CCAB" d="M253.9117,489.63897 C253.9117,489.63897 253.9117,481.56197 271.21951,481.56197 L278.71957,481.56197 L275.258,500.60057 L263.71946,504.06213 L253.9117,489.63897 Z"/>
    <path fill="#2F2E41" d="M291.71843,424.27576 C290.022202,424.267589 288.327807,424.163087 286.64343,423.96276 C285.32058,420.76599 283.63575,418.08365 281.81321,417.08361 C280.33993,415.954365 278.703187,415.056198 276.95933,414.42003 C273.11524,412.78692 266.7161,413.80554 266.34201,415.66285 C258.77788,419.27718 260.68933,425.62454 260.68933,425.62454 C261.86464,428.10894 264.5014,427.00787 266.73833,425.88278 C267.16343,427.723489 268.711369,429.090558 270.59051,429.28485 C274.28444,429.42393 276.07577,430.97105 275.18521,433.00907 C274.29465,435.04709 273.2245,439.88967 277.24733,439.15334 C281.27016,438.41701 282.54156,440.01855 281.82933,441.24945 C281.1171,442.48035 283.62313,438.80156 283.62313,438.80156 C283.62313,438.80156 285.86484,442.14125 288.61627,439.80339 C288.894488,439.535396 289.092917,439.195482 289.18949,438.82145 C290.053099,439.33108 291.072459,439.509569 292.05785,439.3237 C295.35353,437.84913 293.30676,434.38656 293.30676,434.38656 C293.30676,434.38656 297.70653,433.71161 296.28885,433.8235 C294.87117,433.93539 293.97432,432.09773 296.37316,428.7855 C298.772,425.47327 293.94125,424.35093 291.71843,424.27576 Z"/>
    <rect width="1.731" height="5.192" x="266.893" y="421.273" fill="#F5DD48" transform="rotate(18.407 267.758 423.87)"/>
    <g transform="translate(605 414.916)">
      <rect width="287" height="2" y="194.686" fill="#3F3D56"/>
      <g transform="translate(99)">
        <path fill="#A0616A" d="M112.70985 15.0764925L128.83773 11.9295825C128.83773 11.9295825 132.77136-1.44475746 137.49173.128692536 142.2121 1.70214254 134.34483 15.0764925 134.34483 15.0764925L111.92313 25.3039125 112.70985 15.0764925zM14.7624703 28.4508325L7.68194032 37.4981825C7.68194032 37.4981825-2.54549968 37.1048125.601410317 42.6119025 3.74832032 48.1189925 10.8288403 44.9720725 11.2222103 43.7919825 11.6155803 42.6118925 23.0231003 32.3844625 23.0231003 32.3844625L14.7624703 28.4508325z"/>
        <path fill="#F5DD48" d="M43.6746503,18.0267125 L49.5751003,14.8798125 C49.5751003,14.8798125 74.7503303,12.9129925 84.1910403,19.2068125 C93.6317503,25.5006325 44.4613803,26.2873425 44.4613803,26.2873425 L43.6746503,18.0267125 Z"/>
        <path fill="#3F3D56" d="M54.8855003,12.3229125 C54.8855003,12.3229125 51.7385903,4.84901254 56.0655903,4.06228254 C58.5333893,3.57838276 61.0716814,3.57838276 63.5394803,4.06228254 L58.8191303,7.99591254 L54.8855003,12.3229125 Z"/>
        <path fill="#000" d="M54.8855003,12.3229125 C54.8855003,12.3229125 51.7385903,4.84901254 56.0655903,4.06228254 C58.5333893,3.57838276 61.0716814,3.57838276 63.5394803,4.06228254 L58.8191303,7.99591254 L54.8855003,12.3229125 Z" opacity=".1"/>
        <path fill="#2F2E41" d="M33.2505303,57.5596925 L21.8430103,56.7729625 L23.8098203,60.3132325 C23.8098203,60.3132325 8.07530032,65.0335825 13.1890203,78.4079325 C16.780461,87.4105791 21.1227675,96.095192 26.1700203,104.369933 L31.2837403,114.204013 C31.2837403,114.204013 41.9045403,115.777463 42.2979003,112.630553 C42.6912603,109.483643 42.2979003,107.910203 40.3310903,106.336753 C38.5261717,104.71057 37.4021779,102.462586 37.1841803,100.042943 C37.1841803,98.4694925 37.5775503,96.8960325 36.3974603,96.1093125 C35.2173703,95.3225925 34.8240103,94.1424925 34.8240103,91.7823125 C34.8240103,89.4221325 30.4970103,80.7681425 30.4970103,80.7681425 C30.4970103,80.7681425 44.2647203,80.3747825 48.5917103,83.9150525 C52.9187003,87.4553225 67.0797703,100.829653 67.0797703,100.829653 C67.8630116,101.649277 68.5252899,102.576472 69.0465803,103.583203 C69.8333103,105.156653 69.8333103,105.943373 71.4067603,106.730103 C72.9802103,107.516833 71.8001203,110.663733 71.4067603,111.057103 C71.0134003,111.450473 67.0797503,127.184913 67.0797503,127.184913 C67.0797503,127.184913 62.7527503,134.658813 67.4731103,135.052173 C72.1934703,135.445533 76.5204603,135.838903 76.9138203,135.052173 C77.3509812,133.961768 77.8772485,132.909241 78.4872803,131.905273 C79.6673603,129.938453 78.4872803,125.611463 78.4872803,125.611463 C78.4872803,125.611463 89.8948003,111.057033 86.3545303,102.009683 C82.8142603,92.9623325 75.3403703,72.5074625 75.3403703,72.5074625 L63.9328503,67.7871125 L43.0846103,60.3132125 L33.2505303,57.5596925 Z"/>
        <path fill="#2F2E41" d="M32.4638103 112.237143C32.4638103 112.237143 30.1036303 121.284493 29.3169003 121.677853 28.5301703 122.071213 19.8761903 129.545113 25.7766403 130.725203 31.6770903 131.905293 36.0040703 131.511933 37.1841603 130.331843 38.3642503 129.151753 37.9708903 127.971663 39.9377003 127.578303 41.9045103 127.184943 45.4447903 126.004843 45.0514203 123.251303 44.6580503 120.497763 42.6912503 113.023873 41.5111603 112.237143 40.3310703 111.450413 32.4638103 112.237143 32.4638103 112.237143zM66.6863903 132.298653C66.6863903 132.298653 63.1461203 135.052193 65.1129303 140.165913 67.0797403 145.279633 69.8332903 150.786713 69.8332903 150.786713 69.8332903 150.786713 72.9801903 160.620793 78.0939103 159.047333 79.9663485 158.383347 81.3442259 156.773458 81.7111903 154.820963 82.4423089 152.001499 81.9216355 149.00369 80.2826203 146.595883L77.3071903 142.132733 74.1602803 133.872103 66.6863903 132.298653z"/>
        <path fill="#A0616A" d="M56.8523103,16.6499125 C56.8523103,16.6499125 52.1319603,16.2565525 51.3452303,17.4366425 C50.5585003,18.6167325 47.0182303,34.3512425 51.3452303,35.9246925 C55.6722303,37.4981425 68.6532303,40.2516925 70.6200203,38.2848725 C72.5868103,36.3180525 73.3735603,19.0100925 73.3735603,19.0100925 L56.8523103,16.6499125 Z"/>
        <path fill="#000" d="M56.8523103,16.6499125 C56.8523103,16.6499125 52.1319603,16.2565525 51.3452303,17.4366425 C50.5585003,18.6167325 47.0182303,34.3512425 51.3452303,35.9246925 C55.6722303,37.4981425 68.6532303,40.2516925 70.6200203,38.2848725 C72.5868103,36.3180525 73.3735603,19.0100925 73.3735603,19.0100925 L56.8523103,16.6499125 Z" opacity=".1"/>
        <path fill="#F2F2F2" d="M49.7717803,29.6309125 C49.7717803,29.6309125 55.2788603,35.1379925 58.8191303,34.3512625 C62.3594003,33.5645325 70.6200203,30.0242625 71.4067403,28.4508225 C72.1934603,26.8773825 82.0275403,26.4840025 82.0275403,26.4840025 L71.4067403,55.9862325 L78.8806403,80.7680925 C78.8806403,80.7680925 83.2076403,75.6543725 71.4067403,75.2610125 C59.6058403,74.8676525 43.8713303,68.9672025 41.1177903,61.0999425 C41.1177903,61.0999425 23.8097903,58.7397725 23.0231003,58.3464025 C22.2364103,57.9530325 24.9899503,55.5929125 24.9899503,55.5929125 L36.3974803,52.4460125 L44.6581003,41.8252125 L49.7717803,29.6309125 Z"/>
        <path fill="#F5DD48" d="M53.3120503 17.4366725C53.3120503 17.4366725 55.2788603 14.6831225 53.3120503 14.6831225 50.1600251 14.6177738 47.0069932 14.7491524 43.8713303 15.0764925 41.9045203 15.4698525 34.4306203 13.5030425 33.6439003 15.8632125 32.8571803 18.2233825 32.8571703 32.7778225 34.4306203 33.9579125 36.0040703 35.1380025 36.7908003 35.1380025 34.8239903 37.4981825 32.8571803 39.8583625 28.1368203 47.7256125 29.3169003 50.4791825 30.4969803 53.2327525 16.7292903 54.0194525 18.6961003 57.1663625 19.7801122 58.9917958 21.6917456 60.1681838 23.8098203 60.3132625 23.8098203 60.3132625 24.5965503 54.0194525 29.3169003 57.1663625 34.0372503 60.3132725 40.3310703 68.1805225 45.4447903 63.0668025 50.5585103 57.9530825 52.5253203 53.2327325 52.9186803 46.5455625 53.3304596 41.5502647 53.0658288 36.5222374 52.1319603 31.5977625 51.3452303 27.6641025 53.3120503 17.4366725 53.3120503 17.4366725zM73.7669503 24.9105625C73.7669503 24.9105625 76.9138503 27.6641025 73.7669503 34.3512725 70.6200503 41.0384425 62.3594203 56.7729625 69.0465903 67.0004025 75.7337603 77.2278425 78.4873103 79.9814025 76.9138503 81.9481925 75.956956 83.1944435 75.4075229 84.7053891 75.3404003 86.2751925L79.6674003 84.7017425C80.1421683 81.4849637 80.9327135 78.3227865 82.0275803 75.2610325 83.6010303 71.3274025 78.8806803 59.5265125 78.8806803 59.5265125L80.4541303 44.1853625C80.4541303 44.1853625 86.7479403 34.3512825 87.5346603 33.9579225 88.3213803 33.5645625 85.9612103 16.6499225 85.9612103 16.6499225 85.9612103 16.6499225 82.0275803 15.4698325 80.0607703 16.6499225 78.0939603 17.8300125 73.7669503 24.9105625 73.7669503 24.9105625z"/>
        <path fill="#F5DD48" d="M36.0040703 16.2565825L33.6439503 16.2565825 17.5160703 24.5172025C17.5160703 24.5172025 16.3359803 19.4034825 15.5492503 20.5835725 14.7625203 21.7636625 15.1558903 24.9105725 13.1890703 25.6972925 11.2222503 26.4840125 10.0421703 27.6641025 13.1890703 29.2375525 16.3359703 30.8110025 16.7293403 29.6309225 16.7293403 32.3844625 16.7293403 35.1380025 19.0895203 35.5313625 21.0563403 34.7446425 23.0231603 33.9579225 23.4165203 33.5645525 25.3833403 34.3512725 27.3501603 35.1379925 26.1700703 36.3180925 28.9236103 35.1380025 31.6771503 33.9579125 38.7576903 34.3512725 38.7576903 34.3512725L36.0040703 16.2565825zM83.2076303 17.4366725L85.9611703 16.6499425C85.9611703 16.6499425 94.2217903 17.4366725 96.1886103 17.4366725 98.1554303 17.4366725 100.12224 17.0433025 101.30233 17.0433025 102.48242 17.0433025 108.38286 16.2565825 109.16959 15.4698525 109.95632 14.6831225 113.49659 12.7163125 113.88994 13.8964025 114.28329 15.0764925 118.6103 22.5504025 114.67667 26.0906525 110.74304 29.6309025 109.95631 28.0574725 107.59613 29.6309225 105.23595 31.2043725 86.3545303 34.3512725 85.9611303 33.9579225 85.5677303 33.5645725 83.2076303 17.4366725 83.2076303 17.4366725z"/>
        <circle cx="67.08" cy="20.584" r="11.801" fill="#A0616A"/>
        <path fill="#2F2E41" d="M58.3958603,21.0581425 C58.5299832,21.315012 58.6128782,21.5955108 58.6399303,21.8840225 C58.963764,23.2614366 60.181903,24.2428321 61.5966803,24.2661325 C61.4829924,24.778322 61.5925689,25.3146917 61.8980363,25.7412508 C62.2035037,26.1678098 62.6760144,26.4442751 63.1975303,26.5015825 C63.9953733,25.4794838 64.5904734,24.314289 64.9507903,23.0687325 C65.0393393,22.579569 65.2423391,22.1182877 65.5432103,21.7225625 C66.0148615,21.3269814 66.6074178,21.1042538 67.2228603,21.0912225 C70.3629931,20.6866674 73.5226073,20.4512476 76.6880203,20.3859825 C77.1183211,20.4168648 77.5488306,20.3288581 77.9324903,20.1315825 C78.8217703,19.5584225 78.5250603,18.1763825 77.9633703,17.2798225 C76.8565037,15.5266044 75.1737113,14.2135034 73.2040103,13.5660425 C71.7705478,13.1801608 70.302449,12.9369314 68.8211303,12.8399025 C66.859033,12.5260658 64.8811189,12.3206906 62.8964003,12.2247125 C60.8967454,12.1329056 58.9176805,12.6621997 57.2308203,13.7399525 C56.0480703,14.5735025 54.1070003,16.9095025 55.0567203,18.3836025 C55.2088003,18.6196025 55.6891003,18.7359725 55.8934503,18.9766025 C56.1715303,19.3039825 56.1727903,19.7988825 56.4887003,20.0960625 C57.0160503,20.5921025 57.9723103,20.4345025 58.3958603,21.0581425 Z"/>
        <path fill="#3F3D56" d="M67.0797503,0.915422536 C67.0797503,0.915422536 53.7054103,5.63578254 54.8855003,12.3229525 C56.0655903,19.0101225 59.6058503,26.8773825 67.0797503,26.4840125 C74.5536503,26.0906425 78.4872803,17.9554725 78.4872803,17.9554725 L76.5204603,6.81587254 C76.5204603,6.81587254 69.0465603,0.915422536 67.0797503,0.915422536 Z"/>
        <path fill="#2F2E41" d="M65.3920803 24.5205225C65.3920803 24.5205225 70.6501803 18.8157725 73.2973203 22.1236225 73.2973203 22.1236225 73.1768803 21.9603425 65.3920803 24.5205225zM75.3200103 170.382263C68.2686703 170.382263 59.5443903 168.046263 51.0425303 159.603193 30.2296303 138.932433 10.4566103 136.859193 10.2593503 136.840763L10.3327203 136.057113C10.5328603 136.075943 30.5863103 138.177583 51.5972303 159.044643 62.3935803 169.767243 73.5372303 170.424133 80.9842303 169.086163 85.9031577 168.192969 90.5879328 166.304889 94.7515503 163.537593L95.2163603 164.172193C90.9644192 167.003304 86.1794689 168.936966 81.1543603 169.854833 79.2291688 170.204071 77.2766214 170.380583 75.3200103 170.382263z"/>
        <circle cx="20.86" cy="148.623" r="4.72" fill="#2F2E41"/>
        <circle cx="54.295" cy="170.652" r="4.72" fill="#2F2E41"/>
      </g>
    </g>
  </g>
</svg>
