<svg xmlns="http://www.w3.org/2000/svg" width="16" height="23" viewBox="0 0 16 23">
  <g fill="#07454C">
    <path d="M15.756641.357763975C15.756641.160176388 15.5964646 1.20987503e-17 15.398877 0L1.05826584 0C.860678251-1.20987503e-17.700501863.160176388.700501863.357763975.700501863.555351563.860678251.71552795 1.05826584.71552795L15.3995925.71552795C15.5969006.715133333 15.7566414.555072469 15.756641.357763975L15.756641.357763975zM15.026087 4.37330683L15.026087 1.78881988C15.026087 1.59123229 14.8659106 1.4310559 14.668323 1.4310559L1.84749317 1.4310559C1.64990558 1.4310559 1.48972919 1.59123229 1.48972919 1.78881988L1.48972919 4.37330683C1.48972919 7.93377391 4.21445963 10.3479652 5.79291429 11.4470161 3.9833441 12.6934658 1.4310559 15.065441 1.4310559 18.5235876L1.4310559 21.1080745C1.4310559 21.3056621 1.59123229 21.4658385 1.78881988 21.4658385L14.668323 21.4658385C14.8659106 21.4658385 15.026087 21.3056621 15.026087 21.1080745L15.026087 18.5443379C15.026087 14.9938882 12.2620025 12.5589466 10.6649441 11.4491627 12.4745143 10.202713 15.026087 7.83145342 15.026087 4.37330683zM8.22857143 17.3086211L11.6702609 20.7503106 4.78688199 20.7503106 8.22857143 17.3086211zM9.82562981 11.1464944C9.72164271 11.2116524 9.65849959 11.3257326 9.65849959 11.4484472 9.65849959 11.5711618 9.72164271 11.685242 9.82562981 11.7504 11.1744 12.6054559 14.310559 14.9795776 14.310559 18.5443379L14.310559 20.7503106 12.6734311 20.7503106C12.6669913 20.7424398 12.6641292 20.7324224 12.6569739 20.7252671L8.5863354 16.6546286 8.5863354 16.0993789C8.5863354 15.9017913 8.42615902 15.7416149 8.22857143 15.7416149 8.03098384 15.7416149 7.87080745 15.9017913 7.87080745 16.0993789L7.87080745 16.6546286 3.80016894 20.7252671C3.79301366 20.7324224 3.79015155 20.7424398 3.7837118 20.7503106L2.14658385 20.7503106 2.14658385 18.5235876C2.14658385 15.1055106 4.95646211 12.812959 6.63151304 11.7511155 6.73514146 11.6855333 6.7979569 11.5714421 6.7979569 11.448805 6.7979569 11.3261678 6.73514146 11.2120766 6.63151304 11.1464944 5.30063106 10.3021714 2.14658385 7.95309317 2.14658385 4.37330683L2.14658385 2.14658385 14.310559 2.14658385 14.310559 4.37330683C14.310559 7.79209938 11.5006807 10.0839354 9.82562981 11.1464944z"/>
    <path d="M11.8355478 6.41971677L4.81335652 6.41971677C4.68519155 6.4199748 4.56691472 6.48863713 4.50313626 6.59980653 4.4393578 6.71097592 4.43978184 6.84773755 4.50424845 6.95850932 5.35358012 8.4045913 6.59359006 9.28969938 7.90658385 10.2277565L8.0203528 10.3086112C8.14479287 10.3979434 8.31234999 10.3979434 8.43679006 10.3086112 8.62425839 10.1748075 8.81315776 10.0431503 9.00205714 9.91149317 10.1748075 9.09292919 11.3876273 8.24717516 12.1439404 6.95850932 12.2093079 6.84797336 12.2102806 6.71084868 12.1464879 6.59939646 12.0826952 6.48794423 11.963965 6.41933483 11.8355478 6.41971677L11.8355478 6.41971677zM8.59205963 9.32404472L8.22928696 9.57805714C7.15241739 8.8088646 6.20076522 8.11694907 5.47736646 7.13452919L11.160805 7.13452919C10.4874932 8.00174907 9.56231553 8.64715528 8.59205963 9.32404472L8.59205963 9.32404472zM1.05826584 22.8968944L15.3995925 22.8968944C15.5971801 22.8968944 15.7573565 22.736718 15.7573565 22.5391304 15.7573565 22.3415428 15.5971801 22.1813665 15.3995925 22.1813665L1.05826584 22.1813665C.860678251 22.1813665.700501863 22.3415428.700501863 22.5391304.700501863 22.736718.860678251 22.8968944 1.05826584 22.8968944zM8.22857143 13.5950311C8.03098384 13.5950311 7.87080745 13.7552074 7.87080745 13.952795L7.87080745 14.668323C7.87080745 14.8659106 8.03098384 15.026087 8.22857143 15.026087 8.42615902 15.026087 8.5863354 14.8659106 8.5863354 14.668323L8.5863354 13.952795C8.5863354 13.7552074 8.42615902 13.5950311 8.22857143 13.5950311zM8.22857143 11.4484472C8.03098384 11.4484472 7.87080745 11.6086236 7.87080745 11.8062112L7.87080745 12.5217391C7.87080745 12.7193267 8.03098384 12.8795031 8.22857143 12.8795031 8.42615902 12.8795031 8.5863354 12.7193267 8.5863354 12.5217391L8.5863354 11.8062112C8.5863354 11.6086236 8.42615902 11.4484472 8.22857143 11.4484472z"/>
  </g>
</svg>
