<svg xmlns="http://www.w3.org/2000/svg" width="48" height="48" viewBox="0 0 48 48">
  <path fill="#FFF" d="M14.6666667,3 C8.22433333,3 3,8.22433333 3,14.6666667 L3,33.3333333 C3,39.7756667 8.22433333,45 14.6666667,45 L33.3333333,45 C39.7756667,45 45,39.7756667 45,33.3333333 L45,14.6666667 C45,8.22433333 39.7756667,3 33.3333333,3 L14.6666667,3 Z M38,7.66666667 C39.288,7.66666667 40.3333333,8.712 40.3333333,10 C40.3333333,11.288 39.288,12.3333333 38,12.3333333 C36.712,12.3333333 35.6666667,11.288 35.6666667,10 C35.6666667,8.712 36.712,7.66666667 38,7.66666667 Z M24,12.3333333 C30.4423333,12.3333333 35.6666667,17.5576667 35.6666667,24 C35.6666667,30.4423333 30.4423333,35.6666667 24,35.6666667 C17.5576667,35.6666667 12.3333333,30.4423333 12.3333333,24 C12.3333333,17.5576667 17.5576667,12.3333333 24,12.3333333 Z M24,17 C20.1340068,17 17,20.1340068 17,24 C17,27.8659932 20.1340068,31 24,31 C27.8659932,31 31,27.8659932 31,24 C31,20.1340068 27.8659932,17 24,17 Z"/>
</svg>
