<svg xmlns="http://www.w3.org/2000/svg" width="163" height="180" viewBox="0 0 163 180">
  <g fill="none" fill-rule="evenodd">
    <path fill="#33CCAB" fill-rule="nonzero" d="M161,93.9959678 C155.853516,121.840745 120.952457,141.623006 99.2188927,149.858323 C77.485328,158.135444 58.2398723,171.410755 35.38,160.416398 C12.4784126,149.42204 5.26953125,128.920276 2.13476563,105.640276 C-1,82.3602764 -1,68.0575421 12,43.0802764 C25,18.1030108 49.2053648,0.270123537 75.95,0.270123537 C164.474609,13.2948467 166.146484,66.1511904 161,93.9959678 Z" transform="matrix(1 0 0 -1 0 179.553)"/>
    <path fill="#FDB797" fill-rule="nonzero" d="M65.63,107.30283 L94.02,107.30283 C95.8701539,107.30283 97.37,108.802677 97.37,110.65283 L97.37,135.37283 C97.37,145.059905 89.5170745,152.91283 79.83,152.91283 L79.83,152.91283 C70.1429255,152.91283 62.29,145.059905 62.29,135.37283 L62.29,110.65283 C62.29,108.806575 63.7837525,107.308342 65.63,107.30283 Z"/>
    <path fill="#000" fill-rule="nonzero" d="M62.28,108.60283 L97.37,108.60283 L97.37,136.67283 C97.37,146.359905 89.5170745,154.21283 79.83,154.21283 L79.83,154.21283 C70.1429255,154.21283 62.29,146.359905 62.29,136.67283 L62.29,108.60283 L62.28,108.60283 Z" opacity=".05"/>
    <path fill="#000" fill-rule="nonzero" d="M62.35,121.85283 C73.6586913,126.079472 86.1074023,126.114949 97.44,121.95283 L97.44,117.64283 L62.35,117.64283 L62.35,121.85283 Z" opacity=".1"/>
    <path fill="#773E18" fill-rule="nonzero" d="M129.808678,80.7520969 C126.637386,105.474407 105.514868,124.58 79.93,124.58 C54.3734597,124.58 33.2693936,105.516692 30.0619219,80.8341952 C27.7693659,80.2673788 26,76.5908976 26,72.14 C26,67.2964627 28.0953074,63.37 30.68,63.37 C30.7294932,63.37 30.7788069,63.3714397 30.8279299,63.374298 C35.8133014,40.8482042 55.9040962,24 79.93,24 C103.955246,24 124.045598,40.8472813 129.03166,63.3724472 C131.56477,63.48359 133.6,67.366405 133.6,72.14 C133.6,76.414125 131.968388,79.9741258 129.808679,80.7520908 Z"/>
    <path fill="#FF9770" d="M32.6509186,84 C32.6509186,84 29.1696018,39.6015625 61.48,31.8007813 C83.0202655,26.6002604 99.4269321,18.98 110.7,8.94 C99.4269321,3.09333333 86.569043,0.17 72.1263325,0.17 C50.4622668,0.17 34.5560609,11.4724914 26,24 C17.4439391,36.5275086 9.40711916,64.1429631 32.6509186,84 Z"/>
    <path fill="#FF9770" d="M86.0111692,24.9567073 C89.9308064,15.6455691 98.59375,10.5248539 112,9.59456166 C132.264741,21.8560118 141.131407,36.8978246 138.6,54.72 C136.068593,72.5421754 132.948593,81.9388421 129.24,82.91 C123.333333,52.9673958 108.923723,33.6496316 86.0111692,24.9567073 Z"/>
    <path fill="#333" d="M86.0111692,24.9567073 C89.9308064,15.6455691 98.59375,10.5248539 112,9.59456166 C132.264741,21.8560118 141.131407,36.8978246 138.6,54.72 C136.068593,72.5421754 132.948593,81.9388421 129.24,82.91 C123.333333,52.9673958 108.923723,33.6496316 86.0111692,24.9567073 Z" opacity=".1"/>
    <path fill="#DCD0BF" fill-rule="nonzero" d="M151.33493,141.527328 C139.736078,158.400886 117.333201,173.194227 75.95,179.282983 C49.2053648,179.282983 25,161.450096 12,136.47283 C11.4248986,135.367872 10.8752388,134.283804 10.3501666,133.218925 C18.7649894,107.348879 29.26233,84.6439434 29,75.31 L31.74,74.97 L58.94,97.11 C58.94,97.11 77.28,85.41 102.28,97.11 L128.22,74 L129.55,74 L129.56,74.02 C129.534374,84.511194 142.804028,111.774576 151.33493,141.527328 Z M79.19,105.95 L79.18,105.95 C88.97,105.95 96.9,103.95 96.9,101.52 C96.9,99.09 88.97,97.09 79.19,97.09 C69.41,97.09 61.48,99.09 61.48,101.52 C61.48,103.95 69.41,105.95 79.19,105.95 Z"/>
  </g>
</svg>
