<svg xmlns="http://www.w3.org/2000/svg" xmlns:xlink="http://www.w3.org/1999/xlink" width="163" height="178" viewBox="0 0 163 178">
  <defs>
    <path id="james-a" d="M157.135142,119.652995 C169.085937,130.93 163,169.431866 124.108602,170.980408 C102.375037,179.257529 57.8001901,176.608615 34.9403178,165.614258 C6.14344278,156.185076 1.43250528,111.515625 0.606333404,101.757813 C-0.219838471,92 2.67595898,63.1688203 18.5694103,40.0932109 C34.4211466,17.0176015 58.5426577,-5.16601136 80.8917629,2.5117384 C137.62,22 83.453774,50.1258114 157.135142,119.652995 Z"/>
  </defs>
  <g fill="none" fill-rule="evenodd">
    <use fill="#29A389" fill-rule="nonzero" xlink:href="#james-a"/>
    <path fill="#F5DD48" fill-rule="nonzero" d="M147.5,163.93 C143.32,141.09 132.94,134.78 127.41,134.78 L39.7,134.78 C39.7,134.78 24.7,136.01 20,157.03 C39.0700645,170.443899 61.8247959,177.625926 85.14,177.59 C107.307739,177.626473 128.995803,176.136748 147.5,163.93 Z"/>
    <path fill="#FFC0B2" fill-rule="nonzero" d="M69.63,105.61 L98.02,105.61 C99.8701539,105.61 101.37,107.109846 101.37,108.96 L101.37,133.68 C101.37,143.367075 93.5170745,151.22 83.83,151.22 L83.83,151.22 C74.1429255,151.22 66.29,143.367075 66.29,133.68 L66.29,108.96 C66.29,107.113744 67.7837525,105.615511 69.63,105.61 Z"/>
    <path fill="#000" fill-rule="nonzero" d="M66.28,106.91 L101.37,106.91 L101.37,134.98 C101.37,144.667075 93.5170745,152.52 83.83,152.52 L83.83,152.52 C74.1429255,152.52 66.29,144.667075 66.29,134.98 L66.29,106.91 L66.28,106.91 Z" opacity=".1"/>
    <path fill="#000" fill-rule="nonzero" d="M66.35,120.16 C77.6586913,124.386642 90.1074023,124.422118 101.44,120.26 L101.44,115.95 L66.35,115.95 L66.35,120.16 Z" opacity=".1"/>
    <ellipse cx="83.76" cy="68.76" fill="#BDA091" fill-rule="nonzero" rx="50.76" ry="51.76"/>
    <circle cx="84.29" cy="72.29" r="50.29" fill="#FFC0B2" fill-rule="nonzero"/>
    <ellipse cx="34.7" cy="70.07" fill="#FFC0B2" fill-rule="nonzero" rx="4.68" ry="8.77"/>
    <ellipse cx="132.94" cy="70.07" fill="#FFC0B2" fill-rule="nonzero" rx="4.68" ry="8.77"/>
  </g>
</svg>
