<svg xmlns="http://www.w3.org/2000/svg" width="163" height="182" viewBox="0 0 163 182">
  <g fill="none" transform="translate(.41)">
    <path fill="#33CCAB" d="M160.590006,110.995968 C155.443522,138.840745 120.542463,158.623006 98.8088987,166.858323 C77.075334,175.135444 57.8298783,188.410755 34.970006,177.416398 C12.0684186,166.42204 4.85953723,145.920276 1.7247716,122.640276 C-1.40999402,99.3602764 -1.40999402,85.0575421 11.590006,60.0802764 C24.590006,35.1030108 48.7953708,17.2701235 75.540006,17.2701235 C164.549683,30.0204783 165.73649,83.1511904 160.590006,110.995968 Z" transform="matrix(1 0 0 -1 0 198.86)"/>
    <path fill="#FFBCA3" d="M139.845152,156.685004 C125.933671,171.284625 104.981908,181.758921 75.540006,181.590153 C54.2595782,181.590153 34.5868182,170.299761 20.8874315,153.103512 C27.1340151,142.750791 36.290006,142 36.290006,142 L124.000006,142 C128.114039,142 134.912347,145.492325 139.845152,156.685004 Z"/>
    <path fill="#FEDCB4" d="M65.220006,109.30283 L93.610006,109.30283 C95.4601599,109.30283 96.960006,110.802677 96.960006,112.65283 L96.960006,137.37283 C96.960006,147.059905 89.1070805,154.91283 79.420006,154.91283 L79.420006,154.91283 C69.7329315,154.91283 61.880006,147.059905 61.880006,137.37283 L61.880006,112.65283 C61.880006,110.806575 63.3737585,109.308342 65.220006,109.30283 Z"/>
    <circle cx="79.54" cy="65.07" r="54.76" fill="#72351C"/>
    <path fill="#000" d="M61.870006,110.60283 L96.960006,110.60283 L96.960006,138.67283 C96.960006,148.359905 89.1070805,156.21283 79.420006,156.21283 L79.420006,156.21283 C69.7329315,156.21283 61.880006,148.359905 61.880006,138.67283 L61.880006,110.60283 L61.870006,110.60283 Z" opacity=".05"/>
    <path fill="#000" d="M61.940006,123.85283 C73.2486973,128.079472 85.6974082,128.114949 97.030006,123.95283 L97.030006,119.64283 L61.940006,119.64283 L61.940006,123.85283 Z" opacity=".1"/>
    <path fill="#FEDCB4" d="M129.398684,82.7520969 C126.227392,107.474407 105.104874,126.58 79.520006,126.58 C53.9634657,126.58 32.8593996,107.516692 29.6519279,82.8341952 C27.3593719,82.2673788 25.590006,78.5908976 25.590006,74.14 C25.590006,69.2964627 27.6853133,65.37 30.270006,65.37 C30.3194992,65.37 30.3688129,65.3714397 30.4179359,65.374298 C35.4033073,42.8482042 55.4941022,26 79.520006,26 C103.545252,26 123.635604,42.8472813 128.621666,65.3724472 C131.154776,65.48359 133.190006,69.366405 133.190006,74.14 C133.190006,78.414125 131.558394,81.9741258 129.398685,82.7520908 Z"/>
    <path fill="#72351C" d="M42.2514996,33.498715 C44.3476677,43.0129824 75.1007482,55.37 123.829123,47.62 L111.283937,25.79 L89.0504805,16.93 C58.6791698,10.4900824 43.0795095,16.0129874 42.2514996,33.498715 Z"/>
    <path fill="#72351C" d="M44.9630513,34.71 C34.950006,12.7359446 79.1158711,12.7359446 86.5930513,0 C87.5072114,1.59720771 87.702643,3.50671488 87.1309841,5.25599112 C86.5593252,7.00526736 85.2739904,8.43086397 83.5930513,9.18 C91.5930513,9.13 100.803051,8.43 105.303051,1.87 C107.576272,7.1611302 106.599191,13.288323 102.793051,17.61 C109.853051,17.93 117.393051,22.72 117.853051,29.78 C118.153051,34.48 115.213051,38.93 111.343051,41.63 C107.473051,44.33 102.813051,45.54 98.2130513,46.54 C84.7930513,49.54 66.2639347,49.54 44.9630513,34.71 Z"/>
  </g>
</svg>
