<svg xmlns="http://www.w3.org/2000/svg" width="24" height="22" viewBox="0 0 24 22">
  <path fill="#CC33A1" d="M19.6363636,14 C21.4211306,14 23.0056887,14.8571963 24.0007984,16.1823493 C24.9943113,14.8571963 26.5788694,14 28.3636364,14 L34.9090909,14 C35.5115834,14 36,14.4884166 36,15.0909091 L36,31.4545455 C36,32.0570379 35.5115834,32.5454545 34.9090909,32.5454545 L27.2727273,32.5454545 C26.120133,32.5454545 25.1762824,33.4391924 25.0963873,34.5714562 L25.0909091,34.7272727 L25.0909091,34.7272727 C25.0909091,36.1818182 22.9090909,36.1818182 22.9090909,34.7272727 C22.9090909,33.5222878 21.9322576,32.5454545 20.7272727,32.5454545 L13.0909091,32.5454545 C12.4884166,32.5454545 12,32.0570379 12,31.4545455 L12,15.0909091 C12,14.4884166 12.4884166,14 13.0909091,14 L19.6363636,14 Z M19.6363636,16.1818182 L14.1818182,16.1818182 L14.1818182,30.3636364 L20.7272727,30.3636364 C21.42273,30.3636364 22.0801884,30.5263291 22.6636643,30.815731 L22.9090909,30.9474132 L22.9090909,19.4545455 C22.9090909,17.6470681 21.443841,16.1818182 19.6363636,16.1818182 Z M33.8181818,16.1818182 L28.3636364,16.1818182 C26.556159,16.1818182 25.0909091,17.6470681 25.0909091,19.4545455 L25.0909091,30.9474132 C25.7327419,30.576133 26.477919,30.3636364 27.2727273,30.3636364 L33.8181818,30.3636364 L33.8181818,16.1818182 Z M19.6363636,26.5454545 C20.2388561,26.5454545 20.7272727,27.0338712 20.7272727,27.6363636 C20.7272727,28.2388561 20.2388561,28.7272727 19.6363636,28.7272727 L19.6363636,28.7272727 L16.3636364,28.7272727 C15.7611439,28.7272727 15.2727273,28.2388561 15.2727273,27.6363636 C15.2727273,27.0338712 15.7611439,26.5454545 16.3636364,26.5454545 L16.3636364,26.5454545 Z M20.7272727,22.1818182 C21.3297652,22.1818182 21.8181818,22.6702348 21.8181818,23.2727273 C21.8181818,23.8752197 21.3297652,24.3636364 20.7272727,24.3636364 L20.7272727,24.3636364 L16.3636364,24.3636364 C15.7611439,24.3636364 15.2727273,23.8752197 15.2727273,23.2727273 C15.2727273,22.6702348 15.7611439,22.1818182 16.3636364,22.1818182 L16.3636364,22.1818182 Z M19.6363636,17.8181818 C20.2388561,17.8181818 20.7272727,18.3065985 20.7272727,18.9090909 C20.7272727,19.5115834 20.2388561,20 19.6363636,20 L19.6363636,20 L16.3636364,20 C15.7611439,20 15.2727273,19.5115834 15.2727273,18.9090909 C15.2727273,18.3065985 15.7611439,17.8181818 16.3636364,17.8181818 L16.3636364,17.8181818 Z" transform="translate(-12 -14)"/>
</svg>
