<svg xmlns="http://www.w3.org/2000/svg" viewBox="0 0 24 22"><path fill="#CC33A1" d="M7.636 0c1.785 0 3.37.857 4.365 2.182A5.44 5.44 0 0116.364 0h6.545C23.512 0 24 .488 24 1.09v16.365a1.09 1.09 0 01-1.09 1.09h-7.637a2.182 2.182 0 00-2.177 2.026l-.005.156c0 1.455-2.182 1.455-2.182 0a2.182 2.182 0 00-2.182-2.182H1.091A1.09 1.09 0 010 17.455V1.09C0 .488.488 0 1.09 0h6.546zm0 2.182H2.182v14.182h6.545c.696 0 1.353.162 1.937.452l.245.131V5.455a3.273 3.273 0 00-3.273-3.273zm14.182 0h-5.454a3.273 3.273 0 00-3.273 3.273v11.492a4.344 4.344 0 012.182-.583h6.545V2.182zM7.636 12.545a1.09 1.09 0 010 2.182H4.364a1.09 1.09 0 110-2.182zm1.091-4.363a1.09 1.09 0 110 2.182H4.364a1.09 1.09 0 010-2.182zm-1.09-4.364a1.09 1.09 0 010 2.182H4.363a1.09 1.09 0 110-2.182z"/></svg>
