<svg xmlns="http://www.w3.org/2000/svg" width="1271" height="562" viewBox="0 0 1271 562">
  <g fill="none" fill-rule="evenodd" transform="translate(0 .354)">
    <path fill="#FFE7DE" fill-rule="nonzero" d="M1271,561.265718 C1271,510.373405 896.317207,459.25887 601.885285,459.25887 C307.453362,459.25887 0,510.373405 0,561.265718 C0,561.765718 1271,561.265718 1271,561.265718 Z"/>
    <path fill="#33CCAB" fill-rule="nonzero" d="M937.55655,411.796288 C945.358303,415.950695 954.93312,414.724099 961.435707,408.737213 C967.938294,402.750327 969.950074,393.309225 966.452994,385.191536 C962.955914,377.073847 954.712882,372.050492 945.89525,372.663518 L944.90963,383.342988 L941.17823,373.542808 C935.925658,375.159765 931.529924,378.795948 928.957,383.652298 C928.046771,385.352148 927.382035,387.172416 926.98262,389.058808 C925.031931,398.149104 929.34815,407.430416 937.55655,411.796288 L937.55655,411.796288 Z"/>
    <path stroke="#3F3D56" d="M944.97258,538.328118 C944.47807,529.057028 953.2859,522.146778 961.60367,518.022118 C969.92144,513.897458 979.50348,510.044398 983.33914,501.589488 C988.85166,489.438308 979.42052,476.260428 972.21814,465.028138 C966.874919,456.692743 962.538484,447.753419 959.29958,438.397228 C958.00149,434.645758 956.87099,430.756148 956.95142,426.787228 C957.06726,421.071578 959.66416,415.735228 962.24177,410.632518 C970.828543,393.633778 979.81327,376.843985 989.19595,360.263138"/>
    <path stroke="#3F3D56" d="M938.79176,409.185708 C946.593514,413.340106 956.168326,412.113503 962.670907,406.126616 C969.173489,400.139729 971.185265,390.698631 967.688186,382.580945 C964.191106,374.46326 955.948079,369.439906 947.13045,370.052928 L946.14484,380.732408 L942.41344,370.932228 C937.160865,372.549181 932.765129,376.185365 930.19221,381.041718 C929.281981,382.741565 928.617241,384.56183 928.21782,386.448218 C926.267132,395.538519 930.583355,404.819835 938.79176,409.185708 Z"/>
    <path fill="#33CCAB" fill-rule="nonzero" d="M968.55209,353.604688 C971.878455,347.343156 978.16678,343.208783 985.23392,342.636918 L985.50328,352.960348 L990.14803,342.815548 C999.090939,344.217034 1006.10211,351.238837 1007.49005,360.18386 C1008.87798,369.128882 1004.32429,377.945124 996.226558,381.990685 C988.128828,386.036247 978.344695,384.383071 972.025668,377.901582 C965.706641,371.420093 964.302315,361.597155 968.55209,353.604708 L968.55209,353.604688 Z"/>
    <path stroke="#3F3D56" d="M970.19904,350.123918 C973.525387,343.862377 979.813703,339.727992 986.88084,339.156118 L987.1502,349.479558 L991.79495,339.334748 C1000.73786,340.736221 1007.74905,347.758016 1009.137,356.703039 C1010.52494,365.648062 1005.97126,374.464312 997.873528,378.509882 C989.7758,382.555452 979.991662,380.902283 973.672629,374.420796 C967.353597,367.939309 965.949266,358.116368 970.19904,350.123918 Z"/>
    <path fill="#33CCAB" fill-rule="nonzero" d="M968.57184,464.720468 C977.913674,469.686555 989.494785,466.852959 995.488412,458.134684 C1001.48204,449.416408 999.980303,437.588637 991.99811,430.644828 L988.429,438.440828 L988.1592,427.996098 C988.143394,427.985712 988.1268,427.976577 988.10957,427.968778 C981.543366,424.467155 973.607162,424.738009 967.294972,428.679158 C960.982782,432.620307 957.25531,439.631915 957.518782,447.068781 C957.782255,454.505647 961.996572,461.235895 968.57184,464.720468 L968.57184,464.720468 Z"/>
    <path stroke="#3F3D56" d="M970.07434,461.171348 C979.416179,466.137457 990.997309,463.303865 996.990943,454.585577 C1002.98458,445.867289 1001.48283,434.039501 993.50061,427.095698 L989.93149,434.891698 L989.6617,424.446918 C989.645888,424.436536 989.629291,424.427401 989.61206,424.419598 C983.046588,420.925428 975.115482,421.200546 968.807915,425.141262 C962.500348,429.081977 958.775203,436.089219 959.036459,443.52201 C959.297715,450.954801 963.505656,457.683201 970.07434,461.171328 L970.07434,461.171348 Z"/>
    <path fill="#33CCAB" fill-rule="nonzero" d="M942.27456,495.905128 C942.602455,505.735297 949.770633,513.992306 959.457266,515.69785 C969.143898,517.403394 978.701219,512.091276 982.36694,502.964271 C986.032661,493.837266 982.804786,483.39017 974.629461,477.921734 C966.454136,472.453298 955.566023,473.458276 948.52977,480.330748 L955.75477,495.449178 L944.24814,486.338808 C942.833472,489.32345 942.156616,492.6043 942.27456,495.905128 Z"/>
    <path stroke="#3F3D56" d="M943.50976,493.294548 C943.837655,503.124717 951.005833,511.381726 960.692466,513.08727 C970.379098,514.792814 979.936419,509.480696 983.60214,500.353691 C987.267861,491.226686 984.039986,480.77959 975.864661,475.311154 C967.689336,469.842718 956.801223,470.847696 949.76497,477.720168 L956.98997,492.838588 L945.48334,483.728218 C944.068676,486.712865 943.391821,489.993717 943.50976,493.294548 Z"/>
    <path fill="#B9EFE9" fill-rule="nonzero" d="M387.33084,414.796288 C379.529087,418.950695 369.95427,417.724099 363.451683,411.737213 C356.949096,405.750327 354.937316,396.309225 358.434396,388.191536 C361.931476,380.073847 370.174508,375.050492 378.99214,375.663518 L379.97776,386.342988 L383.70916,376.542808 C388.961732,378.159765 393.357466,381.795948 395.93039,386.652298 C396.840618,388.352149 397.505357,390.172417 397.90478,392.058808 C399.855464,401.149106 395.539241,410.430417 387.33084,414.796288 Z"/>
    <path stroke="#3F3D56" d="M379.91478,541.328118 C380.40929,532.057028 371.60146,525.146778 363.28369,521.022118 C354.96592,516.897458 345.38388,513.044398 341.54822,504.589488 C336.0357,492.438308 345.46684,479.260428 352.66922,468.028138 C358.01246,459.692756 362.348915,450.753441 365.58784,441.397258 C366.88593,437.645788 368.01643,433.756178 367.936,429.787258 C367.82016,424.071608 365.22326,418.735258 362.64565,413.632548 C354.058877,396.633808 345.07415,379.844015 335.69147,363.263168"/>
    <path stroke="#3F3D56" d="M386.0956,412.185708 C378.293846,416.340106 368.719034,415.113503 362.216453,409.126616 C355.713871,403.139729 353.702095,393.698631 357.199174,385.580945 C360.696254,377.46326 368.939281,372.439906 377.75691,373.052928 L378.74252,383.732408 L382.47392,373.932228 C387.726499,375.549178 392.122238,379.185363 394.69516,384.041718 C395.605382,385.741567 396.270118,387.561831 396.66954,389.448218 C398.620228,398.538519 394.304005,407.819835 386.0956,412.185708 L386.0956,412.185708 Z"/>
    <path fill="#B9EFE9" fill-rule="nonzero" d="M356.33527,356.604688 C353.008905,350.343156 346.72058,346.208783 339.65344,345.636918 L339.38409,355.960348 L334.73933,345.815548 C325.796421,347.217034 318.785248,354.238837 317.397312,363.18386 C316.009377,372.128882 320.563072,380.945124 328.660802,384.990685 C336.758532,389.036247 346.542665,387.383071 352.861692,380.901582 C359.180719,374.420093 360.585045,364.597155 356.33527,356.604708 L356.33527,356.604688 Z"/>
    <path stroke="#3F3D56" d="M354.68833,353.123918 C351.361974,346.862373 345.073646,342.727987 338.0065,342.156118 L337.73714,352.479558 L333.09239,342.334748 C324.149481,343.736232 317.138307,350.758033 315.750368,359.703054 C314.36243,368.648076 318.916122,377.464318 327.01385,381.509883 C335.111578,385.555447 344.895711,383.902275 351.214741,377.420789 C357.53377,370.939304 358.938101,361.116366 354.68833,353.123918 L354.68833,353.123918 Z"/>
    <path fill="#B9EFE9" fill-rule="nonzero" d="M356.31551,467.720468 C346.973676,472.686555 335.392565,469.852959 329.398938,461.134684 C323.405311,452.416408 324.907047,440.588637 332.88924,433.644828 L336.45835,441.440828 L336.72815,430.996098 C336.743956,430.985712 336.76055,430.976577 336.77778,430.968778 C343.34341,427.473 351.275615,427.747198 357.58418,431.688006 C363.892744,435.628814 367.618392,442.636996 367.35666,450.070666 C367.094927,457.504336 362.885613,464.233136 356.31551,467.720498 L356.31551,467.720468 Z"/>
    <path stroke="#3F3D56" d="M354.81302,464.171348 C345.471181,469.137457 333.890051,466.303865 327.896417,457.585577 C321.902783,448.867289 323.404533,437.039501 331.38675,430.095698 L334.95587,437.891698 L335.22566,427.446958 C335.241472,427.436576 335.258069,427.427441 335.2753,427.419638 C341.840772,423.925468 349.771878,424.200586 356.079445,428.141302 C362.387012,432.082017 366.112157,439.089259 365.850901,446.52205 C365.589645,453.954841 361.381704,460.683241 354.81302,464.171368 L354.81302,464.171348 Z"/>
    <path fill="#B9EFE9" fill-rule="nonzero" d="M382.61284,498.905128 C382.284945,508.735297 375.116767,516.992306 365.430134,518.69785 C355.743502,520.403394 346.186181,515.091276 342.52046,505.964271 C338.854739,496.837266 342.082614,486.39017 350.257939,480.921734 C358.433264,475.453298 369.321377,476.458276 376.35763,483.330748 L369.13263,498.449178 L380.63926,489.338808 C382.053928,492.32345 382.730784,495.6043 382.61284,498.905128 Z"/>
    <path stroke="#3F3D56" d="M381.3776,496.294548 C381.049705,506.124717 373.881527,514.381726 364.194894,516.08727 C354.508262,517.792814 344.950941,512.480696 341.28522,503.353691 C337.619499,494.226686 340.847374,483.77959 349.022699,478.311154 C357.198024,472.842718 368.086137,473.847696 375.12239,480.720168 L367.89739,495.838588 L379.40402,486.728218 C380.818684,489.712865 381.495539,492.993717 381.3776,496.294548 L381.3776,496.294548 Z"/>
    <path fill="#F5DD48" fill-rule="nonzero" d="M907.33084,413.796288 C899.529087,417.950695 889.95427,416.724099 883.451683,410.737213 C876.949096,404.750327 874.937316,395.309225 878.434396,387.191536 C881.931476,379.073847 890.174508,374.050492 898.99214,374.663518 L899.97776,385.342988 L903.70916,375.542808 C908.961732,377.159765 913.357466,380.795948 915.93039,385.652298 C916.840618,387.352149 917.505357,389.172417 917.90478,391.058808 C919.855464,400.149106 915.539241,409.430417 907.33084,413.796288 L907.33084,413.796288 Z"/>
    <path stroke="#3F3D56" d="M899.91478,540.328118 C900.40929,531.057028 891.60146,524.146778 883.28369,520.022118 C874.96592,515.897458 865.38388,512.044398 861.54822,503.589488 C856.0357,491.438308 865.46684,478.260428 872.66922,467.028138 C878.01246,458.692756 882.348915,449.753441 885.58784,440.397258 C886.88593,436.645788 888.01643,432.756178 887.936,428.787258 C887.82016,423.071608 885.22326,417.735258 882.64565,412.632548 C874.058883,395.633808 865.074157,378.844015 855.69147,362.263168"/>
    <path stroke="#3F3D56" d="M906.0956,411.185708 C898.293846,415.340106 888.719034,414.113503 882.216453,408.126616 C875.713871,402.139729 873.702095,392.698631 877.199174,384.580945 C880.696254,376.46326 888.939281,371.439906 897.75691,372.052928 L898.74252,382.732408 L902.47392,372.932228 C907.726499,374.549178 912.122238,378.185363 914.69516,383.041718 C915.605382,384.741567 916.270118,386.561831 916.66954,388.448218 C918.620228,397.538519 914.304005,406.819835 906.0956,411.185708 L906.0956,411.185708 Z"/>
    <path fill="#F5DD48" fill-rule="nonzero" d="M876.33527,355.604688 C873.008905,349.343156 866.72058,345.208783 859.65344,344.636918 L859.38409,354.960348 L854.73933,344.815548 C845.796421,346.217034 838.785248,353.238837 837.397312,362.18386 C836.009377,371.128882 840.563072,379.945124 848.660802,383.990685 C856.758532,388.036247 866.542665,386.383071 872.861692,379.901582 C879.180719,373.420093 880.585045,363.597155 876.33527,355.604708 L876.33527,355.604688 Z"/>
    <path stroke="#3F3D56" d="M874.68833,352.123918 C871.361974,345.862373 865.073646,341.727987 858.0065,341.156118 L857.73714,351.479558 L853.09239,341.334748 C844.149481,342.736232 837.138307,349.758033 835.750368,358.703054 C834.36243,367.648076 838.916122,376.464318 847.01385,380.509883 C855.111578,384.555447 864.895711,382.902275 871.214741,376.420789 C877.53377,369.939304 878.938101,360.116366 874.68833,352.123918 L874.68833,352.123918 Z"/>
    <path fill="#F5DD48" fill-rule="nonzero" d="M876.31551,466.720468 C866.973676,471.686555 855.392565,468.852959 849.398938,460.134684 C843.405311,451.416408 844.907047,439.588637 852.88924,432.644828 L856.45835,440.440828 L856.72815,429.996098 C856.743956,429.985712 856.76055,429.976577 856.77778,429.968778 C863.34341,426.473 871.275615,426.747198 877.58418,430.688006 C883.892744,434.628814 887.618392,441.636996 887.35666,449.070666 C887.094927,456.504336 882.885613,463.233136 876.31551,466.720498 L876.31551,466.720468 Z"/>
    <path stroke="#3F3D56" d="M874.81302,463.171348 C865.471181,468.137457 853.890051,465.303865 847.896417,456.585577 C841.902783,447.867289 843.404533,436.039501 851.38675,429.095698 L854.95587,436.891698 L855.22566,426.446958 C855.241472,426.436576 855.258069,426.427441 855.2753,426.419638 C861.840772,422.925468 869.771878,423.200586 876.079445,427.141302 C882.387012,431.082017 886.112157,438.089259 885.850901,445.52205 C885.589645,452.954841 881.381704,459.683241 874.81302,463.171368 L874.81302,463.171348 Z"/>
    <path fill="#F5DD48" fill-rule="nonzero" d="M902.61284,497.905128 C902.284945,507.735297 895.116767,515.992306 885.430134,517.69785 C875.743502,519.403394 866.186181,514.091276 862.52046,504.964271 C858.854739,495.837266 862.082614,485.39017 870.257939,479.921734 C878.433264,474.453298 889.321377,475.458276 896.35763,482.330748 L889.13263,497.449178 L900.63926,488.338808 C902.053928,491.32345 902.730784,494.6043 902.61284,497.905128 Z"/>
    <path stroke="#3F3D56" d="M901.3776,495.294548 C901.049705,505.124717 893.881527,513.381726 884.194894,515.08727 C874.508262,516.792814 864.950941,511.480696 861.28522,502.353691 C857.619499,493.226686 860.847374,482.77959 869.022699,477.311154 C877.198024,471.842718 888.086137,472.847696 895.12239,479.720168 L887.89739,494.838588 L899.40402,485.728218 C900.818684,488.712865 901.495539,491.993717 901.3776,495.294548 L901.3776,495.294548 Z"/>
    <path fill="#33CCAB" fill-rule="nonzero" d="M167.33084,412.796288 C159.529087,416.950695 149.95427,415.724099 143.451683,409.737213 C136.949096,403.750327 134.937316,394.309225 138.434396,386.191536 C141.931476,378.073847 150.174508,373.050492 158.99214,373.663518 L159.97776,384.342988 L163.70916,374.542808 C168.961732,376.159765 173.357466,379.795948 175.93039,384.652298 C176.840618,386.352149 177.505357,388.172417 177.90478,390.058808 C179.855464,399.149106 175.539241,408.430417 167.33084,412.796288 L167.33084,412.796288 Z"/>
    <path stroke="#3F3D56" d="M159.91478,539.328118 C160.40929,530.057028 151.60146,523.146778 143.28369,519.022118 C134.96592,514.897458 125.38384,511.044428 121.54822,502.589518 C116.0357,490.438338 125.46684,477.260458 132.66922,466.028168 C138.012462,457.692776 142.348917,448.753452 145.58784,439.397258 C146.88593,435.645788 148.01643,431.756178 147.936,427.787258 C147.82016,422.071608 145.22326,416.735258 142.64565,411.632548 C134.058863,394.633828 125.074127,377.844045 115.69144,361.263198"/>
    <path stroke="#3F3D56" d="M166.0956,410.185708 C158.293846,414.340106 148.719034,413.113503 142.216453,407.126616 C135.713871,401.139729 133.702095,391.698631 137.199174,383.580945 C140.696254,375.46326 148.939281,370.439906 157.75691,371.052928 L158.74252,381.732408 L162.47392,371.932228 C167.726499,373.549178 172.122238,377.185363 174.69516,382.041718 C175.605382,383.741567 176.270118,385.561831 176.66954,387.448218 C178.620228,396.538519 174.304005,405.819835 166.0956,410.185708 L166.0956,410.185708 Z"/>
    <path fill="#33CCAB" fill-rule="nonzero" d="M136.33527,354.604688 C133.008905,348.343156 126.72058,344.208783 119.65344,343.636918 L119.38409,353.960348 L114.73933,343.815548 C105.796421,345.217034 98.785248,352.238837 97.3973124,361.18386 C96.0093767,370.128882 100.563072,378.945124 108.660802,382.990685 C116.758532,387.036247 126.542665,385.383071 132.861692,378.901582 C139.180719,372.420093 140.585045,362.597155 136.33527,354.604708 L136.33527,354.604688 Z"/>
    <path stroke="#3F3D56" d="M134.68833,351.123918 C131.361974,344.862373 125.073646,340.727987 118.0065,340.156118 L117.73714,350.479558 L113.09239,340.334748 C104.149481,341.736232 97.1383067,348.758033 95.7503684,357.703054 C94.3624301,366.648076 98.9161224,375.464318 107.01385,379.509883 C115.111578,383.555447 124.895711,381.902275 131.214741,375.420789 C137.53377,368.939304 138.938101,359.116366 134.68833,351.123918 L134.68833,351.123918 Z"/>
    <path fill="#33CCAB" fill-rule="nonzero" d="M136.31551,465.720468 C126.973676,470.686555 115.392565,467.852959 109.398938,459.134684 C103.405311,450.416408 104.907047,438.588637 112.88924,431.644828 L116.45835,439.440828 L116.72815,428.996098 C116.743956,428.985712 116.76055,428.976577 116.77778,428.968778 C123.34341,425.473 131.275615,425.747198 137.58418,429.688006 C143.892744,433.628814 147.618392,440.636996 147.35666,448.070666 C147.094927,455.504336 142.885613,462.233136 136.31551,465.720498 L136.31551,465.720468 Z"/>
    <path stroke="#3F3D56" d="M134.81302,462.171348 C125.471181,467.137457 113.890051,464.303865 107.896417,455.585577 C101.902783,446.867289 103.404533,435.039501 111.38675,428.095698 L114.95587,435.891698 L115.22566,425.446918 C115.241472,425.436536 115.258069,425.427401 115.2753,425.419598 C121.840772,421.925428 129.771878,422.200546 136.079445,426.141262 C142.387012,430.081977 146.112157,437.089219 145.850901,444.52201 C145.589645,451.954801 141.381704,458.683201 134.81302,462.171328 L134.81302,462.171348 Z"/>
    <path fill="#33CCAB" fill-rule="nonzero" d="M162.61284,496.905128 C162.284945,506.735297 155.116767,514.992306 145.430134,516.69785 C135.743502,518.403394 126.186181,513.091276 122.52046,503.964271 C118.854739,494.837266 122.082614,484.39017 130.257939,478.921734 C138.433264,473.453298 149.321377,474.458276 156.35763,481.330748 L149.13263,496.449178 L160.63926,487.338808 C162.053928,490.32345 162.730784,493.6043 162.61284,496.905128 L162.61284,496.905128 Z"/>
    <path stroke="#3F3D56" d="M161.3776,494.294548 C161.049705,504.124717 153.881527,512.381726 144.194894,514.08727 C134.508262,515.792814 124.950941,510.480696 121.28522,501.353691 C117.619499,492.226686 120.847374,481.77959 129.022699,476.311154 C137.198024,470.842718 148.086137,471.847696 155.12239,478.720168 L147.89739,493.838588 L159.40402,484.728218 C160.818684,487.712865 161.495539,490.993717 161.3776,494.294548 L161.3776,494.294548 Z"/>
    <path fill="#33CCAB" fill-rule="nonzero" d="M161.73999,320.456288 C175.141348,327.592463 191.588362,325.48549 202.758092,315.201594 C213.927823,304.917698 217.383528,288.700371 211.376463,274.75632 C205.369399,260.812269 191.21004,252.183469 176.06367,253.236488 L174.37067,271.581018 L167.96108,254.746918 C158.938541,257.524415 151.387823,263.770417 146.96822,272.112348 C145.404688,275.032258 144.262845,278.159012 143.57675,281.399348 C140.22602,297.014064 147.640147,312.956876 161.73999,320.456288 L161.73999,320.456288 Z"/>
    <path stroke="#3F3D56" d="M174.47878,537.804618 C173.62933,521.879328 188.75887,510.009338 203.0466,502.924318 C217.33433,495.839298 233.79376,489.220698 240.38241,474.697398 C249.85147,453.824858 233.65125,431.188748 221.27941,411.894618 C212.101162,397.576611 204.65231,382.221208 199.08873,366.149738 C196.85895,359.705738 194.91705,353.024378 195.05521,346.206868 C195.25421,336.388868 199.71498,327.222508 204.14263,318.457348 C218.892437,289.258015 234.325833,260.417571 250.44282,231.936018"/>
    <path stroke="#3F3D56" d="M163.86174,315.971988 C177.263097,323.108172 193.710116,321.001206 204.879852,310.717311 C216.049588,300.433416 219.505297,284.216085 213.498232,270.272031 C207.491166,256.327976 193.331804,247.699176 178.18543,248.752198 L176.49243,267.096718 L170.08284,250.262598 C161.0603,253.040099 153.509583,259.286105 149.08998,267.628038 C147.526444,270.547946 146.384601,273.674701 145.69851,276.915038 C142.347766,292.529756 149.761892,308.472577 163.86174,315.971988 L163.86174,315.971988 Z"/>
    <path fill="#33CCAB" fill-rule="nonzero" d="M214.98216,220.498458 C220.695961,209.742767 231.497659,202.640984 243.63716,201.658678 L244.09984,219.391618 L252.07831,201.965518 C267.439814,204.37292 279.483102,216.434499 281.86719,231.799638 C284.251277,247.164778 276.429252,262.3087 262.519536,269.257887 C248.60982,276.207074 231.803316,273.367374 220.948919,262.233936 C210.094522,251.100497 207.68224,234.227342 214.98218,220.498458 L214.98216,220.498458 Z"/>
    <path stroke="#3F3D56" d="M217.81117,214.519398 C223.524974,203.76371 234.32667,196.661927 246.46617,195.679618 L246.92885,213.412558 L254.90732,195.986458 C270.268824,198.39386 282.312112,210.455439 284.6962,225.820578 C287.080287,241.185718 279.258262,256.32964 265.348546,263.278827 C251.43883,270.228014 234.632326,267.388314 223.777929,256.254876 C212.923532,245.121437 210.51125,228.248282 217.81119,214.519398 L217.81117,214.519398 Z"/>
    <path fill="#33CCAB" fill-rule="nonzero" d="M215.0161,411.366078 C231.062915,419.896484 250.956198,415.029099 261.251662,400.0534 C271.547125,385.077702 268.967543,364.760716 255.25625,352.833078 L249.12546,366.224508 L248.66202,348.283208 C248.634866,348.265367 248.606359,348.249676 248.57676,348.236278 C237.299713,342.241243 223.680978,342.717835 212.850602,349.486527 C202.020226,356.25522 195.6236,368.287686 196.070272,381.051413 C196.516943,393.81514 203.739052,405.371014 215.0161,411.366048 L215.0161,411.366078 Z"/>
    <path stroke="#3F3D56" d="M217.59698,405.269618 C233.643795,413.800024 253.537078,408.932639 263.832542,393.95694 C274.128005,378.981242 271.548423,358.664256 257.83713,346.736618 L251.70633,360.128038 L251.24289,342.186748 C251.215738,342.168903 251.187231,342.153212 251.15763,342.139818 C239.880583,336.144785 226.261849,336.621379 215.431475,343.390072 C204.601101,350.158765 198.204477,362.191232 198.65115,374.954958 C199.097823,387.718683 206.319933,399.274555 217.59698,405.269588 L217.59698,405.269618 Z"/>
    <path fill="#33CCAB" fill-rule="nonzero" d="M169.84428,464.933108 C170.407518,481.818748 182.72056,496.002114 199.359643,498.931789 C215.998726,501.861463 232.415684,492.736642 238.712426,477.058852 C245.009168,461.381061 239.464528,443.435704 225.421473,434.042373 C211.378417,424.649041 192.675508,426.37533 180.58908,438.180428 L192.99974,464.149918 L173.23439,448.500708 C170.804359,453.62753 169.641692,459.26316 169.84428,464.933108 L169.84428,464.933108 Z"/>
    <path stroke="#3F3D56" d="M171.96604,460.448818 C172.529284,477.334451 184.842326,491.517807 201.481403,494.447477 C218.120481,497.377146 234.537431,488.252326 240.834168,472.57454 C247.130906,456.896755 241.586266,438.951405 227.543217,429.558077 C213.500167,420.16475 194.797265,421.891037 182.71084,433.696128 L195.1215,459.665598 L175.35614,444.016388 C172.926108,449.14322 171.763444,454.778861 171.96604,460.448818 L171.96604,460.448818 Z"/>
    <path fill="#B9EFE9" fill-rule="nonzero" d="M1111.44498,320.456288 C1124.84634,327.592463 1141.29335,325.48549 1152.46308,315.201594 C1163.63281,304.917698 1167.08852,288.700371 1161.08145,274.75632 C1155.07439,260.812269 1140.91503,252.183469 1125.76866,253.236488 L1124.07566,271.581018 L1117.66607,254.746918 C1108.64353,257.524415 1101.09281,263.770417 1096.67321,272.112348 C1095.10968,275.032258 1093.96784,278.159012 1093.28174,281.399348 C1089.93101,297.014064 1097.34514,312.956876 1111.44498,320.456288 L1111.44498,320.456288 Z" transform="matrix(-1 0 0 1 2256.483 0)"/>
    <path stroke="#3F3D56" d="M1056.36979,537.804618 C1055.52034,521.879328 1070.64988,510.009338 1084.93761,502.924318 C1099.22534,495.839298 1115.68477,489.220698 1122.27342,474.697398 C1131.74248,453.824858 1115.54226,431.188748 1103.17042,411.894618 C1093.99218,397.576611 1086.54332,382.221208 1080.97974,366.149738 C1078.74996,359.705738 1076.80806,353.024378 1076.94622,346.206868 C1077.14522,336.388868 1081.60599,327.222508 1086.03364,318.457348 C1100.78345,289.258015 1116.21685,260.417571 1132.33383,231.936018" transform="matrix(-1 0 0 1 2188.67 0)"/>
    <path stroke="#3F3D56" d="M1109.32321,315.971988 C1122.72457,323.108172 1139.17159,321.001206 1150.34132,310.717311 C1161.51106,300.433416 1164.96677,284.216085 1158.9597,270.272031 C1152.95264,256.327976 1138.79327,247.699176 1123.6469,248.752198 L1121.9539,267.096718 L1115.54431,250.262598 C1106.52177,253.040099 1098.97105,259.286105 1094.55145,267.628038 C1092.98791,270.547946 1091.84607,273.674701 1091.15998,276.915038 C1087.80924,292.529756 1095.22336,308.472577 1109.32321,315.971988 L1109.32321,315.971988 Z" transform="matrix(-1 0 0 1 2252.24 0)"/>
    <path fill="#B9EFE9" fill-rule="nonzero" d="M1028.67186,220.498458 C1034.38567,209.742767 1045.18736,202.640984 1057.32686,201.658678 L1057.78954,219.391618 L1065.76801,201.965518 C1081.12952,204.37292 1093.17281,216.434499 1095.55689,231.799638 C1097.94098,247.164778 1090.11896,262.3087 1076.20924,269.257887 C1062.29952,276.207074 1045.49302,273.367374 1034.63862,262.233936 C1023.78423,251.100497 1021.37195,234.227342 1028.67188,220.498458 L1028.67186,220.498458 Z" transform="matrix(-1 0 0 1 2120.468 0)"/>
    <path stroke="#3F3D56" d="M1025.84285,214.519398 C1031.55666,203.76371 1042.35836,196.661927 1054.49785,195.679618 L1054.96053,213.412558 L1062.939,195.986458 C1078.30051,198.39386 1090.3438,210.455439 1092.72788,225.820578 C1095.11197,241.185718 1087.28995,256.32964 1073.38023,263.278827 C1059.47051,270.228014 1042.66401,267.388314 1031.80961,256.254876 C1020.95522,245.121437 1018.54294,228.248282 1025.84287,214.519398 L1025.84285,214.519398 Z" transform="matrix(-1 0 0 1 2114.81 0)"/>
    <path fill="#B9EFE9" fill-rule="nonzero" d="M1058.2038,411.366078 C1074.25061,419.896484 1094.14389,415.029099 1104.43936,400.0534 C1114.73482,385.077702 1112.15524,364.760716 1098.44395,352.833078 L1092.31316,366.224508 L1091.84972,348.283208 C1091.82256,348.265367 1091.79405,348.249676 1091.76446,348.236278 C1080.48741,342.241243 1066.86867,342.717835 1056.0383,349.486527 C1045.20792,356.25522 1038.8113,368.287686 1039.25797,381.051413 C1039.70464,393.81514 1046.92675,405.371014 1058.2038,411.366048 L1058.2038,411.366078 Z" transform="matrix(-1 0 0 1 2149.966 0)"/>
    <path stroke="#3F3D56" d="M1055.62292,405.269618 C1071.66973,413.800024 1091.56302,408.932639 1101.85848,393.95694 C1112.15394,378.981242 1109.57436,358.664256 1095.86307,346.736618 L1089.73227,360.128038 L1089.26883,342.186748 C1089.24168,342.168903 1089.21317,342.153212 1089.18357,342.139818 C1077.90652,336.144785 1064.28779,336.621379 1053.45741,343.390072 C1042.62704,350.158765 1036.23041,362.191232 1036.67709,374.954958 C1037.12376,387.718683 1044.34587,399.274555 1055.62292,405.269588 L1055.62292,405.269618 Z" transform="matrix(-1 0 0 1 2144.804 0)"/>
    <path fill="#B9EFE9" fill-rule="nonzero" d="M1065.51067,464.933108 C1066.07391,481.818748 1078.38695,496.002114 1095.02603,498.931789 C1111.66512,501.861463 1128.08207,492.736642 1134.37882,477.058852 C1140.67556,461.381061 1135.13092,443.435704 1121.08786,434.042373 C1107.04481,424.649041 1088.3419,426.37533 1076.25547,438.180428 L1088.66613,464.149918 L1068.90078,448.500708 C1066.47075,453.62753 1065.30808,459.26316 1065.51067,464.933108 L1065.51067,464.933108 Z" transform="matrix(-1 0 0 1 2202.445 0)"/>
    <path stroke="#3F3D56" d="M1063.38893,460.448818 C1063.95218,477.334451 1076.26522,491.517807 1092.9043,494.447477 C1109.54337,497.377146 1125.96032,488.252326 1132.25706,472.57454 C1138.5538,456.896755 1133.00916,438.951405 1118.96611,429.558077 C1104.92306,420.16475 1086.22016,421.891037 1074.13373,433.696128 L1086.54439,459.665598 L1066.77903,444.016388 C1064.349,449.14322 1063.18634,454.778861 1063.38893,460.448818 L1063.38893,460.448818 Z" transform="matrix(-1 0 0 1 2198.201 0)"/>
    <path fill="#A0616A" fill-rule="nonzero" d="M547.13177,90.5101479 C547.13177,90.5101479 543.2897,38.7695479 545.0986,29.3064479 C546.9075,19.8433479 548.6066,-7.0938021 538.66098,1.7610179 C528.71536,10.6158379 532.24864,30.7060179 532.24864,30.7060179 C532.24864,30.7060179 522.81081,85.3875779 531.53984,92.8061879 C540.26887,100.224798 547.13177,90.5101479 547.13177,90.5101479 Z"/>
    <path fill="#F5DD48" fill-rule="nonzero" d="M554.29473,141.677048 C554.29473,141.677048 524.69115,115.273848 526.29134,92.8711379 C526.29134,92.8711379 543.89347,79.2694979 547.89395,86.4703679 C551.89443,93.6712379 580.97269,121.763368 576.03472,131.320148 C571.09675,140.876928 554.29473,141.677048 554.29473,141.677048 Z"/>
    <path fill="#A0616A" fill-rule="nonzero" d="M659.10741 94.4713379C659.10741 94.4713379 676.70954 45.6654279 677.50964 36.0642679 678.30974 26.4631079 683.91042.0599078985 691.11129 11.2612679 698.31216 22.4626279 689.51109 40.8648579 689.51109 40.8648579 689.51109 40.8648579 683.91042 96.0715379 673.50916 100.872118 663.1079 105.672698 659.10741 94.4713379 659.10741 94.4713379zM611.1016 339.300918L658.30732 339.300918 660.70761 363.303818 649.50625 365.704108C649.50625 365.704108 623.10306 357.703108 607.90125 360.103428 592.69944 362.503748 611.1016 339.300918 611.1016 339.300918z"/>
    <path fill="#2F2E41" fill-rule="nonzero" d="M642.30538,336.100578 C642.30538,336.100578 664.70809,320.898738 668.70858,333.700288 C672.70907,346.501838 687.1108,392.907448 682.31022,397.708028 C677.50964,402.508608 671.90896,393.707548 671.90896,393.707548 C671.90896,393.707548 662.3078,373.705128 655.10696,372.905028 C647.90612,372.104928 643.9056,365.704158 643.9056,365.704158 C643.9056,365.704158 664.70809,349.702218 642.30538,336.100578 Z"/>
    <path fill="#A0616A" fill-rule="nonzero" d="M599.10015,460.115588 C599.10015,460.115588 607.90122,496.119938 606.30102,501.720588 C604.70082,507.321238 631.90412,504.120878 631.90412,504.120878 L633.50432,493.719618 C633.50432,493.719618 617.50238,468.116528 617.50238,456.915168 C617.50238,445.713808 599.10015,460.115588 599.10015,460.115588 Z"/>
    <path fill="#2F2E41" fill-rule="nonzero" d="M631.90412 486.518778C631.90412 486.518778 653.50674 502.520718 642.30538 510.521688 631.10402 518.522658 589.49899 539.325168 589.49899 539.325168 589.49899 539.325168 574.29715 541.725458 585.49851 528.123818 596.69987 514.522178 599.90025 512.121878 600.70035 504.921008 601.395657 500.126219 603.075457 495.527138 605.63413 491.412938 605.63413 491.412938 616.70228 513.722078 631.90412 486.518778zM566.29618 294.495538C566.29618 294.495538 557.49512 377.705608 571.09676 404.108808 584.6984 430.512008 600.70035 466.516358 599.90025 468.116558 599.10015 469.716758 623.10306 465.716268 623.10306 458.515388 623.10306 451.314508 596.69986 379.305808 596.69986 379.305808 596.69986 379.305808 607.90122 285.694478 616.70228 279.293698 625.50334 272.892918 566.29618 294.495538 566.29618 294.495538z"/>
    <path fill="#000" fill-rule="nonzero" d="M566.29618,294.495538 C566.29618,294.495538 557.49512,377.705608 571.09676,404.108808 C584.6984,430.512008 600.70035,466.516358 599.90025,468.116558 C599.10015,469.716758 623.10306,465.716268 623.10306,458.515388 C623.10306,451.314508 596.69986,379.305808 596.69986,379.305808 C596.69986,379.305808 607.90122,285.694478 616.70228,279.293698 C625.50334,272.892918 566.29618,294.495538 566.29618,294.495538 Z" opacity=".1"/>
    <path fill="#2F2E41" fill-rule="nonzero" d="M584.37984 59.6671179C578.66075 60.7025879 572.99472 63.8445379 570.15059 69.2106579 567.49759 74.2162179 567.32885 80.9070179 563.1081 84.5015479 560.58849 86.6473379 557.16768 87.1435479 554.35451 88.8291879 550.285745 91.4318967 547.920206 96.0123729 548.15333 100.836748 548.37859 105.251078 550.70674 109.362878 550.65733 113.783368 550.5931 119.530368 546.61919 124.275368 542.88159 128.434838L555.27703 130.735058C557.150014 131.235521 559.114567 131.287612 561.01144 130.887108 563.15244 130.253298 564.89144 128.490408 567.05571 127.952878 570.15924 127.182078 573.23022 129.069878 575.99937 130.744878 583.88182 135.512618 592.33374 139.111118 600.75507 142.694068 603.23257 143.748158 606.04157 144.803338 608.48628 143.666288 610.46067 142.747978 611.6886 140.601398 613.54572 139.439818 616.87136 137.359688 621.04731 138.925438 624.78441 139.952338 633.235763 142.245907 642.225657 141.480387 650.16753 137.790878 648.45546 135.791028 646.21153 134.392408 644.36658 132.530398 642.52163 130.668388 641.02902 128.031658 641.51643 125.379748 642.01349 122.675358 644.3386 120.870028 645.92337 118.687418 648.287865 115.194493 649.149875 110.898046 648.31573 106.763368 647.484021 102.691687 645.503424 98.9434409 642.60827 95.9620979 640.955741 94.4151702 639.396742 92.771264 637.93954 91.0390979 635.02344 87.1011679 635.440913 86.8696582 633.36868 76.9782779 631.296447 67.0868976 625.625996 67.0868976 622.17631 63.8544279 618.826172 60.7152379 611.34731 60.7152379 604.2949 60.2425179 597.57105 59.7917779 591.08817 59.6671179 584.37984 59.6671179zM544.69357 237.688668L559.89541 275.293218C559.89541 275.293218 490.28698 351.302418 529.49173 361.703678 568.69648 372.104938 582.29812 353.702678 607.10112 368.104448 607.10112 368.104448 619.10257 349.702218 617.50238 338.500868 617.50238 338.500868 583.09822 332.100088 564.69599 332.900188 564.69599 332.900188 611.594959 293.645053 619.10257 288.094768 626.610181 282.544483 631.296447 258.029524 615.10209 240.088958 598.907733 222.148391 596.69984 208.085088 596.69984 208.085088L544.69357 237.688668z"/>
    <path fill="#A0616A" fill-rule="nonzero" d="M580.69792,107.272918 C580.69792,107.272918 583.09822,132.075918 572.69692,135.276308 C562.29562,138.476698 613.50185,137.676598 613.50185,137.676598 C613.50185,137.676598 601.5004,130.475728 607.10108,115.273888 C612.70176,100.072048 580.69792,107.272918 580.69792,107.272918 Z"/>
    <path fill="#000" fill-rule="nonzero" d="M580.69792,107.272918 C580.69792,107.272918 583.09822,132.075918 572.69692,135.276308 C562.29562,138.476698 613.50185,137.676598 613.50185,137.676598 C613.50185,137.676598 601.5004,130.475728 607.10108,115.273888 C612.70176,100.072048 580.69792,107.272918 580.69792,107.272918 Z" opacity=".1"/>
    <path fill="#F5DD48" fill-rule="nonzero" d="M635.10451,150.478108 C635.10451,150.478108 630.30393,125.675108 620.70277,127.275308 C611.10161,128.875508 591.89928,130.475688 589.49899,132.075888 C587.0987,133.676088 574.29715,136.955308 574.29715,136.955308 C574.29715,136.955308 579.09773,131.275788 574.29715,130.475688 C569.49657,129.675588 554.29473,133.676078 552.69454,136.876468 C551.09435,140.076858 544.69354,146.477628 544.69354,157.678978 C544.69354,168.880328 539.89296,188.082658 541.49315,196.083628 C543.09334,204.084598 540.69305,222.486828 535.89247,232.888088 C531.09189,243.289348 535.09238,253.690598 543.09334,243.289348 C551.0943,232.888098 547.09383,243.289348 553.4946,244.089438 C559.89537,244.889528 588.69889,215.285918 596.69984,222.486828 C604.70079,229.687738 612.70178,234.488278 614.30197,230.487828 C615.90216,226.487378 607.9012,219.286468 607.9012,216.086078 C607.9012,212.885688 595.09965,226.487338 608.70129,198.483948 C622.30293,170.480558 609.50141,162.479568 635.10451,150.478108 Z"/>
    <path fill="#F5DD48" fill-rule="nonzero" d="M628.70373,148.877918 L635.10451,150.478108 C635.10451,150.478108 658.30732,133.676108 664.70809,121.674628 C671.10886,109.673148 675.90945,100.072008 675.90945,100.072008 C675.90945,100.072008 665.50819,87.2704579 659.10745,92.0710079 C652.70671,96.8715579 623.90319,129.675568 623.90319,129.675568 L628.70373,148.877918 Z"/>
    <circle cx="599.1" cy="99.272" r="24.803" fill="#A0616A" fill-rule="nonzero"/>
    <path fill="#2F2E41" fill-rule="nonzero" d="M577.15861,92.0868279 C581.397034,88.5709631 586.809774,86.7908244 592.30769,87.1046079 C601.81523,87.6896679 610.18454,94.4645479 619.70769,94.6762379 C619.326403,92.6171842 619.613346,90.4901609 620.52662,88.6057479 C621.26512,87.0923379 622.43062,85.6258979 622.27384,83.9492479 C622.012663,82.6185773 621.283994,81.4252688 620.21958,80.5850779 C614.7149,75.3654079 607.104,72.6752379 599.52531,72.3438479 C594.44418,72.1216579 584.74614,72.2420579 580.80537,76.0895079 C577.43384,79.3812179 577.82584,87.8199179 577.15861,92.0868279 Z"/>
  </g>
</svg>
