<svg xmlns="http://www.w3.org/2000/svg" width="911" height="687" viewBox="0 0 911 687">
  <defs>
    <linearGradient id="jump-a" x1="49.997%" x2="49.997%" y1="100.023%" y2=".016%">
      <stop offset="0%" stop-color="gray" stop-opacity=".25"/>
      <stop offset="54%" stop-color="gray" stop-opacity=".12"/>
      <stop offset="100%" stop-color="gray" stop-opacity=".1"/>
    </linearGradient>
  </defs>
  <g fill="none" fill-rule="evenodd">
    <ellipse cx="416" cy="660.5" fill="#3F3D56" fill-rule="nonzero" opacity=".7" rx="369" ry="15.5"/>
    <g fill-rule="nonzero" transform="translate(402)">
      <path fill="url(#jump-a)" d="M347.898905,298.330261 C345.950187,296.815242 343.659471,295.803892 341.228683,295.38536 C338.672676,294.79638 336.061996,294.426556 333.464983,294.015639 L299.81317,289.15313 C296.41633,288.521203 292.951624,288.337012 289.507131,288.605241 C286.025716,288.888733 282.802044,290.555742 280.554273,293.234898 C279.549312,294.47932 278.999461,296.030838 278.996065,297.631703 C279.185553,299.233342 279.706991,300.777615 280.526936,302.165479 C280.850256,302.821551 281.12882,303.498833 281.360713,304.192667 C281.83911,305.69936 281.93479,307.31563 282.56354,308.781232 C282.715738,309.101597 282.908702,309.40086 283.137617,309.671551 C283.143725,309.75362 283.143725,309.836031 283.137617,309.9181 C282.768567,311.794618 283.957726,313.767017 283.424655,315.602443 C282.959926,317.150228 281.442724,318.095335 280.48593,319.39657 C279.178815,321.28783 279.125017,323.778515 280.349245,325.724681 C281.374382,327.313558 283.233296,328.38194 283.766367,330.203669 C284.46346,332.614378 282.577209,334.915509 280.895985,336.764633 C277.806187,340.171469 274.947628,343.781921 272.339512,347.571732 C271.61352,348.508018 271.14254,349.617147 270.972664,350.790576 C270.82231,353.173891 273.104948,355.283261 272.708561,357.639181 C272.394186,359.502002 270.576278,360.652568 269.004402,361.748344 C263.195295,365.59726 258.534341,371.761005 258.069613,378.719188 C256.583184,367.625218 251.99633,357.178642 244.838518,348.585325 C242.883924,346.215708 240.737972,343.859788 239.931531,340.860099 C239.630825,339.668441 239.576151,338.408298 239.166096,337.257732 C237.799247,333.614274 233.452669,332.06649 231.552749,328.710673 C230.185901,326.36845 230.185901,323.327669 228.491008,321.273088 C226.796116,319.218506 224.130761,318.725407 222.668233,316.725614 C221.935363,315.372256 221.313671,313.961347 220.809319,312.506873 C220.19591,311.325724 219.332998,310.292728 218.280649,309.47979 C218.079299,309.313692 217.86943,309.158245 217.651899,309.014085 C218.111042,308.602557 218.374343,308.015106 218.376328,307.397814 C218.376328,305.79524 216.790784,304.740555 215.410267,303.959814 C213.633364,302.937089 211.897466,301.855009 210.202574,300.713575 C212.05158,299.845484 213.654034,298.52692 214.863527,296.878356 C216.398236,294.406709 217.026486,291.476784 216.640431,288.591544 C216.547249,286.281111 215.686067,284.068187 214.193772,282.304524 C213.332657,281.400509 212.252847,280.729345 211.350726,279.866421 C209.013415,277.592684 208.220643,274.195776 207.250181,271.072812 C205.965343,266.963649 203.956075,262.662725 200.21091,260.471171 C198.40667,259.430183 196.301723,258.937084 194.538488,257.82761 C192.775254,256.718136 191.299057,254.608765 191.914139,252.595275 C192.324193,251.225554 193.595363,250.294144 194.456477,249.129881 C196.595958,245.996837 195.822012,241.722028 192.72058,239.541834 C191.709112,238.898065 190.465279,238.336479 190.260252,237.144822 C188.642015,236.730526 187.407171,235.418413 187.089163,233.775308 C186.781879,232.16449 186.781879,230.509919 187.089163,228.899101 C187.444544,226.365117 187.799924,223.817436 188.141637,221.283452 C189.356536,221.796392 190.726576,221.796392 191.941476,221.283452 C193.131124,223.202388 194.504456,225.000646 196.042022,226.652759 C200.204102,231.573278 203.44541,237.206445 205.609962,243.281172 C206.389066,245.486423 207.181838,247.938224 209.204774,249.088789 C209.901867,249.486008 210.694639,249.691467 211.378063,250.11608 C212.220782,250.704837 212.944344,251.448512 213.510347,252.307634 L218.417334,258.827506 L218.499345,259.169936 C218.546072,259.357664 218.619739,259.537603 218.718041,259.704127 C219.020644,260.045558 219.440172,260.260651 219.89353,260.306805 C224.923533,261.471068 230.568618,262.53945 234.928865,259.800008 C238.865389,257.320813 240.587619,252.458303 243.922729,249.18467 C246.287377,246.869841 249.636157,245.075507 250.305912,241.829268 C249.507708,241.577834 248.723002,241.285237 247.954933,240.952646 C248.638357,240.267786 249.321781,239.487045 250.251238,238.569332 C251.601522,237.249191 252.819294,235.799473 253.887056,234.241013 C255.0361,232.310501 255.953683,230.250795 256.620753,228.104663 C259.254215,220.571197 261.896789,213.042298 264.548475,205.517963 C265.805976,201.942991 267.063477,198.36802 268.649021,194.902625 C270.289239,191.14959 272.230164,187.533526 274.020736,183.848977 C278.628573,174.310064 282.189566,164.298122 284.64115,153.989058 C285.072857,152.570997 285.216929,151.080683 285.064873,149.605951 C284.682155,147.236333 282.891584,145.38721 281.183023,143.688756 C279.465157,141.824891 277.506981,140.198861 275.360248,138.853641 C273.183022,137.496856 270.553492,137.072484 268.061276,137.675681 C264.562144,138.716669 262.361517,142.305338 261.555077,145.894007 C260.748636,149.482676 261.049343,153.208317 260.70763,156.851775 C260.215565,162.125201 258.411325,167.206866 257.973933,172.493989 C257.741569,175.562164 257.973933,178.657734 257.604884,181.698515 C256.934443,185.700842 255.545105,189.548113 253.504338,193.053502 C249.071396,201.400046 243.070192,208.809178 235.830985,214.873158 C234.997208,215.585413 234.136093,216.242879 233.315984,217.009923 C233.315984,216.407246 233.411663,215.818266 233.493674,215.229285 C232.898912,215.380077 232.318151,215.581708 231.757776,215.831963 C231.827435,215.144774 231.757695,214.450565 231.552749,213.791078 C230.45927,210.517445 225.593289,209.681915 224.718506,206.339796 C224.572168,205.516731 224.494445,204.682889 224.486142,203.846904 C224.199104,200.929398 222.217173,198.4639 221.533749,195.628577 C220.850324,192.793255 221.383395,190.149693 220.1669,187.71159 C219.126692,186.198433 217.905686,184.818464 216.531083,183.602427 C214.88872,181.72253 213.704863,179.485824 213.072956,177.068857 C212.895265,176.397694 212.731244,175.699136 212.539885,175.027973 C212.748138,173.512663 212.579095,171.96926 212.047819,170.535288 C210.803987,167.426021 207.591893,165.439926 206.430071,162.316962 C205.527951,159.892556 205.924337,156.838078 204.215777,154.947863 C203.310441,154.044454 202.198303,153.37671 200.976345,153.002859 C194.722826,150.56281 188.155977,149.02256 181.471415,148.427991 C177.72625,148.08556 173.598367,147.880102 170.919344,145.250238 C167.789261,142.182063 167.638907,136.662087 163.975753,134.29247 C160.74999,132.196796 156.184716,133.758278 153.683383,136.689481 C153.307434,137.122667 152.960412,137.580234 152.644578,138.059202 C152.188477,136.227959 152.090999,134.325469 152.357539,132.457043 C152.357539,131.977641 152.453219,131.498239 152.494224,131.087322 C158.657309,129.080154 163.908425,124.94422 167.310864,119.417299 L167.310864,119.485785 L167.474885,119.910399 C167.871271,120.910295 168.500022,121.882797 169.429479,121.978678 L169.429479,121.978678 C170.049355,121.980257 170.649779,121.761903 171.124371,121.362303 C171.952095,120.792162 172.713202,120.130537 173.39334,119.389905 C173.735052,119.02008 174.063096,118.622861 174.377471,118.211945 C175.959862,116.06847 177.000975,113.573007 177.411875,110.938726 C177.657908,109.34985 177.685245,107.706184 177.958614,106.131005 C178.213988,104.896595 178.547257,103.679665 178.956414,102.487547 C179.093099,102.090328 179.229784,101.693109 179.3528,101.29589 C179.475816,100.898671 179.653507,100.36448 179.790192,99.9261689 C180.646671,97.1092942 181.106723,94.1864346 181.15704,91.2421376 C181.15704,90.749038 181.15704,90.2559384 181.15704,89.7628389 C181.053407,85.8818865 179.398695,82.2052477 176.564429,79.5584172 C174.213449,77.6408077 171.097034,76.8189751 169.374805,74.2165051 C168.253989,72.449565 168.007956,70.1895253 167.351869,68.148641 C165.909748,63.1271857 161.742294,59.365407 156.608439,58.451016 C153.57802,58.1164768 150.535009,58.9597208 148.10664,60.8069362 L148.10664,60.8069362 L147.915281,60.9439083 L147.915281,60.9439083 C146.559905,61.981106 145.410189,63.2633179 144.525497,64.7243384 C142.719567,64.2258195 141.066011,63.2843249 139.71419,61.9848963 C138.347341,60.7110558 137.294868,59.1084821 135.91435,57.8757332 C133.286659,55.4642917 129.557576,54.6770194 126.182388,55.8211517 C122.719739,57.2111245 120.132354,60.1808989 119.225129,63.8066253 C118.473362,66.6419478 118.610047,69.8744895 117.038171,72.2441068 C115.821676,74.0658358 113.826077,74.9835489 112.431891,76.6546086 C111.562808,77.7108856 110.97081,78.9679934 110.709662,80.3117637 L110.709662,80.3117637 C110.543164,81.057868 110.465169,81.8210648 110.477297,82.5855006 L110.477297,82.5855006 C110.477297,82.9142337 110.477297,83.256664 110.559308,83.5990942 C110.559308,83.5990942 110.559308,83.7086719 110.559308,83.7497635 C110.609079,84.1293735 110.686744,84.504784 110.791673,84.8729348 L110.791673,84.8729348 C111.180246,86.2615118 111.876392,87.5443634 112.828277,88.6259704 C113.734878,89.6536327 114.860758,90.4635356 116.122382,90.9955878 C116.639857,91.1974235 117.169401,91.3666851 117.707927,91.5023846 L119.334477,91.8722092 L119.908553,92.0091814 C115.938228,99.5013189 115.655559,108.414003 119.143118,116.143666 C119.143118,116.513491 119.047438,116.897013 119.006433,117.280534 C118.784122,122.678556 119.021905,128.085743 119.717194,133.443243 C119.908553,135.552613 120.017901,137.908533 118.719395,139.579593 C118.128328,140.24659 117.463403,140.843983 116.737464,141.36023 C117.475562,140.401425 118.227329,139.442621 118.992764,138.497513 C117.065508,136.552509 114.017435,136.30596 111.283738,136.511418 C105.990661,136.894545 100.851691,138.467566 96.2484032,141.11368 C93.1866622,142.866923 90.0429104,145.222843 86.5437779,144.79823 C84.4798364,144.579075 82.443232,143.428509 80.4339645,143.976397 C79.3047247,144.439425 78.2499691,145.067147 77.3038811,145.839218 C76.5547357,146.375299 75.6546824,146.658356 74.7342057,146.647353 C72.5882534,143.990095 69.2668112,142.19576 66.6971357,140.045298 C63.7692845,137.439824 61.0921676,134.564474 58.7010713,131.457147 C54.2724817,126.115235 49.8575606,120.745929 45.510982,115.335531 C41.8478276,110.788057 38.0889939,105.857061 37.446575,100.035747 C37.3806362,99.4628674 37.3486869,98.8865712 37.3508956,98.3098981 C37.4407856,95.5439975 37.7885677,92.792579 38.3897006,90.0915719 C38.5534337,89.4443426 38.5534337,88.7664029 38.3897006,88.1191736 C37.979646,86.7494526 36.4077701,86.2289586 35.0545899,85.92762 L35.0545899,85.92762 C35.2307739,84.8798463 35.3539477,83.8238114 35.4236391,82.7635644 C36.1890743,70.9839635 35.3552966,59.0126017 37.8429611,47.4795506 C38.7860867,43.0553516 40.3306256,38.5489694 43.515383,35.330125 C48.5043805,30.2895516 56.8558256,29.0704999 60.6830018,23.0026357 C63.8814276,18.0168512 62.6102583,10.9627878 58.5917234,6.56598333 C54.5731884,2.16917881 48.3813641,0.37484426 42.4902465,0.593999625 C40.8366341,0.548650605 39.2062268,0.991643373 37.8019557,1.86784019 C36.4912174,3.02968383 35.5103811,4.51820643 34.9589105,6.18246144 L29.040456,20.3864685 C27.3404551,24.1059096 25.906212,27.9416469 24.7485513,31.8647308 C23.1083329,37.8778061 22.7392838,44.1922201 21.4407776,50.2463871 C21.4407776,54.9034386 18.4473791,60.7110558 16.8071607,64.9982826 C14.9755835,69.8333978 12.993653,74.5863298 11.3397662,79.5036283 C10.9297116,80.7500745 9.49452053,84.4072296 8.60606892,87.7219545 C8.27052392,87.9129301 7.95856133,88.1427964 7.67661185,88.406815 C6.9627749,89.3233604 6.31419738,90.289117 5.73568679,91.2969264 C4.49185454,92.9542889 2.46891856,93.8309103 1.10206993,95.4060895 C-0.264778702,96.9812687 -0.551816915,99.9124717 1.34810268,100.70691 C1.73382611,100.836878 2.13258675,100.924146 2.53726099,100.967157 C2.78621526,100.988182 3.03305745,101.029408 3.27535925,101.090432 C5.3256322,101.665715 6.13207289,104.268185 5.83136619,106.391252 C5.53065949,108.51432 4.46451756,110.500415 4.28682724,112.63718 C3.91777811,116.431307 6.13207289,119.937793 8.26435676,123.115546 C10.4717118,126.564697 12.9103153,129.859611 15.5633284,132.977537 C17.490585,135.127999 19.6638743,137.086701 21.6047994,139.168677 C28.9994505,146.770628 34.8768996,155.687512 41.519784,163.94693 C43.9092837,167.073673 46.626637,169.934498 49.6251963,172.480292 C51.5865195,174.006017 53.6357819,175.414702 55.7623467,176.699033 C59.5621859,179.137136 63.3756936,181.547845 67.1892013,183.972251 C68.4856769,184.919672 69.9521438,185.607942 71.5084429,185.999439 C72.0159762,186.074611 72.5317801,186.074611 73.0393134,185.999439 C73.1076558,186.328172 73.1623298,186.670602 73.2443407,186.999335 C74.1327923,190.588004 76.0873858,193.84794 76.3060816,197.505095 C76.5247774,201.16225 76.1967337,204.915286 76.456435,208.599836 C76.7024677,212.024138 77.4542345,215.448441 77.6455933,218.817955 C78.0283109,225.269341 76.4427665,231.665938 74.911896,237.994049 C72.6019218,247.239666 71.2077362,256.704438 66.7108042,265.087131 C65.4533035,267.40196 63.977107,269.771577 63.977107,272.401441 C63.977107,272.730174 63.977107,273.04521 64.0591179,273.360246 L64.0591179,273.360246 L62.0088449,274.510812 C61.4074315,274.866939 60.8060181,275.209369 60.2592787,275.565497 C57.6622663,277.250254 54.8875636,279.126772 53.8214216,282.057975 C52.960307,284.427592 53.3566931,287.153337 52.3178881,289.440771 C52.27142,289.545489 52.2165668,289.646264 52.1538663,289.74211 C51.0603874,291.878874 48.8870981,293.467751 48.3950326,295.809974 L48.3950326,295.809974 C48.0259834,297.618006 48.7367447,299.508221 48.3950326,301.288858 C48.3950326,301.288858 48.3950326,301.288858 48.3950326,301.357344 C48.08562,302.252147 47.8389864,303.167524 47.6569343,304.096786 C47.6422449,304.400479 47.6698472,304.704742 47.7389452,305.000802 C47.9961458,306.03999 48.5693276,306.973368 49.3791636,307.671758 C49.8713991,308.14545 50.406806,308.571924 50.9783765,308.945599 C51.5661214,309.32912 52.1675348,309.685248 52.7826167,310.027678 L53.1379973,310.219439 C53.6573998,310.493383 54.1768023,310.739933 54.7098733,310.986483 L55.0652539,311.150849 C55.6803358,311.411096 56.3090862,311.657646 56.9378365,311.876802 L57.3752281,312.013774 C57.8672936,312.17814 58.3730276,312.328809 58.8787616,312.465782 L59.2204737,312.561662 L59.5348489,312.630148 L60.9016976,312.91779 L61.4074315,313.01367 C62.0088449,313.123248 62.6239268,313.205431 63.2526772,313.26022 C63.4303675,313.26022 63.6217263,313.26022 63.7994167,313.26022 C64.2641452,313.26022 64.7152052,313.328706 65.1662653,313.342403 L65.8086841,313.342403 C66.2870812,313.342403 66.7518097,313.342403 67.1755328,313.342403 L67.6675983,313.342403 C68.3100171,313.342403 68.952436,313.246523 69.5948548,313.164339 L69.7998821,313.164339 C70.3739586,313.082156 70.948035,312.986276 71.5221114,312.863001 L71.959503,312.76712 C72.4925739,312.657543 73.0256449,312.52057 73.5587159,312.369901 L73.8457541,312.287718 C74.4881729,312.095957 75.1305918,311.876802 75.7593422,311.643949 C77.9324719,310.742308 80.0422366,309.694361 82.0741829,308.507288 C83.4410315,307.740244 84.8078801,306.9732 86.1747287,306.274643 C87.188343,305.76255 88.2286429,305.305319 89.2911436,304.904921 C91.8745317,303.791999 94.688299,303.322052 97.4922354,303.5352 C98.8760342,303.728756 100.245783,304.012433 101.592781,304.384427 C101.60041,304.530431 101.60041,304.676735 101.592781,304.822738 C102.704485,311.415662 103.80252,317.994889 104.886887,324.560418 C106.673045,323.26455 108.566144,322.123554 110.54564,321.149813 C110.176102,322.137859 109.932695,323.168757 109.82121,324.217988 C109.738993,325.037756 109.738993,325.863718 109.82121,326.683486 C109.944226,327.971024 110.217596,329.422928 109.438492,330.436522 C108.960095,331.08029 108.071644,331.436418 107.811943,332.148673 C107.622141,332.872268 107.575704,333.626127 107.675258,334.367621 C107.560235,336.130045 106.178115,337.544167 104.422158,337.696043 C105.22247,339.965666 104.369817,342.489391 102.358217,343.804999 C101.789558,344.08079 101.257022,344.425826 100.772672,344.83229 C100.305241,345.437505 99.9910223,346.147157 99.8568835,346.900568 C98.0540449,353.685226 94.3383147,359.805525 89.1544588,364.528878 C87.2139638,366.062974 85.4408626,367.79848 83.8647546,369.706424 C82.8981019,371.189625 82.0960166,372.774202 81.4727695,374.431961 C77.8278398,383.371674 74.1282361,392.311386 70.3739586,401.251099 C68.2963486,406.250581 66.2734127,411.332246 65.6173253,416.715249 C63.977107,431.467145 50.8553601,443.986395 53.3156876,458.64241 C53.8151415,462.307044 55.2880096,465.769881 57.5802554,468.668768 C60.3139526,471.956099 64.4144985,473.860011 68.5150444,475.394098 C79.0534474,479.503262 90.1659268,481.735907 101.237401,483.995947 L118.623715,487.570918 C122.035386,488.357285 125.497201,488.906481 128.984428,489.214584 C133.180653,489.502225 137.486226,489.105006 141.573104,490.173388 C144.101774,490.844552 146.521096,492.063603 149.131777,492.200575 C151.373408,492.32385 154.134443,491.844448 155.460286,493.666177 C156.786129,495.487906 155.760993,497.939707 157.018493,499.555977 C159.041429,502.158447 163.975753,499.555977 166.176379,502.007778 C166.777654,502.939274 167.238246,503.954707 167.543228,505.021164 C167.87752,505.683265 168.342537,506.270418 168.910076,506.747013 C169.043921,507.524764 169.098875,508.314092 169.074098,509.102933 C168.787388,512.279104 168.126709,515.41013 167.105836,518.430733 C165.465618,523.991801 163.829956,529.557434 162.19885,535.127633 C161.577756,537.095236 161.120573,539.111069 160.832001,541.154405 C160.729497,542.147086 160.729497,543.147717 160.832001,544.140397 C161.119039,547.167481 162.854937,550.290444 165.738988,551.276644 C167.976329,551.869332 170.355552,551.575978 172.381872,550.454811 C174.340102,549.436704 176.174678,548.195763 177.849266,546.756564 C180.875593,544.462019 183.535065,541.718438 185.735983,538.620421 C192.570226,528.374908 190.355931,514.527028 195.15357,503.199435 C198.338327,495.624878 204.54382,489.502225 206.607762,481.516751 C207.091286,480.000098 207.14804,478.37919 206.771783,476.832306 C205.910669,474.092863 202.999281,472.531381 200.279252,471.545182 L200.156236,471.545182 C197.923543,470.746238 195.640457,470.096479 193.321993,469.600178 C192.747917,469.476904 192.160172,469.367326 191.572427,469.285143 C190.2755,468.215639 189.241862,466.861118 188.551691,465.326649 C188.444387,464.515937 188.228294,463.723466 187.909272,462.970729 C187.469713,462.304903 186.737089,461.891936 185.94101,461.861255 C184.574162,461.724283 182.742585,462.231079 181.25272,462.121502 C178.204647,461.888649 176.181711,458.88896 173.448014,457.519239 C170.714317,456.149518 167.748255,456.478251 164.836867,456.683709 C163.795607,456.826348 162.736476,456.761177 161.720453,456.491948 C160.508701,455.921601 159.400087,455.153198 158.440016,454.218211 C155.026906,451.563412 150.567083,450.670587 146.398079,451.807502 C145.089435,452.332594 143.704765,452.642487 142.297534,452.725215 C139.632179,452.588243 137.745928,450.191231 135.777666,448.3832 C130.392282,443.438507 122.724261,442.137272 116.190725,438.891033 C115.190728,438.518166 114.356828,437.799116 113.839745,436.863846 C113.087978,435.014722 114.782871,433.138205 116.313741,431.864364 L127.549237,422.522867 C139.850875,412.277353 155.227922,404.552127 160.941349,389.539984 C161.531569,387.523303 162.45566,385.620305 163.675046,383.910431 C164.117223,383.387768 164.62753,382.927066 165.192248,382.54071 C167.673766,380.916707 170.687875,380.322441 173.598367,380.883347 C177.140561,381.685799 180.498624,383.154553 183.494351,385.211666 C188.387669,388.197657 193.144303,391.361713 197.777919,394.799713 C202.369127,398.070756 206.730541,401.654173 210.831324,405.524629 C218.007279,412.373234 223.980408,420.481982 230.664298,427.864779 C237.348187,435.247575 244.988871,442.137272 254.269773,445.671152 C263.550676,449.205032 274.772503,449.040666 282.74123,443.109774 C291.940122,436.261169 294.892515,424.02956 297.216157,412.797847 C302.34184,407.82576 303.886379,400.292294 306.387712,393.621753 C307.959588,389.403012 309.968855,385.403427 311.663747,381.184686 C313.686683,376.226296 315.272228,371.117236 316.857772,366.008177 C318.654507,360.877683 319.874,355.562199 320.49359,350.160504 C321.149677,341.613445 318.86704,332.545892 321.259025,324.519327 C324.416445,323.820769 327.286827,322.040132 330.389574,321.012841 C335.009522,319.478753 339.957514,319.725303 344.850832,319.766395 L345.165207,319.766395 C346.852792,319.941003 348.549461,319.535266 349.976515,318.615829 C351.616733,317.246108 351.876434,314.917582 351.958445,312.780817 C352.149804,307.603272 351.82176,301.713471 347.898905,298.330261 Z M149.856206,64.6695495 C148.726119,64.9497475 147.55637,65.0331457 146.398079,64.9160993 L149.856206,64.6695495 Z"/>
      <path fill="#BE6F72" d="M156.24677 150.934831C154.571863 152.326634 152.608693 153.34699 150.492283 153.925721L140.684756 157.363214C135.359089 159.230829 129.798262 161.111976 124.182104 160.435305 121.042035 160.056368 107.582622 158.121087 105.549185 155.725668 102.450615 152.017506 113.309443 146.563531 117.016661 143.437307 117.856939 142.846291 118.635375 142.175372 119.340588 141.434358 120.723878 139.783279 120.544051 137.469061 120.35039 135.384912 119.646882 130.105067 119.406235 124.776028 119.631079 119.456056 119.738855 118.187829 119.92362 116.926994 120.184395 115.680227 121.567685 109.454846 127.488167 111.728463 132.163688 113.379542 137.791835 115.168219 143.234052 117.474703 148.417348 120.268062 149.99626 121.06439 151.368348 122.203103 152.42889 123.597288 154.476159 126.628778 153.660018 130.607608 153.328028 134.424038 153.037537 137.387861 153.05137 140.229882 154.946478 142.381699 155.900123 143.204415 156.77521 144.110385 157.560896 145.088386 158.469316 147.109397 157.938011 149.47313 156.24677 150.934831zM20.5793873 52.3796449C21.9550058 46.3826545 22.2576419 40.2235833 23.908384 34.2941265 25.0959086 30.4326188 26.5623686 26.6591722 28.296607 23.002496L34.2943037 9.09055875C34.8496971 7.45347427 35.8369601 5.99011303 37.1555901 4.84944392 38.5688713 3.98543161 40.2097394 3.54859916 41.8739616 3.59331755 47.8028773 3.37720979 54.034429 5.20061903 58.0787474 9.46874734 62.1230658 13.7368756 63.402391 20.6928442 60.1834437 25.5957891 56.3317119 31.4847256 47.9266829 32.6868251 42.9056754 37.6573036 39.7004843 40.8178796 38.1460354 45.234582 37.1968587 49.5972575 34.693233 60.942915 35.5323603 72.720788 34.762014 84.3095668 34.5144026 87.9023583 33.799081 92.0219126 30.6351585 93.8993487 28.7208543 94.8133077 26.5959459 95.2184745 24.4723876 95.0744347L15.4483303 95.209502C13.93515 95.209502 8.44643219 96.1414668 7.44223069 95.0339145 5.68143902 93.0619312 9.69824502 83.3235751 10.4273228 81.1489908 12.0505526 76.3135796 14.0451995 71.6267425 15.9297968 66.8723717 17.5667828 62.6717771 20.5793873 56.9584281 20.5793873 52.3796449z"/>
      <path fill="#444" d="M206.652993 482.914184C204.598039 490.804798 198.419569 496.948009 195.24868 504.47003 190.471933 515.732584 192.62215 529.50703 185.872103 539.691109 183.680508 542.774642 181.032557 545.504541 178.01973 547.786496 176.348654 549.21206 174.522576 550.443943 172.576143 551.458772 170.558647 552.575213 168.189785 552.868581 165.962186 552.277866 163.090695 551.294953 161.362356 548.182392 161.076568 545.179044 160.974477 544.194235 160.974477 543.20146 161.076568 542.216651 161.362385 540.184319 161.817613 538.179612 162.437464 536.223607 164.07054 530.690167 165.69908 525.156726 167.323083 519.623285 168.339448 516.61741 168.997262 513.501339 169.282774 510.34021 169.45969 506.900012 167.282256 502.422293 168.207666 499.214172 168.629543 497.767104 170.208183 496.483855 170.929459 495.268865 171.953365 493.520202 172.740533 491.642528 173.270201 489.685368 174.386136 485.876577 175.148238 481.808406 177.48898 478.600284 179.016211 476.697662 180.802918 475.020251 182.796476 473.617457 184.267888 472.323667 185.992106 471.35192 187.859012 470.764277 189.670259 470.444658 191.529706 470.533258 193.302598 471.023657 195.610966 471.518304 197.88411 472.165899 200.10708 472.962182L200.229561 472.962182C202.951354 473.945095 205.836455 475.460421 206.69382 478.21804 207.115499 479.756814 207.101362 481.383022 206.652993 482.914184L206.652993 482.914184zM352.953161 314.310503C352.870083 316.479299 352.607003 318.899955 350.945446 320.257201 349.498539 321.19259 347.779558 321.60219 346.071543 321.418556L345.697693 321.418556C340.754559 321.418556 335.728347 321.138712 331.048293 322.69185 327.48979 323.881189 324.22206 326.063977 320.511248 326.497737 315.401959 327.08541 310.597288 324.258979 306.069543 321.796347 301.80653 319.47553 297.430124 317.374012 292.957084 315.499842 290.021666 314.282518 284.026212 313.498953 282.613888 310.252755 282.129959 308.716727 281.72328 307.15693 281.395412 305.57935 281.162936 304.874191 280.880669 304.186805 280.550787 303.522492 279.720175 302.104735 279.191953 300.5272 279 298.891063 279.005484 297.260327 279.562435 295.680479 280.57848 294.413549 282.859879 291.684381 286.124072 289.987243 289.647815 289.698167 293.137121 289.424161 296.646903 289.612318 300.087936 290.257856L334.17756 295.211106C336.808359 295.588897 339.453005 295.966687 342.042266 296.61033 344.501138 297.041374 346.8198 298.068879 348.799267 299.604667 352.828544 303.018772 353.160856 309.021439 352.953161 314.310503z"/>
      <path fill="#65617D" d="M323.180704,321.774144 C319.084757,330.460617 322.033839,340.738923 321.296568,350.344817 C320.674596,355.7292 319.456471,361.026959 317.664829,366.139651 C316.081063,371.244497 314.497297,376.363067 312.47663,381.316963 C310.783639,385.433775 308.776625,389.550587 307.206512,393.749735 C304.707985,400.446415 303.110566,407.98018 298.045245,412.961522 C295.724209,424.186696 292.775128,436.454794 283.586554,443.261256 C275.599459,449.189465 264.472137,449.395306 255.147033,445.81368 C245.821928,442.232053 238.244427,435.370701 231.568034,427.974162 C224.891641,420.577624 218.925213,412.549841 211.770959,405.661043 C207.663022,401.785807 203.29759,398.195895 198.70489,394.916165 C194.07192,391.540379 189.325173,388.352137 184.464649,385.351439 C181.472376,383.29329 178.117736,381.826308 174.579765,381.028787 C171.674315,380.46864 168.665894,381.05864 166.183075,382.675511 C165.61899,383.062587 165.109256,383.524146 164.667575,384.047782 C163.452248,385.757451 162.529357,387.659014 161.936944,389.674091 C156.229925,404.686731 140.897432,412.398891 128.582286,422.608584 L117.291127,432.008638 C115.761974,433.284849 114.068983,435.151137 114.819906,437.003703 C115.336409,437.940713 116.169374,438.661102 117.168249,439.034663 C123.694457,442.273221 131.353877,443.576879 136.73322,448.517053 C138.699274,450.32845 140.583409,452.7162 143.245775,452.853427 C144.651428,452.770545 146.034544,452.460075 147.341721,451.934006 C151.506271,450.80158 155.958139,451.695473 159.370151,454.349202 C160.310128,455.318013 161.409412,456.116501 162.619602,456.709508 C163.634485,456.979238 164.692429,457.04453 165.732521,456.901626 C168.640643,456.695785 171.726256,456.435054 174.334009,457.738711 C176.941761,459.042368 179.085306,462.116254 182.12996,462.335817 C183.618154,462.445599 185.393064,461.951581 186.812992,462.088808 C187.606268,462.11419 188.338516,462.523066 188.779046,463.186625 C189.09771,463.940763 189.313561,464.73471 189.420745,465.54693 C189.980524,467.481832 191.864659,468.661984 193.093443,470.253818 C194.977579,472.69646 195.250642,476.017354 195.059498,479.104963 C194.424141,488.735208 190.144484,497.755502 183.099334,504.313573 C181.094755,506.373205 178.538208,507.803393 175.740283,508.430385 C172.86709,509.034527 169.931315,507.724933 168.449499,505.178104 C168.144859,504.109661 167.684783,503.092338 167.084183,502.159109 C164.886025,499.73019 159.957236,502.310058 157.936569,499.716467 C156.680479,498.097188 157.581587,495.503596 156.38011,493.829426 C155.178632,492.155256 152.284163,492.457156 150.058699,492.361097 C147.450946,492.22387 145.034338,490.988826 142.508504,490.343859 C138.412558,489.273488 134.125467,489.671447 129.933949,489.38327 C126.450633,489.074594 122.992701,488.524375 119.584857,487.736545 L102.177085,484.154919 C91.1180291,481.890672 80.0180141,479.598981 69.4914317,475.550783 C65.463751,474.013839 61.408764,472.120106 58.5689077,468.826657 C56.2796338,465.932583 54.8081681,462.472192 54.3091234,458.809082 C51.8379023,444.166955 64.9449311,431.651847 66.5969628,416.899939 C67.1840485,411.520638 69.3275938,406.443237 71.3482608,401.448172 C75.0528168,392.519265 78.7482707,383.585784 82.4346226,374.647728 C83.0544241,372.990006 83.8557867,371.406732 84.8239247,369.927118 C86.3949355,368.016651 88.1664442,366.282127 90.1076956,364.753658 C95.2814785,360.034683 98.9929789,353.917387 100.798116,347.133704 C100.932104,346.37889 101.24597,345.667917 101.712877,345.061575 C102.196684,344.654355 102.728623,344.308677 103.296643,344.032372 C105.303806,342.719098 106.15576,340.195582 105.35827,337.925768 C107.110074,337.780107 108.492012,336.367785 108.607721,334.604874 C108.508279,333.861999 108.554664,333.106737 108.744252,332.381795 C109.071928,331.668215 109.891117,331.311424 110.368978,330.68018 C111.147207,329.650977 110.874144,328.210093 110.751266,326.920158 C110.669321,326.103442 110.669321,325.280511 110.751266,324.463794 C111.05018,321.558022 112.343487,318.846672 114.410311,316.792802 C117.673415,313.567966 122.315488,314.405051 126.821029,313.636579 C131.3153,312.661591 135.704868,311.250693 139.928058,309.423709 C151.774821,304.731992 164.248456,301.832394 176.941761,300.819572 C189.676519,299.826535 202.464109,301.881655 214.255834,306.816395 C215.974577,307.516047 217.59485,308.438726 219.075397,309.560936 C220.126566,310.375388 220.98851,311.410307 221.601231,312.593654 C222.105085,314.046389 222.72609,315.455358 223.45806,316.806524 C224.918948,318.810039 227.676885,319.455007 229.274304,321.34874 C230.871723,323.242473 231.008255,326.439864 232.332611,328.786446 C234.230399,332.134787 238.626715,333.685452 239.937418,337.321969 C240.347013,338.474677 240.401625,339.737165 240.701995,340.931041 C241.439265,343.922591 243.651076,346.282896 245.603477,348.643201 C252.760939,357.247726 257.34367,367.716079 258.819731,378.833154 C259.256632,371.875742 263.912358,365.714247 269.742255,361.87189 C271.312368,360.842687 273.128238,359.703702 273.44226,357.837414 C273.838202,355.477109 271.558125,353.377535 271.70831,350.976061 C271.874118,349.803519 272.345106,348.695792 273.073625,347.764948 C275.675644,343.974402 278.531194,340.36615 281.6205,336.965179 C283.299838,335.112614 285.183974,332.848367 284.487663,330.405726 C283.95519,328.580606 282.09836,327.510235 281.074374,325.918401 C279.852654,323.978144 279.906448,321.491017 281.210905,319.605956 C282.166626,318.302299 283.682126,317.355433 284.146334,315.804767 C284.678807,313.979647 283.490982,312.003578 283.859617,310.123567 C284.358576,308.618062 285.349892,307.326656 286.672167,306.459604 C288.483692,304.801803 290.543125,303.440376 292.775128,302.425129 C296.379561,301.052858 300.393588,301.560599 304.216472,302.095784 C310.606148,302.98776 317.774054,304.360031 321.378487,309.739331 C323.72683,313.073949 324.901001,318.178795 323.180704,321.774144 Z"/>
      <path fill="#000" d="M352.953294 313.623797C352.870263 315.73238 352.60733 318.085831 350.946702 319.405396 349.500605 320.314816 347.782586 320.713043 346.075527 320.534508L345.701886 320.534508C346.269267 317.704926 349.770424 316.086078 350.379321 313.215685 350.589783 311.433399 350.038541 309.645166 348.857079 308.277519 345.895626 304.346032 341.135159 302.16943 336.40237 300.57779 323.031759 296.071529 308.707678 295.017559 294.803642 297.516944 291.022872 298.122285 287.344434 299.234555 283.871175 300.822658 282.720157 301.530681 281.611262 302.302821 280.549919 303.135297 279.719772 301.756902 279.191846 300.223164 279 298.632452 279.005481 297.04699 279.56212 295.511005 280.577596 294.279249 282.857719 291.625851 286.120085 289.975831 289.641857 289.694781 293.12921 289.428382 296.637028 289.611316 300.076135 290.238931L334.146684 295.054663C336.776011 295.421965 339.419177 295.789266 342.006989 296.415039 344.464485 296.834116 346.781849 297.833094 348.760209 299.326244 352.828747 302.645562 353.160873 308.481576 352.953294 313.623797zM206.561752 482.415874C204.510905 490.249661 198.344783 496.348631 195.180231 503.81648 190.413031 514.997924 192.55895 528.673168 185.822394 538.783904 183.63518 541.84523 180.992521 544.55547 177.985715 546.820991 176.317978 548.236287 174.49555 549.459299 172.553008 550.466819 170.539544 551.57522 168.175415 551.866475 165.952269 551.280015 163.086516 550.30418 161.361632 547.214035 161.076415 544.232317 160.974528 543.2546 160.974528 542.268975 161.076415 541.291258L161.157905 541.508111C162.339519 544.354296 164.26813 547.336015 167.310446 547.837486 169.618825 548.003402 171.892243 547.202991 173.585222 545.628303 178.067205 542.036688 180.674904 536.683148 183.160368 531.519354 185.105523 527.795657 186.64455 523.874377 187.751005 519.822886 188.294276 517.518831 188.552329 515.160563 189.109182 512.856508 191.689717 501.661511 200.477121 492.52661 202.419313 481.182527 202.577358 480.402177 202.614006 479.60219 202.527967 478.810705 202.271749 477.778471 201.878954 476.784872 201.359935 475.856093 200.887954 474.807052 200.541493 473.706165 200.327721 472.576203 203.044075 473.552038 205.923409 475.056451 206.77906 477.79421 207.134949 479.325299 207.059743 480.924765 206.561752 482.415874L206.561752 482.415874zM186 462.922855C184.736895 466.248882 182.611731 469.172961 179.84581 471.390595 175.96109 474.372136 171.41295 476.35392 166.59588 477.164054 164.353836 477.740281 162.000724 477.711835 159.773053 477.081576 156.743718 476.023108 154.560413 473.163871 151.462849 472.339092 149.252253 471.734253 146.87791 472.27036 144.640022 471.940448 140.614554 471.376849 137.4897 468.283924 134.242034 465.809585 124.294352 458.276595 111.235461 455.843495 101.287779 448.310506 100.844781 448.036562 100.478451 447.653336 100.223418 447.197053 100.032867 446.703213 99.9626752 446.170535 100.018733 445.643718 100.055554 441.074504 101.075094 436.567624 103.007132 432.433494 104.589388 429.54906 106.47417 426.843892 108.629141 424.364398 117.539753 413.367333 126.491302 402.287791 137.162204 393.009018 141.637978 389.118806 146.523123 385.489775 152.172423 383.730244 155.310924 382.754255 161.506051 381.833251 165.326834 383.48281 164.763059 383.870552 164.253605 384.332907 163.812166 384.857444 162.597507 386.570056 161.675124 388.474893 161.083036 390.493439 155.379152 405.531925 140.055083 413.257363 127.746703 423.484633L116.489038 432.85963C114.960725 434.138039 113.268664 436.00754 114.019175 437.863294 114.535394 438.801918 115.367901 439.523547 116.366227 439.897751 122.88885 443.141885 130.544062 444.447787 135.920449 449.396466 137.885424 451.210981 139.768524 453.602843 142.429426 453.740306 143.834308 453.657281 145.216664 453.346277 146.523123 452.819302 150.685385 451.684926 155.134806 452.580358 158.544944 455.238656 159.484405 456.209135 160.583085 457.008997 161.79261 457.603025 162.806935 457.873219 163.864298 457.938624 164.903819 457.795474 167.810343 457.589279 170.894261 457.328099 173.500581 458.634 176.106901 459.939901 178.249268 463.019079 181.292249 463.239021 182.806917 463.28026 184.580852 462.785392 186 462.922855z" opacity=".1"/>
      <path fill="#444" d="M59.5962888,276.751664 C57.0076847,278.43664 54.2555899,280.313401 53.1928998,283.231286 C52.3209489,285.587512 52.7296759,288.313611 51.68061,290.601342 C50.6315442,292.889073 48.274552,294.505554 47.7568312,296.971372 C47.388977,298.765939 48.1110613,300.6564 47.7568312,302.450968 C47.4466768,303.379015 47.1963797,304.326212 47.0074985,305.286658 C46.8712562,307.341507 48.6151578,308.999084 50.3181868,310.122402 C57.682252,314.908182 66.8670717,315.899304 75.0734163,312.793704 C78.7110862,311.423806 81.9945261,309.204569 85.4823294,307.4374 C88.8862631,305.474418 92.7748171,304.524262 96.6950723,304.697602 C98.9430706,304.944184 101.095699,305.779822 103.343698,306.067501 C105.595773,306.528749 107.92867,305.835818 109.569971,304.218137 C110.261942,303.248064 110.727617,302.133677 110.932395,300.957778 C112.826163,293.437033 111.967836,285.464221 110.169438,277.916078 C108.371039,270.367935 105.646193,263.066374 103.725176,255.545629 C102.362753,249.983839 101.313687,244.257661 99.0384402,238.983551 C96.7631935,233.70944 92.9347843,228.805202 87.5804612,226.79145 C87.1587359,226.580407 86.6774488,226.522336 86.218038,226.627062 C85.8717579,226.766455 85.566843,226.992859 85.3324629,227.284614 C81.0948281,231.790701 77.9029097,237.184981 75.9862398,243.079548 C73.8472354,249.641364 73.2613934,256.600451 71.299504,263.203364 C70.4548016,265.943161 69.3648631,269.61449 67.2122344,271.696737 C65.0596058,273.778983 62.0350263,275.189979 59.5962888,276.751664 Z"/>
      <path fill="#000" d="M110.913854 301.967761C110.685475 303.144477 110.196789 304.254374 109.48403 305.215156 107.844813 306.835355 105.511941 307.528784 103.260893 307.064938 101.027645 306.790896 98.8761011 305.955069 96.6292355 305.694729 92.7100726 305.512186 88.8209656 306.463171 85.4221422 308.435147 81.9360961 310.189014 78.6134585 312.367646 75.0048561 313.778961 69.7259666 315.793121 63.9588213 316.123219 58.4869894 314.724405 55.5807644 313.989423 52.8185501 312.766488 50.316569 311.107054 48.6007807 309.983483 46.8713751 308.366636 47.0075487 306.270217 47.1980189 305.309946 47.4481618 304.362642 47.7565039 303.433885 48.1105555 301.638911 47.4024524 299.748023 47.7565039 297.95305 48.2739639 295.486674 50.6433858 293.842424 51.6783057 291.567877 52.7132257 289.293331 52.318322 286.566615 53.1762162 284.196154 54.2383708 281.27761 57.0026964 279.400424 59.5899962 277.715067 62.177296 276.02971 65.254821 274.741714 67.3246609 272.700103 67.6172824 272.40719 67.8859608 272.091018 68.1280856 271.754659 69.6207065 269.438289 70.7162446 266.886201 71.369019 264.204809 73.370772 257.600403 73.9154667 250.653444 76.039776 244.076443 77.9664729 238.182512 81.1606293 232.78837 85.3949074 228.277936 85.6213622 227.983848 85.9224328 227.75664 86.2664189 227.620236 86.7260867 227.526113 87.2036695 227.583779 87.6281557 227.784661 92.9661637 229.81257 96.7926439 234.717917 99.0803617 239.993221 101.368079 245.268524 102.334912 250.95489 103.764736 256.545342 105.671167 264.067788 108.408258 271.371 110.205751 278.920851 112.003243 286.470701 112.806668 294.431613 110.913854 301.967761zM151.571862 134.249712C138.551509 138.603835 124.506358 131.928879 119 118.769938 119.104178 117.451193 119.282774 116.140134 119.534842 114.843704 120.871946 108.370345 126.594753 110.734528 131.114165 112.451376 136.554397 114.311301 141.814907 116.709661 146.825142 119.614289 148.351336 120.442338 149.677612 121.626409 150.702744 123.07613 152.681659 126.186157 151.892767 130.323478 151.571862 134.249712z" opacity=".1"/>
      <circle cx="144.5" cy="106.076" r="27.5" fill="#BE6F72"/>
      <path fill="#000" d="M219,310.697429 C219,313.08148 215.911073,313.842652 213.618804,313.713397 C205.383106,313.210735 197.325848,310.841046 189.172508,311.559134 C178.864159,312.535733 169.393107,318.49586 159.057306,319.041606 C155.076719,319.257033 151.027501,318.639477 147.101818,319.40065 C142.023138,320.391611 137.493504,323.623005 132.318741,324.082581 C127.830286,324.48471 123.396735,322.718215 118.90828,322.904917 C115.788846,323.10889 112.749149,324.02039 110,325.576203 C110.300512,322.535113 111.600736,319.6975 113.678612,317.547984 C116.959165,314.172973 121.62606,315.04904 126.155694,314.244781 C130.673997,313.224389 135.087037,311.747788 139.33281,309.835724 C151.242921,304.925521 163.783257,301.890893 176.544438,300.830906 C189.347293,299.791624 202.203262,301.942448 214.058041,307.106991 C215.785975,307.839225 217.414913,308.804871 218.903377,309.979341 C218.972219,310.211713 219.004666,310.45421 219,310.697429 Z" opacity=".1"/>
      <path fill="#33CCAB" d="M132.357768,156.730894 L121.309246,152.606099 L116.644315,150.887434 C114.744143,150.079925 112.743164,149.538667 110.697209,149.278764 C105.350271,148.866285 100.317055,152.454856 97.4662641,157.033379 C94.6154727,161.611901 93.5379009,167.07038 92.6240108,172.405115 C91.369117,179.683086 90.3051853,186.988557 89.4322157,194.321526 C88.4925764,200.938894 88.0139997,207.614488 88,214.299283 C88.3137234,231.334686 91.8874427,248.122602 95.8158059,264.690529 C97.7398567,272.031707 99.1932622,279.490081 100.167014,287.019419 C100.494377,290.126765 100.644419,293.261609 100.971783,296.368954 C101.326426,299.87503 101.899313,303.353607 102.472199,306.818435 L105.759475,326.576203 C109.85152,323.647599 114.502811,321.076477 119.536027,320.925234 C123.996356,320.760242 128.415764,322.437659 132.862453,322.066427 C137.977509,321.626449 142.506039,318.532853 147.552895,317.58415 C151.453978,316.855436 155.477822,317.432908 159.447105,317.240417 C169.704498,316.717943 179.129842,311.011977 189.359954,310.077023 C197.475843,309.348309 205.537172,311.658195 213.666701,312.125671 C215.930966,312.263164 219,311.534451 219,309.238315 C219,307.643394 217.417743,306.584697 216.040087,305.800986 C209.552069,301.850504 203.373254,297.405682 197.557684,292.505396 C192.183465,288.21561 186.727405,283.815828 183.030925,278.013617 C174.123907,264.05806 177.1793,245.166499 169.581737,230.45473 C163.402749,218.479075 169.581737,202.804854 169.581737,189.330524 C169.581737,182.607108 169.581737,175.801196 168.01312,169.256521 C167.03252,165.603744 165.811289,162.020968 164.357559,158.532054 L159.051541,144.988977 C158.941431,144.593189 158.724169,144.236122 158.424094,143.957778 C158.065859,143.714916 157.64172,143.590018 157.210121,143.600296 C154.025324,143.403859 150.882639,144.414036 148.398584,146.432655 C145.902436,148.481304 144.306539,151.423657 141.851312,153.568551 C139.164202,155.960932 135.699604,157.968332 132.357768,156.730894 Z"/>
      <path fill="#444" d="M150.504673,147.570249 C151.368999,143.805794 152.30085,139.876472 154.77228,136.93635 C157.243711,133.996228 161.754409,132.443733 164.94161,134.545783 C168.560972,136.93635 168.709528,142.459383 171.802193,145.536893 C174.50321,148.17476 178.554736,148.367104 182.228119,148.710577 C188.833079,149.322127 195.320596,150.876117 201.499875,153.326843 C202.705022,153.706862 203.802747,154.375957 204.700581,155.277765 C206.388716,157.228687 206.051089,160.223765 206.888405,162.655548 C208.036337,165.788014 211.210032,167.780153 212.438995,170.898881 C213.789503,174.36108 212.438995,178.235447 211.304567,181.793819 C209.2653,188.19614 207.982316,194.832023 205.997069,201.248084 C204.011821,207.664145 201.189259,213.984033 196.543509,218.806383 C194.490736,220.963388 191.438587,222.928049 188.73757,221.664071 L187.697678,229.275415 C187.394156,230.886523 187.394156,232.541613 187.697678,234.152721 C188.011884,235.800825 189.231967,237.116931 190.830858,237.532487 C191.033434,238.714031 192.262397,239.277326 193.261773,239.923053 C194.751907,240.959696 195.771975,242.560175 196.094235,244.36716 C196.416495,246.174145 196.01411,248.037165 194.976919,249.540275 C194.126099,250.70808 192.870126,251.628586 192.464973,253.016214 C191.857245,255.03583 193.302289,257.13788 195.05795,258.25073 C196.813611,259.36358 198.879889,259.844441 200.66256,260.902335 C204.362954,263.086819 206.348201,267.345874 207.617679,271.508757 C208.563035,274.641223 209.34633,278.02099 211.669205,280.301645 C212.56054,281.180934 213.627442,281.840401 214.478262,282.747167 C215.95263,284.510883 216.803716,286.726221 216.895673,289.039578 C217.265597,291.91124 216.645123,294.824539 215.140012,297.282911 C212.438995,301.225971 207.401598,302.380038 202.985435,304.152355 C195.814235,307.147432 189.912512,312.505598 183.592132,317.066909 C181.018084,319.175962 177.984823,320.626982 174.746302,321.298487 C170.370654,321.902998 166.062532,319.924598 161.659874,319.759731 C159.026,319.773196 156.403961,320.119317 153.853935,320.790148 L145.750883,322.576203 C146.183046,316.18762 142.725744,309.799037 140.794517,303.71271 C137.148144,292.254478 136.47289,279.985651 137.337215,267.991602 C138.201541,255.997552 140.605446,244.140892 142.982341,232.339187 C144.643466,224.095855 144.481405,215.481572 147.033866,207.4718 C149.424267,199.764284 152.841053,192.359023 154.097026,184.349252 C156.149799,171.379742 147.614585,160.388631 150.504673,147.570249 Z"/>
      <path fill="#444" d="M211.26003 173.531199C212.031278 174.930525 212.573752 176.440903 212.867473 178.006698 213.513767 180.432499 214.724527 182.676716 216.403847 184.561582 217.806825 185.786839 219.055149 187.173874 220.121931 188.692811 221.407885 191.088924 220.918663 194.008326 221.519707 196.638542 222.218595 199.489091 224.245371 201.967828 224.538904 204.901001 224.547395 205.741476 224.626877 206.579796 224.776526 207.40728 225.68508 210.753576 230.661163 211.53851 231.765406 214.871035 232.506228 217.046816 231.234251 219.387846 231.471873 221.660022 231.645387 222.362706 231.688011 223.090581 231.597673 223.808261 231.285355 224.621906 230.729705 225.322989 230.004208 225.818793 225.383101 230.18203 222.181894 235.799437 220.806841 241.958129 219.459311 248.076783 218.752067 254.315424 218.696199 260.576203L213.230895 253.456718C212.648215 252.596062 211.908928 251.849048 211.050364 251.253395 210.351476 250.840273 209.540766 250.633711 208.8279 250.234359 206.759191 249.077615 205.948481 246.612648 205.151749 244.409325 202.934633 238.311952 199.620173 232.658186 195.367316 227.719158 193.144852 225.157796 190.558966 222.555122 190.069744 219.208826 189.923151 217.67642 190.007939 216.13107 190.321344 214.623161 191.71912 205.589539 193.21474 196.363127 197.673646 188.348542 199.756333 184.602894 202.454041 181.215286 204.452861 177.414555 205.794726 174.880734 207.681723 168.32585 211.26003 173.531199zM75.628147 182.737641C75.6529336 183.889489 75.3636672 185.025895 74.7922726 186.021437 73.7561597 187.282425 72.1056876 187.839003 70.5320093 187.458098 68.9969611 187.067022 67.5505185 186.379493 66.271746 185.43309 62.514805 183.024973 58.7578639 180.612295 55.0009229 178.195056 52.9033959 176.912106 50.8821158 175.504936 48.9475741 173.980851 45.9904793 171.447369 43.3101828 168.598743 40.9528395 165.484028 34.4006624 157.274537 28.6034687 148.36724 21.3097901 140.787143 19.3279588 138.734771 17.2652364 136.764493 15.3508143 134.616343 12.7342422 131.5112 10.3289168 128.228943 8.1515086 124.792319 6.04834065 121.631665 3.86428163 118.128949 4.22829146 114.352583 4.444001 112.218116 5.45513943 110.247838 5.75174004 108.127053 6.04834065 106.006268 5.25291175 103.420278 3.23063487 102.845614 2.99164165 102.784656 2.74817004 102.743474 2.5026152 102.722472 2.1034667 102.679507 1.71015105 102.592332 1.32969461 102.462504-.544281964 101.66892-.261163201 98.7271861 1.08702138 97.1810653 2.43520597 95.6349446 4.43051915 94.772948 5.65736712 93.07632 6.22797827 92.069594 6.86769959 91.1048757 7.57178923 90.1893157 8.47462854 89.4037804 9.55303414 88.8542045 10.7130593 88.588465 18.4897185 86.262623 26.7160415 85.9474872 34.6433357 87.6717386 35.9915203 87.9727532 37.5284507 88.5200526 37.9329061 89.8472536 38.0944034 90.4937871 38.0944034 91.1709979 37.9329061 91.8175314 37.3383398 94.5153437 36.9952869 97.2639614 36.9082858 100.027022 36.9061072 100.603075 36.9376203 101.178752 37.0026587 101.751015 37.6363055 107.552389 41.3438131 112.464401 44.9569477 116.993303 49.2441747 122.384202 53.5988109 127.734053 57.966929 133.070222 60.3292629 136.162475 62.9695693 139.025296 65.8538088 141.621775 68.550178 143.893067 72.041976 145.72652 74.145144 148.64089 75.8573384 150.994277 75.3045827 154.209661 75.4933286 157.041935 76.1204246 165.593834 76.1654711 174.17945 75.628147 182.737641z"/>
      <path fill="#BE6F72" d="M249.870431,240.563555 C251.228014,239.234439 252.454464,237.778685 253.532931,236.216294 C254.692767,234.289509 255.617243,232.231565 256.286691,230.086244 L264.272594,207.527113 C265.539323,203.961536 266.806053,200.382245 268.403233,196.926378 C270.055489,193.168808 272.010659,189.575804 273.814371,185.886803 C278.450992,176.381923 282.038117,166.403873 284.512728,156.127949 C284.949828,154.713325 285.095019,153.225237 284.93956,151.75326 C284.554034,149.394494 282.750322,147.543136 281.029222,145.856344 C279.298749,143.990228 277.326201,142.362233 275.163714,141.015388 C272.965628,139.670012 270.322203,139.245993 267.811175,139.836004 C264.286363,140.87825 262.069586,144.457541 261.257227,148.064259 C260.444868,151.670977 260.747781,155.359978 260.403561,159.035265 C259.907885,164.301348 258.090403,169.375439 257.649802,174.655235 C257.415732,177.713403 257.649802,180.812713 257.278044,183.857167 C256.600233,187.850741 255.200696,191.688728 253.147405,195.184731 C248.700215,203.533944 242.673526,210.947547 235.399423,217.017033 C233.403653,218.484357 231.607844,220.203839 230.057129,222.132265 C228.764338,224.062171 227.887608,226.238231 227.482364,228.522876 C226.566722,232.007241 226.963443,235.704926 228.597637,238.917904 C230.841951,242.716615 235.151585,244.403407 239.268456,245.25366 C244.775975,246.391902 246.056473,244.444548 249.870431,240.563555 Z"/>
      <path fill="#3F3D56" d="M143.901883,66.5028476 C146.322971,61.9466724 151.215476,59.2818986 156.335436,59.7307322 C161.482869,60.6469122 165.665365,64.4225779 167.122161,69.4682341 C167.767169,71.523316 168.027917,73.7990778 169.153249,75.5645172 C170.854972,78.2264689 174.011393,78.9988486 176.371846,80.929798 C179.216745,83.5898718 180.878335,87.2875851 180.982965,91.1914148 C181.113386,95.1438447 180.493948,99.0850959 179.157731,102.804696 C178.590508,104.389622 178.131983,106.011739 177.785374,107.659655 C177.510903,109.245792 177.483455,110.887099 177.236431,112.487028 C176.628582,116.691381 174.350858,120.468501 170.92359,122.955532 C170.447085,123.357912 169.844241,123.577785 169.221867,123.576203 C168.151429,123.465855 167.492697,122.196945 167.094714,121.079753 C164.912666,114.748997 165.434162,106.997615 161.413156,101.963354 C159.585884,99.9058884 157.363998,98.2404872 154.880738,97.067018 C153.877612,96.4110563 152.744269,95.9827413 151.559634,95.8119009 C149.817867,95.8992368 148.143266,96.5147381 146.756385,97.5773403 C143.853918,99.5190115 140.641873,100.9465 137.259675,101.797844 C133.837422,102.600517 130.237348,101.821222 127.447324,99.6737997 C125.553471,98.0876627 124.167391,95.7291459 122.067685,94.5016138 C119.967979,93.2740817 117.772208,93.3568366 115.699949,92.5017019 C113.024437,91.3470859 111.031082,89.0132138 110.300905,86.1803595 C109.570728,83.3475052 110.18591,80.334504 111.967138,78.0195815 C113.339495,76.3506895 115.370583,75.4265923 116.591981,73.5921903 C118.170191,71.2060886 118.032956,67.9510596 118.787752,65.1098055 C119.704374,61.4682267 122.301719,58.4885864 125.773048,57.0963655 C129.159741,55.9467659 132.900385,56.7335009 135.544229,59.1514474 C136.916586,60.392772 138.014472,62.006494 139.359381,63.2891961 C142.057307,65.8848937 145.883179,66.9241065 149.514822,66.0476952"/>
      <path fill="#000" d="M166.785997,268.574326 C165.148887,270.051144 164.571039,272.392555 165.329484,274.476039 C165.631779,275.130238 179.812178,272.37425 181.309914,272.151543 C185.047384,271.608697 191.601696,271.873161 194.116243,268.421216 C198.595711,262.282878 184.717607,263.633034 182.175578,263.85574 C177.338853,264.398587 170.468504,264.997109 166.785997,268.574326 Z" opacity=".1"/>
      <path fill="#3F3D56" d="M38.7986203,91.8242846 C38.1885331,94.4976575 37.836525,97.2213756 37.7472528,99.9594059 C33.5971182,100.786477 29.2809781,99.430623 25.2968488,98.0747694 L13.8563109,94.2512624 C12.4118553,93.3466425 10.4989272,93.6966968 9.48483574,95.051216 C7.6449427,96.9222939 5.11336056,100.47463 2.56794463,102.576203 C2.15837657,102.533628 1.75479363,102.447243 1.36440558,102.318591 C-0.558490154,101.532196 -0.267980727,98.6171108 1.1153975,97.0849963 C2.49877572,95.5528818 4.54617549,94.6986941 5.80504967,93.0174357 C6.39055631,92.0198297 7.04697722,91.0638506 7.76944674,90.1565847 C8.6958542,89.3781655 9.80241099,88.8335682 10.992718,88.570236 C18.9723827,86.2654637 27.4134495,85.9531827 35.5476814,87.6618142 C36.9310597,87.9601019 38.5081108,88.5024434 38.9231243,89.8176213 C39.0578474,90.4859083 39.0149732,91.176922 38.7986203,91.8242846 Z"/>
      <path fill="#000" d="M38.7986203 91.8242846C38.1885331 94.4976575 37.836525 97.2213756 37.7472528 99.9594059 33.5971182 100.786477 29.2809781 99.430623 25.2968488 98.0747694L13.8563109 94.2512624C12.4118553 93.3466425 10.4989272 93.6966968 9.48483574 95.051216 7.6449427 96.9222939 5.11336056 100.47463 2.56794463 102.576203 2.15837657 102.533628 1.75479363 102.447243 1.36440558 102.318591-.558490154 101.532196-.267980727 98.6171108 1.1153975 97.0849963 2.49877572 95.5528818 4.54617549 94.6986941 5.80504967 93.0174357 6.39055631 92.0198297 7.04697722 91.0638506 7.76944674 90.1565847 8.6958542 89.3781655 9.80241099 88.8335682 10.992718 88.570236 18.9723827 86.2654637 27.4134495 85.9531827 35.5476814 87.6618142 36.9310597 87.9601019 38.5081108 88.5024434 38.9231243 89.8176213 39.0578474 90.4859083 39.0149732 91.176922 38.7986203 91.8242846zM142.210234 351.971662C144.186527 352.618278 146.327511 353.581323 147 355.576203L131.10731 351.517655 122.872755 349.426471C121.417984 349.05501 116.202766 348.614761 115.242068 347.472864 113.869642 345.794414 118.741754 346.963826 119.620106 347.087646 122.282612 347.472864 124.945118 347.885598 127.5939 348.367121 132.58953 349.275135 137.39302 350.747218 142.210234 351.971662zM148 365.576203C146.634885 364.662378 142.717004 364.785131 141.037912 364.375955 138.580705 363.78947 136.164451 363.012037 133.748197 362.261882 128.847433 360.666098 123.987623 358.852087 118.950348 357.692756 118.022069 357.47453 114.855002 357.433612 115.005164 356.247003 115.155327 355.060395 118.172232 354.664858 118.923045 354.610302 123.386972 354.282961 128.956642 356.383395 133.106593 357.870066 138.392825 359.763648 143.401729 362.355352 148 365.576203L148 365.576203zM138 339.576203C132.909847 338.279751 128.291262 335.336803 123.048544 334.766364 121.6841 334.802075 120.34461 334.419622 119.234397 333.677344 118.617723 333.106333 118.189301 332.381898 118 331.590055 121.509015 331.421516 125.586685 332.821685 128.776699 334.118138 130.527021 334.832393 132.215 335.673322 133.825243 336.633256 134.990291 337.359269 136.737864 339.25209 138 339.576203z" opacity=".1"/>
      <path fill="#444" d="M233.590439 216.576203C231.873838 228.314119 238.862591 239.558049 250 242.976902 249.344153 246.213822 246.064918 248.003006 243.749376 250.311189 240.483525 253.561766 238.797062 258.396659 234.942287 260.855079 230.64582 263.586657 225.117966 262.521341 220.21919 261.374079 219.775246 261.328058 219.364431 261.113582 219.068111 260.773132 218.971851 260.607085 218.899714 260.427663 218.853957 260.240474 217.234417 254.176371 216.177031 247.71619 217.836725 241.665745 219.175189 236.489405 222.387501 232.105223 224.95735 227.52983 227.5272 222.954437 227.768123 218.078571 233.590439 216.576203zM111.25355 138.630746C105.919179 139.022112 100.739556 140.59164 96.0914607 143.22516 93.0039079 144.994352 89.8336527 147.33956 86.3050209 146.914405 84.2236795 146.69497 82.1699055 145.542938 80.143699 146.091525 79.0049391 146.555143 77.9412915 147.183664 76.9872276 147.95672 76.0065149 148.733724 74.6880566 148.941955 73.5137306 148.505306L72.1353588 167.486405C71.6115776 174.714034 71.10158 182.07881 72.8383285 189.114434 73.7342701 192.693962 75.7053418 195.971767 75.9258813 199.606154 76.1464208 203.24054 75.8156115 206.998359 76.0775022 210.687604 76.3256091 214.102556 77.0837136 217.46265 77.2766856 220.891316 77.6626298 227.337209 76.0637185 233.714529 74.5199421 239.982132 72.1904937 249.225817 70.7845545 258.675222 66.2497113 267.054884 64.9816092 269.358948 63.4929677 271.731585 63.4929677 274.364801 63.4929677 274.680238 63.4929677 275.00939 63.57567 275.324828 62.1972982 276.079134 60.9154124 276.778582 59.7437964 277.532889 57.12489 279.219793 54.3267952 281.098702 53.2516652 284.019926 52.383291 286.392564 52.7830188 289.108067 51.7354562 291.398417 50.6878936 293.688766 48.2895267 295.320811 47.7657454 297.789451 47.3935851 299.586073 48.1103384 301.478697 47.7657454 303.275318 47.4536366 304.204928 47.2004379 305.153102 47.0076409 306.114254 46.8698038 308.171454 48.620336 309.830929 50.3570844 310.955531 52.8896298 312.616489 55.6855875 313.840547 58.6273152 314.576203L66.9802483 282.072444 66.9802483 282.072444C74.4591975 268.275649 80.6821007 253.840522 85.5744839 238.939817 86.9754773 234.068806 88.7780722 229.321135 90.9639176 224.745138 92.5214228 222.147052 93.9028663 219.448406 95.099033 216.667199 96.3533513 213.211103 96.4774048 209.466999 97.0838884 205.832612 97.8055962 201.570628 98.8892021 197.377206 100.323062 193.297407 101.811704 188.908714 103.534668 184.506306 103.83791 179.884463 104.292773 173.273994 101.880622 166.306943 104.444394 160.176488 105.532697 157.887061 106.948762 155.766674 108.648428 153.881456 112.204627 149.547621 115.443801 145.021781 119 140.674232 117.084063 138.67189 114.010294 138.438741 111.25355 138.630746z"/>
      <path fill="#000" d="M40.480566.714347826L38.7588679.835652174 38.5522642.983913043C39.2029865.961282666 39.8493972.870918271 40.480566.714347826zM71.9945283 28.7086957C71.7056549 31.3881152 71.1143767 34.0279795 70.2315094 36.58 69.6622196 38.1288169 69.2020228 39.7139768 68.8541509 41.3243478 68.5786792 42.8743478 68.5511321 44.4782609 68.3032075 46.0417391 67.6931431 50.1503038 65.4071179 53.84137 61.9673585 56.2717391 61.4891173 56.6649514 60.8840762 56.8798149 60.259434 56.8782609 59.1850943 56.7704348 58.5239623 55.5304348 58.1245283 54.4386957 55.9345283 48.2521739 56.4579245 40.6773913 52.4222642 35.7578261 50.5883321 33.7472358 48.3583488 32.1197775 45.8660377 30.9730435 44.8592565 30.3320266 43.7217829 29.91347 42.5328302 29.7465217 40.7847148 29.8318679 39.1040111 30.4333462 37.7120755 31.4717391 34.7990298 33.3691732 31.5752784 34.7641396 28.1807547 35.596087 24.7460284 36.3804722 21.132834 35.6189319 18.3326415 33.5204348 16.4318868 31.9704348 15.0407547 29.6656522 12.9333962 28.466087 10.8260377 27.2665217 8.62226415 27.3473913 6.54245283 26.5117391 3.90829948 25.4150767 1.93010942 23.2013442 1.17075472 20.5004348 1.11952517 20.3330079 1.08266763 20.1616884 1.06056604 19.9882609.716354893 21.4928111.754187913 23.0569834 1.17075472 24.543913 1.93010942 27.2448225 3.90829948 29.458555 6.54245283 30.5552174 8.62226415 31.3908696 10.9637736 31.3908696 12.9333962 32.5095652 14.9030189 33.6282609 16.4318868 36.013913 18.3326415 37.563913 21.132834 39.6624102 24.7460284 40.4239505 28.1807547 39.6395652 31.5752784 38.8076179 34.7990298 37.4126515 37.7120755 35.5152174 39.1040111 34.4768245 40.7847148 33.8753462 42.5328302 33.79 43.7217829 33.9569482 44.8592565 34.3755049 45.8660377 35.0165217 48.3460441 36.1584007 50.5662317 37.7763798 52.394717 39.7743478 56.4303774 44.693913 55.9069811 52.2686957 58.0969811 58.4552174 58.4964151 59.5604348 59.1575472 60.7869565 60.2318868 60.894791 60.856529 60.8963366 61.4615701 60.6814731 61.9398113 60.2882609 65.3795707 57.8578917 67.6655959 54.1668255 68.2756604 50.0582609 68.5235849 48.4947826 68.5511321 46.8908696 68.8266038 45.3408696 69.1744756 43.7304986 69.6346724 42.1453386 70.2039623 40.5965217 71.5450495 36.9616653 72.1667451 33.1102077 72.0358491 29.2478261 72.0496226 29.086087 72.0220755 28.8973913 71.9945283 28.7086957z" opacity=".1" transform="translate(109 61.576)"/>
    </g>
    <g fill-rule="nonzero" transform="translate(14 35.576)">
      <polygon fill="#FFBCA3" points="293 289 276.508 332.103 280.512 332.103 265 344.504 293 348"/>
      <polygon fill="#000" points="293 289 276.508 332.103 272.354 330.983 265 344.504 293 348" opacity=".1"/>
      <polygon fill="#FFBCA3" points="266 316 292.334 316 302 237 266 237"/>
      <polygon fill="#000" points="266 316 292.334 316 302 237 266 237" opacity=".1"/>
      <path fill="#CF9595" d="M215.659048,256 L221.315362,255.054012 L234.311087,252.860417 C234.311087,252.860417 273.339651,244.127166 281.42404,243.427957 C286.30611,242.794025 291.066768,241.444948 295.551028,239.424646 C297.661799,238.519788 299,237.83429 299,237.83429 L284.941991,212.320035 L263.130694,196.25195 C263.130694,196.25195 249.334808,193.331727 243.499148,185.283974 C240.85269,181.800516 240.171695,177.218224 241.691886,173.123231 C245.251225,162.155255 220.432425,183.597648 220.432425,183.597648 C220.432425,183.597648 220.666955,188.738887 220.432425,195.292252 C220.432425,196.580989 220.308262,197.938277 220.211691,199.309274 C220.211691,200.214132 220.087528,201.11899 219.990957,202.051268 C219.383938,208.549793 218.142308,215.253969 215.68664,219.25728 C209.657837,229.101039 215.659048,256 215.659048,256 Z"/>
      <path fill="#000" d="M220,196 L220.549582,196 C221.538829,196 222.335723,193.94116 223.297491,193.8328 C231.032855,193.10137 238.094982,191.503061 243,186.112151 C240.371619,182.66243 239.694156,178.135187 241.200119,174.084193 C244.744922,163.248194 220.027479,184.446116 220.027479,184.446116 C220.027479,184.446116 220.28853,189.511946 220,196 Z" opacity=".1"/>
      <path fill="#CF9595" d="M190,165.003761 C189.99637,172.96037 193.155856,180.592141 198.78264,186.218314 C204.409424,191.844487 212.042024,195.003629 219.999497,195 C220.984882,195 221.956581,195 222.92828,194.849468 C239.03956,193.269182 250.990984,179.192465 249.935113,163.040077 C248.879241,146.887688 235.196958,134.486267 219.017029,135.016378 C202.837099,135.546489 189.996098,148.816906 190,165.003761 L190,165.003761 Z"/>
      <path fill="#3F3D56" d="M180.647485,118.695741 C179.659846,121.248247 179.961625,124.088938 179.563826,126.792398 C178.096086,136.549557 168.17855,142.395618 159.207501,146.49884 C150.236453,150.602061 140.113159,155.418886 137.259982,164.846689 C134.13246,175.056711 140.963626,185.266734 145.709777,194.831768 C154.955169,213.481527 156.272021,237.25002 144.338057,254.29417 C133.734661,269.389633 115.257593,276.539393 97.8641836,282.838318 C106.239956,289.416747 116.642022,292.875903 127.287577,292.622923 C123.295872,304.24643 109.09857,308.102635 97,310.257169 C103.351064,316.36397 112.445567,318.600843 121.155989,319.945712 C127.507053,320.920055 134.022722,321.565043 140.360069,320.28879 C146.697415,319.012537 152.705549,315.568027 155.970242,309.996429 C158.713682,305.234497 159.646452,298.743447 164.598361,296.341896 C166.834569,295.465903 169.242776,295.118369 171.635285,295.326383 L192.211084,295.532231 C198.617017,295.532231 206.202628,295.038197 209.508473,289.562661 C210.727845,287.223546 211.367645,284.625584 211.374013,281.987483 C212.265631,268.483905 209.67308,254.225554 215.228546,241.888444 C216.902044,238.183194 206.161477,232.28224 207.286287,228.357419 C211.154537,214.812672 212.128459,204.136063 212.087307,190.042389 C212.087307,179.146209 219.179099,169.745853 225.036344,160.53762 C230.893588,151.329388 235.790628,139.705881 231.167932,129.825214 C225.955396,118.791803 186.806508,102.790612 180.647485,118.695741 Z"/>
      <path fill="#CF9595" d="M208,622.096423 L213.260877,625.637636 L214.073421,626.183515 L214.224913,626.29549 L220.463597,630.494557 L235.0343,633 L247.842195,632.104199 C247.842195,632.104199 251.533073,624.251944 245.73509,624.433904 C243.88003,624.336015 242.071366,623.809445 240.446669,622.894246 C240.185002,622.768274 239.909563,622.628305 239.647897,622.474339 L239.647897,622.474339 C238.807809,622.026439 237.967721,621.522551 237.141405,620.990669 L237.141405,620.990669 L237.141405,620.990669 C235.419914,619.884914 233.794826,618.695179 232.486493,617.659409 C230.558422,616.161742 229.277633,615 229.277633,615 L208,622.096423 Z"/>
      <path fill="#000" d="M214,625.714681 L214.818475,626.254848 L214.971072,626.365651 L221.255296,630.520776 L235.932357,633 L248.833744,632.113573 C248.833744,632.113573 252.551563,624.34349 246.711258,624.523546 C244.842657,624.426681 243.02079,623.905622 241.384234,623 C242.410795,623.803324 243.270888,624.66205 243.354123,625.409972 C243.589954,627.376731 233.809871,630.950139 233.809871,630.950139 L219.951285,627.34903 C219.951285,627.34903 217.606839,626.684211 214.402301,625.853186 L214.097107,625.770083 L214,625.714681 Z" opacity=".1"/>
      <path fill="#3F3D56" d="M190,629.15076 C190,629.15076 201.268744,631.670598 208.845764,630.952655 C216.422785,630.234713 229.461344,636.907355 229.461344,636.907355 C229.461344,636.907355 233.872055,639.018951 247.436027,639.919899 C261,640.820846 261,633.824426 261,633.824426 C259.451412,624.280012 238.020058,621.15485 237.356378,621 L237.356378,621 L237.356378,621 L237.356378,621 C237.619085,621.140773 238.739046,621.73202 239.872833,622.492194 L239.872833,622.492194 C241.393768,623.50576 243.039143,624.829027 243.163583,625.898902 C243.398637,627.911957 233.650828,631.529825 233.650828,631.529825 L219.907108,627.841571 C219.907108,627.841571 217.570399,627.16586 214.376436,626.321222 L214.072249,626.236758 C209.34029,624.933555 204.533099,623.932122 199.678676,623.238292 C193.760857,622.590736 190.732814,627.728952 190.110613,628.869214 C190.065458,628.959465 190.028435,629.0537 190,629.15076 Z"/>
      <path fill="#CF9595" d="M14,381.453683 L19.9754291,385.928897 L24.3086503,385.766654 L25.1366543,385.766654 C28.8488724,385.644971 33.9686974,385.509768 38.3157186,385.496248 C41.1257372,385.379576 43.9406594,385.533544 46.7199596,385.955938 C49.7007742,386.996999 55,369.244868 55,369.244868 L49.0107708,367.89284 L47.0235611,367.44667 L45.6435544,367.122183 L40.7721306,366 L26.0060586,367.635954 L15.5870077,374.098649 L14,381.453683 Z"/>
      <path fill="#000" d="M14,381.505771 L19.9924871,386 L24.3380783,385.837067 C23.1441516,385.385305 22.1597414,384.52092 21.5701858,383.406653 C17.6951364,372.856755 36.9181495,368.348948 36.9181495,368.348948 L45.8722815,367.968771 L47.6160538,367.900883 L49,367.900883 L47.0071174,367.452817 L45.6231712,367.126952 L40.737841,366 L25.9296164,367.642906 L15.5915382,374.119484 L14,381.505771 Z" opacity=".1"/>
      <path fill="#3F3D56" d="M1.90110986,387.490925 C5.49544828,390.893301 29.0369931,387.490925 30.0247502,387.406916 C28.238295,387.619773 26.42863,387.491578 24.6881179,387.028874 C22.941798,386.709809 21.4296745,385.603789 20.5724633,384.018542 C16.7311856,373.139341 35.7866667,368.490827 35.7866667,368.490827 L44.662762,368.098784 L46.3776181,368.028776 L67.9573675,367.06267 L69,361 C69,361 61.9896682,361.686076 50.9871513,362.582175 C44.7999505,363.08623 37.2683024,363.660294 29.133025,364.206354 C6.40089231,365.746524 0.995665828,380.812188 0.995665828,380.812188 C0.995665828,380.812188 -1.76182281,384.018542 1.90110986,387.490925 Z"/>
      <path fill="#CF9595" d="M266.477305,128.958728 C266.624482,129.281762 266.800286,129.591034 267.002621,129.882856 L272.283429,137.620704 L286.024587,139 L286.176652,133.565575 L288.485278,51.800928 C288.485278,51.800928 297.996261,-3.03986772 280.024926,0.132512312 C262.053592,3.30489234 273.33406,51.800928 273.33406,51.800928 C273.33406,51.800928 271.288093,76.4213556 269.850386,83.8005874 C268.454152,90.945339 262.191833,119.938134 266.477305,128.958728 Z"/>
      <path fill="#FBBEBE" d="M236,331.472656 L239.891013,338.124882 L248.594232,352.979234 C248.594232,352.979234 264.37827,358.739924 268.420523,354.350827 C270.634138,351.950539 273.026492,343.583822 274.70389,336.520118 C276.078806,330.814291 277,326 277,326 L236,331.472656 Z"/>
      <path fill="#000" d="M236 331.386364L239.891013 338C240.13169 337.783439 240.352541 337.546147 240.550973 337.290909 244.950704 331.727273 264.323273 336.118182 274.70389 336.459091 276.078806 330.786364 277 326 277 326L236 331.386364zM38 386.484787C40.7709964 386.36546 43.5468283 386.522932 46.2875329 386.954935 49.2269535 388.019682 54.45259 369.863673 54.45259 369.863673L46.5597015 367.941597 67.9657594 366.987473 69 361C69 361 62.0460931 361.677566 51.1321335 362.562551 48.8709849 363.873308 46.8573244 365.582321 45.1852502 367.609728L44.8586479 368.010736C40.3270413 373.749307 38.6395961 381.078085 38 386.484787zM209 622.009938L214.975139 626C223.890426 624.387578 232.033416 621.832298 232.995399 617.801242 233.001534 617.733059 233.001534 617.664456 232.995399 617.596273 231.09853 616.134161 229.838467 615 229.838467 615L209 622.009938zM190 629C198.043648 628.589244 206.057557 627.673632 214 626.257932 209.255318 624.872088 204.433913 623.803643 199.564014 623.058852 193.653979 622.380706 190.622837 627.761647 190 629z" opacity=".1"/>
      <path fill="#07454C" d="M38.9996156,392.554334 C38.9996156,396.949136 51.0709134,399.745828 51.0709134,399.745828 L87.8329202,432.575964 C87.8329202,432.575964 110.903586,442.881017 125.624867,457.870185 C140.346149,472.859354 153.282201,459.978037 153.282201,459.978037 C168.8549,456.106754 213.705372,401.688358 213.705372,401.688358 C213.705372,401.688358 214.749045,463.835544 216.850124,468.395667 C218.951202,472.955791 216.149764,485.43758 214.927568,490.700321 C214.156842,495.105564 213.862175,499.581379 214.048686,504.050049 C214.048686,504.050049 197.253791,568.484185 198.654509,574.105123 C200.055228,579.726061 189.549836,606.053543 189.549836,606.053543 L189.549836,628 C189.549836,628 230.67879,626.415667 232.944659,617.116321 C235.210528,607.816975 222.631522,603.766593 222.631522,603.766593 L222.631522,601.493419 C230.871046,597.277716 232.422823,568.305086 232.422823,568.305086 C232.422823,568.305086 244.68598,532.485383 246.430012,526.520025 C248.174045,520.554666 246.430012,511.585964 246.430012,511.585964 L247.652208,503.870951 C247.652208,503.870951 250.275123,498.60821 250.275123,497.547395 C250.620392,494.874395 251.646741,492.335839 253.255084,490.176802 C255.17764,487.889852 251.154006,482.448013 251.154006,482.448013 L254.655803,473.313988 L254.655803,463.312025 L262.895327,426.968803 C262.895327,426.968803 271.478164,384.646445 268.498203,370.786975 C265.518242,356.927506 279,327.5 279,327.5 C264.951613,334.898146 247.665941,330.751568 247.665941,330.751568 C247.665941,330.751568 228.371724,323.615181 210.409563,325.240845 C206.762595,325.544319 203.168345,326.308072 199.711915,327.514018 C179.758536,334.719289 176.613784,364.559858 176.613784,364.559858 L158.940007,391.603734 C149.835334,415.658042 136.18519,418.124091 136.18519,418.124091 C136.18519,418.124091 104.160909,396.522055 103.227096,395.475017 C102.293284,394.42798 90.0987891,389.151462 90.0987891,389.151462 C88.6599531,386.599647 86.4537318,384.569553 83.7955537,383.351425 C79.5933968,381.601771 79.2500833,375.08534 79.2500833,375.08534 C78.7282469,359.806859 69.8020965,358.553169 69.8020965,358.553169 C38.8214887,356.08712 38.9996156,388.159532 38.9996156,392.554334 Z"/>
      <rect width="19" height="59" x="217" y="248" fill="#FFBCA3" transform="rotate(-180 226.5 277.5)"/>
      <rect width="19" height="59" x="217" y="248" fill="#000" opacity=".1" transform="rotate(-180 226.5 277.5)"/>
      <path fill="#000" d="M266.002622,129 C265.999126,129.045104 265.999126,129.090397 266.002622,129.135501 C266.152025,129.452849 266.330489,129.756676 266.535885,130.04336 L271.896586,137.644986 L285.845634,139 L286,133.661247 C281.649693,133.322493 271.74222,132.170732 266.002622,129 Z" opacity=".1"/>
      <path fill="#FFBCA3" d="M267.669986,130 C267.669986,130 268.369108,160.793753 260.678758,164.994773 C252.988407,169.195793 250,191.079539 250,191.079539 C250,191.079539 273.304093,206.428365 278.499535,213.169217 C283.694976,219.91007 295.621189,236.013981 293.167405,239.87178 C290.713621,243.72958 299.116803,261.206373 299.116803,261.206373 C299.116803,261.206373 283.736101,292.700296 287.231715,304.603187 C290.727329,316.506077 291.070036,348 291.070036,348 L297.718557,348 C297.718557,348 295.621189,322.093709 295.621189,311.604887 C295.621189,301.116065 302.598708,263.663833 302.598708,263.663833 C302.598708,263.663833 305.751615,226.91177 302.598708,225.86838 C299.445801,224.824989 280.93961,210.121418 279.541365,203.476667 C278.143119,196.831916 289.329084,134.832546 289.329084,134.832546 C289.329084,134.832546 275.003921,134.228478 267.669986,130 Z"/>
      <path fill="#000" d="M216,242.930741 C216.643212,247.238912 218.213943,251.356579 220.603955,255 L233.627756,252.790525 C233.627756,252.790525 272.740637,243.994051 280.842492,243.289781 C285.735109,242.651259 290.506051,241.292416 295,239.257489 C291.903956,228.292059 285.854444,218.385545 277.510501,210.617166 L272.533252,206.018696 C268.878856,202.639333 264.932375,199.589422 260.739937,196.90461 C256.546565,194.210056 252.118195,191.89914 247.50875,190 C248.089429,190.483323 289.124081,225.489696 280.137382,232.352879 C271.150683,239.216061 246.955723,222.493095 246.955723,222.493095 L219.442597,198.893138 L218.447147,198.023157 L216.857193,200.495007 C217.664191,200.836807 218.453273,201.219356 219.221386,201.641173 C228.605173,206.773545 235.566565,215.415254 238.577354,225.669216 C244.218236,244.670703 216,242.930741 216,242.930741 Z" opacity=".1"/>
      <path fill="#444053" d="M208,331.226808 C208,331.226808 233.853324,345.620155 240.131597,337.535089 C241.502399,335.758302 244.394791,334.986984 248,334.780381 C247.410555,332.9485 247.122687,331.750203 247.122687,331.750203 C247.122687,331.750203 227.86292,324.61551 209.932831,326.240788 C208.753941,329.298513 208,331.226808 208,331.226808 Z"/>
      <path fill="#E8E8F0" d="M219.932837,198.001162 L248.280198,222.348341 C248.280198,222.348341 260.967887,231.873851 270,225 C279.032113,218.126149 248.816351,190 248.816351,190 C257.998041,193.779764 266.429705,199.171263 273.713087,205.919838 L278.648443,210.497823 C291.62609,222.513314 294.554309,222.513314 294.994229,240.206605 C295.104209,244.550879 293.619479,250.819831 292.478435,251.947142 C288.271698,256.071453 285.329731,286.013946 285.975864,289.51961 C286.621997,293.025274 278.11229,323.283964 280.861791,331.697558 C283.611293,340.111151 246.493022,327.490761 240.210411,335.546914 C233.9278,343.603067 208,329.236719 208,329.236719 C208,329.236719 222.366146,292.44787 225.87176,289.987032 C229.377375,287.526193 233.584112,268.623104 225.87176,259.85207 C218.159408,251.081037 217.472033,242.681192 217.472033,242.681192 C217.472033,242.681192 245.516949,244.42715 239.894218,225.510313 C236.693389,214.423321 228.8242,205.279275 218.338126,200.462001 L219.932837,198.001162 Z"/>
      <path fill="#000" d="M257.979108,260 C257.979108,260 247.26958,280.629603 233.418952,285.998004 C232.972158,286.164037 232.538902,286.316234 232.065029,286.454594 C217.605136,290.951322 259.062247,266.350763 257.979108,260 Z" opacity=".1"/>
      <path fill="#CF9595" d="M105.724854,79.0406538 C105.724854,79.0406538 110.989183,92.3079968 115.206158,96.8583666 C119.423133,101.408736 150.678359,146.830198 150.678359,146.830198 L153.324304,152.312571 L155.598163,157 L175.621904,154.902992 L177,146.871316 C177,146.871316 176.724381,146.514961 176.228266,145.939312 C174.216245,143.527068 168.731422,137.098985 165.051904,134.289269 C160.490405,130.794256 151.353626,119.212743 151.353626,119.212743 C151.353626,119.212743 122.909716,89.8683408 120.801229,81.8366641 C118.692741,73.8049875 90.2350508,25.6423393 83.9233693,33.9618406 C77.6116878,42.2813419 105.724854,79.0406538 105.724854,79.0406538 Z"/>
      <path fill="#000" d="M35.4342857 183.67451C33.0332535 183.467454 30.6166643 183.815014 28.3722078 184.690196 23.4163636 187.105882 22.4802597 193.584314 19.727013 198.415686 16.5057143 203.97451 10.365974 207.419608 4.04727273 208.696078 2.79153331 208.943552 1.52313938 209.122251.247792208 209.231373 4.2728298 209.617274 8.33229465 209.43708 12.307013 208.696078 18.6257143 207.419608 24.7654545 203.97451 27.9867532 198.415686 30.74 193.639216 31.6761039 187.160784 36.6319481 184.690196 37.9331423 184.106198 39.3357658 183.779887 40.7618182 183.729412L35.4342857 183.67451zM84.3319481 78.3862745C84.3319481 67.4745098 91.4490909 58.072549 97.3135065 48.8627451 103.177922 39.6529412 108.106234 28.027451 103.467013 18.145098 99.5023377 9.70392157 75.6041558-1.61960784 61.8103896.631372549 75.3150649 2.36078431 91.9584416 11.227451 95.2072727 18.145098 99.8464935 28.027451 94.9181818 39.6529412 89.0537662 48.8627451 83.1893506 58.072549 76.0446753 67.4745098 76.0722078 78.3862745 76.0722078 92.4686275 75.1223377 103.092157 71.2402597 116.694118 70.1251948 120.605882 80.8766234 126.521569 79.2246753 130.227451 73.6355844 142.580392 76.2511688 156.841176 75.3563636 170.347059 75.3376821 172.981367 74.6912585 175.573522 73.4703896 177.909804 70.7171429 182.439216 65.072987 183.605882 59.5802597 183.839216L64.3846753 183.839216C70.7997403 183.839216 78.4124675 183.358824 81.7301299 177.868627 82.9509988 175.532345 83.5974223 172.94019 83.6161039 170.305882 84.5109091 156.8 81.8953247 142.52549 87.4844156 130.186275 89.1638961 126.480392 78.3849351 120.578431 79.5 116.652941 83.3820779 103.147059 84.3594805 92.4686275 84.3319481 78.3862745z" opacity=".1" transform="translate(128 112)"/>
      <path fill="#000" d="M153,152.33829 L155.305006,157 L175.603027,154.914498 L177,146.92689 C177,146.92689 176.720605,146.572491 176.217695,146 C174.052386,147.049566 157.833527,154.641884 153,152.33829 Z" opacity=".1"/>
      <path fill="#000" d="M227,205.254486 C227,205.254486 222.066073,197.532187 219.246687,199.638269 C216.4273,201.74435 215.335479,193.320025 213.718478,194.724079 C212.101477,196.128133 207.388679,200.037461 205.426164,194.558896 C203.892086,190.209081 187.196895,162.706136 180.424839,151.62512 L177.591632,147 C177.591632,147 158.574593,156.484249 154,153.318244 L154,159.994384 L157.869746,160.338515 L178.60053,198.881181 C178.60053,198.881181 185.123817,209.205109 184.68156,212.811601 C184.239303,216.418093 193.042976,232.206821 194.452669,233.266744 C195.862363,234.326668 211.037296,251.86358 211.037296,251.86358 C211.037296,251.86358 218.79061,289.745514 212.087656,300.275921 C205.384703,310.806328 193.775464,318.514861 193.775464,318.514861 C193.775464,318.514861 190.278872,328.701137 190.790231,329.747295 C191.30159,330.793453 186.726997,335.363512 188.841537,336.767566 C190.956077,338.17162 193.775464,348 193.775464,348 C193.775464,348 203.643317,332.211272 208.978039,329.747295 C214.31276,327.283317 221.140098,295.0176 221.140098,295.0176 C221.140098,295.0176 223.088792,275.980277 223.240818,263.701685 C223.392844,251.423093 222.77092,205.254486 227,205.254486 Z" opacity=".1"/>
      <path fill="#FFBCA3" d="M226,205.246508 C226,205.246508 221.079894,197.525267 218.260507,199.63106 C215.441121,201.736853 214.335479,193.313681 212.732298,194.717543 C211.129118,196.121405 206.41632,200.030197 204.439985,194.552383 C202.892086,190.203164 186.196895,162.703985 179.43866,151.624486 C177.683453,148.775472 176.605452,147 176.605452,147 C176.605452,147 157.588413,156.48295 153,153.317379 L153,159.992605 L156.883567,160.336689 L177.614351,198.874076 C177.614351,198.874076 184.151458,209.19659 183.695381,212.802588 C183.239303,216.408587 191.987694,232.195152 193.46649,233.25493 C194.945286,234.314708 210.051117,251.849219 210.051117,251.849219 C210.051117,251.849219 217.80443,289.725965 211.115297,300.25493 C207.587992,305.544293 203.28863,310.280469 198.358955,314.307313 C194.222671,317.705381 191.311493,322.353662 190.066641,327.547658 C189.826721,328.255581 189.741894,329.00648 189.817872,329.749795 C190.329231,330.809573 185.754638,335.365242 187.869178,336.769104 C189.983718,338.172966 192.789284,348 192.789284,348 C192.789284,348 202.657137,332.213435 207.991859,329.749795 C213.326581,327.286154 220.167739,295.024856 220.167739,295.024856 C220.167739,295.024856 222.102613,275.99014 222.268459,263.713229 C222.434305,251.436319 221.853843,205.246508 226,205.246508 Z"/>
      <path fill="#000" d="M177.783074 365C177.783074 365 192.360724 367.750022 198.199951 372.012557 204.039178 376.275091 176 365.357503 176 365.357503L177.783074 365zM213 402C213 402 228.431856 414.785533 225.668766 426.347504 222.905677 437.909475 215.776905 467 215.776905 467L213 402zM79 377C79 377 57.6829418 379.373322 59.0643522 382.188191 60.4457626 385.003061 79 379.594096 79 379.594096L79 377zM244.910145 484.209724C244.910145 484.209724 246.29089 485.987845 238.227338 484.209724 230.163785 482.431603 236.114798 477 236.114798 477L244.910145 484.209724zM243 508C243 508 231.922224 510.25 225.981767 508 220.04131 505.75 243 508 243 508zM220 602.595262C220 602.595262 218.077667 600.412228 208.452272 604.407323 198.826878 608.402419 194.982212 608.587906 192.181099 607.260963 189.379985 605.934021 220 602.595262 220 602.595262zM231 374L217 393C217 393 224.535211 376.390456 231 374zM204 200C204 200 203.405667 206.209157 194.545957 208.617066 185.686247 211.024974 184 213 184 213M181 154C181 154 169.256796 162.560072 157 160.74819M190 330.802309C190 330.802309 193.528571 332.814442 202 324" opacity=".1"/>
    </g>
    <g transform="translate(0 501)">
      <path stroke="#535461" stroke-width="2" d="M32.7570178,185.415384 C32.7570178,185.415384 18.7070178,137.705384 35.3970178,102.595384 C42.5040453,87.9070814 44.6516424,71.308823 41.5170178,55.2953844 C39.9704014,47.7096699 37.731014,40.2818663 34.8270178,33.1053844"/>
      <path fill="#33CCAB" fill-rule="nonzero" d="M45.1770178 10.9153844C45.1770178 16.7653844 34.5870178 33.7153844 34.5870178 33.7153844 34.5870178 33.7153844 24.0070178 16.7653844 24.0070178 10.9153844 23.8883843 7.05614627 25.8795255 3.43819105 29.2033521 1.47351045 32.5271786-.491170151 36.656857-.491170151 39.9806835 1.47351045 43.3045101 3.43819105 45.2956513 7.05614627 45.1770178 10.9153844L45.1770178 10.9153844zM62.6770178 43.3053844C59.4970178 48.2053844 41.3970178 56.6853844 41.3970178 56.6853844 41.3970178 56.6853844 41.7270178 36.6853844 44.9070178 31.7953844 48.1561702 27.0692801 54.5771504 25.78858 59.3908382 28.9065061 64.2045261 32.0244322 65.6613581 38.4077557 62.6770178 43.3053844L62.6770178 43.3053844zM61.9170178 98.6453844C56.6970178 101.285384 36.7870178 99.4653844 36.7870178 99.4653844 36.7870178 99.4653844 47.1570178 82.3753844 52.3770178 79.7453844 57.5645405 77.3114615 63.7470621 79.4452059 66.3291222 84.5606079 68.9111822 89.6760099 66.95607 95.9173218 61.9170178 98.6453844zM51.9070178 140.415384C47.2070178 143.885384 27.2770178 145.415384 27.2770178 145.415384 27.2770178 145.415384 34.6170178 126.815384 39.2770178 123.335384 43.974204 120.202137 50.3035164 121.305163 53.6639077 125.842626 57.0242991 130.380088 56.2337823 136.755976 51.8670178 140.335384L51.9070178 140.415384zM19.1670178 57.8253844C23.3670178 61.8953844 42.8970178 66.1153844 42.8970178 66.1153844 42.8970178 66.1153844 38.1170178 46.7053844 33.8970178 42.6353844 29.67574 38.7412498 23.1198514 38.9215315 19.1189624 43.0417691 15.1180734 47.1620066 15.1305194 53.7203617 19.1470178 57.8253844L19.1670178 57.8253844zM8.08701778 106.795384C13.3070178 109.425384 33.2070178 107.605384 33.2070178 107.605384 33.2070178 107.605384 22.8370178 90.5153844 17.6170178 87.8853844 12.4172121 85.3953963 6.18091765 87.5223805 3.58630034 92.6707764.991683032 97.8191723 2.99213663 104.097199 8.08701778 106.795384L8.08701778 106.795384zM3.83701778 155.865384C8.53701778 159.345384 28.4670178 160.865384 28.4670178 160.865384 28.4670178 160.865384 21.1270178 142.265384 16.4670178 138.795384 11.7698315 135.662137 5.44051919 136.765163 2.08012785 141.302626-1.28026349 145.840088-.489746729 152.215976 3.87701778 155.795384L3.83701778 155.865384z"/>
    </g>
    <g fill="#F5DD48" fill-rule="nonzero" transform="translate(857 629.59)">
      <ellipse cx="26.93" cy="29.41" rx="26.93" ry="4.55"/>
      <path d="M43.56,18.5300721 C45.3925576,17.0315644 46.7279189,15.0128328 47.39,12.7400721 C47.88,10.4400721 46.91,7.74007211 44.71,6.85007211 C42.25,5.91007211 39.62,7.61007211 37.63,9.34007211 C35.64,11.0700721 33.35,13.0200721 30.74,12.6600721 C33.4704564,10.1876765 34.7008408,6.46234573 33.98,2.85007211 C33.8721927,2.11257538 33.5604746,1.41986854 33.08,0.850072114 C31.72,-0.609927886 29.24,0.0200721144 27.61,1.17007211 C22.41,4.83007211 20.96,11.8900721 20.93,18.2500721 C20.4,15.9600721 20.84,13.5700721 20.83,11.2500721 C20.82,8.93007211 20.17,6.25007211 18.19,5.02007211 C16.9621913,4.36035713 15.583325,4.03287639 14.19,4.07007211 C11.85,3.99007211 9.25,4.22007211 7.65,5.93007211 C5.65,8.06007211 6.18,11.6200721 7.91,13.9300721 C9.64,16.2400721 12.26,17.7300721 14.68,19.3500721 C16.615902,20.5043451 18.2667965,22.0800436 19.51,23.9600721 C19.6539057,24.2222745 19.7743737,24.4966738 19.87,24.7800721 L34.52,24.7800721 C37.8001656,23.1118766 40.8408092,21.0096617 43.56,18.5300721 Z"/>
    </g>
    <g fill="#F5DD48" fill-rule="nonzero" transform="translate(780.89 647)">
      <ellipse cx="40.21" cy="29.65" rx="40.21" ry="6.8"/>
      <path d="M56.83,18.5300721 C58.6653122,17.0321204 60.0040479,15.013558 60.67,12.7400721 C61.16,10.4400721 60.18,7.69007211 57.99,6.85007211 C55.53,5.91007211 52.9,7.61007211 50.91,9.34007211 C48.92,11.0700721 46.63,13.0200721 44.02,12.6600721 C46.7504564,10.1876765 47.9808408,6.46234573 47.26,2.85007211 C47.1466943,2.11419172 46.8356183,1.42291186 46.36,0.850072114 C44.99,-0.609927886 42.52,0.0200721144 40.88,1.17007211 C35.68,4.83007211 34.23,11.8900721 34.2,18.2500721 C33.68,15.9600721 34.12,13.5700721 34.11,11.2500721 C34.1,8.93007211 33.45,6.25007211 31.47,5.02007211 C30.2457493,4.34600421 28.8674296,4.00142427 27.47,4.02007211 C25.13,3.94007211 22.53,4.17007211 20.93,5.88007211 C18.93,8.01007211 19.46,11.5700721 21.19,13.8800721 C22.92,16.1900721 25.54,17.6800721 27.95,19.3000721 C29.8895325,20.453146 31.5439361,22.0289314 32.79,23.9100721 C32.9339057,24.1722745 33.0543737,24.4466738 33.15,24.7300721 L47.8,24.7300721 C51.0754331,23.0794209 54.1128939,20.9938996 56.83,18.5300721 Z"/>
    </g>
  </g>
</svg>
