<svg xmlns="http://www.w3.org/2000/svg" xmlns:xlink="http://www.w3.org/1999/xlink" width="168" height="175" viewBox="0 0 168 175">
  <defs>
    <path id="lao-a" d="M133.703074,53.6023614 C149.679955,76.6779708 166.490122,100.525228 167.135142,117.652995 C167.780162,134.780762 168.706919,150.52 124.108602,168.980408 C102.375037,177.257529 57.8001901,174.608615 34.9403178,163.614258 C6.14344278,154.185076 1.43250528,109.515625 0.606333404,99.7578125 C-0.219838471,90 2.67595898,61.1688203 18.5694103,38.0932109 C34.4211466,15.0176015 60.0759303,-3.3341965 80.8917629,0.511738397 C101.707595,4.35767329 117.684477,30.4849484 133.703074,53.6023614 Z"/>
  </defs>
  <g fill="none" fill-rule="evenodd">
    <use fill="#29A389" fill-rule="nonzero" transform="matrix(-1 0 0 1 167.78 0)" xlink:href="#lao-a"/>
    <path fill="#E09774" fill-rule="nonzero" d="M67.63,103.61 L96.02,103.61 C97.8701539,103.61 99.37,105.109846 99.37,106.96 L99.37,131.68 C99.37,141.367075 91.9770745,155.625488 82.29,155.625488 L81.895,155.625488 C72.2079255,155.625488 64.29,141.367075 64.29,131.68 L64.29,106.96 C64.29,105.113744 65.7837525,103.615511 67.63,103.61 Z"/>
    <path fill="#000" fill-rule="nonzero" d="M64.28,104.91 L99.37,104.91 L99.37,132.98 C99.37,142.667075 91.5820745,156.421875 81.895,156.421875 L81.83,156.421875 C72.1429255,156.421875 64.29,142.667075 64.29,132.98 L64.29,104.91 L64.28,104.91 Z" opacity=".1"/>
    <path fill="#ECE8E3" fill-rule="nonzero" d="M1.26760137,114.633848 C3.24968687,110.21071 6.04373984,91.204092 10.6253663,87.9329855 C24.3469492,78.1529855 70.2364932,86.3028055 83.5495243,80.8293565 C87.972921,86.6100401 77.298122,90.4477005 85.6133992,96.4297585 C94.740159,94.9157688 101.758426,102.643848 102.396639,109.703848 C102.812036,114.403848 104.026781,126.219236 98.6574662,128.919236 C93.2881511,131.619236 81.5298437,125.463848 75.147712,126.463848 C56.5285367,129.463848 -10.8861971,141.873848 1.26760137,114.633848 Z" transform="scale(1 -1) rotate(-88 -58.827 0)"/>
    <path fill="#F5DD48" d="M64.2089844,118.515625 C64.2089844,140.231445 94.8828125,167.68457 103.19043,171.811035 C72.3691406,179.245605 35.8574219,170.686523 18,155.03 C18,140.154206 33.4029948,127.982747 64.2089844,118.515625 Z"/>
    <path fill="#FFAC00" d="M106.98291,119.02 C106.98291,140.73582 137.061523,169.212871 145.369141,173.339336 C127.530273,177.977031 82.1347656,172.339336 60.5952148,156.496074 C60.5952148,141.62028 76.0577799,129.128255 106.98291,119.02 Z" transform="matrix(-1 0 0 1 205.964 0)"/>
    <path fill="#ECE8E3" fill-rule="nonzero" d="M73.6436085,105.43932 C75.6138372,101.016182 78.5293128,86.0071276 83.083532,82.736021 C96.7230328,72.956021 153.603182,80.4536587 156.859734,72.5993201 C157.270495,84.361981 159.188319,98.6115932 151.58182,105.98417 C126.338541,130.45114 64.3599404,126.371787 73.6436085,105.43932 Z" transform="rotate(92 115.04 97.69)"/>
    <path fill="#ECE8E3" fill-rule="nonzero" d="M14.6436085,105.43932 C16.6138372,101.016182 19.6340113,89.0053 24.1882305,85.7341935 C37.8277313,75.9541935 94.6031817,80.4536587 97.8597335,72.5993201 C98.2704947,84.361981 100.188319,98.6115932 92.5818195,105.98417 C67.3385412,130.45114 5.35994039,126.371787 14.6436085,105.43932 Z" transform="scale(1 -1) rotate(-88 -45.12 0)"/>
    <path fill="#000" fill-rule="nonzero" d="M64.35,118.16 C75.6586913,122.386642 88.1074023,122.422118 99.44,118.26 L99.44,113.95 L64.35,113.95 L64.35,118.16 Z" opacity=".1"/>
    <path fill="#ECE8E3" fill-rule="nonzero" d="M81.76,118.52 C109.793974,118.52 134.52,95.3462586 134.52,66.76 C134.52,38.1737414 109.793974,21 81.76,21 C53.7260261,21 29,38.1737414 29,66.76 C29,95.3462586 53.7260261,118.52 81.76,118.52 Z"/>
    <path fill="#E09774" fill-rule="nonzero" d="M132.177957,76.5195563 C129.109702,101.354498 107.935029,120.58 82.27,120.58 C56.7101613,120.58 35.6039462,101.511771 32.4006809,76.8246381 C29.9460243,76.5538781 28,72.7378072 28,68.07 C28,63.2264627 30.0953074,59.3 32.68,59.3 C32.8467502,59.3 33.0114636,59.3163424 33.1737089,59.3482192 C38.1688097,36.8352018 58.2533688,20 82.27,20 C106.28335,20 126.365702,36.8306021 131.364243,59.3389924 C133.740574,59.7583019 135.6,63.507234 135.6,68.07 C135.6,72.0968828 134.151694,75.4898706 132.177957,76.5195563 Z"/>
    <path fill="#F4F0EB" fill-rule="nonzero" d="M106.357764,94.1971695 C110.164157,135.751624 102.479696,156.37829 83.3043815,156.07717 C64.1290666,155.776049 57.3668608,135.149382 63.0177642,94.1971695 C63.0177642,94.1971695 81.3577642,82.4971695 106.357764,94.1971695 Z M83.2677642,103.03717 L83.2577642,103.03717 C93.0477642,103.03717 100.977764,101.03717 100.977764,98.6071695 C100.977764,96.1771695 93.0477642,94.1771695 83.2677642,94.1771695 C73.4877642,94.1771695 65.5577642,96.1771695 65.5577642,98.6071695 C65.5577642,101.03717 73.4877642,103.03717 83.2677642,103.03717 Z"/>
  </g>
</svg>
