<svg xmlns="http://www.w3.org/2000/svg" width="231" height="210" viewBox="0 0 231 210">
  <g fill="none" fill-rule="evenodd">
    <path fill="#FFBCA3" fill-rule="nonzero" d="M4.0128847,123.364984 C-21.3970778,162.395421 78.9609395,164.033023 191.567639,149.579208 C261.414299,133.766977 230.346422,-0.535807853 159.892501,28.1284023 C93.4137523,76.0243078 40.9428755,66.6394519 4.0128847,123.364984 Z"/>
    <g transform="translate(18)">
      <ellipse cx="97.382" cy="198.618" fill="#444" fill-rule="nonzero" opacity=".1" rx="68.382" ry="10.618"/>
      <path fill="#476D71" fill-rule="nonzero" d="M79.4428037,171.34171 C79.4428037,171.34171 79.3069343,184.267589 77.9456279,186.026052 C76.5843215,187.784515 69.4642446,186.107051 69.4642446,186.107051 L69.9868191,171.900865 C69.0435722,169.173026 68.8345424,166.314544 68.8580583,164.171988 C68.8580583,163.487416 68.8920256,162.865552 68.9312187,162.361268 C69.006992,161.316119 69.1115069,160.699481 69.1115069,160.699481 L65.6703541,149.417099 C65.3489708,145.732949 60.948894,138.443036 60.948894,138.443036 C60.948894,138.443036 61.1892782,148.52611 62.0698162,150.84634 C62.9503541,153.166571 63.1149651,162.288108 63.1149651,162.288108 C63.1149651,162.288108 65.5161947,173.972872 65.6755799,174.694025 C65.8349651,175.415178 67.8364252,178.694332 67.8364252,178.694332 C67.8364252,178.694332 67.4366558,182.69464 67.9174242,183.415793 C68.3981927,184.136945 70.39704,189.738943 69.9162715,190.778866 C69.435503,191.81879 60.7947345,190.376484 60.7947345,189.576945 C60.7947345,189.156273 60.1676452,187.295908 59.5745232,185.639347 L59.1930438,184.578521 C58.8324675,183.593468 58.5528901,182.856638 58.5528901,182.856638 C58.5528901,182.856638 55.2188652,174.741057 53.4760794,168.671354 C53.402919,168.410067 53.3349843,168.169683 53.2670496,167.926686 C53.1886634,167.63927 53.115503,167.359693 53.0475683,167.085341 C52.8059087,166.174598 52.6217731,165.249557 52.4962523,164.315696 C52.4306727,163.856878 52.4227726,163.391655 52.4727364,162.930874 C53.0318911,159.168338 49.4313532,150.686955 49.4313532,150.686955 C49.4313532,150.686955 45.3500467,137.721883 44.628894,137.081729 C43.9077413,136.441575 43.0272033,130.202037 42.7084329,127.479424 C42.6352725,126.841883 42.5072417,126.04757 42.3530823,125.203612 C42.3008248,124.903132 42.2433416,124.597426 42.1858584,124.289107 C41.6972513,121.767685 41.0962907,119.157426 41.0962907,119.157426 L50.0715069,113.234044 L73.6788075,110.673429 C73.6788075,110.673429 74.3372513,115.73195 75.1655318,121.307819 C75.223015,121.694524 75.2831111,122.091681 75.3432071,122.480999 C76.1270688,127.722421 77.0494127,133.146744 77.6791149,135.080269 C79.0378085,139.242574 79.0378085,151.645879 79.4401908,157.966417 C79.8425731,164.286955 79.4428037,171.34171 79.4428037,171.34171 Z"/>
      <polygon fill="#000" fill-rule="nonzero" points="56.222 118.065 59.193 133.233 60.604 133.233 57.782 117.537" opacity=".1"/>
      <path fill="#000" fill-rule="nonzero" d="M42.3635338 125.206225C42.3112763 124.905744 42.2537931 124.600038 42.1963099 124.29172 43.5785193 124.009529 46.7061274 122.857253 46.2201332 118.237695L47.1790573 118.237695C47.1790573 118.237695 48.0883368 124.323074 42.3635338 125.206225zM75.3536586 122.491451C73.5612283 122.820672 67.9592302 123.784822 66.7860506 123.147281 65.3881639 122.386936 64.0059545 118.266436 64.0059545 118.266436L65.2862619 118.065245C65.2862619 118.065245 64.1575011 124.108818 75.1759833 121.318271 75.2334665 121.704976 75.2935626 122.096907 75.3536586 122.491451z" opacity=".1"/>
      <path fill="#07454C" fill-rule="nonzero" d="M74.8702773,117.50609 C73.2555222,118.444111 69.4642446,118.896138 65.0511034,119.073814 C64.6487211,119.089491 64.2437259,119.105168 63.8308921,119.11562 C56.6768479,119.340327 48.3234953,118.935331 44.9946961,118.744592 C44.056675,118.692334 43.5184233,118.655754 43.5184233,118.655754 L46.4396144,116.636004 L51.2420736,114.874928 L61.3434377,112.894371 L74.2876068,112.533794 L74.4182504,113.644265 L74.8702773,117.50609 Z"/>
      <path fill="#63667E" fill-rule="nonzero" d="M65.0511034,119.084265 C64.6487211,119.099942 64.2437259,119.11562 63.8308921,119.126071 C63.3239949,116.97829 61.724917,113.544976 61.724917,113.544976 L63.0836106,113.364688 L65.0511034,119.084265 Z"/>
      <path fill="#CF9595" fill-rule="nonzero" d="M10.5492014,123.539212 C10.5492014,123.539212 9.98482098,124.19243 9.1173474,125.075581 C6.48357218,127.753775 1.06186229,132.537944 0.136905516,127.620519 C-0.822018595,122.522805 3.50228496,119.259328 5.45932627,118.052181 C6.01325518,117.709894 6.37644442,117.529606 6.37644442,117.529606 L10.5492014,123.539212 Z"/>
      <path fill="#33CCAB" fill-rule="nonzero" d="M59.0441101,65.9515082 C59.0441101,65.9515082 55.9844367,64.0310471 55.4148306,64.2113353 C54.8452244,64.3916234 55.4148306,66.9679155 55.4148306,66.9679155 C54.6769232,68.3757996 53.5101646,69.5123598 52.0834185,70.2131028 C50.4478953,71.0681757 48.8643459,72.0191778 47.3410554,73.0611335 C44.9564266,72.8285543 42.5843902,73.6132239 40.8088748,75.2219789 C39.5670839,76.0569433 38.0269286,76.3195022 36.5786346,75.9431316 C34.2061466,75.2846878 34.0885674,72.0447262 34.4177893,70.8140634 C34.6790765,69.8473007 38.6349651,67.3389433 40.3385578,66.2937944 L40.3385578,66.2937944 C40.8088748,66.0063785 41.1067422,65.831316 41.1067422,65.831316 C41.1067422,65.831316 48.7938123,65.5700288 50.5287595,62.2908742 C51.0625346,61.2773877 51.8583663,60.4256131 52.8333128,59.8243228 L52.8333128,59.8243228 L52.8777316,59.8008069 L53.0972129,59.6701633 L53.1677605,59.6309702 C53.975269,59.1859319 54.8636664,58.9069751 55.7806327,58.8105283 C59.5353301,61.2091451 59.0441101,65.9515082 59.0441101,65.9515082 Z"/>
      <path fill="#000" fill-rule="nonzero" d="M59.0441101 65.9515082C59.0441101 65.9515082 55.9844367 64.0310471 55.4148306 64.2113353 54.8452244 64.3916234 55.4148306 66.9679155 55.4148306 66.9679155 54.6769232 68.3757996 53.5101646 69.5123598 52.0834185 70.2131028 50.4478953 71.0681757 48.8643459 72.0191778 47.3410554 73.0611335 44.9564266 72.8285543 42.5843902 73.6132239 40.8088748 75.2219789 39.5670839 76.0569433 38.0269286 76.3195022 36.5786346 75.9431316 34.2061466 75.2846878 34.0885674 72.0447262 34.4177893 70.8140634 34.6790765 69.8473007 38.6349651 67.3389433 40.3385578 66.2937944L40.3385578 66.2937944C40.8088748 66.0063785 41.1067422 65.831316 41.1067422 65.831316 41.1067422 65.831316 48.7938123 65.5700288 50.5287595 62.2908742 51.0625346 61.2773877 51.8583663 60.4256131 52.8333128 59.8243228L52.8333128 59.8243228 52.8777316 59.8008069 53.0972129 59.6701633 53.1677605 59.6309702C53.975269 59.1859319 54.8636664 58.9069751 55.7806327 58.8105283 59.5353301 61.2091451 59.0441101 65.9515082 59.0441101 65.9515082zM74.4182504 113.654717L74.4182504 113.654717C72.9785578 112.29341 64.016406 114.773026 64.016406 114.773026 64.016406 114.773026 57.8448018 116.544553 53.136406 116.831969 52.4954063 116.874585 51.8525683 116.882435 51.2107192 116.855485 49.2327749 116.753583 47.1712187 117.553122 45.4414973 118.512046L45.0051476 118.773333C44.0671265 118.721076 43.5288748 118.684496 43.5288748 118.684496L46.4500659 116.664745 51.2525251 114.90367 61.3538892 112.923112 74.2980583 112.562536 74.4182504 113.654717zM9.1173474 125.075581C9.71569514 121.088338 6.62205441 118.77072 5.45932627 118.052181 6.01325518 117.709894 6.37644442 117.529606 6.37644442 117.529606L10.55704 123.539212C10.55704 123.539212 9.98482098 124.19243 9.1173474 125.075581z" opacity=".1"/>
      <path fill="#33CCAB" fill-rule="nonzero" d="M108.260172,70.7539673 C108.260172,70.7539673 101.856022,71.537829 99.2980198,74.9136599 C96.7400179,78.2894909 91.2137931,77.9550432 91.2137931,77.9550432 C91.2137931,77.9550432 86.411334,80.515658 81.6114876,80.6750432 C78.760844,80.7691066 77.4308921,81.4850336 76.8247057,82.0520269 C76.3317421,82.5263757 75.7945268,82.9524732 75.2204022,83.3244957 C73.0412667,84.6779635 72.6989804,86.5984246 72.8479142,88.0799232 C73.0346157,89.8400038 73.1261994,91.6088773 73.1222657,93.378828 C73.0647826,98.3432853 73.9296433,107.002344 73.9296433,107.002344 C73.9296433,107.002344 75.8501044,114.524803 74.4077989,113.16611 C72.9654934,111.807416 64.0059545,114.284419 64.0059545,114.284419 C64.0059545,114.284419 57.8343503,116.055946 53.1259545,116.345975 C52.48491,116.387781 51.8420687,116.394759 51.2002677,116.366878 C49.2223234,116.264976 47.1607672,117.064515 45.4310458,118.026052 C43.9426367,118.865623 42.5504231,119.865318 41.2791918,121.007339 C39.7480486,117.210836 40.3855895,112.327378 40.8872609,109.803343 C41.1216612,108.638011 41.0605791,107.432538 40.7095856,106.296868 L38.3971937,98.881537 C38.3971937,98.881537 33.3569632,100.600807 30.9557336,105.081883 C28.554504,109.562959 17.5908921,118.20634 15.4274339,118.768108 C14.4371553,119.029395 13.7996144,119.800192 13.399845,120.568377 C12.8858438,121.595508 12.1642846,122.504797 11.2808056,123.238732 C10.4619415,123.928097 9.75656189,124.741928 9.19050782,125.650413 C10.6328133,120.2078 5.27119946,117.566186 5.27119946,117.566186 C5.27119946,117.566186 7.42943193,116.845034 8.30996988,113.970874 C9.19050782,111.096715 13.2744271,108.131105 13.2744271,108.131105 C13.2744271,108.131105 17.4367326,100.768031 19.8379622,99.5661095 C22.2391918,98.3641883 26.5608825,92.6054179 26.5608825,92.6054179 C27.4388075,86.1228818 31.5253397,82.7627281 31.5253397,82.7627281 C31.5253397,82.7627281 36.0090285,80.8422671 36.489797,79.2562536 C36.6570208,78.7127762 37.205724,77.7015946 37.8615549,76.609414 C38.472967,75.5799424 39.167991,74.4851489 39.7297585,73.6307397 C40.2915261,72.7763305 40.7331015,72.1178866 40.7331015,72.1178866 L47.9185001,72.049952 L49.2249363,72.0368876 L53.0527941,64.830586 C53.0527941,64.830586 54.4141005,63.4718924 56.7735242,65.0709702 C57.4518459,65.523917 58.2583072,65.7456939 59.0728517,65.7032853 C60.1423964,65.6341169 61.1794515,65.3078524 62.0959449,64.7521998 C71.2200948,62.2699712 75.0610169,66.9679155 75.0610169,66.9679155 C75.0610169,66.9679155 81.3815549,66.4322767 81.7003253,66.9679155 C82.0190957,67.5035543 85.3008632,66.9679155 85.3008632,66.9679155 L94.0252437,66.1108934 L107.471084,63.9526609 L108.260172,70.7539673 Z"/>
      <path fill="#CF9595" fill-rule="nonzero" d="M55.7623426,68.3527378 L51.6810362,75.0730451 C51.6810362,75.0730451 40.558039,83.1572719 42.1597297,76.834121 C42.4192725,75.7705594 42.5118291,74.6731029 42.4340813,73.5810951 C42.4105655,73.1551969 42.3609209,72.7292988 42.298212,72.3086263 C42.0081518,70.5649398 41.4953164,68.8657334 40.7722946,67.2527185 C40.6912955,67.059366 40.6076836,66.8738521 40.5110073,66.690951 C40.3855895,66.4296638 40.2627845,66.1683766 40.1399795,65.9227666 C39.6248607,64.8797954 39.0390842,63.8732376 38.3867422,62.9101249 C38.3867422,62.9101249 50.4712763,53.0674352 50.8710458,59.2285879 C50.9586211,60.6204343 51.2764804,61.988112 51.8116798,63.275927 L51.9057432,63.4927954 C52.5782921,65.0116139 53.545427,66.3819437 54.751161,67.5244573 C55.0664885,67.8260661 55.4045459,68.1029762 55.7623426,68.3527378 L55.7623426,68.3527378 Z"/>
      <path fill="#33CCAB" fill-rule="nonzero" d="M39.5991149,74.5948895 L41.4803829,80.1942747 L49.1334857,81.435389 L53.5231111,76.6068012 C53.5231111,76.6068012 56.0445328,73.0062632 56.203918,72.9252642 C56.3633032,72.8442651 56.7630727,69.4057253 56.7630727,69.4057253 L57.2333897,67.4617483 L54.2730054,66.466244 L50.1106999,70.986513 L48.4097201,72.0316619 L46.5206135,72.4915274 L40.2497201,74.3205379 L39.5991149,74.5948895 Z"/>
      <path fill="#000" fill-rule="nonzero" d="M59.0441101 66.4322767C59.0441101 66.4322767 56.9538123 66.4113737 56.3972705 66.5916619 55.8407288 66.77195 55.4148306 67.4460711 55.4148306 67.4460711 54.6775132 68.8550371 53.5106668 69.992598 52.0834185 70.6938713 50.4478953 71.5489442 48.8643459 72.4999463 47.3410554 73.541902 44.9562787 73.3079963 42.5837179 74.0928394 40.8088748 75.7027474 39.9332979 76.2904376 38.9030102 76.6050709 37.8484905 76.6068012 38.4599026 75.5773295 39.1549266 74.482536 39.7166942 73.6281268 42.298212 73.3459366 47.7617278 72.3452065 47.7617278 72.3452065L47.9054358 72.0473391C48.412333 71.0021902 50.1289901 67.4721998 50.7613051 66.4061479 51.4981351 65.1624207 53.8079142 61.2770797 53.8810746 61.1542747L51.6131015 63.2288953 52.8254742 60.3077041 52.8254742 60.3077041 52.869893 60.2841883 53.0893743 60.1535447 53.1599218 60.1143516C53.9674304 59.6693133 54.8558278 59.3903565 55.7727941 59.2939097 58.6338892 61.1229203 59.0414973 64.2844957 59.0728517 65.708511 59.0769725 65.9501157 59.0673765 66.1917596 59.0441101 66.4322767zM40.3307192 65.8156388L40.9238412 67.1220749C40.9238412 67.1220749 40.8741966 67.1638809 40.7696817 67.2422671 40.6886827 67.0489145 40.6050707 66.8634006 40.5083945 66.6804995 40.3829766 66.4192123 40.2601716 66.1579251 40.1373666 65.9123151 40.2000755 65.8757349 40.2575587 65.8365418 40.3150419 65.8051873L40.3307192 65.8156388z" opacity=".1"/>
      <path fill="#000" fill-rule="nonzero" d="M54.7616125,67.5244573 C54.0416942,68.4480094 53.1273352,69.201798 52.0834185,69.7323343 C50.4475427,70.587741 48.863962,71.5396344 47.3410554,72.5829779 C45.6422542,72.4149013 43.9322331,72.7627331 42.4340813,73.5810951 C42.4105655,73.1551969 42.3609209,72.7292988 42.298212,72.3086263 C44.8692782,71.9114697 47.7617278,71.3810567 47.7617278,71.3810567 C47.7617278,71.3810567 50.0140237,66.7014025 50.7613051,65.4419981 C51.0225924,65.0187128 51.4511034,64.2792699 51.9161947,63.4927954 C52.5887436,65.0116139 53.5558785,66.3819437 54.7616125,67.5244573 Z" opacity=".1"/>
      <path fill="#33CCAB" fill-rule="nonzero" d="M59.0441101,65.9515082 C59.0441101,65.9515082 56.9538123,65.9306052 56.3946577,66.1108934 C55.835503,66.2911816 55.4148306,66.9679155 55.4148306,66.9679155 C54.6769232,68.3757996 53.5101646,69.5123598 52.0834185,70.2131028 C50.4478953,71.0681757 48.8643459,72.0191778 47.3410554,73.0611335 C44.9564266,72.8285543 42.5843902,73.6132239 40.8088748,75.2219789 C39.5670839,76.0569433 38.0269286,76.3195022 36.5786346,75.9431316 C34.2061466,75.2846878 34.0885674,72.0447262 34.4177893,70.8140634 C34.6790765,69.8473007 38.6349651,67.3389433 40.3385578,66.2937944 L40.3385578,66.2937944 L40.9316798,67.6132949 C39.6959825,68.5604869 38.4017844,69.4288126 37.0567902,70.2131028 C34.5040141,71.741633 35.794773,73.3929683 35.794773,73.3929683 C36.7132732,73.2338391 37.6460551,73.1725295 38.5774819,73.2100672 C39.8995952,73.2989049 47.7617278,71.8592123 47.7617278,71.8592123 C47.7617278,71.8592123 50.0140237,67.1769452 50.7613051,65.9201537 C51.5085866,64.6633622 53.8079142,60.7910855 53.8810746,60.6682805 L51.6131015,62.7585783 L52.8254742,59.8373871 L52.8254742,59.8373871 L52.869893,59.8138713 L53.0893743,59.6832277 L53.1599218,59.6440346 C53.9674304,59.1989963 54.8558278,58.9200395 55.7727941,58.8235927 C59.5353301,61.2091451 59.0441101,65.9515082 59.0441101,65.9515082 Z"/>
      <path fill="#000" fill-rule="nonzero" d="M51.8221313,63.2811527 C49.3944243,67.0328855 44.6077615,68.4758504 40.5110073,66.690951 C39.9073103,65.374803 39.1968477,64.1103019 38.3867422,62.9101249 C38.3867422,62.9101249 50.4712763,53.0674352 50.8710458,59.2285879 C50.9613758,60.6228041 51.2827828,61.9923155 51.8221313,63.2811527 Z" opacity=".1"/>
      <path fill="#CF9595" fill-rule="nonzero" d="M53.0527941,57.8437656 C53.0527941,58.0719565 53.0449555,58.2966635 53.0292782,58.5178866 C52.6718791,63.4899863 48.3982811,67.259921 43.4204356,66.9942827 C38.4425902,66.7286444 34.594479,62.5253019 34.7682662,57.5434039 C34.9420533,52.561506 39.0737105,48.6365274 44.0579663,48.7184043 C49.042222,48.8002811 53.0427328,52.8588476 53.0527941,57.8437656 L53.0527941,57.8437656 Z"/>
      <path fill="#000" fill-rule="nonzero" d="M29.3566558,87.2385783 C29.3566558,87.2385783 31.3659545,90.9985014 33.8377316,93.0678963 C36.3095088,95.1372911 37.75704,98.3511239 37.75704,98.3511239 C37.75704,98.3511239 37.0385001,92.1194236 29.3566558,87.2385783 Z" opacity=".1"/>
      <path fill="#000" fill-rule="nonzero" d="M26.2342734 96.6814986C26.2342734 96.6814986 33.2890285 94.9204227 36.8399218 96.6814986L26.2342734 96.6814986zM23.6736586 107.177406L31.2640525 104.564534C31.2640525 104.564534 26.4014973 108.04488 23.6736586 107.177406zM10.5492014 117.406801C10.5492014 117.406801 13.8309689 117.247416 14.8708921 118.287339 14.8708921 118.287339 11.6701236 118.527723 10.5492014 117.406801zM87.1272609 66.7850144C87.1272609 66.7850144 79.7694127 71.1537368 79.4428037 78.1954275L87.1272609 66.7850144zM96.0162523 73.3929683C96.0162523 73.3929683 86.8921024 75.2350432 85.3714108 76.1939673 83.8507192 77.1528915 80.5715645 77.6336599 80.5715645 77.6336599 80.5715645 77.6336599 93.7744079 75.8751969 96.0162523 73.3929683zM69.252602 112.013833C68.5889324 112.703631 60.3975779 114.647608 53.0763099 116.272815 52.4118135 116.316752 51.7454226 116.324602 51.0800755 116.29633 49.0289708 116.191816 46.89948 117.01487 45.0965981 118.002536 42.8861082 118.472853 41.4568671 118.768108 41.4568671 118.768108 41.4568671 118.768108 39.0504118 116.871162 42.3687595 112.588665 45.6871072 108.306167 46.2697778 101.54928 46.2697778 101.54928L61.0429574 97.7710663C61.0429574 97.7710663 65.0275876 103.258098 66.9349843 104.138636 68.842381 105.019174 70.4806519 110.743977 69.252602 112.013833z" opacity=".1"/>
      <path fill="#33CCAB" fill-rule="nonzero" d="M68.7300275,112.204573 C68.0872609,112.878694 60.1885482,114.765187 53.1285674,116.345975 C52.4875228,116.387781 51.8446815,116.394759 51.2028805,116.366878 C49.2249363,116.264976 47.1633801,117.064515 45.4336586,118.026052 C43.3015549,118.480692 41.9219584,118.768108 41.9219584,118.768108 C41.9219584,118.768108 39.6017278,116.926033 42.8024963,112.758501 C46.0032648,108.59097 46.5624194,102.032661 46.5624194,102.032661 L60.8077989,98.3537368 C60.8077989,98.3537368 64.6487211,103.683996 66.4881831,104.541018 C68.3276452,105.39804 69.90582,110.97391 68.7300275,112.204573 Z"/>
      <path fill="#000" fill-rule="nonzero" d="M57.165455 164.660596L53.0527941 167.095793C52.8111344 166.18505 52.6269989 165.260009 52.501478 164.326148 53.0998258 164.825207 57.165455 164.660596 57.165455 164.660596zM53.2775011 167.937137C54.7302581 167.660173 58.1792494 166.970375 60.0709689 166.322382 58.3569247 167.158501 55.2554454 168.556388 53.4943695 168.673967 53.4133705 168.43097 53.3454358 168.180134 53.2775011 167.937137zM61.2833416 165.705744C61.131795 165.891258 60.6876068 166.100288 60.0735818 166.311931 60.8077989 165.967032 61.2833416 165.705744 61.2833416 165.705744zM63.7655703 185.824861C62.6002292 185.921537 60.7058969 185.764765 59.5849747 185.649798L59.2034953 184.588972C60.4028037 184.717003 62.7831303 184.918194 63.7655703 184.625552 65.1059737 184.228396 65.508356 185.686378 63.7655703 185.824861zM74.1778661 164.558694C73.9845136 164.532565 70.8751956 164.18244 68.8737355 164.171988 68.8737355 163.487416 68.9077028 162.865552 68.9468959 162.361268 70.3264925 162.943939 73.9714492 164.488146 74.1778661 164.558694z" opacity=".1"/>
      <path fill="#E3E8F4" fill-rule="nonzero" d="M71.8889901,198.970221 C71.5284137,200.456945 65.7069343,200.195658 65.7069343,200.195658 L65.2261658,200.833199 C65.2261658,200.833199 62.9869343,201.653641 61.3068575,201.172872 C59.6267806,200.692104 54.5133897,200.794006 54.5133897,200.794006 L54.5133897,199.150509 C54.5133897,197.010567 56.9146193,196.310317 56.9146193,196.310317 C56.9146193,196.310317 58.9343695,194.63024 59.6346193,192.92926 C60.0712693,191.876394 60.5784469,190.854182 61.152698,189.869587 C61.152698,189.869587 59.2740429,187.588549 64.3142734,186.995427 C69.2787307,186.420596 67.3321409,190.9278 67.2772705,191.053218 C67.3582696,190.980058 69.2212475,189.305207 70.2559449,189.833007 C71.0032264,190.217099 71.6799603,193.854217 71.8916029,196.487992 C71.9882792,197.606302 71.9935049,198.533871 71.8889901,198.970221 Z"/>
      <path fill="#000" fill-rule="nonzero" d="M71.8889901,198.970221 C71.5284137,200.456945 65.7069343,200.195658 65.7069343,200.195658 L65.2261658,200.833199 C65.2261658,200.833199 62.9869343,201.653641 61.3068575,201.172872 C59.6267806,200.692104 54.5133897,200.794006 54.5133897,200.794006 L54.5133897,199.226282 C57.5913532,199.377829 63.7525059,199.581633 65.1373282,198.868319 C65.1373282,198.868319 66.7965021,198.447646 67.1779814,198.168069 C67.4993647,197.930298 70.8804214,196.825053 71.8811514,196.498444 C71.9882792,197.606302 71.9935049,198.533871 71.8889901,198.970221 Z" opacity=".1"/>
      <path fill="#E3E8F4" fill-rule="nonzero" d="M84.631968,199.134832 C79.3304502,199.71489 76.5686442,198.431969 76.5686442,198.431969 C75.6800875,197.887312 75.0739791,196.98149 74.9094704,195.952354 C74.629893,194.212181 71.9673762,192.453718 71.9673762,192.453718 C71.9673762,192.453718 68.6882216,192.772488 68.2858392,191.810951 C68.1891798,191.402997 68.1522146,190.983179 68.1760986,190.564611 C68.1760986,187.985706 68.821478,182.569222 69.5661466,182.647608 C70.4440717,182.744284 73.158846,186.339597 73.4305847,186.700173 C73.1928133,186.313468 70.8307768,182.287032 76.0695856,181.808876 C76.0695856,181.808876 80.3494704,179.389356 79.9105078,185.030548 L81.7107768,188.910663 C81.7107768,188.910663 85.2538315,194.136407 86.1317566,193.953506 C86.5524291,193.867281 87.4381927,194.91243 87.6733512,196.093449 C87.9267998,197.381595 87.4016125,198.831739 84.631968,199.134832 Z"/>
      <path fill="#000" fill-rule="nonzero" d="M53.0527941,57.8437656 C53.0527941,58.0719565 53.0449555,58.2966635 53.0292782,58.5178866 L52.8071841,58.6014986 L51.9475491,58.9150432 C51.8026848,58.9771813 51.6477711,59.0125901 51.4902965,59.0195581 C51.241379,59.0092197 51.0110664,58.8849088 50.86582,58.6824976 C50.7421063,58.4935196 50.6535862,58.2837271 50.6045328,58.0632469 L49.9539276,55.5627281 C49.823284,55.0662824 49.6220928,54.4940634 49.065551,54.3085495 C48.903009,54.2729651 48.7432171,54.2258134 48.5873954,54.1674544 C48.2398834,54.0028434 48.166723,53.6161383 48.0491437,53.2921422 C47.7878565,52.5370221 47.0902196,51.9334486 46.3350996,51.4631316 C45.8245986,51.1057334 45.218062,50.9108403 44.5949266,50.9039769 C44.2612065,50.9091758 43.938645,51.0249671 43.6778085,51.2331988 C43.1317182,51.6956772 43.2074915,52.3201537 43.2728133,52.9785975 C43.3381351,53.6370413 43.5131975,54.3399039 43.319845,54.9983477 C43.1892014,55.4268588 42.9096241,55.8266282 42.8599795,56.2708165 C42.8181735,56.62878 42.9357528,56.9919693 42.9148498,57.3499328 C42.9064867,57.7480212 42.6250471,58.0879137 42.235503,58.1703746 C42.2015357,57.9535062 41.8853781,57.8829587 41.6737355,57.7653794 C41.1955799,57.5040922 41.1694511,56.9344861 41.1903541,56.4589433 C41.2269343,55.7482421 41.2609017,55.034928 41.294869,54.3242267 C41.0837682,55.9138112 40.7562794,57.4857574 40.3150419,59.0273967 C40.2607144,59.2954298 40.1362955,59.5442676 39.9544656,59.7485495 C39.7352265,59.9668642 39.4052786,60.0299577 39.1209593,59.9079347 C38.9592801,59.8059339 38.8396534,59.6492137 38.7838988,59.4663593 C38.4501027,58.6385174 38.3349278,57.7387138 38.4494511,56.853487 C38.1594223,58.0109894 37.8693935,59.1815562 37.3102388,60.268511 C37.0881447,60.699635 36.7510842,61.1673391 36.2049939,61.2535639 C36.0384035,61.2588359 35.8732375,61.2860707 35.7137739,61.3345629 C35.6501447,61.3647955 35.5925846,61.4064159 35.5439372,61.4573679 C34.0872851,58.0566171 34.8290172,54.1128383 37.4216379,51.4736604 C40.0142586,48.8344826 43.9442127,48.0226831 47.3703481,49.4185836 C50.7964835,50.814484 53.0401395,54.1415797 53.0501812,57.8411527 L53.0527941,57.8437656 Z" opacity=".1"/>
      <path fill="#896363" fill-rule="nonzero" d="M43.6778085,50.7654947 C43.9380076,50.5557967 44.2607886,50.439007 44.5949266,50.4336599 C45.2179304,50.4413319 45.8242345,50.6361503 46.3350996,50.9928146 C47.0902196,51.4526801 47.777405,52.0536407 48.0491437,52.8218252 C48.166723,53.1458213 48.2372705,53.5351393 48.5717182,53.6997502 C48.7282112,53.7553678 48.8878794,53.8016105 49.0498738,53.8382325 C49.6090285,54.0237464 49.8102196,54.5959654 49.9382504,55.0924111 L50.5940813,57.5929299 C50.6366728,57.8132587 50.7209207,58.0234351 50.8423042,58.2121806 C50.9870035,58.4155803 51.2174026,58.540902 51.4667806,58.551854 C51.6253686,58.544844 51.7812867,58.5085222 51.9266462,58.4447262 L52.7862811,58.1311816 C53.238308,57.9665706 53.729528,57.7706052 53.9359449,57.3891258 C54.0442288,57.1429852 54.0804698,56.8711774 54.0404598,56.6052642 C53.9902557,55.8070005 53.8784403,55.01381 53.7060121,54.2327762 L54.6936779,54.9042843 C54.9314492,55.0636695 55.2293167,55.2335062 55.5115069,55.1446686 C55.6974399,55.0752727 55.8397776,54.9222838 55.8955991,54.7318348 C56.0732744,54.2406148 55.9452437,53.6527185 56.3162715,53.2477233 C56.4051092,53.1536599 56.5148498,53.0726609 56.593236,52.9733718 C56.9302965,52.539635 56.530527,51.9517387 56.6690093,51.4448415 C56.9431335,51.5529046 57.2556693,51.4640673 57.431968,51.2279731 C57.5677457,51.0088663 57.6342249,50.7538776 57.6227076,50.4963689 C57.7010938,49.0200961 57.737674,47.4210183 56.7264925,46.219097 C56.9120064,45.01195 55.631699,43.6976753 54.2155222,43.5330644 C53.8627845,43.4912584 53.4316606,43.4703554 53.2775011,43.2012296 C53.2227651,43.07173 53.1986239,42.9313539 53.2069535,42.7910086 C53.1703733,42.333756 52.8646673,41.9261479 52.5694127,41.5420557 C52.451415,41.372643 52.3066954,41.2235111 52.1409017,41.1004803 C51.6731975,40.7921614 51.0069151,40.8757733 50.4268575,40.9802882 C49.3625475,41.1701569 48.3052052,41.3835415 47.2548306,41.6204419 C47.1315824,41.1041083 47.1396672,40.5651232 47.2783464,40.0527185 C47.3854742,39.6660134 47.5683753,39.2688569 47.369797,38.8821518 C47.2671007,38.6856265 47.0686096,38.5575998 46.8472225,38.5450913 C46.5647589,38.5376871 46.304932,38.6989236 46.1861658,38.9553122 C45.5844695,39.8550636 45.1687149,40.8660224 44.9633416,41.9287608 C44.1609722,41.3611408 43.1241892,41.2428765 42.2146,41.6152161 C41.9887421,41.7422164 41.7432264,41.8305314 41.4882216,41.8765034 C41.055914,41.8705298 40.6587449,41.637193 40.4430727,41.2624784 C40.1556567,40.8182901 40.0250131,40.2904899 39.4658584,40.0004611 C39.2132454,39.8671343 38.911094,39.8671343 38.6584809,40.0004611 C37.9190381,40.431585 38.841382,41.5002498 38.2926788,42.0620173 C38.14037,42.1931206 37.9623877,42.2910109 37.7701044,42.3494332 L36.3983464,42.8537176 C35.6671023,43.1661044 34.8910916,43.3609888 34.0990189,43.4311623 C33.1897393,43.4677426 32.2700083,43.1881652 31.376406,43.376292 C31.7357688,43.7854465 32.2132304,44.073019 32.7429382,44.1993468 C33.0669343,44.2803458 33.4092206,44.3064745 33.7253781,44.4109894 C34.0370312,44.4803614 34.2908716,44.7055583 34.3968863,45.0067243 C34.4674339,45.3751393 34.1120832,45.7304899 34.1826308,46.0989049 C34.2935439,46.4257403 34.6267773,46.622348 34.9664925,46.5613833 L33.3438988,47.6065322 C33.0512571,47.794659 32.7246481,48.0690106 32.8343887,48.366878 L33.3569632,48.5184246 L31.948625,50.5381748 C31.7656806,50.7429083 31.6610886,51.0057767 31.6533705,51.2802305 C31.6810453,51.4224314 31.7665085,51.5467632 31.889357,51.6235435 C32.0122056,51.7003239 32.1614146,51.7226623 32.3013628,51.6852257 C31.9639089,52.0366726 31.6977198,52.450153 31.5175011,52.9028242 C31.4510045,53.0230036 31.4461463,53.1677753 31.5044367,53.2921422 C31.6303146,53.4283999 31.8142111,53.4955367 31.9982696,53.4724304 C32.7560025,53.4724304 33.4588652,52.9498559 33.5659929,52.3044765 C33.7985386,52.5657637 33.5503157,52.8740826 33.3282216,53.1379827 C32.4372321,54.2092603 31.5279526,55.3014409 31.0550227,56.5503939 C30.5820928,57.7993468 30.6029958,59.2573295 31.4887595,60.33122 C31.68484,60.5390143 31.8598838,60.765696 32.011334,61.0079539 C32.2935242,61.5462056 32.1315261,62.2360038 32.5704886,62.6932565 C32.9234318,61.7258949 33.3515067,60.7876246 33.850796,59.8870317 C33.8225788,60.2038213 33.7763432,60.5187468 33.7123138,60.8302786 C33.6690785,61.1687439 33.8497608,61.4962965 34.1591149,61.640269 C34.6189804,61.8074928 35.0971361,61.4495293 35.3976164,61.1176945 C35.4723626,61.0190055 35.5677834,60.9378533 35.6771937,60.8799232 C35.836007,60.8324772 36.0001729,60.8052625 36.1658008,60.7989241 C36.7118911,60.7126993 37.0463388,60.2476081 37.2710458,59.8138713 C37.8302004,58.7295293 38.1228421,57.5589625 38.4102581,56.3962344 C38.2948925,57.281685 38.4110228,58.1819203 38.7473186,59.0091066 C38.8013441,59.1920967 38.9202574,59.3490994 39.0817662,59.450682 C39.3667612,59.5705543 39.695925,59.5065789 39.9152725,59.288684 C40.0976277,59.0847584 40.2221215,58.8357707 40.2758488,58.5675312 C40.7160998,57.0256485 41.0435734,55.4537749 41.2556759,53.8643612 L41.151161,55.9990778 C41.1276452,56.4798463 41.151161,57.0442267 41.6319295,57.3055139 C41.8487979,57.4230932 42.154504,57.4936407 42.1963099,57.7078963 C42.5865529,57.6290342 42.8686065,57.2881741 42.8730438,56.8900672 C42.8965597,56.5294909 42.7789804,56.1689145 42.8207864,55.8083381 C42.870431,55.3667627 43.1526212,54.9669933 43.2806519,54.5358694 C43.4740045,53.8800384 43.3041678,53.192853 43.2336202,52.518732 C43.1630727,51.844611 43.1238796,51.2253602 43.6778085,50.7654947 Z"/>
      <path fill="#000" fill-rule="nonzero" d="M84.631968 199.134832C79.3304502 199.71489 76.5686442 198.431969 76.5686442 198.431969 75.6800875 197.887312 75.0739791 196.98149 74.9094704 195.952354 74.629893 194.212181 71.9673762 192.453718 71.9673762 192.453718 71.9673762 192.453718 68.6882216 192.772488 68.2858392 191.810951 68.1891798 191.402997 68.1522146 190.983179 68.1760986 190.564611 69.3884713 190.85464 72.1816317 191.520922 73.0464925 191.769145 74.1700275 192.087915 77.451795 197.410336 77.451795 197.410336 80.6107576 199.072123 85.8391149 196.940019 87.6733512 196.1039 87.9267998 197.381595 87.4016125 198.831739 84.631968 199.134832zM61.152698 189.869587C61.152698 189.869587 59.537943 192.34659 67.2772705 191.066282M73.4331975 186.700173C73.4331975 186.700173 81.5958104 188.474313 79.9131207 185.030548" opacity=".1"/>
      <path fill="#000" fill-rule="nonzero" d="M3.50386167 6.8326609C3.45907658 6.94815182 3.44468205 7.07320426 3.46205572 7.19585014 3.49627167 7.33687566 3.58446295 7.45884233 3.70766571 7.53552354L4.25898175 7.18017291C3.95942077 7.23324903 3.65839704 7.09471561 3.50386167 6.8326609zM2.00929875 5.2989049C2.33590778 5.37990394 2.67819404 5.40603266 2.99435159 5.51054755 3.25832689 5.58069014 3.48435509 5.75138363 3.62405379 5.9860903 3.6689658 5.87154318 3.68337098 5.74729852 3.66585975 5.62551393 3.55984505 5.32434794 3.30600461 5.09915098 2.99435159 5.02977906 2.67819404 4.92526417 2.33590778 4.89913545 2.00929875 4.81813641 1.69104087 4.73849532 1.38939153 4.60315119 1.11830932 4.41836695.959346894 4.42440729.801160324 4.44363439.645379443 4.47585014 1.00416108 4.88441299 1.48059989 5.17191916 2.00929875 5.2989049L2.00929875 5.2989049zM3.15373679 20.5058213C2.65360973 21.4063622 2.22466238 22.3446299 1.87081652 23.3120461 1.43446686 22.8547935 1.59385207 22.1649952 1.31166186 21.6267435 1.1611474 21.3838356.986033413 21.157063.789087416 20.9500096.343917648 20.4036072.0864798343 19.7284055.054870317 19.0243228-.0174425515 19.8908842.245340995 20.7521783.789087416 21.4307781.986033413 21.6378315 1.1611474 21.8646041 1.31166186 22.107512 1.59385207 22.6457637 1.43446686 23.3329491 1.87081652 23.7928146 2.20291117 22.888148 2.60024098 22.0087829 3.05967339 21.1616523 3.11688748 20.9475381 3.1484632 20.7273852 3.15373679 20.5058213zM.992891451 12.0505668C.946515726 12.1537391.927613505 12.2671524.938021134 12.3797887.968462389 12.5423946 1.07409992 12.6809833 1.22282421 12.7534294 1.33196921 12.594373 1.45340358 12.4441089 1.58601345 12.3040154 1.35299752 12.3746662 1.1028936 12.2677936.992891451 12.0505668zM16.4584822 1.75846302C16.469838 1.55362062 16.5022339 1.35048953 16.5551585 1.15227666 16.6492219.817829011 16.7955427.47815562 16.7040922.138482229 16.667512.316157541 16.6048031.496445725 16.5551585.661056676 16.4580906 1.01822784 16.4253549 1.38982228 16.4584822 1.75846302L16.4584822 1.75846302zM7.65832853 1.46582133C7.6290418 1.76984744 7.65291414 2.07665126 7.72887608 2.37248799 7.75903164 2.06847048 7.73514751 1.76151517 7.65832853 1.46582133L7.65832853 1.46582133zM2.85848223 12.9232661C2.74090298 13.558194 2.03542747 14.0781556 1.29075889 14.09122 1.12592194 14.1042505.962339301 14.0537736.833506244 13.9501249L.809990394 14.0023823C.74389842 14.1224872.738092399 14.2666701.79431316 14.3917003.921758773 14.5270622 1.10636563 14.5931321 1.29075889 14.5693756 1.59914593 14.5641272 1.90083723 14.4785729 2.16607109 14.3211527 2.32023055 14.1304131 2.47700288 13.9422863 2.63116234 13.7567723 2.71285252 13.6627907 2.78793456 13.5632634 2.85586936 13.4589049 2.86145443 13.4409298 2.86581914 13.4225979 2.86893372 13.4040346L2.86893372 13.4170989C2.98266757 13.2707281 2.97830706 13.0646939 2.85848223 12.9232661L2.85848223 12.9232661zM2.24184438 9.02224784C2.11818974 9.13392953 2.069443 9.30657425 2.11642651 9.46643612L2.3620365 9.53698367 2.63900096 9.13721422 2.24184438 9.02224784zM25.870048 13.6078386C25.7916619 13.7071278 25.6819212 13.7881268 25.5930836 13.8691258 25.2194428 14.274121 25.3500865 14.8620173 25.1724111 15.3532373 25.1158609 15.5432707 24.9737849 15.6959782 24.7883189 15.7660711 24.5061287 15.8549087 24.2082613 15.685072 23.9704899 15.5256868L22.9828242 14.8541787C23.0220173 15.0370797 23.0585975 15.2225937 23.0925648 15.4081076L23.9704899 16.0038425C24.2082613 16.1658405 24.5061287 16.3356772 24.7883189 16.2468396 24.9733257 16.1760644 25.1151473 16.0236304 25.1724111 15.8340058 25.3500865 15.3427858 25.2194428 14.7548895 25.5930836 14.3498943 25.6819212 14.2532181 25.7916619 14.1748319 25.870048 14.0755427 26.0087528 13.8622285 26.0496401 13.5997896 25.9824015 13.35439 25.9648508 13.4463613 25.9264116 13.533073 25.870048 13.6078386zM23.3120461 17.6656292C23.301128 17.7850214 23.2674234 17.9012136 23.212757 18.0079155 23.0063401 18.3893948 22.5151201 18.5853602 22.0604803 18.7499712L21.2034582 19.0635159C21.0576992 19.126103 20.9020049 19.1623727 20.7435927 19.1706436 20.4942147 19.1596916 20.2638156 19.0343699 20.1191162 18.8309702 19.994516 18.6424657 19.9059247 18.4325044 19.857829 18.2117195L19.204611 15.7112008C19.0739673 15.214755 18.875389 14.642536 18.3162344 14.4570221 18.1542399 14.4204002 17.9945717 14.3741575 17.8380788 14.3185399 17.4905668 14.151316 17.4174063 13.764611 17.3155043 13.4406148 17.0542171 12.6828818 16.3565802 12.0819212 15.6014601 11.6116042 15.0903784 11.2553772 14.4842124 11.0606031 13.8612872 11.0524496 13.5270757 11.0573958 13.2041682 11.1742313 12.9441691 11.3842843 12.5078194 11.7526993 12.4686263 12.2256292 12.5025937 12.7377522 12.5228159 12.3975813 12.6825971 12.0808553 12.9441691 11.86244 13.2053425 11.6544786 13.5275117 11.5379103 13.8612872 11.5306052 14.4838229 11.5411274 15.0893152 11.735685 15.6014601 12.0897598 16.3565802 12.5522382 17.0437656 13.1531988 17.3155043 13.9187704 17.4304707 14.2427666 17.5036311 14.6294717 17.8380788 14.7966955 17.9945717 14.8523131 18.1542399 14.8985558 18.3162344 14.9351777 18.875389 15.1206916 19.0739673 15.6929107 19.204611 16.1893564L19.857829 18.6872622C19.9052189 18.9082702 19.9938637 19.1183584 20.1191162 19.306513 20.2627212 19.5115108 20.493532 19.6380221 20.7435927 19.6487992 20.901825 19.6392741 21.0573064 19.603054 21.2034582 19.5416715L22.0552546 19.2333525C22.5098943 19.0687416 23.0011143 18.8727762 23.2075312 18.4912968 23.3158151 18.2451561 23.3520562 17.9733484 23.3120461 17.7074352 23.314659 17.7022094 23.314659 17.6865322 23.3120461 17.6656292zM26.8995197 11.1334486C26.9110369 11.3909573 26.8445577 11.645946 26.70878 11.8650528 26.5324814 12.1011471 26.2199455 12.1899843 25.9458213 12.0819212 25.9084116 12.2541042 25.9084116 12.4323127 25.9458213 12.6044957L25.9458213 12.5679155C26.2199455 12.6759785 26.5324814 12.5871413 26.70878 12.3510471 26.8442568 12.1318114 26.9107114 11.8769171 26.8995197 11.6194428 26.9230355 11.1935447 26.9413256 10.757195 26.9308742 10.3260711 26.9256484 10.5899712 26.9125841 10.8721614 26.8995197 11.1334486zM7.71319885 17.0071854C7.46833339 18.187005 7.08598595 19.3340473 6.57398655 20.4248223 6.34927954 20.8585591 6.01483189 21.3236503 5.46612872 21.4098751 5.30054531 21.4166484 5.1364331 21.4438542 4.97752161 21.4908742 4.86933526 21.549524 4.77491094 21.6305864 4.70055716 21.7286455 4.40007685 22.0683189 3.91669549 22.4262824 3.46205572 22.25122 3.24281582 22.1660296 3.0835349 21.9731117 3.04138329 21.7417099 3.04138329 21.8044188 3.02048031 21.8645149 3.01525456 21.924611 2.96704159 22.2633415 3.14944049 22.5929395 3.46205572 22.7319885 3.92192123 22.9018252 4.40007685 22.5412488 4.70055716 22.209414 4.77574676 22.1128365 4.87002818 22.0327863 4.97752161 21.9742555 5.13584207 21.92471 5.30028978 21.8974486 5.46612872 21.8932565 6.01483189 21.8070317 6.34927954 21.3419404 6.57398655 20.9082037 7.06330581 19.8734088 7.43070167 18.7852507 7.66878002 17.6656292 7.66914858 17.4454119 7.68398682 17.2254569 7.71319885 17.0071854zM10.5586167 14.4831508C10.3465142 16.0725645 10.0190406 17.6444381 9.57878963 19.1863208 9.52517144 19.4551265 9.39965289 19.7043576 9.21560038 19.9074736 8.9966018 20.1260264 8.66701209 20.1900846 8.38209414 20.0694717 8.22237795 19.9665456 8.10469243 19.8099404 8.05025937 19.6278963 7.83413098 19.0853277 7.71048356 18.5103672 7.68445725 17.9269164 7.65047519 18.6725848 7.77792718 19.4167974 8.05809798 20.1086647 8.1123957 20.2914637 8.23003976 20.44894 8.38993276 20.552853 8.67500326 20.6719915 9.00374669 20.6080978 9.223439 20.3908549 9.40705978 20.1874431 9.53251526 19.9383372 9.58662824 19.6697022 10.0050139 18.2031838 10.3210606 16.7093829 10.532488 15.1990778L10.5586167 14.4831508zM12.5809798 15.1624976C12.4529491 15.5936215 12.1733718 15.9907781 12.1237272 16.4349664 12.1067309 16.5781718 12.1067309 16.7228849 12.1237272 16.8660903 12.1864361 16.442805 12.4503362 16.0587128 12.5731412 15.6432661 12.6560853 15.3397476 12.6835254 15.0237432 12.6541402 14.7104707 12.6451914 14.8632425 12.6206776 15.0147025 12.5809798 15.1624976zM11.4992507 18.3345245C11.4626705 18.120269 11.1491258 18.0497214 10.9348703 17.9321422 10.6320641 17.7366493 10.4513541 17.398929 10.4567147 17.0385399L10.4567147 17.0986359C10.4331988 17.5794044 10.4567147 18.1437848 10.9374832 18.405072 11.1517387 18.5226513 11.4600576 18.590586 11.5018636 18.8074544 11.8914341 18.7256927 12.1724325 18.3850227 12.1785975 17.9870125 12.1846919 17.8631893 12.1803216 17.7390725 12.1655331 17.6159846 12.1257498 17.9760181 11.855262 18.2677206 11.4992507 18.3345245L11.4992507 18.3345245z" opacity=".1" transform="translate(30.736 38.822)"/>
      <path fill="#2F2E41" fill-rule="nonzero" d="M123.678731,203.751777 L93.241382,203.751777 C92.5144581,203.753048 91.82176,203.443088 91.3383215,202.900219 C90.8548831,202.357349 90.6269515,201.633503 90.7121217,200.911585 L98.1222273,137.941364 L98.2763868,136.611412 C98.4273724,135.330278 99.5130336,134.364747 100.803034,134.364342 L116.783361,134.364342 C118.083277,134.364918 119.173821,135.345056 119.312621,136.637541 L119.445878,137.899558 L126.213217,200.935101 C126.290414,201.653942 126.05823,202.37169 125.57464,202.909122 C125.091051,203.446555 124.401704,203.752941 123.678731,203.751777 Z"/>
      <path fill="#000" fill-rule="nonzero" d="M100.222977 141.89464C100.222977 141.89464 101.341286 170.461172 97.0222081 181.349011 97.0222081 181.349011 97.4716221 183.669241 98.6866077 181.349011 99.9015933 179.02878 104.063899 154.859712 102.062439 142.297022 102.062439 142.294409 101.652218 140.933103 100.222977 141.89464zM105.58459 141.89464C105.58459 141.89464 106.7029 170.461172 102.383822 181.349011 102.383822 181.349011 102.833236 183.669241 104.048222 181.349011 105.263207 179.02878 109.425513 154.859712 107.424052 142.297022 107.424052 142.294409 107.024283 140.933103 105.58459 141.89464zM118.635887 141.89464C118.635887 141.89464 117.514965 170.461172 121.836656 181.349011 121.836656 181.349011 121.384629 183.669241 120.169643 181.349011 118.954658 179.02878 114.787126 154.857099 116.785974 142.294409 116.785974 142.294409 117.188356 140.933103 118.635887 141.89464zM113.266435 141.89464C113.266435 141.89464 112.145513 170.461172 116.467203 181.349011 116.467203 181.349011 116.015176 183.669241 114.800191 181.349011 113.585205 179.02878 109.425513 154.857099 111.42436 142.294409 111.42436 142.294409 111.826742 140.933103 113.266435 141.89464z" opacity=".1"/>
      <rect width="14.465" height="126.21" x="101.451" fill="#2F2E41" fill-rule="nonzero"/>
      <path fill="#000" fill-rule="nonzero" d="M119.445878,137.907397 C119.283047,137.950647 119.115296,137.972604 118.946819,137.972719 L98.4227076,137.972719 C98.3220815,137.972884 98.2216026,137.965021 98.1222273,137.949203 L98.2763868,136.619251 C98.4273724,135.338116 99.5130336,134.372585 100.803034,134.372181 L116.783361,134.372181 C118.083277,134.372757 119.173821,135.352895 119.312621,136.645379 L119.445878,137.907397 Z" opacity=".1"/>
      <rect width="14.614" height="2.521" x="101.451" y="123.688" fill="#000" fill-rule="nonzero" opacity=".1"/>
      <rect width="24.368" height="13.323" x="96.5" y="124.169" fill="#2F2E41" fill-rule="nonzero" rx="6.662"/>
      <rect width="2.08" height="120.208" x="102.423" fill="#000" fill-rule="nonzero" opacity=".1"/>
      <rect width="2.08" height="120.208" x="105.903" fill="#000" fill-rule="nonzero" opacity=".1"/>
      <rect width="2.08" height="120.208" x="109.384" fill="#000" fill-rule="nonzero" opacity=".1"/>
      <rect width="2.08" height="120.208" x="112.867" fill="#000" fill-rule="nonzero" opacity=".1"/>
      <path fill="#CF9595" fill-rule="nonzero" d="M116.819941,60.2606724 C116.819941,60.2606724 112.059288,58.7791739 112.780441,64.0205956 C113.501593,69.2620173 115.341055,69.5834006 115.341055,69.5834006 C115.341055,69.5834006 116.940133,69.2228242 117.141324,67.1429779 C117.342516,65.0631316 116.819941,60.2606724 116.819941,60.2606724 Z"/>
      <path stroke="#535461" d="M0.562074928,105.802997 C0.562074928,105.802997 16.6521422,64.780903 47.413487,49.2630548 C60.3263016,42.7517771 70.9450144,32.4361575 77.3700672,19.4763112 C80.4079403,13.3254748 82.8760907,6.9093333 84.7435927,0.3082805" opacity=".22" transform="translate(98.168 64.406)"/>
      <path stroke="#535461" d="M0.899558117,38.5098559 C0.899558117,38.5098559 6.71319885,23.6870317 17.8257445,18.0850336 C22.5021897,15.7635606 26.2996523,11.9881017 28.6482613,7.32522574 C29.7462725,5.10344126 30.638379,2.78571361 31.313391,0.401114313" opacity=".22" transform="translate(111.168 41.812)"/>
      <path fill="#F5DD48" fill-rule="nonzero" d="M104.003803 15.1677233C104.526377 16.7772526 103.1102 22.3792507 103.1102 22.3792507 103.1102 22.3792507 98.6996721 18.650682 98.1823234 17.0333141 97.7905876 15.9775456 98.0104499 14.7919293 98.7546875 13.9468173 99.4989252 13.1017053 100.647231 12.7337115 101.744054 12.9888246 102.840877 13.2439377 103.708915 14.0809183 104.003803 15.1677233L104.003803 15.1677233zM82.3169632 51.0006532C82.8395376 52.6101825 81.4233608 58.2121806 81.4233608 58.2121806 81.4233608 58.2121806 77.0076068 54.4836119 76.4902581 52.8740826 76.1556021 51.833242 76.4016492 50.6929288 77.1357156 49.8826879 77.8697821 49.0724471 78.9803458 48.7153735 80.0490682 48.9459733 81.1177905 49.176573 81.9823072 49.9598126 82.3169632 51.0006532zM128.005647 35.2058405C128.528222 36.8153698 127.109432 42.4173679 127.109432 42.4173679 127.109432 42.4173679 122.696291 38.6914121 122.178942 37.0818828 121.660887 35.4728826 122.545273 33.7485639 124.154273 33.2305091 125.763274 32.7124544 127.487592 33.5968404 128.005647 35.2058405zM151.641689 62.2830355C152.164264 63.889952 150.748087 69.49195 150.748087 69.49195 150.748087 69.49195 146.332333 65.7659942 145.809759 64.1564649 145.448169 63.1086159 145.681601 61.9471461 146.419955 61.1203638 147.158308 60.2935816 148.286093 59.9308083 149.368003 60.1720685 150.449912 60.4133287 151.316719 61.2208856 151.633851 62.2830355L151.641689 62.2830355zM135.692717 17.8171758C134.833082 19.2725456 129.706627 21.9350624 129.706627 21.9350624 129.706627 21.9350624 129.562919 16.1606148 130.422554 14.705245 131.28189 13.2499295 133.158286 12.7667928 134.613601 13.6261287 136.068916 14.4854647 136.552053 16.3618604 135.692717 17.8171758L135.692717 17.8171758zM193.502516 13.456292C192.642881 14.9116619 187.516425 17.5741787 187.516425 17.5741787 187.516425 17.5741787 187.37533 11.7971182 188.234965 10.3443612 188.779114 9.37939739 189.802363 8.7839417 190.910172 8.78758867 192.01798 8.79123565 193.037287 9.39341555 193.575071 10.3619411 194.112854 11.3304667 194.085102 12.5140365 193.502516 13.456292L193.502516 13.456292zM77.0912187 24.6707397C75.4555607 25.0966378 69.9424002 23.3643036 69.9424002 23.3643036 69.9424002 23.3643036 73.9165789 19.1706436 75.5522369 18.7447454 76.6108139 18.4698328 77.7356434 18.7805471 78.5030132 19.5598453 79.270383 20.3391435 79.5637113 21.4686317 79.2725041 22.5228425 78.9812969 23.5770533 78.1497956 24.3958271 77.0912187 24.6707397zM130.059365 90.7946974C129.19973 92.2500672 124.073274 94.9125841 124.073274 94.9125841 124.073274 94.9125841 123.929566 89.1381364 124.789201 87.6827666 125.345094 86.7413426 126.361004 86.1679963 127.454248 86.1787016 128.547491 86.189407 129.551979 86.7825377 130.089329 87.734667 130.62668 88.6867964 130.615258 89.8532734 130.059365 90.7946974z"/>
    </g>
  </g>
</svg>
