<svg xmlns="http://www.w3.org/2000/svg" width="547" height="528" viewBox="0 0 547 528">
  <path fill="#CFEEE8" d="M228.835289,494.063268 L238.977466,527.181429 L237.06513,527.767067 L226.922953,494.648905 L228.835289,494.063268 Z M205.129941,497.776336 L206.759343,498.936099 L186.67437,527.15436 L185.044968,525.994597 L205.129941,497.776336 Z M272.905937,484.980554 L285.937417,517.071938 L284.08437,517.824413 L271.05289,485.733029 L272.905937,484.980554 Z M344.625501,484.053092 L355.093185,517.069814 L353.186707,517.674247 L342.719023,484.657525 L344.625501,484.053092 Z M164.769668,503.607655 L165.398209,505.506322 L132.516771,516.391512 L131.88823,514.492846 L164.769668,503.607655 Z M404.960244,493.271937 L405.707055,495.127273 L373.576018,508.060675 L372.829207,506.205338 L404.960244,493.271937 Z M25.0545695,470.329683 L25.9852927,504.953521 L23.9860149,505.007264 L23.0552917,470.383426 L25.0545695,470.329683 Z M481.757033,480.945969 L510.585889,500.144236 L509.477327,501.808895 L480.648471,482.610628 L481.757033,480.945969 Z M58.863129,461.937085 L73.3644094,493.391643 L71.5481347,494.228988 L57.0468543,462.774429 L58.863129,461.937085 Z M113.256976,460.096651 L115.188762,460.614532 L106.220011,494.069545 L104.288224,493.551664 L113.256976,460.096651 Z M289.769646,465.572534 L318.296478,485.216776 L317.162164,486.863995 L288.635332,467.219754 L289.769646,465.572534 Z M188.708805,478.585362 L188.83431,480.581421 L154.266228,482.754926 L154.140723,480.758868 L188.708805,478.585362 Z M449.835289,447.063268 L459.977466,480.181429 L458.06513,480.767067 L447.922953,447.648905 L449.835289,447.063268 Z M493.905937,437.980554 L506.937417,470.071938 L505.08437,470.824413 L492.05289,438.733029 L493.905937,437.980554 Z M378.319644,435.877651 L394.891179,466.292459 L393.134942,467.249346 L376.563407,436.834538 L378.319644,435.877651 Z M226.233443,464.101567 L260.853592,465.16064 L260.792438,467.159705 L226.172289,466.100632 L226.233443,464.101567 Z M327.505431,454.451142 L360.519704,464.926551 L359.914824,466.832888 L326.900552,456.357479 L327.505431,454.451142 Z M139.757033,428.945969 L168.585889,448.144236 L167.477327,449.808895 L138.648471,430.610628 L139.757033,428.945969 Z M299.129941,416.776336 L300.759343,417.936099 L280.67437,446.15436 L279.044968,444.994597 L299.129941,416.776336 Z M207.529609,410.869889 L209.278235,411.840613 L192.467064,442.123627 L190.718437,441.152903 L207.529609,410.869889 Z M63.8103964,439.309557 L63.8521695,441.309121 L29.2233805,442.032553 L29.1816075,440.03299 L63.8103964,439.309557 Z M510.769646,418.572534 L539.296478,438.216776 L538.162164,439.863995 L509.635332,420.219754 L510.769646,418.572534 Z M258.769668,422.607655 L259.398209,424.506322 L226.516771,435.391512 L225.88823,433.492846 L258.769668,422.607655 Z M346.55806,419.66333 L347.356704,421.496951 L315.60173,435.328004 L314.803086,433.494383 L346.55806,419.66333 Z M65.7570326,412.945969 L94.5858886,432.144236 L93.4773267,433.808895 L64.6484707,414.610628 L65.7570326,412.945969 Z M133.529609,394.869889 L135.278235,395.840613 L118.467064,426.123627 L116.718437,425.152903 L133.529609,394.869889 Z M447.233443,417.101567 L481.853592,418.16064 L481.792438,420.159705 L447.172289,419.100632 L447.233443,417.101567 Z M359.79169,394.926679 L387.782775,415.327059 L386.6048,416.943343 L358.613715,396.542963 L359.79169,394.926679 Z M33.8352889,379.063267 L43.9774663,412.181429 L42.0651304,412.767067 L31.9229531,379.648905 L33.8352889,379.063267 Z M77.9059368,369.980554 L90.9374165,402.071938 L89.0843697,402.824412 L76.05289,370.733029 L77.9059368,369.980554 Z M149.625501,369.053092 L160.093185,402.069814 L158.186707,402.674247 L147.719023,369.657525 L149.625501,369.053092 Z M282.708805,397.585362 L282.83431,399.581421 L248.266228,401.754926 L248.140723,399.758868 L282.708805,397.585362 Z M520.129941,369.776336 L521.759343,370.936099 L501.67437,399.15436 L500.044968,397.994597 L520.129941,369.776336 Z M209.960244,378.271937 L210.707055,380.127273 L178.576018,393.060675 L177.829207,391.205338 L209.960244,378.271937 Z M430.529609,360.869889 L432.278235,361.840613 L415.467064,392.123627 L413.718437,391.152903 L430.529609,360.869889 Z M479.769668,375.607655 L480.398209,377.506322 L447.516771,388.391512 L446.88823,386.492846 L479.769668,375.607655 Z M334.794453,367.659157 L335.228927,369.611395 L301.419737,377.135688 L300.985263,375.18345 L334.794453,367.659157 Z M362.622681,360.586542 L394.053556,375.139082 L393.213252,376.953989 L361.782376,362.401449 L362.622681,360.586542 Z M94.7696461,350.572534 L123.296478,370.216776 L122.162164,371.863995 L93.6353323,352.219754 L94.7696461,350.572534 Z M232.961404,335.024684 L244.439903,367.703736 L242.552923,368.366537 L231.074424,335.687484 L232.961404,335.024684 Z M342.386731,324.086308 L344.312735,324.625297 L334.978422,357.980162 L333.052419,357.441173 L342.386731,324.086308 Z M265.243442,352.903607 L299.85033,354.331802 L299.767862,356.330101 L265.160974,354.901906 L265.243442,352.903607 Z M503.708805,350.585362 L503.83431,352.581421 L469.266228,354.754926 L469.140723,352.758868 L503.708805,350.585362 Z M183.319644,320.877651 L199.891179,351.292459 L198.134942,352.249346 L181.563407,321.834538 L183.319644,320.877651 Z M31.2334429,349.101566 L65.8535923,350.16064 L65.7924384,352.159705 L31.172289,351.100631 L31.2334429,349.101566 Z M132.505431,339.451142 L165.519704,349.926551 L164.914824,351.832888 L131.900552,341.357479 L132.505431,339.451142 Z M375.85845,322.85536 L402.005095,345.571638 L400.693393,347.081419 L374.546748,324.36514 L375.85845,322.85536 Z M446.794453,327.659157 L447.228927,329.611395 L413.419737,337.135688 L412.985263,335.18345 L446.794453,327.659157 Z M104.129941,301.776336 L105.759343,302.936099 L85.67437,331.15436 L84.0449682,329.994597 L104.129941,301.776336 Z M248.784422,298.661049 L272.877789,323.544499 L271.440948,324.935717 L247.347581,300.052267 L248.784422,298.661049 Z M453.961404,288.024684 L465.439903,320.703736 L463.552923,321.366537 L452.074424,288.687484 L453.961404,288.024684 Z M63.7696681,307.607655 L64.3982096,309.506322 L31.5167711,320.391513 L30.8882295,318.492846 L63.7696681,307.607655 Z M151.55806,304.66333 L152.356704,306.496951 L120.60173,320.328004 L119.803086,318.494383 L151.55806,304.66333 Z M292.465629,306.351649 L325.883733,315.456959 L325.357967,317.386614 L291.939863,308.281305 L292.465629,306.351649 Z M368.213451,279.909446 L370.003364,280.801754 L354.550216,311.799764 L352.760303,310.907455 L368.213451,279.909446 Z M392.219396,280.838074 L410.194419,310.445083 L408.484827,311.483011 L390.509804,281.876003 L392.219396,280.838074 Z M9.96140445,278.024684 L21.4399033,310.703736 L19.5529229,311.366537 L8.07442403,278.687485 L9.96140445,278.024684 Z M486.243442,305.903607 L520.85033,307.331802 L520.767862,309.330101 L486.160974,307.901906 L486.243442,305.903607 Z M221.579926,272.150016 L223.537151,272.561441 L216.412026,306.457001 L214.454801,306.045576 L221.579926,272.150016 Z M164.79169,279.926679 L192.782775,300.327059 L191.6048,301.943343 L163.613715,281.542963 L164.79169,279.926679 Z M321.819996,256.018659 L333.510424,288.622498 L331.627787,289.297536 L319.937358,256.693698 L321.819996,256.018659 Z M87.7088052,282.585362 L87.8343095,284.581421 L53.266228,286.754926 L53.1407237,284.758867 L87.7088052,282.585362 Z M260.868144,260.547234 L286.725259,283.592536 L285.394559,285.085598 L259.537443,262.040297 L260.868144,260.547234 Z M469.784422,251.661049 L493.877789,276.544499 L492.440948,277.935717 L468.347581,253.052267 L469.784422,251.661049 Z M513.465629,259.351649 L546.883733,268.456959 L546.357967,270.386614 L512.939863,261.281305 L513.465629,259.351649 Z M384.797107,260.1851 L384.853502,262.184305 L350.230929,263.160955 L350.174534,261.16175 L384.797107,260.1851 Z M139.794453,252.659157 L140.228927,254.611395 L106.419737,262.135688 L105.985263,260.18345 L139.794453,252.659157 Z M167.622681,245.586542 L199.053556,260.139082 L198.213252,261.953989 L166.782376,247.401449 L167.622681,245.586542 Z M442.579926,225.150016 L444.537151,225.561441 L437.412026,259.457001 L435.454801,259.045576 L442.579926,225.150016 Z M37.9614044,220.024684 L49.4399033,252.703736 L47.5529229,253.366537 L36.074424,220.687485 L37.9614044,220.024684 Z M272.787732,229.044301 L300.877825,249.308138 L299.707734,250.930139 L271.617641,230.666302 L272.787732,229.044301 Z M385.370234,216.917536 L400.546091,248.05224 L398.748286,248.928536 L383.572429,217.793833 L385.370234,216.917536 Z M147.386731,209.086308 L149.312735,209.625297 L139.978422,242.980162 L138.052419,242.441173 L147.386731,209.086308 Z M70.2434421,237.903607 L104.850329,239.331802 L104.767862,241.330101 L70.1609742,239.901906 L70.2434421,237.903607 Z M481.868144,213.547234 L507.725259,236.592536 L506.394559,238.085598 L480.537443,215.040297 L481.868144,213.547234 Z M235.181167,200.125421 L243.165012,233.82905 L241.21887,234.290059 L233.235024,200.586431 L235.181167,200.125421 Z M321.581641,217.619575 L353.633895,230.747001 L352.875881,232.597789 L320.823626,219.470362 L321.581641,217.619575 Z M180.85845,207.85536 L207.005095,230.571638 L205.693393,232.081419 L179.546748,209.36514 L180.85845,207.85536 Z M416.05457,195.329684 L416.985292,229.953521 L414.986015,230.007263 L414.055292,195.383426 L416.05457,195.329684 Z M383.392388,185.70943 L384.918804,187.001737 L362.538414,213.436459 L361.011999,212.144153 L383.392388,185.70943 Z M53.7844222,183.661049 L77.8777885,208.544499 L76.440948,209.935717 L52.3475818,185.052267 L53.7844222,183.661049 Z M493.787732,182.044301 L521.877825,202.308138 L520.707734,203.930139 L492.617641,183.666302 L493.787732,182.044301 Z M97.4656289,191.351649 L130.883733,200.456959 L130.357967,202.386614 L96.9398627,193.281305 L97.4656289,191.351649 Z M268.227882,198.217212 L302.853929,199.061764 L302.805162,201.061169 L268.179116,200.216617 L268.227882,198.217212 Z M173.213451,164.909446 L175.003364,165.801754 L159.550216,196.799764 L157.760303,195.907455 L173.213451,164.909446 Z M197.219396,165.838074 L215.194419,195.445083 L213.484827,196.483011 L195.509804,166.876003 L197.219396,165.838074 Z M26.5799257,157.150016 L28.5371507,157.561441 L21.4120264,191.457001 L19.4548014,191.045576 L26.5799257,157.150016 Z M456.181167,153.125421 L464.165012,186.82905 L462.21887,187.290059 L454.235024,153.586431 L456.181167,153.125421 Z M359.810396,178.309557 L359.852169,180.309121 L325.22338,181.032554 L325.181607,179.03299 L359.810396,178.309557 Z M126.819996,141.018659 L138.510424,173.622498 L136.627787,174.297536 L124.937358,141.693698 L126.819996,141.018659 Z M232.235751,141.73535 L253.730514,168.895092 L252.162234,170.13626 L230.667471,142.976518 L232.235751,141.73535 Z M65.8681434,145.547234 L91.7252594,168.592536 L90.3945589,170.085598 L64.5374428,147.040297 L65.8681434,145.547234 Z M304.05457,135.329684 L304.985292,169.953521 L302.986015,170.007263 L302.055292,135.383426 L304.05457,135.329684 Z M402.227882,158.217212 L436.853929,159.061764 L436.805162,161.061169 L402.179116,160.216617 L402.227882,158.217212 Z M337.863129,126.937085 L352.364409,158.391643 L350.548134,159.228988 L336.046855,127.774429 L337.863129,126.937085 Z M392.256976,125.096651 L394.188762,125.614532 L385.220011,159.069545 L383.288224,158.551664 L392.256976,125.096651 Z M489.227882,151.217212 L523.853929,152.061764 L523.805162,154.061169 L489.179116,153.216617 L489.227882,151.217212 Z M189.797107,145.1851 L189.853502,147.184305 L155.230929,148.160955 L155.174534,146.16175 L189.797107,145.1851 Z M77.7877326,114.0443 L105.877825,134.308138 L104.707734,135.930139 L76.6176417,115.666301 L77.7877326,114.0443 Z M190.370234,101.917536 L205.546091,133.05224 L203.748286,133.928536 L188.572429,102.793833 L190.370234,101.917536 Z M510.757033,103.945969 L539.585889,123.144236 L538.477327,124.808895 L509.648471,105.610628 L510.757033,103.945969 Z M453.235751,94.7353504 L474.730514,121.895092 L473.162234,123.13626 L451.667471,95.9765185 L453.235751,94.7353504 Z M40.1811664,85.1254212 L48.1650121,118.82905 L46.2188698,119.29006 L38.235024,85.5864309 L40.1811664,85.1254212 Z M279.769646,96.5725344 L308.296478,116.216776 L307.162164,117.863995 L278.635332,98.219754 L279.769646,96.5725344 Z M126.581641,102.619575 L158.633895,115.747001 L157.875881,117.597789 L125.823626,104.470362 L126.581641,102.619575 Z M417.961404,81.0246841 L429.439903,113.703736 L427.552923,114.366537 L416.074424,81.6874849 L417.961404,81.0246841 Z M485.835289,72.0632676 L495.977466,105.181429 L494.06513,105.767067 L483.922953,72.6489054 L485.835289,72.0632676 Z M188.392388,70.7094299 L189.918804,72.0017365 L167.538414,98.4364593 L166.011999,97.1441526 L188.392388,70.7094299 Z M368.319644,66.8776508 L384.891179,97.2924594 L383.134942,98.2493464 L366.563407,67.8345379 L368.319644,66.8776508 Z M216.233443,95.1015667 L250.853592,96.1606403 L250.792438,98.1597051 L216.172289,97.1006316 L216.233443,95.1015667 Z M317.505431,85.4511417 L350.519704,95.9265513 L349.914824,97.8328883 L316.900552,87.3574787 L317.505431,85.4511417 Z M73.2278823,83.217212 L107.853929,84.0617635 L107.805162,86.0611689 L73.1791155,85.2166174 L73.2278823,83.217212 Z M20.1299413,49.7763362 L21.759343,50.936099 L1.67436997,79.1543598 L0.0449682063,77.9945969 L20.1299413,49.7763362 Z M289.129941,47.776336 L290.759343,48.9360988 L270.67437,77.1543599 L269.044968,75.9945971 L289.129941,47.776336 Z M433.784422,44.6610489 L457.877789,69.5444989 L456.440948,70.9357177 L432.347581,46.0522677 L433.784422,44.6610489 Z M248.769668,53.6076553 L249.398209,55.5063221 L216.516771,66.3915125 L215.88823,64.4928457 L248.769668,53.6076553 Z M336.55806,50.66333 L337.356704,52.4969516 L305.60173,66.3280044 L304.803086,64.4943829 L336.55806,50.66333 Z M164.810396,63.3095566 L164.852169,65.3091203 L130.22338,66.0325534 L130.181607,64.0329897 L164.810396,63.3095566 Z M37.2357511,26.7353503 L58.7305138,53.8950918 L57.162234,55.1362598 L35.6674712,27.9765184 L37.2357511,26.7353503 Z M109.05457,20.3296834 L109.985293,54.9535206 L107.986015,55.0072632 L107.055292,20.3834259 L109.05457,20.3296834 Z M406.579926,18.1500164 L408.537151,18.5614412 L401.412026,52.4570006 L399.454801,52.0455759 L406.579926,18.1500164 Z M349.79169,25.9266791 L377.782775,46.3270593 L376.6048,47.9433433 L348.613715,27.5429631 L349.79169,25.9266791 Z M483.233443,42.1015667 L517.853592,43.1606402 L517.792438,45.159705 L483.172289,44.1006315 L483.233443,42.1015667 Z M142.863129,11.9370848 L157.364409,43.391643 L155.548134,44.2289877 L141.046855,12.7744295 L142.863129,11.9370848 Z M197.256976,10.0966505 L199.188763,10.6145315 L190.220011,44.0695445 L188.288225,43.5516635 L197.256976,10.0966505 Z M453.905937,10.980554 L466.937417,43.0719381 L465.08437,43.8244124 L452.05289,11.7330283 L453.905937,10.980554 Z M272.708805,28.5853623 L272.834309,30.5814206 L238.266228,32.7549257 L238.140723,30.7588674 L272.708805,28.5853623 Z M515.769668,0.607655321 L516.398209,2.5063221 L483.516771,13.3915125 L482.88823,11.4928457 L515.769668,0.607655321 Z M324.794454,3.65915755 L325.228928,5.61139536 L291.419737,13.1356883 L290.985263,11.1834505 L324.794454,3.65915755 Z M90.7088051,8.58536233 L90.8343094,10.5814206 L56.2662279,12.7549254 L56.1407236,10.7588671 L90.7088051,8.58536233 Z"/>
</svg>
