<svg xmlns="http://www.w3.org/2000/svg" width="819" height="66" viewBox="0 0 819 66">
  <path fill="none" stroke="#29A389" d="M316,1641.59315 C331.804688,1645.20906 347.302829,1650.66444 363.414063,1652.44087 C383.265563,1654.62971 427.096283,1656.5263 449.398438,1645.72299 C455.604252,1642.71686 489.411373,1626.6353 472.507813,1621.61257 C455.604252,1616.58984 453.599631,1643.87837 471.960938,1651.56771 C493.658139,1660.65405 544.915187,1658.48108 556.976563,1657.71921 C600.143109,1654.99254 592.485352,1647.7122 632.679688,1634.67861 C678.309632,1619.88244 756.953419,1619.52768 803.414063,1633.69532 C818.155062,1638.19041 832.117502,1645.41897 847.203125,1648.54702 C888.08184,1657.02336 914.769151,1653.22191 955.789063,1654.80078 C966.275323,1655.20441 996.444733,1657.87982 991.804688,1676.5513 C990.171155,1683.12461 972.141668,1691.0033 978.914063,1677.99084 C982.082525,1671.90297 990.304678,1666.85766 996.445313,1664.51575 C1025.98383,1653.25039 1075.44566,1647.63844 1097.46094,1645.00715 C1132.83891,1640.77875 1129.84613,1633.12931 1134,1645.95112" transform="translate(-316 -1620)"/>
</svg>
