<svg xmlns="http://www.w3.org/2000/svg" width="48" height="48" viewBox="0 0 48 48">
  <path fill="#FFF" d="M37.125,3 L10.875,3 C6.52734415,3 3,6.52734415 3,10.875 L3,37.125 C3,41.4726558 6.52734415,45 10.875,45 L37.125,45 C41.4726558,45 45,41.4726558 45,37.125 L45,10.875 C45,6.52734415 41.4726558,3 37.125,3 Z M15.9861787,38.6520441 L9.46153846,38.6520441 L9.42367869,19.1159864 L15.9483173,19.1159864 L15.9861787,38.6520441 Z M12.5597961,16.5603962 L12.5219347,16.5603962 C10.389123,16.5603962 9.01352123,15.0901442 9.01352123,13.2602172 C9.01352123,11.3861174 10.4332941,9.96634615 12.6039672,9.96634615 C14.7746402,9.96634615 16.1060693,11.3861174 16.1502404,13.2602172 C16.1502404,15.0901442 14.7683289,16.5603962 12.5597961,16.5603962 Z M38.607873,38.6520441 L32.0264423,38.6520441 L32.0264423,28.0384615 C32.0264423,25.470252 31.3449519,23.7223558 29.0480769,23.7223558 C27.293871,23.7223558 26.3473558,24.9023442 25.8930288,26.0444712 C25.7226558,26.454627 25.6784864,27.0162268 25.6784864,27.5904443 L25.6784864,38.6520441 L19.0655056,38.6520441 L19.0276442,19.1159864 L25.640625,19.1159864 L25.6784864,21.873498 C26.5240385,20.5673077 27.9311903,18.7184499 31.3007808,18.7184499 C35.4780653,18.7184499 38.6015633,21.4444115 38.6015633,27.3064904 L38.6015633,38.6520441 L38.607873,38.6520441 Z"/>
</svg>
