<svg xmlns="http://www.w3.org/2000/svg" width="20" height="20" viewBox="0 0 20 20">
  <path fill="#ffffff" d="M10,19.945625 C7.32875,19.945625 4.8175,18.905625 2.92875,17.016875 C1.04,15.128125 0,12.616875 0,9.945625 C0,8.054375 0.530625,6.2125 1.535,4.619375 C2.511875,3.070625 3.891875,1.819375 5.52625,1 L6.36625,2.67625 C5.0375,3.341875 3.915,4.359375 3.12125,5.61875 C2.305625,6.911875 1.875,8.4075 1.875,9.945 C1.875,14.425 5.52,18.07 10,18.07 C14.48,18.07 18.125,14.425 18.125,9.945 C18.125,8.408125 17.69375,6.911875 16.87875,5.61875 C16.084375,4.359375 14.9625,3.341875 13.63375,2.67625 L14.47375,1 C16.108125,1.81875 17.48875,3.070625 18.465,4.619375 C19.469375,6.2125 20,8.05375 20,9.945625 C20,12.616875 18.96,15.128125 17.07125,17.016875 C15.1825,18.905625 12.67125,19.945625 10,19.945625 Z"/>
</svg>
