<svg xmlns="http://www.w3.org/2000/svg" width="20" height="22" viewBox="0 0 20 22">
  <path fill="#CC33A1" d="M24,13 C27.3137085,13 30,15.6862915 30,19 L30,19 L30,22 L31,22 C32.6568542,22 34,23.3431458 34,25 L34,32 C34,33.6568542 32.6568542,35 31,35 L17,35 C15.3431458,35 14,33.6568542 14,32 L14,25 C14,23.3431458 15.3431458,22 17,22 L18,22 L18,19 C18,15.7616031 20.5655749,13.1224282 23.7750617,13.0041385 Z M31,24 L17,24 C16.4477153,24 16,24.4477153 16,25 L16,32 C16,32.5522847 16.4477153,33 17,33 L31,33 C31.5522847,33 32,32.5522847 32,32 L32,25 C32,24.4477153 31.5522847,24 31,24 Z M24,15 C21.790861,15 20,16.790861 20,19 L20,19 L20,22 L28,22 L28,19 C28,16.8578046 26.3160315,15.1089211 24.1996403,15.0048953 Z" transform="translate(-14 -13)"/>
</svg>
