<svg xmlns="http://www.w3.org/2000/svg" viewBox="0 0 2048 1366"><g fill="none" fill-rule="evenodd"><path fill="#00B4CD" d="M1631.304 319.92c-213.536 224.975-640.609 299.872-831.955 490.45-191.346 190.577-129.305 586.46 31.02 804.5 160.326 218.04 445.457 222.936 692.986 180.131 247.53-42.805 366.724-394.89 562.87-545.16 196.148-150.27 349.3-98.709 453.349-233.373 104.049-134.664 155.19-330.913 0-609.376-155.19-278.464-694.735-312.146-908.27-87.172z" transform="rotate(-169 962.884 402.542)" /><path stroke="#92F1FB" stroke-linecap="round" stroke-linejoin="round" stroke-width="4" d="M522.304-75.908l28.75-13.426M195.172 82.298l-14.574-28.186M150.74-63.438l-21.071-23.72m131.963-8.704l-3.298-31.564m108.663-56.304l-26.852-16.895M305.643-.238l-31.648 2.223m-38.34 189.381l28.95-12.988m742.116-514.62l28.75-13.425M679.59-178.035l-14.574-28.187m-29.858-117.55l-21.071-23.72m131.963-8.703l-3.298-31.564m108.663-56.304l-26.852-16.896M790.06-260.572l-31.648 2.224m-38.34 189.38l28.95-12.987M485.896 13.072L458.308-2.595m-30.02-74.502l-8.986-30.435M383.544 65.794L397.44 37.26m165.495 169.336l-21.996-22.865m122.366-29.005l22.571 22.296M573.62 54.369l-30.193 9.754M730.931 47l-14.573-28.186m125.044-54.35l-31.648 2.223m-38.34 189.381l28.951-12.988m-590.711 21.893l13.896-28.534m165.494 169.336L367.05 282.91m32.679-129.363l-30.192 9.755M660.995 51.935L642.38 77.577M597.524 255.25l28.95-12.988M781.304-212.784l28.75 13.426M454.173-370.99l-14.573 28.186m-29.86 117.55l-21.07 23.72m131.963 8.704l-3.298 31.564m108.663 56.304l-26.852 16.895m-34.502-200.387l-31.648-2.223m-38.34-189.381l28.95 12.988m742.116 514.62l28.75 13.425M938.59-110.657L924.016-82.47m-29.86 117.549l-21.07 23.72m131.963 8.704l-3.297 31.564m108.662 56.304l-26.852 16.895M1049.06-28.12l-31.648-2.223m-38.34-189.381l28.95 12.988m-263.127-95.027l-27.587 15.667m-30.02 74.502l-8.986 30.435m-35.757-173.326l13.896 28.534m165.494-169.336l-21.996 22.865m122.366 29.005l22.572-22.296M832.619-343.061l-30.193-9.754m187.505 17.122l-14.573 28.186m125.044 54.35l-31.648-2.223m-38.339-189.381l28.95 12.988m-590.711-21.893l13.896 28.534m165.494-169.336l-21.995 22.865m32.68 129.362l-30.193-9.754m291.46 111.368l-18.615-25.642m-44.857-177.672l28.95 12.988"/><path stroke="#000" stroke-width="3" d="M-40.612 174.132c404.91-75.86 840.798 9.14 893.49 185.207 52.692 176.066-94.186 182.467-182.003 581.3-87.818 398.834 87.817 488.589-106.565 729.268-194.382 240.679-637.124 474.708-938.112 427.215-300.989-47.492-374.03-357.766-652.213-427.215-278.182-69.45-278.182-334.576-185.74-493.28 92.443-158.703 298.675-244.862 536.964-531.075 238.29-286.213 229.27-395.559 634.18-471.42z"/></g></svg>
