<svg xmlns="http://www.w3.org/2000/svg" width="2048" height="1366" viewBox="0 0 2048 1366">
  <defs>
    <filter id="loginbg-a" width="100%" height="100%" x="0%" y="0%" filterUnits="objectBoundingBox">
      <feGaussianBlur in="SourceGraphic"/>
    </filter>
  </defs>
  <g fill="none" fill-rule="evenodd">
    <path fill="#00B4CD" d="M364.303625,-985.178157 C150.767831,-760.203905 -276.304506,-685.30629 -467.650892,-494.72866 C-658.997279,-304.15103 -596.956474,91.7316984 -436.63049,309.771298 C-276.304506,527.810897 8.82598876,532.707589 256.355248,489.902806 C503.884506,447.098023 623.078951,95.0124765 819.225808,-55.2571641 C1015.37266,-205.526805 1168.5253,-153.966159 1272.57402,-288.630339 C1376.62274,-423.294519 1427.76347,-619.543587 1272.57402,-898.006858 C1117.38456,-1176.47013 577.83942,-1210.15241 364.303625,-985.178157 Z" filter="url(#loginbg-a)" transform="rotate(-169 392.217 -311.007)" style="mix-blend-mode:hard-light"/>
    <path stroke="#92F1FB" stroke-linecap="round" stroke-linejoin="round" stroke-width="4" d="M530.894721,-130.147779 L554.089169,-108.494882 M268.661743,-381.700324 L246.091673,-359.396791 M181.36941,-256.827506 L154,-240.778847 M276.814698,-191.722713 L263.924756,-162.722575 M349.869732,-75.5955481 L319.111174,-67.8250057 M348.220763,-269.066076 L318.808689,-280.960259 M340.867783,-472.920049 L364.387858,-451.621621 M911.155283,267.13708 L934.349732,288.789977 M648.922305,15.5845354 L626.352236,37.8880679 M561.629972,140.457353 L534.260562,156.506012 M657.07526,205.562146 L644.185319,234.562284 M730.130294,321.689311 L699.371737,329.459853 M728.481326,128.218783 L699.069252,116.3246 M721.128345,-75.6351896 L744.648421,-54.3367624 M523.763716,-226.02363 L492.686175,-219.64874 M441.112012,-158.069483 L423.161491,-131.900807 M442.714753,-307.793413 L447.113237,-276.361876 M656.83542,-386.269636 L628.850731,-371.320685 M736.264351,-305.921784 L764.621011,-320.15187 M619.955432,-238.191248 L594.254963,-256.797917 M767.291965,-182.571824 L744.721896,-160.268291 M846.850986,-69.9375764 L817.438912,-81.8317588 M839.498005,-273.791549 L863.018081,-252.493121 M307.983207,-455.854053 L312.381691,-424.422516 M522.103874,-534.330276 L494.119185,-519.381324 M485.223886,-386.251888 L459.523417,-404.858557 M702.303122,-208.87539 L692.523684,-239.015225 M704.766459,-421.852188 L728.286535,-400.553761" transform="scale(1 -1) rotate(-18 1177.093 0)"/>
    <path stroke="#92F1FB" stroke-linecap="round" stroke-linejoin="round" stroke-width="4" d="M789.894721,-218.454859 L813.089169,-196.801962 M527.661743,-470.007404 L505.091673,-447.703871 M440.36941,-345.134586 L413,-329.085927 M535.814698,-280.029793 L522.924756,-251.029655 M608.869732,-163.902628 L578.111174,-156.132086 M607.220763,-357.373156 L577.808689,-369.267339 M599.867783,-561.227129 L623.387858,-539.928701 M1170.15528,178.83 L1193.34973,200.482897 M907.922305,-72.7225447 L885.352236,-50.4190121 M820.629972,52.1502728 L793.260562,68.1989318 M916.07526,117.255066 L903.185319,146.255204 M989.130294,233.382231 L958.371737,241.152773 M987.481326,39.9117026 L958.069252,28.0175202 M980.128345,-163.94227 L1003.64842,-142.643842 M782.763716,-314.33071 L751.686175,-307.95582 M700.112012,-246.376563 L682.161491,-220.207887 M701.714753,-396.100493 L706.113237,-364.668956 M915.83542,-474.576716 L887.850731,-459.627765 M995.264351,-394.228864 L1023.62101,-408.45895 M878.955432,-326.498328 L853.254963,-345.104997 M1026.29197,-270.878904 L1003.7219,-248.575371 M1105.85099,-158.244656 L1076.43891,-170.138839 M1098.49801,-362.098629 L1122.01808,-340.800201 M566.983207,-544.161133 L571.381691,-512.729596 M781.103874,-622.637356 L753.119185,-607.688404 M744.223886,-474.558968 L718.523417,-493.165637 M961.303122,-297.18247 L951.523684,-327.322305 M963.766459,-510.159268 L987.286535,-488.860841" transform="rotate(-18 803.5 -188.5)"/>
    <path stroke="#000" stroke-width="3" d="M-40.6117403,174.131856 C364.297623,98.2709881 800.186059,183.272486 852.878089,359.338421 C905.570119,535.404356 758.691937,541.805636 670.874634,940.638931 C583.057332,1339.47223 758.691937,1429.22734 564.310042,1669.9064 C369.928147,1910.58547 -72.8139172,2144.6146 -373.802429,2097.12202 C-674.790941,2049.62943 -747.832889,1739.35584 -1026.01475,1669.9064 C-1304.19661,1600.45697 -1304.19661,1335.33035 -1211.75435,1176.62677 C-1119.31209,1017.9232 -913.07996,931.764299 -674.790941,645.55136 C-436.501923,359.338421 -445.521103,249.992724 -40.6117403,174.131856 Z"/>
    <path fill="#097F88" d="M1742.53828,378.575886 C2099.45796,252.505847 2506.66421,280.316588 2578.7474,446.345415 C2650.83059,612.374242 2518.44887,637.386425 2493.76035,1039.90475 C2469.07182,1442.42308 2640.80214,1508.08828 2497.6208,1769.02243 C2354.43946,2029.95658 1985.00117,2316.03968 1705.36274,2307.82724 C1425.72431,2299.6148 1316.67352,2004.50216 1054.70053,1971.838 C792.727529,1939.17384 756.173197,1679.04245 818.165889,1511.53975 C880.158581,1344.03705 1055.39624,1233.2005 1232.13704,921.990862 C1408.87785,610.781224 1385.6186,504.645926 1742.53828,378.575886 Z" transform="rotate(11 1696 1304)" style="mix-blend-mode:exclusion"/>
  </g>
</svg>
