<svg xmlns="http://www.w3.org/2000/svg" width="705" height="348" viewBox="0 0 705 348">
  <g fill="none" fill-rule="evenodd">
    <path fill="#33CCAB" d="M72,0 C89.673112,-3.24649801e-15 104,14.326888 104,32 L104,348 C68.653776,348 40,319.346224 40,284 L40,32 C40,14.326888 54.326888,3.24649801e-15 72,0 Z M132,120 C143.045695,120 152,128.954305 152,140 L152,248 C152,270.09139 134.09139,288 112,288 L112,140 C112,128.954305 120.954305,120 132,120 Z M16,60 C24.836556,60 32,67.163444 32,76 L32,180 C14.326888,180 2.164332e-15,165.673112 0,148 L0,76 C-1.082166e-15,67.163444 7.163444,60 16,60 Z"/>
    <path fill="#FFF" d="M62,36.4140684 L65.2826924,30.7282784 C65.6847751,30.0318506 66.5752939,29.7932368 67.2717216,30.1953196 C67.9681494,30.5974023 68.2067632,31.4879211 67.8046804,32.1843488 L64.5285219,37.8588219 C63.988453,38.7942485 63.0077838,39.3166977 62,39.3153761 C60.9922162,39.3166977 60.011547,38.7942485 59.4714781,37.8588219 L56.1953196,32.1843488 C55.7932368,31.4879211 56.0318506,30.5974023 56.7282784,30.1953196 C57.4247061,29.7932368 58.3152249,30.0318506 58.7173076,30.7282784 L62,36.4140684 Z M82,69.4140684 L85.2826924,63.7282784 C85.6847751,63.0318506 86.5752939,62.7932368 87.2717216,63.1953196 C87.9681494,63.5974023 88.2067632,64.4879211 87.8046804,65.1843488 L84.5285219,70.8588219 C83.988453,71.7942485 83.0077838,72.3166977 82,72.3153761 C80.9922162,72.3166977 80.011547,71.7942485 79.4714781,70.8588219 L76.1953196,65.1843488 C75.7932368,64.4879211 76.0318506,63.5974023 76.7282784,63.1953196 C77.4247061,62.7932368 78.3152249,63.0318506 78.7173076,63.7282784 L82,69.4140684 Z M62,102.414068 L65.2826924,96.7282784 C65.6847751,96.0318506 66.5752939,95.7932368 67.2717216,96.1953196 C67.9681494,96.5974023 68.2067632,97.4879211 67.8046804,98.1843488 L64.5285219,103.858822 C63.988453,104.794249 63.0077838,105.316698 62,105.315376 C60.9922162,105.316698 60.011547,104.794249 59.4714781,103.858822 L56.1953196,98.1843488 C55.7932368,97.4879211 56.0318506,96.5974023 56.7282784,96.1953196 C57.4247061,95.7932368 58.3152249,96.0318506 58.7173076,96.7282784 L62,102.414068 Z M16,102.414068 L19.2826924,96.7282784 C19.6847751,96.0318506 20.5752939,95.7932368 21.2717216,96.1953196 C21.9681494,96.5974023 22.2067632,97.4879211 21.8046804,98.1843488 L18.5285219,103.858822 C17.988453,104.794249 17.0077838,105.316698 16,105.315376 C14.9922162,105.316698 14.011547,104.794249 13.4714781,103.858822 L10.1953196,98.1843488 C9.79323682,97.4879211 10.0318506,96.5974023 10.7282784,96.1953196 C11.4247061,95.7932368 12.3152249,96.0318506 12.7173076,96.7282784 L16,102.414068 Z M16,135.414068 L19.2826924,129.728278 C19.6847751,129.031851 20.5752939,128.793237 21.2717216,129.19532 C21.9681494,129.597402 22.2067632,130.487921 21.8046804,131.184349 L18.5285219,136.858822 C17.988453,137.794249 17.0077838,138.316698 16,138.315376 C14.9922162,138.316698 14.011547,137.794249 13.4714781,136.858822 L10.1953196,131.184349 C9.79323682,130.487921 10.0318506,129.597402 10.7282784,129.19532 C11.4247061,128.793237 12.3152249,129.031851 12.7173076,129.728278 L16,135.414068 Z M82,135.414068 L85.2826924,129.728278 C85.6847751,129.031851 86.5752939,128.793237 87.2717216,129.19532 C87.9681494,129.597402 88.2067632,130.487921 87.8046804,131.184349 L84.5285219,136.858822 C83.988453,137.794249 83.0077838,138.316698 82,138.315376 C80.9922162,138.316698 80.011547,137.794249 79.4714781,136.858822 L76.1953196,131.184349 C75.7932368,130.487921 76.0318506,129.597402 76.7282784,129.19532 C77.4247061,128.793237 78.3152249,129.031851 78.7173076,129.728278 L82,135.414068 Z M62,168.414068 L65.2826924,162.728278 C65.6847751,162.031851 66.5752939,161.793237 67.2717216,162.19532 C67.9681494,162.597402 68.2067632,163.487921 67.8046804,164.184349 L64.5285219,169.858822 C63.988453,170.794249 63.0077838,171.316698 62,171.315376 C60.9922162,171.316698 60.011547,170.794249 59.4714781,169.858822 L56.1953196,164.184349 C55.7932368,163.487921 56.0318506,162.597402 56.7282784,162.19532 C57.4247061,161.793237 58.3152249,162.031851 58.7173076,162.728278 L62,168.414068 Z M132,168.414068 L135.282692,162.728278 C135.684775,162.031851 136.575294,161.793237 137.271722,162.19532 C137.968149,162.597402 138.206763,163.487921 137.80468,164.184349 L134.528522,169.858822 C133.988453,170.794249 133.007784,171.316698 132,171.315376 C130.992216,171.316698 130.011547,170.794249 129.471478,169.858822 L126.19532,164.184349 C125.793237,163.487921 126.031851,162.597402 126.728278,162.19532 C127.424706,161.793237 128.315225,162.031851 128.717308,162.728278 L132,168.414068 Z M132,201.414068 L135.282692,195.728278 C135.684775,195.031851 136.575294,194.793237 137.271722,195.19532 C137.968149,195.597402 138.206763,196.487921 137.80468,197.184349 L134.528522,202.858822 C133.988453,203.794249 133.007784,204.316698 132,204.315376 C130.992216,204.316698 130.011547,203.794249 129.471478,202.858822 L126.19532,197.184349 C125.793237,196.487921 126.031851,195.597402 126.728278,195.19532 C127.424706,194.793237 128.315225,195.031851 128.717308,195.728278 L132,201.414068 Z M132,234.414068 L135.282692,228.728278 C135.684775,228.031851 136.575294,227.793237 137.271722,228.19532 C137.968149,228.597402 138.206763,229.487921 137.80468,230.184349 L134.528522,235.858822 C133.988453,236.794249 133.007784,237.316698 132,237.315376 C130.992216,237.316698 130.011547,236.794249 129.471478,235.858822 L126.19532,230.184349 C125.793237,229.487921 126.031851,228.597402 126.728278,228.19532 C127.424706,227.793237 128.315225,228.031851 128.717308,228.728278 L132,234.414068 Z M82,201.414068 L85.2826924,195.728278 C85.6847751,195.031851 86.5752939,194.793237 87.2717216,195.19532 C87.9681494,195.597402 88.2067632,196.487921 87.8046804,197.184349 L84.5285219,202.858822 C83.988453,203.794249 83.0077838,204.316698 82,204.315376 C80.9922162,204.316698 80.011547,203.794249 79.4714781,202.858822 L76.1953196,197.184349 C75.7932368,196.487921 76.0318506,195.597402 76.7282784,195.19532 C77.4247061,194.793237 78.3152249,195.031851 78.7173076,195.728278 L82,201.414068 Z M62,234.414068 L65.2826924,228.728278 C65.6847751,228.031851 66.5752939,227.793237 67.2717216,228.19532 C67.9681494,228.597402 68.2067632,229.487921 67.8046804,230.184349 L64.5285219,235.858822 C63.988453,236.794249 63.0077838,237.316698 62,237.315376 C60.9922162,237.316698 60.011547,236.794249 59.4714781,235.858822 L56.1953196,230.184349 C55.7932368,229.487921 56.0318506,228.597402 56.7282784,228.19532 C57.4247061,227.793237 58.3152249,228.031851 58.7173076,228.728278 L62,234.414068 Z M82,267.414068 L85.2826924,261.728278 C85.6847751,261.031851 86.5752939,260.793237 87.2717216,261.19532 C87.9681494,261.597402 88.2067632,262.487921 87.8046804,263.184349 L84.5285219,268.858822 C83.988453,269.794249 83.0077838,270.316698 82,270.315376 C80.9922162,270.316698 80.011547,269.794249 79.4714781,268.858822 L76.1953196,263.184349 C75.7932368,262.487921 76.0318506,261.597402 76.7282784,261.19532 C77.4247061,260.793237 78.3152249,261.031851 78.7173076,261.728278 L82,267.414068 Z M62,300.414068 L65.2826924,294.728278 C65.6847751,294.031851 66.5752939,293.793237 67.2717216,294.19532 C67.9681494,294.597402 68.2067632,295.487921 67.8046804,296.184349 L64.5285219,301.858822 C63.988453,302.794249 63.0077838,303.316698 62,303.315376 C60.9922162,303.316698 60.011547,302.794249 59.4714781,301.858822 L56.1953196,296.184349 C55.7932368,295.487921 56.0318506,294.597402 56.7282784,294.19532 C57.4247061,293.793237 58.3152249,294.031851 58.7173076,294.728278 L62,300.414068 Z"/>
    <path fill="#FFF" fill-rule="nonzero" d="M191.79,166.3 C191.79,140.46 212.5,120.32 236.82,120.32 C250.5,120.32 260.57,125.45 268.74,135.52 C270.45,137.61 269.88,140.08 267.98,141.79 L261.14,148.06 C258.67,150.34 256.96,148.63 255.44,147.11 C251.45,142.74 244.42,138.37 237.39,138.37 C222.38,138.37 210.79,150.53 210.79,166.11 C210.79,181.88 222.19,194.04 236.82,194.04 C248.22,194.04 252.78,187.58 257.53,183.21 C259.43,181.31 261.52,181.31 263.42,182.83 L269.31,187.58 C271.4,189.48 272.35,191.57 270.83,193.85 C263.61,204.68 251.83,212.09 236.63,212.09 C212.12,212.09 191.79,192.71 191.79,166.3 Z M284.13,182.83 C284.13,166.68 296.67,154.52 319.28,154.52 C328.4,154.52 336.95,157.18 336.95,157.18 C337.33,143.31 333.91,137.04 322.89,137.04 C312.82,137.04 302.94,139.89 298.38,141.22 C295.72,141.79 294.01,140.08 293.44,137.61 L291.73,130.39 C291.16,127.35 292.49,126.02 294.58,125.26 C296.1,124.69 308.64,120.32 324.79,120.32 C352.91,120.32 355.57,137.23 355.57,159.08 L355.57,205.82 C355.57,208.1 353.48,210 351.39,210 L345.12,210 C343.41,210 342.46,209.24 341.51,206.96 L339.42,201.07 C334.67,205.63 325.93,212.09 312.44,212.09 C295.91,212.09 284.13,201.07 284.13,182.83 Z M302.75,182.64 C302.75,190.43 307.31,196.51 316.43,196.51 C325.17,196.51 334.1,190.24 336.76,185.87 L336.76,171.24 C335.62,170.48 328.78,168.2 320.8,168.2 C310.54,168.2 302.75,173.52 302.75,182.64 Z M375.9,166.3 C375.9,140.46 396.61,120.32 420.93,120.32 C434.61,120.32 444.68,125.45 452.85,135.52 C454.56,137.61 453.99,140.08 452.09,141.79 L445.25,148.06 C442.78,150.34 441.07,148.63 439.55,147.11 C435.56,142.74 428.53,138.37 421.5,138.37 C406.49,138.37 394.9,150.53 394.9,166.11 C394.9,181.88 406.3,194.04 420.93,194.04 C432.33,194.04 436.89,187.58 441.64,183.21 C443.54,181.31 445.63,181.31 447.53,182.83 L453.42,187.58 C455.51,189.48 456.46,191.57 454.94,193.85 C447.72,204.68 435.94,212.09 420.74,212.09 C396.23,212.09 375.9,192.71 375.9,166.3 Z M480.78,185.87 L480.78,138.37 L470.71,138.37 C468.24,138.37 466.53,136.28 466.53,134.19 L466.53,126.4 C466.53,123.93 468.24,122.22 470.71,122.22 L480.78,122.22 L480.78,97.71 C480.78,95.43 482.68,93.53 484.96,93.53 L495.79,93.53 C498.07,93.53 499.78,95.43 499.78,97.71 L499.78,122.22 L522.96,122.22 C525.24,122.22 527.14,123.93 527.14,126.4 L527.14,134.19 C527.14,136.28 525.24,138.37 522.96,138.37 L499.78,138.37 L499.78,185.11 C499.78,192.52 502.63,194.04 506.81,194.04 C512.32,194.04 517.64,191.76 520.87,189.86 C523.53,188.34 525.24,189.86 526,191.76 L529.42,200.69 C530.37,202.97 529.42,204.49 527.33,205.82 C523.72,208.1 513.46,212.09 503.01,212.09 C485.53,212.09 480.78,201.45 480.78,185.87 Z M546.14,171.81 L546.14,126.4 C546.14,124.31 548.23,122.22 550.32,122.22 L560.96,122.22 C563.24,122.22 565.14,124.31 565.14,126.4 L565.14,173.14 C565.14,187.58 571.03,194.04 582.24,194.04 C594.97,194.04 602,183.59 602.76,179.6 L602.76,126.4 C602.76,122.79 604.47,122.22 607.7,122.22 L617.39,122.22 C619.67,122.22 621.76,124.31 621.76,126.4 L621.76,205.82 C621.76,208.1 619.67,210 617.39,210 L612.83,210 C610.55,210 609.6,208.48 608.84,206.39 L606.56,200.12 C604.66,202.02 596.68,212.09 578.82,212.09 C552.6,212.09 546.14,194.8 546.14,171.81 Z M673.63,212.09 C659.76,212.09 649.69,206.58 644.75,203.16 C643.42,202.21 642.28,200.5 643.23,198.6 L647.22,190.43 C648.17,188.53 650.64,187.96 652.92,189.29 C658.05,192.14 664.32,195.75 674.77,195.75 C682.18,195.75 686.36,192.14 686.36,187.2 C686.36,181.31 679.71,177.51 667.55,172 C654.06,165.92 643.8,158.7 643.8,144.26 C643.8,133.24 651.59,120.32 672.87,120.32 C685.03,120.32 694.15,123.93 698.52,126.78 C700.61,128.3 701.56,130.96 700.42,133.24 L697.38,139.32 C696.05,141.98 693.39,141.79 691.68,141.03 C685.6,138.37 679.71,136.66 672.87,136.66 C665.27,136.66 661.66,140.46 661.66,144.45 C661.66,150.15 667.93,153.57 676.67,157.37 C692.82,164.21 704.98,170.1 704.98,186.44 C704.98,200.12 693.2,212.09 673.63,212.09 Z"/>
    <path fill="#FFBCA3" d="M131.97884,111.071736 C131.992895,111.379396 132,111.688868 132,112 C120.954305,112 112,103.045695 112,92 C118.038946,92 123.45276,94.676505 127.119909,98.9079799 C128.086311,96.5091972 129.59372,94.2065372 131.642136,92 C133.879042,94.2369064 135.499377,96.7340177 136.482556,99.3811925 C140.149798,94.8770337 145.738915,92 152,92 C152,103.045695 143.045695,112 132,112 C132,111.688604 132.007117,111.378871 132.021196,111.070953 C132.007067,111.071234 131.992949,111.071495 131.97884,111.071736 Z"/>
  </g>
</svg>
