<svg xmlns="http://www.w3.org/2000/svg" width="117" height="58" viewBox="0 0 117 58">
  <g fill="none" fill-rule="evenodd">
    <path fill="#33CCAB" d="M11.9492752 0L11.9492752 0C14.8823429-5.38795805e-16 17.2600641 2.37772121 17.2600641 5.31078896L17.2600641 58 17.2600641 58C11.3939286 58 6.6384862 53.2445576 6.6384862 47.3784221L6.6384862 5.31078896C6.6384862 2.37772121 9.01620741 5.38795805e-16 11.9492752 0zM21.9070045 20L21.9070045 20C23.7401718 20 25.2262476 21.4860758 25.2262476 23.3192431L25.2262476 41.3615138C25.2262476 45.0278485 22.254096 48 18.5877614 48L18.5877614 48 18.5877614 23.3192431C18.5877614 21.4860758 20.0738371 20 21.9070045 20z"/>
    <path fill="#FFBCA3" d="M18.5877614,12 L18.5877614,12 L18.5877614,12.0281805 C18.5877614,15.6945152 21.5599129,18.6666667 25.2262476,18.6666667 L25.2262476,18.6666667 L25.2262476,18.6384862 C25.2262476,14.9721515 22.254096,12 18.5877614,12 Z" transform="matrix(-1 0 0 1 43.814 0)"/>
    <path fill="#33CCAB" d="M2.65539448,10 L2.65539448,10 C4.12192835,10 5.31078896,11.1888606 5.31078896,12.6553945 L5.31078896,30 L5.31078896,30 C2.37772121,30 3.43809778e-15,27.6222788 1.77635684e-15,24.689211 L3.55271368e-15,12.6553945 C3.37311508e-15,11.1888606 1.1888606,10 2.65539448,10 Z"/>
    <path fill="#07454C" d="M31.8298817 27.7166667C31.8298817 23.41 35.2669579 20.0533333 39.3031575 20.0533333 41.5735198 20.0533333 43.2447587 20.9083333 44.6006695 22.5866667 44.8844648 22.935 44.7898664 23.3466667 44.4745383 23.6316667L43.3393571 24.6766667C42.9294306 25.0566667 42.6456353 24.7716667 42.3933729 24.5183333 41.7311839 23.79 40.5644699 23.0616667 39.397756 23.0616667 36.906664 23.0616667 34.9831626 25.0883333 34.9831626 27.685 34.9831626 30.3133333 36.8751312 32.34 39.3031575 32.34 41.1951261 32.34 41.9519135 31.2633333 42.7402338 30.535 43.0555619 30.2183333 43.4024228 30.2183333 43.7177509 30.4716667L44.695268 31.2633333C45.0421289 31.58 45.1997929 31.9283333 44.9475304 32.3083333 43.7492837 34.1133333 41.7942495 35.3483333 39.2716247 35.3483333 35.2038923 35.3483333 31.8298817 32.1183333 31.8298817 27.7166667zM47.1548271 30.4716667C47.1548271 27.78 49.2359925 25.7533333 52.9883968 25.7533333 54.5019717 25.7533333 55.9209481 26.1966667 55.9209481 26.1966667 55.9840137 23.885 55.4164232 22.84 53.5875202 22.84 51.9162813 22.84 50.2765752 23.315 49.5197878 23.5366667 49.0783285 23.6316667 48.7945332 23.3466667 48.6999347 22.935L48.4161395 21.7316667C48.321541 21.225 48.5422707 21.0033333 48.8891316 20.8766667 49.1413941 20.7816667 51.2225595 20.0533333 53.9028483 20.0533333 58.5697041 20.0533333 59.0111634 22.8716667 59.0111634 26.5133333L59.0111634 34.3033333C59.0111634 34.6833333 58.6643025 35 58.3174416 35L57.2768589 35C56.9930636 35 56.8353996 34.8733333 56.6777355 34.4933333L56.3308746 33.5116667C55.5425544 34.2716667 54.0920452 35.3483333 51.8532157 35.3483333 49.1098613 35.3483333 47.1548271 33.5116667 47.1548271 30.4716667zM50.2450424 30.44C50.2450424 31.7383333 51.0018298 32.7516667 52.5154047 32.7516667 53.9659139 32.7516667 55.447956 31.7066667 55.8894153 30.9783333L55.8894153 28.54C55.7002184 28.4133333 54.5650373 28.0333333 53.2406593 28.0333333 51.5378876 28.0333333 50.2450424 28.92 50.2450424 30.44zM62.385174 27.7166667C62.385174 23.41 65.8222503 20.0533333 69.8584499 20.0533333 72.1288122 20.0533333 73.8000511 20.9083333 75.1559619 22.5866667 75.4397572 22.935 75.3451587 23.3466667 75.0298306 23.6316667L73.8946495 24.6766667C73.484723 25.0566667 73.2009277 24.7716667 72.9486652 24.5183333 72.2864762 23.79 71.1197623 23.0616667 69.9530483 23.0616667 67.4619564 23.0616667 65.538455 25.0883333 65.538455 27.685 65.538455 30.3133333 67.4304236 32.34 69.8584499 32.34 71.7504185 32.34 72.5072059 31.2633333 73.2955261 30.535 73.6108542 30.2183333 73.9577151 30.2183333 74.2730432 30.4716667L75.2505603 31.2633333C75.5974212 31.58 75.7550853 31.9283333 75.5028228 32.3083333 74.304576 34.1133333 72.3495418 35.3483333 69.8269171 35.3483333 65.7591847 35.3483333 62.385174 32.1183333 62.385174 27.7166667zM79.7912849 30.9783333L79.7912849 23.0616667 78.120046 23.0616667C77.7101194 23.0616667 77.4263242 22.7133333 77.4263242 22.365L77.4263242 21.0666667C77.4263242 20.655 77.7101194 20.37 78.120046 20.37L79.7912849 20.37 79.7912849 16.285C79.7912849 15.905 80.106613 15.5883333 80.4850067 15.5883333L82.2823768 15.5883333C82.6607705 15.5883333 82.9445658 15.905 82.9445658 16.285L82.9445658 20.37 86.7915686 20.37C87.1699623 20.37 87.4852904 20.655 87.4852904 21.0666667L87.4852904 22.365C87.4852904 22.7133333 87.1699623 23.0616667 86.7915686 23.0616667L82.9445658 23.0616667 82.9445658 30.8516667C82.9445658 32.0866667 83.4175579 32.34 84.1112798 32.34 85.0257312 32.34 85.9086499 31.96 86.4447077 31.6433333 86.886167 31.39 87.1699623 31.6433333 87.2960935 31.96L87.8636841 33.4483333C88.0213481 33.8283333 87.8636841 34.0816667 87.5168232 34.3033333 86.9176998 34.6833333 85.2149281 35.3483333 83.4806236 35.3483333 80.5796051 35.3483333 79.7912849 33.575 79.7912849 30.9783333zM90.6385713 28.635L90.6385713 21.0666667C90.6385713 20.7183333 90.9854322 20.37 91.3322931 20.37L93.0981304 20.37C93.4765242 20.37 93.7918523 20.7183333 93.7918523 21.0666667L93.7918523 28.8566667C93.7918523 31.2633333 94.7693693 32.34 96.6298051 32.34 98.7425033 32.34 99.9092173 30.5983333 100.035349 29.9333333L100.035349 21.0666667C100.035349 20.465 100.319144 20.37 100.855202 20.37L102.463375 20.37C102.841769 20.37 103.188629 20.7183333 103.188629 21.0666667L103.188629 34.3033333C103.188629 34.6833333 102.841769 35 102.463375 35L101.706587 35C101.328194 35 101.17053 34.7466667 101.044398 34.3983333L100.666005 33.3533333C100.350677 33.67 99.0262986 35.3483333 96.0622145 35.3483333 91.7106868 35.3483333 90.6385713 32.4666667 90.6385713 28.635zM111.797086 35.3483333C109.495191 35.3483333 107.823952 34.43 107.004099 33.86 106.78337 33.7016667 106.594173 33.4166667 106.751837 33.1L107.414026 31.7383333C107.57169 31.4216667 107.981616 31.3266667 108.36001 31.5483333 109.211396 32.0233333 110.251979 32.625 111.986283 32.625 113.216063 32.625 113.909785 32.0233333 113.909785 31.2 113.909785 30.2183333 112.806136 29.585 110.788037 28.6666667 108.549207 27.6533333 106.846435 26.45 106.846435 24.0433333 106.846435 22.2066667 108.139281 20.0533333 111.670955 20.0533333 113.689055 20.0533333 115.20263 20.655 115.927884 21.13 116.274745 21.3833333 116.432409 21.8266667 116.243213 22.2066667L115.738688 23.22C115.517958 23.6633333 115.076499 23.6316667 114.792703 23.505 113.783653 23.0616667 112.806136 22.7766667 111.670955 22.7766667 110.409643 22.7766667 109.810519 23.41 109.810519 24.075 109.810519 25.025 110.851102 25.595 112.301611 26.2283333 114.9819 27.3683333 117 28.35 117 31.0733333 117 33.3533333 115.044966 35.3483333 111.797086 35.3483333z"/>
  </g>
</svg>
