<svg xmlns="http://www.w3.org/2000/svg" width="152" height="348" viewBox="0 0 152 348">
  <g fill="none" fill-rule="evenodd">
    <path fill="#33CCAB" d="M72,0 C89.673112,-3.24649801e-15 104,14.326888 104,32 L104,348 C68.653776,348 40,319.346224 40,284 L40,32 C40,14.326888 54.326888,3.24649801e-15 72,0 Z M132,120 C143.045695,120 152,128.954305 152,140 L152,248 C152,270.09139 134.09139,288 112,288 L112,140 C112,128.954305 120.954305,120 132,120 Z M16,60 C24.836556,60 32,67.163444 32,76 L32,180 C14.326888,180 2.164332e-15,165.673112 0,148 L0,76 C-1.082166e-15,67.163444 7.163444,60 16,60 Z"/>
    <path fill="#FFF" d="M62,36.4140684 L65.2826924,30.7282784 C65.6847751,30.0318506 66.5752939,29.7932368 67.2717216,30.1953196 C67.9681494,30.5974023 68.2067632,31.4879211 67.8046804,32.1843488 L64.5285219,37.8588219 C63.988453,38.7942485 63.0077838,39.3166977 62,39.3153761 C60.9922162,39.3166977 60.011547,38.7942485 59.4714781,37.8588219 L56.1953196,32.1843488 C55.7932368,31.4879211 56.0318506,30.5974023 56.7282784,30.1953196 C57.4247061,29.7932368 58.3152249,30.0318506 58.7173076,30.7282784 L62,36.4140684 Z M82,69.4140684 L85.2826924,63.7282784 C85.6847751,63.0318506 86.5752939,62.7932368 87.2717216,63.1953196 C87.9681494,63.5974023 88.2067632,64.4879211 87.8046804,65.1843488 L84.5285219,70.8588219 C83.988453,71.7942485 83.0077838,72.3166977 82,72.3153761 C80.9922162,72.3166977 80.011547,71.7942485 79.4714781,70.8588219 L76.1953196,65.1843488 C75.7932368,64.4879211 76.0318506,63.5974023 76.7282784,63.1953196 C77.4247061,62.7932368 78.3152249,63.0318506 78.7173076,63.7282784 L82,69.4140684 Z M62,102.414068 L65.2826924,96.7282784 C65.6847751,96.0318506 66.5752939,95.7932368 67.2717216,96.1953196 C67.9681494,96.5974023 68.2067632,97.4879211 67.8046804,98.1843488 L64.5285219,103.858822 C63.988453,104.794249 63.0077838,105.316698 62,105.315376 C60.9922162,105.316698 60.011547,104.794249 59.4714781,103.858822 L56.1953196,98.1843488 C55.7932368,97.4879211 56.0318506,96.5974023 56.7282784,96.1953196 C57.4247061,95.7932368 58.3152249,96.0318506 58.7173076,96.7282784 L62,102.414068 Z M16,102.414068 L19.2826924,96.7282784 C19.6847751,96.0318506 20.5752939,95.7932368 21.2717216,96.1953196 C21.9681494,96.5974023 22.2067632,97.4879211 21.8046804,98.1843488 L18.5285219,103.858822 C17.988453,104.794249 17.0077838,105.316698 16,105.315376 C14.9922162,105.316698 14.011547,104.794249 13.4714781,103.858822 L10.1953196,98.1843488 C9.79323682,97.4879211 10.0318506,96.5974023 10.7282784,96.1953196 C11.4247061,95.7932368 12.3152249,96.0318506 12.7173076,96.7282784 L16,102.414068 Z M16,135.414068 L19.2826924,129.728278 C19.6847751,129.031851 20.5752939,128.793237 21.2717216,129.19532 C21.9681494,129.597402 22.2067632,130.487921 21.8046804,131.184349 L18.5285219,136.858822 C17.988453,137.794249 17.0077838,138.316698 16,138.315376 C14.9922162,138.316698 14.011547,137.794249 13.4714781,136.858822 L10.1953196,131.184349 C9.79323682,130.487921 10.0318506,129.597402 10.7282784,129.19532 C11.4247061,128.793237 12.3152249,129.031851 12.7173076,129.728278 L16,135.414068 Z M82,135.414068 L85.2826924,129.728278 C85.6847751,129.031851 86.5752939,128.793237 87.2717216,129.19532 C87.9681494,129.597402 88.2067632,130.487921 87.8046804,131.184349 L84.5285219,136.858822 C83.988453,137.794249 83.0077838,138.316698 82,138.315376 C80.9922162,138.316698 80.011547,137.794249 79.4714781,136.858822 L76.1953196,131.184349 C75.7932368,130.487921 76.0318506,129.597402 76.7282784,129.19532 C77.4247061,128.793237 78.3152249,129.031851 78.7173076,129.728278 L82,135.414068 Z M62,168.414068 L65.2826924,162.728278 C65.6847751,162.031851 66.5752939,161.793237 67.2717216,162.19532 C67.9681494,162.597402 68.2067632,163.487921 67.8046804,164.184349 L64.5285219,169.858822 C63.988453,170.794249 63.0077838,171.316698 62,171.315376 C60.9922162,171.316698 60.011547,170.794249 59.4714781,169.858822 L56.1953196,164.184349 C55.7932368,163.487921 56.0318506,162.597402 56.7282784,162.19532 C57.4247061,161.793237 58.3152249,162.031851 58.7173076,162.728278 L62,168.414068 Z M132,168.414068 L135.282692,162.728278 C135.684775,162.031851 136.575294,161.793237 137.271722,162.19532 C137.968149,162.597402 138.206763,163.487921 137.80468,164.184349 L134.528522,169.858822 C133.988453,170.794249 133.007784,171.316698 132,171.315376 C130.992216,171.316698 130.011547,170.794249 129.471478,169.858822 L126.19532,164.184349 C125.793237,163.487921 126.031851,162.597402 126.728278,162.19532 C127.424706,161.793237 128.315225,162.031851 128.717308,162.728278 L132,168.414068 Z M132,201.414068 L135.282692,195.728278 C135.684775,195.031851 136.575294,194.793237 137.271722,195.19532 C137.968149,195.597402 138.206763,196.487921 137.80468,197.184349 L134.528522,202.858822 C133.988453,203.794249 133.007784,204.316698 132,204.315376 C130.992216,204.316698 130.011547,203.794249 129.471478,202.858822 L126.19532,197.184349 C125.793237,196.487921 126.031851,195.597402 126.728278,195.19532 C127.424706,194.793237 128.315225,195.031851 128.717308,195.728278 L132,201.414068 Z M132,234.414068 L135.282692,228.728278 C135.684775,228.031851 136.575294,227.793237 137.271722,228.19532 C137.968149,228.597402 138.206763,229.487921 137.80468,230.184349 L134.528522,235.858822 C133.988453,236.794249 133.007784,237.316698 132,237.315376 C130.992216,237.316698 130.011547,236.794249 129.471478,235.858822 L126.19532,230.184349 C125.793237,229.487921 126.031851,228.597402 126.728278,228.19532 C127.424706,227.793237 128.315225,228.031851 128.717308,228.728278 L132,234.414068 Z M82,201.414068 L85.2826924,195.728278 C85.6847751,195.031851 86.5752939,194.793237 87.2717216,195.19532 C87.9681494,195.597402 88.2067632,196.487921 87.8046804,197.184349 L84.5285219,202.858822 C83.988453,203.794249 83.0077838,204.316698 82,204.315376 C80.9922162,204.316698 80.011547,203.794249 79.4714781,202.858822 L76.1953196,197.184349 C75.7932368,196.487921 76.0318506,195.597402 76.7282784,195.19532 C77.4247061,194.793237 78.3152249,195.031851 78.7173076,195.728278 L82,201.414068 Z M62,234.414068 L65.2826924,228.728278 C65.6847751,228.031851 66.5752939,227.793237 67.2717216,228.19532 C67.9681494,228.597402 68.2067632,229.487921 67.8046804,230.184349 L64.5285219,235.858822 C63.988453,236.794249 63.0077838,237.316698 62,237.315376 C60.9922162,237.316698 60.011547,236.794249 59.4714781,235.858822 L56.1953196,230.184349 C55.7932368,229.487921 56.0318506,228.597402 56.7282784,228.19532 C57.4247061,227.793237 58.3152249,228.031851 58.7173076,228.728278 L62,234.414068 Z M82,267.414068 L85.2826924,261.728278 C85.6847751,261.031851 86.5752939,260.793237 87.2717216,261.19532 C87.9681494,261.597402 88.2067632,262.487921 87.8046804,263.184349 L84.5285219,268.858822 C83.988453,269.794249 83.0077838,270.316698 82,270.315376 C80.9922162,270.316698 80.011547,269.794249 79.4714781,268.858822 L76.1953196,263.184349 C75.7932368,262.487921 76.0318506,261.597402 76.7282784,261.19532 C77.4247061,260.793237 78.3152249,261.031851 78.7173076,261.728278 L82,267.414068 Z M62,300.414068 L65.2826924,294.728278 C65.6847751,294.031851 66.5752939,293.793237 67.2717216,294.19532 C67.9681494,294.597402 68.2067632,295.487921 67.8046804,296.184349 L64.5285219,301.858822 C63.988453,302.794249 63.0077838,303.316698 62,303.315376 C60.9922162,303.316698 60.011547,302.794249 59.4714781,301.858822 L56.1953196,296.184349 C55.7932368,295.487921 56.0318506,294.597402 56.7282784,294.19532 C57.4247061,293.793237 58.3152249,294.031851 58.7173076,294.728278 L62,300.414068 Z"/>
    <path fill="#FFBCA3" d="M131.97884,111.071736 C131.992895,111.379396 132,111.688868 132,112 C120.954305,112 112,103.045695 112,92 C118.038946,92 123.45276,94.676505 127.119909,98.9079799 C128.086311,96.5091972 129.59372,94.2065372 131.642136,92 C133.879042,94.2369064 135.499377,96.7340177 136.482556,99.3811925 C140.149798,94.8770337 145.738915,92 152,92 C152,103.045695 143.045695,112 132,112 C132,111.688604 132.007117,111.378871 132.021196,111.070953 C132.007067,111.071234 131.992949,111.071495 131.97884,111.071736 Z"/>
  </g>
</svg>
