<svg xmlns="http://www.w3.org/2000/svg" width="768" height="708" viewBox="0 0 768 708">
  <g fill="none" fill-rule="evenodd" transform="translate(0 .742)">
    <ellipse cx="609.809" cy="611.465" fill="#FFBCA3" fill-rule="nonzero" opacity=".7" rx="144.421" ry="18.742"/>
    <ellipse cx="192.421" cy="686.742" fill="#FFBCA3" fill-rule="nonzero" opacity=".7" rx="144.421" ry="18.742"/>
    <path fill="#2F2E41" fill-rule="nonzero" d="M617.775132 546.20963C617.775132 546.20963 625.535462 572.93963 630.709012 579.83773 635.882562 586.73583 640.193862 597.94517 637.607082 599.66973 635.020302 601.39429 629.846752 622.08846 636.744822 622.95073 643.642892 623.813 659.163552 600.532 660.025822 592.77167 660.888092 585.01134 664.337122 557.41905 664.337122 557.41905 664.337122 557.41905 670.372932 533.2758 660.888122 531.55128 651.403312 529.82676 636.744872 528.9645 636.744872 528.9645L617.775132 546.20963zM581.560252 574.66418C581.560252 574.66418 570.350882 603.98098 567.764112 605.7055 565.177342 607.43002 555.692482 622.95068 574.662182 622.95068 593.631882 622.95068 603.978982 617.77713 603.978982 617.77713L610.014802 610.87905C610.014802 610.87905 610.014802 592.77162 608.290282 590.18484 606.565762 587.59806 608.290282 574.66418 608.290282 574.66418L581.560252 574.66418z"/>
    <path fill="#2F2E41" fill-rule="nonzero" d="M504.819202,306.50165 C504.819202,306.50165 491.023062,399.62565 503.094692,429.80465 C515.166322,459.98365 527.237942,468.6063 527.237942,468.6063 L618.637382,553.96993 C618.637382,553.96993 647.091932,539.31153 644.505152,529.82668 C644.505152,529.82668 638.469342,526.37768 637.607082,523.79087 C636.744822,521.20406 625.535462,520.34187 625.535462,520.34187 C625.535462,520.34187 620.361902,514.30606 620.361902,510.85703 C620.361902,507.408 575.524442,446.18761 560.866042,441.87631 C560.866042,441.87631 553.105702,432.39146 553.967962,430.66694 C554.830222,428.94242 551.381192,422.90661 551.381192,422.90661 L560.003782,389.27852 L614.326092,380.65593 C614.326092,380.65593 636.744822,301.3281 617.775092,295.29229 C598.805362,289.25648 504.819202,306.50165 504.819202,306.50165 Z"/>
    <path fill="#2F2E41" fill-rule="nonzero" d="M612.601572,366.85977 L614.326092,380.65592 C614.326092,380.65592 614.326092,416.87079 612.601572,420.31983 C610.877052,423.76887 610.014802,428.94242 612.601572,432.39145 C615.188342,435.84048 619.499642,444.46308 617.775132,447.91211 C616.050622,451.36114 621.224132,548.79641 614.326132,555.69448 C607.428132,562.59255 610.014842,571.21514 610.877132,572.0774 C611.739422,572.93966 610.014882,576.3887 610.014882,576.3887 C610.014882,576.3887 574.662262,582.42451 577.249042,576.3887 C579.835822,570.35289 579.835812,566.90385 581.560332,565.17933 C583.284852,563.45481 581.560332,560.86804 581.560332,560.86804 C581.560332,560.86804 584.147112,533.27575 581.560332,531.55123 C578.973552,529.82671 571.213222,447.04985 571.213222,446.1876 C571.213222,445.32535 568.626452,443.60082 568.626452,440.15178 C568.626452,436.70274 568.626452,425.49338 564.315152,423.76886 C560.003852,422.04434 560.866152,379.79366 560.866152,379.79366 L612.601572,366.85977 Z"/>
    <path fill="#FFB9B9" fill-rule="nonzero" d="M551.381192,59.0333296 C551.381192,59.0333296 554.830192,84.9010996 565.177332,90.0746496 C575.524472,95.2481996 582.422512,97.8349796 582.422512,97.8349796 L573.799922,128.01407 L570.350922,153.88183 L530.686972,153.88183 L509.130502,136.63665 L516.028572,108.18211 L519.477572,103.00856 C519.477572,103.00856 523.788862,84.0388596 520.339832,78.0030496 C516.890802,71.9672396 551.381192,59.0333296 551.381192,59.0333296 Z"/>
    <path fill="#FFB9B9" fill-rule="nonzero" d="M503.736049,269.25806 C503.736049,269.25806 505.294827,299.042474 494.947717,303.353764 L519.802847,309.95068 C519.802847,309.95068 528.741559,277.88065 527.017039,276.15614 C525.292519,274.43163 503.736049,269.25806 503.736049,269.25806 Z" transform="matrix(-1 0 0 1 1022.186 0)"/>
    <path fill="#29A389" fill-rule="nonzero" d="M534.136062,121.97823 L540.171872,133.1876 C540.171872,133.1876 544.483172,117.66694 550.518982,115.08016 C556.554792,112.49338 571.213192,108.18209 571.213192,104.73305 C571.213192,101.28401 570.350932,92.6614296 573.799972,92.6614296 C577.249012,92.6614296 610.877102,103.00854 616.050662,106.45757 C621.224222,109.9066 622.086472,113.35564 622.086472,113.35564 L612.601622,212.51542 C612.601622,212.51542 626.397772,259.07742 622.086472,277.18484 C617.775172,295.29226 614.326142,297.87906 603.979032,300.46584 C593.631922,303.05262 599.667742,294.43003 569.488672,303.05262 C539.309602,311.67521 520.339922,309.08843 513.441842,309.08843 C506.543762,309.08843 502.232482,312.53743 500.507962,313.39973 C498.783442,314.26203 499.645702,309.08843 505.681512,301.3281 C511.717322,293.56777 509.130512,280.63389 509.130512,280.63389 C509.130512,280.63389 502.232442,258.21516 506.543732,249.59257 C510.855022,240.96998 516.890842,229.76057 511.717292,226.31157 C506.543742,222.86257 499.645662,196.99476 499.645662,196.99476 L480.675962,129.73856 L519.477622,103.00856 C519.477622,103.00856 517.753102,115.08018 523.788912,117.66696 C529.824722,120.25374 534.136062,121.97823 534.136062,121.97823 Z"/>
    <path fill="#29A389" fill-rule="nonzero" d="M485.849512,128.8763 L480.675952,128.8763 C480.675952,128.8763 472.053362,143.53471 472.053362,153.88181 C472.053362,164.22891 469.085937,224.52074 469.085937,224.52074 C480.340079,264.910291 487.24698,286.429029 489.806641,289.076953 C492.281014,291.63665 501.396484,269.25806 520.013672,272.87355 C521.214884,273.106827 517.012321,263.773409 507.405982,244.873295 L507.405982,228.8983 L509.130502,184.9231 L485.849512,128.8763 Z"/>
    <path fill="#FFB9B9" fill-rule="nonzero" d="M606.565762,259.93966 C606.565762,259.93966 604.841242,299.60358 594.494132,303.91487 L619.499642,309.95068 C619.499642,309.95068 631.571272,268.56225 629.846752,266.83774 C628.122232,265.11323 606.565762,259.93966 606.565762,259.93966 Z"/>
    <path fill="#000" fill-rule="nonzero" d="M613.032702,124.99614 L618.637382,116.80468 C618.637382,116.80468 639.331602,148.70826 637.607082,170.26473 C635.882562,191.8212 634.158082,192.68347 634.158082,196.1325 C634.158082,199.58153 629.846782,199.5815 634.158082,203.89283 C638.469382,208.20416 644.505182,214.23994 641.056152,217.68898 C637.607122,221.13802 635.020332,221.13798 635.882592,225.44931 C636.434048,228.58134 636.722474,231.754021 636.744852,234.93415 C636.744852,234.93415 629.415652,249.16143 626.828852,249.16143 C624.242052,249.16143 599.667702,272.01129 599.667702,269.42451 C599.667702,266.83773 602.254472,248.7303 602.254472,246.14351 C602.254472,243.55672 603.116732,234.93414 604.841252,232.34737 C606.565772,229.7606 606.565772,230.62285 604.841252,228.03607 C603.116732,225.44929 603.116732,228.03607 603.116732,225.4493 C603.116732,222.86253 603.978992,219.41348 601.392222,218.55122 C598.805452,217.68896 596.218662,218.55122 597.943222,214.23993 C599.667782,209.92864 597.943222,206.4796 597.080962,206.4796 C596.218702,206.4796 591.907412,205.61734 594.494182,203.0306 C597.080952,200.44386 589.320632,150.43281 589.320632,150.43281 C589.320632,150.43281 590.613972,137.93007 613.032702,124.99614 Z" opacity=".1"/>
    <path fill="#29A389" fill-rule="nonzero" d="M608.290282,106.45757 L622.948682,113.35564 C622.948682,113.35564 643.642892,145.25922 641.918382,166.8157 C640.193872,188.37218 638.469382,189.23443 638.469382,192.68347 C638.469382,196.13251 634.158092,196.13247 638.469382,200.4438 C642.780672,204.75513 648.816492,210.7909 645.367452,214.23994 C641.918412,217.68898 639.331642,217.68894 640.193902,222.00027 C640.745357,225.132304 641.033783,228.304988 641.056162,231.48512 C641.056162,231.48512 633.295832,272.87355 630.709052,272.87355 C628.122272,272.87355 603.979052,268.56225 603.979052,265.97548 C603.979052,263.38871 606.565832,245.28126 606.565832,242.69448 C606.565832,240.1077 607.428092,231.48512 609.152612,228.89834 C610.877132,226.31156 610.877122,227.17382 609.152612,224.58705 C607.428102,222.00028 607.428092,224.58705 607.428092,222.00027 C607.428092,219.41349 608.290352,215.96446 605.703572,215.1022 C603.116792,214.23994 600.530022,215.1022 602.254572,210.7909 C603.979122,206.4796 602.254572,203.03057 601.392322,203.03057 C600.530072,203.03057 596.218762,202.16831 598.805542,199.58157 C601.392322,196.99483 593.631992,146.98377 593.631992,146.98377 C593.631992,146.98377 585.871542,119.39146 608.290282,106.45757 Z"/>
    <circle cx="529.44" cy="51.901" r="35.784" fill="#FFB9B9" fill-rule="nonzero"/>
    <path fill="#2F2E41" fill-rule="nonzero" d="M516.2912,31.2921997 C511.826102,32.8327977 507.217474,33.9207418 502.534791,34.5396308 C499.010522,35.0894946 494.886341,35.3710328 492.40942,32.8043924 C489.978652,30.2855555 490.371893,26.0839834 492.029908,23.0011054 C493.687922,19.9182274 496.343956,17.5012562 498.336438,14.6232088 C501.470126,10.0967365 503.31959,4.09588134 508.330502,1.81560215 C510.407133,1.02065591 512.610755,0.609044515 514.834326,0.600762553 C527.83714,-0.228239204 541.371479,-0.975115826 553.413175,4.00058836 C557.937634,5.72441076 561.946156,8.576527 565.05785,12.2859288 C567.096142,15.0172435 568.668867,18.0667422 569.712412,21.3110796 C576.256162,40.7235972 572.243218,62.141836 559.115712,77.8687265 C554.727222,73.9148196 556.635807,64.7785834 551.082983,62.7638481 C549.261234,62.1028653 547.201825,62.5628311 545.335794,62.0396058 C539.471261,60.3951963 539.765821,51.3320113 534.883638,47.6904648 C533.817381,47.1166633 532.873096,46.340671 532.10353,45.4058338 C531.674311,44.5092456 531.48781,43.5157443 531.562651,42.5245336 C531.526961,39.1292728 533.121839,30.5048438 529.883034,28.1776135 C526.58624,25.808715 519.459052,30.1482242 516.2912,31.2921997 Z"/>
    <path fill="#A0616A" fill-rule="nonzero" d="M90.6348,216.91943 C90.6348,216.91943 82.08333,242.57385 86.83414,248.27483 C91.58495,253.97581 58.32924,231.17188 58.32924,231.17188 L76.38235,210.26829 L90.6348,216.91943 Z"/>
    <circle cx="71.133" cy="174.217" r="42.661" fill="#2F2E41" fill-rule="nonzero"/>
    <polygon fill="#A0616A" fill-rule="nonzero" points="236.96 505.769 215.107 522.872 202.755 502.919 224.608 487.716"/>
    <path fill="#2F2E41" fill-rule="nonzero" d="M206.236283,634.85045 L211.937283,662.40519 L228.090063,684.25894 C228.090063,684.25894 271.797583,697.56123 242.342513,704.21238 C212.887443,710.86353 206.236303,699.46156 206.236303,699.46156 L185.332713,681.40845 L185.332713,706.1127 L172.030403,706.1127 L169.179913,670.9567 C169.179913,670.9567 167.279583,660.5049 175.831053,649.10294 L177.731383,632 L206.236283,634.85045 Z"/>
    <path fill="#A0616A" fill-rule="nonzero" d="M95.8607,293.40759 L103.462,337.11507 C103.462,337.11507 184.22589,328.5636 189.92687,344.71637 C195.62785,360.86914 197.52818,365.61997 197.52818,365.61997 L181.3754,371.32097 L173.7741,357.06852 C169.094797,355.41158 163.939597,355.755259 159.52165,358.01868 C151.92034,361.81933 85.4089,371.32097 80.65808,358.96884 C75.90726,346.61671 62.60498,301.00884 62.60498,301.00884 L82.55841,284.85606 L95.8607,293.40759 Z"/>
    <path fill="#000" fill-rule="nonzero" d="M95.8607,293.40759 L103.462,337.11507 C103.462,337.11507 184.22589,328.5636 189.92687,344.71637 C195.62785,360.86914 197.52818,365.61997 197.52818,365.61997 L181.3754,371.32097 L173.7741,357.06852 C169.094797,355.41158 163.939597,355.755259 159.52165,358.01868 C151.92034,361.81933 85.4089,371.32097 80.65808,358.96884 C75.90726,346.61671 62.60498,301.00884 62.60498,301.00884 L82.55841,284.85606 L95.8607,293.40759 Z" opacity=".1"/>
    <path fill="#444053" fill-rule="nonzero" d="M140.51838,419.77932 L147.16952,442.58325 L164.27246,529.99825 C164.27246,529.99825 166.17279,594.60936 169.02328,602.21067 C171.87377,609.81198 171.87377,610.76214 169.02328,613.61267 C166.17279,616.4632 160.47181,625.9648 169.02328,631.66578 C177.57475,637.36676 207.97998,644.0179 208.93014,637.36678 C209.8803,630.71566 209.88031,620.26384 208.93014,615.51302 C207.97997,610.7622 211.78063,536.64945 211.78063,536.64945 L200.37863,423.58001 L161.422,405.52687 L140.51838,419.77932 Z"/>
    <path fill="#000" fill-rule="nonzero" d="M140.51838,419.77932 L147.16952,442.58325 L164.27246,529.99825 C164.27246,529.99825 166.17279,594.60936 169.02328,602.21067 C171.87377,609.81198 171.87377,610.76214 169.02328,613.61267 C166.17279,616.4632 160.47181,625.9648 169.02328,631.66578 C177.57475,637.36676 207.97998,644.0179 208.93014,637.36678 C209.8803,630.71566 209.88031,620.26384 208.93014,615.51302 C207.97997,610.7622 211.78063,536.64945 211.78063,536.64945 L200.37863,423.58001 L161.422,405.52687 L140.51838,419.77932 Z" opacity=".1"/>
    <path fill="#444053" fill-rule="nonzero" d="M181.3754,330.46396 L202.279,370.37083 C202.279,370.37083 321.99959,423.57998 311.54779,445.43374 C301.09599,467.2875 243.136,508.14452 243.136,508.14452 C243.136,508.14452 240.28551,524.2973 231.734,519.54652 C223.18249,514.79574 202.279,490.09142 204.17933,487.24093 C206.07966,484.39044 212.7308,477.73929 215.58133,478.68946 C218.43186,479.63963 251.68754,453.98521 251.68754,453.98521 L194.67773,439.73276 C194.67773,439.73276 126.26597,437.83243 122.46531,405.52687 C118.66465,373.22131 122.46531,367.52034 122.46531,367.52034 L117.71449,357.06854 L156.6712,333.31445 L181.3754,330.46396 Z"/>
    <path fill="#2F2E41" fill-rule="nonzero" d="M210.83047,488.19107 L190.877,506.2442 C190.877,506.2442 173.77406,498.64289 163.32226,501.49338 C152.87046,504.34387 134.81736,506.2442 134.81736,506.2442 L137.66785,522.39697 L161.91016,517.92447 L142.41866,545.2009 C142.41866,545.2009 142.41866,587.95825 154.77079,587.95825 C167.12292,587.95825 163.32226,562.30384 163.32226,562.30384 L201.3288,532.84877 C201.3288,532.84877 220.33206,525.24746 222.23239,525.24746 C224.13272,525.24746 210.83047,488.19107 210.83047,488.19107 Z"/>
    <circle cx="86.834" cy="192.215" r="32.306" fill="#A0616A" fill-rule="nonzero"/>
    <path fill="#B9EFE9" fill-rule="nonzero" d="M55.00367,217.39451 C55.00367,217.39451 70.20628,213.59386 74.9571,217.39451 C79.70792,221.19516 80.6581,229.74664 87.30923,230.6968 C93.96036,231.64696 99.66135,231.64697 100.61151,232.59713 C101.56167,233.54729 123.41544,260.15187 123.41544,260.15187 C123.41544,260.15187 136.71772,267.75318 139.56821,278.20497 C142.4187,288.65676 170.92361,323.81282 174.72426,327.61347 C178.52491,331.41412 150.02001,350.41739 140.51838,357.06854 C131.01675,363.71969 103.462,366.57017 94.91053,351.36754 C86.35906,336.16491 39.80105,237.34795 55.00367,217.39451 Z"/>
    <path fill="#A0616A" fill-rule="nonzero" d="M91.10988,279.15514 L98.71119,322.86265 C98.71119,322.86265 179.47508,314.31118 185.17606,330.46396 C190.87704,346.61674 192.77737,351.36756 192.77737,351.36756 L176.62459,357.06856 L169.02328,342.81607 C164.343977,341.15913 159.188777,341.502809 154.77083,343.76623 C147.16952,347.56688 80.65808,357.06856 75.90726,344.71639 C71.15644,332.36426 57.85416,286.75639 57.85416,286.75639 L77.80759,270.60362 L91.10988,279.15514 Z"/>
    <path fill="#B9EFE9" fill-rule="nonzero" d="M72.95243,221.39215 C72.95243,221.39215 95.8607,269.6535 93.96037,282.95579 C92.06004,296.25808 85.4089,286.75644 85.4089,286.75644 C85.4089,286.75644 76.85743,273.45416 73.05677,281.05544 C69.25611,288.65672 64.5053,299.10855 60.70465,298.15839 C56.904,297.20823 36.0004,226.89613 47.40236,220.24499 C58.80432,213.59385 72.95243,221.39215 72.95243,221.39215 Z"/>
    <circle cx="40.578" cy="133.708" r="27" fill="#2F2E41" fill-rule="nonzero"/>
    <path fill="#2F2E41" fill-rule="nonzero" d="M12.1442383,158.777605 C19.2625466,163.946157 28.4324548,165.329407 36.7478327,162.488975 C45.0632106,159.648544 51.4931975,152.93656 54,144.480188 C52.7254007,154.663057 45.8600084,163.261033 36.2417333,166.720018 C26.6234582,170.179003 15.8862767,167.911376 8.46855967,160.854494 C1.0508426,153.797611 -1.78726994,143.150313 1.12739734,133.313817 C-0.109305506,143.186657 4.1150638,152.950658 12.1442383,158.777605 L12.1442383,158.777605 Z"/>
    <circle cx="59.757" cy="181.327" r="31.284" fill="#2F2E41" fill-rule="nonzero"/>
    <ellipse cx="86.065" cy="169.596" fill="#2F2E41" fill-rule="nonzero" rx="27.729" ry="21.686"/>
    <ellipse cx="87.309" cy="195.541" fill="#A0616A" fill-rule="nonzero" rx="6.176" ry="10.927"/>
    <path fill="#444053" fill-rule="nonzero" d="M172.087,356.65331 C172.087,356.65331 188.90749,347.00294 192.03013,349.42279 C195.15277,351.84264 196.54013,359.41479 196.54013,359.41479 L177.09967,367.04523 L171.39867,356.59344 L172.087,356.65331 Z"/>
    <path stroke="#444" stroke-width="2" d="M91.93115,685.96626 L91.93115,569.87274"/>
    <circle cx="91.931" cy="569.873" r="16.417" fill="#F5DD48" fill-rule="nonzero"/>
    <path fill="#F5DD48" fill-rule="nonzero" d="M91.93115,641.42358 C91.93115,641.42358 89.58582,590.98065 41.50669,596.84396"/>
    <path stroke="#444" stroke-width="2" d="M498.147212,599.96626 L498.147212,483.87274"/>
    <circle cx="498.147" cy="483.873" r="16.417" fill="#F5DD48" fill-rule="nonzero"/>
    <path fill="#F5DD48" fill-rule="nonzero" d="M498.147212,555.42358 C498.147212,555.42358 495.801882,504.98065 447.722752,510.84396"/>
    <path stroke="#444" stroke-width="2" d="M700.873832,602.62094 L700.873832,370.43389"/>
    <circle cx="700.874" cy="370.434" r="16.417" fill="#F5DD48" fill-rule="nonzero"/>
    <path fill="#F5DD48" fill-rule="nonzero" d="M700.873822,437.29407 C700.873822,437.29407 703.219152,386.85114 751.298282,392.71445"/>
    <path stroke="#444" stroke-width="2" d="M700.873822,598.10816 C700.873822,598.10816 690.319872,505.29 751.298282,500.59935"/>
    <circle cx="751.298" cy="500.599" r="16.417" fill="#F5DD48" fill-rule="nonzero"/>
  </g>
</svg>
