<svg xmlns="http://www.w3.org/2000/svg" width="163" height="172" viewBox="0 0 163 172">
  <g fill="none" fill-rule="evenodd">
    <path fill="#F5DD48" fill-rule="nonzero" d="M161,100.995968 C155.853516,128.840745 120.952457,148.623006 99.2188927,156.858323 C77.485328,165.135444 58.2398723,178.410755 35.38,167.416398 C12.4784126,156.42204 5.26953125,135.920276 2.13476563,112.640276 C-1,89.3602764 -1,75.0575421 12,50.0802764 C25,25.1030108 49.2053648,7.27012354 75.95,7.27012354 C164.959677,20.0204783 166.146484,73.1511904 161,100.995968 Z" transform="matrix(1 0 0 -1 0 178.86)"/>
    <path fill="#7A3814" fill-rule="nonzero" d="M140.255146,146.685004 C126.343665,161.284625 105.391902,171.758921 75.95,171.590153 C54.6695723,171.590153 34.9968123,160.299761 21.2974255,143.103512 C27.5440091,132.750791 36.7,132 36.7,132 L124.41,132 C128.524033,132 135.322341,135.492325 140.255146,146.685004 Z"/>
    <path fill="#F2C5B5" fill-rule="nonzero" d="M65.63,99.3028305 L94.02,99.3028305 C95.8701539,99.3028305 97.37,100.802677 97.37,102.65283 L97.37,127.37283 C97.37,137.059905 89.5170745,144.91283 79.83,144.91283 L79.83,144.91283 C70.1429255,144.91283 62.29,137.059905 62.29,127.37283 L62.29,102.65283 C62.29,100.806575 63.7837525,99.3083417 65.63,99.3028305 Z"/>
    <path fill="#000" fill-rule="nonzero" d="M62.28,100.60283 L97.37,100.60283 L97.37,128.67283 C97.37,138.359905 89.5170745,146.21283 79.83,146.21283 L79.83,146.21283 C70.1429255,146.21283 62.29,138.359905 62.29,128.67283 L62.29,100.60283 L62.28,100.60283 Z" opacity=".05"/>
    <path fill="#000" fill-rule="nonzero" d="M62.35,113.85283 C73.6586913,118.079472 86.1074023,118.114949 97.44,113.95283 L97.44,109.64283 L62.35,109.64283 L62.35,113.85283 Z" opacity=".1"/>
    <ellipse cx="79.76" cy="64.76" fill="#AA9990" fill-rule="nonzero" rx="50.76" ry="51.76"/>
    <path fill="#F2C5B5" fill-rule="nonzero" d="M129.808678,72.7520969 C126.637386,97.474407 105.514868,116.58 79.93,116.58 C54.3734597,116.58 33.2693936,97.5166917 30.0619219,72.8341952 C27.7693659,72.2673788 26,68.5908976 26,64.14 C26,59.2964627 28.0953074,55.37 30.68,55.37 C30.7294932,55.37 30.7788069,55.3714397 30.8279299,55.374298 C35.8133014,32.8482042 55.9040962,16 79.93,16 C103.955246,16 124.045598,32.8472813 129.03166,55.3724472 C131.56477,55.48359 133.6,59.366405 133.6,64.14 C133.6,68.414125 131.968388,71.9741258 129.808679,72.7520908 Z"/>
    <path fill="#AA9990" fill-rule="nonzero" d="M129.55 66L129.56 66.02C129.492889 93.4948937 116.413462 137.801563 79.18 139.101562 41.9465383 140.401562 30.4518779 93.3769615 29.68 65.9128305L58.94 89.11C58.94 89.11 77.28 77.41 102.28 89.11L129.55 66zM79.19 97.95L79.18 97.95C88.97 97.95 96.9 95.95 96.9 93.52 96.9 91.09 88.97 89.09 79.19 89.09 69.41 89.09 61.48 91.09 61.48 93.52 61.48 95.95 69.41 97.95 79.19 97.95zM44 33.5595703C48.5849609 40.9248047 75.5107422 55.37 124.239117 47.62L111.693931 25.79 89.4604746 16.93 44 33.5595703z"/>
    <path fill="#AA9990" fill-rule="nonzero" d="M45.3730453,34.71 C40.6761046,31.4399183 49.2707816,26.2711065 52.5730453,23 C62.4630453,13.22 78.6830453,11.16 87.0030453,7.10542736e-15 C87.9172055,1.59720771 88.112637,3.50671488 87.5409781,5.25599112 C86.9693192,7.00526736 85.6839845,8.43086397 84.0030453,9.18 C92.0030453,9.13 101.213045,8.43 105.713045,1.87 C107.986266,7.1611302 107.009185,13.288323 103.203045,17.61 C110.263045,17.93 117.803045,22.72 118.263045,29.78 C118.563045,34.48 115.623045,38.93 111.753045,41.63 C107.883045,44.33 103.223045,45.54 98.6230453,46.54 C85.2030453,49.54 66.6739287,49.54 45.3730453,34.71 Z"/>
    <path fill="#AA9990" d="M50.9677734,24.180933 C35.4251953,35.3359375 26.0011813,53.6725954 30.5462454,72.71 C30.5462454,72.71 32.8446899,77.0474365 35.4251953,83.1642578 C35.4251953,83.1642578 31.64,44.0618659 50.9677734,24.180933 Z"/>
    <path fill="#AA9990" d="M129.566991,24.180933 C114.024413,35.3359375 104.600399,53.6725954 109.145463,72.71 C109.145463,72.71 111.443908,77.0474365 114.024413,83.1642578 C114.024413,83.1642578 110.239218,44.0618659 129.566991,24.180933 Z" transform="matrix(-1 0 0 1 237.567 0)"/>
  </g>
</svg>
