<svg xmlns="http://www.w3.org/2000/svg" width="168" height="176" viewBox="0 0 168 176">
  <g fill="none">
    <path fill="#F5DD48" d="M133.703074,53.6023614 C149.679955,76.6779708 166.490122,100.525228 167.135142,117.652995 C167.780162,134.780762 168.706919,150.52 124.108602,168.980408 C102.375037,177.257529 57.8001901,174.608615 34.9403178,163.614258 C6.14344278,154.185076 1.43250528,109.515625 0.606333404,99.7578125 C-0.219838471,90 2.67595898,61.1688203 18.5694103,38.0932109 C34.4211466,15.0176015 60.0759303,-3.3341965 80.8917629,0.511738397 C101.707595,4.35767329 117.684477,30.4849484 133.703074,53.6023614 Z" transform="matrix(-1 0 0 1 167.78 0)"/>
    <path fill="#72351C" d="M144.57,72 C144.57,113.78 117.31,160.29 83.68,160.29 C50.05,160.29 22.82,113.78 22.82,72 C22.82,30.22 50.08,9 83.71,9 C117.34,9 144.57,30.23 144.57,72 Z"/>
    <path fill="#33CCAB" d="M82.14,175.590153 C104.307739,175.626473 125.995803,169.136748 144.5,156.93 C140.32,134.09 124.41,132.78 124.41,132.78 L36.7,132.78 C36.7,132.78 21.7,134.01 17,155.03 C36.0700645,168.443899 58.8247959,175.625926 82.14,175.590153 L82.14,175.590153 Z"/>
    <path fill="#EABFA4" d="M66.63,103.61 L95.02,103.61 C96.8701539,103.61 98.37,105.109846 98.37,106.96 L98.37,131.68 C98.37,141.367075 90.5170745,149.22 80.83,149.22 L80.83,149.22 C71.1429255,149.22 63.29,141.367075 63.29,131.68 L63.29,106.96 C63.29,105.113744 64.7837525,103.615511 66.63,103.61 Z"/>
    <path fill="#000" d="M63.28,104.91 L98.37,104.91 L98.37,132.98 C98.37,142.667075 90.5170745,150.52 80.83,150.52 L80.83,150.52 C71.1429255,150.52 63.29,142.667075 63.29,132.98 L63.29,104.91 L63.28,104.91 Z" opacity=".1"/>
    <path fill="#000" d="M63.35,118.16 C74.6586913,122.386642 87.1074023,122.422118 98.44,118.26 L98.44,113.95 L63.35,113.95 L63.35,118.16 Z" opacity=".1"/>
    <circle cx="81.29" cy="70.29" r="50.29" fill="#EABFA4"/>
    <path fill="#444" d="M114.247314,62 L84.4914524,62 C84.0411973,62 83.6164566,62.2025 83.331295,62.549 C83.0476342,62.8955 82.9320688,63.353 83.0206189,63.794 L83.5774345,66.5765 C82.2116605,66.1805 80.7693432,66.1805 79.4035693,66.575 L79.9603848,63.794 C80.048935,63.353 79.9348704,62.8955 79.6497088,62.549 C79.3645472,62.2025 78.9383057,62 78.4880505,62 L48.7321891,62 C45.5773964,62 44,62.598 44,63.794 L49.0017085,78.794 C49.1397868,79.4945 49.7551355,80 50.4710411,80 L73.4863496,80 C74.2022553,80 74.8176039,79.4945 74.957183,78.794 L78.66365,70.2665 C80.3115838,68.927 82.6679191,68.9285 84.3158529,70.268 L88.0223199,78.794 C88.161899,79.4945 88.7772477,80 89.4931533,80 L112.508462,80 C113.224367,80 113.839716,79.4945 113.979295,78.794 L118.981004,63.794 C118.981004,62.598 117.403107,62 114.247314,62 Z M71.6177818,77 L51.3621581,77 L46.98997,65 L75.98997,65 L75.2190088,68.9015 C75.1315344,69.104 75.0885385,69.317 75.0944689,69.5345 L71.6177818,77 Z M110.619264,77 L90.3606755,77 L86.885471,69.5315 C86.8899188,69.3155 86.8484055,69.1025 86.7609311,68.9015 L85.98997,65 L114.98997,65 L110.619264,77 Z" opacity=".2"/>
    <ellipse cx="31.7" cy="68.07" fill="#EABFA4" rx="4.68" ry="8.77"/>
    <ellipse cx="129.94" cy="68.07" fill="#EABFA4" rx="4.68" ry="8.77"/>
    <path fill="#72351C" d="M24.8711092,30.31 C24.8711092,30.31 53.3011092,69.22 118.501109,55.93 C118.501109,55.93 80.7771394,-12.9500896 24.8711092,30.31 Z" transform="matrix(-1 0 0 1 143.372 0)"/>
  </g>
</svg>
