<svg xmlns="http://www.w3.org/2000/svg" width="164" height="173" viewBox="0 0 164 173">
  <g fill="none" fill-rule="evenodd">
    <path fill="#FFBCA3" fill-rule="nonzero" d="M132.922912,53.6023614 C148.899794,76.6779708 164.91839,96.7855217 163.958943,117.770949 C162.999496,138.79818 145.062005,160.745091 123.32844,168.980408 C101.594875,177.257529 76.0652371,171.864859 53.2053648,160.870502 C30.3037774,149.876145 10.0302411,133.2801 2.93867484,111.082367 C-4.15289138,88.9264373 1.89579745,61.1688203 17.7892488,38.0932109 C33.6409851,15.0176015 59.2957687,-3.3341965 80.1116014,0.511738397 C100.927434,4.35767329 116.904316,30.4849484 132.922912,53.6023614 Z"/>
    <path fill="#F5DD48" fill-rule="nonzero" d="M152.073699,147.360996 C144.696045,156.869998 134.515099,164.741542 123.32844,168.980408 C101.594875,177.257529 76.0652371,171.864859 53.2053648,160.870502 C49.9930753,159.328379 46.8324907,157.676047 43.7527357,155.913507 C49.9788723,146.255132 58.7,145.54 58.7,145.54 L146.41,145.54 C146.41,145.54 148.851767,145.741177 152.073699,147.360996 Z"/>
    <path fill="#E39B64" fill-rule="nonzero" d="M88.59,116.38 L116.98,116.38 C118.830154,116.38 120.33,117.879846 120.33,119.73 L120.33,144.45 C120.33,154.137075 112.477075,161.99 102.79,161.99 L102.79,161.99 C93.1029255,161.99 85.25,154.137075 85.25,144.45 L85.25,119.73 C85.25,117.879846 86.7498461,116.38 88.6,116.38 L88.59,116.38 Z"/>
    <path fill="#000" fill-rule="nonzero" d="M85.27,117.68 L120.360026,117.68 L120.360026,145.75 C120.367965,150.407093 118.523523,154.876171 115.233272,158.172051 C111.94302,161.46793 107.4771,163.32 102.82,163.32 L102.82,163.32 C93.1329255,163.32 85.28,155.467075 85.28,145.78 L85.28,117.68 L85.27,117.68 Z" opacity=".1"/>
    <path fill="#000" fill-rule="nonzero" d="M85.31,130.93 C96.6186913,135.156642 109.067402,135.192118 120.4,131.03 L120.4,126.72 L85.31,126.72 L85.31,130.93 Z" opacity=".1"/>
    <path fill="#120302" d="M66.1523437,96.1054687 C66.1523437,96.1054688 54.0331195,105.198242 44.9453125,85.3554688 C43.7957433,82.8454417 43.0191475,79.9348766 42.578125,77.109375 C41.5000027,70.2021612 39.956921,63.2266431 40.4023437,56.25 C40.697599,51.6254256 51.7883577,35.2619165 53.5859375,32.7 C60.2600246,23.1880694 68.8894832,20.6408778 82,15.9609375 C91.9252604,12.4180088 99.8804375,7.49739627 110.039063,6.91113914 C117.642347,6.47235147 125.737743,10.7958195 133.289379,13.7776133 C140.42562,16.5953865 150.076277,26.894063 155.367188,32.5859375 C161.983451,39.7036045 162.463674,52.6521684 162.102809,65.4968046 C161.666285,81.0344197 158.609205,96.4199601 145.683594,101.148438 C141.670633,102.616468 115.160216,100.935479 66.1523437,96.1054687 Z"/>
    <circle cx="102.95" cy="82.99" r="50.29" fill="#E39B64" fill-rule="nonzero"/>
    <path fill="#120302" d="M62.7382813,41.9658203 C104.109689,14.0361328 148.55,28.8186234 153.23,74.17 C141.238776,43.935749 125.488932,33.035749 105.980469,41.47 C94.4655469,46.4483388 80.0514844,46.6136122 62.7382813,41.9658203 Z"/>
    <ellipse cx="52.64" cy="82.94" fill="#E39B64" fill-rule="nonzero" rx="4.68" ry="8.77"/>
    <ellipse cx="153.23" cy="82.94" fill="#E39B64" fill-rule="nonzero" rx="4.68" ry="8.77"/>
    <path fill="#74665F" d="M70.5820313,44.328125 C60.0623609,39.8412898 54.0331195,36.3106881 54.0331195,33.0565277 C54.0331195,28.7881465 63.2890625,23.1373871 69.2998047,20.6367188 C71.9564573,19.5314631 91.7109375,12.3671875 91.7109375,12.3671875 C91.0555508,12.3671875 87.8016133,31.0369307 88.1015625,33.765625 C88.3069007,35.6336253 88.9705396,37.4699048 89.875,39.1171875 C90.9794853,41.1287731 96.3016937,44.1669514 94.046875,44.59375 C84.559446,46.3895581 70.5820313,44.328125 70.5820313,44.328125 Z"/>
  </g>
</svg>
