<svg xmlns="http://www.w3.org/2000/svg" xmlns:xlink="http://www.w3.org/1999/xlink" width="164" height="174" viewBox="0 0 164 174">
  <defs>
    <path id="mike-a" d="M132.922912,53.6023614 C148.899794,76.6779708 164.91839,96.7855217 163.958943,117.770949 C162.999496,138.79818 145.062005,160.745091 123.32844,168.980408 C101.594875,177.257529 76.0652371,171.864859 53.2053648,160.870502 C30.3037774,149.876145 10.0302411,133.2801 2.93867484,111.082367 C-4.15289138,88.9264373 1.89579745,61.1688203 17.7892488,38.0932109 C33.6409851,15.0176015 59.2957687,-3.3341965 80.1116014,0.511738397 C100.927434,4.35767329 116.904316,30.4849484 132.922912,53.6023614 Z"/>
  </defs>
  <g fill="none" fill-rule="evenodd">
    <g transform="translate(0 1)">
      <mask id="mike-b" fill="#fff">
        <use xlink:href="#mike-a"/>
      </mask>
      <use fill="#FFBCA3" fill-rule="nonzero" xlink:href="#mike-a"/>
      <path fill="#B9EFE9" fill-rule="nonzero" d="M104.14,188.36 C126.307739,188.396473 147.995803,181.906748 166.5,169.7 C162.31,146.85 146.41,145.54 146.41,145.54 L58.7,145.54 C58.7,145.54 43.7,146.77 39,167.79 C58.0688858,181.207448 80.8237135,188.392999 104.14,188.36 Z" mask="url(#mike-b)"/>
    </g>
    <circle cx="102.95" cy="73.07" r="54.76" fill="#72351C" fill-rule="nonzero"/>
    <path fill="#BE7C5E" fill-rule="nonzero" d="M88.59,117.38 L116.98,117.38 C118.830154,117.38 120.33,118.879846 120.33,120.73 L120.33,145.45 C120.33,155.137075 112.477075,162.99 102.79,162.99 L102.79,162.99 C93.1029255,162.99 85.25,155.137075 85.25,145.45 L85.25,120.73 C85.25,118.879846 86.7498461,117.38 88.6,117.38 L88.59,117.38 Z"/>
    <path fill="#000" fill-rule="nonzero" d="M85.27,118.68 L120.360026,118.68 L120.36,146.75 C120.367965,151.407093 118.523523,155.876171 115.233272,159.172051 C111.94302,162.46793 107.4771,164.320007 102.82,164.32 L102.82,164.32 C93.1329255,164.32 85.28,156.467075 85.28,146.78 L85.28,118.68 L85.27,118.68 Z" opacity=".1"/>
    <path fill="#000" fill-rule="nonzero" d="M85.31,131.93 C96.6186913,136.156642 109.067402,136.192118 120.4,132.03 L120.4,127.72 L85.31,127.72 L85.31,131.93 Z" opacity=".1"/>
    <circle cx="102.95" cy="83.99" r="50.29" fill="#BE7C5E" fill-rule="nonzero"/>
    <path fill="#000" fill-rule="nonzero" d="M67.13,38.25 C67.13,38.25 88.32,81.25 148.13,56.25 L134.21,34.42 L109.54,25.56 L67.13,38.25 Z" opacity=".1"/>
    <path fill="#72351C" fill-rule="nonzero" d="M67.13,37.62 C67.13,37.62 88.32,80.62 148.13,55.62 L134.21,33.79 L109.54,24.93 L67.13,37.62 Z"/>
    <path fill="#72351C" fill-rule="nonzero" d="M66.94 34.71C68.3686125 30.286862 70.8377363 26.2711065 74.14 23 84.03 13.22 100.25 11.16 108.57-5.68434189e-14 109.48416 1.59720771 109.679592 3.50671488 109.107933 5.25599112 108.536274 7.00526736 107.250939 8.43086397 105.57 9.18 113.57 9.13 122.78 8.43 127.28 1.87 129.55322 7.1611302 128.576139 13.288323 124.77 17.61 131.83 17.93 139.37 22.72 139.83 29.78 140.13 34.48 137.19 38.93 133.32 41.63 129.45 44.33 124.79 45.54 120.19 46.54 106.77 49.54 58.18 61.95 66.94 34.71zM153.24 84.43L151.91 84.43 125.97 107.54C100.97 95.84 82.63 107.54 82.63 107.54L55.43 85.4 52.69 85.74C53.4618779 113.204131 76.13251 134.965447 103.605225 134.613023 131.077941 134.260598 153.182889 111.924894 153.25 84.45L153.24 84.43zM102.88 116.38C93.1 116.38 85.17 114.38 85.17 111.95 85.17 109.52 93.1 107.52 102.88 107.52 112.66 107.52 120.59 109.52 120.59 111.95 120.59 114.38 112.66 116.38 102.87 116.38L102.88 116.38z"/>
    <ellipse cx="52.64" cy="83.94" fill="#BE7C5E" fill-rule="nonzero" rx="4.68" ry="8.77"/>
    <ellipse cx="153.23" cy="83.94" fill="#BE7C5E" fill-rule="nonzero" rx="4.68" ry="8.77"/>
  </g>
</svg>
