<svg xmlns="http://www.w3.org/2000/svg" width="48" height="48" viewBox="0 0 48 48">
  <path fill="#07454C" d="M19.0057771,4.00577596 C18.7070531,3.99641424 18.4133027,3.99791697 18.1247915,4.01408721 C17.8898974,4.0268532 17.7097643,4.22718602 17.7225302,4.46122905 C17.7352962,4.68846354 17.9233817,4.86349045 18.148063,4.86349045 C18.1557226,4.86349045 18.164526,4.86434151 18.1713346,4.86349045 C18.4360159,4.84902233 18.6802181,4.84577764 18.9891549,4.8568415 L18.9974664,4.8568415 C19.2289562,4.8568415 19.4154196,4.6694475 19.4196749,4.43795768 C19.4239294,4.20646785 19.2372669,4.01428662 19.0057771,4.00577596 Z M20.6098365,4.23682698 C20.4461127,4.26547061 20.3076282,4.38989912 20.2674153,4.56096329 C20.2137982,4.78989992 20.3567772,5.01765305 20.5865649,5.0712701 C20.8520974,5.13254681 21.1100238,5.20639011 21.3644924,5.29234781 C21.4095989,5.30766699 21.4556892,5.31395637 21.5007957,5.31395637 C21.6786684,5.31395637 21.8426313,5.20260023 21.9030569,5.02472753 C21.9779507,4.80174828 21.859227,4.56105631 21.6370989,4.48616254 C21.3579494,4.39254542 21.0713004,4.30989896 20.7793849,4.24181371 C20.7217252,4.2286222 20.664411,4.22727913 20.6098365,4.23682698 Z M16.535693,4.27173394 C16.4809848,4.26351588 16.4221421,4.26638823 16.3644824,4.28170741 C16.0742691,4.35489905 15.7892021,4.43977956 15.5117548,4.53935414 C15.2896267,4.61850323 15.1749583,4.86162874 15.2541074,5.08290578 C15.3162352,5.25737413 15.4802381,5.36548583 15.6547065,5.36548583 C15.7023662,5.36548583 15.7499995,5.35838539 15.7976592,5.34221515 C16.0504256,5.25285327 16.3092823,5.17256026 16.5722616,5.10617714 C16.8003471,5.04915575 16.9401619,4.81811801 16.8814384,4.59088352 C16.8386723,4.41854275 16.699815,4.29638829 16.535693,4.27173394 Z M23.1015299,5.15936874 C22.9365696,5.14013994 22.7694552,5.21830503 22.6826466,5.37213521 C22.5660506,5.57639094 22.6371145,5.83565954 22.8422213,5.95225552 C23.0771154,6.08587366 23.3074478,6.22954373 23.5287248,6.38443766 C23.6027675,6.43635266 23.6871566,6.46090079 23.7714121,6.46090079 C23.9050294,6.46004972 24.0370773,6.39720364 24.1204818,6.27805447 C24.2549501,6.08571366 24.2089526,5.82076674 24.0157607,5.68629754 C23.773207,5.51693635 23.5214916,5.35813263 23.2627669,5.21089812 C23.211491,5.18217466 23.1565173,5.16577828 23.1015299,5.15936874 Z M14.0572965,5.23915622 C14.0025892,5.24647028 13.9495967,5.26422265 13.8993839,5.29400995 C13.6440642,5.44549961 13.3955131,5.60909058 13.1563637,5.78270794 C12.965725,5.92058056 12.9220815,6.18633854 13.0599541,6.37612615 C13.1442096,6.49187106 13.2746354,6.55232395 13.4056995,6.55232395 C13.4933592,6.55232395 13.5801415,6.52700475 13.6550353,6.47253656 C13.8746102,6.3133873 14.0991851,6.16492913 14.3332282,6.02705652 C14.5349307,5.90705628 14.6019785,5.64701576 14.4828293,5.4436111 C14.3921908,5.2929725 14.2214194,5.21721456 14.0572965,5.23915622 Z M25.0712811,6.71356087 C24.9621328,6.71175236 24.85301,6.7519652 24.7687546,6.83324196 C24.6002436,6.99664654 24.5953763,7.2664607 24.7587809,7.43497167 C24.9468664,7.62986568 25.1263212,7.83228651 25.2956833,8.04335076 C25.3799388,8.14803182 25.5030641,8.20126342 25.6264686,8.20126342 C25.7200858,8.20126342 25.8157907,8.17115698 25.8940887,8.10817813 C26.0770678,7.96094379 26.1061504,7.69275176 25.9589161,7.50977268 C25.7725327,7.27913392 25.5764421,7.05598198 25.3704843,6.8432156 C25.289633,6.75895926 25.1804303,6.71536938 25.0712811,6.71356087 Z M12.1158033,6.82659259 C12.0069733,6.83010323 11.9003509,6.87570162 11.8199253,6.96123371 C11.6173717,7.17825542 11.422744,7.40534438 11.2414662,7.64108953 C11.0984881,7.82747203 11.1332081,8.0923398 11.3195915,8.23616987 C11.3970384,8.29489339 11.488688,8.3259309 11.5789009,8.3259309 C11.7057097,8.3259309 11.8329304,8.26864398 11.9163348,8.15970674 C12.0805905,7.94609014 12.256921,7.7404642 12.4416022,7.543017 C12.6016026,7.37110176 12.5927191,7.1012876 12.421655,6.94128728 C12.3356973,6.86128712 12.2246333,6.82308194 12.1158033,6.82659259 Z M17.7325039,8.25611715 C17.4976098,8.25611715 17.3069711,8.44675583 17.3069711,8.68164991 L17.3069711,17.8738223 C16.8337787,17.986163 16.4238042,18.2603389 16.1267824,18.6484247 C16.0995483,18.6722546 16.0699338,18.6933985 16.0486571,18.7248879 C15.9941889,18.8057391 15.9441624,18.8898082 15.899056,18.9808722 L15.6264486,19.5277482 L14.8900778,20.9988286 L14.8568326,20.9822064 L14.8169389,20.9622592 C14.7514069,20.9299187 14.6795582,20.9130437 14.6191326,20.9207033 C14.5825376,20.8619798 14.5308881,20.8093601 14.4662071,20.7727643 C14.2313131,20.6399981 14.0026428,20.4971391 13.7813658,20.3422452 C13.5907262,20.21033 13.3257793,20.2529233 13.1896088,20.4469654 C13.0551405,20.6393062 13.101138,20.9042539 13.2943299,21.0387223 C13.5368836,21.2080843 13.788599,21.3677391 14.0473237,21.5141224 C14.1230677,21.5566757 14.2023904,21.5732714 14.2883481,21.567314 C14.3317524,21.6405056 14.3953696,21.7018487 14.4745186,21.7418488 L14.5110872,21.7601331 L4.0971704,42.5813186 C3.95419147,42.8664255 3.97025525,43.1983147 4.13706409,43.4689535 C4.304724,43.7404434 4.59584161,43.902797 4.91499127,43.902797 L30.6879817,43.902797 L42.5962498,43.902797 C43.0856125,43.902797 43.5335657,43.6540731 43.7897364,43.237902 C44.0476093,42.821731 44.0691523,42.3115044 43.8495774,41.8732057 L37.5663197,29.3033661 L37.5663197,29.3017039 C37.5654687,29.2991507 37.5638465,29.2976086 37.5629955,29.2950554 L35.335597,24.8402593 C34.9730431,24.1143004 34.2434007,23.6633948 33.4323353,23.6633948 C32.6204188,23.6633948 31.8924386,24.1143004 31.5307357,24.8402593 L27.082589,33.7332294 L22.5529918,24.672373 C22.5521408,24.6706708 22.5538429,24.6690887 22.5529918,24.6673866 C22.5487365,24.6563227 22.5398139,24.6476793 22.5347075,24.6374665 L21.3761282,22.320307 C21.3812346,22.3186049 21.3868329,22.3186849 21.3910882,22.3169827 C21.5255566,22.2761316 21.65807,22.2316234 21.7916873,22.1856659 C22.0138154,22.1073678 22.130105,21.8633912 22.0526589,21.6421141 C21.9743609,21.419135 21.72698,21.3036964 21.5091072,21.3811434 C21.3874048,21.4245477 21.266008,21.4650397 21.1417524,21.5024866 C21.0906885,21.5186569 21.0382679,21.5288033 20.9855019,21.5407182 L19.7055793,18.9792101 C19.520047,18.6089966 19.238118,18.3132649 18.8993939,18.1098603 C18.8934364,18.1056049 18.8895802,18.0991556 18.8827717,18.0949002 C18.7287289,18.0038362 18.5635158,17.9348199 18.3907495,17.8854581 C18.3890473,17.884607 18.3874652,17.884647 18.3857631,17.883796 C18.3117204,17.8633704 18.2346325,17.8616547 18.1580367,17.8488887 L18.1580367,13.3608482 L22.8555192,13.3608482 C23.0027536,13.3608482 23.1395887,13.2848242 23.2178868,13.1597167 C23.2953337,13.034611 23.302555,12.8777349 23.2361711,12.7458197 L22.4798538,11.2348465 L23.2361711,9.72221029 C23.301704,9.59029513 23.2944827,9.43508206 23.2178868,9.30997543 C23.1395887,9.18486879 23.0027536,9.10718268 22.8555192,9.10718268 L18.1580367,9.10718268 L18.1580367,8.68164991 C18.1580367,8.44675583 17.967398,8.25611715 17.7325039,8.25611715 Z M26.5224151,8.77307307 C26.4674677,8.77779308 26.4126676,8.79404333 26.3611782,8.82127743 C26.1535182,8.93106488 26.0735308,9.1887522 26.1833182,9.39641219 C26.310127,9.63385863 26.4252736,9.87758337 26.5274015,10.1277958 C26.5954867,10.2920514 26.7545432,10.3920916 26.9213521,10.3920916 C26.9749692,10.3920916 27.030674,10.3817861 27.082589,10.3605094 C27.3004617,10.2711476 27.4046637,10.0240058 27.3153018,9.80698408 C27.201259,9.53038778 27.0741847,9.26041448 26.9363121,8.99913736 C26.8533332,8.84275407 26.6872554,8.75891049 26.5224151,8.77307307 Z M10.7012396,8.91270059 C10.535561,8.9018095 10.3714781,8.98839265 10.292329,9.14541424 C10.1595628,9.40924456 10.0388979,9.68080085 9.92996147,9.95824821 C9.84400385,10.176121 9.95059981,10.4224908 10.1693237,10.5084485 C10.2212386,10.528023 10.2736592,10.5383685 10.3255742,10.5383685 C10.4949362,10.5383685 10.657317,10.4367462 10.722849,10.2690863 C10.8215718,10.0163198 10.930269,9.76939081 11.0519714,9.52939118 C11.1575035,9.319178 11.0735008,9.0631128 10.8641387,8.95758068 C10.8115854,8.93141126 10.7564661,8.91633123 10.7012396,8.91270059 Z M18.1746588,9.95658608 L22.1673528,9.95658608 L21.6221389,11.0420265 C21.5625643,11.1620268 21.5625643,11.3035301 21.6221389,11.4226792 L22.1673528,12.5097827 L18.1746588,12.5097827 L18.1746588,9.95658608 Z M27.3302618,11.1733434 C27.099623,11.2210031 26.9510057,11.4463627 26.9978143,11.6770014 C27.0514315,11.9382786 27.0902213,12.2050876 27.1191576,12.4748754 C27.1412861,12.6944503 27.3260465,12.8571903 27.5413661,12.8571903 C27.5566852,12.8571903 27.5709278,12.8572302 27.586247,12.855528 C27.819439,12.8325493 27.9899176,12.6224816 27.9652367,12.3884386 C27.9354494,12.0897155 27.8901302,11.7968153 27.8322577,11.507453 C27.7854491,11.2768143 27.5626027,11.1273859 27.3302618,11.1733434 Z M9.93993511,11.3295939 C9.71014741,11.2904449 9.48714101,11.4405252 9.44458773,11.672015 C9.3909706,11.9622284 9.35210159,12.2559388 9.32656877,12.5546628 C9.30699512,12.7887058 9.48148993,12.9955283 9.71553296,13.0151028 C9.72829894,13.0159539 9.73933556,13.016765 9.75210154,13.016765 C9.97082538,13.016765 10.1564377,12.8482668 10.17431,12.6261387 C10.1972888,12.3554998 10.2338446,12.0879197 10.2823554,11.8249405 C10.3249086,11.5943017 10.1705739,11.3721472 9.93993511,11.3295939 Z M27.5912334,13.7099178 C27.3605946,13.6945987 27.1503678,13.863176 27.1307933,14.097219 C27.1078146,14.3678579 27.0729209,14.635438 27.0244101,14.8984172 C26.9818569,15.129056 27.1345304,15.3512105 27.3651691,15.3937638 C27.3907011,15.3980191 27.4177624,15.4004131 27.4432944,15.4004131 C27.6441458,15.4004131 27.8222177,15.2581124 27.8605156,15.0530056 C27.9141328,14.7627923 27.9530026,14.4674189 27.9785346,14.1686949 C27.9981091,13.9346519 27.8252764,13.7294924 27.5912334,13.7099178 Z M9.72051935,13.8678305 C9.48732739,13.8908093 9.31684875,14.0992139 9.34152965,14.333257 C9.37131695,14.6311299 9.41748725,14.9248803 9.47450864,15.2142426 C9.51450872,15.4159451 9.6917695,15.5566637 9.89006777,15.5566637 C9.91815294,15.5566637 9.94590533,15.5543096 9.97484156,15.5483522 C10.2054803,15.5023946 10.3540576,15.2795091 10.3089512,15.0480184 C10.2561851,14.7850391 10.2165442,14.517459 10.1876079,14.2468202 C10.1637781,14.0127772 9.95115811,13.8422985 9.72051935,13.8678305 Z M26.9678943,16.1866513 C26.8017373,16.1910394 26.6460851,16.2918907 26.5822552,16.4559335 C26.4835316,16.7087 26.3748344,16.955629 26.253132,17.1956295 C26.1467488,17.4058427 26.2299405,17.661907 26.4393026,17.7674392 C26.5005793,17.7980775 26.5665905,17.8123192 26.6321225,17.8123192 C26.7878675,17.8123192 26.9362185,17.7268408 27.0111122,17.5796064 C27.1438785,17.3157761 27.2662064,17.0442198 27.3751427,16.7667725 C27.4611004,16.5480486 27.3528423,16.3000158 27.1341184,16.2149092 C27.0790119,16.1934198 27.0232799,16.1851883 26.9678943,16.1866513 Z M10.3887386,16.3329282 C10.3336057,16.3323163 10.2780073,16.3440457 10.2241774,16.3661734 C10.0063046,16.4555353 9.90210184,16.7026762 9.99146372,16.9196979 C10.1055074,17.1954431 10.2309195,17.4654173 10.3687921,17.7275455 C10.445388,17.8722266 10.59463,17.9552719 10.7461197,17.9552719 C10.8133539,17.9552719 10.8809472,17.9385961 10.9439261,17.9054045 C11.151586,17.7956171 11.2315734,17.5379306 11.121786,17.3302706 C10.9958283,17.0919723 10.8814927,16.8474373 10.7793649,16.597224 C10.7123435,16.4338195 10.554138,16.3347631 10.3887386,16.3329282 Z M25.6730117,18.4007519 C25.5650327,18.414369 25.4627721,18.4700337 25.3904307,18.563651 C25.225324,18.7772684 25.0481832,18.9828935 24.863502,19.1803407 C24.7035017,19.3522559 24.7123842,19.6220701 24.8834484,19.7820704 C24.9660018,19.8578152 25.0705101,19.895103 25.17434,19.895103 C25.2883828,19.895103 25.4017745,19.8498237 25.485179,19.7604619 C25.6877326,19.5434402 25.8815091,19.3171631 26.0636371,19.082269 C26.2074672,18.8967367 26.1718952,18.6293558 25.9855119,18.4855257 C25.8931713,18.4140362 25.7809906,18.3871349 25.6730117,18.4007519 Z M11.7251778,18.5254194 C11.6169861,18.51393 11.5041663,18.5432254 11.4126768,18.6168426 C11.2296977,18.7640769 11.2006151,19.0322689 11.3478494,19.215248 C11.5342336,19.4467378 11.7303242,19.6707008 11.9362821,19.8834672 C12.0196865,19.9702759 12.1314952,20.0114598 12.2421338,20.0114598 C12.3485169,20.0114598 12.4554584,19.9717789 12.5380118,19.8917787 C12.7065228,19.7283741 12.71139,19.45856 12.5479854,19.290049 C12.3598999,19.095155 12.1804443,18.8927342 12.0110822,18.6816699 C11.9370395,18.5893293 11.8333695,18.5369088 11.7251778,18.5254194 Z M17.8023176,18.653412 C17.9095519,18.653412 18.0119189,18.671138 18.1114936,18.6949678 C18.1336213,18.7000742 18.1558554,18.7047815 18.1779831,18.71159 C18.5073454,18.8103136 18.7825724,19.0356068 18.9442748,19.3598628 L21.2630956,24.0108023 C20.9669248,24.087399 20.7186401,24.2850981 20.5799164,24.5676519 L19.3066424,27.1590801 C19.2470678,27.2816335 19.1314029,27.2879237 19.0905517,27.2870727 C19.0445942,27.2845195 18.9337957,27.2637484 18.8844338,27.1241736 L17.9801767,24.7654583 C17.8244317,24.3586489 17.4584736,24.0943931 17.022728,24.0739675 C16.5835782,24.0467334 16.1969289,24.2850581 16.0054392,24.6756972 L14.7138808,27.2953842 C14.6534552,27.4119801 14.5453699,27.4192406 14.5011144,27.4184463 C14.4577101,27.4158363 14.3492256,27.3985222 14.3049702,27.2887348 L13.6251152,25.4286911 L16.6603605,19.3598628 C16.8807864,18.9173087 17.3086996,18.653412 17.8023176,18.653412 Z M23.9658934,20.176021 C23.8582336,20.1591061 23.7445372,20.1818857 23.6500689,20.250822 C23.4321961,20.4091202 23.205068,20.5576175 22.9718761,20.694639 C22.7701735,20.8137882 22.7031249,21.0755309 22.8222741,21.2780845 C22.9022742,21.4117018 23.0440966,21.4858645 23.1896288,21.4858645 C23.2636715,21.4858645 23.3376342,21.4676857 23.4057195,21.4276856 C23.6618902,21.2753449 23.9112524,21.1134569 24.1504018,20.9389885 C24.3410405,20.8011159 24.3813597,20.535357 24.2434871,20.3455694 C24.1745508,20.2506756 24.0735532,20.1929359 23.9658934,20.176021 Z M33.4323353,24.5144603 C33.9259533,24.5144603 34.3530154,24.7792081 34.5742925,25.2209119 L36.3611982,28.7947216 C36.1628999,28.8789771 35.9936834,29.0259323 35.8941087,29.2318902 L34.9915137,31.0852845 L35.3738285,31.2714551 L34.8701705,31.0686624 L34.1936398,29.3033661 C34.0617246,28.9595356 33.7509793,28.7352807 33.3824688,28.7182585 C33.0097013,28.7131521 32.6848342,28.8966503 32.5214296,29.2285659 L31.550683,31.196655 L31.9313348,31.3844877 L31.445962,31.1949928 L30.8292722,29.5078218 C30.7492721,29.289949 30.5904419,29.1246159 30.3904407,29.0207859 L32.2903781,25.2209119 C32.5116552,24.778357 32.9378662,24.5144603 33.4323353,24.5144603 Z M21.5523251,24.8286235 C21.589772,24.8303256 21.6690675,24.8575197 21.7235357,24.9366688 L30.7262133,42.9918913 L30.6879817,43.0533936 L4.91499127,43.0533936 L4.86013737,42.9619713 L13.1015099,26.4759008 L13.5104205,27.5929243 C13.6695698,27.9886698 14.0323629,28.2473673 14.4578956,28.2677929 C14.475768,28.268644 14.494877,28.2694551 14.5127494,28.2694551 C14.9170063,28.2694551 15.2778573,28.0503857 15.4701981,27.6810224 L16.7667437,25.0513635 C16.8254672,24.9305122 16.93947,24.924182 16.9811722,24.925033 C17.0262786,24.9267352 17.1346431,24.9453522 17.1823028,25.0713099 L18.0848978,27.4183895 C18.2321321,27.8362627 18.5989814,28.1117552 19.0406844,28.1381382 C19.4985576,28.1551595 19.8780792,27.9297199 20.0712711,27.5314212 L21.1783218,25.2608048 L21.3378966,24.954954 C21.3974712,24.8341018 21.5106229,24.8303256 21.5523251,24.8286235 Z M32.9037444,29.4147365 L33.4007531,29.6092186 L34.0722966,31.3628783 C34.1965521,31.7109641 34.5132949,31.9491296 34.8818063,31.9712574 C35.2477645,31.9874276 35.5944409,31.7903932 35.7561433,31.4576257 L36.6570762,29.6058935 L36.2764235,29.4197229 L36.7667837,29.6075556 L43.089935,42.2538575 C43.1767429,42.429177 43.1679803,42.6239519 43.0650014,42.7907607 C42.9628735,42.9558674 42.7919949,43.0517314 42.5962498,43.0517314 L31.6005504,43.0517314 C31.6005504,43.0483272 31.6005495,43.0451629 31.6005504,43.0417586 C31.6031035,42.9898436 31.5965342,42.9366121 31.5905767,42.883846 C31.5871725,42.858314 31.5882227,42.8329148 31.5822652,42.8073829 C31.566095,42.7299359 31.5407358,42.6528481 31.5041399,42.5796564 L27.5579891,34.6840287 L29.9981531,29.8036998 C30.0083659,29.8002956 30.0211855,29.8013066 30.0313983,29.7970513 L30.6514123,31.4975202 C30.7867317,31.831989 31.0951238,32.0497945 31.4542726,32.0676669 C31.4704429,32.068518 31.4854965,32.069329 31.5008157,32.069329 C31.842093,32.069329 32.1502451,31.8838904 32.3136496,31.5689961 L33.2843963,29.6025692 L32.9037444,29.4147365 Z"/>
</svg>
