<svg xmlns="http://www.w3.org/2000/svg" width="974" height="603" viewBox="0 0 974 603">
  <g fill="none" transform="translate(0 .006)">
    <circle cx="391.76" cy="157.829" r="68.573" fill="#F5DD48"/>
    <polyline fill="#B9EFE9" points="307.638 442.609 227.09 363.243 207.115 343.56 147.495 284.816 73.589 363.712 0 442.279"/>
    <polygon fill="#B9EFE9" points="704.31 443.088 159.71 443.088 227.09 370.048 351.58 224.028 359.97 214.188 472.58 82.098 550.5 205.508 552.54 208.738 651.67 365.718"/>
    <polyline fill="#B9EFE9" points="974 442.609 839.483 283.889 773.539 206.084 709.804 285.997 651.67 358.912 585.18 442.279"/>
    <polygon fill="#FFF" points="207.115 343.56 171.622 367.357 129.717 350.849 73.589 363.712 147.495 284.816" opacity=".502"/>
    <polygon fill="#FFF" points="550.5 205.508 538.61 226.398 511.95 198.468 482.74 226.398 466.23 194.658 439.56 226.398 431.94 206.088 414.17 226.398 382.42 206.088 359.97 214.188 472.58 82.098" opacity=".502"/>
    <polygon fill="#FFF" points="839.483 283.889 806.555 324.181 779.888 292.435 739.253 325.451 709.804 285.997 773.539 206.084" opacity=".502"/>
    <path fill="#2F2E41" d="M839.88867,444.146977 L838.11133,443.228977 C861.19333,398.604977 848.85059,340.653777 834.43262,299.896977 C824.642388,272.502401 812.155138,246.148077 797.15479,221.222167 L798.84521,220.153807 C813.923446,245.206411 826.475796,271.694858 836.31738,299.229007 C850.86816,340.358917 863.29785,398.888187 839.88867,444.146977 Z"/>
    <rect width="72.18" height="1.999" x="815.413" y="255.193" fill="#2F2E41" transform="rotate(-79.645 851.504 256.193)"/>
    <rect width="2.001" height="98.351" x="802.5" y="268.512" fill="#2F2E41" transform="rotate(-42.94 803.5 317.688)"/>
    <rect width="58.009" height="2" x="845.996" y="383.188" fill="#2F2E41" transform="rotate(-54.137 875 384.188)"/>
    <circle cx="862" cy="202.688" r="10" fill="#B9EFE9"/>
    <circle cx="754" cy="268.688" r="10" fill="#33CCAB"/>
    <circle cx="798" cy="278.688" r="10" fill="#33CCAB"/>
    <circle cx="778" cy="317.688" r="10" fill="#B9EFE9"/>
    <circle cx="903" cy="342.688" r="10" fill="#33CCAB"/>
    <circle cx="870" cy="353.688" r="10" fill="#33CCAB"/>
    <circle cx="893" cy="385.688" r="10" fill="#33CCAB"/>
    <circle cx="788" cy="203.688" r="10" fill="#33CCAB"/>
    <path fill="#2F2E41" d="M590.88867,442.146977 L589.11133,441.228977 C612.19333,396.604977 599.85059,338.653777 585.43262,297.896977 C575.642388,270.502401 563.155138,244.148077 548.15479,219.222167 L549.84521,218.153807 C564.923446,243.206411 577.475796,269.694858 587.31738,297.229007 C601.86816,338.358917 614.29785,396.888187 590.88867,442.146977 Z"/>
    <rect width="72.18" height="1.999" x="566.412" y="253.192" fill="#2F2E41" transform="rotate(-79.645 602.502 254.192)"/>
    <rect width="2.001" height="98.351" x="553.5" y="266.512" fill="#2F2E41" transform="rotate(-42.94 554.5 315.688)"/>
    <rect width="58.009" height="2" x="596.996" y="381.188" fill="#2F2E41" transform="rotate(-54.137 626 382.188)"/>
    <circle cx="613" cy="200.688" r="10" fill="#33CCAB"/>
    <circle cx="505" cy="266.688" r="10" fill="#33CCAB"/>
    <circle cx="549" cy="276.688" r="10" fill="#33CCAB"/>
    <circle cx="529" cy="315.688" r="10" fill="#33CCAB"/>
    <circle cx="654" cy="340.688" r="10" fill="#B9EFE9"/>
    <circle cx="621" cy="351.688" r="10" fill="#33CCAB"/>
    <circle cx="644" cy="383.688" r="10" fill="#33CCAB"/>
    <circle cx="539" cy="201.688" r="10" fill="#33CCAB"/>
    <path fill="#2F2E41" d="M173.11133,442.146977 L174.88867,441.228977 C151.80667,396.604977 164.14941,338.653777 178.56738,297.896977 C188.357612,270.502401 200.844862,244.148077 215.84521,219.222167 L214.15479,218.153807 C199.076554,243.206411 186.524204,269.694858 176.68262,297.229007 C162.13184,338.358917 149.70215,396.888187 173.11133,442.146977 Z"/>
    <rect width="1.999" height="72.18" x="160.5" y="218.098" fill="#2F2E41" transform="rotate(-10.355 161.5 254.188)"/>
    <rect width="98.351" height="2.001" x="160.324" y="314.688" fill="#2F2E41" transform="rotate(-47.06 209.5 315.688)"/>
    <rect width="2" height="58.009" x="137" y="353.184" fill="#2F2E41" transform="rotate(-35.863 138 382.188)"/>
    <circle cx="152" cy="199.688" r="10" fill="#33CCAB"/>
    <circle cx="259" cy="266.688" r="10" fill="#33CCAB"/>
    <circle cx="215" cy="276.688" r="10" fill="#33CCAB"/>
    <circle cx="235" cy="315.688" r="10" fill="#33CCAB"/>
    <circle cx="110" cy="340.688" r="10" fill="#33CCAB"/>
    <circle cx="143" cy="351.688" r="10" fill="#33CCAB"/>
    <circle cx="120" cy="383.688" r="10" fill="#B9EFE9"/>
    <circle cx="225" cy="201.688" r="10" fill="#33CCAB"/>
    <circle cx="430.01" cy="420.089" r="12.034" fill="#2F2E41"/>
    <path fill="#FEDCB4" d="M423.51211,429.234747 C423.51211,429.234747 423.75279,433.566887 420.8647,434.048237 L424.95616,443.915887 L430.01033,452.098827 L434.34247,452.098827 L436.98989,449.692077 L436.50854,446.563307 L435.06449,441.027797 L433.37977,439.343077 C433.37977,439.343077 433.62044,432.363517 435.78651,429.234747 C437.95258,426.105977 423.51211,429.234747 423.51211,429.234747 Z"/>
    <path fill="#000" d="M423.51211,429.234747 C423.51211,429.234747 423.75279,433.566887 420.8647,434.048237 L424.95616,443.915887 L430.01033,452.098827 L434.34247,452.098827 L436.98989,449.692077 L436.50854,446.563307 L435.06449,441.027797 L433.37977,439.343077 C433.37977,439.343077 433.62044,432.363517 435.78651,429.234747 C437.95258,426.105977 423.51211,429.234747 423.51211,429.234747 Z" opacity=".1"/>
    <circle cx="433.38" cy="408.537" r="5.776" fill="#2F2E41"/>
    <path fill="#2F2E41" d="M427.84426,406.129997 C427.844257,404.598057 428.452816,403.128861 429.53606,402.045615 C430.619305,400.962369 432.0885,400.353807 433.62044,400.353807 C433.69654,400.353807 433.77195,400.356627 433.84734,400.359547 C431.703669,399.711555 429.378625,400.361129 427.881228,402.026368 C426.38383,403.691606 425.983992,406.072342 426.855235,408.135388 C427.726478,410.198433 429.711755,411.571913 431.9495,411.659767 C429.512046,410.922542 427.844611,408.676501 427.84426,406.129997 Z"/>
    <path fill="#FEDCB4" d="M422.06807,434.288917 L419.66132,434.048247 C418.297982,433.654234 416.828056,434.021716 415.81053,435.010947 C414.12581,436.695667 416.05121,455.708947 416.05121,455.708947 L422.06807,451.617487 L423.03077,441.990487 L422.06807,434.288917 Z"/>
    <path fill="#FFBCA3" d="M488.231458,589.436472 C470.878932,576.877144 467.896564,569.222917 432.453539,569.222917 C397.010515,569.222917 368.588139,575.032608 368.588139,592.42436 C368.588139,609.816113 505.583984,601.9958 488.231458,589.436472 Z" opacity=".5"/>
    <path fill="#FFBCA3" d="M846.643319,575.207402 C829.290792,562.648074 826.308424,554.993847 790.8654,554.993847 C755.422375,554.993847 727,560.803538 727,578.19529 C727,595.587043 863.995845,587.76673 846.643319,575.207402 Z" opacity=".5" transform="matrix(-1 0 0 1 1575.163 0)"/>
    <path fill="#FFBCA3" d="M314.617211,547.207402 C287.406059,534.648074 282.729295,526.993847 227.149748,526.993847 C171.570202,526.993847 127,532.803538 127,550.19529 C127,567.587043 341.828364,559.76673 314.617211,547.207402 Z" opacity=".5" transform="matrix(-1 0 0 1 444 0)"/>
    <path fill="#FEDCB4" d="M410.275 508.898007L406.90555 527.911287C406.90555 527.911287 404.73948 535.853547 402.09206 538.260287 399.44464 540.667027 395.35318 560.643007 394.39048 564.975147 393.42778 569.307287 393.18711 571.714037 391.98374 573.398757 390.78037 575.083477 391.98374 581.100347 391.98374 581.100347L394.63116 581.100347 398.48195 580.378347C398.48195 580.378347 399.20395 571.232717 399.92595 569.547997 400.64795 567.863277 412.44103 542.592457 412.44103 542.592457 412.44103 542.592457 420.38329 530.799457 421.82733 524.301187 422.919287 519.951123 424.707298 515.806192 427.12217 512.026797L410.275 508.898007zM434.58314 507.935307L437.71191 529.836687C437.71191 529.836687 437.71191 536.575567 438.67461 539.222987 439.63731 541.870407 440.35933 557.514257 441.32203 561.124367 442.28473 564.734477 444.4508 572.676747 443.72877 573.639447 442.884296 575.185982 442.160133 576.795234 441.5627 578.452937L443.96945 583.747777 450.46766 579.174957 449.50496 539.704337C449.50496 539.704337 452.15238 506.250587 450.46766 505.287887 448.78294 504.325187 440.35933 501.437097 434.58314 507.935307z"/>
    <path fill="#2F2E41" d="M416.05121 484.349207L411.23772 497.586307C411.23772 497.586307 407.6276 511.545427 409.55299 512.267447 411.47838 512.989467 433.37977 516.118237 433.86112 513.470817 434.082319 512.43815 434.243043 511.393449 434.34247 510.342047 434.34247 510.342047 453.11508 511.064047 453.356001 506.731937 453.366299 500.862059 453.044886 494.996281 452.39305 489.162697 451.914165 487.128811 450.14781 485.656848 448.06091 485.552577 445.41349 485.552577 422.54942 479.535717 416.05121 484.349207zM392.4651 578.212257C392.935693 577.488888 393.898511 577.274929 394.63118 577.730907 396.07518 578.452907 398.96332 578.212257 398.96332 578.212257L398.24132 584.710467C398.24132 584.710467 401.12942 596.262847 395.83458 596.262847 390.53974 596.262847 387.65164 592.412057 388.13299 590.968007 388.61434 589.523957 389.81772 578.212257 389.81772 578.212257 389.81772 578.212257 392.13017 572.530207 392.22446 572.195397 392.31875 571.860587 392.4651 578.212257 392.4651 578.212257zM442.76607 577.008917C442.76607 577.008917 442.28473 579.656337 444.4508 579.415657 446.61687 579.174977 450.22698 577.008917 450.46766 577.249587 451.085737 578.455052 451.492746 579.757488 451.67103 581.100387 451.91171 582.785107 452.39303 586.395217 454.55912 588.079947 456.72521 589.764677 460.09464 595.059507 456.24385 595.300177 452.39306 595.540847 445.41349 595.300177 445.17285 592.893437 444.93221 590.486697 444.93217 587.839267 444.93217 587.839267 444.93217 587.839267 442.7661 588.079947 442.04408 587.598597 441.32206 587.117247 436.50857 584.229147 437.95261 580.378357 439.39665 576.527567 443.47107 574.046187 443.47107 574.046187L442.76607 577.008917z"/>
    <circle cx="429.048" cy="423.459" r="9.386" fill="#FEDCB4"/>
    <path fill="#FEDCB4" d="M434.10179,441.027797 C434.10179,441.027797 438.43393,441.027797 439.39663,443.434537 C440.35933,445.841277 438.43393,450.895447 438.43393,450.895447 L436.23923,445.530957 L434.10179,441.027797 Z"/>
    <path fill="#29A389" d="M418.458,433.807557 L421.346,433.807557 C421.346,433.807557 428.80691,444.878557 430.01029,445.841287 C431.21367,446.804017 435.5458,447.044657 435.5458,446.322637 C435.5458,445.600617 433.37973,439.343077 433.37973,439.343077 L435.30512,440.787077 L438.43389,448.488667 C438.43389,448.488667 446.8575,469.668017 446.13548,471.834087 C445.892873,472.374671 445.884529,472.991497 446.112423,473.538445 C446.340317,474.085394 446.784175,474.513803 447.33885,474.722187 C447.57952,474.962857 450.22694,480.498377 449.02357,482.664447 C447.8202,484.830517 450.22694,487.477937 450.22694,487.477937 C450.22694,487.477937 451.43032,492.772777 447.33885,493.494797 C443.24738,494.216817 441.08131,490.366027 436.26785,492.291427 C431.45439,494.216827 424.95615,494.457497 423.5121,491.569427 C422.479877,489.384885 421.59542,487.133533 420.86469,484.830547 C420.86469,484.830547 418.21727,489.403357 419.42069,493.013477 C420.62411,496.623597 418.93934,492.772807 417.73597,492.772807 C416.5326,492.772807 414.36652,492.532127 414.36652,491.088077 C414.36652,489.644027 409.553,465.335917 409.553,465.335917 L416.29189,449.932757 C416.29189,449.932757 422.54943,447.044657 421.8274,443.675217 C421.10537,440.305777 422.06807,435.492287 418.458,433.807557 Z"/>
    <path fill="#FEDCB4" d="M419.2445,435.338207 C418.026605,434.239641 416.281523,433.948504 414.77296,434.592207 C411.828644,435.85411 409.634542,438.408196 408.83096,441.509107 C406.66489,448.488667 402.09207,467.020597 403.05477,471.593417 C404.01747,476.166237 411.95977,496.623567 411.95977,496.623567 C412.183823,498.484277 412.505163,500.331977 412.92247,502.159077 C413.16314,502.399757 416.77326,493.494797 416.77326,493.494797 L410.51572,469.668017 L418.9393,443.915917 C418.9393,443.915917 422.36609,438.261687 419.2445,435.338207 Z"/>
    <ellipse cx="429.89" cy="415.516" fill="#2F2E41" rx="9.266" ry="6.017"/>
    <path fill="#2F2E41" d="M224.593,441.251037 C224.593,441.251037 208.47234,449.931387 207.85231,457.371697 C207.23228,464.812007 197.93191,483.412757 197.93191,483.412757 C197.93191,483.412757 161.35042,472.872327 160.73039,472.252297 C160.11036,471.632267 157.63026,483.412757 157.63026,483.412757 L170.6508,485.272837 L194.8318,493.953187 C194.8318,493.953187 200.41203,502.013517 209.71241,490.853057 C219.01279,479.692597 242.57375,455.511617 242.57375,455.511617 L224.593,441.251037 Z"/>
    <path fill="#2F2E41" d="M221.49288,471.632277 C221.49288,471.632277 241.95372,491.473087 241.33369,495.813277 C240.71366,500.153467 231.41329,535.494887 231.41329,535.494887 L238.85359,539.215047 L243.81379,536.114917 L253.7342,493.333167 C253.7342,493.333167 257.46853,488.093387 250.33115,482.032927 C243.19377,475.972467 238.23356,454.891607 238.23356,454.891607 L221.49288,471.632277 Z"/>
    <circle cx="279.465" cy="421.72" r="10.54" fill="#A0616A"/>
    <path fill="#A0616A" d="M272.335,420.170177 C272.335,420.170177 261.79457,415.209977 260.55452,416.450027 C259.31447,417.690077 263.03463,432.570687 263.03463,432.570687 C263.03463,432.570687 272.95503,426.990457 274.19508,426.990457 C275.43513,426.990457 272.335,420.170177 272.335,420.170177 Z"/>
    <path fill="#F5DD48" d="M266.1347,426.990457 C266.1347,426.990457 263.03458,414.589947 261.79452,414.589947 C260.55446,414.589947 248.77399,416.450027 241.33369,425.130377 C233.89339,433.810727 225.83306,438.770917 223.353,440.631007 C220.87294,442.491097 219.01282,444.351167 223.353,446.211237 C227.69318,448.071307 232.65338,453.031517 234.51345,456.131647 C236.37352,459.231777 248.77403,455.511647 248.77403,455.511647 C248.77403,455.511647 254.35426,444.971217 256.21434,444.971217 C258.07442,444.971217 267.99478,430.710607 266.1347,426.990457 Z"/>
    <path fill="#A0616A" d="M247.53394,440.631007 C247.53394,440.631007 238.85359,452.411487 238.85359,461.091847 C238.85359,469.772207 243.81379,484.032777 243.81379,484.032777 C243.81379,484.032777 248.15397,505.113637 251.87412,497.673337 C255.59427,490.233037 249.39402,480.312627 249.39402,480.312627 L246.91392,457.991717 L251.87412,446.211237 L247.53394,440.631007 Z"/>
    <path fill="#2F2E41" d="M162.68332 472.967527C162.68332 472.967527 155.7702 467.912127 155.15017 469.772197 154.53014 471.632267 145.22977 492.713137 148.3299 493.953197 151.43003 495.193257 160.7304 482.792737 161.35043 482.792737 161.97046 482.792737 160.9161 472.442707 162.68332 472.967527zM242.57374 532.394757C242.57374 532.394757 251.87412 537.354957 253.7342 537.354957 255.59428 537.354957 259.31442 539.835057 254.9742 541.075107 250.63398 542.315157 231.4132 544.175237 230.7932 542.315107 230.1732 540.454977 230.7932 535.494827 230.7932 535.494827 230.7932 535.494827 242.57374 534.254827 242.57374 532.394757zM291.69027 421.529917C291.974168 420.767066 292.075819 419.948414 291.98711 419.139297 291.92937 417.358167 291.80619 415.409677 290.59522 414.102297 289.97479 413.432467 289.10302 412.979867 288.66567 412.178417 288.435983 411.616982 288.249015 411.039006 288.10636 410.449417 287.481686 409.021027 286.205172 407.982618 284.67953 407.661787 283.174274 407.360069 281.630156 407.303551 280.10687 407.494417 277.921623 407.538056 275.756257 407.919265 273.68749 408.624537 271.595058 409.357323 269.959352 411.016934 269.257 413.119777 269.074211 413.929407 268.987231 414.757718 268.99785 415.587657L268.90723 419.039917C269.615732 419.664054 270.640507 419.774356 271.4656 419.315287 272.30617 418.941887 273.01826 418.314487 273.8718 417.971777 274.71647 417.544518 275.742168 417.730434 276.38314 418.426977 276.550716 418.733011 276.696841 419.05031 276.82046 419.376587 278.52223 422.765037 283.09469 419.158757 285.46998 419.210657 287.59523 419.257087 290.13288 424.870057 291.69027 421.529917z"/>
    <path fill="#2F2E41" d="M257.96781,544.218829 C273.41939,544.218829 275.90797,538.462407 276.01091,538.205067 L274.86228,537.737627 C274.83685,537.795757 272.19145,543.528567 255.61667,542.935787 C239.52811,542.360567 214.63446,542.856467 211.30787,542.927317 C210.37541,541.348787 206.19387,534.944487 200.29032,536.127017 L200.53372,537.342847 C206.20599,536.204517 210.36512,543.772587 210.4069,543.849477 L210.58673,544.183107 L210.96638,544.175237 C211.23945,544.169177 238.42853,543.563687 255.57187,544.174627 C256.40321,544.204294 257.201857,544.219027 257.96781,544.218829 Z"/>
    <rect width="4.96" height="4.96" x="255.594" y="545.415" fill="#2F2E41" rx="2.298" transform="rotate(180 258.074 547.895)"/>
    <rect width="4.96" height="4.96" x="212.813" y="545.415" fill="#2F2E41" rx="2.298" transform="rotate(180 215.293 547.895)"/>
    <path fill="#F5DD48" d="M264.27463,425.750407 C264.27463,425.750407 261.32716,440.676027 258.15071,443.443637 C254.97426,446.211247 254.22729,448.892307 252.12071,449.721857 C250.01413,450.551407 242.57378,441.871057 242.57378,441.251037 C242.57378,440.631017 264.27463,425.750407 264.27463,425.750407 Z"/>
    <path fill="#FFBCA3" d="M145.75053,138.367874 C134.833494,127.407333 119.090258,122.753744 103.968637,126.017442 C88.8470168,129.28114 76.4245769,140.013725 71,154.501274 L154.4586,150.634344 C152.25895,146.089299 149.315787,141.943464 145.75053,138.367874 Z" opacity=".4"/>
    <path fill="#FFBCA3" d="M401.45218 13.3740272C390.535144 2.41348632 374.791908-2.24010321 359.670287 1.02359474 344.548667 4.28729268 332.126227 15.0198775 326.70165 29.5074272L410.16025 25.6404972C407.9606 21.0954515 405.017437 16.9496165 401.45218 13.3740272zM718.45218 180.374027C707.535144 169.413486 691.791908 164.759897 676.670287 168.023595 661.548667 171.287293 649.126227 182.019878 643.70165 196.507427L727.16025 192.640497C724.9606 188.095451 722.017437 183.949617 718.45218 180.374027L718.45218 180.374027z" opacity=".2"/>
    <path fill="#F5DD48" d="M705.123081,543.712625 C705.124841,547.897322 701.899144,551.375264 697.72615,551.687987 L697.72,551.687987 C697.52311,551.706467 697.32618,551.712625 697.12309,551.712625 C695.001339,551.712625 692.966473,550.869853 691.466168,549.369549 C689.965864,547.869245 689.123029,545.834378 689.12309,543.712625 C689.122068,543.671504 689.124127,543.630363 689.12925,543.589547 C689.18698,539.561834 692.233459,536.206738 696.23694,535.761827 C696.531245,535.729765 696.827044,535.713342 697.12309,535.712625 C701.007728,535.709857 704.331518,538.501328 705,542.328017 L705,542.334177 C705.081451,542.789151 705.122637,543.25042 705.123081,543.712625 L705.123081,543.712625 Z"/>
    <path fill="#2F2E41" d="M775.00006,532.206197 C775.00006,537.176777 767.57311,536.491197 766,541.206197 C760.49693,557.700417 756.949,538.755257 757,532.206197 C757,527.235618 761.029451,523.206167 766.00003,523.206167 C770.970609,523.206167 775.00006,527.235618 775.00006,532.206197 L775.00006,532.206197 Z"/>
    <path fill="#3F3D56" d="M763.45687 557.172237C763.45687 557.172237 763.34977 568.505167 761.87364 569.243237 760.39751 569.981307 752.01684 571.564537 753.49297 574.147767 755.102302 576.795456 758.477477 577.759792 761.24267 576.361967 763.8259 574.885837 770.09947 566.029037 770.09947 566.029037L763.45687 557.172237zM794.82469 567.136137C794.82469 567.136137 794.82469 567.244707 794.83553 567.437807 795.021607 570.068344 796.462277 572.448582 798.706533 573.833379 800.950789 575.218177 803.724345 575.438288 806.15893 574.424807 807.23567 574.002147 808.16885 573.937577 808.00279 575.100037 807.63379 577.683267 807.74085 581.159397 809.58602 581.159397 811.43119 581.159397 814.01442 576.730997 812.53829 571.933567 811.365062 568.539479 809.752188 565.313739 807.74085 562.338707L794.82469 567.136137z"/>
    <path fill="#000" d="M763.45687 557.172237C763.45687 557.172237 763.34977 568.505167 761.87364 569.243237 760.39751 569.981307 752.01684 571.564537 753.49297 574.147767 755.102302 576.795456 758.477477 577.759792 761.24267 576.361967 763.8259 574.885837 770.09947 566.029037 770.09947 566.029037L763.45687 557.172237zM794.82469 567.136137C794.82469 567.136137 794.82469 567.244707 794.83553 567.437807 795.021607 570.068344 796.462277 572.448582 798.706533 573.833379 800.950789 575.218177 803.724345 575.438288 806.15893 574.424807 807.23567 574.002147 808.16885 573.937577 808.00279 575.100037 807.63379 577.683267 807.74085 581.159397 809.58602 581.159397 811.43119 581.159397 814.01442 576.730997 812.53829 571.933567 811.365062 568.539479 809.752188 565.313739 807.74085 562.338707L794.82469 567.136137z" opacity=".1"/>
    <path fill="#3F3D56" d="M755.39488,533.907007 C756.178542,532.180916 757.345692,530.656373 758.80748,529.449437 C761.634459,527.085825 765.447666,526.273796 768.99237,527.280547 C777.48013,529.494747 778.58723,535.768317 778.58723,535.768317 L778.58723,538.300317 C778.554644,540.785335 780.041261,543.038813 782.33859,543.986787 C784.21726,544.720917 815.15483,543.686087 817,541.840917 C818.331777,540.354559 819.439455,538.681757 820.288,536.875417 L820.288,536.947117 C820.317745,540.327729 819.436652,543.65398 817.73725,546.576557 C816.994219,547.623813 816.595904,548.876537 816.59767,550.160607 C816.96667,552.743837 818.0738,559.755477 815.85961,562.338707 C813.64542,564.921937 814.75251,566.767107 817.33574,567.136137 C819.91897,567.505167 824.34737,566.767137 823.97834,571.195507 C823.60931,575.623877 824.34734,577.469067 822.5022,577.469067 C820.65706,577.469067 819.84517,576.900287 818,572.840917 C818,572.840917 816.59765,571.933567 811.43119,573.409697 C808.07298,574.369187 803.66089,575.278107 802.37006,572.670877 C799.51539,566.904977 781.15796,568.041877 776.97821,573.813577 C775.86623,575.458346 774.506482,576.92118 772.94721,578.150177 C772.219057,578.721761 771.416112,579.191014 770.56072,579.544877 C768.34652,580.329077 765.67103,580.605877 763.82586,578.576167 C760.13557,574.516797 770,573.840917 770,573.840917 C770,573.840917 771.5756,570.088407 770.83753,567.505167 C770.83753,567.505167 761.98074,565.660007 761.6117,554.219977 C761.6117,554.219977 749.80264,554.219977 747.95748,548.315447 L746.11231,542.410917 L749.66224,540.280917 C752.158952,538.782883 754.150861,536.572708 755.38216,533.934227 L755.39488,533.907007 Z"/>
    <ellipse cx="746.279" cy="542.703" fill="#2F2E41" rx="1.721" ry="2.214"/>
    <path fill="#2F2E41" d="M783,535.840917 C783,541.363767 774.74792,540.601917 773,545.840917 C766.8855,564.167757 762.94336,543.117647 763,535.840917 C763,530.31807 767.477153,525.840917 773,525.840917 C778.522847,525.840917 783,530.31807 783,535.840917 L783,535.840917 Z"/>
  </g>
</svg>
