<svg xmlns="http://www.w3.org/2000/svg" width="939" height="568" viewBox="0 0 939 568">
  <g fill="none" fill-rule="evenodd">
    <path fill="#FFBCA3" fill-rule="nonzero" d="M939,435.89427 C939,470.335375 728.797689,531.360714 469.5,531.360714 C210.202311,531.360714 0,470.335375 0,435.89427 C0,401.453164 210.202311,406.638424 469.5,406.638424 C728.797689,406.638424 939,401.453156 939,435.89427 Z" transform="matrix(1 0 0 -1 0 937.721)"/>
    <rect width="603" height="138.5" x="142.5" y="356" fill="#46455B" fill-rule="nonzero"/>
    <polygon fill="#46455B" fill-rule="nonzero" points="146.5 212.5 89.5 255.5 133.5 295.5 158.5 255.5 192.5 212.5"/>
    <polygon fill="#46455B" fill-rule="nonzero" points="735.5 264.5 727.5 255.5 676.5 226.5 723.5 225.5 796.5 255.5 766.5 274.5"/>
    <polygon fill="#46455B" fill-rule="nonzero" points="142.5 266.5 192.5 212.5 192.5 336.5 158.5 364.5 137.5 335.5"/>
    <polygon fill="#46455B" fill-rule="nonzero" points="736.5 288.5 727.5 255.5 710.5 233.5 676.5 226.5 676.5 364.5 745.5 364.5"/>
    <path fill="#46455B" fill-rule="nonzero" d="M203.55,175.5 L670.45,175.5 C679.038028,175.5 686,182.461972 686,191.05 L686,333.5 L188,333.5 L188,191.05 C188,182.461972 194.961972,175.5 203.55,175.5 Z"/>
    <polygon fill="#46455B" fill-rule="nonzero" points="158.5 364.5 192.5 322.5 676.5 322.5 727.5 364.5"/>
    <polygon fill="#000" fill-rule="nonzero" points="158.5 364.5 192.5 322.5 676.5 322.5 727.5 364.5" opacity=".05"/>
    <rect width="69" height="239" x="89.5" y="255.5" fill="#46455B" fill-rule="nonzero"/>
    <rect width="69" height="239" x="89.5" y="255.5" fill="#FFF" fill-rule="nonzero" opacity=".05"/>
    <rect width="69" height="239" x="727.5" y="255.5" fill="#46455B" fill-rule="nonzero"/>
    <rect width="69" height="239" x="727.5" y="255.5" fill="#FFF" fill-rule="nonzero" opacity=".05"/>
    <ellipse cx="376" cy="105.5" fill="#2F2E41" fill-rule="nonzero" rx="80" ry="105.5"/>
    <rect width="89" height="124" x="322" y="60" fill="#2F2E41" fill-rule="nonzero"/>
    <rect width="89" height="124" x="322" y="60" fill="#000" fill-rule="nonzero" opacity=".1"/>
    <path fill="#FBBEBE" fill-rule="nonzero" d="M328.46,132.72 C322.800986,139.612154 314.012716,143.135006 305.16,142.06 C304.76,148.28 308.98,153.74 312.97,158.53 L344.2,196 C344.450467,196.605281 345.017999,197.02 345.670763,197.074748 C346.323527,197.129496 346.95221,196.815104 347.3,196.26 L395,151.01 C390.24,153.01 384.61,149.84 382,145.38 C379.39,140.92 379.13,135.56 378.89,130.38 C378.543333,122.646667 378.21,114.92 377.89,107.2 C377.81,105.48 377.64,103.58 376.37,102.42 C375.381944,101.676251 374.20274,101.228846 372.97,101.13 C365.44,99.84 341.97,93.13 337.62,101.05 C335.62,104.66 336.52,111.7 335.62,115.78 C334.27,121.83 332.36,127.86 328.46,132.72 Z"/>
    <path fill="#000" fill-rule="nonzero" d="M328.46,132.72 C322.800986,139.612154 314.012716,143.135006 305.16,142.06 C304.76,148.28 308.98,153.74 312.97,158.53 L344.2,196 C344.450467,196.605281 345.017999,197.02 345.670763,197.074748 C346.323527,197.129496 346.95221,196.815104 347.3,196.26 L395,151.01 C390.24,153.01 384.61,149.84 382,145.38 C379.39,140.92 379.13,135.56 378.89,130.38 C378.543333,122.646667 378.21,114.92 377.89,107.2 C377.81,105.48 377.64,103.58 376.37,102.42 C375.381944,101.676251 374.20274,101.228846 372.97,101.13 C365.44,99.84 341.97,93.13 337.62,101.05 C335.62,104.66 336.52,111.7 335.62,115.78 C334.27,121.83 332.36,127.86 328.46,132.72 Z" opacity=".1"/>
    <circle cx="363" cy="78" r="47" fill="#FBBEBE" fill-rule="nonzero"/>
    <path fill="#F5DD48" fill-rule="nonzero" d="M346,172.64 L338.46,148.87 C335.46,139.35 331.2,128.56 321.7,125.49 C315.7,123.57 309.23,125.33 302.98,124.8 C290.82,123.75 278.98,114.08 267.61,118.51 C253.61,123.95 253.73,145.45 241.3,153.89 C241.3,173.98 247.79,192.64 251.3,212.41 C254.81,232.18 255.82,253.52 246.66,271.41 C242.78,278.99 237.23,285.59 233.09,293.03 C226.303092,305.298492 223.526619,319.383671 225.15,333.31 C278.23,333.976667 331.316667,334.136667 384.41,333.79 C383.92,326.91 380.85,320.13 380.35,313.25 C380.050286,311.173242 380.214211,309.055881 380.83,307.05 C382,304.05 384.98,302.26 387.53,300.31 C390.94639,297.677104 393.839576,294.427781 396.06,290.73 C399.6,284.84 401.28,278.05 402.92,271.37 L422.8,190.37 C425.17,180.72 427.47,170.19 423.35,161.15 C418.83,151.22 407.99,146.06 397.98,141.71 C391.98,139.08 385.08,136.42 378.98,138.84 C373.98,140.84 370.84,145.63 367.68,149.97 C361.566445,158.517773 354.266456,166.15111 346,172.64 L346,172.64 Z"/>
    <path fill="#000" fill-rule="nonzero" d="M240.77,161.02 C239.21,166.86 240.08,173.1 238.93,179.02 C237,188.93 229.77,196.81 224.93,205.65 C217.429076,219.377172 215.529845,235.474045 219.63,250.57 C220.85,254.98 223.02,259.7 227.3,261.32 C230.36,262.49 233.78,261.76 237.05,262.05 C241.37,262.43 245.86,264.57 249.85,262.87 C254.78,260.77 255.76,254.36 256.3,249.03 C257.544354,236.669484 260.205145,224.492928 264.23,212.74 C268.23,200.98 273.72,189.31 273.64,176.88 C273.58,168.12 262.36,176.18 255.04,170.99 C246.78,165.17 243.48,150.93 240.77,161.02 Z" opacity=".1"/>
    <path fill="#F5DD48" fill-rule="nonzero" d="M238.77,160.02 C237.21,165.86 238.08,172.1 236.93,178.02 C235,187.93 227.77,195.81 222.93,204.65 C215.429076,218.377172 213.529845,234.474045 217.63,249.57 C218.85,253.98 221.02,258.7 225.3,260.32 C228.36,261.49 231.78,260.76 235.05,261.05 C239.37,261.43 243.86,263.57 247.85,261.87 C252.78,259.77 253.76,253.36 254.3,248.03 C255.544354,235.669484 258.205145,223.492928 262.23,211.74 C266.23,199.98 271.72,188.31 271.64,175.88 C271.58,167.12 267.73,157.44 260.41,152.25 C252.15,146.43 241.48,149.93 238.77,160.02 Z"/>
    <path fill="#FBBEBE" fill-rule="nonzero" d="M251.824849,234.669607 C255.824849,233.519607 260.034849,232.259607 262.974849,229.309607 C265.254849,227.009607 266.524849,223.919607 268.124849,221.099607 C271.314849,215.469607 276.364849,210.479607 282.714849,209.239607 C289.064849,207.999607 296.524849,211.669607 297.884849,217.999607 C298.764849,222.119607 297.044849,226.309607 295.334849,230.169607 C292.774849,235.949607 289.884849,242.009607 284.604849,245.499607 C279.984849,248.549607 274.094849,249.219607 269.554849,252.389607 C265.554849,255.189607 263.034849,259.619607 259.554849,263.069607 C255.005536,267.549868 248.98812,270.231775 242.614849,270.619607 C241.647142,270.734059 240.666232,270.599829 239.764849,270.229607 C238.881857,269.706462 238.140292,268.975196 237.604849,268.099607 C234.664849,264.099607 231.684849,259.979607 230.124849,255.249607 C224.694849,238.759607 240.064849,238.039607 251.824849,234.669607 Z" transform="rotate(42 263.561 239.83)"/>
    <path fill="#FBBEBE" fill-rule="nonzero" d="M355.742197,249.976596 C354.392197,241.916596 354.212197,233.126596 349.232197,226.646596 C345.062197,221.236596 338.132197,218.496596 331.312197,218.036596 C329.312197,217.896596 326.962197,218.096596 325.802197,219.736596 C325.14169,220.893839 324.878271,222.235524 325.052197,223.556596 C325.474062,233.798406 329.295149,243.607974 335.912197,251.436596 C338.402197,254.356596 341.292197,257.016596 343.032197,260.436596 C344.552197,263.386596 345.112197,266.756596 346.522197,269.756596 C348.362197,273.666596 351.522197,276.756596 353.942197,280.356596 C357.37321,285.513676 359.152141,291.593435 359.042197,297.786596 C361.682197,293.476596 361.362197,288.086596 361.612197,283.036596 C361.942197,275.926596 366.922197,272.036596 363.692197,266.236596 C360.462197,260.436596 356.912197,257.026596 355.742197,249.976596 Z" transform="rotate(-38 344.889 257.893)"/>
    <path fill="#000" fill-rule="nonzero" d="M391.74,212.01 C389.21,218.61 387.91,225.67 384.93,232.08 C384.144252,234.085022 382.797127,235.821008 381.05,237.08 C377.85,239.08 373.62,237.84 370.44,235.85 C367.26,233.86 364.44,231.12 360.97,229.8 C359.41,244.99 346.79,258.36 331.71,260.8 C340.71,269.07 350.19,278.26 352.22,290.3 C352.6,292.51 352.73,294.86 353.91,296.77 C355.81,299.82 359.82,300.82 363.42,300.77 C372.57,300.7 380.96,295.87 388.6,290.77 C391.18,289.07 393.79,287.25 395.51,284.69 C397.23,282.13 397.97,278.88 398.62,275.78 C403.04,254.773333 407.456667,233.756667 411.87,212.73 C413.07,207.02 412.87,195.8 404.01,196.93 C398,197.81 393.6,207.18 391.74,212.01 Z" opacity=".1"/>
    <path fill="#F5DD48" fill-rule="nonzero" d="M393.74 212.01C391.21 218.61 389.91 225.67 386.93 232.08 386.144252 234.085022 384.797127 235.821008 383.05 237.08 379.85 239.08 375.62 237.84 372.44 235.85 369.26 233.86 366.44 231.12 362.97 229.8 361.41 244.99 348.79 258.36 333.71 260.8 342.71 269.07 352.19 278.26 354.22 290.3 354.6 292.51 354.73 294.86 355.91 296.77 357.81 299.82 361.82 300.82 365.42 300.77 374.57 300.7 382.96 295.87 390.6 290.77 393.18 289.07 395.79 287.25 397.51 284.69 399.23 282.13 399.97 278.88 400.62 275.78 405.04 254.773333 409.456667 233.756667 413.87 212.73 415.07 207.02 414.87 195.8 406.01 196.93 400 197.81 395.6 207.18 393.74 212.01zM247.86 251.01C247.5 252.84 245.69 253.95 244.05 254.83 240.88 256.54 237.43 258.31 233.86 257.83 230.29 257.35 227.3 254.71 224.96 251.91 223.794286 250.577938 222.787517 249.114767 221.96 247.55 218.35 240.42 217.96 210.08 232.88 219.98 239.04 224.08 235.57 231.08 236.34 237.11 236.676746 240.686153 238.104548 244.072384 240.43 246.81 240.88 247.33 247.63 252.19 247.86 251.01z"/>
    <ellipse cx="375.5" cy="46" fill="#2F2E41" fill-rule="nonzero" rx="44.5" ry="21"/>
    <path fill="#000" fill-rule="nonzero" d="M377.5,60 C353.42,60 333.83,51 333.04,39.7 C331.762523,41.554804 331.066274,43.7479889 331.04,46 C331.04,57.6 350.96,67 375.54,67 C400.12,67 420.04,57.6 420.04,46 C420.04,45.76 420.04,45.53 420.04,45.3 C414.29,53.82 397.43,60 377.5,60 Z" opacity=".1"/>
    <ellipse cx="568.5" cy="109" fill="#2F2E41" fill-rule="nonzero" rx="83.5" ry="100"/>
    <ellipse cx="569" cy="112.5" fill="#2F2E41" fill-rule="nonzero" rx="53" ry="71.5"/>
    <ellipse cx="569" cy="112.5" fill="#000" fill-rule="nonzero" opacity=".1" rx="53" ry="71.5"/>
    <path fill="#A0616A" fill-rule="nonzero" d="M544.63,148.74 C542.63,153.68 538.63,158.93 532.63,159.31 C540.63,165.88 548.73,172.52 558.29,177.31 C567.85,182.1 579.17,184.91 590.05,183.19 C597.73,181.98 604.71,178.61 611.23,174.92 C622.33,168.64 633.23,160.39 636.04,149.21 C627.705777,149.628606 619.3526,149.471566 611.04,148.74 C606.73,148.37 602.32,147.8 598.58,145.92 C593.941591,143.471531 590.490082,139.251819 589.01,134.22 C587.52,129.5 587.55,124.53 587.82,119.64 C587.97,116.79 588.08,113.64 585.89,111.46 C583.7,109.28 580.08,108.99 576.79,108.92 C570.172765,108.785667 563.555309,109.176896 557,110.09 C553.561244,110.446733 550.1547,111.065193 546.81,111.94 C542.47,113.26 542.88,112.75 543.93,116.38 C547.19,127.5 549.18,137.5 544.63,148.74 Z"/>
    <path fill="#000" fill-rule="nonzero" d="M544.63,148.74 C542.63,153.68 538.63,158.93 532.63,159.31 C540.63,165.88 548.73,172.52 558.29,177.31 C567.85,182.1 579.17,184.91 590.05,183.19 C597.73,181.98 604.71,178.61 611.23,174.92 C622.33,168.64 633.23,160.39 636.04,149.21 C627.705777,149.628606 619.3526,149.471566 611.04,148.74 C606.73,148.37 602.32,147.8 598.58,145.92 C593.941591,143.471531 590.490082,139.251819 589.01,134.22 C587.52,129.5 587.55,124.53 587.82,119.64 C587.97,116.79 588.08,113.64 585.89,111.46 C583.7,109.28 580.08,108.99 576.79,108.92 C570.172765,108.785667 563.555309,109.176896 557,110.09 C553.561244,110.446733 550.1547,111.065193 546.81,111.94 C542.47,113.26 542.88,112.75 543.93,116.38 C547.19,127.5 549.18,137.5 544.63,148.74 Z" opacity=".1"/>
    <circle cx="567.5" cy="91.5" r="47" fill="#A0616A" fill-rule="nonzero"/>
    <path fill="#FFBCA3" fill-rule="nonzero" d="M551.3,152.88 C548.23,149.2 545.07,145.44 540.98,142.94 C534.28,138.83 525.98,138.57 518.13,138.44 C509.62,138.29 500.37,138.37 493.64,143.58 C490.64,145.93 488.34,149.15 486.15,152.31 L457.64,193.31 C456.53,194.91 455.36,196.72 455.64,198.65 C455.958917,200.038908 456.650363,201.314626 457.64,202.34 L489,241.5 C490.79,243.73 492.64,246.08 493.24,248.88 C493.84,251.68 493.1,254.62 492.14,257.34 C488.35,268.13 481.14,278.34 481.8,289.71 C482.27,297.13 486.15,303.95 490.9,309.71 C501.8,322.84 517.49,331.38 533.9,336.04 C550.31,340.7 567.54,341.72 584.61,341.83 C616.79,342.04 650.61,338.53 677.19,320.38 L656.3,300.7 C652.17,296.8 647.84,292.6 646.41,287.1 C645.41,283.4 645.89,279.5 646.34,275.71 C647.18,268.78 648.02,261.8 650.26,255.2 C656.49,236.81 672.5,223.72 683.18,207.51 C684.52,205.51 685.82,203.21 685.67,200.78 C685.55,198.73 684.41,196.9 683.3,195.18 C678.42,187.61 673.36,180.08 669.82,171.8 C667.18,165.64 665.39,159.09 662.12,153.24 C658.85,147.39 653.66,142.13 647.12,140.9 C638.7,139.32 630.49,144.59 621.94,144.95 C615.68,145.22 609.15,142.87 603.3,145.1 C596.36,147.75 593.3,155.57 589.41,161.92 C586.54,166.65 577.98,179.59 571.27,176.41 C567.62,174.67 564.27,168.41 561.65,165.34 L551.3,152.88 Z"/>
    <path fill="#FFE9B3" fill-rule="nonzero" d="M588.74,184.67 C587.155878,183.776733 585.316219,183.445453 583.52,183.73 C581.695226,184.080089 580.335723,185.616205 580.21,187.47 L577.32,187.3 C576.986094,187.264587 576.648708,187.281457 576.32,187.35 C575.450152,187.537777 574.897223,188.395152 575.085,189.265 C575.272777,190.134848 576.130152,190.687777 577,190.5 C575.581564,191.062417 574.316895,191.953511 573.31,193.1 C571.739537,195.461182 572.364153,198.646722 574.71,200.24 C577.157141,201.646922 580.268872,201.012574 581.97,198.76 C581.62125,199.993546 582.212642,201.298833 583.37,201.85 C588.79,204.78 591.55,200.8 592.29,196.19 C593.13,191.13 594.21,187.37 588.74,184.67 Z"/>
    <path fill="#000" fill-rule="nonzero" d="M588.74,184.67 C587.155878,183.776733 585.316219,183.445453 583.52,183.73 C581.695226,184.080089 580.335723,185.616205 580.21,187.47 L577.32,187.3 C576.986094,187.264587 576.648708,187.281457 576.32,187.35 C575.450152,187.537777 574.897223,188.395152 575.085,189.265 C575.272777,190.134848 576.130152,190.687777 577,190.5 C575.581564,191.062417 574.316895,191.953511 573.31,193.1 C571.739537,195.461182 572.364153,198.646722 574.71,200.24 C577.157141,201.646922 580.268872,201.012574 581.97,198.76 C581.62125,199.993546 582.212642,201.298833 583.37,201.85 C588.79,204.78 591.55,200.8 592.29,196.19 C593.13,191.13 594.21,187.37 588.74,184.67 Z" opacity=".15"/>
    <path fill="#FFE9B3" fill-rule="nonzero" d="M603.5,181.27 C601.916306,180.375634 600.075128,180.047609 598.28,180.34 C596.457047,180.683444 595.098707,182.218779 594.98,184.07 L592.09,183.9 C591.756064,183.865707 591.41885,183.882568 591.09,183.95 C590.28057,184.204333 589.793205,185.02811 589.96,185.86 C590.180378,186.681615 590.992377,187.198342 591.83,187.05 C590.412833,187.614762 589.148676,188.505496 588.14,189.65 C586.575278,192.012323 587.199038,195.193498 589.54,196.79 C591.987791,198.200379 595.10246,197.57059 596.81,195.32 C596.460912,196.548213 597.048048,197.849205 598.2,198.4 C603.63,201.34 606.38,197.4 607.13,192.75 C607.9,187.73 609,183.97 603.5,181.27 Z"/>
    <path fill="#FFE9B3" fill-rule="nonzero" d="M615.54,182.99 C613.959136,182.097901 612.121882,181.769946 610.33,182.06 C608.503106,182.39939 607.139774,183.935712 607.02,185.79 L604.13,185.62 C603.796099,185.584423 603.458687,185.601294 603.13,185.67 C602.32057,185.924333 601.833205,186.74811 602,187.58 C602.220378,188.401615 603.032377,188.918342 603.87,188.77 C602.450092,189.329691 601.184823,190.221208 600.18,191.37 C598.609537,193.731182 599.234153,196.916722 601.58,198.51 C604.023968,199.923774 607.138508,199.293144 608.84,197.04 C608.4924,198.270756 609.084159,199.572626 610.24,200.12 C615.66,203.06 618.41,199.07 619.16,194.47 C619.94,189.5 621,185.69 615.54,182.99 Z"/>
    <path fill="#000" fill-rule="nonzero" d="M615.54,182.99 C613.959136,182.097901 612.121882,181.769946 610.33,182.06 C608.503106,182.39939 607.139774,183.935712 607.02,185.79 L604.13,185.62 C603.796099,185.584423 603.458687,185.601294 603.13,185.67 C602.32057,185.924333 601.833205,186.74811 602,187.58 C602.220378,188.401615 603.032377,188.918342 603.87,188.77 C602.450092,189.329691 601.184823,190.221208 600.18,191.37 C598.609537,193.731182 599.234153,196.916722 601.58,198.51 C604.023968,199.923774 607.138508,199.293144 608.84,197.04 C608.4924,198.270756 609.084159,199.572626 610.24,200.12 C615.66,203.06 618.41,199.07 619.16,194.47 C619.94,189.5 621,185.69 615.54,182.99 Z" opacity=".15"/>
    <path fill="#BBBDC8" fill-rule="nonzero" d="M644.999996,190 L644.999996,297.42 C644.994518,298.842618 643.842618,299.994518 642.42,300 L558.58,300 C557.157382,299.994518 556.005482,298.842618 555.999996,297.42 L555.999996,190 C555.998474,189.129306 556.436215,188.316577 557.164071,187.838733 C557.891927,187.360888 558.811701,187.282396 559.61,187.63 C561.743333,188.55 563.873333,189.4 565.999996,190.18 C568.999996,191.28 571.999996,192.236667 574.999996,193.05 C577.999996,193.86 580.999996,194.53 583.999996,195.05 C586.999996,195.57 589.999996,195.97 592.999996,196.21 C595.999996,196.45 598.999996,196.55 601.999996,196.49 C604.999996,196.43 607.999996,196.26 610.999996,195.93 C613.999996,195.6 616.999996,195.11 619.999996,194.48 C622.999996,193.85 625.999996,193.11 628.999996,192.2 C631.33,191.49 633.67,190.7 635.999996,189.82 C637.8,189.15 639.59,188.42 641.39,187.64 C642.186673,187.293103 643.104451,187.370528 643.831748,187.845991 C644.559045,188.321454 644.998155,189.13108 644.999996,190 L644.999996,190 Z"/>
    <path fill="#FFF" fill-rule="nonzero" d="M575 193.05L575 300.05 566 300.05 566 190.18C569 191.28 572 192.236667 575 193.05zM593 196.2L593 300 584 300 584 195C587 195.58 590 195.96 593 196.2zM611 195.92L611 300 602 300 602 196.5C605 196.446667 608 196.253333 611 195.92zM629 192.19L629 300 620 300 620 194.5C623 193.873333 626 193.103333 629 192.19z"/>
    <path fill="#000" fill-rule="nonzero" d="M645,190 L645,297.42 C644.994518,298.842618 643.842618,299.994518 642.42,300 L636,300 L636,189.81 C637.8,189.14 639.59,188.41 641.39,187.63 C642.188299,187.282396 643.108073,187.360888 643.835929,187.838733 C644.563785,188.316577 645.001526,189.129306 645,190 Z" opacity=".1"/>
    <path fill="#FFE9B3" fill-rule="nonzero" d="M579.41 179.55C577.829136 178.657901 575.991882 178.329946 574.2 178.62 572.373106 178.95939 571.009774 180.495712 570.89 182.35L568 182.18C567.666099 182.144423 567.328687 182.161294 567 182.23 566.19057 182.484333 565.703205 183.30811 565.87 184.14 566.090378 184.961615 566.902377 185.478342 567.74 185.33 566.320092 185.889691 565.054823 186.781208 564.05 187.93 562.479537 190.291182 563.104153 193.476722 565.45 195.07 567.894736 196.479073 571.005971 195.849112 572.71 193.6 572.3624 194.830756 572.954159 196.132626 574.11 196.68 579.53 199.61 582.28 195.63 583.03 191.03 583.81 186.01 584.89 182.25 579.41 179.55zM594.41 162.55C592.829136 161.657901 590.991882 161.329946 589.2 161.62 587.373106 161.95939 586.009774 163.495712 585.89 165.35L583 165.18C582.666099 165.144423 582.328687 165.161294 582 165.23 581.19057 165.484333 580.703205 166.30811 580.87 167.14 581.090378 167.961615 581.902377 168.478342 582.74 168.33 581.320092 168.889691 580.054823 169.781208 579.05 170.93 577.479537 173.291182 578.104153 176.476722 580.45 178.07 582.894736 179.479073 586.005971 178.849112 587.71 176.6 587.3624 177.830756 587.954159 179.132626 589.11 179.68 594.53 182.61 597.28 178.63 598.03 174.03 598.81 169.01 599.89 165.25 594.41 162.55z"/>
    <path fill="#FFE9B3" fill-rule="nonzero" d="M604.6,185.64 C605.786329,184.26069 606.467092,182.518218 606.53,180.7 C606.567012,178.836015 605.329789,177.186385 603.53,176.7 L604.26,173.9 C604.366222,173.577555 604.416942,173.239419 604.41,172.9 C604.376863,172.021867 603.638133,171.336863 602.76,171.37 C601.881867,171.403137 601.196863,172.141867 601.23,173.02 C600.956786,171.520535 600.32938,170.108013 599.4,168.9 C597.382413,166.907313 594.137587,166.907313 592.12,168.9 C590.252218,171.016902 590.252218,174.193098 592.12,176.31 C590.976849,175.731504 589.583178,176.060917 588.82,177.09 C584.89,181.83 588.26,185.31 592.63,186.94 C597.41,188.7 600.89,190.5 604.6,185.64 Z"/>
    <path fill="#FFE9B3" fill-rule="nonzero" d="M617.6,185.64 C618.786329,184.26069 619.467092,182.518218 619.53,180.7 C619.567012,178.836015 618.329789,177.186385 616.53,176.7 L617.26,173.9 C617.366222,173.577555 617.416942,173.239419 617.41,172.9 C617.376863,172.021867 616.638133,171.336863 615.76,171.37 C614.881867,171.403137 614.196863,172.141867 614.23,173.02 C613.956786,171.520535 613.32938,170.108013 612.4,168.9 C610.382413,166.907313 607.137587,166.907313 605.12,168.9 C603.252218,171.016902 603.252218,174.193098 605.12,176.31 C603.976849,175.731504 602.583178,176.060917 601.82,177.09 C597.89,181.83 601.26,185.31 605.63,186.94 C610.41,188.7 613.89,190.5 617.6,185.64 Z"/>
    <path fill="#FFE9B3" fill-rule="nonzero" d="M625.74 194.19C626.656216 192.617624 627.008955 190.779856 626.74 188.98 626.416464 187.14938 624.893664 185.770629 623.04 185.63L623.25 182.75C623.300798 182.418602 623.300798 182.081398 623.25 181.75 623.053939 180.893959 622.201041 180.358939 621.345 180.555 620.488959 180.751061 619.953939 181.603959 620.15 182.46 619.600202 181.0364 618.723253 179.762083 617.59 178.74 615.244415 177.145718 612.05287 177.734103 610.43 180.06 608.993738 182.492442 609.593992 185.613763 611.83 187.34 610.600947 186.981206 609.292101 187.559632 608.73 188.71 605.73 194.1 609.73 196.9 614.29 197.71 619.24 198.5 623 199.63 625.74 194.19zM585.74 178.19C586.656216 176.617624 587.008955 174.779856 586.74 172.98 586.416464 171.14938 584.893664 169.770629 583.04 169.63L583.25 166.75C583.300798 166.418602 583.300798 166.081398 583.25 165.75 583.053939 164.893959 582.201041 164.358939 581.345 164.555 580.488959 164.751061 579.953939 165.603959 580.15 166.46 579.600202 165.0364 578.723253 163.762083 577.59 162.74 575.244415 161.145718 572.05287 161.734103 570.43 164.06 568.993738 166.492442 569.593992 169.613763 571.83 171.34 570.600947 170.981206 569.292101 171.559632 568.73 172.71 565.73 178.1 569.73 180.9 574.29 181.71 579.24 182.5 583 183.63 585.74 178.19z"/>
    <path fill="#FFE9B3" fill-rule="nonzero" d="M589.74,172.67 C588.155878,171.776733 586.316219,171.445453 584.52,171.73 C582.695226,172.080089 581.335723,173.616205 581.21,175.47 L578.32,175.3 C577.986094,175.264587 577.648708,175.281457 577.32,175.35 C576.450152,175.537777 575.897223,176.395152 576.085,177.265 C576.272777,178.134848 577.130152,178.687777 578,178.5 C576.581564,179.062417 575.316895,179.953511 574.31,181.1 C572.739537,183.461182 573.364153,186.646722 575.71,188.24 C578.157141,189.646922 581.268872,189.012574 582.97,186.76 C582.62125,187.993546 583.212642,189.298833 584.37,189.85 C589.79,192.78 592.55,188.8 593.29,184.19 C594.13,179.13 595.21,175.37 589.74,172.67 Z"/>
    <path fill="#000" fill-rule="nonzero" d="M589.74,172.67 C588.155878,171.776733 586.316219,171.445453 584.52,171.73 C582.695226,172.080089 581.335723,173.616205 581.21,175.47 L578.32,175.3 C577.986094,175.264587 577.648708,175.281457 577.32,175.35 C576.450152,175.537777 575.897223,176.395152 576.085,177.265 C576.272777,178.134848 577.130152,178.687777 578,178.5 C576.581564,179.062417 575.316895,179.953511 574.31,181.1 C572.739537,183.461182 573.364153,186.646722 575.71,188.24 C578.157141,189.646922 581.268872,189.012574 582.97,186.76 C582.62125,187.993546 583.212642,189.298833 584.37,189.85 C589.79,192.78 592.55,188.8 593.29,184.19 C594.13,179.13 595.21,175.37 589.74,172.67 Z" opacity=".15"/>
    <path fill="#FFE9B3" fill-rule="nonzero" d="M632.75,176.11 C631.166306,175.215634 629.325128,174.887609 627.53,175.18 C625.704953,175.522656 624.343236,177.057158 624.22,178.91 L621.34,178.74 C621.006072,178.705392 620.66881,178.722255 620.34,178.79 C619.53057,179.044333 619.043205,179.86811 619.21,180.7 C619.430378,181.521615 620.242377,182.038342 621.08,181.89 C619.662833,182.454762 618.398676,183.345496 617.39,184.49 C615.825278,186.852323 616.449038,190.033498 618.79,191.63 C621.234736,193.039073 624.345971,192.409112 626.05,190.16 C625.7024,191.390756 626.294159,192.692626 627.45,193.24 C632.87,196.17 635.63,192.19 636.37,187.58 C637.14,182.57 638.22,178.81 632.75,176.11 Z"/>
    <path fill="#000" fill-rule="nonzero" d="M632.75,176.11 C631.166306,175.215634 629.325128,174.887609 627.53,175.18 C625.704953,175.522656 624.343236,177.057158 624.22,178.91 L621.34,178.74 C621.006072,178.705392 620.66881,178.722255 620.34,178.79 C619.53057,179.044333 619.043205,179.86811 619.21,180.7 C619.430378,181.521615 620.242377,182.038342 621.08,181.89 C619.662833,182.454762 618.398676,183.345496 617.39,184.49 C615.825278,186.852323 616.449038,190.033498 618.79,191.63 C621.234736,193.039073 624.345971,192.409112 626.05,190.16 C625.7024,191.390756 626.294159,192.692626 627.45,193.24 C632.87,196.17 635.63,192.19 636.37,187.58 C637.14,182.57 638.22,178.81 632.75,176.11 Z" opacity=".15"/>
    <path fill="#FFE9B3" fill-rule="nonzero" d="M606.75,159.11 C605.166306,158.215634 603.325128,157.887609 601.53,158.18 C599.704953,158.522656 598.343236,160.057158 598.22,161.91 L595.34,161.74 C595.006072,161.705392 594.66881,161.722255 594.34,161.79 C593.53057,162.044333 593.043205,162.86811 593.21,163.7 C593.430378,164.521615 594.242377,165.038342 595.08,164.89 C593.662833,165.454762 592.398676,166.345496 591.39,167.49 C589.825278,169.852323 590.449038,173.033498 592.79,174.63 C595.234736,176.039073 598.345971,175.409112 600.05,173.16 C599.7024,174.390756 600.294159,175.692626 601.45,176.24 C606.87,179.17 609.63,175.19 610.37,170.58 C611.14,165.57 612.22,161.81 606.75,159.11 Z"/>
    <path fill="#000" fill-rule="nonzero" d="M606.75,159.11 C605.166306,158.215634 603.325128,157.887609 601.53,158.18 C599.704953,158.522656 598.343236,160.057158 598.22,161.91 L595.34,161.74 C595.006072,161.705392 594.66881,161.722255 594.34,161.79 C593.53057,162.044333 593.043205,162.86811 593.21,163.7 C593.430378,164.521615 594.242377,165.038342 595.08,164.89 C593.662833,165.454762 592.398676,166.345496 591.39,167.49 C589.825278,169.852323 590.449038,173.033498 592.79,174.63 C595.234736,176.039073 598.345971,175.409112 600.05,173.16 C599.7024,174.390756 600.294159,175.692626 601.45,176.24 C606.87,179.17 609.63,175.19 610.37,170.58 C611.14,165.57 612.22,161.81 606.75,159.11 Z" opacity=".15"/>
    <path fill="#FFE9B3" fill-rule="nonzero" d="M586.75,153.11 C585.166306,152.215634 583.325128,151.887609 581.53,152.18 C579.704953,152.522656 578.343236,154.057158 578.22,155.91 L575.34,155.74 C575.006072,155.705392 574.66881,155.722255 574.34,155.79 C573.53057,156.044333 573.043205,156.86811 573.21,157.7 C573.430378,158.521615 574.242377,159.038342 575.08,158.89 C573.662833,159.454762 572.398676,160.345496 571.39,161.49 C569.825278,163.852323 570.449038,167.033498 572.79,168.63 C575.234736,170.039073 578.345971,169.409112 580.05,167.16 C579.7024,168.390756 580.294159,169.692626 581.45,170.24 C586.87,173.17 589.63,169.19 590.37,164.58 C591.14,159.57 592.22,155.81 586.75,153.11 Z"/>
    <path fill="#000" fill-rule="nonzero" d="M586.75,153.11 C585.166306,152.215634 583.325128,151.887609 581.53,152.18 C579.704953,152.522656 578.343236,154.057158 578.22,155.91 L575.34,155.74 C575.006072,155.705392 574.66881,155.722255 574.34,155.79 C573.53057,156.044333 573.043205,156.86811 573.21,157.7 C573.430378,158.521615 574.242377,159.038342 575.08,158.89 C573.662833,159.454762 572.398676,160.345496 571.39,161.49 C569.825278,163.852323 570.449038,167.033498 572.79,168.63 C575.234736,170.039073 578.345971,169.409112 580.05,167.16 C579.7024,168.390756 580.294159,169.692626 581.45,170.24 C586.87,173.17 589.63,169.19 590.37,164.58 C591.14,159.57 592.22,155.81 586.75,153.11 Z" opacity=".15"/>
    <path fill="#FFE9B3" fill-rule="nonzero" d="M608.75,149.11 C607.166306,148.215634 605.325128,147.887609 603.53,148.18 C601.704953,148.522656 600.343236,150.057158 600.22,151.91 L597.34,151.74 C597.006072,151.705392 596.66881,151.722255 596.34,151.79 C595.53057,152.044333 595.043205,152.86811 595.21,153.7 C595.430378,154.521615 596.242377,155.038342 597.08,154.89 C595.662833,155.454762 594.398676,156.345496 593.39,157.49 C591.825278,159.852323 592.449038,163.033498 594.79,164.63 C597.234736,166.039073 600.345971,165.409112 602.05,163.16 C601.7024,164.390756 602.294159,165.692626 603.45,166.24 C608.87,169.17 611.63,165.19 612.37,160.58 C613.14,155.57 614.22,151.81 608.75,149.11 Z"/>
    <path fill="#000" fill-rule="nonzero" d="M608.75,149.11 C607.166306,148.215634 605.325128,147.887609 603.53,148.18 C601.704953,148.522656 600.343236,150.057158 600.22,151.91 L597.34,151.74 C597.006072,151.705392 596.66881,151.722255 596.34,151.79 C595.53057,152.044333 595.043205,152.86811 595.21,153.7 C595.430378,154.521615 596.242377,155.038342 597.08,154.89 C595.662833,155.454762 594.398676,156.345496 593.39,157.49 C591.825278,159.852323 592.449038,163.033498 594.79,164.63 C597.234736,166.039073 600.345971,165.409112 602.05,163.16 C601.7024,164.390756 602.294159,165.692626 603.45,166.24 C608.87,169.17 611.63,165.19 612.37,160.58 C613.14,155.57 614.22,151.81 608.75,149.11 Z" opacity=".15"/>
    <path fill="#FFE9B3" fill-rule="nonzero" d="M616.75,155.11 C615.166306,154.215634 613.325128,153.887609 611.53,154.18 C609.704953,154.522656 608.343236,156.057158 608.22,157.91 L605.34,157.74 C605.006072,157.705392 604.66881,157.722255 604.34,157.79 C603.53057,158.044333 603.043205,158.86811 603.21,159.7 C603.430378,160.521615 604.242377,161.038342 605.08,160.89 C603.662833,161.454762 602.398676,162.345496 601.39,163.49 C599.825278,165.852323 600.449038,169.033498 602.79,170.63 C605.234736,172.039073 608.345971,171.409112 610.05,169.16 C609.7024,170.390756 610.294159,171.692626 611.45,172.24 C616.87,175.17 619.63,171.19 620.37,166.58 C621.14,161.57 622.22,157.81 616.75,155.11 Z"/>
    <path fill="#000" fill-rule="nonzero" d="M616.75,155.11 C615.166306,154.215634 613.325128,153.887609 611.53,154.18 C609.704953,154.522656 608.343236,156.057158 608.22,157.91 L605.34,157.74 C605.006072,157.705392 604.66881,157.722255 604.34,157.79 C603.53057,158.044333 603.043205,158.86811 603.21,159.7 C603.430378,160.521615 604.242377,161.038342 605.08,160.89 C603.662833,161.454762 602.398676,162.345496 601.39,163.49 C599.825278,165.852323 600.449038,169.033498 602.79,170.63 C605.234736,172.039073 608.345971,171.409112 610.05,169.16 C609.7024,170.390756 610.294159,171.692626 611.45,172.24 C616.87,175.17 619.63,171.19 620.37,166.58 C621.14,161.57 622.22,157.81 616.75,155.11 Z" opacity=".15"/>
    <path fill="#FFE9B3" fill-rule="nonzero" d="M567.75,176.11 C566.166306,175.215634 564.325128,174.887609 562.53,175.18 C560.704953,175.522656 559.343236,177.057158 559.22,178.91 L556.34,178.74 C556.006072,178.705392 555.66881,178.722255 555.34,178.79 C554.53057,179.044333 554.043205,179.86811 554.21,180.7 C554.430378,181.521615 555.242377,182.038342 556.08,181.89 C554.662833,182.454762 553.398676,183.345496 552.39,184.49 C550.825278,186.852323 551.449038,190.033498 553.79,191.63 C556.234736,193.039073 559.345971,192.409112 561.05,190.16 C560.7024,191.390756 561.294159,192.692626 562.45,193.24 C567.87,196.17 570.63,192.19 571.37,187.58 C572.14,182.57 573.22,178.81 567.75,176.11 Z"/>
    <path fill="#000" fill-rule="nonzero" d="M567.75,176.11 C566.166306,175.215634 564.325128,174.887609 562.53,175.18 C560.704953,175.522656 559.343236,177.057158 559.22,178.91 L556.34,178.74 C556.006072,178.705392 555.66881,178.722255 555.34,178.79 C554.53057,179.044333 554.043205,179.86811 554.21,180.7 C554.430378,181.521615 555.242377,182.038342 556.08,181.89 C554.662833,182.454762 553.398676,183.345496 552.39,184.49 C550.825278,186.852323 551.449038,190.033498 553.79,191.63 C556.234736,193.039073 559.345971,192.409112 561.05,190.16 C560.7024,191.390756 561.294159,192.692626 562.45,193.24 C567.87,196.17 570.63,192.19 571.37,187.58 C572.14,182.57 573.22,178.81 567.75,176.11 Z" opacity=".15"/>
    <path fill="#FFE9B3" fill-rule="nonzero" d="M625.75,162.11 C624.166306,161.215634 622.325128,160.887609 620.53,161.18 C618.704953,161.522656 617.343236,163.057158 617.22,164.91 L614.34,164.74 C614.006072,164.705392 613.66881,164.722255 613.34,164.79 C612.53057,165.044333 612.043205,165.86811 612.21,166.7 C612.430378,167.521615 613.242377,168.038342 614.08,167.89 C612.662833,168.454762 611.398676,169.345496 610.39,170.49 C608.825278,172.852323 609.449038,176.033498 611.79,177.63 C614.234736,179.039073 617.345971,178.409112 619.05,176.16 C618.7024,177.390756 619.294159,178.692626 620.45,179.24 C625.87,182.17 628.63,178.19 629.37,173.58 C630.14,168.57 631.22,164.81 625.75,162.11 Z"/>
    <path fill="#000" fill-rule="nonzero" d="M625.75,162.11 C624.166306,161.215634 622.325128,160.887609 620.53,161.18 C618.704953,161.522656 617.343236,163.057158 617.22,164.91 L614.34,164.74 C614.006072,164.705392 613.66881,164.722255 613.34,164.79 C612.53057,165.044333 612.043205,165.86811 612.21,166.7 C612.430378,167.521615 613.242377,168.038342 614.08,167.89 C612.662833,168.454762 611.398676,169.345496 610.39,170.49 C608.825278,172.852323 609.449038,176.033498 611.79,177.63 C614.234736,179.039073 617.345971,178.409112 619.05,176.16 C618.7024,177.390756 619.294159,178.692626 620.45,179.24 C625.87,182.17 628.63,178.19 629.37,173.58 C630.14,168.57 631.22,164.81 625.75,162.11 Z" opacity=".15"/>
    <path fill="#FFE9B3" fill-rule="nonzero" d="M644.75,172.11 C643.166306,171.215634 641.325128,170.887609 639.53,171.18 C637.704953,171.522656 636.343236,173.057158 636.22,174.91 L633.34,174.74 C633.006072,174.705392 632.66881,174.722255 632.34,174.79 C631.53057,175.044333 631.043205,175.86811 631.21,176.7 C631.430378,177.521615 632.242377,178.038342 633.08,177.89 C631.662833,178.454762 630.398676,179.345496 629.39,180.49 C627.825278,182.852323 628.449038,186.033498 630.79,187.63 C633.234736,189.039073 636.345971,188.409112 638.05,186.16 C637.7024,187.390756 638.294159,188.692626 639.45,189.24 C644.87,192.17 647.63,188.19 648.37,183.58 C649.14,178.57 650.22,174.81 644.75,172.11 Z"/>
    <path fill="#000" fill-rule="nonzero" d="M644.75,172.11 C643.166306,171.215634 641.325128,170.887609 639.53,171.18 C637.704953,171.522656 636.343236,173.057158 636.22,174.91 L633.34,174.74 C633.006072,174.705392 632.66881,174.722255 632.34,174.79 C631.53057,175.044333 631.043205,175.86811 631.21,176.7 C631.430378,177.521615 632.242377,178.038342 633.08,177.89 C631.662833,178.454762 630.398676,179.345496 629.39,180.49 C627.825278,182.852323 628.449038,186.033498 630.79,187.63 C633.234736,189.039073 636.345971,188.409112 638.05,186.16 C637.7024,187.390756 638.294159,188.692626 639.45,189.24 C644.87,192.17 647.63,188.19 648.37,183.58 C649.14,178.57 650.22,174.81 644.75,172.11 Z" opacity=".15"/>
    <path fill="#FFE9B3" fill-rule="nonzero" d="M628.75,150.11 C627.166306,149.215634 625.325128,148.887609 623.53,149.18 C621.704953,149.522656 620.343236,151.057158 620.22,152.91 L617.34,152.74 C617.006072,152.705392 616.66881,152.722255 616.34,152.79 C615.53057,153.044333 615.043205,153.86811 615.21,154.7 C615.430378,155.521615 616.242377,156.038342 617.08,155.89 C615.662833,156.454762 614.398676,157.345496 613.39,158.49 C611.825278,160.852323 612.449038,164.033498 614.79,165.63 C617.234736,167.039073 620.345971,166.409112 622.05,164.16 C621.7024,165.390756 622.294159,166.692626 623.45,167.24 C628.87,170.17 631.63,166.19 632.37,161.58 C633.14,156.57 634.22,152.81 628.75,150.11 Z"/>
    <path fill="#000" fill-rule="nonzero" d="M628.75,150.11 C627.166306,149.215634 625.325128,148.887609 623.53,149.18 C621.704953,149.522656 620.343236,151.057158 620.22,152.91 L617.34,152.74 C617.006072,152.705392 616.66881,152.722255 616.34,152.79 C615.53057,153.044333 615.043205,153.86811 615.21,154.7 C615.430378,155.521615 616.242377,156.038342 617.08,155.89 C615.662833,156.454762 614.398676,157.345496 613.39,158.49 C611.825278,160.852323 612.449038,164.033498 614.79,165.63 C617.234736,167.039073 620.345971,166.409112 622.05,164.16 C621.7024,165.390756 622.294159,166.692626 623.45,167.24 C628.87,170.17 631.63,166.19 632.37,161.58 C633.14,156.57 634.22,152.81 628.75,150.11 Z" opacity=".15"/>
    <path fill="#FFE9B3" fill-rule="nonzero" d="M642.74,174.19 C643.656216,172.617624 644.008955,170.779856 643.74,168.98 C643.416464,167.14938 641.893664,165.770629 640.04,165.63 L640.25,162.75 C640.300798,162.418602 640.300798,162.081398 640.25,161.75 C640.123171,161.196238 639.710547,160.752204 639.167561,160.585161 C638.624575,160.418117 638.033718,160.553442 637.617561,160.940161 C637.201404,161.326879 637.023171,161.906238 637.15,162.46 C636.600202,161.0364 635.723253,159.762083 634.59,158.74 C632.244415,157.145718 629.05287,157.734103 627.43,160.06 C625.993738,162.492442 626.593992,165.613763 628.83,167.34 C627.600947,166.981206 626.292101,167.559632 625.73,168.71 C622.73,174.1 626.73,176.9 631.29,177.71 C636.24,178.5 640,179.63 642.74,174.19 Z"/>
    <path fill="#FFE9B3" fill-rule="nonzero" d="M642.74 158.19C643.656216 156.617624 644.008955 154.779856 643.74 152.98 643.416464 151.14938 641.893664 149.770629 640.04 149.63L640.25 146.75C640.300798 146.418602 640.300798 146.081398 640.25 145.75 640.053939 144.893959 639.201041 144.358939 638.345 144.555 637.488959 144.751061 636.953939 145.603959 637.15 146.46 636.600202 145.0364 635.723253 143.762083 634.59 142.74 632.244415 141.145718 629.05287 141.734103 627.43 144.06 625.993738 146.492442 626.593992 149.613763 628.83 151.34 627.600947 150.981206 626.292101 151.559632 625.73 152.71 622.73 158.1 626.73 160.9 631.29 161.71 636.24 162.5 640 163.63 642.74 158.19zM625.74 179.19C626.656216 177.617624 627.008955 175.779856 626.74 173.98 626.416464 172.14938 624.893664 170.770629 623.04 170.63L623.25 167.75C623.300798 167.418602 623.300798 167.081398 623.25 166.75 623.053939 165.893959 622.201041 165.358939 621.345 165.555 620.488959 165.751061 619.953939 166.603959 620.15 167.46 619.600202 166.0364 618.723253 164.762083 617.59 163.74 615.244415 162.145718 612.05287 162.734103 610.43 165.06 608.993738 167.492442 609.593992 170.613763 611.83 172.34 610.600947 171.981206 609.292101 172.559632 608.73 173.71 605.73 179.1 609.73 181.9 614.29 182.71 619.24 183.5 623 184.63 625.74 179.19zM644.74 197.19C645.656216 195.617624 646.008955 193.779856 645.74 191.98 645.416464 190.14938 643.893664 188.770629 642.04 188.63L642.25 185.75C642.300798 185.418602 642.300798 185.081398 642.25 184.75 642.053939 183.893959 641.201041 183.358939 640.345 183.555 639.488959 183.751061 638.953939 184.603959 639.15 185.46 638.600202 184.0364 637.723253 182.762083 636.59 181.74 634.244415 180.145718 631.05287 180.734103 629.43 183.06 627.993738 185.492442 628.593992 188.613763 630.83 190.34 629.600947 189.981206 628.292101 190.559632 627.73 191.71 624.73 197.1 628.73 199.9 633.29 200.71 638.24 201.5 642 202.63 644.74 197.19zM608.74 204.19C609.656216 202.617624 610.008955 200.779856 609.74 198.98 609.416464 197.14938 607.893664 195.770629 606.04 195.63L606.25 192.75C606.300798 192.418602 606.300798 192.081398 606.25 191.75 606.053939 190.893959 605.201041 190.358939 604.345 190.555 603.488959 190.751061 602.953939 191.603959 603.15 192.46 602.600202 191.0364 601.723253 189.762083 600.59 188.74 598.244415 187.145718 595.05287 187.734103 593.43 190.06 591.993738 192.492442 592.593992 195.613763 594.83 197.34 593.600947 196.981206 592.292101 197.559632 591.73 198.71 588.73 204.1 592.73 206.9 597.29 207.71 602.24 208.5 606 209.63 608.74 204.19zM600.74 163.19C601.656216 161.617624 602.008955 159.779856 601.74 157.98 601.416464 156.14938 599.893664 154.770629 598.04 154.63L598.25 151.75C598.300798 151.418602 598.300798 151.081398 598.25 150.75 598.053939 149.893959 597.201041 149.358939 596.345 149.555 595.488959 149.751061 594.953939 150.603959 595.15 151.46 594.600202 150.0364 593.723253 148.762083 592.59 147.74 590.244415 146.145718 587.05287 146.734103 585.43 149.06 583.993738 151.492442 584.593992 154.613763 586.83 156.34 585.600947 155.981206 584.292101 156.559632 583.73 157.71 580.73 163.1 584.73 165.9 589.29 166.71 594.24 167.5 598 168.63 600.74 163.19zM621.74 158.19C622.656216 156.617624 623.008955 154.779856 622.74 152.98 622.416464 151.14938 620.893664 149.770629 619.04 149.63L619.25 146.75C619.300798 146.418602 619.300798 146.081398 619.25 145.75 619.053939 144.893959 618.201041 144.358939 617.345 144.555 616.488959 144.751061 615.953939 145.603959 616.15 146.46 615.600202 145.0364 614.723253 143.762083 613.59 142.74 611.244415 141.145718 608.05287 141.734103 606.43 144.06 604.993738 146.492442 605.593992 149.613763 607.83 151.34 606.600947 150.981206 605.292101 151.559632 604.73 152.71 601.73 158.1 605.73 160.9 610.29 161.71 615.24 162.5 619 163.63 621.74 158.19zM579.74 177.19C580.656216 175.617624 581.008955 173.779856 580.74 171.98 580.416464 170.14938 578.893664 168.770629 577.04 168.63L577.25 165.75C577.300798 165.418602 577.300798 165.081398 577.25 164.75 577.053939 163.893959 576.201041 163.358939 575.345 163.555 574.488959 163.751061 573.953939 164.603959 574.15 165.46 573.600202 164.0364 572.723253 162.762083 571.59 161.74 569.244415 160.145718 566.05287 160.734103 564.43 163.06 562.993738 165.492442 563.593992 168.613763 565.83 170.34 564.600947 169.981206 563.292101 170.559632 562.73 171.71 559.73 177.1 563.73 179.9 568.29 180.71 573.24 181.5 577 182.63 579.74 177.19z"/>
    <path fill="#A0616A" fill-rule="nonzero" d="M563.81 223.06C569.01 222.64 574.14 221.31 579.36 221.38 586.19 221.47 592.76 223.94 598.98 226.76 600.806742 227.464795 602.483084 228.509964 603.92 229.84 605.997052 232.234064 606.872802 235.442697 606.3 238.56 605.714737 241.637365 604.495566 244.559289 602.72 247.14 600.9 250.03 598.65 252.88 595.48 254.14 593.706641 254.751963 591.845901 255.072781 589.97 255.09 582.14 255.52 574.16 255.09 566.73 252.58 562.92 251.28 559.31 249.46 555.58 247.92 543.69 243 530.83 241.06 518.2 238.58 517.558043 238.503507 516.945789 238.266172 516.42 237.89 513.79 235.62 519.5 227.44 520.84 225.15 523.1 221.26 525.15 220.84 529.73 220.73 541.17 220.44 552.34 223.77 563.81 223.06zM652.78 250.73C649.16 248.95 645.91 246.49 642.32 244.64 637.799115 242.314725 632.828866 240.994556 627.75 240.77 624.46 240.62 620.88 241.06 618.49 243.33 615.08 246.57 615.49 252.08 616.61 256.65 618.31 263.5 621.73 270.75 628.3 273.34 630.880846 274.203367 633.578938 274.665415 636.3 274.71 648.47 275.55 661.14 276.31 672.42 271.71 673.246647 271.452608 673.955282 270.910502 674.42 270.18 674.91 269.18 674.42 267.98 673.92 266.97 672.12 263.35 669.27 255.76 665.79 253.5 662.55 251.33 656.82 252.71 652.78 250.73z"/>
    <path fill="#000" fill-rule="nonzero" d="M681.38,196.27 C688.046032,206.845432 693.525802,218.123563 697.72,229.9 C698.892755,232.796077 699.568895,235.869137 699.72,238.99 C699.72,242.46 698.51,245.82 697.24,249.1 C693.193751,259.595225 688.498001,269.828353 683.18,279.74 C681.58,282.74 679.75,285.87 676.58,287.52 C673.25,289.26 669.15,288.99 665.34,288.52 C655.79271,287.475259 646.325252,285.798243 637,283.5 C642.87,283.69 648.17,279.29 650.88,274.5 C653.59,269.71 654.19,264.23 654.64,258.88 C655.05189,255.999008 654.929856,253.066803 654.28,250.23 C653.509492,247.258699 651.336761,244.850775 648.46,243.78 C648.19,241.17 650.68,238.98 653.25,237.78 C655.82,236.58 658.74,235.91 660.83,234.11 C663.91,231.47 664.35,227.06 663.34,223.32 C662.33,219.58 660.13,216.2 658.57,212.61 C656.38,207.61 667.68,202.35 668.13,196.95 C668.23,195.73 667.37,197.95 668.13,196.95 C668.89,195.95 673.61,199.42 674.68,198.95 C681.71,195.91 677.49,190.09 681.38,196.27 Z" opacity=".1"/>
    <path fill="#FFBCA3" fill-rule="nonzero" d="M683.56,196.27 C690.225243,206.847352 695.70814,218.125018 699.91,229.9 C701.087743,232.794528 701.764073,235.868449 701.91,238.99 C701.91,242.46 700.7,245.82 699.44,249.1 C695.389511,259.593436 690.69388,269.826305 685.38,279.74 C683.78,282.74 681.95,285.87 678.78,287.52 C675.45,289.26 671.34,288.99 667.54,288.52 C657.989103,287.477419 648.518176,285.80038 639.19,283.5 C645.05,283.69 650.36,279.29 653.06,274.5 C655.76,269.71 656.38,264.23 656.83,258.88 C657.236908,255.99876 657.114912,253.067465 656.47,250.23 C655.693356,247.262007 653.522841,244.85654 650.65,243.78 C650.37,241.17 652.87,238.98 655.44,237.78 C658.01,236.58 660.93,235.91 663.02,234.11 C666.09,231.47 666.53,227.06 665.52,223.32 C664.51,219.58 662.31,216.2 660.75,212.61 C658.567632,207.602827 657.653982,202.134667 658.09,196.69 C658.111144,195.444363 658.478139,194.229124 659.15,193.18 C659.895473,192.287657 660.855531,191.599443 661.94,191.18 C669,188.18 679.67,190.09 683.56,196.27 Z"/>
    <path fill="#000" fill-rule="nonzero" d="M469.8,186.35 C463.31,192.35 456.61,198.69 453.45,206.96 C451.73,211.47 451.16,216.33 450.6,221.13 C449.66,229.31 448.81,238.07 452.6,245.37 C456.8,253.37 465.6,257.66 473.86,261.29 C476.716462,262.631572 479.675957,263.741801 482.71,264.61 C486.685112,265.498521 490.737923,265.994237 494.81,266.09 L536.5,268.41 C531.06,262.93 527.58,254.35 528.32,246.66 C528.99,239.79 532.32,233.49 535.67,227.48 C537.41,224.38 539.38,221.12 542.59,219.59 C529.007412,216.588174 515.041427,215.711084 501.19,216.99 C500.26,217.07 499.19,217.1 498.58,216.36 C498.276086,215.895578 498.135359,215.343226 498.18,214.79 C498.18,208.58 502.82,203.42 504.74,197.52 C507.81,188.06 497.36,193.25 487.96,190 C478.56,186.75 471.72,176.59 469.8,186.35 Z" opacity=".1"/>
    <path fill="#FFBCA3" fill-rule="nonzero" d="M466.8,186.35 C460.31,192.35 453.61,198.69 450.45,206.96 C448.73,211.47 448.16,216.33 447.6,221.13 C446.66,229.31 445.81,238.07 449.6,245.37 C453.8,253.37 462.6,257.66 470.86,261.29 C473.716462,262.631572 476.675957,263.741801 479.71,264.61 C483.685112,265.498521 487.737923,265.994237 491.81,266.09 L533.5,268.41 C528.06,262.93 524.58,254.35 525.32,246.66 C525.99,239.79 529.32,233.49 532.67,227.48 C534.41,224.38 536.38,221.12 539.59,219.59 C526.007412,216.588174 512.041427,215.711084 498.19,216.99 C497.26,217.07 496.19,217.1 495.58,216.36 C495.276086,215.895578 495.135359,215.343226 495.18,214.79 C495.18,208.58 499.82,203.42 501.74,197.52 C504.81,188.06 499.47,176.52 490.06,173.25 C480.65,169.98 468.72,176.59 466.8,186.35 Z"/>
    <ellipse cx="571.5" cy="58" fill="#2F2E41" fill-rule="nonzero" rx="50.5" ry="21"/>
    <path fill="#000" fill-rule="nonzero" d="M570.5,70 C546.33,70 526.13,62.93 521.17,53.5 C520.417536,54.8816179 520.015777,56.4268435 520,58 C520,69.6 542.61,79 570.5,79 C598.39,79 621,69.6 621,58 C620.984223,56.4268435 620.582464,54.8816179 619.83,53.5 C614.87,62.93 594.67,70 570.5,70 Z" opacity=".1"/>
    <path fill="#FFE9B3" fill-rule="nonzero" d="M500.75,303.11 C499.166306,302.215634 497.325128,301.887609 495.53,302.18 C493.704953,302.522656 492.343236,304.057158 492.22,305.91 L489.34,305.74 C489.008626,305.688888 488.671374,305.688888 488.34,305.74 C487.53057,305.994333 487.043205,306.81811 487.21,307.65 C487.430378,308.471615 488.242377,308.988342 489.08,308.84 C487.662833,309.404762 486.398676,310.295496 485.39,311.44 C483.825278,313.802323 484.449038,316.983498 486.79,318.58 C489.234736,319.989073 492.345971,319.359112 494.05,317.11 C493.7024,318.340756 494.294159,319.642626 495.45,320.19 C500.87,323.12 503.63,319.19 504.37,314.53 C505.14,309.57 506.22,305.81 500.75,303.11 Z"/>
    <path fill="#000" fill-rule="nonzero" d="M500.75,303.11 C499.166306,302.215634 497.325128,301.887609 495.53,302.18 C493.704953,302.522656 492.343236,304.057158 492.22,305.91 L489.34,305.74 C489.008626,305.688888 488.671374,305.688888 488.34,305.74 C487.53057,305.994333 487.043205,306.81811 487.21,307.65 C487.430378,308.471615 488.242377,308.988342 489.08,308.84 C487.662833,309.404762 486.398676,310.295496 485.39,311.44 C483.825278,313.802323 484.449038,316.983498 486.79,318.58 C489.234736,319.989073 492.345971,319.359112 494.05,317.11 C493.7024,318.340756 494.294159,319.642626 495.45,320.19 C500.87,323.12 503.63,319.19 504.37,314.53 C505.14,309.57 506.22,305.81 500.75,303.11 Z" opacity=".15"/>
    <path fill="#FFE9B3" fill-rule="nonzero" d="M464.74,301.19 C465.656216,299.617624 466.008955,297.779856 465.74,295.98 C465.416464,294.14938 463.893664,292.770629 462.04,292.63 L462.25,289.75 C462.300798,289.418602 462.300798,289.081398 462.25,288.75 C462.053939,287.893959 461.201041,287.358939 460.345,287.555 C459.488959,287.751061 458.953939,288.603959 459.15,289.46 C458.600202,288.0364 457.723253,286.762083 456.59,285.74 C454.244415,284.145718 451.05287,284.734103 449.43,287.06 C447.993738,289.492442 448.593992,292.613763 450.83,294.34 C449.600947,293.981206 448.292101,294.559632 447.73,295.71 C444.73,301.1 448.73,303.9 453.29,304.71 C458.24,305.5 462,306.63 464.74,301.19 Z"/>
    <path fill="#C4C9D8" fill-rule="nonzero" d="M435.91,264.35 C426.17,261.86 416.03,259.35 406.19,261.35 C401.81,262.24 397.67,264 393.41,265.35 C372.1603,271.934892 349.06851,268.486214 330.67,255.98 C320.47,248.93 309.87,238.65 297.79,241.44 C294.54,242.2 291.53,243.9 288.21,244.27 C281.98,244.98 276.21,240.94 270.03,239.99 C259.39,238.36 249.72,245.82 241.54,252.82 L198.41,289.73 C195.14,292.53 191.54,296.23 192.41,300.43 C193.74,306.6 203.19,307.43 205.62,313.28 C207.38,317.47 204.47,322.35 200.62,324.74 C196.77,327.13 192.11,327.74 187.79,329.19 C174.513294,333.637919 164.539657,344.719737 161.51,358.39 C160.75,361.97 160.51,365.69 159.1,369.07 C157.58,372.75 154.83,375.77 152.8,379.19 C143.92,394.09 149.75,413.86 143.01,429.84 C139.44,438.32 132.29,446.52 134.55,455.43 C136.61,463.51 145.48,467.64 153.55,469.78 C154.5,475.28 152.55,479.16 148.55,483.11 C182.1,496.9 218.11,510.98 253.7,503.93 C265.91,501.52 277.8,496.63 290.24,496.83 C299.07,496.97 307.8,499.69 316.61,499.07 C335.2,497.76 352.27,481.87 370.28,486.64 C364.85,487.01 362.84,494.95 366.04,499.36 C369.24,503.77 375.13,505.18 380.55,505.7 C385.97,506.22 391.71,506.26 396.41,509.02 C392.85,516.43 380.1,519.02 381.33,527.17 C381.78,530.11 384.16,532.34 386.52,534.17 C410.77,552.74 444.17,550.96 474.52,554.17 C496.9,556.51 518.84,561.98 541.15,564.9 C576.79,569.55 612.92,567.65 648.8,565.73 C655.31,565.38 662.61,564.66 666.8,559.66 C672.36,553 669.27,543.13 668.57,534.49 C665.85,500.68 702.83,477.41 713.19,445.11 C717.19,432.5 717.02,418.95 716.3,405.72 C714.69,375.88 710.02,344.4 691,321.36 C675.34,302.36 651.93,291.66 628.62,283.82 C613.78,278.82 598.23,274.71 582.62,276.18 C556.42,278.65 529.95,296.54 505.76,286.18 C499.36,283.44 493.91,278.91 487.83,275.53 C471.85,266.5 453.72,268.9 435.91,264.35 Z"/>
    <path fill="#000" fill-rule="nonzero" d="M437.21 272.86C414.9 269.94 393 264.5 370.58 262.13 340.2 258.95 306.8 260.73 282.58 242.13 280.22 240.32 277.84 238.13 277.39 235.13 276.16 227 288.91 224.39 292.47 216.98 287.77 214.22 282.04 214.19 276.61 213.66 271.18 213.13 265.3 211.73 262.1 207.32 258.9 202.91 260.91 194.97 266.34 194.6 248.34 189.83 231.26 205.72 212.67 207.03 203.86 207.65 195.13 204.93 186.3 204.79 173.86 204.59 161.97 209.48 149.76 211.89 114.17 218.89 78.17 204.89 44.61 191.07 48.56 187.07 50.53 183.24 49.61 177.74 41.56 175.6 32.69 171.47 30.61 163.39 28.35 154.48 35.5 146.28 39.07 137.8 45.81 121.8 39.98 102.05 48.86 87.15 50.86 83.73 53.64 80.71 55.16 77.03 56.55 73.65 56.81 69.93 57.57 66.35 57.8977192 64.7822172 58.3320618 63.2386302 58.87 61.73 57.19 62.19 55.49 62.61 53.87 63.15 40.5932935 67.5979188 30.6196572 78.6797369 27.59 92.35 26.83 95.93 26.59 99.65 25.18 103.03 23.66 106.71 20.91 109.73 18.88 113.15 10 128.05 15.83 147.82 9.09 163.8 5.52 172.28-1.63 180.48.63 189.39 2.69 197.47 11.56 201.6 19.63 203.74 20.58 209.24 18.63 213.12 14.63 217.07 48.19 230.86 84.19 244.94 119.78 237.89 131.99 235.48 143.88 230.59 156.32 230.79 165.15 230.93 173.88 233.65 182.69 233.03 201.28 231.72 218.35 215.83 236.36 220.6 230.93 220.97 228.92 228.91 232.12 233.32 235.32 237.73 241.21 239.14 246.63 239.66 252.05 240.18 257.79 240.22 262.49 242.98 258.93 250.39 246.18 252.98 247.41 261.13 247.86 264.07 250.24 266.3 252.6 268.13 276.85 286.7 310.25 284.92 340.6 288.13 362.98 290.47 384.92 295.94 407.23 298.86 442.87 303.51 479 301.61 514.88 299.69 521.39 299.34 528.69 298.62 532.88 293.62 537.23 288.4 536.28 281.22 535.33 274.19 502.57 275.89 469.68 277.1 437.21 272.86zM70.18 45.04C74.1367896 41.5184693 78.7765224 38.8496868 83.81 37.2 88.13 35.8 92.81 35.13 96.64 32.75 100.47 30.37 103.41 25.48 101.64 21.29 99.21 15.48 89.76 14.61 88.43 8.44 87.82 5.6 89.27 2.99 91.29.73L64.4 23.73C61.13 26.53 57.53 30.23 58.4 34.43 59.57 39.71 66.63 41.12 70.18 45.04z" opacity=".1" transform="translate(134 266)"/>
    <g transform="translate(761 241)">
      <ellipse cx="96" cy="176" fill="#7A3814" fill-rule="nonzero" rx="33" ry="12"/>
      <ellipse cx="96" cy="176" fill="#000" fill-rule="nonzero" opacity=".5" rx="33" ry="12"/>
      <path fill="#7A3814" fill-rule="nonzero" d="M62.7357815,174 C62.7357815,174 99.2451889,194.084916 129,176.679332 C129,176.679332 113.444618,253 104.657004,253 L77.6081007,253 C77.6081007,253 54.6180586,206.131837 62.7357815,174 Z"/>
      <path fill="#29A389" fill-rule="nonzero" d="M124.59536,46.0519405 C133.845122,79.815583 94.3841997,176 94.3841997,176 C94.3841997,176 11.3085737,113.306204 2.09933667,79.5021141 C-6.74852054,45.8889109 13.1735763,11.4334801 46.759412,2.26214542 C80.3452477,-6.90918931 115.066535,12.6246903 124.59536,46.0519405 Z"/>
      <path fill="#000" fill-rule="nonzero" d="M124.59536,46.0519405 C133.845122,79.815583 94.3841997,176 94.3841997,176 C94.3841997,176 11.3085737,113.306204 2.09933667,79.5021141 C-6.74852054,45.8889109 13.1735763,11.4334801 46.759412,2.26214542 C80.3452477,-6.90918931 115.066535,12.6246903 124.59536,46.0519405 Z" opacity=".1"/>
      <path stroke="#535461" d="M47,2 C47,2 98.6723825,79.7056026 94.7918879,176"/>
      <path fill="#29A389" fill-rule="nonzero" d="M137.813948,108.113491 C137.813948,108.113491 91.6286149,82.8953518 97.5190919,176 C97.5190919,176 136.046805,174.616811 149.714708,143.064068 C155.244063,130.363641 150.440836,115.518431 138.532786,108.504392 L137.813948,108.113491 Z"/>
      <path stroke="#535461" d="M138,108 C138,108 131.877551,156.526861 96,176"/>
      <path fill="#000" fill-rule="nonzero" d="M100.98995,250.296819 L77,250.296819 C77.7638191,252.024416 78.2261307,253 78.2261307,253 L104.949749,253 C113.504817,250.296819 129,176 129,176 C127.595115,176.838525 126.149402,177.605056 124.668342,178.296687 C123.311558,194.454797 109.013004,237.070865 100.98995,250.296819 Z" opacity=".05"/>
    </g>
    <path fill="#FFE9B3" fill-rule="nonzero" d="M540.74 294.19C541.656216 292.617624 542.008955 290.779856 541.74 288.98 541.416464 287.14938 539.893664 285.770629 538.04 285.63L538.25 282.75C538.300798 282.418602 538.300798 282.081398 538.25 281.75 538.053939 280.893959 537.201041 280.358939 536.345 280.555 535.488959 280.751061 534.953939 281.603959 535.15 282.46 534.600202 281.0364 533.723253 279.762083 532.59 278.74 530.244415 277.145718 527.05287 277.734103 525.43 280.06 523.993738 282.492442 524.593992 285.613763 526.83 287.34 525.600947 286.981206 524.292101 287.559632 523.73 288.71 520.73 294.1 524.73 296.9 529.29 297.71 534.24 298.5 538 299.63 540.74 294.19zM559.55 291.99C561.21166 291.253608 562.57304 289.973347 563.41 288.36 564.231001 286.695942 563.819336 284.687021 562.41 283.48L564.26 281.26C564.497994 281.006126 564.693806 280.715785 564.84 280.4 565.185178 279.590903 564.809097 278.655178 564 278.31 563.190903 277.964822 562.255178 278.340903 561.91 279.15 562.300231 277.676151 562.337915 276.131121 562.02 274.64 561.055167 271.969643 558.120481 270.57366 555.44 271.51 552.85263 272.636074 551.510206 275.513923 552.31 278.22 551.526367 277.210485 550.132169 276.907215 549 277.5 543.42 280.11 545 284.69 548.24 288.03 551.74 291.68 554.12 294.79 559.55 291.99z"/>
    <path fill="#FFE9B3" fill-rule="nonzero" d="M551.79,280.5 C552.097174,278.70955 551.794326,276.867813 550.93,275.27 C549.997739,273.659091 548.089522,272.888385 546.3,273.4 L545.5,270.62 C545.421139,270.267378 545.286081,269.929734 545.1,269.62 C544.619512,268.8827 543.6323,268.674512 542.895,269.155 C542.1577,269.635488 541.949512,270.6227 542.43,271.36 C541.427646,270.208092 540.166498,269.310209 538.75,268.74 C535.997341,268.05552 533.205037,269.707744 532.48,272.45 C531.970546,275.226987 533.607998,277.948928 536.3,278.8 C535.023292,278.885471 533.99337,279.877403 533.86,281.15 C532.86,287.24 537.58,288.51 542.17,287.67 C547.17,286.76 551.07,286.5 551.79,280.5 Z"/>
    <path fill="#000" fill-rule="nonzero" d="M551.79,280.5 C552.097174,278.70955 551.794326,276.867813 550.93,275.27 C549.997739,273.659091 548.089522,272.888385 546.3,273.4 L545.5,270.62 C545.421139,270.267378 545.286081,269.929734 545.1,269.62 C544.619512,268.8827 543.6323,268.674512 542.895,269.155 C542.1577,269.635488 541.949512,270.6227 542.43,271.36 C541.427646,270.208092 540.166498,269.310209 538.75,268.74 C535.997341,268.05552 533.205037,269.707744 532.48,272.45 C531.970546,275.226987 533.607998,277.948928 536.3,278.8 C535.023292,278.885471 533.99337,279.877403 533.86,281.15 C532.86,287.24 537.58,288.51 542.17,287.67 C547.17,286.76 551.07,286.5 551.79,280.5 Z" opacity=".15"/>
  </g>
</svg>
