<svg xmlns="http://www.w3.org/2000/svg" width="866" height="646" viewBox="0 0 866 646">
  <g fill="none" fill-rule="evenodd" transform="translate(.748 .338)">
    <path fill="#FFBCA3" fill-rule="nonzero" d="M865.25192,645.342762 C865.25192,597.444481 504.772538,575.960624 446.75478,577.767131 C388.737021,579.573639 28.2519195,594.938185 28.2519195,645.342762 C28.2519195,646.061547 865.25192,645.342762 865.25192,645.342762 Z" opacity=".5"/>
    <path stroke="#3F3D56" d="M761.74192,614.482222 C764.74192,608.972222 761.34192,602.222222 757.46192,597.302222 C753.58192,592.382222 748.85192,587.302222 748.95192,581.012222 C749.09192,572.012222 758.64192,566.702222 766.28192,561.932222 C771.939595,558.388829 777.159067,554.189756 781.83192,549.422222 C783.79319,547.587768 785.414799,545.42111 786.62192,543.022222 C788.19192,539.502222 788.15192,535.502222 788.05192,531.642222 C787.718586,518.802222 787.085253,505.975556 786.15192,493.162222"/>
    <path fill="#33CCAB" fill-rule="nonzero" d="M800.66192 492.482222C800.434798 487.708309 797.798152 483.376677 793.66192 480.982222L790.52192 487.202222 790.61192 479.682222C786.253694 478.376493 781.532765 479.26997 777.953107 482.078013 774.373448 484.886056 772.381526 489.258437 772.61192 493.802222 772.847715 498.80394 775.733984 503.299923 780.183496 505.596578 784.633009 507.893232 789.969779 507.641642 794.183496 504.936578 798.397214 502.231514 800.847715 497.48394 800.61192 492.482222L800.66192 492.482222zM775.63192 587.482222C772.603149 593.365658 765.868672 596.325009 759.486429 594.577082 753.104186 592.829155 748.817356 586.851362 749.20902 580.245692 749.600684 573.640022 754.563866 568.21068 761.107942 567.229181 767.652018 566.247682 773.989607 569.982102 776.30192 576.182222L767.54192 583.312222 777.181921 581.072222C777.183045 583.30183 776.651636 585.499464 775.63192 587.482222L775.63192 587.482222zM768.70192 560.192222C764.982849 560.371333 761.345629 559.061576 758.594544 556.552572 755.84346 554.043568 754.205161 550.542023 754.04192 546.822222 753.930421 544.626242 754.345274 542.435408 755.25192 540.432222 756.952934 536.634927 760.248513 533.786082 764.25192 532.652222L764.18192 538.442222 767.36192 532.142222 767.36192 532.142222C775.107713 531.780476 781.680172 537.766429 782.041919 545.512222 782.403665 553.258016 776.417713 559.830475 768.67192 560.192222L768.70192 560.192222zM802.77192 537.482222C795.039933 537.84673 788.476427 531.874209 788.11192 524.142222 787.747412 516.410236 793.719933 509.84673 801.45192 509.482222 804.076445 509.352822 806.683892 509.97001 808.97192 511.262222L806.49192 518.062222 811.59192 513.162222C814.328666 515.663621 815.961407 519.14848 816.13192 522.852222 816.195629 524.149452 816.074414 525.449147 815.77192 526.712222 814.33387 532.804949 809.025803 537.202479 802.77192 537.482222L802.77192 537.482222z"/>
    <path fill="#000" fill-rule="nonzero" d="M798.77192 496.182222C795.53192 496.542222 792.38192 497.552222 789.13192 497.752222 785.88192 497.952222 782.31192 497.172222 780.25192 494.642222 779.14192 493.282222 778.59192 491.562222 777.65192 490.082222 776.766518 488.699221 775.554154 487.555547 774.12192 486.752222 771.811704 491.581353 772.457563 497.305127 775.785805 501.498026 779.114047 505.690925 784.541934 507.618818 789.769333 506.464737 794.996731 505.310655 799.108381 501.276666 800.36192 496.072222 799.82192 496.092222 799.29192 496.132222 798.77192 496.182222zM802.77192 537.482222C797.847916 537.732062 793.155484 535.373439 790.418259 531.272728 787.681034 527.172017 787.302583 521.933811 789.42192 517.482222 790.535979 518.234444 791.493646 519.195507 792.24192 520.312222 793.24192 521.822222 793.84192 523.562222 795.02192 524.952222 797.20192 527.522222 800.94192 528.362222 804.33192 528.202222 807.72192 528.042222 810.98192 527.092222 814.33192 526.782222 814.79192 526.782222 815.27192 526.702222 815.74192 526.692222 814.314627 532.782559 809.020297 537.187018 802.77192 537.482222L802.77192 537.482222zM768.70192 560.192222C764.982849 560.371333 761.345629 559.061576 758.594544 556.552572 755.84346 554.043568 754.205161 550.542023 754.04192 546.822222 753.930421 544.626242 754.345274 542.435408 755.25192 540.432222 756.415739 541.193366 757.432133 542.158939 758.25192 543.282222 759.34192 544.822222 760.02192 546.592222 761.25192 548.012222 763.62192 550.652222 767.60192 551.582222 771.19192 551.492222 774.78192 551.402222 778.01192 550.562222 781.47192 550.302222 779.722381 555.958927 774.616429 559.913341 768.70192 560.192222zM775.63192 587.482222C772.456282 594.548705 764.153403 597.702859 757.08692 594.527222 750.020437 591.351584 746.866283 583.048706 750.04192 575.982222 751.194011 576.74792 752.231103 577.673896 753.12192 578.732222 754.45192 580.362222 755.33192 582.202222 756.88192 583.732222 759.75192 586.542222 764.38192 587.732222 768.50192 587.812222 770.883023 587.843456 773.26388 587.733262 775.63192 587.482222L775.63192 587.482222z" opacity=".1"/>
    <path fill="#656380" fill-rule="nonzero" d="M740.58192,608.132222 C740.58192,608.132222 751.65192,607.792222 754.99192,605.412222 C758.33192,603.032222 771.99192,600.192222 772.86192,604.012222 C773.73192,607.832222 789.51192,623.012222 777.00192,623.072222 C764.49192,623.132222 747.94192,621.072222 744.61192,619.072222 C741.28192,617.072222 740.58192,608.132222 740.58192,608.132222 Z"/>
    <path fill="#000" fill-rule="nonzero" d="M777.22192,621.742222 C764.72192,621.842222 748.16192,619.742222 744.83192,617.742222 C742.30192,616.202222 741.28192,610.652222 740.95192,608.092222 L740.58192,608.092222 C740.58192,608.092222 741.28192,617.022222 744.58192,619.092222 C747.88192,621.162222 764.46192,623.172222 776.97192,623.092222 C780.58192,623.092222 781.83192,621.772222 781.76192,619.872222 C781.29192,621.002222 779.91192,621.722222 777.22192,621.742222 Z" opacity=".2"/>
    <path stroke="#3F3D56" d="M132.66192,583.632222 C125.40192,570.192222 133.66192,553.732222 143.10192,541.752222 C152.54192,529.772222 164.10192,517.312222 163.85192,502.042222 C163.49192,480.102222 140.21192,467.152222 121.61192,455.522222 C107.809868,446.891043 95.0779628,436.656511 83.6819195,425.032222 C79.1119195,420.362222 74.6819195,415.382222 72.0219195,409.422222 C68.1819195,400.842222 68.2819195,391.092222 68.5319195,381.692222 C69.3319195,350.358889 70.8785862,319.085556 73.1719195,287.872222"/>
    <path fill="#33CCAB" fill-rule="nonzero" d="M37.8019195 286.162222C38.3584385 274.530161 44.7939691 263.980111 54.8819195 258.162222L62.5419195 273.312222 62.3119195 254.972222C76.5908036 250.764691 91.951776 256.270678 100.306426 268.590973 108.661077 280.911268 108.092655 297.219311 98.9004669 308.928005 89.708279 320.6367 74.0012252 325.059801 60.0499473 319.868299 46.0986693 314.676797 37.1039127 301.061743 37.8019195 286.192222L37.8019195 286.162222zM98.8219195 517.722222C105.895295 531.507281 121.352405 538.814979 136.494672 535.532865 151.636938 532.250752 162.681071 519.198861 163.41192 503.722222 163.650788 498.990333 162.890985 494.261151 161.18192 489.842222 156.066524 476.571751 143.276197 467.848661 129.054175 467.930306 114.832153 468.013103 102.143538 476.883494 97.1819195 490.212222L118.55192 507.592222 95.0418651 502.122222C95.0321795 507.550169 96.3286709 512.900769 98.8219195 517.722222zM115.71192 451.302222C133.079401 452.096351 148.282087 439.741574 151.056472 422.578741 153.830857 405.415908 143.295061 388.900486 126.56192 384.182222L126.74192 398.272222 119.04192 382.942222 118.95192 382.942222C100.072065 382.061328 84.0528137 396.652368 83.1719195 415.532222 82.2910254 434.412076 96.8820654 450.431328 115.76192 451.312222L115.71192 451.302222zM32.6519195 396.032222C47.1787102 396.739968 60.5657849 388.18802 66.0301059 374.709528 71.494427 361.231036 67.8420181 345.771105 56.9235023 336.163058 46.0049865 326.555011 30.2061035 324.898246 17.5319195 332.032222L23.5319195 348.602222 11.1419195 336.632222C4.45259704 342.719496.459083229 351.217406.0419195292 360.252222-.116890946 363.417604.176052 366.589469.911919529 369.672222 4.40677728 384.56805 17.3676323 395.332012 32.6519195 396.032222L32.6519195 396.032222z"/>
    <path fill="#000" fill-rule="nonzero" d="M42.4019195 295.282222C50.3019195 296.152222 57.9819195 298.602222 65.9019195 299.092222 73.8219195 299.582222 82.5319195 297.692222 87.5419195 291.532222 90.2419195 288.212222 91.5919195 284.012222 93.8719195 280.392222 96.0323028 277.019244 98.9936113 274.23314 102.49192 272.282222 108.43834 284.119141 107.01904 298.32477 98.8482622 308.751225 90.6774845 319.17768 77.2230731 323.951894 64.3078014 321.007692 51.3925296 318.06349 41.3365696 307.929785 38.4919195 294.992222 39.8219195 295.052222 41.1219195 295.142222 42.4019195 295.282222zM32.6519195 396.032222C44.645123 396.585195 56.0518047 390.816204 62.713866 380.828229 69.3759273 370.840253 70.3199924 358.092611 65.2019195 347.232222 62.4852134 349.059017 60.1487147 351.395516 58.3219195 354.112222 55.8819195 357.792222 54.4119195 362.042222 51.5419195 365.422222 46.2119195 371.682222 37.1119195 373.732222 28.8519195 373.362222 20.5919195 372.992222 12.6219195 370.632222 4.40191953 369.882222 3.26191953 369.782222 2.10191953 369.702222.951919529 369.672222 4.44267311 384.554328 17.3827527 395.314596 32.6519195 396.032222L32.6519195 396.032222zM115.71192 451.302222C127.584612 451.859782 138.895805 446.214901 145.588274 436.392347 152.280743 426.569793 153.395207 413.977504 148.53192 403.132222 145.714302 405.004003 143.263781 407.376568 141.30192 410.132222 138.64192 413.882222 136.98192 418.202222 133.87192 421.662222 128.10192 428.092222 118.40192 430.362222 109.65192 430.152222 101.18192 429.972222 93.0219195 427.892222 84.6019195 427.242222 88.872586 441.011878 101.310808 450.631409 115.71192 451.302222zM98.8219195 517.722222C105.895295 531.507281 121.352405 538.814979 136.494672 535.532865 151.636938 532.250752 162.681071 519.198861 163.41192 503.722222 163.650788 498.990333 162.890985 494.261151 161.18192 489.842222 158.366648 491.691416 155.839463 493.945665 153.68192 496.532222 150.43192 500.532222 148.28192 504.992222 144.52192 508.692222 137.52192 515.552222 126.23192 518.392222 116.18192 518.692222 110.381169 518.712232 104.584333 518.388331 98.8219195 517.722222z" opacity=".1"/>
    <polygon fill="#F5DD47" fill-rule="nonzero" points="369.472 603.612 237.472 630.612 234.472 630.312 118.472 618.612 118.472 471.612 260.472 447.612 363.472 459.612 363.502 460.262 363.512 460.582"/>
    <polygon fill="#000" fill-rule="nonzero" points="369.472 603.612 237.472 630.612 234.472 630.312 234.472 479.612 363.502 460.262" opacity=".1"/>
    <polygon fill="#000" fill-rule="nonzero" points="363.512 460.582 363.472 460.612 234.472 479.612 118.472 471.612 260.472 447.612 363.472 459.612 363.502 460.262" opacity=".05"/>
    <polygon fill="#3F3D56" fill-rule="nonzero" points="514.472 609.612 382.472 636.612 379.472 636.312 263.472 624.612 263.472 477.612 405.472 453.612 508.472 465.612 508.502 466.262 508.512 466.582"/>
    <polygon fill="#000" fill-rule="nonzero" points="514.472 609.612 382.472 636.612 379.472 636.312 379.472 485.612 508.502 466.262" opacity=".1"/>
    <polygon fill="#000" fill-rule="nonzero" points="508.512 466.582 508.472 466.612 379.472 485.612 263.472 477.612 405.472 453.612 508.472 465.612 508.502 466.262" opacity=".05"/>
    <polygon fill="#3F3D56" fill-rule="nonzero" points="423.472 465.612 291.472 492.612 288.472 492.312 172.472 480.612 172.472 333.612 314.472 309.612 417.472 321.612 417.502 322.262 417.512 322.582"/>
    <polygon fill="#000" fill-rule="nonzero" points="423.472 465.612 291.472 492.612 288.472 492.312 288.472 341.612 417.502 322.262" opacity=".1"/>
    <polygon fill="#000" fill-rule="nonzero" points="417.512 322.582 417.472 322.612 288.472 341.612 172.472 333.612 314.472 309.612 417.472 321.612 417.502 322.262" opacity=".05"/>
    <polygon fill="#3F3D56" fill-rule="nonzero" points="498.472 471.772 429.582 485.872 428.012 485.712 367.472 479.602 367.472 402.882 441.582 390.352 495.342 396.622 495.362 396.962 495.362 397.122"/>
    <polygon fill="#000" fill-rule="nonzero" points="498.472 471.772 429.582 485.872 428.012 485.712 428.012 407.062 495.362 396.962" opacity=".1"/>
    <polygon fill="#000" fill-rule="nonzero" points="495.362 397.122 495.342 397.142 428.012 407.062 367.472 402.882 441.582 390.352 495.342 396.622 495.362 396.962" opacity=".05"/>
    <polygon fill="#3F3D56" fill-rule="nonzero" points="313.472 322.772 244.582 336.862 243.012 336.712 182.472 330.602 182.472 253.882 256.582 241.352 310.342 247.622 310.362 247.962 310.362 248.122"/>
    <polygon fill="#000" fill-rule="nonzero" points="313.472 322.772 244.582 336.862 243.012 336.712 243.012 258.062 310.362 247.962" opacity=".1"/>
    <polygon fill="#000" fill-rule="nonzero" points="310.362 248.122 310.342 248.142 243.012 258.062 182.472 253.882 256.582 241.352 310.342 247.622 310.362 247.962" opacity=".05"/>
    <polygon fill="#F5DD47" fill-rule="nonzero" points="434.472 319.772 365.582 333.862 364.012 333.712 303.472 327.602 303.472 250.882 377.582 238.352 431.342 244.622 431.362 244.962 431.362 245.122"/>
    <polygon fill="#000" fill-rule="nonzero" points="434.472 319.772 365.582 333.862 364.012 333.712 364.012 255.062 431.362 244.962" opacity=".1"/>
    <polygon fill="#000" fill-rule="nonzero" points="431.362 245.122 431.342 245.142 364.012 255.062 303.472 250.882 377.582 238.352 431.342 244.622 431.362 244.962" opacity=".05"/>
    <polygon fill="#3F3D56" fill-rule="nonzero" points="470.472 242.772 401.582 256.862 400.012 256.712 339.472 250.602 339.472 173.882 413.582 161.352 467.342 167.622 467.362 167.962 467.362 168.122"/>
    <polygon fill="#000" fill-rule="nonzero" points="470.472 242.772 401.582 256.862 400.012 256.712 400.012 178.062 467.362 167.962" opacity=".1"/>
    <polygon fill="#000" fill-rule="nonzero" points="467.362 168.122 467.342 168.142 400.012 178.062 339.472 173.882 413.582 161.352 467.342 167.622 467.362 167.962" opacity=".05"/>
    <path fill="#FFC0C6" fill-rule="nonzero" d="M517.39192,85.9322222 C516.66192,92.4322222 511.70192,97.6722222 509.86192,103.932222 C507.10192,113.382222 511.86192,123.532222 518.42192,130.932222 C529.100638,142.808663 544.088398,149.917225 560.04192,150.672222 C562.362203,150.871908 564.699159,150.617152 566.92192,149.922222 C568.901224,149.116661 570.684683,147.895861 572.15192,146.342222 C577.07192,141.392222 579.72192,134.542222 580.77192,127.632222 C581.82192,120.722222 581.42192,113.692222 581.01192,106.722222 C581.011371,105.279766 580.747022,103.849572 580.23192,102.502222 C579.56238,101.220835 578.640563,100.088122 577.52192,99.1722222 C573.975165,95.9127933 570.066291,93.0708912 565.87192,90.7022222 C564.07192,89.7022222 562.14192,88.7022222 560.99192,86.9722222 C560.202754,85.5945665 559.689847,84.0762245 559.48192,82.5022222 L558.19192,75.9422222 C557.963764,74.0507837 557.318209,72.233666 556.30192,70.6222222 C554.03192,67.5622222 549.68192,67.1422222 545.87192,66.9922222 L531.87192,66.4422222 C527.52192,66.2722222 521.80192,65.0222222 517.55192,65.8822222 C513.55192,66.6722222 514.90192,70.3322222 515.62192,73.6522222 C516.663486,77.6676534 517.257105,81.7860946 517.39192,85.9322222 L517.39192,85.9322222 Z"/>
    <path fill="#000" fill-rule="nonzero" d="M517.39192,85.9322222 C516.66192,92.4322222 511.70192,97.6722222 509.86192,103.932222 C507.10192,113.382222 511.86192,123.532222 518.42192,130.932222 C529.100638,142.808663 544.088398,149.917225 560.04192,150.672222 C562.362203,150.871908 564.699159,150.617152 566.92192,149.922222 C568.901224,149.116661 570.684683,147.895861 572.15192,146.342222 C577.07192,141.392222 579.72192,134.542222 580.77192,127.632222 C581.82192,120.722222 581.42192,113.692222 581.01192,106.722222 C581.011371,105.279766 580.747022,103.849572 580.23192,102.502222 C579.56238,101.220835 578.640563,100.088122 577.52192,99.1722222 C573.975165,95.9127933 570.066291,93.0708912 565.87192,90.7022222 C564.07192,89.7022222 562.14192,88.7022222 560.99192,86.9722222 C560.202754,85.5945665 559.689847,84.0762245 559.48192,82.5022222 L558.19192,75.9422222 C557.963764,74.0507837 557.318209,72.233666 556.30192,70.6222222 C554.03192,67.5622222 549.68192,67.1422222 545.87192,66.9922222 L531.87192,66.4422222 C527.52192,66.2722222 521.80192,65.0222222 517.55192,65.8822222 C513.55192,66.6722222 514.90192,70.3322222 515.62192,73.6522222 C516.663486,77.6676534 517.257105,81.7860946 517.39192,85.9322222 L517.39192,85.9322222 Z" opacity=".1"/>
    <path fill="#605D82" fill-rule="nonzero" d="M606.30192,378.692222 L600.36192,443.812222 C598.81192,460.892222 597.23192,478.042222 594.19192,494.902222 C593.19192,500.712222 591.91192,506.492222 590.45192,512.222222 C586.39192,528.132222 580.50192,543.682222 578.60192,559.992222 C578.54192,560.462222 578.49192,560.992222 578.44192,561.422222 C578.05192,565.022222 577.71192,568.662222 576.44192,572.022222 C575.44192,574.512222 574.03192,576.782222 573.00192,579.242222 C571.00192,584.162222 570.68192,589.602222 570.43192,594.932222 C563.223503,590.862918 555.329368,588.151321 547.14192,586.932222 C543.14192,586.342222 538.79192,585.932222 536.14192,582.932222 C533.14192,579.672222 533.49192,574.682222 533.99192,570.302222 C535.565253,556.702222 537.13192,543.108889 538.69192,529.522222 C539.211952,523.675955 540.215384,517.882813 541.69192,512.202222 C542.23192,510.312222 542.88192,508.452222 543.54192,506.592222 C544.45192,504.032222 545.37192,501.472222 546.06192,498.842222 C547.018915,494.616697 547.680515,490.329662 548.04192,486.012222 C549.65192,472.332222 551.59192,458.682222 553.29192,445.012222 L553.38192,444.292222 C555.93192,423.572222 557.87192,402.752222 557.31192,381.882222 C557.23192,378.792222 557.10192,375.702222 556.90192,372.602222 C556.62192,368.112222 556.21192,365.732222 559.90192,362.922222 C564.01192,359.822222 569.42192,357.652222 574.12192,355.622222 C576.65192,354.522222 604.51192,344.622222 605.12192,346.802222 C606.415287,351.432755 607.087835,356.214575 607.12192,361.022222 C607.178309,366.922905 606.904548,372.822122 606.30192,378.692222 L606.30192,378.692222 Z"/>
    <path fill="#000" fill-rule="nonzero" d="M594.19192,494.902222 C593.19192,500.712222 591.91192,506.492222 590.45192,512.222222 C586.39192,528.132222 580.50192,543.682222 578.60192,559.992222 C578.54192,560.462222 578.49192,560.992222 578.44192,561.422222 C566.02192,543.682222 555.56192,524.602222 543.44192,506.672222 C544.35192,504.112222 545.27192,501.552222 545.96192,498.922222 C546.956241,494.672813 547.65128,490.358894 548.04192,486.012222 C549.65192,472.332222 551.59192,458.682222 553.29192,445.012222 L553.38192,444.292222 C554.083631,447.193182 555.089187,450.012091 556.38192,452.702222 C564.52192,469.242222 583.86192,477.602222 593.32192,493.432222 C593.635253,493.925556 593.925253,494.415556 594.19192,494.902222 Z" opacity=".1"/>
    <path fill="#605D82" fill-rule="nonzero" d="M493.41192,349.482222 C493.82192,362.742222 495.94192,375.892222 498.06192,388.992222 L502.43192,415.992222 C504.82192,430.792222 507.32192,445.882222 514.32192,459.132222 C519.56192,469.052222 527.10192,477.512222 533.93192,486.402222 C550.71192,508.262222 563.32192,533.032222 579.23192,555.532222 C583.86192,562.072222 590.47192,569.152222 598.36192,567.782222 C603.54192,566.892222 607.30192,562.572222 611.36192,559.252222 C616.16192,555.332222 621.94192,552.462222 625.72192,547.542222 C629.50192,542.622222 630.24192,534.462222 625.12192,530.962222 C623.37192,529.772222 621.24192,529.322222 619.26192,528.562222 C611.33192,525.562222 606.19192,517.802222 602.93192,509.962222 C599.67192,502.122222 597.68192,493.712222 593.33192,486.422222 C583.87192,470.592222 564.52192,462.232222 556.38192,445.682222 C551.82192,436.422222 551.38192,425.682222 551.04192,415.412222 L550.15192,389.102222 C550.05192,386.222222 549.98192,383.232222 551.15192,380.602222 C554.26192,373.602222 563.66192,372.942222 571.28192,372.052222 C579.92345,371.043231 588.294939,368.403175 595.95192,364.272222 C600.34192,361.902222 604.62192,358.882222 606.95192,354.482222 C609.09192,350.482222 609.38192,345.772222 609.63192,341.232222 L612.27192,293.542222 C612.50192,289.442222 612.70192,285.192222 611.27192,281.352222 C607.64192,271.692222 595.44192,268.532222 585.13192,268.992222 C565.95192,269.852222 548.25192,278.102222 530.13192,283.682222 C525.64192,285.062222 521.13192,286.302222 516.50192,287.232222 C512.50192,288.042222 507.50192,287.712222 503.66192,289.012222 C496.78192,291.332222 496.95192,306.392222 495.98192,312.632222 C493.980494,324.808829 493.120094,337.14568 493.41192,349.482222 L493.41192,349.482222 Z"/>
    <path fill="#535070" fill-rule="nonzero" d="M595.76192 569.802222C597.45192 571.512222 598.00192 574.012222 598.44192 576.372222 600.886258 589.469646 602.157959 602.758925 602.24192 616.082222 602.132439 617.32527 602.378681 618.573822 602.95192 619.682222 603.431372 620.339046 604.076716 620.856702 604.82192 621.182222 609.71192 623.512222 615.38192 620.262222 619.46192 616.692222 627.01192 610.082222 633.40192 601.202222 633.83192 591.172222 633.94192 588.592222 633.65192 585.982222 634.10192 583.432222 634.76192 579.652222 636.97192 576.362222 638.91192 573.062222 642.231249 567.437314 644.914422 561.460545 646.91192 555.242222 647.65192 552.902222 648.15192 549.962222 646.31192 548.332222 645.667573 547.820146 644.930907 547.436536 644.14192 547.202222L622.04192 539.002222C620.12192 538.292222 615.36192 550.522222 614.61192 551.862222 612.76192 555.132222 610.92192 556.982222 607.21192 557.742222 603.50192 558.502222 598.92192 557.402222 595.38192 559.292222 589.38192 562.482222 592.37192 566.392222 595.76192 569.802222zM561.68192 577.352222C561.272306 576.535547 560.700695 575.810826 560.00192 575.222222 558.980791 574.571957 557.817933 574.177477 556.61192 574.072222 552.41192 573.352222 547.43192 572.882222 544.52192 576.012222 541.80192 578.942222 542.27192 583.712222 540.00192 587.012222 539.28192 588.012222 538.30192 588.912222 537.68192 590.012222 536.911265 591.696043 536.567789 593.543943 536.68192 595.392222 536.56192 600.482222 536.44192 605.592222 536.80192 610.672222 537.09192 614.932222 537.80192 619.402222 540.47192 622.742222 544.75192 628.102222 552.47192 628.872222 559.31192 629.212222L564.86192 629.502222C566.387977 629.680831 567.934527 629.537758 569.40192 629.082222 571.239453 628.237213 572.654459 626.681428 573.32192 624.772222 576.21192 617.592222 571.64192 609.862222 568.82192 602.662222 565.57192 594.372222 566.15192 585.182222 561.68192 577.352222z"/>
    <path fill="#3F3D56" fill-rule="nonzero" d="M515.79192,49.2822222 C515.720992,48.5543233 515.827355,47.8200732 516.10192,47.1422222 C516.91192,45.7122222 519.03192,46.1422222 520.63192,46.5022222 C527.06192,48.1222222 533.84192,46.6522222 540.47192,47.0322222 C547.10192,47.4122222 554.56192,50.7222222 555.89192,57.2222222 C560.701928,53.8181729 564.847114,49.5611385 568.12192,44.6622222 C569.96192,41.9122222 571.56192,38.7622222 571.31192,35.4622222 C570.95192,30.7022222 566.96192,27.1422222 563.31192,24.1222222 L552.31192,15.1222222 C550.86283,13.7930499 549.19051,12.7300777 547.37192,11.9822222 C544.83192,11.1122222 542.05192,11.5322222 539.37192,11.5322222 C531.37192,11.5322222 522.79192,7.88222222 515.66192,11.5322222 C512.66192,13.0622222 510.43192,15.6922222 508.27192,18.2522222 L498.44192,29.8922222 C497.697836,30.6342097 497.154205,31.5528785 496.86192,32.5622222 C496.58192,33.9822222 497.31192,35.3822222 497.57192,36.8122222 C498.03192,39.4122222 496.91192,42.1922222 497.77192,44.6922222 C499.20192,48.8322222 504.24192,49.4222222 507.32192,51.8022222 C508.46192,52.6822222 510.26192,55.6922222 511.63192,55.6522222 C514.04192,55.6022222 515.72192,51.2022222 515.79192,49.2822222 Z"/>
    <circle cx="532.472" cy="52.112" r="31.5" fill="#FFC0C6" fill-rule="nonzero"/>
    <path fill="#B9EFE9" fill-rule="nonzero" d="M539.85192,121.042222 C537.662535,114.777762 531.675616,110.646343 525.04192,110.822222 C524.114583,110.999154 523.155004,110.87658 522.30192,110.472222 C521.818342,110.103019 521.430756,109.622823 521.17192,109.072222 C519.262226,105.624703 517.723618,101.984336 516.58192,98.2122222 C516.08192,96.5422222 515.39192,94.5722222 513.70192,94.1422222 C512.34192,93.7922222 510.95192,94.6722222 510.04192,95.7422222 C509.235326,96.8904168 508.360413,97.9890665 507.42192,99.0322222 C503.42192,102.572222 496.42192,99.3422222 492.23192,102.592222 C491.54192,103.122222 490.97192,103.802222 490.23192,104.292222 C489.511962,104.730956 488.734526,105.067508 487.92192,105.292222 C479.788368,107.938302 471.815001,111.053524 464.04192,114.622222 C466.84192,131.462222 469.70192,148.622222 476.26192,164.372222 C479.38192,171.872222 482.91192,179.222222 485.41192,186.952222 C490.95192,204.082222 491.19192,222.412222 491.26192,240.422222 C491.26192,252.742222 491.26192,265.322222 487.26192,276.982222 C486.36192,279.622222 485.26192,282.242222 485.01192,284.982222 C484.76192,287.722222 485.58192,290.822222 487.83192,292.462222 C489.134445,293.321362 490.628359,293.846808 492.18192,293.992222 C499.09192,294.992222 506.05192,293.172222 512.85192,291.592222 C531.08192,287.372222 549.68192,284.952222 568.23192,282.592222 L599.33192,278.592222 C601.562998,278.4362 603.746174,277.870066 605.77192,276.922222 C611.46192,273.812222 612.00192,265.252222 608.46192,259.812222 C606.77192,257.202222 604.38192,255.062222 602.95192,252.302222 C601.52192,249.542222 601.41192,245.662222 603.86192,243.752222 C608.86192,239.852222 607.36192,232.622222 607.60192,226.302222 C608.268586,208.622222 608.178586,190.955556 607.33192,173.302222 C607.077365,169.641322 607.017281,165.969491 607.15192,162.302222 C607.50192,156.082222 609.04192,149.992222 610.58192,143.942222 L620.03192,106.742222 C617.56192,102.842222 612.83192,100.362222 608.36192,99.2422222 C603.89192,98.1222222 599.22192,97.7922222 594.81192,96.4222222 C585.81192,93.6222222 577.73192,86.5222222 568.30192,87.1822222 C567.586785,87.1949519 566.883317,87.3656964 566.24192,87.6822222 C564.12192,88.8922222 564.45192,91.9522222 564.32192,94.3922222 C564.02192,99.8022222 560.04192,104.312222 555.66192,107.482222 C551.28192,110.652222 546.26192,112.952222 542.23192,116.562222 C540.815255,117.630239 539.943887,119.27046 539.85192,121.042222 Z"/>
    <path fill="#FFC0C6" fill-rule="nonzero" d="M415.04192 156.332222C412.955542 157.688619 410.737645 158.83107 408.42192 159.742222 406.22192 160.612222 403.87192 161.302222 402.07192 162.822222 401.180712 163.595439 400.432623 164.519549 399.86192 165.552222 397.691478 169.403438 397.788054 174.130478 400.113984 177.88983 402.439914 181.649181 406.626851 183.845495 411.04192 183.622222 413.93192 183.472222 416.66192 182.302222 419.31192 181.152222L441.53192 171.482222C445.29192 169.852222 449.35192 167.952222 451.13192 164.252222 451.335897 163.905812 451.413634 163.49946 451.35192 163.102222 451.179826 162.666364 450.851951 162.309978 450.43192 162.102222 445.424685 158.844481 441.044832 154.711905 437.50192 149.902222 436.59192 148.662222 435.50192 145.742222 434.18192 144.992222 429.48192 142.382222 418.81192 153.892222 415.04192 156.332222zM652.56192 148.482222L660.75192 157.842222C662.51192 159.842222 664.27192 161.842222 665.87192 164.002222 669.809294 169.424736 672.966713 175.372666 675.25192 181.672222 677.03192 186.342222 678.51192 191.322222 677.89192 196.282222 677.476447 198.825114 676.789176 201.316054 675.84192 203.712222 674.34152 208.318783 672.479043 212.799427 670.27192 217.112222 668.428823 220.384708 666.34649 223.516565 664.04192 226.482222 657.698331 234.887737 650.757005 242.824977 643.27192 250.232222 640.47192 253.002222 639.27192 257.492222 638.08192 261.232222 635.83192 268.142222 630.48192 273.532222 625.31192 278.632222 623.649068 280.390126 621.809333 281.971828 619.82192 283.352222 616.845436 285.272841 613.363587 286.261686 609.82192 286.192222 608.276541 286.201067 606.746641 285.884183 605.33192 285.262222 601.79192 283.582222 599.99192 279.492222 599.62192 275.592222 599.29516 272.048451 599.887558 268.480286 601.34192 265.232222 606.04192 254.822222 618.11192 250.312222 626.64192 242.712222 631.64192 238.262222 635.47192 232.662222 639.25192 227.132222 641.812163 223.675628 643.950626 219.925765 645.62192 215.962222 647.52192 210.872222 646.78192 204.852222 648.45192 199.692222 649.15192 197.502222 650.45192 195.532222 651.16192 193.362222 651.87192 191.192222 652.11192 188.622222 650.78192 186.752222 649.785362 185.556797 648.511746 184.623041 647.07192 184.032222 641.62192 181.272222 635.52192 177.712222 634.48192 171.682222 634.065389 168.342904 634.938012 164.97043 636.92192 162.252222 638.89506 159.568698 641.203852 157.149004 643.79192 155.052222 646.16192 152.912222 650.17192 150.542222 652.56192 148.482222z"/>
    <path fill="#FFC0C6" fill-rule="nonzero" d="M409.78192,169.392222 C408.34192,166.472222 406.53192,163.492222 403.61192,162.042222 C400.739859,160.803162 397.48398,160.803162 394.61192,162.042222 C391.782278,163.265619 389.131489,164.866857 386.73192,166.802222 L379.67192,172.012222 C378.071549,173.062532 376.6558,174.370157 375.48192,175.882222 C374.3623,177.716783 373.621083,179.756829 373.30192,181.882222 C372.30192,186.752222 371.49192,191.762222 372.19192,196.692222 C373.31192,204.692222 378.11192,211.612222 383.39192,217.692222 C386.69192,221.472222 390.77192,225.292222 395.79192,225.462222 C397.96192,225.532222 400.37192,224.672222 401.27192,222.702222 C401.585716,221.919503 401.751851,221.08544 401.76192,220.242222 C402.30192,211.362222 399.12192,202.692222 395.42192,194.602222 C394.42192,192.402222 393.34192,190.122222 393.42192,187.712222 C393.391232,187.30305 393.496707,186.895214 393.72192,186.552222 C394.039359,186.219558 394.464639,186.010462 394.92192,185.962222 C399.99192,184.962222 408.73192,188.902222 412.28192,183.272222 C414.58192,179.552222 411.42192,172.702222 409.78192,169.392222 Z"/>
    <path fill="#3F3D56" fill-rule="nonzero" d="M514.13192,39.3722222 C514.069203,38.643662 514.178824,37.9105676 514.45192,37.2322222 C515.26192,35.7922222 517.38192,36.2322222 518.98192,36.5922222 C525.41192,38.2122222 532.19192,36.7422222 538.82192,37.1222222 C545.45192,37.5022222 552.90192,40.8122222 554.24192,47.3122222 C559.04724,43.9026915 563.191509,39.6465976 566.47192,34.7522222 C568.31192,31.9922222 569.91192,28.8422222 569.66192,25.5422222 C569.30192,20.7822222 565.30192,17.2222222 561.66192,14.2122222 L550.66192,5.21222222 C549.216469,3.8832057 547.547454,2.82018202 545.73192,2.07222222 C543.18192,1.20222222 540.41192,1.62222222 537.73192,1.62222222 C529.73192,1.62222222 521.15192,-2.02777778 514.02192,1.62222222 C511.02192,3.15222222 508.79192,5.78222222 506.63192,8.34222222 L496.79192,19.9822222 C496.052161,20.7258629 495.512138,21.6442457 495.22192,22.6522222 C494.94192,24.0722222 495.67192,25.4722222 495.93192,26.9022222 C496.39192,29.5022222 495.27192,32.2822222 496.13192,34.7722222 C497.56192,38.9222222 502.60192,39.5122222 505.68192,41.8922222 C506.82192,42.7722222 508.62192,45.7822222 509.99192,45.7422222 C512.36192,45.6922222 514.04192,41.2922222 514.13192,39.3722222 Z"/>
    <path fill="#B9EFE9" fill-rule="nonzero" d="M447.23192 125.692222C445.962314 126.516574 444.845688 127.555374 443.93192 128.762222 442.78192 130.512222 442.54192 132.762222 441.55192 134.562222 439.43192 138.502222 434.46192 139.912222 431.37192 143.142222 430.870965 143.583754 430.5212 144.17136 430.37192 144.822222 430.352903 145.701784 430.647072 146.559482 431.20192 147.242222L446.14192 170.722222C451.14192 171.162222 455.88192 168.042222 460.86192 168.462222 462.71192 168.612222 464.62192 169.252222 466.40192 168.702222 467.67413 168.135481 468.867426 167.406058 469.95192 166.532222 472.95192 164.652222 476.87192 164.432222 479.36192 161.962222 481.85192 159.492222 482.06192 155.862222 482.03192 152.492222 482.076777 149.567384 481.778065 146.647394 481.14192 143.792222 478.94192 134.792222 472.05192 127.852222 467.73192 119.872222 465.62192 115.982222 464.48192 113.712222 460.03192 116.382222 455.58192 119.052222 451.44192 122.612222 447.23192 125.692222zM628.64192 113.822222C631.449807 115.645375 633.982172 117.861195 636.16192 120.402222 638.43192 123.332222 639.72192 126.932222 641.91192 129.932222 644.10192 132.932222 646.91192 135.092222 649.31192 137.772222 652.96192 141.832222 655.43192 146.772222 657.85192 151.682222 651.927769 159.390204 645.472033 166.674626 638.53192 173.482222 637.757797 174.392595 636.736707 175.05943 635.59192 175.402222 634.015429 175.571641 632.459491 174.936487 631.45192 173.712222 630.37192 172.592222 629.61192 171.192222 628.58192 170.022222 626.155321 167.519536 622.920756 165.957167 619.45192 165.612222 616.011946 165.277133 612.550159 165.226963 609.10192 165.462222 608.345047 165.551958 607.578291 165.423587 606.89192 165.092222 606.381296 164.741505 605.968334 164.266599 605.69192 163.712222 601.69192 156.832222 602.94192 148.192222 604.37192 140.332222L607.64192 122.332222C608.119167 118.895578 609.036703 115.534641 610.37192 112.332222 611.61192 109.682222 614.37192 105.182222 617.79192 105.982222 621.21192 106.782222 625.75192 111.742222 628.64192 113.822222z"/>
    <polygon fill="#F5DD47" fill-rule="nonzero" points="343.472 245.772 274.582 259.862 273.012 259.712 212.472 253.602 212.472 176.882 286.582 164.352 340.342 170.622 340.362 170.962 340.362 171.122"/>
    <polygon fill="#000" fill-rule="nonzero" points="343.472 245.772 274.582 259.862 273.012 259.712 273.012 181.062 340.362 170.962" opacity=".1"/>
    <polygon fill="#000" fill-rule="nonzero" points="340.362 171.122 340.342 171.142 273.012 181.062 212.472 176.882 286.582 164.352 340.342 170.622 340.362 170.962" opacity=".05"/>
    <polygon fill="#3F3D56" fill-rule="nonzero" points="379.472 169.772 310.582 183.872 309.012 183.712 248.472 177.602 248.472 100.882 322.582 88.352 376.342 94.622 376.362 94.962 376.362 95.122"/>
    <polygon fill="#000" fill-rule="nonzero" points="379.472 169.772 310.582 183.872 309.012 183.712 309.012 105.062 376.362 94.962" opacity=".1"/>
    <polygon fill="#000" fill-rule="nonzero" points="376.362 95.122 376.342 95.142 309.012 105.062 248.472 100.882 322.582 88.352 376.342 94.622 376.362 94.962" opacity=".05"/>
  </g>
</svg>
