<svg xmlns="http://www.w3.org/2000/svg" width="1217" height="687" viewBox="0 0 1217 687">
  <defs>
    <linearGradient id="music2-a" x1="50.099%" x2="50.099%" y1="100%" y2="0%">
      <stop offset="0%" stop-color="#FFF"/>
      <stop offset="100%"/>
    </linearGradient>
  </defs>
  <g fill="none" fill-rule="evenodd">
    <ellipse cx="608.5" cy="602.5" fill="#FBE6DF" rx="608.5" ry="84.5"/>
    <g transform="translate(957 258)">
      <ellipse cx="140" cy="257.5" fill="#7A3814" fill-rule="nonzero" rx="48" ry="17.5"/>
      <ellipse cx="140" cy="257.5" fill="#000" fill-rule="nonzero" opacity=".5" rx="48" ry="17.5"/>
      <path fill="#7A3814" fill-rule="nonzero" d="M91.5270936,254 C91.5270936,254 144.680496,283.491776 188,257.934209 C188,257.934209 165.353194,370 152.559462,370 L113.179441,370 C113.179441,370 79.7086442,301.180926 91.5270936,254 Z"/>
      <path fill="#33CCAB" fill-rule="nonzero" d="M181.94878,67.2462994 C195.456369,116.548891 137.830895,257 137.830895,257 C137.830895,257 16.5141077,165.45281 3.06569799,116.091155 C-9.85498237,67.0082392 19.2376034,16.6954795 68.2835857,3.30324644 C117.329568,-10.0889867 168.03367,18.4349171 181.94878,67.2462994 Z"/>
      <path fill="#000" fill-rule="nonzero" d="M181.94878,67.2462994 C195.456369,116.548891 137.830895,257 137.830895,257 C137.830895,257 16.5141077,165.45281 3.06569799,116.091155 C-9.85498237,67.0082392 19.2376034,16.6954795 68.2835857,3.30324644 C117.329568,-10.0889867 168.03367,18.4349171 181.94878,67.2462994 Z" opacity=".1"/>
      <path stroke="#535461" d="M68,3 C68,3 143.355558,116.432316 137.696503,257"/>
      <path fill="#33CCAB" fill-rule="nonzero" d="M201.107815,157.560607 C201.107815,157.560607 133.089415,120.62136 141.764481,257 C141.764481,257 198.505295,254.973921 218.634389,208.755818 C226.77762,190.152375 219.703776,168.407279 202.166467,158.133194 L201.107815,157.560607 Z"/>
      <path stroke="#535461" d="M202,157 C202,157 193.107872,228.363031 141,257"/>
      <path fill="#000" fill-rule="nonzero" d="M147.062234,366.068101 L112,366.068101 C113.116351,368.580969 113.792037,370 113.792037,370 L152.849633,370 C165.353194,366.068101 188,258 188,258 C185.946707,259.219673 183.833742,260.334627 181.669115,261.340636 C179.686123,284.843342 158.788237,346.830349 147.062234,366.068101 Z" opacity=".05"/>
    </g>
    <polygon fill="#33CCAB" fill-rule="nonzero" points="100.12 536.67 154.79 536.67 139.79 605.01 115.12 605.01"/>
    <polygon fill="#33CCAB" fill-rule="nonzero" points="770.37 537.18 825.04 537.18 812.04 605.52 783.37 605.52"/>
    <polygon fill="#33CCAB" fill-rule="nonzero" points="870.6 536.67 925.27 536.67 912.27 605.01 883.6 605.01"/>
    <polygon fill="#33CCAB" fill-rule="nonzero" points="223.64 537.18 278.31 537.18 265.31 605.52 236.64 605.52"/>
    <polygon fill="#000" fill-rule="nonzero" points="100.12 536.67 154.79 536.67 139.79 605.01 114.12 605.01" opacity=".4"/>
    <polygon fill="#000" fill-rule="nonzero" points="770.37 537.18 825.04 537.18 812.04 605.52 783.37 605.52" opacity=".4"/>
    <polygon fill="#000" fill-rule="nonzero" points="870.6 536.67 925.27 536.67 912.27 605.01 883.6 605.01" opacity=".4"/>
    <polygon fill="#000" fill-rule="nonzero" points="223.64 537.18 278.31 537.18 265.31 605.52 236.64 605.52" opacity=".4"/>
    <path fill="#B9EFE9" fill-rule="nonzero" d="M797.2,212.52 L934.74,212.52 C961.945547,212.52 984,234.574453 984,261.78 L984,514.47 C984,541.460156 962.120156,563.34 935.13,563.34 L797.2,563.34 L797.2,212.52 Z"/>
    <path fill="#000" fill-rule="nonzero" d="M797.2,212.52 L934.74,212.52 C961.945547,212.52 984,234.574453 984,261.78 L984,514.47 C984,541.460156 962.120156,563.34 935.13,563.34 L797.2,563.34 L797.2,212.52 Z" opacity=".1"/>
    <path fill="#B9EFE9" fill-rule="nonzero" d="M169.91,112.29 L433.22,112.29 L433.22,426.66 L123.4,426.66 L123.4,158.79 C123.405522,133.107142 144.227141,112.29 169.91,112.29 Z"/>
    <path fill="#000" fill-rule="nonzero" d="M171.41,112.289999 L433.22,112.289999 L433.22,426.66 L123.4,426.66 L123.4,160.289999 C123.4,147.557876 128.458501,135.347372 137.46241,126.345338 C146.466319,117.343305 158.677876,112.289999 171.41,112.289999 Z" opacity=".1"/>
    <path fill="#B9EFE9" fill-rule="nonzero" d="M241.2,112.29 L496.5,112.29 L496.5,426.66 L186.68,426.66 L186.68,166.8 C186.68,136.694958 211.084958,112.29 241.19,112.29 L241.2,112.29 Z"/>
    <path fill="#B9EFE9" fill-rule="nonzero" d="M495 112.29L755.55 112.29C783.865639 112.29 806.82 135.244361 806.82 163.56L806.82 426.66 495 426.66 495 112.29zM883.77 212.52L934.77 212.52C961.96383 212.536561 984 234.586165 984 261.78L984 514.47C984 541.460156 962.120156 563.34 935.13 563.34L883.77 563.34 883.77 212.52z"/>
    <rect width="628.74" height="95.68" x="255.02" y="467.66" fill="#B9EFE9" fill-rule="nonzero"/>
    <rect width="173.13" height="182.24" x="302.607" y="239.877" fill="#07454C" fill-rule="nonzero" rx="53.2" transform="rotate(-16.25 389.172 330.997)"/>
    <rect width="173.13" height="182.24" x="302.607" y="239.877" fill="#000" fill-rule="nonzero" opacity=".1" rx="53.2" transform="rotate(-16.25 389.172 330.997)"/>
    <rect width="173.13" height="182.24" x="305.913" y="237.554" fill="#07454C" fill-rule="nonzero" rx="53.2" transform="rotate(-16.25 392.478 328.674)"/>
    <path fill="#B9EFE9" fill-rule="nonzero" d="M104.13,212.52 L305.13,212.52 L305.13,563.34 L104.13,563.34 C74.2387313,563.34 50.0055221,539.111268 50,509.22 L50,266.65 C50,236.754826 74.2348265,212.52 104.13,212.52 Z"/>
    <path fill="#000" fill-rule="nonzero" d="M104.51,212.52 L254.7,212.52 C268.084453,212.52 280.92013,217.839685 290.380616,227.307673 C299.841101,236.775661 305.150614,249.615551 305.140016,263 L305.140016,512.9 C305.140016,540.757243 282.557243,563.34 254.7,563.34 L104.51,563.34 C90.0530491,563.34 76.1882173,557.596999 65.9656094,547.374391 C55.7430014,537.151783 50,523.286951 50,508.83 L50,267 C50.0165621,236.906675 74.4166701,212.52 104.51,212.52 Z" opacity=".1"/>
    <path fill="#000" fill-rule="nonzero" d="M205.41,212.52 L293.2,212.52 C302.588841,212.52 310.2,220.131159 310.2,229.52 L310.2,546.34 C310.2,555.728841 302.588841,563.34 293.2,563.34 L205.41,563.34 L205.41,212.52 Z" opacity=".1"/>
    <path fill="#B9EFE9" fill-rule="nonzero" d="M200.35,212.52 L288.14,212.52 C297.528841,212.52 305.14,220.131159 305.14,229.52 L305.14,546.34 C305.14,555.728841 297.528841,563.34 288.14,563.34 L200.35,563.34 L200.35,212.52 Z"/>
    <rect width="314.37" height="86.57" x="282.36" y="394.77" fill="#B9EFE9" fill-rule="nonzero"/>
    <rect width="314.37" height="86.57" x="597.24" y="395.27" fill="#B9EFE9" fill-rule="nonzero"/>
    <rect width="314.37" height="86.57" x="282.36" y="394.77" fill="#FFF" fill-rule="nonzero" opacity=".25" rx="26.6"/>
    <circle cx="350.96" cy="217.33" r="18.22" fill="#F5DD48" fill-rule="nonzero"/>
    <circle cx="350.96" cy="217.33" r="18.22" fill="#000" fill-rule="nonzero" opacity=".3"/>
    <rect width="314.37" height="86.57" x="597.24" y="395.27" fill="#FFF" fill-rule="nonzero" opacity=".25" rx="26.6"/>
    <circle cx="615.52" cy="204.64" r="14.88" fill="#F5DD48" fill-rule="nonzero"/>
    <path fill="#4D8AF0" fill-rule="nonzero" d="M587.46,227.54 L587.28,227.36 C587.964481,226.842084 588.366708,226.033342 588.366708,225.175 C588.366708,224.316658 587.964481,223.507916 587.28,222.99 L587.44,222.79 C588.172238,223.358279 588.600679,224.233116 588.600679,225.16 C588.600679,226.086884 588.172238,226.961721 587.44,227.53 L587.46,227.54 Z"/>
    <path fill="#000" fill-rule="nonzero" d="M587.46,227.54 L587.28,227.36 C587.964481,226.842084 588.366708,226.033342 588.366708,225.175 C588.366708,224.316658 587.964481,223.507916 587.28,222.99 L587.44,222.79 C588.172238,223.358279 588.600679,224.233116 588.600679,225.16 C588.600679,226.086884 588.172238,226.961721 587.44,227.53 L587.46,227.54 Z" opacity=".1"/>
    <path fill="#4D8AF0" fill-rule="nonzero" d="M587.28,227.54 C586.547762,226.971721 586.119321,226.096884 586.119321,225.17 C586.119321,224.243116 586.547762,223.368279 587.28,222.8 L587.44,223 C586.755519,223.517916 586.353292,224.326658 586.353292,225.185 C586.353292,226.043342 586.755519,226.852084 587.44,227.37 L587.28,227.54 Z"/>
    <path fill="#FFD180" fill-rule="nonzero" d="M663.51,307.6 C670.34,305.01 676.13,300.28 681.51,295.32 C692.15,285.5 702.19,273.32 703.05,258.85 C703.36,253.57 702.41,248.31 701.46,243.1 C699.55,232.6 697.6,221.98 693.27,212.22 C688.495366,201.493596 681.018216,192.190229 671.57,185.22 C670.163417,184.156227 668.419292,183.637608 666.66,183.76 C663.66,184.03 662.9,186.09 662.5,188.06 C660.07,200.06 666.74,211.7 671.62,222.9 C676.508502,234.132026 679.748636,246.011395 681.24,258.17 C681.87,263.33 682.1,268.91 679.38,273.35 C677.72,276.07 675.12,278.05 672.58,279.97 C668.78,282.84 664.58,285.85 659.82,285.71 C655.06,285.57 649.74,281.48 644.82,282.8 C639.9,284.12 636.29,291.69 636.259852,296.54 C636.2,309.68 654.37,311.06 663.51,307.6 Z"/>
    <path fill="#000" fill-rule="nonzero" d="M43.36 90.35C41.7 93.07 39.1 95.05 36.56 96.97 34.0179933 99.0676389 31.1634842 100.754701 28.1 101.97 32.42 101.68 36.29 98.97 39.8 96.28 42.34 94.36 44.94 92.37 46.6 89.66 49.31 85.23 49.09 79.66 48.46 74.48 46.968911 62.3213405 43.7287663 50.4419327 38.84 39.21 33.96 28 27.28 16.35 29.72 4.37 29.8563317 2.93835391 30.5805846 1.62745623 31.72.75 31.3506706.718495836 30.9793294.718495836 30.61.75 27.61 1.02 26.85 3.08 26.45 5.05 24.02 17.05 30.69 28.69 35.57 39.89 40.4587663 51.1219327 43.698911 63.0013405 45.19 75.16 45.85 80.33 46.08 85.91 43.36 90.35zM3.52 112.88C3.52 108.4 6.71 101.59 11 99.55 10.2685505 99.5317964 9.53814769 99.6159442 8.83 99.8 4 101.11.3 108.69.269829503 113.54.21 125.8 16 127.8 25.55 125.23 16.06 126.61 3.46 123.8 3.52 112.88z" opacity=".1" transform="translate(636 183)"/>
    <path fill="#FFD180" fill-rule="nonzero" d="M570.79,162.98 C570.79,162.98 596.97,157.74 610.06,162.98 C610.06,162.98 617.91,144.65 625.77,144.65 C633.63,144.65 636.24,173.45 636.24,173.45 L646.71,215.34 C646.71,215.34 696.46,304.34 646.71,351.49 C596.96,398.64 518.41,346.25 518.41,312.22 C518.41,278.19 534.12,207.49 534.12,207.49 C534.12,207.49 549.83,149.89 555.07,144.65 C560.31,139.41 570.79,162.98 570.79,162.98 Z"/>
    <circle cx="621.85" cy="208.8" r="5.24" fill="#58555D" fill-rule="nonzero"/>
    <circle cx="561.63" cy="208.8" r="5.24" fill="#58555D" fill-rule="nonzero"/>
    <ellipse cx="593.05" cy="214.04" fill="#58555D" fill-rule="nonzero" rx="7.85" ry="5.24"/>
    <path fill="#000" fill-rule="nonzero" d="M586.52,247.540048 C579.666106,247.54615 572.82433,246.964014 566.07,245.8 C553.083732,243.563216 540.588787,239.07221 529.15,232.53 L530.06,228.3 C541.627386,234.564684 554.116249,238.952663 567.06,241.3 C585.91,244.53 618.33,243.56 651.28,225.38 L653.48,229.38 C629.56,242.6 604.38,247.540048 586.52,247.540048 Z" opacity=".1"/>
    <path fill="#F55F44" fill-rule="nonzero" d="M651.28,224.41 C618.28,242.59 585.9,243.56 567.06,240.33 C554.116249,237.982663 541.627386,233.594684 530.06,227.33 L527.64,231.19 C539.628221,237.778353 552.607355,242.374919 566.07,244.8 C572.827331,245.967935 579.672479,246.55342 586.53,246.550015 C604.39,246.550015 629.53,241.62 653.53,228.42 L651.28,224.41 Z M587.37,246.19 C587.088335,246.19 586.86,245.961665 586.86,245.68 C586.86,245.398335 587.088335,245.17 587.37,245.17 C587.651665,245.17 587.88,245.398335 587.88,245.68 C587.874553,245.957752 587.647806,246.180053 587.37,246.18 L587.37,246.19 Z"/>
    <path fill="url(#music2-a)" fill-rule="nonzero" d="M582.3,253.27 L582.3,253.27 C582.3,256.064561 584.565439,258.33 587.36,258.33 L587.36,258.33 C590.154561,258.33 592.42,256.064561 592.42,253.27 L592.42,253.27 C592.42,250.475439 590.154561,248.21 587.36,248.21 L587.36,248.21 C584.565439,248.21 582.3,250.475439 582.3,253.27 L582.3,253.27 Z M587.36,250.74 C586.896081,250.74 586.52,250.363919 586.52,249.9 C586.52,249.436081 586.896081,249.06 587.36,249.06 C587.823919,249.06 588.2,249.436081 588.2,249.9 C588.200033,250.360042 587.830009,250.734523 587.37,250.74 L587.36,250.74 Z" opacity=".1"/>
    <path fill="#F55F44" fill-rule="nonzero" d="M582.81,253.27 L582.81,253.27 C582.81,255.788418 584.851582,257.83 587.37,257.83 L587.37,257.83 C589.888418,257.83 591.93,255.788418 591.93,253.27 L591.93,253.27 C591.93,250.751582 589.888418,248.71 587.37,248.71 L587.37,248.71 C584.851582,248.71 582.81,250.751582 582.81,253.27 Z M587.37,250.99 C586.950264,250.99 586.61,250.649736 586.61,250.23 C586.61,249.810264 586.950264,249.47 587.37,249.47 C587.789736,249.47 588.13,249.810264 588.13,250.23 C588.13,250.649736 587.789736,250.99 587.37,250.99 L587.37,250.99 Z"/>
    <path fill="#FFD180" fill-rule="nonzero" d="M644.57,225.93 C574.88,266.93 534.72,228.93 534.72,228.93 L644.57,225.93 Z"/>
    <polygon fill="#CF9595" fill-rule="nonzero" points="550.17 519.27 527.72 561.68 562.64 576.64 585.09 529.25"/>
    <path fill="#494457" fill-rule="nonzero" d="M562.36,576.95 L564.85,586.95 C564.85,586.95 609.75,619.38 599.77,626.86 C589.79,634.34 495,586.95 495,586.95 L527.43,562 L562.36,576.95 Z"/>
    <polygon fill="#000" fill-rule="nonzero" points="582.7 533.65 547.37 521.88 536.86 541.72 571.78 556.69" opacity=".1"/>
    <polygon fill="#CF9595" fill-rule="nonzero" points="709.69 439.83 743.41 473.97 768.16 445.14 729.68 409.51"/>
    <polygon fill="#000" fill-rule="nonzero" points="731.07 411.17 711.08 441.5 723.86 454.43 749.79 428.5" opacity=".1"/>
    <path fill="#494457" fill-rule="nonzero" d="M768.16,445.13 L778.43,445.74 C778.43,445.74 822.83,412.63 826.98,424.39 C831.13,436.15 757.49,512.39 757.49,512.39 L743.42,473.97 L768.16,445.13 Z"/>
    <path fill="#CF9595" fill-rule="nonzero" d="M448.45,189.87 L500.27,129.87 C504.106856,125.43316 503.744472,118.755564 499.45,114.76 L386.69,29.3 L373,50.66 L460.39,117.93 L423.29,158.61 L448.45,189.87 Z"/>
    <path fill="#000" fill-rule="nonzero" d="M442.5,137.62 L424.37,157.5 L449.56,188.8 L475.56,158.74 C462.87679,154.724808 451.4745,147.440587 442.5,137.62 L442.5,137.62 Z" opacity=".1"/>
    <path fill="#CF9595" fill-rule="nonzero" d="M298,202.89 L239.33,158.89 C231.905359,153.319924 229.995904,142.985377 234.94,135.13 L322.73,37.44 L340.73,55.44 L280,131.09 L315.9,166.99 L298,202.89 Z"/>
    <path fill="#000" fill-rule="nonzero" d="M285.59,194.03 L295.19,201.23 L313.19,165.33 L290.59,142.8 C291.07,150.44 292.42,180.13 285.59,194.03 Z" opacity=".1"/>
    <polygon fill="#575988" fill-rule="nonzero" points="582.69 377.14 528.83 538.71 582.69 556.66 672.44 377.14 600.64 359.19"/>
    <polygon fill="#000" fill-rule="nonzero" points="580.19 382.13 577.5 390.21 634.05 382.13 656.14 409.75 669.95 382.13 598.14 364.18" opacity=".1"/>
    <path fill="#FDA57D" fill-rule="nonzero" d="M322.61,37.55 C322.61,37.55 345.61,7.89 363.08,27.85 C380.55,47.81 335.64,50.3 335.64,50.3 L322.61,37.55 Z"/>
    <path fill="#575988" fill-rule="nonzero" d="M349.32,341.24 L366.67,375.95 C377.746713,398.105451 401.759247,410.685747 426.28,407.18 L636.54,377.18 L708.35,466.94 L762.2,413.09 L646.35,313.79 C640.099638,308.432016 631.879038,305.959301 623.71,306.98 L349.32,341.24 Z"/>
    <path fill="#F5DD48" fill-rule="nonzero" d="M293.23,142.6 C293.23,142.6 298,200.9 280,202.89 L315.9,220.89 C315.9,220.89 313.9,326.6 351.8,364.5 C351.8,364.5 481.05105,324.17 495,324.17 C508.94895,324.17 477.41,256.79 477.41,256.79 L465.29,175.07 L475.29,160.07 C461.769522,156.021384 449.665797,148.239923 440.37,137.62 C430.37,150.09 407.51,167 387.68,167 L379.1,167 C349.54,167 318.1,158.53 293.19,142.6 L293.23,142.6 Z"/>
    <path fill="#CF9595" fill-rule="nonzero" d="M351.74,126.16 C358.399768,130.762378 351.74,173.24 351.74,173.24 L394.38,215.88 L408.57,187.49 C411.042062,182.547124 412.329376,177.096582 412.33,171.57 L408.57,130.762378 C386.224089,119.047994 367.280755,117.513868 351.74,126.16 Z"/>
    <polygon fill="#000" fill-rule="nonzero" points="315.68 219.93 318.18 212.44 325.66 217.43" opacity=".1"/>
    <path fill="#000" fill-rule="nonzero" d="M477.55 256.8C477.55 256.8 450.39 269.8 442.9 282.3M444.289411 105.536287L373 50.66 382.619023 35.6517952C385.351685 35.2225999 388.150537 35 391 35 392.12372 35 393.239569 35.034619 394.346591 35.1028755L442.487248 71.5883362C444.757804 77.7810696 446 84.4915133 446 91.5 446 96.3454196 445.406249 101.048379 444.289411 105.536287zM409.844665 144.596438C403.966496 146.798588 397.619825 148 391 148 376.943986 148 364.11949 142.583444 354.39655 133.671373 354.001062 129.933893 353.183339 127.157451 351.74 126.16 367.280755 117.513868 386.224089 119.047994 408.57 130.762378L409.844665 144.596438z" opacity=".1"/>
    <polygon fill="#000" fill-rule="nonzero" points="465.35 175.03 462.86 182.51 457.87 175.03" opacity=".1"/>
    <path fill="#000" fill-rule="nonzero" d="M582 292.16C582 292.16 600.21 331.75 576.3 335.16 552.39 338.57 563.3 302 563.3 302 563.3 302 560.91 291.15 555.09 290.54M604 291.2C604 291.2 582.35 329.02 605.86 334.5 629.37 339.98 621.75 302.63 621.75 302.63 621.75 302.63 625.09 292.04 630.95 291.94" opacity=".1"/>
    <path fill="#FFD180" fill-rule="nonzero" d="M579.89 291.05C579.89 291.05 598.1 330.64 574.19 334.05 550.28 337.46 561.19 300.89 561.19 300.89 561.19 300.89 558.8 290.01 553 289.4M605.69 289.53C605.69 289.53 584 327.36 607.55 332.8 631.1 338.24 623.44 300.93 623.44 300.93 623.44 300.93 626.78 290.34 632.64 290.24"/>
    <rect width="1" height="7.73" x="566.52" y="325.82" fill="#58555D" fill-rule="nonzero" opacity=".5"/>
    <rect width="1" height="7.73" x="573.14" y="325.82" fill="#58555D" fill-rule="nonzero" opacity=".5"/>
    <rect width="1" height="10.81" x="569.55" y="323.36" fill="#58555D" fill-rule="nonzero" opacity=".5"/>
    <rect width="1" height="7.73" x="609.52" y="324.17" fill="#58555D" fill-rule="nonzero" opacity=".5"/>
    <rect width="1" height="7.73" x="616.14" y="324.17" fill="#58555D" fill-rule="nonzero" opacity=".5"/>
    <rect width="1" height="10.81" x="612.55" y="321.7" fill="#58555D" fill-rule="nonzero" opacity=".5"/>
    <circle cx="389" cy="90" r="55" fill="#CF9595" fill-rule="nonzero" transform="matrix(-1 0 0 1 778 0)"/>
    <path fill="#464353" fill-rule="nonzero" d="M322.015484,71.7003205 C314.372274,72.5769567 304.665398,70.4111496 303.182615,64.055537 C301.332958,55.9982189 314.097118,50.764185 316.084353,42.7197586 C316.818101,39.7030987 315.931489,36.5704134 316.359508,33.5021867 C317.215548,27.3399498 323.131392,22.6086926 329.138955,19.0247975 C348.166346,7.76726514 371.310673,2.56442937 394.457825,4.34114092 C397.348133,4.37199704 400.162525,5.12577404 402.54434,6.50694804 C405.0666,8.24732875 406.04493,11.070613 407.757009,13.4040124 C413.657567,21.4613305 423.013735,22.4282087 432.537174,27.4301917 C443.665687,33.2959193 446.249752,44.8211072 446.738917,55.8821935 C447.228083,66.9432798 447.41064,77.7980988 443.711327,88.4337588 C440.547038,97.4579551 437.260458,106.752877 430.33571,114.152718 C423.410962,121.552559 414.92634,126.722134 404.042409,124.466085 C409.010496,121.449426 405.402901,114.423444 400.022081,111.961128 C394.641262,109.498811 387.94581,109.086277 383.329311,105.682865 C378.712813,102.279454 377.337035,96.7231276 375.838966,91.6695777 C373.94345,85.2881818 371.25304,78.7778687 365.688783,74.1626369 C354.850712,65.0353069 335.299382,70.1919905 322.015484,71.7003205 Z" transform="matrix(-1 0 0 1 750 0)"/>
    <path fill="#F5DD48" fill-rule="nonzero" d="M381.022164,23.6949373 L385.966173,4.3180477 C386.060518,3.94206628 385.955669,3.55280119 385.674733,3.23603784 C385.393798,2.91927449 384.959834,2.70101154 384.468477,2.6293493 L367.043664,0.0285072485 C366.554306,-0.047418518 366.045602,0.0297609382 365.631083,0.242821067 C365.216564,0.455881197 364.930733,0.787087782 364.83738,1.16252369 L359.893372,20.5270871 L343,68.3529978 L373.968497,73 L381.022164,23.6949373 Z" transform="matrix(-1 0 0 1 729 0)"/>
    <circle cx="27.209" cy="27.904" r="27.015" fill="#000" fill-rule="nonzero" opacity=".1" transform="matrix(-1 0 0 1 404 57)"/>
    <circle cx="375" cy="82" r="27" fill="#F5DD48" fill-rule="nonzero" transform="matrix(-1 0 0 1 750 0)"/>
    <circle cx="375.5" cy="81.5" r="17.5" fill="#333" fill-rule="nonzero" transform="matrix(-1 0 0 1 751 0)"/>
    <circle cx="375.5" cy="81.5" r="5.5" fill="#F5DD48" fill-rule="nonzero" transform="matrix(-1 0 0 1 751 0)"/>
    <polygon fill="#000" fill-rule="nonzero" points="348 30.111 369.643 30.111 369.643 30.889 348 30.889" opacity=".05" transform="scale(-1 1) rotate(11.05 0 -3679.039)"/>
  </g>
</svg>
