<svg xmlns="http://www.w3.org/2000/svg" width="1335" height="786" viewBox="0 0 1335 786">
  <defs>
    <linearGradient id="music-a" x1="50.099%" x2="50.099%" y1="100%" y2="0%">
      <stop offset="0%" stop-color="#FFF"/>
      <stop offset="100%"/>
    </linearGradient>
  </defs>
  <g fill="none" fill-rule="evenodd">
    <path fill="#FFE7DE" fill-rule="nonzero" d="M1335,785.62 C1235.5,752.950349 1098.88456,680 747.91,680 C396.93544,680 182.288109,681.12 64,785.62 C64,786.12 1335,785.62 1335,785.62 Z"/>
    <g transform="translate(1054 416)">
      <ellipse cx="140" cy="257.5" fill="#7A3814" fill-rule="nonzero" rx="48" ry="17.5"/>
      <ellipse cx="140" cy="257.5" fill="#000" fill-rule="nonzero" opacity=".5" rx="48" ry="17.5"/>
      <path fill="#7A3814" fill-rule="nonzero" d="M91.5270936,254 C91.5270936,254 144.680496,283.491776 188,257.934209 C188,257.934209 165.353194,370 152.559462,370 L113.179441,370 C113.179441,370 79.7086442,301.180926 91.5270936,254 Z"/>
      <path fill="#33CCAB" fill-rule="nonzero" d="M181.94878,67.2462994 C195.456369,116.548891 137.830895,257 137.830895,257 C137.830895,257 16.5141077,165.45281 3.06569799,116.091155 C-9.85498237,67.0082392 19.2376034,16.6954795 68.2835857,3.30324644 C117.329568,-10.0889867 168.03367,18.4349171 181.94878,67.2462994 Z"/>
      <path fill="#000" fill-rule="nonzero" d="M181.94878,67.2462994 C195.456369,116.548891 137.830895,257 137.830895,257 C137.830895,257 16.5141077,165.45281 3.06569799,116.091155 C-9.85498237,67.0082392 19.2376034,16.6954795 68.2835857,3.30324644 C117.329568,-10.0889867 168.03367,18.4349171 181.94878,67.2462994 Z" opacity=".1"/>
      <path stroke="#535461" d="M68,3 C68,3 143.355558,116.432316 137.696503,257"/>
      <path fill="#33CCAB" fill-rule="nonzero" d="M201.107815,157.560607 C201.107815,157.560607 133.089415,120.62136 141.764481,257 C141.764481,257 198.505295,254.973921 218.634389,208.755818 C226.77762,190.152375 219.703776,168.407279 202.166467,158.133194 L201.107815,157.560607 Z"/>
      <path stroke="#535461" d="M202,157 C202,157 193.107872,228.363031 141,257"/>
      <path fill="#000" fill-rule="nonzero" d="M147.062234,366.068101 L112,366.068101 C113.116351,368.580969 113.792037,370 113.792037,370 L152.849633,370 C165.353194,366.068101 188,258 188,258 C185.946707,259.219673 183.833742,260.334627 181.669115,261.340636 C179.686123,284.843342 158.788237,346.830349 147.062234,366.068101 Z" opacity=".05"/>
    </g>
    <polygon fill="#33CCAB" fill-rule="nonzero" points="197.12 694.67 251.79 694.67 236.79 763.01 212.12 763.01"/>
    <polygon fill="#33CCAB" fill-rule="nonzero" points="867.37 695.18 922.04 695.18 909.04 763.52 880.37 763.52"/>
    <polygon fill="#33CCAB" fill-rule="nonzero" points="967.6 694.67 1022.27 694.67 1009.27 763.01 980.6 763.01"/>
    <polygon fill="#33CCAB" fill-rule="nonzero" points="320.64 695.18 375.31 695.18 362.31 763.52 333.64 763.52"/>
    <polygon fill="#000" fill-rule="nonzero" points="197.12 694.67 251.79 694.67 236.79 763.01 211.12 763.01" opacity=".4"/>
    <polygon fill="#000" fill-rule="nonzero" points="867.37 695.18 922.04 695.18 909.04 763.52 880.37 763.52" opacity=".4"/>
    <polygon fill="#000" fill-rule="nonzero" points="967.6 694.67 1022.27 694.67 1009.27 763.01 980.6 763.01" opacity=".4"/>
    <polygon fill="#000" fill-rule="nonzero" points="320.64 695.18 375.31 695.18 362.31 763.52 333.64 763.52" opacity=".4"/>
    <path fill="#B9EFE9" fill-rule="nonzero" d="M894.2,370.52 L1031.74,370.52 C1058.94555,370.52 1081,392.574453 1081,419.78 L1081,672.47 C1081,699.460156 1059.12016,721.34 1032.13,721.34 L894.2,721.34 L894.2,370.52 Z"/>
    <path fill="#000" fill-rule="nonzero" d="M894.2,370.52 L1031.74,370.52 C1058.94555,370.52 1081,392.574453 1081,419.78 L1081,672.47 C1081,699.460156 1059.12016,721.34 1032.13,721.34 L894.2,721.34 L894.2,370.52 Z" opacity=".1"/>
    <path fill="#B9EFE9" fill-rule="nonzero" d="M266.91,270.29 L530.22,270.29 L530.22,584.66 L220.4,584.66 L220.4,316.79 C220.405522,291.107142 241.227141,270.29 266.91,270.29 Z"/>
    <path fill="#000" fill-rule="nonzero" d="M268.41,270.289999 L530.22,270.289999 L530.22,584.66 L220.4,584.66 L220.4,318.289999 C220.4,305.557876 225.458501,293.347372 234.46241,284.345338 C243.466319,275.343305 255.677876,270.289999 268.41,270.289999 Z" opacity=".1"/>
    <path fill="#B9EFE9" fill-rule="nonzero" d="M338.2,270.29 L593.5,270.29 L593.5,584.66 L283.68,584.66 L283.68,324.8 C283.68,294.694958 308.084958,270.29 338.19,270.29 L338.2,270.29 Z"/>
    <path fill="#B9EFE9" fill-rule="nonzero" d="M592 270.29L852.55 270.29C880.865639 270.29 903.82 293.244361 903.82 321.56L903.82 584.66 592 584.66 592 270.29zM980.77 370.52L1031.77 370.52C1058.96383 370.536561 1081 392.586165 1081 419.78L1081 672.47C1081 699.460156 1059.12016 721.34 1032.13 721.34L980.77 721.34 980.77 370.52z"/>
    <rect width="628.74" height="95.68" x="352.02" y="625.66" fill="#B9EFE9" fill-rule="nonzero"/>
    <rect width="173.13" height="182.24" x="399.607" y="397.877" fill="#07454C" fill-rule="nonzero" rx="53.2" transform="rotate(-16.25 486.172 488.997)"/>
    <rect width="173.13" height="182.24" x="399.607" y="397.877" fill="#000" fill-rule="nonzero" opacity=".1" rx="53.2" transform="rotate(-16.25 486.172 488.997)"/>
    <rect width="173.13" height="182.24" x="402.913" y="395.554" fill="#07454C" fill-rule="nonzero" rx="53.2" transform="rotate(-16.25 489.478 486.674)"/>
    <path fill="#B9EFE9" fill-rule="nonzero" d="M201.13,370.52 L402.13,370.52 L402.13,721.34 L201.13,721.34 C171.238731,721.34 147.005522,697.111268 147,667.22 L147,424.65 C147,394.754826 171.234826,370.52 201.13,370.52 Z"/>
    <path fill="#000" fill-rule="nonzero" d="M201.51,370.52 L351.7,370.52 C365.084453,370.52 377.92013,375.839685 387.380616,385.307673 C396.841101,394.775661 402.150614,407.615551 402.140016,421 L402.140016,670.9 C402.140016,698.757243 379.557243,721.34 351.7,721.34 L201.51,721.34 C187.053049,721.34 173.188217,715.596999 162.965609,705.374391 C152.743001,695.151783 147,681.286951 147,666.83 L147,425 C147.016562,394.906675 171.41667,370.52 201.51,370.52 Z" opacity=".1"/>
    <path fill="#000" fill-rule="nonzero" d="M302.41,370.52 L390.2,370.52 C399.588841,370.52 407.2,378.131159 407.2,387.52 L407.2,704.34 C407.2,713.728841 399.588841,721.34 390.2,721.34 L302.41,721.34 L302.41,370.52 Z" opacity=".1"/>
    <path fill="#B9EFE9" fill-rule="nonzero" d="M297.35,370.52 L385.14,370.52 C394.528841,370.52 402.14,378.131159 402.14,387.52 L402.14,704.34 C402.14,713.728841 394.528841,721.34 385.14,721.34 L297.35,721.34 L297.35,370.52 Z"/>
    <rect width="314.37" height="86.57" x="379.36" y="552.77" fill="#B9EFE9" fill-rule="nonzero"/>
    <rect width="314.37" height="86.57" x="694.24" y="553.27" fill="#B9EFE9" fill-rule="nonzero"/>
    <rect width="314.37" height="86.57" x="379.36" y="552.77" fill="#FFF" fill-rule="nonzero" opacity=".25" rx="26.6"/>
    <circle cx="447.96" cy="375.33" r="18.22" fill="#F5DD48" fill-rule="nonzero"/>
    <circle cx="447.96" cy="375.33" r="18.22" fill="#000" fill-rule="nonzero" opacity=".3"/>
    <rect width="314.37" height="86.57" x="694.24" y="553.27" fill="#FFF" fill-rule="nonzero" opacity=".25" rx="26.6"/>
    <circle cx="712.52" cy="362.64" r="14.88" fill="#F5DD48" fill-rule="nonzero"/>
    <path fill="#4D8AF0" fill-rule="nonzero" d="M684.46,385.54 L684.28,385.36 C684.964481,384.842084 685.366708,384.033342 685.366708,383.175 C685.366708,382.316658 684.964481,381.507916 684.28,380.99 L684.44,380.79 C685.172238,381.358279 685.600679,382.233116 685.600679,383.16 C685.600679,384.086884 685.172238,384.961721 684.44,385.53 L684.46,385.54 Z"/>
    <path fill="#000" fill-rule="nonzero" d="M684.46,385.54 L684.28,385.36 C684.964481,384.842084 685.366708,384.033342 685.366708,383.175 C685.366708,382.316658 684.964481,381.507916 684.28,380.99 L684.44,380.79 C685.172238,381.358279 685.600679,382.233116 685.600679,383.16 C685.600679,384.086884 685.172238,384.961721 684.44,385.53 L684.46,385.54 Z" opacity=".1"/>
    <path fill="#4D8AF0" fill-rule="nonzero" d="M684.28,385.54 C683.547762,384.971721 683.119321,384.096884 683.119321,383.17 C683.119321,382.243116 683.547762,381.368279 684.28,380.8 L684.44,381 C683.755519,381.517916 683.353292,382.326658 683.353292,383.185 C683.353292,384.043342 683.755519,384.852084 684.44,385.37 L684.28,385.54 Z"/>
    <path fill="#FFD180" fill-rule="nonzero" d="M760.51,465.6 C767.34,463.01 773.13,458.28 778.51,453.32 C789.15,443.5 799.19,431.32 800.05,416.85 C800.36,411.57 799.41,406.31 798.46,401.1 C796.55,390.6 794.6,379.98 790.27,370.22 C785.495366,359.493596 778.018216,350.190229 768.57,343.22 C767.163417,342.156227 765.419292,341.637608 763.66,341.76 C760.66,342.03 759.9,344.09 759.5,346.06 C757.07,358.06 763.74,369.7 768.62,380.9 C773.508502,392.132026 776.748636,404.011395 778.24,416.17 C778.87,421.33 779.1,426.91 776.38,431.35 C774.72,434.07 772.12,436.05 769.58,437.97 C765.78,440.84 761.58,443.85 756.82,443.71 C752.06,443.57 746.74,439.48 741.82,440.8 C736.9,442.12 733.29,449.69 733.259852,454.54 C733.2,467.68 751.37,469.06 760.51,465.6 Z"/>
    <path fill="#000" fill-rule="nonzero" d="M43.36 90.35C41.7 93.07 39.1 95.05 36.56 96.97 34.0179933 99.0676389 31.1634842 100.754701 28.1 101.97 32.42 101.68 36.29 98.97 39.8 96.28 42.34 94.36 44.94 92.37 46.6 89.66 49.31 85.23 49.09 79.66 48.46 74.48 46.968911 62.3213405 43.7287663 50.4419327 38.84 39.21 33.96 28 27.28 16.35 29.72 4.37 29.8563317 2.93835391 30.5805846 1.62745623 31.72.75 31.3506706.718495836 30.9793294.718495836 30.61.75 27.61 1.02 26.85 3.08 26.45 5.05 24.02 17.05 30.69 28.69 35.57 39.89 40.4587663 51.1219327 43.698911 63.0013405 45.19 75.16 45.85 80.33 46.08 85.91 43.36 90.35zM3.52 112.88C3.52 108.4 6.71 101.59 11 99.55 10.2685505 99.5317964 9.53814769 99.6159442 8.83 99.8 4 101.11.3 108.69.269829503 113.54.21 125.8 16 127.8 25.55 125.23 16.06 126.61 3.46 123.8 3.52 112.88z" opacity=".1" transform="translate(733 341)"/>
    <path fill="#FFD180" fill-rule="nonzero" d="M667.79,320.98 C667.79,320.98 693.97,315.74 707.06,320.98 C707.06,320.98 714.91,302.65 722.77,302.65 C730.63,302.65 733.24,331.45 733.24,331.45 L743.71,373.34 C743.71,373.34 793.46,462.34 743.71,509.49 C693.96,556.64 615.41,504.25 615.41,470.22 C615.41,436.19 631.12,365.49 631.12,365.49 C631.12,365.49 646.83,307.89 652.07,302.65 C657.31,297.41 667.79,320.98 667.79,320.98 Z"/>
    <circle cx="718.85" cy="366.8" r="5.24" fill="#58555D" fill-rule="nonzero"/>
    <circle cx="658.63" cy="366.8" r="5.24" fill="#58555D" fill-rule="nonzero"/>
    <ellipse cx="690.05" cy="372.04" fill="#58555D" fill-rule="nonzero" rx="7.85" ry="5.24"/>
    <path fill="#000" fill-rule="nonzero" d="M683.52,405.540048 C676.666106,405.54615 669.82433,404.964014 663.07,403.8 C650.083732,401.563216 637.588787,397.07221 626.15,390.53 L627.06,386.3 C638.627386,392.564684 651.116249,396.952663 664.06,399.3 C682.91,402.53 715.33,401.56 748.28,383.38 L750.48,387.38 C726.56,400.6 701.38,405.540048 683.52,405.540048 Z" opacity=".1"/>
    <path fill="#F55F44" fill-rule="nonzero" d="M748.28,382.41 C715.28,400.59 682.9,401.56 664.06,398.33 C651.116249,395.982663 638.627386,391.594684 627.06,385.33 L624.64,389.19 C636.628221,395.778353 649.607355,400.374919 663.07,402.8 C669.827331,403.967935 676.672479,404.55342 683.53,404.550015 C701.39,404.550015 726.53,399.62 750.53,386.42 L748.28,382.41 Z M684.37,404.19 C684.088335,404.19 683.86,403.961665 683.86,403.68 C683.86,403.398335 684.088335,403.17 684.37,403.17 C684.651665,403.17 684.88,403.398335 684.88,403.68 C684.874553,403.957752 684.647806,404.180053 684.37,404.18 L684.37,404.19 Z"/>
    <path fill="url(#music-a)" fill-rule="nonzero" d="M679.3,411.27 L679.3,411.27 C679.3,414.064561 681.565439,416.33 684.36,416.33 L684.36,416.33 C687.154561,416.33 689.42,414.064561 689.42,411.27 L689.42,411.27 C689.42,408.475439 687.154561,406.21 684.36,406.21 L684.36,406.21 C681.565439,406.21 679.3,408.475439 679.3,411.27 L679.3,411.27 Z M684.36,408.74 C683.896081,408.74 683.52,408.363919 683.52,407.9 C683.52,407.436081 683.896081,407.06 684.36,407.06 C684.823919,407.06 685.2,407.436081 685.2,407.9 C685.200033,408.360042 684.830009,408.734523 684.37,408.74 L684.36,408.74 Z" opacity=".1"/>
    <path fill="#F55F44" fill-rule="nonzero" d="M679.81,411.27 L679.81,411.27 C679.81,413.788418 681.851582,415.83 684.37,415.83 L684.37,415.83 C686.888418,415.83 688.93,413.788418 688.93,411.27 L688.93,411.27 C688.93,408.751582 686.888418,406.71 684.37,406.71 L684.37,406.71 C681.851582,406.71 679.81,408.751582 679.81,411.27 Z M684.37,408.99 C683.950264,408.99 683.61,408.649736 683.61,408.23 C683.61,407.810264 683.950264,407.47 684.37,407.47 C684.789736,407.47 685.13,407.810264 685.13,408.23 C685.13,408.649736 684.789736,408.99 684.37,408.99 L684.37,408.99 Z"/>
    <path fill="#FFD180" fill-rule="nonzero" d="M741.57,383.93 C671.88,424.93 631.72,386.93 631.72,386.93 L741.57,383.93 Z"/>
    <polygon fill="#CF9595" fill-rule="nonzero" points="647.17 677.27 624.72 719.68 659.64 734.64 682.09 687.25"/>
    <path fill="#494457" fill-rule="nonzero" d="M659.36,734.95 L661.85,744.95 C661.85,744.95 706.75,777.38 696.77,784.86 C686.79,792.34 592,744.95 592,744.95 L624.43,720 L659.36,734.95 Z"/>
    <polygon fill="#000" fill-rule="nonzero" points="679.7 691.65 644.37 679.88 633.86 699.72 668.78 714.69" opacity=".1"/>
    <polygon fill="#CF9595" fill-rule="nonzero" points="806.69 597.83 840.41 631.97 865.16 603.14 826.68 567.51"/>
    <polygon fill="#000" fill-rule="nonzero" points="828.07 569.17 808.08 599.5 820.86 612.43 846.79 586.5" opacity=".1"/>
    <path fill="#494457" fill-rule="nonzero" d="M865.16,603.13 L875.43,603.74 C875.43,603.74 919.83,570.63 923.98,582.39 C928.13,594.15 854.49,670.39 854.49,670.39 L840.42,631.97 L865.16,603.13 Z"/>
    <path fill="#CF9595" fill-rule="nonzero" d="M545.45,347.87 L597.27,287.87 C601.106856,283.43316 600.744472,276.755564 596.45,272.76 L483.69,187.3 L470,208.66 L557.39,275.93 L520.29,316.61 L545.45,347.87 Z"/>
    <path fill="#000" fill-rule="nonzero" d="M539.5,295.62 L521.37,315.5 L546.56,346.8 L572.56,316.74 C559.87679,312.724808 548.4745,305.440587 539.5,295.62 L539.5,295.62 Z" opacity=".1"/>
    <path fill="#CF9595" fill-rule="nonzero" d="M395,360.89 L336.33,316.89 C328.905359,311.319924 326.995904,300.985377 331.94,293.13 L419.73,195.44 L437.73,213.44 L377,289.09 L412.9,324.99 L395,360.89 Z"/>
    <path fill="#000" fill-rule="nonzero" d="M382.59,352.03 L392.19,359.23 L410.19,323.33 L387.59,300.8 C388.07,308.44 389.42,338.13 382.59,352.03 Z" opacity=".1"/>
    <polygon fill="#575988" fill-rule="nonzero" points="679.69 535.14 625.83 696.71 679.69 714.66 769.44 535.14 697.64 517.19"/>
    <polygon fill="#000" fill-rule="nonzero" points="677.19 540.13 674.5 548.21 731.05 540.13 753.14 567.75 766.95 540.13 695.14 522.18" opacity=".1"/>
    <path fill="#FDA57D" fill-rule="nonzero" d="M419.61,195.55 C419.61,195.55 442.61,165.89 460.08,185.85 C477.55,205.81 432.64,208.3 432.64,208.3 L419.61,195.55 Z"/>
    <path fill="#575988" fill-rule="nonzero" d="M446.32,499.24 L463.67,533.95 C474.746713,556.105451 498.759247,568.685747 523.28,565.18 L733.54,535.18 L805.35,624.94 L859.2,571.09 L743.35,471.79 C737.099638,466.432016 728.879038,463.959301 720.71,464.98 L446.32,499.24 Z"/>
    <path fill="#F5DD48" fill-rule="nonzero" d="M390.23,300.6 C390.23,300.6 395,358.9 377,360.89 L412.9,378.89 C412.9,378.89 410.9,484.6 448.8,522.5 C448.8,522.5 578.05105,482.17 592,482.17 C605.94895,482.17 574.41,414.79 574.41,414.79 L562.29,333.07 L572.29,318.07 C558.769522,314.021384 546.665797,306.239923 537.37,295.62 C527.37,308.09 504.51,325 484.68,325 L476.1,325 C446.54,325 415.1,316.53 390.19,300.6 L390.23,300.6 Z"/>
    <path fill="#CF9595" fill-rule="nonzero" d="M448.74,284.16 C455.399768,288.762378 448.74,331.24 448.74,331.24 L491.38,373.88 L505.57,345.49 C508.042062,340.547124 509.329376,335.096582 509.33,329.57 L505.57,288.762378 C483.224089,277.047994 464.280755,275.513868 448.74,284.16 Z"/>
    <polygon fill="#000" fill-rule="nonzero" points="412.68 377.93 415.18 370.44 422.66 375.43" opacity=".1"/>
    <path fill="#000" fill-rule="nonzero" d="M574.55 414.8C574.55 414.8 547.39 427.8 539.9 440.3M541.289411 263.536287L470 208.66 479.619023 193.651795C482.351685 193.2226 485.150537 193 488 193 489.12372 193 490.239569 193.034619 491.346591 193.102876L539.487248 229.588336C541.757804 235.78107 543 242.491513 543 249.5 543 254.34542 542.406249 259.048379 541.289411 263.536287zM506.844665 302.596438C500.966496 304.798588 494.619825 306 488 306 473.943986 306 461.11949 300.583444 451.39655 291.671373 451.001062 287.933893 450.183339 285.157451 448.74 284.16 464.280755 275.513868 483.224089 277.047994 505.57 288.762378L506.844665 302.596438z" opacity=".1"/>
    <polygon fill="#000" fill-rule="nonzero" points="562.35 333.03 559.86 340.51 554.87 333.03" opacity=".1"/>
    <path fill="#000" fill-rule="nonzero" d="M679 450.16C679 450.16 697.21 489.75 673.3 493.16 649.39 496.57 660.3 460 660.3 460 660.3 460 657.91 449.15 652.09 448.54M701 449.2C701 449.2 679.35 487.02 702.86 492.5 726.37 497.98 718.75 460.63 718.75 460.63 718.75 460.63 722.09 450.04 727.95 449.94" opacity=".1"/>
    <path fill="#FFD180" fill-rule="nonzero" d="M676.89 449.05C676.89 449.05 695.1 488.64 671.19 492.05 647.28 495.46 658.19 458.89 658.19 458.89 658.19 458.89 655.8 448.01 650 447.4M702.69 447.53C702.69 447.53 681 485.36 704.55 490.8 728.1 496.24 720.44 458.93 720.44 458.93 720.44 458.93 723.78 448.34 729.64 448.24"/>
    <rect width="1" height="7.73" x="663.52" y="483.82" fill="#58555D" fill-rule="nonzero" opacity=".5"/>
    <rect width="1" height="7.73" x="670.14" y="483.82" fill="#58555D" fill-rule="nonzero" opacity=".5"/>
    <rect width="1" height="10.81" x="666.55" y="481.36" fill="#58555D" fill-rule="nonzero" opacity=".5"/>
    <rect width="1" height="7.73" x="706.52" y="482.17" fill="#58555D" fill-rule="nonzero" opacity=".5"/>
    <rect width="1" height="7.73" x="713.14" y="482.17" fill="#58555D" fill-rule="nonzero" opacity=".5"/>
    <rect width="1" height="10.81" x="709.55" y="479.7" fill="#58555D" fill-rule="nonzero" opacity=".5"/>
    <circle cx="486" cy="248" r="55" fill="#CF9595" fill-rule="nonzero" transform="matrix(-1 0 0 1 972 0)"/>
    <path fill="#464353" fill-rule="nonzero" d="M419.015484,229.70032 C411.372274,230.576957 401.665398,228.41115 400.182615,222.055537 C398.332958,213.998219 411.097118,208.764185 413.084353,200.719759 C413.818101,197.703099 412.931489,194.570413 413.359508,191.502187 C414.215548,185.33995 420.131392,180.608693 426.138955,177.024797 C445.166346,165.767265 468.310673,160.564429 491.457825,162.341141 C494.348133,162.371997 497.162525,163.125774 499.54434,164.506948 C502.0666,166.247329 503.04493,169.070613 504.757009,171.404012 C510.657567,179.46133 520.013735,180.428209 529.537174,185.430192 C540.665687,191.295919 543.249752,202.821107 543.738917,213.882194 C544.228083,224.94328 544.41064,235.798099 540.711327,246.433759 C537.547038,255.457955 534.260458,264.752877 527.33571,272.152718 C520.410962,279.552559 511.92634,284.722134 501.042409,282.466085 C506.010496,279.449426 502.402901,272.423444 497.022081,269.961128 C491.641262,267.498811 484.94581,267.086277 480.329311,263.682865 C475.712813,260.279454 474.337035,254.723128 472.838966,249.669578 C470.94345,243.288182 468.25304,236.777869 462.688783,232.162637 C451.850712,223.035307 432.299382,228.191991 419.015484,229.70032 Z" transform="matrix(-1 0 0 1 944 0)"/>
    <path fill="#F5DD48" fill-rule="nonzero" d="M478.022164,181.694937 L482.966173,162.318048 C483.060518,161.942066 482.955669,161.552801 482.674733,161.236038 C482.393798,160.919274 481.959834,160.701012 481.468477,160.629349 L464.043664,158.028507 C463.554306,157.952581 463.045602,158.029761 462.631083,158.242821 C462.216564,158.455881 461.930733,158.787088 461.83738,159.162524 L456.893372,178.527087 L440,226.352998 L470.968497,231 L478.022164,181.694937 Z" transform="matrix(-1 0 0 1 923 0)"/>
    <circle cx="27.209" cy="27.904" r="27.015" fill="#000" fill-rule="nonzero" opacity=".1" transform="matrix(-1 0 0 1 501 215)"/>
    <circle cx="472" cy="240" r="27" fill="#F5DD48" fill-rule="nonzero" transform="matrix(-1 0 0 1 944 0)"/>
    <circle cx="472.5" cy="239.5" r="17.5" fill="#333" fill-rule="nonzero" transform="matrix(-1 0 0 1 945 0)"/>
    <circle cx="472.5" cy="239.5" r="5.5" fill="#F5DD48" fill-rule="nonzero" transform="matrix(-1 0 0 1 945 0)"/>
    <polygon fill="#000" fill-rule="nonzero" points="445 188.111 466.643 188.111 466.643 188.889 445 188.889" opacity=".05" transform="scale(-1 1) rotate(11.05 0 -4523.836)"/>
    <circle cx="77.149" cy="77.149" r="77.149" fill="#535461" fill-rule="nonzero"/>
    <circle cx="77.149" cy="77.149" r="65.472" fill="#EDEDF4" fill-rule="nonzero"/>
    <circle cx="77.149" cy="77.149" r="4.671" fill="#535461" fill-rule="nonzero"/>
    <path stroke="#535461" stroke-linecap="round" d="M105.214,28.0446667 L77.1486667,77.1486667"/>
    <path stroke="#535461" stroke-linecap="round" stroke-width="2" d="M78.492,77.6653333 L106.371333,92.3386667"/>
  </g>
</svg>
