<svg xmlns="http://www.w3.org/2000/svg" width="767" height="712" viewBox="0 0 767 712">
  <g fill="none">
    <path fill="#FFBCA3" d="M767,711.835572 C767,687.182045 436.668237,676.124177 383.502621,677.053997 C330.337005,677.983818 0,685.89204 0,711.835572 C0,712.205535 767,711.835572 767,711.835572 Z" opacity=".5"/>
    <path fill="#2F2E41" d="M593.46864,701.14388 L591.27064,700.00864 C619.81585,644.82272 604.55171,573.15533 586.72121,522.75187 C574.613766,488.873369 559.170949,456.281337 540.62021,425.45581 L542.71074,424.13458 C561.357784,455.116796 576.881103,487.874695 589.05206,521.9258 C607.04683,572.79057 622.41845,645.17295 593.46864,701.14388 Z"/>
    <rect width="89.264" height="2.473" x="563.198" y="467.467" fill="#2F2E41" transform="rotate(-79.645 607.83 468.703)"/>
    <rect width="2.474" height="121.63" x="547.23" y="483.939" fill="#2F2E41" transform="rotate(-42.94 548.467 544.754)"/>
    <rect width="71.738" height="2.474" x="601.021" y="625.757" fill="#2F2E41" transform="rotate(-54.137 636.89 626.993)"/>
    <circle cx="487.251" cy="484.156" r="12.367" fill="#3F3D56"/>
    <circle cx="541.665" cy="496.523" r="12.367" fill="#3F3D56"/>
    <circle cx="516.932" cy="544.754" r="12.367" fill="#2F2E41"/>
    <circle cx="671.518" cy="575.671" r="12.367" fill="#3F3D56"/>
    <circle cx="630.707" cy="589.274" r="12.367" fill="#2F2E41"/>
    <circle cx="659.151" cy="628.848" r="12.367" fill="#3F3D56"/>
    <circle cx="529.299" cy="403.772" r="12.367" fill="#3F3D56"/>
    <path fill="#2F2E41" d="M607.96261,546.63001 L606.21929,544.87477 C650.32895,501.11801 657.80517,428.22548 656.31055,374.78207 C655.18915,338.822574 650.498498,303.063397 642.30768,268.03122 L644.70288,267.41564 C652.93726,302.626504 657.653608,338.568255 658.78246,374.71152 C660.29176,428.64441 652.69832,502.25033 607.96261,546.63001 Z"/>
    <rect width="89.264" height="2.473" x="648.362" y="328.582" fill="#2F2E41" transform="rotate(-61.766 692.994 329.819)"/>
    <rect width="2.474" height="121.63" x="611.912" y="323.162" fill="#2F2E41" transform="rotate(-25.06 613.15 383.977)"/>
    <rect width="71.738" height="2.474" x="636.183" y="488.155" fill="#2F2E41" transform="rotate(-36.258 672.053 489.392)"/>
    <circle cx="731.018" cy="258.271" r="12.367" fill="#2F2E41"/>
    <circle cx="573.494" cy="307.511" r="12.367" fill="#3F3D56"/>
    <circle cx="621.484" cy="335.987" r="12.367" fill="#3F3D56"/>
    <circle cx="583.137" cy="374.295" r="12.367" fill="#2F2E41"/>
    <circle cx="720.764" cy="451.179" r="12.367" fill="#3F3D56"/>
    <circle cx="677.748" cy="451.596" r="12.367" fill="#3F3D56"/>
    <circle cx="692.668" cy="497.992" r="12.367" fill="#3F3D56"/>
    <circle cx="638.19" cy="243.918" r="12.367" fill="#3F3D56"/>
    <path fill="#2F2E41" d="M270.48199,109.04406 C260.880824,100.360658 259.53626,85.7681956 267.38905,75.47657 C266.88775,75.94657 266.39772,76.43465 265.92862,76.95348 C256.70583,87.1539033 257.498358,102.899529 267.698781,112.122319 C277.899204,121.34511 293.644829,120.552583 302.86762,110.35216 C303.33671,109.83334 303.77307,109.29677 304.19041,108.75081 C294.739308,117.597321 280.085572,117.724803 270.48199,109.04406 Z"/>
    <circle cx="268.148" cy="63.731" r="51.281" fill="#2F2E41"/>
    <path fill="#2F2E41" d="M130.01446 695.11383C130.01446 695.11383 116.37896 708.74933 130.01446 708.74933 143.64996 708.74933 156.6926 699.85661 156.6926 699.85661L130.01446 695.11383zM328.34656 686.56833C328.34656 686.56833 324.57262 705.47893 335.91489 697.9106 347.25716 690.34227 353.17042 675.70586 353.17042 675.70586L328.34656 686.56833z"/>
    <path fill="#CF9595" d="M180.99935,243.95679 L172.10664,264.70646 L117.56464,337.03387 C117.56464,337.03387 80.21524,377.34751 100.96491,379.71887 C121.71458,382.09023 135.35007,342.36947 135.35007,342.36947 L199.37761,278.93477 L206.49178,249.88524 L180.99935,243.95679 Z"/>
    <path fill="#29A389" d="M208.27035,159.77243 L199.67675,162.17835 C199.67675,162.17835 166.17816,221.42858 169.73525,233.87835 C173.29234,246.32812 189.29925,261.74219 196.41339,260.5565 C203.52753,259.37081 208.27035,159.77243 208.27035,159.77243 Z"/>
    <path fill="#CF9595" d="M235.54134,95.74489 C235.54134,95.74489 244.43405,132.50144 237.91273,139.61561 C231.39141,146.72978 217.16306,152.06541 217.16306,152.06541 L219.53445,218.46435 C219.53445,218.46435 246.80545,208.97878 247.99114,207.79309 C249.17683,206.6074 273.48358,168.07233 273.48358,168.07233 L297.19749,145.54412 C297.19749,145.54412 261.03378,128.35154 271.70504,98.70912 C282.3763,69.0667 235.54134,95.74489 235.54134,95.74489 Z"/>
    <circle cx="257.477" cy="78.552" r="30.828" fill="#CF9595"/>
    <path fill="#29A389" d="M222.49869,149.10117 C222.49869,149.10117 200.56333,155.02965 199.37763,163.32952 C198.19193,171.62939 199.37763,188.82196 197.59909,192.37905 C195.82055,195.93614 190.48492,201.27176 192.85631,223.79997 C195.2277,246.32818 194.042,259.96368 194.042,259.96368 C194.042,259.96368 73.69394,684.44257 116.37896,696.89233 C159.06398,709.34209 221.90584,695.70664 221.31296,687.40677 C220.72008,679.1069 210.04886,514.88811 210.04886,514.88811 C210.04886,514.88811 272.29786,733.05604 349.36805,682.07111 C426.43824,631.08618 409.24566,621.60066 402.13149,618.04357 C395.01732,614.48648 287.71193,445.52498 288.30477,414.10406 C288.89761,382.68314 287.11908,284.27043 274.07643,269.44924 C274.07643,269.44924 287.71193,224.39282 294.23325,218.46435 C300.75457,212.53588 316.76146,156.80819 316.76146,156.80819 C316.76146,156.80819 306.68305,143.1727 298.38318,143.1727 C290.08331,143.1727 282.3763,146.13694 272.89074,155.0297 C263.40518,163.92246 228.42721,207.20024 228.42721,207.20024 C228.42721,207.20024 217.16306,157.40104 222.49869,149.10117 Z"/>
    <ellipse cx="257.18" cy="50.985" fill="#2F2E41" rx="26.085" ry="17.785"/>
    <circle cx="301.644" cy="24.9" r="24.9" fill="#2F2E41"/>
    <path fill="#2F2E41" d="M319.42927,42.68503 C306.483853,42.6832265 295.69983,32.7608971 294.62245,19.86039 C294.56586,20.54526 294.52967,21.23591 294.52967,21.93539 C294.52967,35.6870594 305.677601,46.83499 319.42927,46.83499 C333.180939,46.83499 344.32887,35.6870594 344.32887,21.93539 C344.32887,21.23594 344.29269,20.54529 344.2361,19.86039 C343.158715,32.7608987 332.374689,42.6832269 319.42927,42.68503 Z"/>
    <path fill="#3F3D56" d="M375.85121,497.80057 C374.784274,497.798544 373.722675,497.95113 372.6995,498.25357 L372.91015,498.96124 C375.745871,498.117112 378.806425,498.513218 381.333813,500.051455 C383.861202,501.589692 385.619051,504.126196 386.172,507.03276 L386.89771,506.89498 C385.896481,501.592726 381.24705,497.76491 375.85121,497.80054 L375.85121,497.80057 Z"/>
    <path fill="#CF9595" d="M318.54,238.62116 L315.57576,271.82063 L321.50424,371.41903 C321.50424,371.41903 335.13974,421.81103 314.39007,420.62538 C293.6404,419.43973 301.34742,367.86195 301.34742,367.86195 L291.86186,252.25666 L318.54,238.62116 Z"/>
    <path fill="#29A389" d="M301.34742,148.50833 L316.76142,156.80819 C316.76142,156.80819 337.51109,229.1356 325.65413,242.7711 C313.79717,256.4066 289.49043,261.74222 288.30473,256.40659 C287.11903,251.07096 282.9691,211.35017 282.9691,211.35017 L301.34742,148.50833 Z"/>
  </g>
</svg>
