<svg xmlns="http://www.w3.org/2000/svg" width="163" height="166" viewBox="0 0 163 166">
  <g fill="none" fill-rule="evenodd">
    <g transform="translate(0 .693)">
      <path fill="#33CCAB" fill-rule="nonzero" d="M161,93.9959678 C155.853516,121.840745 120.952457,141.623006 99.2188927,149.858323 C77.485328,158.135444 58.2398723,171.410755 35.38,160.416398 C12.4784126,149.42204 5.26953125,128.920276 2.13476563,105.640276 C-1,82.3602764 -1,68.0575421 12,43.0802764 C25,18.1030108 49.2053648,0.270123537 75.95,0.270123537 C164.474609,13.2948467 166.146484,66.1511904 161,93.9959678 Z" transform="matrix(1 0 0 -1 0 164.86)"/>
      <path fill="#72351C" d="M134.709254,5.39397709 C97.8692545,8.93 82.9906607,40.2923438 90.4299576,66.4511719 C97.8692545,92.61 92.1074016,106.652995 80.6487297,106.652995 C69.1900579,106.652995 120.234645,127.430216 148.029254,116.715 L134.709254,5.39397709 Z" transform="matrix(-1 0 0 1 227.03 0)"/>
      <path fill="#B9EFE9" fill-rule="nonzero" d="M141.067364,137.391743 C135.094249,122.742059 123.41,121.78 123.41,121.78 L35.7,121.78 C35.7,121.78 25.8625224,122.586673 19.6247822,134.057518 C18.1600344,136.751105 49.2529297,168.37793 81.14,164.59 C113.02707,160.80207 142.064294,139.836817 141.067364,137.391743 Z"/>
    </g>
    <path fill="#72351C" d="M20.3609879,16.622518 C50.3297379,-18.6138101 95.1158093,7.65015642 103.607082,44.4897055 C112.098354,81.3292545 85.8315849,103.64283 104.366847,111.774862 C92.7951165,122.794305 54.589777,117.40783 45.4876064,120.477589 L20.3609879,16.622518 Z" transform="matrix(-1 0 0 1 125.712 0)"/>
    <path fill="#EFAFAA" fill-rule="nonzero" d="M65.63,93.3028305 L94.02,93.3028305 C95.8701539,93.3028305 97.37,94.8026766 97.37,96.6528305 L97.37,121.37283 C97.37,131.059905 89.5170745,138.91283 79.83,138.91283 L79.83,138.91283 C70.1429255,138.91283 62.29,131.059905 62.29,121.37283 L62.29,96.6528305 C62.29,94.8065748 63.7837525,93.3083417 65.63,93.3028305 Z"/>
    <path fill="#000" fill-rule="nonzero" d="M62.28,94.6028305 L97.37,94.6028305 L97.37,122.67283 C97.37,132.359905 89.5170745,140.21283 79.83,140.21283 L79.83,140.21283 C70.1429255,140.21283 62.29,132.359905 62.29,122.67283 L62.29,94.6028305 L62.28,94.6028305 Z" opacity=".05"/>
    <path fill="#000" fill-rule="nonzero" d="M62.35,107.85283 C73.6586913,112.079472 86.1074023,112.114949 97.44,107.95283 L97.44,103.64283 L62.35,103.64283 L62.35,107.85283 Z" opacity=".1"/>
    <path fill="#EFAFAA" fill-rule="nonzero" d="M129.828678,66.3749273 C126.657386,91.0972375 105.534868,110.20283 79.95,110.20283 C54.3934597,110.20283 33.2893936,91.1395222 30.0819219,66.4570256 C27.7893659,65.8902093 26.02,62.2137281 26.02,57.7628305 C26.02,52.9192932 28.1153074,48.9928305 30.7,48.9928305 C30.7494932,48.9928305 30.7988069,48.9942702 30.8479299,48.9971285 C35.8333014,26.4710346 55.9240962,9.62283048 79.95,9.62283048 C103.975246,9.62283048 124.065598,26.4701118 129.05166,48.9952777 C131.58477,49.1064205 133.62,52.9892355 133.62,57.7628305 C133.62,62.0369555 131.988388,65.5969563 129.828679,66.3749213 Z"/>
    <path fill="#72351C" d="M29.826668,15.4740805 C72.416668,-15.9453125 111.303777,24.9646753 104.066668,49.0605034 C102.240942,41.6034757 96.0194334,38.7981516 85.4021417,40.6445313 C53.3984926,46.2100641 34.8733347,37.8199138 29.826668,15.4740805 Z" transform="matrix(-1 0 0 1 134.767 0)"/>
    <path fill="#72351C" d="M98.94,15.4740805 C115.738281,9.62283048 138.394443,50.9532585 130.24,48.9928305 C105.285729,42.993518 94.8523958,31.8206013 98.94,15.4740805 Z"/>
  </g>
</svg>
