<svg xmlns="http://www.w3.org/2000/svg" width="1199" height="748" viewBox="0 0 1199 748">
  <g fill="none" fill-rule="evenodd" transform="translate(.704 .61)">
    <path fill="#FFCDD3" fill-rule="nonzero" d="M452.295507,218.499509 L444.195507,268.909509 C444.195507,268.909509 434.065507,302.169509 435.085507,318.289509 C436.105507,334.409509 435.085507,356.589509 435.085507,356.589509 C435.085507,356.589509 410.785507,400.929509 431.035507,419.069509 C451.285507,437.209509 457.365507,361.629509 457.365507,361.629509 C457.365507,361.629509 454.365507,329.379509 461.415507,312.249509 C468.465507,295.119509 469.515507,257.829509 469.515507,257.829509 L452.295507,218.499509 Z"/>
    <path fill="#000" fill-rule="nonzero" d="M452.295507,218.499509 L444.195507,268.909509 C444.195507,268.909509 434.065507,302.169509 435.085507,318.289509 C436.105507,334.409509 435.085507,356.589509 435.085507,356.589509 C435.085507,356.589509 410.785507,400.929509 431.035507,419.069509 C451.285507,437.209509 457.365507,361.629509 457.365507,361.629509 C457.365507,361.629509 454.365507,329.379509 461.415507,312.249509 C468.465507,295.119509 469.515507,257.829509 469.515507,257.829509 L452.295507,218.499509 Z" opacity=".05"/>
    <path fill="#FFCDD3" fill-rule="nonzero" d="M570.935507,391.789509 L584.935507,444.259509 L598.095507,505.729509 C598.095507,505.729509 605.185507,518.829509 598.095507,546.039509 L621.385507,621.619509 C621.385507,621.619509 634.545507,669.989509 642.645507,670.999509 C650.745507,672.009509 634.545507,709.299509 634.545507,709.299509 L612.265507,696.199509 C612.265507,696.199509 606.185507,665.969509 598.085507,658.909509 C589.985507,651.849509 563.655507,581.309509 563.655507,581.309509 L555.555507,531.929509 C555.555507,531.929509 530.245507,464.409509 507.965507,448.279509 C485.685507,432.149509 478.595507,405.949509 478.595507,405.949509 L570.935507,391.789509 Z"/>
    <path fill="#000" fill-rule="nonzero" d="M478.625507,405.969509 C478.625507,405.969509 485.715507,432.169509 507.995507,448.299509 C530.275507,464.429509 555.585507,531.949509 555.585507,531.949509 L563.685507,581.329509 C563.685507,581.329509 590.015507,651.869509 598.115507,658.929509 C604.055507,664.109509 608.915507,681.779509 611.115507,690.809509 C611.905507,694.089509 612.335507,696.219509 612.335507,696.219509 L634.615507,709.319509 C634.615507,709.319509 650.815507,672.029509 642.715507,671.019509 C641.455507,670.869509 640.085507,669.569509 638.645507,667.489509 C630.845507,656.179509 621.455507,621.639509 621.455507,621.639509 L598.165507,546.059509 C605.255507,518.849509 598.165507,505.749509 598.165507,505.749509 L585.005507,444.279509 L571.005507,391.819509 L478.625507,405.969509 Z" opacity=".05"/>
    <path fill="#FFCDD3" fill-rule="nonzero" d="M349.015507,667.989509 L357.115507,687.139509 L393.565507,683.139509 C392.444051,677.937287 391.821232,672.639977 391.705507,667.319509 C391.385507,655.879509 393.145507,640.439509 402.705507,628.719509 C419.895507,607.499509 446.195507,555.119509 446.195507,555.119509 C446.195507,555.119509 472.525507,526.899509 478.595507,515.819509 L529.285507,431.199509 L527.705507,423.609509 L541.375507,411.009509 L456.345507,411.009509 L436.095507,489.609509 L419.895507,521.859509 C419.895507,521.859509 385.465507,551.089509 372.305507,612.559509 C372.305507,612.559509 359.175507,653.559509 350.805507,665.739509 C350.283796,666.546198 349.684263,667.299802 349.015507,667.989509 L349.015507,667.989509 Z"/>
    <path fill="#000" fill-rule="nonzero" d="M611.065507,690.789509 C611.855507,694.069509 612.285507,696.199509 612.285507,696.199509 L634.565507,709.299509 C634.565507,709.299509 650.765507,672.009509 642.665507,670.999509 C641.405507,670.849509 640.035507,669.549509 638.595507,667.469509 C636.434949,668.756772 635.380529,671.313434 636.005507,673.749509 C636.323575,675.253988 636.86276,676.70305 637.605507,678.049509 C640.605507,683.049509 627.475507,691.149509 627.475507,691.149509 C623.035507,696.839509 615.835507,693.849509 611.065507,690.789509 Z" opacity=".1"/>
    <path fill="#DCE6F2" fill-rule="nonzero" d="M637.015507,675.779509 C635.625507,669.969509 642.925507,666.069509 647.015507,670.429509 C648.058487,671.52016 648.971269,672.728253 649.735507,674.029509 C653.785507,681.079509 684.165507,687.129509 690.235507,685.119509 C696.305507,683.109509 717.575507,681.119509 712.515507,696.209509 C707.455507,711.299509 616.335507,733.499509 616.335507,733.499509 C616.335507,733.499509 606.195507,719.379509 607.195507,709.309509 C607.78474,702.602426 607.78474,695.856593 607.195507,689.149509 C607.195507,689.149509 621.375507,702.249509 628.455507,693.149509 C628.455507,693.149509 641.615507,685.089509 638.585507,680.049509 C637.855929,678.710723 637.32695,677.272035 637.015507,675.779509 L637.015507,675.779509 Z"/>
    <path fill="#000" fill-rule="nonzero" d="M349.015507,667.989509 L357.115507,687.139509 L393.565507,683.139509 C392.444051,677.937287 391.821232,672.639977 391.705507,667.319509 C390.970368,665.856019 389.565111,664.845329 387.943778,664.613995 C386.322446,664.382661 384.690605,664.960014 383.575507,666.159509 C381.695507,668.159509 379.785507,670.299509 378.385507,672.059509 C374.335507,677.059509 361.175507,674.059509 361.175507,674.059509 C357.765507,675.189509 353.715507,670.289509 350.815507,665.769509 C350.289039,666.566218 349.686191,667.309732 349.015507,667.989509 L349.015507,667.989509 Z" opacity=".1"/>
    <path fill="#DCE6F2" fill-rule="nonzero" d="M382.555507,668.139509 C383.791757,666.813423 385.648975,666.26042 387.409259,666.694264 C389.169542,667.128107 390.557074,668.480818 391.035507,670.229509 C392.875507,677.399509 396.915507,686.649509 405.725507,690.159509 C420.915507,696.159509 442.175507,706.279509 435.095507,715.349509 C428.015507,724.419509 403.695507,732.499509 382.425507,725.429509 C361.155507,718.359509 330.785507,701.239509 330.785507,701.239509 L345.975507,660.929509 C345.975507,660.929509 354.075507,678.059509 360.155507,676.049509 C360.155507,676.049509 373.315507,679.049509 377.365507,674.049509 C378.775507,672.279509 380.675507,670.159509 382.555507,668.139509 Z"/>
    <path fill="#FFCDD3" fill-rule="nonzero" d="M520.135507,101.619509 C520.135507,101.619509 495.835507,134.879509 501.905507,158.059509 C507.975507,181.239509 453.305507,142.939509 453.305507,142.939509 C453.305507,142.939509 481.655507,117.749509 476.595507,76.4295091 L520.135507,101.619509 Z"/>
    <path fill="#B9EFE9" fill-rule="nonzero" d="M440.145507,417.049509 C480.645507,441.239509 529.255507,431.159509 529.255507,431.159509 L528.255507,424.109509 L530.365507,424.309509 C569.075507,427.719509 577.875507,416.049509 577.875507,416.049509 C571.815507,399.109509 567.075507,363.189509 564.115507,335.429509 C563.685507,331.429509 563.305507,327.619509 562.955507,324.039509 C562.155507,315.949509 561.555507,309.129509 561.175507,304.529509 C560.845507,300.479509 560.665507,298.139509 560.665507,298.139509 L556.595507,267.899509 C556.595507,267.899509 545.455507,231.619509 550.515507,207.429509 C554.825507,186.829509 540.775507,179.429509 536.515507,177.639509 C535.846095,177.381893 535.157257,177.177917 534.455507,177.029509 C528.905507,175.719509 522.715507,170.029509 517.455507,164.029509 C509.786254,155.285655 500.010577,148.645768 489.055507,144.739509 C483.965507,142.899509 479.635507,140.939509 479.635507,140.939509 C472.545507,132.879509 453.305507,137.939509 453.305507,137.939509 C430.015507,153.059509 442.165507,202.439509 442.165507,202.439509 L451.845507,229.969509 C457.245507,245.299509 464.925507,259.649509 473.845507,273.279509 C488.735507,296.139509 468.535507,327.399509 468.535507,327.399509 C437.105507,352.549509 440.145507,417.049509 440.145507,417.049509 Z"/>
    <path fill="#000" fill-rule="nonzero" d="M526.715507,370.189509 L530.345507,424.309509 C569.055507,427.719509 577.855507,416.049509 577.855507,416.049509 C571.795507,399.109509 567.055507,363.189509 564.095507,335.429509 C563.665507,331.429509 563.285507,327.619509 562.935507,324.039509 L526.715507,370.189509 Z" opacity=".05"/>
    <path fill="#000" fill-rule="nonzero" d="M462.425507,228.599509 C462.425507,228.599509 480.655507,262.859509 486.725507,277.979509 C492.795507,293.099509 492.805507,288.059509 495.835507,293.099509 C498.865507,298.139509 531.275507,320.309509 531.275507,320.309509 L564.095507,335.429509 C562.705507,322.429509 561.705507,311.169509 561.145507,304.529509 L530.265507,284.029509 C530.265507,284.029509 509.005507,270.929509 507.985507,253.799509 C506.965507,236.669509 493.805507,205.429509 493.805507,205.429509 C493.805507,205.429509 467.475507,177.209509 456.335507,190.309509 C445.195507,203.409509 462.425507,228.599509 462.425507,228.599509 Z" opacity=".1"/>
    <path fill="#FFCDD3" fill-rule="nonzero" d="M493.815507,200.379509 C493.815507,200.379509 506.975507,231.619509 507.995507,248.749509 C509.015507,265.879509 530.275507,278.979509 530.275507,278.979509 L597.105507,323.319509 C597.105507,323.319509 654.825507,342.469509 635.585507,364.639509 C616.345507,386.809509 585.955507,340.499509 585.955507,340.499509 L531.275507,315.309509 C531.275507,315.309509 498.875507,293.139509 495.835507,288.099509 C492.795507,283.059509 492.835507,288.099509 486.725507,272.979509 C480.615507,257.859509 462.425507,223.599509 462.425507,223.599509 C462.425507,223.599509 445.215507,198.409509 456.345507,185.299509 C467.475507,172.189509 493.815507,200.379509 493.815507,200.379509 Z"/>
    <path fill="#000" fill-rule="nonzero" d="M501.915507,213.499509 C501.915507,213.499509 481.665507,198.379509 477.615507,193.339509 C475.825507,191.119509 473.055507,191.439509 470.515507,192.509509 C465.786503,194.525788 460.641325,195.373027 455.515507,194.979509 C451.085507,194.599509 446.785507,194.849509 447.285507,197.369509 C448.285507,202.369509 444.285507,171.169509 444.285507,171.169509 L461.495507,165.169509 L483.775507,177.259509 L501.915507,213.499509 Z" opacity=".1"/>
    <path fill="#B9EFE9" fill-rule="nonzero" d="M501.915507,211.499509 C501.915507,211.499509 481.665507,196.379509 477.615507,191.339509 C475.825507,189.119509 473.055507,189.439509 470.515507,190.509509 C465.786503,192.525788 460.641325,193.373027 455.515507,192.979509 C451.085507,192.599509 446.785507,192.849509 447.285507,195.369509 C448.285507,200.369509 444.285507,169.169509 444.285507,169.169509 L461.495507,163.169509 L483.775507,175.259509 L501.915507,211.499509 Z"/>
    <path fill="#000" fill-rule="nonzero" d="M549.595507 213.499509C542.174074 216.729624 533.648068 216.166937 526.715507 211.989509M483.195507 78.9395091C483.955507 72.9395091 476.455507 85.4295091 475.605507 78.4395091L519.145507 103.629509C519.145507 103.629509 516.655507 107.039509 513.485507 112.409509 511.825575 112.599607 510.156286 112.696425 508.485507 112.699509 495.395507 112.699509 491.245507 87.9795091 483.195507 78.9395091z" opacity=".1"/>
    <ellipse cx="509.506" cy="66.85" fill="#FFCDD3" fill-rule="nonzero" rx="44.05" ry="43.84"/>
    <path fill="#000" fill-rule="nonzero" d="M529.265507,67.6095091 C528.935507,70.3595091 528.995507,73.2695091 527.685507,75.7095091 C525.845507,79.1295091 521.875507,80.7095091 518.555507,82.7095091 C505.095507,90.9595091 501.105507,109.519509 505.395507,124.659509 C506.915507,130.019509 509.305507,135.449509 508.315507,140.929509 C506.605507,150.339509 495.835507,155.219509 486.265507,156.059509 C476.695507,156.899509 466.665507,155.349509 457.715507,158.829509 C442.715507,164.669509 436.055507,182.219509 423.275507,192.029509 C408.405507,203.439509 387.925507,202.729509 369.205507,204.029509 C362.285507,204.519509 355.205507,205.349509 348.455507,203.969509 C341.705507,202.589509 334.945507,198.509509 332.535507,192.029509 C329.145507,182.889509 335.315507,172.969509 342.535507,166.329509 C349.755507,159.689509 358.455507,154.089509 362.535507,145.219509 C367.995507,133.299509 363.535507,118.219509 370.445507,107.059509 C371.691742,104.790319 373.65367,102.997158 376.025507,101.959509 C379.025507,100.829509 382.405507,101.609509 385.635507,101.719509 C398.145507,102.149509 408.805507,92.2195091 414.635507,81.1895091 C420.465507,70.1595091 422.915507,57.6795091 428.225507,46.3995091 C434.225507,33.6395091 444.225507,22.3995091 457.225507,16.8395091 C464.855507,13.5995091 473.225507,12.3995091 481.145507,10.0895091 C490.195507,7.46950913 498.845507,3.37950913 508.145507,1.67950913 C517.445507,-0.0204908749 527.925507,1.09950913 534.705507,7.61950913 C541.085507,13.7595091 542.945507,23.3895091 549.045507,29.8095091 C551.355507,32.2395091 554.315507,34.2895091 555.425507,37.4395091 C558.055507,44.8995091 545.295507,45.5295091 541.045507,48.5195091 C534.614613,52.9484629 530.340185,59.8753579 529.265507,67.6095091 Z" opacity=".1"/>
    <path fill="#F5DD48" fill-rule="nonzero" d="M527.195507 66.6095091C526.865507 69.3595091 526.925507 72.2695091 525.615507 74.7095091 523.775507 78.1295091 519.805507 79.7095091 516.485507 81.7095091 503.025507 89.9595091 499.035507 108.519509 503.325507 123.659509 504.845507 129.019509 507.235507 134.449509 506.245507 139.929509 504.535507 149.339509 493.765507 154.219509 484.195507 155.059509 474.625507 155.899509 464.595507 154.349509 455.645507 157.829509 440.645507 163.669509 433.985507 181.219509 421.205507 191.029509 406.335507 202.439509 385.855507 201.729509 367.135507 203.029509 360.215507 203.519509 353.135507 204.349509 346.385507 202.969509 339.635507 201.589509 332.895507 197.499509 330.495507 191.059509 327.105507 181.919509 333.275507 171.999509 340.495507 165.359509 347.715507 158.719509 356.415507 153.119509 360.495507 144.249509 365.955507 132.329509 361.495507 117.249509 368.405507 106.089509 369.651742 103.820319 371.61367 102.027158 373.985507 100.989509 376.985507 99.8595091 380.365507 100.639509 383.595507 100.749509 396.105507 101.179509 406.765507 91.2495091 412.595507 80.2195091 418.425507 69.1895091 420.875507 56.7095091 426.185507 45.4295091 432.185507 32.6695091 442.185507 21.4295091 455.185507 15.8695091 462.815507 12.6295091 471.185507 11.4295091 479.105507 9.11950913 488.155507 6.49950913 496.805507 2.40950913 506.105507.709509125 515.405507-.990490875 525.885507.129509125 532.665507 6.64950913 539.045507 12.7895091 540.905507 22.4195091 547.005507 28.8395091 549.315507 31.2695091 552.275507 33.3195091 553.385507 36.4695091 556.015507 43.9295091 543.255507 44.5595091 539.005507 47.5495091 532.570367 51.9657498 528.285385 58.8812255 527.195507 66.6095091L527.195507 66.6095091zM12.555507 742.769509C12.555507 742.769509-20.444493 683.769509 20.555507 636.769509 61.555507 589.769509 109.555507 615.769509 109.555507 615.769509 109.555507 615.769509 169.555507 643.769509 155.555507 710.769509 155.555507 710.769509 147.555507 744.769509 123.555507 742.769509L12.555507 742.769509z"/>
    <path fill="#FFF" fill-rule="nonzero" d="M12.555507,742.769509 C12.555507,742.769509 -20.444493,683.769509 20.555507,636.769509 C61.555507,589.769509 109.555507,615.769509 109.555507,615.769509 C109.555507,615.769509 169.555507,643.769509 155.555507,710.769509 C155.555507,710.769509 147.555507,744.769509 123.555507,742.769509 L12.555507,742.769509 Z" opacity=".2"/>
    <path stroke="#535461" d="M64.385507 742.849509L100.555507 632.769509M133.555507 649.769509C133.555507 649.769509 114.935507 641.009509 96.245507 645.889509 96.245507 645.889509 86.555507 621.769509 64.555507 617.769509M142.555507 687.769509C142.555507 687.769509 110.895507 664.889509 87.725507 671.829509 87.725507 671.829509 61.555507 640.769509 43.555507 642.769509M135.555507 728.769509C135.555507 728.769509 108.495507 709.189509 75.025507 710.499509 75.025507 710.499509 49.555507 679.789509 25.555507 677.789509M78.835507 742.849509C74.6852527 740.891968 70.3549992 739.341382 65.905507 738.219509 65.905507 738.219509 45.045507 711.099509 3.29550703 719.929509"/>
    <path stroke="#535461" stroke-width="2" d="M328.775507,741.989509 C328.775507,741.989509 273.775507,652.309509 288.455507,571.399509 C294.625507,537.399509 290.245507,502.399509 274.815507,471.489509 C267.46815,456.853937 258.795228,442.922366 248.905507,429.869509"/>
    <path fill="#F5DD48" fill-rule="nonzero" d="M257.865507 378.829509C261.095507 390.769509 248.865507 431.239509 248.865507 431.239509 248.865507 431.239509 217.865507 402.459509 214.665507 390.519509 212.381491 382.730384 214.489978 374.3151 220.176805 368.523105 225.863631 362.731109 234.238869 360.468788 242.068536 362.609705 249.898203 364.750621 255.957038 370.959745 257.905507 378.839509L257.865507 378.829509zM311.475507 435.309509C307.695507 447.089509 275.405507 474.389509 275.405507 474.389509 275.405507 474.389509 265.045507 433.389509 268.825507 421.619509 272.761114 410.050595 285.242719 403.770754 296.878026 407.50551 308.513333 411.240266 315.008293 423.611296 311.475507 435.309509L311.475507 435.309509zM340.455507 548.759509C331.245507 557.019509 289.595507 564.289509 289.595507 564.289509 289.595507 564.289509 301.345507 523.669509 310.595507 515.409509 316.524062 509.875778 324.980641 507.978675 332.704918 510.449604 340.429195 512.920532 346.214647 519.373537 347.830768 527.320744 349.446888 535.267951 346.641241 543.468016 340.495507 548.759509L340.455507 548.759509zM343.045507 639.499509C335.365507 649.189509 295.535507 663.399509 295.535507 663.399509 295.535507 663.399509 300.255507 621.399509 307.935507 611.679509 315.674934 602.181868 329.608914 600.664216 339.211528 608.273009 348.814142 615.881802 350.522242 629.793719 343.045507 639.499509L343.045507 639.499509zM230.635507 488.969509C241.445507 494.969509 283.635507 492.809509 283.635507 492.809509 283.635507 492.809509 263.155507 455.809509 252.345507 449.809509 245.338878 445.776127 236.702494 445.831278 229.747948 449.953815 222.793402 454.076352 218.599936 461.626518 218.775521 469.709228 218.951106 477.791938 223.468494 485.152873 230.595507 488.969509L230.635507 488.969509zM235.015507 595.089509C247.125507 597.589509 286.775507 582.889509 286.775507 582.889509 286.775507 582.889509 256.195507 553.719509 244.055507 551.219509 232.105963 549.102523 220.64381 556.886381 218.204962 568.774411 215.766114 580.662441 223.237659 592.330577 235.055507 595.089509L235.015507 595.089509zM253.425507 697.649509C264.945507 702.159509 306.505507 694.369509 306.505507 694.369509 306.505507 694.369509 281.265507 660.449509 269.745507 655.939509 258.308852 651.75268 245.622554 657.470614 241.184863 668.812286 236.747172 680.153958 242.18432 692.963109 253.425507 697.649509L253.425507 697.649509z"/>
    <path fill="#33CCAB" fill-rule="nonzero" d="M257.865507 378.829509C261.095507 390.769509 248.865507 431.239509 248.865507 431.239509 248.865507 431.239509 217.865507 402.459509 214.665507 390.519509 212.381491 382.730384 214.489978 374.3151 220.176805 368.523105 225.863631 362.731109 234.238869 360.468788 242.068536 362.609705 249.898203 364.750621 255.957038 370.959745 257.905507 378.839509L257.865507 378.829509zM311.475507 435.309509C307.695507 447.089509 275.405507 474.389509 275.405507 474.389509 275.405507 474.389509 265.045507 433.389509 268.825507 421.619509 272.761114 410.050595 285.242719 403.770754 296.878026 407.50551 308.513333 411.240266 315.008293 423.611296 311.475507 435.309509L311.475507 435.309509z"/>
    <path fill="#FC6681" fill-rule="nonzero" d="M340.455507 548.759509C331.245507 557.019509 289.595507 564.289509 289.595507 564.289509 289.595507 564.289509 301.345507 523.669509 310.595507 515.409509 316.524062 509.875778 324.980641 507.978675 332.704918 510.449604 340.429195 512.920532 346.214647 519.373537 347.830768 527.320744 349.446888 535.267951 346.641241 543.468016 340.495507 548.759509L340.455507 548.759509zM343.045507 639.499509C335.365507 649.189509 295.535507 663.399509 295.535507 663.399509 295.535507 663.399509 300.255507 621.399509 307.935507 611.679509 315.674934 602.181868 329.608914 600.664216 339.211528 608.273009 348.814142 615.881802 350.522242 629.793719 343.045507 639.499509L343.045507 639.499509z"/>
    <path fill="#33CCAB" fill-rule="nonzero" d="M230.635507,488.969509 C241.445507,494.969509 283.635507,492.809509 283.635507,492.809509 C283.635507,492.809509 263.155507,455.809509 252.345507,449.809509 C245.338878,445.776127 236.702494,445.831278 229.747948,449.953815 C222.793402,454.076352 218.599936,461.626518 218.775521,469.709228 C218.951106,477.791938 223.468494,485.152873 230.595507,488.969509 L230.635507,488.969509 Z"/>
    <path fill="#FC6681" fill-rule="nonzero" d="M235.015507 595.089509C247.125507 597.589509 286.775507 582.889509 286.775507 582.889509 286.775507 582.889509 256.195507 553.719509 244.055507 551.219509 232.105963 549.102523 220.64381 556.886381 218.204962 568.774411 215.766114 580.662441 223.237659 592.330577 235.055507 595.089509L235.015507 595.089509zM253.425507 697.649509C264.945507 702.159509 306.505507 694.369509 306.505507 694.369509 306.505507 694.369509 281.265507 660.449509 269.745507 655.939509 258.308852 651.75268 245.622554 657.470614 241.184863 668.812286 236.747172 680.153958 242.18432 692.963109 253.425507 697.649509L253.425507 697.649509z"/>
    <path stroke="#535461" stroke-width="2" d="M41.075507,742.849509 C41.075507,742.849509 115.555507,625.769509 124.555507,575.769509 C133.555507,525.769509 150.555507,479.769509 150.555507,479.769509"/>
    <path fill="#F5DD48" fill-rule="nonzero" d="M167.555507,579.769509 L120.555507,583.769509 C120.555507,583.769509 145.555507,626.769509 167.555507,579.769509 Z"/>
    <path fill="#F5DD48" fill-rule="nonzero" d="M85.555507 553.769509L122.775507 583.579509C122.775507 583.579509 74.555507 602.769509 85.555507 553.769509zM173.555507 538.769509L131.195507 544.429509C131.195507 544.429509 168.555507 574.769509 173.555507 538.769509zM103.555507 523.769509L131.495507 543.379509C131.495507 543.379509 97.555507 557.769509 103.555507 523.769509zM141.865507 505.959509C141.865507 505.959509 176.555507 496.769509 181.555507 498.769509 186.555507 500.769509 183.555507 522.769509 169.555507 523.769509 155.555507 524.769509 141.865507 505.959509 141.865507 505.959509zM118.555507 479.769509C118.555507 479.769509 140.555507 500.769509 141.555507 505.769509 142.555507 510.769509 123.555507 522.769509 113.555507 505.769509 103.555507 488.769509 118.555507 479.769509 118.555507 479.769509z"/>
    <circle cx="159.556" cy="481.77" r="10" fill="#FFD037" fill-rule="nonzero"/>
    <circle cx="141.556" cy="476.77" r="10" fill="#FFD037" fill-rule="nonzero"/>
    <path fill="#F5DD48" fill-rule="nonzero" d="M369.555507,742.769509 C369.555507,742.769509 402.555507,688.769509 320.555507,608.769509 C238.555507,528.769509 243.555507,513.769509 250.555507,501.769509 C250.555507,501.769509 184.555507,509.769509 198.555507,608.769509 C212.555507,707.769509 272.555507,742.769509 272.555507,742.769509 L369.555507,742.769509 Z"/>
    <path stroke="#535461" stroke-width="2" d="M323.055507,742.769509 C323.055507,742.769509 298.555507,671.769509 261.555507,628.769509 C224.555507,585.769509 231.555507,514.769509 250.555507,501.769509"/>
    <path stroke="#444" stroke-width="2" d="M697.645507,356.189509 C697.645507,356.189509 753.125507,465.099509 707.915507,524.689509 C662.705507,584.279509 712.025507,746.619509 712.025507,746.619509"/>
    <path fill="#33CCAB" fill-rule="nonzero" d="M714.085507,322.279509 C714.085507,343.279509 698.675507,360.279509 698.675507,360.279509 C698.675507,360.279509 683.265507,343.279509 683.265507,322.279509 C683.265507,301.279509 698.675507,284.279509 698.675507,284.279509 C698.675507,284.279509 714.085507,301.289509 714.085507,322.279509 Z"/>
    <path stroke="#FFD037" stroke-width="2" d="M726.415507,356.189509 C726.415507,356.189509 670.935507,465.099509 716.145507,524.689509 C761.355507,584.279509 712.035507,746.619509 712.035507,746.619509"/>
    <path fill="#FFD037" fill-rule="nonzero" d="M709.975507,322.279509 C709.975507,343.279509 725.385507,360.279509 725.385507,360.279509 C725.385507,360.279509 740.795507,343.279509 740.795507,322.279509 C740.795507,301.279509 725.385507,284.279509 725.385507,284.279509 C725.385507,284.279509 709.975507,301.289509 709.975507,322.279509 Z"/>
    <path stroke="#444" stroke-width="2" d="M749.015507,356.189509 C749.015507,356.189509 804.495507,465.099509 759.295507,524.689509 C714.095507,584.279509 763.405507,746.619509 763.405507,746.619509"/>
    <path fill="#33CCAB" fill-rule="nonzero" d="M765.455507 322.279509C765.455507 343.279509 750.045507 360.279509 750.045507 360.279509 750.045507 360.279509 734.635507 343.279509 734.635507 322.279509 734.635507 301.279509 750.045507 284.279509 750.045507 284.279509 750.045507 284.279509 765.455507 301.289509 765.455507 322.279509zM756.815507 409.499509C742.255507 424.629509 719.355507 426.209509 719.355507 426.209509 719.355507 426.209509 720.045507 403.209509 734.605507 388.129509 749.165507 373.049509 772.065507 371.499509 772.065507 371.499509 772.065507 371.499509 771.375507 394.409509 756.815507 409.499509zM758.265507 484.669509C743.705507 499.799509 720.805507 501.379509 720.805507 501.379509 720.805507 501.379509 721.495507 478.379509 736.055507 463.299509 750.615507 448.219509 773.515507 446.589509 773.515507 446.589509 773.515507 446.589509 772.815507 469.499509 758.265507 484.669509z"/>
    <path fill="#FC6681" fill-rule="nonzero" d="M679.325507,526.009509 C693.085507,541.859509 692.605507,564.819509 692.605507,564.819509 C692.605507,564.819509 669.805507,562.069509 656.045507,546.219509 C642.285507,530.369509 642.765507,507.409509 642.765507,507.409509 C642.765507,507.409509 665.565507,510.159509 679.325507,526.009509 Z"/>
    <path fill="#33CCAB" fill-rule="nonzero" d="M692.095507,365.779509 C709.595507,377.379509 715.265507,399.629509 715.265507,399.629509 C715.265507,399.629509 692.565507,403.069509 675.065507,391.479509 C657.565507,379.889509 651.895507,357.629509 651.895507,357.629509 C651.895507,357.629509 674.595507,354.189509 692.095507,365.779509 Z"/>
    <path stroke="#FFD037" stroke-width="2" d="M777.785507,356.189509 C777.785507,356.189509 722.305507,465.099509 767.515507,524.689509 C812.725507,584.279509 763.405507,746.619509 763.405507,746.619509"/>
    <path fill="#FFD037" fill-rule="nonzero" d="M761.345507 322.279509C761.345507 343.279509 776.755507 360.279509 776.755507 360.279509 776.755507 360.279509 792.165507 343.279509 792.165507 322.279509 792.165507 301.279509 776.755507 284.279509 776.755507 284.279509 776.755507 284.279509 761.345507 301.289509 761.345507 322.279509zM765.775507 411.159509C751.035507 426.159509 750.065507 449.049509 750.065507 449.049509 750.065507 449.049509 772.985507 447.739509 787.725507 432.789509 802.465507 417.839509 803.435507 394.899509 803.435507 394.899509 803.435507 394.899509 780.515507 396.199509 765.775507 411.159509z"/>
    <path fill="#F5DD48" fill-rule="nonzero" d="M909.775507,103.159509 C895.035507,118.159509 894.065507,141.049509 894.065507,141.049509 C894.065507,141.049509 916.985507,139.739509 931.725507,124.789509 C946.465507,109.839509 947.435507,86.8995091 947.435507,86.8995091 C947.435507,86.8995091 924.515507,88.1995091 909.775507,103.159509 Z"/>
    <path fill="#33CCAB" fill-rule="nonzero" d="M32.775507,331.159509 C18.035507,346.159509 17.065507,369.049509 17.065507,369.049509 C17.065507,369.049509 39.985507,367.739509 54.725507,352.789509 C69.465507,337.839509 70.435507,314.899509 70.435507,314.899509 C70.435507,314.899509 47.515507,316.199509 32.775507,331.159509 Z"/>
    <path fill="#F5DD48" fill-rule="nonzero" d="M853.775507 380.159509C839.035507 395.159509 838.065507 418.049509 838.065507 418.049509 838.065507 418.049509 860.985507 416.739509 875.725507 401.789509 890.465507 386.839509 891.435507 363.899509 891.435507 363.899509 891.435507 363.899509 868.515507 365.199509 853.775507 380.159509zM131.615507 363.719509C112.195507 355.719509 90.615507 363.519509 90.615507 363.519509 90.615507 363.519509 100.495507 384.249509 119.915507 392.229509 139.335507 400.209509 160.915507 392.429509 160.915507 392.429509 160.915507 392.429509 151.035507 371.699509 131.615507 363.719509z"/>
    <path fill="#FFD037" fill-rule="nonzero" d="M375.785507 333.739509C364.565507 315.999509 342.435507 309.849509 342.435507 309.849509 342.435507 309.849509 338.505507 332.469509 349.735507 350.219509 360.965507 367.969509 383.085507 374.109509 383.085507 374.109509 383.085507 374.109509 387.005507 351.499509 375.785507 333.739509zM794.675507 515.189509C779.935507 530.189509 778.965507 553.079509 778.965507 553.079509 778.965507 553.079509 801.885507 551.769509 816.625507 536.819509 831.365507 521.869509 832.335507 498.929509 832.335507 498.929509 832.335507 498.929509 809.415507 500.229509 794.675507 515.189509z"/>
    <path stroke="#FFD037" stroke-width="2" d="M752.195507,492.319509 C752.195507,492.319509 785.595507,439.679509 832.465507,438.549509"/>
    <path stroke="#444" stroke-width="2" d="M726.195507,460.499509 C726.195507,460.499509 692.795507,407.859509 645.925507,406.729509"/>
    <path stroke="#FFD037" stroke-width="2" d="M721.825507,535.669509 C721.825507,535.669509 755.225507,483.029509 802.095507,481.899509"/>
    <circle cx="830.906" cy="438.14" r="8.67" fill="#FFD037" fill-rule="nonzero"/>
    <circle cx="646.686" cy="407.08" r="8.67" fill="#33CCAB" fill-rule="nonzero"/>
    <path stroke="#444" stroke-width="2" d="M746.385507,553.009509 C746.385507,553.009509 712.985507,500.369509 666.115507,499.239509"/>
    <circle cx="666.916" cy="499.55" r="8.67" fill="#FC6681" fill-rule="nonzero"/>
    <circle cx="802.726" cy="482.21" r="8.67" fill="#FFD037" fill-rule="nonzero"/>
    <path fill="#F5DD48" fill-rule="nonzero" d="M484.055507,527.769509 C484.055507,527.769509 451.055507,490.769509 439.055507,536.769509 C427.055507,582.769509 420.055507,588.769509 396.055507,576.769509 C372.055507,564.769509 347.055507,621.769509 406.055507,662.769509 C465.055507,703.769509 432.055507,744.269509 432.055507,744.269509 L643.055507,744.269509 C643.055507,744.269509 671.055507,662.769509 610.055507,634.769509 C549.055507,606.769509 551.055507,585.769509 553.055507,557.769509 C555.055507,529.769509 484.055507,527.769509 484.055507,527.769509 Z"/>
    <path stroke="#535461" stroke-width="2" d="M456.055507 513.699509C456.055507 513.699509 593.055507 694.269509 546.055507 744.269509M420.635507 579.669509C420.635507 579.669509 453.055507 607.259509 506.055507 593.259509 559.055507 579.259509 545.985507 543.339509 545.985507 543.339509"/>
    <path stroke="#535461" stroke-width="2" d="M642.505507,666.959509 C642.505507,666.959509 571.975507,632.749509 536.505507,645.509509 C444.185507,678.729509 375.505507,589.269509 375.505507,589.269509"/>
    <path fill="#F5DD48" fill-rule="nonzero" d="M437.555507,742.769509 C437.555507,742.769509 480.555507,710.769509 426.555507,598.769509 C426.555507,598.769509 354.555507,509.769509 426.555507,425.769509 C426.555507,425.769509 269.555507,429.769509 272.555507,575.769509 C275.555507,721.769509 351.055507,742.769509 351.055507,742.769509 L437.555507,742.769509 Z"/>
    <path stroke="#535461" stroke-width="2" d="M397.395507,742.769509 C397.395507,742.769509 386.565507,665.769509 357.565507,618.769509 C351.844351,609.272287 347.729102,598.896318 345.385507,588.059509 C335.695507,545.429509 349.515507,500.849509 380.825507,470.339509 L426.575507,425.769509"/>
    <path fill="#000" fill-rule="nonzero" d="M437.555507,742.769509 C437.555507,742.769509 480.555507,710.769509 426.555507,598.769509 C426.555507,598.769509 354.555507,509.769509 426.555507,425.769509 C426.555507,425.769509 269.555507,429.769509 272.555507,575.769509 C275.555507,721.769509 351.055507,742.769509 351.055507,742.769509 L437.555507,742.769509 Z" opacity=".1"/>
    <path fill="#F5DD48" fill-rule="nonzero" d="M1008.05551,276.269509 C1008.05551,276.269509 985.055507,463.269509 1008.05551,578.269509 C1031.05551,693.269509 891.815507,742.769509 891.815507,742.769509 L1096.05551,742.769509 C1096.05551,742.769509 1124.05551,370.269509 1008.05551,276.269509 Z"/>
    <path stroke="#535461" stroke-width="2" d="M1008.05551,276.269509 C1008.05551,276.269509 1066.20551,437.339509 1057.62551,519.269509 C1049.04551,601.199509 1037.05551,744.269509 1037.05551,744.269509"/>
    <path fill="#F5DD48" fill-rule="nonzero" d="M822.995507,741.889509 C822.995507,741.889509 675.855507,708.989509 863.075507,516.499509 C863.075507,516.499509 943.775507,592.989509 914.175507,688.069509 C902.275507,726.299509 863.975507,749.899509 825.175507,742.339509 L822.995507,741.889509 Z"/>
    <path fill="#FFF" fill-rule="nonzero" d="M822.995507,741.889509 C819.765507,741.169509 678.995507,705.739509 863.075507,516.499509 C863.075507,516.499509 943.775507,592.989509 914.175507,688.069509 C902.275507,726.299509 863.975507,749.899509 825.175507,742.339509 L822.995507,741.889509 Z" opacity=".4"/>
    <path stroke="#535461" d="M824.925507,742.979509 C824.925507,742.979509 902.645507,625.889509 863.075507,516.499509"/>
    <path fill="#F5DD48" fill-rule="nonzero" d="M213.995507,741.889509 C213.995507,741.889509 66.855507,708.989509 254.075507,516.499509 C254.075507,516.499509 334.775507,592.989509 305.175507,688.069509 C293.275507,726.299509 254.975507,749.899509 216.175507,742.339509 L213.995507,741.889509 Z"/>
    <path fill="#FFF" fill-rule="nonzero" d="M213.995507,741.889509 C210.765507,741.169509 69.995507,705.739509 254.075507,516.499509 C254.075507,516.499509 334.775507,592.989509 305.175507,688.069509 C293.275507,726.299509 254.975507,749.899509 216.175507,742.339509 L213.995507,741.889509 Z" opacity=".4"/>
    <path stroke="#535461" d="M215.925507,742.979509 C215.925507,742.979509 293.645507,625.889509 254.075507,516.499509"/>
    <path fill="#F5DD48" fill-rule="nonzero" d="M938.645507,239.269509 C938.645507,239.269509 863.535507,314.379509 905.935507,425.829509 C948.335507,537.279509 833.245507,722.639509 833.245507,722.639509 C833.245507,722.639509 834.475507,722.459509 836.765507,722.059509 C991.025507,694.829509 1067.68551,518.389509 981.895507,387.319509 C950.015507,338.589509 923.835507,281.419509 938.645507,239.269509 Z"/>
    <path fill="#000" fill-rule="nonzero" d="M938.645507,239.269509 C938.645507,239.269509 863.535507,314.379509 905.935507,425.829509 C948.335507,537.279509 833.245507,722.639509 833.245507,722.639509 C833.245507,722.639509 834.475507,722.459509 836.765507,722.059509 C991.025507,694.829509 1067.68551,518.389509 981.895507,387.319509 C950.015507,338.589509 923.835507,281.419509 938.645507,239.269509 Z" opacity=".1"/>
    <path stroke="#535461" d="M938.645507,239.269509 C938.645507,239.269509 896.245507,331.339509 938.645507,406.449509 C981.045507,481.559509 945.915507,692.349509 833.245507,722.639509"/>
    <path fill="#F5DD48" fill-rule="nonzero" d="M1072.42551,543.059509 C1072.42551,543.059509 986.715507,529.409509 978.905507,606.219509 C971.095507,683.029509 814.095507,693.679509 814.095507,693.679509 C814.095507,693.679509 815.095507,694.379509 817.035507,695.679509 C946.665507,780.779509 1070.58551,749.889509 1051.90551,636.889509 C1044.96551,594.839509 1045.53551,552.649509 1072.42551,543.059509 Z"/>
    <path fill="#F5F5F5" fill-rule="nonzero" d="M1072.42551,543.059509 C1072.42551,543.059509 986.715507,529.409509 978.905507,606.219509 C971.095507,683.029509 814.095507,693.679509 814.095507,693.679509 C814.095507,693.679509 815.095507,694.379509 817.035507,695.679509 C946.665507,780.779509 1070.58551,749.889509 1051.90551,636.889509 C1044.96551,594.839509 1045.53551,552.649509 1072.42551,543.059509 Z" opacity=".2"/>
    <path stroke="#535461" d="M1072.42551,543.059509 C1072.42551,543.059509 1005.89551,557.659509 1011.35551,618.149509 C1016.81551,678.639509 912.565507,751.149509 814.085507,693.679509"/>
    <path stroke="#535461" stroke-width="2" d="M1107.54551,744.619509 C1107.54551,744.619509 1071.07551,620.789509 1114.38551,529.619509 C1132.56551,491.369509 1138.60551,448.429509 1130.20551,406.919509 C1126.18624,387.232702 1120.37195,367.955484 1112.83551,349.329509"/>
    <path fill="#F5DD48" fill-rule="nonzero" d="M1139.78551 291.749509C1139.78551 306.929509 1112.30551 350.939509 1112.30551 350.939509 1112.30551 350.939509 1084.82551 306.939509 1084.82551 291.749509 1084.82551 276.561679 1097.13768 264.249509 1112.32551 264.249509 1127.51334 264.249509 1139.82551 276.561679 1139.82551 291.749509L1139.78551 291.749509zM1185.19551 375.809509C1176.94551 388.549509 1129.96551 410.559509 1129.96551 410.559509 1129.96551 410.559509 1130.81551 358.679509 1139.06551 345.939509 1144.34613 337.572831 1153.71668 332.690661 1163.59943 333.157042 1173.48218 333.623423 1182.35132 339.366349 1186.82056 348.193136 1191.28979 357.019924 1190.66912 367.567795 1185.19551 375.809509L1185.19551 375.809509zM1183.19551 519.499509C1169.64551 526.329509 1117.97551 521.609509 1117.97551 521.609509 1117.97551 521.609509 1144.89551 477.259509 1158.44551 470.429509 1171.97473 463.734011 1188.37184 469.205144 1195.16989 482.683132 1201.96794 496.16112 1196.62148 512.599304 1183.19551 519.499509zM1157.19551 627.819509C1144.99551 636.819509 1093.27551 640.919509 1093.27551 640.919509 1093.27551 640.919509 1112.27551 592.659509 1124.51551 583.629509 1136.71824 574.605176 1153.92617 577.181778 1162.95051 589.384509 1171.97484 601.587241 1169.39824 618.795176 1157.19551 627.819509L1157.19551 627.819509zM1072.27551 413.499509C1083.16551 424.069509 1133.87551 435.029509 1133.87551 435.029509 1133.87551 435.029509 1121.45551 384.649509 1110.56551 374.079509 1099.64266 363.75028 1082.44706 364.115441 1071.97257 374.899057 1061.49807 385.682674 1061.63305 402.881621 1072.27551 413.499509L1072.27551 413.499509zM1043.49551 540.599509C1057.04551 547.429509 1108.71551 542.709509 1108.71551 542.709509 1108.71551 542.709509 1081.79551 498.359509 1068.19551 491.499509 1054.68697 484.939113 1038.41371 490.437865 1031.65299 503.847265 1024.89227 517.256666 1030.14821 533.609961 1043.45551 540.569509L1043.49551 540.599509zM1032.48551 667.979509C1044.68551 676.979509 1096.40551 681.079509 1096.40551 681.079509 1096.40551 681.079509 1077.40551 632.819509 1065.16551 623.789509 1057.28349 617.765141 1046.76628 616.456831 1037.6485 620.366472 1028.53072 624.276112 1022.22806 632.796659 1021.15834 642.659467 1020.08863 652.522275 1024.41796 662.195959 1032.48551 667.969509L1032.48551 667.979509z"/>
    <path fill="#33CCAB" fill-rule="nonzero" d="M1139.78551 291.749509C1139.78551 306.929509 1112.30551 350.939509 1112.30551 350.939509 1112.30551 350.939509 1084.82551 306.939509 1084.82551 291.749509 1084.82551 276.561679 1097.13768 264.249509 1112.32551 264.249509 1127.51334 264.249509 1139.82551 276.561679 1139.82551 291.749509L1139.78551 291.749509zM1185.19551 375.809509C1176.94551 388.549509 1129.96551 410.559509 1129.96551 410.559509 1129.96551 410.559509 1130.81551 358.679509 1139.06551 345.939509 1144.34613 337.572831 1153.71668 332.690661 1163.59943 333.157042 1173.48218 333.623423 1182.35132 339.366349 1186.82056 348.193136 1191.28979 357.019924 1190.66912 367.567795 1185.19551 375.809509L1185.19551 375.809509zM1183.19551 519.499509C1169.64551 526.329509 1117.97551 521.609509 1117.97551 521.609509 1117.97551 521.609509 1144.89551 477.259509 1158.44551 470.429509 1171.97473 463.734011 1188.37184 469.205144 1195.16989 482.683132 1201.96794 496.16112 1196.62148 512.599304 1183.19551 519.499509zM1157.19551 627.819509C1144.99551 636.819509 1093.27551 640.919509 1093.27551 640.919509 1093.27551 640.919509 1112.27551 592.659509 1124.51551 583.629509 1136.71824 574.605176 1153.92617 577.181778 1162.95051 589.384509 1171.97484 601.587241 1169.39824 618.795176 1157.19551 627.819509L1157.19551 627.819509zM1072.27551 413.499509C1083.16551 424.069509 1133.87551 435.029509 1133.87551 435.029509 1133.87551 435.029509 1121.45551 384.649509 1110.56551 374.079509 1099.64266 363.75028 1082.44706 364.115441 1071.97257 374.899057 1061.49807 385.682674 1061.63305 402.881621 1072.27551 413.499509L1072.27551 413.499509zM1043.49551 540.599509C1057.04551 547.429509 1108.71551 542.709509 1108.71551 542.709509 1108.71551 542.709509 1081.79551 498.359509 1068.19551 491.499509 1054.68697 484.939113 1038.41371 490.437865 1031.65299 503.847265 1024.89227 517.256666 1030.14821 533.609961 1043.45551 540.569509L1043.49551 540.599509zM1032.48551 667.979509C1044.68551 676.979509 1096.40551 681.079509 1096.40551 681.079509 1096.40551 681.079509 1077.40551 632.819509 1065.16551 623.789509 1057.28349 617.765141 1046.76628 616.456831 1037.6485 620.366472 1028.53072 624.276112 1022.22806 632.796659 1021.15834 642.659467 1020.08863 652.522275 1024.41796 662.195959 1032.48551 667.969509L1032.48551 667.979509z"/>
    <path fill="#F5DD48" fill-rule="nonzero" d="M1010.89551 723.499509C1016.61551 718.179509 1021.98551 711.909509 1023.63551 704.269509 1025.28551 696.629509 1022.02551 687.469509 1014.73551 684.679509 1006.55551 681.549509 997.815507 687.219509 991.195507 692.939509 984.575507 698.659509 976.975507 705.199509 968.305507 703.939509 977.377575 695.717754 981.469844 683.338448 979.085507 671.329509 978.703609 668.891839 977.666687 666.603699 976.085507 664.709509 971.545507 659.859509 963.315507 661.939509 957.885507 665.759509 940.595507 677.919509 935.775507 701.399509 935.685507 722.529509 933.945507 714.909509 935.415507 706.959509 935.365507 699.139509 935.315507 691.319509 933.195507 682.669509 926.575507 678.499509 922.655507 676.009509 917.825507 675.499509 913.185507 675.349509 905.415507 675.059509 896.765507 675.839509 891.455507 681.529509 884.865507 688.589509 886.575507 700.439509 892.305507 708.209509 898.035507 715.979509 906.765507 720.849509 914.795507 726.209509 920.915507 730.299509 927.105507 735.079509 930.865507 741.539509 931.351294 742.411496 931.749891 743.329272 932.055507 744.279509L980.765507 744.279509C991.700918 738.744857 1001.83637 731.754661 1010.89551 723.499509zM209.075507 730.389509C213.415507 727.099509 217.495507 723.209509 218.745507 718.479509 220.086128 713.280603 217.112182 707.944218 211.985507 706.349509 205.775507 704.409509 199.145507 707.919509 194.125507 711.469509 189.105507 715.019509 183.335507 719.059509 176.755507 718.309509 183.575507 713.389509 186.815507 705.389509 184.935507 698.119509 184.615779 696.552916 183.823526 695.121975 182.665507 694.019509 179.225507 691.019509 172.975507 692.309509 168.855507 694.669509 155.735507 702.199509 152.075507 716.729509 152.005507 729.819509 150.685507 725.099509 151.795507 720.179509 151.765507 715.339509 151.735507 710.499509 150.105507 705.129509 145.105507 702.529509 142.105507 700.989509 138.465507 700.689509 134.945507 700.579509 129.045507 700.399509 122.485507 700.889509 118.455507 704.399509 113.455507 708.769509 114.745507 716.109509 119.105507 720.919509 123.465507 725.729509 130.105507 728.749509 136.175507 732.069509 140.815507 734.599509 145.515507 737.559509 148.375507 741.559509 148.738063 742.090781 149.039946 742.661005 149.275507 743.259509L186.275507 743.259509C194.376936 739.925689 202.03504 735.60289 209.075507 730.389509zM828.075507 730.389509C832.415507 727.099509 836.495507 723.209509 837.745507 718.479509 839.086128 713.280603 836.112182 707.944218 830.985507 706.349509 824.775507 704.409509 818.145507 707.919509 813.125507 711.469509 808.105507 715.019509 802.335507 719.059509 795.755507 718.309509 802.575507 713.389509 805.815507 705.389509 803.935507 698.119509 803.615779 696.552916 802.823526 695.121975 801.665507 694.019509 798.225507 691.019509 791.975507 692.309509 787.855507 694.669509 774.735507 702.199509 771.075507 716.729509 771.005507 729.819509 769.685507 725.099509 770.795507 720.179509 770.765507 715.339509 770.735507 710.499509 769.105507 705.129509 764.105507 702.529509 761.105507 700.989509 757.465507 700.689509 753.945507 700.579509 748.045507 700.399509 741.485507 700.889509 737.455507 704.399509 732.455507 708.769509 733.745507 716.109509 738.105507 720.919509 742.465507 725.729509 749.105507 728.749509 755.175507 732.069509 759.815507 734.599509 764.515507 737.559509 767.375507 741.559509 767.738063 742.090781 768.039946 742.661005 768.275507 743.259509L805.275507 743.259509C813.376936 739.925689 821.03504 735.60289 828.075507 730.389509L828.075507 730.389509z"/>
    <path fill="#F5DD48" fill-rule="nonzero" d="M445.945507,408.859509 C438.195507,415.749509 430.455507,426.499509 434.195507,441.499509 C441.585507,471.019509 478.825507,472.699509 489.425507,501.679509 C492.595507,510.359509 492.285507,519.299509 490.655507,526.749509 C487.465507,541.319509 479.815507,551.749509 474.065507,563.979509 C468.315507,576.209509 464.415507,592.069509 469.255507,609.339509 C473.915507,625.959509 485.745507,639.959509 497.685507,648.389509 C509.625507,656.819509 521.995507,660.849509 534.215507,666.219509 C549.172151,672.891 563.395173,681.098394 576.655507,690.709509 C582.525507,694.919509 588.425507,699.539509 593.525507,705.839509 C599.335507,713.019509 603.745507,721.949509 608.045507,730.699509 C610.175507,735.039509 609.605507,743.699622 614.445507,743.699622 C738.055507,743.279509 651.445507,743.219509 712.125507,743.509509 C722.915507,743.559509 738.355507,743.629509 760.465507,743.699622 C783.995507,743.779509 779.755507,701.319509 776.655507,673.699509 C772.255507,634.579509 739.375507,602.339509 722.995507,564.239509 C711.255507,536.939509 708.495507,507.479509 698.675507,479.489509 C684.525507,439.159509 656.415507,405.019509 627.015507,384.669509 C597.615507,364.319509 567.015507,356.339509 537.895507,353.669509 C525.575507,352.529509 513.165507,352.329509 502.825507,357.549509 C491.825507,363.099509 489.285507,377.069509 480.825507,385.679509 C471.065507,395.729509 456.475507,399.499509 445.945507,408.859509 Z"/>
    <path fill="#FFF" fill-rule="nonzero" d="M445.945507,408.859509 C438.195507,415.749509 430.455507,426.499509 434.195507,441.499509 C441.585507,471.019509 478.825507,472.699509 489.425507,501.679509 C492.595507,510.359509 492.285507,519.299509 490.655507,526.749509 C487.465507,541.319509 479.815507,551.749509 474.065507,563.979509 C468.315507,576.209509 464.415507,592.069509 469.255507,609.339509 C473.915507,625.959509 485.745507,639.959509 497.685507,648.389509 C509.625507,656.819509 521.995507,660.849509 534.215507,666.219509 C549.172151,672.891 563.395173,681.098394 576.655507,690.709509 C582.525507,694.919509 588.425507,699.539509 593.525507,705.839509 C599.335507,713.019509 603.745507,721.949509 608.045507,730.699509 C610.175507,735.039509 609.605507,743.699622 614.445507,743.699622 C738.055507,743.279509 651.445507,743.219509 712.125507,743.509509 C722.915507,743.559509 738.355507,743.629509 760.465507,743.699622 C783.995507,743.779509 779.755507,701.319509 776.655507,673.699509 C772.255507,634.579509 739.375507,602.339509 722.995507,564.239509 C711.255507,536.939509 708.495507,507.479509 698.675507,479.489509 C684.525507,439.159509 656.415507,405.019509 627.015507,384.669509 C597.615507,364.319509 567.015507,356.339509 537.895507,353.669509 C525.575507,352.529509 513.165507,352.329509 502.825507,357.549509 C491.825507,363.099509 489.285507,377.069509 480.825507,385.679509 C471.065507,395.729509 456.475507,399.499509 445.945507,408.859509 Z" opacity=".2"/>
    <path stroke="#535461" stroke-width="2" d="M494.635507 364.779509C494.635507 364.779509 626.295507 555.499509 712.075507 743.609509M434.875507 443.249509C434.875507 443.249509 552.385507 444.659509 607.425507 544.249509M472.275507 617.739509C472.275507 617.739509 617.975507 559.059509 647.965507 616.119509M626.735507 383.979509C626.735507 383.979509 596.735507 445.189509 615.855507 558.819509M776.195507 674.739509C776.195507 674.739509 754.195507 714.399509 674.375507 666.039509"/>
    <path fill="#F5DD48" fill-rule="nonzero" d="M902.415507,562.579509 C902.415507,562.579509 924.525507,591.499509 892.195507,635.149509 C859.865507,678.799509 833.195507,715.659509 844.005507,742.869509 C844.005507,742.869509 892.765507,661.789509 932.455507,660.659509 C972.145507,659.529509 946.065507,611.339509 902.415507,562.579509 Z"/>
    <path fill="#000" fill-rule="nonzero" d="M902.415507,562.579509 C904.344505,565.373293 905.866407,568.427198 906.935507,571.649509 C945.655507,617.149509 966.285507,659.649509 929.065507,660.649509 C894.395507,661.649509 852.805507,723.649509 842.845507,739.299509 C843.172253,740.50722 843.5662,741.695737 844.025507,742.859509 C844.025507,742.859509 892.785507,661.779509 932.475507,660.649509 C972.165507,659.519509 946.065507,611.339509 902.415507,562.579509 Z" opacity=".1"/>
    <path fill="#FFD037" fill-rule="nonzero" d="M943.515507,599.429509 C943.515507,609.609509 942.375507,617.859509 940.965507,617.859509 C939.555507,617.859509 938.415507,609.609509 938.415507,599.429509 C938.415507,589.249509 939.845507,594.039509 941.245507,594.039509 C942.645507,594.039509 943.515507,589.249509 943.515507,599.429509 Z"/>
    <path fill="#FFD037" fill-rule="nonzero" d="M957.625507,611.579509 C948.685507,616.449509 940.895507,619.399509 940.225507,618.159509 C939.555507,616.919509 946.225507,611.969509 955.225507,607.099509 C964.225507,602.229509 960.635507,605.769509 961.315507,607.009509 C961.995507,608.249509 966.555507,606.709509 957.625507,611.579509 Z"/>
    <path fill="#F5DD48" fill-rule="nonzero" d="M785.615507,562.579509 C785.615507,562.579509 763.505507,591.499509 795.825507,635.149509 C828.145507,678.799509 854.825507,715.659509 844.015507,742.869509 C844.015507,742.869509 795.255507,661.789509 755.565507,660.659509 C715.875507,659.529509 741.965507,611.339509 785.615507,562.579509 Z"/>
    <path fill="#000" fill-rule="nonzero" d="M785.615507,562.579509 C783.686509,565.373293 782.164607,568.427198 781.095507,571.649509 C742.375507,617.149509 721.745507,659.649509 758.965507,660.649509 C793.635507,661.649509 835.225507,723.649509 845.185507,739.299509 C844.858761,740.50722 844.464814,741.695737 844.005507,742.859509 C844.005507,742.859509 795.245507,661.779509 755.555507,660.649509 C715.865507,659.519509 741.965507,611.339509 785.615507,562.579509 Z" opacity=".1"/>
    <path fill="#FFD037" fill-rule="nonzero" d="M744.515507,599.429509 C744.515507,609.609509 745.655507,617.859509 747.065507,617.859509 C748.475507,617.859509 749.615507,609.609509 749.615507,599.429509 C749.615507,589.249509 748.185507,594.039509 746.785507,594.039509 C745.385507,594.039509 744.515507,589.249509 744.515507,599.429509 Z"/>
    <path fill="#FFD037" fill-rule="nonzero" d="M730.405507,611.579509 C739.345507,616.449509 747.135507,619.399509 747.805507,618.159509 C748.475507,616.919509 741.805507,611.969509 732.805507,607.099509 C723.805507,602.229509 727.395507,605.769509 726.715507,607.009509 C726.035507,608.249509 721.475507,606.709509 730.405507,611.579509 Z"/>
    <path fill="#33CCAB" fill-rule="nonzero" d="M179.445507,635.499509 C179.445507,635.499509 192.795507,652.949509 173.285507,679.309509 C153.775507,705.669509 137.695507,727.909509 144.195507,744.309509 C144.195507,744.309509 173.625507,695.369509 197.585507,694.689509 C221.545507,694.009509 205.795507,664.959509 179.445507,635.499509 Z"/>
    <path fill="#000" fill-rule="nonzero" d="M179.445507,635.499509 C180.619543,637.192453 181.545574,639.044514 182.195507,640.999509 C205.565507,668.459509 218.025507,694.089509 195.555507,694.729509 C174.625507,695.329509 149.555507,732.729509 143.555507,742.199509 C143.751951,742.928838 143.988987,743.646624 144.265507,744.349509 C144.265507,744.349509 173.695507,695.409509 197.655507,694.729509 C221.615507,694.049509 205.795507,664.959509 179.445507,635.499509 Z" opacity=".1"/>
    <path fill="#FFD037" fill-rule="nonzero" d="M204.255507,657.769509 C204.255507,663.909509 203.565507,668.889509 202.715507,668.889509 C201.865507,668.889509 201.175507,663.889509 201.175507,657.769509 C201.175507,651.649509 202.035507,654.519509 202.885507,654.519509 C203.735507,654.519509 204.255507,651.629509 204.255507,657.769509 Z"/>
    <path fill="#FFD037" fill-rule="nonzero" d="M212.765507,665.099509 C207.375507,668.039509 202.665507,669.819509 202.265507,669.099509 C201.865507,668.379509 205.905507,665.359509 211.265507,662.419509 C216.625507,659.479509 214.535507,661.619509 214.935507,662.369509 C215.335507,663.119509 218.195507,662.159509 212.765507,665.099509 Z"/>
    <path fill="#33CCAB" fill-rule="nonzero" d="M108.945507,635.499509 C108.945507,635.499509 95.595507,652.949509 115.105507,679.309509 C134.615507,705.669509 150.695507,727.909509 144.195507,744.309509 C144.195507,744.309509 114.765507,695.369509 90.805507,694.689509 C66.845507,694.009509 82.595507,664.959509 108.945507,635.499509 Z"/>
    <path fill="#000" fill-rule="nonzero" d="M108.945507,635.499509 C107.771471,637.192453 106.84544,639.044514 106.195507,640.999509 C82.825507,668.459509 70.365507,694.089509 92.835507,694.729509 C113.765507,695.329509 138.835507,732.729509 144.835507,742.199509 C144.639063,742.928838 144.402027,743.646624 144.125507,744.349509 C144.125507,744.349509 114.695507,695.409509 90.735507,694.729509 C66.775507,694.049509 82.595507,664.959509 108.945507,635.499509 Z" opacity=".1"/>
    <path fill="#FFD037" fill-rule="nonzero" d="M84.135507,657.769509 C84.135507,663.909509 84.825507,668.889509 85.675507,668.889509 C86.525507,668.889509 87.215507,663.889509 87.215507,657.769509 C87.215507,651.649509 86.355507,654.519509 85.505507,654.519509 C84.655507,654.519509 84.135507,651.629509 84.135507,657.769509 Z"/>
    <path fill="#FFD037" fill-rule="nonzero" d="M75.615507,665.099509 C81.005507,668.039509 85.715507,669.819509 86.115507,669.099509 C86.515507,668.379509 82.475507,665.359509 77.115507,662.419509 C71.755507,659.479509 73.845507,661.619509 73.445507,662.369509 C73.045507,663.119509 70.195507,662.159509 75.615507,665.099509 Z"/>
  </g>
</svg>
