<svg xmlns="http://www.w3.org/2000/svg" width="163" height="166" viewBox="0 0 163 166">
  <g fill="none" fill-rule="evenodd" transform="translate(0 .307)">
    <g transform="translate(0 .693)">
      <path fill="#33CCAB" fill-rule="nonzero" d="M161,93.9959678 C155.853516,121.840745 120.952457,141.623006 99.2188927,149.858323 C77.485328,158.135444 58.2398723,171.410755 35.38,160.416398 C12.4784126,149.42204 5.26953125,128.920276 2.13476563,105.640276 C-1,82.3602764 -1,68.0575421 12,43.0802764 C25,18.1030108 49.2053648,0.270123537 75.95,0.270123537 C164.474609,13.2948467 166.146484,66.1511904 161,93.9959678 Z" transform="matrix(1 0 0 -1 0 164.86)"/>
      <path fill="#F5DD48" d="M66.5,5.39397709 C29.66,8.93 19.5749911,44.5195312 22.2207031,61.4511719 C24.8664152,78.3828125 19.5749911,84.61 19.5749911,92.61 C19.5749911,100.61 23.6994601,109.442119 35.38,116.715 C40.0671703,119.633464 85.639375,118.850131 86.7871094,110.35599 L66.5,5.39397709 Z"/>
      <path fill="#07454C" fill-rule="nonzero" d="M141.067364,137.391743 C135.094249,122.742059 123.41,121.78 123.41,121.78 L35.7,121.78 C35.7,121.78 25.8625224,122.586673 19.6247822,134.057518 C18.1600344,136.751105 49.2529297,168.37793 81.14,164.59 C113.02707,160.80207 142.064294,139.836817 141.067364,137.391743 Z"/>
    </g>
    <path fill="#F5DD48" d="M56.2539063,16.622518 C86.2226563,-18.6138101 131.008728,7.65015642 139.5,44.4897055 C147.991272,81.3292545 133.62,72.2598355 133.62,86.3028305 C133.62,100.345826 144.831496,101.755418 133.259766,112.774862 C121.688035,123.794305 81.7194802,118.886719 72.90625,112.774862 L56.2539063,16.622518 Z"/>
    <path fill="#FDB797" fill-rule="nonzero" d="M65.63,93.3028305 L94.02,93.3028305 C95.8701539,93.3028305 97.37,94.8026766 97.37,96.6528305 L97.37,121.37283 C97.37,131.059905 89.5170745,138.91283 79.83,138.91283 L79.83,138.91283 C70.1429255,138.91283 62.29,131.059905 62.29,121.37283 L62.29,96.6528305 C62.2899918,94.8065748 63.7837525,93.3083417 65.63,93.3028305 Z"/>
    <path fill="#000" fill-rule="nonzero" d="M62.28,94.6028305 L97.37,94.6028305 L97.37,122.67283 C97.37,132.359905 89.5170745,140.21283 79.83,140.21283 L79.83,140.21283 C70.1429255,140.21283 62.29,132.359905 62.29,122.67283 L62.29,94.6028305 L62.28,94.6028305 Z" opacity=".05"/>
    <path fill="#000" fill-rule="nonzero" d="M62.35,107.85283 C73.6586913,112.079472 86.1074023,112.114949 97.44,107.95283 L97.44,103.64283 L62.35,103.64283 L62.35,107.85283 Z" opacity=".1"/>
    <path fill="#FDB797" fill-rule="nonzero" d="M129.828678,66.3749273 C126.657386,91.0972375 105.534868,110.20283 79.95,110.20283 C54.3934597,110.20283 33.2893936,91.1395222 30.0819219,66.4570256 C27.7893659,65.8902093 26.02,62.2137281 26.02,57.7628305 C26.02,52.9192932 28.1153074,48.9928305 30.7,48.9928305 C30.7494932,48.9928305 30.7988069,48.9942702 30.8479299,48.9971285 C35.8333014,26.4710346 55.9240962,9.62283048 79.95,9.62283048 C103.975246,9.62283048 124.065598,26.4701118 129.05166,48.9952777 C131.58477,49.1064205 133.62,52.9892355 133.62,57.7628305 C133.62,62.0369555 131.988388,65.5969563 129.828679,66.3749213 Z"/>
    <path fill="#CF9595" fill-rule="nonzero" d="M57.9967051,43 C48.6308756,43 41,50.6029035 41,59.96875 C41,69.3345607 48.6308756,76.9375 57.9967051,76.9375 C67.3625337,76.9375 74.9654551,69.3345607 74.9654551,59.96875 C74.9654551,58.7388139 74.8514332,57.5467929 74.6020387,56.3904963 C76.2748419,55.7685135 78.3305352,55.4959329 80.3607908,55.4959329 C82.3910463,55.4959329 84.4467396,55.7685135 86.1195428,56.3904963 C85.8701484,57.5467929 85.7281713,58.7388139 85.7281713,59.96875 C85.7281713,69.3345607 93.3590469,76.9375 102.724876,76.9375 C112.090705,76.9375 119.693626,69.3345607 119.693626,59.96875 C119.693626,50.6029035 112.090705,43 102.724876,43 C95.8557055,43 89.9379841,47.1007584 87.2657022,52.9799732 C85.056246,52.1601425 82.6403638,51.9176792 80.3607908,51.9176792 C78.0800414,51.9176792 75.6475892,52.1616159 73.4279242,52.9799732 C70.7550215,47.1022863 64.8647632,43 57.9967051,43 Z M57.9967051,46.5223435 C65.4287023,46.5223435 71.4151565,52.5367349 71.4151565,59.96875 C71.4151565,67.4006935 65.4287023,73.4151565 57.9967051,73.4151565 C50.5647079,73.4151565 44.5502986,67.4006935 44.5502986,59.96875 C44.5502986,52.5367349 50.5647079,46.5223435 57.9967051,46.5223435 Z M102.724876,46.5223435 C110.156873,46.5223435 116.143328,52.5367349 116.143328,59.96875 C116.143328,67.4006935 110.156873,73.4151565 102.724876,73.4151565 C95.2928793,73.4151565 89.2784699,67.4006935 89.2784699,59.96875 C89.2784699,52.5367349 95.2928793,46.5223435 102.724876,46.5223435 Z"/>
    <path fill="#F5DD47" d="M52.0253906,15.4740805 C93.3967987,-12.455607 123.900937,22.1607992 128.94,48.9928305 C117.218021,32.7901393 106.779792,26.5534205 97.6253143,30.2826742 C85.831981,35.0869166 70.6320064,30.1507187 52.0253906,15.4740805 Z"/>
  </g>
</svg>
