<svg xmlns="http://www.w3.org/2000/svg" width="923" height="584" viewBox="0 0 923 584">
  <g fill="none" fill-rule="evenodd" transform="translate(-.288)">
    <path fill="#252223" fill-rule="nonzero" d="M923.288225,468.713875 C914.225728,472.383875 904.730472,475.553875 895.375226,478.663875 C860.767181,490.133875 825.62455,501.723875 788.458132,505.663875 C718.618359,513.013875 646.563874,493.013875 577.958739,505.493875 C520.490801,515.913875 472.963607,547.843875 416.819404,562.063875 C390.713814,568.673875 363.55178,571.263875 336.147911,571.263875 L332.609464,571.263875 C329.236484,571.263875 325.876233,571.163875 322.503253,571.063875 C294.717537,570.243875 266.817267,567.063875 239.578864,562.893875 C153.574244,549.893875 66.0422376,526.063875 0.288224697,482.193875 C191.746193,454.703875 586.13026,412.523875 923.288225,468.713875 Z" opacity=".1"/>
    <path stroke="#535461" stroke-width="2" d="M82.0182247,564.88 C82.0182247,564.88 57.3482247,481.12 86.6482247,419.47 C98.9382247,393.6 103.018225,364.55 97.3382247,336.47 C94.6254383,323.137277 90.6922074,310.082298 85.5882247,297.47"/>
    <path fill="#F5DD48" fill-rule="nonzero" d="M103.788225 258.56C103.788225 268.82 85.2082247 298.56 85.2082247 298.56 85.2082247 298.56 66.6182247 268.79 66.6182247 258.56 66.4618118 251.817445 69.9694857 245.519038 75.7840354 242.101798 81.5985851 238.684558 88.8078643 238.684558 94.622414 242.101798 100.436964 245.519038 103.944638 251.817445 103.788225 258.56L103.788225 258.56zM134.548225 315.42C128.968225 324.04 97.1882247 338.92 97.1882247 338.92 97.1882247 338.92 97.7582247 303.83 103.338225 295.22 108.977933 286.757219 120.371151 284.396979 128.908757 289.92276 137.446362 295.448541 139.959086 306.809103 134.548225 315.42L134.548225 315.42zM133.198225 412.59C124.038225 417.21 89.0882247 414.01 89.0882247 414.01 89.0882247 414.01 107.298225 384.01 116.468225 379.39 125.612268 374.925757 136.646235 378.642689 141.225348 387.729752 145.804462 396.816816 142.226865 407.896743 133.198225 412.59zM115.628225 485.88C107.378225 491.98 72.3982247 494.74 72.3982247 494.74 72.3982247 494.74 85.2682247 462.09 93.5282247 455.99 101.785931 450.131068 113.213774 451.957982 119.233319 460.09935 125.252865 468.240717 123.65013 479.70215 115.628225 485.88zM58.1582247 340.91C65.5182247 348.06 99.8282247 355.47 99.8282247 355.47 99.8282247 355.47 91.4282247 321.4 84.0582247 314.25 79.2958744 309.623411 72.4270252 307.888949 66.0391061 309.699971 59.651187 311.510993 54.7146749 316.59236 53.0891061 323.029971 51.4635373 329.467582 53.3958744 336.283411 58.1582247 340.91L58.1582247 340.91zM38.6982247 426.88C47.8582247 431.51 82.8082247 428.31 82.8082247 428.31 82.8082247 428.31 64.5982247 398.31 55.4382247 393.69 49.4909599 390.540216 42.3057435 390.850662 36.6523144 394.501666 30.9988853 398.152671 27.7601376 404.574059 28.1845355 411.29053 28.6089334 418.007001 32.6301989 423.969646 38.6982247 426.88L38.6982247 426.88zM31.2482247 513.04C39.4982247 519.14 74.4882247 521.9 74.4882247 521.9 74.4882247 521.9 61.6082247 489.25 53.3482247 483.15 45.0905185 477.291068 33.6626758 479.117982 27.64313 487.25935 21.6235842 495.400717 23.2263192 506.86215 31.2482247 513.04L31.2482247 513.04z"/>
    <path stroke="#535461" stroke-width="2" d="M852.068225,543.25 C852.068225,543.25 827.398225,459.49 856.698225,397.84 C868.988225,371.97 873.078225,342.92 867.398225,314.84 C864.676077,301.509636 860.743101,288.455503 855.648225,275.84"/>
    <path fill="#F5DD48" fill-rule="nonzero" d="M873.878225 236.93C873.878225 247.19 855.288225 276.93 855.288225 276.93 855.288225 276.93 836.698225 247.16 836.698225 236.93 836.698225 226.663027 845.021251 218.34 855.288225 218.34 865.555198 218.34 873.878225 226.663027 873.878225 236.93zM904.598225 293.79C899.018225 302.41 867.238225 317.29 867.238225 317.29 867.238225 317.29 867.818225 282.2 873.398225 273.59 878.976301 264.974358 890.482583 262.511924 899.098225 268.09 907.713867 273.668076 910.176301 285.174358 904.598225 293.79L904.598225 293.79zM903.258225 390.96C894.088225 395.58 859.138225 392.38 859.138225 392.38 859.138225 392.38 877.358225 362.38 886.518225 357.76 895.686152 353.137377 906.865601 356.822073 911.488225 365.99 916.110848 375.157927 912.426152 386.337377 903.258225 390.96L903.258225 390.96zM885.688225 464.25C877.428225 470.35 842.448225 473.11 842.448225 473.11 842.448225 473.11 855.328225 440.46 863.578225 434.36 871.834034 428.354509 883.388076 430.130379 889.459321 438.337955 895.530565 446.545531 893.847043 458.113389 885.688225 464.25zM828.208225 319.25C835.578225 326.4 869.878225 333.81 869.878225 333.81 869.878225 333.81 861.478225 299.74 854.118225 292.59 849.376716 287.851556 842.45137 286.032762 835.993429 287.829911 829.535487 289.627059 824.545203 294.761793 822.933016 301.268374 821.320829 307.774956 823.336446 314.645598 828.208225 319.25L828.208225 319.25zM808.788225 405.25C817.958225 409.88 852.908225 406.68 852.908225 406.68 852.908225 406.68 834.698225 376.68 825.528225 372.06 819.58096 368.910216 812.395743 369.220662 806.742314 372.871666 801.088885 376.522671 797.850138 382.944059 798.274535 389.66053 798.698933 396.377001 802.720199 402.339646 808.788225 405.25zM801.298225 491.41C809.558225 497.51 844.538225 500.27 844.538225 500.27 844.538225 500.27 831.658225 467.63 823.408225 461.52 815.152415 455.514509 803.598373 457.290379 797.527129 465.497955 791.455884 473.705531 793.139406 485.273389 801.298225 491.41L801.298225 491.41z"/>
    <path stroke="#535461" stroke-width="2" d="M740.788225,535.1 C740.788225,535.1 727.528225,490.1 743.278225,456.96 C749.964746,443.105492 751.982158,427.457392 749.028225,412.36 C747.564825,405.201802 745.449334,398.192566 742.708225,391.42"/>
    <path fill="#F5DD48" fill-rule="nonzero" d="M752.508225 370.48C752.508225 376 742.508225 392 742.508225 392 742.508225 392 732.508225 376 732.508225 370.48 732.508225 364.957153 736.985377 360.48 742.508225 360.48 748.031072 360.48 752.508225 364.957153 752.508225 370.48zM769.018225 401.04C766.018225 405.67 748.938225 413.67 748.938225 413.67 748.938225 413.67 749.248225 394.81 752.248225 390.18 755.355192 385.829559 761.334364 384.692209 765.821619 387.598088 770.308873 390.503966 771.717 396.42522 769.018225 401.04L769.018225 401.04zM768.298225 453.25C763.368225 455.73 744.588225 454.01 744.588225 454.01 744.588225 454.01 754.378225 437.89 759.298225 435.41 764.179323 433.204619 769.93136 435.236741 772.343864 440.018859 774.756368 444.800977 772.972579 450.634805 768.298225 453.25zM758.848225 492.64C754.418225 495.92 735.618225 497.4 735.618225 497.4 735.618225 497.4 742.538225 479.86 746.978225 476.58 749.831733 474.220961 753.755118 473.631565 757.17581 475.048054 760.596501 476.464542 762.954638 479.65508 763.305033 483.340835 763.655427 487.026591 761.940729 490.604321 758.848225 492.64L758.848225 492.64zM727.968225 414.74C731.968225 418.58 750.358225 422.56 750.358225 422.56 750.358225 422.56 745.848225 404.25 741.888225 400.41 739.36871 397.720969 735.574499 396.635464 732.013999 397.585034 728.453499 398.534604 725.703737 401.365357 724.857894 404.951915 724.012052 408.538472 725.207209 412.299583 727.968225 414.74L727.968225 414.74zM717.508225 460.94C722.438225 463.42 741.218225 461.71 741.218225 461.71 741.218225 461.71 731.428225 445.59 726.498225 443.1 721.617126 440.894619 715.865089 442.926741 713.452585 447.708859 711.040082 452.490977 712.823871 458.324805 717.498225 460.94L717.508225 460.94zM713.031905 506.80155C717.461905 510.08155 736.261905 511.56155 736.261905 511.56155 736.261905 511.56155 729.311905 494.01155 724.911905 490.73155 720.471697 487.712101 714.439441 488.738289 711.247426 493.056108 708.055411 497.373926 708.843179 503.441924 713.031905 506.80155L713.031905 506.80155z"/>
    <path fill="#252223" fill-rule="nonzero" d="M226.687713 9.63501958L219.807713 9.63501958C221.580295 9.71582137 223.253928 8.816169 224.164369 7.29312198 225.074811 5.77007497 225.074811 3.8699642 224.164369 2.34691718 223.253928.823870165 221.580295-.0757822013 219.807713.00501958197L164.077713.00501958197C162.305131-.0757822013 160.631498.823870165 159.721056 2.34691718 158.810614 3.8699642 158.810614 5.77007497 159.721056 7.29312198 160.631498 8.816169 162.305131 9.71582137 164.077713 9.63501958L170.957713 9.63501958C168.2957 9.63501958 166.137713 11.7930071 166.137713 14.4550196 166.137713 17.1170321 168.2957 19.2750196 170.957713 19.2750196L161.327713 19.2750196C159.555131 19.1942178 157.881498 20.0938702 156.971056 21.6169172 156.060614 23.1399642 156.060614 25.040075 156.971056 26.563122 157.881498 28.086169 159.555131 28.9858214 161.327713 28.9050196L217.057713 28.9050196C218.830295 28.9858214 220.503928 28.086169 221.414369 26.563122 222.324811 25.040075 222.324811 23.1399642 221.414369 21.6169172 220.503928 20.0938702 218.830295 19.1942178 217.057713 19.2750196L226.687713 19.2750196C229.349725 19.2750196 231.507713 17.1170321 231.507713 14.4550196 231.507713 11.7930071 229.349725 9.63501958 226.687713 9.63501958L226.687713 9.63501958zM472.968225 130.68L466.088225 130.68C467.860807 130.760802 469.53444 129.861149 470.444881 128.338102 471.355323 126.815055 471.355323 124.914945 470.444881 123.391898 469.53444 121.868851 467.860807 120.969198 466.088225 121.05L410.358225 121.05C408.585643 120.969198 406.91201 121.868851 406.001568 123.391898 405.091126 124.914945 405.091126 126.815055 406.001568 128.338102 406.91201 129.861149 408.585643 130.760802 410.358225 130.68L417.238225 130.68C414.576212 130.68 412.418225 132.837988 412.418225 135.5 412.418225 138.162012 414.576212 140.32 417.238225 140.32L407.608225 140.32C405.835643 140.239198 404.16201 141.138851 403.251568 142.661898 402.341126 144.184945 402.341126 146.085055 403.251568 147.608102 404.16201 149.131149 405.835643 150.030802 407.608225 149.95L463.338225 149.95C465.110807 150.030802 466.78444 149.131149 467.694881 147.608102 468.605323 146.085055 468.605323 144.184945 467.694881 142.661898 466.78444 141.138851 465.110807 140.239198 463.338225 140.32L472.968225 140.32C474.690245 140.32 476.281457 139.401313 477.142467 137.91 478.003478 136.418687 478.003478 134.581313 477.142467 133.09 476.281457 131.598687 474.690245 130.68 472.968225 130.68L472.968225 130.68zM779.687713 57.6350196L772.807713 57.6350196C774.580295 57.7158214 776.253928 56.816169 777.164369 55.293122 778.074811 53.770075 778.074811 51.8699642 777.164369 50.3469172 776.253928 48.8238702 774.580295 47.9242178 772.807713 48.0050196L717.077713 48.0050196C715.305131 47.9242178 713.631498 48.8238702 712.721056 50.3469172 711.810614 51.8699642 711.810614 53.770075 712.721056 55.293122 713.631498 56.816169 715.305131 57.7158214 717.077713 57.6350196L723.957713 57.6350196C721.2957 57.6350196 719.137713 59.7930071 719.137713 62.4550196 719.137713 65.1170321 721.2957 67.2750196 723.957713 67.2750196L714.327713 67.2750196C712.555131 67.1942178 710.881498 68.0938702 709.971056 69.6169172 709.060614 71.1399642 709.060614 73.040075 709.971056 74.563122 710.881498 76.086169 712.555131 76.9858214 714.327713 76.9050196L770.057713 76.9050196C771.830295 76.9858214 773.503928 76.086169 774.414369 74.563122 775.324811 73.040075 775.324811 71.1399642 774.414369 69.6169172 773.503928 68.0938702 771.830295 67.1942178 770.057713 67.2750196L779.687713 67.2750196C782.349725 67.2750196 784.507713 65.1170321 784.507713 62.4550196 784.507713 59.7930071 782.349725 57.6350196 779.687713 57.6350196L779.687713 57.6350196z" opacity=".1"/>
    <path fill="#535461" fill-rule="nonzero" d="M667.788225,490.84 C668.616652,490.84 669.288225,490.168427 669.288225,489.34 C669.288225,488.511573 668.616652,487.84 667.788225,487.84 C666.959798,487.84 666.288225,488.511573 666.288225,489.34 C666.288225,490.168427 666.959798,490.84 667.788225,490.84 Z"/>
    <path fill="#3A384D" fill-rule="nonzero" d="M348.618225,531.31 C348.618225,531.31 352.008225,559.87 357.618225,564.21 C363.228225,568.55 379.148225,583.12 370.518225,583.44 C361.888225,583.76 331.518225,578.86 331.518225,578.86 L327.588225,571.36 L320.588225,574.22 L313.898225,573.14 L307.898225,546.45 C307.898225,546.45 299.478225,531.37 311.328225,525.28 C323.178225,519.19 348.618225,531.31 348.618225,531.31 Z"/>
    <path fill="#000" fill-rule="nonzero" d="M320.128225,297.16 C320.128225,297.16 343.678225,367.25 342.788225,376.25 C342.788225,376.25 351.418225,393.65 341.898225,420.7 C332.378225,447.75 340.898225,426.83 340.898225,426.83 C340.898225,426.83 339.998225,506.72 346.518225,512.35 L350.338225,534.69 C350.338225,534.69 313.618225,539.05 307.438225,527.76 C307.438225,527.76 312.218225,519.39 307.538225,491.76 C302.858225,464.13 293.838225,403.25 293.838225,403.25 L269.398225,264.38 L320.128225,297.16 Z" opacity=".1"/>
    <path fill="#C4C9D8" fill-rule="nonzero" d="M320.218225,296.6 C320.218225,296.6 343.768225,366.73 342.878225,375.73 C342.878225,375.73 351.508225,393.13 341.988225,420.18 C332.468225,447.23 340.988225,426.31 340.988225,426.31 C340.988225,426.31 340.088225,506.21 346.608225,511.83 L350.428225,534.18 C350.428225,534.18 313.708225,538.53 307.528225,527.24 C307.528225,527.24 312.308225,518.87 307.628225,491.24 C302.948225,463.61 293.918225,402.7 293.918225,402.7 L269.488225,263.82 L320.218225,296.6 Z"/>
    <path fill="#000" fill-rule="nonzero" d="M275.548225,267.46 L299.498225,403.6 C299.498225,403.6 308.498225,464.51 313.208225,492.14 C317.918225,519.77 313.108225,528.14 313.108225,528.14 C314.908225,531.43 319.278225,533.38 324.578225,534.51 C317.138225,533.64 310.428225,531.61 308.088225,527.33 C308.088225,527.33 312.878225,518.96 308.198225,491.33 C303.518225,463.7 294.488225,402.79 294.488225,402.79 L270.048225,263.91 L275.548225,267.46 Z" opacity=".1"/>
    <path fill="#3A384D" fill-rule="nonzero" d="M275.178225,522.3 C275.178225,522.3 278.558225,550.86 284.178225,555.2 C289.798225,559.54 305.708225,574.11 297.078225,574.43 C288.448225,574.75 258.078225,569.85 258.078225,569.85 L254.148225,562.35 L247.148225,565.22 L240.458225,564.13 L234.458225,537.44 C234.458225,537.44 226.038225,522.36 237.878225,516.27 C249.718225,510.18 275.178225,522.3 275.178225,522.3 Z"/>
    <path fill="#000" fill-rule="nonzero" d="M320.128225,297.16 C320.128225,297.16 343.678225,367.25 342.788225,376.25 C342.788225,376.25 351.418225,393.65 341.898225,420.7 C332.378225,447.75 340.898225,426.83 340.898225,426.83 C340.898225,426.83 339.998225,506.72 346.518225,512.35 L350.338225,534.69 C350.338225,534.69 313.618225,539.05 307.438225,527.76 C307.438225,527.76 312.218225,519.39 307.538225,491.76 C302.858225,464.13 293.838225,403.25 293.838225,403.25 L269.398225,264.38 L320.128225,297.16 Z" opacity=".1"/>
    <path fill="#000" fill-rule="nonzero" d="M245.498225,235.36 C245.498225,235.36 219.288225,245.42 233.388225,282 C233.388225,282 254.558225,320.86 256.028225,336.54 L282.828225,390.04 C282.828225,390.04 254.248225,446.6 252.978225,472.12 C252.978225,472.12 249.158225,506.38 233.738225,520.46 C233.738225,520.46 266.908225,548.69 279.258225,532.39 C279.258225,532.39 275.548225,512.93 286.738225,486.15 C297.928225,459.37 311.198225,423.25 311.198225,423.25 C311.198225,423.25 343.288225,401.56 321.908225,356.94 L297.908225,257.59 L297.518225,235.23 L279.108225,228.83 L245.498225,235.36 Z" opacity=".1"/>
    <path fill="#000" fill-rule="nonzero" d="M244.298225,235.73 C244.298225,235.73 218.088225,245.79 232.188225,282.37 C232.188225,282.37 253.348225,321.24 254.818225,336.92 L281.618225,390.42 C281.618225,390.42 253.038225,446.97 251.788225,472.5 C251.788225,472.5 247.968225,506.75 232.538225,520.84 C232.538225,520.84 265.708225,549.07 278.068225,532.77 C278.068225,532.77 274.348225,513.3 285.538225,486.53 C296.728225,459.76 309.998225,423.59 309.998225,423.59 C309.998225,423.59 342.098225,401.9 320.718225,357.28 L296.718225,257.93 L296.328225,235.57 L277.928225,229.17 L244.298225,235.73 Z" opacity=".1"/>
    <path fill="#C4C9D8" fill-rule="nonzero" d="M244.388225,235.18 C244.388225,235.18 218.178225,245.25 232.278225,281.82 C232.278225,281.82 247.828225,310.37 253.188225,328.4 C255.52803,336.14429 258.539463,343.669525 262.188225,350.89 L281.708225,389.89 C281.708225,389.89 253.128225,446.45 251.868225,471.97 C251.868225,471.97 248.048225,506.23 232.618225,520.31 C232.618225,520.31 265.788225,548.54 278.148225,532.24 C278.148225,532.24 274.428225,512.78 285.618225,486 C296.808225,459.22 310.078225,423.06 310.078225,423.06 C310.078225,423.06 342.178225,401.37 320.798225,356.75 L296.798225,257.4 L296.408225,235.04 L278.008225,228.64 L244.388225,235.18 Z"/>
    <path fill="#000" fill-rule="nonzero" d="M244.388225,235.18 L278.038225,228.61 L282.428225,230.14 L251.078225,236.25 C251.078225,236.25 224.868225,246.31 238.968225,282.89 C238.968225,282.89 254.508225,311.44 259.878225,329.47 C262.21803,337.21429 265.229463,344.739525 268.878225,351.96 L288.408225,390.96 C288.408225,390.96 259.788225,447.5 258.558225,473.02 C258.558225,473.02 254.728225,507.28 239.308225,521.36 C239.308225,521.36 253.598225,533.52 266.908225,537.27 C252.228225,536.97 232.618225,520.27 232.618225,520.27 C248.048225,506.19 251.868225,471.93 251.868225,471.93 C253.128225,446.41 281.708225,389.85 281.708225,389.85 L262.188225,350.85 C258.539463,343.629525 255.52803,336.10429 253.188225,328.36 C247.828225,310.36 232.278225,281.78 232.278225,281.78 C218.178225,245.25 244.388225,235.18 244.388225,235.18 Z" opacity=".1"/>
    <path fill="#FEDCB4" fill-rule="nonzero" d="M352.378225 306.37L331.508225 347.02C331.508225 347.02 337.628225 401.18 325.938225 402.72 314.248225 404.26 318.938225 343.28 318.938225 343.28L330.188225 291.35 352.378225 306.37zM466.448225 332.81L481.368225 403.25C481.368225 403.25 517.988225 452.62 492.068225 446.72 466.148225 440.82 464.718225 414.25 464.718225 414.25L439.718225 328.45 466.448225 332.81zM481.318225 187.7L444.418225 210.9 431.248225 175.61C431.248225 175.61 461.788225 177.69 465.348225 166.26 468.908225 154.83 481.318225 187.7 481.318225 187.7z"/>
    <polygon fill="#FEDCB4" fill-rule="nonzero" points="462.368 202.37 460.008 192.26 423.638 194.39 408.988 253.2 436.278 254.18 451.558 230.35 459.888 207.11"/>
    <path fill="#000" fill-rule="nonzero" d="M449.788225,191.76 L452.788225,174.81 C452.788225,174.81 385.478225,175.65 370.428225,190.94 C355.378225,206.23 318.478225,211.71 318.478225,211.71 L257.018225,224.07 L235.528225,233.18 C235.528225,233.18 241.588225,255.88 244.188225,257.45 C246.788225,259.02 275.808225,235.11 275.808225,235.11 L286.808225,238.03 L250.988225,275.69 L317.098225,340.69 L318.318225,304.87 L326.788225,298.25 C326.788225,298.25 346.918225,315.25 355.898225,312.67 L367.218225,292.2 C367.218225,292.2 390.618225,278.26 397.308225,279.34 C403.538225,280.34 423.058225,276.05 430.598225,267.92 C431.127311,267.350277 431.608916,266.738237 432.038225,266.09 C438.118225,256.78 435.618225,314.69 435.618225,314.69 L432.198225,335.86 L468.668225,336.61 L461.348225,300.55 C461.348225,300.55 461.718225,262.88 463.498225,248.3 C465.278225,233.72 468.498225,213.67 461.968225,201.17 L449.128225,213.39 L426.788225,249.25 L435.268225,218.03 L449.788225,191.76 Z" opacity=".1"/>
    <path fill="#33CCAB" fill-rule="nonzero" d="M449.978225,190.64 L446.788225,173.25 C446.788225,173.25 385.698225,174.53 370.648225,189.82 C355.598225,205.11 318.648225,210.58 318.648225,210.58 L257.188225,222.95 L235.788225,232.07 C235.788225,232.07 241.848225,254.77 244.448225,256.33 C247.048225,257.89 276.078225,234 276.078225,234 L287.078225,236.92 L251.258225,274.58 L317.368225,339.58 L318.588225,303.75 L327.088225,297.12 C327.088225,297.12 347.218225,314.12 356.198225,311.55 L367.518225,291.08 C367.518225,291.08 390.788225,277.14 397.518225,278.25 C403.748225,279.25 423.268225,274.95 430.808225,266.82 C431.337311,266.250277 431.818916,265.638237 432.248225,264.99 C438.328225,255.68 435.828225,313.6 435.828225,313.6 L432.408225,334.77 L468.878225,335.52 L461.558225,299.46 C461.558225,299.46 461.928225,261.78 463.708225,247.21 C465.488225,232.64 468.708225,212.57 462.178225,200.08 L449.338225,212.25 L426.968225,248.08 L435.448225,216.86 L449.978225,190.64 Z"/>
    <path fill="#000" fill-rule="nonzero" d="M372.928225 212.78C372.928225 212.78 336.518225 243.49 332.708225 260.03M412.678225 239.25C412.678225 239.25 384.678225 260.45 379.678225 273.93M330.908225 271.17C330.908225 271.17 328.278225 283.89 327.758225 290.67M317.598225 300.46C317.598225 300.46 275.658225 262.81 269.788225 263.58M465.788225 166.9C469.198225 155.96 480.718225 185.62 481.688225 188.17 480.592595 188.108282 479.501041 187.988111 478.418225 187.81 469.579258 186.395738 461.710696 181.409181 456.658225 174.02 461.148225 172.61 464.728225 170.38 465.788225 166.9z" opacity=".1"/>
    <circle cx="483.198" cy="154.85" r="32.74" fill="#FEDCB4" fill-rule="nonzero"/>
    <path fill="#000" fill-rule="nonzero" d="M509.788225,159.57 C512.358225,163.8 514.698225,168.39 518.668225,171.35 C522.638225,174.31 528.888225,174.98 532.188225,171.29 C533.388135,169.813563 534.19945,168.060296 534.548225,166.19 C536.968225,155.88 532.738225,145.19 527.248225,136.1 C520.628225,125.19 511.838225,115.32 500.688225,109.1 C489.538225,102.88 475.828225,100.67 463.748225,104.81 C451.668225,108.95 441.748225,120.01 440.748225,132.73 C440.198225,139.23 441.838225,145.86 440.488225,152.25 C439.788225,155.58 438.278225,158.75 438.108225,162.15 C437.788225,168.46 442.108225,174.33 441.718225,180.64 C441.478225,184.53 439.488225,188.06 438.268225,191.77 C435.268225,200.71 436.888225,210.44 436.268225,219.84 C435.648225,229.24 431.538225,239.78 422.538225,242.56 C432.488225,247.56 446.208225,242.3 450.258225,231.92 C451.488225,228.75 451.938225,225.23 453.808225,222.39 C456.968225,217.59 463.538225,215.69 466.188225,210.59 C468.838225,205.49 466.538225,199.28 463.638225,194.33 C460.738225,189.38 457.118225,184.4 457.058225,178.67 C457.101687,172.941307 460.685013,167.837059 466.058225,165.85 C468.788225,164.9 471.738225,164.85 474.608225,164.53 C481.72821,163.615376 488.528619,161.020664 494.448225,156.96 C502.138225,151.93 504.198225,150.37 509.788225,159.57 Z" opacity=".1"/>
    <path fill="#F5DD48" fill-rule="nonzero" d="M509.998225,158.14 C512.568225,162.38 514.908225,166.96 518.878225,169.93 C522.848225,172.9 529.098225,173.56 532.398225,169.87 C533.596328,168.392436 534.407422,166.639648 534.758225,164.77 C537.178225,154.46 532.948225,143.77 527.458225,134.68 C520.838225,123.76 512.048225,113.9 500.898225,107.68 C489.748225,101.46 476.038225,99.26 463.958225,103.39 C451.878225,107.52 439.718225,118.75 438.648225,131.47 C438.098225,137.97 438.888225,140.98 437.538225,147.36 C436.838225,150.69 438.468225,157.36 438.298225,160.74 C437.978225,167.05 442.298225,172.92 441.908225,179.23 C441.668225,183.12 439.678225,186.65 438.458225,190.35 C435.458225,199.3 437.078225,209.03 436.458225,218.43 C435.838225,227.83 431.728225,238.36 422.728225,241.14 C432.678225,246.14 446.398225,240.88 450.448225,230.5 C451.678225,227.34 452.128225,223.82 453.998225,220.98 C457.158225,216.18 463.728225,214.28 466.378225,209.18 C469.028225,204.08 466.728225,197.86 463.838225,192.91 C460.948225,187.96 457.308225,182.99 457.248225,177.25 C457.295826,171.524977 460.878412,166.425764 466.248225,164.44 C468.978225,163.49 471.928225,163.44 474.798225,163.12 C481.917086,162.200905 488.716479,159.60658 494.638225,155.55 C502.368225,150.5 504.428225,148.95 509.998225,158.14 Z"/>
    <rect width="18.03" height="3.95" x="440.299" y="174.29" fill="#FFBCA3" fill-rule="nonzero" rx="1.975" transform="rotate(-170.82 449.314 176.265)"/>
    <path fill="#F3AD55" fill-rule="nonzero" d="M413.428225,453.45 C413.658225,469.11 426.868225,481.45 442.528225,481.45 L444.708225,481.45 C446.633708,481.443645 448.485428,482.190075 449.868225,483.53 C450.917303,484.511903 451.645712,485.78749 451.958225,487.19 C452.106954,487.754553 452.18092,488.33619 452.178225,488.92 L452.178225,516.57 C452.167853,521.886814 453.68841,527.094201 456.558225,531.57 C460.733715,537.910577 462.997051,545.318488 463.078225,552.91 L463.078225,552.91 C463.077645,556.489966 464.516003,559.919932 467.069888,562.428682 C469.623773,564.937432 473.078838,566.314407 476.658225,566.25 C483.978225,566.12 489.718225,559.82 489.718225,552.49 L489.718225,545.58 L493.358225,546 L493.358225,552.93 C493.360327,556.50558 494.798812,559.930413 497.350525,562.435115 C499.902238,564.939818 503.353224,566.314377 506.928225,566.25 C514.258225,566.12 519.998225,559.82 519.998225,552.49 L519.998225,548.99 C523.628225,550.51 544.218225,550.51 549.928225,548.99 L551.478225,548.87 L551.478225,552.87 C551.466888,556.456897 552.90051,559.897232 555.455588,562.41468 C558.010665,564.932127 561.471891,566.31455 565.058225,566.25 C572.378225,566.12 578.118225,559.82 578.118225,552.49 L578.118225,546.75 L579.328225,546.64 L579.328225,552.94 C579.335685,556.514761 580.77758,559.936961 583.330576,562.439198 C585.883571,564.941434 589.334035,566.314321 592.908225,566.25 C599.576653,566.024774 605.0903,560.981908 605.908225,554.36 C605.98368,553.739449 606.023745,553.115106 606.028225,552.49 L606.028225,523.57 C606.038878,513.635553 602.710744,503.985725 596.578225,496.17 C594.397944,493.331559 594.304925,489.408588 596.348225,486.47 C603.128225,476.54 613.158225,459.78 612.828225,447.9 C612.897483,444.678383 611.767778,441.545857 609.658225,439.11 C609.528225,438.96 609.388225,438.82 609.258225,438.68 C599.498225,428.46 582.318225,436.5 583.808225,450.55 C584.314804,455.255505 583.976144,460.013677 582.808225,464.6 C582.131517,467.188548 581.217652,469.709211 580.078225,472.13 C577.737612,477.111232 572.47479,480.038601 567.008225,479.4 C565.196691,479.178392 563.373262,479.068184 561.548225,479.07 L505.548225,479.07 C498.808605,479.072598 492.816214,474.781403 490.648225,468.4 C490.079088,466.770518 489.791645,465.056003 489.798225,463.33 L489.798225,419.73 C489.799304,417.435183 488.870276,415.237904 487.223282,413.639905 C485.576289,412.041907 483.351963,411.17964 481.058225,411.25 C478.819179,411.331035 476.708551,412.315995 475.208225,413.98 C473.691936,415.650078 472.850771,417.824277 472.848225,420.08 C472.850888,421.271636 472.378691,422.415233 471.536074,423.25785 C470.693458,424.100466 469.549861,424.572663 468.358225,424.57 L441.888225,424.57 C434.266827,424.56917 426.96353,427.625211 421.614005,433.053681 C416.264481,438.482152 413.315751,445.829432 413.428225,453.45 Z"/>
    <path fill="#FBDCA3" fill-rule="nonzero" d="M579.788225 556.25C581.332769 562.226712 586.776197 566.363056 592.948225 566.25 599.616653 566.024774 605.1303 560.981908 605.948225 554.36 597.788225 552.19 586.608225 550.69 579.788225 556.25zM551.888225 556.25C553.43685 562.228261 558.883693 566.364057 565.058225 566.25 571.705292 566.000075 577.188019 560.962237 577.998225 554.36 569.938225 552.19 558.788225 550.69 551.888225 556.25zM493.788225 556.25C495.332769 562.226712 500.776197 566.363056 506.948225 566.25 513.616653 566.024774 519.1303 560.981908 519.948225 554.36 511.788225 552.19 500.628225 550.69 493.788225 556.25zM463.488225 556.25C465.033631 562.230404 470.482494 566.367733 476.658225 566.25 483.305292 566.000075 488.788019 560.962237 489.598225 554.36 481.538225 552.19 470.358225 550.69 463.488225 556.25zM582.728225 464.6C592.138225 460.82 603.618225 453.9 612.728225 447.9 612.797483 444.678383 611.667778 441.545857 609.558225 439.11 609.428225 438.96 609.288225 438.82 609.158225 438.68 599.398225 428.46 582.218225 436.5 583.708225 450.55 584.221332 455.254315 583.889447 460.012471 582.728225 464.6L582.728225 464.6zM571.338225 479.15C571.338225 479.15 545.428225 511.77 503.038225 479.07M489.718225 418.52C489.718225 418.52 473.978225 439.11 489.718225 464.52M452.178225 488.76C452.178225 488.76 466.048225 505.98 452.358225 519.68"/>
    <path fill="#000" fill-rule="nonzero" d="M450.968225,485.12 C451.968225,486.12 451.648225,487.02 451.968225,488.44 L496.968225,476.65 C494.548225,474.78 491.538225,472.57 490.548225,469.65 C485.168225,473.8 474.498225,480.82 450.968225,485.12 Z" opacity=".1"/>
    <path fill="#383F4D" fill-rule="nonzero" d="M449.868225,483.57 C450.917303,484.551903 451.645712,485.82749 451.958225,487.23 L495.848225,475.79 C493.398151,473.901081 491.561172,471.330006 490.568225,468.4 C485.168225,472.59 473.398225,479.25 449.868225,483.57 Z"/>
    <path fill="#000" fill-rule="nonzero" d="M488.918225,470.82 C488.918225,470.82 475.188225,481.15 452.178225,484.35" opacity=".1"/>
    <path fill="#F3AD55" fill-rule="nonzero" d="M488.918225,469.61 C488.918225,469.61 475.188225,479.94 452.178225,483.14"/>
    <path fill="#000" fill-rule="nonzero" d="M454.598225,470.59 C454.598225,470.59 431.598225,477.86 425.538225,454.85 L454.598225,470.59 Z" opacity=".1"/>
    <path fill="#FBDCA3" fill-rule="nonzero" d="M454.598225,469.38 C454.598225,469.38 431.598225,476.65 425.538225,453.64 L454.598225,469.38 Z"/>
    <ellipse cx="413.428" cy="450.61" fill="#383F4D" fill-rule="nonzero" rx="2.42" ry="4.24"/>
    <path fill="#000" fill-rule="nonzero" d="M596.888225,537.8 L592.048225,499.05 C592.048225,499.05 606.578225,522.05 596.888225,537.8" opacity=".1"/>
    <path fill="#FBDCA3" fill-rule="nonzero" d="M590.838225,499.05 C590.838225,499.05 605.368225,522.05 595.678225,537.8 L590.838225,499.05 Z"/>
  </g>
</svg>
