<svg xmlns="http://www.w3.org/2000/svg" width="187" height="173" viewBox="0 0 187 173">
  <g fill="none" fill-rule="evenodd">
    <path fill="#B9EFE9" fill-rule="nonzero" d="M132.922912,53.6023614 C148.899794,76.6779708 164.91839,96.7855217 163.958943,117.770949 C162.999496,138.79818 145.062005,160.745091 123.32844,168.980408 C101.594875,177.257529 76.0652371,171.864859 53.2053648,160.870502 C30.3037774,149.876145 10.0302411,133.2801 2.93867484,111.082367 C-4.15289138,88.9264373 1.89579745,61.1688203 17.7892488,38.0932109 C33.6409851,15.0176015 59.2957687,-3.3341965 80.1116014,0.511738397 C100.927434,4.35767329 116.904316,30.4849484 132.922912,53.6023614 Z" transform="rotate(180 82 86.5)"/>
    <path fill="#231814" fill-rule="nonzero" d="M18.4422406,101.251139 C18.3722399,99.4067033 18.3359375,97.4726128 18.3359375,95.4417684 C18.3359375,60.4300497 26.4148323,73.17 31.2890625,57 C36.1632927,40.83 44.5449509,26 68.8388817,17.8632813 C93.1328125,9.7265625 99.6110171,30.2578125 103.608413,33.953125 L100.370132,39.6210938 C87.0013817,46.6484375 64.5443386,61.3227057 62.7216942,81.94 C58.8513817,125.72 107.155469,105.380209 96,133.12599 C87.2038025,155.003813 77.9816541,160.44449 70.2169477,166.594667 C55.7113326,156.767631 43.406567,137.191061 31.0770879,119.397639 C26.7563104,113.157086 22.432482,107.133609 18.4422406,101.251139 Z"/>
    <path fill="#7A3814" fill-rule="nonzero" d="M138.787587,144.54 C123.062531,162.812432 101.703312,175.779746 83.8883986,172.488262 C71.8245291,170.25934 61.3859723,160.546535 51.6226536,148.273054 C51.4895266,148.038278 51.4214874,147.9132 51.4214874,147.9132 C55.8393137,144.856576 59.7,144.54 59.7,144.54 L138.787587,144.54 Z"/>
    <path fill="#C58355" fill-rule="nonzero" d="M89.59,115.38 L117.98,115.38 C119.830154,115.38 121.33,116.879846 121.33,118.73 L121.33,143.45 C121.33,153.137075 113.477075,160.99 103.79,160.99 L103.79,160.99 C94.1029255,160.99 86.25,153.137075 86.25,143.45 L86.25,118.73 C86.25,116.879846 87.7498461,115.38 89.6,115.38 L89.59,115.38 Z"/>
    <path fill="#000" fill-rule="nonzero" d="M86.27,116.68 L121.360026,116.68 L121.360026,144.75 C121.367965,149.407093 119.523523,153.876171 116.233272,157.172051 C112.94302,160.46793 108.4771,162.32 103.82,162.32 L103.82,162.32 C94.1329255,162.32 86.28,154.467075 86.28,144.78 L86.28,116.68 L86.27,116.68 Z" opacity=".1"/>
    <path fill="#000" fill-rule="nonzero" d="M86.31,129.93 C97.6186913,134.156642 110.067402,134.192118 121.4,130.03 L121.4,125.72 L86.31,125.72 L86.31,129.93 Z" opacity=".1"/>
    <ellipse cx="53.64" cy="81.94" fill="#C58355" fill-rule="nonzero" rx="4.68" ry="8.77"/>
    <ellipse cx="154.23" cy="81.94" fill="#C58355" fill-rule="nonzero" rx="4.68" ry="8.77"/>
    <circle cx="103.95" cy="81.99" r="50.29" fill="#C58355" fill-rule="nonzero"/>
    <path fill="#231814" d="M109.75,29.3828125 L121.33,39.5859375 C95.0181466,45.858068 94.899288,33.6917945 73.2389559,48.6332515 C51.5786239,63.5747085 69.172978,93.4804877 46,109.757813 C22.827022,126.035137 30.0959079,110.457744 29.0546875,109.757813 C21.2321547,104.499332 32.4736216,78.2415266 40.9609375,70 C49.4482534,61.7584734 44.5213067,45.1528913 54.96,39.5859375 C60.7591706,36.4932406 64.32,15.9723977 86.25,15.9723977 C108.18,15.9723977 114.723638,28.1972136 109.75,29.3828125 Z"/>
    <path fill="#231814" d="M127.33,26 C148.4775,26 164.91,31.7 170,49.9375 C175.09,68.175 163.394531,61.7104687 173.5,81.99 C178.342061,91.7069883 191.773438,115.38 183.605469,135.445312 C177.175326,151.241507 162.476705,147.11631 154.24,160.99 C146.003295,174.86369 122.325341,147.459837 121.105469,144.425781 C109.95,116.68 149.55,125.72 145.679688,81.94 C143.857043,61.3227057 121.4,46.6484375 108.03125,39.6210937 C106.79875,30.5403646 113.231667,26 127.33,26 Z"/>
  </g>
</svg>
