<svg xmlns="http://www.w3.org/2000/svg" width="1225" height="574" viewBox="0 0 1225 574">
  <g fill="none" fill-rule="evenodd">
    <path fill="#FFBCA3" fill-rule="nonzero" d="M1225,573.389268 C1225,481.819024 697.416675,440.746944 612.504186,444.200562 C527.591696,447.65418 0,477.027577 0,573.389268 C0,574.763415 1225,573.389268 1225,573.389268 Z" opacity=".5"/>
    <g transform="matrix(-1 0 0 1 1029 37)">
      <path fill="#FFC0C6" fill-rule="nonzero" d="M551.039901,121.411163 C549.809425,132.402859 541.448933,141.263858 538.347461,151.849707 C533.695252,167.829943 541.718627,184.9939 552.776051,197.507523 C570.775917,217.590943 596.039031,229.611738 622.930015,230.88846 C626.841046,231.226134 630.780179,230.795335 634.526826,229.620187 C637.863108,228.257959 640.869276,226.193549 643.342425,223.566299 C651.635493,215.1957 656.102288,203.612142 657.872151,191.927124 C659.642013,180.242105 658.967779,168.354162 658.27669,156.567681 C658.275765,154.128444 657.830183,151.709942 656.961936,149.431534 C655.833372,147.26467 654.279572,145.349217 652.394006,143.800403 C646.415656,138.28861 639.826925,133.482868 632.756964,129.477377 C629.722915,127.786347 626.469739,126.095316 624.531319,123.169834 C623.201116,120.840177 622.336567,118.272614 621.986089,115.610929 L619.811687,104.517771 C619.427111,101.319291 618.338975,98.2464899 616.625935,95.5214898 C612.799661,90.3469373 605.467375,89.6367046 599.045304,89.38305 L575.447142,88.4529834 C568.114856,88.1655083 558.473322,86.0517205 551.309594,87.5060065 C544.567262,88.8419204 546.842799,95.031091 548.056419,100.645311 C549.812066,107.435527 550.81266,114.399936 551.039901,121.411163 L551.039901,121.411163 Z"/>
      <path fill="#000" fill-rule="nonzero" d="M551.039901,121.411163 C549.809425,132.402859 541.448933,141.263858 538.347461,151.849707 C533.695252,167.829943 541.718627,184.9939 552.776051,197.507523 C570.775917,217.590943 596.039031,229.611738 622.930015,230.88846 C626.841046,231.226134 630.780179,230.795335 634.526826,229.620187 C637.863108,228.257959 640.869276,226.193549 643.342425,223.566299 C651.635493,215.1957 656.102288,203.612142 657.872151,191.927124 C659.642013,180.242105 658.967779,168.354162 658.27669,156.567681 C658.275765,154.128444 657.830183,151.709942 656.961936,149.431534 C655.833372,147.26467 654.279572,145.349217 652.394006,143.800403 C646.415656,138.28861 639.826925,133.482868 632.756964,129.477377 C629.722915,127.786347 626.469739,126.095316 624.531319,123.169834 C623.201116,120.840177 622.336567,118.272614 621.986089,115.610929 L619.811687,104.517771 C619.427111,101.319291 618.338975,98.2464899 616.625935,95.5214898 C612.799661,90.3469373 605.467375,89.6367046 599.045304,89.38305 L575.447142,88.4529834 C568.114856,88.1655083 558.473322,86.0517205 551.309594,87.5060065 C544.567262,88.8419204 546.842799,95.031091 548.056419,100.645311 C549.812066,107.435527 550.81266,114.399936 551.039901,121.411163 L551.039901,121.411163 Z" opacity=".1"/>
      <circle cx="582" cy="59" r="59" fill="#FFC0C6" fill-rule="nonzero"/>
      <path fill="#B9EFE9" fill-rule="nonzero" d="M589.302071,181.28553 C585.596721,170.700564 575.464362,163.719767 564.237387,164.016947 C562.667947,164.315906 561.043941,164.108794 559.600167,163.425557 C558.781753,162.80172 558.125795,161.99034 557.687736,161.059997 C554.455739,155.234775 551.851774,149.083701 549.919546,142.710015 C549.073338,139.888241 547.905571,136.559561 545.045388,135.832996 C542.743702,135.241607 540.391243,136.72853 538.851144,138.536493 C537.486052,140.47658 536.005336,142.332953 534.417014,144.095557 C527.647349,150.077043 515.800436,144.61936 508.709212,150.110837 C507.541445,151.00637 506.576768,152.155356 505.32438,152.983302 C504.105912,153.724623 502.790167,154.293291 501.414898,154.672987 C487.649544,159.144029 474.155289,164.407775 461,170.437751 C465.738765,198.892051 470.579076,227.88705 481.681326,254.499593 C486.961664,267.172232 492.935893,279.591419 497.166934,292.652686 C506.542919,321.596995 506.949099,352.568926 507.067568,383.000157 C507.067568,403.81708 507.067568,425.07332 500.297904,444.77505 C498.774729,449.23582 496.913071,453.662795 496.489967,458.292533 C496.066863,462.92227 497.454645,468.160295 501.262581,470.931378 C503.466997,472.383054 505.995321,473.270892 508.624591,473.516597 C520.319187,475.206282 532.098404,472.131055 543.606834,469.461352 C574.459581,462.33088 605.938522,458.241842 637.332842,454.254185 L689.966985,447.495444 C693.742898,447.231815 697.43774,446.275227 700.866145,444.673669 C710.495993,439.418748 711.409898,424.955042 705.418745,415.763154 C702.558561,411.353076 698.513687,407.737149 696.093532,403.073618 C693.673376,398.410087 693.487211,391.854108 697.63363,388.626809 C706.095711,382.037037 703.557087,369.820612 703.963267,359.141801 C705.091544,329.268166 704.939227,299.417059 703.506315,269.588482 C703.075502,263.402713 702.973814,257.198475 703.20168,251.001944 C703.794025,240.492102 706.400346,230.201919 709.006667,219.979323 L725,157.123031 C720.819732,150.533258 712.814604,146.342839 705.249503,144.450391 C697.684403,142.557944 689.780819,142.000348 682.317264,139.685479 C667.085518,134.95436 653.410796,122.957595 637.451311,124.072787 C636.241005,124.094296 635.050446,124.382801 633.964934,124.91763 C630.377011,126.962149 630.935509,132.132586 630.715495,136.255418 C630.20777,145.396615 623.471953,153.017096 616.05917,158.373398 C608.646388,163.7297 600.150458,167.615976 593.330021,173.71574 C590.932435,175.520352 589.457719,178.29181 589.302071,181.28553 Z"/>
      <path fill="#FFC0C6" fill-rule="nonzero" d="M398.391649,252.823956 C394.853635,255.117742 391.092595,257.049726 387.165659,258.590563 C383.434968,260.061809 379.449911,261.228659 376.397527,263.799112 C374.886245,265.106689 373.617658,266.66944 372.649878,268.41578 C368.969311,274.928521 369.133082,282.922357 373.077322,289.279749 C377.021561,295.637141 384.121639,299.351298 391.608574,298.973725 C396.509346,298.720062 401.138795,296.74149 405.632583,294.79674 L443.312567,278.443927 C449.688658,275.687455 456.57348,272.474389 459.591948,266.217366 C459.937847,265.631557 460.069671,264.94438 459.965018,264.272616 C459.673187,263.535541 459.117187,262.932862 458.40491,262.581529 C449.913797,257.072405 442.486579,250.083859 436.478619,241.950266 C434.935469,239.853317 433.087081,234.915343 430.848666,233.647027 C422.878552,229.23329 404.784698,248.697703 398.391649,252.823956 Z"/>
      <polygon fill="#33CCAB" points="682.317 137.685 659 128 638 259.784 550.383 259.784 534.417 138.096 513 146.748 529 268.252 523 398.648 507.169 398.648 507.169 419 507.169 416 502.482 537 716.271 537 703 398.648 677 381 659 268.252"/>
      <path fill="#FFC0C6" fill-rule="nonzero" d="M779.841359,227 L793.717206,242.836365 C796.699073,246.220203 799.68094,249.604042 802.391729,253.258588 C809.062597,262.433044 814.412029,272.496461 818.283724,283.154802 C821.299476,291.056065 823.806955,299.481823 822.756525,307.873743 C822.052614,312.176111 820.888209,316.390579 819.283328,320.444703 C816.741286,328.238632 813.585799,335.81952 809.846396,343.116422 C806.723744,348.653204 803.195766,353.952052 799.291265,358.969705 C788.543687,373.191157 776.783397,386.620328 764.101845,399.152789 C759.357966,403.839405 757.324875,411.436123 755.308726,417.763901 C751.49668,429.455063 742.432482,438.574508 733.673248,447.203297 C730.855973,450.177528 727.739017,452.853641 724.371856,455.189156 C719.328971,458.438688 713.429873,460.111735 707.429429,459.994207 C704.811184,460.009171 702.219162,459.47303 699.82228,458.420722 C693.824661,455.578297 690.775024,448.658347 690.148155,442.059862 C689.594545,436.064087 690.59821,430.027041 693.062252,424.531578 C701.025192,406.918698 721.474701,399.288142 735.92659,386.429556 C744.397804,378.900515 750.886753,369.425767 757.29099,360.069453 C761.628664,354.221174 765.251738,347.876708 768.083315,341.170714 C771.302376,332.558845 770.048637,322.373491 772.878022,313.643187 C774.063992,309.937884 776.266507,306.604803 777.46942,302.933338 C778.672332,299.261873 779.07895,294.913641 776.825607,291.749752 C775.137197,289.727189 772.979383,288.147349 770.539967,287.147731 C761.306345,282.478034 750.971465,276.454801 749.209453,266.252528 C748.503748,260.60267 749.982183,254.896718 753.343405,250.297729 C756.686384,245.757423 760.598037,241.663495 764.982851,238.11591 C768.998206,234.495202 775.792119,230.485354 779.841359,227 Z"/>
      <path fill="#B9EFE9" fill-rule="nonzero" d="M440.392297,194.717772 C438.254387,196.11293 436.374083,197.871025 434.835372,199.913529 C432.898868,202.875279 432.494728,206.683243 430.82765,209.729615 C427.257747,216.397784 418.88868,218.784108 413.685378,224.250653 C412.841812,224.997915 412.252836,225.992396 412.001461,227.093933 C411.969438,228.582529 412.464794,230.034121 413.399112,231.18961 L438.556828,270.927836 C446.976412,271.672504 454.958177,266.392127 463.344083,267.102947 C466.459329,267.356811 469.67561,268.439966 472.672982,267.50913 C474.815278,266.54996 476.824688,265.315464 478.650886,263.83656 C483.702636,260.654794 490.30359,260.282459 494.496543,256.102161 C498.689495,251.921862 499.043118,245.778346 498.9926,240.074861 C499.068136,235.124781 498.565131,230.182907 497.493915,225.350732 C493.789298,210.118873 482.187111,198.373418 474.912591,184.867838 C471.359526,178.28429 469.439861,174.442477 461.946432,178.961261 C454.453002,183.480046 447.481587,189.505092 440.392297,194.717772 Z" transform="rotate(-11 455.5 224)"/>
      <path fill="#B9EFE9" fill-rule="nonzero" d="M738.479192,168.462584 C743.239509,171.556188 747.532723,175.316085 751.22813,179.627809 C755.076546,184.599559 757.263532,190.708193 760.976321,195.798721 C764.68911,200.88925 769.453008,204.55443 773.521818,209.101969 C779.7098,215.991151 783.897283,224.373554 788,232.705052 C777.956565,245.784285 767.011915,258.144804 755.24608,269.696225 C753.933681,271.240985 752.202589,272.372499 750.261788,272.954164 C747.589104,273.24164 744.951264,272.163885 743.243091,270.086499 C741.412126,268.186035 740.12367,265.810455 738.377472,263.825149 C734.263569,259.578484 728.77989,256.92739 722.899041,256.342073 C717.067124,255.77348 711.198228,255.688348 705.352298,256.087546 C704.069144,256.239814 702.769234,256.021989 701.605602,255.459714 C700.739923,254.864603 700.039813,254.058762 699.571197,253.118071 C692.789847,241.443793 694.909019,226.783071 697.333352,213.445886 L702.877105,182.902716 C703.686202,177.071272 705.241735,171.368289 707.505377,165.934288 C709.607595,161.437655 714.286727,153.801862 720.084781,155.159336 C725.882835,156.51681 733.579667,164.933151 738.479192,168.462584 Z"/>
      <path fill="#FFC0C6" d="M371.8999,262.686294 C362.030677,255.193022 302.21322,233.905825 293.585318,227 C284.957417,220.094175 283.587785,201.534921 277.508839,197.426028 C271.429893,193.317136 254.739071,191.06275 246.72389,197.426028 C238.70871,203.789306 223.723395,220.63732 231.260657,233 C238.797919,245.36268 262.18245,239.80943 277.508839,247.919759 C292.835228,256.030088 352.075316,300.779176 364.657504,305.064079 C377.239692,309.348982 401.426433,299.369107 403.831195,295.46541 C406.235957,291.561712 381.769123,270.179567 371.8999,262.686294 Z"/>
      <g transform="scale(-1 1) rotate(-11 960.15 1894.096)">
        <path fill="#333" fill-rule="nonzero" d="M0,0 L190,0 L190,8.92144748 C190,41 122.915527,41 122.915527,41 L67.0844735,41 C67.0844735,41 0,41 0,8.92144748 L0,0 Z" transform="translate(152)"/>
        <rect width="168" height="20" y="5" fill="#555" fill-opacity="100" rx="6"/>
      </g>
      <path fill="#FFC0C6" d="M271.492188,202.957261 C274.659246,211.98387 266.634501,223.352952 257.451014,228 C248.267528,232.647048 232.361778,233.365448 229.201239,224.35742 C226.0407,215.349391 238.553539,201.560407 246.72389,197.426028 C254.894242,193.291649 268.325129,193.930651 271.492188,202.957261 Z"/>
    </g>
    <g transform="translate(841 100)">
      <path fill="#FBBE63" d="M47.0935846,34.0740604 C40.3280626,24.886933 66.3796725,0 86.0198544,0 C105.660036,0 125.603666,23.5 111.112443,34.0740604 C79.8603069,57.8698721 53.8591066,43.2611879 47.0935846,34.0740604 Z"/>
      <path fill="#FBBE63" d="M3.69446842,42.8031481 C-5.70044866,30.1435547 4.55073253,17 29.591671,17 C54.3818359,14.9902344 96,42.8031481 96,42.8031481 C96,42.8031481 29.591671,67.9960649 3.69446842,42.8031481 Z"/>
      <path fill="#000" fill-opacity=".1" d="M3.69446842,42.8031481 C-5.70044866,30.1435547 4.55073253,17 29.591671,17 C54.3818359,14.9902344 96,42.8031481 96,42.8031481 C96,42.8031481 29.591671,67.9960649 3.69446842,42.8031481 Z"/>
    </g>
    <g fill-rule="nonzero" transform="translate(185 463)">
      <path fill="#47465A" d="M822.214655,70.1278167 C822.214655,86.2455374 811.257067,99.3669856 797.631163,99.5659541 L14.6869541,110.99871 C10.8651717,111.054518 7.18363826,109.297901 4.46439293,106.121086 C1.7451476,102.944272 0.214654654,98.6118331 0.214654654,94.0911479 L0.214654654,45.4402108 C0.214654654,36.3850328 6.29560244,28.9671774 13.9477799,28.6878386 L799.453094,0.0124457214 C805.424457,-0.205542774 811.215654,2.44773176 815.504725,7.36660444 C819.793797,12.2854771 822.214655,19.050091 822.214655,26.1162828 L822.214655,70.1278167 Z"/>
      <path fill="#000" d="M822.214655,58 L822.214655,69.9757064 C822.214655,86.153411 811.257067,99.3236921 797.631163,99.523401 L14.6869541,110.998705 C10.8651717,111.054721 7.18363826,109.291566 4.46439293,106.102929 C1.7451476,102.914292 0.214654654,98.5657292 0.214654654,94.0282198 L0.214654654,92.4565229 L822.214655,58 Z" opacity=".1"/>
    </g>
    <path fill="#565987" d="M871.634074,440.509701 C901.200595,413.308153 922.557258,385.988555 926.401658,374.359328 C930.246058,362.730101 910.30631,350.098373 899.017866,357.67432 C887.729423,365.250266 856.806725,433.531907 854.5,440.509701 C852.193275,447.487495 842.067553,467.711249 871.634074,440.509701 Z"/>
    <g fill-rule="nonzero" transform="translate(730 424)">
      <path fill="#F5DD48" d="M0,0 L190,0 L190,8.92144748 C190,26.7117857 182.932192,43.773478 170.351413,56.3531468 C157.770633,68.9328157 140.707435,76 122.915527,76 L67.0844735,76 C30.0347418,76 0,45.9679091 0,8.92144748 L0,0 Z"/>
      <path fill="#000" d="M172.835641,0 C171.806038,41.2094943 138.056014,74.0828798 96.7716667,74.088254 L59,74.088254 C64.5100739,75.3447849 70.1429391,75.9859667 75.7948718,76 L113.852051,76 C134.044654,76.0088903 153.413269,68.0056994 167.694746,53.7519715 C181.976223,39.4982437 190,20.1622637 190,0 L172.835641,0 Z" opacity=".1"/>
    </g>
    <g transform="translate(445 416)">
      <ellipse cx="115.5" cy="74" fill="#FBBE63" rx="80.5" ry="14"/>
      <path fill="#AAA" d="M0.8828125,79 L233.882812,79 C218.642972,90.6666667 179.809638,96.5 117.382812,96.5 C54.9559866,96.5 16.1226533,90.6666667 0.8828125,79 Z"/>
      <ellipse cx="110.5" cy="64" fill="#FBBE63" rx="80.5" ry="13"/>
      <ellipse cx="122.5" cy="51" fill="#FBBE63" rx="80.5" ry="14"/>
      <ellipse cx="115.5" cy="41.5" fill="#FBBE63" rx="80.5" ry="13.5"/>
      <ellipse cx="120.5" cy="14" fill="#FBBE63" rx="80.5" ry="14"/>
      <ellipse cx="111.5" cy="30" fill="#FBBE63" rx="80.5" ry="13"/>
    </g>
    <path fill="#463E3B" fill-rule="nonzero" d="M438.262281,64.9882207 C441.365573,63.923465 444.621173,62.2312639 447.78158,63.2770061 C449.222269,63.8554268 450.521052,64.7374351 451.5893,65.8628414 C455.949139,69.9697563 460.251862,74.7421436 466.096711,76.0160477 C469.710494,76.5654432 473.396969,76.4039689 476.948712,75.5407103 C483.117217,74.4569411 489.45707,73.2971179 494.825955,70.1028508 C507.239121,62.7066013 511.199149,46.6592116 511.960693,32.2469825 C512.227233,27.3985413 511.218188,21.1240879 506.458538,20.1163727 C500.366187,18.8234551 495.911155,28.0640136 489.761688,27.0562983 C487.88425,26.6058218 486.193992,25.5823707 484.925884,24.1282201 C480.737393,19.9452513 477.900642,14.6214727 473.71215,10.3434363 C467.190908,4.26195426 458.745103,0.649978715 449.837749,0.133189571 C440.993104,-0.34996501 432.125681,0.483063216 423.526407,2.60494391 C418.788591,3.38338134 414.213786,4.94486059 409.989964,7.22522317 C405.729328,9.56715741 402.740396,13.6889558 401.841444,18.4621987 C401.422595,21.6944928 402.29837,25.0218544 401.651058,28.197108 C400.756244,32.5892254 397.176988,35.916587 393.331191,38.2362333 C389.485394,40.5558797 385.220748,42.0389323 381.603415,44.7578621 C375.827612,49.2419754 371.822576,55.6186885 370.294488,62.7636418 C368.805482,69.8697856 368.599165,77.1843859 369.685253,84.362972 C371.185751,96.8293143 374.642331,108.981973 379.928018,120.374531 C381.675607,124.36531 383.927791,128.11613 386.629604,131.535453 C390.588456,135.89462 395.145917,139.671492 400.166047,142.753415 C402.203177,144.122386 404.640118,145.548399 406.962827,144.787859 C407.662528,144.537012 408.308475,144.156406 408.866687,143.666063 C413.607297,139.711256 414.064224,132.543168 412.674406,126.553917 C411.284588,120.564666 408.657262,114.76555 408.371683,108.605178 C408.190131,106.876806 408.535181,105.133951 409.36169,103.604629 C410.354275,102.365835 411.477697,101.237519 412.712483,100.23924 C414.355083,98.3977765 415.645663,96.2711279 416.520203,93.9647869 C419.052336,88.2607384 421.622547,82.2714875 422.231782,75.9780207 C422.770583,70.8243888 421.643038,65.6338562 419.014259,61.1665082 C424.243588,65.8680161 431.629895,67.3345741 438.262281,64.9882207 L438.262281,64.9882207 Z"/>
  </g>
</svg>
