<svg xmlns="http://www.w3.org/2000/svg" width="1121" height="707" viewBox="0 0 1121 707">
  <g fill="none" fill-rule="evenodd">
    <polygon fill="#514E7F" fill-rule="nonzero" points="295.18 596.47 818.18 585.56 877.36 705.64 209.83 705.64 209.83 688.98"/>
    <polygon fill="#000" fill-rule="nonzero" points="295.35 596.91 818.35 586 877.53 706.08 210 706.08 210 689.42" opacity=".2"/>
    <path fill="#514E7F" fill-rule="nonzero" d="M835.42,681.26 L835.42,684.46 C835.42,687.906257 832.626257,690.7 829.18,690.7 L646.96,690.7 C643.51,690.7 646.96,683.81 646.96,683.81 L644.9,638.68 C644.740253,635.145126 647.089019,631.985576 650.52,631.12 C660.66,628.56 667.64,632.67 667.64,632.67 L780.52,629.8 C782.858515,629.683298 785.202836,629.793816 787.52,630.13 C795.79853,631.228384 803.270812,635.656136 808.21,642.39 L834.15,677.56 C834.958975,678.625327 835.404195,679.922423 835.42,681.26 Z"/>
    <path fill="#000" fill-rule="nonzero" d="M835.42,684.46 L835.42,684.46 C835.42,687.906257 832.626257,690.7 829.18,690.7 L646.96,690.7 C643.51,690.7 646.96,683.81 646.96,683.81 C646.96,683.81 657.02,678.93 671.96,679.81 L804.96,676.93 C804.96,676.93 820.67,677.29 829.86,678.29 C833.013907,678.631139 835.407844,681.287721 835.42,684.46 L835.42,684.46 Z" opacity=".1"/>
    <polygon fill="#F5DD48" fill-rule="nonzero" points="783.7 637.55 669.36 637.55 672.52 672.32 804.96 670.02"/>
    <path fill="#514E7F" fill-rule="nonzero" d="M581.79,661.97 L581.79,674.04 L462,678.9 C462,678.9 434.61,677.03 431.25,660.2 C430.982688,658.440436 431.016503,656.648228 431.35,654.9 C432.56,647.81 438.64,635.43 465.44,629.71 L498.44,626.32 L572.02,626.32 C572.02,626.32 581.52,635.83 581.79,661.97 Z"/>
    <path fill="#000" fill-rule="nonzero" d="M581.79,662.35 L581.79,674.04 L462,678.9 C462,678.9 434.61,677.03 431.25,660.2 C430.982688,658.440436 431.016503,656.648228 431.35,654.9 C431.35,654.9 447.91,670.56 470.35,668.26 L575.79,663.67 C577.811471,663.334 579.814159,662.893409 581.79,662.35 Z" opacity=".1"/>
    <ellipse cx="489.826" cy="643.886" fill="#000" fill-rule="nonzero" opacity=".1" rx="36.83" ry="6.32" transform="rotate(-2.95 489.826 643.886)"/>
    <path fill="#514E7F" fill-rule="nonzero" d="M501.52,640.9 L482.14,650.48 L461.52,645.6 L461.42,611.99 C462.73,587.46 451.42,538.36 445.83,516.11 C443.676667,507.51 441.793333,498.843333 440.18,490.11 L433.84,455.96 L423.52,367.22 L448.08,367.22 L462.52,387.9 L501.52,640.9 Z"/>
    <path fill="#514E7F" fill-rule="nonzero" d="M501.52,640.9 L482.14,650.48 L469.78,578.7 C470.02,566.47 454.69,508.41 453.69,506.02 C441.47,476.85 431,367.26 431,367.26 L448.09,367.26 L462.52,387.9 L501.52,640.9 Z"/>
    <path fill="#000" fill-rule="nonzero" d="M501.52,640.9 L482.14,650.48 L469.78,578.7 C470.02,566.47 454.69,508.41 453.69,506.02 C441.47,476.85 431,367.26 431,367.26 L448.09,367.26 L462.52,387.9 L501.52,640.9 Z" opacity=".15"/>
    <path fill="#514E7F" fill-rule="nonzero" d="M617.05,574.32 L551.05,643.87 L543.31,644.42 L533.88,645.1 C529.41001,645.422132 525.218141,642.90621 523.4,638.81 C503.4,593.81 439.46,376.22 426,330.13 C425.338394,327.871079 425.615897,325.440787 426.769703,323.389159 C427.923509,321.33753 429.856069,319.838019 432.13,319.23 L441.13,316.81 L441.8,316.89 L537.95,329.79 C543.556929,330.544953 548.228034,334.460896 549.95,339.85 L620.33,559.78 C621.970427,564.86214 620.713427,570.434328 617.05,574.32 L617.05,574.32 Z"/>
    <path fill="#000" fill-rule="nonzero" d="M617.05,574.32 L551.05,643.87 L543.31,644.42 L533.88,645.1 C529.41001,645.422132 525.218141,642.90621 523.4,638.81 C503.4,593.81 439.46,376.22 426,330.13 C425.338394,327.871079 425.615897,325.440787 426.769703,323.389159 C427.923509,321.33753 429.856069,319.838019 432.13,319.23 L441.13,316.81 L441.8,316.89 L537.95,329.79 C543.556929,330.544953 548.228034,334.460896 549.95,339.85 L620.33,559.78 C621.970427,564.86214 620.713427,570.434328 617.05,574.32 L617.05,574.32 Z" opacity=".1"/>
    <path fill="#514E7F" fill-rule="nonzero" d="M616.82,574.56 L551.05,643.9 L543.31,644.45 L444.61,328.45 C442.92995,324.821758 441.988348,320.895585 441.84,316.9 L539.6,330.02 C544.226486,330.641464 548.080859,333.872908 549.5,338.32 L620.27,559.47 C621.959159,564.752722 620.63691,570.536121 616.82,574.56 L616.82,574.56 Z"/>
    <path fill="#F5DD48" fill-rule="nonzero" d="M604.489251,571.971448 L544.59,626.4 L456.25,333.61 L531.416222,342.01 C537.42108,342.600034 542.857884,347.747712 544.59,353.527524 L609.555119,555.41 C614.094112,565.652503 605.531094,571.006112 604.489251,571.971448 Z"/>
    <path fill="#000" fill-rule="nonzero" d="M534,341 C540.004857,341.590034 545.057884,345.750188 546.79,351.53 L610.872532,554.593333 C612.078698,562.17727 612.078698,567.599381 607.147368,571.880519 L534,341 Z" opacity=".1"/>
    <circle cx="1000.27" cy="198.15" r="37.55" fill="#754860" fill-rule="nonzero"/>
    <path fill="#754860" fill-rule="nonzero" d="M962.33,192.58 C962.326364,172.709038 977.804425,156.275378 997.64,155.09 C996.9,155.09 996.16,155.02 995.41,155.02 C981.846832,154.798669 969.218151,161.90781 962.37187,173.618359 C955.525588,185.328907 955.525588,199.821093 962.37187,211.531641 C969.218151,223.24219 981.846832,230.351331 995.41,230.13 C996.16,230.13 996.9,230.13 997.64,230.06 C977.808277,228.874852 962.331655,212.447104 962.33,192.58 L962.33,192.58 Z"/>
    <path fill="#000" fill-rule="nonzero" d="M967.19,198.15 C967.192285,178.275625 982.680388,161.844996 1002.52,160.67 C1001.78,160.67 1001.03,160.6 1000.28,160.6 C979.777852,160.934565 963.332842,177.650123 963.332842,198.155 C963.332842,218.659877 979.777852,235.375435 1000.28,235.71 C1001.03,235.71 1001.78,235.71 1002.52,235.63 C982.678116,234.459868 967.187295,218.026357 967.19,198.15 L967.19,198.15 Z" opacity=".1"/>
    <path fill="#CF9595" fill-rule="nonzero" d="M807,619.18 C803.492436,621.032677 799.879612,622.678816 796.18,624.11 C786.52,627.91 771.8,632.27 758.09,630.6 C735.04,627.8 721.25,635.34 721.25,635.34 L716.08,596.99 C716.08,596.99 733.08,591.99 739.99,590.74 C745.17,589.74 763.86,581.13 772.83,576.9 C775.83,575.5 777.7,574.58 777.7,574.58 L794.94,574.58 L807,619.18 Z"/>
    <path fill="#000" fill-rule="nonzero" d="M807,619.18 C803.492436,621.032677 799.879612,622.678816 796.18,624.11 C795.01,589.96 781.91,579.82 772.83,576.9 C775.83,575.5 777.7,574.58 777.7,574.58 L794.94,574.58 L807,619.18 Z" opacity=".1"/>
    <path fill="#33CCAB" fill-rule="nonzero" d="M870.78,504.56 L870.78,588.56 L866.27,593.9 L851.82,611 C851.82,611 848.59,620 843.2,623.92 C837.81,627.84 825.52,622.63 825.52,622.63 L822.07,628.23 C822.07,628.23 814.32,629.74 810.66,628.23 C807,626.72 797.94,632.54 797.94,632.54 C799.24,570.92 765.84,575.88 765.84,575.88 C788.89,551.1 803.11,559.07 803.11,559.07 L813.03,549.59 L825.31,537.15 C822.51,527.52 832.63,525.46 835,524.38 C837.37,523.3 843.62,512.96 843.41,511.67 C843.2,510.38 845.34,501.97 848.79,502.3 C850.71,502.48 853.34,499.11 855.32,496.08 C856.9,493.64 858.06,491.42 858.06,491.42 L870.78,504.56 Z"/>
    <path fill="#FF6584" fill-rule="nonzero" d="M900.61,420.59 L926.01,407.59 L924.57,422.82 L929.57,438.12 C929.57,438.12 924.98,449.97 924.41,451.26 C923.84,452.55 912.92,479.56 912.92,479.56 L904.16,468.5 L900.61,420.59 Z"/>
    <polyline fill="#000" fill-rule="nonzero" points="904.17 468.5 900.61 420.59 926.01 407.6" opacity=".1"/>
    <path fill="#CF9595" fill-rule="nonzero" d="M1009.75,406.31 C1009.75,406.31 1001.31,418.45 989.75,433.92 C962.85,469.92 919.09,523.92 925.75,484.74 C925.97,483.46 926.14,482.18 926.29,480.89 C924.65,481.99 920.89,481.03 916.79,479.08 L916.51,478.95 C914.48783,477.959145 912.536519,476.829791 910.67,475.57 C910.46,475.44 910.26,475.3 910.06,475.16 C905.51,471.99 901.87,468.28 902.06,465.72 C905.29,409.48 918.38,436.3 922.06,442.54 C922.268032,442.976946 922.552507,443.37318 922.9,443.71 C922.74,443.27 922.56,442.81 922.36,442.33 C919.78,436 914.85,426.54 909.22,416.43 L909.22,416.33 L908.47,414.99 C903.79,406.64 898.72,397.91 894.16,390.25 L892.93,388.19 C885.73,376.11 880.13,367.1 880.13,367.1 C880.13,367.1 912.84,337.18 940.41,319 C963.41,303.81 982.89,296.8 976.66,322.28 C972.66,338.66 973.83,352.67 977.52,364.28 C977.65,364.71 977.79,365.14 977.94,365.56 C978.680745,367.772605 979.535216,369.945496 980.5,372.07 C981.807466,374.997467 983.303958,377.836794 984.98,380.57 C991.254871,390.858247 999.710257,399.644748 1009.75,406.31 Z"/>
    <path fill="#000" fill-rule="nonzero" d="M958.9,360.9 C943.39,377.75 940.09,393.900019 915.38,393.900019 C908.19107,393.904775 901.030575,392.997532 894.07,391.2 C886.28,378.1 880.07,368.05 880.07,368.05 C880.07,368.05 990.29,267.26 976.6,323.23 C972.42,340.14 954.89,349 958.9,360.9 Z" opacity=".15"/>
    <path fill="#CF9595" fill-rule="nonzero" d="M1000.27086,306.34 C1000.27086,340.679755 979.583697,371.638008 947.857513,384.778329 C916.13133,397.918649 879.613542,390.653133 855.333099,366.369829 C831.052655,342.086526 823.79144,305.567882 836.935498,273.843247 C850.079556,242.118612 881.040246,221.435955 915.38,221.439185 C937.926145,221.341071 959.577296,230.254417 975.519043,246.198041 C991.46079,262.141666 1000.37158,283.793866 1000.27086,306.34 Z"/>
    <path fill="#000" fill-rule="nonzero" d="M913.44,453.28 C913.44,453.28 914.95,477.41 930.25,475.47 C945.55,473.53 933.91,526.75 933.91,526.75 L916.91,542.26 L898.57,547.9 C898.57,547.9 882.41,543.16 882.63,542.29 C882.85,541.42 889.09,491.02 889.09,491.02 L898.57,464.08 L913.44,453.28 Z" opacity=".1"/>
    <path fill="#FFBCA3" fill-rule="nonzero" d="M913.44,455 C913.44,455 914.95,479.13 930.25,477.2 C945.55,475.27 933.91,528.48 933.91,528.48 L916.91,543.99 L898.59,549.59 C898.59,549.59 882.43,544.85 882.65,543.99 C882.87,543.13 889.11,492.71 889.11,492.71 L898.59,465.78 L913.44,455 Z"/>
    <path fill="#000" fill-rule="nonzero" d="M870.78 504.56L870.78 588.56 866.27 593.9C861.62 581.56 858.08 564.83 860.27 549.79 863.12 529.85 857.44 504.33 855.38 496.06 856.96 493.62 858.12 491.4 858.12 491.4L870.78 504.56zM915.38 457.59C914.833971 462.32237 913.604508 466.950537 911.73 471.33 911.17 472.66 910.6 473.95 910.03 475.16 905.48 471.99 901.84 468.28 902.03 465.72 905.26 409.48 918.35 436.3 922.03 442.54 920.23 443.9 916.21 447.9 915.38 457.59zM922.31 442.33C919.61 435.7 914.31 425.63 908.38 414.99L909.13 414.61 922.85 441.99C922.65812 442.083266 922.477039 442.19728 922.31 442.33zM1009.75 406.31C1009.75 406.31 916.24 540.76 925.75 484.74 925.97 483.46 926.14 482.18 926.29 480.89 924.61 482.01 920.72 480.99 916.51 478.95 917.15 475.21 917.51 472.65 917.51 472.65L927.86 443.37C927.86 443.37 933.86 420.1 933.03 415.37L933.31 415.18 984.77 380.63 984.82 380.63 984.82 380.63C991.147894 390.913344 999.658679 399.68017 1009.75 406.31z" opacity=".1"/>
    <path fill="#33CCAB" fill-rule="nonzero" d="M1106.71,508.01 L1099.38,545.9 L1077.38,705.77 L886.52,705.77 C886.52,705.77 889.96,677.77 889.96,673.45 C889.96,669.13 886.09,662.68 886.52,657.94 C886.95,653.2 888.6,656.64 886.52,648.46 C884.44,640.28 883.52,617.86 876.65,610.11 C869.78,602.36 858.52,573.9 861.95,549.81 C865.38,525.72 856.34,493.36 856.34,493.36 C856.34,493.36 848.59,482.15 856.34,481.72 C864.09,481.29 867.12,482.11 866.69,474.38 C866.26,466.65 870.13,451.99 874.87,448.97 C879.61,445.95 886.51,434.75 887.8,430.44 C888.230215,429.355704 888.916405,428.391606 889.8,427.63 C893.68,423.91 901.57,420.1 901.57,420.1 L909.11,416.33 L909.11,416.43 L922.79,443.71 C922.79,443.71 916.39,446.82 915.32,459.31 C914.775362,464.042634 913.545847,468.670999 911.67,473.05 C911.31,473.91 910.95,474.76 910.58,475.57 C909.48,478.01 908.36,480.17 907.41,481.89 L907.41,481.89 C906,484.44 904.99,486.01 904.99,486.01 C904.99,486.01 904.62,488.93 904.06,493.01 L904.06,493.01 C902.91,501.39 900.97,514.67 899.82,517.85 C898.82,520.67 896.82,525.52 895.71,529.85 C895.01,532.56 894.61,535.07 894.98,536.71 C894.98,536.84 895.04,536.97 895.08,537.09 C896.37,541.09 902.83,523.89 902.83,523.89 C902.83,523.89 907.57,509.24 909.73,509.24 C911.38,509.24 915.09,488.56 916.73,479.02 C917.21,476.17 917.5,474.32 917.5,474.32 L927.85,445.03 C927.85,445.03 929.28,439.5 930.65,433.28 C932.09,426.74 933.46,419.45 933.02,417.02 L933.3,416.83 L984.76,382.28 L984.81,382.28 L985.6,381.75 L985.52,381.75 C985.16,381.75 984.12,381.11 982.13,376.43 C981.62,375.24 981.05,373.8 980.42,372.02 C980.42,372.02 996.88,365.41 1002.75,370.25 C1003.13117,370.554935 1003.46777,370.911731 1003.75,371.31 C1003.91648,371.531851 1004.06052,371.769684 1004.18,372.02 C1008.06,380.02 1009.78,386.02 1013.66,391.2 C1014.08028,391.751079 1014.53449,392.275429 1015.02,392.77 C1019.71,397.68 1029.02,403.43 1027.45,404.99 C1025.73,406.71 1040.38,413.99 1040.38,413.99 C1040.38,413.99 1048.95,418.89 1051.64,422.99 C1052.11118,423.624387 1052.38899,424.381422 1052.44,425.17 C1052.44,429.48 1064.94,432.06 1068.82,432.06 C1072.7,432.06 1091.23,472.14 1100.27,476.88 C1109.31,481.62 1106.71,508.01 1106.71,508.01 Z"/>
    <path fill="#000" fill-rule="nonzero" d="M28.37 75.71C28.37 75.71 21.97 78.82 20.9 91.31 20.3566637 96.0439942 19.1236044 100.67302 17.24 105.05 15.989124 108.073541 14.5702448 111.024809 12.99 113.89L12.99 113.89C11.58 116.44 10.57 118.01 10.57 118.01 10.57 118.01 10.2 120.93 9.64 125.01L9.64 125.01C8.52 133.46 6.52 146.74 5.39 149.9 4.39 152.72 2.39 157.57 1.28 161.9.58 164.61.18 167.12.55 168.76.55 168.89.61 169.02.65 169.14 1.94 173.14 8.4 155.94 8.4 155.94 8.4 155.94 13.14 141.29 15.3 141.29 15.91 141.29 16.81 138.43 17.78 134.35 18.27 131.08 18.78 127.81 19.11 125.07L19.11 125.07C19.67 120.97 20.04 118.07 20.04 118.07 20.04 118.07 20.61 117.19 21.49 115.67 22.41 110.4 23.05 106.42 23.05 106.42L33.4 77.13C33.4 77.13 34.15 74.21 35.09 70.24L24.09 48.37 16.55 52.14 16.55 52.14 28.37 75.71zM215.24 108.98C206.24 104.24 187.67 64.16 183.79 64.16 179.91 64.16 167.41 61.58 167.41 57.27 167.41 52.96 155.35 46.06 155.35 46.06 155.35 46.06 140.7 38.74 142.42 37.06 143.97 35.5 134.68 29.75 129.99 24.84 129.506824 24.3432813 129.052735 23.8190754 128.63 23.27 124.75 18.09 123.03 12.06 119.15 4.09 119.028314 3.83771675 118.884413 3.59676594 118.72 3.37 118.432393 2.97616599 118.096427 2.62004175 117.72 2.31 115.08.14 110.32.31 105.86 1.09 106.723006 1.34335226 107.530462 1.75725844 108.24 2.31 108.616427 2.62004175 108.952393 2.97616599 109.24 3.37 109.404413 3.59676594 109.548314 3.83771675 109.67 4.09 113.55 12.09 115.27 18.09 119.15 23.27 119.577176 23.8056575 120.034587 24.3164888 120.52 24.8 125.21 29.71 134.52 35.46 132.95 37.02 131.23 38.74 145.88 46.02 145.88 46.02 145.88 46.02 157.94 52.92 157.94 57.23 157.94 61.54 170.44 64.12 174.32 64.12 178.2 64.12 196.73 104.2 205.77 108.94 214.81 113.68 212.24 139.94 212.24 139.94L204.9 177.9 182.9 337.77 192.38 337.77 214.38 177.9 221.71 139.98C221.71 139.98 224.29 113.72 215.24 108.98z" opacity=".1" transform="translate(885 368)"/>
    <circle cx="77.149" cy="77.149" r="77.149" fill="#535461" fill-rule="nonzero"/>
    <circle cx="77.149" cy="77.149" r="65.472" fill="#EDEDF4" fill-rule="nonzero"/>
    <circle cx="77.149" cy="77.149" r="4.671" fill="#535461" fill-rule="nonzero"/>
    <path stroke="#535461" stroke-linecap="round" d="M105.214,28.0446667 L77.1486667,77.1486667"/>
    <path stroke="#535461" stroke-linecap="round" stroke-width="2" d="M78.492,77.6653333 L106.371333,92.3386667"/>
    <path fill="#CF9595" fill-rule="nonzero" d="M723.92 597.77C723.92 597.77 669.11 581.91 665.23 606.26 661.35 630.61 687.64 644.61 704.44 644.18 721.24 643.75 728.57 627.8 728.57 627.8L723.92 597.77zM998.76 672.62C998.76 672.62 986.48 681.45 960.41 681.45 934.34 681.45 903.96 687.05 903.96 687.05 903.96 687.05 865.18 595.7 787.4 673.9 787.4 673.9 773.4 692 846 693.9 846 693.9 871.64 693.04 877.24 705.75L1022.24 705.75 1042.07 690.9 998.76 672.62z"/>
    <path fill="#514E7F" fill-rule="nonzero" d="M707.03,558.42 C707.03,558.42 703.37,549.81 699.03,558.42 L696.68,625.22 L701.84,640.95 L707,626.95 L707.03,558.42 Z"/>
    <path fill="#000" fill-rule="nonzero" d="M1003.72,371.34 C996.2,373.9 987.95,379.9 985.52,381.78 C985.07,381.78 983.52,380.78 980.419996,372.05 C980.41,372.05 999.02,364.58 1003.72,371.34 Z" opacity=".1"/>
    <path fill="#33CCAB" fill-rule="nonzero" d="M922.85,443.71 C922.85,443.71 916.45,446.82 915.38,459.31 C914.835362,464.042634 913.605847,468.670999 911.73,473.05 L907.52,481.9 L907.52,481.9 L904.17,493.04 L904.17,493.04 L904.52,515.72 L895.76,529.9 L895.03,536.76 L892.76,557.98 L881.12,552.38 C881.12,552.38 885.92,518.16 889.52,511.23 C893.12,504.3 897.93,467.6 897.93,467.6 C897.93,467.6 897.71,454.13 899.44,451.76 C901.17,449.39 896.44,449.82 895.99,444.87 C895.73,441.93 892.45,433.77 889.82,427.62 C893.7,423.9 901.59,420.09 901.59,420.09 L909.13,416.32 L922.85,443.71 Z"/>
    <path fill="#000" fill-rule="nonzero" d="M922.85 443.71C922.85 443.71 916.45 446.82 915.38 459.31 914.835362 464.042634 913.605847 468.670999 911.73 473.05L907.52 481.9 907.52 481.9 904.17 493.04 904.17 493.04 904.52 515.72 895.76 529.9 895.03 536.76 892.76 557.98 881.12 552.38C881.12 552.38 885.92 518.16 889.52 511.23 893.12 504.3 897.93 467.6 897.93 467.6 897.93 467.6 897.71 454.13 899.44 451.76 901.17 449.39 896.44 449.82 895.99 444.87 895.73 441.93 892.45 433.77 889.82 427.62 893.7 423.9 901.59 420.09 901.59 420.09L909.13 416.32 922.85 443.71zM1014.99 394.53C1005.38 402.39 979.54 424.69 976.57 439.85 972.91 458.54 961.92 456.73 961.92 456.73 948.19 426.95 938.74 419.65 933.33 418.62L984.79 384.06C984.79 384.06 984.79 384.06 984.84 384.06L985.63 383.53 985.52 383.53C985.16 383.53 984.12 382.9 982.13 378.22L1002.75 372.03C1003.13117 372.334935 1003.46777 372.691731 1003.75 373.09 1003.9143 373.313315 1004.05821 373.550936 1004.18 373.8 1008.06 381.8 1009.78 387.8 1013.66 392.98 1014.07379 393.521301 1014.51783 394.038792 1014.99 394.53L1014.99 394.53z" opacity=".1"/>
    <path fill="#33CCAB" fill-rule="nonzero" d="M1014.99,392.8 C1005.38,400.66 979.54,422.97 976.57,438.13 C972.91,456.81 961.92,455 961.92,455 C948.19,425.23 938.74,417.9 933.33,416.9 L984.79,382.35 L984.84,382.35 L985.63,381.82 L985.52,381.82 C985.16,381.82 984.12,381.18 982.13,376.5 L1002.75,370.32 C1003.13117,370.624935 1003.46777,370.981731 1003.75,371.38 C1003.91648,371.601851 1004.06052,371.839684 1004.18,372.09 C1008.06,380.09 1009.78,386.09 1013.66,391.27 C1014.0719,391.806494 1014.51606,392.317438 1014.99,392.8 Z"/>
    <path fill="#000" fill-rule="nonzero" d="M956.75 543.77C957.39 543.56 990.97 524.55 987.11 539.01 983.25 553.47 956.75 543.77 956.75 543.77zM811.52 561.98C811.52 561.98 829.18 589.45 835.43 588.59 841.68 587.73 811.52 561.98 811.52 561.98zM833.52 551.75C833.52 551.75 834.6 573.08 843.87 574.58 853.14 576.08 833.52 551.75 833.52 551.75zM931.52 620.26C931.52 620.26 953.46 656.76 949.19 669.39L931.52 620.26zM956.96 624.57C956.96 624.57 986.64 663.57 981.5 666.8 976.36 670.03 956.96 624.57 956.96 624.57zM890.23 561.98C890.23 561.98 887.18 589.71 898.63 597.77L890.23 561.98z" opacity=".1"/>
    <path fill="#000" fill-rule="nonzero" d="M1023.33,438.63 C1023.33,438.63 972.52,478.06 980.66,519 C988.8,559.94 996.66,562.95 996.66,562.95 C996.66,562.95 999.66,579.32 1005.28,586.22 C1010.9,593.12 1010.02,597.64 1010.02,597.64 C1010.02,597.64 1015.19,595.27 1016.91,607.12 C1018.63,618.97 1027.68,627.37 1027.68,627.37 C1027.68,627.37 1030.68,636.85 1022.94,642.02 C1015.2,647.19 1016.94,652.8 1016.94,652.8 L985.48,671.11 L1020.52,705.8 L1111.02,705.8 C1111.02,705.8 1108.43,701.28 1114.02,694.8 C1119.61,688.32 1116.83,662.7 1116.83,662.7 C1116.83,662.7 1113.7,658.6 1117.53,649.55 C1121.36,640.5 1114.24,614.65 1114.24,614.65 L1106.24,589.44 C1106.24,589.44 1099.56,571.56 1100.64,561.97 C1101.72,552.38 1098.44,541.9 1098.44,541.9 L1081.07,487.1 C1081.07,487.1 1081.93,432.38 1023.33,438.63 Z" opacity=".1"/>
    <path fill="#33CCAB" fill-rule="nonzero" d="M1025.05,438.63 C1025.05,438.63 974.2,478.06 982.39,519 C990.58,559.94 998.33,562.95 998.33,562.95 C998.33,562.95 1001.33,579.32 1006.95,586.22 C1012.57,593.12 1011.69,597.64 1011.69,597.64 C1011.69,597.64 1016.86,595.27 1018.59,607.12 C1020.32,618.97 1029.36,627.37 1029.36,627.37 C1029.36,627.37 1032.36,636.85 1024.62,642.02 C1016.88,647.19 1018.62,652.8 1018.62,652.8 L987.16,671.11 L1022.28,705.8 L1112.77,705.8 C1112.77,705.8 1110.19,701.28 1115.77,694.8 C1121.35,688.32 1118.57,662.7 1118.57,662.7 C1118.57,662.7 1115.44,658.6 1119.27,649.55 C1123.1,640.5 1115.98,614.65 1115.98,614.65 L1107.98,589.44 C1107.98,589.44 1101.3,571.56 1102.38,561.97 C1103.46,552.38 1100.16,541.9 1100.16,541.9 L1082.79,487.1 C1082.79,487.1 1083.65,432.38 1025.05,438.63 Z"/>
    <path fill="#000" fill-rule="nonzero" d="M1042.07 466.42C1042.07 466.42 1078.27 478.7 1087.96 484.74 1097.65 490.78 1073.74 460.82 1042.07 466.42zM1061.03 652.8C1061.03 652.8 1112.52 659.26 1109.52 669.39 1106.52 679.52 1061.03 652.8 1061.03 652.8zM1050.94 663.78C1050.94 663.78 1088.61 675.85 1081.94 685.78 1075.27 695.71 1050.94 663.78 1050.94 663.78zM1051.61 419.09C1031.06 423.09 1010.41 426.51 989.75 429.92L984.37 430.81C973.01 432.68 961.58 434.56 950.06 434.501399 944.45 434.501399 938.67 433.92 933.69 431.32 932.625583 430.75542 931.620542 430.085393 930.69 429.32 927.2 426.52 924.69 422.45 924.75 418.03 924.81 409.97 932.46 404.38 939.04 399.72 948.67 392.89 958.18 384.22 961.9 373.33 962.608323 371.288208 963.094465 369.176005 963.35 367.03 964.45 357.78 961.08 348.65 957.49 340.03 953.57 330.68 948.19 320.63 940.33 314.95 937.14931 312.611362 933.432343 311.108759 929.52 310.58 917.44 308.98 906.01 317.58 893.84 317.1 883.95 316.67 875.55 310.32 869.6 302.85 865.27 297.41 862.53 290.13 856.01 286.9 848.95 283.39 840.92 282.56 833.07 281.39 841.815909 247.018959 871.005558 221.705997 906.26847 217.913046 941.531381 214.120095 975.436478 232.646457 991.291799 264.371339 1007.14712 296.096222 1001.61142 334.334131 977.41 360.26 977.54 360.69 977.68 361.12 977.83 361.54 978.570745 363.752605 979.425216 365.925496 980.39 368.05 980.39 368.05 996.85 361.44 1002.72 366.28 1003.10117 366.584935 1003.43777 366.941731 1003.72 367.34 1003.88648 367.561851 1004.03052 367.799684 1004.15 368.05 1008.03 376.05 1009.75 382.05 1013.63 387.23 1014.05028 387.781079 1014.50449 388.305429 1014.99 388.8 1019.68 393.71 1028.99 399.46 1027.42 401.02 1025.7 402.74 1040.35 410.02 1040.35 410.02 1040.35 410.02 1048.92 414.97 1051.61 419.09z" opacity=".1"/>
    <path fill="#754860" fill-rule="nonzero" d="M808.67,261.986959 C801.01,251.624048 801.84,236.981715 804.67,224.227362 C806.45,216.18247 808.98,208.095622 813.94,201.686979 C818.9,195.278337 826.71,190.78914 834.52,191.90095 C839.09,192.551255 843.22,194.99514 847.52,196.778232 C866.82,204.791658 890.76,198.131284 903.74,181.128976 C906.68,177.279595 909.11,172.958219 912.59,169.591321 C916.487354,166.065995 921.150647,163.598772 926.17,162.406509 C947.89,156.658659 970.29,167.97605 988.87,181.09751 C1004.73,192.299524 1019.81,205.379029 1030.22,222.192539 C1039.6797,237.554808 1044.87372,255.376689 1045.22,273.660968 C1045.75,302.609993 1034.11,331.810749 1040.77,359.899694 C1047.34,387.64251 1073.17,408.99766 1100.42,409.196947 C1063,418.825644 1024.94,425.423085 986.93,431.999549 C975.56,433.971439 964.14,435.943329 952.62,435.871896 C947.01,435.871896 941.22,435.261558 936.25,432.534476 C931.28,429.807394 927.25,424.510562 927.25,418.626358 C927.31,410.161914 934.97,404.309177 941.54,399.421407 C952.96,390.925497 964.21,379.712994 965.86,365.133594 C966.96,355.431475 963.59,345.844733 959.99,336.813896 C954.5,323.073598 946.13,307.854382 932.05,305.882492 C919.98,304.193799 908.54,313.224636 896.37,312.710686 C886.49,312.259668 878.08,305.599295 872.13,297.764178 C867.8,292.058284 865.06,284.422454 858.55,281.034579 C842.46,272.685512 821.23,278.96829 808.67,261.986959 Z"/>
    <path fill="#754860" fill-rule="nonzero" d="M1028.75,219.75 C1045.07219,208.421462 1049.74468,186.338914 1039.41,169.37 C1039.87,169.95 1040.31,170.55 1040.74,171.16 C1048.63913,182.177667 1049.9881,196.597051 1044.26961,208.888679 C1038.55111,221.180307 1026.65266,229.436531 1013.13701,230.491297 C999.621366,231.546063 986.586133,225.235671 979.03,213.98 C978.61,213.36 978.2,212.73 977.82,212.1 C990.098159,227.72436 1012.42347,231.077758 1028.75,219.75 Z"/>
    <path fill="#000" fill-rule="nonzero" d="M107.76 13.37C110.7 9.69 113.13 5.57 116.61 2.37 117.181044 1.84960627 117.778502 1.35895689 118.4.9 115.536635 2.08694408 112.893142 3.74673287 110.58 5.81 107.1 8.99 104.67 13.11 101.73 16.81 98.7449431 20.510724 95.206632 23.728597 91.24 26.35 97.6471957 23.311797 103.292157 18.8764702 107.76 13.37L107.76 13.37zM190.99 248.61C179.63 250.48 168.2 252.36 156.68 252.29 151.07 252.29 145.29 251.72 140.31 249.12 135.33 246.52 131.31 241.47 131.36 235.85 131.42 227.79 139.07 222.21 145.65 217.54 157.07 209.44 168.31 198.75 169.96 184.85 171.06 175.61 167.69 166.46 164.09 157.85 158.6 144.75 150.24 130.23 136.15 128.36 124.08 126.75 112.65 135.36 100.48 134.86 90.6 134.44 82.19 128.09 76.24 120.62 71.9 115.18 69.16 107.9 62.65 104.67 46.49 96.67 25.26 102.67 12.65 86.45 4.99 76.57 5.83 62.6 8.65 50.45 10.43 42.78 12.96 35.07 17.91 28.95 19.2985464 27.2467229 20.8827825 25.7128334 22.63 24.38 18.427916 26.0948849 14.7293152 28.847332 11.88 32.38 6.88 38.49 4.39 46.21 2.61 53.87-.22 66.05-1.05 80.02 6.61 89.87 19.17 106.06 40.4 100.07 56.61 108.09 63.12 111.33 65.86 118.61 70.19 124.09 76.19 131.55 84.55 137.91 94.43 138.33 106.6 138.85 118.04 130.21 130.11 131.82 144.19 133.7 152.56 148.21 158.05 161.32 161.65 169.9 165.05 179.04 163.92 188.32 162.27 202.22 151.02 212.91 139.6 221.01 133.03 225.67 125.37 231.26 125.31 239.32 125.31 244.93 129.31 249.99 134.31 252.59 139.31 255.19 145.07 255.73 150.68 255.761896 162.2 255.83 173.68 253.95 184.99 252.07 222.99 245.8 261.06 239.52 298.48 230.33 296.266198 230.307217 294.055678 230.153615 291.86 229.87 258.52 237.46 224.73 243.04 190.99 248.61z" opacity=".1" transform="translate(802 176)"/>
    <ellipse cx="710.72" cy="609.48" fill="#CF9595" fill-rule="nonzero" rx="16.4" ry="8.96"/>
    <g transform="translate(167 301)">
      <ellipse cx="140" cy="257.5" fill="#FFBCA3" fill-rule="nonzero" rx="48" ry="17.5"/>
      <ellipse cx="140" cy="257.5" fill="#000" fill-rule="nonzero" opacity=".5" rx="48" ry="17.5"/>
      <path fill="#FFBCA3" fill-rule="nonzero" d="M92,257.5 C93.6073541,274.121948 184,274.121948 188,257.934209 C195.011047,317.523328 172.499273,369.72 172.499273,369.64 L113.179441,370.0008 C113.179441,370.0008 80.4513808,318.9 92,257.5 Z"/>
      <path fill="#33CCAB" fill-rule="nonzero" d="M181.94878,67.2462994 C195.456369,116.548891 137.830895,257 137.830895,257 C137.830895,257 16.5141077,165.45281 3.06569799,116.091155 C-9.85498237,67.0082392 19.2376034,16.6954795 68.2835857,3.30324644 C117.329568,-10.0889867 168.03367,18.4349171 181.94878,67.2462994 Z"/>
      <path fill="#000" fill-rule="nonzero" d="M181.94878,67.2462994 C195.456369,116.548891 137.830895,257 137.830895,257 C137.830895,257 16.5141077,165.45281 3.06569799,116.091155 C-9.85498237,67.0082392 19.2376034,16.6954795 68.2835857,3.30324644 C117.329568,-10.0889867 168.03367,18.4349171 181.94878,67.2462994 Z" opacity=".1"/>
      <path stroke="#535461" d="M68,3 C68,3 143.355558,116.432316 137.696503,257"/>
      <path fill="#33CCAB" fill-rule="nonzero" d="M201.107815,157.560607 C201.107815,157.560607 133.089415,120.62136 141.764481,257 C141.764481,257 198.505295,254.973921 218.634389,208.755818 C226.77762,190.152375 219.703776,168.407279 202.166467,158.133194 L201.107815,157.560607 Z"/>
      <path stroke="#535461" d="M202,157 C202,157 193.107872,228.363031 141,257"/>
      <path fill="#000" fill-rule="nonzero" d="M165.90298,366.068101 L111,366.068101 C112.116351,368.580969 113.792037,370 113.792037,370 L172.499273,369.64 C180.019113,346.48423 190.828924,309.6 188,258 C186.441424,260.716061 183.664627,263.174006 181.5,264.180015 C181.5,290.32 173.949346,337.116642 165.90298,366.068101 Z" opacity=".05"/>
    </g>
    <g transform="translate(244 193)">
      <path stroke="#535461" stroke-width="2" d="M67.3870148,377 C67.3870148,377 38.7385837,280.207997 72.7700652,208.978334 C87.2615378,179.179334 91.6405618,145.505499 85.2489548,113.018121 C82.0953511,97.6285486 77.5291635,82.5593388 71.6078157,68"/>
      <path fill="#F5DD48" fill-rule="nonzero" d="M92.1009184 22.3388087C92.1009184 34.3110881 70.60096 69 70.60096 69 70.60096 69 49.1213038 34.3110881 49.1213038 22.3388087 48.8804525 14.4407101 52.9228938 7.03640748 59.6709705 3.0156032 66.4190472-1.00520107 74.803175-1.00520107 81.5512517 3.0156032 88.2993284 7.03640748 92.3417697 14.4407101 92.1009184 22.3388087L92.1009184 22.3388087zM127.991916 88.3155688C121.583977 98.4541124 85.1111111 116 85.1111111 116 85.1111111 116 85.776086 74.6181895 92.1840259 64.5003368 98.7313133 54.7215991 111.670073 52.0717147 121.370017 58.5229861 131.069961 64.9742575 134.005587 78.1819317 127.991916 88.3155688L127.991916 88.3155688zM125.895045 200.115171C115.346213 205.435646 75.1111111 201.767743 75.1111111 201.767743 75.1111111 201.767743 96.0673145 167.325723 106.616146 162.0254 117.099346 157.120238 129.593288 161.420441 134.811241 171.729673 140.029195 182.038905 136.078208 194.617219 125.895045 200.115171zM105.293396 285.732161C95.7174018 292.858041 55.1111111 296 55.1111111 296 55.1111111 296 70.0659618 257.80364 79.5604583 250.657224 89.1307197 244.222889 102.026349 246.488027 108.872964 255.806014 115.719578 265.124001 114.108943 278.217318 105.211898 285.567876L105.293396 285.732161zM39.3579415 117.28516C47.986821 125.49136 88.1111111 134 88.1111111 134 88.1111111 134 78.2906243 94.8642892 69.6206549 86.6580892 60.9480601 78.8064805 47.479019 79.1699763 39.259212 87.4774686 31.039405 95.7849609 31.0649752 109.008345 39.3168516 117.28516L39.3579415 117.28516zM17.4723006 216.136466C27.9951744 221.42741 68.1111111 217.765996 68.1111111 217.765996 68.1111111 217.765996 47.2064748 183.384914 36.6836009 178.093969 26.2014364 173.084696 13.6298387 177.36369 8.39941137 187.721059 3.16898405 198.078427 7.20165089 210.708347 17.4723006 216.136466L17.4723006 216.136466zM7.92882609 317.727856C17.5048204 324.877268 58.1111111 328 58.1111111 328 58.1111111 328 43.1562604 289.787625 33.661764 282.658757 24.0915025 276.221724 11.195873 278.487813 4.34925844 287.809706-2.49735609 297.1316-.886721204 310.230407 8.01032391 317.584046L7.92882609 317.727856z"/>
    </g>
  </g>
</svg>
