<svg xmlns="http://www.w3.org/2000/svg" width="48" height="48" viewBox="0 0 48 48">
  <path fill="#29A389" d="M34.1225601,5.69480994 C35.5842461,4.23312388 37.7147,3.66227049 39.7114003,4.19728472 C41.7081006,4.73229895 43.267701,6.29189942 43.8027153,8.28859971 C44.3377295,10.2853 43.7668761,12.4157539 42.3051901,13.8774399 L14.7141653,41.4684646 C14.572724,41.609906 14.3955015,41.7102477 14.2014456,41.7587616 L5.37231767,43.9660436 C4.56403257,44.1681149 3.83188511,43.4359674 4.03395638,42.6276823 L6.24123836,33.7985544 C6.28975234,33.6044985 6.39009403,33.427276 6.53153536,33.2858347 L34.1225601,5.69480994 Z M13.3695374,39.6915245 L40.744406,12.3166559 C41.6484776,11.4125842 42.0015578,10.0948711 41.6706446,8.85988633 C41.3397314,7.62490151 40.3750985,6.66026857 39.1401137,6.32935539 C37.9051289,5.9984422 36.5874158,6.35152237 35.6833441,7.255594 L8.30847549,34.6304626 L6.62145487,41.3785451 L13.3695374,39.6915245 Z"/>
</svg>
