<svg xmlns="http://www.w3.org/2000/svg" width="1440" height="960" viewBox="0 0 1440 960">
  <path fill="#FFEEE8" d="M1667.9898,610.00545 C1649.47175,660.139123 1610.72855,705.42233 1569.14018,748.307761 C1532.58099,786.013261 1493.47469,822.449709 1451.82128,857.617104 C1440.27798,867.379046 1428.55043,877.018964 1416.63862,886.536857 L1408.36321,893.107864 C1401.02536,898.952827 1393.56286,904.742878 1385.97572,910.478019 L1385.06526,911.173558 C1377.70574,916.811079 1370.28118,922.393689 1362.79158,927.921389 C1338.29053,946.041993 1312.39128,964.034472 1283.76066,978.933636 C1274.00576,984.022048 1263.94196,988.762691 1253.52047,993.009136 C1247.88431,995.315395 1242.12892,997.475224 1236.25431,999.488625 C1226.62947,1002.78328 1216.74451,1005.65695 1206.42058,1008.01812 C1204.69721,1008.4208 1202.95759,1008.80518 1201.21797,1009.17125 C1190.65016,1011.4043 1179.95229,1013.03332 1169.14061,1014.14984 C1129.51947,1018.23155 1088.59768,1015.24806 1048.9115,1008.25607 C1029.07655,1004.76007 1009.55049,1000.25738 990.658509,995.132358 C988.333592,994.510035 986.024933,993.869407 983.700016,993.301994 C919.366469,975.18139 858.967396,950.581296 794.17862,933.284356 C771.850744,927.317369 749.089317,922.253362 725.894339,918.092334 C714.578658,916.066731 703.197945,914.236367 691.752199,912.601242 C664.812424,908.830692 654.896164,908.226671 627.501161,906.945417 C590.562617,905.115052 664.069331,903.980227 628.919184,911.246772 C624.236833,912.210764 619.614096,913.29678 615.050972,914.50482 C609.263066,916.030124 603.583548,917.76897 598.012418,919.721358 C582.993656,925.184675 568.376541,931.959289 554.29422,939.983488 C551.514074,941.520994 548.766445,943.076804 546.018815,944.650917 C537.401989,949.5929 528.898971,954.644705 520.265887,959.55008 C504.728504,968.705638 488.558467,976.430584 471.914112,982.649275 C462.797416,985.891048 452.681156,988.872973 443.299747,990.947285 C418.473534,996.548199 263.886146,990.800856 237.352826,990.947285 C224.557652,990.947285 144.931976,979.383696 126.797323,974.260824 C-18.2568867,933.284356 -18.2568867,597.390763 27.7038252,382.051907 C42.3947347,313.220866 54.5297927,241.479945 102.084917,180.07123 C117.318815,160.413119 136.796093,142.475551 159.476229,126.752724 C176.42904,115.067906 194.19822,104.955339 212.607903,96.5151091 C233.414661,86.920674 254.819194,79.0594723 276.648804,72.9949306 C295.567903,67.7108563 314.740675,63.6529846 334.072632,60.841313 C344.575405,59.3038072 355.208243,58.1140705 365.906114,57.3087103 C374.143582,56.6619817 382.418987,56.2532004 390.732327,56.0823664 L392.016722,56.0823664 C397.100107,55.9725445 402.183493,55.9725445 407.266878,56.0823664 C444.333289,56.7284157 481.297961,60.6390286 517.82238,67.7783929 C540.681356,72.0797485 563.345234,77.3511971 585.537626,83.1534513 C598.782608,86.6067382 611.908365,90.2247578 624.914894,94.0075103 C628.881886,95.1606397 632.848877,96.3320727 636.767095,97.5218093 C729.308553,125.434862 810.729429,163.982329 899.88919,195.611021 C900.344419,195.775754 900.783389,195.940486 901.238618,196.068612 C919.538253,202.404259 938.119596,207.658474 956.906565,211.809743 C970.709745,214.921362 984.821829,217.611997 999.177786,219.973167 C1021.15882,223.633895 1043.61134,226.52587 1066.22645,229.015165 L1071.2177,229.564275 C1104.40061,233.225003 1137.87617,235.952245 1170.39249,239.137079 C1181.93579,240.271905 1193.38153,241.443338 1204.6647,242.797807 C1211.81829,243.603167 1218.90685,244.457337 1225.93037,245.360317 C1230.9704,246.019248 1236.02669,246.678179 1241.08298,247.373717 C1246.13927,248.069256 1251.4882,248.801401 1256.69082,249.551851 C1260.07251,250.027745 1263.43795,250.521944 1266.81965,251.052749 C1287.30494,254.109457 1307.74145,257.532238 1327.95034,261.449217 C1340.24151,263.82869 1352.46765,266.3912 1364.54746,269.15505 C1373.29436,271.156248 1381.96537,273.267268 1390.56052,275.48811 C1396.93372,277.111032 1403.25273,278.819372 1409.51754,280.613129 C1460.42185,295.018094 1508.05826,313.907452 1549.11012,339.404424 C1655.71489,405.462264 1703.41634,514.13098 1667.9898,610.00545 Z" transform="translate(-74 -56)"/>
</svg>
