<svg xmlns="http://www.w3.org/2000/svg" width="48" height="48" viewBox="0 0 48 48">
  <path fill="#FFF" d="M24,2 C11.8494,2 2,11.8494 2,24 C2,33.3214 7.7992,41.281 15.9832,44.4864 C15.7918,42.7462 15.6158,40.0754 16.0602,38.1768 C16.4606,36.4608 18.6386,27.2406 18.6386,27.2406 C18.6386,27.2406 17.9808,25.9228 17.9808,23.9758 C17.9808,20.9156 19.754,18.6342 21.9606,18.6342 C23.8372,18.6342 24.7436,20.0444 24.7436,21.7318 C24.7436,23.6194 23.5424,26.442 22.922,29.0556 C22.4028,31.2468 24.0198,33.031 26.1802,33.031 C30.0896,33.031 33.0948,28.9082 33.0948,22.9572 C33.0948,17.6904 29.3108,14.0076 23.9054,14.0076 C17.6464,14.0076 13.9724,18.7024 13.9724,23.5556 C13.9724,25.4454 14.7006,27.4738 15.6092,28.576 C15.7896,28.7938 15.8138,28.9852 15.761,29.2074 C15.5938,29.9026 15.2242,31.3964 15.1516,31.7022 C15.057,32.1048 14.8326,32.1906 14.4168,31.9948 C11.669,30.7144 9.9508,26.6972 9.9508,23.472 C9.9508,16.5332 14.9932,10.1576 24.4884,10.1576 C32.1202,10.1576 38.0514,15.596 38.0514,22.8648 C38.0514,30.4482 33.2708,36.5488 26.6356,36.5488 C24.407,36.5488 22.3104,35.3894 21.5932,34.0232 C21.5932,34.0232 20.4888,38.223 20.2226,39.2548 C19.7254,41.1644 18.3856,43.5624 17.488,45.0232 C19.545,45.6546 21.7318,46 24,46 C36.1484,46 46,36.1484 46,24 C46,11.8516 36.1506,2 24,2 Z"/>
</svg>
