<svg xmlns="http://www.w3.org/2000/svg" width="509" height="409" viewBox="0 0 509 409">
  <g fill="none" fill-rule="evenodd">
    <path fill="#B9EFE9" fill-rule="nonzero" d="M509,408.671144 C509,359.36409 289.783745,337.248355 254.501739,339.107995 C219.219733,340.967636 0,356.78408 0,408.671144 C0,409.41107 509,408.671144 509,408.671144 Z"/>
    <path fill="#3F3D56" fill-rule="nonzero" d="M468.013507,237.656514 C458.440597,219.931965 444.872767,204.692644 428.390081,193.151672 C427.21206,192.336417 425.85286,191.822731 424.431193,191.655478 C426.372637,178.854708 425.965003,164.710134 418.758859,154.042825 C401.65895,128.732211 314.535774,154.853264 314.535774,154.853264 C253.466643,133.629476 200.536378,160.567893 200.536378,160.567893 C200.536378,160.567893 132.952008,149.955999 102.013263,158.122724 C87.4213402,161.974038 83.8769953,176.894417 84.20863,191.593137 L84.1602666,191.593137 C81.539493,191.588449 79.0595522,192.781882 77.4239386,194.83489 C69.1952549,205.142004 44.3364774,236.887637 45.0135647,243.017876 C45.8288331,250.367236 72.6981454,345.874281 71.4821519,392 L446.844165,387.843906 C446.844165,387.843906 453.062314,295.024468 468.614595,244.216216 C469.288666,242.036129 469.072489,239.676978 468.013507,237.656514 Z"/>
    <polygon fill="#000" fill-rule="nonzero" points="75 242.868 90.661 212 103.846 272.102 104 300" opacity=".1"/>
    <polygon fill="#000" fill-rule="nonzero" points="431 243.083 415.258 212 397 269.384 400.515 302" opacity=".1"/>
    <polygon fill="#3F3D56" fill-rule="nonzero" points="102 270.631 396.734 269 400 302 103.135 301.174"/>
    <polygon fill="#000" fill-rule="nonzero" points="102 270.631 396.734 269 400 302 103.135 301.174" opacity=".1"/>
    <rect width="300" height="35" x="102" y="299" fill="#FFF" fill-rule="nonzero" opacity=".1" rx="10.47"/>
    <path fill="#FFE09C" fill-rule="nonzero" d="M340,181.848046 C340,181.848046 339.034205,180.480233 337.894031,181.218852 C337.350771,181.581322 334.795439,184.864075 332.287056,188.20154 C331.052985,189.836077 329.82562,191.484293 328.853119,192.797394 C327.652582,194.411414 326.841046,195.533021 326.841046,195.533021 L326.358149,196.456295 L323.42723,202.043813 L320.670691,207.296217 L320,209.77196 L329.309188,213 L339.906103,210.052362 L339.450034,208.048515 L339.369551,207.706562 L339.45674,203.09703 L339.698189,190.102801 L339.812207,184.255398 L339.812207,183.571491 L340,181.848046 Z"/>
    <path fill="#E7C4C3" fill-rule="nonzero" d="M318,213.599557 C318,213.599557 328.470585,217.420683 333.838505,215.420841 C333.838505,215.420841 338.480464,213.906676 340.309326,212.442506 C340.309326,212.442506 342.256855,211.399731 339.611287,208 C339.611287,208 332.833328,212.249664 326.41835,210.578367 L320.003372,208.899929 L318,213.599557 Z"/>
    <ellipse cx="335.416" cy="198.384" fill="#FF7F8E" fill-rule="nonzero" rx="3.396" ry="2.878" transform="rotate(-30.37 335.416 198.384)"/>
    <path fill="#FF7F8E" fill-rule="nonzero" d="M340.631191,203.201225 C339.56756,202.756803 338.355205,202.852768 337.37454,203.459006 C335.746214,204.413494 335.078183,206.308535 335.892345,207.688013 C336.706508,209.067492 338.675808,209.415845 340.297176,208.461357 C340.408514,208.391687 340.519853,208.322016 340.624233,208.245378 L340.540729,207.897025 L340.631191,203.201225 Z M328.82235,197.676344 C328.431087,197.02872 327.783535,196.577925 327.040933,196.436207 L324,202.128297 C325.080881,202.616157 326.333522,202.532547 327.340156,201.905351 C328.968481,200.950864 329.629554,199.055823 328.82235,197.676344 Z M341,184 C340.640985,184.090173 340.296575,184.230918 339.977077,184.418024 C338.348752,185.372511 337.687679,187.267552 338.494883,188.647031 C339.008487,189.469884 339.912601,189.966032 340.881703,189.956839 L341,184 Z"/>
    <path fill="#E7C4C3" fill-rule="nonzero" d="M317.281892,211.062319 C317.281892,211.062319 315.990185,214.48883 318.936892,213.940588 C320.248222,212.391994 321.145006,210.524873 321.54049,208.519848 C321.54049,208.519848 327.911568,194.299827 329.795308,192.997753 C329.795308,192.997753 338.097219,181.436704 338.991995,181.265379 C338.991995,181.265379 339.281284,180.141483 336.38167,182.519482 C333.482056,184.89748 327.131161,194.053118 327.131161,194.053118 L321.076283,204.106502 L319.650022,208.11552 L317.281892,211.062319 Z"/>
    <path fill="#FFF" fill-rule="nonzero" d="M317.281892,211.062319 C317.281892,211.062319 315.990185,214.48883 318.936892,213.940588 C320.248222,212.391994 321.145006,210.524873 321.54049,208.519848 C321.54049,208.519848 327.911568,194.299827 329.795308,192.997753 C329.795308,192.997753 338.097219,181.436704 338.991995,181.265379 C338.991995,181.265379 339.281284,180.141483 336.38167,182.519482 C333.482056,184.89748 327.131161,194.053118 327.131161,194.053118 L321.076283,204.106502 L319.650022,208.11552 L317.281892,211.062319 Z" opacity=".2"/>
    <path fill="#FBBEBE" fill-rule="nonzero" d="M213,281.379374 C214.189672,285.353056 215.654234,289.236278 217.382733,293 C222.346501,291.944875 227.229509,290.529582 231.994247,288.764992 C232.145624,288.713703 229.262247,284.881681 228.959492,284.56662 C227.785322,283.247486 226.385956,282.155255 224.829054,281.342739 C223.308073,280.668654 221.433878,281.181545 219.783145,281.269469 C217.53411,281.386701 215.273062,281.423336 213,281.379374 Z"/>
    <path fill="#2F2E41" fill-rule="nonzero" d="M225.316228,287.06756 C222.943278,286.315514 221.494675,283.899216 220.52894,281.573443 C219.563205,279.24767 218.783719,276.699068 216.948821,275 C216.241013,275.108924 215.634662,275.569298 215.334664,276.225557 C215.048304,276.878026 214.728252,277.51489 214.375827,278.133527 C213.617035,279.24767 212.306394,279.790814 211.306168,280.737836 C210.305942,281.684857 209.747195,283.12628 208.705581,284.080265 C207.39494,285.277968 205.546247,285.577394 203.828617,285.974307 C201.168061,286.58401 198.598376,287.543885 196.185512,288.829299 C195.297565,289.370266 194.347887,289.800497 193.357287,290.110563 C192.266492,290.325303 191.148735,290.362913 190.046195,290.221977 L182.458275,289.678833 C181.782416,289.591325 181.096775,289.619575 180.43023,289.762393 C178.85248,290.343479 177.860895,291.92501 178.015892,293.61315 C178.212483,295.26665 179.082281,296.762834 180.416434,297.742442 C181.74238,298.693758 183.202785,299.437914 184.748447,299.949837 C191.36762,302.475791 198.183454,304.441603 205.125462,305.826941 L205.125462,307.344961 C209.951112,309.746147 215.259256,310.994609 220.63931,310.993779 C221.036105,311.022209 221.433802,310.952909 221.798192,310.79184 C222.295999,310.428337 222.644503,309.893201 222.777724,309.287747 C224.604392,303.894512 225.67025,298.268653 225.943956,292.575604 C226.079078,291.135278 225.96943,289.682236 225.619745,288.279191 C225.205858,286.886512 226.626869,287.4784 225.30933,286.935256"/>
    <path fill="#29A389" fill-rule="nonzero" d="M372.377048,258.905257 C349.720968,260.258836 327.300672,253.754887 304.651526,253.064561 C301.831347,252.890783 298.999971,253.068175 296.225711,253.592457 C293.313083,254.22864 290.594631,255.51454 287.903918,256.746297 C275.733297,262.268902 263.15352,266.844 250.580678,271.412331 L236.142368,276.664219 C233.25748,277.713243 230.26857,278.775803 227.196441,278.59307 C225.809476,278.511855 224.124313,278.308818 223.354547,279.425521 C221.00364,282.80947 222.113213,287.810946 223.666614,291.607736 C224.165922,292.839493 225.053579,294.179537 226.371197,294.314895 C227.321268,294.409645 228.208926,293.874981 229.145128,293.638105 C231.773427,292.961315 234.394792,294.680361 237.099374,294.957845 C240.441961,295.303008 243.541829,293.448604 246.697175,292.311597 C251.926035,290.423354 257.647267,290.484265 263.146585,289.604438 C272.369905,288.101965 280.913612,283.926173 288.902533,279.168341 C291.939988,277.354544 295.019051,275.412158 298.514204,274.748904 C302.529469,273.984132 306.655691,274.992548 310.601608,276.102483 C319.993198,278.694386 329.238544,281.766746 338.299307,285.306824 C343.070469,287.174763 347.81389,289.171293 352.779227,290.463961 C363.520178,293.220168 374.88082,292.573139 385.220348,288.616325 C388.840328,287.215371 392.786245,284.745088 392.994289,280.927994 C393.112182,278.748731 391.378475,276.867256 390.220359,274.972245 C389.485267,273.774327 388.74324,272.583177 387.931866,271.432634 C383.999819,265.842351 379.256397,258.505951 372.377048,258.905257 Z"/>
    <path fill="#000" fill-rule="nonzero" d="M372.377048,258.905257 C349.720968,260.258836 327.300672,253.754887 304.651526,253.064561 C301.831347,252.890783 298.999971,253.068175 296.225711,253.592457 C293.313083,254.22864 290.594631,255.51454 287.903918,256.746297 C275.733297,262.268902 263.15352,266.844 250.580678,271.412331 L236.142368,276.664219 C233.25748,277.713243 230.26857,278.775803 227.196441,278.59307 C225.809476,278.511855 224.124313,278.308818 223.354547,279.425521 C221.00364,282.80947 222.113213,287.810946 223.666614,291.607736 C224.165922,292.839493 225.053579,294.179537 226.371197,294.314895 C227.321268,294.409645 228.208926,293.874981 229.145128,293.638105 C231.773427,292.961315 234.394792,294.680361 237.099374,294.957845 C240.441961,295.303008 243.541829,293.448604 246.697175,292.311597 C251.926035,290.423354 257.647267,290.484265 263.146585,289.604438 C272.369905,288.101965 280.913612,283.926173 288.902533,279.168341 C291.939988,277.354544 295.019051,275.412158 298.514204,274.748904 C302.529469,273.984132 306.655691,274.992548 310.601608,276.102483 C319.993198,278.694386 329.238544,281.766746 338.299307,285.306824 C343.070469,287.174763 347.81389,289.171293 352.779227,290.463961 C363.520178,293.220168 374.88082,292.573139 385.220348,288.616325 C388.840328,287.215371 392.786245,284.745088 392.994289,280.927994 C393.112182,278.748731 391.378475,276.867256 390.220359,274.972245 C389.485267,273.774327 388.74324,272.583177 387.931866,271.432634 C383.999819,265.842351 379.256397,258.505951 372.377048,258.905257 Z" opacity=".1"/>
    <path fill="#FBBEBE" fill-rule="nonzero" d="M256,282.599602 C259.653997,283.829684 263.346156,284.963149 267.076476,286 C269.158682,282.620811 273.058345,280.266689 273.945608,276.406778 C274.020956,276.234143 274.017896,276.037899 273.937203,275.867639 C273.856509,275.697379 273.705902,275.569395 273.523443,275.51603 C270.858099,274.057514 267.898838,273.200434 264.858319,273.006381 C262.454122,272.857922 261.359354,275.332224 260.264586,277.078374 C259.82811,277.778248 256.980282,282.931866 256,282.599602 Z"/>
    <path fill="#2F2E41" fill-rule="nonzero" d="M262.173385,279.395329 C260.0243,279.03504 258.125768,277.798366 256.938895,275.985666 C256.43772,275.115995 255.901742,273.915021 254.899393,274.004749 C253.897044,274.094477 253.507241,275.171212 253.326262,276.075394 C252.651256,279.497884 251.670565,282.854052 250.395783,286.104221 C249.115941,289.361271 246.946688,292.200577 244.131101,294.303978 C242.808557,295.20816 241.346798,295.891473 240.052097,296.84397 C238.88965,297.692934 237.88034,298.76967 236.571718,299.425375 C235.716394,299.81819 234.832141,300.145839 233.92663,300.40548 C232.598287,300.870196 231.327832,301.483864 230.139978,302.23455 C229.096689,302.832935 228.213463,303.670852 227.564497,304.677912 C226.897771,305.714586 226.816236,307.01859 227.348714,308.128988 C227.905382,309.031574 228.825126,309.654649 229.875469,309.840722 C230.912198,310.020299 231.969877,310.048204 233.014771,309.923548 C237.156421,309.619853 241.298072,309.233333 245.439723,308.888225 C247.189798,308.783063 248.929897,308.552388 250.64637,308.19801 C251.558229,307.977141 252.442245,307.694153 253.347144,307.45948 C254.896021,307.06487 256.482587,306.833516 258.080459,306.769264 C258.548254,306.732836 259.018894,306.774837 259.472611,306.893503 C260.433195,307.2041 261.108389,308.149695 262.103777,308.342955 C262.738872,308.403026 263.379405,308.318026 263.976221,308.094478 C266.955425,307.286926 270.094727,307.307632 273.178343,307.141981 C274.570494,307.072959 276.129704,306.817579 276.756172,305.609703 C277.535777,304.105034 276.241076,302.420909 275.732941,300.778196 C275.473507,299.745521 275.32879,298.6878 275.301374,297.623913 C275.066884,294.998686 274.289701,292.449466 273.018245,290.135078 C271.967171,288.21628 270.526294,286.090417 271.264135,284.026673 C271.514722,283.336458 272.015896,282.646243 271.96021,281.956028 C271.723545,278.649897 264.05975,279.788752 262.173385,279.395329 Z"/>
    <path fill="#FBBEBE" fill-rule="nonzero" d="M337.480227,222.528976 C333.609368,220.704238 330.509242,217.414098 328.778271,213.293656 C328.410112,212.407979 328.10889,211.48659 327.760812,210.593771 C326.612795,207.622018 324.829381,204.977916 322.553026,202.872672 C322.057962,202.295346 321.351533,201.977139 320.618515,202.00128 C319.905804,202.232919 319.364173,202.854477 319.199426,203.629782 C318.999097,204.442611 318.949077,205.289296 319.052163,206.122533 C319.247742,208.085616 319.565281,210.032675 320.002684,211.950856 L321.060306,217.100636 C321.190736,217.894558 321.415684,218.667448 321.729687,219.400538 C322.183836,220.268488 322.785358,221.038704 323.503548,221.671869 C324.47415,222.628971 325.458141,223.550361 326.455519,224.450322 C327.846056,225.870249 329.656731,226.728942 331.576285,226.87879 C335.913875,227.735896 340.331791,228.9787 344,232 C343.953143,232 344,228.543005 343.919674,228.150164 C343.752329,227.114494 343.618453,226.085967 342.989234,225.385997 C341.550065,223.814635 339.213924,223.364654 337.480227,222.528976 Z"/>
    <path fill="#000" fill-rule="nonzero" d="M337.480227,222.528976 C333.609368,220.704238 330.509242,217.414098 328.778271,213.293656 C328.410112,212.407979 328.10889,211.48659 327.760812,210.593771 C326.612795,207.622018 324.829381,204.977916 322.553026,202.872672 C322.057962,202.295346 321.351533,201.977139 320.618515,202.00128 C319.905804,202.232919 319.364173,202.854477 319.199426,203.629782 C318.999097,204.442611 318.949077,205.289296 319.052163,206.122533 C319.247742,208.085616 319.565281,210.032675 320.002684,211.950856 L321.060306,217.100636 C321.190736,217.894558 321.415684,218.667448 321.729687,219.400538 C322.183836,220.268488 322.785358,221.038704 323.503548,221.671869 C324.47415,222.628971 325.458141,223.550361 326.455519,224.450322 C327.846056,225.870249 329.656731,226.728942 331.576285,226.87879 C335.913875,227.735896 340.331791,228.9787 344,232 C343.953143,232 344,228.543005 343.919674,228.150164 C343.752329,227.114494 343.618453,226.085967 342.989234,225.385997 C341.550065,223.814635 339.213924,223.364654 337.480227,222.528976 Z" opacity=".1"/>
    <path fill="#2F2E41" fill-rule="nonzero" d="M379.660603,175.113717 C378.18654,174.949081 376.541074,174.832463 375.354967,175.737964 C374.725333,176.291799 374.222539,176.975037 373.880904,177.741042 C372.661445,179.838517 371.710141,182.08095 371.049331,184.41568 C370.562547,186.418757 370.480274,188.531592 369.876936,190.479791 C368.759391,194.129233 365.900394,197.209308 365.5713,201.016527 C365.427322,202.717771 365.715279,204.713988 364.467467,205.880164 C364.16315,206.136263 363.837432,206.365767 363.4939,206.566149 C362.631801,207.143869 361.900679,207.896426 361.347938,208.775022 C360.973467,209.564175 360.45759,210.277963 359.825882,210.880997 C358.715192,211.70418 356.877755,211.615002 356.329266,212.890935 C355.780778,214.166868 357.193136,215.634876 356.864043,217.006847 C356.596655,218.131863 355.341987,218.646352 354.478117,219.414656 C353.367428,220.395615 352.860076,221.870484 352.421285,223.283614 C348.734751,223.980939 344.927758,223.031177 342,220.683729 C343.5152,224.429209 343.54948,228.565702 343.618042,232.613016 C343.618042,233.923248 343.618042,235.398116 342.658186,236.310477 C346.998103,236.406515 351.228322,237.57955 355.458541,238.53993 C357.30969,238.958381 359.31853,239.321953 361.039413,238.53993 C362.010858,238.016784 362.877748,237.319173 363.596741,236.481973 C365.900394,234.142763 368.313744,231.597757 368.875945,228.353046 C369.191326,226.542045 368.875945,224.676164 368.97193,222.865163 C369.18378,220.590094 369.643585,218.345017 370.343152,216.169945 C371.563143,211.659558 372.382209,207.050085 372.790783,202.395358 C373.037602,199.527939 375.533226,197.216168 376.822174,194.643722 C379.290373,189.800665 381.806565,184.751813 381.99168,179.311948 C382.080809,177.514666 381.46376,175.312653 379.660603,175.113717 Z"/>
    <path fill="#000" fill-rule="nonzero" d="M379.660603,175.113717 C378.18654,174.949081 376.541074,174.832463 375.354967,175.737964 C374.725333,176.291799 374.222539,176.975037 373.880904,177.741042 C372.661445,179.838517 371.710141,182.08095 371.049331,184.41568 C370.562547,186.418757 370.480274,188.531592 369.876936,190.479791 C368.759391,194.129233 365.900394,197.209308 365.5713,201.016527 C365.427322,202.717771 365.715279,204.713988 364.467467,205.880164 C364.16315,206.136263 363.837432,206.365767 363.4939,206.566149 C362.631801,207.143869 361.900679,207.896426 361.347938,208.775022 C360.973467,209.564175 360.45759,210.277963 359.825882,210.880997 C358.715192,211.70418 356.877755,211.615002 356.329266,212.890935 C355.780778,214.166868 357.193136,215.634876 356.864043,217.006847 C356.596655,218.131863 355.341987,218.646352 354.478117,219.414656 C353.367428,220.395615 352.860076,221.870484 352.421285,223.283614 C348.734751,223.980939 344.927758,223.031177 342,220.683729 C343.5152,224.429209 343.54948,228.565702 343.618042,232.613016 C343.618042,233.923248 343.618042,235.398116 342.658186,236.310477 C346.998103,236.406515 351.228322,237.57955 355.458541,238.53993 C357.30969,238.958381 359.31853,239.321953 361.039413,238.53993 C362.010858,238.016784 362.877748,237.319173 363.596741,236.481973 C365.900394,234.142763 368.313744,231.597757 368.875945,228.353046 C369.191326,226.542045 368.875945,224.676164 368.97193,222.865163 C369.18378,220.590094 369.643585,218.345017 370.343152,216.169945 C371.563143,211.659558 372.382209,207.050085 372.790783,202.395358 C373.037602,199.527939 375.533226,197.216168 376.822174,194.643722 C379.290373,189.800665 381.806565,184.751813 381.99168,179.311948 C382.080809,177.514666 381.46376,175.312653 379.660603,175.113717 Z" opacity=".1"/>
    <path fill="#29A389" fill-rule="nonzero" d="M375.541658,263.359728 C370.852967,261.125175 367.419191,256.966425 363.626868,253.400797 C356.386978,246.600586 347.526731,241.786643 339.914504,235.407134 C334.867267,231.186313 330.357849,226.262022 324.814162,222.723981 C319.935249,219.621845 314.406974,217.686609 308.658865,217.068632 C308.000364,216.951573 307.323946,216.984576 306.679962,217.165187 C305.953216,217.486864 305.319831,217.987523 304.838961,218.620405 C302.382865,221.393336 300.198581,224.395707 298.316165,227.586201 C288.662978,243.966021 274.955453,257.759553 263.599169,272.980717 C262.856431,273.730488 262.797005,274.919285 263.461266,275.739423 L265.771136,280.263702 C267.060526,282.801712 269.135961,285.781115 271.921595,285.250064 C273.197194,285.015574 274.210779,284.077614 275.148517,283.181034 L285.491217,273.270381 L296.364842,262.870057 C302.735945,256.780213 309.210476,250.545536 313.368241,242.759087 C316.608954,248.386848 322.373285,252.069721 326.324196,257.242296 C327.827336,259.200978 329.08225,261.380356 330.392325,263.449386 C332.543607,266.773627 334.991379,269.897862 337.432256,273.015201 L349.905552,288.939834 C351.601755,291.105419 353.353119,293.326177 355.676779,294.795189 C358.634791,296.664212 362.227156,297.160779 365.702303,297.471134 C370.387919,297.889464 375.092363,298.059821 379.795955,297.981495 C383.381424,297.919424 387.077216,297.684934 390.297243,296.091781 C393.51727,294.498628 396.158106,291.264044 395.992623,287.622552 C395.795473,285.751235 395.180448,283.948146 394.192993,282.346525 C389.766318,274.139374 383.93993,267.346059 375.541658,263.359728 Z"/>
    <path fill="#FBBEBE" fill-rule="nonzero" d="M385.910478,178.69426 C386.880847,180.644796 387.050819,182.902463 386.383599,184.978515 C385.715854,187.026701 384.782715,188.976842 383.608428,190.77827 C382.598054,192.637934 381.387965,194.37979 380,195.972399 C386.658998,196.300149 393.120273,193.663897 398.995444,190.464769 C403.726651,187.899768 408.443736,184.722015 411,179.919761 C409.480276,180.291116 407.875745,179.993227 406.58656,179.100386 C405.318531,178.20705 404.182138,177.137198 403.211162,175.922633 L399.864009,172.125005 C399.078528,171.299695 398.38909,170.386521 397.809112,169.403253 C397.083654,168.05812 396.776093,166.523868 396.926424,165 C395.598124,166.404241 394.112261,167.647617 392.498861,168.705003 C390.112073,170.272504 387.478132,171.412505 385.084282,172.980006 C384.236902,173.528632 382.344419,174.405007 382.831663,175.537883 C383.318907,176.670759 385.253759,177.49726 385.910478,178.69426 Z"/>
    <path fill="#000" fill-rule="nonzero" d="M385.910478,178.69426 C386.880847,180.644796 387.050819,182.902463 386.383599,184.978515 C385.715854,187.026701 384.782715,188.976842 383.608428,190.77827 C382.598054,192.637934 381.387965,194.37979 380,195.972399 C386.658998,196.300149 393.120273,193.663897 398.995444,190.464769 C403.726651,187.899768 408.443736,184.722015 411,179.919761 C409.480276,180.291116 407.875745,179.993227 406.58656,179.100386 C405.318531,178.20705 404.182138,177.137198 403.211162,175.922633 L399.864009,172.125005 C399.078528,171.299695 398.38909,170.386521 397.809112,169.403253 C397.083654,168.05812 396.776093,166.523868 396.926424,165 C395.598124,166.404241 394.112261,167.647617 392.498861,168.705003 C390.112073,170.272504 387.478132,171.412505 385.084282,172.980006 C384.236902,173.528632 382.344419,174.405007 382.831663,175.537883 C383.318907,176.670759 385.253759,177.49726 385.910478,178.69426 Z" opacity=".1"/>
    <path fill="#F5DD48" fill-rule="nonzero" d="M385.944941,179.757182 C384.709468,181.820729 384.444225,184.228201 385.944941,186.09915 C386.133403,186.333019 386.824431,187.777502 387.124574,187.791259 C387.415065,187.762629 387.684079,187.627625 387.878422,187.412942 C389.476859,185.975337 390.670452,184.13878 392.066467,182.508578 C393.462483,180.878376 395.242402,179.3995 397.378305,179.069333 C399.953953,178.677259 402.44584,180.018564 404.700404,181.318599 C405.681064,181.789767 406.536686,182.479847 407.199271,183.333997 C407.674467,184.180832 407.955608,185.119984 408.02292,186.085393 C408.797709,191.870204 408.783748,197.730679 408.762808,203.563639 C408.762808,207.787032 408.762808,212.031061 407.925199,216.171913 C407.506395,218.318002 406.878188,220.415942 406.578045,222.575788 C406.362706,224.482532 406.276428,226.401288 406.319782,228.319328 L406.319782,236.353406 C406.263196,237.827684 406.368509,239.30367 406.633885,240.75564 C407.017789,242.516534 407.862379,244.139857 408.427765,245.852602 C409.011496,247.820993 409.41103,249.837939 409.621358,251.87816 L410.73817,260.194255 C411.087173,262.81496 411.345436,265.697048 409.740019,267.760595 C409.042011,268.709827 408.057821,269.47334 407.324913,270.422572 C404.532882,273.958116 405.447272,279.013807 404.29556,283.340378 C403.389356,286.507816 401.524075,289.327409 398.948822,291.422605 C396.973461,293.073442 394.425733,294.366599 391.891965,293.90574 C388.464748,293.279797 386.405626,289.778645 385.470296,286.42882 C384.534966,283.078995 384.199922,279.481544 382.1757,276.67512 C380.521422,274.377704 377.987655,272.933221 375.642349,271.29614 C373.297044,269.659059 371.06342,267.547362 370.560854,264.768452 C370.337492,263.557837 370.477094,262.312831 370.344472,261.088459 C369.972782,257.927258 367.879514,255.218179 364.886053,254.024249 C363.134054,253.3364 360.970231,253.10941 360,251.527357 C362.554708,250.110388 364.243886,247.489683 365.137336,244.731408 C366.030785,241.973133 366.212267,239.042896 366.386769,236.153929 L366.973096,226.489649 C367.231358,222.169957 367.35002,217.891536 369.283501,214.012067 C370.14205,212.271809 371.216982,210.648485 372.117411,208.93574 C373.3051,206.525652 374.319703,204.036403 375.153744,201.486335 C376.549759,197.524324 377.945774,193.562313 379.202188,189.552153 C379.702164,187.614998 380.44793,185.747673 381.421852,183.994332 C382.413023,182.31598 383.9626,180.121742 385.944941,179.757182 Z"/>
    <path fill="#2F2E41" fill-rule="nonzero" d="M363.280916,242.13433 L365.852814,242.22433 L366.398996,238.340476 C366.468617,237.561497 366.650249,236.796674 366.938265,236.069702 C367.363969,235.303445 367.859238,234.578074 368.417798,233.902775 C370.948213,230.323536 370.761543,225.595065 371.39069,221.226595 C372.227248,215.425045 374.647044,209.997341 377.039186,204.659638 L382.044707,193.520385 C383.035999,191.628019 383.512861,189.507877 383.427447,187.37268 C383.475843,185.64883 383.980544,179.390356 384.02894,177.680353 C384.02894,177.043428 382.646199,177.396506 382.335082,176.828812 C381.712849,175.589579 380.85555,178.947278 379.687134,179.681126 C378.518718,180.414974 377.86883,181.758053 377.377957,183.045748 C376.299419,185.8496 375.642618,188.798837 374.612476,191.630381 C373.582334,194.461925 372.213421,197.245008 369.95264,199.245781 C368.929412,200.145783 367.754082,200.851938 366.786164,201.814248 C363.681911,204.8881 363.377708,209.741187 363.267089,214.123504 C363.211779,216.69197 362.686338,242.13433 363.280916,242.13433 Z M400.283056,174.294961 C397.787209,175.27804 396.418296,177.991892 395.720012,180.594974 C395.021728,183.198056 394.731352,185.981139 393.390094,188.31422 C390.251272,193.776539 382.259031,195.36885 380.05356,201.274247 C379.36219,203.205789 379.36219,205.324255 379.161692,207.380413 C378.760698,211.610422 377.371043,215.688122 376.963135,219.925054 C376.745455,223.211452 376.82181,226.510762 377.191287,229.783535 L379.956768,263.145911 C380.364677,267.992075 380.350849,273.135931 379.12021,277.815941 C381.947915,278.362865 384.893152,277.629017 387.513446,276.431322 C390.133739,275.233628 392.532794,273.585932 395.056296,272.194391 C399.398102,269.792078 404.189298,268.095921 407.991835,264.897453 C408.680991,264.360661 409.270691,263.706891 409.734088,262.96591 C410.494595,261.650523 410.563732,260.051289 410.923245,258.569748 C411.25113,257.38548 411.669491,256.228218 412.174625,255.108202 C413.567463,251.745701 414.781369,248.311647 415.811233,244.820489 C416.518609,242.505211 417.07518,240.146404 417.477436,237.758936 C417.781638,235.862009 417.947567,233.93739 418.113496,232.019694 C418.316073,229.014878 418.911112,226.049613 419.883404,223.199676 C422.312997,216.406315 423.690921,209.280877 423.969403,202.070402 C424.047707,201.029317 423.975521,199.982365 423.755078,198.961934 C423.328618,197.724625 422.762648,196.540047 422.068134,195.431158 C420.906632,193.243461 420.208348,190.834225 419.115983,188.60499 C416.640877,183.585749 412.264503,179.771126 407.687632,176.579581 C405.461419,175.021886 402.834212,173.298036 400.283056,174.294961 Z"/>
    <path fill="#FBBEBE" fill-rule="nonzero" d="M344.237048,229.279158 C342.260972,228.227932 340.472449,226.848813 338.945629,225.198978 C338.257538,224.375967 337.679542,223.448337 336.970808,222.639275 C335.184351,220.704521 332.862528,219.362465 330.310088,218.789259 C327.777928,218.225618 325.18844,217.9704 322.596589,218.029021 C320.862026,217.917022 319.121947,218.129812 317.46343,218.656741 C315.776949,219.215827 314.492799,220.614966 314.064261,222.360289 C313.685811,224.452689 315.034469,226.482317 316.651483,227.828427 C318.15726,229.07375 319.929113,229.945477 321.825927,230.374181 C323.37205,230.64532 324.931827,230.829269 326.498064,230.92518 C335.704721,231.901633 343.920527,236.97919 351.957429,241.603394 C359.044765,245.67195 366.267427,249.470819 373.625412,253 C373.915432,250.76445 374.037346,248.509784 373.9901,246.255497 C373.948815,244.574602 373.866244,242.007925 372.297397,241.017522 C370.473956,239.866702 367.48076,239.622589 365.416487,238.925122 C360.673839,237.348869 356.041622,235.449763 351.551455,233.240769 C349.06974,232.008578 346.631605,230.688041 344.237048,229.279158 Z"/>
    <ellipse cx="383.901" cy="160.646" fill="#FBBEBE" fill-rule="nonzero" rx="16.587" ry="16.485" transform="rotate(-75.27 383.901 160.646)"/>
    <path fill="#2F2E41" fill-rule="nonzero" d="M405.434433,193.096219 C403.969234,194.801522 403.233195,197.001913 402.249517,199.023523 C400.227129,203.190514 397.049091,206.76615 395.460072,211.125675 C393.781628,215.718992 393.836659,221.178713 390.548559,224.788729 C389.977613,225.414466 389.289726,226.019573 389.124633,226.851596 C389.102008,227.356915 389.044548,227.860073 388.952661,228.357489 C388.484898,229.663971 386.338691,229.732734 385.939717,231.066721 C385.822776,231.458665 385.884686,231.884991 385.740229,232.27006 C385.410044,233.129588 384.27503,233.260236 383.511476,233.782829 C381.915578,234.862396 382.238885,237.365341 381.103871,238.926243 C380.089207,240.115668 378.509975,240.662924 376.976549,240.356498 C375.485635,240.050737 374.051419,239.514853 372.725408,238.76809 C372.254461,238.506566 371.734575,238.345042 371.198299,238.293631 C370.562768,238.313753 369.947504,238.521953 369.430429,238.891862 C366.403727,240.817205 364.979801,244.633508 365,248.236649 C365.021074,251.83979 366.25927,255.305406 367.524982,258.674755 C367.70006,259.242767 367.985215,259.770802 368.364204,260.228781 C369.368519,261.28772 371.115752,261.12269 372.450253,260.531335 C373.784754,259.93998 374.995435,259.01169 376.42624,258.750393 C378.964543,258.289687 381.447815,260.036247 383.992996,259.891846 C385.877807,259.781827 387.549372,258.688507 389.110875,257.629569 C391.614784,255.938018 394.159966,254.191458 395.989745,251.798532 C397.11788,250.327021 397.943344,248.656098 398.927023,247.081443 C400.185786,245.162907 401.564294,243.325603 403.054344,241.580465 L412.505911,230.014659 C413.45471,228.919464 414.30632,227.743775 415.051093,226.500909 C415.911349,224.822133 416.576068,223.050232 417.032208,221.21997 C417.933339,218.132546 418.84135,215.031369 418.992685,211.806421 C419.045223,209.16042 418.814618,206.516385 418.304798,203.919393 C417.978569,201.330898 417.283646,198.80235 416.241138,196.410558 C414.294417,192.119795 409.293479,188.592293 405.434433,193.096219 Z"/>
    <path fill="#9A5E7F" fill-rule="nonzero" d="M435.363482,185.094019 C436.915807,179.302484 435.590992,173.117732 431.802598,168.47042 C434.341119,157.640737 428.812011,146.797143 419.075217,142.78383 C419.42296,132.628828 412.989721,123.308484 403.079057,120.693224 C392.77892,117.987542 382.214499,123.426727 377.770348,133.094846 C371.510981,129.846636 364.889961,130.19441 362.706138,134.012969 C360.424946,138.005415 363.853688,144.286214 370.356475,148.035218 C372.406109,149.233124 374.649098,150.064023 376.98445,150.490503 C379.012428,156.227382 383.369752,160.840248 388.98157,163.191211 C388.632339,171.565709 393.049323,179.417337 400.387529,183.466437 C400.780622,186.320485 401.835721,189.04303 403.468528,191.416551 C403.277176,191.914545 403.114628,192.423135 402.981689,192.939801 C400.936962,200.695162 405.360248,208.582677 412.850624,210.551078 C420.341001,212.519479 428.074797,207.831486 430.112568,200.076125 C430.660281,198.008627 430.755175,195.847233 430.390763,193.739682 C432.79449,191.356612 434.512201,188.37017 435.363482,185.094019 L435.363482,185.094019 Z"/>
    <path fill="#000" fill-rule="nonzero" d="M367.013214,136.939849 C369.207053,133.142779 375.851452,132.790046 382.146514,136.026892 C386.597073,126.413182 397.223919,120.997689 407.571296,123.695061 C408.039408,123.812638 408.500533,123.957881 408.968645,124.110041 C407.19906,123.029574 405.27792,122.21386 403.267458,121.689322 C392.920082,118.998867 382.307209,124.407443 377.842676,134.021154 C371.554601,130.791224 364.903215,131.137041 362.709376,134.93411 C360.417722,138.904089 363.86219,145.149542 370.394801,148.877449 C371.620864,149.575894 372.912474,150.154967 374.251486,150.606533 C368.005332,146.830212 364.777454,140.812998 367.013214,136.939849 Z M407.480468,195.535067 C407.614017,195.021309 407.77731,194.51558 407.96954,194.020389 C406.329155,191.657713 405.269259,188.948232 404.87441,186.108098 C397.502466,182.085309 393.064689,174.279601 393.416141,165.953888 C387.778585,163.616155 383.401277,159.029249 381.363998,153.324654 C379.996006,153.083165 378.658415,152.695904 377.374564,152.169626 C379.530057,157.48524 383.751471,161.721424 389.091343,163.927401 C388.740509,172.254771 393.177751,180.062214 400.549612,184.088527 C400.944508,186.926515 402.004446,189.633738 403.644742,191.993902 C403.452512,192.489093 403.289219,192.994821 403.15567,193.50858 C401.108552,201.192632 405.517191,209.008095 413,211 C408.087814,207.484792 405.889282,201.324823 407.480468,195.535067 L407.480468,195.535067 Z" opacity=".1"/>
    <ellipse cx="388.958" cy="163.649" fill="#FBBEBE" fill-rule="nonzero" rx="2.538" ry="3.397" transform="rotate(-37.22 388.958 163.649)"/>
    <ellipse cx="214.5" cy="40.5" fill="#3F3D56" fill-rule="nonzero" rx="31.5" ry="40.5"/>
    <path fill="#000" fill-rule="nonzero" d="M214.503447,69.4047549 C198.724149,69.4047549 185.65401,54.0410919 183.358464,34 C183.119674,36.0903375 183,38.193091 183,40.2976225 C183,63.3255063 197.104169,82 214.503447,82 C231.902725,82 246,63.3255063 246,40.2976225 C246,38.193091 245.880326,36.0903375 245.641536,34 C243.352883,54.0692692 230.282744,69.4047549 214.503447,69.4047549 Z" opacity=".1"/>
    <path fill="#3F3D56" fill-rule="nonzero" d="M279.812181,154.044083 C279.120654,156.740251 276.209325,158.937628 272.972978,160.454222 C266.154521,163.655922 257.759383,164.606321 249.606279,164.929861 C247.531862,165.052551 245.450719,165.014235 243.382535,164.815274 C239.115813,164.323223 235.160279,162.550493 232.691527,160.022835 C232.339422,159.746874 232.095285,159.361371 232,158.930887 C232.034827,158.409084 232.284151,157.923042 232.691527,157.582803 C237.041232,152.958875 244.288436,150.114418 251.563301,148.092292 C257.095517,146.535255 266.735404,142.504484 272.772435,143.050458 C278.636585,143.542509 280.669674,150.606469 279.812181,154.044083 Z"/>
    <path fill="#000" fill-rule="nonzero" d="M279.812181,154.044083 C279.120654,156.740251 276.209325,158.937628 272.972978,160.454222 C266.154521,163.655922 257.759383,164.606321 249.606279,164.929861 C247.531862,165.052551 245.450719,165.014235 243.382535,164.815274 C239.115813,164.323223 235.160279,162.550493 232.691527,160.022835 C232.339422,159.746874 232.095285,159.361371 232,158.930887 C232.034827,158.409084 232.284151,157.923042 232.691527,157.582803 C237.041232,152.958875 244.288436,150.114418 251.563301,148.092292 C257.095517,146.535255 266.735404,142.504484 272.772435,143.050458 C278.636585,143.542509 280.669674,150.606469 279.812181,154.044083 Z" opacity=".1"/>
    <path fill="#85E0CD" fill-rule="nonzero" d="M193.878885,133.195663 C191.807319,137.235694 191.432215,141.927539 192.835846,146.242117 C194.266841,150.532534 196.947485,154.303795 200.537757,157.07754 C209.35869,164.115759 221.460706,165.083943 232.740724,164.994678 C242.631665,164.906084 252.50852,164.231969 262.318825,162.975911 C265.586093,162.557051 268.887899,162.062659 271.913403,160.76488 C275.595124,159.178706 278.820946,156.274154 280.140287,152.525015 C281.459628,148.775876 280.52711,144.134085 277.37727,141.620926 C274.614252,139.409895 270.863456,139.107767 267.347517,138.874304 L247.212028,137.672657 C249.2014,135.667623 251.846989,134.534641 254.271537,133.085798 C257.483545,131.14943 259.617976,127.908416 261.959633,124.99013 C265.413405,120.623001 269.557931,116.805197 273.702457,113.007992 C274.393211,116.743398 276.734868,119.812748 279.532423,122.394573 C282.329978,124.976397 285.555801,127.050097 288.470784,129.501457 C295.516479,135.447893 300.586616,143.522961 307.99841,149.016205 C313.097319,147.68341 317.864178,145.31763 322,142.067252 L319.119554,136.883003 C318.883144,136.339986 318.50957,135.866919 318.03507,135.509692 C317.213072,135.0153 316.163126,135.269363 315.216792,135.132032 C312.688632,134.754371 311.583425,131.849818 310.588738,129.508323 C307.867166,123.067495 302.645063,118.07551 298.15516,112.678398 C294.880592,108.69953 291.978857,104.431365 289.486193,99.9272055 C287.987256,97.2423826 286.619563,94.4339618 284.581837,92.1199328 C282.544112,89.8059039 279.705112,88 276.610532,88 C273.847515,88 271.360799,89.3733109 269.012235,90.7466219 C261.857971,94.9720222 254.974068,99.6341973 248.400125,104.706328 C244.946354,107.356818 241.540935,110.165239 237.506929,111.792612 C235.807674,112.479268 234.053158,112.946193 232.38844,113.777046 C229.535624,115.239623 227.366656,117.711582 225.031906,119.902013 C216.715224,127.723019 205.324685,132.790536 193.878885,133.195663 Z"/>
    <path fill="#FBBEBE" fill-rule="nonzero" d="M234.901522,76.8047534 C234.81526,79.2086398 234.322499,81.5780967 233.44572,83.8050213 C232.548576,86.0415517 230.795535,87.7903883 228.606343,88.6327922 C227.06576,89.0612983 225.450704,89.115579 223.88662,88.791419 C222.519853,88.6384552 221.204094,88.1669158 220.03772,87.4120558 C218.222953,86.1154545 217.318894,83.8050213 216.986519,81.5428657 C216.654144,79.2807102 216.807037,76.9702769 216.594317,74.6943278 C216.387273,72.8548319 216.049548,71.033716 215.583897,69.2458434 C215.4443,68.6527173 215.298055,68.0595911 215.15181,67.466465 C215.005565,66.8733388 214.879263,66.2802127 214.75296,65.6870865 C214.626658,65.0939604 214.526945,64.5766992 214.43388,64.0111603 C214.340815,63.4456214 214.287635,63.0593998 214.241103,62.5835195 C214.198717,61.1614672 213.975195,59.7514813 213.576353,58.3902556 C213.197712,57.5090425 212.722617,56.6759479 212.160436,55.9074019 C211.921127,55.5487675 211.688464,55.2177204 211.495687,54.8246019 C210.876851,53.8637527 210.588752,52.714307 210.678045,51.5624081 C210.703514,51.383822 210.745817,51.2082609 210.804347,51.0382501 C210.824686,50.9723128 210.849111,50.9078081 210.87747,50.8451392 C211.358652,50.7080894 211.743986,50.3340955 211.907832,49.845101 C211.998755,49.325354 211.955172,48.7898853 211.781529,48.2933174 C211.586139,47.5997927 211.316334,46.9312139 210.977182,46.3001377 C210.757815,45.8863288 210.006647,45.1345759 210,44.6586956 C210,43.7000382 211.794824,42.9275949 212.526049,42.54827 C214.759715,41.3858661 217.251631,40.8621248 219.74523,41.0309705 C221.340629,41.1413196 223.068978,41.651684 223.953095,43.0448407 C224.750795,44.2931644 224.617845,45.913916 224.983457,47.3691441 C225.013987,47.5816141 225.098928,47.7816864 225.229415,47.9484767 C225.402983,48.112227 225.62137,48.2158741 225.854279,48.2450397 C226.243688,48.3265317 226.643159,48.3428304 227.037534,48.2933174 L227.037534,48.2933174 C227.142903,48.2873895 227.247505,48.2712262 227.349966,48.2450397 C227.964685,48.1271025 228.546158,47.8678801 229.051725,47.48639 C229.3841,47.3898346 229.716475,47.3208664 230.042202,47.2587951 L230.082087,47.2587951 C231.411587,51.5899953 231.577774,56.2246554 232.661316,60.6524111 C233.199763,62.8455985 233.990815,65.0111986 234.077233,67.2733541 C234.077233,67.3699095 234.077233,67.4733618 234.077233,67.5699172 C234.077233,68.3009797 234.037348,69.0320421 234.077233,69.7562078 C234.089302,70.0803705 234.124855,70.4031325 234.183593,70.721762 C234.303503,71.2353264 234.44996,71.7418244 234.622327,72.2390614 L234.622327,72.2390614 C234.66886,72.3976882 234.715392,72.5563149 234.755277,72.7218385 C234.788151,72.8374546 234.814782,72.9548826 234.835047,73.0735761 L234.835047,73.0735761 C235.029854,74.3075309 235.052243,75.5641728 234.901522,76.8047534 L234.901522,76.8047534 Z"/>
    <circle cx="216" cy="32" r="16" fill="#FBBEBE" fill-rule="nonzero"/>
    <path fill="#FBBEBE" fill-rule="nonzero" d="M318.62868,122 C318.158374,117.54598 316.593778,113.282177 314.077716,109.597818 L315.337665,117.161825 C314.269742,117.471607 313.12192,117.113365 312.411554,116.248567 C311.730756,115.389011 311.210463,114.410955 310.876206,113.362393 C309.042553,108.754132 306.643829,104.397662 303.736494,100.395525 C293.464122,99.5240957 283.301909,95.2157493 274.268831,90.1823737 C265.235753,85.1489981 256.774127,79.1326503 247.851209,73.8971031 C246.304151,72.9524138 244.693729,72.1184538 243.031731,71.4013296 C240.243319,70.2719572 237.110659,69.6863567 234.466831,68.3548128 L233.936688,68.068984 C233.337389,67.7434677 232.770236,67.3606169 232.242986,66.9256687 C231.95973,66.6888861 231.690734,66.4351363 231.437445,66.1657824 C230.117011,64.6125502 229.069111,62.8417586 228.339209,60.9302352 C226.920906,57.7512611 226.411418,53.9100008 225,50.7310268 C225.651225,50.1172137 226.380615,49.5943671 227.168765,49.1763969 L227.168765,49.1763969 L227.513013,49.0021111 C228.07392,48.7369452 228.656805,48.522325 229.25491,48.3607391 C229.599159,48.263139 229.943407,48.1934247 230.28077,48.1306818 L230.32208,48.1306818 C231.922159,47.869528 233.560768,48.0010198 235.100248,48.5141107 C237.344748,49.2879399 239.231229,50.8216554 241.13148,52.2786852 C244.126441,54.5722871 247.238447,56.7334317 249.958009,59.3616625 C251.514012,60.8744637 252.9392,62.5336651 254.612247,63.9070377 C256.007192,64.9973935 257.477449,65.9852153 259.011742,66.8629258 L286.234905,83.2806537 C289.305601,85.1280838 292.383182,86.9824853 295.385028,88.9484298 C299.949762,91.9252323 304.335486,95.1530064 308.741866,98.3807805 L316.514994,104.083414 C317.366479,104.642214 318.112585,105.350473 318.718184,106.174844 C319.251152,107.099225 319.582185,108.12857 319.688965,109.193475 C320.334883,113.487352 319.971622,117.874948 318.62868,122 L318.62868,122 Z"/>
    <path fill="#07454C" fill-rule="nonzero" d="M240.777457,88.8917621 C239.669999,93.8075614 234.682959,96.7820013 232.071032,101.101526 C228.825277,106.461064 230.148654,112.694215 231.374518,118.837231 L224.694949,124.564241 C223.469085,125.611188 222.236255,126.644269 220.919844,127.594148 C218.989088,128.886084 216.971408,130.044385 214.881068,131.060861 L208.974629,134.083835 C207.14224,135.108638 205.200942,135.927201 203.186598,136.524401 C199.30005,137.515881 195.176687,136.822539 191.345861,135.678523 C190.892445,135.560882 190.45678,135.383679 190.050345,135.151583 C189.81145,135.008518 189.603181,134.820045 189.437412,134.596909 C189.05561,133.921239 188.917947,133.135727 189.047365,132.371279 C189.437412,125.937059 191.018499,119.634575 192.592621,113.380624 C193.419791,109.624804 194.539931,105.938915 195.942853,102.356476 C197.324793,99.289893 198.914173,96.3201879 200.700043,93.4678235 C202.789585,89.9525763 204.879127,86.4095954 207.665183,83.393555 C208.856222,82.0900708 210.186563,80.8559209 210.897008,79.2334992 C211.879092,77.0009359 211.49601,74.4425015 211.697999,72.0158023 C211.848577,70.1889949 212.334917,68.4052495 213.132817,66.7533317 C213.559579,65.8642844 214.072807,65.018992 214.665148,64.2295645 C214.936789,64.8535729 215.201464,65.4775813 215.473104,66.0946562 L215.99549,67.3149392 C216.225339,67.8349462 216.448224,68.3618866 216.692004,68.8818936 C217.342083,70.3702694 219.868107,74.629704 227.322999,73.897164 C233.352618,72.937948 233.96333,67.9690645 233.561572,65.6925175 C232.865058,61.3036586 231.019296,56.8246652 229.661094,52.7478105 C229.10708,51.3894807 228.786848,49.9479662 228.713835,48.4837532 C228.712802,48.3184188 228.729143,48.1534302 228.762591,47.99148 L228.762591,47.8666783 C229.330029,47.6029581 229.919702,47.389508 230.524771,47.2288031 C230.873028,47.1317351 231.221285,47.0624008 231.562577,47 C232.760581,53.4711979 233.960906,59.928529 235.163554,66.3719933 C235.163554,66.5245286 235.22624,66.677064 235.254101,66.8295994 C235.421264,67.7586785 235.595393,68.6808242 235.790417,69.6029699 C235.985441,70.5251156 236.152604,71.2739257 236.361558,72.0990034 C236.43121,72.3763405 236.507826,72.660611 236.584443,72.937948 C236.800362,73.7006249 237.037177,74.449435 237.280957,75.198245 C238.980451,79.7257724 241.815262,84.239433 240.777457,88.8917621 Z"/>
    <path fill="#2F2E41" fill-rule="nonzero" d="M306.01089,158.297031 C305.952057,159.238303 306.132298,160.179155 306.534681,161.031211 C307.527844,162.863113 309.935922,163.280075 311.976667,163.450961 C324.08125,164.453599 336.25973,164.082141 348.28151,162.343618 C348.934565,162.295705 349.567781,162.096865 350.131784,161.762605 C351.839207,160.559565 350.812033,157.627156 348.920943,156.683864 C347.029853,155.740572 344.839454,156.000319 342.79871,155.569685 C340.763175,155.052417 338.824352,154.207572 337.057415,153.06791 C332.907902,150.670945 328.826413,148.164613 324.812949,145.548913 C322.411673,143.997265 319.575038,142.343086 316.874453,143.265872 C309.534576,145.753976 305.956471,150.361071 306.01089,158.297031 Z"/>
    <path fill="#FBBEBE" fill-rule="nonzero" d="M214.243522,65.9981128 L214.243522,65.9981128 L214.181233,66.3374989 L214.077417,66.9054511 C213.738285,68.6508652 213.3161,70.3685743 212.838547,72.1209147 C211.516625,76.8930985 209.751755,81.5960199 207.993806,86.2227526 L193.867924,123.485959 C192.677502,126.616622 191.494001,129.719581 190.144394,132.808687 C189.694525,133.826845 189.230814,134.886561 188.760182,135.897793 C187.106049,139.617187 185.514206,143.461254 184.988205,147.429993 C184.642152,150.05504 184.296099,152.735498 184.815179,155.33284 C185.334258,157.930183 186.891496,160.472115 189.389999,161.427937 C190.594263,161.898922 192.317607,162.52921 191.985396,163.782861 C191.812369,164.475486 191.03029,164.807945 190.324342,164.918765 C188.450072,165.221236 186.538771,164.670023 185.112784,163.41577 C183.797783,162.25216 182.780387,160.430558 181.029359,160.236623 C179.818174,160.105024 178.703883,160.83228 177.56883,161.337896 C173.035536,163.41577 167.761689,161.961258 163,160.485968 C163.373737,158.560471 165.311634,157.286042 167.228767,156.905098 C169.145901,156.524155 171.139166,156.787352 173.104746,156.738868 C173.733494,156.77176 174.35707,156.609702 174.89038,156.27481 C175.372333,155.843689 175.716587,155.279943 175.880091,154.654068 C177.141323,150.908832 178.079105,147.0622 178.68312,143.156499 C179.319858,139.070013 179.582858,134.928118 180.482595,130.897043 C181.174701,127.752527 182.268229,124.704978 183.195651,121.615872 C184.996018,115.258277 186.472111,108.813161 187.618208,102.305497 C188.199026,99.6043709 188.615059,96.8703771 188.863998,94.1186736 C189.023183,91.8330122 188.947051,89.5334984 189.168525,87.2616895 C189.536079,84.3015233 190.15192,81.377564 191.009527,78.5207665 C191.853896,75.3970293 192.691344,72.2871446 193.535713,69.1703337 C194.781504,64.5574535 196.117268,59.7714172 199.273271,56.1905477 C201.487782,53.6393402 204.660696,52.1219218 208.035332,52 C208.661469,51.9973172 209.285954,52.0646913 209.897097,52.2010297 L210.201624,52.2772184 C210.87001,52.4495074 211.510758,52.7153255 212.104915,53.0668106 C213.080784,52.4434484 213.572179,52.6650883 214.222759,53.613984 C214.787404,54.6273514 215.053759,55.7800183 214.990997,56.9385823 C215.040817,59.9756993 214.790441,63.0103049 214.243522,65.9981128 L214.243522,65.9981128 Z"/>
    <path fill="#07454C" fill-rule="nonzero" d="M216,69.5870226 L215.960038,69.6275769 L215.746908,69.8438662 L213.622265,72 L212.576594,67.5525515 L209,52.3176749 C209.602549,52.3148923 210.203508,52.3806399 210.791627,52.5136871 C210.817145,52.3386685 210.85953,52.1666146 210.918173,52 L211.084681,52.5880365 L212.29686,56.7718824 L214.594672,64.7137546 L214.97431,66.0250084 L214.97431,66.0250084 L216,69.5870226 Z"/>
    <rect width="36" height="22" x="198" y="6" fill="#3F3D56" fill-rule="nonzero" rx="11"/>
    <path fill="#000" fill-rule="nonzero" d="M229.59536,23.9974811 L200.376327,23.9974811 C198.514394,23.9974848 197.003904,22.6564812 197,21 L197,22.9962217 C197.003894,24.6537257 198.513249,25.996536 200.376327,26 L229.623673,26 C231.486751,25.996536 232.996106,24.6537257 233,22.9962217 L233,21 C232.996258,21.7994207 232.635222,22.5646814 231.996521,23.127001 C231.357819,23.6893207 230.49392,24.0025054 229.59536,23.9974811 L229.59536,23.9974811 Z" opacity=".1"/>
    <path fill="#FFE09C" fill-rule="nonzero" d="M333.917025,143.972165 C333.917025,143.972165 335.6864,144.279386 335.974437,142.852515 C336.118456,142.169802 335.631535,137.786782 335.076034,133.403763 C334.80857,131.246389 334.520533,129.095842 334.287359,127.375404 C334.00618,125.26582 333.800438,123.811641 333.800438,123.811641 L333.47811,122.746608 L331.571575,116.370065 L329.774768,110.362188 L328.451166,108 L318.925347,112.615142 L313,122.808052 L314.837955,123.961837 L315.160283,124.166651 L318.541297,127.689452 L328.01911,137.588795 L332.284811,142.046913 L332.785448,142.565775 L333.917025,143.972165 Z"/>
    <path fill="#E7C4C3" fill-rule="nonzero" d="M326.105853,103 C326.105853,103 315.348792,107.94974 312.762009,113.329289 C312.762009,113.329289 310.344851,117.856153 310.040939,120.261698 C310.040939,120.261698 309.334168,122.459272 313.793895,123 C313.793895,123 315.822329,114.923744 321.907631,111.415945 L328,107.915078 L326.105853,103 Z"/>
    <ellipse cx="325.891" cy="114.71" fill="#FF7F8E" fill-rule="nonzero" rx="3.593" ry="3.042" transform="rotate(-74.995 325.89 114.71)"/>
    <ellipse cx="324.76" cy="127.247" fill="#FF7F8E" fill-rule="nonzero" rx="3.578" ry="3.029" transform="rotate(-75.08 324.76 127.247)"/>
    <path fill="#FF7F8E" fill-rule="nonzero" d="M318.632667,126.143865 C319.729143,125.674968 320.544035,124.678311 320.821755,123.466493 C321.32328,121.495948 320.442223,119.532542 318.85632,119.089883 C317.270417,118.647225 315.582853,119.882385 315.088106,121.852931 C315.049113,121.986071 315.019662,122.122106 315,122.259891 L315.318536,122.474081 L318.632667,126.143865 Z M332.322941,132.919399 C333.286527,133.158941 334.299177,132.856461 335,132.119758 C334.735683,129.863626 334.451034,127.614634 334.220603,125.81544 L334.132497,125.81544 C332.546594,125.365642 330.859031,126.607942 330.357506,128.578488 C329.855981,130.549033 330.743816,132.47674 332.322941,132.919399 Z"/>
    <path fill="#E7C4C3" fill-rule="nonzero" d="M329.402564,104.900148 C329.402564,104.900148 327.84419,101.318999 326,103.989335 C326.155451,106.15744 326.858506,108.248512 328.041538,110.061418 C328.041538,110.061418 333.682989,125.621129 333.213435,128.001661 C333.213435,128.001661 335.438712,143.030065 334.887496,143.871876 C334.887496,143.871876 335.499958,144.934491 335.935486,140.939336 C336.371014,136.944182 334.458773,125.207123 334.458773,125.207123 L331.661866,113.007757 L329.790456,108.867701 L329.402564,104.900148 Z"/>
    <path fill="#FFF" fill-rule="nonzero" d="M329.402564,104.900148 C329.402564,104.900148 327.84419,101.318999 326,103.989335 C326.155451,106.15744 326.858506,108.248512 328.041538,110.061418 C328.041538,110.061418 333.682989,125.621129 333.213435,128.001661 C333.213435,128.001661 335.438712,143.030065 334.887496,143.871876 C334.887496,143.871876 335.499958,144.934491 335.935486,140.939336 C336.371014,136.944182 334.458773,125.207123 334.458773,125.207123 L331.661866,113.007757 L329.790456,108.867701 L329.402564,104.900148 Z" opacity=".2"/>
    <path fill="#FBBEBE" fill-rule="nonzero" d="M311,109.660367 C311,109.660367 313.611182,117.798824 316,115.633609 L314.094028,105 L311,109.660367 Z"/>
    <path fill="#A0616A" fill-rule="nonzero" d="M115.682223,144 C115.682223,144 140.465544,186.133836 146.256295,191.763639 C146.256295,191.763639 171.019105,217.704891 158.432597,215.911081 C157.509632,215.779995 139.385333,200.318733 138.325632,197.779802 C137.265932,195.240871 103,150.31973 103,150.31973 L107.888296,145.780011 L115.682223,144 Z"/>
    <path fill="#000" fill-rule="nonzero" d="M115.682223,144 C115.682223,144 140.465544,186.133836 146.256295,191.763639 C146.256295,191.763639 171.019105,217.704891 158.432597,215.911081 C157.509632,215.779995 139.385333,200.318733 138.325632,197.779802 C137.265932,195.240871 103,150.31973 103,150.31973 L107.888296,145.780011 L115.682223,144 Z" opacity=".1"/>
    <path fill="#2F2E41" fill-rule="nonzero" d="M138.528997,281.940307 C138.528997,281.940307 130.452437,291.829453 133.822312,295.785111 C137.192187,299.74077 153.978898,307.304261 159.395763,306.990536 C165.11898,306.663171 184.300809,307.672546 184.976177,299.07922 C184.976177,299.07922 186.319949,295.123562 168.823058,294.462012 C151.326166,293.800462 156.701256,276 156.701256,276 L138.528997,281.940307 Z"/>
    <path fill="#605D82" fill-rule="nonzero" d="M43.275697,195.498353 C43.275697,195.498353 35.3025909,222.983035 59.2219091,227.678248 L85.1345039,226.339731 C85.1345039,226.339731 121.680198,218.960548 131.653454,224.328487 C131.653454,224.328487 135.640007,225.022019 134.306574,230.362218 C132.97314,235.702416 136.29985,271.932539 136.29985,271.932539 L136.29985,284 C136.29985,284 158.892609,284 161.552602,281.31603 C161.552602,281.31603 159.559325,270.587087 161.552602,261.897128 C163.545878,253.207169 158.232765,225.68781 158.232765,225.68781 L157.703516,209.174808 C157.621245,205.008241 155.316446,201.210954 151.675573,199.243427 C150.418875,198.572081 149.021531,198.213058 147.599666,198.196193 C147.599666,198.196193 102.414149,190.823945 86.4679372,192.162463 C70.521725,193.50098 43.275697,195.498353 43.275697,195.498353 Z"/>
    <path fill="#FFBCA3" fill-rule="nonzero" d="M88.201,110 C88.201,110 100.381,124.024368 101.732,128.701461 C103.083,133.378553 118,145.378714 118,145.378714 C118,145.378714 107.171,153.392639 109.201,157.399601 C111.231,161.406564 94.991,144.045363 94.991,144.045363 L76,116.680573 L88.201,110 Z"/>
    <path fill="#000" fill-rule="nonzero" d="M88.201,110 C88.201,110 100.381,124.024368 101.732,128.701461 C103.083,133.378553 118,145.378714 118,145.378714 C118,145.378714 107.171,153.392639 109.201,157.399601 C111.231,161.406564 94.991,144.045363 94.991,144.045363 L76,116.680573 L88.201,110 Z" opacity=".1"/>
    <path fill="#A0616A" fill-rule="nonzero" d="M96,93.0301733 C96,93.0301733 89.9378103,112.709332 89.9378103,120.208497 C89.9378103,127.707662 64.3372526,118.170298 65.0131519,114.093901 C65.6890513,110.017504 79.8341607,95.0683719 80.51006,88.9537761 C81.1859593,82.8391804 96,93.0301733 96,93.0301733 Z"/>
    <path fill="#000" fill-rule="nonzero" d="M76.4533206,106.408123 C76.4533206,106.408123 52.7401434,100.409187 49.3555499,134.410052 C45.9709563,168.410916 52.0604217,172.403311 41.8996337,193.068611 C31.7388456,213.73391 111,195.737103 111,195.737103 C111,195.737103 106.935685,191.068965 94.0630174,193.068611 L87.9665446,175.071803 C87.9665446,175.071803 85.9343869,167.073222 97.4546184,167.073222 C108.97485,167.073222 103.551091,143.739431 103.551091,143.739431 C103.551091,143.739431 97.4546184,123.742978 94.0630174,121.743333 C90.6714164,119.743688 84.6029733,107.745816 76.4533206,106.408123 Z" opacity=".1"/>
    <path fill="#FFBCA3" fill-rule="nonzero" d="M76.4533206,105.408245 C76.4533206,105.408245 52.7401434,99.4093165 49.3555499,133.403243 C45.9709563,167.397169 52.0604217,171.40335 41.8996337,192.068623 C31.7388456,212.733897 111,194.737112 111,194.737112 C111,194.737112 106.935685,190.06898 94.0630174,192.068623 L87.9665446,174.071839 C87.9665446,174.071839 85.9554093,166.087058 97.4756407,166.087058 C108.995872,166.087058 103.572114,142.753296 103.572114,142.753296 C103.572114,142.753296 97.4756407,122.756869 94.0840397,120.757226 C90.6924387,118.757584 84.6029733,106.732146 76.4533206,105.408245 Z"/>
    <circle cx="90" cy="82" r="22" fill="#A0616A" fill-rule="nonzero"/>
    <polygon fill="#DADAE5" fill-rule="nonzero" points="86 195.613 141.429 229 193 180.578 131.521 159 87.279 189.349"/>
    <polygon points="147.084 98.558 130 151.002 191.96 171 218 97"/>
    <polygon fill="#DADAE5" fill-rule="nonzero" points="152.122 102.639 135 154.403 191.768 171 216 101"/>
    <polygon fill="#000" fill-rule="nonzero" points="147 98.594 151.647 103 215.531 101.327 217 97" opacity=".03"/>
    <polygon fill="#000" fill-rule="nonzero" points="130 150.855 146.464 99 151 103.256 134.704 153" opacity=".03"/>
    <polygon fill="#EFF0F4" fill-rule="nonzero" points="147 98.594 151.647 103 215.531 101.327 217 97"/>
    <polygon fill="#EFF0F4" fill-rule="nonzero" points="130 150.861 146.464 99 151 103.256 134.704 153"/>
    <polygon fill="#000" fill-rule="nonzero" points="147 98.503 154.204 105 219 103.423 217.991 97" opacity=".03"/>
    <polygon fill="#000" fill-rule="nonzero" points="130 150.413 146.887 98 154 104.727 137.285 155" opacity=".03"/>
    <polygon fill="#000" fill-rule="nonzero" points="130 152 131.552 161.796 193 183 191.207 171.634" opacity=".03"/>
    <polygon fill="#000" fill-rule="nonzero" points="84 184.363 129.99 152 132 161.841 86.823 195" opacity=".03"/>
    <polygon fill="#EFF0F4" fill-rule="nonzero" points="130 151 131.337 159.83 193 182 191.415 171.529"/>
    <polygon fill="#EFF0F4" fill-rule="nonzero" points="84 183.635 130.205 151 132 159.555 86.619 193"/>
    <polygon fill="#000" fill-rule="nonzero" points="130 151 131.337 159.83 193 182 191.415 171.529" opacity=".03"/>
    <polygon fill="#000" fill-rule="nonzero" points="84 183.635 130.205 151 132 159.555 86.619 193" opacity=".03"/>
    <polygon fill="#CCCAD6" fill-rule="nonzero" points="83 184 85.091 196.231 141 229 139.622 216.412"/>
    <path fill="#FFE09C" fill-rule="nonzero" d="M109.310925,181.688185 C109.310925,181.688185 108.344967,183.544153 109.818227,184.398599 C110.51316,184.804811 115.537531,185.79933 120.58275,186.751827 C123.056714,187.214068 125.537628,187.662302 127.532088,188.012485 C129.964356,188.446711 131.646095,188.71285 131.646095,188.71285 L132.924773,188.71285 L140.652437,188.859927 L147.921444,189 L151,188.362667 L149.227919,176.190317 L140.026996,166 L138.10203,167.638855 L137.775411,167.919001 L132.716293,170.398295 L118.442354,177.401949 L112.021167,180.553593 L111.270638,180.924787 L109.310925,181.688185 Z"/>
    <path fill="#E7C4C3" fill-rule="nonzero" d="M156,187.669387 C156,187.669387 154.230557,174.3042 149.128306,169.61935 C149.128306,169.61935 144.935649,165.398764 142.356099,164.245137 C142.356099,164.245137 140.160284,162.704623 138,167.347268 C138,167.347268 146.292933,172.369765 148.083695,180.184882 L149.867351,188 L156,187.669387 Z"/>
    <ellipse cx="142.708" cy="180.647" fill="#FF7F8E" fill-rule="nonzero" rx="3.459" ry="4.08" transform="rotate(-57.43 142.708 180.647)"/>
    <ellipse cx="130.096" cy="177.791" fill="#FF7F8E" fill-rule="nonzero" rx="3.459" ry="4.08" transform="rotate(-57.43 130.096 177.791)"/>
    <path fill="#FF7F8E" fill-rule="nonzero" d="M132.274901,170.68595 C132.382188,172.060674 133.145262,173.296576 134.320219,173.998623 C136.188277,175.203857 138.526758,174.887052 139.535782,173.309917 C140.544805,171.732782 139.856215,169.432507 137.981339,168.227273 C137.853378,168.144878 137.721403,168.069025 137.585911,168 L137.265478,168.275482 L132.274901,170.68595 Z M120.466595,183.53719 C119.880408,184.521203 119.844235,185.742681 120.371146,186.760331 C122.798258,187.214876 125.232187,187.655647 127.188875,188 L127.250235,187.910468 C128.259258,186.312672 127.56385,184.033058 125.695792,182.827824 C123.827735,181.62259 121.482436,181.939394 120.466595,183.53719 Z"/>
    <path fill="#E7C4C3" fill-rule="nonzero" d="M155.1415,191 C155.1415,191 159.6441,190.544186 157.347284,187.789767 C154.907953,187.236057 152.356315,187.276426 149.938651,187.906977 C149.938651,187.906977 130.77284,188.701395 128.286957,187.425116 C128.286957,187.425116 110.920786,184.820465 110.220537,184 C110.220537,184 108.820039,184.286512 113.077552,186.044651 C117.335065,187.802791 130.954905,189.63907 130.954905,189.63907 L145.401038,190.706977 L150.596885,190.107907 L155.1415,191 Z"/>
    <path fill="#FFF" fill-rule="nonzero" d="M155.1415,191 C155.1415,191 159.6441,190.544186 157.347284,187.789767 C154.907953,187.236057 152.356315,187.276426 149.938651,187.906977 C149.938651,187.906977 130.77284,188.701395 128.286957,187.425116 C128.286957,187.425116 110.920786,184.820465 110.220537,184 C110.220537,184 108.820039,184.286512 113.077552,186.044651 C117.335065,187.802791 130.954905,189.63907 130.954905,189.63907 L145.401038,190.706977 L150.596885,190.107907 L155.1415,191 Z" opacity=".2"/>
    <polygon fill="#CCCAD6" fill-rule="nonzero" points="140 215.328 191.422 170 193 180.006 141.364 228"/>
    <polygon fill="#CCCAD6" fill-rule="nonzero" points="197.702 173 191 170.42 217.036 97 222 100.477"/>
    <path fill="#FFF" fill-rule="nonzero" d="M155.94825,281.199204 C156.000439,279.442733 156.259687,277.698073 156.720827,276 L156.379779,276.115993 C156.045776,277.789696 155.901058,279.494402 155.94825,281.199204 Z M159.407446,305.673673 C153.992447,305.987536 137.20456,298.413892 133.842806,294.456493 C133.399043,293.923206 133.127627,293.272281 133.063269,292.586962 C132.862398,293.711218 133.144519,294.866866 133.842806,295.780175 C137.20456,299.737574 153.992447,307.304395 159.407446,306.990532 C165.128691,306.663023 184.30391,307.672842 184.979045,299.075733 C185.025719,298.844713 184.993939,298.605066 184.888563,298.393423 C183.343409,306.294576 164.982528,305.366634 159.407446,305.673673 Z" opacity=".1"/>
    <path fill="#FFE09C" fill-rule="nonzero" d="M178.430598,142.949458 C178.430598,142.949458 179.633532,141.571053 178.542499,140.578602 C178.017964,140.09616 173.905609,138.249097 169.765278,136.443387 C167.730082,135.561208 165.680898,134.692813 164.051343,134.00361 L160.659349,132.576961 L159.561322,132.30128 L152.95218,130.640302 L146.73469,129.075812 L143.937169,129 L143,139.606826 L148.867799,150 L150.840051,149.007548 L151.182748,148.835248 L156.029452,147.760092 L169.723316,144.755169 L175.870867,143.376764 L176.570247,143.218247 L178.430598,142.949458 Z"/>
    <path fill="#E7C4C3" fill-rule="nonzero" d="M140.215334,129 C140.215334,129 138.957211,140.687842 142.523133,145.671951 C142.523133,145.671951 145.381827,150.061882 147.436513,151.571795 C147.436513,151.571795 149.074306,153.305398 152,149.796249 C152,149.796249 145.642385,143.896406 145.709385,136.91306 L145.768942,129.922724 L140.215334,129 Z"/>
    <ellipse cx="150.484" cy="137.593" fill="#FF7F8E" fill-rule="nonzero" rx="3.03" ry="3.576" transform="rotate(-44.19 150.484 137.593)"/>
    <ellipse cx="160.683" cy="142.56" fill="#FF7F8E" fill-rule="nonzero" rx="3.03" ry="3.576" transform="rotate(-44.19 160.683 142.56)"/>
    <path fill="#FF7F8E" fill-rule="nonzero" d="M157.273017,147.754587 C157.451262,146.566509 157.067174,145.36198 156.24181,144.520642 C154.91975,143.144495 152.93666,142.91055 151.779857,144.073394 C150.623054,145.236239 150.775091,147.31422 152.090541,148.724771 C152.178142,148.821769 152.270828,148.913652 152.368174,149 L152.692079,148.827982 L157.273017,147.754587 Z M169.521905,139.188073 C170.20242,138.461677 170.470419,137.418825 170.229207,136.43578 C168.30561,135.555046 166.368791,134.688073 164.828591,134 L164.755878,134.061927 C163.612296,135.224771 163.751112,137.309633 165.066562,138.720183 C166.382012,140.130734 168.378323,140.350917 169.521905,139.188073 Z M176,143.37156 C175.824862,143.029694 175.602108,142.716674 175.33897,142.442661 C174.01691,141.03211 172.033819,140.832569 170.883627,141.995413 C170.199579,142.719707 169.933247,143.765848 170.182935,144.747706 L176,143.37156 Z"/>
    <path fill="#E7C4C3" fill-rule="nonzero" d="M142.795348,127.027887 C142.795348,127.027887 138.947971,126.560432 140.280544,129.453234 C142.195732,130.422903 144.329776,130.889412 146.478715,130.808176 C146.478715,130.808176 162.613095,133.829698 164.417194,135.442079 C164.417194,135.442079 178.337453,141.119287 178.767977,142 C178.767977,142 179.99121,142 176.82037,139.622076 C173.649531,137.244152 162.6951,132.94221 162.6951,132.94221 L150.886456,129.182245 L146.430879,128.701241 L142.795348,127.027887 Z"/>
    <path fill="#FFF" fill-rule="nonzero" d="M142.795348,127.027887 C142.795348,127.027887 138.947971,126.560432 140.280544,129.453234 C142.195732,130.422903 144.329776,130.889412 146.478715,130.808176 C146.478715,130.808176 162.613095,133.829698 164.417194,135.442079 C164.417194,135.442079 178.337453,141.119287 178.767977,142 C178.767977,142 179.99121,142 176.82037,139.622076 C173.649531,137.244152 162.6951,132.94221 162.6951,132.94221 L150.886456,129.182245 L146.430879,128.701241 L142.795348,127.027887 Z" opacity=".2"/>
    <path fill="#A0616A" fill-rule="nonzero" d="M123.758478,143.275343 C125.734846,142.224472 127.523634,140.845819 129.05068,139.196543 C129.738873,138.37381 130.316955,137.446494 131.025793,136.637706 C132.812514,134.703606 135.134681,133.362004 137.687499,132.788992 C140.220033,132.225542 142.809905,131.97041 145.40214,132.029011 C147.136959,131.91705 148.877295,132.129768 150.536057,132.656518 C152.222788,133.215416 153.507128,134.614082 153.93573,136.358814 C154.314236,138.450506 152.965378,140.479447 151.348125,141.825103 C149.842124,143.070004 148.07001,143.941436 146.172915,144.369995 C144.626564,144.641042 143.066555,144.824929 141.500087,144.920807 C132.292068,145.89693 124.075047,150.97277 116.036955,155.59541 C108.94857,159.660265 104.929525,159.472012 97.5727443,163 C97.2837033,160.768862 93.9528505,162.497994 94,160.245939 C94.0423155,158.565613 94.1248987,155.999803 95.6939781,155.009736 C97.5176889,153.859305 100.511327,153.615274 102.575905,152.918044 C107.319256,151.342323 111.952158,149.44386 116.442989,147.235613 C118.925071,146.003839 121.363567,144.683749 123.758478,143.275343 Z"/>
    <path fill="#000" fill-rule="nonzero" d="M61.9705597,135.867803 L97.242753,168 C97.242753,168 103.895417,154.613893 105.890529,154.613893 C107.88564,154.613893 81.9491923,115.141151 81.9491923,115.141151 C81.9491923,115.141151 75.2965278,107.108102 71.306305,111.124627 C67.3160823,115.141151 55.3178952,112.43346 61.9705597,135.867803 Z" opacity=".1"/>
    <path fill="#FFBCA3" fill-rule="nonzero" d="M61.974443,134.875076 L97.2394409,167 C97.2394409,167 103.894642,153.609999 105.890515,153.609999 C107.886387,153.609999 81.9331654,114.146192 81.9331654,114.146192 C81.9331654,114.146192 75.2779638,106.108037 71.2862193,110.123653 C67.2944748,114.139268 55.3192414,111.446036 61.974443,134.875076 Z"/>
    <path fill="#3F3D56" fill-rule="nonzero" d="M121.20979,78.6496938 C121.985836,77.7886252 122.615994,76.8071224 123.075476,75.7437942 C126.141028,68.8249857 121.279146,60.1349623 112.977189,57.7548921 C108.815807,56.5441006 104.155059,56.7862589 100.000612,55.4993606 C96.6576354,54.4684581 93.8417669,52.5173541 90.7762154,50.9952162 C85.0154345,48.163786 78.6414879,46.7993867 72.2233868,47.0238201 C65.9466355,47.245222 59.1219688,49.4454031 56.5488476,54.2816503 C52.7897324,61.3249973 59.7045623,70.1949098 55.5154377,77.051449 C52.4360149,82.0883416 44.966334,83.5758854 38.7728103,85.7622289 C32.3606859,87.9745027 26.5229134,91.5835324 21.6834012,96.3272495 C16.8284554,101.170415 13.3606369,107.812472 15.8019811,113.817997 C17.2237867,117.339671 20.4349865,120.093357 22.9873009,123.130714 C31.7423266,133.377699 32.5075132,148.212975 24.8529872,159.302244 C23.6600577,161.01119 22.2659947,162.678623 21.7735644,164.615889 C20.5945062,169.237653 25.3523531,173.887093 30.8523131,174.786538 C36.3522731,175.685983 42.0603022,173.638016 46.3395901,170.614496 C50.2903659,167.897482 53.4702747,164.20811 55.5709228,159.904181 C60.6547446,149.152352 57.0828916,137.072113 56.5765901,125.496946 C56.5141694,124.147778 56.5765901,122.680991 57.5267724,121.622413 C58.9971274,120.038006 61.7713821,120.079519 64.1433699,119.871955 C70.2814085,119.332288 75.9339526,115.900559 78.5348164,111.168094 C83.507668,102.062942 77.7164112,89.3392529 86.4067642,82.4896325 C97.3442635,73.8687971 113.088159,87.4988499 121.20979,78.6496938 Z"/>
    <path fill="#000" fill-rule="nonzero" d="M110.994443,58 L110.925196,58 C114.165993,61.7405385 115.384754,66.7923358 113.459665,71.1539969 C113.000902,72.2146438 112.37173,73.1936718 111.596899,74.0525692 C103.487982,82.8794118 87.7687306,69.2837277 76.8483523,77.8828253 C68.1716027,84.7151742 73.9537942,97.4067798 68.9887268,106.488973 C66.4127085,111.209505 60.7482383,114.632581 54.6198078,115.170887 C52.251533,115.377928 49.4816209,115.33652 48.0135675,116.916932 C47.0371735,117.97284 47.0025496,119.435929 47.0648727,120.781695 C47.5703816,132.327674 51.1366434,144.377453 46.0607795,155.10217 C43.9634197,159.395247 40.7884885,163.075316 36.8438971,165.785479 C32.5713077,168.787572 26.8791384,170.857981 21.3808629,169.960804 L21,169.877987 C22.8966907,172.518886 25.7786245,174.289447 28.9981211,174.791757 C34.4963966,175.682033 40.153942,173.611624 44.4611553,170.60263 C48.4057467,167.892467 51.5806779,164.212398 53.6780377,159.919321 C58.7539016,149.194604 55.1876398,137.144825 54.6821309,125.598846 C54.6198078,124.25308 54.6821309,122.789991 55.6308258,121.734083 C57.0988792,120.153671 59.8687912,120.195079 62.2370661,119.988038 C68.3654965,119.449732 74.0091924,116.026656 76.605985,111.306124 C81.5710524,102.223931 75.7888609,89.5323252 84.4656105,82.6999764 C95.3859889,74.1008787 111.10524,87.6965628 119.214158,78.8697202 C119.988988,78.0108228 120.61816,77.0317949 121.076923,75.9711479 C124.137676,69.0490814 119.283405,60.436181 110.994443,58 Z" opacity=".1"/>
  </g>
</svg>
