<svg xmlns="http://www.w3.org/2000/svg" width="736" height="591" viewBox="0 0 736 591">
  <g fill="none" fill-rule="evenodd">
    <path fill="#FFBCA3" fill-rule="nonzero" d="M736,590.530206 C736,520.091557 419.019325,488.497649 368.002515,491.154278 C316.985705,493.810908 0,516.405828 0,590.530206 C0,591.587243 736,590.530206 736,590.530206 Z" opacity=".5"/>
    <path fill="#3F3D56" fill-rule="nonzero" d="M676.73,343.08 C662.874398,317.491722 643.236646,295.491276 619.38,278.83 C617.674961,277.653047 615.707687,276.911457 613.65,276.67 C616.46,258.19 615.87,237.77 605.44,222.37 C580.69,185.83 454.59,223.54 454.59,223.54 C366.2,192.9 289.59,231.79 289.59,231.79 C289.59,231.79 191.77,216.47 146.99,228.26 C125.87,233.82 120.74,255.36 121.22,276.58 L121.15,276.58 C117.356755,276.573233 113.767348,278.296148 111.4,281.26 C99.49,296.14 63.51,341.97 64.49,350.82 C65.67,361.43 104.56,499.31 102.8,565.9 L646.09,559.9 C646.09,559.9 655.09,425.9 677.6,352.55 C678.575634,349.402689 678.262745,345.996869 676.73,343.08 Z"/>
    <polygon fill="#000" fill-rule="nonzero" points="109.88 351.42 132.27 306.63 151.12 393.84 151.34 434.32" opacity=".1"/>
    <polygon fill="#000" fill-rule="nonzero" points="623.7 351.42 601.31 306.63 575.34 389.32 580.34 436.32" opacity=".1"/>
    <polygon fill="#3F3D56" fill-rule="nonzero" points="149.48 391.46 575.38 389.13 580.1 436.27 151.12 435.09"/>
    <polygon fill="#000" fill-rule="nonzero" points="149.48 391.46 575.38 389.13 580.1 436.27 151.12 435.09" opacity=".1"/>
    <rect width="433" height="50.68" x="149.34" y="431.68" fill="#FFF" fill-rule="nonzero" opacity=".1" rx="10.47"/>
    <path fill="#FFE09C" fill-rule="nonzero" d="M493.73,262.14 C493.73,262.14 492.29,260.14 490.59,261.22 C489.78,261.75 485.97,266.55 482.23,271.43 C480.39,273.82 478.56,276.23 477.11,278.15 C475.32,280.51 474.11,282.15 474.11,282.15 L473.39,283.5 L469.02,291.67 L464.91,299.35 L463.91,302.97 L477.79,307.69 L493.59,303.38 L492.91,300.45 L492.79,299.95 L492.92,293.21 L493.28,274.21 L493.45,265.66 L493.45,264.66 L493.73,262.14 Z"/>
    <path fill="#E7C4C3" fill-rule="nonzero" d="M461.95,308.98 C461.95,308.98 476.95,314.33 484.64,311.53 C484.64,311.53 491.29,309.41 493.91,307.36 C493.91,307.36 496.7,305.9 492.91,301.14 C492.91,301.14 483.2,307.09 474.01,304.75 L464.82,302.4 L461.95,308.98 Z"/>
    <ellipse cx="486.553" cy="286.662" fill="#FF7F8E" fill-rule="nonzero" rx="4.91" ry="4.16" transform="rotate(-30.37 486.553 286.662)"/>
    <path fill="#FF7F8E" fill-rule="nonzero" d="M492.91 293.21C491.3815 292.57211 489.639274 292.709851 488.23 293.58 485.89 294.95 484.93 297.67 486.1 299.65 487.27 301.63 490.1 302.13 492.43 300.76 492.59 300.66 492.75 300.56 492.9 300.45L492.78 299.95 492.91 293.21zM475.94 285.28C475.377733 284.350449 474.447162 283.703411 473.38 283.5L469.01 291.67C470.56329 292.370238 472.363408 292.25023 473.81 291.35 476.15 289.98 477.1 287.26 475.94 285.28zM493.44 265.65C492.924075 265.779427 492.429137 265.981443 491.97 266.25 489.63 267.62 488.68 270.34 489.84 272.32 490.578079 273.501062 491.877343 274.213195 493.27 274.2L493.44 265.65z"/>
    <path fill="#E7C4C3" fill-rule="nonzero" d="M459.49,304.75 C459.49,304.75 457.57,309.75 461.95,308.95 C463.899166,306.690276 465.23215,303.965753 465.82,301.04 C465.82,301.04 475.29,280.29 478.09,278.39 C478.09,278.39 490.43,261.52 491.76,261.27 C491.76,261.27 492.19,259.63 487.88,263.1 C483.57,266.57 474.13,279.93 474.13,279.93 L465.13,294.6 L463.01,300.45 L459.49,304.75 Z"/>
    <path fill="#FFF" fill-rule="nonzero" d="M459.49,304.75 C459.49,304.75 457.57,309.75 461.95,308.95 C463.899166,306.690276 465.23215,303.965753 465.82,301.04 C465.82,301.04 475.29,280.29 478.09,278.39 C478.09,278.39 490.43,261.52 491.76,261.27 C491.76,261.27 492.19,259.63 487.88,263.1 C483.57,266.57 474.13,279.93 474.13,279.93 L465.13,294.6 L463.01,300.45 L459.49,304.75 Z" opacity=".2"/>
    <path fill="#FBBEBE" fill-rule="nonzero" d="M310.74,406.32 C312.390387,411.743339 314.422118,417.043217 316.82,422.18 C323.706048,420.73995 330.48006,418.808337 337.09,416.4 C337.3,416.33 333.3,411.1 332.88,410.67 C331.251118,408.869627 329.30983,407.378934 327.15,406.27 C325.04,405.35 322.44,406.05 320.15,406.17 C317.03,406.33 313.893333,406.38 310.74,406.32 Z"/>
    <path fill="#2F2E41" fill-rule="nonzero" d="M327.19,414.53 C323.75,413.45 321.65,409.98 320.25,406.64 C318.85,403.3 317.72,399.64 315.06,397.2 C314.033909,397.356424 313.154899,398.017559 312.72,398.96 C312.304872,399.896998 311.840901,400.811587 311.33,401.7 C310.23,403.3 308.33,404.08 306.88,405.44 C305.43,406.8 304.62,408.87 303.11,410.24 C301.21,411.96 298.53,412.39 296.04,412.96 C292.183064,413.835582 288.457862,415.214041 284.96,417.06 C283.672768,417.836874 282.296045,418.45472 280.86,418.9 C279.278704,419.208384 277.658322,419.262396 276.06,419.06 L265.06,418.28 C264.080227,418.154332 263.086272,418.194902 262.12,418.4 C259.832778,419.234486 258.395305,421.505694 258.62,423.93 C258.904992,426.304561 260.165915,428.453203 262.1,429.86 C264.022187,431.226168 266.139297,432.294836 268.38,433.03 C277.975634,436.657476 287.856361,439.480541 297.92,441.47 L297.92,443.65 C304.915612,447.098299 312.610683,448.891192 320.41,448.89 C320.985223,448.930828 321.561753,448.831308 322.09,448.6 C322.811657,448.077979 323.316873,447.309481 323.51,446.44 C326.158071,438.694875 327.703216,430.615683 328.1,422.44 C328.295882,420.371575 328.136929,418.284888 327.63,416.27 C327.03,414.27 329.09,415.12 327.18,414.34"/>
    <path fill="#29A389" fill-rule="nonzero" d="M538.51,372.99 C505.84,374.99 473.51,365.38 440.85,364.36 C436.78331,364.103231 432.700475,364.365339 428.7,365.14 C424.5,366.08 420.58,367.98 416.7,369.8 C399.15,377.96 381.01,384.72 362.88,391.47 L342.06,399.23 C337.9,400.78 333.59,402.35 329.16,402.08 C327.16,401.96 324.73,401.66 323.62,403.31 C320.23,408.31 321.83,415.7 324.07,421.31 C324.79,423.13 326.07,425.11 327.97,425.31 C329.34,425.45 330.62,424.66 331.97,424.31 C335.76,423.31 339.54,425.85 343.44,426.26 C348.26,426.77 352.73,424.03 357.28,422.35 C364.82,419.56 373.07,419.65 381,418.35 C394.3,416.13 406.62,409.96 418.14,402.93 C422.52,400.25 426.96,397.38 432,396.4 C437.79,395.27 443.74,396.76 449.43,398.4 C462.972645,402.229701 476.304407,406.76931 489.37,412 C496.25,414.76 503.09,417.71 510.25,419.62 C525.73842,423.692471 542.120431,422.736445 557.03,416.89 C562.25,414.82 567.94,411.17 568.24,405.53 C568.41,402.31 565.91,399.53 564.24,396.73 C563.18,394.96 562.11,393.2 560.94,391.5 C555.27,383.24 548.43,372.4 538.51,372.99 Z"/>
    <path fill="#000" fill-rule="nonzero" d="M538.51,372.99 C505.84,374.99 473.51,365.38 440.85,364.36 C436.78331,364.103231 432.700475,364.365339 428.7,365.14 C424.5,366.08 420.58,367.98 416.7,369.8 C399.15,377.96 381.01,384.72 362.88,391.47 L342.06,399.23 C337.9,400.78 333.59,402.35 329.16,402.08 C327.16,401.96 324.73,401.66 323.62,403.31 C320.23,408.31 321.83,415.7 324.07,421.31 C324.79,423.13 326.07,425.11 327.97,425.31 C329.34,425.45 330.62,424.66 331.97,424.31 C335.76,423.31 339.54,425.85 343.44,426.26 C348.26,426.77 352.73,424.03 357.28,422.35 C364.82,419.56 373.07,419.65 381,418.35 C394.3,416.13 406.62,409.96 418.14,402.93 C422.52,400.25 426.96,397.38 432,396.4 C437.79,395.27 443.74,396.76 449.43,398.4 C462.972645,402.229701 476.304407,406.76931 489.37,412 C496.25,414.76 503.09,417.71 510.25,419.62 C525.73842,423.692471 542.120431,422.736445 557.03,416.89 C562.25,414.82 567.94,411.17 568.24,405.53 C568.41,402.31 565.91,399.53 564.24,396.73 C563.18,394.96 562.11,393.2 560.94,391.5 C555.27,383.24 548.43,372.4 538.51,372.99 Z" opacity=".1"/>
    <path fill="#FBBEBE" fill-rule="nonzero" d="M373.46,407.91 C378.566667,409.65 383.726667,411.253333 388.94,412.72 C391.85,407.94 397.3,404.61 398.54,399.15 C398.645303,398.905801 398.641027,398.628205 398.528253,398.387366 C398.415479,398.146526 398.204997,397.965487 397.95,397.89 C394.225032,395.826871 390.089298,394.614497 385.84,394.34 C382.48,394.13 380.95,397.63 379.42,400.1 C378.81,401.09 374.83,408.38 373.46,407.91 Z"/>
    <path fill="#2F2E41" fill-rule="nonzero" d="M380.66,404.42 C377.572571,403.898004 374.845092,402.106282 373.14,399.48 C372.42,398.22 371.65,396.48 370.21,396.61 C368.77,396.74 368.21,398.3 367.95,399.61 C366.98027,404.568583 365.571385,409.431078 363.74,414.14 C361.901347,418.85889 358.784944,422.972543 354.74,426.02 C352.84,427.33 350.74,428.32 348.88,429.7 C347.21,430.93 345.76,432.49 343.88,433.44 C342.651221,434.00912 341.38088,434.483826 340.08,434.86 C338.171669,435.533291 336.346502,436.422388 334.64,437.51 C333.141185,438.376953 331.87232,439.590948 330.94,441.05 C329.982164,442.551957 329.865029,444.441229 330.63,446.05 C331.429724,447.357687 332.751051,448.260413 334.26,448.53 C335.749392,448.790175 337.26888,448.830605 338.77,448.65 C344.72,448.21 350.67,447.65 356.62,447.15 C359.134201,446.997639 361.634071,446.663432 364.1,446.15 C365.41,445.83 366.68,445.42 367.98,445.08 C370.205156,444.50828 372.484457,444.173089 374.78,444.08 C375.452045,444.027222 376.128179,444.088074 376.78,444.26 C378.16,444.71 379.13,446.08 380.56,446.36 C381.472393,446.447032 382.392599,446.323882 383.25,446 C387.53,444.83 392.04,444.86 396.47,444.62 C398.47,444.52 400.71,444.15 401.61,442.4 C402.73,440.22 400.87,437.78 400.14,435.4 C399.767291,433.903836 399.559387,432.371385 399.52,430.83 C399.183126,427.026509 398.066605,423.333139 396.24,419.98 C394.73,417.2 392.66,414.12 393.72,411.13 C394.08,410.13 394.8,409.13 394.72,408.13 C394.38,403.34 383.37,404.99 380.66,404.42 Z"/>
    <path fill="#FBBEBE" fill-rule="nonzero" d="M489.52,320.58 C483.737258,318.025258 479.105927,313.418865 476.52,307.65 C475.97,306.41 475.52,305.12 475,303.87 C473.284958,299.709369 470.620685,296.007467 467.22,293.06 C466.480415,292.25171 465.425069,291.806201 464.33,291.84 C463.265269,292.164308 462.456118,293.034526 462.21,294.12 C461.910724,295.258008 461.835999,296.443418 461.99,297.61 C462.28218,300.358434 462.756557,303.084432 463.41,305.77 L464.99,312.98 C465.184851,314.091538 465.520905,315.173631 465.99,316.2 C466.668461,317.415182 467.567085,318.49353 468.64,319.38 C470.09,320.72 471.56,322.01 473.05,323.27 C475.127348,325.257983 477.832346,326.460204 480.7,326.67 C487.18,327.87 493.78,329.61 499.26,333.84 C499.19,333.84 499.26,329 499.14,328.45 C498.89,327 498.69,325.56 497.75,324.58 C495.6,322.38 492.11,321.75 489.52,320.58 Z"/>
    <path fill="#000" fill-rule="nonzero" d="M489.52,320.58 C483.737258,318.025258 479.105927,313.418865 476.52,307.65 C475.97,306.41 475.52,305.12 475,303.87 C473.284958,299.709369 470.620685,296.007467 467.22,293.06 C466.480415,292.25171 465.425069,291.806201 464.33,291.84 C463.265269,292.164308 462.456118,293.034526 462.21,294.12 C461.910724,295.258008 461.835999,296.443418 461.99,297.61 C462.28218,300.358434 462.756557,303.084432 463.41,305.77 L464.99,312.98 C465.184851,314.091538 465.520905,315.173631 465.99,316.2 C466.668461,317.415182 467.567085,318.49353 468.64,319.38 C470.09,320.72 471.56,322.01 473.05,323.27 C475.127348,325.257983 477.832346,326.460204 480.7,326.67 C487.18,327.87 493.78,329.61 499.26,333.84 C499.19,333.84 499.26,329 499.14,328.45 C498.89,327 498.69,325.56 497.75,324.58 C495.6,322.38 492.11,321.75 489.52,320.58 Z" opacity=".1"/>
    <path fill="#2F2E41" fill-rule="nonzero" d="M551.13,252.55 C548.98,252.31 546.58,252.14 544.85,253.46 C543.931645,254.267357 543.198293,255.263351 542.7,256.38 C540.921354,259.43761 539.533826,262.706531 538.57,266.11 C537.86,269.03 537.74,272.11 536.86,274.95 C535.23,280.27 531.06,284.76 530.58,290.31 C530.37,292.79 530.79,295.7 528.97,297.4 C528.526137,297.773331 528.051061,298.107891 527.55,298.4 C526.292583,299.242176 525.226202,300.33922 524.42,301.62 C523.873815,302.770393 523.121381,303.810922 522.2,304.69 C520.58,305.89 517.9,305.76 517.1,307.62 C516.3,309.48 518.36,311.62 517.88,313.62 C517.49,315.26 515.66,316.01 514.4,317.13 C512.78,318.56 512.04,320.71 511.4,322.77 C506.022994,323.786531 500.470292,322.402008 496.2,318.98 C498.41,324.44 498.46,330.47 498.56,336.37 C498.56,338.28 498.56,340.43 497.16,341.76 C503.49,341.9 509.66,343.61 515.83,345.01 C518.53,345.62 521.46,346.15 523.97,345.01 C525.386905,344.247381 526.65131,343.230433 527.7,342.01 C531.06,338.6 534.58,334.89 535.4,330.16 C535.86,327.52 535.4,324.8 535.54,322.16 C535.848994,318.843503 536.519645,315.570727 537.54,312.4 C539.319422,305.824952 540.514073,299.105461 541.11,292.32 C541.47,288.14 545.11,284.77 546.99,281.02 C550.59,273.96 554.26,266.6 554.53,258.67 C554.66,256.05 553.76,252.84 551.13,252.55 Z"/>
    <path fill="#000" fill-rule="nonzero" d="M551.13,252.55 C548.98,252.31 546.58,252.14 544.85,253.46 C543.931645,254.267357 543.198293,255.263351 542.7,256.38 C540.921354,259.43761 539.533826,262.706531 538.57,266.11 C537.86,269.03 537.74,272.11 536.86,274.95 C535.23,280.27 531.06,284.76 530.58,290.31 C530.37,292.79 530.79,295.7 528.97,297.4 C528.526137,297.773331 528.051061,298.107891 527.55,298.4 C526.292583,299.242176 525.226202,300.33922 524.42,301.62 C523.873815,302.770393 523.121381,303.810922 522.2,304.69 C520.58,305.89 517.9,305.76 517.1,307.62 C516.3,309.48 518.36,311.62 517.88,313.62 C517.49,315.26 515.66,316.01 514.4,317.13 C512.78,318.56 512.04,320.71 511.4,322.77 C506.022994,323.786531 500.470292,322.402008 496.2,318.98 C498.41,324.44 498.46,330.47 498.56,336.37 C498.56,338.28 498.56,340.43 497.16,341.76 C503.49,341.9 509.66,343.61 515.83,345.01 C518.53,345.62 521.46,346.15 523.97,345.01 C525.386905,344.247381 526.65131,343.230433 527.7,342.01 C531.06,338.6 534.58,334.89 535.4,330.16 C535.86,327.52 535.4,324.8 535.54,322.16 C535.848994,318.843503 536.519645,315.570727 537.54,312.4 C539.319422,305.824952 540.514073,299.105461 541.11,292.32 C541.47,288.14 545.11,284.77 546.99,281.02 C550.59,273.96 554.26,266.6 554.53,258.67 C554.66,256.05 553.76,252.84 551.13,252.55 Z" opacity=".1"/>
    <path fill="#29A389" fill-rule="nonzero" d="M543.66,379.87 C536.86,376.63 531.88,370.6 526.38,365.43 C515.88,355.57 503.03,348.59 491.99,339.34 C484.67,333.22 478.13,326.08 470.09,320.95 C463.014121,316.452044 454.996473,313.646038 446.66,312.75 C445.704977,312.580269 444.723969,312.628123 443.79,312.89 C442.736002,313.356417 441.817405,314.08235 441.12,315 C437.557928,319.020626 434.390064,323.373928 431.66,328 C417.66,351.75 397.78,371.75 381.31,393.82 C380.232808,394.907135 380.146623,396.630836 381.11,397.82 L384.46,404.38 C386.33,408.06 389.34,412.38 393.38,411.61 C395.23,411.27 396.7,409.91 398.06,408.61 L413.06,394.24 L428.83,379.16 C438.07,370.33 447.46,361.29 453.49,350 C458.19,358.16 466.55,363.5 472.28,371 C474.46,373.84 476.28,377 478.18,380 C481.3,384.82 484.85,389.35 488.39,393.87 L506.48,416.96 C508.94,420.1 511.48,423.32 514.85,425.45 C519.14,428.16 524.35,428.88 529.39,429.33 C536.185541,429.936559 543.008388,430.18357 549.83,430.07 C555.03,429.98 560.39,429.64 565.06,427.33 C569.73,425.02 573.56,420.33 573.32,415.05 C573.034074,412.336675 572.142103,409.722277 570.71,407.4 C564.29,395.5 555.84,385.65 543.66,379.87 Z"/>
    <path fill="#FBBEBE" fill-rule="nonzero" d="M559.59,258.29 C560.964167,261.027592 561.20487,264.196245 560.26,267.11 C559.314387,269.984644 557.992942,272.721683 556.33,275.25 C554.899179,277.860053 553.185537,280.304761 551.22,282.54 C560.65,283 569.8,279.3 578.12,274.81 C584.82,271.21 591.5,266.75 595.12,260.01 C592.967875,260.531199 590.695652,260.11311 588.87,258.86 C587.074307,257.606196 585.465028,256.104651 584.09,254.4 L579.35,249.07 C578.237657,247.91167 577.261324,246.630023 576.44,245.25 C575.412658,243.362095 574.977113,241.20876 575.19,239.07 C573.308956,241.040863 571.204782,242.785951 568.92,244.27 C565.54,246.47 561.81,248.07 558.42,250.27 C557.22,251.04 554.54,252.27 555.23,253.86 C555.92,255.45 558.66,256.61 559.59,258.29 Z"/>
    <path fill="#000" fill-rule="nonzero" d="M559.59,258.29 C560.964167,261.027592 561.20487,264.196245 560.26,267.11 C559.314387,269.984644 557.992942,272.721683 556.33,275.25 C554.899179,277.860053 553.185537,280.304761 551.22,282.54 C560.65,283 569.8,279.3 578.12,274.81 C584.82,271.21 591.5,266.75 595.12,260.01 C592.967875,260.531199 590.695652,260.11311 588.87,258.86 C587.074307,257.606196 585.465028,256.104651 584.09,254.4 L579.35,249.07 C578.237657,247.91167 577.261324,246.630023 576.44,245.25 C575.412658,243.362095 574.977113,241.20876 575.19,239.07 C573.308956,241.040863 571.204782,242.785951 568.92,244.27 C565.54,246.47 561.81,248.07 558.42,250.27 C557.22,251.04 554.54,252.27 555.23,253.86 C555.92,255.45 558.66,256.61 559.59,258.29 Z" opacity=".1"/>
    <path fill="#B9EFE9" fill-rule="nonzero" d="M559.72,259.22 C557.95,262.22 557.57,265.72 559.72,268.44 C559.99,268.78 560.98,270.88 561.41,270.9 C561.826172,270.858377 562.211575,270.662107 562.49,270.35 C564.78,268.26 566.49,265.59 568.49,263.22 C570.49,260.85 573.04,258.7 576.1,258.22 C579.79,257.65 583.36,259.6 586.59,261.49 C587.994942,262.174987 589.220748,263.178231 590.17,264.42 C590.850788,265.651135 591.253565,267.016481 591.35,268.42 C592.46,276.83 592.44,285.35 592.41,293.83 C592.41,299.97 592.41,306.14 591.21,312.16 C590.61,315.28 589.71,318.33 589.28,321.47 C588.971496,324.242038 588.847889,327.03154 588.91,329.82 L588.91,341.5 C588.828933,343.643316 588.979809,345.789116 589.36,347.9 C589.91,350.46 591.12,352.82 591.93,355.31 C592.766283,358.171661 593.338675,361.103912 593.64,364.07 L595.24,376.16 C595.74,379.97 596.11,384.16 593.81,387.16 C592.81,388.54 591.4,389.65 590.35,391.03 C586.35,396.17 587.66,403.52 586.01,409.81 C584.711728,414.414845 582.039434,418.51399 578.35,421.56 C575.52,423.96 571.87,425.84 568.24,425.17 C563.33,424.26 560.38,419.17 559.04,414.3 C557.7,409.43 557.22,404.2 554.32,400.12 C551.95,396.78 548.32,394.68 544.96,392.3 C541.6,389.92 538.4,386.85 537.68,382.81 C537.36,381.05 537.56,379.24 537.37,377.46 C536.837499,372.864223 533.838579,368.925744 529.55,367.19 C527.04,366.19 523.94,365.86 522.55,363.56 C526.21,361.5 528.63,357.69 529.91,353.68 C531.19,349.67 531.45,345.41 531.7,341.21 L532.54,327.16 C532.91,320.88 533.08,314.66 535.85,309.02 C537.08,306.49 538.62,304.13 539.91,301.64 C541.611542,298.136196 543.065112,294.517308 544.26,290.81 C546.26,285.05 548.26,279.29 550.06,273.46 C550.77629,270.64375 551.844711,267.92902 553.24,265.38 C554.66,262.94 556.88,259.75 559.72,259.22 Z"/>
    <path fill="#2F2E41" fill-rule="nonzero" d="M528.52 350.5L532.24 350.63 533.03 345.02C533.130699 343.894811 533.393412 342.790069 533.81 341.74 534.425739 340.633187 535.142097 339.58543 535.95 338.61 539.61 333.44 539.34 326.61 540.25 320.3 541.46 311.92 544.96 304.08 548.42 296.37L555.66 280.28C557.093808 277.546588 557.783542 274.484167 557.66 271.4 557.73 268.91 558.46 259.87 558.53 257.4 558.53 256.48 556.53 256.99 556.08 256.17 555.18 254.38 553.94 259.23 552.25 260.29 550.56 261.35 549.62 263.29 548.91 265.15 547.35 269.2 546.4 273.46 544.91 277.55 543.42 281.64 541.44 285.66 538.17 288.55 536.69 289.85 534.99 290.87 533.59 292.26 529.1 296.7 528.66 303.71 528.5 310.04 528.42 313.75 527.66 350.5 528.52 350.5zM582.04 252.51C578.43 253.93 576.45 257.85 575.44 261.61 574.43 265.37 574.01 269.39 572.07 272.76 567.53 280.65 555.97 282.95 552.78 291.48 551.78 294.27 551.78 297.33 551.49 300.3 550.91 306.41 548.9 312.3 548.31 318.42 547.995147 323.16701 548.105587 327.932671 548.64 332.66L552.64 380.85C553.23 387.85 553.21 395.28 551.43 402.04 555.52 402.83 559.78 401.77 563.57 400.04 567.36 398.31 570.83 395.93 574.48 393.92 580.76 390.45 587.69 388 593.19 383.38 594.186797 382.604635 595.039742 381.660303 595.71 380.59 596.81 378.69 596.91 376.38 597.43 374.24 597.904254 372.529394 598.509372 370.857798 599.24 369.24 601.254605 364.383063 603.010401 359.422774 604.5 354.38 605.52315 351.035717 606.328176 347.628557 606.91 344.18 607.35 341.44 607.59 338.66 607.83 335.89 608.123008 331.549719 608.983673 327.266568 610.39 323.15 613.90417 313.337388 615.897203 303.045109 616.3 292.63 616.413259 291.126214 616.308849 289.613953 615.99 288.14 615.373167 286.352779 614.554546 284.641726 613.55 283.04 611.87 279.88 610.86 276.4 609.28 273.18 605.7 265.93 599.37 260.42 592.75 255.81 589.53 253.56 585.73 251.07 582.04 252.51z"/>
    <path fill="#FBBEBE" fill-rule="nonzero" d="M497.57,331.13 C494.698176,329.622793 492.098922,327.645467 489.88,325.28 C488.88,324.1 488.04,322.77 487.01,321.61 C484.413749,318.836026 481.039452,316.91184 477.33,316.09 C473.650022,315.281874 469.886728,314.915952 466.12,315 C463.599167,314.839421 461.070316,315.14451 458.66,315.9 C456.209043,316.701596 454.342793,318.707626 453.72,321.21 C453.17,324.21 455.13,327.12 457.48,329.05 C459.668341,330.835494 462.243368,332.085341 465,332.7 C467.246975,333.088748 469.513794,333.352487 471.79,333.49 C485.17,334.89 497.11,342.17 508.79,348.8 C519.09,354.633333 529.586667,360.08 540.28,365.14 C540.701484,361.934757 540.878662,358.702107 540.81,355.47 C540.75,353.06 540.63,349.38 538.35,347.96 C535.7,346.31 531.35,345.96 528.35,344.96 C521.457526,342.70003 514.725543,339.977168 508.2,336.81 C504.593333,335.043333 501.05,333.15 497.57,331.13 Z"/>
    <ellipse cx="556.676" cy="232.131" fill="#FBBEBE" fill-rule="nonzero" rx="23.97" ry="23.84" transform="rotate(-75.27 556.676 232.131)"/>
    <path fill="#2F2E41" fill-rule="nonzero" d="M588.86,279.69 C586.73,282.17 585.66,285.37 584.23,288.31 C581.29,294.37 576.67,299.57 574.36,305.91 C571.92,312.59 572,320.53 567.22,325.78 C566.39,326.69 565.39,327.57 565.15,328.78 C565.117109,329.514879 565.033578,330.246615 564.9,330.97 C564.22,332.87 561.1,332.97 560.52,334.91 C560.35,335.48 560.44,336.1 560.23,336.66 C559.75,337.91 558.1,338.1 556.99,338.86 C554.67,340.43 555.14,344.07 553.49,346.34 C552.014955,348.069764 549.719183,348.865632 547.49,348.42 C545.322617,347.975336 543.237658,347.196007 541.31,346.11 C540.625372,345.729669 539.8696,345.494767 539.09,345.42 C538.166111,345.449264 537.271686,345.752046 536.52,346.29 C532.12,349.09 530.05,354.64 530.079679,359.88 C530.11,365.12 531.91,370.16 533.75,375.06 C534.004515,375.886053 534.419053,376.653967 534.97,377.32 C536.43,378.86 538.97,378.62 540.91,377.76 C542.85,376.9 544.61,375.55 546.69,375.17 C550.38,374.5 553.99,377.04 557.69,376.83 C560.43,376.67 562.86,375.08 565.13,373.54 C568.77,371.08 572.47,368.54 575.13,365.06 C576.77,362.92 577.97,360.49 579.4,358.2 C581.229899,355.409897 583.233873,352.737931 585.4,350.2 L599.14,333.38 C600.519295,331.787273 601.757303,330.077484 602.84,328.27 C604.090578,325.828578 605.056897,323.251726 605.72,320.59 C607.03,316.1 608.35,311.59 608.57,306.9 C608.646376,303.051955 608.311138,299.206771 607.57,295.43 C607.095752,291.665585 606.085523,287.988351 604.57,284.51 C601.74,278.27 594.47,273.14 588.86,279.69 Z"/>
    <path fill="#9A5E7F" fill-rule="nonzero" d="M630.42,268.99 C632.652002,260.663422 630.747124,251.77151 625.3,245.09 C628.95,229.52 621,213.93 607,208.16 C607.5,193.56 598.25,180.16 584,176.4 C569.19,172.51 554,180.33 547.61,194.23 C538.61,189.56 529.09,190.06 525.95,195.55 C522.67,201.29 527.6,210.32 536.95,215.71 C539.897056,217.432248 543.122126,218.626844 546.48,219.24 C549.395918,227.487998 555.661075,234.119985 563.73,237.5 C563.227859,249.540143 569.578797,260.828548 580.13,266.65 C580.695207,270.753309 582.212276,274.667553 584.56,278.08 C584.284865,278.795973 584.051146,279.527181 583.86,280.27 C580.92,291.42 587.28,302.76 598.05,305.59 C608.82,308.42 619.94,301.68 622.87,290.53 C623.657526,287.557527 623.793968,284.450058 623.27,281.42 C626.726188,277.993824 629.195989,273.700171 630.42,268.99 L630.42,268.99 Z"/>
    <path fill="#000" fill-rule="nonzero" d="M532.12 198.45C535.26 192.96 544.77 192.45 553.78 197.13 560.15 183.23 575.36 175.4 590.17 179.3 590.84 179.47 591.5 179.68 592.17 179.9 589.637227 178.337805 586.887536 177.158403 584.01 176.4 569.2 172.51 554.01 180.33 547.62 194.23 538.62 189.56 529.1 190.06 525.96 195.55 522.68 201.29 527.61 210.32 536.96 215.71 538.714841 216.719849 540.563497 217.557102 542.48 218.21 533.54 212.75 528.92 204.05 532.12 198.45zM590.04 283.17C590.231146 282.427181 590.464865 281.695973 590.74 280.98 588.392148 277.563921 586.87514 273.646412 586.31 269.54 575.758679 263.723643 569.406974 252.437747 569.91 240.4 561.841075 237.019985 555.575918 230.387998 552.66 222.14 550.70202 221.790843 548.787552 221.23092 546.95 220.47 550.035116 228.155591 556.077144 234.280485 563.72 237.47 563.217859 249.510143 569.568797 260.798548 580.12 266.62 580.685207 270.723309 582.202276 274.637553 584.55 278.05 584.274865 278.765973 584.041146 279.497181 583.85 280.24 580.92 291.35 587.23 302.65 597.94 305.53 590.909283 300.44753 587.762567 291.541128 590.04 283.17L590.04 283.17z" opacity=".1"/>
    <ellipse cx="563.989" cy="236.471" fill="#FBBEBE" fill-rule="nonzero" rx="3.67" ry="4.91" transform="rotate(-37.22 563.989 236.47)"/>
    <ellipse cx="312.15" cy="59.2" fill="#3F3D56" fill-rule="nonzero" rx="45.69" ry="59.2"/>
    <path fill="#000" fill-rule="nonzero" d="M311.15,99.52 C288.26,99.52 269.3,77.71 265.97,49.26 C265.623604,52.2274083 265.45,55.2124421 265.45,58.2 C265.45,90.89 285.91,117.4 311.15,117.4 C336.39,117.4 356.84,90.89 356.84,58.2 C356.84,55.2124421 356.666396,52.2274083 356.32,49.26 C353,77.75 334.04,99.52 311.15,99.52 Z" opacity=".1"/>
    <path fill="#3F3D56" fill-rule="nonzero" d="M406.51,222.58 C405.51,226.58 401.3,229.84 396.62,232.09 C386.76,236.84 374.62,238.25 362.83,238.73 C359.830237,238.912021 356.820749,238.855176 353.83,238.56 C347.66,237.83 341.94,235.2 338.37,231.45 C337.86083,231.040587 337.507789,230.46866 337.37,229.83 C337.420362,229.055859 337.780904,228.334774 338.37,227.83 C344.66,220.97 355.14,216.75 365.66,213.75 C373.66,211.44 387.6,205.46 396.33,206.27 C404.81,207 407.75,217.48 406.51,222.58 Z"/>
    <path fill="#000" fill-rule="nonzero" d="M406.51,222.58 C405.51,226.58 401.3,229.84 396.62,232.09 C386.76,236.84 374.62,238.25 362.83,238.73 C359.830237,238.912021 356.820749,238.855176 353.83,238.56 C347.66,237.83 341.94,235.2 338.37,231.45 C337.86083,231.040587 337.507789,230.46866 337.37,229.83 C337.420362,229.055859 337.780904,228.334774 338.37,227.83 C344.66,220.97 355.14,216.75 365.66,213.75 C373.66,211.44 387.6,205.46 396.33,206.27 C404.81,207 407.75,217.48 406.51,222.58 Z" opacity=".1"/>
    <path fill="#B9EFE9" fill-rule="nonzero" d="M281.25,192.44 C278.251009,198.323636 277.707974,205.156531 279.74,211.44 C281.811641,217.688282 285.69239,223.180499 290.89,227.22 C303.66,237.47 321.18,238.88 337.51,238.75 C351.829043,238.620978 366.127693,237.63924 380.33,235.81 C385.06,235.2 389.84,234.48 394.22,232.59 C399.55,230.28 404.22,226.05 406.13,220.59 C408.04,215.13 406.69,208.37 402.13,204.71 C398.13,201.49 392.7,201.05 387.61,200.71 L358.46,198.96 C361.34,196.04 365.17,194.39 368.68,192.28 C373.33,189.46 376.42,184.74 379.81,180.49 C384.81,174.13 390.81,168.57 396.81,163.04 C397.81,168.48 401.2,172.95 405.25,176.71 C409.3,180.47 413.97,183.49 418.19,187.06 C428.39,195.72 435.73,207.48 446.46,215.48 C453.841654,213.539005 460.742601,210.093638 466.73,205.36 L462.56,197.81 C462.21775,197.019185 461.67693,196.330242 460.99,195.81 C459.8,195.09 458.28,195.46 456.91,195.26 C453.25,194.71 451.65,190.48 450.21,187.07 C446.27,177.69 438.71,170.42 432.21,162.56 C427.469431,156.765438 423.268611,150.549563 419.66,143.99 C417.49,140.08 415.51,135.99 412.56,132.62 C409.61,129.25 405.5,126.62 401.02,126.62 C397.02,126.62 393.42,128.62 390.02,130.62 C379.662825,136.773596 369.697049,143.563282 360.18,150.95 C355.18,154.81 350.25,158.9 344.41,161.27 C341.95,162.27 339.41,162.95 337,164.16 C332.87,166.29 329.73,169.89 326.35,173.08 C314.31,184.47 297.82,191.85 281.25,192.44 Z"/>
    <path fill="#FBBEBE" fill-rule="nonzero" d="M342.21,111.34 C342.080234,114.825502 341.338961,118.261083 340.02,121.49 C338.670403,124.732845 336.033258,127.268561 332.74,128.49 C330.422462,129.11131 327.992891,129.190014 325.64,128.72 C323.583936,128.498211 321.604607,127.814505 319.85,126.72 C317.12,124.84 315.76,121.49 315.26,118.21 C314.76,114.93 314.99,111.58 314.67,108.28 C314.358539,105.612833 313.85049,102.972316 313.15,100.38 C312.94,99.52 312.72,98.66 312.5,97.8 C312.28,96.94 312.09,96.08 311.9,95.22 C311.71,94.36 311.56,93.61 311.42,92.79 C311.28,91.97 311.2,91.41 311.13,90.72 C311.066238,88.6581031 310.729988,86.6137018 310.13,84.64 C309.560401,83.3622899 308.845702,82.154349 308,81.04 C307.64,80.52 307.29,80.04 307,79.47 C306.069069,78.0768221 305.635675,76.4101895 305.77,74.74 C305.808314,74.4810601 305.871952,74.2265063 305.96,73.98 C305.990597,73.8843946 306.02734,73.7908664 306.07,73.7 C306.793855,73.5012853 307.373523,72.959015 307.62,72.25 C307.756778,71.4963957 307.691215,70.7199959 307.43,70 C307.13607,68.9944276 306.730195,68.0250255 306.22,67.11 C305.89,66.51 304.76,65.42 304.75,64.73 C304.75,63.34 307.45,62.22 308.55,61.67 C311.910161,59.9845788 315.658815,59.225183 319.41,59.47 C321.81,59.63 324.41,60.37 325.74,62.39 C326.94,64.2 326.74,66.55 327.29,68.66 C327.335927,68.9680696 327.463706,69.2581634 327.66,69.5 C327.921104,69.7374289 328.249629,69.8877115 328.6,69.93 C329.185798,70.0481589 329.786732,70.0717911 330.38,70 L330.38,70 C330.53851,69.9914048 330.695865,69.9679689 330.85,69.93 C331.774738,69.7589976 332.649462,69.3831395 333.41,68.83 C333.91,68.69 334.41,68.59 334.9,68.5 L334.96,68.5 C336.96,74.78 337.21,81.5 338.84,87.92 C339.65,91.1 340.84,94.24 340.97,97.52 C340.97,97.66 340.97,97.81 340.97,97.95 C340.97,99.01 340.91,100.07 340.97,101.12 C340.988156,101.590018 341.04164,102.058005 341.13,102.52 C341.310384,103.26464 341.530703,103.999034 341.79,104.72 L341.79,104.72 C341.86,104.95 341.93,105.18 341.99,105.42 C342.039452,105.587637 342.079514,105.757901 342.11,105.93 L342.11,105.93 C342.403053,107.719166 342.436733,109.541227 342.21,111.34 L342.21,111.34 Z"/>
    <circle cx="314.33" cy="46.82" r="23.44" fill="#FBBEBE" fill-rule="nonzero"/>
    <path fill="#FBBEBE" fill-rule="nonzero" d="M463.16,174.54 C462.47691,168.151042 460.204428,162.034937 456.55,156.75 L458.38,167.6 C456.828906,168.04436 455.161765,167.530488 454.13,166.29 C453.141183,165.057032 452.385489,163.654084 451.9,162.15 C449.23673,155.539795 445.752728,149.290765 441.53,143.55 C426.61,142.3 411.85,136.12 398.73,128.9 C385.61,121.68 373.32,113.05 360.36,105.54 C358.112992,104.184914 355.773951,102.988661 353.36,101.96 C349.31,100.34 344.76,99.5 340.92,97.59 L340.15,97.18 C339.279554,96.7130713 338.455798,96.1639006 337.69,95.54 C337.278587,95.2003531 336.887887,94.836368 336.52,94.45 C334.60215,92.2220048 333.080138,89.681937 332.02,86.94 C329.96,82.38 329.22,76.87 327.17,72.31 C328.115865,71.4295312 329.17526,70.6795469 330.32,70.08 L330.32,70.08 L330.82,69.83 C331.634683,69.4496394 332.481289,69.1417829 333.35,68.91 C333.85,68.77 334.35,68.67 334.84,68.58 L334.9,68.58 C337.224017,68.2053945 339.603998,68.3940097 341.84,69.13 C345.1,70.24 347.84,72.44 350.6,74.53 C354.95,77.82 359.47,80.92 363.42,84.69 C365.68,86.86 367.75,89.24 370.18,91.21 C372.206073,92.7740337 374.341533,94.19099 376.57,95.45 L416.11,119 C420.57,121.65 425.04,124.31 429.4,127.13 C436.03,131.4 442.4,136.03 448.8,140.66 L460.09,148.84 C461.32673,149.641557 462.410403,150.657501 463.29,151.84 C464.064103,153.165955 464.544909,154.642473 464.7,156.17 C465.638157,162.329245 465.110543,168.622922 463.16,174.54 L463.16,174.54 Z"/>
    <path fill="#07454C" fill-rule="nonzero" d="M348.03,128.97 C346.44,136.06 339.28,140.35 335.53,146.58 C330.87,154.31 332.77,163.3 334.53,172.16 L324.94,180.42 C323.18,181.93 321.41,183.42 319.52,184.79 C316.747973,186.653344 313.851146,188.323948 310.85,189.79 L302.37,194.15 C299.7392,195.628061 296.952036,196.808665 294.06,197.67 C288.48,199.1 282.56,198.1 277.06,196.45 C276.409022,196.280327 275.783528,196.024749 275.2,195.69 C274.857014,195.48366 274.557997,195.211827 274.32,194.89 C273.771838,193.915489 273.574193,192.782555 273.76,191.68 C274.32,182.4 276.59,173.31 278.85,164.29 C280.037586,158.873025 281.645795,153.55691 283.66,148.39 C285.644081,143.967103 287.925988,139.683932 290.49,135.57 C293.49,130.5 296.49,125.39 300.49,121.04 C302.2,119.16 304.11,117.38 305.13,115.04 C306.54,111.82 305.99,108.13 306.28,104.63 C306.496188,101.995217 307.194437,99.4225418 308.34,97.04 C308.952711,95.7577375 309.689563,94.538582 310.54,93.4 C310.93,94.3 311.31,95.2 311.7,96.09 L312.45,97.85 C312.78,98.6 313.1,99.36 313.45,100.11 C314.383333,102.256667 318.01,108.4 328.713147,107.343466 C337.37,105.96 338.246812,98.7934372 337.67,95.51 C336.67,89.18 334.02,82.72 332.07,76.84 C331.274591,74.8808968 330.814827,72.8018173 330.71,70.69 C330.708517,70.4515401 330.731978,70.213579 330.78,69.98 L330.78,69.8 C331.594683,69.4196394 332.441289,69.1117829 333.31,68.88 C333.81,68.74 334.31,68.64 334.8,68.55 C336.52,77.8833333 338.243333,87.1966667 339.97,96.49 C339.97,96.71 340.06,96.93 340.1,97.15 C340.34,98.49 340.59,99.82 340.87,101.15 C341.15,102.48 341.39,103.56 341.69,104.75 C341.79,105.15 341.9,105.56 342.01,105.96 C342.32,107.06 342.66,108.14 343.01,109.22 C345.45,115.75 349.52,122.26 348.03,128.97 Z"/>
    <path fill="#2F2E41" fill-rule="nonzero" d="M443.17,228.64 C443.083512,230.017044 443.348475,231.393474 443.94,232.64 C445.4,235.32 448.94,235.93 451.94,236.18 C469.734365,237.64682 487.637362,237.103391 505.31,234.56 C506.270025,234.489905 507.200886,234.19901 508.03,233.71 C510.54,231.95 509.03,227.66 506.25,226.28 C503.47,224.9 500.25,225.28 497.25,224.65 C494.257658,223.893256 491.407488,222.657281 488.81,220.99 C482.71,217.483333 476.71,213.816667 470.81,209.99 C467.28,207.72 463.11,205.3 459.14,206.65 C448.35,210.29 443.09,217.03 443.17,228.64 Z"/>
    <path fill="#FBBEBE" fill-rule="nonzero" d="M311.99,94.75 L311.99,94.75 L311.9,95.24 L311.75,96.06 C311.26,98.58 310.65,101.06 309.96,103.59 C308.05,110.48 305.5,117.27 302.96,123.95 L282.55,177.75 C280.83,182.27 279.12,186.75 277.17,191.21 C276.52,192.68 275.85,194.21 275.17,195.67 C272.78,201.04 270.48,206.59 269.72,212.32 C269.22,216.11 268.72,219.98 269.47,223.73 C270.22,227.48 272.47,231.15 276.08,232.53 C277.82,233.21 280.31,234.12 279.83,235.93 C279.58,236.93 278.45,237.41 277.43,237.57 C274.721933,238.006702 271.96036,237.21087 269.9,235.4 C268,233.72 266.53,231.09 264,230.81 C262.25,230.62 260.64,231.67 259,232.4 C252.45,235.4 244.83,233.3 237.95,231.17 C238.49,228.39 241.29,226.55 244.06,226 C246.83,225.45 249.71,225.83 252.55,225.76 C253.458456,225.807488 254.359439,225.573512 255.13,225.09 C255.826358,224.467555 256.323759,223.653628 256.56,222.75 C258.38231,217.34269 259.73728,211.788987 260.61,206.15 C261.53,200.25 261.91,194.27 263.21,188.45 C264.21,183.91 265.79,179.51 267.13,175.05 C269.731289,165.87101 271.864044,156.565657 273.52,147.17 C274.359205,143.270159 274.960316,139.322864 275.32,135.35 C275.55,132.05 275.44,128.73 275.76,125.45 C276.291067,121.176161 277.180874,116.954597 278.42,112.83 C279.64,108.32 280.85,103.83 282.07,99.33 C283.87,92.67 285.8,85.76 290.36,80.59 C293.55967,76.9066088 298.144104,74.7157852 303.02,74.5398746 C303.924684,74.5358832 304.826981,74.6331568 305.71,74.83 L306.15,74.94 C307.115729,75.1887479 308.041523,75.5725317 308.9,76.08 C310.31,75.18 311.02,75.5 311.96,76.87 C312.775836,78.3330831 313.160683,79.9972844 313.07,81.67 C313.141984,86.0549392 312.780224,90.4362524 311.99,94.75 L311.99,94.75 Z"/>
    <path fill="#07454C" fill-rule="nonzero" d="M313.53,100.06 L313.47,100.12 L313.15,100.44 L309.96,103.63 L308.39,97.05 L303.02,74.51 C303.924684,74.5058832 304.826981,74.6031568 305.71,74.8 C305.748314,74.5410601 305.811952,74.2865063 305.9,74.04 L306.15,74.91 L307.97,81.1 L311.42,92.85 L311.99,94.79 L311.99,94.79 L313.53,100.06 Z"/>
    <rect width="50.86" height="31.79" x="288.58" y="9.25" fill="#3F3D56" fill-rule="nonzero" rx="12"/>
    <path fill="#000" fill-rule="nonzero" d="M333.94,35.85 L292.66,35.85 C290.029502,35.8500058 287.895515,33.7204922 287.89,31.09 L287.89,34.26 C287.895501,36.8921164 290.027884,39.0244992 292.66,39.03 L333.98,39.03 C336.612116,39.0244992 338.744499,36.8921164 338.75,34.26 L338.75,31.09 C338.744713,32.3594801 338.23465,33.5747141 337.332307,34.4676776 C336.429963,35.3606412 335.209466,35.8579785 333.94,35.85 L333.94,35.85 Z" opacity=".1"/>
    <path fill="#FFE09C" fill-rule="nonzero" d="M483.98,207.6 C483.98,207.6 486.56,208.05 486.98,205.96 C487.19,204.96 486.48,198.54 485.67,192.12 C485.28,188.96 484.86,185.81 484.52,183.29 C484.11,180.2 483.81,178.07 483.81,178.07 L483.34,176.51 L480.56,167.17 L477.94,158.37 L476.01,154.91 L462.12,161.67 L453.48,176.6 L456.16,178.29 L456.63,178.59 L461.56,183.75 L475.38,198.25 L481.6,204.78 L482.33,205.54 L483.98,207.6 Z"/>
    <path fill="#E7C4C3" fill-rule="nonzero" d="M473.06,148.97 C473.06,148.97 457.84,156.11 454.18,163.87 C454.18,163.87 450.76,170.4 450.33,173.87 C450.33,173.87 449.33,177.04 455.64,177.82 C455.64,177.82 458.51,166.17 467.12,161.11 L475.74,156.06 L473.06,148.97 Z"/>
    <ellipse cx="472.777" cy="165.755" fill="#FF7F8E" fill-rule="nonzero" rx="5.192" ry="4.399" transform="rotate(-74.995 472.777 165.755)"/>
    <ellipse cx="471.142" cy="183.871" fill="#FF7F8E" fill-rule="nonzero" rx="5.17" ry="4.38" transform="rotate(-75.08 471.142 183.871)"/>
    <path fill="#FF7F8E" fill-rule="nonzero" d="M461.56 183.75C463.177851 183.09325 464.380224 181.697305 464.79 180 465.53 177.24 464.23 174.49 461.89 173.87 459.55 173.25 457.06 174.98 456.33 177.74 456.272466 177.92648 456.229011 178.117015 456.2 178.31L456.67 178.61 461.56 183.75zM481.76 193.24C483.18177 193.575509 484.675936 193.151847 485.71 192.12 485.32 188.96 484.9 185.81 484.56 183.29L484.43 183.29C482.09 182.66 479.6 184.4 478.86 187.16 478.12 189.92 479.43 192.62 481.76 193.24z"/>
    <path fill="#E7C4C3" fill-rule="nonzero" d="M478.01,150.29 C478.01,150.29 475.72,145.1 473.01,148.97 C473.238432,152.112139 474.271557,155.142637 476.01,157.77 C476.01,157.77 484.3,180.32 483.61,183.77 C483.61,183.77 486.88,205.55 486.07,206.77 C486.07,206.77 486.97,208.31 487.61,202.52 C488.25,196.73 485.44,179.72 485.44,179.72 L481.33,162.04 L478.58,156.04 L478.01,150.29 Z"/>
    <path fill="#FFF" fill-rule="nonzero" d="M478.01,150.29 C478.01,150.29 475.72,145.1 473.01,148.97 C473.238432,152.112139 474.271557,155.142637 476.01,157.77 C476.01,157.77 484.3,180.32 483.61,183.77 C483.61,183.77 486.88,205.55 486.07,206.77 C486.07,206.77 486.97,208.31 487.61,202.52 C488.25,196.73 485.44,179.72 485.44,179.72 L481.33,162.04 L478.58,156.04 L478.01,150.29 Z" opacity=".2"/>
    <path fill="#FBBEBE" fill-rule="nonzero" d="M450.51,158.89 C450.51,158.89 454.62,170.73 458.38,167.58 L455.38,152.11 L450.51,158.89 Z"/>
    <path fill="#A0616A" fill-rule="nonzero" d="M169.41,207.52 C169.41,207.52 205.66,268.59 214.13,276.75 C214.13,276.75 250.35,314.35 231.94,311.75 C230.59,311.56 204.08,289.15 202.53,285.47 C200.98,281.79 150.86,216.68 150.86,216.68 L158.01,210.1 L169.41,207.52 Z"/>
    <path fill="#000" fill-rule="nonzero" d="M169.41,207.52 C169.41,207.52 205.66,268.59 214.13,276.75 C214.13,276.75 250.35,314.35 231.94,311.75 C230.59,311.56 204.08,289.15 202.53,285.47 C200.98,281.79 150.86,216.68 150.86,216.68 L158.01,210.1 L169.41,207.52 Z" opacity=".1"/>
    <path fill="#2F2E41" fill-rule="nonzero" d="M202.56,406.97 C202.56,406.97 190.96,421.47 195.8,427.27 C200.64,433.07 224.75,444.16 232.53,443.7 C240.75,443.22 268.3,444.7 269.27,432.1 C269.27,432.1 271.2,426.3 246.07,425.33 C220.94,424.36 228.66,398.26 228.66,398.26 L202.56,406.97 Z"/>
    <path fill="#605D82" fill-rule="nonzero" d="M64.32,284.19 C64.32,284.19 52.72,323.82 87.52,330.59 L125.22,328.66 C125.22,328.66 178.39,318.02 192.9,325.76 C192.9,325.76 198.7,326.76 196.76,334.46 C194.82,342.16 199.66,394.4 199.66,394.4 L199.66,411.8 C199.66,411.8 232.53,411.8 236.4,407.93 C236.4,407.93 233.5,392.46 236.4,379.93 C239.3,367.4 231.57,327.72 231.57,327.72 L230.8,303.91 C230.680304,297.902252 227.327074,292.426966 222.03,289.59 C220.201641,288.621991 218.168658,288.104317 216.1,288.08 C216.1,288.08 150.36,277.45 127.16,279.38 C103.96,281.31 64.32,284.19 64.32,284.19 Z"/>
    <path fill="#FFBCA3" fill-rule="nonzero" d="M129.09,157.54 C129.09,157.54 146.49,177.84 148.42,184.61 C150.35,191.38 171.66,208.75 171.66,208.75 C171.66,208.75 156.19,220.35 159.09,226.15 C161.99,231.95 138.79,206.82 138.79,206.82 L111.66,167.21 L129.09,157.54 Z"/>
    <path fill="#000" fill-rule="nonzero" d="M129.09,157.54 C129.09,157.54 146.49,177.84 148.42,184.61 C150.35,191.38 171.66,208.75 171.66,208.75 C171.66,208.75 156.19,220.35 159.09,226.15 C161.99,231.95 138.79,206.82 138.79,206.82 L111.66,167.21 L129.09,157.54 Z" opacity=".1"/>
    <path fill="#A0616A" fill-rule="nonzero" d="M140.66,134.34 C140.66,134.34 131.96,162.34 131.96,173.01 C131.96,183.68 95.22,170.11 96.19,164.31 C97.16,158.51 117.46,137.24 118.43,128.54 C119.4,119.84 140.66,134.34 140.66,134.34 Z"/>
    <path fill="#000" fill-rule="nonzero" d="M111.66,153.67 C111.66,153.67 77.82,144.97 72.99,194.28 C68.16,243.59 76.85,249.38 62.35,279.35 C47.85,309.32 160.96,283.22 160.96,283.22 C160.96,283.22 155.16,276.45 136.79,279.35 L128.09,253.25 C128.09,253.25 125.19,241.65 141.63,241.65 C158.07,241.65 150.33,207.81 150.33,207.81 C150.33,207.81 141.63,178.81 136.79,175.91 C131.95,173.01 123.29,155.61 111.66,153.67 Z" opacity=".1"/>
    <path fill="#FFBCA3" fill-rule="nonzero" d="M111.66,151.75 C111.66,151.75 77.82,143.05 72.99,192.35 C68.16,241.65 76.85,247.46 62.35,277.43 C47.85,307.4 160.96,281.3 160.96,281.3 C160.96,281.3 155.16,274.53 136.79,277.43 L128.09,251.33 C128.09,251.33 125.22,239.75 141.66,239.75 C158.1,239.75 150.36,205.91 150.36,205.91 C150.36,205.91 141.66,176.91 136.82,174.01 C131.98,171.11 123.29,153.67 111.66,151.75 Z"/>
    <circle cx="131.99" cy="119.84" r="31.9" fill="#A0616A" fill-rule="nonzero"/>
    <polygon fill="#DADAE5" fill-rule="nonzero" points="125.83 283.18 206 331.1 280.59 261.6 191.67 230.63 127.68 274.19"/>
    <polygon points="213.67 142.85 189.1 218.27 278.21 247.03 315.66 140.61"/>
    <polygon fill="#DADAE5" fill-rule="nonzero" points="220.44 149.04 195.49 223.24 278.21 247.03 313.52 146.69"/>
    <polygon fill="#000" fill-rule="nonzero" points="213.78 143.56 220.55 149.75 313.63 147.4 315.77 141.32" opacity=".03"/>
    <polygon fill="#000" fill-rule="nonzero" points="189.21 218.97 213.78 143.56 220.55 149.75 196.23 222.09" opacity=".03"/>
    <polygon fill="#EFF0F4" fill-rule="nonzero" points="213.67 142.85 220.44 149.04 313.52 146.69 315.66 140.61"/>
    <polygon fill="#EFF0F4" fill-rule="nonzero" points="189.1 218.27 213.67 142.85 220.44 149.04 196.12 221.38"/>
    <polygon fill="#000" fill-rule="nonzero" points="213.67 142.85 224.02 152.53 317.11 150.18 315.66 140.61" opacity=".03"/>
    <polygon fill="#000" fill-rule="nonzero" points="189.1 218.27 213.67 142.85 224.02 152.53 199.7 224.87" opacity=".03"/>
    <polygon fill="#000" fill-rule="nonzero" points="189.26 219.33 191.52 233.68 280.99 264.74 278.38 248.09" opacity=".03"/>
    <polygon fill="#000" fill-rule="nonzero" points="123.12 266.49 189.26 219.33 192.15 233.67 127.18 281.99" opacity=".03"/>
    <polygon fill="#EFF0F4" fill-rule="nonzero" points="189.1 218.27 191.04 230.64 280.51 261.7 278.21 247.03"/>
    <polygon fill="#EFF0F4" fill-rule="nonzero" points="122.95 265.42 189.1 218.27 191.67 230.63 126.7 278.95"/>
    <polygon fill="#000" fill-rule="nonzero" points="189.1 218.27 191.04 230.64 280.51 261.7 278.21 247.03" opacity=".03"/>
    <polygon fill="#000" fill-rule="nonzero" points="122.95 265.42 189.1 218.27 191.67 230.63 126.7 278.95" opacity=".03"/>
    <polygon fill="#CCCAD6" fill-rule="nonzero" points="122.95 265.42 125.94 283.25 205.89 331.02 203.92 312.67"/>
    <path fill="#FFE09C" fill-rule="nonzero" d="M159.38,262.6 C159.38,262.6 157.99,265.25 160.11,266.47 C161.11,267.05 168.34,268.47 175.6,269.83 C179.16,270.49 182.73,271.13 185.6,271.63 C189.1,272.25 191.52,272.63 191.52,272.63 L193.36,272.63 L204.48,272.84 L214.94,273.04 L219.37,272.13 L216.82,254.75 L203.58,240.2 L200.81,242.54 L200.34,242.94 L193.06,246.48 L172.52,256.48 L163.28,260.98 L162.2,261.51 L159.38,262.6 Z"/>
    <path fill="#E7C4C3" fill-rule="nonzero" d="M226.85,270.99 C226.85,270.99 224.36,251.99 217.18,245.33 C217.18,245.33 211.28,239.33 207.65,237.69 C207.65,237.69 204.56,235.5 201.52,242.1 C201.52,242.1 213.19,249.24 215.71,260.35 L218.22,271.46 L226.85,270.99 Z"/>
    <ellipse cx="207.843" cy="261.032" fill="#FF7F8E" fill-rule="nonzero" rx="5" ry="5.9" transform="rotate(-57.43 207.843 261.032)"/>
    <ellipse cx="189.602" cy="256.906" fill="#FF7F8E" fill-rule="nonzero" rx="5" ry="5.9" transform="rotate(-57.43 189.602 256.906)"/>
    <path fill="#FF7F8E" fill-rule="nonzero" d="M193.06 246.49C193.217365 248.486099 194.336615 250.280629 196.06 251.3 198.8 253.05 202.23 252.59 203.71 250.3 205.19 248.01 204.18 244.67 201.43 242.92 201.242311 242.800363 201.048734 242.690224 200.85 242.59L200.38 242.99 193.06 246.49zM175.74 265.15C174.880202 266.578787 174.827146 268.352373 175.6 269.83 179.16 270.49 182.73 271.13 185.6 271.63L185.69 271.5C187.17 269.18 186.15 265.87 183.41 264.12 180.67 262.37 177.23 262.83 175.74 265.15z"/>
    <path fill="#E7C4C3" fill-rule="nonzero" d="M223.66,275.92 C223.66,275.92 230.09,275.22 226.81,270.99 C223.326481,270.139659 219.682578,270.201654 216.23,271.17 C216.23,271.17 188.86,272.39 185.31,270.43 C185.31,270.43 160.51,266.43 159.51,265.17 C159.51,265.17 157.51,265.61 163.59,268.31 C169.67,271.01 189.12,273.83 189.12,273.83 L209.75,275.47 L217.17,274.55 L223.66,275.92 Z"/>
    <path fill="#FFF" fill-rule="nonzero" d="M223.66,275.92 C223.66,275.92 230.09,275.22 226.81,270.99 C223.326481,270.139659 219.682578,270.201654 216.23,271.17 C216.23,271.17 188.86,272.39 185.31,270.43 C185.31,270.43 160.51,266.43 159.51,265.17 C159.51,265.17 157.51,265.61 163.59,268.31 C169.67,271.01 189.12,273.83 189.12,273.83 L209.75,275.47 L217.17,274.55 L223.66,275.92 Z" opacity=".2"/>
    <polygon fill="#CCCAD6" fill-rule="nonzero" points="203.92 312.67 278.21 247.03 280.49 261.52 205.89 331.02"/>
    <polygon fill="#CCCAD6" fill-rule="nonzero" points="287.85 250.77 278.21 247.03 315.66 140.61 322.8 145.65"/>
    <path fill="#FFF" fill-rule="nonzero" d="M33.56 7.88C33.6349829 5.30570005 34.0074577 2.74871058 34.67.26L34.18.43C33.70012 2.88299459 33.4921969 5.38142642 33.56 7.88zM38.53 43.75C30.75 44.21 6.63 33.11 1.8 27.31 1.16242232 26.5284104.772465586 25.5744091.68 24.57.391398176 26.2177186.7967347 27.9114462 1.8 29.25 6.63 35.05 30.75 46.14 38.53 45.68 46.75 45.2 74.3 46.68 75.27 34.08 75.3370583 33.7414151 75.2913984 33.3901855 75.14 33.08 72.92 44.66 46.54 43.3 38.53 43.75z" opacity=".1" transform="translate(194 398)"/>
    <path fill="#FFE09C" fill-rule="nonzero" d="M260.78,207.13 C260.78,207.13 262.5,205.13 260.94,203.69 C260.19,202.99 254.31,200.31 248.39,197.69 C245.48,196.41 242.55,195.15 240.22,194.15 L235.37,192.08 L233.8,191.68 L224.35,189.27 L215.46,187 L211.46,186.89 L210.12,202.28 L218.51,217.36 L221.33,215.92 L221.82,215.67 L228.75,214.11 L248.33,209.75 L257.12,207.75 L258.12,207.52 L260.78,207.13 Z"/>
    <path fill="#E7C4C3" fill-rule="nonzero" d="M204.86,186.42 C204.86,186.42 203.17,203.14 207.96,210.27 C207.96,210.27 211.8,216.55 214.56,218.71 C214.56,218.71 216.76,221.19 220.69,216.17 C220.69,216.17 212.15,207.73 212.24,197.74 L212.32,187.74 L204.86,186.42 Z"/>
    <ellipse cx="219.088" cy="198.821" fill="#FF7F8E" fill-rule="nonzero" rx="4.38" ry="5.17" transform="rotate(-44.19 219.088 198.82)"/>
    <ellipse cx="233.839" cy="205.998" fill="#FF7F8E" fill-rule="nonzero" rx="4.38" ry="5.17" transform="rotate(-44.19 233.839 205.998)"/>
    <path fill="#FF7F8E" fill-rule="nonzero" d="M228.79 214.12C229.059647 212.393327 228.478602 210.642744 227.23 209.42 225.23 207.42 222.23 207.08 220.48 208.77 218.73 210.46 218.96 213.48 220.95 215.53 221.082522 215.670971 221.222736 215.804508 221.37 215.93L221.86 215.68 228.79 214.12zM247.32 201.67C248.349477 200.614304 248.754903 199.098693 248.39 197.67 245.48 196.39 242.55 195.13 240.22 194.13L240.11 194.22C238.38 195.91 238.59 198.94 240.58 200.99 242.57 203.04 245.59 203.36 247.32 201.67zM257.12 207.75C256.855053 207.253156 256.518073 206.798233 256.12 206.4 254.12 204.35 251.12 204.06 249.38 205.75 248.345178 206.802641 247.942274 208.323033 248.32 209.75L257.12 207.75z"/>
    <path fill="#E7C4C3" fill-rule="nonzero" d="M208.54,182.84 C208.54,182.84 202.91,182.15 204.86,186.42 C207.662562,187.851307 210.785383,188.539911 213.93,188.42 C213.93,188.42 237.54,192.88 240.18,195.26 C240.18,195.26 260.55,203.64 261.18,204.94 C261.18,204.94 262.97,204.94 258.33,201.43 C253.69,197.92 237.66,191.57 237.66,191.57 L220.38,186.02 L213.86,185.31 L208.54,182.84 Z"/>
    <path fill="#FFF" fill-rule="nonzero" d="M208.54,182.84 C208.54,182.84 202.91,182.15 204.86,186.42 C207.662562,187.851307 210.785383,188.539911 213.93,188.42 C213.93,188.42 237.54,192.88 240.18,195.26 C240.18,195.26 260.55,203.64 261.18,204.94 C261.18,204.94 262.97,204.94 258.33,201.43 C253.69,197.92 237.66,191.57 237.66,191.57 L220.38,186.02 L213.86,185.31 L208.54,182.84 Z" opacity=".2"/>
    <path fill="#A0616A" fill-rule="nonzero" d="M179.75,206.13 C182.621824,204.622793 185.221078,202.645467 187.44,200.28 C188.44,199.1 189.28,197.77 190.31,196.61 C192.906251,193.836026 196.280548,191.91184 199.99,191.09 C203.669978,190.281874 207.433272,189.915952 211.2,190 C213.720833,189.839421 216.249684,190.14451 218.66,190.9 C221.110957,191.701596 222.977207,193.707626 223.6,196.21 C224.15,199.21 222.19,202.12 219.84,204.05 C217.651659,205.835494 215.076632,207.085341 212.32,207.7 C210.073025,208.088748 207.806206,208.352487 205.53,208.49 C192.15,209.89 180.21,217.17 168.53,223.8 C158.23,229.63 152.39,229.36 141.7,234.42 C141.28,231.22 136.44,233.7 136.509248,230.47 C136.57,228.06 136.69,224.38 138.97,222.96 C141.62,221.31 145.97,220.96 148.97,219.96 C155.862474,217.70003 162.594457,214.977168 169.12,211.81 C172.726667,210.043333 176.27,208.15 179.75,206.13 Z"/>
    <path fill="#000" fill-rule="nonzero" d="M91.39,197.18 L142.66,243.58 C142.66,243.58 152.33,224.25 155.23,224.25 C158.13,224.25 120.43,167.25 120.43,167.25 C120.43,167.25 110.76,155.65 104.96,161.45 C99.16,167.25 81.72,163.34 91.39,197.18 Z" opacity=".1"/>
    <path fill="#FFBCA3" fill-rule="nonzero" d="M90.42,195.25 L141.66,241.65 C141.66,241.65 151.33,222.31 154.23,222.31 C157.13,222.31 119.42,165.31 119.42,165.31 C119.42,165.31 109.75,153.7 103.95,159.5 C98.15,165.3 80.75,161.41 90.42,195.25 Z"/>
    <path fill="#3F3D56" fill-rule="nonzero" d="M174.78,113.46 C175.898925,112.215467 176.807505,110.796866 177.47,109.26 C181.89,99.26 174.88,86.7 162.91,83.26 C156.91,81.51 150.19,81.86 144.2,80 C139.38,78.51 135.32,75.69 130.9,73.49 C122.593941,69.3976332 113.403802,67.4256184 104.15,67.75 C95.1,68.07 85.26,71.25 81.55,78.24 C76.13,88.42 86.1,101.24 80.06,111.15 C75.62,118.43 64.85,120.58 55.92,123.74 C46.6748152,126.937478 38.2577474,132.153737 31.28,139.01 C24.28,146.01 19.28,155.61 22.8,164.29 C24.85,169.38 29.48,173.36 33.16,177.75 C45.783247,192.560333 46.886515,214.002285 35.85,230.03 C34.13,232.5 32.12,234.91 31.41,237.71 C29.71,244.39 36.57,251.11 44.5,252.41 C52.43,253.71 60.66,250.75 66.83,246.38 C72.5263417,242.453003 77.1112254,237.120622 80.14,230.9 C87.47,215.36 82.32,197.9 81.59,181.17 C81.5,179.22 81.59,177.1 82.96,175.57 C85.08,173.28 89.08,173.34 92.5,173.04 C101.35,172.26 109.5,167.3 113.25,160.46 C120.42,147.3 112.07,128.91 124.6,119.01 C140.37,106.55 163.07,126.25 174.78,113.46 Z"/>
    <path fill="#000" fill-rule="nonzero" d="M162.91,83.22 L162.81,83.22 C167.49,88.64 169.25,95.96 166.47,102.28 C165.807505,103.816866 164.898925,105.235467 163.78,106.48 C152.07,119.27 129.37,99.57 113.6,112.03 C101.07,121.93 109.42,140.32 102.25,153.48 C98.53,160.32 90.35,165.28 81.5,166.06 C78.08,166.36 74.08,166.3 71.96,168.59 C70.55,170.12 70.5,172.24 70.59,174.19 C71.32,190.92 76.47,208.38 69.14,223.92 C66.1112254,230.140622 61.5263417,235.473003 55.83,239.4 C49.66,243.75 41.44,246.75 33.5,245.45 L32.95,245.33 C35.6889905,249.156633 39.8507599,251.722157 44.5,252.45 C52.44,253.74 60.61,250.74 66.83,246.38 C72.5263417,242.453003 77.1112254,237.120622 80.14,230.9 C87.47,215.36 82.32,197.9 81.59,181.17 C81.5,179.22 81.59,177.1 82.96,175.57 C85.08,173.28 89.08,173.34 92.5,173.04 C101.35,172.26 109.5,167.3 113.25,160.46 C120.42,147.3 112.07,128.91 124.6,119.01 C140.37,106.55 163.07,126.25 174.78,113.46 C175.898925,112.215467 176.807505,110.796866 177.47,109.26 C181.89,99.23 174.88,86.75 162.91,83.22 Z" opacity=".1"/>
  </g>
</svg>
