<svg xmlns="http://www.w3.org/2000/svg" width="163" height="165" viewBox="0 0 163 165">
  <g fill="none" fill-rule="evenodd">
    <path fill="#33CCAB" fill-rule="nonzero" d="M161,93.9959678 C155.853516,121.840745 120.952457,141.623006 99.2188927,149.858323 C77.485328,158.135444 58.2398723,171.410755 35.38,160.416398 C12.4784126,149.42204 5.26953125,128.920276 2.13476563,105.640276 C-1,82.3602764 -1,68.0575421 12,43.0802764 C25,18.1030108 49.2053648,0.270123537 75.95,0.270123537 C164.959677,13.0204783 166.146484,66.1511904 161,93.9959678 Z" transform="matrix(1 0 0 -1 0 164.86)"/>
    <path fill="#29A389" fill-rule="nonzero" d="M140.255146,139.685004 C126.343665,154.284625 105.391902,164.758921 75.95,164.590153 C54.6695723,164.590153 34.9968123,153.299761 21.2974255,136.103512 C27.5440091,125.750791 36.7,125 36.7,125 L124.41,125 C128.524033,125 135.322341,128.492325 140.255146,139.685004 Z"/>
    <path fill="#FDB797" fill-rule="nonzero" d="M65.63,92.3028305 L94.02,92.3028305 C95.8701539,92.3028305 97.37,93.8026766 97.37,95.6528305 L97.37,120.37283 C97.37,130.059905 89.5170745,137.91283 79.83,137.91283 L79.83,137.91283 C70.1429255,137.91283 62.29,130.059905 62.29,120.37283 L62.29,95.6528305 C62.29,93.8065748 63.7837525,92.3083417 65.63,92.3028305 Z"/>
    <path fill="#000" fill-rule="nonzero" d="M62.28,93.6028305 L97.37,93.6028305 L97.37,121.67283 C97.37,131.359905 89.5170745,139.21283 79.83,139.21283 L79.83,139.21283 C70.1429255,139.21283 62.29,131.359905 62.29,121.67283 L62.29,93.6028305 L62.28,93.6028305 Z" opacity=".05"/>
    <path fill="#000" fill-rule="nonzero" d="M62.35,106.85283 C73.6586913,111.079472 86.1074023,111.114949 97.44,106.95283 L97.44,102.64283 L62.35,102.64283 L62.35,106.85283 Z" opacity=".1"/>
    <ellipse cx="79.76" cy="57.76" fill="#F4F0EB" fill-rule="nonzero" rx="50.76" ry="51.76"/>
    <path fill="#F9C9B8" fill-rule="nonzero" d="M129.808678,65.7520969 C126.637386,90.474407 105.514868,109.58 79.93,109.58 C54.3734597,109.58 33.2693936,90.5166917 30.0619219,65.8341952 C27.7693659,65.2673788 26,61.5908976 26,57.14 C26,52.2964627 28.0953074,48.37 30.68,48.37 C30.7294932,48.37 30.7788069,48.3714397 30.8279299,48.374298 C35.8133014,25.8482042 55.9040962,9 79.93,9 C103.955246,9 124.045598,25.8472813 129.03166,48.3724472 C131.56477,48.48359 133.6,52.366405 133.6,57.14 C133.6,61.414125 131.968388,64.9741258 129.808679,65.7520908 Z"/>
    <path fill="#F4F0EB" fill-rule="nonzero" d="M129.55,59 L129.56,59.02 C129.492889,86.4948937 146.453235,139.029924 79.2266174,143.99 C12,148.950076 30.4518779,86.3769615 29.68,58.9128305 L58.94,82.11 C58.94,82.11 77.28,70.41 102.28,82.11 L129.55,59 Z M79.19,90.95 L79.18,90.95 C88.97,90.95 96.9,88.95 96.9,86.52 C96.9,84.09 88.97,82.09 79.19,82.09 C69.41,82.09 61.48,84.09 61.48,86.52 C61.48,88.95 69.41,90.95 79.19,90.95 Z"/>
    <path fill="#F4F0EB" d="M50.9677734,17.180933 C35.4251953,28.3359375 26.0011813,46.6725954 30.5462454,65.71 C30.5462454,65.71 32.8446899,70.0474365 35.4251953,76.1642578 C35.4251953,76.1642578 31.64,37.0618659 50.9677734,17.180933 Z"/>
    <path fill="#F4F0EB" d="M129.566991,17.180933 C114.024413,28.3359375 104.600399,46.6725954 109.145463,65.71 C109.145463,65.71 111.443908,70.0474365 114.024413,76.1642578 C114.024413,76.1642578 110.239218,37.0618659 129.566991,17.180933 Z" transform="matrix(-1 0 0 1 237.567 0)"/>
  </g>
</svg>
