<svg xmlns="http://www.w3.org/2000/svg" viewBox="0 0 1313 640"><g fill="none" fill-rule="evenodd"><path fill="#47445E" d="M.615 0c-10.003 345.865 100.03 540.79 472.14 552.785C762.84 562.781 1256.984 221.914 1306 0H.615z" style="mix-blend-mode:overlay"/><path fill="#6590ED" d="M185 0c38.994 277 117.983 320 198.971 373 48.993 25 81.477 32.15 164.976 62 241.965 97 362.948 205 581.916 205 233.966 0 233.966-295 48.993-640H185z" style="mix-blend-mode:overlay"/><path stroke="#000" stroke-width="2" d="M300 0c-48 112.907-132 170.86-141 283.767 9 145.88 297.26 184.611 575 179.852 276-10.99 533-82.932 533-198.836 0-58.952-64-160.868-231-264.783H300z"/></g></svg>
