<svg width="366" height="395" viewBox="0 0 366 395" fill="none" xmlns="http://www.w3.org/2000/svg">
<rect width="366" height="395" rx="16" fill="white"/>
<path d="M89.9419 175.237C58.9225 175.237 32 220.139 32 220.139V328H334V104C298.298 104 283.081 154.082 274.302 193.802C267.109 226.348 257.472 266.992 212.849 265.04C154.16 262.472 148.355 175.237 89.9419 175.237Z" fill="url(#paint0_linear)"/>
<path d="M89.9419 175.237C58.9225 175.237 32 220.139 32 220.139V328H334V104C298.298 104 283.081 154.082 274.302 193.802C267.109 226.348 257.472 266.992 212.849 265.04C154.16 262.472 148.355 175.237 89.9419 175.237Z" fill="url(#paint1_linear)"/>
<path d="M89.9419 175.237C58.9225 175.237 32 220.139 32 220.139V328H334V104C298.298 104 283.081 154.082 274.302 193.802C267.109 226.348 257.472 266.992 212.849 265.04C154.16 262.472 148.355 175.237 89.9419 175.237Z" fill="url(#paint2_linear)"/>
<path d="M32 220.139C32 220.139 58.9225 175.237 89.9419 175.237C148.355 175.237 154.16 262.472 212.849 265.04C257.472 266.992 267.109 226.348 274.302 193.802C283.081 154.082 298.298 104 334 104" stroke="url(#paint3_linear)" stroke-width="8" stroke-linecap="round" stroke-linejoin="round"/>
<path d="M36.632 352.128C36.0613 352.128 35.5387 352.053 35.064 351.904C34.5893 351.749 34.1813 351.531 33.84 351.248C33.4987 350.965 33.2347 350.624 33.048 350.224C32.8613 349.819 32.768 349.365 32.768 348.864C32.768 348.128 32.96 347.523 33.344 347.048C33.728 346.568 34.2773 346.227 34.992 346.024C34.3893 345.8 33.9333 345.467 33.624 345.024C33.32 344.576 33.168 344.043 33.168 343.424C33.168 343.003 33.2507 342.608 33.416 342.24C33.5813 341.872 33.816 341.552 34.12 341.28C34.424 341.008 34.7867 340.795 35.208 340.64C35.6347 340.485 36.1093 340.408 36.632 340.408C37.1493 340.408 37.6213 340.485 38.048 340.64C38.4747 340.795 38.84 341.008 39.144 341.28C39.448 341.552 39.6827 341.872 39.848 342.24C40.0133 342.608 40.096 343.003 40.096 343.424C40.096 344.043 39.9413 344.576 39.632 345.024C39.3227 345.467 38.8693 345.8 38.272 346.024C38.9867 346.227 39.536 346.568 39.92 347.048C40.304 347.523 40.496 348.128 40.496 348.864C40.496 349.365 40.4 349.819 40.208 350.224C40.0213 350.624 39.7573 350.965 39.416 351.248C39.08 351.531 38.6747 351.749 38.2 351.904C37.7253 352.053 37.2027 352.128 36.632 352.128ZM36.632 350.992C37.0053 350.992 37.3387 350.941 37.632 350.84C37.9307 350.733 38.1813 350.587 38.384 350.4C38.592 350.208 38.7493 349.981 38.856 349.72C38.968 349.453 39.024 349.16 39.024 348.84C39.024 348.445 38.9573 348.109 38.824 347.832C38.696 347.549 38.52 347.32 38.296 347.144C38.0773 346.968 37.824 346.84 37.536 346.76C37.248 346.675 36.9467 346.632 36.632 346.632C36.3173 346.632 36.016 346.675 35.728 346.76C35.44 346.84 35.184 346.968 34.96 347.144C34.7413 347.32 34.5653 347.549 34.432 347.832C34.304 348.109 34.24 348.445 34.24 348.84C34.24 349.16 34.2933 349.453 34.4 349.72C34.512 349.981 34.6693 350.208 34.872 350.4C35.08 350.587 35.3307 350.733 35.624 350.84C35.9227 350.941 36.2587 350.992 36.632 350.992ZM36.632 345.488C37.0053 345.488 37.3227 345.432 37.584 345.32C37.8507 345.203 38.0667 345.051 38.232 344.864C38.3973 344.672 38.5173 344.453 38.592 344.208C38.6667 343.963 38.704 343.709 38.704 343.448C38.704 343.181 38.6587 342.931 38.568 342.696C38.4827 342.461 38.352 342.256 38.176 342.08C38.0053 341.904 37.7893 341.765 37.528 341.664C37.272 341.563 36.9733 341.512 36.632 341.512C36.2907 341.512 35.9893 341.563 35.728 341.664C35.472 341.765 35.256 341.904 35.08 342.08C34.9093 342.256 34.7787 342.461 34.688 342.696C34.6027 342.931 34.56 343.181 34.56 343.448C34.56 343.709 34.5973 343.963 34.672 344.208C34.7467 344.453 34.8667 344.672 35.032 344.864C35.1973 345.051 35.4107 345.203 35.672 345.32C35.9387 345.432 36.2587 345.488 36.632 345.488ZM42.5693 352.168C42.4946 352.355 42.3826 352.493 42.2333 352.584C42.0893 352.675 41.9399 352.72 41.7853 352.72H41.1852L45.9933 340.744C46.0626 340.573 46.1613 340.443 46.2893 340.352C46.4173 340.261 46.5693 340.216 46.7453 340.216H47.3453L42.5693 352.168ZM49.546 350.912H52.01V343.096C52.01 342.861 52.018 342.624 52.034 342.384L49.986 344.136C49.9327 344.179 49.8793 344.211 49.826 344.232C49.7727 344.248 49.722 344.256 49.674 344.256C49.594 344.256 49.522 344.24 49.458 344.208C49.394 344.171 49.346 344.128 49.314 344.08L48.866 343.464L52.274 340.512H53.434V350.912H55.69V352H49.546V350.912Z" fill="#7C7995"/>
<path d="M82.632 352.128C82.0613 352.128 81.5387 352.053 81.064 351.904C80.5893 351.749 80.1813 351.531 79.84 351.248C79.4987 350.965 79.2347 350.624 79.048 350.224C78.8613 349.819 78.768 349.365 78.768 348.864C78.768 348.128 78.96 347.523 79.344 347.048C79.728 346.568 80.2773 346.227 80.992 346.024C80.3893 345.8 79.9333 345.467 79.624 345.024C79.32 344.576 79.168 344.043 79.168 343.424C79.168 343.003 79.2507 342.608 79.416 342.24C79.5813 341.872 79.816 341.552 80.12 341.28C80.424 341.008 80.7867 340.795 81.208 340.64C81.6347 340.485 82.1093 340.408 82.632 340.408C83.1493 340.408 83.6213 340.485 84.048 340.64C84.4747 340.795 84.84 341.008 85.144 341.28C85.448 341.552 85.6827 341.872 85.848 342.24C86.0133 342.608 86.096 343.003 86.096 343.424C86.096 344.043 85.9413 344.576 85.632 345.024C85.3227 345.467 84.8693 345.8 84.272 346.024C84.9867 346.227 85.536 346.568 85.92 347.048C86.304 347.523 86.496 348.128 86.496 348.864C86.496 349.365 86.4 349.819 86.208 350.224C86.0213 350.624 85.7573 350.965 85.416 351.248C85.08 351.531 84.6747 351.749 84.2 351.904C83.7253 352.053 83.2027 352.128 82.632 352.128ZM82.632 350.992C83.0053 350.992 83.3387 350.941 83.632 350.84C83.9307 350.733 84.1813 350.587 84.384 350.4C84.592 350.208 84.7493 349.981 84.856 349.72C84.968 349.453 85.024 349.16 85.024 348.84C85.024 348.445 84.9573 348.109 84.824 347.832C84.696 347.549 84.52 347.32 84.296 347.144C84.0773 346.968 83.824 346.84 83.536 346.76C83.248 346.675 82.9467 346.632 82.632 346.632C82.3173 346.632 82.016 346.675 81.728 346.76C81.44 346.84 81.184 346.968 80.96 347.144C80.7413 347.32 80.5653 347.549 80.432 347.832C80.304 348.109 80.24 348.445 80.24 348.84C80.24 349.16 80.2933 349.453 80.4 349.72C80.512 349.981 80.6693 350.208 80.872 350.4C81.08 350.587 81.3307 350.733 81.624 350.84C81.9227 350.941 82.2587 350.992 82.632 350.992ZM82.632 345.488C83.0053 345.488 83.3227 345.432 83.584 345.32C83.8507 345.203 84.0667 345.051 84.232 344.864C84.3973 344.672 84.5173 344.453 84.592 344.208C84.6667 343.963 84.704 343.709 84.704 343.448C84.704 343.181 84.6587 342.931 84.568 342.696C84.4827 342.461 84.352 342.256 84.176 342.08C84.0053 341.904 83.7893 341.765 83.528 341.664C83.272 341.563 82.9733 341.512 82.632 341.512C82.2907 341.512 81.9893 341.563 81.728 341.664C81.472 341.765 81.256 341.904 81.08 342.08C80.9093 342.256 80.7787 342.461 80.688 342.696C80.6027 342.931 80.56 343.181 80.56 343.448C80.56 343.709 80.5973 343.963 80.672 344.208C80.7467 344.453 80.8667 344.672 81.032 344.864C81.1973 345.051 81.4107 345.203 81.672 345.32C81.9387 345.432 82.2587 345.488 82.632 345.488ZM88.5693 352.168C88.4946 352.355 88.3826 352.493 88.2333 352.584C88.0893 352.675 87.9399 352.72 87.7853 352.72H87.1852L91.9933 340.744C92.0626 340.573 92.1613 340.443 92.2893 340.352C92.4173 340.261 92.5693 340.216 92.7453 340.216H93.3453L88.5693 352.168ZM98.058 340.408C98.5433 340.408 98.9967 340.48 99.418 340.624C99.8393 340.768 100.202 340.979 100.506 341.256C100.815 341.528 101.058 341.861 101.234 342.256C101.41 342.651 101.498 343.099 101.498 343.6C101.498 344.027 101.434 344.421 101.306 344.784C101.178 345.147 101.005 345.496 100.786 345.832C100.567 346.163 100.314 346.485 100.026 346.8C99.7433 347.109 99.442 347.427 99.122 347.752L96.106 350.84C96.3193 350.781 96.5353 350.736 96.754 350.704C96.9727 350.667 97.1833 350.648 97.386 350.648H101.226C101.381 350.648 101.503 350.693 101.594 350.784C101.685 350.875 101.73 350.992 101.73 351.136V352H94.082V351.512C94.082 351.411 94.1007 351.307 94.138 351.2C94.1807 351.093 94.2473 350.995 94.338 350.904L98.01 347.216C98.314 346.907 98.5913 346.611 98.842 346.328C99.0927 346.04 99.306 345.752 99.482 345.464C99.6633 345.176 99.802 344.885 99.898 344.592C99.994 344.293 100.042 343.976 100.042 343.64C100.042 343.304 99.9887 343.011 99.882 342.76C99.7753 342.504 99.6287 342.293 99.442 342.128C99.2553 341.963 99.0367 341.84 98.786 341.76C98.5353 341.675 98.266 341.632 97.978 341.632C97.69 341.632 97.4233 341.675 97.178 341.76C96.9327 341.845 96.714 341.965 96.522 342.12C96.3353 342.269 96.1753 342.448 96.042 342.656C95.914 342.864 95.8233 343.093 95.77 343.344C95.7273 343.499 95.6633 343.611 95.578 343.68C95.4927 343.749 95.3807 343.784 95.242 343.784C95.2153 343.784 95.186 343.784 95.154 343.784C95.1273 343.779 95.0953 343.773 95.058 343.768L94.314 343.64C94.3887 343.117 94.5327 342.656 94.746 342.256C94.9593 341.851 95.2287 341.512 95.554 341.24C95.8847 340.968 96.2607 340.763 96.682 340.624C97.1087 340.48 97.5673 340.408 98.058 340.408Z" fill="#7C7995"/>
<path d="M128.632 352.128C128.061 352.128 127.539 352.053 127.064 351.904C126.589 351.749 126.181 351.531 125.84 351.248C125.499 350.965 125.235 350.624 125.048 350.224C124.861 349.819 124.768 349.365 124.768 348.864C124.768 348.128 124.96 347.523 125.344 347.048C125.728 346.568 126.277 346.227 126.992 346.024C126.389 345.8 125.933 345.467 125.624 345.024C125.32 344.576 125.168 344.043 125.168 343.424C125.168 343.003 125.251 342.608 125.416 342.24C125.581 341.872 125.816 341.552 126.12 341.28C126.424 341.008 126.787 340.795 127.208 340.64C127.635 340.485 128.109 340.408 128.632 340.408C129.149 340.408 129.621 340.485 130.048 340.64C130.475 340.795 130.84 341.008 131.144 341.28C131.448 341.552 131.683 341.872 131.848 342.24C132.013 342.608 132.096 343.003 132.096 343.424C132.096 344.043 131.941 344.576 131.632 345.024C131.323 345.467 130.869 345.8 130.272 346.024C130.987 346.227 131.536 346.568 131.92 347.048C132.304 347.523 132.496 348.128 132.496 348.864C132.496 349.365 132.4 349.819 132.208 350.224C132.021 350.624 131.757 350.965 131.416 351.248C131.08 351.531 130.675 351.749 130.2 351.904C129.725 352.053 129.203 352.128 128.632 352.128ZM128.632 350.992C129.005 350.992 129.339 350.941 129.632 350.84C129.931 350.733 130.181 350.587 130.384 350.4C130.592 350.208 130.749 349.981 130.856 349.72C130.968 349.453 131.024 349.16 131.024 348.84C131.024 348.445 130.957 348.109 130.824 347.832C130.696 347.549 130.52 347.32 130.296 347.144C130.077 346.968 129.824 346.84 129.536 346.76C129.248 346.675 128.947 346.632 128.632 346.632C128.317 346.632 128.016 346.675 127.728 346.76C127.44 346.84 127.184 346.968 126.96 347.144C126.741 347.32 126.565 347.549 126.432 347.832C126.304 348.109 126.24 348.445 126.24 348.84C126.24 349.16 126.293 349.453 126.4 349.72C126.512 349.981 126.669 350.208 126.872 350.4C127.08 350.587 127.331 350.733 127.624 350.84C127.923 350.941 128.259 350.992 128.632 350.992ZM128.632 345.488C129.005 345.488 129.323 345.432 129.584 345.32C129.851 345.203 130.067 345.051 130.232 344.864C130.397 344.672 130.517 344.453 130.592 344.208C130.667 343.963 130.704 343.709 130.704 343.448C130.704 343.181 130.659 342.931 130.568 342.696C130.483 342.461 130.352 342.256 130.176 342.08C130.005 341.904 129.789 341.765 129.528 341.664C129.272 341.563 128.973 341.512 128.632 341.512C128.291 341.512 127.989 341.563 127.728 341.664C127.472 341.765 127.256 341.904 127.08 342.08C126.909 342.256 126.779 342.461 126.688 342.696C126.603 342.931 126.56 343.181 126.56 343.448C126.56 343.709 126.597 343.963 126.672 344.208C126.747 344.453 126.867 344.672 127.032 344.864C127.197 345.051 127.411 345.203 127.672 345.32C127.939 345.432 128.259 345.488 128.632 345.488ZM134.569 352.168C134.495 352.355 134.383 352.493 134.233 352.584C134.089 352.675 133.94 352.72 133.785 352.72H133.185L137.993 340.744C138.063 340.573 138.161 340.443 138.289 340.352C138.417 340.261 138.569 340.216 138.745 340.216H139.345L134.569 352.168ZM144.21 340.408C144.695 340.408 145.143 340.477 145.554 340.616C145.965 340.755 146.317 340.952 146.61 341.208C146.909 341.464 147.141 341.773 147.306 342.136C147.471 342.499 147.554 342.901 147.554 343.344C147.554 343.707 147.506 344.032 147.41 344.32C147.319 344.603 147.186 344.853 147.01 345.072C146.839 345.285 146.631 345.467 146.386 345.616C146.141 345.765 145.866 345.885 145.562 345.976C146.309 346.173 146.869 346.504 147.242 346.968C147.621 347.432 147.81 348.013 147.81 348.712C147.81 349.24 147.709 349.715 147.506 350.136C147.309 350.557 147.037 350.917 146.69 351.216C146.343 351.509 145.938 351.736 145.474 351.896C145.015 352.051 144.522 352.128 143.994 352.128C143.386 352.128 142.866 352.053 142.434 351.904C142.002 351.749 141.637 351.539 141.338 351.272C141.039 351.005 140.794 350.691 140.602 350.328C140.41 349.96 140.247 349.563 140.114 349.136L140.722 348.88C140.834 348.832 140.946 348.808 141.058 348.808C141.165 348.808 141.258 348.832 141.338 348.88C141.423 348.923 141.487 348.992 141.53 349.088C141.541 349.109 141.551 349.133 141.562 349.16C141.573 349.181 141.583 349.205 141.594 349.232C141.669 349.387 141.759 349.563 141.866 349.76C141.973 349.952 142.117 350.133 142.298 350.304C142.479 350.475 142.703 350.619 142.97 350.736C143.242 350.853 143.578 350.912 143.978 350.912C144.378 350.912 144.727 350.848 145.026 350.72C145.33 350.587 145.581 350.416 145.778 350.208C145.981 350 146.133 349.768 146.234 349.512C146.335 349.256 146.386 349.003 146.386 348.752C146.386 348.443 146.343 348.16 146.258 347.904C146.178 347.648 146.029 347.427 145.81 347.24C145.597 347.053 145.298 346.907 144.914 346.8C144.535 346.693 144.047 346.64 143.45 346.64V345.608C143.935 345.603 144.349 345.549 144.69 345.448C145.037 345.347 145.319 345.208 145.538 345.032C145.757 344.856 145.914 344.645 146.01 344.4C146.111 344.155 146.162 343.883 146.162 343.584C146.162 343.253 146.109 342.965 146.002 342.72C145.901 342.475 145.759 342.272 145.578 342.112C145.397 341.952 145.181 341.832 144.93 341.752C144.685 341.672 144.418 341.632 144.13 341.632C143.842 341.632 143.575 341.675 143.33 341.76C143.085 341.845 142.866 341.965 142.674 342.12C142.487 342.269 142.33 342.451 142.202 342.664C142.074 342.872 141.978 343.099 141.914 343.344C141.871 343.499 141.807 343.611 141.722 343.68C141.637 343.749 141.527 343.784 141.394 343.784C141.367 343.784 141.338 343.784 141.306 343.784C141.279 343.779 141.247 343.773 141.21 343.768L140.466 343.64C140.541 343.117 140.685 342.656 140.898 342.256C141.111 341.851 141.381 341.512 141.706 341.24C142.037 340.968 142.413 340.763 142.834 340.624C143.261 340.48 143.719 340.408 144.21 340.408Z" fill="#7C7995"/>
<path d="M174.632 352.128C174.061 352.128 173.539 352.053 173.064 351.904C172.589 351.749 172.181 351.531 171.84 351.248C171.499 350.965 171.235 350.624 171.048 350.224C170.861 349.819 170.768 349.365 170.768 348.864C170.768 348.128 170.96 347.523 171.344 347.048C171.728 346.568 172.277 346.227 172.992 346.024C172.389 345.8 171.933 345.467 171.624 345.024C171.32 344.576 171.168 344.043 171.168 343.424C171.168 343.003 171.251 342.608 171.416 342.24C171.581 341.872 171.816 341.552 172.12 341.28C172.424 341.008 172.787 340.795 173.208 340.64C173.635 340.485 174.109 340.408 174.632 340.408C175.149 340.408 175.621 340.485 176.048 340.64C176.475 340.795 176.84 341.008 177.144 341.28C177.448 341.552 177.683 341.872 177.848 342.24C178.013 342.608 178.096 343.003 178.096 343.424C178.096 344.043 177.941 344.576 177.632 345.024C177.323 345.467 176.869 345.8 176.272 346.024C176.987 346.227 177.536 346.568 177.92 347.048C178.304 347.523 178.496 348.128 178.496 348.864C178.496 349.365 178.4 349.819 178.208 350.224C178.021 350.624 177.757 350.965 177.416 351.248C177.08 351.531 176.675 351.749 176.2 351.904C175.725 352.053 175.203 352.128 174.632 352.128ZM174.632 350.992C175.005 350.992 175.339 350.941 175.632 350.84C175.931 350.733 176.181 350.587 176.384 350.4C176.592 350.208 176.749 349.981 176.856 349.72C176.968 349.453 177.024 349.16 177.024 348.84C177.024 348.445 176.957 348.109 176.824 347.832C176.696 347.549 176.52 347.32 176.296 347.144C176.077 346.968 175.824 346.84 175.536 346.76C175.248 346.675 174.947 346.632 174.632 346.632C174.317 346.632 174.016 346.675 173.728 346.76C173.44 346.84 173.184 346.968 172.96 347.144C172.741 347.32 172.565 347.549 172.432 347.832C172.304 348.109 172.24 348.445 172.24 348.84C172.24 349.16 172.293 349.453 172.4 349.72C172.512 349.981 172.669 350.208 172.872 350.4C173.08 350.587 173.331 350.733 173.624 350.84C173.923 350.941 174.259 350.992 174.632 350.992ZM174.632 345.488C175.005 345.488 175.323 345.432 175.584 345.32C175.851 345.203 176.067 345.051 176.232 344.864C176.397 344.672 176.517 344.453 176.592 344.208C176.667 343.963 176.704 343.709 176.704 343.448C176.704 343.181 176.659 342.931 176.568 342.696C176.483 342.461 176.352 342.256 176.176 342.08C176.005 341.904 175.789 341.765 175.528 341.664C175.272 341.563 174.973 341.512 174.632 341.512C174.291 341.512 173.989 341.563 173.728 341.664C173.472 341.765 173.256 341.904 173.08 342.08C172.909 342.256 172.779 342.461 172.688 342.696C172.603 342.931 172.56 343.181 172.56 343.448C172.56 343.709 172.597 343.963 172.672 344.208C172.747 344.453 172.867 344.672 173.032 344.864C173.197 345.051 173.411 345.203 173.672 345.32C173.939 345.432 174.259 345.488 174.632 345.488ZM180.569 352.168C180.495 352.355 180.383 352.493 180.233 352.584C180.089 352.675 179.94 352.72 179.785 352.72H179.185L183.993 340.744C184.063 340.573 184.161 340.443 184.289 340.352C184.417 340.261 184.569 340.216 184.745 340.216H185.345L180.569 352.168ZM192.474 347.864H194.21V348.68C194.21 348.765 194.183 348.837 194.13 348.896C194.082 348.955 194.005 348.984 193.898 348.984H192.474V352H191.218V348.984H186.138C186.031 348.984 185.938 348.955 185.858 348.896C185.783 348.832 185.735 348.755 185.714 348.664L185.57 347.936L191.146 340.536H192.474V347.864ZM191.218 343.136C191.218 342.997 191.221 342.848 191.226 342.688C191.237 342.528 191.255 342.363 191.282 342.192L187.114 347.864H191.218V343.136Z" fill="#7C7995"/>
<path d="M220.632 352.128C220.061 352.128 219.539 352.053 219.064 351.904C218.589 351.749 218.181 351.531 217.84 351.248C217.499 350.965 217.235 350.624 217.048 350.224C216.861 349.819 216.768 349.365 216.768 348.864C216.768 348.128 216.96 347.523 217.344 347.048C217.728 346.568 218.277 346.227 218.992 346.024C218.389 345.8 217.933 345.467 217.624 345.024C217.32 344.576 217.168 344.043 217.168 343.424C217.168 343.003 217.251 342.608 217.416 342.24C217.581 341.872 217.816 341.552 218.12 341.28C218.424 341.008 218.787 340.795 219.208 340.64C219.635 340.485 220.109 340.408 220.632 340.408C221.149 340.408 221.621 340.485 222.048 340.64C222.475 340.795 222.84 341.008 223.144 341.28C223.448 341.552 223.683 341.872 223.848 342.24C224.013 342.608 224.096 343.003 224.096 343.424C224.096 344.043 223.941 344.576 223.632 345.024C223.323 345.467 222.869 345.8 222.272 346.024C222.987 346.227 223.536 346.568 223.92 347.048C224.304 347.523 224.496 348.128 224.496 348.864C224.496 349.365 224.4 349.819 224.208 350.224C224.021 350.624 223.757 350.965 223.416 351.248C223.08 351.531 222.675 351.749 222.2 351.904C221.725 352.053 221.203 352.128 220.632 352.128ZM220.632 350.992C221.005 350.992 221.339 350.941 221.632 350.84C221.931 350.733 222.181 350.587 222.384 350.4C222.592 350.208 222.749 349.981 222.856 349.72C222.968 349.453 223.024 349.16 223.024 348.84C223.024 348.445 222.957 348.109 222.824 347.832C222.696 347.549 222.52 347.32 222.296 347.144C222.077 346.968 221.824 346.84 221.536 346.76C221.248 346.675 220.947 346.632 220.632 346.632C220.317 346.632 220.016 346.675 219.728 346.76C219.44 346.84 219.184 346.968 218.96 347.144C218.741 347.32 218.565 347.549 218.432 347.832C218.304 348.109 218.24 348.445 218.24 348.84C218.24 349.16 218.293 349.453 218.4 349.72C218.512 349.981 218.669 350.208 218.872 350.4C219.08 350.587 219.331 350.733 219.624 350.84C219.923 350.941 220.259 350.992 220.632 350.992ZM220.632 345.488C221.005 345.488 221.323 345.432 221.584 345.32C221.851 345.203 222.067 345.051 222.232 344.864C222.397 344.672 222.517 344.453 222.592 344.208C222.667 343.963 222.704 343.709 222.704 343.448C222.704 343.181 222.659 342.931 222.568 342.696C222.483 342.461 222.352 342.256 222.176 342.08C222.005 341.904 221.789 341.765 221.528 341.664C221.272 341.563 220.973 341.512 220.632 341.512C220.291 341.512 219.989 341.563 219.728 341.664C219.472 341.765 219.256 341.904 219.08 342.08C218.909 342.256 218.779 342.461 218.688 342.696C218.603 342.931 218.56 343.181 218.56 343.448C218.56 343.709 218.597 343.963 218.672 344.208C218.747 344.453 218.867 344.672 219.032 344.864C219.197 345.051 219.411 345.203 219.672 345.32C219.939 345.432 220.259 345.488 220.632 345.488ZM226.569 352.168C226.495 352.355 226.383 352.493 226.233 352.584C226.089 352.675 225.94 352.72 225.785 352.72H225.185L229.993 340.744C230.063 340.573 230.161 340.443 230.289 340.352C230.417 340.261 230.569 340.216 230.745 340.216H231.345L226.569 352.168ZM239.074 341.16C239.074 341.363 239.01 341.531 238.882 341.664C238.754 341.792 238.538 341.856 238.234 341.856H234.634L234.106 344.864C234.703 344.736 235.255 344.672 235.762 344.672C236.359 344.672 236.885 344.76 237.338 344.936C237.797 345.112 238.181 345.355 238.49 345.664C238.799 345.973 239.031 346.339 239.186 346.76C239.346 347.181 239.426 347.64 239.426 348.136C239.426 348.744 239.319 349.293 239.106 349.784C238.893 350.275 238.599 350.696 238.226 351.048C237.858 351.395 237.423 351.661 236.922 351.848C236.421 352.035 235.879 352.128 235.298 352.128C234.962 352.128 234.639 352.093 234.33 352.024C234.021 351.96 233.733 351.872 233.466 351.76C233.199 351.648 232.951 351.52 232.722 351.376C232.493 351.232 232.29 351.08 232.114 350.92L232.546 350.312C232.642 350.173 232.77 350.104 232.93 350.104C233.031 350.104 233.149 350.147 233.282 350.232C233.421 350.312 233.586 350.403 233.778 350.504C233.97 350.605 234.194 350.699 234.45 350.784C234.711 350.864 235.021 350.904 235.378 350.904C235.778 350.904 236.138 350.84 236.458 350.712C236.778 350.584 237.05 350.403 237.274 350.168C237.503 349.928 237.679 349.643 237.802 349.312C237.925 348.981 237.986 348.611 237.986 348.2C237.986 347.843 237.933 347.52 237.826 347.232C237.725 346.944 237.567 346.699 237.354 346.496C237.146 346.293 236.885 346.136 236.57 346.024C236.255 345.912 235.887 345.856 235.466 345.856C235.178 345.856 234.879 345.88 234.57 345.928C234.261 345.976 233.941 346.053 233.61 346.16L232.714 345.896L233.642 340.536H239.074V341.16Z" fill="#7C7995"/>
<path d="M266.632 352.128C266.061 352.128 265.539 352.053 265.064 351.904C264.589 351.749 264.181 351.531 263.84 351.248C263.499 350.965 263.235 350.624 263.048 350.224C262.861 349.819 262.768 349.365 262.768 348.864C262.768 348.128 262.96 347.523 263.344 347.048C263.728 346.568 264.277 346.227 264.992 346.024C264.389 345.8 263.933 345.467 263.624 345.024C263.32 344.576 263.168 344.043 263.168 343.424C263.168 343.003 263.251 342.608 263.416 342.24C263.581 341.872 263.816 341.552 264.12 341.28C264.424 341.008 264.787 340.795 265.208 340.64C265.635 340.485 266.109 340.408 266.632 340.408C267.149 340.408 267.621 340.485 268.048 340.64C268.475 340.795 268.84 341.008 269.144 341.28C269.448 341.552 269.683 341.872 269.848 342.24C270.013 342.608 270.096 343.003 270.096 343.424C270.096 344.043 269.941 344.576 269.632 345.024C269.323 345.467 268.869 345.8 268.272 346.024C268.987 346.227 269.536 346.568 269.92 347.048C270.304 347.523 270.496 348.128 270.496 348.864C270.496 349.365 270.4 349.819 270.208 350.224C270.021 350.624 269.757 350.965 269.416 351.248C269.08 351.531 268.675 351.749 268.2 351.904C267.725 352.053 267.203 352.128 266.632 352.128ZM266.632 350.992C267.005 350.992 267.339 350.941 267.632 350.84C267.931 350.733 268.181 350.587 268.384 350.4C268.592 350.208 268.749 349.981 268.856 349.72C268.968 349.453 269.024 349.16 269.024 348.84C269.024 348.445 268.957 348.109 268.824 347.832C268.696 347.549 268.52 347.32 268.296 347.144C268.077 346.968 267.824 346.84 267.536 346.76C267.248 346.675 266.947 346.632 266.632 346.632C266.317 346.632 266.016 346.675 265.728 346.76C265.44 346.84 265.184 346.968 264.96 347.144C264.741 347.32 264.565 347.549 264.432 347.832C264.304 348.109 264.24 348.445 264.24 348.84C264.24 349.16 264.293 349.453 264.4 349.72C264.512 349.981 264.669 350.208 264.872 350.4C265.08 350.587 265.331 350.733 265.624 350.84C265.923 350.941 266.259 350.992 266.632 350.992ZM266.632 345.488C267.005 345.488 267.323 345.432 267.584 345.32C267.851 345.203 268.067 345.051 268.232 344.864C268.397 344.672 268.517 344.453 268.592 344.208C268.667 343.963 268.704 343.709 268.704 343.448C268.704 343.181 268.659 342.931 268.568 342.696C268.483 342.461 268.352 342.256 268.176 342.08C268.005 341.904 267.789 341.765 267.528 341.664C267.272 341.563 266.973 341.512 266.632 341.512C266.291 341.512 265.989 341.563 265.728 341.664C265.472 341.765 265.256 341.904 265.08 342.08C264.909 342.256 264.779 342.461 264.688 342.696C264.603 342.931 264.56 343.181 264.56 343.448C264.56 343.709 264.597 343.963 264.672 344.208C264.747 344.453 264.867 344.672 265.032 344.864C265.197 345.051 265.411 345.203 265.672 345.32C265.939 345.432 266.259 345.488 266.632 345.488ZM272.569 352.168C272.495 352.355 272.383 352.493 272.233 352.584C272.089 352.675 271.94 352.72 271.785 352.72H271.185L275.993 340.744C276.063 340.573 276.161 340.443 276.289 340.352C276.417 340.261 276.569 340.216 276.745 340.216H277.345L272.569 352.168ZM282.45 344.976C282.909 344.976 283.343 345.053 283.754 345.208C284.165 345.357 284.525 345.579 284.834 345.872C285.143 346.16 285.389 346.517 285.57 346.944C285.751 347.365 285.842 347.848 285.842 348.392C285.842 348.92 285.746 349.411 285.554 349.864C285.362 350.317 285.093 350.712 284.746 351.048C284.405 351.384 283.991 351.648 283.506 351.84C283.021 352.032 282.487 352.128 281.906 352.128C281.33 352.128 280.807 352.037 280.338 351.856C279.874 351.669 279.477 351.408 279.146 351.072C278.815 350.731 278.559 350.32 278.378 349.84C278.202 349.355 278.114 348.813 278.114 348.216C278.114 347.715 278.226 347.181 278.45 346.616C278.674 346.051 279.029 345.443 279.514 344.792L282.418 340.88C282.493 340.784 282.597 340.704 282.73 340.64C282.863 340.571 283.015 340.536 283.186 340.536H284.45L280.474 345.568C280.746 345.381 281.047 345.237 281.378 345.136C281.709 345.029 282.066 344.976 282.45 344.976ZM279.49 348.464C279.49 348.832 279.543 349.168 279.65 349.472C279.757 349.776 279.911 350.037 280.114 350.256C280.322 350.475 280.573 350.645 280.866 350.768C281.165 350.885 281.503 350.944 281.882 350.944C282.266 350.944 282.613 350.883 282.922 350.76C283.231 350.637 283.495 350.467 283.714 350.248C283.938 350.029 284.109 349.771 284.226 349.472C284.349 349.173 284.41 348.848 284.41 348.496C284.41 348.123 284.351 347.787 284.234 347.488C284.117 347.184 283.951 346.928 283.738 346.72C283.525 346.507 283.269 346.344 282.97 346.232C282.671 346.12 282.343 346.064 281.986 346.064C281.602 346.064 281.255 346.131 280.946 346.264C280.637 346.392 280.373 346.568 280.154 346.792C279.941 347.011 279.775 347.267 279.658 347.56C279.546 347.848 279.49 348.149 279.49 348.464Z" fill="#7C7995"/>
<path d="M312.632 352.128C312.061 352.128 311.539 352.053 311.064 351.904C310.589 351.749 310.181 351.531 309.84 351.248C309.499 350.965 309.235 350.624 309.048 350.224C308.861 349.819 308.768 349.365 308.768 348.864C308.768 348.128 308.96 347.523 309.344 347.048C309.728 346.568 310.277 346.227 310.992 346.024C310.389 345.8 309.933 345.467 309.624 345.024C309.32 344.576 309.168 344.043 309.168 343.424C309.168 343.003 309.251 342.608 309.416 342.24C309.581 341.872 309.816 341.552 310.12 341.28C310.424 341.008 310.787 340.795 311.208 340.64C311.635 340.485 312.109 340.408 312.632 340.408C313.149 340.408 313.621 340.485 314.048 340.64C314.475 340.795 314.84 341.008 315.144 341.28C315.448 341.552 315.683 341.872 315.848 342.24C316.013 342.608 316.096 343.003 316.096 343.424C316.096 344.043 315.941 344.576 315.632 345.024C315.323 345.467 314.869 345.8 314.272 346.024C314.987 346.227 315.536 346.568 315.92 347.048C316.304 347.523 316.496 348.128 316.496 348.864C316.496 349.365 316.4 349.819 316.208 350.224C316.021 350.624 315.757 350.965 315.416 351.248C315.08 351.531 314.675 351.749 314.2 351.904C313.725 352.053 313.203 352.128 312.632 352.128ZM312.632 350.992C313.005 350.992 313.339 350.941 313.632 350.84C313.931 350.733 314.181 350.587 314.384 350.4C314.592 350.208 314.749 349.981 314.856 349.72C314.968 349.453 315.024 349.16 315.024 348.84C315.024 348.445 314.957 348.109 314.824 347.832C314.696 347.549 314.52 347.32 314.296 347.144C314.077 346.968 313.824 346.84 313.536 346.76C313.248 346.675 312.947 346.632 312.632 346.632C312.317 346.632 312.016 346.675 311.728 346.76C311.44 346.84 311.184 346.968 310.96 347.144C310.741 347.32 310.565 347.549 310.432 347.832C310.304 348.109 310.24 348.445 310.24 348.84C310.24 349.16 310.293 349.453 310.4 349.72C310.512 349.981 310.669 350.208 310.872 350.4C311.08 350.587 311.331 350.733 311.624 350.84C311.923 350.941 312.259 350.992 312.632 350.992ZM312.632 345.488C313.005 345.488 313.323 345.432 313.584 345.32C313.851 345.203 314.067 345.051 314.232 344.864C314.397 344.672 314.517 344.453 314.592 344.208C314.667 343.963 314.704 343.709 314.704 343.448C314.704 343.181 314.659 342.931 314.568 342.696C314.483 342.461 314.352 342.256 314.176 342.08C314.005 341.904 313.789 341.765 313.528 341.664C313.272 341.563 312.973 341.512 312.632 341.512C312.291 341.512 311.989 341.563 311.728 341.664C311.472 341.765 311.256 341.904 311.08 342.08C310.909 342.256 310.779 342.461 310.688 342.696C310.603 342.931 310.56 343.181 310.56 343.448C310.56 343.709 310.597 343.963 310.672 344.208C310.747 344.453 310.867 344.672 311.032 344.864C311.197 345.051 311.411 345.203 311.672 345.32C311.939 345.432 312.259 345.488 312.632 345.488ZM318.569 352.168C318.495 352.355 318.383 352.493 318.233 352.584C318.089 352.675 317.94 352.72 317.785 352.72H317.185L321.993 340.744C322.063 340.573 322.161 340.443 322.289 340.352C322.417 340.261 322.569 340.216 322.745 340.216H323.345L318.569 352.168ZM331.922 340.536V341.176C331.922 341.357 331.901 341.507 331.858 341.624C331.821 341.741 331.781 341.84 331.738 341.92L326.994 351.496C326.925 351.635 326.829 351.755 326.706 351.856C326.583 351.952 326.418 352 326.21 352H325.194L330.01 342.544C330.079 342.411 330.149 342.288 330.218 342.176C330.293 342.064 330.375 341.957 330.466 341.856H324.482C324.391 341.856 324.309 341.821 324.234 341.752C324.165 341.677 324.13 341.595 324.13 341.504V340.536H331.922Z" fill="#7C7995"/>
<path d="M333 327L31 327" stroke="black" stroke-opacity="0.2" stroke-linecap="round" stroke-linejoin="round"/>
<path d="M36.24 46.91V52H33.55V37.54H38.26C39.2267 37.54 40.0633 37.6533 40.77 37.88C41.4767 38.1067 42.06 38.4233 42.52 38.83C42.98 39.2367 43.32 39.7233 43.54 40.29C43.76 40.8567 43.87 41.4767 43.87 42.15C43.87 42.85 43.7533 43.4933 43.52 44.08C43.2867 44.66 42.9367 45.16 42.47 45.58C42.0033 46 41.42 46.3267 40.72 46.56C40.02 46.7933 39.2 46.91 38.26 46.91H36.24ZM36.24 44.81H38.26C38.7533 44.81 39.1833 44.75 39.55 44.63C39.9167 44.5033 40.22 44.3267 40.46 44.1C40.7 43.8667 40.88 43.5867 41 43.26C41.12 42.9267 41.18 42.5567 41.18 42.15C41.18 41.7633 41.12 41.4133 41 41.1C40.88 40.7867 40.7 40.52 40.46 40.3C40.22 40.08 39.9167 39.9133 39.55 39.8C39.1833 39.68 38.7533 39.62 38.26 39.62H36.24V44.81ZM49.907 41.58C50.6737 41.58 51.367 41.7033 51.987 41.95C52.6137 42.1967 53.147 42.5467 53.587 43C54.027 43.4533 54.367 44.0067 54.607 44.66C54.847 45.3133 54.967 46.0433 54.967 46.85C54.967 47.6633 54.847 48.3967 54.607 49.05C54.367 49.7033 54.027 50.26 53.587 50.72C53.147 51.18 52.6137 51.5333 51.987 51.78C51.367 52.0267 50.6737 52.15 49.907 52.15C49.1404 52.15 48.4437 52.0267 47.817 51.78C47.1904 51.5333 46.6537 51.18 46.207 50.72C45.767 50.26 45.4237 49.7033 45.177 49.05C44.937 48.3967 44.817 47.6633 44.817 46.85C44.817 46.0433 44.937 45.3133 45.177 44.66C45.4237 44.0067 45.767 43.4533 46.207 43C46.6537 42.5467 47.1904 42.1967 47.817 41.95C48.4437 41.7033 49.1404 41.58 49.907 41.58ZM49.907 50.25C50.7604 50.25 51.3904 49.9633 51.797 49.39C52.2104 48.8167 52.417 47.9767 52.417 46.87C52.417 45.7633 52.2104 44.92 51.797 44.34C51.3904 43.76 50.7604 43.47 49.907 43.47C49.0404 43.47 48.4004 43.7633 47.987 44.35C47.5737 44.93 47.367 45.77 47.367 46.87C47.367 47.97 47.5737 48.81 47.987 49.39C48.4004 49.9633 49.0404 50.25 49.907 50.25ZM62.9842 43.74C62.9176 43.8467 62.8476 43.9233 62.7742 43.97C62.7009 44.01 62.6076 44.03 62.4942 44.03C62.3742 44.03 62.2442 43.9967 62.1042 43.93C61.9709 43.8633 61.8142 43.79 61.6342 43.71C61.4542 43.6233 61.2476 43.5467 61.0142 43.48C60.7876 43.4133 60.5176 43.38 60.2042 43.38C59.7176 43.38 59.3342 43.4833 59.0542 43.69C58.7742 43.8967 58.6342 44.1667 58.6342 44.5C58.6342 44.72 58.7042 44.9067 58.8442 45.06C58.9909 45.2067 59.1809 45.3367 59.4142 45.45C59.6542 45.5633 59.9242 45.6667 60.2242 45.76C60.5242 45.8467 60.8309 45.9433 61.1442 46.05C61.4576 46.1567 61.7642 46.28 62.0642 46.42C62.3642 46.5533 62.6309 46.7267 62.8642 46.94C63.1042 47.1467 63.2942 47.3967 63.4342 47.69C63.5809 47.9833 63.6542 48.3367 63.6542 48.75C63.6542 49.2433 63.5642 49.7 63.3842 50.12C63.2042 50.5333 62.9409 50.8933 62.5942 51.2C62.2476 51.5 61.8176 51.7367 61.3042 51.91C60.7976 52.0767 60.2142 52.16 59.5542 52.16C59.2009 52.16 58.8542 52.1267 58.5142 52.06C58.1809 52 57.8576 51.9133 57.5442 51.8C57.2376 51.6867 56.9509 51.5533 56.6842 51.4C56.4242 51.2467 56.1942 51.08 55.9942 50.9L56.5642 49.96C56.6376 49.8467 56.7242 49.76 56.8242 49.7C56.9242 49.64 57.0509 49.61 57.2042 49.61C57.3576 49.61 57.5009 49.6533 57.6342 49.74C57.7742 49.8267 57.9342 49.92 58.1142 50.02C58.2942 50.12 58.5042 50.2133 58.7442 50.3C58.9909 50.3867 59.3009 50.43 59.6742 50.43C59.9676 50.43 60.2176 50.3967 60.4242 50.33C60.6376 50.2567 60.8109 50.1633 60.9442 50.05C61.0842 49.9367 61.1842 49.8067 61.2442 49.66C61.3109 49.5067 61.3442 49.35 61.3442 49.19C61.3442 48.95 61.2709 48.7533 61.1242 48.6C60.9842 48.4467 60.7942 48.3133 60.5542 48.2C60.3209 48.0867 60.0509 47.9867 59.7442 47.9C59.4442 47.8067 59.1342 47.7067 58.8142 47.6C58.5009 47.4933 58.1909 47.37 57.8842 47.23C57.5842 47.0833 57.3142 46.9 57.0742 46.68C56.8409 46.46 56.6509 46.19 56.5042 45.87C56.3642 45.55 56.2942 45.1633 56.2942 44.71C56.2942 44.29 56.3776 43.89 56.5442 43.51C56.7109 43.13 56.9542 42.8 57.2742 42.52C57.6009 42.2333 58.0042 42.0067 58.4842 41.84C58.9709 41.6667 59.5309 41.58 60.1642 41.58C60.8709 41.58 61.5142 41.6967 62.0942 41.93C62.6742 42.1633 63.1576 42.47 63.5442 42.85L62.9842 43.74ZM68.2547 41.74V52H65.7847V41.74H68.2547ZM68.6247 38.75C68.6247 38.9633 68.5814 39.1633 68.4947 39.35C68.408 39.5367 68.2914 39.7 68.1447 39.84C68.0047 39.98 67.838 40.0933 67.6447 40.18C67.4514 40.26 67.2447 40.3 67.0247 40.3C66.8114 40.3 66.608 40.26 66.4147 40.18C66.228 40.0933 66.0647 39.98 65.9247 39.84C65.7847 39.7 65.6714 39.5367 65.5847 39.35C65.5047 39.1633 65.4647 38.9633 65.4647 38.75C65.4647 38.53 65.5047 38.3233 65.5847 38.13C65.6714 37.9367 65.7847 37.77 65.9247 37.63C66.0647 37.49 66.228 37.38 66.4147 37.3C66.608 37.2133 66.8114 37.17 67.0247 37.17C67.2447 37.17 67.4514 37.2133 67.6447 37.3C67.838 37.38 68.0047 37.49 68.1447 37.63C68.2914 37.77 68.408 37.9367 68.4947 38.13C68.5814 38.3233 68.6247 38.53 68.6247 38.75ZM74.4244 52.16C73.5377 52.16 72.8544 51.91 72.3744 51.41C71.8944 50.9033 71.6544 50.2067 71.6544 49.32V43.59H70.6144C70.481 43.59 70.3644 43.5467 70.2644 43.46C70.171 43.3733 70.1244 43.2433 70.1244 43.07V42.09L71.7744 41.82L72.2944 39.02C72.321 38.8867 72.381 38.7833 72.4744 38.71C72.5744 38.6367 72.6977 38.6 72.8444 38.6H74.1244V41.83H76.8244V43.59H74.1244V49.15C74.1244 49.47 74.2044 49.72 74.3644 49.9C74.5244 50.08 74.7377 50.17 75.0044 50.17C75.1577 50.17 75.2844 50.1533 75.3844 50.12C75.491 50.08 75.581 50.04 75.6544 50C75.7344 49.96 75.8044 49.9233 75.8644 49.89C75.9244 49.85 75.9844 49.83 76.0444 49.83C76.1177 49.83 76.1777 49.85 76.2244 49.89C76.271 49.9233 76.321 49.9767 76.3744 50.05L77.1144 51.25C76.7544 51.55 76.341 51.7767 75.8744 51.93C75.4077 52.0833 74.9244 52.16 74.4244 52.16ZM81.4188 41.74V52H78.9488V41.74H81.4188ZM81.7888 38.75C81.7888 38.9633 81.7454 39.1633 81.6588 39.35C81.5721 39.5367 81.4554 39.7 81.3088 39.84C81.1688 39.98 81.0021 40.0933 80.8088 40.18C80.6154 40.26 80.4088 40.3 80.1888 40.3C79.9754 40.3 79.7721 40.26 79.5788 40.18C79.3921 40.0933 79.2288 39.98 79.0888 39.84C78.9488 39.7 78.8354 39.5367 78.7488 39.35C78.6688 39.1633 78.6288 38.9633 78.6288 38.75C78.6288 38.53 78.6688 38.3233 78.7488 38.13C78.8354 37.9367 78.9488 37.77 79.0888 37.63C79.2288 37.49 79.3921 37.38 79.5788 37.3C79.7721 37.2133 79.9754 37.17 80.1888 37.17C80.4088 37.17 80.6154 37.2133 80.8088 37.3C81.0021 37.38 81.1688 37.49 81.3088 37.63C81.4554 37.77 81.5721 37.9367 81.6588 38.13C81.7454 38.3233 81.7888 38.53 81.7888 38.75ZM89.3584 52H87.1184L83.0384 41.74H85.0884C85.2684 41.74 85.4184 41.7833 85.5384 41.87C85.6651 41.9567 85.7518 42.0667 85.7984 42.2L87.7784 47.68C87.8918 48 87.9851 48.3133 88.0584 48.62C88.1384 48.9267 88.2084 49.2333 88.2684 49.54C88.3284 49.2333 88.3951 48.9267 88.4684 48.62C88.5484 48.3133 88.6484 48 88.7684 47.68L90.7984 42.2C90.8451 42.0667 90.9284 41.9567 91.0484 41.87C91.1684 41.7833 91.3118 41.74 91.4784 41.74H93.4284L89.3584 52ZM97.5125 41.74V52H95.0425V41.74H97.5125ZM97.8825 38.75C97.8825 38.9633 97.8392 39.1633 97.7525 39.35C97.6658 39.5367 97.5492 39.7 97.4025 39.84C97.2625 39.98 97.0958 40.0933 96.9025 40.18C96.7092 40.26 96.5025 40.3 96.2825 40.3C96.0692 40.3 95.8658 40.26 95.6725 40.18C95.4858 40.0933 95.3225 39.98 95.1825 39.84C95.0425 39.7 94.9292 39.5367 94.8425 39.35C94.7625 39.1633 94.7225 38.9633 94.7225 38.75C94.7225 38.53 94.7625 38.3233 94.8425 38.13C94.9292 37.9367 95.0425 37.77 95.1825 37.63C95.3225 37.49 95.4858 37.38 95.6725 37.3C95.8658 37.2133 96.0692 37.17 96.2825 37.17C96.5025 37.17 96.7092 37.2133 96.9025 37.3C97.0958 37.38 97.2625 37.49 97.4025 37.63C97.5492 37.77 97.6658 37.9367 97.7525 38.13C97.8392 38.3233 97.8825 38.53 97.8825 38.75ZM103.682 52.16C102.796 52.16 102.112 51.91 101.632 51.41C101.152 50.9033 100.912 50.2067 100.912 49.32V43.59H99.8722C99.7389 43.59 99.6222 43.5467 99.5222 43.46C99.4289 43.3733 99.3822 43.2433 99.3822 43.07V42.09L101.032 41.82L101.552 39.02C101.579 38.8867 101.639 38.7833 101.732 38.71C101.832 38.6367 101.956 38.6 102.102 38.6H103.382V41.83H106.082V43.59H103.382V49.15C103.382 49.47 103.462 49.72 103.622 49.9C103.782 50.08 103.996 50.17 104.262 50.17C104.416 50.17 104.542 50.1533 104.642 50.12C104.749 50.08 104.839 50.04 104.912 50C104.992 49.96 105.062 49.9233 105.122 49.89C105.182 49.85 105.242 49.83 105.302 49.83C105.376 49.83 105.436 49.85 105.482 49.89C105.529 49.9233 105.579 49.9767 105.632 50.05L106.372 51.25C106.012 51.55 105.599 51.7767 105.132 51.93C104.666 52.0833 104.182 52.16 103.682 52.16ZM111.687 54.82C111.613 54.9933 111.517 55.1233 111.397 55.21C111.283 55.3033 111.107 55.35 110.867 55.35H109.027L110.947 51.24L106.797 41.74H108.957C109.157 41.74 109.31 41.7867 109.417 41.88C109.523 41.9733 109.603 42.08 109.657 42.2L111.847 47.52C111.92 47.6933 111.983 47.8733 112.037 48.06C112.09 48.2467 112.137 48.4333 112.177 48.62C112.23 48.4267 112.287 48.24 112.347 48.06C112.413 47.88 112.483 47.6967 112.557 47.51L114.617 42.2C114.67 42.0667 114.757 41.9567 114.877 41.87C115.003 41.7833 115.143 41.74 115.297 41.74H117.277L111.687 54.82ZM125.498 46.35V52H122.808V37.54H127.218C128.204 37.54 129.048 37.6433 129.748 37.85C130.454 38.05 131.031 38.3333 131.478 38.7C131.931 39.0667 132.261 39.5067 132.468 40.02C132.681 40.5267 132.788 41.0867 132.788 41.7C132.788 42.1867 132.714 42.6467 132.568 43.08C132.428 43.5133 132.221 43.9067 131.948 44.26C131.681 44.6133 131.348 44.9233 130.948 45.19C130.554 45.4567 130.104 45.67 129.598 45.83C129.938 46.0233 130.231 46.3 130.478 46.66L134.098 52H131.678C131.444 52 131.244 51.9533 131.078 51.86C130.918 51.7667 130.781 51.6333 130.668 51.46L127.628 46.83C127.514 46.6567 127.388 46.5333 127.248 46.46C127.114 46.3867 126.914 46.35 126.648 46.35H125.498ZM125.498 44.42H127.178C127.684 44.42 128.124 44.3567 128.498 44.23C128.878 44.1033 129.188 43.93 129.428 43.71C129.674 43.4833 129.858 43.2167 129.978 42.91C130.098 42.6033 130.158 42.2667 130.158 41.9C130.158 41.1667 129.914 40.6033 129.428 40.21C128.948 39.8167 128.211 39.62 127.218 39.62H125.498V44.42ZM143.723 52H142.613C142.38 52 142.197 51.9667 142.063 51.9C141.93 51.8267 141.83 51.6833 141.763 51.47L141.543 50.74C141.283 50.9733 141.027 51.18 140.773 51.36C140.527 51.5333 140.27 51.68 140.003 51.8C139.737 51.92 139.453 52.01 139.153 52.07C138.853 52.13 138.52 52.16 138.153 52.16C137.72 52.16 137.32 52.1033 136.953 51.99C136.587 51.87 136.27 51.6933 136.003 51.46C135.743 51.2267 135.54 50.9367 135.393 50.59C135.247 50.2433 135.173 49.84 135.173 49.38C135.173 48.9933 135.273 48.6133 135.473 48.24C135.68 47.86 136.02 47.52 136.493 47.22C136.967 46.9133 137.597 46.66 138.383 46.46C139.17 46.26 140.147 46.1467 141.313 46.12V45.52C141.313 44.8333 141.167 44.3267 140.873 44C140.587 43.6667 140.167 43.5 139.613 43.5C139.213 43.5 138.88 43.5467 138.613 43.64C138.347 43.7333 138.113 43.84 137.913 43.96C137.72 44.0733 137.54 44.1767 137.373 44.27C137.207 44.3633 137.023 44.41 136.823 44.41C136.657 44.41 136.513 44.3667 136.393 44.28C136.273 44.1933 136.177 44.0867 136.103 43.96L135.653 43.17C136.833 42.09 138.257 41.55 139.923 41.55C140.523 41.55 141.057 41.65 141.523 41.85C141.997 42.0433 142.397 42.3167 142.723 42.67C143.05 43.0167 143.297 43.4333 143.463 43.92C143.637 44.4067 143.723 44.94 143.723 45.52V52ZM138.923 50.46C139.177 50.46 139.41 50.4367 139.623 50.39C139.837 50.3433 140.037 50.2733 140.223 50.18C140.417 50.0867 140.6 49.9733 140.773 49.84C140.953 49.7 141.133 49.5367 141.313 49.35V47.62C140.593 47.6533 139.99 47.7167 139.503 47.81C139.023 47.8967 138.637 48.01 138.343 48.15C138.05 48.29 137.84 48.4533 137.713 48.64C137.593 48.8267 137.533 49.03 137.533 49.25C137.533 49.6833 137.66 49.9933 137.913 50.18C138.173 50.3667 138.51 50.46 138.923 50.46ZM149.522 52.16C148.635 52.16 147.952 51.91 147.472 51.41C146.992 50.9033 146.752 50.2067 146.752 49.32V43.59H145.712C145.579 43.59 145.462 43.5467 145.362 43.46C145.269 43.3733 145.222 43.2433 145.222 43.07V42.09L146.872 41.82L147.392 39.02C147.419 38.8867 147.479 38.7833 147.572 38.71C147.672 38.6367 147.795 38.6 147.942 38.6H149.222V41.83H151.922V43.59H149.222V49.15C149.222 49.47 149.302 49.72 149.462 49.9C149.622 50.08 149.835 50.17 150.102 50.17C150.255 50.17 150.382 50.1533 150.482 50.12C150.589 50.08 150.679 50.04 150.752 50C150.832 49.96 150.902 49.9233 150.962 49.89C151.022 49.85 151.082 49.83 151.142 49.83C151.215 49.83 151.275 49.85 151.322 49.89C151.369 49.9233 151.419 49.9767 151.472 50.05L152.212 51.25C151.852 51.55 151.439 51.7767 150.972 51.93C150.505 52.0833 150.022 52.16 149.522 52.16ZM156.516 41.74V52H154.046V41.74H156.516ZM156.886 38.75C156.886 38.9633 156.843 39.1633 156.756 39.35C156.67 39.5367 156.553 39.7 156.406 39.84C156.266 39.98 156.1 40.0933 155.906 40.18C155.713 40.26 155.506 40.3 155.286 40.3C155.073 40.3 154.87 40.26 154.676 40.18C154.49 40.0933 154.326 39.98 154.186 39.84C154.046 39.7 153.933 39.5367 153.846 39.35C153.766 39.1633 153.726 38.9633 153.726 38.75C153.726 38.53 153.766 38.3233 153.846 38.13C153.933 37.9367 154.046 37.77 154.186 37.63C154.326 37.49 154.49 37.38 154.676 37.3C154.87 37.2133 155.073 37.17 155.286 37.17C155.506 37.17 155.713 37.2133 155.906 37.3C156.1 37.38 156.266 37.49 156.406 37.63C156.553 37.77 156.67 37.9367 156.756 38.13C156.843 38.3233 156.886 38.53 156.886 38.75ZM159.316 52V41.74H160.826C161.146 41.74 161.356 41.89 161.456 42.19L161.626 43C161.833 42.7867 162.049 42.5933 162.276 42.42C162.509 42.2467 162.753 42.0967 163.006 41.97C163.266 41.8433 163.543 41.7467 163.836 41.68C164.129 41.6133 164.449 41.58 164.796 41.58C165.356 41.58 165.853 41.6767 166.286 41.87C166.719 42.0567 167.079 42.3233 167.366 42.67C167.659 43.01 167.879 43.42 168.026 43.9C168.179 44.3733 168.256 44.8967 168.256 45.47V52H165.786V45.47C165.786 44.8433 165.639 44.36 165.346 44.02C165.059 43.6733 164.626 43.5 164.046 43.5C163.619 43.5 163.219 43.5967 162.846 43.79C162.473 43.9833 162.119 44.2467 161.786 44.58V52H159.316ZM174.233 41.56C174.673 41.56 175.087 41.6067 175.473 41.7C175.86 41.7867 176.213 41.9167 176.533 42.09H179.483V43.01C179.483 43.1633 179.443 43.2833 179.363 43.37C179.283 43.4567 179.147 43.5167 178.953 43.55L178.033 43.72C178.1 43.8933 178.15 44.0767 178.183 44.27C178.223 44.4633 178.243 44.6667 178.243 44.88C178.243 45.3867 178.14 45.8467 177.933 46.26C177.733 46.6667 177.453 47.0133 177.093 47.3C176.74 47.5867 176.317 47.81 175.823 47.97C175.337 48.1233 174.807 48.2 174.233 48.2C173.847 48.2 173.47 48.1633 173.103 48.09C172.783 48.2833 172.623 48.5 172.623 48.74C172.623 48.9467 172.717 49.1 172.903 49.2C173.097 49.2933 173.347 49.36 173.653 49.4C173.967 49.44 174.32 49.4667 174.713 49.48C175.107 49.4867 175.51 49.5067 175.923 49.54C176.337 49.5733 176.74 49.6333 177.133 49.72C177.527 49.8 177.877 49.93 178.183 50.11C178.497 50.29 178.747 50.5367 178.933 50.85C179.127 51.1567 179.223 51.5533 179.223 52.04C179.223 52.4933 179.11 52.9333 178.883 53.36C178.663 53.7867 178.34 54.1667 177.913 54.5C177.493 54.8333 176.977 55.1 176.363 55.3C175.75 55.5067 175.05 55.61 174.263 55.61C173.483 55.61 172.807 55.5333 172.233 55.38C171.66 55.2333 171.183 55.0333 170.803 54.78C170.43 54.5333 170.15 54.2467 169.963 53.92C169.777 53.5933 169.683 53.2533 169.683 52.9C169.683 52.42 169.83 52.0167 170.123 51.69C170.417 51.3633 170.823 51.1033 171.343 50.91C171.09 50.77 170.887 50.5833 170.733 50.35C170.58 50.1167 170.503 49.8133 170.503 49.44C170.503 49.2867 170.53 49.13 170.583 48.97C170.637 48.8033 170.717 48.64 170.823 48.48C170.937 48.32 171.077 48.17 171.243 48.03C171.41 47.8833 171.607 47.7533 171.833 47.64C171.313 47.36 170.903 46.9867 170.603 46.52C170.31 46.0533 170.163 45.5067 170.163 44.88C170.163 44.3733 170.263 43.9167 170.463 43.51C170.67 43.0967 170.953 42.7467 171.313 42.46C171.68 42.1667 172.11 41.9433 172.603 41.79C173.103 41.6367 173.647 41.56 174.233 41.56ZM176.943 52.46C176.943 52.26 176.883 52.0967 176.763 51.97C176.643 51.8433 176.48 51.7467 176.273 51.68C176.067 51.6067 175.823 51.5533 175.543 51.52C175.27 51.4867 174.977 51.4633 174.663 51.45C174.357 51.43 174.037 51.4133 173.703 51.4C173.377 51.38 173.06 51.35 172.753 51.31C172.473 51.4633 172.247 51.6467 172.073 51.86C171.907 52.0667 171.823 52.3067 171.823 52.58C171.823 52.76 171.867 52.9267 171.953 53.08C172.047 53.24 172.19 53.3767 172.383 53.49C172.583 53.6033 172.84 53.69 173.153 53.75C173.467 53.8167 173.85 53.85 174.303 53.85C174.763 53.85 175.16 53.8133 175.493 53.74C175.827 53.6733 176.1 53.5767 176.313 53.45C176.533 53.33 176.693 53.1833 176.793 53.01C176.893 52.8433 176.943 52.66 176.943 52.46ZM174.233 46.62C174.54 46.62 174.807 46.58 175.033 46.5C175.26 46.4133 175.447 46.2967 175.593 46.15C175.747 46.0033 175.86 45.8267 175.933 45.62C176.013 45.4133 176.053 45.1867 176.053 44.94C176.053 44.4333 175.9 44.0333 175.593 43.74C175.293 43.44 174.84 43.29 174.233 43.29C173.627 43.29 173.17 43.44 172.863 43.74C172.563 44.0333 172.413 44.4333 172.413 44.94C172.413 45.18 172.45 45.4033 172.523 45.61C172.603 45.8167 172.717 45.9967 172.863 46.15C173.017 46.2967 173.207 46.4133 173.433 46.5C173.667 46.58 173.933 46.62 174.233 46.62Z" fill="#07454C"/>
<path d="M338 29C338.552 29 339 28.5523 339 28C339 27.4477 338.552 27 338 27C337.448 27 337 27.4477 337 28C337 28.5523 337.448 29 338 29Z" stroke="#07454C" stroke-width="2" stroke-linecap="round" stroke-linejoin="round"/>
<path d="M345 29C345.552 29 346 28.5523 346 28C346 27.4477 345.552 27 345 27C344.448 27 344 27.4477 344 28C344 28.5523 344.448 29 345 29Z" stroke="#07454C" stroke-width="2" stroke-linecap="round" stroke-linejoin="round"/>
<path d="M331 29C331.552 29 332 28.5523 332 28C332 27.4477 331.552 27 331 27C330.448 27 330 27.4477 330 28C330 28.5523 330.448 29 331 29Z" stroke="#07454C" stroke-width="2" stroke-linecap="round" stroke-linejoin="round"/>
<path opacity="0.8" d="M41.2 64.536V65.84H37.496V76H35.944V65.84H32.224V64.536H41.2ZM42.6055 76V64.216H44.0295V68.984C44.3762 68.616 44.7602 68.3227 45.1815 68.104C45.6028 67.88 46.0882 67.768 46.6375 67.768C47.0802 67.768 47.4695 67.8427 47.8055 67.992C48.1468 68.136 48.4295 68.344 48.6535 68.616C48.8828 68.8827 49.0562 69.2053 49.1735 69.584C49.2908 69.9627 49.3495 70.3813 49.3495 70.84V76H47.9255V70.84C47.9255 70.2267 47.7842 69.752 47.5015 69.416C47.2242 69.0747 46.7975 68.904 46.2215 68.904C45.8002 68.904 45.4055 69.0053 45.0375 69.208C44.6748 69.4107 44.3388 69.6853 44.0295 70.032V76H42.6055ZM54.7041 67.768C55.1895 67.768 55.6375 67.8507 56.0481 68.016C56.4588 68.176 56.8135 68.4107 57.1121 68.72C57.4108 69.024 57.6428 69.4027 57.8081 69.856C57.9788 70.304 58.0641 70.816 58.0641 71.392C58.0641 71.616 58.0401 71.7653 57.9921 71.84C57.9441 71.9147 57.8535 71.952 57.7201 71.952H52.3281C52.3388 72.464 52.4081 72.9093 52.5361 73.288C52.6641 73.6667 52.8401 73.984 53.0641 74.24C53.2881 74.4907 53.5548 74.68 53.8641 74.808C54.1735 74.9307 54.5201 74.992 54.9041 74.992C55.2615 74.992 55.5681 74.952 55.8241 74.872C56.0855 74.7867 56.3095 74.696 56.4961 74.6C56.6828 74.504 56.8375 74.416 56.9601 74.336C57.0881 74.2507 57.1975 74.208 57.2881 74.208C57.4055 74.208 57.4961 74.2533 57.5601 74.344L57.9601 74.864C57.7841 75.0773 57.5735 75.264 57.3281 75.424C57.0828 75.5787 56.8188 75.7067 56.5361 75.808C56.2588 75.9093 55.9708 75.984 55.6721 76.032C55.3735 76.0853 55.0775 76.112 54.7841 76.112C54.2241 76.112 53.7068 76.0187 53.2321 75.832C52.7628 75.64 52.3548 75.3627 52.0081 75C51.6668 74.632 51.4001 74.1787 51.2081 73.64C51.0161 73.1013 50.9201 72.4827 50.9201 71.784C50.9201 71.2187 51.0055 70.6907 51.1761 70.2C51.3521 69.7093 51.6028 69.2853 51.9281 68.928C52.2535 68.5653 52.6508 68.2827 53.1201 68.08C53.5895 67.872 54.1175 67.768 54.7041 67.768ZM54.7361 68.816C54.0481 68.816 53.5068 69.016 53.1121 69.416C52.7175 69.8107 52.4721 70.36 52.3761 71.064H56.7841C56.7841 70.7333 56.7388 70.432 56.6481 70.16C56.5575 69.8827 56.4241 69.6453 56.2481 69.448C56.0721 69.2453 55.8561 69.0907 55.6001 68.984C55.3495 68.872 55.0615 68.816 54.7361 68.816ZM62.9805 78.744V67.896H63.8285C64.0312 67.896 64.1592 67.9947 64.2125 68.192L64.3325 69.152C64.6792 68.7307 65.0738 68.392 65.5165 68.136C65.9645 67.88 66.4792 67.752 67.0605 67.752C67.5245 67.752 67.9458 67.8427 68.3245 68.024C68.7032 68.2 69.0258 68.464 69.2925 68.816C69.5592 69.1627 69.7645 69.5947 69.9085 70.112C70.0525 70.6293 70.1245 71.224 70.1245 71.896C70.1245 72.4933 70.0445 73.0507 69.8845 73.568C69.7245 74.08 69.4952 74.5253 69.1965 74.904C68.8978 75.2773 68.5298 75.5733 68.0925 75.792C67.6605 76.0053 67.1725 76.112 66.6285 76.112C66.1272 76.112 65.6978 76.0293 65.3405 75.864C64.9885 75.6987 64.6765 75.464 64.4045 75.16V78.744H62.9805ZM66.5885 68.904C66.1245 68.904 65.7165 69.0107 65.3645 69.224C65.0178 69.4373 64.6978 69.7387 64.4045 70.128V74.048C64.6658 74.4 64.9512 74.648 65.2605 74.792C65.5752 74.936 65.9245 75.008 66.3085 75.008C67.0605 75.008 67.6392 74.7387 68.0445 74.2C68.4498 73.6613 68.6525 72.8933 68.6525 71.896C68.6525 71.368 68.6045 70.9147 68.5085 70.536C68.4178 70.1573 68.2845 69.848 68.1085 69.608C67.9325 69.3627 67.7165 69.184 67.4605 69.072C67.2045 68.96 66.9138 68.904 66.5885 68.904ZM75.0886 67.768C75.6806 67.768 76.214 67.8667 76.6886 68.064C77.1686 68.2613 77.574 68.5413 77.9046 68.904C78.2406 69.2667 78.4966 69.7067 78.6726 70.224C78.854 70.736 78.9446 71.3093 78.9446 71.944C78.9446 72.584 78.854 73.16 78.6726 73.672C78.4966 74.184 78.2406 74.6213 77.9046 74.984C77.574 75.3467 77.1686 75.6267 76.6886 75.824C76.214 76.016 75.6806 76.112 75.0886 76.112C74.4966 76.112 73.9606 76.016 73.4806 75.824C73.006 75.6267 72.6006 75.3467 72.2646 74.984C71.9286 74.6213 71.67 74.184 71.4886 73.672C71.3073 73.16 71.2166 72.584 71.2166 71.944C71.2166 71.3093 71.3073 70.736 71.4886 70.224C71.67 69.7067 71.9286 69.2667 72.2646 68.904C72.6006 68.5413 73.006 68.2613 73.4806 68.064C73.9606 67.8667 74.4966 67.768 75.0886 67.768ZM75.0886 75C75.8886 75 76.486 74.7333 76.8806 74.2C77.2753 73.6613 77.4726 72.912 77.4726 71.952C77.4726 70.9867 77.2753 70.2347 76.8806 69.696C76.486 69.1573 75.8886 68.888 75.0886 68.888C74.6833 68.888 74.3313 68.9573 74.0326 69.096C73.734 69.2347 73.4833 69.4347 73.2806 69.696C73.0833 69.9573 72.934 70.28 72.8326 70.664C72.7366 71.0427 72.6886 71.472 72.6886 71.952C72.6886 72.432 72.7366 72.8613 72.8326 73.24C72.934 73.6187 73.0833 73.9387 73.2806 74.2C73.4833 74.456 73.734 74.6533 74.0326 74.792C74.3313 74.9307 74.6833 75 75.0886 75ZM85.3393 69.232C85.2753 69.3493 85.1766 69.408 85.0433 69.408C84.9633 69.408 84.8726 69.3787 84.7713 69.32C84.6699 69.2613 84.5446 69.1973 84.3953 69.128C84.2513 69.0533 84.0779 68.9867 83.8753 68.928C83.6726 68.864 83.4326 68.832 83.1553 68.832C82.9153 68.832 82.6993 68.864 82.5073 68.928C82.3153 68.9867 82.1499 69.0693 82.0113 69.176C81.8779 69.2827 81.7739 69.408 81.6993 69.552C81.6299 69.6907 81.5953 69.8427 81.5953 70.008C81.5953 70.216 81.6539 70.3893 81.7713 70.528C81.8939 70.6667 82.0539 70.7867 82.2513 70.888C82.4486 70.9893 82.6726 71.08 82.9233 71.16C83.1739 71.2347 83.4299 71.3173 83.6913 71.408C83.9579 71.4933 84.2166 71.5893 84.4673 71.696C84.7179 71.8027 84.9419 71.936 85.1393 72.096C85.3366 72.256 85.4939 72.4533 85.6113 72.688C85.7339 72.9173 85.7953 73.1947 85.7953 73.52C85.7953 73.8933 85.7286 74.24 85.5953 74.56C85.4619 74.8747 85.2646 75.1493 85.0033 75.384C84.7419 75.6133 84.4219 75.7947 84.0433 75.928C83.6646 76.0613 83.2273 76.128 82.7313 76.128C82.1659 76.128 81.6539 76.0373 81.1953 75.856C80.7366 75.6693 80.3473 75.432 80.0273 75.144L80.3633 74.6C80.4059 74.5307 80.4566 74.4773 80.5153 74.44C80.5739 74.4027 80.6513 74.384 80.7473 74.384C80.8433 74.384 80.9446 74.4213 81.0513 74.496C81.1579 74.5707 81.2859 74.6533 81.4353 74.744C81.5899 74.8347 81.7739 74.9173 81.9873 74.992C82.2059 75.0667 82.4779 75.104 82.8033 75.104C83.0806 75.104 83.3233 75.0693 83.5312 75C83.7393 74.9253 83.9126 74.8267 84.0512 74.704C84.1899 74.5813 84.2913 74.44 84.3553 74.28C84.4246 74.12 84.4593 73.9493 84.4593 73.768C84.4593 73.544 84.3979 73.36 84.2753 73.216C84.1579 73.0667 84.0006 72.9413 83.8033 72.84C83.6059 72.7333 83.3793 72.6427 83.1233 72.568C82.8726 72.488 82.6139 72.4053 82.3473 72.32C82.0859 72.2347 81.8273 72.1387 81.5713 72.032C81.3206 71.92 81.0966 71.7813 80.8993 71.616C80.7019 71.4507 80.5419 71.248 80.4193 71.008C80.3019 70.7627 80.2433 70.4667 80.2433 70.12C80.2433 69.8107 80.3073 69.5147 80.4353 69.232C80.5633 68.944 80.7499 68.6933 80.9953 68.48C81.2406 68.2613 81.5419 68.088 81.8993 67.96C82.2566 67.832 82.6646 67.768 83.1233 67.768C83.6566 67.768 84.1339 67.8533 84.5553 68.024C84.9819 68.1893 85.3499 68.4187 85.6593 68.712L85.3393 69.232ZM89.2208 67.896V76H87.7968V67.896H89.2208ZM89.5408 65.352C89.5408 65.4907 89.5114 65.6213 89.4528 65.744C89.3994 65.8613 89.3248 65.968 89.2288 66.064C89.1381 66.1547 89.0314 66.2267 88.9088 66.28C88.7861 66.3333 88.6554 66.36 88.5168 66.36C88.3781 66.36 88.2474 66.3333 88.1248 66.28C88.0074 66.2267 87.9008 66.1547 87.8048 66.064C87.7141 65.968 87.6421 65.8613 87.5888 65.744C87.5354 65.6213 87.5088 65.4907 87.5088 65.352C87.5088 65.2133 87.5354 65.0827 87.5888 64.96C87.6421 64.832 87.7141 64.7227 87.8048 64.632C87.9008 64.536 88.0074 64.4613 88.1248 64.408C88.2474 64.3547 88.3781 64.328 88.5168 64.328C88.6554 64.328 88.7861 64.3547 88.9088 64.408C89.0314 64.4613 89.1381 64.536 89.2288 64.632C89.3248 64.7227 89.3994 64.832 89.4528 64.96C89.5114 65.0827 89.5408 65.2133 89.5408 65.352ZM94.1865 76.128C93.5465 76.128 93.0532 75.9493 92.7065 75.592C92.3652 75.2347 92.1945 74.72 92.1945 74.048V69.088H91.2185C91.1332 69.088 91.0612 69.064 91.0025 69.016C90.9438 68.9627 90.9145 68.8827 90.9145 68.776V68.208L92.2425 68.04L92.5705 65.536C92.5812 65.456 92.6158 65.392 92.6745 65.344C92.7332 65.2907 92.8078 65.264 92.8985 65.264H93.6185V68.056H95.9385V69.088H93.6185V73.952C93.6185 74.2933 93.7012 74.5467 93.8665 74.712C94.0318 74.8773 94.2452 74.96 94.5065 74.96C94.6558 74.96 94.7838 74.9413 94.8905 74.904C95.0025 74.8613 95.0985 74.816 95.1785 74.768C95.2585 74.72 95.3252 74.6773 95.3785 74.64C95.4372 74.5973 95.4878 74.576 95.5305 74.576C95.6052 74.576 95.6718 74.6213 95.7305 74.712L96.1465 75.392C95.9012 75.6213 95.6052 75.8027 95.2585 75.936C94.9118 76.064 94.5545 76.128 94.1865 76.128ZM99.2833 67.896V76H97.8593V67.896H99.2833ZM99.6033 65.352C99.6033 65.4907 99.5739 65.6213 99.5153 65.744C99.4619 65.8613 99.3873 65.968 99.2913 66.064C99.2006 66.1547 99.0939 66.2267 98.9713 66.28C98.8486 66.3333 98.7179 66.36 98.5793 66.36C98.4406 66.36 98.3099 66.3333 98.1873 66.28C98.0699 66.2267 97.9633 66.1547 97.8673 66.064C97.7766 65.968 97.7046 65.8613 97.6513 65.744C97.5979 65.6213 97.5713 65.4907 97.5713 65.352C97.5713 65.2133 97.5979 65.0827 97.6513 64.96C97.7046 64.832 97.7766 64.7227 97.8673 64.632C97.9633 64.536 98.0699 64.4613 98.1873 64.408C98.3099 64.3547 98.4406 64.328 98.5793 64.328C98.7179 64.328 98.8486 64.3547 98.9713 64.408C99.0939 64.4613 99.2006 64.536 99.2913 64.632C99.3873 64.7227 99.4619 64.832 99.5153 64.96C99.5739 65.0827 99.6033 65.2133 99.6033 65.352ZM100.769 67.896H101.937C102.049 67.896 102.142 67.9253 102.217 67.984C102.292 68.0427 102.345 68.112 102.377 68.192L104.433 73.408C104.508 73.6 104.566 73.792 104.609 73.984C104.652 74.176 104.692 74.3653 104.729 74.552C104.772 74.3653 104.817 74.176 104.865 73.984C104.913 73.792 104.974 73.6 105.049 73.408L107.129 68.192C107.161 68.1067 107.212 68.0373 107.281 67.984C107.356 67.9253 107.446 67.896 107.553 67.896H108.665L105.361 76H104.073L100.769 67.896ZM111.565 67.896V76H110.141V67.896H111.565ZM111.885 65.352C111.885 65.4907 111.855 65.6213 111.797 65.744C111.743 65.8613 111.669 65.968 111.573 66.064C111.482 66.1547 111.375 66.2267 111.253 66.28C111.13 66.3333 110.999 66.36 110.861 66.36C110.722 66.36 110.591 66.3333 110.469 66.28C110.351 66.2267 110.245 66.1547 110.149 66.064C110.058 65.968 109.986 65.8613 109.933 65.744C109.879 65.6213 109.853 65.4907 109.853 65.352C109.853 65.2133 109.879 65.0827 109.933 64.96C109.986 64.832 110.058 64.7227 110.149 64.632C110.245 64.536 110.351 64.4613 110.469 64.408C110.591 64.3547 110.722 64.328 110.861 64.328C110.999 64.328 111.13 64.3547 111.253 64.408C111.375 64.4613 111.482 64.536 111.573 64.632C111.669 64.7227 111.743 64.832 111.797 64.96C111.855 65.0827 111.885 65.2133 111.885 65.352ZM116.53 76.128C115.89 76.128 115.397 75.9493 115.05 75.592C114.709 75.2347 114.538 74.72 114.538 74.048V69.088H113.562C113.477 69.088 113.405 69.064 113.346 69.016C113.288 68.9627 113.258 68.8827 113.258 68.776V68.208L114.586 68.04L114.914 65.536C114.925 65.456 114.96 65.392 115.018 65.344C115.077 65.2907 115.152 65.264 115.242 65.264H115.962V68.056H118.282V69.088H115.962V73.952C115.962 74.2933 116.045 74.5467 116.21 74.712C116.376 74.8773 116.589 74.96 116.85 74.96C117 74.96 117.128 74.9413 117.234 74.904C117.346 74.8613 117.442 74.816 117.522 74.768C117.602 74.72 117.669 74.6773 117.722 74.64C117.781 74.5973 117.832 74.576 117.874 74.576C117.949 74.576 118.016 74.6213 118.074 74.712L118.49 75.392C118.245 75.6213 117.949 75.8027 117.602 75.936C117.256 76.064 116.898 76.128 116.53 76.128ZM122.419 78.392C122.371 78.4987 122.31 78.584 122.235 78.648C122.166 78.712 122.056 78.744 121.907 78.744H120.851L122.331 75.528L118.987 67.896H120.219C120.342 67.896 120.438 67.928 120.507 67.992C120.576 68.0507 120.627 68.1173 120.659 68.192L122.827 73.296C122.875 73.4133 122.915 73.5307 122.947 73.648C122.984 73.7653 123.016 73.8853 123.043 74.008C123.08 73.8853 123.118 73.7653 123.155 73.648C123.192 73.5307 123.235 73.4107 123.283 73.288L125.387 68.192C125.419 68.1067 125.472 68.0373 125.547 67.984C125.627 67.9253 125.712 67.896 125.803 67.896H126.939L122.419 78.392ZM134.604 67.768C135.196 67.768 135.73 67.8667 136.204 68.064C136.684 68.2613 137.09 68.5413 137.42 68.904C137.756 69.2667 138.012 69.7067 138.188 70.224C138.37 70.736 138.46 71.3093 138.46 71.944C138.46 72.584 138.37 73.16 138.188 73.672C138.012 74.184 137.756 74.6213 137.42 74.984C137.09 75.3467 136.684 75.6267 136.204 75.824C135.73 76.016 135.196 76.112 134.604 76.112C134.012 76.112 133.476 76.016 132.996 75.824C132.522 75.6267 132.116 75.3467 131.78 74.984C131.444 74.6213 131.186 74.184 131.004 73.672C130.823 73.16 130.732 72.584 130.732 71.944C130.732 71.3093 130.823 70.736 131.004 70.224C131.186 69.7067 131.444 69.2667 131.78 68.904C132.116 68.5413 132.522 68.2613 132.996 68.064C133.476 67.8667 134.012 67.768 134.604 67.768ZM134.604 75C135.404 75 136.002 74.7333 136.396 74.2C136.791 73.6613 136.988 72.912 136.988 71.952C136.988 70.9867 136.791 70.2347 136.396 69.696C136.002 69.1573 135.404 68.888 134.604 68.888C134.199 68.888 133.847 68.9573 133.548 69.096C133.25 69.2347 132.999 69.4347 132.796 69.696C132.599 69.9573 132.45 70.28 132.348 70.664C132.252 71.0427 132.204 71.472 132.204 71.952C132.204 72.432 132.252 72.8613 132.348 73.24C132.45 73.6187 132.599 73.9387 132.796 74.2C132.999 74.456 133.25 74.6533 133.548 74.792C133.847 74.9307 134.199 75 134.604 75ZM140.535 76V69.112L139.639 69.008C139.527 68.9813 139.434 68.9413 139.359 68.888C139.29 68.8293 139.255 68.7467 139.255 68.64V68.056H140.535V67.272C140.535 66.808 140.599 66.3973 140.727 66.04C140.86 65.6773 141.047 65.3733 141.287 65.128C141.532 64.8773 141.826 64.688 142.167 64.56C142.508 64.432 142.892 64.368 143.319 64.368C143.682 64.368 144.018 64.4213 144.327 64.528L144.295 65.24C144.29 65.3467 144.244 65.4107 144.159 65.432C144.074 65.4533 143.954 65.464 143.799 65.464H143.551C143.306 65.464 143.082 65.496 142.879 65.56C142.682 65.624 142.511 65.728 142.367 65.872C142.223 66.016 142.111 66.2053 142.031 66.44C141.956 66.6747 141.919 66.9653 141.919 67.312V68.056H144.263V69.088H141.967V76H140.535ZM151.075 78.392C151.027 78.4987 150.966 78.584 150.891 78.648C150.822 78.712 150.713 78.744 150.563 78.744H149.507L150.987 75.528L147.643 67.896H148.875C148.998 67.896 149.094 67.928 149.163 67.992C149.233 68.0507 149.283 68.1173 149.315 68.192L151.483 73.296C151.531 73.4133 151.571 73.5307 151.603 73.648C151.641 73.7653 151.673 73.8853 151.699 74.008C151.737 73.8853 151.774 73.7653 151.811 73.648C151.849 73.5307 151.891 73.4107 151.939 73.288L154.043 68.192C154.075 68.1067 154.129 68.0373 154.203 67.984C154.283 67.9253 154.369 67.896 154.459 67.896H155.595L151.075 78.392ZM159.964 67.768C160.556 67.768 161.089 67.8667 161.564 68.064C162.044 68.2613 162.449 68.5413 162.78 68.904C163.116 69.2667 163.372 69.7067 163.548 70.224C163.729 70.736 163.82 71.3093 163.82 71.944C163.82 72.584 163.729 73.16 163.548 73.672C163.372 74.184 163.116 74.6213 162.78 74.984C162.449 75.3467 162.044 75.6267 161.564 75.824C161.089 76.016 160.556 76.112 159.964 76.112C159.372 76.112 158.836 76.016 158.356 75.824C157.881 75.6267 157.476 75.3467 157.14 74.984C156.804 74.6213 156.545 74.184 156.364 73.672C156.182 73.16 156.092 72.584 156.092 71.944C156.092 71.3093 156.182 70.736 156.364 70.224C156.545 69.7067 156.804 69.2667 157.14 68.904C157.476 68.5413 157.881 68.2613 158.356 68.064C158.836 67.8667 159.372 67.768 159.964 67.768ZM159.964 75C160.764 75 161.361 74.7333 161.756 74.2C162.15 73.6613 162.348 72.912 162.348 71.952C162.348 70.9867 162.15 70.2347 161.756 69.696C161.361 69.1573 160.764 68.888 159.964 68.888C159.558 68.888 159.206 68.9573 158.908 69.096C158.609 69.2347 158.358 69.4347 158.156 69.696C157.958 69.9573 157.809 70.28 157.708 70.664C157.612 71.0427 157.564 71.472 157.564 71.952C157.564 72.432 157.612 72.8613 157.708 73.24C157.809 73.6187 157.958 73.9387 158.156 74.2C158.358 74.456 158.609 74.6533 158.908 74.792C159.206 74.9307 159.558 75 159.964 75ZM166.806 67.896V73.064C166.806 73.6773 166.948 74.152 167.23 74.488C167.513 74.824 167.94 74.992 168.51 74.992C168.926 74.992 169.318 74.8933 169.686 74.696C170.054 74.4987 170.393 74.224 170.702 73.872V67.896H172.126V76H171.278C171.076 76 170.948 75.9013 170.894 75.704L170.782 74.832C170.43 75.2213 170.036 75.536 169.598 75.776C169.161 76.0107 168.66 76.128 168.094 76.128C167.652 76.128 167.26 76.056 166.918 75.912C166.582 75.7627 166.3 75.5547 166.07 75.288C165.841 75.0213 165.668 74.6987 165.55 74.32C165.438 73.9413 165.382 73.5227 165.382 73.064V67.896H166.806ZM174.465 76V67.896H175.281C175.436 67.896 175.542 67.9253 175.601 67.984C175.66 68.0427 175.7 68.144 175.721 68.288L175.817 69.552C176.094 68.9867 176.436 68.5467 176.841 68.232C177.252 67.912 177.732 67.752 178.281 67.752C178.505 67.752 178.708 67.7787 178.889 67.832C179.07 67.88 179.238 67.9493 179.393 68.04L179.209 69.104C179.172 69.2373 179.089 69.304 178.961 69.304C178.886 69.304 178.772 69.28 178.617 69.232C178.462 69.1787 178.246 69.152 177.969 69.152C177.473 69.152 177.057 69.296 176.721 69.584C176.39 69.872 176.113 70.2907 175.889 70.84V76H174.465ZM184.012 76V67.896H184.828C184.982 67.896 185.089 67.9253 185.148 67.984C185.206 68.0427 185.246 68.144 185.268 68.288L185.364 69.552C185.641 68.9867 185.982 68.5467 186.388 68.232C186.798 67.912 187.278 67.752 187.828 67.752C188.052 67.752 188.254 67.7787 188.436 67.832C188.617 67.88 188.785 67.9493 188.94 68.04L188.756 69.104C188.718 69.2373 188.636 69.304 188.508 69.304C188.433 69.304 188.318 69.28 188.164 69.232C188.009 69.1787 187.793 69.152 187.516 69.152C187.02 69.152 186.604 69.296 186.268 69.584C185.937 69.872 185.66 70.2907 185.436 70.84V76H184.012ZM193.673 67.768C194.158 67.768 194.606 67.8507 195.017 68.016C195.428 68.176 195.782 68.4107 196.081 68.72C196.38 69.024 196.612 69.4027 196.777 69.856C196.948 70.304 197.033 70.816 197.033 71.392C197.033 71.616 197.009 71.7653 196.961 71.84C196.913 71.9147 196.822 71.952 196.689 71.952H191.297C191.308 72.464 191.377 72.9093 191.505 73.288C191.633 73.6667 191.809 73.984 192.033 74.24C192.257 74.4907 192.524 74.68 192.833 74.808C193.142 74.9307 193.489 74.992 193.873 74.992C194.23 74.992 194.537 74.952 194.793 74.872C195.054 74.7867 195.278 74.696 195.465 74.6C195.652 74.504 195.806 74.416 195.929 74.336C196.057 74.2507 196.166 74.208 196.257 74.208C196.374 74.208 196.465 74.2533 196.529 74.344L196.929 74.864C196.753 75.0773 196.542 75.264 196.297 75.424C196.052 75.5787 195.788 75.7067 195.505 75.808C195.228 75.9093 194.94 75.984 194.641 76.032C194.342 76.0853 194.046 76.112 193.753 76.112C193.193 76.112 192.676 76.0187 192.201 75.832C191.732 75.64 191.324 75.3627 190.977 75C190.636 74.632 190.369 74.1787 190.177 73.64C189.985 73.1013 189.889 72.4827 189.889 71.784C189.889 71.2187 189.974 70.6907 190.145 70.2C190.321 69.7093 190.572 69.2853 190.897 68.928C191.222 68.5653 191.62 68.2827 192.089 68.08C192.558 67.872 193.086 67.768 193.673 67.768ZM193.705 68.816C193.017 68.816 192.476 69.016 192.081 69.416C191.686 69.8107 191.441 70.36 191.345 71.064H195.753C195.753 70.7333 195.708 70.432 195.617 70.16C195.526 69.8827 195.393 69.6453 195.217 69.448C195.041 69.2453 194.825 69.0907 194.569 68.984C194.318 68.872 194.03 68.816 193.705 68.816ZM199.176 76V69.112L198.28 69.008C198.168 68.9813 198.074 68.9413 198 68.888C197.93 68.8293 197.896 68.7467 197.896 68.64V68.056H199.176V67.624C199.176 67.176 199.245 66.752 199.384 66.352C199.522 65.9467 199.73 65.5947 200.008 65.296C200.285 64.9973 200.632 64.76 201.048 64.584C201.464 64.408 201.949 64.32 202.504 64.32C202.946 64.32 203.37 64.3387 203.776 64.376C204.186 64.408 204.584 64.424 204.968 64.424H205.767V76H204.344V65.424C204.056 65.4133 203.765 65.4 203.472 65.384C203.184 65.368 202.933 65.36 202.72 65.36C202.026 65.36 201.493 65.56 201.12 65.96C200.746 66.3547 200.56 66.9093 200.56 67.624V68.056H202.672V69.088H200.608V76H199.176ZM211.564 67.768C212.049 67.768 212.497 67.8507 212.908 68.016C213.318 68.176 213.673 68.4107 213.972 68.72C214.27 69.024 214.502 69.4027 214.668 69.856C214.838 70.304 214.924 70.816 214.924 71.392C214.924 71.616 214.9 71.7653 214.852 71.84C214.804 71.9147 214.713 71.952 214.58 71.952H209.188C209.198 72.464 209.268 72.9093 209.396 73.288C209.524 73.6667 209.7 73.984 209.924 74.24C210.148 74.4907 210.414 74.68 210.724 74.808C211.033 74.9307 211.38 74.992 211.764 74.992C212.121 74.992 212.428 74.952 212.684 74.872C212.945 74.7867 213.169 74.696 213.356 74.6C213.542 74.504 213.697 74.416 213.82 74.336C213.948 74.2507 214.057 74.208 214.148 74.208C214.265 74.208 214.356 74.2533 214.42 74.344L214.82 74.864C214.644 75.0773 214.433 75.264 214.188 75.424C213.942 75.5787 213.678 75.7067 213.396 75.808C213.118 75.9093 212.83 75.984 212.532 76.032C212.233 76.0853 211.937 76.112 211.644 76.112C211.084 76.112 210.566 76.0187 210.092 75.832C209.622 75.64 209.214 75.3627 208.868 75C208.526 74.632 208.26 74.1787 208.068 73.64C207.876 73.1013 207.78 72.4827 207.78 71.784C207.78 71.2187 207.865 70.6907 208.036 70.2C208.212 69.7093 208.462 69.2853 208.788 68.928C209.113 68.5653 209.51 68.2827 209.98 68.08C210.449 67.872 210.977 67.768 211.564 67.768ZM211.595 68.816C210.908 68.816 210.366 69.016 209.972 69.416C209.577 69.8107 209.332 70.36 209.236 71.064H213.644C213.644 70.7333 213.598 70.432 213.508 70.16C213.417 69.8827 213.284 69.6453 213.108 69.448C212.932 69.2453 212.716 69.0907 212.46 68.984C212.209 68.872 211.921 68.816 211.595 68.816ZM222.274 69.336C222.231 69.3947 222.189 69.44 222.146 69.472C222.103 69.504 222.042 69.52 221.962 69.52C221.882 69.52 221.794 69.488 221.698 69.424C221.607 69.3547 221.49 69.28 221.346 69.2C221.202 69.12 221.026 69.048 220.818 68.984C220.615 68.9147 220.365 68.88 220.066 68.88C219.671 68.88 219.322 68.952 219.018 69.096C218.714 69.2347 218.458 69.4373 218.25 69.704C218.047 69.9707 217.893 70.2933 217.786 70.672C217.685 71.0507 217.634 71.4747 217.634 71.944C217.634 72.4347 217.69 72.872 217.802 73.256C217.914 73.6347 218.071 73.9547 218.274 74.216C218.477 74.472 218.722 74.6693 219.01 74.808C219.303 74.9413 219.631 75.008 219.994 75.008C220.341 75.008 220.626 74.968 220.85 74.888C221.074 74.8027 221.261 74.7093 221.41 74.608C221.559 74.5067 221.682 74.416 221.778 74.336C221.874 74.2507 221.97 74.208 222.066 74.208C222.189 74.208 222.279 74.2533 222.338 74.344L222.738 74.864C222.386 75.296 221.946 75.6133 221.418 75.816C220.89 76.0133 220.333 76.112 219.746 76.112C219.239 76.112 218.767 76.0187 218.33 75.832C217.898 75.6453 217.522 75.376 217.202 75.024C216.882 74.6667 216.629 74.2293 216.442 73.712C216.261 73.1947 216.17 72.6053 216.17 71.944C216.17 71.3413 216.253 70.784 216.418 70.272C216.589 69.76 216.834 69.32 217.154 68.952C217.479 68.5787 217.879 68.288 218.354 68.08C218.829 67.872 219.373 67.768 219.986 67.768C220.551 67.768 221.053 67.8613 221.49 68.048C221.927 68.2293 222.314 68.488 222.65 68.824L222.274 69.336ZM226.671 76.128C226.031 76.128 225.538 75.9493 225.191 75.592C224.85 75.2347 224.679 74.72 224.679 74.048V69.088H223.703C223.618 69.088 223.546 69.064 223.487 69.016C223.428 68.9627 223.399 68.8827 223.399 68.776V68.208L224.727 68.04L225.055 65.536C225.066 65.456 225.1 65.392 225.159 65.344C225.218 65.2907 225.292 65.264 225.383 65.264H226.103V68.056H228.423V69.088H226.103V73.952C226.103 74.2933 226.186 74.5467 226.351 74.712C226.516 74.8773 226.73 74.96 226.991 74.96C227.14 74.96 227.268 74.9413 227.375 74.904C227.487 74.8613 227.583 74.816 227.663 74.768C227.743 74.72 227.81 74.6773 227.863 74.64C227.922 74.5973 227.972 74.576 228.015 74.576C228.09 74.576 228.156 74.6213 228.215 74.712L228.631 75.392C228.386 75.6213 228.09 75.8027 227.743 75.936C227.396 76.064 227.039 76.128 226.671 76.128ZM231.768 67.896V76H230.344V67.896H231.768ZM232.088 65.352C232.088 65.4907 232.058 65.6213 232 65.744C231.946 65.8613 231.872 65.968 231.776 66.064C231.685 66.1547 231.578 66.2267 231.456 66.28C231.333 66.3333 231.202 66.36 231.064 66.36C230.925 66.36 230.794 66.3333 230.672 66.28C230.554 66.2267 230.448 66.1547 230.352 66.064C230.261 65.968 230.189 65.8613 230.136 65.744C230.082 65.6213 230.056 65.4907 230.056 65.352C230.056 65.2133 230.082 65.0827 230.136 64.96C230.189 64.832 230.261 64.7227 230.352 64.632C230.448 64.536 230.554 64.4613 230.672 64.408C230.794 64.3547 230.925 64.328 231.064 64.328C231.202 64.328 231.333 64.3547 231.456 64.408C231.578 64.4613 231.685 64.536 231.776 64.632C231.872 64.7227 231.946 64.832 232 64.96C232.058 65.0827 232.088 65.2133 232.088 65.352ZM237.557 67.768C238.149 67.768 238.683 67.8667 239.157 68.064C239.637 68.2613 240.043 68.5413 240.373 68.904C240.709 69.2667 240.965 69.7067 241.141 70.224C241.323 70.736 241.413 71.3093 241.413 71.944C241.413 72.584 241.323 73.16 241.141 73.672C240.965 74.184 240.709 74.6213 240.373 74.984C240.043 75.3467 239.637 75.6267 239.157 75.824C238.683 76.016 238.149 76.112 237.557 76.112C236.965 76.112 236.429 76.016 235.949 75.824C235.475 75.6267 235.069 75.3467 234.733 74.984C234.397 74.6213 234.139 74.184 233.957 73.672C233.776 73.16 233.685 72.584 233.685 71.944C233.685 71.3093 233.776 70.736 233.957 70.224C234.139 69.7067 234.397 69.2667 234.733 68.904C235.069 68.5413 235.475 68.2613 235.949 68.064C236.429 67.8667 236.965 67.768 237.557 67.768ZM237.557 75C238.357 75 238.955 74.7333 239.349 74.2C239.744 73.6613 239.941 72.912 239.941 71.952C239.941 70.9867 239.744 70.2347 239.349 69.696C238.955 69.1573 238.357 68.888 237.557 68.888C237.152 68.888 236.8 68.9573 236.501 69.096C236.203 69.2347 235.952 69.4347 235.749 69.696C235.552 69.9573 235.403 70.28 235.301 70.664C235.205 71.0427 235.157 71.472 235.157 71.952C235.157 72.432 235.205 72.8613 235.301 73.24C235.403 73.6187 235.552 73.9387 235.749 74.2C235.952 74.456 236.203 74.6533 236.501 74.792C236.8 74.9307 237.152 75 237.557 75ZM243.168 76V67.896H244.016C244.219 67.896 244.347 67.9947 244.4 68.192L244.512 69.072C244.864 68.6827 245.256 68.368 245.688 68.128C246.125 67.888 246.629 67.768 247.2 67.768C247.643 67.768 248.032 67.8427 248.368 67.992C248.709 68.136 248.992 68.344 249.216 68.616C249.445 68.8827 249.619 69.2053 249.736 69.584C249.853 69.9627 249.912 70.3813 249.912 70.84V76H248.488V70.84C248.488 70.2267 248.347 69.752 248.064 69.416C247.787 69.0747 247.36 68.904 246.784 68.904C246.363 68.904 245.968 69.0053 245.6 69.208C245.237 69.4107 244.901 69.6853 244.592 70.032V76H243.168ZM256.699 69.232C256.635 69.3493 256.536 69.408 256.403 69.408C256.323 69.408 256.232 69.3787 256.131 69.32C256.029 69.2613 255.904 69.1973 255.755 69.128C255.611 69.0533 255.437 68.9867 255.235 68.928C255.032 68.864 254.792 68.832 254.515 68.832C254.275 68.832 254.059 68.864 253.867 68.928C253.675 68.9867 253.509 69.0693 253.371 69.176C253.237 69.2827 253.133 69.408 253.059 69.552C252.989 69.6907 252.955 69.8427 252.955 70.008C252.955 70.216 253.013 70.3893 253.131 70.528C253.253 70.6667 253.413 70.7867 253.611 70.888C253.808 70.9893 254.032 71.08 254.283 71.16C254.533 71.2347 254.789 71.3173 255.051 71.408C255.317 71.4933 255.576 71.5893 255.827 71.696C256.077 71.8027 256.301 71.936 256.499 72.096C256.696 72.256 256.853 72.4533 256.971 72.688C257.093 72.9173 257.155 73.1947 257.155 73.52C257.155 73.8933 257.088 74.24 256.955 74.56C256.821 74.8747 256.624 75.1493 256.363 75.384C256.101 75.6133 255.781 75.7947 255.403 75.928C255.024 76.0613 254.587 76.128 254.091 76.128C253.525 76.128 253.013 76.0373 252.555 75.856C252.096 75.6693 251.707 75.432 251.387 75.144L251.723 74.6C251.765 74.5307 251.816 74.4773 251.875 74.44C251.933 74.4027 252.011 74.384 252.107 74.384C252.203 74.384 252.304 74.4213 252.411 74.496C252.517 74.5707 252.645 74.6533 252.795 74.744C252.949 74.8347 253.133 74.9173 253.347 74.992C253.565 75.0667 253.837 75.104 254.163 75.104C254.44 75.104 254.683 75.0693 254.891 75C255.099 74.9253 255.272 74.8267 255.411 74.704C255.549 74.5813 255.651 74.44 255.715 74.28C255.784 74.12 255.819 73.9493 255.819 73.768C255.819 73.544 255.757 73.36 255.635 73.216C255.517 73.0667 255.36 72.9413 255.163 72.84C254.965 72.7333 254.739 72.6427 254.483 72.568C254.232 72.488 253.973 72.4053 253.707 72.32C253.445 72.2347 253.187 72.1387 252.931 72.032C252.68 71.92 252.456 71.7813 252.259 71.616C252.061 71.4507 251.901 71.248 251.779 71.008C251.661 70.7627 251.603 70.4667 251.603 70.12C251.603 69.8107 251.667 69.5147 251.795 69.232C251.923 68.944 252.109 68.6933 252.355 68.48C252.6 68.2613 252.901 68.088 253.259 67.96C253.616 67.832 254.024 67.768 254.483 67.768C255.016 67.768 255.493 67.8533 255.915 68.024C256.341 68.1893 256.709 68.4187 257.019 68.712L256.699 69.232ZM265.37 67.768C265.962 67.768 266.495 67.8667 266.97 68.064C267.45 68.2613 267.855 68.5413 268.186 68.904C268.522 69.2667 268.778 69.7067 268.954 70.224C269.135 70.736 269.226 71.3093 269.226 71.944C269.226 72.584 269.135 73.16 268.954 73.672C268.778 74.184 268.522 74.6213 268.186 74.984C267.855 75.3467 267.45 75.6267 266.97 75.824C266.495 76.016 265.962 76.112 265.37 76.112C264.778 76.112 264.242 76.016 263.762 75.824C263.287 75.6267 262.882 75.3467 262.546 74.984C262.21 74.6213 261.951 74.184 261.77 73.672C261.589 73.16 261.498 72.584 261.498 71.944C261.498 71.3093 261.589 70.736 261.77 70.224C261.951 69.7067 262.21 69.2667 262.546 68.904C262.882 68.5413 263.287 68.2613 263.762 68.064C264.242 67.8667 264.778 67.768 265.37 67.768ZM265.37 75C266.17 75 266.767 74.7333 267.162 74.2C267.557 73.6613 267.754 72.912 267.754 71.952C267.754 70.9867 267.557 70.2347 267.162 69.696C266.767 69.1573 266.17 68.888 265.37 68.888C264.965 68.888 264.613 68.9573 264.314 69.096C264.015 69.2347 263.765 69.4347 263.562 69.696C263.365 69.9573 263.215 70.28 263.114 70.664C263.018 71.0427 262.97 71.472 262.97 71.952C262.97 72.432 263.018 72.8613 263.114 73.24C263.215 73.6187 263.365 73.9387 263.562 74.2C263.765 74.456 264.015 74.6533 264.314 74.792C264.613 74.9307 264.965 75 265.37 75ZM269.753 67.896H270.921C271.033 67.896 271.127 67.9253 271.201 67.984C271.276 68.0427 271.329 68.112 271.361 68.192L273.417 73.408C273.492 73.6 273.551 73.792 273.593 73.984C273.636 74.176 273.676 74.3653 273.713 74.552C273.756 74.3653 273.801 74.176 273.849 73.984C273.897 73.792 273.959 73.6 274.033 73.408L276.113 68.192C276.145 68.1067 276.196 68.0373 276.265 67.984C276.34 67.9253 276.431 67.896 276.537 67.896H277.649L274.345 76H273.057L269.753 67.896ZM281.97 67.768C282.455 67.768 282.903 67.8507 283.314 68.016C283.724 68.176 284.079 68.4107 284.378 68.72C284.676 69.024 284.908 69.4027 285.074 69.856C285.244 70.304 285.33 70.816 285.33 71.392C285.33 71.616 285.306 71.7653 285.258 71.84C285.21 71.9147 285.119 71.952 284.986 71.952H279.594C279.604 72.464 279.674 72.9093 279.802 73.288C279.93 73.6667 280.106 73.984 280.33 74.24C280.554 74.4907 280.82 74.68 281.13 74.808C281.439 74.9307 281.786 74.992 282.17 74.992C282.527 74.992 282.834 74.952 283.09 74.872C283.351 74.7867 283.575 74.696 283.762 74.6C283.948 74.504 284.103 74.416 284.226 74.336C284.354 74.2507 284.463 74.208 284.554 74.208C284.671 74.208 284.762 74.2533 284.826 74.344L285.226 74.864C285.05 75.0773 284.839 75.264 284.594 75.424C284.348 75.5787 284.084 75.7067 283.802 75.808C283.524 75.9093 283.236 75.984 282.938 76.032C282.639 76.0853 282.343 76.112 282.05 76.112C281.49 76.112 280.972 76.0187 280.498 75.832C280.028 75.64 279.62 75.3627 279.274 75C278.932 74.632 278.666 74.1787 278.474 73.64C278.282 73.1013 278.186 72.4827 278.186 71.784C278.186 71.2187 278.271 70.6907 278.442 70.2C278.618 69.7093 278.868 69.2853 279.194 68.928C279.519 68.5653 279.916 68.2827 280.386 68.08C280.855 67.872 281.383 67.768 281.97 67.768ZM282.002 68.816C281.314 68.816 280.772 69.016 280.378 69.416C279.983 69.8107 279.738 70.36 279.642 71.064H284.05C284.05 70.7333 284.004 70.432 283.914 70.16C283.823 69.8827 283.69 69.6453 283.514 69.448C283.338 69.2453 283.122 69.0907 282.866 68.984C282.615 68.872 282.327 68.816 282.002 68.816ZM287.152 76V67.896H287.968C288.123 67.896 288.23 67.9253 288.288 67.984C288.347 68.0427 288.387 68.144 288.408 68.288L288.504 69.552C288.782 68.9867 289.123 68.5467 289.528 68.232C289.939 67.912 290.419 67.752 290.968 67.752C291.192 67.752 291.395 67.7787 291.576 67.832C291.758 67.88 291.926 67.9493 292.08 68.04L291.896 69.104C291.859 69.2373 291.776 69.304 291.648 69.304C291.574 69.304 291.459 69.28 291.304 69.232C291.15 69.1787 290.934 69.152 290.656 69.152C290.16 69.152 289.744 69.296 289.408 69.584C289.078 69.872 288.8 70.2907 288.576 70.84V76H287.152ZM299.155 76.128C298.515 76.128 298.022 75.9493 297.675 75.592C297.334 75.2347 297.163 74.72 297.163 74.048V69.088H296.187C296.102 69.088 296.03 69.064 295.971 69.016C295.913 68.9627 295.883 68.8827 295.883 68.776V68.208L297.211 68.04L297.539 65.536C297.55 65.456 297.585 65.392 297.643 65.344C297.702 65.2907 297.777 65.264 297.867 65.264H298.587V68.056H300.907V69.088H298.587V73.952C298.587 74.2933 298.67 74.5467 298.835 74.712C299.001 74.8773 299.214 74.96 299.475 74.96C299.625 74.96 299.753 74.9413 299.859 74.904C299.971 74.8613 300.067 74.816 300.147 74.768C300.227 74.72 300.294 74.6773 300.347 74.64C300.406 74.5973 300.457 74.576 300.499 74.576C300.574 74.576 300.641 74.6213 300.699 74.712L301.115 75.392C300.87 75.6213 300.574 75.8027 300.227 75.936C299.881 76.064 299.523 76.128 299.155 76.128ZM304.252 67.896V76H302.828V67.896H304.252ZM304.572 65.352C304.572 65.4907 304.543 65.6213 304.484 65.744C304.431 65.8613 304.356 65.968 304.26 66.064C304.169 66.1547 304.063 66.2267 303.94 66.28C303.817 66.3333 303.687 66.36 303.548 66.36C303.409 66.36 303.279 66.3333 303.156 66.28C303.039 66.2267 302.932 66.1547 302.836 66.064C302.745 65.968 302.673 65.8613 302.62 65.744C302.567 65.6213 302.54 65.4907 302.54 65.352C302.54 65.2133 302.567 65.0827 302.62 64.96C302.673 64.832 302.745 64.7227 302.836 64.632C302.932 64.536 303.039 64.4613 303.156 64.408C303.279 64.3547 303.409 64.328 303.548 64.328C303.687 64.328 303.817 64.3547 303.94 64.408C304.063 64.4613 304.169 64.536 304.26 64.632C304.356 64.7227 304.431 64.832 304.484 64.96C304.543 65.0827 304.572 65.2133 304.572 65.352ZM306.762 76V67.896H307.61C307.812 67.896 307.94 67.9947 307.994 68.192L308.098 69.024C308.396 68.656 308.73 68.3547 309.098 68.12C309.471 67.8853 309.903 67.768 310.394 67.768C310.943 67.768 311.386 67.92 311.722 68.224C312.063 68.528 312.308 68.9387 312.458 69.456C312.57 69.1627 312.716 68.9093 312.898 68.696C313.084 68.4827 313.292 68.3067 313.522 68.168C313.751 68.0293 313.994 67.928 314.25 67.864C314.511 67.8 314.775 67.768 315.042 67.768C315.468 67.768 315.847 67.8373 316.178 67.976C316.514 68.1093 316.796 68.3067 317.026 68.568C317.26 68.8293 317.439 69.152 317.562 69.536C317.684 69.9147 317.746 70.3493 317.746 70.84V76H316.322V70.84C316.322 70.2053 316.183 69.7253 315.906 69.4C315.628 69.0693 315.226 68.904 314.698 68.904C314.463 68.904 314.239 68.9467 314.026 69.032C313.818 69.112 313.634 69.232 313.474 69.392C313.314 69.552 313.186 69.7547 313.09 70C312.999 70.24 312.954 70.52 312.954 70.84V76H311.53V70.84C311.53 70.1893 311.399 69.704 311.138 69.384C310.876 69.064 310.495 68.904 309.994 68.904C309.642 68.904 309.314 69 309.01 69.192C308.711 69.3787 308.436 69.6347 308.186 69.96V76H306.762ZM323.11 67.768C323.596 67.768 324.044 67.8507 324.454 68.016C324.865 68.176 325.22 68.4107 325.518 68.72C325.817 69.024 326.049 69.4027 326.214 69.856C326.385 70.304 326.47 70.816 326.47 71.392C326.47 71.616 326.446 71.7653 326.398 71.84C326.35 71.9147 326.26 71.952 326.126 71.952H320.734C320.745 72.464 320.814 72.9093 320.942 73.288C321.07 73.6667 321.246 73.984 321.47 74.24C321.694 74.4907 321.961 74.68 322.27 74.808C322.58 74.9307 322.926 74.992 323.31 74.992C323.668 74.992 323.974 74.952 324.23 74.872C324.492 74.7867 324.716 74.696 324.902 74.6C325.089 74.504 325.244 74.416 325.366 74.336C325.494 74.2507 325.604 74.208 325.694 74.208C325.812 74.208 325.902 74.2533 325.966 74.344L326.366 74.864C326.19 75.0773 325.98 75.264 325.734 75.424C325.489 75.5787 325.225 75.7067 324.942 75.808C324.665 75.9093 324.377 75.984 324.078 76.032C323.78 76.0853 323.484 76.112 323.19 76.112C322.63 76.112 322.113 76.0187 321.638 75.832C321.169 75.64 320.761 75.3627 320.414 75C320.073 74.632 319.806 74.1787 319.614 73.64C319.422 73.1013 319.326 72.4827 319.326 71.784C319.326 71.2187 319.412 70.6907 319.582 70.2C319.758 69.7093 320.009 69.2853 320.334 68.928C320.66 68.5653 321.057 68.2827 321.526 68.08C321.996 67.872 322.524 67.768 323.11 67.768ZM323.142 68.816C322.454 68.816 321.913 69.016 321.518 69.416C321.124 69.8107 320.878 70.36 320.782 71.064H325.19C325.19 70.7333 325.145 70.432 325.054 70.16C324.964 69.8827 324.83 69.6453 324.654 69.448C324.478 69.2453 324.262 69.0907 324.006 68.984C323.756 68.872 323.468 68.816 323.142 68.816Z" fill="#07454C" fill-opacity="0.8"/>
<defs>
<linearGradient id="paint0_linear" x1="165.672" y1="104" x2="168.371" y2="327.997" gradientUnits="userSpaceOnUse">
<stop stop-color="#33CCAB"/>
<stop offset="1" stop-color="#6590ED"/>
</linearGradient>
<linearGradient id="paint1_linear" x1="32" y1="181.5" x2="334" y2="181.5" gradientUnits="userSpaceOnUse">
<stop stop-color="white"/>
<stop offset="0.503588" stop-color="white" stop-opacity="0"/>
<stop offset="1" stop-color="white"/>
</linearGradient>
<linearGradient id="paint2_linear" x1="200" y1="328" x2="201" y2="104" gradientUnits="userSpaceOnUse">
<stop stop-color="white"/>
<stop offset="1" stop-color="white" stop-opacity="0"/>
</linearGradient>
<linearGradient id="paint3_linear" x1="334" y1="265.108" x2="32" y2="265.108" gradientUnits="userSpaceOnUse">
<stop stop-color="#33CCAB"/>
<stop offset="1" stop-color="#6590ED"/>
</linearGradient>
</defs>
</svg>
