<svg xmlns="http://www.w3.org/2000/svg" width="188" height="193" viewBox="0 0 188 193">
  <g fill="none" fill-rule="evenodd">
    <path fill="#CAB9CB" fill-rule="nonzero" d="M140.848072,54.6708123 C155.89697,75.6629138 173.74937,83.91 181.299175,106.36395 C188.848979,128.817899 198.385989,166.176898 145.462626,187.416044 C119.672117,196.939071 66.7766058,193.891432 39.649544,181.242158 C5.47723555,170.393657 -1.25185448,112.946017 0.262429554,95.1180086 C1.77671359,77.29 3.15464328,66.37 20.2227243,36.8271598 C37.2908053,7.28431969 59.0873604,-3.60762146 86.178619,1.58876739 C113.269878,6.78515625 125.799175,33.6787109 140.848072,54.6708123 Z" transform="matrix(-1 0 0 1 187.3 0)"/>
    <g transform="translate(32.38 6)">
      <path fill="#000" fill-rule="nonzero" d="M51.35,118.990218 C62.6586913,123.216859 75.1074023,123.252336 86.44,119.090218 L86.44,114.780218 L51.35,114.780218 L51.35,118.990218 Z" opacity=".1"/>
      <path fill="#4B384C" fill-rule="nonzero" d="M131,32.7833078 C126.988729,9.34134731 122.740078,0.78 112.41,0.78 L24.7,0.78 C1,-0.0502175418 5.68434189e-14,44.5069407 5.68434189e-14,44.5069407 C16.193694,56.1697825 98.2200612,62.4468821 131,32.7833078 Z" transform="translate(0 132.83)"/>
      <path fill="#0F1219" d="M26.8554687,128.531918 C20.66,128.531918 18.1662084,126.733721 16.6738281,121.684262 C13.1230469,109.670218 3.17779532,108.442249 8.85351562,81.9655121 C9.85395025,77.2985723 10.482702,72.1740847 13.1230469,68.1979339 C15.7501645,64.2417024 17.6878424,63.4194183 22.5429687,61.3502777 C30.2460937,58.0673871 22.5429687,47.1373871 40.3867187,41.5475433 C48.5112791,39.0023932 48.764375,32.2780121 56.8203125,32.2780121 C58.4752481,32.2780121 69.6972627,31.6524849 70.82,32.2780121 C75.5931762,34.9373619 71.4719275,38.4361819 76.4941406,40.5885589 C78.6107599,41.4956815 82.9113782,38.2147748 85.2128906,38.1373871 C89.9842937,37.9769498 98.0587061,40.4272011 102.830078,40.5885589 C106.660517,40.7180963 107.729122,47.1373871 111.82,47.1373871 C119.615391,47.1373871 125.39,52.4923269 125.39,61.3502777 C125.39,70.2983277 130.266393,79.1210615 132.092309,88.1256683 C138.959432,121.991272 111.82,132.36395 97.4570312,132.36395 L26.8554687,128.531918 Z" transform="rotate(-180 70.163 82.182)"/>
      <path fill="#CF9595" fill-rule="nonzero" d="M54.63,104.440218 L83.02,104.440218 C84.8701539,104.440218 86.37,105.940064 86.37,107.790218 L86.37,132.510218 C86.37,142.197292 78.5170745,150.050218 68.83,150.050218 L68.83,150.050218 C59.1429255,150.050218 51.29,142.197292 51.29,132.510218 L51.29,107.790218 C51.29,105.943962 52.7837525,104.445729 54.63,104.440218 Z"/>
      <path fill="#000" fill-rule="nonzero" d="M51,106 L86.09,106 L86.09,134.07 C86.09,143.757075 78.2370745,151.61 68.55,151.61 L68.55,151.61 C58.8629255,151.61 51.01,143.757075 51.01,134.07 L51.01,106 L51,106 Z" opacity=".05"/>
      <path fill="#0F1219" d="M24.8554687,96.5319183 C18.66,96.5319183 16.1662084,94.7337206 14.6738281,89.6842621 C11.1230469,77.6702175 1.17779532,76.4422494 6.85351562,49.9655121 C7.85395025,45.2985723 8.48270195,40.1740847 11.1230469,36.1979339 C13.7501645,32.2417024 15.6878424,31.4194183 20.5429687,29.3502777 C28.2460937,26.0673871 20.5429687,15.1373871 38.3867187,9.54754331 C46.5112791,7.00239317 46.764375,0.278012061 54.8203125,0.278012061 C56.4752481,0.278012061 67.6972627,-0.347515076 68.82,0.278012061 C73.5931762,2.93736186 69.4719275,6.43618186 74.4941406,8.58855894 C76.6107599,9.49568148 80.9113782,6.21477484 83.2128906,6.13738706 C87.9842937,5.97694984 96.0587061,8.42720114 100.830078,8.58855894 C104.660517,8.71809634 105.729122,15.1373871 109.82,15.1373871 C117.615391,15.1373871 123.39,20.4923269 123.39,29.3502777 C123.39,38.2983277 128.266393,47.1210615 130.092309,56.1256683 C136.959432,89.9912725 109.82,100.36395 95.4570312,100.36395 L24.8554687,96.5319183 Z"/>
      <path fill="#CF9595" fill-rule="nonzero" d="M118.948756,77.7520969 C115.777464,102.474407 94.6549465,121.58 69.0700781,121.58 C43.5135378,121.58 22.4094718,102.516692 19.202,77.8341952 C16.9094441,77.2673788 15.1400781,73.5908976 15.1400781,69.14 C15.1400781,64.2964627 17.2353855,60.37 19.8200781,60.37 C19.8695713,60.37 19.918885,60.3714397 19.9680081,60.374298 C24.9533795,37.8482042 45.0441743,21 69.0700781,21 C93.0953239,21 113.185676,37.8472813 118.171739,60.3724472 C120.704848,60.48359 122.740078,64.366405 122.740078,69.14 C122.740078,73.414125 121.108466,76.9741258 118.948757,77.7520908 Z"/>
      <path fill="#0F1219" d="M59.6194753 100C62.4871126 101.472866 65.4530662 102.209298 68.5173363 102.209298 71.5816065 102.209298 74.6550408 101.472866 77.7376393 100 75.7677087 101.579326 74.0235681 103.171482 72.5052175 104.776469 70.9868668 106.381456 69.6575731 108.038102 68.5173363 109.746408 67.3381092 108.151433 65.9935748 106.527032 64.4837331 104.873204 62.9738914 103.219376 61.3524721 101.594974 59.6194753 100zM68.6194753 87.9036362C69.4486393 87.2104988 70.7153979 87 72.1201485 87 73.8035609 87 82.5956329 90.41926 85.4567821 92.4798299 87.364215 93.8535432 88.0099223 95.6935999 87.3939042 98 86.9997838 96.7363198 85.1236392 95.697651 81.7654702 94.8839938 76.7282168 93.6635081 71.9705004 94.1628396 70.436736 93.8914152 69.283902 93.6874026 68.9975807 93.9434203 68.6194753 93.3684962 68.2413699 93.9434203 67.9550486 93.6874026 66.8022145 93.8914152 65.2684502 94.1628396 60.5107337 93.6635081 55.4734803 94.8839938 52.1153114 95.697651 50.2391667 96.7363198 49.8450463 98 49.2290282 95.6935999 49.8747356 93.8535432 51.7821684 92.4798299 54.6433177 90.41926 63.4353896 87 65.1188021 87 66.5235526 87 67.7903112 87.2104988 68.6194753 87.9036362zM42 28.4747583C83.3714081.545070849 113.875547 35.1614771 118.914609 61.9935083 107.19263 45.7908172 96.7544018 39.5540984 87.5999237 43.2833521 75.8065903 48.0875945 60.6066158 43.1513965 42 28.4747583z"/>
      <path fill="#0F1219" d="M15.02,25.4747583 C28.9346094,11.8302175 51.2346094,34.0654477 55.9146094,37.0654477 C44.121276,41.8696901 30.4897396,38.0061269 15.02,25.4747583 Z" transform="matrix(-1 0 0 1 70.935 0)"/>
    </g>
  </g>
</svg>
