<svg width="663" height="634" viewBox="0 0 663 634" fill="none" xmlns="http://www.w3.org/2000/svg">
<circle cx="320.708" cy="290" r="290" fill="#F4F2F0"/>
<circle cx="320.708" cy="290" r="231.414" fill="#ECE7E4"/>
<ellipse cx="320.708" cy="289.466" rx="172.828" ry="172.295" fill="#E1D9D5"/>
<ellipse cx="320.708" cy="289.647" rx="114.242" ry="113.89" fill="#D7CCC6"/>
<g style="mix-blend-mode:multiply">
<path d="M423.658 25.1628C468.272 21.497 502.743 92.5543 523.414 155.949C544.085 219.345 550.842 275.148 540.613 335.444C530.563 395.773 503.475 460.77 455.569 487.586C407.843 514.435 339.246 503.278 268.177 492.203C197.17 481.232 123.397 470.379 92.2946 428.507C61.1405 386.808 72.5319 313.882 109.154 268.223C145.775 222.564 217.913 215.245 276.186 166.803C334.459 118.361 379.044 28.8287 423.658 25.1628Z" fill="#6590ED"/>
</g>
<g style="mix-blend-mode:multiply">
<path d="M371.358 151.638C422.398 187.504 478.301 228.432 494.428 279.988C510.554 331.543 487.012 393.798 452.692 435.843C418.333 477.789 373.265 499.498 335.77 481.278C298.235 462.959 268.343 404.684 228.719 345.302C189.027 285.948 139.634 225.361 138.023 176.695C136.303 127.957 182.256 91.0682 228.287 88.0398C274.317 85.0115 320.426 115.843 371.358 151.638Z" fill="#CC33A1"/>
</g>
</svg>
