<svg width="267" height="260" viewBox="0 0 267 260" fill="none" xmlns="http://www.w3.org/2000/svg">
<g clip-path="url(#clip0)">
<path opacity="0.1" d="M107.5 213.694C158.911 227.16 211.538 196.275 225.043 144.712C238.549 93.1476 207.821 40.4304 156.409 26.9644C104.998 13.4983 52.3714 44.3826 38.8655 95.9465C25.3595 147.51 56.0881 200.228 107.5 213.694Z" fill="#F2F6F7"/>
<path opacity="0.1" d="M112.44 194.832C153.466 205.578 195.46 180.933 206.238 139.786C217.015 98.6389 192.494 56.5716 151.469 45.826C110.443 35.0803 68.4489 59.7254 57.6714 100.872C46.8939 142.019 71.4147 184.086 112.44 194.832Z" fill="#F2F6F7"/>
<path opacity="0.1" d="M117.47 175.627C148.11 183.652 179.453 165.323 187.477 134.688C195.501 104.053 177.168 72.7125 146.529 64.6872C115.889 56.662 84.5465 74.991 76.5223 105.626C68.4981 136.261 86.8313 167.602 117.47 175.627Z" fill="#F2F6F7"/>
<path opacity="0.1" d="M122.38 156.882C142.633 162.187 163.351 150.071 168.656 129.821C173.96 109.57 161.841 88.8536 141.588 83.5488C121.335 78.244 100.617 90.3598 95.3129 110.61C90.0088 130.861 102.127 151.577 122.38 156.882Z" fill="#F2F6F7"/>
<g style="mix-blend-mode:darken">
<path d="M187.334 43.7212C201.964 46.2921 207.037 72.067 208.326 94.2147C209.616 116.363 207.079 134.897 198.711 153.449C190.398 172.026 176.222 190.675 158.583 195.28C140.999 199.911 119.92 190.552 98.0411 181.011C76.1733 171.509 53.4076 161.812 46.9547 145.716C40.4707 129.672 50.2769 107.152 65.8827 95.531C81.4882 83.9102 105.261 87.6191 128.052 76.9228C150.842 66.2265 172.704 41.1504 187.334 43.7212Z" fill="#33CCAB"/>
</g>
<g style="mix-blend-mode:multiply">
<path d="M159.881 80.0423C173.24 95.8806 187.733 113.757 188.562 131.712C189.391 149.665 176.585 167.729 162.022 178.38C147.456 188.995 131.159 192.195 120.66 183.177C110.156 174.123 105.475 152.848 97.7629 130.399C90.027 107.953 79.2811 84.2944 82.8678 68.4911C86.4256 52.6554 104.287 44.6428 119.318 47.538C134.349 50.4331 146.55 64.236 159.881 80.0423Z" fill="#29A389"/>
</g>
</g>
<defs>
<clipPath id="clip0">
<rect width="220" height="211" fill="white" transform="translate(53.463) rotate(14.6776)"/>
</clipPath>
</defs>
</svg>
