<svg xmlns="http://www.w3.org/2000/svg" width="1018" height="725" viewBox="0 0 1018 725">
  <g fill="none">
    <path fill="#FFDDD1" d="M244.24174,566.22004 C244.24174,561.63467 224.19291,557.60142 193.86067,555.26792 C217.89214,554.78023 235.70328,553.00667 235.70328,550.89311 C235.70328,548.40344 210.9916,546.38519 180.50828,546.38519 C150.02496,546.38519 125.31322,548.40344 125.31322,550.89311 C125.31322,551.71457 128.00487,552.48461 132.70501,553.14787 C71.64901,553.18199 22.24179,559.02115 22.24179,566.22004 C22.24179,569.96667 35.62779,573.34472 57.06997,575.72827 C44.04514,576.5529 35.65938,577.84287 35.65938,579.293 C35.65938,581.78265 60.37106,583.80092 90.85443,583.80092 C121.3378,583.80092 146.04949,581.78265 146.04949,579.293 C146.048291,579.263604 146.043769,579.234439 146.03601,579.20606 C201.31194,578.45875 244.24174,572.9303 244.24174,566.22004 Z"/>
    <path fill="#000" d="M151.32601 555.86929C149.853123 555.86929 148.398067 555.880533 146.96084 555.90302 170.39835 556.25364 188.74174 559.39602 188.74174 563.22227 188.74174 567.04852 170.39835 570.19083 146.96084 570.54145 148.398493 570.562923 149.85355 570.574163 151.32601 570.57517 176.81175 570.57517 197.47208 567.28317 197.47208 563.22227 197.47208 559.16137 176.81175 555.86929 151.32601 555.86929zM115.15747 559.61087C116.63037 559.61087 118.085427 559.62211 119.52264 559.64459 96.08513 559.99521 77.74174 563.13759 77.74174 566.96384 77.74174 570.79009 96.08513 573.9324 119.52264 574.28302 118.084987 574.304487 116.62993 574.315727 115.15747 574.31674 89.67174 574.31674 69.01141 571.02474 69.01141 566.96384 69.01141 562.90294 89.67174 559.61087 115.15747 559.61087z" opacity=".1"/>
    <path fill="#3F3D56" d="M94.98349,565.36886 C94.98349,565.36886 99.98349,544.36886 134.98349,551.36886 C169.98349,558.36886 174.98349,565.36886 174.98349,565.36886 L94.98349,565.36886 Z"/>
    <path fill="#29A389" d="M99.90874,529.24964 C108.24487,544.70937 125.93714,551.3459 125.93714,551.3459 C125.93714,551.3459 130.11387,532.91726 121.77773,517.45753 C113.44159,501.9978 95.74933,495.36128 95.74933,495.36128 C95.74933,495.36128 91.5726,513.78992 99.90874,529.24964 Z"/>
    <path fill="#33CCAB" d="M105.63848,524.16346 C120.68864,533.21813 126.48493,551.20321 126.48493,551.20321 C126.48493,551.20321 107.88009,554.50776 92.82993,545.45309 C77.77977,536.39842 71.98348,518.41334 71.98348,518.41334 C71.98348,518.41334 90.58832,515.10883 105.63848,524.16346 Z"/>
    <path fill="#B9EFE9" d="M328.26312,280.86146 C328.26312,404.47146 254.77892,447.63146 164.13156,447.63146 C73.4842,447.63146 -1.98951966e-13,404.47146 -1.98951966e-13,280.86146 C-1.98951966e-13,157.25146 164.13156,2.55795385e-13 164.13156,2.55795385e-13 C164.13156,2.55795385e-13 328.26312,157.25146 328.26312,280.86146 Z"/>
    <polygon fill="#3F3D56" points="158.153 428.723 159.833 325.273 229.79 197.289 160.097 309.044 160.852 262.528 209.067 169.934 161.052 250.219 161.052 250.219 162.412 166.559 214.04 92.842 162.625 153.403 163.474 0 158.138 203.078 158.576 194.701 106.085 114.354 157.735 210.783 152.844 304.217 152.698 301.737 92.185 217.184 152.515 310.498 151.903 322.183 151.794 322.359 151.844 323.318 139.435 560.368 156.014 560.368 158.003 437.927 218.185 344.842"/>
    <path fill="#F5DD48" d="M725.508259,486.39265 L716.907879,500.45123 C716.907879,500.45123 716.494559,504.01193 719.358049,501.85558 C722.221539,499.69923 727.784129,487.15458 727.784129,487.15458 L725.508259,486.39265 Z" transform="matrix(-1 0 0 1 1444.671 0)"/>
    <path fill="#2F2E41" d="M597.478635,351.86259 L619.125135,315.75559 C621.96668,310.911759 626.966309,307.732046 632.558005,307.21242 C636.951065,306.85693 641.578285,308.2396 643.882065,314.44267 C649.001575,328.22728 638.712955,338.60567 638.712955,338.60567 C638.712955,338.60567 634.216025,339.82579 634.455035,335.62267 L639.604315,326.63873 C639.604315,326.63873 643.882065,314.44273 631.915125,313.55134 C619.948185,312.65995 602.847125,353.85462 602.847125,353.85462 L597.478635,351.86259 Z" transform="matrix(-1 0 0 1 1242.789 0)"/>
    <path fill="#F5DD48" d="M721.096249,357.25087 L707.127419,369.31746 C707.103099,374.48999 702.532209,384.94472 695.761029,397.61038 C695.246002,398.58468 694.715566,399.57004 694.169719,400.56646 C690.147579,407.93416 685.476039,415.93325 680.584809,424.01262 C680.047129,424.9034 679.505179,425.79533 678.958959,426.68841 C673.486239,435.64978 667.799259,444.63476 662.486309,452.86307 C661.933539,453.72343 661.383659,454.56924 660.841939,455.41974 C654.713539,464.86244 649.187489,473.16924 645.196409,479.1008 C644.606809,479.97806 644.049869,480.79821 643.535739,481.57223 C640.559009,485.98016 638.782559,488.55891 638.782559,488.55891 C637.726018,489.222808 636.494619,489.554513 635.247559,489.51114 C634.314526,489.415317 633.490994,488.859837 633.052629,488.03064 C631.757629,485.85077 632.194029,482.07 632.194029,482.07 C633.147559,475.64527 636.095929,467.54815 640.263099,458.63067 C640.758479,457.55822 641.277699,456.47244 641.808029,455.37675 C646.050889,446.68702 651.315689,437.34068 656.932329,428.07131 C657.476442,427.17877 658.020562,426.28625 658.564689,425.39375 C664.022599,416.50535 669.738429,407.75392 675.116429,399.79075 C675.679729,398.96892 676.231899,398.15696 676.777649,397.34675 C682.065989,389.58722 686.949869,382.67546 690.848059,377.26575 C691.434059,376.45152 691.990319,375.67984 692.527779,374.94087 C696.984449,368.79335 699.776969,365.1044 699.776969,365.1044 L702.954109,346.30987 L709.039029,349.97654 L713.723369,352.80246 L721.096249,357.25087 Z" transform="matrix(-1 0 0 1 1353.22 0)"/>
    <path fill="#F5DD48" d="M709.568057,455.37677 L712.956487,479.10082 C712.366887,479.97808 711.809947,480.79823 711.295817,481.57225 L708.023127,458.63069 C708.518507,457.55824 709.037727,456.47246 709.568057,455.37677 Z" transform="matrix(-1 0 0 1 1420.98 0)"/>
    <path fill="#F5DD48" d="M692.365587,425.39377 L696.287257,452.86309 C695.734487,453.72345 695.184607,454.56926 694.642887,455.41976 L690.733227,428.07133 C691.277341,427.17879 691.821461,426.28627 692.365587,425.39377 Z" transform="matrix(-1 0 0 1 1387.02 0)"/>
    <path fill="#F5DD48" d="M674.295947,397.34683 L678.103157,424.01264 C677.565477,424.90342 677.023527,425.79535 676.477307,426.68843 L672.634727,399.79079 C673.198027,398.96896 673.750197,398.157 674.295947,397.34683 Z" transform="matrix(-1 0 0 1 1350.738 0)"/>
    <path fill="#F5DD48" d="M659.138227,374.94091 L662.371527,397.6104 C661.856501,398.5847 661.326064,399.57006 660.780217,400.56648 L657.458507,377.26579 C658.044497,376.45156 658.600767,375.67988 659.138227,374.94091 Z" transform="matrix(-1 0 0 1 1319.83 0)"/>
    <path fill="#FFDDD1" d="M724.326517,636.09306 C724.326517,625.92124 691.453657,616.97422 641.719707,611.79777 C681.122707,610.71592 710.326517,606.78159 710.326517,602.09306 C710.326517,596.57017 669.808267,592.09306 619.826517,592.09306 C569.844767,592.09306 529.326517,596.57017 529.326517,602.09306 C529.326517,603.91532 533.739847,605.62351 541.446397,607.09483 C441.336527,607.17051 360.326517,620.12364 360.326517,636.09306 C360.326517,644.40428 382.274697,651.89787 417.432177,657.18534 C396.076177,659.01463 382.326517,661.8762 382.326517,665.09306 C382.326517,670.61588 422.844767,675.09306 472.826517,675.09306 C522.808267,675.09306 563.326517,670.61588 563.326517,665.09306 C563.324605,665.028262 563.317216,664.963742 563.304427,664.90019 C653.937117,663.24246 724.326517,650.97856 724.326517,636.09306 Z" transform="matrix(-1 0 0 1 1084.653 0)"/>
    <path fill="#000" d="M412.326517,624.69746 C411.145544,624.69746 409.978877,624.70646 408.826517,624.72446 C427.618757,625.00558 442.326517,627.52518 442.326517,630.59305 C442.326517,633.66092 427.618757,636.18045 408.826517,636.46158 C409.979231,636.478787 411.145897,636.487787 412.326517,636.48858 C432.761027,636.48858 449.326517,633.84905 449.326517,630.59301 C449.326517,627.33697 432.761027,624.69746 412.326517,624.69746 Z" opacity=".1" transform="matrix(-1 0 0 1 858.153 0)"/>
    <path fill="#000" d="M405.326517,596.69746 C404.145544,596.69746 402.978877,596.70646 401.826517,596.72446 C420.618757,597.00558 435.326517,599.52518 435.326517,602.59305 C435.326517,605.66092 420.618757,608.18045 401.826517,608.46158 C402.979231,608.478787 404.145897,608.487787 405.326517,608.48858 C425.761027,608.48858 442.326517,605.84905 442.326517,602.59301 C442.326517,599.33697 425.761027,596.69746 405.326517,596.69746 Z" opacity=".1" transform="matrix(-1 0 0 1 844.153 0)"/>
    <path fill="#000" d="M656.326517,624.69746 C657.507491,624.69746 658.674157,624.70646 659.826517,624.72446 C641.034287,625.00558 626.326517,627.52518 626.326517,630.59305 C626.326517,633.66092 641.034287,636.18045 659.826517,636.46158 C658.673804,636.478787 657.507137,636.487787 656.326517,636.48858 C635.892007,636.48858 619.326517,633.84905 619.326517,630.59301 C619.326517,627.33697 635.892007,624.69746 656.326517,624.69746 Z" opacity=".1" transform="matrix(-1 0 0 1 1279.153 0)"/>
    <path fill="#000" d="M522.326517,595.69746 C523.507491,595.69746 524.674157,595.70646 525.826517,595.72446 C507.034287,596.00558 492.326517,598.52518 492.326517,601.59305 C492.326517,604.66092 507.034287,607.18045 525.826517,607.46158 C524.673811,607.478787 523.507144,607.487787 522.326517,607.48858 C501.892007,607.48858 485.326517,604.84905 485.326517,601.59301 C485.326517,598.33697 501.892007,595.69746 522.326517,595.69746 Z" opacity=".1" transform="matrix(-1 0 0 1 1011.153 0)"/>
    <path fill="#000" d="M587.684307,646.59306 C579.864607,648.44437 558.265977,649.77557 532.826517,649.77557 C507.387057,649.77557 485.788437,648.44437 477.968737,646.59306 C475.942187,647.07287 474.826517,647.58706 474.826517,648.12268 C474.826517,650.72511 500.793987,652.83482 532.826517,652.83482 C564.859047,652.83482 590.826517,650.72511 590.826517,648.12268 C590.826517,647.58704 589.710797,647.07287 587.684307,646.59306 Z" opacity=".1" transform="matrix(-1 0 0 1 1065.653 0)"/>
    <path fill="#000" d="M582.684307,621.59306 C574.864607,620.63155 553.265977,619.94017 527.826517,619.94017 C502.387057,619.94017 480.788437,620.63155 472.968737,621.59306 C470.942187,621.34386 469.826517,621.07682 469.826517,620.79862 C469.826517,619.44701 495.793987,618.3513 527.826517,618.3513 C559.859047,618.3513 585.826517,619.44701 585.826517,620.79862 C585.826517,621.07682 584.710797,621.34386 582.684307,621.59306 Z" opacity=".1" transform="matrix(-1 0 0 1 1055.653 0)"/>
    <path fill="#000" d="M646.797097,668.31918 C642.810027,669.26951 631.797437,669.95285 618.826507,669.95285 C605.855577,669.95285 594.842997,669.26951 590.855927,668.31918 C589.822647,668.56548 589.253797,668.82942 589.253797,669.10438 C589.253797,670.44028 602.493947,671.52324 618.826507,671.52324 C635.159067,671.52324 648.399227,670.44024 648.399227,669.10438 C648.399227,668.82946 647.830347,668.56546 646.797097,668.31918 Z" opacity=".1" transform="matrix(-1 0 0 1 1237.653 0)"/>
    <circle cx="545.736" cy="166.279" r="25.683" fill="#2F2E41" transform="matrix(-1 0 0 1 1091.471 0)"/>
    <path fill="#FFB8B8" d="M533.21178,183.58246 C533.21178,183.58246 535.42191,208.99904 533.21178,215.62946 C531.00165,222.25988 561.94357,212.31426 561.94357,212.31426 C561.94357,212.31426 549.78781,183.58246 551.99796,180.81974 C554.20811,178.05702 533.21178,183.58246 533.21178,183.58246 Z" transform="matrix(-1 0 0 1 1095.042 0)"/>
    <path fill="#FFB8B8" d="M516.90366,369.51025 L515.24605,450.73282 C515.24605,450.73282 514.14098,457.91576 519.11379,466.20382 C524.0866,474.49188 546.18798,536.92823 546.18798,536.92823 L564.42162,526.98261 L562.76401,502.11861 C562.76401,502.11861 559.44881,467.86147 548.39812,455.15318 L564.42162,377.24583 L516.90366,369.51025 Z" transform="matrix(-1 0 0 1 1079.563 0)"/>
    <path fill="#000" d="M516.90366,369.51025 L515.24605,450.73282 C515.24605,450.73282 514.14098,457.91576 519.11379,466.20382 C524.0866,474.49188 546.18798,536.92823 546.18798,536.92823 L564.42162,526.98261 L562.76401,502.11861 C562.76401,502.11861 559.44881,467.86147 548.39812,455.15318 L564.42162,377.24583 L516.90366,369.51025 Z" opacity=".1" transform="matrix(-1 0 0 1 1079.563 0)"/>
    <path fill="#F5DD48" d="M513.330459,515.37935 C513.330459,515.37935 467.470109,524.77243 475.205589,539.69086 C482.941069,554.60929 497.306969,585.55122 497.306969,585.55122 C497.306969,585.55122 501.174709,604.88993 493.991759,608.75767 C486.808809,612.62541 471.890379,635.83185 486.256279,634.72678 C500.622179,633.62171 514.435529,617.59822 514.435529,617.59822 L526.591289,602.12722 L528.801429,605.99496 L550.902809,587.76133 C550.902809,587.76133 559.190809,570.08023 528.801429,561.23967 L513.330459,515.37935 Z" transform="matrix(-1 0 0 1 1026.262 0)"/>
    <path fill="#000" d="M513.330459,515.37935 C513.330459,515.37935 467.470109,524.77243 475.205589,539.69086 C482.941069,554.60929 497.306969,585.55122 497.306969,585.55122 C497.306969,585.55122 501.174709,604.88993 493.991759,608.75767 C486.808809,612.62541 471.890379,635.83185 486.256279,634.72678 C500.622179,633.62171 514.435529,617.59822 514.435529,617.59822 L526.591289,602.12722 L528.801429,605.99496 L550.902809,587.76133 C550.902809,587.76133 559.190809,570.08023 528.801429,561.23967 L513.330459,515.37935 Z" opacity=".1" transform="matrix(-1 0 0 1 1026.262 0)"/>
    <path fill="#FFB8B8" d="M526.29672,371.72039 L524.63912,452.94295 C524.63912,452.94295 523.53405,460.12595 528.50686,468.41395 C533.47967,476.70195 555.58105,539.13836 555.58105,539.13836 L573.81468,529.19274 L572.15708,504.32869 C572.15708,504.32869 568.84187,470.07155 557.79118,457.36326 L573.81468,379.4559 L526.29672,371.72039 Z" transform="matrix(-1 0 0 1 1098.35 0)"/>
    <path fill="#F5DD48" d="M522.723559,517.58946 C522.723559,517.58946 476.863199,526.98255 484.598679,541.90098 C492.334159,556.81941 506.700059,587.76134 506.700059,587.76134 C506.700059,587.76134 510.567799,607.10004 503.384849,610.96778 C496.201899,614.83552 481.283479,638.04197 495.649369,636.9369 C510.015259,635.83183 523.828629,619.80833 523.828629,619.80833 L535.984389,604.33733 L538.194519,608.20507 L560.295929,589.97146 C560.295929,589.97146 568.583929,572.29035 538.194549,563.4498 L522.723559,517.58946 Z" transform="matrix(-1 0 0 1 1045.048 0)"/>
    <circle cx="554.095" cy="176.399" r="20.996" fill="#FFB8B8" transform="matrix(-1 0 0 1 1108.19 0)"/>
    <path fill="#33CCAB" d="M493.693903,208.1702 C493.693903,208.1702 516.900353,195.46191 527.398503,195.46191 C537.896653,195.46191 549.499883,190.4891 550.604953,196.56698 C551.710023,202.64486 562.760713,218.66835 551.710023,217.56328 C540.659333,216.45821 531.818783,218.11582 526.293443,217.56328 C520.768103,217.01074 493.693903,208.1702 493.693903,208.1702 Z" transform="matrix(-1 0 0 1 1050.275 0)"/>
    <path fill="#575A89" d="M521.513006,343.93422 C521.513006,343.93422 509.633516,412.516024 516.263926,413.621094 C520.219517,414.28036 551.5738,423.125 558.256546,417.68843 C566.96434,410.604436 563.389452,373.111814 564.058156,372.66601 C565.715756,371.56094 571.241106,342.82915 521.513006,343.93422 Z" transform="matrix(-1 0 0 1 1079.355 0)"/>
    <path fill="#000" d="M521.513006,343.93422 C521.513006,343.93422 509.633516,412.516024 516.263926,413.621094 C520.219517,414.28036 551.5738,423.125 558.256546,417.68843 C566.96434,410.604436 563.389452,373.111814 564.058156,372.66601 C565.715756,371.56094 571.241106,342.82915 521.513006,343.93422 Z" opacity=".05" transform="matrix(-1 0 0 1 1079.355 0)"/>
    <path fill="#575A89" d="M533.513006,352.93422 C533.513006,352.93422 521.633516,421.516024 528.263926,422.621094 C532.219517,423.28036 563.5738,432.125 570.256546,426.68843 C578.96434,419.604436 575.389452,382.111814 576.058156,381.66601 C577.715756,380.56094 583.241106,351.82915 533.513006,352.93422 Z" transform="matrix(-1 0 0 1 1103.355 0)"/>
    <path fill="#33CCAB" d="M606.620625,363.98491 C595.017405,375.0356 601.647815,380.00841 597.227545,388.29643 C592.807275,396.58445 560.207735,389.95403 546.946905,372.27293 C533.686075,354.59183 530.370905,361.22224 516.004985,359.0121 C501.639065,356.80196 488.930795,346.30381 501.086555,340.22593 C506.639555,337.44666 511.849915,331.67267 515.502225,324.42342 C518.195061,319.080059 519.882535,313.287137 520.480495,307.33354 C520.898932,303.187931 520.694069,299.003028 519.872725,294.91811 C517.662585,284.18237 521.408785,262.98162 527.497725,244.1015 C531.801985,230.75228 537.283085,218.56337 542.659235,212.0545 C542.979745,211.65669 543.305655,211.2865 543.631705,210.93287 C556.892525,196.56698 586.729385,207.06513 586.729385,207.06513 C586.729385,207.06513 608.830765,225.29877 601.095285,248.50521 C594.636919,267.264638 595.425235,287.760846 603.305425,305.96879 C609.383305,319.78216 618.223825,352.93422 606.620625,363.98491 Z" transform="matrix(-1 0 0 1 1108.501 0)"/>
    <path fill="#FFB8B8" d="M614.05414,318.67709 L607.97626,322.54483 C607.97626,322.54483 583.11226,315.36183 583.66475,322.54483 C584.21724,329.72783 609.63387,331.93791 609.63387,331.93791 L618.47442,325.3075 L614.05414,318.67709 Z" transform="matrix(-1 0 0 1 1202.13 0)"/>
    <path fill="#000" d="M565.928777,214.80061 C565.928777,214.80061 549.916777,208.34291 550.187317,233.67314 C550.457857,259.00337 558.193317,289.39276 558.193317,289.39276 L535.585167,322.0959 L542.722347,333.04298 L588.582707,295.47064 L588.582707,243.5324 C588.582707,243.5324 586.372547,217.01075 565.928777,214.80061 Z" opacity=".1" transform="matrix(-1 0 0 1 1124.168 0)"/>
    <path fill="#000" d="M588.352227,240.76973 L588.352227,292.70797 L546.083347,327.24137 L543.320667,321.16349 C545.906497,316.02493 543.066527,313.40589 543.652177,307.33354 L557.962837,286.63009 C554.552322,272.639353 552.115343,258.429111 550.669407,244.10146 C554.973667,230.75224 560.454767,218.56333 565.830917,212.05446 C586.153147,214.36409 588.352227,240.76973 588.352227,240.76973 Z" opacity=".1" transform="matrix(-1 0 0 1 1131.673 0)"/>
    <path fill="#33CCAB" d="M568.138917,212.03794 C568.138917,212.03794 552.126967,205.58024 552.397457,230.91047 C552.667947,256.2407 560.403457,286.63009 560.403457,286.63009 L537.795307,319.33322 L544.932497,330.28031 L590.792847,292.70797 L590.792847,240.76973 C590.792847,240.76973 588.582697,214.24808 568.138917,212.03794 Z" transform="matrix(-1 0 0 1 1128.588 0)"/>
    <circle cx="517.913" cy="132.463" r="25.683" fill="#2F2E41" transform="matrix(-1 0 0 1 1035.825 0)"/>
    <path fill="#2F2E41" d="M523.913201,153.72993 C517.168141,158.604977 508.479072,159.909667 500.599726,157.230519 C492.720381,154.551371 486.627562,148.220518 484.252201,140.24433 C485.45994,149.849022 491.965345,157.958822 501.079303,161.221415 C510.19326,164.484008 520.367462,162.345135 527.396238,155.688932 C534.425014,149.032729 537.114294,138.989973 534.352421,129.712 C535.524274,139.024258 531.52139,148.233854 523.913201,153.72993 L523.913201,153.72993 Z" transform="matrix(-1 0 0 1 1019.673 0)"/>
    <circle cx="538.887" cy="170.559" r="18.834" fill="#2F2E41" transform="matrix(-1 0 0 1 1077.774 0)"/>
    <ellipse cx="554.725" cy="163.496" fill="#2F2E41" rx="16.694" ry="13.055" transform="matrix(-1 0 0 1 1109.449 0)"/>
    <ellipse cx="559.177" cy="176.874" fill="#FFB8B8" rx="3.168" ry="5.606" transform="matrix(-1 0 0 1 1118.354 0)"/>
    <path fill="#F2F2F2" d="M446.305271,572.89193 C447.797841,570.90476 449.059621,571.83408 450.605201,572.99493 C452.150781,574.15578 453.394871,575.10867 451.902301,577.09584 C450.409731,579.08301 445.200111,580.19111 445.200111,580.19111 C445.200111,580.19111 444.812701,574.8791 446.305271,572.89193 Z" transform="matrix(-1 0 0 1 897.73 0)"/>
    <path fill="#F2F2F2" d="M570.565809,593.6214 C568.823099,591.84951 569.929969,590.74021 571.308109,589.38477 C572.686249,588.02933 573.813759,586.94102 575.556469,588.71291 C577.299179,590.4848 577.619019,595.80134 577.619019,595.80134 C577.619019,595.80134 572.308519,595.39328 570.565809,593.6214 Z" transform="matrix(-1 0 0 1 1147.29 0)"/>
    <path fill="#000" d="M472.851579,598.57005 C475.163799,599.48124 474.602969,600.94452 473.894269,602.74292 C473.185569,604.54132 472.597349,605.9938 470.285129,605.0826 C467.972909,604.1714 465.520979,599.4432 465.520979,599.4432 C465.520979,599.4432 470.539359,597.65886 472.851579,598.57005 Z" opacity=".1" transform="matrix(-1 0 0 1 940.034 0)"/>
    <path fill="#000" d="M566.457383,646.26211 C565.081083,648.33151 564.290043,647.82311 563.324313,647.18081 C562.358583,646.53851 561.583843,646.00559 562.960143,643.93619 C564.336443,641.86679 568.308343,639.68685 568.308343,639.68685 C568.308343,639.68685 567.833683,644.19271 566.457383,646.26211 Z" opacity=".1" transform="matrix(-1 0 0 1 1130.523 0)"/>
    <path fill="#000" d="M537.457383,648.26211 C536.081083,650.33151 535.290043,649.82311 534.324313,649.18081 C533.358583,648.53851 532.583843,648.00559 533.960143,645.93619 C535.336443,643.86679 539.308343,641.68685 539.308343,641.68685 C539.308343,641.68685 538.833683,646.19271 537.457383,648.26211 Z" opacity=".1" transform="matrix(-1 0 0 1 1072.523 0)"/>
    <path fill="#000" d="M503.194493,634.2823 C504.306923,636.50471 503.472743,636.93872 502.435593,637.45787 C501.398443,637.97702 500.551093,638.38469 499.438663,636.16228 C498.326233,633.93987 498.407133,629.40979 498.407133,629.40979 C498.407133,629.40979 502.082113,632.05989 503.194493,634.2823 Z" opacity=".1" transform="matrix(-1 0 0 1 1002.129 0)"/>
    <path fill="#000" d="M516.194493,638.2823 C517.306923,640.50471 516.472743,640.93872 515.435593,641.45787 C514.398443,641.97702 513.551093,642.38469 512.438663,640.16228 C511.326233,637.93987 511.407133,633.40979 511.407133,633.40979 C511.407133,633.40979 515.082113,636.05989 516.194493,638.2823 Z" opacity=".1" transform="matrix(-1 0 0 1 1028.129 0)"/>
    <path fill="#F2F2F2" d="M462.968216,551.56238 C465.144316,550.36189 465.914136,551.72684 466.847856,553.41938 C467.781576,555.11192 468.525616,556.49107 466.349516,557.69157 C464.173416,558.89207 458.967516,557.76676 458.967516,557.76676 C458.967516,557.76676 460.792106,552.76288 462.968216,551.56238 Z" transform="matrix(-1 0 0 1 926.734 0)"/>
    <path fill="#FFDDD1" d="M1017.24174,662.22004 C1017.24174,657.63467 997.19291,653.60142 966.86067,651.26792 C990.89214,650.78023 1008.70328,649.00667 1008.70328,646.89311 C1008.70328,644.40344 983.9916,642.38519 953.50823,642.38519 C923.02486,642.38519 898.31317,644.40344 898.31317,646.89311 C898.31317,647.71457 901.00482,648.48461 905.70496,649.14787 C844.64896,649.18199 795.24174,655.02115 795.24174,662.22004 C795.24174,665.96667 808.62774,669.34472 830.06992,671.72827 C817.04509,672.5529 808.65933,673.84287 808.65933,675.293 C808.65933,677.78265 833.37101,679.80092 863.85438,679.80092 C894.33775,679.80092 919.04944,677.78265 919.04944,675.293 C919.048241,675.263604 919.043719,675.234439 919.03596,675.20606 C974.31194,674.45875 1017.24174,668.9303 1017.24174,662.22004 Z"/>
    <path fill="#000" d="M924.32601 651.86929C922.853117 651.86929 921.39806 651.880533 919.96084 651.90302 943.39835 652.25364 961.74174 655.39602 961.74174 659.22227 961.74174 663.04852 943.39835 666.19083 919.96084 666.54145 921.398493 666.562923 922.85355 666.574163 924.32601 666.57517 949.81175 666.57517 970.47208 663.28317 970.47208 659.22227 970.47208 655.16137 949.81175 651.86929 924.32601 651.86929zM888.15747 655.61087C889.63037 655.61087 891.085427 655.62211 892.52264 655.64459 869.08513 655.99521 850.74174 659.13759 850.74174 662.96384 850.74174 666.79009 869.08513 669.9324 892.52264 670.28302 891.084987 670.304487 889.62993 670.315727 888.15747 670.31674 862.67174 670.31674 842.01141 667.02474 842.01141 662.96384 842.01141 658.90294 862.67174 655.61087 888.15747 655.61087z" opacity=".1"/>
    <g transform="translate(99.242 687.385)">
      <path fill="#FFDDD1" d="M221.99995,19.83485 C221.99995,15.24948 201.95112,11.21623 171.61888,8.88273 C195.65035,8.39504 213.46149,6.62148 213.46149,4.50792 C213.46149,2.01825 188.74981,2.27373675e-13 158.26649,2.27373675e-13 C127.78317,2.27373675e-13 103.07143,2.01825 103.07143,4.50792 C103.07143,5.32938 105.76308,6.09942 110.46322,6.76268 C49.40722,6.7968 -2.84217094e-13,12.63596 -2.84217094e-13,19.83485 C-2.84217094e-13,23.58148 13.386,26.95953 34.82818,29.34308 C21.80335,30.16771 13.41759,31.45768 13.41759,32.90781 C13.41759,35.39746 38.12927,37.41573 68.61264,37.41573 C99.09601,37.41573 123.8077,35.39746 123.8077,32.90781 C123.806501,32.8784143 123.801979,32.8492487 123.79422,32.82087 C179.07015,32.07356 221.99995,26.54511 221.99995,19.83485 Z"/>
      <path fill="#000" d="M129.08422 9.4841C127.611333 9.4841 126.156277 9.49534333 124.71905 9.51783 148.15656 9.86845 166.49995 13.01083 166.49995 16.83708 166.49995 20.66333 148.15656 23.80564 124.71905 24.15626 126.156703 24.1777333 127.61176 24.1889733 129.08422 24.18998 154.56996 24.18998 175.23029 20.89798 175.23029 16.83708 175.23029 12.77618 154.56996 9.4841 129.08422 9.4841zM92.91568 13.22568C94.38858 13.22568 95.8436367 13.23692 97.28085 13.2594 73.84334 13.61002 55.49995 16.7524 55.49995 20.57865 55.49995 24.4049 73.84334 27.54721 97.28085 27.89783 95.8431967 27.9192967 94.38814 27.9305367 92.91568 27.93155 67.42995 27.93155 46.76962 24.63955 46.76962 20.57865 46.76962 16.51775 67.42995 13.22568 92.91568 13.22568z" opacity=".1"/>
    </g>
  </g>
</svg>
