<svg xmlns="http://www.w3.org/2000/svg" width="164" height="173" viewBox="0 0 164 173">
  <g fill="none" fill-rule="evenodd">
    <path fill="#33CCAB" fill-rule="nonzero" d="M132.922912,53.6023614 C148.899794,76.6779708 164.91839,96.7855217 163.958943,117.770949 C162.999496,138.79818 145.062005,160.745091 123.32844,168.980408 C101.594875,177.257529 76.0652371,171.864859 53.2053648,160.870502 C30.3037774,149.876145 10.0302411,133.2801 2.93867484,111.082367 C-4.15289138,88.9264373 1.89579745,61.1688203 17.7892488,38.0932109 C33.6409851,15.0176015 59.2957687,-3.3341965 80.1116014,0.511738397 C100.927434,4.35767329 116.904316,30.4849484 132.922912,53.6023614 Z" transform="rotate(180 82 86.5)"/>
    <path fill="#7A3814" fill-rule="nonzero" d="M136.810015,146.777197 C121.303383,163.856334 100.967169,175.643737 83.8883986,172.488262 C70.9419108,170.096267 59.8672581,159.085258 49.4902092,145.54 L132.41,145.54 C132.41,145.54 134.234372,145.69031 136.810015,146.777197 Z"/>
    <ellipse cx="88.95" cy="72.81" fill="#72351C" fill-rule="nonzero" rx="54.76" ry="55.5"/>
    <path fill="#E3B39D" fill-rule="nonzero" d="M74.59,116.38 L102.98,116.38 C104.830154,116.38 106.33,117.879846 106.33,119.73 L106.33,144.45 C106.33,154.137075 98.4770745,161.99 88.79,161.99 L88.79,161.99 C79.1029255,161.99 71.25,154.137075 71.25,144.45 L71.25,119.73 C71.25,117.879846 72.7498461,116.38 74.6,116.38 L74.59,116.38 Z"/>
    <path fill="#000" fill-rule="nonzero" d="M71.27,117.68 L106.360026,117.68 L106.360026,145.75 C106.367965,150.407093 104.523523,154.876171 101.233272,158.172051 C97.9430198,161.46793 93.4770997,163.32 88.82,163.32 L88.82,163.32 C79.1329255,163.32 71.28,155.467075 71.28,145.78 L71.28,117.68 L71.27,117.68 Z" opacity=".1"/>
    <path fill="#000" fill-rule="nonzero" d="M71.31,130.93 C82.6186913,135.156642 95.0674023,135.192118 106.4,131.03 L106.4,126.72 L71.31,126.72 L71.31,130.93 Z" opacity=".1"/>
    <circle cx="88.95" cy="82.99" r="50.29" fill="#E3B39D" fill-rule="nonzero"/>
    <path fill="#000" fill-rule="nonzero" d="M53.13,37.25 C53.13,37.25 74.32,80.25 134.13,55.25 L120.21,33.42 L95.54,24.56 L53.13,37.25 Z" opacity=".1"/>
    <path fill="#72351C" fill-rule="nonzero" d="M53.13,36.62 C53.13,36.62 74.32,79.62 134.13,54.62 L120.21,32.79 L95.54,23.93 L53.13,36.62 Z"/>
    <ellipse cx="38.64" cy="82.94" fill="#E3B39D" fill-rule="nonzero" rx="4.68" ry="8.77"/>
    <ellipse cx="139.23" cy="82.94" fill="#E3B39D" fill-rule="nonzero" rx="4.68" ry="8.77"/>
    <path fill="#72351C" d="M57.9677734,43.180933 C42.4251953,54.3359375 33.0011813,72.6725954 37.5462454,91.71 C37.5462454,91.71 39.8446899,96.0474365 42.4251953,102.164258 C42.4251953,102.164258 38.64,63.0618659 57.9677734,43.180933 Z"/>
    <path fill="#72351C" d="M141.566991,43.180933 C126.024413,54.3359375 116.600399,72.6725954 121.145463,91.71 C121.145463,91.71 123.443908,96.0474365 126.024413,102.164258 C126.024413,102.164258 122.239218,63.0618659 141.566991,43.180933 Z" transform="matrix(-1 0 0 1 261.567 0)"/>
  </g>
</svg>
