<svg width="191" height="92" viewBox="0 0 191 92" fill="none" xmlns="http://www.w3.org/2000/svg">
<rect width="191" height="92" rx="16" fill="white"/>
<circle cx="44" cy="44" r="28" fill="#F2F6F7"/>
<path d="M39.927 34.2C41.593 34.2 43.0724 34.9998 44.001 36.2365C44.4744 35.6035 45.0891 35.0897 45.796 34.7362C46.503 34.3826 47.2827 34.199 48.0732 34.2H54.1818C54.7446 34.2 55.2001 34.6554 55.2001 35.2173V50.4913C55.2001 50.7611 55.0929 51.0199 54.9021 51.2107C54.7114 51.4014 54.4526 51.5086 54.1828 51.5086H47.0549C46.5399 51.5085 46.044 51.7035 45.667 52.0543C45.2899 52.4052 45.0599 52.8859 45.023 53.3996L45.0184 53.5452C45.0184 54.9032 42.9818 54.9032 42.9818 53.5452C42.9818 53.005 42.7673 52.487 42.3854 52.1051C42.0034 51.7232 41.4854 51.5086 40.9453 51.5086H33.8184C33.6847 51.5087 33.5523 51.4825 33.4288 51.4314C33.3052 51.3804 33.193 51.3055 33.0984 51.211C33.0038 51.1165 32.9288 51.0043 32.8776 50.8808C32.8265 50.7573 32.8001 50.625 32.8001 50.4913V35.2173C32.8001 34.6554 33.2556 34.2 33.8174 34.2H39.927ZM39.927 36.2365H34.8366V49.473H40.9453C41.5949 49.473 42.2081 49.6242 42.7532 49.8949L42.9818 50.0172V39.2913C42.9818 38.4811 42.66 37.7041 42.0871 37.1312C41.5142 36.5583 40.7372 36.2365 39.927 36.2365ZM53.1636 36.2365H48.0732C47.263 36.2365 46.486 36.5583 45.9131 37.1312C45.3402 37.7041 45.0184 38.4811 45.0184 39.2913V50.0172C45.6374 49.6594 46.34 49.4717 47.0549 49.473H53.1636V36.2365ZM39.927 45.9086C40.1971 45.9086 40.4561 46.0159 40.6471 46.2069C40.838 46.3978 40.9453 46.6568 40.9453 46.9269C40.9453 47.1969 40.838 47.4559 40.6471 47.6469C40.4561 47.8379 40.1971 47.9452 39.927 47.9452H36.8732C36.6031 47.9452 36.3441 47.8379 36.1532 47.6469C35.9622 47.4559 35.8549 47.1969 35.8549 46.9269C35.8549 46.6568 35.9622 46.3978 36.1532 46.2069C36.3441 46.0159 36.6031 45.9086 36.8732 45.9086H39.927ZM40.9453 41.8365C41.2154 41.8365 41.4744 41.9438 41.6653 42.1347C41.8563 42.3257 41.9636 42.5847 41.9636 42.8548C41.9636 43.1248 41.8563 43.3838 41.6653 43.5748C41.4744 43.7657 41.2154 43.873 40.9453 43.873H36.8732C36.6031 43.873 36.3441 43.7657 36.1532 43.5748C35.9622 43.3838 35.8549 43.1248 35.8549 42.8548C35.8549 42.5847 35.9622 42.3257 36.1532 42.1347C36.3441 41.9438 36.6031 41.8365 36.8732 41.8365H40.9453ZM39.928 37.7634C40.198 37.7634 40.457 37.8707 40.648 38.0617C40.839 38.2526 40.9462 38.5116 40.9462 38.7817C40.9462 39.0517 40.839 39.3107 40.648 39.5017C40.457 39.6927 40.198 39.8 39.928 39.8H36.8722C36.6022 39.8 36.3432 39.6927 36.1522 39.5017C35.9613 39.3107 35.854 39.0517 35.854 38.7817C35.854 38.5116 35.9613 38.2526 36.1522 38.0617C36.3432 37.8707 36.6022 37.7634 36.8722 37.7634H39.928Z" fill="#33CCAB"/>
<path d="M100.5 41.76C101.833 41.76 103.033 41.9533 104.1 42.34C105.18 42.7133 106.1 43.24 106.86 43.92C107.62 44.5867 108.2 45.3733 108.6 46.28C109.013 47.1867 109.22 48.1667 109.22 49.22C109.22 50.14 109.113 50.9533 108.9 51.66C108.7 52.3533 108.4 52.96 108 53.48C107.613 54 107.133 54.44 106.56 54.8C106 55.16 105.36 55.46 104.64 55.7C106.373 56.2467 107.667 57.08 108.52 58.2C109.373 59.32 109.8 60.7267 109.8 62.42C109.8 63.86 109.533 65.1333 109 66.24C108.467 67.3467 107.747 68.28 106.84 69.04C105.933 69.7867 104.88 70.3533 103.68 70.74C102.493 71.1267 101.233 71.32 99.9 71.32C98.4467 71.32 97.18 71.1533 96.1 70.82C95.02 70.4867 94.08 69.9933 93.28 69.34C92.48 68.6867 91.8 67.8867 91.24 66.94C90.68 65.9933 90.2 64.9 89.8 63.66L91.98 62.76C92.3533 62.6 92.7333 62.52 93.12 62.52C93.4667 62.52 93.7733 62.5933 94.04 62.74C94.32 62.8867 94.5333 63.1 94.68 63.38C94.92 63.8467 95.18 64.3067 95.46 64.76C95.7533 65.2133 96.1 65.62 96.5 65.98C96.9 66.3267 97.3667 66.6133 97.9 66.84C98.4467 67.0533 99.0933 67.16 99.84 67.16C100.68 67.16 101.413 67.0267 102.04 66.76C102.667 66.48 103.187 66.12 103.6 65.68C104.027 65.24 104.34 64.7533 104.54 64.22C104.753 63.6733 104.86 63.1267 104.86 62.58C104.86 61.8867 104.787 61.26 104.64 60.7C104.493 60.1267 104.187 59.64 103.72 59.24C103.253 58.84 102.58 58.5267 101.7 58.3C100.833 58.0733 99.6667 57.96 98.2 57.96V54.44C99.4133 54.4267 100.42 54.3133 101.22 54.1C102.02 53.8867 102.653 53.5933 103.12 53.22C103.6 52.8333 103.933 52.3733 104.12 51.84C104.307 51.3067 104.4 50.72 104.4 50.08C104.4 48.7067 104.027 47.6733 103.28 46.98C102.533 46.2733 101.513 45.92 100.22 45.92C99.0467 45.92 98.0733 46.2333 97.3 46.86C96.5267 47.4733 95.9867 48.2667 95.68 49.24C95.52 49.7467 95.3 50.1133 95.02 50.34C94.74 50.5533 94.3733 50.66 93.92 50.66C93.7067 50.66 93.48 50.64 93.24 50.6L90.64 50.14C90.84 48.7533 91.2267 47.54 91.8 46.5C92.3733 45.4467 93.0867 44.5733 93.94 43.88C94.8067 43.1733 95.7933 42.6467 96.9 42.3C98.02 41.94 99.22 41.76 100.5 41.76ZM124.603 52.94C125.696 52.94 126.756 53.12 127.783 53.48C128.823 53.84 129.736 54.3867 130.523 55.12C131.31 55.84 131.943 56.74 132.423 57.82C132.903 58.9 133.143 60.16 133.143 61.6C133.143 62.9467 132.896 64.2133 132.403 65.4C131.91 66.5733 131.216 67.6 130.323 68.48C129.43 69.36 128.35 70.0533 127.083 70.56C125.83 71.0667 124.443 71.32 122.923 71.32C121.376 71.32 119.99 71.0733 118.763 70.58C117.536 70.0867 116.49 69.4 115.623 68.52C114.756 67.6267 114.09 66.56 113.623 65.32C113.17 64.0667 112.943 62.68 112.943 61.16C112.943 59.8 113.216 58.4067 113.763 56.98C114.323 55.54 115.183 54.0467 116.343 52.5L123.243 43.24C123.483 42.92 123.83 42.6467 124.283 42.42C124.75 42.1933 125.283 42.08 125.883 42.08H130.283L121.703 52.58C121.516 52.8067 121.336 53.02 121.163 53.22C121.003 53.42 120.843 53.6267 120.683 53.84C121.243 53.56 121.843 53.34 122.483 53.18C123.136 53.02 123.843 52.94 124.603 52.94ZM117.683 61.92C117.683 62.72 117.79 63.4533 118.003 64.12C118.23 64.7733 118.556 65.3333 118.983 65.8C119.423 66.2667 119.963 66.6333 120.603 66.9C121.243 67.1533 121.983 67.28 122.823 67.28C123.61 67.28 124.33 67.1467 124.983 66.88C125.65 66.6133 126.216 66.24 126.683 65.76C127.163 65.28 127.536 64.72 127.803 64.08C128.07 63.4267 128.203 62.72 128.203 61.96C128.203 61.1333 128.076 60.3933 127.823 59.74C127.57 59.0733 127.21 58.5133 126.743 58.06C126.276 57.5933 125.716 57.24 125.063 57C124.41 56.76 123.69 56.64 122.903 56.64C122.116 56.64 121.403 56.7733 120.763 57.04C120.123 57.3067 119.57 57.68 119.103 58.16C118.65 58.6267 118.296 59.1867 118.043 59.84C117.803 60.48 117.683 61.1733 117.683 61.92Z" fill="#5E5A7C"/>
<path d="M91.1819 25.216V30H89.6379V18.536H92.8779C93.6033 18.536 94.2299 18.6107 94.7579 18.76C95.2859 18.904 95.7206 19.1147 96.0619 19.392C96.4086 19.6693 96.6646 20.0053 96.8299 20.4C96.9953 20.7893 97.0779 21.2267 97.0779 21.712C97.0779 22.1173 97.0139 22.496 96.8859 22.848C96.7579 23.2 96.5713 23.5173 96.3259 23.8C96.0859 24.0773 95.7899 24.3147 95.4379 24.512C95.0913 24.7093 94.6966 24.8587 94.2539 24.96C94.4459 25.072 94.6166 25.2347 94.7659 25.448L98.1099 30H96.7339C96.4513 30 96.2433 29.8907 96.1099 29.672L93.1339 25.576C93.0433 25.448 92.9446 25.3573 92.8379 25.304C92.7313 25.2453 92.5713 25.216 92.3579 25.216H91.1819ZM91.1819 24.088H92.8059C93.2593 24.088 93.6566 24.0347 93.9979 23.928C94.3446 23.816 94.6326 23.6613 94.8619 23.464C95.0966 23.2613 95.2726 23.0213 95.3899 22.744C95.5073 22.4667 95.5659 22.16 95.5659 21.824C95.5659 21.1413 95.3393 20.6267 94.8859 20.28C94.4379 19.9333 93.7686 19.76 92.8779 19.76H91.1819V24.088ZM102.759 21.768C103.244 21.768 103.692 21.8507 104.103 22.016C104.513 22.176 104.868 22.4107 105.167 22.72C105.465 23.024 105.697 23.4027 105.863 23.856C106.033 24.304 106.119 24.816 106.119 25.392C106.119 25.616 106.095 25.7653 106.047 25.84C105.999 25.9147 105.908 25.952 105.775 25.952H100.383C100.393 26.464 100.463 26.9093 100.591 27.288C100.719 27.6667 100.895 27.984 101.119 28.24C101.343 28.4907 101.609 28.68 101.919 28.808C102.228 28.9307 102.575 28.992 102.959 28.992C103.316 28.992 103.623 28.952 103.879 28.872C104.14 28.7867 104.364 28.696 104.551 28.6C104.737 28.504 104.892 28.416 105.015 28.336C105.143 28.2507 105.252 28.208 105.343 28.208C105.46 28.208 105.551 28.2533 105.615 28.344L106.015 28.864C105.839 29.0773 105.628 29.264 105.383 29.424C105.137 29.5787 104.873 29.7067 104.591 29.808C104.313 29.9093 104.025 29.984 103.727 30.032C103.428 30.0853 103.132 30.112 102.839 30.112C102.279 30.112 101.761 30.0187 101.287 29.832C100.817 29.64 100.409 29.3627 100.063 29C99.7215 28.632 99.4548 28.1787 99.2628 27.64C99.0708 27.1013 98.9748 26.4827 98.9748 25.784C98.9748 25.2187 99.0601 24.6907 99.2308 24.2C99.4068 23.7093 99.6575 23.2853 99.9828 22.928C100.308 22.5653 100.705 22.2827 101.175 22.08C101.644 21.872 102.172 21.768 102.759 21.768ZM102.791 22.816C102.103 22.816 101.561 23.016 101.167 23.416C100.772 23.8107 100.527 24.36 100.431 25.064H104.839C104.839 24.7333 104.793 24.432 104.703 24.16C104.612 23.8827 104.479 23.6453 104.303 23.448C104.127 23.2453 103.911 23.0907 103.655 22.984C103.404 22.872 103.116 22.816 102.791 22.816ZM108.261 30V23.112L107.365 23.008C107.253 22.9813 107.16 22.9413 107.085 22.888C107.016 22.8293 106.981 22.7467 106.981 22.64V22.056H108.261V21.624C108.261 21.176 108.331 20.752 108.469 20.352C108.608 19.9467 108.816 19.5947 109.093 19.296C109.371 18.9973 109.717 18.76 110.133 18.584C110.549 18.408 111.035 18.32 111.589 18.32C112.032 18.32 112.456 18.3387 112.861 18.376C113.272 18.408 113.669 18.424 114.053 18.424H114.853V30H113.429V19.424C113.141 19.4133 112.851 19.4 112.557 19.384C112.269 19.368 112.019 19.36 111.805 19.36C111.112 19.36 110.579 19.56 110.205 19.96C109.832 20.3547 109.645 20.9093 109.645 21.624V22.056H111.757V23.088H109.693V30H108.261ZM120.649 21.768C121.135 21.768 121.583 21.8507 121.993 22.016C122.404 22.176 122.759 22.4107 123.057 22.72C123.356 23.024 123.588 23.4027 123.753 23.856C123.924 24.304 124.009 24.816 124.009 25.392C124.009 25.616 123.985 25.7653 123.937 25.84C123.889 25.9147 123.799 25.952 123.665 25.952H118.273C118.284 26.464 118.353 26.9093 118.481 27.288C118.609 27.6667 118.785 27.984 119.009 28.24C119.233 28.4907 119.5 28.68 119.809 28.808C120.119 28.9307 120.465 28.992 120.849 28.992C121.207 28.992 121.513 28.952 121.769 28.872C122.031 28.7867 122.255 28.696 122.441 28.6C122.628 28.504 122.783 28.416 122.905 28.336C123.033 28.2507 123.143 28.208 123.233 28.208C123.351 28.208 123.441 28.2533 123.505 28.344L123.905 28.864C123.729 29.0773 123.519 29.264 123.273 29.424C123.028 29.5787 122.764 29.7067 122.481 29.808C122.204 29.9093 121.916 29.984 121.617 30.032C121.319 30.0853 121.023 30.112 120.729 30.112C120.169 30.112 119.652 30.0187 119.177 29.832C118.708 29.64 118.3 29.3627 117.953 29C117.612 28.632 117.345 28.1787 117.153 27.64C116.961 27.1013 116.865 26.4827 116.865 25.784C116.865 25.2187 116.951 24.6907 117.121 24.2C117.297 23.7093 117.548 23.2853 117.873 22.928C118.199 22.5653 118.596 22.2827 119.065 22.08C119.535 21.872 120.063 21.768 120.649 21.768ZM120.681 22.816C119.993 22.816 119.452 23.016 119.057 23.416C118.663 23.8107 118.417 24.36 118.321 25.064H122.729C122.729 24.7333 122.684 24.432 122.593 24.16C122.503 23.8827 122.369 23.6453 122.193 23.448C122.017 23.2453 121.801 23.0907 121.545 22.984C121.295 22.872 121.007 22.816 120.681 22.816ZM131.36 23.336C131.317 23.3947 131.275 23.44 131.232 23.472C131.189 23.504 131.128 23.52 131.048 23.52C130.968 23.52 130.88 23.488 130.784 23.424C130.693 23.3547 130.576 23.28 130.432 23.2C130.288 23.12 130.112 23.048 129.904 22.984C129.701 22.9147 129.451 22.88 129.152 22.88C128.757 22.88 128.408 22.952 128.104 23.096C127.8 23.2347 127.544 23.4373 127.336 23.704C127.133 23.9707 126.979 24.2933 126.872 24.672C126.771 25.0507 126.72 25.4747 126.72 25.944C126.72 26.4347 126.776 26.872 126.888 27.256C127 27.6347 127.157 27.9547 127.36 28.216C127.563 28.472 127.808 28.6693 128.096 28.808C128.389 28.9413 128.717 29.008 129.08 29.008C129.427 29.008 129.712 28.968 129.936 28.888C130.16 28.8027 130.347 28.7093 130.496 28.608C130.645 28.5067 130.768 28.416 130.864 28.336C130.96 28.2507 131.056 28.208 131.152 28.208C131.275 28.208 131.365 28.2533 131.424 28.344L131.824 28.864C131.472 29.296 131.032 29.6133 130.504 29.816C129.976 30.0133 129.419 30.112 128.832 30.112C128.325 30.112 127.853 30.0187 127.416 29.832C126.984 29.6453 126.608 29.376 126.288 29.024C125.968 28.6667 125.715 28.2293 125.528 27.712C125.347 27.1947 125.256 26.6053 125.256 25.944C125.256 25.3413 125.339 24.784 125.504 24.272C125.675 23.76 125.92 23.32 126.24 22.952C126.565 22.5787 126.965 22.288 127.44 22.08C127.915 21.872 128.459 21.768 129.072 21.768C129.637 21.768 130.139 21.8613 130.576 22.048C131.013 22.2293 131.4 22.488 131.736 22.824L131.36 23.336ZM135.757 30.128C135.117 30.128 134.623 29.9493 134.277 29.592C133.935 29.2347 133.765 28.72 133.765 28.048V23.088H132.789C132.703 23.088 132.631 23.064 132.573 23.016C132.514 22.9627 132.485 22.8827 132.485 22.776V22.208L133.813 22.04L134.141 19.536C134.151 19.456 134.186 19.392 134.245 19.344C134.303 19.2907 134.378 19.264 134.469 19.264H135.189V22.056H137.509V23.088H135.189V27.952C135.189 28.2933 135.271 28.5467 135.437 28.712C135.602 28.8773 135.815 28.96 136.077 28.96C136.226 28.96 136.354 28.9413 136.461 28.904C136.573 28.8613 136.669 28.816 136.749 28.768C136.829 28.72 136.895 28.6773 136.949 28.64C137.007 28.5973 137.058 28.576 137.101 28.576C137.175 28.576 137.242 28.6213 137.301 28.712L137.717 29.392C137.471 29.6213 137.175 29.8027 136.829 29.936C136.482 30.064 136.125 30.128 135.757 30.128ZM140.854 21.896V30H139.43V21.896H140.854ZM141.174 19.352C141.174 19.4907 141.144 19.6213 141.086 19.744C141.032 19.8613 140.958 19.968 140.862 20.064C140.771 20.1547 140.664 20.2267 140.542 20.28C140.419 20.3333 140.288 20.36 140.15 20.36C140.011 20.36 139.88 20.3333 139.758 20.28C139.64 20.2267 139.534 20.1547 139.438 20.064C139.347 19.968 139.275 19.8613 139.222 19.744C139.168 19.6213 139.142 19.4907 139.142 19.352C139.142 19.2133 139.168 19.0827 139.222 18.96C139.275 18.832 139.347 18.7227 139.438 18.632C139.534 18.536 139.64 18.4613 139.758 18.408C139.88 18.3547 140.011 18.328 140.15 18.328C140.288 18.328 140.419 18.3547 140.542 18.408C140.664 18.4613 140.771 18.536 140.862 18.632C140.958 18.7227 141.032 18.832 141.086 18.96C141.144 19.0827 141.174 19.2133 141.174 19.352ZM146.643 21.768C147.235 21.768 147.769 21.8667 148.243 22.064C148.723 22.2613 149.129 22.5413 149.459 22.904C149.795 23.2667 150.051 23.7067 150.227 24.224C150.409 24.736 150.499 25.3093 150.499 25.944C150.499 26.584 150.409 27.16 150.227 27.672C150.051 28.184 149.795 28.6213 149.459 28.984C149.129 29.3467 148.723 29.6267 148.243 29.824C147.769 30.016 147.235 30.112 146.643 30.112C146.051 30.112 145.515 30.016 145.035 29.824C144.561 29.6267 144.155 29.3467 143.819 28.984C143.483 28.6213 143.225 28.184 143.043 27.672C142.862 27.16 142.771 26.584 142.771 25.944C142.771 25.3093 142.862 24.736 143.043 24.224C143.225 23.7067 143.483 23.2667 143.819 22.904C144.155 22.5413 144.561 22.2613 145.035 22.064C145.515 21.8667 146.051 21.768 146.643 21.768ZM146.643 29C147.443 29 148.041 28.7333 148.435 28.2C148.83 27.6613 149.027 26.912 149.027 25.952C149.027 24.9867 148.83 24.2347 148.435 23.696C148.041 23.1573 147.443 22.888 146.643 22.888C146.238 22.888 145.886 22.9573 145.587 23.096C145.289 23.2347 145.038 23.4347 144.835 23.696C144.638 23.9573 144.489 24.28 144.387 24.664C144.291 25.0427 144.243 25.472 144.243 25.952C144.243 26.432 144.291 26.8613 144.387 27.24C144.489 27.6187 144.638 27.9387 144.835 28.2C145.038 28.456 145.289 28.6533 145.587 28.792C145.886 28.9307 146.238 29 146.643 29ZM152.254 30V21.896H153.102C153.305 21.896 153.433 21.9947 153.486 22.192L153.598 23.072C153.95 22.6827 154.342 22.368 154.774 22.128C155.211 21.888 155.715 21.768 156.286 21.768C156.729 21.768 157.118 21.8427 157.454 21.992C157.795 22.136 158.078 22.344 158.302 22.616C158.531 22.8827 158.705 23.2053 158.822 23.584C158.939 23.9627 158.998 24.3813 158.998 24.84V30H157.574V24.84C157.574 24.2267 157.433 23.752 157.15 23.416C156.873 23.0747 156.446 22.904 155.87 22.904C155.449 22.904 155.054 23.0053 154.686 23.208C154.323 23.4107 153.987 23.6853 153.678 24.032V30H152.254ZM165.785 23.232C165.721 23.3493 165.622 23.408 165.489 23.408C165.409 23.408 165.318 23.3787 165.217 23.32C165.115 23.2613 164.99 23.1973 164.841 23.128C164.697 23.0533 164.523 22.9867 164.321 22.928C164.118 22.864 163.878 22.832 163.601 22.832C163.361 22.832 163.145 22.864 162.953 22.928C162.761 22.9867 162.595 23.0693 162.457 23.176C162.323 23.2827 162.219 23.408 162.145 23.552C162.075 23.6907 162.041 23.8427 162.041 24.008C162.041 24.216 162.099 24.3893 162.217 24.528C162.339 24.6667 162.499 24.7867 162.697 24.888C162.894 24.9893 163.118 25.08 163.369 25.16C163.619 25.2347 163.875 25.3173 164.137 25.408C164.403 25.4933 164.662 25.5893 164.913 25.696C165.163 25.8027 165.387 25.936 165.585 26.096C165.782 26.256 165.939 26.4533 166.057 26.688C166.179 26.9173 166.241 27.1947 166.241 27.52C166.241 27.8933 166.174 28.24 166.041 28.56C165.907 28.8747 165.71 29.1493 165.449 29.384C165.187 29.6133 164.867 29.7947 164.489 29.928C164.11 30.0613 163.673 30.128 163.177 30.128C162.611 30.128 162.099 30.0373 161.641 29.856C161.182 29.6693 160.793 29.432 160.473 29.144L160.809 28.6C160.851 28.5307 160.902 28.4773 160.961 28.44C161.019 28.4027 161.097 28.384 161.193 28.384C161.289 28.384 161.39 28.4213 161.497 28.496C161.603 28.5707 161.731 28.6533 161.881 28.744C162.035 28.8347 162.219 28.9173 162.433 28.992C162.651 29.0667 162.923 29.104 163.249 29.104C163.526 29.104 163.769 29.0693 163.977 29C164.185 28.9253 164.358 28.8267 164.497 28.704C164.635 28.5813 164.737 28.44 164.801 28.28C164.87 28.12 164.905 27.9493 164.905 27.768C164.905 27.544 164.843 27.36 164.721 27.216C164.603 27.0667 164.446 26.9413 164.249 26.84C164.051 26.7333 163.825 26.6427 163.569 26.568C163.318 26.488 163.059 26.4053 162.793 26.32C162.531 26.2347 162.273 26.1387 162.017 26.032C161.766 25.92 161.542 25.7813 161.345 25.616C161.147 25.4507 160.987 25.248 160.865 25.008C160.747 24.7627 160.689 24.4667 160.689 24.12C160.689 23.8107 160.753 23.5147 160.881 23.232C161.009 22.944 161.195 22.6933 161.441 22.48C161.686 22.2613 161.987 22.088 162.345 21.96C162.702 21.832 163.11 21.768 163.569 21.768C164.102 21.768 164.579 21.8533 165.001 22.024C165.427 22.1893 165.795 22.4187 166.105 22.712L165.785 23.232Z" fill="#7C7995"/>
</svg>
