<svg xmlns="http://www.w3.org/2000/svg" width="892" height="687" viewBox="0 0 892 687">
  <g fill="none" fill-rule="evenodd">
    <circle cx="648.95" cy="310.52" r="102.23" fill="#F5DD48" fill-rule="nonzero"/>
    <circle cx="540.23" cy="282.59" r="102.23" fill="#F5DD48" fill-rule="nonzero"/>
    <circle cx="420.55" cy="283.59" r="102.23" fill="#F5DD48" fill-rule="nonzero"/>
    <circle cx="381.65" cy="310.52" r="102.23" fill="#F5DD48" fill-rule="nonzero"/>
    <circle cx="315.82" cy="319.5" r="102.23" fill="#F5DD48" fill-rule="nonzero"/>
    <circle cx="288.89" cy="238.71" r="102.23" fill="#F5DD48" fill-rule="nonzero"/>
    <circle cx="318.81" cy="144.95" r="102.23" fill="#F5DD48" fill-rule="nonzero"/>
    <circle cx="375.66" cy="144.95" r="102.23" fill="#F5DD48" fill-rule="nonzero"/>
    <circle cx="408.58" cy="103.06" r="102.23" fill="#F5DD48" fill-rule="nonzero"/>
    <circle cx="492.36" cy="148.94" r="102.23" fill="#F5DD48" fill-rule="nonzero"/>
    <circle cx="687.85" cy="238.71" r="102.23" fill="#F5DD48" fill-rule="nonzero"/>
    <circle cx="629" cy="187.84" r="102.23" fill="#F5DD48" fill-rule="nonzero"/>
    <circle cx="591.1" cy="136.97" r="102.23" fill="#F5DD48" fill-rule="nonzero"/>
    <circle cx="739.23" cy="251.23" r="102.23" fill="#F5DD48" fill-rule="nonzero"/>
    <circle cx="652.94" cy="144.95" r="102.23" fill="#F5DD48" fill-rule="nonzero"/>
    <g fill="#000" fill-rule="nonzero" opacity=".1" transform="translate(186 34)">
      <circle cx="462.95" cy="276.52" r="102.23"/>
      <circle cx="354.23" cy="248.59" r="102.23"/>
      <circle cx="234.55" cy="249.59" r="102.23"/>
      <circle cx="195.65" cy="276.52" r="102.23"/>
      <circle cx="129.82" cy="285.5" r="102.23"/>
      <circle cx="102.89" cy="204.71" r="102.23"/>
      <circle cx="132.81" cy="110.95" r="102.23"/>
      <circle cx="189.66" cy="110.95" r="102.23"/>
      <circle cx="511.23" cy="204.23" r="102.23"/>
      <circle cx="306.36" cy="114.94" r="102.23"/>
      <circle cx="501.85" cy="204.71" r="102.23"/>
      <circle cx="443" cy="153.84" r="102.23"/>
      <circle cx="405.1" cy="102.97" r="102.23"/>
      <circle cx="466.94" cy="110.95" r="102.23"/>
    </g>
    <path fill="#67647E" fill-rule="nonzero" d="M598.46,489.67 C598.46,489.67 660.96,437.14 630.04,362.34 L599.12,350.76 L565.57,454.05 L598.46,489.67 Z"/>
    <path fill="#000" fill-rule="nonzero" d="M601.79,347.2 L609.19,349.97 L576.25,451.38 L604.99,482.5 C602.61,484.87 601.13,486.11 601.13,486.11 L568.23,450.49 L601.79,347.2 Z" opacity=".1"/>
    <ellipse cx="491.5" cy="598.28" fill="#FFBCA3" fill-rule="nonzero" opacity=".3" rx="400.5" ry="67.5"/>
    <path fill="#67647E" fill-rule="nonzero" d="M316.2,380.26 L324.32,412.76 C324.32,412.76 381.69,420.24 419.94,415.54 C426.701715,414.580711 433.193306,412.2387 439.01,408.66 C442.24,406.75 447.34,405.92 454.31,411.14 C466.25,420.14 524.85,492.14 515.36,566.84 C513.845399,578.411753 504.756921,587.528927 493.19,589.08 L493.19,589.08 C481.50445,590.672542 470.333362,594.898885 460.52,601.44 L431.52,620.75 L728.87,614.25 L698,576.88 C698,576.88 676.88,559.01 660.63,557.38 C655.89,556.91 651.98,552.56 648.82,546.65 C630.31,512 608.17,479.42 584.17,448.31 C566.69,425.65 552.02,401.77 553.39,386.77 C556.64,351.02 553.39,292.53 553.39,292.53 L491.65,284.41 C491.65,284.41 499.77,362.41 425.03,381.9 C350.29,401.39 316.2,380.26 316.2,380.26 Z"/>
    <path fill="#000" fill-rule="nonzero" d="M50.57 110.89C50.57 110.89 84.69 132.01 159.44 112.51 234.19 93.01 226.06 15.02 226.06 15.02L237.81 16.55C237.59 11.55 237.42 8.55 237.42 8.55L175.68.43C175.68.43 183.8 78.43 109.06 97.92 34.32 117.41.19 96.3.19 96.3L8.31 128.8C8.31 128.8 30.23 131.66 56.01 132.73L50.57 110.89zM194.89 332.06C204.703362 325.518885 215.87445 321.292542 227.56 319.7L227.56 319.7C239.100694 318.167268 248.18206 309.090001 249.72 297.55 259.26 222.85 200.63 150.72 188.72 141.76 175.72 132.01 169.22 143.38 169.22 143.38 164.619458 144.587234 159.941939 145.479304 155.22 146.05 176.28 174.05 206.41 227.76 199.36 282.92 197.82206 294.460001 188.740694 303.537268 177.2 305.07L177.2 305.07C165.51445 306.662542 154.343362 310.888885 144.53 317.43L115.53 336.74 190.29 335.11 194.89 332.06z" opacity=".1" transform="translate(316 284)"/>
    <path stroke="#535461" stroke-width="2" d="M365.96,537.91 C365.96,537.91 359.75,516.83 367.12,501.31 C370.253231,494.821114 371.197131,487.490972 369.81,480.42 C369.112248,477.065101 368.108035,473.781326 366.81,470.61"/>
    <path fill="#F5DD48" fill-rule="nonzero" d="M371.45 460.8C371.45 463.38 366.77 470.88 366.77 470.88 366.77 470.88 362.12 463.38 362.12 460.8 362.12 458.215307 364.215307 456.12 366.8 456.12 369.384693 456.12 371.48 458.215307 371.48 460.8L371.45 460.8zM379.19 475.11C377.79 477.28 369.79 481.03 369.79 481.03 369.79 481.03 369.94 472.2 371.34 470.03 372.224499 468.571755 373.832254 467.710135 375.536301 467.781142 377.240347 467.852148 378.770848 468.844536 379.530963 470.371311 380.291078 471.898086 380.160443 473.717482 379.19 475.12L379.19 475.11zM378.85 499.55C376.54 500.71 367.75 499.91 367.75 499.91 367.75 499.91 372.33 492.36 374.64 491.2 376.13337 490.447956 377.914512 490.549742 379.312486 491.467017 380.710461 492.384291 381.512882 493.977698 381.417486 495.647017 381.32209 497.316335 380.34337 498.807956 378.85 499.56L378.85 499.55zM374.43 518.02C372.35 519.56 363.55 520.25 363.55 520.25 363.55 520.25 366.79 512.03 368.87 510.5 370.947808 509.091028 373.767212 509.572471 375.259718 511.591113 376.752224 513.609754 376.386119 516.446441 374.43 518.02zM359.96 481.55C361.81 483.35 370.45 485.22 370.45 485.22 370.45 485.22 368.34 476.64 366.45 474.84 364.583688 473.129872 361.695868 473.213647 359.931832 475.02909 358.167795 476.844533 358.166983 479.733566 359.93 481.55L359.96 481.55zM355.06 503.17C357.37 504.33 366.16 503.53 366.16 503.53 366.16 503.53 361.58 495.98 359.27 494.82 356.96145 493.657441 354.14756 494.58645 352.985 496.895 351.822441 499.20355 352.75145 502.01744 355.06 503.18L355.06 503.17zM353.18 524.86C355.26 526.4 364.06 527.09 364.06 527.09 364.06 527.09 360.82 518.87 358.74 517.34 356.662192 515.931028 353.842788 516.412471 352.350282 518.431113 350.857776 520.449754 351.223881 523.286441 353.18 524.86L353.18 524.86z"/>
    <path fill="#A8A8A8" fill-rule="nonzero" d="M352.45,535.85 C352.45,535.85 363.8,533.58 366.82,530.55 C369.84,527.52 383.46,522.23 384.98,526.01 C386.5,529.79 405.41,542.65 392.54,544.92 C379.67,547.19 362.28,547.92 358.54,546.43 C354.8,544.94 352.45,535.85 352.45,535.85 Z"/>
    <path fill="#000" fill-rule="nonzero" d="M392.55,543.55 C379.69,545.82 362.29,546.55 358.55,545.06 C355.67,543.91 353.67,538.37 352.88,535.8 L352.5,535.88 C352.5,535.88 354.77,544.96 358.55,546.47 C362.33,547.98 379.73,547.23 392.55,544.96 C396.26,544.3 397.32,542.77 396.92,540.82 C396.6,542.06 395.31,543.04 392.55,543.55 Z" opacity=".2"/>
    <path fill="#A8A8A8" fill-rule="nonzero" d="M540.62,607.01 C540.62,607.01 575.05,600.12 584.24,590.94 C593.43,581.76 634.74,565.69 639.33,577.17 C643.92,588.65 701.33,627.67 662.33,634.56 C623.33,641.45 570.51,643.74 559.03,639.15 C547.55,634.56 540.62,607.01 540.62,607.01 Z"/>
    <path fill="#000" fill-rule="nonzero" d="M662.29,630.29 C623.29,637.18 570.47,639.47 558.99,634.88 C550.25,631.38 544.17,614.58 541.77,606.77 L540.62,607.01 C540.62,607.01 547.51,634.56 558.98,639.15 C570.45,643.74 623.26,641.45 662.28,634.56 C673.55,632.56 676.77,627.9 675.55,622 C674.6,625.85 670.67,628.82 662.29,630.29 Z" opacity=".2"/>
    <path fill="#F5DD48" fill-rule="nonzero" d="M773.66 411.35C773.532451 415.459579 772.246386 419.449499 769.95 422.86 767.635939 419.461665 766.329079 415.47869 766.18 411.37 766.18 405.02 767.82 399.87 769.89 399.859985 771.96 399.85 773.64 405 773.66 411.35zM491.37 405.77C491.231682 409.879134 489.93522 413.86558 487.63 417.27 485.32478 413.86558 484.028318 409.879134 483.89 405.77 483.89 399.42 485.56 394.27 487.63 394.27 489.7 394.27 491.37 399.42 491.37 405.77zM799.03 519.09C801.33522 522.49442 802.631682 526.480866 802.77 530.59 798.902895 529.193005 795.5092 526.731797 792.98 523.49 789.24 518.35 787.57 513.2 789.24 511.99 790.91 510.78 795.3 513.96 799.03 519.09zM679.57 458.88C679.431682 462.989134 678.13522 466.97558 675.83 470.38 673.52478 466.97558 672.228318 462.989134 672.09 458.88 672.09 452.53 673.76 447.38 675.83 447.38 677.9 447.38 679.57 452.55 679.57 458.88zM609.69 420.68C609.551682 424.789134 608.25522 428.77558 605.95 432.18 603.64478 428.77558 602.348318 424.789134 602.21 420.68 602.21 414.33 603.88 409.18 605.95 409.18 608.02 409.18 609.69 414.33 609.69 420.68zM566.34 443.97C568.262562 447.605072 569.118793 451.709434 568.81 455.81 565.103305 454.007675 561.982883 451.192361 559.81 447.69 556.65 442.18 555.55 436.88 557.34 435.85 559.13 434.82 563.19 438.46 566.34 443.97zM533.95 549.61C530.85734 552.321039 527.061462 554.102849 523 554.75 523.90719 550.741382 525.92809 547.070486 528.83 544.16 533.46 539.82 538.37 537.52 539.78 539.02 541.19 540.52 538.58 545.27 533.95 549.61z"/>
    <path fill="#000" fill-rule="nonzero" d="M533.95,549.61 C530.85734,552.321039 527.061462,554.102849 523,554.75 C523.90719,550.741382 525.92809,547.070486 528.83,544.16 C533.46,539.82 538.37,537.52 539.78,539.02 C541.19,540.52 538.58,545.27 533.95,549.61 Z" opacity=".1"/>
    <path fill="#F5DD48" fill-rule="nonzero" d="M601.96,543.09 C598.86734,545.801039 595.071462,547.582849 591.01,548.23 C591.91719,544.221382 593.93809,540.550486 596.84,537.64 C601.47,533.3 606.38,531 607.79,532.5 C609.2,534 606.59,538.74 601.96,543.09 Z"/>
    <path fill="#000" fill-rule="nonzero" d="M601.96,543.09 C598.86734,545.801039 595.071462,547.582849 591.01,548.23 C591.91719,544.221382 593.93809,540.550486 596.84,537.64 C601.47,533.3 606.38,531 607.79,532.5 C609.2,534 606.59,538.74 601.96,543.09 Z" opacity=".1"/>
    <path fill="#F5DD48" fill-rule="nonzero" d="M615,612.03 C611.90734,614.741039 608.111462,616.522849 604.05,617.17 C604.954745,613.149546 606.979527,609.467493 609.89,606.55 C614.52,602.21 619.43,599.91 620.84,601.41 C622.25,602.91 619.64,607.68 615,612.03 Z"/>
    <path fill="#000" fill-rule="nonzero" d="M615,612.03 C611.90734,614.741039 608.111462,616.522849 604.05,617.17 C604.954745,613.149546 606.979527,609.467493 609.89,606.55 C614.52,602.21 619.43,599.91 620.84,601.41 C622.25,602.91 619.64,607.68 615,612.03 Z" opacity=".1"/>
    <g transform="translate(0 486)">
      <path fill="#33CCAB" fill-rule="nonzero" d="M90.4602342,21.730234 C105.790234,44.360234 100.900234,125.380234 100.900234,125.380234 C100.900234,125.380234 23.8502342,99.870234 8.52023425,77.250234 C-6.80842828,54.6203664 -0.889632453,23.8488978 21.7402348,8.52023483 C44.3701021,-6.80842817 75.1415708,-0.889632994 90.4702342,21.740234 L90.4602342,21.730234 Z"/>
      <path fill="#000" fill-rule="nonzero" d="M90.4602342,21.730234 C105.790234,44.360234 100.900234,125.380234 100.900234,125.380234 C100.900234,125.380234 23.8502342,99.870234 8.52023425,77.250234 C-6.80842828,54.6203664 -0.889632453,23.8488978 21.7402348,8.52023483 C44.3701021,-6.80842817 75.1415708,-0.889632994 90.4702342,21.740234 L90.4602342,21.730234 Z" opacity=".1"/>
      <path stroke="#535461" d="M22.0302342,8.57023397 C22.0302342,8.57023397 79.7702342,53.150234 101.200234,125.460234"/>
      <path fill="#33CCAB" fill-rule="nonzero" d="M115.740234,64.030234 C115.740234,64.030234 74.7402342,57.030234 102.740234,124.940234 C102.740234,124.940234 131.230234,114.080234 133.450234,87.060234 C134.361929,76.1797944 126.99585,66.3354481 116.300234,64.140234 L115.740234,64.030234 Z"/>
      <path stroke="#535461" d="M116.340234,63.960234 C116.340234,63.960234 124.150234,101.520234 102.780234,124.960234"/>
    </g>
    <path fill="#A8A8A8" fill-rule="nonzero" d="M717.63,607.14 C717.63,607.14 734.74,603.74 739.3,599.21 C743.86,594.68 764.4,586.75 766.68,592.41 C768.96,598.07 797.48,617.33 778.09,620.72 C758.7,624.11 732.46,625.25 726.76,622.99 C721.06,620.73 717.63,607.14 717.63,607.14 Z"/>
    <path fill="#000" fill-rule="nonzero" d="M778.12,618.63 C758.73,622.03 732.49,623.16 726.79,620.9 C722.45,619.17 719.43,610.9 718.23,607.03 L717.66,607.15 C717.66,607.15 721.08,620.74 726.79,623.01 C732.5,625.28 758.73,624.14 778.12,620.74 C783.72,619.74 785.32,617.46 784.72,614.54 C784.21,616.43 782.26,617.9 778.12,618.63 Z" opacity=".2"/>
    <circle cx="648.95" cy="287.58" r="102.23" fill="#F5DD48" fill-rule="nonzero"/>
    <circle cx="540.23" cy="259.65" r="102.23" fill="#F5DD48" fill-rule="nonzero"/>
    <circle cx="420.55" cy="260.65" r="102.23" fill="#F5DD48" fill-rule="nonzero"/>
    <circle cx="381.65" cy="287.58" r="102.23" fill="#F5DD48" fill-rule="nonzero"/>
    <circle cx="315.82" cy="296.56" r="102.23" fill="#F5DD48" fill-rule="nonzero"/>
    <circle cx="288.89" cy="215.77" r="102.23" fill="#F5DD48" fill-rule="nonzero"/>
    <circle cx="318.81" cy="122.01" r="102.23" fill="#F5DD48" fill-rule="nonzero"/>
    <circle cx="375.66" cy="122.01" r="102.23" fill="#F5DD48" fill-rule="nonzero"/>
    <circle cx="212.23" cy="180.23" r="102.23" fill="#F5DD48" fill-rule="nonzero"/>
    <circle cx="492.36" cy="126" r="102.23" fill="#F5DD48" fill-rule="nonzero"/>
    <circle cx="687.85" cy="215.77" r="102.23" fill="#F5DD48" fill-rule="nonzero"/>
    <circle cx="629" cy="164.9" r="102.23" fill="#F5DD48" fill-rule="nonzero"/>
    <circle cx="591.1" cy="114.03" r="102.23" fill="#F5DD48" fill-rule="nonzero"/>
    <circle cx="221.23" cy="275.23" r="102.23" fill="#F5DD48" fill-rule="nonzero"/>
    <circle cx="652.94" cy="122.01" r="102.23" fill="#F5DD48" fill-rule="nonzero"/>
    <path fill="#000" fill-rule="nonzero" d="M750.73 138.02C750.73 138.02 655.52 92.87 597.91 172.89M500.65 46.55C500.65 46.55 395.33 43.37 374.65 139.77M369.73 255.71C369.73 255.71 274.52 210.55 216.91 290.55" opacity=".1"/>
    <path fill="#33CCAB" fill-rule="nonzero" d="M143.550234 653.200234C145.383004 651.70609 146.718639 649.690433 147.380234 647.420234 147.880234 645.120234 146.900234 642.370234 144.700234 641.530234 142.240234 640.590234 139.610234 642.290234 137.620234 644.020234 135.630234 645.750234 133.340234 647.710234 130.730234 647.340234 133.458963 644.866714 134.689018 641.142382 133.970234 637.530234 133.857415 636.79421 133.546283 636.102805 133.070234 635.530234 131.700234 634.070234 129.230234 634.700234 127.590234 635.850234 122.390234 639.510234 120.940234 646.570234 120.910234 652.930234 120.390234 650.640234 120.830234 648.250234 120.810234 645.930234 120.790234 643.610234 120.150234 640.930234 118.170234 639.710234 116.942426 639.050519 115.563559 638.723038 114.170234 638.760234 111.830234 638.670234 109.230234 638.910234 107.630234 640.620234 105.630234 642.740234 106.160234 646.310234 107.890234 648.620234 109.620234 650.930234 112.240234 652.420234 114.660234 654.040234 116.599767 655.193308 118.25417 656.769093 119.500234 658.650234 119.646791 658.911122 119.76737 659.185774 119.860234 659.470234L134.510234 659.470234C137.792631 657.797632 140.833563 655.688491 143.550234 653.200234L143.550234 653.200234zM738.56 667.29C740.39277 665.795856 741.728405 663.780199 742.39 661.51 742.89 659.21 741.91 656.46 739.71 655.62 737.25 654.68 734.62 656.38 732.63 658.11 730.64 659.84 728.35 661.8 725.74 661.43 728.468729 658.95648 729.698783 655.232148 728.98 651.62 728.867181 650.883976 728.556049 650.192571 728.08 649.62 726.71 648.16 724.24 648.79 722.6 649.94 717.4 653.6 715.95 660.66 715.92 667.02 715.4 664.73 715.84 662.34 715.82 660.02 715.8 657.7 715.16 655.02 713.18 653.8 711.952191 653.140285 710.573325 652.812804 709.18 652.85 706.84 652.76 704.24 653 702.64 654.71 700.64 656.83 701.17 660.4 702.9 662.71 704.63 665.02 707.25 666.51 709.67 668.13 711.609532 669.283074 713.263936 670.858859 714.51 672.74 714.656557 673.000888 714.777135 673.27554 714.87 673.56L729.52 673.56C732.802397 671.887398 735.843328 669.778257 738.56 667.29L738.56 667.29z"/>
    <path fill="#DC9BA3" fill-rule="nonzero" d="M397.69,661.87 C397.69,661.87 396.69,677.53 398.69,680.13 C398.69,680.13 352.77,688.48 347.03,685.87 C341.29,683.26 343.9,679.09 347.03,677.52 C350.16,675.95 365.82,670.21 367.9,659.26 C367.9,659.26 361.12,656.13 383.03,660.26 C404.94,664.39 397.69,661.87 397.69,661.87 Z"/>
    <path fill="#000" fill-rule="nonzero" d="M397.69,661.87 C397.69,661.87 396.69,677.53 398.69,680.13 C398.69,680.13 352.77,688.48 347.03,685.87 C341.29,683.26 343.9,679.09 347.03,677.52 C350.16,675.95 365.82,670.21 367.9,659.26 C367.9,659.26 361.12,656.13 383.03,660.26 C404.94,664.39 397.69,661.87 397.69,661.87 Z" opacity=".05"/>
    <path fill="#FEDCB4" fill-rule="nonzero" d="M576.68 510.01C576.68 510.01 570.94 519.4 574.59 537.67 578.24 555.94 565.2 555.93 565.2 555.93L539.12 555.93 530.25 532.93 542.77 533.93C542.77 533.93 551.12 531.84 547.47 512.53L576.68 510.01zM498.41 488.1C502.41 500.81 507.41 516.29 510.08 524.54L511.98 530.37 529.2 512.63C529.2 512.63 528.44 510.87 527.31 508.41 524.79 502.95 520.4 494.04 518.24 493.32 518.24 493.32 542.24 491.75 549.55 497.49 556.86 503.23 554.77 481.83 554.77 481.83 554.77 481.83 540.68 480.83 535.46 477.66 530.24 474.49 502.06 471.4 502.06 471.4 502.06 471.4 492.67 469.83 498.41 488.1zM341.85 641.55L345.5 668.16 354.89 667.16C354.89 667.16 355.46 666.62 356.42 665.76 358.95 663.53 364.22 659.16 369.26 656.76 370.965593 655.888806 372.815946 655.336411 374.72 655.13L364.28 639.47C361.740885 640.422227 359.137757 641.194143 356.49 641.78 353.739773 642.427419 350.92535 642.762869 348.1 642.78 345.953499 642.812425 343.824145 642.393368 341.85 641.55L341.85 641.55z"/>
    <path fill="#BDD2E8" fill-rule="nonzero" d="M367.94,660.31 C372.64,664.48 394.03,655.61 397.69,669.18 L401.05,656.31 L411.4,616.71 L412.82,611.26 L421.44,610.89 L520.37,606.67 L525.97,606.43 L528.97,606.3 L525.05,604.36 L498.96,591.43 C498.96,591.43 489.56,590.77 476.6,588.99 L476.6,588.99 C456.95,586.3 429.11,580.99 413.39,571.6 C387.3,555.94 377.39,608.65 377.39,608.65 C377.39,608.65 373.39,622.02 370.39,635.2 C369.012714,640.885397 367.961005,646.64476 367.24,652.45 C366.79,656.48 366.93,659.4 367.94,660.31 Z"/>
    <path fill="#000" fill-rule="nonzero" d="M367.94,660.31 C372.64,664.48 394.03,655.61 397.69,669.18 L401.05,656.31 L411.4,616.71 L412.82,611.26 L421.71,610.71 L517.29,604.83 L523.19,604.46 L525.01,604.35 L527.36,604.2 L498.92,591.41 C498.92,591.41 489.52,590.75 476.56,588.97 L476.56,588.97 C456.91,586.28 429.07,580.97 413.35,571.58 C387.26,555.92 377.35,608.63 377.35,608.63 C377.35,608.63 373.35,622 370.35,635.18 C368.972714,640.865397 367.921005,646.62476 367.2,652.43 C366.79,656.48 366.93,659.4 367.94,660.31 Z" opacity=".05"/>
    <path fill="#000" fill-rule="nonzero" d="M356.5,641.74 L365.63,652.45 L369.27,656.72 C370.975593,655.848806 372.825946,655.296411 374.73,655.09 L364.29,639.43 C361.750885,640.382227 359.147757,641.154143 356.5,641.74 L356.5,641.74 Z" opacity=".1"/>
    <path fill="#BDD2E8" fill-rule="nonzero" d="M356.99,640.48 L367.2,652.48 L372.12,658.25 L372.12,659.82 C378.12,661.21 396.91,657.25 401.05,656.34 L401.86,656.16 C413.86,656.68 458.22,630.59 458.22,630.59 C458.22,630.59 506.75,638.94 530.22,636.85 C543.33,635.68 547.01,630.94 547.7,626.97 C548.002888,625.008429 547.732005,623.001119 546.92,621.19 L525.92,606.44 L523.14,604.44 L518.7,601.31 C518.7,601.31 510.98,599.56 501.18,597.4 L501.18,597.4 C485.86,594.02 465.45,589.63 461.32,589.32 C454.54,588.8 437.32,594.54 427.4,606.02 C425.697832,607.811582 423.775917,609.380698 421.68,610.69 L421.41,610.87 C418.62,612.72 415.19,614.68 411.41,616.69 C398.78,623.34 381.94,630.49 370.36,635.18 C362.44,638.41 356.99,640.48 356.99,640.48 Z"/>
    <path fill="#000" fill-rule="nonzero" d="M341.85,641.55 L345.5,668.16 L354.89,667.16 C354.89,667.16 355.46,666.62 356.42,665.76 C354.34,665.76 350.91,665.21 350.19,660.9 C350.19,660.9 353.81,648.25 348.1,642.8 C345.952072,642.826112 343.82266,642.400229 341.85,641.55 L341.85,641.55 Z" opacity=".1"/>
    <path fill="#DC9BA3" fill-rule="nonzero" d="M349.12,660.83 C349.12,660.83 354.34,642.57 342.34,640.48 L322.51,648.31 L299.51,649.88 C299.51,649.88 293.51,659.67 303.12,670.65 C308.45982,676.664912 316.02277,680.240519 324.06,680.55 L349.12,681.7 L356.99,665.55 C356.99,665.55 350.2,667.09 349.12,660.83 Z"/>
    <path fill="#000" fill-rule="nonzero" d="M476.57 588.99C479.2 589.76 490.08 592.99 501.22 597.42L501.22 597.42C506.727017 599.542291 512.091477 602.017424 517.28 604.83 518.36 605.44 519.39 606.05 520.36 606.66 522.900715 608.153585 525.175123 610.059627 527.09 612.3 533.53 620.63 542.99 625.12 547.7 626.95 548.002888 624.988429 547.732005 622.981119 546.92 621.17L525.92 606.42 528.92 606.29 525 604.35 527.35 604.2 498.91 591.41C498.91 591.41 489.53 590.77 476.57 588.99zM510.12 524.55L512.02 530.38 529.24 512.64C529.24 512.64 528.48 510.88 527.35 508.42 525.12 513.01 514.73 521.07 510.12 524.55z" opacity=".1"/>
    <path fill="#33CCAB" fill-rule="nonzero" d="M572.21,533.2 C572.826892,531.432207 573.27882,529.611104 573.56,527.76 L595.99,535.55 C595.99,535.55 611.38,547.29 609.82,572.86 C609.82,572.86 590.82,565.86 582.42,574.16 L582.25,575.63 C580.483941,590.221583 574.026717,603.844922 563.85,614.45 C559.7,618.81 555.79,623.72 553.72,628.45 C553.72,628.45 539.11,624.28 530.24,612.79 C521.37,601.3 479.12,589.34 479.12,589.34 C479.12,589.34 501.56,589.86 504.69,582.03 C507.82,574.2 518.26,557.5 514.61,544.46 C510.96,531.42 508.87,527.24 508.87,527.24 C508.87,527.24 530.27,512.11 528.7,507.41 L542.27,523.07 L548.53,525.16 C548.035595,526.372599 547.78417,527.670497 547.79,528.98 C547.43,543.15 567.45,546.55 572.21,533.2 Z"/>
    <path fill="#000" fill-rule="nonzero" d="M548.25,519.48 C548.091887,517.530476 547.828167,515.590962 547.46,513.67 L576.68,511.06 C576.68,511.06 574.68,512.81 573.78,519.33 C570.35,521.33 566.35,524.110016 562.07,524.110016 C557.081552,524.115888 552.228101,522.489877 548.25,519.48 L548.25,519.48 Z" opacity=".1"/>
    <circle cx="561.81" cy="500.36" r="22.96" fill="#FEDCB4" fill-rule="nonzero"/>
    <path fill="#844F6E" fill-rule="nonzero" d="M578.77,506.36 L575.64,506.36 L575.64,497.49 L572.51,488.1 C572.51,488.1 556.85,480.79 549.51,482.36 L543.81,487.55 C543.81,487.55 542.24,475.03 551.64,470.33 C561.04,465.63 577.73,467.72 581.91,471.33 C586.09,474.94 592.91,481.25 587.65,498.47 L586.12,502.71 C586.12,502.71 579.81,500.62 578.77,506.36 Z"/>
    <path fill="#000" fill-rule="nonzero" d="M59.21 11.41L57.5 10.84 49.62 1.75C49.7743917 1.31916524 49.7918553.851142486 49.67.41L59.21 11.41zM70.19 28.25C65.6215774 26.3033952 62.7570031 21.7088897 63.02 16.75 63.02 16.44 63.02 16.15 63.02 15.87L63.18 16.06 69.44 18.15C68.9455951 19.3625988 68.6941698 20.6604971 68.7 21.97 68.6369285 24.15782 69.1508086 26.3237041 70.19 28.25zM9.32 81.91C22.4 86.46 40.11 93.63 45.5 100.6L45.9 101.1C31.57 91.27.1 82.33.1 82.33 3.17880546 82.3646173 6.25709299 82.2243916 9.32 81.91zM68.98 116.26C71.05 111.55 74.98 106.63 79.11 102.26 89.2867175 91.6549216 95.7439412 78.0315833 97.51 63.44L97.68 61.97C106.03 53.62 125.08 60.67 125.08 60.67 126.08 44.45 120.24 33.8 115.85 28.18L117 28.58C117 28.58 132.39 40.32 130.83 65.89 130.83 65.89 111.83 58.89 103.43 67.19L103.26 68.66C101.493941 83.2515833 95.0367175 96.8749216 84.86 107.48 80.71 111.84 76.8 116.75 74.73 121.48 74.73 121.48 62.01 117.84 53.11 108.04 57.9066991 111.642477 63.2701431 114.420518 68.98 116.26z" opacity=".05" transform="translate(479 507)"/>
    <path fill="#FEDCB4" fill-rule="nonzero" d="M544.72,582.2 C544.72,582.2 578.72,598.2 591.81,608.64 C604.9,619.08 608.51,603.94 608.51,603.94 L608.51,570.55 L585.51,567.94 L585.26,571.11 L585.98,583.73 L554.58,571.73 C554.58,571.73 533.18,552.42 529.01,563.9 C524.84,575.38 544.72,582.2 544.72,582.2 Z"/>
    <path fill="#000" fill-rule="nonzero" d="M585.31,571.11 C588.439882,572.932889 591.759584,574.408312 595.21,575.51 C600.14,577.03 605.79,575.43 608.52,574.45 L608.52,570.55 L585.52,567.94 L585.31,571.11 Z" opacity=".1"/>
    <path fill="#33CCAB" fill-rule="nonzero" d="M608.78,567.16 L610.12,572.75 C610.12,572.75 601.96,576.55 595.18,574.47 C590.608127,572.919987 586.242518,570.817779 582.18,568.21 C581.18,567.69 586.35,561.95 586.35,561.95 L608.78,567.16 Z"/>
    <path fill="#000" fill-rule="nonzero" d="M458.48,630.82 C455.000789,628.148619 451.128025,626.033442 447,624.55 C443.063378,623.205768 439.354249,621.270277 436,618.81" opacity=".1"/>
    <path fill="#FFF" fill-rule="nonzero" d="M299.58,649.87 L300.43,649.81 C299.19,652.96 297.43,660.66 304.75,669.07 C310.074932,675.064042 317.608923,678.634295 325.62,678.96 L349.92,680.1 L349.14,681.7 L324.06,680.55 C316.048923,680.224295 308.514932,676.654042 303.19,670.66 C293.58,659.66 299.58,649.87 299.58,649.87 Z" opacity=".2"/>
    <path fill="#0F0" fill-rule="nonzero" d="M388.19,672.24 C388.116667,672.553333 388.033333,672.863333 387.94,673.17 C387.43,672.88 386.7,672.32 388.19,672.24 Z" opacity=".05"/>
    <path fill="#FFF" fill-rule="nonzero" d="M347.12,684.31 C352.47,686.74 392.69,679.66 398.12,678.68 C398.22991,679.19921 398.440549,679.691835 398.74,680.13 C398.74,680.13 352.82,688.48 347.08,685.87 C344.08,684.53 343.39,682.77 343.79,681.17 C344.12,682.29 345.06,683.4 347.12,684.31 Z" opacity=".2"/>
    <path fill="#000" fill-rule="nonzero" d="M548.22,490.39 C542.574948,486.976407 537.99074,482.05981 534.98,476.19 C534.557656,475.543085 534.383612,474.765216 534.49,474 C534.86,472.58 536.71,472.33 538.05,471.72 C540.54,470.58 541.59,467.72 543.22,465.5 C546.072505,461.774347 550.777428,459.968925 555.39,460.83 C557.77,461.31 559.97,462.49 562.39,462.83 C567.57,463.59 573.21,460.45 577.86,462.83 C579.98,463.92 581.42,465.97 582.68,467.99 C585.85,473.06 589.82,478.45 586.94,484.37 C585.29,487.77 582.65,490.59 578.94,491.58 C575.23,492.57 570.94,491.74 567.16,491.34 C564.06,491 560.8,490.34 557.68,490.62 C554,491 551.71,492.49 548.22,490.39 Z" opacity=".1"/>
    <path fill="#844F6E" fill-rule="nonzero" d="M550.22,492.34 C544.574948,488.926407 539.99074,484.00981 536.98,478.14 C536.557656,477.493085 536.383612,476.715216 536.49,475.95 C536.86,474.53 538.71,474.28 540.05,473.67 C542.54,472.53 543.59,469.67 545.22,467.45 C548.072505,463.724347 552.777428,461.918925 557.39,462.78 C559.77,463.26 561.97,464.44 564.39,464.78 C569.57,465.54 575.21,462.4 579.86,464.78 C581.98,465.87 583.42,467.92 584.68,469.94 C587.85,475.01 591.82,480.4 588.94,486.32 C587.29,489.72 584.65,492.54 580.94,493.53 C577.23,494.52 572.94,493.69 569.16,493.29 C566.06,492.95 562.8,492.29 559.68,492.57 C556,492.95 553.71,494.45 550.22,492.34 Z"/>
  </g>
</svg>
