<svg xmlns="http://www.w3.org/2000/svg" width="1039" height="785" viewBox="0 0 1039 785">
  <g fill="none">
    <path fill="#3F3D56" d="M267.4835 691.97896C267.4835 691.97896 272.4835 670.97896 307.4835 677.97896 342.4835 684.97896 347.4835 691.97896 347.4835 691.97896L267.4835 691.97896zM94.9835 664.47896C94.9835 664.47896 99.9835 643.47896 134.9835 650.47896 169.9835 657.47896 174.9835 664.47896 174.9835 664.47896L94.9835 664.47896zM387.4835 691.97896C387.4835 691.97896 359.4835 674.97896 347.4835 691.97896L387.4835 691.97896zM256.9835 643.97896C256.9835 643.97896 228.9835 626.97896 216.9835 643.97896L256.9835 643.97896z"/>
    <path fill="#3F3D56" d="M99.90875,628.35975 C108.24488,643.81947 125.93715,650.456 125.93715,650.456 C125.93715,650.456 130.11387,632.02736 121.77774,616.56763 C113.44161,601.1079 95.74933,594.47138 95.74933,594.47138 C95.74933,594.47138 91.57261,612.90002 99.90875,628.35975 Z"/>
    <path fill="#F5DD48" d="M105.63849,623.27361 C120.68864,632.32828 126.48493,650.31335 126.48493,650.31335 C126.48493,650.31335 107.8801,653.6179 92.82993,644.56323 C77.77976,635.50856 71.98349,617.52348 71.98349,617.52348 C71.98349,617.52348 90.58833,614.21893 105.63849,623.27361 Z"/>
    <path fill="#3F3D56" d="M931.9835 679.47896C931.9835 679.47896 936.9835 658.47896 971.9835 665.47896 1006.9835 672.47896 1011.9835 679.47896 1011.9835 679.47896L931.9835 679.47896zM851.9835 691.97896C827.665993 688.17208 804.28503 684.934023 781.84061 682.26479L790.4835 664.97896C787.4835 663.97896 774.4835 673.97896 774.4835 673.97896L785.4835 623.97896C770.4835 625.97896 763.4835 676.97896 763.4835 676.97896L746.4835 659.97896 754.85184 679.22609C686.17057 672.00942 626.90507 669.75728 577.08604 670.27382L584.4835 655.47896C581.4835 654.47896 568.4835 664.47896 568.4835 664.47896L579.4835 614.47896C564.4835 616.47896 557.4835 667.47896 557.4835 667.47896L540.4835 650.47896 549.3469 670.86482C515.221218 671.856362 481.168906 674.598598 447.32432 679.08071 454.70585 656.08492 480.4835 633.97896 480.4835 633.97896 460.66294 640.14534 450.35136 650.19136 445.0142 659.50356 443.934602 612.259761 451.202532 565.196229 466.4835 520.47896 466.4835 520.47896 426.4835 610.47896 432.4835 670.47896L433.24479 681.13704C398.44541 686.56581 380.9835 691.97896 380.9835 691.97896L851.9835 691.97896zM590.9835 737.47896C590.9835 737.47896 774.9835 710.47896 888.9835 737.47896M319.9835 774.47896C319.9835 774.47896 503.9835 747.47896 617.9835 774.47896M660.9835 784.40632C660.9835 784.40632 769.96336 756.76765 837.4835 784.40632"/>
    <path fill="#3F3D56" d="M965.37217,673.43794 L963.59483,672.51994 C986.67683,627.89594 974.33408,569.94474 959.91611,529.18794 C950.125886,501.793363 937.638636,475.439042 922.63828,450.51314 L924.32871,449.44478 C939.406941,474.497387 951.959291,500.985833 961.80088,528.51998 C976.35166,569.64986 988.78135,628.17916 965.37217,673.43794 Z"/>
    <rect width="72.18" height="1.999" x="940.897" y="484.485" fill="#3F3D56" transform="rotate(-79.645 976.987 485.485)"/>
    <rect width="2.001" height="98.351" x="927.983" y="497.803" fill="#3F3D56" transform="rotate(-42.94 928.984 546.979)"/>
    <rect width="58.009" height="2" x="971.479" y="612.479" fill="#3F3D56" transform="rotate(-54.137 1000.484 613.479)"/>
    <circle cx="988.483" cy="420.979" r="10" fill="#F5DD48"/>
    <circle cx="879.483" cy="497.979" r="10" fill="#3F3D56"/>
    <circle cx="923.483" cy="507.979" r="10" fill="#3F3D56"/>
    <circle cx="903.483" cy="546.979" r="10" fill="#F5DD48"/>
    <circle cx="1028.483" cy="571.979" r="10" fill="#3F3D56"/>
    <circle cx="995.483" cy="582.979" r="10" fill="#3F3D56"/>
    <circle cx="1018.483" cy="614.979" r="10" fill="#3F3D56"/>
    <circle cx="913.483" cy="432.979" r="10" fill="#3F3D56"/>
    <path fill="#B9EFE9" d="M328.26312,379.97159 C328.26312,503.58159 254.77892,546.74159 164.13156,546.74159 C73.4842,546.74159 -2.84217094e-14,503.58159 -2.84217094e-14,379.97159 C-2.84217094e-14,256.36159 164.13156,99.1101 164.13156,99.1101 C164.13156,99.1101 328.26312,256.36156 328.26312,379.97159 Z"/>
    <polygon fill="#3F3D56" points="158.153 527.833 159.833 424.383 229.79 296.4 160.097 408.154 160.852 361.639 209.067 269.044 161.052 349.329 161.052 349.329 162.412 265.669 214.04 191.952 162.625 252.514 163.474 99.11 158.138 302.188 158.576 293.811 106.085 213.464 157.735 309.893 152.844 403.327 152.698 400.847 92.185 316.294 152.515 409.608 151.903 421.293 151.794 421.469 151.844 422.428 139.435 659.478 156.014 659.478 158.003 537.037 218.185 443.952"/>
    <path fill="#B9EFE9" d="M869.64715,343.12173 C869.64715,494.13314 779.87326,546.86073 669.13156,546.86073 C558.38986,546.86073 468.61598,494.13316 468.61598,343.12173 C468.61598,192.1103 669.13156,0 669.13156,0 C669.13156,0 869.64715,192.11033 869.64715,343.12173 Z"/>
    <polygon fill="#3F3D56" points="661.827 523.761 663.88 397.378 749.345 241.024 664.202 377.552 665.126 320.725 724.028 207.605 665.37 305.687 665.37 305.687 667.03 203.481 730.104 113.423 667.291 187.409 668.329 0 661.809 248.096 662.345 237.861 598.218 139.704 661.317 257.508 655.341 371.654 655.164 368.625 581.236 265.329 654.94 379.328 654.192 393.603 654.059 393.818 654.12 394.99 638.96 684.589 659.214 684.589 661.645 535.005 735.167 421.285"/>
    <path fill="#CF9595" d="M507.16731,560.61694 L516.30443,588.89852 C516.30443,588.89852 508.03751,615.43971 511.95343,645.0266 C515.86935,674.61349 513.69384,675.48369 513.69384,675.48369 C513.69384,675.48369 474.5676,673.23122 478.48351,684.97896 C482.39942,696.7267 520.65546,689.84204 520.65546,689.84204 C520.65546,689.84204 528.0027,687.86382 531.48351,666.97896 C534.96432,646.0941 543.71583,605.86748 543.71583,605.86748 L535.48648,567.89258 L507.16731,560.61694 Z"/>
    <path fill="#33CCAB" d="M548.21302,481.74846 C548.21302,481.74846 493.67916,508.83988 493.67916,525.37373 C493.67916,541.90758 499.77058,564.53285 503.6865,565.83815 C507.60242,567.14345 533.7085,584.98261 538.4946,572.36467 C540.494817,567.091353 562.397533,689.410754 564.078125,671.764674 C564.801162,664.172851 606.135505,660.951266 604.1949,636.082031 C599.853114,580.441193 548.21302,481.74846 548.21302,481.74846 Z"/>
    <polygon fill="#CF9595" points="648.575 698.544 683.383 697.239 709.925 693.323 702.093 719.429 637.698 721.169"/>
    <path fill="#2F2E41" d="M698.6119,702.02487 C698.6119,702.02487 698.1768,692.45264 694.2609,692.88775 C690.345,693.32286 692.9556,689.40694 696.43641,688.53675 C699.91722,687.66656 709.92455,683.31554 709.92455,683.31554 L749.51875,685.92616 C749.51875,685.92616 775.18975,708.55143 764.7473,720.73427 C754.30485,732.91711 727.32859,722.03958 727.32859,722.03958 L698.1768,722.47468 C698.1768,722.47468 688.60457,706.81099 698.6119,702.02487 Z"/>
    <polygon fill="#CF9595" points="714.276 668.522 726.893 727.696 753 722.475 738.206 648.507 722.542 640.24"/>
    <path fill="#2F2E41" d="M564.16558 661.12535C564.16558 661.12535 491.06858 694.19305 521.96075 727.69585 521.96075 727.69585 521.96075 743.3595 554.59335 740.31379 587.22595 737.26808 650.31565 731.61179 653.36135 733.35217 656.40705 735.09255 665.97929 698.97917 657.71235 697.23876 649.44541 695.49835 639.43809 693.32285 639.43809 693.32285 639.43809 693.32285 648.14009 692.01754 648.14009 684.62085 648.14009 684.62085 672.94087 682.88044 680.33759 667.21685 687.73431 651.55326 694.69594 639.80546 694.69594 639.80546L711.66489 683.3156C711.66489 683.3156 731.24445 647.20218 746.03789 663.30093 746.03789 663.30093 729.50404 559.31171 716.8861 549.73948 704.26816 540.16725 695.5661 537.12154 683.8184 545.82357 672.0707 554.5256 661.19313 576.71577 661.19313 576.71577L564.16558 661.12535zM738.64122 709.8567C735.599284 712.15108 732.693688 714.620843 729.93922 717.25342 726.45841 720.73423 721.6723 718.99383 721.23722 717.25342 720.80214 715.51301 712.97029 718.55873 712.10009 731.17666 711.22989 743.79459 706.00867 755.10724 719.93191 759.02315 733.85515 762.93906 733.42006 774.2517 733.42006 774.2517 744.436737 779.536809 757.080216 780.317269 768.66326 776.4272 788.24282 769.90068 781.2812 762.93906 781.2812 762.93906L755.17512 719.86406C755.17512 719.86406 748.21345 706.81099 738.64122 709.8567z"/>
    <path fill="#CF9595" d="M666.4144,494.04643 C666.4144,494.04643 708.18413,508.40478 712.53514,511.45049 C716.88615,514.4962 736.46571,528.85449 726.89349,536.25126 C717.32127,543.64803 709.48943,548.4341 690.78007,542.77778 C672.07071,537.12146 651.18585,519.71741 651.18585,519.71741 L666.4144,494.04643 Z"/>
    <path fill="#33CCAB" d="M624.64467,474.90197 C624.64467,474.90197 641.17852,471.85626 652.92626,478.38278 C664.674,484.9093 674.68132,497.96234 674.68132,497.96234 C674.68132,497.96234 663.80379,521.02272 655.97197,524.50353 C648.14015,527.98434 633.78175,510.58028 633.78175,510.58028 L624.64467,474.90197 Z"/>
    <path fill="#CF9595" d="M548.50193,462.28403 C548.50193,462.28403 548.93704,479.25303 547.19663,480.99339 C545.45622,482.73375 568.08149,534.07576 592.88227,511.45049 C617.68305,488.82522 598.53859,479.68809 598.53859,479.68809 C598.53859,479.68809 589.40146,462.71909 589.83659,460.97873 C590.27172,459.23837 549.37217,460.97873 549.37217,460.97873 L548.50193,462.28403 Z"/>
    <path fill="#000" d="M548.50193,462.28403 C548.50193,462.28403 548.93704,479.25303 547.19663,480.99339 C545.45622,482.73375 568.08149,534.07576 592.88227,511.45049 C617.68305,488.82522 598.53859,479.68809 598.53859,479.68809 C598.53859,479.68809 589.40146,462.71909 589.83659,460.97873 C590.27172,459.23837 549.37217,460.97873 549.37217,460.97873 L548.50193,462.28403 Z" opacity=".1"/>
    <path fill="#33CCAB" d="M555.46356,494.91663 C555.46356,494.91663 571.99741,506.22927 578.95903,503.61863 C585.92065,501.00799 594.62268,489.69539 595.49288,488.82519 C596.36308,487.95499 640.74342,577.15076 640.74342,577.15076 C640.74342,577.15076 634.2169,609.78336 616.81285,619.35559 C599.4088,628.92782 599.62634,636.54209 597.45085,643.06859 C595.27536,649.59509 567.2113,622.40128 567.2113,622.40128 L549.37215,546.69364 L549.37215,500.57295 L555.46356,494.91663 Z"/>
    <path fill="#33CCAB" d="M596.08437,475.02853 C596.08437,475.02853 606.80551,468.37545 608.98102,470.11586 C611.15653,471.85627 631.60629,471.85626 632.04139,473.59667 C632.47649,475.33708 633.3467,517.1068 648.14014,527.98434 C662.93358,538.86188 653.36136,560.61694 653.36136,560.61694 L664.23889,578.02094 C664.23889,578.02094 605.06604,635.01457 608.98102,615.43966 C609.19857,614.3519 608.98102,614.13435 608.98102,614.13435 C608.98102,614.13435 585.92065,515.36635 588.96636,510.14513 C592.01207,504.92391 597.54605,481.2465 596.08437,475.02853 Z"/>
    <path fill="#CF9595" d="M687.29926,514.9313 L628.12548,535.38106 C628.12548,535.38106 569.3868,549.3043 578.52393,565.40306 C587.66106,581.50182 626.38507,554.09043 626.38507,554.09043 L705.18467,545.26133 C705.18467,545.26133 736.46575,518.84721 687.29926,514.9313 Z"/>
    <circle cx="571.997" cy="446.185" r="32.197" fill="#CF9595"/>
    <path fill="#2F2E41" d="M546.35644,414.18654 L540.40057,412.02076 C540.40057,412.02076 552.85369,399.56764 570.17992,400.65057 L565.30681,395.77757 C565.30681,395.77757 577.21855,391.4461 588.04736,402.81629 C593.73985,408.79337 600.32614,415.81908 604.43201,423.73349 L610.81033,423.73349 L608.14826,429.05763 L617.46551,434.38178 L607.90226,433.42542 C608.808199,438.021998 608.496374,442.775577 606.99773,447.21442 L604.83204,453.1702 C604.83204,453.1702 596.16893,435.84414 596.16893,433.67836 L596.16893,439.09277 C596.16893,439.09277 590.21306,434.21983 590.21306,430.9712 L586.96443,434.76129 L585.34012,428.80542 L565.30681,434.76129 L568.55544,429.88835 L556.10232,431.51267 L560.97542,425.5568 C560.97542,425.5568 546.89798,432.59552 546.35642,438.55138 C545.81504,444.50717 538.77642,452.08738 538.77642,452.08738 L535.52779,446.67298 C535.52779,446.67298 530.65469,422.3081 546.35644,414.18654 Z"/>
  </g>
</svg>
