<svg xmlns="http://www.w3.org/2000/svg" xmlns:xlink="http://www.w3.org/1999/xlink" width="525" height="6130" viewBox="0 0 525 6130">
  <defs>
    <path id="rightblobbg-a" d="M466.757646,1088.01597 C530.020966,1104.54451 634.542732,1085.78181 667.256602,1123.9758 C700.038702,1162.24301 707.117039,1227.5103 685.73343,1274.43628 C664.41805,1321.4355 614.708952,1350.16664 560.134999,1365.09316 C505.494204,1380.08207 445.921712,1381.32875 398.328621,1353.05077 C350.803761,1324.84602 315.19146,1267.179 302.995652,1202.9913 C290.733002,1138.86598 301.888232,1068.35558 341.519656,1043.96416 C381.15108,1019.57274 403.359255,1071.47659 466.757646,1088.01597 Z"/>
    <path id="rightblobbg-b" d="M689.61279,2751.1958 C806.989656,2781.90563 1000.9162,2747.04475 1061.61254,2818.00873 C1122.43546,2889.10876 1135.5684,3010.3746 1095.89389,3097.56253 C1056.34597,3184.88651 964.117205,3238.26863 862.86233,3266.00194 C761.483438,3293.85116 650.954422,3296.16747 562.65163,3243.62732 C474.475429,3191.22323 408.401435,3084.07858 385.773698,2964.81859 C363.021945,2845.67451 383.719024,2714.66703 457.24998,2669.34806 C530.780935,2624.02909 571.985316,2720.46582 689.61279,2751.1958 Z"/>
  </defs>
  <g fill="none" fill-rule="evenodd">
    <g transform="rotate(-63 498.1 1206.554)">
      <use fill="#FFF" xlink:href="#rightblobbg-a"/>
      <use fill="#FFBCA3" fill-opacity=".2" xlink:href="#rightblobbg-a"/>
    </g>
    <g transform="rotate(138 747.764 2971.437)">
      <use fill="#FFF" xlink:href="#rightblobbg-b"/>
      <use fill="#E2F8F6" xlink:href="#rightblobbg-b"/>
    </g>
    <path stroke="#07454C" stroke-width="2" d="M278.353387,213.007319 L286.542288,194.559612 L278.353387,213.007319 L270.77376,197.980346 L278.353387,213.007319 Z M278.353387,213.007319 L277.94915,213.917971 L278.353387,213.007319 L278.812721,213.917971 L278.353387,213.007319 Z M1.12123292,274.766224 L0.0039665154,274.67109 L1.12123292,274.766224 L0.0039665154,273.528636 L1.12123292,274.766224 Z M1.12123292,274.766224 L13.6031136,275.829046 L1.12123292,274.766224 L14.1896182,289.241981 L1.12123292,274.766224 Z M266.020895,81.8456304 L281.107084,67.744526 L266.020895,81.8456304 L265.178815,65.1715075 L266.020895,81.8456304 Z M266.020895,81.8456304 L266.060645,82.6327243 L266.020895,81.8456304 L265.178815,82.6327243 L266.020895,81.8456304 Z M123.745673,102.957587 L123.511792,102.941657 L123.745673,102.957587 L123.511792,102.738964 L123.745673,102.957587 Z M123.745673,102.957587 L137.256528,103.877805 L123.745673,102.957587 L138.974475,117.192845 L123.745673,102.957587 Z M181.947035,15.4974944 L182.799845,14.4550451 L181.947035,15.4974944 L182.799845,15.3553678 L181.947035,15.4974944 Z M181.947035,15.4974944 L169.104929,31.1952971 L181.947035,15.4974944 L165.751183,18.1966433 L181.947035,15.4974944 Z M48.5091697,44.2319567 L68.5668096,40.1121811 L48.5091697,44.2319567 L56.6184723,29.2514256 L48.5091697,44.2319567 Z M48.5091697,44.2319567 L47.8488265,44.3675891 L48.5091697,44.2319567 L48.4357488,44.3675891 L48.5091697,44.2319567 Z M222.913255,151.100438 L204.667314,161.813342 L222.913255,151.100438 Z M208.109787,144.673263 L222.913255,151.100438 L208.109787,144.673263 Z M44.6794239,154.615321 L56.3624131,172.275344 L44.6794239,154.615321 Z M56.6184723,172.275344 L57.7828691,158.925167 L56.6184723,172.275344 Z M13.4666774,85.4733731 L1.49988142,102.941657 L13.4666774,85.4733731 Z M13.4666774,85.4733731 L14.387985,99.2583165 L13.4666774,85.4733731 Z M130.211573,223.65776 L140.869478,231.021217 L130.211573,223.65776 Z M130.760433,245.273366 L129.662713,223.65776 L130.760433,245.273366 Z M223.396017,302.374631 L202.95227,296.949132 L223.396017,302.374631 Z M217.521034,287.321975 L203.638756,296.237012 L217.521034,287.321975 Z M83.9581165,303.668114 L78.4345019,316.327469 L83.9581165,303.668114 Z M69.4210349,296.657274 L78.4345019,316.327469 L69.4210349,296.657274 Z M136.909772,348.769416 L155.813868,339.270458 L136.909772,348.769416 Z M155.813868,339.270458 L142.753877,336.255294 L155.813868,339.270458 Z M335.244757,272.077568 L326.841749,283.032868 L335.244757,272.077568 Z M322.819638,261.767646 L326.841749,283.032868 L322.819638,261.767646 Z M329.243567,127.261261 L314.537772,134.991187 L329.243567,127.261261 Z M330.192304,127.261261 L320.906857,146.80409 L330.192304,127.261261 Z M329.243567,6.85294441 L343.003967,7.78280321 L329.243567,6.85294441 Z M327.569126,22.9279323 L343.003967,7.78280321 L327.569126,22.9279323 Z M2.96106663,2.47747645 L17.467421,12.198746 L2.96106663,2.47747645 Z M2.96106663,2.47747645 L24.499436,0.769416493 L2.96106663,2.47747645 Z M284.973655,329.354679 L295.979425,347.445991 L284.973655,329.354679 Z M284.973655,329.354679 L297.904447,334.159407 L284.973655,329.354679 Z" transform="rotate(-56 2959.658 1172.362)"/>
    <path fill="#29A389" fill-rule="nonzero" d="M282.866441,114.021208 C316.866024,163.106897 350.954379,205.879029 348.912629,250.518551 C346.870879,295.246996 308.699023,341.931754 262.448937,359.449654 C216.198851,377.056478 161.870535,365.585366 113.223612,342.198525 C64.4879166,318.811683 21.3448423,283.509113 6.25364341,236.290814 C-8.83755544,189.161439 4.03434946,130.116334 37.8563892,81.0306451 C71.5896572,31.9449559 126.184288,-7.09239486 170.481396,1.08855335 C214.778503,9.26950157 248.778086,64.8465954 282.866441,114.021208 Z" transform="translate(416 5762)"/>
    <g stroke="#4A8C69" stroke-width="2" transform="translate(334.464 981.208)">
      <path d="M74.1322916,158.404405 L94.0883378,177.546078" transform="rotate(-104.825 84.11 167.975)"/>
      <path d="M3.97055761,146.737373 L23.9030698,165.916927" transform="rotate(29.112 13.937 156.327)"/>
      <path d="M37.1961566,168.682788 L57.0937806,187.844392" transform="rotate(-10.2 47.145 178.264)"/>
      <path d="M71.8488755,36.1212011 L91.7637851,55.2415771" transform="rotate(123.592 81.806 45.681)"/>
      <path d="M40.2718192,139.137902 L60.1988947,158.318125" transform="rotate(-155.962 50.235 148.728)"/>
      <path d="M128.558656,138.58105 L148.483449,157.699386" transform="rotate(114.213 138.521 148.14)"/>
      <path d="M82.1824216,80.1343089 L102.108954,99.2526236" transform="rotate(-67.397 92.146 89.693)"/>
      <path d="M92.2636956,106.597659 L112.159112,125.742276" transform="rotate(153.743 102.211 116.17)"/>
      <path d="M127.779503,6.19958435 L147.681167,25.3679693" transform="rotate(177.123 137.73 15.784)"/>
      <path d="M96.3867584,138.709006 L116.318673,157.888682" transform="rotate(-151.452 106.353 148.299)"/>
      <path d="M88.2257048,11.0509919 L108.181954,30.2070187" transform="rotate(-118.227 98.204 20.629)"/>
      <path d="M60.188423,119.030391 L80.0864439,138.192872" transform="rotate(170.691 70.137 128.612)"/>
      <path d="M12.4038584,110.590775 L32.3062914,129.719999" transform="rotate(137.891 22.355 120.155)"/>
      <path d="M125.739013,99.3283703 L145.659118,118.508039" transform="rotate(17.555 135.7 108.918)"/>
      <path d="M115.764013,62.8891947 L135.662781,82.053155" transform="rotate(-7.776 125.713 72.471)"/>
      <path d="M119.527491,33.2080609 L139.422715,52.3604807" transform="rotate(160.983 129.475 42.784)"/>
      <path d="M49.3498195,83.2964842 L69.3034328,102.431691" transform="rotate(-98.419 59.327 92.864)"/>
      <path d="M11.7017684,81.3356435 L31.6226836,100.454379" transform="rotate(-62.178 21.662 90.895)"/>
      <path d="M163.566068,3.99003472 L183.502426,23.1685019" transform="rotate(32.812 173.534 13.58)"/>
      <path d="M133.109735,171.184893 L153.065781,190.326566" transform="rotate(-104.825 143.088 180.756)"/>
      <path d="M159.384091,238.597129 L179.316604,257.776683" transform="rotate(29.112 169.35 248.187)"/>
      <path d="M96.1736002,181.463276 L116.071224,200.62488" transform="rotate(-10.2 106.122 191.044)"/>
      <path d="M148.251009,61.5881731 L168.206114,80.7481002" transform="rotate(58.01 158.229 71.168)"/>
      <path d="M185.328404,149.763558 L205.23497,168.88875" transform="rotate(132.541 195.282 159.326)"/>
      <path d="M181.046431,79.5496407 L200.951735,98.7219229" transform="rotate(-177.937 191 89.136)"/>
      <path d="M163.216598,111.415428 L183.146632,130.595409" transform="rotate(26.785 173.182 121.005)"/>
      <path d="M61.1737224,211.584578 L81.1298164,230.741265" transform="rotate(61.146 71.152 221.163)"/>
      <path d="M10.8122223,182.513914 L30.7168404,201.64082" transform="rotate(134.942 20.765 192.077)"/>
      <path d="M25.6970612,212.371351 L45.6212733,231.551538" transform="rotate(21.388 35.66 221.961)"/>
      <path d="M110.411111,214.464778 L130.317677,233.58997" transform="rotate(132.541 120.364 224.027)"/>
      <path d="M129.84606,239.85746 L149.799673,258.992667" transform="rotate(-98.419 139.823 249.425)"/>
      <path d="M92.198009,237.896619 L112.118924,257.015355" transform="rotate(-62.178 102.158 247.456)"/>
      <path d="M167.817392,202.450531 L187.719825,221.579755" transform="rotate(137.891 177.769 212.015)"/>
      <path d="M167.115302,173.1954 L187.036217,192.314135" transform="rotate(-62.178 177.076 182.755)"/>
    </g>
    <path stroke="#4A8C69" stroke-width="2" d="M526.007906,1244.40162 L550.98142,1268.40162" transform="rotate(-155.962 538.495 1256.402)"/>
  </g>
</svg>
