<svg xmlns="http://www.w3.org/2000/svg" width="291" height="201" viewBox="0 0 291 201">
  <g fill="none">
    <path fill="#B9EFE9" d="M231.773255,61.6708123 C259.738794,88.2198587 289.162896,115.656705 290.291922,135.362614 C291.420948,155.068524 293.043122,173.176898 214.979329,194.416044 C176.937434,203.939071 98.9147231,200.891432 58.9013674,188.242158 C8.4960288,177.393657 -3.48835797,120.167216 0.804009344,102.118009 C5.09637665,84.0688011 2.42663083,70.3762062 30.2461354,43.8271598 C57.992623,17.2781135 102.898123,-3.83607366 139.333642,0.588767394 C175.769161,5.01360845 203.7347,35.0736699 231.773255,61.6708123 Z" transform="matrix(-1 0 0 1 290.582 0)"/>
    <g transform="translate(19.52 11)">
      <path fill="#07454C" d="M127.5,188.93 C127.5,152.52 125.770309,134.78 107.41,134.78 L19.7,134.78 C19.7,134.78 4.7,142.01 0,163.03 C24.6621094,175.29 59.5,190 127.5,188.93 Z"/>
      <path fill="#F2C0B8" d="M49.63,105.61 L78.02,105.61 C79.8701539,105.61 81.37,107.109846 81.37,108.96 L81.37,133.68 C81.37,143.367075 73.5170745,151.22 63.83,151.22 L63.83,151.22 C54.1429255,151.22 46.29,143.367075 46.29,133.68 L46.29,108.96 C46.29,107.113744 47.7837525,105.615511 49.63,105.61 Z"/>
      <path fill="#000" d="M46.28,106.91 L81.37,106.91 L81.37,134.98 C81.37,144.667075 73.5170745,152.52 63.83,152.52 L63.83,152.52 C54.1429255,152.52 46.29,144.667075 46.29,134.98 L46.29,106.91 L46.28,106.91 Z" opacity=".1"/>
      <path fill="#000" d="M46.35,120.16 C57.6586913,124.386642 70.1074023,124.422118 81.44,120.26 L81.44,115.95 L46.35,115.95 L46.35,120.16 Z" opacity=".1"/>
      <circle cx="64.239" cy="63.76" r="53.76" fill="#372C28"/>
      <path fill="#F2C0B8" d="M113.828678,78.6820969 C110.657386,103.404407 89.5348683,122.51 63.95,122.51 C38.3934597,122.51 17.2893936,103.446692 14.0819219,78.7641952 C11.7893659,78.1973788 10.02,74.5208976 10.02,70.07 C10.02,65.2264627 12.1153074,61.3 14.7,61.3 C14.7494932,61.3 14.7988069,61.3014397 14.8479299,61.304298 C19.8333014,38.7782042 39.9240962,21.93 63.95,21.93 C87.9752458,21.93 108.065598,38.7772813 113.05166,61.3024472 C115.58477,61.41359 117.62,65.296405 117.62,70.07 C117.62,74.344125 115.988388,77.9041258 113.828679,78.6820908 Z"/>
      <path fill="#372C28" d="M34.8465846,29.8067682 C46.35,29.8067682 68.92879,40.1824863 103.010995,33.4241271 L93.9291413,26.8286125 L66.3115315,16 L34.8465846,29.8067682 Z"/>
      <path fill="#372C28" d="M28.5285137,34.71 C22.5787739,31.9276479 32.42625,26.2711065 35.7285137,23 C45.6185137,13.22 61.8385137,11.16 70.1585137,0 C71.0726739,1.59720771 71.2681054,3.50671488 70.6964465,5.25599112 C70.1247876,7.00526736 68.8394529,8.43086397 67.1585137,9.18 C75.1585137,9.13 84.3685137,8.43 88.8685137,1.87 C91.1417341,7.1611302 90.1646532,13.288323 86.3585137,17.61 C93.5633815,21.93 98.7785137,28.0234375 100.970608,31.4785156 C103.73324,35.8328485 64.4069377,51.4882812 28.5285137,34.71 Z"/>
    </g>
    <g transform="translate(135.38 27)">
      <path fill="#000" d="M51.35,104.990218 C62.6586913,109.216859 75.1074023,109.252336 86.44,105.090218 L86.44,100.780218 L51.35,100.780218 L51.35,104.990218 Z" opacity=".1"/>
      <path fill="#33CCAB" d="M130.067364,23.391743 C126.056094,-0.0502175418 112.41,0.78 112.41,0.78 L24.7,0.78 C1,-0.0502175418 0.624782249,54.0035925 0.624782249,54.0035925 C5.61947528,55.1697825 103.140078,55.1697825 130.067364,23.391743 Z" transform="translate(0 118.83)"/>
      <path fill="#E0B59A" d="M54.63,90.4402175 L83.02,90.4402175 C84.8701539,90.4402175 86.37,91.9400636 86.37,93.7902175 L86.37,118.510218 C86.37,128.197292 78.5170745,136.050218 68.83,136.050218 L68.83,136.050218 C59.1429255,136.050218 51.29,128.197292 51.29,118.510218 L51.29,93.7902175 C51.29,91.9439618 52.7837525,90.4457288 54.63,90.4402175 Z"/>
      <path fill="#000" d="M51.28,91.7402175 L86.37,91.7402175 L86.37,119.810218 C86.37,129.497292 78.5170745,137.350218 68.83,137.350218 L68.83,137.350218 C59.1429255,137.350218 51.29,129.497292 51.29,119.810218 L51.29,91.7402175 L51.28,91.7402175 Z" opacity=".05"/>
      <circle cx="69.379" cy="51.76" r="51.76" fill="#3A331F"/>
      <path fill="#E0B59A" d="M118.948756,63.7520969 C115.777464,88.474407 94.6549465,107.58 69.0700781,107.58 C43.5135378,107.58 22.4094718,88.5166917 19.202,63.8341952 C16.9094441,63.2673788 15.1400781,59.5908976 15.1400781,55.14 C15.1400781,50.2964627 17.2353855,46.37 19.8200781,46.37 C19.8695713,46.37 19.918885,46.3714397 19.9680081,46.374298 C24.9533795,23.8482042 45.0441743,7 69.0700781,7 C93.0953239,7 113.185676,23.8472813 118.171739,46.3724472 C120.704848,46.48359 122.740078,50.366405 122.740078,55.14 C122.740078,59.414125 121.108466,62.9741258 118.948757,63.7520908 Z"/>
      <path fill="#3A331F" d="M37.8637602,14.4097796 C48.0444154,20.7489322 72.0418089,31.5854358 100.923954,16.6718268 C101.817242,16.2105681 92.4263317,11.7969758 72.7512239,3.43105001 C47.2351846,9.34439017 35.6060301,13.0039667 37.8637602,14.4097796 Z"/>
    </g>
  </g>
</svg>
