<svg xmlns="http://www.w3.org/2000/svg" width="164" height="173" viewBox="0 0 164 173">
  <g fill="none" fill-rule="evenodd">
    <path fill="#F5DD48" fill-rule="nonzero" d="M132.922912,53.6023614 C148.899794,76.6779708 164.91839,96.7855217 163.958943,117.770949 C162.999496,138.79818 145.062005,160.745091 123.32844,168.980408 C101.594875,177.257529 76.0652371,171.864859 53.2053648,160.870502 C30.3037774,149.876145 10.0302411,133.2801 2.93867484,111.082367 C-4.15289138,88.9264373 1.89579745,61.1688203 17.7892488,38.0932109 C33.6409851,15.0176015 59.2957687,-3.3341965 80.1116014,0.511738397 C100.927434,4.35767329 116.904316,30.4849484 132.922912,53.6023614 Z"/>
    <path fill="#33CCAB" fill-rule="nonzero" d="M148.688633,151.392953 C141.718669,159.079041 132.890998,165.356948 123.32844,168.980408 C101.594875,177.257529 76.0652371,171.864859 53.2053648,160.870502 C47.825238,158.287666 42.590151,155.395678 37.6369383,152.194537 C43.3635518,146.059589 49.7,145.54 49.7,145.54 L137.41,145.54 C137.41,145.54 143.183095,146.015645 148.688633,151.392953 Z"/>
    <circle cx="94.26" cy="77.26" r="52.26" fill="#442208" fill-rule="nonzero"/>
    <path fill="#442208" fill-rule="nonzero" d="M92.1146861,104.742369 C93.5432987,100.319231 95.7332265,88.3083489 99.0354901,85.0372424 C108.92549,75.2572424 147.954686,78.462369 152.454686,71.902369 C154.727907,77.1934992 153.750826,83.320692 149.944686,87.642369 C157.004686,87.962369 164.544686,92.752369 165.004686,99.812369 C165.304686,104.512369 162.364686,108.962369 158.494686,111.662369 C154.624686,114.362369 149.964686,115.572369 145.364686,116.572369 C131.944686,119.572369 83.3546861,131.982369 92.1146861,104.742369 Z" transform="rotate(92 128.046 96.95)"/>
    <path fill="#442208" fill-rule="nonzero" d="M27.4984241,105.380527 C28.9270366,100.957389 31.1169644,88.9465069 34.4192281,85.6754004 C44.3092281,75.8954004 77.2086026,77.0494847 86.8041337,71.5760357 C89.9923514,77.3567192 82.2983586,81.1943797 88.291697,87.1764377 C94.8699216,85.6624479 99.9284241,93.390527 100.388424,100.450527 C100.687827,105.150527 101.563369,116.965915 97.693369,119.665915 C93.823369,122.365915 85.3484241,116.210527 80.7484241,117.210527 C67.3284241,120.210527 18.7384241,132.620527 27.4984241,105.380527 Z" transform="scale(1 -1) rotate(-88 -36.988 0)"/>
    <path fill="#EBD8CB" fill-rule="nonzero" d="M79.59,116.38 L107.98,116.38 C109.830154,116.38 111.33,117.879846 111.33,119.73 L111.33,144.45 C111.33,154.137075 103.477075,161.99 93.79,161.99 L93.79,161.99 C84.1029255,161.99 76.25,154.137075 76.25,144.45 L76.25,119.73 C76.25,117.879846 77.7498461,116.38 79.6,116.38 L79.59,116.38 Z"/>
    <path fill="#000" fill-rule="nonzero" d="M76,118 L111.090026,118 L111.090026,146.07 C111.097965,150.727093 109.253523,155.196171 105.963272,158.492051 C102.67302,161.78793 98.2070997,163.64 93.55,163.64 L93.55,163.64 C83.8629255,163.64 76.01,155.787075 76.01,146.1 L76.01,118 L76,118 Z" opacity=".1"/>
    <path fill="#000" fill-rule="nonzero" d="M76.31,130.93 C87.6186913,135.156642 100.067402,135.192118 111.4,131.03 L111.4,126.72 L76.31,126.72 L76.31,130.93 Z" opacity=".1"/>
    <circle cx="94.29" cy="83.29" r="50.29" fill="#EBD8CB" fill-rule="nonzero"/>
    <path fill="#442208" d="M93.722059,104.336824 C95.788318,103.445608 97.9463647,103 100.196199,103 C106.356035,103 112.971656,107.092202 120.444118,106.274389 C112.013223,111.784467 103.10587,112.8847 93.722059,109.57509 C84.3382479,112.8847 75.4308949,111.784467 67,106.274389 C74.4724623,107.092202 81.0880835,103 87.2479191,103 C89.4977534,103 91.6558,103.445608 93.722059,104.336824 Z"/>
    <ellipse cx="43.64" cy="82.94" fill="#EBD8CB" fill-rule="nonzero" rx="4.68" ry="8.77"/>
    <ellipse cx="144.23" cy="82.94" fill="#EBD8CB" fill-rule="nonzero" rx="4.68" ry="8.77"/>
  </g>
</svg>
