<svg xmlns="http://www.w3.org/2000/svg" width="24" height="24" viewBox="0 0 24 24">
  <g fill="#07454C">
    <path d="M22.3924,5.3652375 C22.37,4.94746875 22.2556,4.55371875 22.0644,4.20525 L23.1796,0.911925 C23.2324,0.75560625 23.1808,0.5835375 23.0504,0.47998125 C22.92,0.3772125 22.7376,0.36421875 22.5944,0.4496625 L20.9036,1.4482125 L19.92,0.1575 C19.7692,-0.04095 19.4308,-0.04095 19.28,0.1575 L18.2964,1.44860625 L16.6056,0.45005625 C16.4624,0.3654 16.28,0.378 16.1496,0.480375 C16.0188,0.5835375 15.9672,0.756 16.0204,0.91231875 L17.1356,4.20564375 C16.9216,4.59466875 16.8,5.03960625 16.8,5.5125 L16.8,10.2375 L9.5796,10.2375 C9.5792,10.2347437 9.5796,10.2319875 9.5792,10.2292312 C9.3708,7.81160625 7.3088,5.90625 4.8,5.90625 C2.1532,5.90625 0,8.02580625 0,10.63125 C0,10.8486 0.1792,11.025 0.4,11.025 L2,11.025 L3.6,11.025 L5.6204,11.025 C5.6252,11.0946937 5.624,11.1655688 5.6312,11.234475 C5.8768,14.5620562 8.1276,17.3435063 11.2,18.4176563 L11.2,22.8375 L10,22.8375 L10,23.625 L13.2,23.625 L14.8,23.625 L18,23.625 L18,22.8375 L15.2,22.8375 L15.2,18.8055 C19.264,18.2294438 22.4,14.7884625 22.4,10.63125 L22.4,7.875 L23.6,7.875 C23.7536,7.875 23.894,7.788375 23.9604,7.65174375 C24.0272,7.51550625 24.0084,7.35328125 23.912,7.23515625 L22.3924,5.3652375 Z M18.194,2.30619375 C18.3696,2.40975 18.5968,2.3664375 18.72,2.205 L19.6,1.05013125 L20.48,2.205 C20.6032,2.3664375 20.83,2.40975 21.0056,2.30619375 L22.0784,1.67265 L21.4708,3.4673625 C20.9744,3.02715 20.3196,2.75625 19.6,2.75625 C18.8804,2.75625 18.2256,3.02715 17.7292,3.46775625 L17.1216,1.67304375 L18.194,2.30619375 Z M6.4152,11.025 L9.2,11.025 L16.7848,11.025 C16.58,13.6643062 14.3328,15.75 11.6,15.75 C8.8672,15.75 6.62,13.6643062 6.4152,11.025 Z M4.8,6.69375 C4.9344,6.69375 5.0672,6.7008375 5.198,6.71383125 C3.312,6.89968125 1.8084,8.380575 1.6204,10.2375 L0.82,10.2375 C1.0212,8.2506375 2.7296,6.69375 4.8,6.69375 Z M5.6,7.48125 C5.7356,7.48125 5.868,7.49266875 5.9992,7.5088125 C4.5548,7.687575 3.4092,8.81566875 3.2276,10.2375 L2.4248,10.2375 C2.6224,8.68573125 3.9712,7.48125 5.6,7.48125 Z M6.4,8.26875 C7.5872,8.26875 8.5756,9.1216125 8.7668,10.2375 L6,10.2375 L4.0332,10.2375 C4.2244,9.1216125 5.2128,8.26875 6.4,8.26875 Z M14.4,22.8375 L13.2,22.8375 L12,22.8375 L12,18.6531188 C12.6424,18.80865 13.3096,18.9 14,18.9 C14.1352,18.9 14.2664,18.8862188 14.4,18.8799188 L14.4,22.8375 Z M21.6,10.63125 C21.6,14.7565688 18.1908,18.1125 14,18.1125 C11.7164,18.1125 9.6652,17.1159187 8.2708,15.5413125 C9.224,16.1697375 10.3692,16.5375 11.6,16.5375 C14.9084,16.5375 17.6,13.8879562 17.6,10.63125 L17.6,5.5125 C17.6,4.42693125 18.4972,3.54375 19.6,3.54375 C20.7028,3.54375 21.6,4.42693125 21.6,5.5125 L21.6,10.63125 Z M22.4,7.0875 L22.4,6.63508125 L22.7676,7.0875 L22.4,7.0875 Z"/>
    <rect width="1" height="1" x="20" y="5.513"/>
  </g>
</svg>
