<svg xmlns="http://www.w3.org/2000/svg" width="165" height="169" viewBox="0 0 165 169">
  <g fill="none">
    <path fill="#29A389" d="M141.732675,42.6023614 C149.667184,55.4318659 164.768706,96.4648437 164.768706,113.770949 C164.768706,143.201854 145.871768,156.745091 124.138203,164.980408 C102.404638,173.257529 76.8749997,167.864859 54.0151274,156.870502 C31.11354,145.876145 10.8400037,129.2801 3.74843744,107.082367 C-3.34312878,84.9264373 -0.190237399,55.4318659 12.5990114,34.0932109 C20.4455844,21.0013306 46.1667009,-5.43935123 80.921364,1.5117384 C105.962106,6.52 127.282079,19.2368371 141.732675,42.6023614 Z" transform="matrix(-1 0 0 1 164.81 0)"/>
    <path fill="#FFBCA3" d="M137.808412,139.776521 C129.823851,146.490428 120.547553,152.188422 110.794635,156.870502 C87.9347629,167.864859 62.4051245,173.257529 40.6715598,164.980408 C35.7685428,163.122549 31.0098925,160.99455 26.5800048,158.474939 C31.8200592,139.678155 45.7,138.54 45.7,138.54 L133.41,138.54 C133.41,138.54 135.233615,138.690248 137.808412,139.776521 Z"/>
    <circle cx="89.95" cy="65.07" r="54.76" fill="#C7BF9B"/>
    <path fill="#FED2BD" d="M75.59,109.38 L103.98,109.38 C105.830154,109.38 107.33,110.879846 107.33,112.73 L107.33,137.45 C107.33,147.137075 99.4770745,154.99 89.79,154.99 L89.79,154.99 C80.1029255,154.99 72.25,147.137075 72.25,137.45 L72.25,112.73 C72.25,110.879846 73.7498461,109.38 75.6,109.38 L75.59,109.38 Z"/>
    <path fill="#000" d="M72.27,110.68 L107.360026,110.68 L107.360026,138.75 C107.367965,143.407093 105.523523,147.876171 102.233272,151.172051 C98.9430198,154.46793 94.4770997,156.32 89.82,156.32 L89.82,156.32 C80.1329255,156.32 72.28,148.467075 72.28,138.78 L72.28,110.68 L72.27,110.68 Z" opacity=".1"/>
    <path fill="#000" d="M72.31,123.93 C83.6186913,128.156642 96.0674023,128.192118 107.4,124.03 L107.4,119.72 L72.31,119.72 L72.31,123.93 Z" opacity=".1"/>
    <circle cx="89.95" cy="75.99" r="50.29" fill="#FED2BD"/>
    <path fill="#C7BF9B" d="M44.13,29.62 C44.13,29.62 65.32,72.62 125.13,47.62 L111.21,25.79 L86.54,16.93 L44.13,29.62 Z" transform="matrix(-1 0 0 1 169.26 0)"/>
    <path fill="#C7BF9B" d="M140.24,76.43 L138.91,76.43 L112.97,99.54 C87.97,87.84 69.63,99.54 69.63,99.54 L42.43,77.4 L39.69,77.74 C40.4618779,105.204131 63.13251,126.965447 90.6052252,126.613023 C118.077941,126.260598 140.182889,103.924894 140.25,76.45 L140.24,76.43 Z M89.88,108.38 C80.1,108.38 72.17,106.38 72.17,103.95 C72.17,101.52 80.1,99.52 89.88,99.52 C99.66,99.52 107.59,101.52 107.59,103.95 C107.59,106.38 99.66,108.38 89.87,108.38 L89.88,108.38 Z"/>
    <ellipse cx="39.64" cy="75.94" fill="#FED2BD" rx="4.68" ry="8.77"/>
    <ellipse cx="140.23" cy="75.94" fill="#FED2BD" rx="4.68" ry="8.77"/>
  </g>
</svg>
