<svg xmlns="http://www.w3.org/2000/svg" xmlns:xlink="http://www.w3.org/1999/xlink" width="168" height="176" viewBox="0 0 168 176">
  <defs>
    <path id="samantha-a" d="M133.703074,53.6023614 C149.679955,76.6779708 166.490122,100.525228 167.135142,117.652995 C167.780162,134.780762 168.706919,150.52 124.108602,168.980408 C102.375037,177.257529 57.8001901,174.608615 34.9403178,163.614258 C6.14344278,154.185076 1.43250528,109.515625 0.606333404,99.7578125 C-0.219838471,90 2.67595898,61.1688203 18.5694103,38.0932109 C34.4211466,15.0176015 60.0759303,-3.3341965 80.8917629,0.511738397 C101.707595,4.35767329 117.684477,30.4849484 133.703074,53.6023614 Z"/>
  </defs>
  <g fill="none" fill-rule="evenodd">
    <use fill="#F5DD48" fill-rule="nonzero" transform="matrix(-1 0 0 1 167.78 0)" xlink:href="#samantha-a"/>
    <path fill="#72351C" fill-rule="nonzero" d="M144.57,72 C144.57,113.78 117.31,160.29 83.68,160.29 C50.05,160.29 22.82,113.78 22.82,72 C22.82,30.22 50.08,9 83.71,9 C117.34,9 144.57,30.23 144.57,72 Z"/>
    <path fill="#FFBCA3" fill-rule="nonzero" d="M82.14,175.59 C104.307739,175.626473 125.995803,169.136748 144.5,156.93 C140.32,134.09 124.41,132.78 124.41,132.78 L36.7,132.78 C36.7,132.78 21.7,134.01 17,155.03 C36.0700645,168.443899 58.8247959,175.625926 82.14,175.59 L82.14,175.59 Z"/>
    <path fill="#FDA57D" fill-rule="nonzero" d="M66.63,103.61 L95.02,103.61 C96.8701539,103.61 98.37,105.109846 98.37,106.96 L98.37,131.68 C98.37,141.367075 90.5170745,149.22 80.83,149.22 L80.83,149.22 C71.1429255,149.22 63.29,141.367075 63.29,131.68 L63.29,106.96 C63.2899918,105.113744 64.7837525,103.615511 66.63,103.61 Z"/>
    <path fill="#000" fill-rule="nonzero" d="M63.28,104.91 L98.37,104.91 L98.37,132.98 C98.37,142.667075 90.5170745,150.52 80.83,150.52 L80.83,150.52 C71.1429255,150.52 63.29,142.667075 63.29,132.98 L63.29,104.91 L63.28,104.91 Z" opacity=".1"/>
    <path fill="#000" fill-rule="nonzero" d="M63.35,118.16 C74.6586913,122.386642 87.1074023,122.422118 98.44,118.26 L98.44,113.95 L63.35,113.95 L63.35,118.16 Z" opacity=".1"/>
    <circle cx="80.95" cy="70.22" r="50.29" fill="#FDA57D" fill-rule="nonzero"/>
    <ellipse cx="31.7" cy="68.07" fill="#FDA57D" fill-rule="nonzero" rx="4.68" ry="8.77"/>
    <ellipse cx="129.94" cy="68.07" fill="#FDA57D" fill-rule="nonzero" rx="4.68" ry="8.77"/>
    <path fill="#000" fill-rule="nonzero" d="M36.39,42.94 C36.39,42.94 64.82,81.85 130.02,68.56 C130.02,68.56 137.3,59.7 119.58,32.5 C101.86,5.3 52.52,9.73 36.39,42.94 Z" opacity=".1"/>
    <path fill="#72351C" fill-rule="nonzero" d="M36.39,42.31 C36.39,42.31 64.82,81.22 130.02,67.93 C130.02,67.93 137.3,59.07 119.58,31.87 C101.86,4.67 52.52,9.1 36.39,42.31 Z"/>
  </g>
</svg>
