<svg xmlns="http://www.w3.org/2000/svg" width="24" height="24" viewBox="0 0 24 24">
  <g fill="none" fill-rule="evenodd">
    <path stroke="#6590ED" stroke-linecap="round" stroke-linejoin="round" stroke-opacity=".3" stroke-width="2" d="M4.50122411,20 C-1.30803872,15.2902389 5.4723123,2 14.212106,2 C22.9518997,2 19.3778673,8.46420117 21.1648835,13.7321006 C22.9518997,19 10.3104869,24.7097611 4.50122411,20 Z"/>
    <path fill="#6590ED" fill-rule="nonzero" d="M15.5 5C16.3284271 5 17 5.67157288 17 6.5 17 7.32842712 16.3284271 8 15.5 8 14.6715729 8 14 7.32842712 14 6.5 14 5.67157288 14.6715729 5 15.5 5zM10.5 6C11.3284271 6 12 6.67157288 12 7.5 12 8.32842712 11.3284271 9 10.5 9 9.67157288 9 9 8.32842712 9 7.5 9 6.67157288 9.67157288 6 10.5 6z"/>
    <path stroke="#6590ED" stroke-linecap="round" stroke-linejoin="round" stroke-width="2" d="M9,13 C9.66666667,11.6666667 12.3333333,11.6666667 17,13"/>
  </g>
</svg>
