<svg xmlns="http://www.w3.org/2000/svg" width="988" height="643" viewBox="0 0 988 643">
  <g fill="none" fill-rule="evenodd">
    <path fill="#FFBCA3" fill-rule="nonzero" d="M987.71,642.456874 C987.71,617.803346 656.086196,606.745479 602.712631,607.675299 C549.339066,608.605119 217.71,616.513341 217.71,642.456874 C217.71,642.826836 987.71,642.456874 987.71,642.456874 Z" opacity=".5"/>
    <ellipse cx="25.82" cy="579.421" fill="#F5DD48" fill-rule="nonzero" opacity=".1" rx="25.82" ry="3.55"/>
    <ellipse cx="124.73" cy="589.451" fill="#F5DD48" fill-rule="nonzero" opacity=".1" rx="25.82" ry="3.55"/>
    <ellipse cx="241.24" cy="575.871" fill="#F5DD48" fill-rule="nonzero" opacity=".1" rx="25.82" ry="3.55"/>
    <ellipse cx="85.14" cy="618.011" fill="#F5DD48" fill-rule="nonzero" opacity=".1" rx="18.36" ry="2.52"/>
    <ellipse cx="187.81" cy="615.491" fill="#F5DD48" fill-rule="nonzero" opacity=".1" rx="18.36" ry="2.52"/>
    <path fill="#33CCAB" fill-rule="nonzero" d="M125.29,588.651302 C125.29,588.651302 89.07,469.931302 130.95,422.381302 C162.29,386.801302 197.85,391.061302 213.78,395.461302 C222.122178,397.684169 229.068226,403.456701 232.78,411.251302 C238.35,423.251302 237.34,442.761302 198.03,465.521302 C132.21,503.631302 128.12,555.901302 128.12,555.901302 L125.29,588.651302 Z"/>
    <path stroke="#565987" d="M208.11 412.301302C208.11 412.301302 101.35 445.681302 125.29 588.651302M145.76 424.271302C145.76 424.271302 160.46 434.171302 155.76 449.061302M197.4 433.071302C197.4 433.071302 188.4 423.931302 177.48 428.971302M155.2 479.071302C155.2 479.071302 139.42 471.071302 135.34 481.071302M116.15 495.751302C116.15 495.751302 128 494.811302 128.22 500.481302"/>
    <path fill="#33CCAB" fill-rule="nonzero" d="M123.85,589.601302 C123.85,589.601302 166.27,503.311302 177.92,505.201302 C183.45,506.101302 186,511.541302 187.16,517.011302 C188.597546,524.100768 187.790117,531.462006 184.85,538.071302 C178.85,551.821302 162.63,578.071302 123.85,589.601302 Z"/>
    <path stroke="#565987" d="M177.57 521.581302C177.57 521.581302 133.05 586.141302 124.45 588.971302M181.67 531.651302L171.28 531.651302M169.22 555.271302L152.94 555.971302M159.31 536.381302L161.08 544.861302M141.99 562.201302L142.31 569.911302"/>
    <path fill="#33CCAB" fill-rule="nonzero" d="M125.08,589.601302 C125.08,589.601302 82.66,503.311302 71.01,505.201302 C65.48,506.101302 62.93,511.541302 61.77,517.011302 C60.343698,524.082372 61.1545631,531.4221 64.09,538.011302 C70.1,551.821302 86.27,578.071302 125.08,589.601302 Z"/>
    <path stroke="#565987" d="M71.33 521.581302C71.33 521.581302 115.85 586.141302 124.45 588.971302M67.24 531.651302L77.63 531.651302M79.68 555.271302L95.97 555.971302M89.6 536.381302L87.83 544.861302M106.92 562.201302L106.6 569.911302"/>
    <path fill="#33CCAB" fill-rule="nonzero" d="M197.91 609.751302C199.066662 608.811027 199.910553 607.541702 200.33 606.111302 200.712774 604.630773 200.008265 603.084187 198.64 602.401302 197.09 601.801302 195.43 602.881302 194.18 603.961302 192.93 605.041302 191.48 606.291302 189.84 606.061302 191.542663 604.493527 192.301286 602.149384 191.84 599.881302 191.7711 599.418275 191.577519 598.98272 191.28 598.621302 190.42 597.701302 188.86 598.101302 187.83 598.821302 184.55 601.121302 183.64 605.571302 183.62 609.581302 183.439866 608.111149 183.419749 606.625793 183.56 605.151302 183.56 603.671302 183.14 602.021302 181.89 601.231302 181.116449 600.806174 180.242076 600.598813 179.36 600.631302 177.88 600.631302 176.25 600.721302 175.24 601.801302 173.99 603.141302 174.31 605.381302 175.4 606.861302 176.6159 608.231794 178.056536 609.384979 179.66 610.271302 180.862348 611.003968 181.887008 611.994473 182.66 613.171302 182.749518 613.337333 182.823177 613.511437 182.88 613.691302L192.11 613.691302C194.214955 612.650311 196.166604 611.324536 197.91 609.751302L197.91 609.751302zM36.28 575.001302C37.4376072 574.061886 38.2817114 572.792242 38.7 571.361302 39.0800114 569.878304 38.3769181 568.330667 37.01 567.641302 35.46 567.051302 33.81 568.131302 32.55 569.211302 31.29 570.291302 29.86 571.531302 28.21 571.301302 29.9178502 569.736854 30.6774388 567.389726 30.21 565.121302 30.1350375 564.661209 29.9382189 564.229589 29.64 563.871302 28.78 562.951302 27.22 563.341302 26.19 564.071302 22.91 566.371302 22 570.821302 21.98 574.831302 21.7998483 573.357802 21.7797311 571.869131 21.92 570.391302 21.92 568.911302 21.51 567.271302 20.26 566.481302 19.482786 566.056289 18.6052422 565.848995 17.72 565.881302 16.25 565.821302 14.61 565.971302 13.6 567.051302 12.35 568.391302 12.68 570.631302 13.76 572.051302 14.9743468 573.430179 16.4191978 574.587413 18.03 575.471302 19.2352569 576.200197 20.2606783 577.191438 21.03 578.371302 21.1204469 578.538206 21.1973602 578.712097 21.26 578.891302L30.49 578.891302C32.5874437 577.863148 34.5352971 576.554486 36.28 575.001302L36.28 575.001302zM90.15 609.751302C91.3066616 608.811027 92.150553 607.541702 92.57 606.111302 92.9527742 604.630773 92.2482646 603.084187 90.88 602.401302 89.33 601.801302 87.67 602.881302 86.42 603.961302 85.17 605.041302 83.72 606.291302 82.08 606.061302 83.7826635 604.493527 84.5412858 602.149384 84.08 599.881302 84.0110996 599.418275 83.8175194 598.98272 83.52 598.621302 82.66 597.701302 81.1 598.101302 80.07 598.821302 76.79 601.121302 75.88 605.571302 75.86 609.581302 75.6798664 608.111149 75.6597487 606.625793 75.8 605.151302 75.8 603.671302 75.39 602.021302 74.14 601.231302 73.3624299 600.807218 72.4851448 600.599985 71.6 600.631302 70.13 600.631302 68.49 600.721302 67.48 601.801302 66.23 603.141302 66.55 605.381302 67.64 606.861302 68.8559002 608.231794 70.2965359 609.384979 71.9 610.271302 73.1023481 611.003968 74.1270081 611.994473 74.9 613.171302 74.9895179 613.337333 75.0631774 613.511437 75.12 613.691302L84.35 613.691302C86.4549548 612.650311 88.4066039 611.324536 90.15 609.751302L90.15 609.751302z"/>
    <path fill="#CF9595" fill-rule="nonzero" d="M576.54,187.911302 C576.54,187.911302 597.54,227.641302 599.17,233.311302 C600.040693,236.541684 602.907184,238.833257 606.25,238.971302 C606.25,238.971302 627.17,243.971302 632.17,244.641302 C637.17,245.311302 680.51,248.971302 680.51,248.971302 C680.51,248.971302 691.51,249.311302 692.84,245.311302 C694.06,241.651302 715.31,222.421302 727.61,239.201302 C729.910041,242.349484 730.571213,246.405662 729.39,250.121302 C727.13,257.321302 722.49,268.751302 717.51,261.641302 C710.51,251.641302 702.37,254.451302 702.37,259.781302 C702.37,265.111302 691.17,263.131302 687.51,263.881302 C685.51,264.291302 678.63,266.121302 672.68,267.721302 C665.773632,269.587933 658.698879,270.763709 651.56,271.231302 C639.75,272.001302 622.34,272.641302 616.17,270.311302 C608.72,267.481302 595.73,266.831302 590.17,266.681302 C588.328044,266.636765 586.549752,265.998404 585.1,264.861302 C577.382476,258.82037 570.854961,251.397652 565.85,242.971302 C557.18,227.971302 539.35,196.911302 540.55,187.911302 C541.75,178.911302 576.54,187.911302 576.54,187.911302 Z"/>
    <path fill="#000" fill-rule="nonzero" d="M576.54,187.911302 C576.54,187.911302 597.54,227.641302 599.17,233.311302 C600.040693,236.541684 602.907184,238.833257 606.25,238.971302 C606.25,238.971302 627.17,243.971302 632.17,244.641302 C637.17,245.311302 680.51,248.971302 680.51,248.971302 C680.51,248.971302 691.51,249.311302 692.84,245.311302 C694.06,241.651302 715.31,222.421302 727.61,239.201302 C729.910041,242.349484 730.571213,246.405662 729.39,250.121302 C727.13,257.321302 722.49,268.751302 717.51,261.641302 C710.51,251.641302 702.37,254.451302 702.37,259.781302 C702.37,265.111302 691.17,263.131302 687.51,263.881302 C685.51,264.291302 678.63,266.121302 672.68,267.721302 C665.773632,269.587933 658.698879,270.763709 651.56,271.231302 C639.75,272.001302 622.34,272.641302 616.17,270.311302 C608.72,267.481302 595.73,266.831302 590.17,266.681302 C588.328044,266.636765 586.549752,265.998404 585.1,264.861302 C577.382476,258.82037 570.854961,251.397652 565.85,242.971302 C557.18,227.971302 539.35,196.911302 540.55,187.911302 C541.75,178.911302 576.54,187.911302 576.54,187.911302 Z" opacity=".08"/>
    <path d="M817.45,488.071302 C807.94,498.411302 800.94,502.481302 801.27,491.571302 C802.27,458.571302 744.27,309.371302 744.27,309.371302 L761.42,308.071302 C798.85,372.561302 812.77,438.881302 817.45,488.071302 Z"/>
    <path fill="#65617D" fill-rule="nonzero" d="M899.71,560.191302 C899.633075,604.336437 864.818931,640.59846 820.71355,642.47312 C776.60817,644.347779 738.842579,611.170692 735.02,567.191302 C734.9,565.851302 734.81,564.511302 734.77,563.191302 L734.77,563.121302 C734.73,562.127968 734.71,561.127968 734.71,560.121302 C734.71,514.55781 771.646508,477.621302 817.21,477.621302 C862.773492,477.621302 899.71,514.55781 899.71,560.121302 L899.71,560.191302 Z"/>
    <circle cx="816.76" cy="560.021" r="45" fill="#DCE0ED" fill-rule="nonzero"/>
    <circle cx="816.76" cy="560.021" r="27" fill="#65617D" fill-rule="nonzero"/>
    <path fill="#07454C" fill-rule="nonzero" d="M600.1,403.351302 L401.44,407.351302 L401.44,378.071302 C403.22,354.501302 427.44,346.231302 449.44,343.641302 C466.639933,341.68874 484.053773,342.994863 500.77,347.491302 C542.92,358.651302 569.77,360.811302 583,361.021302 C588.986756,361.111213 594.084857,365.398633 595.2,371.281302 C595.83,374.631302 596.45,378.281302 597.03,381.881302 C597.47,384.701302 597.89,387.481302 598.27,390.071302 C599.37,397.531302 600.1,403.351302 600.1,403.351302 Z"/>
    <path fill="#F5DD48" fill-rule="nonzero" d="M758.59,565.352145 L345.9,565.352145 C339.386637,565.417443 333.46316,561.587847 330.85,555.621302 C327.74,548.191302 332.09,543.451302 336.73,540.671302 C346.225813,535.043405 353.423956,526.237015 357.05,515.811302 C361.45,502.811302 365.75,482.471302 367.44,450.691302 C369.18,417.821302 381.08,401.571302 393.94,393.691302 L393.94,393.691302 C410.55,383.531302 428.76,387.341302 428.76,387.341302 L596.09,388.681302 C599.068511,390.032204 601.823529,391.829542 604.26,394.011302 C619.17,407.891302 597.43,426.011302 597.43,426.011302 C550.76,475.341302 586.09,525.341302 586.09,525.341302 L671.71,525.341302 C687.707186,525.4239 703.350532,520.634978 716.56,511.611302 C728.13,503.611302 732.56,495.881302 734.34,491.201302 C735.66,487.621302 737,484.051302 738.6,480.591302 C761.06,431.881302 733.97,352.641302 722.28,323.011302 C719.38,315.641302 717.43,311.341302 717.43,311.341302 L744.28,309.341302 L761.28,308.051302 L761.45,308.051302 C798.87,372.591302 812.78,438.911302 817.45,488.051302 C817.89,492.681302 818.25,497.171302 818.54,501.481302 C819.610591,518.044843 813.771973,534.311874 802.412601,546.41401 C791.053229,558.516147 775.188091,565.372033 758.59,565.352145 L758.59,565.352145 Z"/>
    <path fill="#000" fill-rule="nonzero" d="M598.28,390.071302 L401.44,390.071302 L401.44,381.881302 L597.04,381.881302 C597.48,384.651302 597.9,387.431302 598.28,390.071302 Z" opacity=".1"/>
    <path fill="#000" fill-rule="nonzero" d="M604.27,394.07132 L395.53,394.07132 C394.987074,394.072969 394.449492,393.964091 393.95,393.751302 C410.56,383.591302 428.77,387.401302 428.77,387.401302 L596.1,388.741302 C599.078511,390.092204 601.833529,391.889542 604.27,394.07132 L604.27,394.07132 Z" opacity=".1"/>
    <rect width="291.7" height="8.19" x="318.4" y="383.831" fill="#DCE0ED" fill-rule="nonzero" rx="4.09"/>
    <path fill="#000" fill-rule="nonzero" d="M817.45,488.071302 C807.94,498.411302 800.94,502.481302 801.27,491.571302 C802.27,458.571302 744.27,309.371302 744.27,309.371302 L761.42,308.071302 C798.85,372.561302 812.77,438.881302 817.45,488.071302 Z" opacity=".1"/>
    <path fill="#000" fill-rule="nonzero" d="M898.76,550.981302 C888.91,553.341302 876.76,555.741302 861.76,557.981302 C856.18,558.801302 850.18,559.587968 843.76,560.341302 C828.43,562.161302 810.7,563.751302 790.22,564.971302 C784.42,565.317968 778.396667,565.634635 772.15,565.921302 C760.45,566.454635 747.926667,566.861302 734.58,567.141302 L734.33,563.141302 L734.33,563.071302 C752.98,555.541302 782.33,535.451302 787.05,483.121302 C810.937748,473.915656 837.744862,476.315135 859.618003,489.616793 C881.491145,502.918451 895.954158,525.61647 898.77,551.061302 L898.76,550.981302 Z" opacity=".1"/>
    <path fill="#F5DD48" fill-rule="nonzero" d="M718.77,565.351302 C718.77,565.351302 813.47,555.071302 780.85,410.781302 C780.85,410.781302 827.64,453.681302 856.75,477.521302 C885.86,501.361302 937.75,534.231302 937.75,534.231302 C937.75,534.231302 906.77,563.181302 718.77,565.351302 Z"/>
    <path fill="#FFF" fill-rule="nonzero" d="M718.77,565.351302 C718.77,565.351302 813.47,555.071302 780.85,410.781302 C780.85,410.781302 827.64,453.681302 856.75,477.521302 C885.86,501.361302 937.75,534.231302 937.75,534.231302 C937.75,534.231302 906.77,563.181302 718.77,565.351302 Z" opacity=".1"/>
    <circle cx="466.21" cy="560.121" r="82.5" fill="#65617D" fill-rule="nonzero"/>
    <circle cx="465.77" cy="560.021" r="45" fill="#DCE0ED" fill-rule="nonzero"/>
    <circle cx="465.77" cy="560.021" r="27" fill="#65617D" fill-rule="nonzero"/>
    <path fill="#000" fill-rule="nonzero" d="M558.27,535.241302 C558.27,481.971302 515.96,438.781302 463.77,438.781302 C411.58,438.781302 369.27,481.971302 369.27,535.241302 C369.27,537.494635 369.346667,539.724635 369.5,541.931302 L558.04,541.931302 C558.193333,539.724635 558.27,537.494635 558.27,535.241302 Z" opacity=".1"/>
    <path fill="#F5DD48" fill-rule="nonzero" d="M554.77,533.581302 C554.77,482.281302 514.03,440.691302 463.77,440.691302 C413.51,440.691302 372.77,482.281302 372.77,533.581302 C372.77,535.751302 372.85,537.891302 372.99,540.021302 L554.55,540.021302 C554.69,537.891302 554.77,535.751302 554.77,533.581302 Z"/>
    <path fill="#FFF" fill-rule="nonzero" d="M554.77,533.581302 C554.77,535.071302 554.77,536.581302 554.66,538.021302 C554.66,538.691302 554.59,539.351302 554.55,540.021302 L372.99,540.021302 C372.99,539.351302 372.91,538.691302 372.88,538.021302 C372.81,536.551302 372.77,535.021302 372.77,533.581302 C372.77,482.281302 413.51,440.691302 463.77,440.691302 C514.03,440.691302 554.77,482.281302 554.77,533.581302 Z" opacity=".1"/>
    <path fill="#000" fill-rule="nonzero" d="M554.66,538.071302 C554.66,538.741302 554.59,539.401302 554.55,540.071302 L372.99,540.071302 C372.99,539.401302 372.91,538.741302 372.88,538.071302 L554.66,538.071302 Z" opacity=".1"/>
    <rect width="244.48" height="21.33" x="332.96" y="542.021" fill="#000" fill-rule="nonzero" opacity=".1" rx="10.665"/>
    <rect width="244.48" height="21.33" x="332.96" y="540.021" fill="#DCE0ED" fill-rule="nonzero" rx="10.665"/>
    <ellipse cx="788.749" cy="373.424" fill="#000" fill-rule="nonzero" opacity=".1" rx="11.98" ry="30.16" transform="rotate(-24.33 788.749 373.424)"/>
    <ellipse cx="789.748" cy="372.42" fill="#DCE0ED" fill-rule="nonzero" rx="11.98" ry="30.16" transform="rotate(-24.33 789.748 372.42)"/>
    <path fill="#000" fill-rule="nonzero" d="M761.27,308.071302 L761.27,323.741329 L730.77,323.741329 C727.929601,323.744185 725.093644,323.516774 722.29,323.061302 C719.39,315.691302 717.44,311.391302 717.44,311.391302 L744.29,309.391302 L761.27,308.071302 Z" opacity=".1"/>
    <path fill="#F5DD48" fill-rule="nonzero" d="M761.27,321.701302 L730.77,321.701302 C703.98,321.701302 682.27,301.701302 682.27,276.931302 L682.27,272.781302 C682.27,248.061302 703.98,228.021302 730.77,228.021302 L761.27,230.791302 L761.27,321.701302 Z"/>
    <path fill="#F5DD48" fill-rule="nonzero" d="M711.02,254.521302 C711.02,254.521302 729.27,264.271302 718.77,280.771302 C718.77,280.771302 705.89,301.891302 685.64,299.891302 L678.27,254.521302 C678.27,254.521302 702.52,252.271302 711.02,254.521302 Z"/>
    <path fill="#000" fill-rule="nonzero" d="M704.01 253.641302C709.886192 253.864144 715.344161 256.740244 718.85 261.461302 722.1 265.961302 724.04 272.521302 718.79 280.771302 718.79 280.771302 705.91 301.891302 685.66 299.891302L678.29 254.521302C678.29 254.521302 693.46 253.071302 704.01 253.641302zM760.27 230.791302L766.15 230.791302C776.433542 230.791302 784.77 239.127759 784.77 249.411302L784.77 303.091302C784.77 308.029633 782.808256 312.765702 779.316328 316.25763 775.824401 319.749557 771.088331 321.711302 766.15 321.711302L760.27 321.711302 760.27 230.791302z" opacity=".1"/>
    <path fill="#DCE0ED" fill-rule="nonzero" d="M761.27,230.791302 L767.15,230.791302 C777.433542,230.791302 785.77,239.127759 785.77,249.411302 L785.77,303.091302 C785.77,308.029633 783.808256,312.765702 780.316328,316.25763 C776.824401,319.749557 772.088331,321.711302 767.15,321.711302 L761.27,321.711302 L761.27,230.791302 L761.27,230.791302 Z"/>
    <path fill="#CF9595" fill-rule="nonzero" d="M544.73,347.551302 C544.73,347.551302 549.44,349.271302 555.73,351.671302 C565.73,355.521302 579.83,361.141302 584.73,364.221302 C589.63,367.301302 607.9,372.361302 621.58,375.921302 C631.721758,378.548325 642.163868,379.835939 652.64,379.751302 C663.28,379.651302 676.17,379.551302 679.73,379.551302 C680.352814,379.546169 680.974971,379.592998 681.59,379.691302 C685.33,380.311302 685.18,382.821302 685.09,383.421302 L685.09,383.551302 C663.09,396.881302 636.42,456.551302 634.76,466.551302 C633.51,474.051302 622.52,494.841302 617.1,504.781302 C615.28,508.111302 614.1,510.221302 614.1,510.221302 L620.77,517.881302 L640.1,526.551302 L658.43,534.551302 C658.43,534.551302 677.77,535.551302 678.1,534.551302 C678.43,533.551302 678.43,523.221302 678.43,523.221302 C676.076303,521.701852 673.843041,520.003503 671.75,518.141302 C667.314873,514.279139 663.195122,510.069101 659.43,505.551302 C648.77,492.881302 670.1,468.551302 670.1,468.551302 L711.1,415.221302 C711.1,415.221302 714.43,409.221302 730.43,385.221302 C746.43,361.221302 730.43,348.221302 730.43,348.221302 L702.27,336.531302 C653.43,318.251302 594.52,303.601302 594.52,303.601302 L593.68,303.491302 L581.19,301.931302 L544.73,347.551302 Z"/>
    <path fill="#444053" fill-rule="nonzero" d="M670.56,526.551302 C670.56,526.551302 674.06,530.681302 671.44,531.051302 C668.82,531.421302 661.94,529.931302 661.94,529.931302 L618.31,506.931302 C618.31,506.931302 613.56,503.551302 612.44,510.181302 C611.32,516.811302 610.56,516.181302 610.56,516.181302 C610.56,516.181302 604.81,528.551302 610.56,531.111302 C616.31,533.671302 650.85,543.801302 650.85,543.801302 C650.85,543.801302 700.98,555.181302 705.73,542.051302 C710.48,528.921302 697.23,531.181302 697.23,531.181302 C697.23,531.181302 680.73,527.181302 675.1,519.181302 C675.06,519.181302 666.94,521.431302 670.56,526.551302 Z"/>
    <path fill="#000" fill-rule="nonzero" d="M730.39,348.221302 L702.23,336.531302 C653.39,318.251302 594.48,303.601302 594.48,303.601302 L593.64,303.491302 L581.15,301.931302 L544.73,347.551302 C544.73,347.551302 549.44,349.271302 555.73,351.671302 C565.73,355.521302 579.83,361.141302 584.73,364.221302 C589.63,367.301302 607.9,372.361302 621.58,375.921302 C631.721758,378.548325 642.163868,379.835939 652.64,379.751302 C663.28,379.651302 676.17,379.551302 679.73,379.551302 C680.352814,379.546169 680.974971,379.592998 681.59,379.691302 C685.33,380.311302 685.18,382.821302 685.09,383.421302 L685.09,383.551302 C663.09,396.881302 636.42,456.551302 634.76,466.551302 C633.51,474.051302 622.52,494.841302 617.1,504.781302 L616.37,506.121302 C614.92,505.881302 613.11,506.401302 612.47,510.181302 C611.34,516.801302 610.59,516.181302 610.59,516.181302 C610.59,516.181302 604.84,528.551302 610.59,531.111302 C616.34,533.671302 650.85,543.801302 650.85,543.801302 C650.85,543.801302 700.98,555.181302 705.73,542.051302 C710.48,528.921302 697.23,531.181302 697.23,531.181302 C697.23,531.181302 680.73,527.181302 675.1,519.181302 C674.601265,519.326819 674.113392,519.507265 673.64,519.721302 C673.05,519.241302 672.42,518.721302 671.75,518.141302 C667.314873,514.279139 663.195122,510.069101 659.43,505.551302 C648.77,492.881302 670.1,468.551302 670.1,468.551302 L711.1,415.221302 C711.1,415.221302 714.43,409.221302 730.43,385.221302 C746.43,361.221302 730.39,348.221302 730.39,348.221302 Z" opacity=".08"/>
    <path fill="#CF9595" fill-rule="nonzero" d="M511.15,124.531302 L512.67,126.451302 L513.52,127.521302 L518.82,134.191302 C518.82,134.191302 531.47,138.251302 542.56,140.881302 C554.11,143.611302 563.96,144.801302 556.13,138.271302 C551.27,134.221302 550.95,127.441302 552.72,120.171302 C554.210626,114.576864 556.344876,109.174124 559.08,104.071302 C559.473333,103.311302 559.863333,102.571302 560.25,101.851302 C562.733818,97.257198 565.485218,92.8128847 568.49,88.5413015 C561.380173,83.6177009 554.005775,79.0875705 546.4,74.9713015 C537.24,70.2313015 529.72,68.1613015 534.49,77.5413015 C537.55,83.5413015 536.55,90.2813015 533.69,96.7313015 C533.47,97.2413015 533.23,97.7313015 532.98,98.2613015 C530.412529,103.259527 527.242236,107.924292 523.54,112.151302 C519.746817,116.601836 515.603595,120.741713 511.15,124.531302 Z"/>
    <polygon fill="#444053" fill-rule="nonzero" points="574.49 276.861 581.27 283.051 587.82 308.251 576.89 308.251 564.82 292.551"/>
    <polygon fill="#000" fill-rule="nonzero" points="564.82 292.551 572.12 302.041 576.89 308.251 587.82 308.251 586.7 303.941 581.93 285.581 581.27 283.051 574.49 276.861 565.23 291.881" opacity=".1"/>
    <polygon fill="#000" fill-rule="nonzero" points="564.82 292.551 572.12 302.041 576.89 308.251 587.82 308.251 586.7 303.941 581.93 285.581 581.27 283.051 574.49 276.861 565.23 291.881" opacity=".1"/>
    <path fill="#CF9595" fill-rule="nonzero" d="M528.49,358.861302 C528.49,358.861302 533.2,360.581302 539.49,362.981302 C549.49,366.831302 563.59,372.451302 568.49,375.531302 C573.39,378.611302 591.66,383.671302 605.34,387.231302 C615.481311,389.861697 625.923428,391.152674 636.4,391.071302 C647.04,390.971302 659.93,390.871302 663.49,390.871302 C664.112814,390.866169 664.734971,390.912998 665.35,391.011302 C669.09,391.631302 668.94,394.141302 668.85,394.741302 L668.85,394.871302 C646.85,408.201302 620.18,467.871302 618.52,477.871302 C617.27,485.371302 606.28,506.161302 600.86,516.101302 C599.04,519.431302 597.86,521.541302 597.86,521.541302 L604.53,529.201302 L623.85,537.861302 L642.18,545.861302 C642.18,545.861302 661.52,546.861302 661.85,545.861302 C662.18,544.861302 662.18,534.531302 662.18,534.531302 C659.826303,533.011852 657.593041,531.313503 655.5,529.451302 C651.064873,525.589139 646.945122,521.379101 643.18,516.861302 C632.52,504.191302 653.85,479.861302 653.85,479.861302 L694.85,426.531302 C694.85,426.531302 698.18,420.531302 714.18,396.531302 C730.18,372.531302 714.18,359.531302 714.18,359.531302 L688.52,344.861302 C648.52,320.531302 592.18,306.531302 592.18,306.531302 L591.34,306.421302 L578.85,304.861302 L528.49,358.861302 Z"/>
    <path fill="#000" fill-rule="nonzero" d="M597.85,521.531302 L604.52,529.191302 L623.85,537.861302 L642.18,545.861302 C642.18,545.861302 661.52,546.861302 661.85,545.861302 C662.18,544.861302 662.18,534.531302 662.18,534.531302 C659.826303,533.011852 657.593041,531.313503 655.5,529.451302 C653.43,530.561302 651.08,532.641302 653.35,535.861302 C653.35,535.861302 656.85,539.981302 654.23,540.361302 C651.61,540.741302 644.73,539.241302 644.73,539.241302 L601.1,516.241302 L600.85,516.071302 C599.01,519.421302 597.85,521.531302 597.85,521.531302 Z" opacity=".1"/>
    <path fill="#444053" fill-rule="nonzero" d="M654.32,537.861302 C654.32,537.861302 657.82,541.981302 655.19,542.361302 C652.56,542.741302 645.69,541.231302 645.69,541.231302 L602.07,518.231302 C602.07,518.231302 597.32,514.861302 596.19,521.481302 C595.06,528.101302 594.32,527.481302 594.32,527.481302 C594.32,527.481302 588.57,539.861302 594.32,542.421302 C600.07,544.981302 634.57,555.071302 634.57,555.071302 C634.57,555.071302 684.69,566.441302 689.44,553.321302 C694.19,540.201302 680.94,542.441302 680.94,542.441302 C680.94,542.441302 664.44,538.441302 658.82,530.441302 C658.85,530.481302 650.69,532.731302 654.32,537.861302 Z"/>
    <path fill="#000" fill-rule="nonzero" d="M531.15,94.1913015 C536.93,98.1913015 545.75,104.521302 553.28,104.521302 C555.222425,104.520822 557.161782,104.367011 559.08,104.061302 C561.865017,98.6795623 565.008775,93.4911915 568.49,88.5313015 C568.49,88.5313015 524.49,57.8613015 534.49,77.5313015 C537.79,84.0713015 534.54,87.2813015 531.15,94.1913015 Z" opacity=".1"/>
    <path fill="#CF9595" fill-rule="nonzero" d="M517.279988,66.5213015 C517.27001,78.7206252 523.449025,90.0921217 533.69,96.7213015 C534.821373,97.4592524 535.99691,98.1271712 537.21,98.7213015 C551.607842,105.903639 569.023488,102.659915 579.870119,90.7757069 C590.716751,78.8914988 592.360376,61.2527641 583.896226,47.569125 C575.432075,33.885486 558.915581,27.479873 543.438603,31.878394 C527.961626,36.276915 517.282589,50.4114347 517.279988,66.5013015 L517.279988,66.5213015 Z"/>
    <path fill="#000" fill-rule="nonzero" d="M528.49,358.861302 C528.49,358.861302 533.2,360.581302 539.49,362.981302 C543.44,359.501302 547.49,356.141302 549.18,355.531302 C552.85,354.191302 564.85,347.191302 564.52,345.191302 C564.19,343.191302 569.52,335.531302 574.18,334.191302 C578.84,332.851302 576.18,325.861302 576.18,325.861302 C576.18,325.861302 585.18,322.531302 587.42,317.861302 C589.66,313.191302 596.52,307.191302 594.18,307.531302 C593.165431,307.366516 592.197416,306.988172 591.34,306.421302 L578.85,304.861302 L528.49,358.861302 Z" opacity=".1"/>
    <path fill="#444053" fill-rule="nonzero" d="M501.15,346.861302 C501.15,346.861302 516.49,359.531302 517.2,365.191302 C517.91,370.851302 528.15,370.531302 528.15,370.531302 C528.15,370.531302 543.49,355.861302 547.15,354.531302 C550.81,353.201302 562.82,346.191302 562.49,344.191302 C562.16,342.191302 567.49,334.531302 572.15,333.191302 C576.81,331.851302 574.15,324.861302 574.15,324.861302 C574.15,324.861302 583.15,321.531302 585.39,316.861302 C587.63,312.191302 594.49,306.191302 592.15,306.531302 C591.49,306.621302 589.38,305.531302 586.7,303.941302 C583.41,301.941302 579.24,299.231302 575.84,296.941302 C572.24,294.501302 569.49,292.561302 569.49,292.561302 C569.49,292.561302 567.92,292.281302 565.23,291.891302 C550.72,289.791302 503.46,284.431302 492.49,301.891302 C491.027702,304.198683 489.931388,306.718517 489.24,309.361302 C484.33,327.961302 501.15,346.861302 501.15,346.861302 Z"/>
    <path fill="#000" fill-rule="nonzero" d="M517.19 306.441302C517.19 306.441302 501.53 315.281302 495.69 315.281302 489.85 315.281302 517.19 306.441302 517.19 306.441302zM527.65 313.191302C527.65 313.191302 504.33 321.031302 504.33 327.191302 504.33 333.351302 502.15 310.691302 527.65 313.191302zM583.48 277.881302L583.15 278.331302C583.300472 278.215654 583.414929 278.059576 583.48 277.881302L583.48 277.881302zM511.15 124.531302L512.67 126.451302 513.52 127.521302 518.82 134.191302C518.82 134.191302 531.47 138.251302 542.56 140.881302 554.11 143.611302 563.96 144.801302 556.13 138.271302 551.27 134.221302 550.95 127.441302 552.72 120.171302L552.37 119.721302C552.37 119.721302 552.72 126.461302 548.73 126.591302 543.35 126.761302 543.28 124.951302 538.32 122.861302 531.93 120.161302 525.38 115.651302 523.54 112.141302 519.747223 116.595292 515.60399 120.738525 511.15 124.531302L511.15 124.531302z" opacity=".1"/>
    <path fill="#000" fill-rule="nonzero" d="M489.24,309.331302 C491.968155,310.497508 495.040469,310.569124 497.82,309.531302 C508.15,306.191302 524.49,298.151302 532.15,301.671302 C538.29,304.491302 563.02,304.411302 572.15,302.041302 C574.42,301.451302 575.72,300.721302 575.52,299.861302 C575.390938,298.870727 575.511243,297.863604 575.87,296.931302 C576.93,293.541302 579.81,288.831302 581.96,285.581302 L581.3,283.051302 L574.52,276.861302 L565.26,291.861302 C550.75,289.761302 503.49,284.401302 492.52,301.861302 C491.047206,304.166838 489.940733,306.686761 489.24,309.331302 Z" opacity=".1"/>
    <path fill="#B9EFE9" fill-rule="nonzero" d="M482.49,301.531302 C482.49,301.531302 486.49,310.861302 496.82,307.531302 C507.15,304.201302 523.49,296.151302 531.15,299.671302 C538.81,303.191302 575.49,302.191302 574.49,297.861302 C573.49,293.531302 583.49,279.861302 583.49,279.861302 C583.49,279.861302 578.03,278.861302 574.65,261.031302 C574.15,258.431302 573.7,255.471302 573.32,252.111302 C572.493971,245.230167 572.299827,238.287845 572.74,231.371302 C574.09,212.071302 580.85,204.191302 580.85,204.191302 C580.85,204.191302 590.18,193.531302 582.18,178.861302 C577.99,171.171302 561.08,149.861302 560.85,140.361302 C560.64,131.741302 552.4,121.721302 552.4,121.721302 C552.4,121.721302 552.75,128.461302 548.76,128.591302 C543.38,128.761302 543.31,126.951302 538.35,124.861302 C531.06,121.781302 523.57,116.351302 523.08,112.721302 C523.08,112.721302 492.52,111.191302 485.85,142.191302 C479.18,173.191302 481.52,190.191302 482.52,193.861302 C483.52,197.531302 492.18,244.861302 485.18,264.861302 C478.18,284.861302 482.49,301.531302 482.49,301.531302 Z"/>
    <path fill="#000" fill-rule="nonzero" d="M532.32,247.071302 C537.831539,256.369756 545.205859,264.428396 553.98,270.741302 C559.831153,270.789844 565.67446,271.180511 571.48,271.911302 C570.98,269.311302 570.48,266.351302 570.15,262.991302 C569.323971,256.110167 569.129827,249.167845 569.57,242.251302 C567.627752,241.277204 566.199334,239.513544 565.65,237.411302 C563.98,231.741302 549.11,204.741302 549.11,204.741302 C549.11,204.741302 514.32,195.741302 513.11,204.741302 C511.9,213.741302 523.65,232.071302 532.32,247.071302 Z" opacity=".1"/>
    <path fill="#CF9595" fill-rule="nonzero" d="M543.85,187.911302 C543.85,187.911302 564.85,227.641302 566.48,233.311302 C567.350693,236.541684 570.217184,238.833257 573.56,238.971302 C573.56,238.971302 594.48,243.971302 599.48,244.641302 C604.48,245.311302 647.85,248.971302 647.85,248.971302 C647.85,248.971302 658.85,249.311302 660.18,245.311302 C661.4,241.651302 682.65,222.421302 694.95,239.201302 C697.250041,242.349484 697.911213,246.405662 696.73,250.121302 C694.47,257.321302 689.83,268.751302 684.85,261.641302 C677.85,251.641302 669.71,254.451302 669.71,259.781302 C669.71,265.111302 658.51,263.131302 654.85,263.881302 C652.85,264.291302 645.97,266.121302 640.02,267.721302 C633.097356,269.591199 626.005693,270.767002 618.85,271.231302 C607.04,272.001302 589.63,272.641302 583.46,270.311302 C576.02,267.481302 563.03,266.831302 557.46,266.681302 C555.618044,266.636765 553.839752,265.998404 552.39,264.861302 C544.676068,258.819446 538.151995,251.396787 533.15,242.971302 C524.48,227.971302 506.65,196.911302 507.85,187.911302 C509.05,178.911302 543.85,187.911302 543.85,187.911302 Z"/>
    <path fill="#000" fill-rule="nonzero" d="M536.85,132.861302 C536.85,132.861302 548.1,151.531302 553.31,164.861302 C558.52,178.191302 564.85,201.531302 564.85,201.531302 L533.51,197.861302 L530.85,193.531302 C530.85,193.531302 508.47,207.531302 511.14,213.531302 C513.81,219.531302 505.14,204.531302 505.81,187.531302 C506.48,170.531302 503.4,140.191302 505.81,132.861302 C508.22,125.531302 529.48,127.191302 536.85,132.861302 Z" opacity=".1"/>
    <path fill="#B9EFE9" fill-rule="nonzero" d="M505.85,185.531302 C505.18,202.531302 513.85,217.531302 511.18,211.531302 C508.51,205.531302 530.89,191.531302 530.89,191.531302 L533.52,195.861302 L564.85,199.531302 C564.85,199.531302 558.52,176.191302 553.31,162.861302 C550.180285,155.319987 546.600508,147.97343 542.59,140.861302 C539.38,135.031302 536.85,130.861302 536.85,130.861302 C532.54,127.531302 523.39,125.581302 516.09,126.041302 C514.952453,126.105983 513.820168,126.242926 512.7,126.451302 C509.7,127.041302 507.28,128.181302 506.21,129.981302 C506.046521,130.259975 505.912467,130.554895 505.81,130.861302 C503.41,138.191302 506.49,168.531302 505.85,185.531302 Z"/>
    <path fill="#000" fill-rule="nonzero" d="M491.85 232.071302C491.85 232.071302 505.1 250.321302 509.1 250.821302 509.07 250.861302 492.07 247.071302 491.85 232.071302zM491.85 258.071302C491.85 258.071302 516.85 283.321302 524.85 283.571302 532.85 283.821302 491.85 258.071302 491.85 258.071302zM491.85 268.611302C491.85 268.611302 507.85 287.361302 508.85 287.361302 509.85 287.361302 491.57 280.861302 491.85 268.611302zM506.18 129.981302C508.751955 129.597911 511.236455 128.765231 513.52 127.521302 514.38 127.071302 515.23 126.571302 516.06 126.041302 519.338929 123.846876 522.393683 121.334743 525.18 118.541302 529.78 114.071302 534.37 109.191302 536.27 103.061302 536.697235 101.648465 537.011557 100.203921 537.21 98.7413015 538.35 91.0513015 537.39 82.5613015 542.89 77.3313015 543.923484 76.3558706 545.109021 75.5553795 546.4 74.9613015 554.2 71.2513015 565.51 73.6513015 571.33 66.9613015 575.03 62.7213015 574.94 56.8313015 577.78 52.2213015 579.02 50.2213015 581.3 48.4913015 583.32 46.6513015 575.27026 34.3971046 560.593125 28.2489291 546.212812 31.1072933 531.832498 33.9656575 520.622289 45.2594411 517.870811 59.660588 515.119334 74.0617349 521.376353 88.6928 533.69 96.6513015 533.47 97.1613015 533.23 97.6513015 532.98 98.1813015 526.11 112.181302 511.15 124.461302 511.15 124.461302L512.67 126.381302C509.64 127.071302 507.25 128.181302 506.18 129.981302z" opacity=".1"/>
    <path fill="#3F3D56" fill-rule="nonzero" d="M569.33,65.9813015 C562.56,73.7413015 548.33,69.2213015 540.88,76.3313015 C534.34,82.5613015 536.94,93.4313015 534.27,102.061302 C532.37,108.191302 527.78,113.061302 523.18,117.541302 C516.48,124.061302 507.91,130.681302 498.75,128.811302 C493.32,127.701302 488,123.641302 482.75,125.511302 C480.14,126.451302 478.27,128.711302 476.32,130.701302 C469.696224,137.451428 461.086505,141.905214 451.75,143.411302 C449.90379,143.827725 447.979391,143.737897 446.18,143.151302 C443.38,142.011302 441.87,138.951302 439.32,137.321302 C434.32,134.121302 427.9,137.401302 422.71,140.261302 C393.347591,156.159607 358.566003,158.66222 327.23,147.131302 L335.32,143.131302 C333.6,139.621302 328.95,138.851302 325.99,136.281302 C319.89,130.991302 323.48,120.411302 329.93,115.561302 C336.38,110.711302 344.73,109.021302 351.41,104.491302 C352.77,103.571302 354.15,102.351302 354.28,100.721302 C354.258069,99.5241482 353.878458,98.3609355 353.19,97.3813015 C349.63,91.1113015 345.69,84.3813015 346.49,77.2113015 C347.71,66.2113015 359.72,59.4513015 370.75,58.6813015 C381.78,57.9113015 392.7,61.2313015 403.75,61.4213015 C407.75,61.4913015 411.94,61.1013015 415.37,59.0313015 C420.16,56.1513015 422.57,50.6613015 425.48,45.8913015 C430.67403,37.4219908 438.116981,30.5606291 446.98,26.0713015 C456.98,21.0213015 468.3,19.2513015 478.7,15.0713015 C489.32,10.8113015 498.98,4.07130152 510.09,1.36130152 C526.22,-2.63869848 543.5,2.59130152 557.43,11.6313015 C564.14,15.9813015 585.57,29.9413015 585.430683,38.8713015 C585.32,44.1713015 578.43,47.0413015 575.82,51.2013015 C572.94,55.8513015 573.03,61.7413015 569.33,65.9813015 Z"/>
    <path fill="#000" fill-rule="nonzero" d="M29.5 57.75C30.1835618 58.7320774 30.5626743 59.8937617 30.59 61.09 30.5501817 61.5117011 30.4314538 61.9221604 30.24 62.3 27.3 57.12 24.24 51.63 23.75 45.85 25.05 49.98 27.34 53.95 29.5 57.75zM2.3 96.65C5.25 99.22 9.9 99.99 11.63 103.5L8.77 104.92C6.84292997 104.013734 5.01060816 102.91836 3.3 101.65 1.10152449 99.6908557-.0530539439 96.8155113.18 93.88.689786467 94.9386052 1.41132707 95.8813729 2.3 96.65L2.3 96.65zM99.02 100.64C104.21 97.78 110.64 94.5 115.63 97.7 118.17 99.33 119.69 102.39 122.49 103.53 124.285927 104.116739 126.207155 104.20658 128.05 103.79 137.389402 102.283917 146.002311 97.8302932 152.63 91.08 154.57 89.08 156.44 86.83 159.06 85.89 164.28 84.02 169.6 88.08 175.06 89.19 184.22 91.06 192.78 84.44 199.49 77.92 204.09 73.45 208.67 68.57 210.57 62.44 213.25 53.81 210.65 42.94 217.19 36.71 224.66 29.6 238.86 34.12 245.64 26.36 249.33 22.12 249.25 16.23 252.09 11.62 254.49 7.73 260.71 4.97 261.59.28 262.277336 1.50423635 262.658176 2.876634 262.7 4.28 262.59 9.58 255.7 12.45 253.09 16.61 250.25 21.22 250.33 27.11 246.64 31.35 239.86 39.11 225.64 34.59 218.19 41.7 211.65 47.93 214.25 58.8 211.57 67.43 209.67 73.56 205.09 78.43 200.49 82.91 193.78 89.43 185.22 96.05 176.06 94.18 170.62 93.07 165.3 89.01 160.06 90.88 157.44 91.82 155.57 94.08 153.63 96.07 147.002311 102.820293 138.389402 107.273917 129.05 108.78 127.207155 109.19658 125.285927 109.106739 123.49 108.52 120.69 107.38 119.17 104.32 116.63 102.69 111.63 99.49 105.21 102.77 100.02 105.63 70.6575911 121.528306 35.8760031 124.030919 4.54 112.5L10.13 109.73C39.7899195 118.640542 71.7775349 115.369449 99.02 100.64L99.02 100.64z" opacity=".1" transform="translate(322.71 34.621)"/>
    <path fill="#000" fill-rule="nonzero" d="M668.85,394.731302 L677.26,390.661302 L677.26,389.071302 C677.26,388.461302 670.55,389.811302 665.35,390.961302 C669.09,391.621302 668.94,394.131302 668.85,394.731302 Z" opacity=".1"/>
    <ellipse cx="676.16" cy="278.121" fill="#F5DD48" fill-rule="nonzero" rx="20.26" ry="24.65"/>
    <polygon fill="#DDA2A6" fill-rule="nonzero" points="481.16 246.041 448.59 278.161 341.52 276.291 370.96 246.041"/>
    <polygon fill="#B77B7F" fill-rule="nonzero" points="481.16 355.921 481.16 246.041 448.59 278.161 448.59 385.681"/>
    <polygon fill="#DDA2A6" fill-rule="nonzero" points="341.52 276.291 341.52 385.681 448.59 385.681 448.59 278.161"/>
    <polygon fill="#FFF" fill-rule="nonzero" points="341.52 276.291 341.52 385.681 448.59 385.681 448.59 278.161" opacity=".3"/>
    <polygon fill="#DCE0ED" fill-rule="nonzero" points="439.89 308.271 360.26 294.601 349.88 346.881 431.86 361.941"/>
    <polygon fill="#65617D" fill-rule="nonzero" points="424.16 320.481 370.63 312.071 369.29 319.051 422.82 328.131"/>
    <polygon fill="#65617D" fill-rule="nonzero" points="409.44 335.411 378.99 330.991 377.65 338.741 409.44 343.201"/>
    <polygon fill="#65617D" fill-rule="nonzero" points="467.99 303.711 466.54 260.451 458.17 268.711 459.63 312.071"/>
    <polygon fill="#65617D" fill-rule="nonzero" points="360.19 257.111 463.08 258.501 466.54 260.451 458.17 268.711 455.28 267.011 353.37 264.121"/>
  </g>
</svg>
