<svg xmlns="http://www.w3.org/2000/svg" width="988" height="643" viewBox="0 0 988 643">
  <g fill="none" fill-rule="evenodd">
    <path fill="#FFBCA3" fill-rule="nonzero" d="M988,642.755707 C988,606.12761 656.376196,589.698778 603.002631,591.080225 C549.629066,592.461672 218,604.211031 218,642.755707 C218,643.305366 988,642.755707 988,642.755707 Z" opacity=".5"/>
    <ellipse cx="26.11" cy="579.8" fill="#F5DD48" fill-rule="nonzero" opacity=".1" rx="25.82" ry="3.55"/>
    <ellipse cx="125.02" cy="589.83" fill="#F5DD48" fill-rule="nonzero" opacity=".1" rx="25.82" ry="3.55"/>
    <ellipse cx="241.53" cy="576.25" fill="#F5DD48" fill-rule="nonzero" opacity=".1" rx="25.82" ry="3.55"/>
    <ellipse cx="85.43" cy="618.39" fill="#F5DD48" fill-rule="nonzero" opacity=".1" rx="18.36" ry="2.52"/>
    <ellipse cx="188.1" cy="615.87" fill="#F5DD48" fill-rule="nonzero" opacity=".1" rx="18.36" ry="2.52"/>
    <path fill="#F5DD48" fill-rule="nonzero" d="M125.58,589.03 C125.58,589.03 89.36,470.31 131.24,422.76 C162.58,387.18 198.14,391.44 214.07,395.84 C222.412178,398.062868 229.358226,403.835399 233.07,411.63 C238.64,423.63 237.63,443.14 198.32,465.9 C132.5,504.01 128.41,556.28 128.41,556.28 L125.58,589.03 Z"/>
    <path stroke="#565987" d="M208.4 412.68C208.4 412.68 101.64 446.06 125.58 589.03M146.05 424.65C146.05 424.65 160.75 434.55 156.05 449.44M197.69 433.45C197.69 433.45 188.69 424.31 177.77 429.35M155.49 479.45C155.49 479.45 139.71 471.45 135.63 481.45M116.44 496.13C116.44 496.13 128.29 495.19 128.51 500.86"/>
    <path fill="#F5DD48" fill-rule="nonzero" d="M124.14,589.98 C124.14,589.98 166.56,503.69 178.21,505.58 C183.74,506.48 186.29,511.92 187.45,517.39 C188.887546,524.479466 188.080117,531.840705 185.14,538.45 C179.14,552.2 162.92,578.45 124.14,589.98 Z"/>
    <path stroke="#565987" d="M177.86 521.96C177.86 521.96 133.34 586.52 124.74 589.35M181.96 532.03L171.57 532.03M169.51 555.65L153.23 556.35M159.6 536.76L161.37 545.24M142.28 562.58L142.6 570.29"/>
    <path fill="#F5DD48" fill-rule="nonzero" d="M125.37,589.98 C125.37,589.98 82.95,503.69 71.3,505.58 C65.77,506.48 63.22,511.92 62.06,517.39 C60.633698,524.46107 61.4445631,531.800798 64.38,538.39 C70.39,552.2 86.56,578.45 125.37,589.98 Z"/>
    <path stroke="#565987" d="M71.62 521.96C71.62 521.96 116.14 586.52 124.74 589.35M67.53 532.03L77.92 532.03M79.97 555.65L96.26 556.35M89.89 536.76L88.12 545.24M107.21 562.58L106.89 570.29"/>
    <path fill="#F5DD48" fill-rule="nonzero" d="M198.2 610.13C199.356662 609.189725 200.200553 607.920401 200.62 606.49 201.002774 605.009472 200.298265 603.462885 198.93 602.78 197.38 602.18 195.72 603.26 194.47 604.34 193.22 605.42 191.77 606.67 190.13 606.44 191.832663 604.872225 192.591286 602.528082 192.13 600.26 192.0611 599.796974 191.867519 599.361418 191.57 599 190.71 598.08 189.15 598.48 188.12 599.2 184.84 601.5 183.93 605.95 183.91 609.96 183.729866 608.489847 183.709749 607.004492 183.85 605.53 183.85 604.05 183.43 602.4 182.18 601.61 181.406449 601.184873 180.532076 600.977511 179.65 601.01 178.17 601.01 176.54 601.1 175.53 602.18 174.28 603.52 174.6 605.76 175.69 607.24 176.9059 608.610493 178.346536 609.763678 179.95 610.65 181.152348 611.382667 182.177008 612.373172 182.95 613.55 183.039518 613.716032 183.113177 613.890136 183.17 614.07L192.4 614.07C194.504955 613.02901 196.456604 611.703234 198.2 610.13L198.2 610.13zM36.57 575.38C37.7276072 574.440585 38.5717114 573.17094 38.99 571.74 39.3700114 570.257003 38.6669181 568.709365 37.3 568.02 35.75 567.43 34.1 568.51 32.84 569.59 31.58 570.67 30.15 571.91 28.5 571.68 30.2078502 570.115553 30.9674388 567.768424 30.5 565.5 30.4250375 565.039907 30.2282189 564.608288 29.93 564.25 29.07 563.33 27.51 563.72 26.48 564.45 23.2 566.75 22.29 571.2 22.27 575.21 22.0898483 573.736501 22.0697311 572.247829 22.21 570.77 22.21 569.29 21.8 567.65 20.55 566.86 19.772786 566.434987 18.8952422 566.227693 18.01 566.26 16.54 566.2 14.9 566.35 13.89 567.43 12.64 568.77 12.97 571.01 14.05 572.43 15.2643468 573.808878 16.7091978 574.966112 18.32 575.85 19.5252569 576.578896 20.5506783 577.570137 21.32 578.75 21.4104469 578.916905 21.4873602 579.090796 21.55 579.27L30.78 579.27C32.8774437 578.241846 34.8252971 576.933185 36.57 575.38L36.57 575.38zM90.44 610.13C91.5966616 609.189725 92.440553 607.920401 92.86 606.49 93.2427742 605.009472 92.5382646 603.462885 91.17 602.78 89.62 602.18 87.96 603.26 86.71 604.34 85.46 605.42 84.01 606.67 82.37 606.44 84.0726635 604.872225 84.8312858 602.528082 84.37 600.26 84.3010996 599.796974 84.1075194 599.361418 83.81 599 82.95 598.08 81.39 598.48 80.36 599.2 77.08 601.5 76.17 605.95 76.15 609.96 75.9698664 608.489847 75.9497487 607.004492 76.09 605.53 76.09 604.05 75.68 602.4 74.43 601.61 73.6524299 601.185917 72.7751448 600.978684 71.89 601.01 70.42 601.01 68.78 601.1 67.77 602.18 66.52 603.52 66.84 605.76 67.93 607.24 69.1459002 608.610493 70.5865359 609.763678 72.19 610.65 73.3923481 611.382667 74.4170081 612.373172 75.19 613.55 75.2795179 613.716032 75.3531774 613.890136 75.41 614.07L84.64 614.07C86.7449548 613.02901 88.6966039 611.703234 90.44 610.13L90.44 610.13zM243.21 539.88C243.21 539.88 246.67 544.41 241.61 551.24 236.55 558.07 232.39 563.84 234.07 568.1 234.07 568.1 241.7 555.41 247.91 555.23 254.12 555.05 250.04 547.51 243.21 539.88z"/>
    <path fill="#000" fill-rule="nonzero" d="M243.21,539.88 C243.511299,540.318161 243.750251,540.796064 243.92,541.3 C249.98,548.42 253.2,555.06 247.38,555.23 C241.95,555.39 235.45,565.09 233.89,567.54 C233.94,567.73 234,567.91 234.07,568.1 C234.07,568.1 241.7,555.41 247.91,555.23 C254.12,555.05 250.04,547.51 243.21,539.88 Z" opacity=".1"/>
    <path fill="#FFD037" fill-rule="nonzero" d="M249.64,545.65 C249.64,547.24 249.46,548.53 249.24,548.53 C249.02,548.53 248.84,547.24 248.84,545.65 C248.84,544.06 249.07,544.81 249.29,544.81 C249.51,544.81 249.64,544.06 249.64,545.65 Z"/>
    <path fill="#FFD037" fill-rule="nonzero" d="M251.85,547.55 C250.45,548.31 249.23,548.77 249.13,548.55 C249.03,548.33 250.07,547.55 251.47,546.82 C252.87,546.09 252.31,546.61 252.42,546.82 C252.53,547.03 253.25,546.79 251.85,547.55 Z"/>
    <path fill="#F5DD48" fill-rule="nonzero" d="M224.93,539.88 C224.93,539.88 221.47,544.41 226.53,551.24 C231.59,558.07 235.76,563.84 234.07,568.1 C234.07,568.1 226.44,555.41 220.23,555.23 C214.02,555.05 218.14,547.51 224.93,539.88 Z"/>
    <path fill="#000" fill-rule="nonzero" d="M224.93,539.88 C224.630008,540.317451 224.394277,540.795648 224.23,541.3 C218.17,548.42 214.94,555.06 220.76,555.23 C226.19,555.39 232.7,565.09 234.26,567.54 C234.2,567.73 234.14,567.91 234.07,568.1 C234.07,568.1 226.44,555.41 220.23,555.23 C214.02,555.05 218.14,547.51 224.93,539.88 Z" opacity=".1"/>
    <path fill="#FFD037" fill-rule="nonzero" d="M218.5,545.65 C218.5,547.24 218.68,548.53 218.9,548.53 C219.12,548.53 219.3,547.24 219.3,545.65 C219.3,544.06 219.08,544.81 218.86,544.81 C218.64,544.81 218.5,544.06 218.5,545.65 Z"/>
    <path fill="#FFD037" fill-rule="nonzero" d="M216.29,547.55 C217.69,548.31 218.91,548.77 219.02,548.55 C219.13,548.33 218.07,547.55 216.68,546.82 C215.29,546.09 215.83,546.61 215.68,546.82 C215.53,547.03 214.9,546.79 216.29,547.55 Z"/>
    <path fill="#A8A8A8" fill-rule="nonzero" d="M219.6,567.5 C219.6,567.5 229.28,567.21 232.19,565.13 C235.1,563.05 247.07,560.57 247.8,563.9 C248.53,567.23 262.33,580.46 251.41,580.55 C240.49,580.64 226.04,578.85 223.13,577.08 C220.22,575.31 219.6,567.5 219.6,567.5 Z"/>
    <path fill="#000" fill-rule="nonzero" d="M251.61,579.39 C240.69,579.48 226.23,577.69 223.32,575.92 C221.1,574.57 220.22,569.73 219.93,567.49 L219.6,567.49 C219.6,567.49 220.22,575.3 223.13,577.07 C226.04,578.84 240.49,580.63 251.41,580.54 C254.57,580.54 255.65,579.39 255.59,577.73 C255.14,578.75 253.95,579.37 251.61,579.39 Z" opacity=".2"/>
    <path fill="#EFB7B9" fill-rule="nonzero" d="M576.83,188.29 C576.83,188.29 597.83,228.02 599.46,233.69 C600.330693,236.920382 603.197184,239.211956 606.54,239.35 C606.54,239.35 627.46,244.35 632.46,245.02 C637.46,245.69 680.8,249.35 680.8,249.35 C680.8,249.35 691.8,249.69 693.13,245.69 C694.35,242.03 715.6,222.8 727.9,239.58 C730.200041,242.728182 730.861213,246.784361 729.68,250.5 C727.42,257.7 722.78,269.13 717.8,262.02 C710.8,252.02 702.66,254.83 702.66,260.16 C702.66,265.49 691.46,263.51 687.8,264.26 C685.8,264.67 678.92,266.5 672.97,268.1 C666.063632,269.966632 658.988879,271.142407 651.85,271.61 C640.04,272.38 622.63,273.02 616.46,270.69 C609.01,267.86 596.02,267.21 590.46,267.06 C588.618044,267.015464 586.839752,266.377103 585.39,265.24 C577.672476,259.199068 571.144961,251.776351 566.14,243.35 C557.47,228.35 539.64,197.29 540.84,188.29 C542.04,179.29 576.83,188.29 576.83,188.29 Z"/>
    <path fill="#000" fill-rule="nonzero" d="M576.83,188.29 C576.83,188.29 597.83,228.02 599.46,233.69 C600.330693,236.920382 603.197184,239.211956 606.54,239.35 C606.54,239.35 627.46,244.35 632.46,245.02 C637.46,245.69 680.8,249.35 680.8,249.35 C680.8,249.35 691.8,249.69 693.13,245.69 C694.35,242.03 715.6,222.8 727.9,239.58 C730.200041,242.728182 730.861213,246.784361 729.68,250.5 C727.42,257.7 722.78,269.13 717.8,262.02 C710.8,252.02 702.66,254.83 702.66,260.16 C702.66,265.49 691.46,263.51 687.8,264.26 C685.8,264.67 678.92,266.5 672.97,268.1 C666.063632,269.966632 658.988879,271.142407 651.85,271.61 C640.04,272.38 622.63,273.02 616.46,270.69 C609.01,267.86 596.02,267.21 590.46,267.06 C588.618044,267.015464 586.839752,266.377103 585.39,265.24 C577.672476,259.199068 571.144961,251.776351 566.14,243.35 C557.47,228.35 539.64,197.29 540.84,188.29 C542.04,179.29 576.83,188.29 576.83,188.29 Z" opacity=".05"/>
    <path d="M817.74,488.45 C808.23,498.79 801.23,502.86 801.56,491.95 C802.56,458.95 744.56,309.75 744.56,309.75 L761.71,308.45 C799.14,372.94 813.06,439.26 817.74,488.45 Z"/>
    <path fill="#65617D" fill-rule="nonzero" d="M900,560.57 C899.923075,604.715136 865.108931,640.977159 821.00355,642.851818 C776.89817,644.726478 739.132579,611.549391 735.31,567.57 C735.19,566.23 735.1,564.89 735.06,563.57 L735.06,563.5 C735.02,562.506667 735,561.506667 735,560.5 C735,514.936508 771.936508,478 817.5,478 C863.063492,478 900,514.936508 900,560.5 L900,560.57 Z"/>
    <circle cx="817.05" cy="560.4" r="45" fill="#DCE0ED" fill-rule="nonzero"/>
    <circle cx="817.05" cy="560.4" r="27" fill="#65617D" fill-rule="nonzero"/>
    <path fill="#07454C" fill-rule="nonzero" d="M600.39,403.73 L401.73,407.73 L401.73,378.45 C403.51,354.88 427.73,346.61 449.73,344.02 C466.929933,342.067439 484.343773,343.373561 501.06,347.87 C543.21,359.03 570.06,361.19 583.29,361.4 C589.276756,361.489912 594.374857,365.777332 595.49,371.66 C596.12,375.01 596.74,378.66 597.32,382.26 C597.76,385.08 598.18,387.86 598.56,390.45 C599.66,397.91 600.39,403.73 600.39,403.73 Z"/>
    <path fill="#33CCAB" fill-rule="nonzero" d="M758.88,565.730843 L346.19,565.730843 C339.676637,565.796142 333.75316,561.966545 331.14,556 C328.03,548.57 332.38,543.83 337.02,541.05 C346.515813,535.422103 353.713956,526.615713 357.34,516.19 C361.74,503.19 366.04,482.85 367.73,451.07 C369.47,418.2 381.37,401.95 394.23,394.07 L394.23,394.07 C410.84,383.91 429.05,387.72 429.05,387.72 L596.38,389.06 C599.358511,390.410903 602.113529,392.208241 604.55,394.39 C619.46,408.27 597.72,426.39 597.72,426.39 C551.05,475.72 586.38,525.72 586.38,525.72 L672,525.72 C687.997186,525.802598 703.640532,521.013676 716.85,511.99 C728.42,503.99 732.85,496.26 734.63,491.58 C735.95,488 737.29,484.43 738.89,480.97 C761.35,432.26 734.26,353.02 722.57,323.39 C719.67,316.02 717.72,311.72 717.72,311.72 L744.57,309.72 L761.57,308.43 L761.74,308.43 C799.16,372.97 813.07,439.29 817.74,488.43 C818.18,493.06 818.54,497.55 818.83,501.86 C819.900591,518.423541 814.061973,534.690572 802.702601,546.792709 C791.343229,558.894846 775.478091,565.750731 758.88,565.730843 L758.88,565.730843 Z"/>
    <path fill="#000" fill-rule="nonzero" d="M598.57,390.45 L401.73,390.45 L401.73,382.26 L597.33,382.26 C597.77,385.03 598.19,387.81 598.57,390.45 Z" opacity=".1"/>
    <path fill="#000" fill-rule="nonzero" d="M604.56,394.450019 L395.82,394.450019 C395.277074,394.451667 394.739492,394.34279 394.24,394.13 C410.85,383.97 429.06,387.78 429.06,387.78 L596.39,389.12 C599.368511,390.470903 602.123529,392.268241 604.56,394.450019 L604.56,394.450019 Z" opacity=".1"/>
    <rect width="291.7" height="8.19" x="318.69" y="384.21" fill="#DCE0ED" fill-rule="nonzero" rx="4.09"/>
    <path fill="#000" fill-rule="nonzero" d="M817.74,488.45 C808.23,498.79 801.23,502.86 801.56,491.95 C802.56,458.95 744.56,309.75 744.56,309.75 L761.71,308.45 C799.14,372.94 813.06,439.26 817.74,488.45 Z" opacity=".1"/>
    <path fill="#000" fill-rule="nonzero" d="M899.05,551.36 C889.2,553.72 877.05,556.12 862.05,558.36 C856.47,559.18 850.47,559.966667 844.05,560.72 C828.72,562.54 810.99,564.13 790.51,565.35 C784.71,565.696667 778.686667,566.013333 772.44,566.3 C760.74,566.833333 748.216667,567.24 734.87,567.52 L734.62,563.52 L734.62,563.45 C753.27,555.92 782.62,535.83 787.34,483.5 C811.227748,474.294355 838.034862,476.693833 859.908003,489.995491 C881.781145,503.297149 896.244158,525.995168 899.06,551.44 L899.05,551.36 Z" opacity=".1"/>
    <path fill="#33CCAB" fill-rule="nonzero" d="M719.06,565.73 C719.06,565.73 813.76,555.45 781.14,411.16 C781.14,411.16 827.93,454.06 857.04,477.9 C886.15,501.74 938.04,534.61 938.04,534.61 C938.04,534.61 907.06,563.56 719.06,565.73 Z"/>
    <path fill="#FFF" fill-rule="nonzero" d="M719.06,565.73 C719.06,565.73 813.76,555.45 781.14,411.16 C781.14,411.16 827.93,454.06 857.04,477.9 C886.15,501.74 938.04,534.61 938.04,534.61 C938.04,534.61 907.06,563.56 719.06,565.73 Z" opacity=".1"/>
    <circle cx="466.5" cy="560.5" r="82.5" fill="#65617D" fill-rule="nonzero"/>
    <circle cx="466.06" cy="560.4" r="45" fill="#DCE0ED" fill-rule="nonzero"/>
    <circle cx="466.06" cy="560.4" r="27" fill="#65617D" fill-rule="nonzero"/>
    <path fill="#000" fill-rule="nonzero" d="M558.56,535.62 C558.56,482.35 516.25,439.16 464.06,439.16 C411.87,439.16 369.56,482.35 369.56,535.62 C369.56,537.873333 369.636667,540.103333 369.79,542.31 L558.33,542.31 C558.483333,540.103333 558.56,537.873333 558.56,535.62 Z" opacity=".1"/>
    <path fill="#33CCAB" fill-rule="nonzero" d="M555.06,533.96 C555.06,482.66 514.32,441.07 464.06,441.07 C413.8,441.07 373.06,482.66 373.06,533.96 C373.06,536.13 373.14,538.27 373.28,540.4 L554.84,540.4 C554.98,538.27 555.06,536.13 555.06,533.96 Z"/>
    <path fill="#FFF" fill-rule="nonzero" d="M555.06,533.96 C555.06,535.45 555.06,536.96 554.95,538.4 C554.95,539.07 554.88,539.73 554.84,540.4 L373.28,540.4 C373.28,539.73 373.2,539.07 373.17,538.4 C373.1,536.93 373.06,535.4 373.06,533.96 C373.06,482.66 413.8,441.07 464.06,441.07 C514.32,441.07 555.06,482.66 555.06,533.96 Z" opacity=".1"/>
    <path fill="#000" fill-rule="nonzero" d="M554.95,538.45 C554.95,539.12 554.88,539.78 554.84,540.45 L373.28,540.45 C373.28,539.78 373.2,539.12 373.17,538.45 L554.95,538.45 Z" opacity=".1"/>
    <rect width="244.48" height="21.33" x="333.25" y="542.4" fill="#000" fill-rule="nonzero" opacity=".1" rx="10.665"/>
    <rect width="244.48" height="21.33" x="333.25" y="540.4" fill="#DCE0ED" fill-rule="nonzero" rx="10.665"/>
    <ellipse cx="789.039" cy="373.802" fill="#000" fill-rule="nonzero" opacity=".1" rx="11.98" ry="30.16" transform="rotate(-24.33 789.039 373.802)"/>
    <ellipse cx="790.038" cy="372.799" fill="#DCE0ED" fill-rule="nonzero" rx="11.98" ry="30.16" transform="rotate(-24.33 790.038 372.8)"/>
    <path fill="#000" fill-rule="nonzero" d="M761.56,308.45 L761.56,324.120027 L731.06,324.120027 C728.219601,324.122884 725.383644,323.895472 722.58,323.44 C719.68,316.07 717.73,311.77 717.73,311.77 L744.58,309.77 L761.56,308.45 Z" opacity=".1"/>
    <path fill="#33CCAB" fill-rule="nonzero" d="M761.56,322.08 L731.06,322.08 C704.27,322.08 682.56,302.08 682.56,277.31 L682.56,273.16 C682.56,248.44 704.27,228.4 731.06,228.4 L761.56,231.17 L761.56,322.08 Z"/>
    <path fill="#33CCAB" fill-rule="nonzero" d="M711.31,254.9 C711.31,254.9 729.56,264.65 719.06,281.15 C719.06,281.15 706.18,302.27 685.93,300.27 L678.56,254.9 C678.56,254.9 702.81,252.65 711.31,254.9 Z"/>
    <path fill="#000" fill-rule="nonzero" d="M704.3 254.02C710.176192 254.242843 715.634161 257.118942 719.14 261.84 722.39 266.34 724.33 272.9 719.08 281.15 719.08 281.15 706.2 302.27 685.95 300.27L678.58 254.9C678.58 254.9 693.75 253.45 704.3 254.02zM760.56 231.17L766.44 231.17C776.723542 231.17 785.06 239.506458 785.06 249.79L785.06 303.47C785.06 308.408331 783.098256 313.144401 779.606328 316.636328 776.114401 320.128256 771.378331 322.09 766.44 322.09L760.56 322.09 760.56 231.17z" opacity=".1"/>
    <path fill="#DCE0ED" fill-rule="nonzero" d="M761.56,231.17 L767.44,231.17 C777.723542,231.17 786.06,239.506458 786.06,249.79 L786.06,303.47 C786.06,308.408331 784.098256,313.144401 780.606328,316.636328 C777.114401,320.128256 772.378331,322.09 767.44,322.09 L761.56,322.09 L761.56,231.17 L761.56,231.17 Z"/>
    <path fill="#EFB7B9" fill-rule="nonzero" d="M545.02,347.93 C545.02,347.93 549.73,349.65 556.02,352.05 C566.02,355.9 580.12,361.52 585.02,364.6 C589.92,367.68 608.19,372.74 621.87,376.3 C632.011758,378.927023 642.453868,380.214637 652.93,380.13 C663.57,380.03 676.46,379.93 680.02,379.93 C680.642814,379.924868 681.264971,379.971697 681.88,380.07 C685.62,380.69 685.47,383.2 685.38,383.8 L685.38,383.93 C663.38,397.26 636.71,456.93 635.05,466.93 C633.8,474.43 622.81,495.22 617.39,505.16 C615.57,508.49 614.39,510.6 614.39,510.6 L621.06,518.26 L640.39,526.93 L658.72,534.93 C658.72,534.93 678.06,535.93 678.39,534.93 C678.72,533.93 678.72,523.6 678.72,523.6 C676.366303,522.080551 674.133041,520.382202 672.04,518.52 C667.604873,514.657837 663.485122,510.4478 659.72,505.93 C649.06,493.26 670.39,468.93 670.39,468.93 L711.39,415.6 C711.39,415.6 714.72,409.6 730.72,385.6 C746.72,361.6 730.72,348.6 730.72,348.6 L702.56,336.91 C653.72,318.63 594.81,303.98 594.81,303.98 L593.97,303.87 L581.48,302.31 L545.02,347.93 Z"/>
    <path fill="#444053" fill-rule="nonzero" d="M670.85,526.93 C670.85,526.93 674.35,531.06 671.73,531.43 C669.11,531.8 662.23,530.31 662.23,530.31 L618.6,507.31 C618.6,507.31 613.85,503.93 612.73,510.56 C611.61,517.19 610.85,516.56 610.85,516.56 C610.85,516.56 605.1,528.93 610.85,531.49 C616.6,534.05 651.14,544.18 651.14,544.18 C651.14,544.18 701.27,555.56 706.02,542.43 C710.77,529.3 697.52,531.56 697.52,531.56 C697.52,531.56 681.02,527.56 675.39,519.56 C675.35,519.56 667.23,521.81 670.85,526.93 Z"/>
    <path fill="#000" fill-rule="nonzero" d="M730.68,348.6 L702.52,336.91 C653.68,318.63 594.77,303.98 594.77,303.98 L593.93,303.87 L581.44,302.31 L545.02,347.93 C545.02,347.93 549.73,349.65 556.02,352.05 C566.02,355.9 580.12,361.52 585.02,364.6 C589.92,367.68 608.19,372.74 621.87,376.3 C632.011758,378.927023 642.453868,380.214637 652.93,380.13 C663.57,380.03 676.46,379.93 680.02,379.93 C680.642814,379.924868 681.264971,379.971697 681.88,380.07 C685.62,380.69 685.47,383.2 685.38,383.8 L685.38,383.93 C663.38,397.26 636.71,456.93 635.05,466.93 C633.8,474.43 622.81,495.22 617.39,505.16 L616.66,506.5 C615.21,506.26 613.4,506.78 612.76,510.56 C611.63,517.18 610.88,516.56 610.88,516.56 C610.88,516.56 605.13,528.93 610.88,531.49 C616.63,534.05 651.14,544.18 651.14,544.18 C651.14,544.18 701.27,555.56 706.02,542.43 C710.77,529.3 697.52,531.56 697.52,531.56 C697.52,531.56 681.02,527.56 675.39,519.56 C674.891265,519.705517 674.403392,519.885963 673.93,520.1 C673.34,519.62 672.71,519.1 672.04,518.52 C667.604873,514.657837 663.485122,510.4478 659.72,505.93 C649.06,493.26 670.39,468.93 670.39,468.93 L711.39,415.6 C711.39,415.6 714.72,409.6 730.72,385.6 C746.72,361.6 730.68,348.6 730.68,348.6 Z" opacity=".05"/>
    <path fill="#EFB7B9" fill-rule="nonzero" d="M511.44,124.91 L512.96,126.83 L513.81,127.9 L519.11,134.57 C519.11,134.57 531.76,138.63 542.85,141.26 C554.4,143.99 564.25,145.18 556.42,138.65 C551.56,134.6 551.24,127.82 553.01,120.55 C554.500626,114.955563 556.634876,109.552822 559.37,104.45 C559.763333,103.69 560.153333,102.95 560.54,102.23 C563.023818,97.6358964 565.775218,93.1915832 568.78,88.92 C561.670173,83.9963994 554.295775,79.466269 546.69,75.35 C537.53,70.61 530.01,68.54 534.78,77.92 C537.84,83.92 536.84,90.66 533.98,97.11 C533.76,97.62 533.52,98.11 533.27,98.64 C530.702529,103.638225 527.532236,108.30299 523.83,112.53 C520.036817,116.980534 515.893595,121.120412 511.44,124.91 Z"/>
    <polygon fill="#444053" fill-rule="nonzero" points="574.78 277.24 581.56 283.43 588.11 308.63 577.18 308.63 565.11 292.93"/>
    <polygon fill="#000" fill-rule="nonzero" points="565.11 292.93 572.41 302.42 577.18 308.63 588.11 308.63 586.99 304.32 582.22 285.96 581.56 283.43 574.78 277.24 565.52 292.26" opacity=".1"/>
    <polygon fill="#000" fill-rule="nonzero" points="565.11 292.93 572.41 302.42 577.18 308.63 588.11 308.63 586.99 304.32 582.22 285.96 581.56 283.43 574.78 277.24 565.52 292.26" opacity=".1"/>
    <path fill="#EFB7B9" fill-rule="nonzero" d="M528.78,359.24 C528.78,359.24 533.49,360.96 539.78,363.36 C549.78,367.21 563.88,372.83 568.78,375.91 C573.68,378.99 591.95,384.05 605.63,387.61 C615.771311,390.240396 626.213428,391.531372 636.69,391.45 C647.33,391.35 660.22,391.25 663.78,391.25 C664.402814,391.244868 665.024971,391.291697 665.64,391.39 C669.38,392.01 669.23,394.52 669.14,395.12 L669.14,395.25 C647.14,408.58 620.47,468.25 618.81,478.25 C617.56,485.75 606.57,506.54 601.15,516.48 C599.33,519.81 598.15,521.92 598.15,521.92 L604.82,529.58 L624.14,538.24 L642.47,546.24 C642.47,546.24 661.81,547.24 662.14,546.24 C662.47,545.24 662.47,534.91 662.47,534.91 C660.116303,533.390551 657.883041,531.692202 655.79,529.83 C651.354873,525.967837 647.235122,521.7578 643.47,517.24 C632.81,504.57 654.14,480.24 654.14,480.24 L695.14,426.91 C695.14,426.91 698.47,420.91 714.47,396.91 C730.47,372.91 714.47,359.91 714.47,359.91 L688.81,345.24 C648.81,320.91 592.47,306.91 592.47,306.91 L591.63,306.8 L579.14,305.24 L528.78,359.24 Z"/>
    <path fill="#000" fill-rule="nonzero" d="M598.14,521.91 L604.81,529.57 L624.14,538.24 L642.47,546.24 C642.47,546.24 661.81,547.24 662.14,546.24 C662.47,545.24 662.47,534.91 662.47,534.91 C660.116303,533.390551 657.883041,531.692202 655.79,529.83 C653.72,530.94 651.37,533.02 653.64,536.24 C653.64,536.24 657.14,540.36 654.52,540.74 C651.9,541.12 645.02,539.62 645.02,539.62 L601.39,516.62 L601.14,516.45 C599.3,519.8 598.14,521.91 598.14,521.91 Z" opacity=".1"/>
    <path fill="#444053" fill-rule="nonzero" d="M654.61,538.24 C654.61,538.24 658.11,542.36 655.48,542.74 C652.85,543.12 645.98,541.61 645.98,541.61 L602.36,518.61 C602.36,518.61 597.61,515.24 596.48,521.86 C595.35,528.48 594.61,527.86 594.61,527.86 C594.61,527.86 588.86,540.24 594.61,542.8 C600.36,545.36 634.86,555.45 634.86,555.45 C634.86,555.45 684.98,566.82 689.73,553.7 C694.48,540.58 681.23,542.82 681.23,542.82 C681.23,542.82 664.73,538.82 659.11,530.82 C659.14,530.86 650.98,533.11 654.61,538.24 Z"/>
    <path fill="#000" fill-rule="nonzero" d="M531.44,94.57 C537.22,98.57 546.04,104.9 553.57,104.9 C555.512425,104.899521 557.451782,104.74571 559.37,104.44 C562.155017,99.0582607 565.298775,93.86989 568.78,88.91 C568.78,88.91 524.78,58.24 534.78,77.91 C538.08,84.45 534.83,87.66 531.44,94.57 Z" opacity=".1"/>
    <path fill="#EFB7B9" fill-rule="nonzero" d="M517.569988,66.9 C517.56001,79.0993237 523.739025,90.4708201 533.98,97.1 C535.111373,97.8379509 536.28691,98.5058696 537.5,99.1 C551.897842,106.282338 569.313488,103.038613 580.160119,91.1544054 C591.006751,79.2701973 592.650376,61.6314626 584.186226,47.9478235 C575.722075,34.2641844 559.205581,27.8585714 543.728603,32.2570925 C528.251626,36.6556135 517.572589,50.7901332 517.569988,66.88 L517.569988,66.9 Z"/>
    <path fill="#000" fill-rule="nonzero" d="M528.78,359.24 C528.78,359.24 533.49,360.96 539.78,363.36 C543.73,359.88 547.78,356.52 549.47,355.91 C553.14,354.57 565.14,347.57 564.81,345.57 C564.48,343.57 569.81,335.91 574.47,334.57 C579.13,333.23 576.47,326.24 576.47,326.24 C576.47,326.24 585.47,322.91 587.71,318.24 C589.95,313.57 596.81,307.57 594.47,307.91 C593.455431,307.745214 592.487416,307.366871 591.63,306.8 L579.14,305.24 L528.78,359.24 Z" opacity=".1"/>
    <path fill="#444053" fill-rule="nonzero" d="M501.44,347.24 C501.44,347.24 516.78,359.91 517.49,365.57 C518.2,371.23 528.44,370.91 528.44,370.91 C528.44,370.91 543.78,356.24 547.44,354.91 C551.1,353.58 563.11,346.57 562.78,344.57 C562.45,342.57 567.78,334.91 572.44,333.57 C577.1,332.23 574.44,325.24 574.44,325.24 C574.44,325.24 583.44,321.91 585.68,317.24 C587.92,312.57 594.78,306.57 592.44,306.91 C591.78,307 589.67,305.91 586.99,304.32 C583.7,302.32 579.53,299.61 576.13,297.32 C572.53,294.88 569.78,292.94 569.78,292.94 C569.78,292.94 568.21,292.66 565.52,292.27 C551.01,290.17 503.75,284.81 492.78,302.27 C491.317702,304.577381 490.221388,307.097216 489.53,309.74 C484.62,328.34 501.44,347.24 501.44,347.24 Z"/>
    <path fill="#000" fill-rule="nonzero" d="M517.48 306.82C517.48 306.82 501.82 315.66 495.98 315.66 490.14 315.66 517.48 306.82 517.48 306.82zM527.94 313.57C527.94 313.57 504.62 321.41 504.62 327.57 504.62 333.73 502.44 311.07 527.94 313.57zM583.77 278.26L583.44 278.71C583.590472 278.594352 583.704929 278.438275 583.77 278.26L583.77 278.26zM511.44 124.91L512.96 126.83 513.81 127.9 519.11 134.57C519.11 134.57 531.76 138.63 542.85 141.26 554.4 143.99 564.25 145.18 556.42 138.65 551.56 134.6 551.24 127.82 553.01 120.55L552.66 120.1C552.66 120.1 553.01 126.84 549.02 126.97 543.64 127.14 543.57 125.33 538.61 123.24 532.22 120.54 525.67 116.03 523.83 112.52 520.037223 116.97399 515.89399 121.117223 511.44 124.91L511.44 124.91z" opacity=".1"/>
    <path fill="#000" fill-rule="nonzero" d="M489.53,309.71 C492.258155,310.876207 495.330469,310.947823 498.11,309.91 C508.44,306.57 524.78,298.53 532.44,302.05 C538.58,304.87 563.31,304.79 572.44,302.42 C574.71,301.83 576.01,301.1 575.81,300.24 C575.680938,299.249426 575.801243,298.242302 576.16,297.31 C577.22,293.92 580.1,289.21 582.25,285.96 L581.59,283.43 L574.81,277.24 L565.55,292.24 C551.04,290.14 503.78,284.78 492.81,302.24 C491.337206,304.545536 490.230733,307.06546 489.53,309.71 Z" opacity=".1"/>
    <path fill="#F5DD48" fill-rule="nonzero" d="M482.78,301.91 C482.78,301.91 486.78,311.24 497.11,307.91 C507.44,304.58 523.78,296.53 531.44,300.05 C539.1,303.57 575.78,302.57 574.78,298.24 C573.78,293.91 583.78,280.24 583.78,280.24 C583.78,280.24 578.32,279.24 574.94,261.41 C574.44,258.81 573.99,255.85 573.61,252.49 C572.783971,245.608866 572.589827,238.666544 573.03,231.75 C574.38,212.45 581.14,204.57 581.14,204.57 C581.14,204.57 590.47,193.91 582.47,179.24 C578.28,171.55 561.37,150.24 561.14,140.74 C560.93,132.12 552.69,122.1 552.69,122.1 C552.69,122.1 553.04,128.84 549.05,128.97 C543.67,129.14 543.6,127.33 538.64,125.24 C531.35,122.16 523.86,116.73 523.37,113.1 C523.37,113.1 492.81,111.57 486.14,142.57 C479.47,173.57 481.81,190.57 482.81,194.24 C483.81,197.91 492.47,245.24 485.47,265.24 C478.47,285.24 482.78,301.91 482.78,301.91 Z"/>
    <path fill="#000" fill-rule="nonzero" d="M532.61,247.45 C538.121539,256.748455 545.495859,264.807095 554.27,271.12 C560.121153,271.168542 565.96446,271.559209 571.77,272.29 C571.27,269.69 570.77,266.73 570.44,263.37 C569.613971,256.488866 569.419827,249.546544 569.86,242.63 C567.917752,241.655902 566.489334,239.892243 565.94,237.79 C564.27,232.12 549.4,205.12 549.4,205.12 C549.4,205.12 514.61,196.12 513.4,205.12 C512.19,214.12 523.94,232.45 532.61,247.45 Z" opacity=".1"/>
    <path fill="#EFB7B9" fill-rule="nonzero" d="M544.14,188.29 C544.14,188.29 565.14,228.02 566.77,233.69 C567.640693,236.920382 570.507184,239.211956 573.85,239.35 C573.85,239.35 594.77,244.35 599.77,245.02 C604.77,245.69 648.14,249.35 648.14,249.35 C648.14,249.35 659.14,249.69 660.47,245.69 C661.69,242.03 682.94,222.8 695.24,239.58 C697.540041,242.728182 698.201213,246.784361 697.02,250.5 C694.76,257.7 690.12,269.13 685.14,262.02 C678.14,252.02 670,254.83 670,260.16 C670,265.49 658.8,263.51 655.14,264.26 C653.14,264.67 646.26,266.5 640.31,268.1 C633.387356,269.969898 626.295693,271.1457 619.14,271.61 C607.33,272.38 589.92,273.02 583.75,270.69 C576.31,267.86 563.32,267.21 557.75,267.06 C555.908044,267.015464 554.129752,266.377103 552.68,265.24 C544.966068,259.198145 538.441995,251.775486 533.44,243.35 C524.77,228.35 506.94,197.29 508.14,188.29 C509.34,179.29 544.14,188.29 544.14,188.29 Z"/>
    <path fill="#000" fill-rule="nonzero" d="M537.14,133.24 C537.14,133.24 548.39,151.91 553.6,165.24 C558.81,178.57 565.14,201.91 565.14,201.91 L533.8,198.24 L531.14,193.91 C531.14,193.91 508.76,207.91 511.43,213.91 C514.1,219.91 505.43,204.91 506.1,187.91 C506.77,170.91 503.69,140.57 506.1,133.24 C508.51,125.91 529.77,127.57 537.14,133.24 Z" opacity=".1"/>
    <path fill="#F5DD48" fill-rule="nonzero" d="M506.14,185.91 C505.47,202.91 514.14,217.91 511.47,211.91 C508.8,205.91 531.18,191.91 531.18,191.91 L533.81,196.24 L565.14,199.91 C565.14,199.91 558.81,176.57 553.6,163.24 C550.470285,155.698685 546.890508,148.352128 542.88,141.24 C539.67,135.41 537.14,131.24 537.14,131.24 C532.83,127.91 523.68,125.96 516.38,126.42 C515.242453,126.484681 514.110168,126.621624 512.99,126.83 C509.99,127.42 507.57,128.56 506.5,130.36 C506.336521,130.638674 506.202467,130.933593 506.1,131.24 C503.7,138.57 506.78,168.91 506.14,185.91 Z"/>
    <path fill="#000" fill-rule="nonzero" d="M492.14 232.45C492.14 232.45 505.39 250.7 509.39 251.2 509.36 251.24 492.36 247.45 492.14 232.45zM492.14 258.45C492.14 258.45 517.14 283.7 525.14 283.95 533.14 284.2 492.14 258.45 492.14 258.45zM492.14 268.99C492.14 268.99 508.14 287.74 509.14 287.74 510.14 287.74 491.86 281.24 492.14 268.99zM506.47 130.36C509.041955 129.976609 511.526455 129.143929 513.81 127.9 514.67 127.45 515.52 126.95 516.35 126.42 519.628929 124.225574 522.683683 121.713441 525.47 118.92 530.07 114.45 534.66 109.57 536.56 103.44 536.987235 102.027164 537.301557 100.58262 537.5 99.12 538.64 91.43 537.68 82.94 543.18 77.71 544.213484 76.734569 545.399021 75.934078 546.69 75.34 554.49 71.63 565.8 74.03 571.62 67.34 575.32 63.1 575.23 57.21 578.07 52.6 579.31 50.6 581.59 48.87 583.61 47.03 575.56026 34.7758031 560.883125 28.6276276 546.502812 31.4859918 532.122498 34.344356 520.912289 45.6381396 518.160811 60.0392865 515.409334 74.4404333 521.666353 89.0714985 533.98 97.03 533.76 97.54 533.52 98.03 533.27 98.56 526.4 112.56 511.44 124.84 511.44 124.84L512.96 126.76C509.93 127.45 507.54 128.56 506.47 130.36z" opacity=".1"/>
    <path fill="#E3815D" fill-rule="nonzero" d="M569.62,66.36 C562.85,74.12 548.62,69.6 541.17,76.71 C534.63,82.94 537.23,93.81 534.56,102.44 C532.66,108.57 528.07,113.44 523.47,117.92 C516.77,124.44 508.2,131.06 499.04,129.19 C493.61,128.08 488.29,124.02 483.04,125.89 C480.43,126.83 478.56,129.09 476.61,131.08 C469.986224,137.830127 461.376505,142.283913 452.04,143.79 C450.19379,144.206424 448.269391,144.116596 446.47,143.53 C443.67,142.39 442.16,139.33 439.61,137.7 C434.61,134.5 428.19,137.78 423,140.64 C393.637591,156.538306 358.856003,159.040919 327.52,147.51 L335.61,143.51 C333.89,140 329.24,139.23 326.28,136.66 C320.18,131.37 323.77,120.79 330.22,115.94 C336.67,111.09 345.02,109.4 351.7,104.87 C353.06,103.95 354.44,102.73 354.57,101.1 C354.548069,99.9028467 354.168458,98.739634 353.48,97.76 C349.92,91.49 345.98,84.76 346.78,77.59 C348,66.59 360.01,59.83 371.04,59.06 C382.07,58.29 392.99,61.61 404.04,61.8 C408.04,61.87 412.23,61.48 415.66,59.41 C420.45,56.53 422.86,51.04 425.77,46.27 C430.96403,37.8006893 438.406981,30.9393276 447.27,26.45 C457.27,21.4 468.59,19.63 478.99,15.45 C489.61,11.19 499.27,4.45 510.38,1.74 C526.51,-2.26 543.79,2.97 557.72,12.01 C564.43,16.36 585.86,30.32 585.720683,39.25 C585.61,44.55 578.72,47.42 576.11,51.58 C573.23,56.23 573.32,62.12 569.62,66.36 Z"/>
    <path fill="#000" fill-rule="nonzero" d="M29.5 57.75C30.1835618 58.7320774 30.5626743 59.8937617 30.59 61.09 30.5501817 61.5117011 30.4314538 61.9221604 30.24 62.3 27.3 57.12 24.24 51.63 23.75 45.85 25.05 49.98 27.34 53.95 29.5 57.75zM2.3 96.65C5.25 99.22 9.9 99.99 11.63 103.5L8.77 104.92C6.84292997 104.013734 5.01060816 102.91836 3.3 101.65 1.10152449 99.6908557-.0530539439 96.8155113.18 93.88.689786467 94.9386052 1.41132707 95.8813729 2.3 96.65L2.3 96.65zM99.02 100.64C104.21 97.78 110.64 94.5 115.63 97.7 118.17 99.33 119.69 102.39 122.49 103.53 124.285927 104.116739 126.207155 104.20658 128.05 103.79 137.389402 102.283917 146.002311 97.8302932 152.63 91.08 154.57 89.08 156.44 86.83 159.06 85.89 164.28 84.02 169.6 88.08 175.06 89.19 184.22 91.06 192.78 84.44 199.49 77.92 204.09 73.45 208.67 68.57 210.57 62.44 213.25 53.81 210.65 42.94 217.19 36.71 224.66 29.6 238.86 34.12 245.64 26.36 249.33 22.12 249.25 16.23 252.09 11.62 254.49 7.73 260.71 4.97 261.59.28 262.277336 1.50423635 262.658176 2.876634 262.7 4.28 262.59 9.58 255.7 12.45 253.09 16.61 250.25 21.22 250.33 27.11 246.64 31.35 239.86 39.11 225.64 34.59 218.19 41.7 211.65 47.93 214.25 58.8 211.57 67.43 209.67 73.56 205.09 78.43 200.49 82.91 193.78 89.43 185.22 96.05 176.06 94.18 170.62 93.07 165.3 89.01 160.06 90.88 157.44 91.82 155.57 94.08 153.63 96.07 147.002311 102.820293 138.389402 107.273917 129.05 108.78 127.207155 109.19658 125.285927 109.106739 123.49 108.52 120.69 107.38 119.17 104.32 116.63 102.69 111.63 99.49 105.21 102.77 100.02 105.63 70.6575911 121.528306 35.8760031 124.030919 4.54 112.5L10.13 109.73C39.7899195 118.640542 71.7775349 115.369449 99.02 100.64L99.02 100.64z" opacity=".1" transform="translate(323 35)"/>
    <path fill="#000" fill-rule="nonzero" d="M669.14,395.11 L677.55,391.04 L677.55,389.45 C677.55,388.84 670.84,390.19 665.64,391.34 C669.38,392 669.23,394.51 669.14,395.11 Z" opacity=".1"/>
    <ellipse cx="676.45" cy="278.5" fill="#33CCAB" fill-rule="nonzero" rx="20.26" ry="24.65"/>
    <polygon fill="#DDA2A6" fill-rule="nonzero" points="481.45 246.42 448.88 278.54 341.81 276.67 371.25 246.42"/>
    <polygon fill="#B77B7F" fill-rule="nonzero" points="481.45 356.3 481.45 246.42 448.88 278.54 448.88 386.06"/>
    <polygon fill="#DDA2A6" fill-rule="nonzero" points="341.81 276.67 341.81 386.06 448.88 386.06 448.88 278.54"/>
    <polygon fill="#FFF" fill-rule="nonzero" points="341.81 276.67 341.81 386.06 448.88 386.06 448.88 278.54" opacity=".3"/>
    <polygon fill="#DCE0ED" fill-rule="nonzero" points="440.18 308.65 360.55 294.98 350.17 347.26 432.15 362.32"/>
    <polygon fill="#F5DD48" fill-rule="nonzero" points="424.45 320.86 370.92 312.45 369.58 319.43 423.11 328.51"/>
    <polygon fill="#F5DD48" fill-rule="nonzero" points="409.73 335.79 379.28 331.37 377.94 339.12 409.73 343.58"/>
    <polygon fill="#65617D" fill-rule="nonzero" points="468.28 304.09 466.83 260.83 458.46 269.09 459.92 312.45"/>
    <polygon fill="#65617D" fill-rule="nonzero" points="360.48 257.49 463.37 258.88 466.83 260.83 458.46 269.09 455.57 267.39 353.66 264.5"/>
  </g>
</svg>
