<svg xmlns="http://www.w3.org/2000/svg" width="48" height="48" viewBox="0 0 48 48">
  <path fill="#07454C" d="M23.9563953,8.00207373 C23.7110108,8.0250461 23.5261344,8.23542277 23.5348837,8.48172489 L23.5348837,13.598004 C23.5325115,13.7657416 23.6206397,13.9217627 23.7655223,14.0063238 C23.9104048,14.0908849 24.0895952,14.0908849 24.2344777,14.0063238 C24.3793603,13.9217627 24.4674885,13.7657416 24.4651163,13.598004 L24.4651163,8.48172489 C24.4698826,8.34792686 24.4167678,8.21856267 24.319356,8.12671727 C24.2219442,8.03487188 24.089682,7.98945198 23.9563953,8.00207373 L23.9563953,8.00207373 Z M12.8081395,10.7927714 C12.6396462,10.8003682 12.4884656,10.8985768 12.4130365,11.049435 C12.3376074,11.2002932 12.3497488,11.3801628 12.4447674,11.5195156 L14.7703488,15.2404458 C14.8517117,15.3952114 15.0129909,15.4912781 15.187827,15.4891541 C15.362663,15.4869588 15.5215201,15.3869377 15.5990352,15.2302096 C15.6765504,15.0734814 15.6596286,14.886523 15.5552326,14.7462598 L13.2296512,11.0253295 C13.1433051,10.8754788 12.9809508,10.785904 12.8081395,10.7927714 L12.8081395,10.7927714 Z M35.1337209,10.7927714 C34.9817985,10.8060395 34.8460285,10.8929322 34.7703488,11.0253295 L32.4447674,14.7462598 C32.3403714,14.886523 32.3234496,15.0734814 32.4009648,15.2302096 C32.4784799,15.3869377 32.637337,15.4869588 32.812173,15.4891541 C32.9870091,15.4912781 33.1482883,15.3952114 33.2296512,15.2404458 L35.5552326,11.5195156 C35.6567673,11.3714997 35.664081,11.1782727 35.5740258,11.023005 C35.4839706,10.8677374 35.3126171,10.7781373 35.1337209,10.7927714 L35.1337209,10.7927714 Z M19.7267442,17.3189342 C19.6579818,17.3333609 19.5933808,17.3631767 19.5377907,17.4061435 L17.75,18.7578877 L12.3139535,20.1096319 C12.3091088,20.1095562 12.3042633,20.1095562 12.2994186,20.1096319 C7.71475256,20.148964 4,23.887844 4,28.4817249 C4,33.100004 7.75382279,36.8538179 12.372093,36.8538179 C14.422113,36.8538179 16.2942135,36.102823 17.75,34.8770737 C17.7527553,34.8747537 17.7617823,34.879397 17.7645349,34.8770737 C17.8127421,34.8555828 17.8569698,34.8260977 17.8953488,34.7898644 C18.8606577,33.9228412 21.5186456,33.1328877 24,33.1328877 C26.4813544,33.1328877 29.1393423,33.9228412 30.1046512,34.7898644 C30.1461756,34.8327302 30.1955103,34.8672645 30.25,34.8916086 C30.2548447,34.8916838 30.2596902,34.8916838 30.2645349,34.8916086 C31.7181121,36.1094477 33.5852688,36.8538179 35.627907,36.8538179 C40.2461772,36.8538179 44,33.100004 44,28.4817249 C44,23.8829644 40.2774381,20.141144 35.6860465,20.1096319 L30.25,18.7578877 L28.4622093,17.4061435 C28.38178,17.3484283 28.2850354,17.3178773 28.1860465,17.3189342 L24,17.3189342 L19.8139535,17.3189342 C19.7849479,17.3162032 19.7557498,17.3162032 19.7267442,17.3189342 Z M19.9593023,18.2491668 L24,18.2491668 L28.0406977,18.2491668 L29.7703488,19.5427714 C29.8173765,19.5820921 29.8717123,19.6117298 29.9302326,19.6299807 L33.244186,20.4584691 C29.7867591,21.4868147 27.255814,24.692363 27.255814,28.4817249 C27.255814,30.1120728 27.7415312,31.6277207 28.5494186,32.9148644 C27.2172237,32.4556663 25.5994167,32.2026551 24,32.2026551 C22.4005833,32.2026551 20.7827763,32.4556663 19.4505814,32.9148644 C20.2584688,31.6277207 20.744186,30.1120728 20.744186,28.4817249 C20.744186,24.692363 18.2132409,21.4868147 14.755814,20.4584691 L18.0697674,19.6299807 C18.1282877,19.6117298 18.1826235,19.5820921 18.2296512,19.5427714 L19.9593023,18.2491668 Z M12.372093,21.0398644 C16.4876284,21.0398644 19.8139535,24.36619 19.8139535,28.4817249 C19.8139535,32.5972598 16.4876284,35.9235854 12.372093,35.9235854 C8.25655767,35.9235854 4.93023256,32.5972598 4.93023256,28.4817249 C4.93023256,24.36619 8.25655767,21.0398644 12.372093,21.0398644 Z M21.122093,21.0398644 C20.8652164,21.0639466 20.6764992,21.2917087 20.7005814,21.5485854 C20.7246636,21.805462 20.9524257,21.9941792 21.2093023,21.970097 L26.7906977,21.970097 C26.9584353,21.9724692 27.1144564,21.884341 27.1990175,21.7394584 C27.2835786,21.5945759 27.2835786,21.4153855 27.1990175,21.270503 C27.1144564,21.1256204 26.9584353,21.0374922 26.7906977,21.0398644 L21.2093023,21.0398644 C21.1802967,21.0371334 21.1510986,21.0371334 21.122093,21.0398644 L21.122093,21.0398644 Z M35.627907,21.0398644 C39.7434423,21.0398644 43.0697674,24.36619 43.0697674,28.4817249 C43.0697674,32.5972598 39.7434423,35.9235854 35.627907,35.9235854 C31.5123716,35.9235854 28.1860465,32.5972598 28.1860465,28.4817249 C28.1860465,24.36619 31.5123716,21.0398644 35.627907,21.0398644 Z M12.372093,23.3654458 C9.55195814,23.3654458 7.25581395,25.6615854 7.25581395,28.4817249 C7.25581395,31.3018644 9.55195814,33.598004 12.372093,33.598004 C15.1922279,33.598004 17.4883721,31.3018644 17.4883721,28.4817249 C17.4883721,25.6615854 15.1922279,23.3654458 12.372093,23.3654458 Z M35.627907,23.3654458 C32.8077721,23.3654458 30.5116279,25.6615854 30.5116279,28.4817249 C30.5116279,31.3018644 32.8077721,33.598004 35.627907,33.598004 C38.4480419,33.598004 40.744186,31.3018644 40.744186,28.4817249 C40.744186,25.6615854 38.4480419,23.3654458 35.627907,23.3654458 Z M12.372093,24.2956784 C14.689493,24.2956784 16.5581395,26.1643295 16.5581395,28.4817249 C16.5581395,30.7991202 14.689493,32.6677714 12.372093,32.6677714 C10.054693,32.6677714 8.18604651,30.7991202 8.18604651,28.4817249 C8.18604651,26.1643295 10.054693,24.2956784 12.372093,24.2956784 Z M35.627907,24.2956784 C37.945307,24.2956784 39.8139535,26.1643295 39.8139535,28.4817249 C39.8139535,30.7991202 37.945307,32.6677714 35.627907,32.6677714 C33.310507,32.6677714 31.4418605,30.7991202 31.4418605,28.4817249 C31.4418605,26.1643295 33.310507,24.2956784 35.627907,24.2956784 Z"/>
</svg>
