<svg xmlns="http://www.w3.org/2000/svg" width="292" height="175" viewBox="0 0 292 175">
  <g fill="none" fill-rule="evenodd" transform="translate(.48)">
    <path fill="#F5DD48" fill-rule="nonzero" d="M231.773255,53.6023614 C259.738794,76.6779708 289.162896,100.525228 290.291922,117.652995 C291.420948,134.780762 293.043122,150.52 214.979329,168.980408 C176.937434,177.257529 98.9147231,174.608615 58.9013674,163.614258 C8.4960288,154.185076 -3.48835797,104.445625 0.804009344,88.7578125 C5.09637665,73.07 2.42663083,61.1688203 30.2461354,38.0932109 C57.992623,15.0176015 102.898123,-3.3341965 139.333642,0.511738397 C175.769161,4.35767329 203.7347,30.4849484 231.773255,53.6023614 Z" transform="matrix(-1 0 0 1 290.582 0)"/>
    <path fill="#7A3814" fill-rule="nonzero" d="M128.067364,16.391743 C122.094249,1.74205944 110.41,0.78 110.41,0.78 L22.7,0.78 C22.7,0.78 12.8625224,1.58667316 6.62478225,13.0575179 C5.84433555,14.4927144 -6.27607264,32.8739381 6.62478225,41.0035925 C11.6194753,42.1697825 54.546639,39.2965395 68.14,36.59 C97.2999311,30.7840403 120.62,27.4597825 128.067364,16.391743 Z" transform="translate(134.38 132.83)"/>
    <path fill="#DFB9A5" fill-rule="nonzero" d="M187.010525,104.440218 L215.400525,104.440218 C217.250679,104.440218 218.750525,105.940064 218.750525,107.790218 L218.750525,132.510218 C218.750525,142.197292 210.897599,150.050218 201.210525,150.050218 L201.210525,150.050218 C191.52345,150.050218 183.670525,142.197292 183.670525,132.510218 L183.670525,107.790218 C183.670525,105.943962 185.164277,104.445729 187.010525,104.440218 Z"/>
    <path fill="#000" fill-rule="nonzero" d="M183.660525,105.740218 L218.750525,105.740218 L218.750525,133.810218 C218.750525,143.497292 210.897599,151.350218 201.210525,151.350218 L201.210525,151.350218 C191.52345,151.350218 183.670525,143.497292 183.670525,133.810218 L183.670525,105.740218 L183.660525,105.740218 Z" opacity=".05"/>
    <path fill="#000" fill-rule="nonzero" d="M183.730525,118.990218 C195.039216,123.216859 207.487927,123.252336 218.820525,119.090218 L218.820525,114.780218 L183.730525,114.780218 L183.730525,118.990218 Z" opacity=".1"/>
    <path fill="#5B5952" d="M157.235993,96.5319183 C151.040525,96.5319183 148.546733,94.7337206 147.054353,89.6842621 C143.503572,77.6702175 133.55832,76.4422494 139.23404,49.9655121 C140.234475,45.2985723 140.863227,40.1740847 143.503572,36.1979339 C146.130689,32.2417024 148.068367,31.4194183 152.923493,29.3502777 C160.626618,26.0673871 152.923493,15.1373871 170.767243,9.54754331 C178.891804,7.00239317 179.1449,0.278012061 187.200837,0.278012061 C188.855773,0.278012061 200.077787,-0.347515076 201.200525,0.278012061 C205.973701,2.93736186 201.852452,6.43618186 206.874665,8.58855894 C208.991285,9.49568148 213.291903,6.21477484 215.593415,6.13738706 C220.364818,5.97694984 228.439231,8.42720114 233.210603,8.58855894 C237.041042,8.71809634 238.109647,15.1373871 242.200525,15.1373871 C249.995915,15.1373871 255.770525,20.4923269 255.770525,29.3502777 C255.770525,38.2983277 260.646918,47.1210615 262.472833,56.1256683 C269.339957,89.9912725 242.200525,100.36395 227.837556,100.36395 L157.235993,96.5319183 Z"/>
    <path fill="#DFB9A5" fill-rule="nonzero" d="M251.329281,77.7520969 C248.157989,102.474407 227.035471,121.58 201.450603,121.58 C175.894063,121.58 154.789996,102.516692 151.582525,77.8341952 C149.289969,77.2673788 147.520603,73.5908976 147.520603,69.14 C147.520603,64.2964627 149.61591,60.37 152.200603,60.37 C152.250096,60.37 152.29941,60.3714397 152.348533,60.374298 C157.333904,37.8482042 177.424699,21 201.450603,21 C225.475849,21 245.566201,37.8472813 250.552263,60.3724472 C253.085372,60.48359 255.120603,64.366405 255.120603,69.14 C255.120603,73.414125 253.488991,76.9741258 251.329282,77.7520908 Z"/>
    <g fill="#CF9595" fill-rule="nonzero" transform="translate(164.77 63)">
      <path d="M8.75,-1 L19.75,-1 C24.7205627,-1 28.75,3.02943725 28.75,8 C28.75,12.9705627 24.7205627,17 19.75,17 L8.75,17 C3.77943725,17 -0.25,12.9705627 -0.25,8 C-0.25,3.02943725 3.77943725,-1 8.75,-1 Z M8.75,1 C4.88400675,1 1.75,4.13400675 1.75,8 C1.75,11.8659932 4.88400675,15 8.75,15 L19.75,15 C23.6159932,15 26.75,11.8659932 26.75,8 C26.75,4.13400675 23.6159932,1 19.75,1 L8.75,1 Z"/>
      <path d="M52.75,-1 L63.75,-1 C68.7205627,-1 72.75,3.02943725 72.75,8 C72.75,12.9705627 68.7205627,17 63.75,17 L52.75,17 C47.7794373,17 43.75,12.9705627 43.75,8 C43.75,3.02943725 47.7794373,-1 52.75,-1 Z M52.75,1 C48.8840068,1 45.75,4.13400675 45.75,8 C45.75,11.8659932 48.8840068,15 52.75,15 L63.75,15 C67.6159932,15 70.75,11.8659932 70.75,8 C70.75,4.13400675 67.6159932,1 63.75,1 L52.75,1 Z" transform="rotate(180 58.25 8)"/>
      <path d="M28.62667,7.77928472 C28.6716037,7.74315081 28.7909901,7.65865011 28.9836109,7.54109767 C29.3238439,7.33346058 29.7352696,7.12297433 30.2168555,6.92468619 C33.613268,5.52624777 38.0736337,5.52624777 43.6030198,7.91782719 L44.3969802,6.08217281 C38.3662523,3.47375223 33.3451366,3.47375223 29.4553952,5.07531381 C28.4513585,5.48871573 27.7555286,5.91336619 27.37333,6.22071528 L28.62667,7.77928472 Z"/>
    </g>
    <path fill="#5B5952" d="M174.380525,22.4747583 C215.751933,-5.45492915 246.256072,29.1614771 251.295134,55.9935083 C239.573155,39.7908172 229.134927,33.5540984 219.980448,37.2833521 C208.187115,42.0875945 192.987141,37.1513965 174.380525,22.4747583 Z"/>
    <path fill="#5B5952" d="M147.400525,25.4747583 C161.315134,11.8302175 183.615134,34.0654477 188.295134,37.0654477 C176.501801,41.8696901 162.870264,38.0061269 147.400525,25.4747583 Z" transform="matrix(-1 0 0 1 335.696 0)"/>
    <g fill-rule="nonzero" transform="translate(16.52 9)">
      <path fill="#272023" d="M127.57,63 C127.57,104.78 100.31,151.29 66.68,151.29 C33.05,151.29 5.82,104.78 5.82,63 C5.82,21.22 33.08,-1.42108547e-14 66.71,-1.42108547e-14 C100.34,-1.42108547e-14 127.57,21.23 127.57,63 Z"/>
      <path fill="#33CCAB" d="M127.5,164.93 C129.479397,128.082031 107.41,123.78 107.41,123.78 L19.7,123.78 C19.7,123.78 4.7,118.01 3.55271368e-14,139.03 C24.6621094,151.29 59.5,164.83381 127.5,164.93 Z"/>
      <path fill="#B2846E" d="M49.63,94.61 L78.02,94.61 C79.8701539,94.61 81.37,96.1098461 81.37,97.96 L81.37,122.68 C81.37,132.367075 73.5170745,140.22 63.83,140.22 L63.83,140.22 C54.1429255,140.22 46.29,132.367075 46.29,122.68 L46.29,97.96 C46.29,96.1137443 47.7837525,94.6155112 49.63,94.61 Z"/>
      <path fill="#000" d="M46.28,95.91 L81.37,95.91 L81.37,123.98 C81.37,133.667075 73.5170745,141.52 63.83,141.52 L63.83,141.52 C54.1429255,141.52 46.29,133.667075 46.29,123.98 L46.29,95.91 L46.28,95.91 Z" opacity=".1"/>
      <path fill="#000" d="M46.35,109.16 C57.6586913,113.386642 70.1074023,113.422118 81.44,109.26 L81.44,104.95 L46.35,104.95 L46.35,109.16 Z" opacity=".1"/>
      <circle cx="63.95" cy="61.22" r="50.29" fill="#B2846E"/>
      <ellipse cx="14.7" cy="59.07" fill="#B2846E" rx="4.68" ry="8.77"/>
      <ellipse cx="112.94" cy="59.07" fill="#B2846E" rx="4.68" ry="8.77"/>
      <path fill="#272023" d="M19.39,26.0305992 C19.39,26.0305992 47.82,54.9023555 113.02,45.0409924 C113.02,45.0409924 120.3,38.4667502 102.58,18.2839753 C84.86,-1.89879955 35.52,1.38832151 19.39,26.0305992 Z"/>
    </g>
  </g>
</svg>
