<svg xmlns="http://www.w3.org/2000/svg" width="292" height="201" viewBox="0 0 292 201">
  <g fill="none" fill-rule="evenodd" transform="translate(.48)">
    <path fill="#F5DD48" fill-rule="nonzero" d="M231.773255,61.6708123 C259.738794,88.2198587 289.162896,115.656705 290.291922,135.362614 C291.420948,155.068524 293.043122,173.176898 214.979329,194.416044 C176.937434,203.939071 98.9147231,200.891432 58.9013674,188.242158 C8.4960288,177.393657 -3.48835797,120.167216 0.804009344,102.118009 C5.09637665,84.0688011 2.42663083,70.3762062 30.2461354,43.8271598 C57.992623,17.2781135 102.898123,-3.83607366 139.333642,0.588767394 C175.769161,5.01360845 203.7347,35.0736699 231.773255,61.6708123 Z" transform="matrix(-1 0 0 1 290.582 0)"/>
    <g fill-rule="nonzero" transform="translate(19.52 22)">
      <path fill="#272023" d="M127.57,63 C127.57,104.78 100.31,151.29 66.68,151.29 C33.05,151.29 5.82,104.78 5.82,63 C5.82,21.22 33.08,-1.42108547e-14 66.71,-1.42108547e-14 C100.34,-1.42108547e-14 127.57,21.23 127.57,63 Z"/>
      <path fill="#33CCAB" d="M127.5,177.93 C127.5,141.52 125.770309,123.78 107.41,123.78 L19.7,123.78 C19.7,123.78 4.7,131.01 3.55271368e-14,152.03 C24.6621094,164.29 59.5,179 127.5,177.93 Z"/>
      <path fill="#B2846E" d="M49.63,94.61 L78.02,94.61 C79.8701539,94.61 81.37,96.1098461 81.37,97.96 L81.37,122.68 C81.37,132.367075 73.5170745,140.22 63.83,140.22 L63.83,140.22 C54.1429255,140.22 46.29,132.367075 46.29,122.68 L46.29,97.96 C46.29,96.1137443 47.7837525,94.6155112 49.63,94.61 Z"/>
      <path fill="#000" d="M46.28,95.91 L81.37,95.91 L81.37,123.98 C81.37,133.667075 73.5170745,141.52 63.83,141.52 L63.83,141.52 C54.1429255,141.52 46.29,133.667075 46.29,123.98 L46.29,95.91 L46.28,95.91 Z" opacity=".1"/>
      <path fill="#000" d="M46.35,109.16 C57.6586913,113.386642 70.1074023,113.422118 81.44,109.26 L81.44,104.95 L46.35,104.95 L46.35,109.16 Z" opacity=".1"/>
      <circle cx="63.95" cy="61.22" r="50.29" fill="#B2846E"/>
      <ellipse cx="14.7" cy="59.07" fill="#B2846E" rx="4.68" ry="8.77"/>
      <ellipse cx="112.94" cy="59.07" fill="#B2846E" rx="4.68" ry="8.77"/>
      <path fill="#272023" d="M19.39,26.0305992 C19.39,26.0305992 47.82,54.9023555 113.02,45.0409924 C113.02,45.0409924 120.3,38.4667502 102.58,18.2839753 C84.86,-1.89879955 35.52,1.38832151 19.39,26.0305992 Z"/>
    </g>
    <g transform="translate(135.38 13)">
      <path fill="#000" fill-rule="nonzero" d="M51.35,118.990218 C62.6586913,123.216859 75.1074023,123.252336 86.44,119.090218 L86.44,114.780218 L51.35,114.780218 L51.35,118.990218 Z" opacity=".1"/>
      <path fill="#7A3814" fill-rule="nonzero" d="M130.067364,23.391743 C126.056094,-0.0502175418 112.41,0.78 112.41,0.78 L24.7,0.78 C1,-0.0502175418 0.624782249,54.0035925 0.624782249,54.0035925 C5.61947528,55.1697825 103.140078,55.1697825 130.067364,23.391743 Z" transform="translate(0 132.83)"/>
      <path fill="#DFB9A5" fill-rule="nonzero" d="M54.63,104.440218 L83.02,104.440218 C84.8701539,104.440218 86.37,105.940064 86.37,107.790218 L86.37,132.510218 C86.37,142.197292 78.5170745,150.050218 68.83,150.050218 L68.83,150.050218 C59.1429255,150.050218 51.29,142.197292 51.29,132.510218 L51.29,107.790218 C51.29,105.943962 52.7837525,104.445729 54.63,104.440218 Z"/>
      <path fill="#000" fill-rule="nonzero" d="M51.28,105.740218 L86.37,105.740218 L86.37,133.810218 C86.37,143.497292 78.5170745,151.350218 68.83,151.350218 L68.83,151.350218 C59.1429255,151.350218 51.29,143.497292 51.29,133.810218 L51.29,105.740218 L51.28,105.740218 Z" opacity=".05"/>
      <path fill="#5B5952" d="M24.8554687,96.5319183 C18.66,96.5319183 16.1662084,94.7337206 14.6738281,89.6842621 C11.1230469,77.6702175 1.17779532,76.4422494 6.85351562,49.9655121 C7.85395025,45.2985723 8.48270195,40.1740847 11.1230469,36.1979339 C13.7501645,32.2417024 15.6878424,31.4194183 20.5429687,29.3502777 C28.2460937,26.0673871 20.5429687,15.1373871 38.3867187,9.54754331 C46.5112791,7.00239317 46.764375,0.278012061 54.8203125,0.278012061 C56.4752481,0.278012061 67.6972627,-0.347515076 68.82,0.278012061 C73.5931762,2.93736186 69.4719275,6.43618186 74.4941406,8.58855894 C76.6107599,9.49568148 80.9113782,6.21477484 83.2128906,6.13738706 C87.9842937,5.97694984 96.0587061,8.42720114 100.830078,8.58855894 C104.660517,8.71809634 105.729122,15.1373871 109.82,15.1373871 C117.615391,15.1373871 123.39,20.4923269 123.39,29.3502777 C123.39,38.2983277 128.266393,47.1210615 130.092309,56.1256683 C136.959432,89.9912725 109.82,100.36395 95.4570312,100.36395 L24.8554687,96.5319183 Z"/>
      <path fill="#DFB9A5" fill-rule="nonzero" d="M118.948756,77.7520969 C115.777464,102.474407 94.6549465,121.58 69.0700781,121.58 C43.5135378,121.58 22.4094718,102.516692 19.202,77.8341952 C16.9094441,77.2673788 15.1400781,73.5908976 15.1400781,69.14 C15.1400781,64.2964627 17.2353855,60.37 19.8200781,60.37 C19.8695713,60.37 19.918885,60.3714397 19.9680081,60.374298 C24.9533795,37.8482042 45.0441743,21 69.0700781,21 C93.0953239,21 113.185676,37.8472813 118.171739,60.3724472 C120.704848,60.48359 122.740078,64.366405 122.740078,69.14 C122.740078,73.414125 121.108466,76.9741258 118.948757,77.7520908 Z"/>
      <g fill="#CF9595" fill-rule="nonzero" transform="translate(32.39 63)">
        <path d="M8.75,-1 L19.75,-1 C24.7205627,-1 28.75,3.02943725 28.75,8 C28.75,12.9705627 24.7205627,17 19.75,17 L8.75,17 C3.77943725,17 -0.25,12.9705627 -0.25,8 C-0.25,3.02943725 3.77943725,-1 8.75,-1 Z M8.75,1 C4.88400675,1 1.75,4.13400675 1.75,8 C1.75,11.8659932 4.88400675,15 8.75,15 L19.75,15 C23.6159932,15 26.75,11.8659932 26.75,8 C26.75,4.13400675 23.6159932,1 19.75,1 L8.75,1 Z"/>
        <path d="M52.75,-1 L63.75,-1 C68.7205627,-1 72.75,3.02943725 72.75,8 C72.75,12.9705627 68.7205627,17 63.75,17 L52.75,17 C47.7794373,17 43.75,12.9705627 43.75,8 C43.75,3.02943725 47.7794373,-1 52.75,-1 Z M52.75,1 C48.8840068,1 45.75,4.13400675 45.75,8 C45.75,11.8659932 48.8840068,15 52.75,15 L63.75,15 C67.6159932,15 70.75,11.8659932 70.75,8 C70.75,4.13400675 67.6159932,1 63.75,1 L52.75,1 Z" transform="rotate(180 58.25 8)"/>
        <path d="M28.62667,7.77928472 C28.6716037,7.74315081 28.7909901,7.65865011 28.9836109,7.54109767 C29.3238439,7.33346058 29.7352696,7.12297433 30.2168555,6.92468619 C33.613268,5.52624777 38.0736337,5.52624777 43.6030198,7.91782719 L44.3969802,6.08217281 C38.3662523,3.47375223 33.3451366,3.47375223 29.4553952,5.07531381 C28.4513585,5.48871573 27.7555286,5.91336619 27.37333,6.22071528 L28.62667,7.77928472 Z"/>
      </g>
      <path fill="#5B5952" d="M42,22.4747583 C83.3714081,-5.45492915 113.875547,29.1614771 118.914609,55.9935083 C107.19263,39.7908172 96.7544018,33.5540984 87.5999237,37.2833521 C75.8065903,42.0875945 60.6066158,37.1513965 42,22.4747583 Z"/>
      <path fill="#5B5952" d="M15.02,25.4747583 C28.9346094,11.8302175 51.2346094,34.0654477 55.9146094,37.0654477 C44.121276,41.8696901 30.4897396,38.0061269 15.02,25.4747583 Z" transform="matrix(-1 0 0 1 70.935 0)"/>
    </g>
  </g>
</svg>
