<svg xmlns="http://www.w3.org/2000/svg" width="702" height="689" viewBox="0 0 702 689">
  <g fill="none" fill-rule="evenodd" transform="translate(0 .735)">
    <g fill-rule="nonzero" transform="translate(185)">
      <path fill="#FBBEBE" d="M76.303155,491.265306 C76.303155,491.265306 84.303155,520.265306 84.303155,524.265306 C84.303155,528.265306 97.303155,527.265306 97.303155,527.265306 L107.303155,511.265306 C107.303155,511.265306 99.303155,495.265306 97.303155,487.265306 C95.303155,479.265306 76.303155,491.265306 76.303155,491.265306 Z"/>
      <path fill="#2F2E41" d="M91.303155,518.265306 C91.303155,518.265306 103.303155,521.265306 103.303155,512.265306 C103.303155,503.265306 108.303155,507.265306 108.303155,507.265306 C108.303155,507.265306 120.303155,514.265306 115.303155,521.265306 C110.303155,528.265306 101.303155,536.265306 98.303155,543.265306 C95.303155,550.265306 86.303155,569.265306 76.303155,565.265306 C66.303155,561.265306 73.303155,552.265306 73.303155,552.265306 C73.303155,552.265306 81.303155,540.265306 79.303155,530.265306 C77.303155,520.265306 76.303155,515.265306 79.303155,515.265306 C82.303155,515.265306 87.303155,512.265306 87.303155,516.265306 C87.303155,520.265306 91.303155,518.265306 91.303155,518.265306 Z"/>
      <circle cx="93.803" cy="108.765" r="35" fill="#2F2E41"/>
      <path fill="#35323E" d="M104.476637,66.1974935 C106.536637,63.4474935 109.756637,61.8174935 112.946637,60.5174935 C128.026637,54.3574935 147.036637,54.0674935 158.946637,65.1674935 C162.536637,68.5074935 165.256637,72.6574935 168.516637,76.3274935 C183.906637,93.6974935 210.316637,98.3774935 232.626637,91.9774935 C237.786637,90.4974935 243.026637,88.4774935 248.346637,89.1674935 C251.36878,89.6483306 254.261075,90.7405974 256.846637,92.3774935 C269.426637,99.8574935 276.556637,113.647493 285.986637,124.847493 C292.796637,132.937493 301.146637,139.917493 310.866637,144.117493 C320.586637,148.317493 331.746637,149.557493 341.866637,146.497493 C335.185962,151.162893 327.920216,154.928574 320.256637,157.697493 C312.116637,160.637493 303.256637,162.427493 294.786637,160.827493 C284.196637,158.827493 275.326637,151.937493 266.516637,145.747493 C257.584862,139.466555 248.284874,133.726275 238.666637,128.557493 C229.976637,123.877493 220.366637,119.557493 210.586637,120.917493 C202.276637,122.067493 195.056637,127.187493 186.976637,129.467493 C178.876738,131.751108 170.232765,131.124836 162.546637,127.697493 C141.876637,118.297493 132.416637,90.5774935 110.286637,85.4674935 C104.626637,84.1674935 103.586637,86.1674935 102.426637,79.2374935 C101.676637,74.7774935 101.666637,69.9474935 104.476637,66.1974935 Z"/>
      <polygon fill="#3F3D56" points="68.803 277.765 48.803 275.765 40.638 255.793 41.803 237.765 68.803 237.765"/>
      <polygon fill="#000" points="68.803 277.765 48.803 275.765 40.638 255.793 41.803 237.765 68.803 237.765" opacity=".1"/>
      <path fill="#FBBEBE" d="M70.303155,134.265306 C70.303155,134.265306 69.303155,159.265306 65.303155,162.265306 C61.303155,165.265306 71.303155,177.265306 71.303155,177.265306 L87.303155,173.265306 L99.303155,162.265306 L94.303155,161.265306 C94.303155,161.265306 94.303155,147.265306 97.303155,143.265306 C100.303155,139.265306 70.303155,134.265306 70.303155,134.265306 Z"/>
      <path fill="#000" d="M70.303155,134.265306 C70.303155,134.265306 69.303155,159.265306 65.303155,162.265306 C61.303155,165.265306 71.303155,177.265306 71.303155,177.265306 L87.303155,173.265306 L99.303155,162.265306 L94.303155,161.265306 C94.303155,161.265306 94.303155,147.265306 97.303155,143.265306 C100.303155,139.265306 70.303155,134.265306 70.303155,134.265306 Z" opacity=".1"/>
      <path fill="#FBBEBE" d="M42.303155 232.265306C42.303155 232.265306 52.303155 258.265306 50.303155 280.265306 48.303155 302.265306 95.303155 283.265306 95.303155 283.265306L109.303155 274.265306C109.303155 274.265306 113.303155 247.265306 109.303155 241.265306 105.303155 235.265306 97.303155 214.265306 97.303155 214.265306L76.303155 211.265306 42.303155 232.265306zM210.444915 347.056276C210.444915 347.056276 227.497425 328.207696 230.349635 326.394706 233.201845 324.581716 226.596575 315.765306 226.596575 315.765306L210.655285 315.886736C210.655285 315.886736 202.872435 328.843106 198.074515 333.895186 193.276595 338.947266 210.444915 347.056276 210.444915 347.056276z"/>
      <path fill="#2F2E41" d="M222.898595,324.122836 C222.898595,324.122836 219.598785,314.206476 213.181325,318.285696 C206.763865,322.364916 207.349835,316.986696 207.349835,316.986696 C207.349835,316.986696 206.902225,305.257346 214.159835,305.649876 C221.417445,306.042406 231.201055,308.833876 237.552165,307.800316 C243.903275,306.766756 261.530465,304.572516 263.210725,313.516016 C264.890985,322.459516 255.300795,321.547376 255.300795,321.547376 C255.300795,321.547376 243.118205,321.281936 236.894185,327.240506 C230.670165,333.199076 227.558185,336.178366 226.198415,334.039206 C224.838645,331.900046 220.433285,329.694536 223.285485,327.881556 C226.137685,326.068576 222.898595,324.122836 222.898595,324.122836 Z"/>
      <path fill="#FBBEBE" d="M59.303155 152.265306C59.303155 152.265306 47.303155 145.265306 44.303155 125.265306 41.303155 105.265306 20.303155 35.2653061 20.303155 35.2653061 20.303155 35.2653061 6.30315501-12.7346939 1.30315501 3.26530612-3.69684499 19.2653061 7.30315501 37.2653061 7.30315501 37.2653061L21.303155 102.265306C21.303155 102.265306 33.303155 186.265306 39.303155 190.265306 45.303155 194.265306 59.303155 152.265306 59.303155 152.265306zM107.999025 156.149736C107.999025 156.149736 121.890645 155.998516 134.387025 140.097586 146.883405 124.196656 199.747605 73.7349861 199.747605 73.7349861 199.747605 73.7349861 235.649605 38.9349261 232.084685 55.3145261 228.519765 71.6941261 210.058495 81.9011161 210.058495 81.9011161L165.751035 131.477786C165.751035 131.477786 113.787625 198.558366 106.594595 199.068586 99.401565 199.578806 107.999025 156.149736 107.999025 156.149736z"/>
      <circle cx="87.303" cy="125.265" r="25" fill="#FBBEBE"/>
      <path fill="#2F2E41" d="M111.080935,258.529086 C111.080935,258.529086 76.303155,283.265306 63.303155,279.265306 C50.303155,275.265306 48.303155,272.265306 48.303155,272.265306 C48.303155,272.265306 36.303155,354.265306 45.303155,386.265306 C45.303155,386.265306 46.303155,418.265306 55.303155,430.265306 L76.303155,499.265306 C76.303155,499.265306 99.303155,498.265306 99.303155,490.265306 C99.303155,490.265306 96.303155,473.265306 96.303155,461.265306 C96.303155,449.265306 80.303155,419.265306 80.303155,419.265306 L91.303155,335.265306 C91.303155,335.265306 133.303155,419.265306 150.303155,413.265306 C167.303155,407.265306 215.303155,344.265306 215.303155,344.265306 L200.303155,330.265306 C200.303155,330.265306 158.303155,355.265306 153.303155,368.265306 C153.303155,368.265306 119.858715,265.792856 111.080935,258.529086 Z"/>
      <path fill="#33CCAB" d="M84.303155,165.265306 C84.303155,165.265306 97.303155,155.265306 99.303155,155.265306 L112.303155,155.265306 C112.303155,155.265306 122.303155,179.265306 118.303155,189.265306 C118.303155,189.265306 113.303155,215.265306 112.303155,217.265306 C111.303155,219.265306 112.303155,225.265306 114.303155,231.265306 C116.303155,237.265306 122.303155,250.265306 119.303155,253.265306 C116.303155,256.265306 119.303155,263.765306 119.303155,270.765306 C119.303155,277.765306 115.734375,280.38933 111.303155,283 C106.871935,285.61067 70.9212106,294.886417 56.303155,290.886417 C52.803155,289.504564 48.303155,286.190111 44.2607422,280.38933 C44.2607422,280.38933 36.303155,276.265306 34.303155,257.265306 C32.303155,238.265306 30.303155,237.265306 36.303155,230.265306 C42.303155,223.265306 34.303155,194.265306 34.303155,194.265306 C34.303155,194.265306 44.303155,177.265306 46.303155,168.265306 C48.303155,159.265306 56.303155,150.265306 56.303155,150.265306 C56.303155,150.265306 61.303155,147.265306 64.303155,149.265306 C67.303155,151.265306 68.907705,150.265306 68.907705,150.265306 C68.907705,150.265306 63.303155,164.265306 69.303155,164.265306 C75.303155,164.265306 84.303155,165.265306 84.303155,165.265306 Z"/>
      <ellipse cx="69.303" cy="270.765" fill="#000" opacity=".1" rx="1.5" ry="3"/>
      <ellipse cx="97.964" cy="103.578" fill="#35323E" rx="16.8" ry="29.5" transform="rotate(-83.23 97.964 103.578)"/>
    </g>
    <ellipse cx="317" cy="661.765" fill="#FFD0BE" fill-rule="nonzero" opacity=".7" rx="189" ry="15.5"/>
    <g transform="translate(0 502.265)">
      <path stroke="#535461" stroke-width="2" d="M32.7570178,185.415384 C32.7570178,185.415384 18.7070178,137.705384 35.3970178,102.595384 C42.5040453,87.9070814 44.6516424,71.308823 41.5170178,55.2953844 C39.9704014,47.7096699 37.731014,40.2818663 34.8270178,33.1053844"/>
      <path fill="#F5DD48" fill-rule="nonzero" d="M45.1770178 10.9153844C45.1770178 16.7653844 34.5870178 33.7153844 34.5870178 33.7153844 34.5870178 33.7153844 24.0070178 16.7653844 24.0070178 10.9153844 23.8883843 7.05614627 25.8795255 3.43819105 29.2033521 1.47351045 32.5271786-.491170151 36.656857-.491170151 39.9806835 1.47351045 43.3045101 3.43819105 45.2956513 7.05614627 45.1770178 10.9153844L45.1770178 10.9153844zM62.6770178 43.3053844C59.4970178 48.2053844 41.3970178 56.6853844 41.3970178 56.6853844 41.3970178 56.6853844 41.7270178 36.6853844 44.9070178 31.7953844 48.1561702 27.0692801 54.5771504 25.78858 59.3908382 28.9065061 64.2045261 32.0244322 65.6613581 38.4077557 62.6770178 43.3053844L62.6770178 43.3053844zM61.9170178 98.6453844C56.6970178 101.285384 36.7870178 99.4653844 36.7870178 99.4653844 36.7870178 99.4653844 47.1570178 82.3753844 52.3770178 79.7453844 57.5645405 77.3114615 63.7470621 79.4452059 66.3291222 84.5606079 68.9111822 89.6760099 66.95607 95.9173218 61.9170178 98.6453844zM51.9070178 140.415384C47.2070178 143.885384 27.2770178 145.415384 27.2770178 145.415384 27.2770178 145.415384 34.6170178 126.815384 39.2770178 123.335384 43.974204 120.202137 50.3035164 121.305163 53.6639077 125.842626 57.0242991 130.380088 56.2337823 136.755976 51.8670178 140.335384L51.9070178 140.415384zM19.1670178 57.8253844C23.3670178 61.8953844 42.8970178 66.1153844 42.8970178 66.1153844 42.8970178 66.1153844 38.1170178 46.7053844 33.8970178 42.6353844 29.67574 38.7412498 23.1198514 38.9215315 19.1189624 43.0417691 15.1180734 47.1620066 15.1305194 53.7203617 19.1470178 57.8253844L19.1670178 57.8253844zM8.08701778 106.795384C13.3070178 109.425384 33.2070178 107.605384 33.2070178 107.605384 33.2070178 107.605384 22.8370178 90.5153844 17.6170178 87.8853844 12.4172121 85.3953963 6.18091765 87.5223805 3.58630034 92.6707764.991683032 97.8191723 2.99213663 104.097199 8.08701778 106.795384L8.08701778 106.795384zM3.83701778 155.865384C8.53701778 159.345384 28.4670178 160.865384 28.4670178 160.865384 28.4670178 160.865384 21.1270178 142.265384 16.4670178 138.795384 11.7698315 135.662137 5.44051919 136.765163 2.08012785 141.302626-1.28026349 145.840088-.489746729 152.215976 3.87701778 155.795384L3.83701778 155.865384z"/>
    </g>
    <g fill="#F5DD48" fill-rule="nonzero" transform="translate(648 630.855)">
      <ellipse cx="26.93" cy="29.41" rx="26.93" ry="4.55"/>
      <path d="M43.56,18.5300721 C45.3925576,17.0315644 46.7279189,15.0128328 47.39,12.7400721 C47.88,10.4400721 46.91,7.74007211 44.71,6.85007211 C42.25,5.91007211 39.62,7.61007211 37.63,9.34007211 C35.64,11.0700721 33.35,13.0200721 30.74,12.6600721 C33.4704564,10.1876765 34.7008408,6.46234573 33.98,2.85007211 C33.8721927,2.11257538 33.5604746,1.41986854 33.08,0.850072114 C31.72,-0.609927886 29.24,0.0200721144 27.61,1.17007211 C22.41,4.83007211 20.96,11.8900721 20.93,18.2500721 C20.4,15.9600721 20.84,13.5700721 20.83,11.2500721 C20.82,8.93007211 20.17,6.25007211 18.19,5.02007211 C16.9621913,4.36035713 15.583325,4.03287639 14.19,4.07007211 C11.85,3.99007211 9.25,4.22007211 7.65,5.93007211 C5.65,8.06007211 6.18,11.6200721 7.91,13.9300721 C9.64,16.2400721 12.26,17.7300721 14.68,19.3500721 C16.615902,20.5043451 18.2667965,22.0800436 19.51,23.9600721 C19.6539057,24.2222745 19.7743737,24.4966738 19.87,24.7800721 L34.52,24.7800721 C37.8001656,23.1118766 40.8408092,21.0096617 43.56,18.5300721 Z"/>
    </g>
    <g fill="#F5DD48" fill-rule="nonzero" transform="translate(571.89 648.265)">
      <ellipse cx="40.21" cy="29.65" rx="40.21" ry="6.8"/>
      <path d="M56.83,18.5300721 C58.6653122,17.0321204 60.0040479,15.013558 60.67,12.7400721 C61.16,10.4400721 60.18,7.69007211 57.99,6.85007211 C55.53,5.91007211 52.9,7.61007211 50.91,9.34007211 C48.92,11.0700721 46.63,13.0200721 44.02,12.6600721 C46.7504564,10.1876765 47.9808408,6.46234573 47.26,2.85007211 C47.1466943,2.11419172 46.8356183,1.42291186 46.36,0.850072114 C44.99,-0.609927886 42.52,0.0200721144 40.88,1.17007211 C35.68,4.83007211 34.23,11.8900721 34.2,18.2500721 C33.68,15.9600721 34.12,13.5700721 34.11,11.2500721 C34.1,8.93007211 33.45,6.25007211 31.47,5.02007211 C30.2457493,4.34600421 28.8674296,4.00142427 27.47,4.02007211 C25.13,3.94007211 22.53,4.17007211 20.93,5.88007211 C18.93,8.01007211 19.46,11.5700721 21.19,13.8800721 C22.92,16.1900721 25.54,17.6800721 27.95,19.3000721 C29.8895325,20.453146 31.5439361,22.0289314 32.79,23.9100721 C32.9339057,24.1722745 33.0543737,24.4466738 33.15,24.7300721 L47.8,24.7300721 C51.0754331,23.0794209 54.1128939,20.9938996 56.83,18.5300721 Z"/>
    </g>
    <path fill="#33CCAB" fill-rule="nonzero" d="M606.64093,514.578446 C614.947946,517.598358 624.256329,515.041875 629.855613,508.202693 C635.454898,501.363512 636.123569,491.733638 631.523248,484.186225 C626.922928,476.638812 618.057202,472.820371 609.41253,474.663206 L609.93346,485.375416 L604.86531,476.194956 C599.89121,478.532147 596.048508,482.748546 594.18165,487.917586 C593.518654,489.728231 593.115604,491.623696 592.98452,493.547446 C592.327172,502.821415 597.901643,511.406152 606.64093,514.578446 Z"/>
    <path stroke="#3F3D56" d="M631.71827,638.821866 C629.92927,629.711606 637.68158,621.635066 645.33914,616.385356 C652.9967,611.135646 661.94414,605.977566 664.55689,597.068516 C668.31189,584.264646 657.12689,572.538706 648.42125,562.426766 C641.962495,554.922548 636.415943,546.679252 631.89766,537.869376 C630.08658,534.336876 628.42208,530.644106 627.94544,526.703116 C627.25904,521.027656 629.08238,515.380036 630.91935,509.966386 C637.038843,491.931926 643.581653,474.048576 650.54778,456.316336"/>
    <path fill="#33CCAB" fill-rule="nonzero" d="M629.17447 452.616966C631.590383 445.951014 637.237168 440.97608 644.1544 439.419336L645.86802 449.603116 649.04502 438.907446C658.096084 439.041675 666.022214 445.011491 668.65017 453.673686 671.278126 462.335882 668.005051 471.703337 660.554274 476.843931 653.103497 481.984524 643.184236 481.718997 636.019148 476.187153 628.85406 470.65531 626.086826 461.126162 629.17444 452.616966L629.17447 452.616966zM644.76786 562.633156C654.713507 566.240822 665.783092 561.811989 670.495592 552.339741 675.208093 542.867492 672.063446 531.366994 663.18686 525.610486L660.74565 533.829746 659.01459 523.525926C658.997473 523.51786 658.979753 523.511143 658.96159 523.505836 651.972167 520.970358 644.161013 522.356292 638.470513 527.14157 632.780013 531.926848 630.07469 539.384474 631.373613 546.70523 632.672536 554.025987 637.778367 560.097678 644.76779 562.633156L644.76786 562.633156zM623.10094 597.195786C624.803384 606.882958 633.058094 614.053774 642.888151 614.384815 652.718209 614.715856 661.436644 608.116635 663.78695 598.565945 666.137256 589.015255 661.476995 579.123703 652.615925 574.85509 643.754855 570.586477 633.11508 573.107596 627.11152 580.898416L636.38419 594.854966 623.71425 587.447276C622.73186 590.600734 622.52152 593.944069 623.10094 597.195786z"/>
  </g>
</svg>
