<svg xmlns="http://www.w3.org/2000/svg" width="559" height="526" viewBox="0 0 559 526">
  <g fill="none" transform="translate(0 -6)">
    <path fill="#FFBCA3" d="M559,531.235302 C559,514.330026 318.249732,506.747488 279.50191,507.385079 C240.754088,508.02267 0,513.445451 0,531.235302 C0,531.488991 559,531.235302 559,531.235302 Z" opacity=".5"/>
    <path fill="#33CCAB" d="M58.134,490.57941 C70.56242,513.62841 96.94,523.52291 96.94,523.52291 C96.94,523.52291 103.16712,496.04748 90.7387,472.99843 C78.31028,449.94938 51.9327,440.05493 51.9327,440.05493 C51.9327,440.05493 45.70559,467.53036 58.134,490.57941 Z"/>
    <path fill="#B9EFE9" d="M66.67653,482.99643 C89.11494,496.49612 97.75669,523.31023 97.75669,523.31023 C97.75669,523.31023 70.01857,528.23702 47.58016,514.73732 C25.14175,501.23762 16.5,474.42352 16.5,474.42352 C16.5,474.42352 44.23811,469.49674 66.67653,482.99643 Z"/>
    <path fill="#A0616A" d="M436.34728 44.3271605L477.34728 36.3271605C477.34728 36.3271605 487.34728 2.32716049 499.34728 6.32716049 511.34728 10.3271605 491.34728 44.3271605 491.34728 44.3271605L434.34728 70.3271605 436.34728 44.3271605zM187.34728 78.3271605L169.34728 101.32716C169.34728 101.32716 143.34728 100.32716 151.34728 114.32716 159.34728 128.32716 177.34728 120.32716 178.34728 117.32716 179.34728 114.32716 208.34728 88.3271605 208.34728 88.3271605L187.34728 78.3271605z"/>
    <path fill="#F5DD48" d="M260.84728,51.8271605 L275.84728,43.8271605 C275.84728,43.8271605 339.84728,38.8271605 363.84728,54.8271605 C387.84728,70.8271605 262.84728,72.8271605 262.84728,72.8271605 L260.84728,51.8271605 Z"/>
    <path fill="#535461" d="M234.34728,152.32716 L205.34728,150.32716 L210.34728,159.32716 C210.34728,159.32716 170.34728,171.32716 183.34728,205.32716 C196.34728,239.32716 216.34728,271.32716 216.34728,271.32716 L229.34728,296.32716 C229.34728,296.32716 256.34728,300.32716 257.34728,292.32716 C258.34728,284.32716 257.34728,280.32716 252.34728,276.32716 C247.34728,272.32716 244.34728,264.32716 244.34728,260.32716 C244.34728,256.32716 245.34728,252.32716 242.34728,250.32716 C239.34728,248.32716 238.34728,245.32716 238.34728,239.32716 C238.34728,233.32716 227.34728,211.32716 227.34728,211.32716 C227.34728,211.32716 262.34728,210.32716 273.34728,219.32716 C284.34728,228.32716 320.34728,262.32716 320.34728,262.32716 C322.33842,264.410789 324.022055,266.767878 325.34728,269.32716 C327.34728,273.32716 327.34728,275.32716 331.34728,277.32716 C335.34728,279.32716 332.34728,287.32716 331.34728,288.32716 C330.34728,289.32716 320.34728,329.32716 320.34728,329.32716 C320.34728,329.32716 309.34728,348.32716 321.34728,349.32716 C333.34728,350.32716 344.34728,351.32716 345.34728,349.32716 C346.458603,346.555148 347.796464,343.879427 349.34728,341.32716 C352.34728,336.32716 349.34728,325.32716 349.34728,325.32716 C349.34728,325.32716 378.34728,288.32716 369.34728,265.32716 C360.34728,242.32716 341.34728,190.32716 341.34728,190.32716 L312.34728,178.32716 L259.34728,159.32716 L234.34728,152.32716 Z"/>
    <path fill="#2F2E41" d="M232.34728 291.32716C232.34728 291.32716 226.34728 314.32716 224.34728 315.32716 222.34728 316.32716 200.34728 335.32716 215.34728 338.32716 230.34728 341.32716 241.34728 340.32716 244.34728 337.32716 247.34728 334.32716 246.34728 331.32716 251.34728 330.32716 256.34728 329.32716 265.34728 326.32716 264.34728 319.32716 263.34728 312.32716 258.34728 293.32716 255.34728 291.32716 252.34728 289.32716 232.34728 291.32716 232.34728 291.32716zM319.34728 342.32716C319.34728 342.32716 310.34728 349.32716 315.34728 362.32716 320.34728 375.32716 327.34728 389.32716 327.34728 389.32716 327.34728 389.32716 335.34728 414.32716 348.34728 410.32716 353.62853 408.70216 356.26916 404.2715 357.54305 399.58296 359.40169 392.415371 358.078049 384.794391 353.91138 378.6733L346.34728 367.32716 338.34728 346.32716 319.34728 342.32716z"/>
    <path fill="#A0616A" d="M294.34728,48.3271605 C294.34728,48.3271605 282.34728,47.3271605 280.34728,50.3271605 C278.34728,53.3271605 269.34728,93.3271605 280.34728,97.3271605 C291.34728,101.32716 324.34728,108.32716 329.34728,103.32716 C334.34728,98.3271605 336.34728,54.3271605 336.34728,54.3271605 L294.34728,48.3271605 Z"/>
    <path fill="#000" d="M294.34728,48.3271605 C294.34728,48.3271605 282.34728,47.3271605 280.34728,50.3271605 C278.34728,53.3271605 269.34728,93.3271605 280.34728,97.3271605 C291.34728,101.32716 324.34728,108.32716 329.34728,103.32716 C334.34728,98.3271605 336.34728,54.3271605 336.34728,54.3271605 L294.34728,48.3271605 Z" opacity=".1"/>
    <path fill="#E6E6E6" d="M276.34728,81.3271605 C276.34728,81.3271605 290.34728,95.3271605 299.34728,93.3271605 C308.34728,91.3271605 329.34728,82.3271605 331.34728,78.3271605 C333.34728,74.3271605 358.34728,73.3271605 358.34728,73.3271605 L331.34728,148.32716 L350.34728,211.32716 C350.34728,211.32716 361.34728,198.32716 331.34728,197.32716 C301.34728,196.32716 261.34728,181.32716 254.34728,161.32716 C254.34728,161.32716 210.34728,155.32716 208.34728,154.32716 C206.34728,153.32716 213.34728,147.32716 213.34728,147.32716 L242.34728,139.32716 L263.34728,112.32716 L276.34728,81.3271605 Z"/>
    <path fill="#F5DD48" d="M285.34728 50.3271605C285.34728 50.3271605 290.34728 43.3271605 285.34728 43.3271605 280.34728 43.3271605 266.34728 43.3271605 261.34728 44.3271605 256.34728 45.3271605 237.34728 40.3271605 235.34728 46.3271605 233.34728 52.3271605 233.34728 89.3271605 237.34728 92.3271605 241.34728 95.3271605 243.34728 95.3271605 238.34728 101.32716 233.34728 107.32716 221.34728 127.32716 224.34728 134.32716 227.34728 141.32716 192.34728 143.32716 197.34728 151.32716 200.10303 155.967747 204.962749 158.958343 210.34728 159.32716 210.34728 159.32716 212.34728 143.32716 224.34728 151.32716 236.34728 159.32716 252.34728 179.32716 265.34728 166.32716 278.34728 153.32716 283.34728 141.32716 284.34728 124.32716 285.34728 107.32716 284.34728 96.3271605 282.34728 86.3271605 280.34728 76.3271605 285.34728 50.3271605 285.34728 50.3271605zM337.34728 69.3271605C337.34728 69.3271605 345.34728 76.3271605 337.34728 93.3271605 329.34728 110.32716 308.34728 150.32716 325.34728 176.32716 342.34728 202.32716 349.34728 209.32716 345.34728 214.32716 342.914686 217.495352 341.517926 221.336442 341.34728 225.32716L352.34728 221.32716C352.34728 221.32716 354.34728 207.32716 358.34728 197.32716 362.34728 187.32716 350.34728 157.32716 350.34728 157.32716L354.34728 118.32716C354.34728 118.32716 370.34728 93.3271605 372.34728 92.3271605 374.34728 91.3271605 368.34728 48.3271605 368.34728 48.3271605 368.34728 48.3271605 358.34728 45.3271605 353.34728 48.3271605 348.34728 51.3271605 337.34728 69.3271605 337.34728 69.3271605z"/>
    <path fill="#F5DD48" d="M241.34728 47.3271605L235.34728 47.3271605 194.34728 68.3271605C194.34728 68.3271605 191.34728 55.3271605 189.34728 58.3271605 187.34728 61.3271605 188.34728 69.3271605 183.34728 71.3271605 178.34728 73.3271605 175.34728 76.3271605 183.34728 80.3271605 191.34728 84.3271605 192.34728 81.3271605 192.34728 88.3271605 192.34728 95.3271605 198.34728 96.3271605 203.34728 94.3271605 208.34728 92.3271605 209.34728 91.3271605 214.34728 93.3271605 219.34728 95.3271605 216.34728 98.3271605 223.34728 95.3271605 230.34728 92.3271605 248.34728 93.3271605 248.34728 93.3271605L241.34728 47.3271605zM361.34728 50.3271605L368.34728 48.3271605C368.34728 48.3271605 389.34728 50.3271605 394.34728 50.3271605 399.34728 50.3271605 404.34728 49.3271605 407.34728 49.3271605 410.34728 49.3271605 425.34728 47.3271605 427.34728 45.3271605 429.34728 43.3271605 438.34728 38.3271605 439.34728 41.3271605 440.34728 44.3271605 451.34728 63.3271605 441.34728 72.3271605 431.34728 81.3271605 429.34728 77.3271605 423.34728 81.3271605 417.34728 85.3271605 369.34728 93.3271605 368.34728 92.3271605 367.34728 91.3271605 361.34728 50.3271605 361.34728 50.3271605z"/>
    <circle cx="320.347" cy="58.327" r="30" fill="#A0616A"/>
    <path fill="#2F2E41" d="M298.27125,59.5335805 C298.612224,60.1865838 298.822962,60.8996615 298.89173,61.6331105 C299.714969,65.134747 302.8117,67.6296321 306.40832,67.6888605 C306.11931,68.9909399 306.397876,70.3544877 307.174431,71.4388773 C307.950985,72.5232668 309.152193,73.2260919 310.47798,73.3717805 C312.50624,70.7734188 314.019091,67.8112815 314.93508,64.6448505 C315.160181,63.4013157 315.67623,62.2286589 316.44108,61.2226505 C317.50645,60.0930905 319.17108,59.8161005 320.71108,59.6176505 C328.693865,58.5891907 336.726177,57.9907101 344.77323,57.8248005 C345.867134,57.903304 346.961567,57.6795721 347.9369,57.1780605 C350.19761,55.7209905 349.44333,52.2075905 348.0154,49.9283705 C345.201548,45.4713692 340.923587,42.1332251 335.91625,40.4872605 C332.32902,39.3218605 328.52051,39.0785905 324.77416,38.6412605 C319.75716,38.0556205 314.76339,37.1067105 309.71244,37.0773405 C304.66149,37.0479705 299.43824,38.0196005 295.3095,40.9293405 C292.30274,43.0483405 287.36817,48.9869105 289.7825,52.7343405 C290.16911,53.3344105 291.39011,53.6301205 291.90962,54.2417605 C292.61654,55.0740305 292.61975,56.3321605 293.42285,57.0876305 C294.76353,58.3488405 297.19453,57.9481905 298.27125,59.5335805 Z"/>
    <path fill="#2F2E41" d="M291.964298,19.0228822 C288.524298,20.4828822 284.964298,22.7328822 284.154298,26.2528822 C283.970703,27.8190969 283.917187,29.3978301 283.994298,30.9728822 C283.834298,34.1528822 282.314298,37.1028822 281.354298,40.1428822 C280.394298,43.1828822 280.034298,46.7428822 281.974298,49.3328822 C282.584298,50.1428822 283.384298,50.8128822 283.924298,51.6628822 C284.631216,52.977666 294.204298,61.4428822 294.984298,61.0628822 C296.724298,60.1928822 297.404298,58.2028822 298.274298,56.5128822 C299.144298,54.8228822 300.844298,53.0928822 302.754298,53.5128822 C304.664298,53.9328822 305.294298,56.1528822 306.694298,57.4228822 C308.524298,59.0928822 311.434298,59.0128822 313.874298,58.4228822 C316.314298,57.8328822 318.694298,56.7328822 321.224298,56.7728822 C327.154298,56.8728822 343.534298,62.7928822 344.634298,61.1828822 C345.734298,59.5728822 348.084298,59.1828822 349.934298,58.3828822 C354.644298,56.2128822 356.104298,50.3328822 355.324298,45.3828822 C354.754298,41.8328822 353.324298,38.1628822 354.504298,34.7428822 C354.904298,33.5628822 355.594298,32.4828822 355.964298,31.3028822 C356.964298,27.9828822 355.304298,24.3028822 352.644298,21.9628822 C349.984298,19.6228822 346.504298,18.3028822 343.084298,17.1528822 C334.284298,14.2128822 325.084298,11.3628822 315.694298,10.7528822 C311.594298,10.4928822 306.224298,9.21288224 302.974298,11.7528822 C299.174298,14.7928822 296.734298,17.0028822 291.964298,19.0228822 Z" transform="rotate(-16 318.416 35.83)"/>
    <path fill="#2F2E41" d="M356.472571,436.984265 C337.552175,436.984265 314.142862,430.716287 291.330364,408.061499 C235.48448,352.596994 182.428824,347.034048 181.89953,346.984578 L182.096399,344.88185 C182.633419,344.932355 236.441531,350.57157 292.818767,406.562795 C312.131537,425.743629 338.415583,434.724876 371.670905,433.506537 L372.12755,435.56906 C365.190939,436.509529 359.972613,436.981264 356.472571,436.984265 Z"/>
    <circle cx="210.847" cy="386.827" r="12" fill="#2F2E41"/>
    <circle cx="329" cy="458" r="12" fill="#2F2E41"/>
  </g>
</svg>
