<svg xmlns="http://www.w3.org/2000/svg" width="48" height="48" viewBox="0 0 48 48">
  <path fill="#07454C" d="M4,22.7111043 C4,22.3191729 4.31972419,22 4.71242398,22 C5.10607725,22 5.42484796,22.3184499 5.42484796,22.7111043 L5.42484796,25.4939348 C5.42484796,25.8858662 5.10512377,26.2050391 4.71242398,26.2050391 C4.31877071,26.2050391 4,25.8865892 4,25.4939348 L4,22.7111043 Z M11.8,21.4907026 C11.8,21.2204624 12.119418,21 12.512424,21 C12.9058248,21 13.224848,21.2204938 13.224848,21.4907026 L13.224848,27.2747184 C13.224848,27.5449586 12.90543,27.765421 12.512424,27.765421 C12.1190232,27.765421 11.8,27.5449272 11.8,27.2747184 L11.8,21.4907026 Z M7.9,20.6326769 C7.9,20.2842484 8.21941799,20 8.61242398,20 C9.00582477,20 9.32484796,20.284289 9.32484796,20.6326769 L9.32484796,28.0901732 C9.32484796,28.4386016 9.00542997,28.72285 8.61242398,28.72285 C8.21902319,28.72285 7.9,28.4385611 7.9,28.0901732 L7.9,20.6326769 Z M19.6,14.7136357 C19.6,14.3200307 19.9200002,14 20.312424,14 C20.7077874,14 21.024848,14.3165759 21.024848,14.7136357 L21.024848,34.1725502 C21.024848,34.5661552 20.7048478,34.8861859 20.312424,34.8861859 C19.9170605,34.8861859 19.6,34.56961 19.6,34.1725502 L19.6,14.7136357 Z M15.7,16.5398873 C15.7,16.2421131 16.0200002,16 16.412424,16 C16.8077874,16 17.124848,16.2394994 17.124848,16.5398873 L17.124848,31.2611547 C17.124848,31.5589289 16.8048478,31.801042 16.412424,31.801042 C16.0170605,31.801042 15.7,31.5615426 15.7,31.2611547 L15.7,16.5398873 Z M23.5,4.70985743 C23.5,4.31875075 23.8195882,4 24.212424,4 C24.6058859,4 24.924848,4.3184782 24.924848,4.70985743 L24.924848,43.6376664 C24.924848,44.0287731 24.6052597,44.3475239 24.212424,44.3475239 C23.8189621,44.3475239 23.5,44.0290457 23.5,43.6376664 L23.5,4.70985743 Z M27.4,7.75986448 C27.4,7.34079071 27.7199733,7 28.112424,7 C28.5061052,7 28.824848,7.33961297 28.824848,7.75986448 L28.824848,40.3322294 C28.824848,40.7513031 28.5048746,41.0920938 28.112424,41.0920938 C27.7187428,41.0920938 27.4,40.7524809 27.4,40.3322294 L27.4,7.75986448 Z M35.2,17.7158621 C35.2,17.320786 35.520243,17 35.912424,17 C36.3056903,17 36.624848,17.3198788 36.624848,17.7158621 L36.624848,31.6099415 C36.624848,32.0050176 36.304605,32.3258036 35.912424,32.3258036 C35.5191577,32.3258036 35.2,32.0059248 35.2,31.6099415 L35.2,17.7158621 Z M31.3,15.8619564 C31.3,15.3862526 31.620243,15 32.012424,15 C32.4056903,15 32.724848,15.3851602 32.724848,15.8619564 L32.724848,32.5915623 C32.724848,33.0672661 32.404605,33.4535187 32.012424,33.4535187 C31.6191577,33.4535187 31.3,33.0683585 31.3,32.5915623 L31.3,15.8619564 Z M43,22.7111043 C43,22.3191729 43.3197242,22 43.712424,22 C44.1060772,22 44.424848,22.3184499 44.424848,22.7111043 L44.424848,25.4939348 C44.424848,25.8858662 44.1051238,26.2050391 43.712424,26.2050391 C43.3187707,26.2050391 43,25.8865892 43,25.4939348 L43,22.7111043 Z M39.1,22.063718 C39.1,21.4774404 39.4197242,21 39.812424,21 C40.2060772,21 40.524848,21.4763589 40.524848,22.063718 L40.524848,26.2264641 C40.524848,26.8127417 40.2051238,27.2901821 39.812424,27.2901821 C39.4187707,27.2901821 39.1,26.8138232 39.1,26.2264641 L39.1,22.063718 Z"/>
</svg>
