<svg xmlns="http://www.w3.org/2000/svg" width="48" height="48" viewBox="0 0 48 48">
  <path fill="#07454C" d="M43.5914821,19.7517977 L43.5934685,19.7356621 L43.590407,19.8660665 C43.6272304,20.0495739 43.5561438,20.2380101 43.4072903,20.3514718 C43.2584367,20.4649336 43.0578992,20.4835396 42.8907121,20.3994003 C42.7024461,20.3178958 42.6148244,20.2843667 42.4129508,20.227759 C40.5989153,19.7190831 38.5400212,20.2610769 36.6347717,22.61057 C36.5519691,22.7126796 36.4698126,22.8179668 36.3883156,22.9264629 C34.8070926,25.0376087 32.8798391,26.262633 30.9709715,26.3960037 L30.6075604,26.3950309 C29.1537257,26.3683391 27.7651642,25.7531915 26.7636224,24.6889474 C26.4384565,24.3560728 26.1596304,23.9908106 25.9281228,23.5958323 L25.67089,23.1569637 L25.3050761,23.5104528 C23.4081375,25.3434803 22.0789705,27.6838318 21.4763475,30.2519462 L21.4705562,30.3814288 L21.4786407,30.5240167 C21.7472316,31.5570587 21.9494671,32.3825097 22.1242988,33.1771992 L22.1915607,33.4829351 L22.5045009,33.4911179 C26.5442506,33.5967497 30.0014793,36.4206196 30.9114859,40.3579568 L30.9741145,40.6289329 L31.2499397,40.6645826 C33.7033109,40.9816743 35.8745693,42.4093938 37.1379231,44.5362494 C37.2681814,44.7182842 37.2824614,44.9186941 37.1951369,45.0837927 C37.1078125,45.2488912 36.9341174,45.3498767 36.7474371,45.3440833 C36.5607568,45.3382898 36.393658,45.2267281 36.3167391,45.0565324 C35.0835202,42.967017 32.9160548,41.6686663 30.5357322,41.5668055 C30.3004142,41.5580327 30.1058515,41.3859983 30.0686901,41.1557075 C29.4979023,37.4266397 26.3776661,34.6126797 22.6064148,34.4286608 C18.8351636,34.2446419 15.4557874,36.7414522 14.5238422,40.4003697 C14.4767679,40.5809408 14.3282329,40.7199543 14.1427478,40.7553933 C12.038926,41.144881 10.3813117,42.7758211 9.95728871,44.8752903 C9.90902649,45.1001249 9.70368537,45.2623444 9.46897306,45.2571218 L9.28221544,45.2570228 C9.22172464,45.2398013 9.10588886,45.1638942 9.0320222,45.0530942 C8.95815554,44.9422942 8.9326396,44.8061738 8.96136228,44.6761433 C9.43505985,42.3661812 11.1639857,40.5241481 13.4335014,39.9068498 L13.6418733,39.8501736 L13.7088133,39.6448687 C14.7461888,36.4632368 17.4771448,34.129929 20.7816968,33.6018515 L21.2053307,33.5341535 L21.1081866,33.1162879 C20.0175286,28.4248154 18.4153128,23.8672014 16.3303104,19.5252878 L16.1716663,19.1949194 L15.8287116,19.324122 C14.9809049,19.6435194 14.0846496,19.8153255 13.1788296,19.8320866 C12.2126496,19.8436416 11.2574548,19.6034129 10.40941,19.1348888 C8.81186938,18.1846329 7.86122149,16.4195967 7.94765919,14.5500982 C7.9011687,10.8160078 6.70288521,7.21162193 4.51881688,4.21156964 C4.38463303,4.0434935 4.36536415,3.83153589 4.45860335,3.65857677 C4.55416687,3.48052619 4.74833472,3.37955891 4.94824811,3.40349598 C15.1110079,4.3714957 19.6780206,7.56668447 20.6133294,11.6332444 C21.1704334,14.3389286 19.9542307,17.1106611 17.577997,18.5373498 L17.413269,18.6276228 L17.0834773,18.8090083 L17.2444808,19.1492158 C18.5395788,21.8858149 19.6620394,24.7008279 20.6052732,27.5777295 L20.9360062,28.5864786 L21.3531848,27.6103019 C22.2134965,25.5972159 23.4992826,23.7941594 25.1222554,22.3249384 L25.3079124,22.1568695 L25.2378222,21.916447 C24.7510719,20.2468023 24.7925894,18.467481 25.3566843,16.8223561 C26.3375059,14.0411678 28.7578857,11.9460398 33.2840525,11.4431324 C36.9429289,11.0361757 39.6410969,12.4898091 41.5560653,15.2277611 C42.7202543,16.8922762 43.5914821,19.2801953 43.5914821,19.7517977 Z M35.7235839,22.3231489 L35.7413698,22.287577 C37.5824217,19.8486582 39.6813449,18.9819795 41.7788551,19.1997538 L42.5724782,19.2821518 L42.3005581,18.5320274 C40.9652397,14.8483904 38.4573361,12.2530294 34.4226451,12.2530294 C34.0630574,12.2639355 33.7197222,12.2920265 33.3784683,12.3374346 C29.3621127,12.7595992 27.0799996,14.5521738 26.1953128,17.1164835 C25.7881317,18.316688 25.689861,19.5974828 25.9087278,20.8432243 L26.0484628,21.6385651 L26.6981401,21.1589691 C28.1489607,20.087964 29.7531518,19.2421177 31.4564882,18.6500219 C31.5981328,18.6218769 31.7960857,18.7359741 31.8568948,18.9285362 C31.9177039,19.1210984 31.8211786,19.3281887 31.6346061,19.4054457 C29.860702,20.0491702 28.1775374,20.9739859 26.6651708,22.1392236 L26.3677372,22.3683882 L26.5048807,22.7179233 C26.6958872,23.2047382 26.9699309,23.6547112 27.3148131,24.0478124 C28.2137197,25.052393 29.5143558,25.5940177 30.855703,25.5246626 C32.5679854,25.4066483 34.2566102,24.2925556 35.6763703,22.3995421 L35.7235839,22.3231489 Z M14.0483282,13.4942356 C14.1891907,13.6057158 14.2820317,13.6989893 14.3268512,13.7740561 C14.4831565,14.0368199 14.6291972,14.2753392 14.798913,14.5739649 C15.2555482,15.3774431 15.7121142,16.2141035 16.1716663,17.1164835 C16.5455032,17.8420913 16.74736,18.1938502 16.7772365,18.1717604 C16.9583939,18.0378178 17.2301298,17.8369041 17.5924444,17.5690191 C19.3870948,16.2421062 20.2646877,13.9948096 19.8335481,11.8040923 C18.993791,8.12222956 14.5415734,5.57816271 7.55919572,4.48794432 L5.57945544,4.17883052 L6.52264139,5.94668888 C7.93592027,8.59566479 8.69034787,11.5452388 8.72556698,14.5739649 C8.61493853,15.9595245 9.26670646,17.3860251 10.44875,18.2651838 L10.6051095,18.3605735 L10.8410153,18.4763031 C12.1169915,19.1022662 13.5810662,19.2212544 14.9386651,18.8127508 C15.374143,18.6817148 15.7007515,18.5834379 15.9184905,18.5179199 C15.9562003,18.5065729 15.8138162,18.1902727 15.4913383,17.5690191 C15.0327534,16.6750117 14.5906758,15.7201788 14.1427478,14.9299423 C13.9763968,14.6364649 13.574722,13.8334838 13.5381067,13.7740561 C13.4503133,13.6332284 13.4919063,13.4538585 13.6281922,13.3688802 C13.7636041,13.2844469 13.9409078,13.3251044 14.0317839,13.4668268 L14.0483282,13.4942356 Z"/>
</svg>
