<svg xmlns="http://www.w3.org/2000/svg" width="1115" height="753" viewBox="0 0 1115 753">
  <g fill="none" transform="matrix(-1 0 0 1 1115 0)">
    <path fill="#B9EFE9" d="M343.4014,319.84923 C343.4014,449.1597 266.5284,494.31009 171.7007,494.31009 C76.873,494.31009 3.12638804e-13,449.1597 3.12638804e-13,319.84923 C3.12638804e-13,190.53876 171.7007,26.03545 171.7007,26.03545 C171.7007,26.03545 343.4014,190.53876 343.4014,319.84923 Z"/>
    <polygon fill="#3F3D56" points="165.446 474.53 167.204 366.308 240.387 232.423 167.48 349.332 168.27 300.671 218.708 203.806 168.48 287.794 168.48 287.794 169.901 200.275 223.911 123.159 170.125 186.513 171.013 26.035 165.431 238.479 165.889 229.715 110.977 145.663 165.009 246.539 159.892 344.282 159.74 341.687 96.436 253.235 159.548 350.852 158.908 363.076 158.794 363.26 158.846 364.264 145.865 612.246 163.209 612.246 165.29 484.158 228.247 386.78"/>
    <path fill="#FFBCA3" d="M1114.7054,628.3912 C1114.7054,673.12626 884.57976,752.3912 600.7054,752.3912 C316.83104,752.3912 86.7054,673.12626 86.7054,628.3912 C86.7054,583.65614 316.83104,590.3912 600.7054,590.3912 C884.57976,590.3912 1114.7054,583.65613 1114.7054,628.3912 Z"/>
    <ellipse cx="600.705" cy="628.391" fill="#FFBCA3" rx="514" ry="81"/>
    <path fill="#F5DD48" d="M1053.4014,541.87831 C1053.4014,601.68416 1017.85291,622.55859 973.99116,622.55859 C972.97724,622.55859 971.96332,622.5479 970.96022,622.52659 C968.92196,622.48386 966.91549,622.38785 964.91996,622.23843 C925.33743,619.45305 894.59134,597.50075 894.59134,541.8783 C894.59134,484.30286 968.20676,411.62658 973.67095,406.31188 L973.68163,406.3012 C973.88434,406.09843 973.99116,406.00242 973.99116,406.00242 C973.99116,406.00242 1053.4014,482.08308 1053.4014,541.87831 Z"/>
    <path fill="#3F3D56" d="M971.09896,613.41268 L1000.14811,572.83779 L971.035,617.86295 L970.96022,622.5266 C968.92196,622.48387 966.91549,622.38786 964.91996,622.23844 L968.04679,562.42191 L968.02542,561.95234 L968.07883,561.86694 L968.37768,556.22148 L939.18968,511.07894 L968.4629,551.98466 L968.53768,553.17992 L970.89615,507.97335 L945.91309,461.32603 L971.20567,500.03338 L973.67097,406.31189 L973.68165,406.00243 L973.68165,406.30121 L973.2653,480.21548 L998.14179,450.92083 L973.1587,486.58669 L972.5076,527.05489 L995.72987,488.21948 L972.41159,533.00988 L972.04877,555.51709 L1005.76158,501.45278 L971.9207,563.36105 L971.09896,613.41268 Z"/>
    <path fill="#F5DD48" d="M227.4014,622.62846 C227.4014,651.55415 210.20802,661.65027 188.99385,661.65027 C188.50346,661.65027 188.01307,661.64511 187.52791,661.63481 C186.54208,661.61414 185.57163,661.5677 184.60648,661.49543 C165.46199,660.14826 150.59134,649.53081 150.59134,622.62843 C150.59134,594.7815 186.19617,559.63089 188.83898,557.06043 L188.84414,557.05526 C188.94214,556.95719 188.99385,556.91075 188.99385,556.91075 C188.99385,556.91075 227.4014,593.7079 227.4014,622.62846 Z"/>
    <path fill="#3F3D56" d="M187.59501,657.22676 L201.64492,637.60232 L187.56407,659.37918 L187.52791,661.63481 C186.54208,661.61414 185.57163,661.5677 184.60648,661.49543 L186.1188,632.5646 L186.10846,632.33749 L186.1343,632.29619 L186.27884,629.5657 L172.16176,607.73207 L186.32004,627.51653 L186.35621,628.09462 L187.49691,606.23002 L175.41361,583.6686 L187.64661,602.3898 L188.83898,557.06047 L188.84414,556.91079 L188.84414,557.0553 L188.64277,592.80467 L200.67453,578.63602 L188.59123,595.88617 L188.27632,615.45901 L199.508,596.67588 L188.22988,618.33921 L188.0544,629.22504 L204.35993,603.0763 L187.99246,633.0188 L187.59501,657.22676 Z"/>
    <path fill="#33CCAB" d="M894.4014,641.62846 C894.4014,670.55415 877.20802,680.65027 855.99385,680.65027 C855.50346,680.65027 855.01307,680.64511 854.52791,680.63481 C853.54208,680.61414 852.57163,680.5677 851.60648,680.49543 C832.46199,679.14826 817.59134,668.53081 817.59134,641.62843 C817.59134,613.7815 853.19617,578.63089 855.83898,576.06043 L855.84414,576.05526 C855.94214,575.95719 855.99385,575.91075 855.99385,575.91075 C855.99385,575.91075 894.4014,612.7079 894.4014,641.62846 Z"/>
    <path fill="#3F3D56" d="M854.59501,676.22676 L868.64492,656.60232 L854.56407,678.37918 L854.52791,680.63481 C853.54208,680.61414 852.57163,680.5677 851.60648,680.49543 L853.1188,651.5646 L853.10846,651.33749 L853.1343,651.29619 L853.27884,648.5657 L839.16176,626.73207 L853.32004,646.51653 L853.35621,647.09462 L854.49691,625.23002 L842.41361,602.6686 L854.64661,621.3898 L855.83898,576.06047 L855.84414,575.91079 L855.84414,576.0553 L855.64277,611.80467 L867.67453,597.63602 L855.59123,614.88617 L855.27632,634.45901 L866.508,615.67588 L855.22988,637.33921 L855.0544,648.22504 L871.35993,622.0763 L854.99246,652.0188 L854.59501,676.22676 Z"/>
    <g transform="translate(374)">
      <path fill="#000" d="M415,661.029425 C415,671.729815 322.09909,680.404185 207.5,680.404185 C92.90091,680.404185 0,671.729815 0,661.029425 C0,650.329035 85.4138,626.316315 200.01289,626.316315 C314.61198,626.316315 415,650.329085 415,661.029425 Z" opacity=".1"/>
      <rect width="81.442" height="67.401" x="137.389" y="32.296" fill="#2F2E41"/>
      <polygon fill="#A0616A" points="277.255 596.309 284.285 623.257 265.538 626.186 256.751 598.066"/>
      <polygon fill="#A0616A" points="144.27 592.208 144.27 620.914 124.352 620.914 127.281 592.208"/>
      <path fill="#2F2E41" d="M262.02308 620.913835C262.02308 620.913835 276.08308 614.469645 284.28481 620.913835 292.48654 627.358025 296.58734 642.003895 296.58734 642.003895 296.58734 642.003895 317.67741 668.952305 293.07234 667.780635 268.46727 666.608965 267.2956 663.679785 267.2956 659.578945 267.2956 655.478105 268.46727 650.791415 264.36643 649.033945 260.26559 647.276475 258.50808 639.074745 259.67975 636.731405 260.85142 634.388065 262.02308 620.913835 262.02308 620.913835zM147.78524 616.227155C147.78524 616.227155 128.45268 603.860035 124.35184 613.558605 120.251 623.257175 114.39264 635.559705 114.39264 635.559705 114.39264 635.559705 97.98926 661.336445 118.49349 661.922285 138.99772 662.508125 142.51272 659.578945 144.27023 654.306425 146.02774 649.033905 144.27023 644.933065 147.78523 644.933065 151.30023 644.933065 153.05775 637.317215 151.30023 633.802205 149.54271 630.287195 147.78524 616.227155 147.78524 616.227155z"/>
      <path fill="#A0616A" d="M203.43957,71.9863846 C203.43957,71.9863846 198.75289,98.3489646 211.05543,100.106465 C223.35797,101.863965 235.6605,107.136465 236.24633,110.651465 C236.83216,114.166465 188.20786,151.659915 188.20786,151.659915 L158.33027,142.286555 C158.33027,142.286555 128.45268,134.670695 129.62435,128.812345 C130.79602,122.953995 133.13935,114.752345 133.13935,114.752345 C133.13935,114.752345 167.11779,107.722345 167.70362,97.1772946 C168.28945,86.6322446 172.3903,69.6430446 172.3903,69.6430446 L203.43957,71.9863846 Z"/>
      <path fill="#000" d="M203.43957,71.9863846 C203.43957,71.9863846 198.75289,98.3489646 211.05543,100.106465 C223.35797,101.863965 235.6605,107.136465 236.24633,110.651465 C236.83216,114.166465 188.20786,151.659915 188.20786,151.659915 L158.33027,142.286555 C158.33027,142.286555 128.45268,134.670695 129.62435,128.812345 C130.79602,122.953995 133.13935,114.752345 133.13935,114.752345 C133.13935,114.752345 167.11779,107.722345 167.70362,97.1772946 C168.28945,86.6322446 172.3903,69.6430446 172.3903,69.6430446 L203.43957,71.9863846 Z" opacity=".1"/>
      <path fill="#2F2E41" d="M126.10934,237.191875 C126.10934,237.191875 147.32888,257.456225 189.44427,255.525745 C231.55966,253.595265 228.04464,268.241085 228.04464,268.241085 L226.28714,291.674495 C226.28714,291.674495 248.54887,389.508945 245.61969,441.062425 C245.61969,441.062425 246.79136,465.667505 254.99306,479.141705 C263.19476,492.615905 285.45648,592.207875 281.94147,599.823705 C278.42646,607.439535 252.64971,604.510385 252.64971,604.510385 C252.64971,604.510385 228.63048,513.705955 216.91378,493.201725 C205.19708,472.697495 204.02541,460.980805 204.02541,460.980805 L164.18862,344.985525 L158.91611,395.367335 C158.91611,395.367335 159.50194,435.204115 159.50194,438.719125 C159.50194,442.234135 158.91611,470.354225 156.57277,476.212575 C154.22943,482.070925 145.4419,575.804575 150.71442,591.622075 C155.98694,607.439575 123.18017,598.652075 123.18017,598.652075 C123.18017,598.652075 113.22097,496.716775 116.15017,476.798385 C119.07937,456.879995 111.46349,421.144055 111.46349,421.144055 C111.46349,421.144055 89.20176,312.178735 101.50429,294.603685 C101.50429,294.603685 109.70598,234.848515 113.80683,235.434345 L126.10934,237.191875 Z"/>
      <circle cx="186.743" cy="52.361" r="32.221" fill="#A0616A"/>
      <path fill="#F5DD48" d="M104.43345,255.938595 C105.03101,257.731285 112.02002,254.040495 118.73366,249.992355 C125.18958,246.102355 131.38186,241.878555 131.38186,241.878555 C138.41186,264.140285 182.93534,255.352755 182.93534,255.352755 C182.93534,255.352755 183.04665,255.510945 183.25168,255.792135 C184.72213,257.789785 191.06674,266.120405 198.75289,271.756135 C207.54042,278.200325 228.04464,262.968615 228.04464,262.968615 C228.04464,262.968615 259.92578,186.616685 264.0032,146.170685 C264.89951,137.271815 264.45427,130.107055 262.02308,125.883215 C248.54887,102.449805 229.59126,105.402445 229.59126,105.402445 C226.44526,113.633385 201.09626,125.883215 201.09626,125.883215 L175.90535,130.569895 C150.71445,135.256575 143.09859,108.893995 143.09859,108.893995 C136.06859,107.722325 123.1802,120.610695 123.1802,120.610695 C110.87766,124.125695 104.43348,165.134165 104.43348,165.134165 C104.43348,165.134165 105.65789,166.657315 107.56768,169.088545 C108.64568,170.453545 109.94034,172.105545 111.35805,173.939275 C111.85013,174.571955 112.35398,175.228085 112.86952,175.895945 C119.36641,184.367095 127.57396,195.503825 129.62438,200.284265 C133.13938,208.485955 126.10938,220.788495 117.90768,220.202655 C109.70598,219.616815 103.26178,252.423585 104.43345,255.938595 Z"/>
      <path fill="#A0616A" d="M187.03619 287.573685C187.03619 287.573685 159.50194 322.137955 147.19941 309.835415 134.89688 297.532875 182.93534 268.826965 182.93534 268.826965L187.03619 287.573685zM117.32182 277.028655C117.32182 277.028655 141.34105 313.350425 127.86682 314.522095 114.39259 315.693765 97.98923 290.502865 97.98923 290.502865L117.32182 277.028655z"/>
      <path fill="#2F2E41" d="M113.98412,103.244745 C117.07453,96.4254046 121.22754,90.0256246 123.20656,82.8050246 C125.57856,74.1505146 124.65484,64.9935546 124.37265,56.0242446 C124.12318,48.0955146 124.40154,40.0745346 126.38013,32.3925646 C128.35872,24.7105946 132.14354,17.3384946 138.06129,12.0557546 C153.15258,-1.41624538 180.77182,-2.38362538 199.19935,3.22467462 C206.46404,5.43567462 214.20279,9.64604462 216.00413,17.0230146 C216.27606,18.1367246 216.39802,19.2843346 216.70167,20.3897746 C218.21038,25.8822346 223.82927,29.3575546 225.85659,34.6804146 C228.47876,41.5651546 224.43559,49.0521446 223.90704,56.4003246 C223.29004,64.9792546 227.50726,73.0839646 231.66404,80.6138646 C234.13514,85.0902246 236.70446,89.8586446 236.45921,94.9658646 C236.254233,97.7591748 235.404945,100.467027 233.97795,102.877065 C228.9931,111.757995 218.81611,117.135915 208.63537,117.404065 C205.33,117.491165 201.86608,117.038195 199.14272,115.162985 C194.64555,112.066325 193.32839,105.830745 194.26525,100.451525 C195.20211,95.0723046 197.93269,90.2070646 200.07211,85.1835246 C200.72863,83.6419846 201.32111,82.0742746 201.8673,80.4908346 C215.564403,72.8449086 221.76572,56.4466333 216.555491,41.6505422 C211.345261,26.8544511 196.237434,17.9598831 180.771702,20.5832279 C165.30597,23.2065727 153.976251,36.5855581 153.936588,52.2721521 C153.896925,67.9587461 165.158842,81.3948541 180.61111,84.0963746 C182.224405,92.2236318 181.491227,100.642197 178.49726,108.368205 C176.01518,114.746305 172.14407,120.473075 168.30526,126.139205 C166.47016,128.847835 164.56055,131.630695 161.8122,133.405725 C160.079577,134.431461 158.219973,135.225657 156.28091,135.768015 C148.14691,138.383965 139.58154,140.488875 131.11872,139.312015 C122.6559,138.135155 114.2746,133.030885 111.39087,124.987955 C108.864,117.940395 110.89372,110.064085 113.98412,103.244745 Z"/>
      <ellipse cx="184.4" cy="32.443" fill="#2F2E41" rx="35.15" ry="19.918"/>
      <path fill="#000" d="M183.25168,255.792135 C184.72213,257.789785 191.06674,266.120405 198.75289,271.756135 C207.54042,278.200325 228.04464,262.968615 228.04464,262.968615 C228.04464,262.968615 259.92578,186.616685 264.0032,146.170685 C261.777737,139.455909 259.160422,132.877417 256.16473,126.469085 L262.90183,153.710415 C262.90183,153.710415 232.73132,178.022575 226.28714,187.981765 C219.84296,197.940955 225.7013,231.333565 226.28714,236.606075 C226.87298,241.878585 214.57044,243.636075 208.71209,243.050265 C202.85374,242.464455 201.68209,247.736945 196.40955,247.736945 C193.86118,247.736905 188.31331,251.697155 183.25168,255.792135 Z" opacity=".1"/>
      <path fill="#F5DD48" d="M253.23555,126.469085 L262.02308,126.469085 C262.02308,126.469085 283.69897,170.406715 281.35563,220.202695 C279.01229,269.998675 254.99306,289.917065 227.45881,296.361255 C199.92456,302.805445 187.62202,306.906255 184.10701,302.805435 C180.592,298.704615 178.8345,264.726085 178.8345,264.726085 C178.8345,264.726085 196.99538,247.736875 202.2679,247.736875 C207.54042,247.736875 208.71209,242.464355 214.57044,243.050195 C220.42879,243.636035 232.73132,241.878525 232.14549,236.606005 C231.55966,231.333485 225.7013,197.940895 232.14549,187.981695 C238.58968,178.022495 253.23555,126.469085 253.23555,126.469085 Z"/>
      <path fill="#000" d="M107.56765 169.088545C108.64565 170.453545 109.94031 172.105545 111.35802 173.939275L107.94846 166.891665C107.94846 166.891665 107.80786 167.688395 107.56765 169.088545zM104.43345 255.938595C105.03101 257.731285 112.02002 254.040495 118.73366 249.992355 118.66337 249.640865 118.58721 249.277655 118.49349 248.908575 116.73598 241.878575 129.03849 224.889335 129.03849 224.889335L137.24018 202.627605 135.48267 172.750015 112.86946 175.895945C119.36635 184.367095 127.5739 195.503825 129.62432 200.284265 133.13932 208.485955 126.10932 220.788495 117.90762 220.202655 109.70592 219.616815 103.26178 252.423585 104.43345 255.938595z" opacity=".1"/>
      <path fill="#F5DD48" d="M116.15015,153.417455 L104.43345,165.134165 C104.43345,165.134165 96.23176,212.586795 96.23176,215.515975 C96.23176,218.445155 82.17176,237.191875 85.68676,250.080245 C89.20176,262.968615 91.54512,279.957835 88.61594,283.472845 C85.68676,286.987855 81.58594,296.947045 88.61594,301.633725 C95.64594,306.320405 104.43349,274.685315 125.52355,282.887005 C125.52355,282.887005 112.63518,262.382775 113.22101,260.625275 C113.80684,258.867775 116.73601,254.181085 114.97852,247.151065 C113.22103,240.121045 125.52352,223.131835 125.52352,223.131835 L133.7252,200.870085 L131.96769,170.992505 L116.15015,153.417455 Z"/>
    </g>
  </g>
</svg>
