<svg xmlns="http://www.w3.org/2000/svg" width="248" height="460" viewBox="0 0 248 460">
  <g fill="none" fill-rule="evenodd" transform="rotate(-31 103.719 342.362)">
    <path stroke="#07454C" d="M0.443960606,416.950235 C105.978525,399.864094 183.077773,357.54 226.387773,266.37 C244.567773,228.12 250.607773,185.18 242.207773,143.67 C238.188508,123.983193 232.374212,104.705975 224.837773,86.08"/>
    <path fill="#33CCAB" fill-rule="nonzero" d="M233.261156,36.0342199 C233.261156,51.2142199 205.781156,95.2242199 205.781156,95.2242199 C205.781156,95.2242199 178.301156,51.2242199 178.301156,36.0342199 C178.301156,20.8463893 190.613325,8.53421991 205.801156,8.53421991 C220.988986,8.53421991 233.301156,20.8463893 233.301156,36.0342199 L233.261156,36.0342199 Z" transform="rotate(-30 205.801 51.88)"/>
    <path fill="#33CCAB" fill-rule="nonzero" d="M293.09591 90.2625848C284.84591 103.002585 237.86591 125.012585 237.86591 125.012585 237.86591 125.012585 238.71591 73.1325848 246.96591 60.3925848 252.246531 52.0259064 261.617083 47.143737 271.499833 47.6101178 281.382583 48.0764985 290.251722 53.8194243 294.720959 62.6462121 299.190196 71.4729999 298.569521 82.0208706 293.09591 90.2625848L293.09591 90.2625848zM295.197773 256.25C281.647773 263.08 229.977773 258.36 229.977773 258.36 229.977773 258.36 256.897773 214.01 270.447773 207.18 283.976997 200.484502 300.374105 205.955635 307.172153 219.433623 313.970201 232.911611 308.623747 249.349795 295.197773 256.25z"/>
    <path fill="#33CCAB" fill-rule="nonzero" d="M238.041327,388.662586 C225.841327,397.662586 174.121327,401.762586 174.121327,401.762586 C174.121327,401.762586 193.121327,353.502586 205.361327,344.472586 C217.564059,335.448253 234.771995,338.024854 243.796327,350.227586 C252.82066,362.430318 250.244059,379.638253 238.041327,388.662586 L238.041327,388.662586 Z" transform="rotate(80 211.653 370.424)"/>
    <path fill="#33CCAB" fill-rule="nonzero" d="M184.093798 169.972225C194.983798 180.542225 245.693798 191.502225 245.693798 191.502225 245.693798 191.502225 233.273798 141.122225 222.383798 130.552225 211.460955 120.222996 194.265355 120.588157 183.790859 131.371773 173.316362 142.155389 173.451341 159.354336 184.093798 169.972225L184.093798 169.972225zM155.497773 277.35C169.047773 284.18 220.717773 279.46 220.717773 279.46 220.717773 279.46 193.797773 235.11 180.197773 228.25 166.689235 221.689604 150.415977 227.188356 143.655257 240.597756 136.894536 254.007157 142.150479 270.360452 155.457773 277.32L155.497773 277.35zM59.4807388 365.760742C71.6807388 374.760742 123.400739 378.860742 123.400739 378.860742 123.400739 378.860742 104.400739 330.600742 92.1607388 321.570742 84.2787176 315.546374 73.7615155 314.238064 64.6437318 318.147705 55.5259481 322.057346 49.2232895 330.577892 48.1535761 340.4407 47.0838627 350.303508 51.4131874 359.977192 59.4807388 365.750742L59.4807388 365.760742z"/>
  </g>
</svg>
