<svg xmlns="http://www.w3.org/2000/svg" width="190" height="456" viewBox="0 0 190 456">
  <g fill="none" fill-rule="evenodd" transform="scale(1 -1) rotate(-20 -1232.954 -21.508)">
    <path stroke="#29A389" stroke-width="2" d="M86.5477725,480.37 C86.5477725,480.37 50.0777725,356.54 93.3877725,265.37 C111.567773,227.12 117.607773,184.18 109.207773,142.67 C105.188508,122.983193 99.3742121,103.705975 91.8377725,85.08"/>
    <path fill="#B9EFE9" fill-rule="nonzero" d="M118.787773 27.5C118.787773 42.68 91.3077725 86.69 91.3077725 86.69 91.3077725 86.69 63.8277725 42.69 63.8277725 27.5 63.8277725 12.3121694 76.1399419-6.25277607e-13 91.3277725-6.25277607e-13 106.515603-6.25277607e-13 118.827773 12.3121694 118.827773 27.5L118.787773 27.5zM164.197773 111.56C155.947773 124.3 108.967773 146.31 108.967773 146.31 108.967773 146.31 109.817773 94.43 118.067773 81.69 123.348393 73.3233216 132.718945 68.4411522 142.601695 68.907533 152.484445 69.3739138 161.353584 75.1168396 165.822821 83.9436273 170.292058 92.7704151 169.671383 103.318286 164.197773 111.56L164.197773 111.56zM162.197773 255.25C148.647773 262.08 96.9777725 257.36 96.9777725 257.36 96.9777725 257.36 123.897773 213.01 137.447773 206.18 150.976997 199.484502 167.374105 204.955635 174.172153 218.433623 180.970201 231.911611 175.623747 248.349795 162.197773 255.25zM136.197773 363.57C123.997773 372.57 72.2777725 376.67 72.2777725 376.67 72.2777725 376.67 91.2777725 328.41 103.517773 319.38 115.720504 310.355667 132.92844 312.932268 141.952773 325.135 150.977105 337.337732 148.400504 354.545667 136.197773 363.57L136.197773 363.57zM51.2777725 149.25C62.1677725 159.82 112.877773 170.78 112.877773 170.78 112.877773 170.78 100.457773 120.4 89.5677725 109.83 78.6449295 99.5007713 61.4493297 99.865932 50.9748329 110.649548 40.500336 121.433164 40.6353148 138.632111 51.2777725 149.25L51.2777725 149.25zM22.4977725 276.35C36.0477725 283.18 87.7177725 278.46 87.7177725 278.46 87.7177725 278.46 60.7977725 234.11 47.1977725 227.25 33.6892353 220.689604 17.4159774 226.188356 10.6552565 239.597756 3.89453561 253.007157 9.15047876 269.360452 22.4577725 276.32L22.4977725 276.35zM11.4877725 403.73C23.6877725 412.73 75.4077725 416.83 75.4077725 416.83 75.4077725 416.83 56.4077725 368.57 44.1677725 359.54 36.2857512 353.515632 25.7685492 352.207322 16.6507655 356.116963 7.53298176 360.026603 1.23032321 368.54715.160609777 378.409958-.909103653 388.272766 3.42022109 397.94645 11.4877725 403.72L11.4877725 403.73z"/>
  </g>
</svg>
