<svg xmlns="http://www.w3.org/2000/svg" width="896" height="604" viewBox="0 0 896 604">
  <g fill="none" transform="translate(.87)">
    <path fill="#FFBCA3" d="M895.13,603.647654 C895.13,550.818668 704.338643,527.123237 673.631514,529.115709 C642.924385,531.108181 452.13,548.054371 452.13,603.647654 C452.13,604.440432 895.13,603.647654 895.13,603.647654 Z" opacity=".5"/>
    <path fill="#3F3D56" d="M828.131214,553.15302 C828.138588,555.760651 827.870431,558.361771 827.331059,560.91302 C827.231059,561.39302 827.121059,561.91302 827.011059,562.32302 C824.171059,573.71302 816.161059,582.04302 806.601059,582.57302 C806.281059,582.57302 805.961059,582.57302 805.601059,582.57302 C795.491059,582.57302 786.941059,573.85302 784.121059,561.84302 C784.041059,561.52302 783.971059,561.20302 783.901059,560.84302 C783.361688,558.291771 783.093531,555.690651 783.100905,553.08302 C783.100905,536.81302 793.171059,523.63302 805.601059,523.63302 C818.031059,523.63302 828.131214,536.91302 828.131214,553.15302 Z"/>
    <path fill="#000" d="M828.131214,553.15302 C828.138588,555.760651 827.870431,558.361771 827.331059,560.91302 C827.231059,561.39302 827.121059,561.91302 827.011059,562.32302 C826.671059,562.32302 826.341059,562.32302 826.011059,562.32302 C823.534682,562.189675 821.073242,561.855241 818.651059,561.32302 C816.504973,561.986336 814.312155,562.487742 812.091059,562.82302 C810.388095,563.079382 808.672045,563.239636 806.951059,563.30302 L805.211059,563.30302 C803.150902,563.30302 801.093017,563.166258 799.051059,562.89302 C795.749088,562.452049 792.506031,561.647154 789.381059,560.49302 C787.670296,561.062569 785.92723,561.530058 784.161059,561.89302 C784.081059,561.57302 784.011059,561.25302 783.941059,560.89302 C783.401688,558.341771 783.133531,555.740651 783.140905,553.13302 C783.140905,536.86302 793.211059,523.68302 805.641059,523.68302 C818.071059,523.68302 828.131214,536.91302 828.131214,553.15302 Z" opacity=".1"/>
    <path fill="#F5DD48" d="M876.131644,498.29302 C876.140558,491.133355 874.461807,484.072321 871.231059,477.68302 L844.771059,485.91302 L868.001059,472.25302 C860.107902,460.855327 847.470283,453.653797 833.641059,452.67302 C832.554403,451.024126 831.361897,449.447481 830.071059,447.95302 L792.071059,459.78302 L823.241059,441.45302 C811.131936,432.15955 795.184249,429.52063 780.726908,434.418054 C766.269568,439.315478 755.20899,451.103448 751.241059,465.84302 L783.791059,503.31302 L748.481059,477.77302 C729.994239,490.885013 723.897478,515.557953 734.149477,535.771398 C744.401476,555.984844 767.910163,565.642282 789.411059,558.47302 C798.82095,561.932071 809.104325,562.216549 818.691059,559.28302 C832.22797,562.262301 846.385791,558.948056 857.19376,550.269813 C868.001728,541.591571 874.295927,528.483895 874.311059,514.62302 C874.311059,513.62302 874.311059,512.62302 874.211059,511.62302 C875.506865,507.299113 876.15391,502.806862 876.131644,498.29302 L876.131644,498.29302 Z"/>
    <path fill="#000" d="M875.341059,506.77302 C861.367297,504.12441 847.037826,503.941654 833.001059,506.23302 C817.111059,508.86302 800.871059,514.64302 785.331059,510.42302 C776.211059,507.94302 768.331059,502.20302 759.421059,499.01302 C750.824404,496.013822 741.563926,495.459924 732.671059,497.41302 C725.750074,513.970263 729.145947,533.044721 741.356017,546.196014 C753.566086,559.347308 772.33636,564.147695 789.361059,558.47302 C798.77095,561.932071 809.054325,562.216549 818.641059,559.28302 C832.17797,562.262301 846.335791,558.948056 857.14376,550.269813 C867.951728,541.591571 874.245927,528.483895 874.261059,514.62302 C874.261059,513.62302 874.261059,512.62302 874.161059,511.62302 C874.643445,510.029328 875.037379,508.410192 875.341059,506.77302 Z" opacity=".1"/>
    <rect width="729" height="365" fill="#3F3D56" rx="7.21"/>
    <path fill="#000" d="M0,343 L729,343 L729,357.79 C729,361.771973 725.771973,365 721.79,365 L7.21,365 C3.22802695,365 0,361.771973 0,357.79 L0,343 Z" opacity=".1"/>
    <rect width="54" height="22" x="71" y="321" fill="#999" rx="2.5"/>
    <rect width="37" height="4" x="140" y="339" fill="#999" rx="2"/>
    <path fill="#FFF" d="M107.15,71.38 C133.54,76.25 160.46,71.38 186.74,68.08 L266.61,58.08 C269.84,57.67 274.54,55.74 276.44,59.69 C277.51,61.9 276.79,66.69 276.87,69.23 C277.08,76.23 277.06,83.23 276.87,90.23 C276.51,103.61 275.53,116.96 274.28,130.28 C271.85,156.35 268.41,182.28 266.69,208.45 C265.81,221.77 265.37,235.13 265.76,248.45 C265.85,251.63 265.98,254.81 266.17,257.98 C266.38,261.53 267.97,266.8 264.1,269.17 C261.89,270.53 257.54,270.46 255.01,270.86 C251.01,271.49 247.01,271.99 242.93,272.4 C216.04,275.09 188.8,273.97 161.81,273.81 L80.31,273.39 L60.43,273.28 C58.63,273.28 52.14,274.36 51.03,272.22 C50.56,271.31 51.81,267.05 52.03,265.91 C52.3366667,264.03 52.67,262.153333 53.03,260.28 C55.35,247.13 58.09,234.06 60.85,221 C66.78,193 72.85,164.86 75.29,136.26 C76.5,121.91 75.7,107.43 77.18,93.11 C77.87,86.46 78.69,71.62 87.54,71.03 C95.04,70.53 102.76,71.03 110.28,71.03 C111.108427,71.03 111.78,70.3584271 111.78,69.53 C111.78,68.7015729 111.108427,68.03 110.28,68.03 C103.18,68.03 96.07,67.84 88.97,67.98 C84.25,68.07 80.97,69.19 78.72,73.53 C72.97,84.67 73.56,99.53 73.38,111.69 C72.95,140.8 68.48,169.29 62.66,197.76 C59.73,212.09 56.57,226.37 53.66,240.71 C52.29,247.56 50.98,254.43 49.78,261.32 C49.22,264.6 46.39,271.83 48.88,274.84 C51.37,277.85 59.03,276.23 62.46,276.25 L86.32,276.39 L132.04,276.65 C161.58,276.82 191.22,277.65 220.75,276.78 C234.85,276.36 249.75,275.78 263.48,272.41 C267.57,271.41 269.54,269.53 269.7,265.17 C269.94,258.41 268.84,251.44 268.7,244.65 C267.7,186.55 281.35,129.26 279.95,71.14 C279.86,67.19 281.35,57.23 277.03,54.84 C275.09,53.76 272.57,54.35 270.53,54.59 C266.63,55.04 262.74,55.59 258.84,56.05 L208.19,62.37 C192,64.37 175.82,66.53 159.6,68.37 C142.43,70.37 125.09,71.56 107.98,68.37 C106.09,68.02 105.28,70.91 107.18,71.26 L107.15,71.38 Z"/>
    <path fill="#FFF" d="M75.31 106.73L275.13 96.93C277.06 96.83 277.07 93.83 275.13 93.93L75.31 103.73C73.39 103.82 73.38 106.82 75.31 106.73zM173.09 124.68C158.62 124.12 142.99 128.03 133.46 139.68 126 148.79 121.75 164.42 129.65 174.68 138.14 185.68 156.76 183.74 167.99 179.05 179.87 174.05 192.87 163.74 196.44 150.84 200.89 134.73 186.44 122.55 171.39 122.37 169.46 122.37 169.46 125.37 171.39 125.37 179.97 125.47 188.39 129.15 192.39 137.14 196.58 145.56 192.97 154.4 187.39 161.14 178.45 171.87 164.47 179.96 150.23 179.73 141.68 179.6 132.23 176.67 129.58 167.65 127.4 160.34 129.06 152.35 132.86 145.87 141.08 131.87 157.81 127.13 173.15 127.73 175.08 127.8 175.08 124.8 173.15 124.73L173.09 124.68z"/>
    <path fill="#FFF" d="M156.31 152.38C157.54 156.38 152.46 157.7 150.05 159.08 148.358787 160.02844 146.884037 161.319272 145.72 162.87 143.2 166.25 142.26 170.55 141.43 174.6 141.05 176.49 143.94 177.29 144.33 175.4 144.787487 172.423998 145.638261 169.521951 146.86 166.77 148.66 163.19 151.24 161.99 154.6 160.15 157.96 158.31 160.39 155.46 159.2 151.58 158.64 149.74 155.74 150.53 156.31 152.38L156.31 152.38zM283.08 193.2C295.08 185.86 304.62 174.91 315.22 165.75 326.72 155.82 338.79 146.57 351.22 137.81 375.36 120.81 400.71 105.6 426.04 90.43 426.722238 89.9984109 426.940531 89.1042785 426.533928 88.4068605 426.127325 87.7094425 425.241683 87.4589169 424.53 87.84 399.2 103.01 373.84 118.19 349.7 135.22 338.31 143.22 327.19 151.7 316.53 160.7 304.93 170.5 294.6 182.7 281.53 190.61 279.88 191.61 281.39 194.21 283.04 193.2L283.08 193.2z"/>
    <path fill="#FFF" d="M464.77 43.85C451.77 45.17 437.77 48.48 429.77 59.85 422.86 69.63 423.01 86.69 429.5 96.73 436.87 108.14 451.93 108.55 463.63 104.86 475.33 101.17 487.44 94.7 487.33 80.72 487.27 73.22 484.56 65.41 481.57 58.61 478.99 52.74 474.42 47.61 467.5 48.26 465.59 48.44 465.57 51.44 467.5 51.26 476.77 50.4 479.75 61.41 481.95 68.36 483.95 74.85 485.8 82.53 482.66 88.98 479.52 95.43 471.95 98.72 465.48 101.08 458.48 103.62 450.79 105.17 443.48 103.08 429 99.03 425 80.68 429.17 67.66 433.97 52.66 450.97 48.25 464.82 46.85 466.72 46.66 466.74 43.66 464.82 43.85L464.77 43.85zM484.77 159.85C471.77 161.17 457.77 164.48 449.77 175.85 442.86 185.63 443.01 202.69 449.5 212.73 456.87 224.14 471.93 224.55 483.63 220.86 495.33 217.17 507.44 210.7 507.33 196.72 507.27 189.22 504.56 181.41 501.57 174.61 498.99 168.74 494.42 163.61 487.5 164.26 485.59 164.44 485.57 167.44 487.5 167.26 496.77 166.4 499.75 177.41 501.95 184.36 503.95 190.85 505.8 198.53 502.66 204.98 499.52 211.43 491.95 214.72 485.48 217.08 478.48 219.62 470.79 221.17 463.48 219.08 449 215.03 445 196.68 449.17 183.66 453.97 168.66 470.97 164.25 484.82 162.85 486.72 162.66 486.74 159.66 484.82 159.85L484.77 159.85z"/>
    <path fill="#FFF" d="M445.16 73.06L454.63 83.86C455.01131 84.2279922 455.557617 84.36917 456.069474 84.2319922 456.581331 84.0948145 456.98382 83.6993595 457.13 83.19 459.13 77.93 458.75 72.48 459.22 66.95 459.738237 61.2343771 461.173264 55.6394597 463.47 50.38 468.083674 39.7123319 475.906091 30.7469605 485.85 24.73 487.5 23.73 485.99 21.13 484.34 22.14 474.535097 28.0441375 466.669361 36.6849767 461.71 47 459.282309 52.0194426 457.597993 57.3654603 456.71 62.87 455.71 69.36 456.62 76.16 454.22 82.39L456.73 81.72 447.31 70.94C446.03 69.49 443.92 71.62 445.19 73.06L445.16 73.06zM287.91 204.89C339.49 203.316667 391.083333 202.983333 442.69 203.89 444.62 203.89 444.62 200.89 442.69 200.89 391.096667 199.97 339.503333 200.303333 287.91 201.89 285.98 201.95 285.97 204.95 287.91 204.89zM453.47 175.31C471.102554 182.230386 488.063534 190.752717 504.14 200.77 505.78 201.77 507.29 199.2 505.65 198.18 489.361761 188.039022 472.176187 179.416108 454.31 172.42 452.52 171.71 451.74 174.61 453.52 175.31L453.47 175.31z"/>
    <path fill="#FFF" d="M485.49 161.72C467.609562 182.564358 457.251936 208.812364 456.08 236.25 456 238.18 459 238.18 459.08 236.25 460.215972 209.600119 470.262258 184.102341 487.61 163.84 488.86 162.38 486.75 160.25 485.49 161.72zM85.54 194L197.31 192.54 210.16 192.37C212.47 192.37 214.78 192.29 217.09 192.28 220.34 192.28 222.53 194.98 222.47 198.28 222.32 205.28 217.92 205.03 212.16 205.28L198.27 205.91 141.71 208.4C131.58 208.85 121.44 209.4 111.31 209.75 102.17 210.03 84.79 207.05 88.85 193.75 89.41 191.9 86.52 191.11 85.95 192.95 83.95 199.49 87.49 206.13 93.19 209.56 101.28 214.42 111.94 212.77 120.87 212.37L190.31 209.22 207.17 208.47C211.49 208.27 217.5 209.15 221.47 207.14 226.13 204.79 226.95 195.46 224.01 191.53 222.5 189.53 220.38 189.35 218.01 189.26 211.79 189.02 205.46 189.43 199.23 189.51L164.61 189.97 85.5 190.97C83.57 190.97 83.57 193.97 85.5 193.97L85.54 194z"/>
    <g transform="translate(546.13 85)">
      <path fill="#38364D" d="M14.99 476.5C12.47 478.08 9.59 478.97 6.99 480.36 4.39 481.75 1.86 483.84 1.12 486.72.843882976 487.613967.889883596 488.576441 1.25 489.44 1.89695679 490.48293 2.88702107 491.267909 4.05 491.66 14.7248872 496.400896 26.8806526 496.538331 37.66 492.04 39.5368331 491.137876 41.4749788 490.369301 43.46 489.74 45.9053956 489.241294 48.3942792 488.986711 50.89 488.98 53.5132389 488.826738 56.1227725 488.492611 58.7 487.98 59.995567 487.835778 61.2233628 487.32593 62.24 486.51 63.1675957 485.44115 63.725262 484.101348 63.83 482.69 65.0134517 474.899197 63.22907 466.947993 58.83 460.41 58.2758436 459.493757 57.5326457 458.70624 56.65 458.1 55.5738177 457.543691 54.3901493 457.226454 53.18 457.17 48.18 456.56 42.94 455.44 37.89 455.32 34.27 455.24 32.45 456.96 29.89 459.45 24.6 464.74 21.51 472.43 14.99 476.5zM88.68 475.76C88.68 480.66 89.27 485.85 92.24 489.76 93.5982206 491.450721 95.243293 492.889313 97.1 494.01 103.38 498.01 111.7 499.48 118.32 496.09 119.38939 495.610008 120.303661 494.841188 120.96 493.87 121.96 492.13 121.43 489.96 120.87 488.04L111.29 454.84C105.1 455.79 96 456.46 90.5 459.6 86.51 461.87 88.68 471.38 88.68 475.76z"/>
      <path fill="#CF9595" d="M9.37,271.33 C8.79,273.16 6.69,274.01 5.54,275.55 C4.19,277.36 4.33,279.87 4.82,282.07 C5.42528818,285.31407 6.94894182,288.316257 9.21,290.72 C11.538304,293.135927 14.8916222,294.276055 18.21,293.78 C21.43,293.17 24.21,290.32 24.32,287.05 C24.2619878,285.562841 23.9438439,284.097348 23.38,282.72 L16.56,263 C16.503754,262.718049 16.3288752,262.473948 16.08,262.33 C15.8226378,262.272771 15.5530879,262.319493 15.33,262.46 C13.72,263.22 10.49,264.02 9.55,265.69 C8.61,267.36 10.05,269.52 9.37,271.33 Z"/>
      <path fill="#33CCAB" d="M6.18,270.34 C8.67,269.95 10.85,268.49 13.18,267.53 C15.51,266.57 18.43,266.2 20.39,267.8 C20.95,268.26 21.49,268.89 22.22,268.88 C21.2269918,263.990182 19.7254975,259.217575 17.74,254.64 C17.670172,254.420664 17.5338828,254.228461 17.35,254.09 C17.0774647,253.979375 16.7725353,253.979375 16.5,254.09 L9.77,255.85 C7.28,256.5 6.99,256.3 7.18,258.75 C7.23,259.84 7.79,270.34 6.18,270.34 Z"/>
      <path fill="#29A389" d="M5.44,127.94 C4.44,129.48 4.44,131.4 4.44,133.21 C4.44,142.06 4.53,150.96 5.84,159.72 C6.15,161.82 6.54,163.92 6.74,166.04 C6.9666619,168.991084 7.01341509,171.953232 6.88,174.91 L5.88,213.41 C5.76,218.12 5.52,223.18 2.61,226.88 C1.72762186,228.120333 1.3131101,229.633123 1.44,231.15 C2.2,240.81 3.8,250.39 5.39,259.94 C10.5829634,257.59765 16.5836096,257.883926 21.53,260.71 C26.5754062,244.845733 29.3660351,228.351063 29.82,211.71 C30.05,203.52 29.7,195.28 30.96,187.19 C33.07,173.57 32.21,159.6 30.66,145.9 C30.17,141.56 29.13,137.09 26.35,133.73 C23.7183387,130.790095 20.213495,128.771305 16.35,127.97 C12.65,127 9.34,128 5.44,127.94 Z"/>
      <path fill="#555374" d="M17.66,239.59 C10.9532438,273.959294 14.6150019,309.546571 28.18,341.83 C29.3519497,344.219835 30.1737135,346.765956 30.62,349.39 C31.17,354.29 28.91,359 27.62,363.74 C24.62,374.52 26.35,386 28.27,397.03 C29.07,401.63 29.8933333,406.226667 30.74,410.82 C31.57,415.3 32.37,420.17 30.29,424.23 C32.08,431.69 33.14,439.08 34.93,446.54 C35.1197811,447.130234 35.1778109,447.754907 35.1,448.37 C34.7393172,449.346211 34.1037333,450.197129 33.27,450.82 C30.5556311,453.572027 29.4950159,457.552185 30.48,461.29 C35.05,458.01 41.42,459.16 46.64,461.29 C51.86,463.42 57,466.29 62.64,466.29 C61.82,459.67 61.03,452.72 63.47,446.51 C64.89,442.91 67.39,439.51 67.32,435.66 C67.25,432.21 65.14,429.13 64.63,425.72 C64.4404566,423.598388 64.5211016,421.461294 64.87,419.36 C66.21,407.12 64.69,394.76 63.17,382.54 C62.9981413,380.130251 62.4305443,377.765264 61.49,375.54 C60.78,374.1 59.72,372.72 59.74,371.11 C59.74,369.24 61.25,367.72 61.81,365.94 C62.81,362.66 60.97,358.2 63.74,356.17 C71.04,350.81 68.24,338.01 68.08,328.96 C67.9533333,321.153333 67.62,313.353333 67.08,305.56 C71.676188,318.483585 73.5553921,332.216754 72.6,345.9 C72.28,350.38 71.69,355.09 73.44,359.23 C74.78,362.41 77.44,365.03 78.16,368.4 C78.61,370.48 78.29,372.63 78.39,374.75 C78.49,376.87 79.21,379.18 81.04,380.25 C81.18,389.89 82.04,400.2 82.19,409.84 C82.0927076,414.767946 82.4947591,419.693077 83.39,424.54 C83.8388304,426.081747 84.0875367,427.674812 84.13,429.28 C83.9044444,431.292674 83.3715849,433.258858 82.55,435.11 C79.0114265,445.587352 80.8832766,457.136667 87.55,465.96 C89.91,461.77 94.83,459.55 99.63,459.2 C104.43,458.85 109.17,460.06 113.82,461.28 C113.109049,455.437227 114.271564,449.519603 117.14,444.38 C117.909009,443.221753 118.498974,441.95417 118.89,440.62 C119.43,438.08 118.17,435.55 117.49,433.04 C116.38,429.04 116.77,424.73 117.03,420.55 C117.902617,406.550608 117.282456,392.498097 115.18,378.63 C114.855352,375.898354 114.214387,373.213683 113.27,370.63 C112.91,369.71 112.47,368.83 112.17,367.9 C111.69807,366.231788 111.429456,364.512661 111.37,362.78 L110.22,346.78 C109.41,335.57 113.09,324.5 115.66,313.56 C116.81,308.66 118.06,303.77 118.83,298.79 C119.88,292.01 120.05,285.08 121.59,278.39 C122.97,272.39 125.46,266.54 125.98,260.39 C126.78,250.86 122.82,241.65 118.98,232.91 C117.38,229.31 111.33,229.67 107.44,229.03 C79.85,224.5 50.79,224.47 24.77,234.68 C22.0791043,235.794824 19.6556454,237.468408 17.66,239.59 Z"/>
      <path fill="#CF9595" d="M37.55,62.1 L40.61,74 C41.4418781,76.7291803 41.9026805,79.5579012 41.98,82.41 C42.0116029,83.4503462 41.7812116,84.481949 41.31,85.41 C40.8064046,86.1720979 40.1614421,86.8306386 39.41,87.35 C37.32,88.94 35.87,92.65 33.48,93.75 C34.71,95.89 36.41,94.5 38.63,95.57 C42.54,97.47 46.12,100.2 50.36,101.14 C54.36,102.02 58.56,101.19 62.53,100.14 C68.16,98.61 73.76,96.5 78.29,92.81 C82.82,89.12 85.4,85.86 85.3801154,80.03 C80.38,80.62 75.93,75.57 73.72,71.03 C72.9537486,69.3042326 72.3899912,67.4955108 72.04,65.64 L69.36,53.85 C66.44,54.49 64.06,56.58 61.27,57.67 C58.48,58.76 55.18,58.86 52.08,59 C46.5771836,59.2502888 41.1048565,59.9594168 35.72,61.12 C34.98,61.27 34.05,61.74 34.23,62.46"/>
      <path fill="#000" d="M37.55,62.1 L40.61,74 C41.4418781,76.7291803 41.9026805,79.5579012 41.98,82.41 C42.0116029,83.4503462 41.7812116,84.481949 41.31,85.41 C40.8064046,86.1720979 40.1614421,86.8306386 39.41,87.35 C37.32,88.94 35.87,92.65 33.48,93.75 C34.71,95.89 36.41,94.5 38.63,95.57 C42.54,97.47 46.12,100.2 50.36,101.14 C54.36,102.02 58.56,101.19 62.53,100.14 C68.16,98.61 73.76,96.5 78.29,92.81 C82.82,89.12 85.4,85.86 85.3801154,80.03 C80.38,80.62 75.93,75.57 73.72,71.03 C72.9537486,69.3042326 72.3899912,67.4955108 72.04,65.64 L69.36,53.85 C66.44,54.49 64.06,56.58 61.27,57.67 C58.48,58.76 55.18,58.86 52.08,59 C46.5771836,59.2502888 41.1048565,59.9594168 35.72,61.12 C34.98,61.27 34.05,61.74 34.23,62.46" opacity=".1"/>
      <circle cx="50.69" cy="42.18" r="26.48" fill="#CF9595"/>
      <path fill="#33CCAB" d="M57.98 85.83C59.3960963 82.7716254 61.4404673 80.0457973 63.98 77.83 67.71 74.56 72.81 71.91 73.69 67.03L81.77 76.44C82.2091127 76.8763322 82.5500403 77.4013607 82.77 77.98 82.9761047 79.077734 82.6991545 80.2110432 82.01 81.09 80.01 84.28 76.86 86.56 73.88 88.87 67.0496679 94.2802983 60.5105189 100.048368 54.29 106.15 54.0158948 106.468306 53.6485252 106.692227 53.24 106.79 52.8535113 106.800589 52.4730726 106.692391 52.15 106.48 46.7829426 103.661963 42.033248 99.799649 38.18 95.12 37.89 94.77 37.53 94.37 37.06 94.4 36.7766129 94.4520397 36.5153531 94.5878948 36.31 94.79 33.62 96.99 30.68 99.62 27.23 99.28 31.7 96.07 34.23 90.71 35.17 85.28 35.3558797 83.4215423 35.7380098 81.5879886 36.31 79.81 36.911795 78.0035666 38.3744153 76.6159524 40.21 76.11 38.03 79.44 39.52 84.16 42.45 86.85 45.2967582 89.2663366 48.7098127 90.9212552 52.37 91.66 55.77 92.3 56.77 88.45 57.98 85.83zM23.53 242.31C27.3 243.24 30.87 244.82 34.53 245.99 41.2006089 248.079022 48.2208531 248.816743 55.18 248.16 57.3219669 248.113009 59.4050413 247.449897 61.18 246.25 61.65 245.87 62.08 245.42 62.58 245.07 63.4163625 244.568058 64.3230431 244.193925 65.27 243.96 74.44 241.09 82.12 234.9 89.57 228.84 89.81 228.64 90.08 228.39 90.06 228.07 90.0256039 227.852112 89.9201299 227.651712 89.76 227.5L85.84 223C75.56 224.75 65.03 224.09 54.6 223.83 52.4586713 223.73491 50.3132955 223.791719 48.18 224 46.12 224.24 44.09 224.76 42.06 225.2 34.35 226.88 26.47 227.52 18.66 228.62 18.1136032 228.660307 17.5835483 228.824453 17.11 229.1 16.7806735 229.354706 16.4995775 229.666282 16.28 230.02L13.54 233.87C12.4764652 235.16503 11.6932827 236.666698 11.24 238.28 10.6 241.28 11.94 242.28 14.49 241.89 17.5023879 241.449046 20.5714742 241.591637 23.53 242.31L23.53 242.31z"/>
      <path fill="#29A389" d="M54.18,101.57 C51.1208903,98.435335 47.6529629,95.7275934 43.87,93.52 C42.3416574,92.549277 40.646195,91.871092 38.87,91.52 C37.0609958,91.1628929 35.1866752,91.6241514 33.75,92.78 C32.86,93.57 32.3,94.67 31.44,95.5 C30.3577154,96.4092586 29.116943,97.1110069 27.78,97.57 C23.2278916,99.5150457 18.9131856,101.974361 14.92,104.9 C12.7433017,106.422664 10.7822409,108.232357 9.09,110.28 C4.56,116.08 3.88,123.97 4,131.33 C4.09,136.45 9,140.25 12.38,144.08 C15.5501331,147.848909 18.4189763,151.861277 20.96,156.08 C22.78,158.96 24.68,162.08 24.45,165.51 C24.26,168.32 22.62,170.96 22.88,173.76 C22.97,174.76 23.29,175.68 23.38,176.65 C23.56,178.65 22.77,180.65 22.57,182.65 C22.3,185.48 23.22,188.29 23.27,191.14 C23.2332933,193.091071 22.985177,195.032413 22.53,196.93 C20.61,206.07 18.2,215.26 18.69,224.59 L13.15,225.59 C14.214341,226.63312 14.718254,228.120783 14.5069443,229.596001 C14.2956346,231.07122 13.3943678,232.357605 12.08,233.06 C20.73,235.95 30.08,234.49 39.25,234.48 C46.84,234.48 54.4,235.48 61.98,235.34 C69.56,235.2 77.38,233.83 83.63,229.54 C85.33,228.38 86.89,227.02 88.68,226.01 C91.0776326,224.767514 93.6613471,223.923163 96.33,223.51 C101.273223,222.567238 106.297944,222.118363 111.33,222.17 C113.79,222.17 116.47,222.27 118.43,220.79 C120.59,219.15 121.14,216.18 121.43,213.49 C121.72,210.65 121.9,207.8 121.95,204.95 C122.033831,202.730641 121.916687,200.508248 121.6,198.31 C121.299817,196.702595 120.909197,195.113404 120.43,193.55 L116.66,180.27 C115.1,174.79 117.27,168.78 117.73,163.1 C117.84,161.76 117.86,160.2 116.83,159.34 C116.46,159.03 115.95,158.82 115.83,158.34 C115.721095,157.879368 115.807991,157.3942 116.07,157 C118.07,153 121.07,149.47 123.81,145.86 C128.412026,139.527772 132.684369,132.962383 136.61,126.19 C135.380654,112.018437 129.41309,98.6742028 119.67,88.31 C117.67,86.14 115.38,84.06 112.58,83.08 C110.75023,82.5211668 108.852675,82.2150011 106.94,82.17 C99.1,81.64 90.94,81.17 84.11,77.23 C83.6198353,76.890469 83.064964,76.6555848 82.48,76.54 C80.97,76.37 79.87,77.86 78.89,79.04 C76.37,82.04 72.66,83.76 69.4,85.97 C63.32,90.1 58.57,95.78 54.18,101.57 Z"/>
      <path fill="#29A389" d="M137.29,130.28 C138.85,135.22 138.7,140.5 139.21,145.65 C139.512047,148.757847 140.057047,151.837264 140.84,154.86 C141.197473,156.521408 141.840328,158.108247 142.74,159.55 C143.64,160.87 144.93,161.94 145.5,163.43 C145.811575,164.43945 145.950196,165.494323 145.91,166.55 L146.03,173.45 C146.286707,177.106454 145.730031,180.774364 144.4,184.19 L140.09,197.3 C137.76,204.4 135.37,211.61 131.17,217.79 C130.578277,218.835937 129.681763,219.676636 128.6,220.2 C127.753098,220.423862 126.884979,220.557934 126.01,220.6 C122.86515,221.160923 120.561502,223.875788 120.52,227.07 C119.519298,225.607734 118.270469,224.331831 116.83,223.3 L108.06,216.3 C105.06,213.86 101.93,211.38 98.29,209.97 C108.292281,206.846312 115.513146,198.12012 116.71,187.71 C116.706806,186.193051 117.048769,184.695254 117.71,183.33 C118.44,182.15 119.79,181.25 119.89,179.86 C120.01,178.11 118.03,176.79 118.03,175.04 C118.03,173.88 118.89,172.92 119.27,171.83 C119.625168,170.483019 119.625168,169.066981 119.27,167.72 L118.06,161 C117.988667,160.326675 117.784748,159.674133 117.46,159.08 C117.007246,158.510412 116.505316,157.981712 115.96,157.5 C113.88,155.17 114.8,151.5 115.96,148.63 C118.623785,142.259442 122.055875,136.238173 126.18,130.7 C127.647983,128.840271 129.006929,126.897012 130.25,124.88 C131.31,123.04 131.55,120.49 132.67,118.88 C134.11,122.66 136.06,126.39 137.29,130.28 Z"/>
      <path fill="#33CCAB" d="M97.98,210.38 C97.5336495,210.711274 97.1479641,211.117259 96.84,211.58 C95.6617956,213.059137 94.0923628,214.178181 92.31,214.81 C93.31,215.53 94.22,216.24 95.16,216.97 C102.114993,222.341294 108.483607,228.431701 114.16,235.14 C114.79,232.89 118.56,233.05 119.48,230.9 C119.696658,230.284618 119.765179,229.626824 119.68,228.98 C119.488928,225.611412 119.007136,222.265635 118.24,218.98 C117.937207,217.288414 117.253256,215.687969 116.24,214.3 C114.84,212.61 112.66,211.8 110.58,211.1 C107.43,210 101.18,208.45 97.98,210.38 Z"/>
      <path fill="#CF9595" d="M85.48,218.24 C82.48,220.46 79.85,223.24 76.48,224.76 C74.1,225.84 71.39,226.31 69.31,227.92 C70.44,230.41 73.38,231.7 76.11,231.6 C78.8424924,231.331585 81.461539,230.371382 83.72,228.81 C85.51,227.71 87.61,226.43 89.56,227.2 C89.86,228.72 88.56,230.15 88.56,231.69 C88.56,233.23 89.84,234.35 91.1,235.16 C97.1,239.03 104.82,238.71 111.97,238.26 C112.380171,238.275243 112.78406,238.155832 113.12,237.92 C113.433084,237.554643 113.587812,237.079664 113.55,236.6 C113.64,235.02 113.68,233.45 113.69,231.87 C114.102666,229.269092 112.971934,226.664509 110.79,225.19 C106.909971,221.854679 102.72488,218.891634 98.29,216.34 C93.89,213.79 89.43,215.3 85.48,218.24 Z"/>
      <path fill="#3C354C" d="M59.99 31.11C55.55 31.64 52.32 35.11 52.77 38.88 53.22 42.65 57.18 45.25 61.62 44.71 66.06 44.17 69.29 40.71 68.84 36.95 68.39 33.19 64.43 30.58 59.99 31.11zM61.5 43.67C57.74 44.12 54.39 41.91 54 38.73 53.61 35.55 56.36 32.61 60.11 32.16 63.86 31.71 67.22 33.92 67.61 37.1 68 40.28 65.25 43.22 61.5 43.67L61.5 43.67zM38.35 33.71C33.91 34.24 30.68 37.71 31.13 41.47 31.58 45.23 35.54 47.84 39.98 47.31 44.42 46.78 47.65 43.31 47.2 39.54 46.75 35.77 42.79 33.18 38.35 33.71zM39.86 46.26C36.1 46.71 32.75 44.5 32.37 41.33 31.99 38.16 34.72 35.21 38.48 34.75 42.24 34.29 45.59 36.51 45.97 39.69 46.35 42.87 43.61 45.81 39.86 46.26z"/>
      <polygon fill="#3C354C" points="22.28 35.64 31.93 37.7 30.98 40.24 21.88 37.57"/>
      <polygon fill="#3C354C" points="76.07 29.18 67.17 33.47 68.7 35.71 76.91 30.96"/>
      <polygon fill="#3C354C" points="46.31 37.06 53.08 36.25 52.73 37.93 46.92 38.32"/>
      <path fill="#6B6B6B" d="M33.18,34.79 C33.8170187,33.419893 34.1577741,31.9307918 34.18,30.42 C34.2037144,29.5157361 34.3586658,28.6197131 34.64,27.76 C35.1315612,26.6681211 35.8794036,25.7110199 36.82,24.97 C39.94,22.33 44.41,20.97 48.82,20.78 C53.6285925,20.5587746 58.4119928,21.5926507 62.7,23.78 C64.0098297,24.3936901 65.1830368,25.2642438 66.15,26.34 C67.55,28.05 67.85,30.26 69.26,31.95 C71.2172066,34.0356716 74.1225909,34.9459748 76.92,34.35 C77.41,32.61 76.77,30.77 77.02,28.99 C77.4140301,27.4647747 77.9462308,25.9786295 78.61,24.55 C80.16,19.98 77.9,14.68 73.24,11.95 C71.61,10.95 69.68,10.3 68.46,8.95 C67.24,7.6 66.95,6.2 66.11,4.85 C63.88,1.28 58.11,-0.39 53.72,1.26 C52.34,1.78 51.12,2.57 49.72,3.13 C47.12,4.2 44.16,4.39 41.3,4.75 C38.4809797,5.01062491 35.7241064,5.73362844 33.14,6.89 C30.67,8.11 28.6,10.07 28.03,12.41 C27.76,13.49 27.82,14.61 27.55,15.68 C26.17,21.11 17.26,23.75 16.76,29.29 C16.58,31.29 17.67,33.21 19.03,34.84 C19.97,35.95 22.22,38.92 23.81,39.35 C25.4,39.78 26.61,38.27 28.13,37.75 C30.53,37 31.98,36.84 33.18,34.79 Z"/>
    </g>
  </g>
</svg>
