<svg xmlns="http://www.w3.org/2000/svg" xmlns:xlink="http://www.w3.org/1999/xlink" width="168" height="175" viewBox="0 0 168 175">
  <defs>
    <path id="thich-a" d="M133.703074,53.6023614 C149.679955,76.6779708 166.490122,100.525228 167.135142,117.652995 C167.780162,134.780762 168.706919,150.52 124.108602,168.980408 C102.375037,177.257529 57.8001901,174.608615 34.9403178,163.614258 C6.14344278,154.185076 1.43250528,109.515625 0.606333404,99.7578125 C-0.219838471,90 2.67595898,61.1688203 18.5694103,38.0932109 C34.4211466,15.0176015 60.0759303,-3.3341965 80.8917629,0.511738397 C101.707595,4.35767329 117.684477,30.4849484 133.703074,53.6023614 Z"/>
  </defs>
  <g fill="none" fill-rule="evenodd">
    <use fill="#B9EFE9" fill-rule="nonzero" transform="matrix(-1 0 0 1 167.78 0)" xlink:href="#thich-a"/>
    <path fill="#B88964" fill-rule="nonzero" d="M66.63,103.61 L95.02,103.61 C96.8701539,103.61 98.37,105.109846 98.37,106.96 L98.37,131.68 C98.37,141.367075 90.9770745,155.625488 81.29,155.625488 L80.895,155.625488 C71.2079255,155.625488 63.29,141.367075 63.29,131.68 L63.29,106.96 C63.29,105.113744 64.7837525,103.615511 66.63,103.61 Z"/>
    <path fill="#000" fill-rule="nonzero" d="M63.28,104.91 L98.37,104.91 L98.37,132.98 C98.37,142.667075 90.5820745,156.421875 80.895,156.421875 L80.83,156.421875 C71.1429255,156.421875 63.29,142.667075 63.29,132.98 L63.29,104.91 L63.28,104.91 Z" opacity=".1"/>
    <path fill="#7A3814" d="M63.2089844,118.515625 C63.2089844,140.231445 93.8828125,167.68457 102.19043,171.811035 C71.3691406,179.245605 34.8574219,170.686523 17,155.03 C17,140.154206 32.4029948,127.982747 63.2089844,118.515625 Z"/>
    <path fill="#444" d="M63.2089844,118.515625 C63.2089844,140.231445 93.8828125,167.68457 102.19043,171.811035 C71.3691406,179.245605 34.8574219,170.686523 17,155.03 C17,140.154206 32.4029948,127.982747 63.2089844,118.515625 Z" opacity=".3"/>
    <path fill="#7A3814" d="M105.98291,118.515625 C105.98291,140.231445 136.061523,168.708496 144.369141,172.834961 C126.530273,177.472656 81.1347656,172.834961 59.5952148,156.991699 C59.5952148,142.115905 75.0577799,129.290547 105.98291,118.515625 Z" transform="matrix(-1 0 0 1 203.964 0)"/>
    <path fill="#000" fill-rule="nonzero" d="M63.35,118.16 C74.6586913,122.386642 87.1074023,122.422118 98.44,118.26 L98.44,113.95 L63.35,113.95 L63.35,118.16 Z" opacity=".1"/>
    <ellipse cx="80.76" cy="66.76" fill="#A8876A" fill-rule="nonzero" rx="50.76" ry="51.76"/>
    <circle cx="81.29" cy="70.29" r="50.29" fill="#B88964" fill-rule="nonzero"/>
    <ellipse cx="31.7" cy="68.07" fill="#B88964" fill-rule="nonzero" rx="4.68" ry="8.77"/>
    <ellipse cx="129.94" cy="68.07" fill="#B88964" fill-rule="nonzero" rx="4.68" ry="8.77"/>
  </g>
</svg>
