<svg xmlns="http://www.w3.org/2000/svg" xmlns:xlink="http://www.w3.org/1999/xlink" width="164" height="183" viewBox="0 0 164 183">
  <defs>
    <path id="thom-a" d="M132.922912,53.6023614 C148.899794,76.6779708 164.91839,96.7855217 163.958943,117.770949 C162.999496,138.79818 145.062005,160.745091 123.32844,168.980408 C101.594875,177.257529 76.0652371,171.864859 53.2053648,160.870502 C30.3037774,149.876145 10.0302411,133.2801 2.93867484,111.082367 C-4.15289138,88.9264373 1.89579745,61.1688203 17.7892488,38.0932109 C33.6409851,15.0176015 59.2957687,-3.3341965 80.1116014,0.511738397 C100.927434,4.35767329 116.904316,30.4849484 132.922912,53.6023614 Z"/>
  </defs>
  <g fill="none" fill-rule="evenodd">
    <g transform="translate(0 10)">
      <mask id="thom-b" fill="#fff">
        <use xlink:href="#thom-a"/>
      </mask>
      <use fill="#B9EFE9" fill-rule="nonzero" transform="rotate(180 82 86.5)" xlink:href="#thom-a"/>
      <path fill="#7A3814" fill-rule="nonzero" d="M86.7540567,173 C119.753943,174.643987 144.587878,137.307506 144.587878,137.307506 C144.587878,137.307506 141.41,136.54 141.41,136.54 L53.7,136.54 C53.7,136.54 49.8393137,136.856576 45.4214874,139.9132 C45.4214874,139.9132 63.4377702,173.032999 86.7540567,173 Z" mask="url(#thom-b)"/>
    </g>
    <circle cx="97.95" cy="73.07" r="54.76" fill="#FDD835" fill-rule="nonzero"/>
    <path fill="#FDB797" fill-rule="nonzero" d="M83.59,117.38 L111.98,117.38 C113.830154,117.38 115.33,118.879846 115.33,120.73 L115.33,145.45 C115.33,155.137075 107.477075,162.99 97.79,162.99 L97.79,162.99 C88.1029255,162.99 80.25,155.137075 80.25,145.45 L80.25,120.73 C80.25,118.879846 81.7498461,117.38 83.6,117.38 L83.59,117.38 Z"/>
    <path fill="#000" fill-rule="nonzero" d="M80.27,118.68 L115.360026,118.68 L115.36,146.75 C115.367965,151.407093 113.523523,155.876171 110.233272,159.172051 C106.94302,162.46793 102.4771,164.320007 97.82,164.32 L97.82,164.32 C88.1329255,164.32 80.28,156.467075 80.28,146.78 L80.28,118.68 L80.27,118.68 Z" opacity=".1"/>
    <path fill="#000" fill-rule="nonzero" d="M80.31,131.93 C91.6186913,136.156642 104.067402,136.192118 115.4,132.03 L115.4,127.72 L80.31,127.72 L80.31,131.93 Z" opacity=".1"/>
    <circle cx="97.95" cy="83.99" r="50.29" fill="#FDB797" fill-rule="nonzero"/>
    <path fill="#000" fill-rule="nonzero" d="M62.13,38.25 C62.13,38.25 83.32,81.25 143.13,56.25 L129.21,34.42 L104.54,25.56 L62.13,38.25 Z" opacity=".1"/>
    <path fill="#FDD835" fill-rule="nonzero" d="M62.13,37.62 C62.13,37.62 83.32,80.62 143.13,55.62 L129.21,33.79 L104.54,24.93 L62.13,37.62 Z"/>
    <path fill="#FDD835" fill-rule="nonzero" d="M61.94 34.71C63.3686125 30.286862 65.8377363 26.2711065 69.14 23 79.03 13.22 95.25 11.16 103.57 0 104.48416 1.59720771 104.679592 3.50671488 104.107933 5.25599112 103.536274 7.00526736 102.250939 8.43086397 100.57 9.18 108.57 9.13 117.78 8.43 122.28 1.87 124.55322 7.1611302 123.576139 13.288323 119.77 17.61 126.83 17.93 134.37 22.72 134.83 29.78 135.13 34.48 132.19 38.93 128.32 41.63 124.45 44.33 119.79 45.54 115.19 46.54 101.77 49.54 53.18 61.95 61.94 34.71zM118.211803 106.33107C94.6325912 96.6931997 77.63 107.54 77.63 107.54 75.5516514 115.790622 75.0375797 123.151623 76.087785 129.623003 82.89169 132.914801 90.5416072 134.716464 98.6052252 134.613023 106.375301 134.513347 113.715997 132.655182 120.250169 129.419609 120.995724 129.050427 121.70334 109.98824 118.211803 106.33107zM97.88 116.38C95.795232 116.38 93.7945278 116.28912 91.9367801 116.122568 88.652271 115.828102 85.8146216 115.297096 83.7493022 114.613594 81.5027335 113.870109 80.17 112.946188 80.17 111.95 80.17 109.52 88.1 107.52 97.88 107.52 107.66 107.52 115.59 109.52 115.59 111.95 115.59 114.38 107.66 116.38 97.87 116.38L97.88 116.38z"/>
    <ellipse cx="47.64" cy="83.94" fill="#FDB797" fill-rule="nonzero" rx="4.68" ry="8.77"/>
    <ellipse cx="148.23" cy="83.94" fill="#FDB797" fill-rule="nonzero" rx="4.68" ry="8.77"/>
  </g>
</svg>
