<svg xmlns="http://www.w3.org/2000/svg" width="696" height="484" viewBox="0 0 696 484">
  <g fill="none">
    <rect width="83.17" height="25.143" x="98.611" y="193.735" fill="#FFE1D6" opacity=".7" rx="7.43"/>
    <rect width="83.17" height="25.143" x="272.693" y="244" fill="#FFE1D6" opacity=".4" rx="7.43"/>
    <rect width="83.17" height="25.143" x="50.611" y="130.021" fill="#FFE1D6" opacity=".6" rx="7.43"/>
    <rect width="83.17" height="25.143" x="10.611" y="90.021" fill="#FFE1D6" opacity=".3" rx="7.43"/>
    <rect width="83.17" height="25.143" x="369.402" y="193.735" fill="#FFE1D6" opacity=".7" rx="7.43"/>
    <rect width="83.17" height="25.143" x="456.44" y="218.884" fill="#FFE1D6" opacity=".7" rx="7.43"/>
    <rect width="83.17" height="25.143" x="369.402" y="156.021" fill="#FFE1D6" rx="7.43"/>
    <rect width="83.17" height="25.143" x="456.44" y="181.164" fill="#FFE1D6" rx="7.43"/>
    <rect width="83.17" height="25.143" x="543.484" y="206.312" fill="#FFE1D6" rx="7.43"/>
    <rect width="83.17" height="25.143" x="369.402" y="105.73" fill="#FFE1D6" rx="7.43"/>
    <rect width="83.17" height="25.143" x="456.44" y="130.872" fill="#FFE1D6" rx="7.43"/>
    <rect width="83.17" height="25.143" x="543.484" y="156.021" fill="#FFE1D6" rx="7.43"/>
    <rect width="83.17" height="25.143" x="273.402" y="60.01" fill="#FFE1D6" opacity=".6" rx="7.43"/>
    <rect width="83.17" height="25.143" x="273.402" y="106" fill="#FFE1D6" rx="7.43"/>
    <rect width="83.17" height="25.143" x="273.402" y="152" fill="#FFE1D6" rx="7.43"/>
    <rect width="83.17" height="25.143" x="273.402" y="198" fill="#FFE1D6" opacity=".7" rx="7.43"/>
    <rect width="83.17" height="25.143" x="456.44" y="93.158" fill="#FFE1D6" rx="7.43"/>
    <rect width="83.17" height="25.143" x="543.484" y="118.301" fill="#FFE1D6" opacity=".5" rx="7.43"/>
    <ellipse cx="348" cy="420.208" fill="#FFCFBD" rx="348" ry="63.302"/>
    <polygon fill="#3F3D56" points="137.687 204.219 108.422 383.627 240.751 369.631 235.026 354.362 131.644 362.951 155.819 203.901"/>
    <polygon fill="#3F3D56" points="103.333 .636 281.468 0 333 389.989 154.229 414.165"/>
    <polygon fill="#FFF" points="122.737 15.587 266.517 15.587 316.777 378.219 168.543 398.578"/>
    <path fill="#CF9595" d="M444.415993,398.071441 C444.415993,398.071441 449.900244,421.993427 458.442939,427.149154 C466.985634,432.304881 437.592015,442.081723 437.592015,442.081723 C437.592015,442.081723 424.799153,450.032151 421.476196,452.906994 C418.153239,455.781838 403.912495,461.932372 406.259843,457.364296 C408.607191,452.796221 412.730942,444.109502 419.242699,436.892445 C425.754456,429.675388 434.315433,416.755542 426.857879,406.692942 C419.400325,396.630343 444.415993,398.071441 444.415993,398.071441 Z"/>
    <path fill="#33CCAB" d="M414,107.072024 L411.129842,106.038232 C411.129842,106.038232 403.749435,105.00444 396.984059,113.688269 C390.218682,122.372098 374.740316,148.733711 374.740316,148.733711 L369,162.379723 L389.296129,163 L404.56948,129.091723 L414,107.072024 Z"/>
    <path fill="#000" d="M414,107.072024 L411.129842,106.038232 C411.129842,106.038232 403.749435,105.00444 396.984059,113.688269 C390.218682,122.372098 374.740316,148.733711 374.740316,148.733711 L369,162.379723 L389.296129,163 L404.56948,129.091723 L414,107.072024 Z" opacity=".1"/>
    <path fill="#2F2E41" d="M412.174678,317 C412.174678,317 423.584361,319.576542 421.665921,328.542908 C419.74748,337.509274 433.580459,349.155238 434.893079,351.113414 C436.205699,353.07159 438.124139,353.896075 436.912527,356.884864 C435.700915,359.873653 465.083353,402.025846 459.227053,405.839157 C453.370752,409.652468 405.914531,424.596381 401.673761,421.607608 C397.432991,418.618834 394,320.813296 394,320.813296 L412.174678,317 Z"/>
    <path fill="#000" d="M412.174678,317 C412.174678,317 423.584361,319.576542 421.665921,328.542908 C419.74748,337.509274 433.580459,349.155238 434.893079,351.113414 C436.205699,353.07159 438.124139,353.896075 436.912527,356.884864 C435.700915,359.873653 465.083353,402.025846 459.227053,405.839157 C453.370752,409.652468 405.914531,424.596381 401.673761,421.607608 C397.432991,418.618834 394,320.813296 394,320.813296 L412.174678,317 Z" opacity=".1"/>
    <path fill="#CF9595" d="M386,423.483697 C386,423.483697 378.743105,446.726213 383.615587,455.391183 C388.48807,464.056152 357.85923,457.843808 357.85923,457.843808 C357.85923,457.843808 342.666987,458.309641 338.312848,459.125168 C333.95871,459.940694 318.407202,458.143582 322.76134,455.391183 C327.115479,452.638783 335.098061,447.235912 344.428325,444.279627 C353.758588,441.323342 367.754064,434.493281 366.302682,422.158465 C364.8513,409.823648 386,423.483697 386,423.483697 Z"/>
    <path fill="#2F2E41" d="M371.726689,187.245694 C375.692706,184.383867 380.469422,182.896316 385.342099,183.00562 C393.224744,183.315868 419.02238,189.52085 418.305773,190.761847 C417.598673,191.853925 416.811624,192.890989 415.951228,193.864341 C415.951228,193.864341 417.589174,201.413746 416.872575,202.137659 C416.155975,202.861571 430.897493,219.925297 422.298271,256.534697 C413.699049,293.144096 414.620396,318.481139 414.620396,318.481139 C414.620396,318.481139 418.101034,425.827397 408.170979,427.999143 C398.240925,430.170888 359.134955,428.723055 357.29227,424.482982 C355.449585,420.242909 362.922706,288.593791 362.922706,288.593791 C362.922706,288.593791 363.741686,222.407275 365.686745,214.340794 C367.631803,206.274314 371.726689,187.245694 371.726689,187.245694 Z"/>
    <ellipse cx="418" cy="70.5" fill="#CF9595" rx="25" ry="24.5"/>
    <path fill="#CF9595" d="M413.106898,86.7407015 C413.106898,86.7407015 428.592773,101.821329 409.469274,113.493322 C396.003741,121.711985 442,107.089221 442,107.089221 C442,107.089221 432.438258,82.8156132 433.893302,77.2378473 C435.348346,71.6600815 413.106898,86.7407015 413.106898,86.7407015 Z"/>
    <path fill="#33CCAB" d="M416.795307,110.991162 C416.795307,110.991162 438.533066,101.274034 442.103513,104.751735 C445.673961,108.229437 461.110932,122.549449 444.308794,147.916304 C427.506656,173.28316 424.251239,192.308301 421.41589,194.456294 C418.580541,196.604287 416.795307,191.694583 416.795307,191.694583 C416.795307,191.694583 408.604268,184.432297 403.248586,184.432297 C397.892904,184.432297 375,186.887153 375,186.887153 L381.405811,162.134015 C381.405811,162.134015 378.255417,142.597436 388.966774,132.880309 C399.678131,123.163181 411.439624,107.206598 411.439624,107.206598 L417.50517,106.127359 L413.5,111.095394 C413.5,111.095394 412.909814,112.627732 416.795307,110.991162 Z"/>
    <g transform="translate(499.536 181.165)">
      <path fill="#B9EFE9" d="M49.8463359,156.111163 C6.82175944,140.346271 1.14072228,109.180984 12.6641004,77.5268229 C24.1874786,45.8726621 48.5515958,25.7164067 91.5761796,41.4812988 C134.600763,57.2461909 168.469886,134.616561 168.469886,134.616561 C168.469886,134.616561 92.8709124,171.876062 49.8463359,156.111163 Z" transform="rotate(-112 87.97 98)"/>
      <polygon fill="#3F3D56" points="42.292 93.663 77.884 107.334 113.335 147.763 83.467 109.479 99.471 115.626 125.423 144.045 103.706 117.253 103.706 117.253 132.488 128.309 151.475 155.522 137.014 130.047 190 149.751 120.389 122.208 123.233 123.42 157.676 115.401 117.774 121.093 86.055 107.577 86.932 107.84 123.844 97.575 83.923 106.668 79.956 104.978 79.908 104.918 79.57 104.814 -.904 70.522 -3 76.265 39.126 92.447 63.735 125.073" transform="rotate(-112 93.5 113.022)"/>
    </g>
    <path fill="#CF9595" d="M367.172997,163.6498 C367.172997,163.6498 358.002375,176.204911 364.081773,180.913077 C370.161171,185.621243 382.938229,177.565049 382.938229,177.565049 C382.938229,177.565049 412.407872,198.385609 411.995717,186.144374 C411.583561,173.903139 390.4602,165.428442 390.4602,165.428442 L376.240583,165.846945 L378.404439,158.627759 L372.428047,158 L367.172997,163.6498 Z"/>
    <path fill="#000" d="M367.172997,163.6498 C367.172997,163.6498 358.002375,176.204911 364.081773,180.913077 C370.161171,185.621243 382.938229,177.565049 382.938229,177.565049 C382.938229,177.565049 412.407872,198.385609 411.995717,186.144374 C411.583561,173.903139 390.4602,165.428442 390.4602,165.428442 L376.240583,165.846945 L378.404439,158.627759 L372.428047,158 L367.172997,163.6498 Z" opacity=".1"/>
    <path fill="#CF9595" d="M430,141.579401 C430,141.579401 371.884855,186.379688 368.162171,170.65303 C365.742778,160.432162 367.60376,135.265418 369.203324,118.896738 C370.346683,106.97883 375.666154,95.8496177 384.220674,87.477966 C387.707287,84.0793491 390.941419,81.9467103 392.566397,83.5356336 C397.116342,87.9846259 381.915401,105.780581 381.915401,105.780581 C381.915401,105.780581 379.433617,141.889816 384.397185,146.028416 C384.397185,146.028416 402.379545,128.655092 406.107518,128.909366 C409.835491,129.163639 430,141.579401 430,141.579401 Z"/>
    <path fill="#2F2E41" d="M467.901356,93.1492217 C463.110624,85.9983973 459.155158,74.4970173 454.886954,64.3676197 C453.503666,61.0847741 452.239906,57.7590509 451.002489,54.4194474 C448.508451,47.6884023 437.650269,39 423.429752,39 C407.176131,39 394,47.1104508 394,53.915355 C394,59.5414641 403.010032,64.2833798 415.315969,65.7586362 C410.992519,75.3277545 408.387901,85.9475913 408.387901,93.1492364 C408.387901,109.445234 421.710441,102.552393 438.144647,102.552393 C454.578853,102.552393 476.995162,106.722983 467.901356,93.1492217 Z"/>
    <path fill="#33CCAB" d="M441.725242,111.608737 C441.725242,111.608737 451.997192,137.997785 428.885311,144 C428.885311,144 424.365649,137.687327 416.96985,136.652459 C409.574051,135.617592 403,127.856113 403,127.856113 C403,127.856113 418.099762,106.434413 429.912502,106.020467 C441.725242,105.606522 441.725242,111.608737 441.725242,111.608737 Z"/>
    <g transform="translate(169.838 49)">
      <path fill="#2F2E41" d="M71.5484136,11.2380275 C65.2778594,0.538981486 52.8720731,0.0403589285 52.8720731,0.0403589285 C52.8720731,0.0403589285 40.7833363,-1.52067485 33.0284903,14.7741012 C25.8003548,29.9621653 15.8246032,44.6265545 31.4224745,48.1819721 L34.2399039,39.3270114 L35.9847244,48.8412143 C38.2055613,49.0025103 40.4334756,49.0409595 42.6584737,48.9563895 C59.3625304,48.4118012 75.2706231,49.1157217 74.7584116,43.0629086 C74.0775018,35.0165522 77.5819472,21.5326436 71.5484136,11.2380275 Z"/>
      <path fill="#CF9595" d="M48.8920831,48.419523 C48.9232498,49.6234749 48.913922,50.89323 48.3049723,51.9384605 C47.0977812,54.0105346 44.1507502,54.3207173 42.3781032,55.9538531 C40.5139105,57.6713225 40.3029059,60.45868 40.2140616,62.967948 C40.1211733,65.591377 40.042366,68.300778 41.0169139,70.7449873 C41.6137737,72.0914055 42.3682798,73.3649157 43.2651711,74.5397592 C44.3474355,76.0724738 45.4397135,77.5983025 46.542005,79.1172452 C47.1307051,79.9727446 47.786749,80.7815968 48.50411,81.5363714 C50.4782117,83.5119639 53.1860328,84.6055256 55.8897287,85.3857719 C57.636574,85.8898806 59.5227139,86.2825674 61.2559058,85.7348824 C62.4026471,85.2952399 63.4596328,84.6567029 64.3764623,83.8497189 C65.7162127,82.9057529 66.906503,81.7723186 67.9087039,80.4861999 C69.3641241,78.4120355 69.7669578,75.8154872 70.0686419,73.3137133 C70.9604948,65.9158036 71.3075365,58.464287 71.1070607,51.0172733 C71.1436419,50.2057846 70.9956251,49.3964902 70.6737803,48.6482761 C69.7761557,46.9263017 67.3720272,46.5586874 66.1052583,45.0774651 C65.0222089,43.8110767 64.9780385,42.0037209 64.9872743,40.3496506 L65.0108023,36.1388162 C65.0485492,35.784025 64.9759223,35.426327 64.8025046,35.1129193 C64.4852034,34.7720113 64.0428155,34.5692315 63.5730524,34.5493685 C60.9092063,34.1150559 58.2085335,33.9375473 55.5095405,34.0193735 C53.3213484,34.0850651 49.1228097,33.905122 47.2307418,35.1024946 C45.51332,36.1893441 47.6636487,39.1911207 48.0614585,40.8772681 C48.5962869,43.357436 48.8745762,45.8843643 48.8920831,48.419523 Z"/>
      <path fill="#2F2E41" d="M13.6252647 332.404622C13.0791871 334.285522 12.825734 336.478731 13.9599843 338.067749 14.5869557 338.8636 15.4123979 339.475631 16.3510918 339.840656 18.7188102 340.884326 21.3691703 341.089986 23.9488366 340.969148 24.9495158 341.016058 25.9239957 340.637309 26.6365395 339.924526 32.6326051 334.899373 36.687967 327.896297 38.0904069 320.145204 38.2037329 319.745022 38.1822898 319.318044 38.029457 318.93156 37.8320777 318.632145 37.5556569 318.394809 37.2316327 318.246546 35.8976663 317.400245 34.4594474 316.735397 32.9540433 316.269136 24.7164305 314.11621 15.6662742 325.374759 13.6252647 332.404622zM101.133064 305.369393C102.275522 306.676765 103.683496 307.733485 105.266077 308.471321 106.874628 309.204853 108.735159 309.173638 110.317443 308.386574 112.65645 307.074323 113.319031 304.025042 113.132382 301.378828 112.787137 296.484692 110.414838 292.074369 107.688659 288.076445 106.826119 286.811543 104.916722 283.046964 103.240976 283 102.444938 282.97787 99.4679016 285.822322 98.6589698 286.363713 95.7036106 288.341658 93.6565481 289.756812 94.2715672 293.55353 94.9575698 297.788286 98.2413474 302.320172 101.133064 305.369393z"/>
      <circle cx="54.162" cy="23" r="17" fill="#CF9595"/>
      <path fill="#F5DD48" d="M47.0261157,66.6352354 C45.9400921,65.0195262 45.0464083,63.2823562 44.3632405,61.4590565 C43.6809113,59.6176158 43.6645074,57.5951634 44.3168771,55.7428792 C42.4717839,54.6713573 39.9666373,55.5390834 38.6229619,57.1972939 C37.2792865,58.8555043 36.8680397,61.0782839 36.7495725,63.2099742 C36.6311054,65.3416646 36.7566852,67.5047185 36.2931682,69.5886935 C35.2676712,74.1993366 31.4622779,77.9898463 31.1792949,82.7048385 C30.9008955,87.343406 34.0790937,91.3842787 35.642618,95.7598106 C36.5902662,98.4869707 36.9863874,101.375555 36.8079203,104.257398 C36.7572562,105.187718 36.6988924,106.24802 37.3547945,106.909184 C37.6960177,107.207596 38.099927,107.425388 38.5366274,107.54644 C46.0813345,110.203021 54.2307193,110.432861 62.22618,110.635535 L75.4320187,110.970307 C76.2307002,111.065717 77.0399736,110.930086 77.7640268,110.579473 C78.9487944,109.852442 79.107366,108.22277 79.127509,106.832027 C79.3009837,94.8539763 78.7919143,82.8777087 78.2829622,70.9092326 C78.0984903,66.5711841 77.9108861,62.2079721 76.9917332,57.9645586 C76.7576856,56.8840223 76.3738865,55.6824165 75.3772139,55.2055135 C74.533585,54.8018417 73.532697,55.0631897 72.6555161,55.3874141 C68.5623593,56.9108884 65.024582,59.6364602 62.5058547,63.2069089 C59.7961839,67.0666072 58.4632923,71.6966196 55.8114091,75.5856147 C53.8869607,78.4078193 52.7739606,75.9482197 51.4917545,73.869868 C50.0037561,71.4579767 48.5152098,69.0464325 47.0261157,66.6352354 Z"/>
      <path fill="#575A88" d="M42.6246292,50.7897065 C41.5920558,51.2911214 40.4263148,51.5091652 39.443562,52.1002942 C38.2672366,52.8078543 37.4673853,53.9772172 36.7049373,55.1103216 L32.5918434,61.2229458 C31.6249456,62.5349692 30.8326295,63.9642689 30.2343451,65.4757584 C29.5923384,67.3298698 29.5487047,69.3257311 29.4886359,71.2844446 C29.3215587,76.7327104 28.9788786,82.1720186 28.4605956,87.6023694 C28.2566904,90.2207086 27.8749775,92.8225558 27.3180352,95.390336 C26.8280333,97.4727826 26.1352192,99.5024594 25.4435275,101.528274 L17.8225125,123.84837 C17.3521218,124.960228 17.1283456,126.158769 17.1662559,127.363268 C17.2926401,128.557982 18.0927843,129.772464 19.2893351,129.985317 C20.0805586,130.051525 20.8744512,129.892905 21.5774653,129.528148 C24.4868942,128.327852 27.3747964,126.907005 29.6149496,124.714958 C33.2970314,121.111942 34.77799,115.918204 36.1176909,110.97205 C36.8284693,108.347863 37.5443989,105.686642 37.5415143,102.970116 C37.5349586,96.8039347 33.8492547,91.0927413 33.7514626,84.9273152 C33.7692679,83.2519693 33.9219624,81.5806788 34.2081007,79.9292643 C34.8648507,75.4387411 35.546793,70.9140113 37.1212602,66.6518769 C38.6957273,62.3897425 41.2447812,58.356597 44.9940188,55.7366483 C46.7913067,54.4807162 51.6175593,51.9657982 49.7330203,49.0780093 C47.8545544,46.1994939 44.4619991,49.8974896 42.6246292,50.7897065 Z"/>
      <path fill="#2F2E41" d="M75.6296623,106.402954 C63.3537878,105.447599 51.0668767,104.653199 38.7689291,104.019752 C37.7356784,103.966533 36.5599732,103.968537 35.8508275,104.724613 C35.5466275,105.096544 35.3194931,105.525692 35.1827463,105.986887 L32.5557578,113.09702 C31.3920545,116.246676 30.8616848,119.219956 28.5383467,121.638115 C26.2150087,124.056275 23.450737,126.017704 21.1569861,128.464165 C17.7349377,132.130199 15.4839448,136.739821 14.6935145,141.700172 C14.0540784,145.770472 14.4177597,149.988593 13.3697609,153.972681 C12.0780997,158.883096 14.1508645,163.996438 14.1183544,169.074967 C14.0699399,176.638407 13.0360896,184.156612 12.0041718,191.648975 C9.01226003,213.372015 6.02030008,235.095657 2.77041153,256.781353 C0.10222471,274.585564 -2.52506354,293.804862 5.80662651,309.749901 C7.79802243,313.561025 10.5105339,317.179896 14.3193355,319.156675 C16.4287524,320.151765 18.6627289,320.855589 20.9603679,321.24896 C26.8603602,322.487858 32.8282903,323.374964 38.8328091,323.905617 C41.2685218,324.12083 44.1073316,324.117359 45.6693997,322.229468 C46.7172915,320.962986 46.863702,319.198289 46.9642353,317.555197 L47.620759,306.82442 C48.4703142,292.938469 48.1588588,278.542693 45.0717401,264.979957 C44.030861,260.407031 42.7216787,255.894465 41.8504805,251.285947 C41.0232241,246.908489 40.5948046,242.464534 40.5705268,238.009109 C40.5028039,234.815299 40.7956015,231.624061 41.4433257,228.496365 C43.7015794,218.411513 51.1838481,209.317435 50.0959677,199.038902 C56.9904802,209.186977 59.2758319,220.805507 61.433065,232.895671 C63.0066425,241.714719 64.7085955,250.552634 67.6881788,258.998235 C70.9274091,268.17984 75.7367801,277.29559 75.052393,287.011492 C74.8850206,289.036532 74.5501111,291.044093 74.0511277,293.013414 C72.0923329,301.168228 80.3694362,308.142068 88.0019268,304.722717 C88.0541599,304.699322 88.1063038,304.67559 88.1583584,304.651522 C95.2122896,301.390366 98.7751004,292.804084 105.97034,289.870302 C109.310334,288.508455 113.472336,288.316171 114.825757,284.199239 C115.126093,283.248016 115.226887,282.24468 115.12179,281.252435 C114.805292,277.92277 112.91482,275.229151 111.443371,272.367188 C108.233583,266.124114 107.016707,259.072009 105.862248,252.14304 C104.715258,245.258912 103.589286,238.371303 102.484332,231.480213 C101.761959,226.975097 101.042149,222.442207 99.5665464,218.126104 C98.9205793,216.23667 98.1313013,214.393858 97.6136134,212.46505 C95.6794968,205.258907 97.6799932,197.5814 96.8713687,190.162671 C95.9617344,181.817512 94.2914778,173.530763 92.4627661,165.338912 C90.0939685,154.727601 89.6100861,143.794703 89.2294511,132.927064 C89.0782602,128.610424 88.9205706,124.187764 87.2995422,120.186522 C85.0131734,114.542784 80.5022602,110.036486 75.6296623,106.402954 Z"/>
      <polygon fill="#2F2E41" points="69.566 9.742 57.039 3 39.741 5.758 36.162 22 45.071 21.648 47.56 15.681 47.56 21.549 51.671 21.387 54.057 11.887 55.548 22 70.162 21.693"/>
      <path fill="#575A88" d="M63.1830273,57.818592 C64.1921313,56.8641776 65.4638475,56.2333541 66.8345867,56.0072684 C67.3146928,56.0048973 67.7757893,55.8194517 68.1237343,55.4887939 C68.2939811,55.2002638 68.3705393,54.8660725 68.342865,54.5322461 C68.386646,51.5114193 68.1358933,48.4935138 67.5941596,45.5212889 C68.7709154,45.104098 70.0212075,44.9343719 71.2666612,45.02275 L82.8098499,45.0550314 C85.1310529,45.0615231 87.5339289,45.0849937 89.646065,46.0472833 C91.8093757,47.1354742 93.5474188,48.9142259 94.5847035,51.101595 C95.6072168,53.2757549 96.3571185,55.5678344 96.8173743,57.9257684 C98.1893952,63.8467572 93.2646948,69.8060585 92.8243865,75.8678227 C92.6973837,77.6160029 92.8443157,79.377193 92.6834509,81.1225826 C92.514071,82.960371 92.0049669,84.7630927 91.9633882,86.6081921 C91.911944,88.8897368 92.5771223,91.1243937 93.343758,93.2740273 C95.6860746,99.8418719 99.0217241,106.006356 101.728715,112.432638 C102.421373,113.898189 102.887126,115.460462 103.110018,117.065925 C103.325823,118.690604 102.865605,120.33266 101.836775,121.608848 C100.708315,122.874724 98.9896304,123.391581 97.4047111,123.995839 C95.413899,124.755098 93.5128341,125.731266 91.7359193,126.906677 C91.0186779,127.43754 90.2440759,127.886241 89.4266664,128.244352 C88.6248644,128.495194 87.8030103,128.676823 86.9701438,128.787239 C84.8315837,129.194269 82.8115379,130.055964 80.7451389,130.740624 C80.0638469,130.966369 79.2777963,131.163363 78.6619294,130.79493 C78.3169917,130.548822 78.0400188,130.219422 77.8568338,129.837439 C73.8959289,122.981777 72.4973071,114.970281 71.5893232,107.105817 C70.6813392,99.2413521 70.1801982,91.2499417 67.771658,83.7081846 C67.0393184,81.415044 66.1307504,79.1640347 65.7145779,76.7931282 C65.1129332,73.3656051 65.5636911,69.8172903 64.9444214,66.3929005 C64.3954212,63.3571416 62.973521,60.896477 63.1830273,57.818592 Z"/>
      <path fill="#CF9595" d="M90.0817329,123.417508 C86.5235885,125.019297 83.7088989,127.566506 81.3271841,130.525788 C80.8229834,131.152252 81.4992401,132.320713 83.0102224,132.301583 C84.4161414,132.28378 85.2560711,130.586843 86.6619457,130.56904 C87.0917855,134.106288 87.8698779,137.598286 88.9861882,141 C91.7910246,138.681477 93.4706009,135.417695 95.0774978,132.246199 L98.2538812,125.977037 C99.4200248,123.675445 100.586646,121.372845 101.637806,119.02269 C101.923565,118.473183 102.100142,117.879112 102.158823,117.2698 C102.297158,113.225439 98.0610756,113.200925 96.2341875,115.732012 C94.2360258,118.500397 93.6136961,121.827428 90.0817329,123.417508 Z"/>
      <path fill="#575A88" d="M89.9018361,53 C92.4643684,55.7298773 95.0448874,58.4829342 97.0341554,61.6758933 C99.0234234,64.8688523 100.405375,68.5708552 100.312924,72.3584008 C100.213907,73.3172165 100.248099,74.2855868 100.414478,75.2345526 C100.703824,76.1096758 101.135388,76.9283527 101.690928,77.6559788 C104.201332,81.4344757 106.149851,85.5746298 107.472584,89.9406629 C107.687319,90.8020991 108.005131,91.6330062 108.418784,92.4144699 C108.797179,93.0494101 109.313237,93.5856103 109.730417,94.1944728 C111.216026,96.4421271 111.260775,99.3788415 109.844372,101.672976 C109.63437,101.942095 109.480741,102.252713 109.393078,102.585433 C109.221221,103.628857 110.498493,104.256681 110.968177,105.198972 C111.444472,106.154525 110.988493,107.375244 110.198635,108.07938 C109.35645,108.722696 108.386131,109.167472 107.356938,109.381961 C108.678412,111.321623 107.074617,114.047985 106.536781,116.348807 C106.160402,117.958872 106.165191,119.635294 105.918854,121.271556 C105.672516,122.907818 105.118396,124.590438 103.889064,125.664062 C103.732459,125.81814 103.539993,125.928556 103.329991,125.984798 C102.648131,126.121208 102.183651,125.312515 101.944961,124.643613 C101.201755,122.560881 100.451415,120.437644 99.1410538,118.673119 C97.8306928,116.908594 95.8446389,115.526669 93.6815087,115.533399 C93.3186198,114.643258 93.3975019,113.628218 93.8932916,112.808218 C94.32673,111.97012 94.9621362,111.259834 95.4402272,110.447652 C96.0459097,109.340992 96.457794,108.134094 96.6572,106.881695 C97.725504,101.128178 96.6502811,95.1731106 93.6439388,90.1929011 C92.9451504,89.0119037 92.0999683,87.9287712 91.1295244,86.9705852 C90.0733218,85.9557929 88.8375352,85.1399404 87.8623824,84.0431689 C86.3588029,82.2184656 85.4497708,79.9571686 85.2626833,77.5761894 C85.0828962,75.2110976 85.1443273,72.8332272 85.4459786,70.481209 C85.8846518,65.813596 86.4482475,61.1392047 87.0985465,56.4976104 C87.1487758,55.8929938 87.3015297,55.3020013 87.549935,54.7512256 C88.0604816,53.7749783 88.923956,53.4710784 89.9018361,53 Z"/>
    </g>
  </g>
</svg>
