<svg xmlns="http://www.w3.org/2000/svg" width="24" height="24" viewBox="0 0 24 24">
  <path fill="#07454C" d="M6,3 L18,3 C20.209139,3 22,4.790861 22,7 C22,9.209139 20.209139,11 18,11 L6,11 C3.790861,11 2,9.209139 2,7 C2,4.790861 3.790861,3 6,3 Z M6,4 C4.34314575,4 3,5.34314575 3,7 C3,8.65685425 4.34314575,10 6,10 L18,10 C19.6568542,10 21,8.65685425 21,7 C21,5.34314575 19.6568542,4 18,4 L6,4 Z M17,9.5 C15.6192881,9.5 14.5,8.38071187 14.5,7 C14.5,5.61928813 15.6192881,4.5 17,4.5 C18.3807119,4.5 19.5,5.61928813 19.5,7 C19.5,8.38071187 18.3807119,9.5 17,9.5 Z M17,8.5 C17.8284271,8.5 18.5,7.82842712 18.5,7 C18.5,6.17157288 17.8284271,5.5 17,5.5 C16.1715729,5.5 15.5,6.17157288 15.5,7 C15.5,7.82842712 16.1715729,8.5 17,8.5 Z M6,13 L18,13 C20.209139,13 22,14.790861 22,17 C22,19.209139 20.209139,21 18,21 L6,21 C3.790861,21 2,19.209139 2,17 C2,14.790861 3.790861,13 6,13 Z M6,14 C4.34314575,14 3,15.3431458 3,17 C3,18.6568542 4.34314575,20 6,20 L18,20 C19.6568542,20 21,18.6568542 21,17 C21,15.3431458 19.6568542,14 18,14 L6,14 Z M7,19.5 C5.61928813,19.5 4.5,18.3807119 4.5,17 C4.5,15.6192881 5.61928813,14.5 7,14.5 C8.38071187,14.5 9.5,15.6192881 9.5,17 C9.5,18.3807119 8.38071187,19.5 7,19.5 Z M7,18.5 C7.82842712,18.5 8.5,17.8284271 8.5,17 C8.5,16.1715729 7.82842712,15.5 7,15.5 C6.17157288,15.5 5.5,16.1715729 5.5,17 C5.5,17.8284271 6.17157288,18.5 7,18.5 Z"/>
</svg>
