<svg xmlns="http://www.w3.org/2000/svg" width="276" height="189" viewBox="0 0 276 189">
  <g fill="none" transform="translate(.357)">
    <path fill="#B9EFE9" d="M275.009766,112.58 C275.009766,163.642614 243.066507,178.178642 205.764693,184.416044 C168.46288,190.653445 87.8636977,190.964316 49.6867316,178.242158 C11.5097656,165.52 0,145.850587 0,91.84 C0,37.8294133 61.0343196,0.313576356 126.606663,5.50390625 C192.179006,10.6942361 275.009766,61.5173856 275.009766,112.58 Z" transform="matrix(-1 0 0 1 275.01 0)"/>
    <path fill="#000" d="M64.513181,109.990218 C75.8218723,114.216859 88.2705833,114.252336 99.603181,110.090218 L99.603181,105.780218 L64.513181,105.780218 L64.513181,109.990218 Z" opacity=".1"/>
    <path fill="#33CCAB" d="M142.153932,188.537262 C114.211726,188.990229 86.8863321,187.365917 69.2450726,184.416044 C47.7915164,180.8287 28.1104607,174.496339 15.2594516,160.048799 C17.5257158,144.377436 23.2769323,124.099257 37.863181,124.610218 L125.573181,124.610218 C125.573181,124.610218 139.219275,123.78 143.230545,147.221961 C142.755261,147.221961 146.383026,177.984875 142.153932,188.537262 Z"/>
    <path fill="#EBB29F" d="M67.793181,95.4402175 L96.183181,95.4402175 C98.0333349,95.4402175 99.533181,96.9400636 99.533181,98.7902175 L99.533181,123.510218 C99.533181,133.197292 91.6802555,141.050218 81.993181,141.050218 L81.993181,141.050218 C72.3061065,141.050218 64.453181,133.197292 64.453181,123.510218 L64.453181,98.7902175 C64.453181,96.9439618 65.9469335,95.4457288 67.793181,95.4402175 Z"/>
    <path fill="#000" d="M64.443181,96.7402175 L99.533181,96.7402175 L99.533181,124.810218 C99.533181,134.497292 91.6802555,142.350218 81.993181,142.350218 L81.993181,142.350218 C72.3061065,142.350218 64.453181,134.497292 64.453181,124.810218 L64.453181,96.7402175 L64.443181,96.7402175 Z" opacity=".05"/>
    <circle cx="81.903" cy="52.26" r="52.26" fill="#533C22"/>
    <path fill="#EBB29F" d="M132.111937,68.7520969 C128.940645,93.474407 107.818127,112.58 82.2332591,112.58 C56.6767188,112.58 35.5726527,93.5166917 32.365181,68.8341952 C30.072625,68.2673788 28.3032591,64.5908976 28.3032591,60.14 C28.3032591,55.2964627 30.3985665,51.37 32.9832591,51.37 C33.0327523,51.37 33.082066,51.3714397 33.131189,51.374298 C38.1165605,28.8482042 58.2073553,12 82.2332591,12 C106.258505,12 126.348857,28.8472813 131.33492,51.3724472 C133.868029,51.48359 135.903259,55.366405 135.903259,60.14 C135.903259,64.414125 134.271647,67.9741258 132.111938,68.7520908 Z"/>
    <path fill="#533C22" d="M46.5825781,17.31 C46.5825781,17.31 78.5092543,44.9980469 118.9375,21.046875 L113.662578,13.48 L88.9925781,4.62 L46.5825781,17.31 Z"/>
    <path fill="#2C1C0E" d="M256.593103,87 C256.593103,128.78 229.333103,175.29 195.703103,175.29 C162.073103,175.29 134.843103,128.78 134.843103,87 C134.843103,45.22 162.103103,24 195.733103,24 C229.363103,24 256.593103,45.23 256.593103,87 Z"/>
    <path fill="#7A3814" d="M132.745702,188.612334 C130.599695,150.680924 148.723103,147.78 148.723103,147.78 L236.433103,147.78 C246.299889,147.78 251.363817,152.903245 253.937484,163.29407 C246.729873,169.537154 237.349678,174.234378 225.323034,178.242158 C203.166955,185.625488 166.722714,188.619184 132.745702,188.612334 Z"/>
    <path fill="#D9A391" d="M178.653103,118.61 L207.043103,118.61 C208.893257,118.61 210.393103,120.109846 210.393103,121.96 L210.393103,146.68 C210.393103,156.367075 202.540177,164.22 192.853103,164.22 L192.853103,164.22 C183.166028,164.22 175.313103,156.367075 175.313103,146.68 L175.313103,121.96 C175.313103,120.113744 176.806855,118.615511 178.653103,118.61 Z"/>
    <path fill="#000" d="M175.303103,119.91 L210.393103,119.91 L210.393103,147.98 C210.393103,157.667075 202.540177,165.52 192.853103,165.52 L192.853103,165.52 C183.166028,165.52 175.313103,157.667075 175.313103,147.98 L175.313103,119.91 L175.303103,119.91 Z" opacity=".1"/>
    <path fill="#000" d="M175.373103,133.16 C186.681794,137.386642 199.130505,137.422118 210.463103,133.26 L210.463103,128.95 L175.373103,128.95 L175.373103,133.16 Z" opacity=".1"/>
    <circle cx="192.973" cy="85.22" r="50.29" fill="#D9A391"/>
    <ellipse cx="143.723" cy="83.07" fill="#D9A391" rx="4.68" ry="8.77"/>
    <ellipse cx="241.963" cy="83.07" fill="#D9A391" rx="4.68" ry="8.77"/>
    <path fill="#2C1C0E" d="M156.789062,42.2839753 C156.789062,43.5956278 178.063103,83.1685327 243.263103,73.3071695 C243.263103,73.3071695 249.323103,62.4667502 231.603103,42.2839753 C213.883103,22.1012004 181.919587,34.1850691 156.789062,42.2839753 Z"/>
    <path fill="#2C1C0E" d="M139.642578,37.8789063 C139.642578,39.1905588 142.683103,77.3884047 167.642578,74.2518422 C158.882053,51.37 144.106734,25.3198287 139.642578,37.8789063 Z" transform="matrix(-1 0 0 1 307.285 0)"/>
  </g>
</svg>
