<svg xmlns="http://www.w3.org/2000/svg" width="20" height="22"><path fill="#cc3333" d="M12 0a3 3 0 012.995 2.824L15 3v1h4a1 1 0 01.993.883L20 5a1 1 0 01-1 1h-1v13a3 3 0 01-2.824 2.995L15 22H5a3 3 0 01-2.995-2.824L2 19V6H1a1 1 0 01-.993-.883L0 5a1 1 0 011-1h4V3A3 3 0 017.824.005L8 0h4zm4 6H4v13a1 1 0 00.883.993L5 20h10a1 1 0 00.993-.883L16 19V6zM8 9a1 1 0 011 1v6a1 1 0 01-2 0v-6a1 1 0 011-1zm4 0a1 1 0 011 1v6a1 1 0 01-2 0v-6a1 1 0 011-1zm0-7H8a1 1 0 00-.993.883L7 3v1h6V3a1 1 0 00-.883-.993L12 2z"/></svg>
