<svg xmlns="http://www.w3.org/2000/svg" width="814" height="676" viewBox="0 0 814 676">
  <g fill="none">
    <path fill="#3F3D56" d="M597.331871,584.85334 L595.33186,584.85334 L595.33186,366.00568 C595.334658,364.200015 594.521352,362.489783 593.11896,361.35236 L594.38264,359.80158 C596.25189,361.31835 597.335781,363.598467 597.331871,366.00568 L597.331871,584.85334 Z"/>
    <path fill="#3F3D56" d="M342.7764,675.00584 C342.7764,675.00584 394.19286,537.8953 365.84793,453.51957 C337.503,369.14384 315.09066,372.43977 315.09066,372.43977 C315.09066,372.43977 276.85791,362.55199 229.39656,391.55615 C181.93521,420.56031 169.41069,429.12971 142.38409,417.26438 C115.35749,405.39905 110.08401,386.94185 44.16547,388.91938 C44.16547,388.91938 79.1023,369.80301 113.37994,386.94183 C147.65758,404.08065 170.72907,413.30924 205.66594,386.94183 C240.60281,360.57442 288.7232,326.29684 335.52536,346.73154 C335.52536,346.73154 301.24772,313.11309 290.04157,313.11309 C278.83542,313.11309 226.10057,307.8396 208.96177,290.0416 C208.96177,290.0416 184.57191,272.90278 141.06567,315.0906 C97.55943,357.27842 108.10641,357.27847 69.21447,353.98254 C30.32253,350.68661 0,331.57024 0,331.57024 C0,331.57024 45.4838,350.02743 73.16958,340.79883 C100.85536,331.57023 124.58604,296.63341 148.9759,284.76808 C173.36576,272.90275 187.86783,257.08229 220.8271,274.22108 C220.8271,274.22108 206.98421,217.53114 180.6168,222.14544 C154.24939,226.75974 96.24107,222.80462 57.34913,195.77802 C57.34913,195.77802 26.36742,195.11884 12.52453,201.71069 C12.52453,201.71069 48.77972,180.61676 79.76143,195.77802 C110.74314,210.93928 193.14132,208.96184 193.14132,208.96184 C193.14132,208.96184 185.89032,112.72077 172.04739,106.12892 C158.20446,99.53707 166.7739,82.39825 141.06567,79.10232 C141.06567,79.10232 172.70657,75.14721 178.63924,96.90032 C184.57191,118.65343 225.4414,235.98843 225.4414,235.98843 C225.4414,235.98843 250.49045,286.08652 278.17623,274.22118 C305.86201,262.35584 267.62923,195.77812 267.62923,195.77812 L220.16793,174.02497 C220.16793,174.02497 255.76393,172.7066 277.51706,193.14135 C299.27019,213.5761 300.58854,279.49463 300.58854,279.49463 C300.58854,279.49463 355.30093,287.40486 368.48464,317.0682 C368.48464,317.0682 377.05405,290.70078 360.57441,274.88034 C356.4545,270.92522 352.1286,264.04498 347.95719,255.94934 C332.148351,224.900964 326.433645,189.689617 331.61155,155.23515 C334.06732,138.37009 335.57872,121.87989 332.88863,117.9942 C326.95593,109.42484 301.90693,56.68998 299.92935,42.84709 C297.95177,29.0042 301.9069,9.00000001e-05 301.9069,9.00000001e-05 C301.9069,9.00000001e-05 302.56609,35.59609 310.47631,46.80225 C318.38653,58.00841 340.79884,113.37997 340.79884,113.37997 C340.79884,113.37997 352.66418,88.99011 366.50707,83.05744 C380.34996,77.12477 401.44389,40.86958 393.53367,23.07157 C393.53367,23.07157 403.42145,50.75736 395.51123,66.57781 C387.60101,82.39826 365.1887,100.85545 365.1887,100.85545 C365.1887,100.85545 340.79884,183.25362 359.25603,217.53126 C377.71322,251.8089 413.30923,290.04165 411.33168,315.09069 L411.33168,329.59277 C411.33168,329.59277 450.8828,292.01921 448.24606,279.49468 C445.60932,266.97015 442.31339,237.30682 417.26434,219.50881 C392.21529,201.7108 375.73567,173.36581 393.53367,132.49635 C411.33167,91.62689 411.33167,84.37581 411.33167,84.37581 L399.46634,135.13304 C399.46634,135.13304 392.87448,180.61683 411.33168,196.43728 C429.78888,212.25773 454.17868,241.26188 454.17868,241.26188 L448.9052,146.33919 C448.9052,146.33919 447.58683,68.55531 523.39315,34.93686 L571.51368,14.50211 L522.07482,45.48384 C522.07482,45.48384 462.74813,98.21867 466.70325,130.51875 C470.65837,162.81883 466.04406,183.91275 466.04406,183.91275 C466.04406,183.91275 502.95844,136.45141 546.46468,120.63096 C589.97092,104.81051 616.99751,49.43896 616.99751,49.43896 L653.91193,20.43478 L623.5894,56.68998 C623.5894,56.68998 614.36081,99.53698 562.28517,129.85955 C510.20953,160.18212 476.59107,205.00669 474.61351,232.69247 C472.63595,260.37825 470.6584,284.76812 470.6584,284.76812 C470.6584,284.76812 568.21783,281.47219 589.97095,238.62512 C611.72407,195.77805 613.70162,110.74312 634.79556,96.90027 C655.8895,83.05742 695.44056,65.91855 695.44056,65.91855 L651.27514,102.17375 C651.27514,102.17375 642.04654,131.83709 644.02414,152.93102 C646.00174,174.02495 629.52206,193.80051 629.52206,193.80051 C629.52206,193.80051 675.00585,177.98007 700.0549,147.65751 C725.10395,117.33495 754.1081,89.6492 754.1081,89.6492 C754.1081,89.6492 719.17127,141.72484 719.17127,143.7024 C719.17127,145.67996 698.07734,166.1147 700.71408,178.63922 C703.35082,191.16374 660.50378,205.66582 660.50378,205.66582 L616.99754,230.71487 L603.15462,262.35584 C603.15462,262.35584 659.84456,263.67421 689.5079,297.29267 C719.17124,330.91113 793,340.79884 793,340.79884 L751.47133,352.00502 C751.47133,352.00502 711.9202,338.82132 674.34664,314.43146 C636.77308,290.0416 640.72818,268.28846 593.92602,292.67834 C547.12386,317.06822 483.18288,337.50295 483.18288,337.50295 C483.18288,337.50295 520.09726,320.36413 586.67498,361.8928 C653.2527,403.42147 724.44473,375.7357 724.44473,375.7357 C724.44473,375.7357 708.62428,406.05822 675.00582,408.03578 C641.38736,410.01334 553.71572,354.64178 524.05237,370.46221 C494.38902,386.28264 480.54614,366.5071 468.6808,406.05821 C456.81546,445.60932 435.06235,553.71575 460.11139,614.36084 L485.16039,675.00584 L342.7764,675.00584 Z"/>
    <path fill="#000" d="M590.97084 238.62512C573.29798 273.43548 505.58937 282.14019 480.81129 284.18096 480.11647 293.11696 479.65829 298.76812 479.65829 298.76812 479.65829 298.76812 577.21773 295.47212 598.97079 252.62512 620.72385 209.77812 622.7015 124.74312 643.79549 110.90026 646.03255 109.43219 648.47884 107.92688 651.06185 106.40899 651.78646 103.74847 652.27511 102.17376 652.27511 102.17376L696.44051 65.91857C696.44051 65.91857 656.88951 83.05737 635.79551 96.90026 614.70151 110.74315 612.72401 195.77807 590.97084 238.62512zM650.77699 184.99652C648.034181 193.246194 643.888394 200.960709 638.5221 207.80052 638.5221 207.80052 678.12684 194.02202 703.77601 167.54045 708.76039 156.60393 720.17127 145.15745 720.17127 143.70245 720.17127 141.72485 755.10804 89.64923 755.10804 89.64923 755.10804 89.64923 726.10389 117.33502 701.05482 147.65753 686.85853 164.84265 666.10093 177.36749 650.77699 184.99652zM412.33168 196.43725C411.87684 196.04736 411.44129 195.6344 411.01649 195.20959 412.99794 201.28289 415.96205 206.69189 420.33168 210.43725 438.78895 226.25769 463.17868 255.26184 463.17868 255.26184L457.90512 160.33917C457.90512 160.33917 457.03561 108.61505 497.8215 71.29449 505.74231 62.2183705 514.173736 53.600853 523.0748 45.48382L572.5138 14.50207 524.3932 34.93684C448.5868 68.55531 449.9052 146.33919 449.9052 146.33919L455.17876 241.26186C455.17876 241.26186 430.78893 212.25769 412.33168 196.43725z" opacity=".1"/>
    <path fill="#000" d="M477.29444 172.03027C477.15052 188.25994 475.04408 197.91272 475.04408 197.91272 475.04408 197.91272 511.943 150.47172 555.43739 134.64117 558.00794 133.01495 560.61585 131.41381 563.28504 129.85955 615.36073 99.53698 624.58937 56.68994 624.58937 56.68994L654.91193 20.43475 617.9975 49.4389C617.9975 49.4389 590.97089 104.81048 547.46478 120.6309 517.80893 131.41484 491.22084 156.89624 477.29444 172.03027zM420.33168 329.09063L420.33168 343.59271C420.33168 343.59271 459.88282 306.01916 457.24598 293.49462 455.22962 283.91632 452.81532 264.31781 440.59266 247.66473 446.10206 260.24973 447.77894 272.52563 449.24598 279.49462 451.13685 288.47589 431.3346 310.33662 419.9784 321.98762 420.376806 324.33297 420.495396 326.717322 420.33168 329.09063zM367.27748 229.56984C367.59071 230.23793 367.91371 230.89534 368.25599 231.53114 378.36439 250.30385 393.60399 270.25899 405.00624 288.58894 395.79093 270.43658 379.75355 249.67901 367.27748 229.56984zM587.67493 361.89284C565.99048 348.3669 547.45593 341.0677 532.31531 337.36964 516.43298 343.34764 503.36121 347.80489 496.78381 349.99348 508.57996 346.93996 542.75549 342.88368 595.67493 375.89284 637.19543 401.79164 680.50793 400.77077 707.23084 396.33418 714.621343 390.758162 720.815358 383.753195 725.4447 375.73567 725.4447 375.73567 654.2527 403.42144 587.67493 361.89284zM399.41432 201.50604C394.09864 188.4815 393.22279 172.98346 399.32972 154.82269 399.253279 148.241101 399.633055 141.662126 400.46632 135.13305L410.84584 90.73184C408.93214 97.13491 404.5536 109.48751 394.53358 132.4963 381.84877 161.62457 386.58293 184.38584 399.41432 201.50604zM690.50793 297.2926C669.93628 273.97808 636.3717 266.20007 617.72593 263.62121L612.15464 276.35577C612.15464 276.35577 668.84458 277.67419 698.50791 311.2926 714.9575 329.93554 744.98497 341.27789 768.47618 347.68621L793.99998 340.79888C793.99998 340.79888 720.17127 330.91107 690.50793 297.2926zM287.17616 288.22113C314.86195 276.35577 276.62928 209.77807 276.62928 209.77807L275.58338 209.2987C285.115 229.40918 298.93873 265.75146 279.17616 274.22113 260.68373 282.14648 243.37016 262.42895 233.90931 248.45913 234.25282 249.44713 234.44142 249.98843 234.44142 249.98843 234.44142 249.98843 259.49037 300.08648 287.17616 288.22113zM377.48463 331.06817C377.48463 331.06817 385.82704 305.35345 370.15492 289.47674 373.99806 303.15429 369.48463 317.06817 369.48463 317.06817 359.28602 294.12146 324.2422 284.19409 308.89247 280.87402 309.4878 288.51373 309.58847 293.49462 309.58847 293.49462 309.58847 293.49462 364.30093 301.40484 377.48463 331.06817zM410.84584 90.73184C412.33131 85.76144 412.33168 84.37576 412.33168 84.37576L410.84584 90.73184zM81.76954 354.92484C81.90248 354.88205 82.03749 354.84293 82.16954 354.79892 109.85533 345.57029 133.58604 310.63346 157.97593 298.76816 182.36582 286.90286 196.86778 271.08237 229.82701 288.22116 229.82701 288.22116 224.06089 264.6188 212.88707 249.11233 216.588071 257.207452 219.579281 265.608604 221.82701 274.22116 188.86778 257.08236 174.3657 272.9028 149.97593 284.76816 125.58616 296.63352 101.85533 331.57029 74.16954 340.79892 46.48375 350.02755.99998 331.57029.99998 331.57029.99998 331.57029 31.32249 350.68668 70.21446 353.98258 74.66346 354.35955 78.4596 354.69226 81.76954 354.92484zM58.34913 195.77807C63.4608848 199.304916 68.8266575 202.448596 74.40248 205.18335 79.3831894 206.023189 84.2183454 207.570398 88.76136 209.77807 108.69313 219.53186 149.9015 222.19171 176.76356 222.84869 178.47523 222.64312 180.10389 222.41027 181.61683 222.1455 184.725766 221.59298 187.926685 221.903472 190.87147 223.04321 197.85023 223.06414 202.14125 222.96179 202.14125 222.96179 202.14125 222.96179 194.89025 126.7207 181.04737 120.12879 180.94288 120.07905 180.85121 120.02314 180.74928 119.97217 189.56678 148.25935 194.14128 208.96174 194.14128 208.96174 194.14128 208.96174 111.7432 210.93928 80.76139 195.77802 49.77958 180.61676 13.52458 201.7107 13.52458 201.7107 27.36744 195.11884 58.34913 195.77807 58.34913 195.77807zM356.59193 675.00584C368.67005 637.98027 397.71693 535.59471 374.84793 467.51952 364.97183 438.12071 355.81766 419.37395 348.07901 407.41417 353.86624 418.7357 360.19351 433.71105 366.84793 453.51952 395.19293 537.89526 343.77638 675.00584 343.77638 675.00584L356.59193 675.00584zM99.16151 394.22155C107.243176 395.041819 115.109538 397.318642 122.37993 400.94184 149.45134 414.47748 169.53716 423.0619 193.99431 413.09184 199.56572 410.14867 205.79754 406.50664 212.98431 402.1707 213.54462 401.76183 214.09955 401.36937 214.66595 400.94188 249.60272 374.57445 297.72333 340.2968 344.52533 360.73155 344.52533 360.73155 335.06647 351.4572 324.46333 342.65062 281.56593 332.12731 238.60633 362.83584 206.66593 386.94184 171.72904 413.30927 148.65763 404.08063 114.37993 386.94184 80.10223 369.80305 45.16546 388.91938 45.16546 388.91938 70.63465 388.15527 87.04627 390.44329 99.16151 394.22155zM166.07106 99.72961C166.822973 100.995818 167.73399 102.16049 168.78187 103.19519 168.012226 101.941203 167.102808 100.778576 166.07106 99.72961L166.07106 99.72961zM286.51698 207.14135C287.535866 208.104854 288.490509 209.1341 289.37477 210.22247 286.48719 203.28094 282.92127 197.27856 278.51698 193.14135 256.76398 172.7066 221.16786 174.02496 221.16786 174.02496L265.80893 194.48547C273.458343 197.339144 280.488395 201.635613 286.51698 207.14135L286.51698 207.14135zM333.88856 117.9942C336.57875 121.87988 335.06727 138.37011 332.61146 155.2352 327.433645 189.68967 333.148368 224.900992 348.95716 255.94938 351.057097 260.10426 353.402516 264.130445 355.98097 268.00657 340.915666 237.417195 335.553255 202.955932 340.61146 169.2352 343.06727 152.3702 344.57875 135.87992 341.88856 131.9942 335.95593 123.42484 310.90687 70.68994 308.92933 56.84704 308.336409 51.4766476 308.198251 46.0657633 308.51633 40.67211 303.39584 26.14361 302.90683-1.13686838e-13 302.90683-1.13686838e-13 302.90683-1.13686838e-13 298.95175 29.00421 300.92929 42.847 302.90683 56.68979 327.95593 109.42484 333.88856 117.9942zM349.79884 127.37984C349.79884 127.37984 356.18584 114.26314 365.05116 104.92775 365.75502 102.32289 366.18861 100.85536 366.18861 100.85536 366.18861 100.85536 388.60096 82.39815 396.51124 66.57771 402.63441 54.33144 398.09474 34.985 395.73024 26.86421 399.65724 45.56972 380.42788 77.51979 367.5071 83.05733 356.30227 87.85939 346.39565 104.75008 343.02578 111.01497 346.99647 120.4569 349.79884 127.37984 349.79884 127.37984z" opacity=".1"/>
    <path fill="#000" d="M395.73023 26.86425C395.466108 25.5613749 395.064996 24.2900708 394.53358 23.07153 394.53358 23.07153 395.04017 24.4942 395.73023 26.86425zM162.90321 93.25284C168.71278 93.96402 175.3954 95.7465 180.49281 99.88035 180.16029 98.75571 179.87025 97.74753 179.63929 96.90035 173.70655 75.14724 142.06568 79.10235 142.06568 79.10235 156.36463 80.93548 160.05799 87.05139 162.90321 93.25284z" opacity=".1"/>
    <path fill="#3F3D56" d="M784.53029,641.1377 C774.69929,656.21395 777.39302,675.389 777.39302,675.389 C777.39302,675.389 796.02586,670.12062 805.85683,655.04437 C815.6878,639.96812 812.9941,620.79307 812.9941,620.79307 C812.9941,620.79307 794.36126,626.06145 784.53029,641.1377 Z"/>
    <path fill="#33CCAB" d="M791.91493,643.80322 C791.13787,661.78481 777.78975,675.81215 777.78975,675.81215 C777.78975,675.81215 765.70151,660.68559 766.47857,642.70401 C767.25563,624.72243 780.60375,610.69508 780.60375,610.69508 C780.60375,610.69508 792.692,625.82164 791.91493,643.80322 Z"/>
    <path fill="#FFB9B9" d="M618.76158,530.01031 C618.76158,530.01031 630.07358,518.14299 634.70333,520.53047 C639.33308,522.91795 621.39143,533.52991 621.39143,533.52991 L618.76158,530.01031 Z"/>
    <path fill="#000" d="M618.76158,530.01031 C618.76158,530.01031 630.07358,518.14299 634.70333,520.53047 C639.33308,522.91795 621.39143,533.52991 621.39143,533.52991 L618.76158,530.01031 Z" opacity=".1"/>
    <path fill="#D0CDE1" d="M584.24777,504.10903 C584.24777,504.10903 580.08949,511.56241 581.17762,519.5972 C582.26575,527.63199 592.21704,553.41461 595.60011,552.95645 C598.98318,552.49829 624.04328,534.03206 624.04328,534.03206 L619.26373,527.35847 L600.95648,538.45057 C600.95648,538.45057 598.16765,498.77877 584.24777,504.10903 Z"/>
    <path fill="#2F2E41" d="M652.12957,522.25335 L623.59016,537.92967 C623.255274,538.152182 622.839055,538.215004 622.453414,538.101243 C622.067773,537.987483 621.75229,537.708816 621.59179,537.34017 L614.60048,522.72663 C614.326669,521.86565 614.724345,520.933953 615.53548,520.53606 L639.23036,508.3227 C639.834703,507.959263 640.615695,508.108569 641.04336,508.6693 L652.87925,519.81984 C653.114712,520.239532 653.167796,520.737412 653.026116,521.197314 C652.884436,521.657217 652.560385,522.038915 652.12957,522.25335 L652.12957,522.25335 Z"/>
    <polygon fill="#F5DD48" points="650.225 520.094 623.47 535.387 616.35 522.555 639.302 510.073"/>
    <ellipse cx="627.519" cy="515.459" fill="#F2F2F2" rx="1" ry="1" transform="rotate(-50.158 627.519 515.46)"/>
    <ellipse cx="637.453" cy="528.588" fill="#F2F2F2" rx="1" ry="1" transform="rotate(-50.158 637.453 528.588)"/>
    <path fill="#000" d="M584.24777,504.10903 C584.24777,504.10903 580.08949,511.56241 581.17762,519.5972 C582.26575,527.63199 592.21704,553.41461 595.60011,552.95645 C598.98318,552.49829 624.04328,534.03206 624.04328,534.03206 L619.26373,527.35847 L600.95648,538.45057 C600.95648,538.45057 598.16765,498.77877 584.24777,504.10903 Z" opacity=".1"/>
    <path fill="#FFB9B9" d="M611.11386,532.27793 C611.11386,532.27793 623.91618,522.03607 628.18362,525.02328 C632.45106,528.01049 613.24762,536.11863 613.24762,536.11863 L611.11386,532.27793 Z"/>
    <circle cx="594.044" cy="478.935" r="12.376" fill="#FFB9B9"/>
    <path fill="#FFB9B9" d="M636.7185,565.13722 C636.7185,565.13722 649.94757,566.84422 649.52082,574.95234 C649.09407,583.06046 639.27893,616.77326 639.27893,616.77326 L638.42544,630.00232 C638.42544,630.00232 639.27893,652.19302 636.71844,651.76632 C634.15795,651.33962 628.18356,635.97679 628.18356,635.97679 C628.18356,635.97679 620.92891,631.28261 624.34286,627.01517 C627.75681,622.74773 630.31728,623.17447 629.46379,618.48028 C628.6103,613.78609 629.03705,594.15587 631.59751,588.18145 C634.15797,582.20703 635.64994,578.91186 635.64994,578.91186 L627.33007,578.36634 L636.7185,565.13722 Z"/>
    <path fill="#000" d="M636.7185,565.13722 C636.7185,565.13722 649.94757,566.84422 649.52082,574.95234 C649.09407,583.06046 639.27893,616.77326 639.27893,616.77326 L638.42544,630.00232 C638.42544,630.00232 639.27893,652.19302 636.71844,651.76632 C634.15795,651.33962 628.18356,635.97679 628.18356,635.97679 C628.18356,635.97679 620.92891,631.28261 624.34286,627.01517 C627.75681,622.74773 630.31728,623.17447 629.46379,618.48028 C628.6103,613.78609 629.03705,594.15587 631.59751,588.18145 C634.15797,582.20703 635.64994,578.91186 635.64994,578.91186 L627.33007,578.36634 L636.7185,565.13722 Z" opacity=".1"/>
    <path fill="#FFB9B9" d="M637.57199,567.27095 C637.57199,567.27095 650.37431,570.25815 651.65454,578.79304 C652.93477,587.32793 659.33593,612.50584 659.33593,612.50584 L666.16383,628.29537 C666.16383,628.29537 676.83243,647.49885 672.13825,647.07211 C667.44407,646.64537 661.0429,637.25699 658.90918,637.25699 C656.77546,637.25699 650.3743,634.69653 650.80105,632.98955 C651.2278,631.28257 654.21505,626.16165 654.21505,626.16165 L643.89051,608.17697 C641.896981,604.705265 640.390159,600.975993 639.41236,597.09388 C638.35179,592.8817 637.14529,587.72197 637.14529,586.0477 C637.14529,583.0605 628.6104,581.78026 628.6104,581.78026 L637.57199,567.27095 Z"/>
    <path fill="#07454C" d="M595.75107,539.95932 L601.72549,557.02909 C601.72549,557.02909 611.11386,559.58955 617.94176,561.72327 C624.76966,563.85699 637.57199,560.86978 638.85222,565.99071 C640.13245,571.11164 636.29176,580.07327 632.45106,582.20699 C628.61036,584.34071 626.47664,586.47443 614.10106,583.06048 C601.72548,579.64653 572.28014,578.79304 572.28014,578.79304 C569.425728,580.505675 566.211021,581.528533 562.89177,581.78024 C557.34409,582.20699 556.06386,582.63373 554.35689,581.3535 C552.64992,580.07327 555.21037,580.07327 556.06389,576.65931 C556.91741,573.24535 557.34412,574.52559 561.18482,570.6849 C565.02552,566.84421 568.01273,555.32211 570.14645,551.48141 C572.28017,547.64071 573.56045,539.95932 573.56045,539.95932 L595.75107,539.95932 Z"/>
    <path fill="#FFB9B9" d="M594.89758,489.17678 C591.755348,491.472568 589.862114,495.101266 589.77665,498.99189 C589.77665,505.39305 576.97433,492.16399 576.97433,492.16399 C576.97433,492.16399 583.80224,483.62911 583.80224,481.06864 C583.80224,478.50817 594.89758,489.17678 594.89758,489.17678 Z"/>
    <path fill="#33CCAB" d="M578.68131,486.61632 C578.68131,486.61632 586.3627,489.60352 588.06968,493.87096 C589.77666,498.1384 596.17782,507.10003 596.17782,507.10003 C596.17782,507.10003 605.13944,516.4884 602.15223,526.73026 C599.16502,536.97212 596.60456,539.53258 596.60456,541.23956 C596.60456,542.94654 592.33712,545.93374 588.92317,545.507 C585.50922,545.08026 572.70689,543.37328 571.8534,541.6663 C570.99991,539.95932 565.87899,515.63491 569.29294,506.6733 C572.062389,499.824961 575.196327,493.129728 578.68131,486.61632 Z"/>
    <path fill="#2F2E41" d="M597.6335,479.49805 C600.4029,480.15532 603.12063,478.39083 605.38986,476.64141 C606.67842,475.64802 608.09658,474.23141 607.70178,472.63261 C607.35152,471.21425 605.68061,470.4103 605.43743,468.96877 C605.26843,467.96708 605.85397,466.99254 605.90143,465.97725 C605.815761,464.399854 604.857427,463.001958 603.41702,462.35331 C602.06772,461.62673 600.53741,461.32381 599.15127,460.67358 C597.03454,459.68058 595.27535,457.89066 593.01468,457.31729 C589.92628,456.53397 586.78156,458.20177 583.60637,458.41768 C581.68484,458.54834 579.73877,458.14316 577.83789,458.45838 C574.106304,459.21291 571.378469,462.427153 571.24084,466.23177 C571.21635,467.58996 571.48776,469.10526 570.67732,470.18241 C570.357021,470.553403 569.99231,470.883595 569.5914,471.16555 C566.76768,473.44905 565.48565,477.26406 565.33989,480.93942 C565.26815,482.74836 565.64706,484.89725 567.25196,485.66618 C568.111644,485.960401 569.01988,486.086584 569.92721,486.03786 C570.852828,485.998957 571.73755,486.421354 572.28927,487.16559 C573.02027,488.4552 571.92502,490.35998 572.88127,491.4854 C573.59957,492.33075 575.00063,492.04999 575.83948,491.32968 C576.67833,490.60937 577.20148,489.57343 577.99666,488.8032 C579.54351,487.30493 581.838,487.03334 583.95822,486.80557 C584.586519,486.80074 585.197712,486.60032 585.70687,486.23216 C586.092106,485.827882 586.342652,485.314197 586.42406,484.76173 C586.703288,483.490289 586.706892,482.173781 586.43463,480.90083 C586.300116,480.506746 586.283144,480.082042 586.38578,479.67848 C586.525922,479.391666 586.742504,479.149094 587.01167,478.97748 C588.32578,477.99035 590.62787,476.55308 592.33567,476.82495 C594.23093,477.12661 595.72182,479.04435 597.6335,479.49805 Z"/>
    <path fill="#33CCAB" d="M580.38828,501.9791 C580.38828,501.9791 575.26736,508.80701 575.26736,516.9151 C575.26736,525.02319 581.66852,551.9081 585.08247,551.9081 C588.49642,551.9081 615.80804,536.9721 615.80804,536.9721 L611.96735,529.71745 L592.33712,538.25233 C592.33712,538.25233 594.89758,498.56515 580.38828,501.9791 Z"/>
    <rect width="98" height="19" x="540.332" y="579.006" fill="#3F3D56"/>
    <path fill="#3F3D56" d="M589.33186,599.00568 C584.915675,599.000632 581.336908,595.421865 581.33186,591.00568 L581.33186,366.00568 C581.33186,362.918105 583.108683,360.10615 585.897208,358.780537 C588.685732,357.454924 591.988179,357.852304 594.38264,359.80158 L593.11896,361.35236 C591.323174,359.890552 588.846467,359.59265 586.755259,360.586924 C584.664051,361.581198 583.331689,363.690139 583.33186,366.00568 L583.33186,591.00568 C583.33547,594.317892 586.019648,597.00207 589.33186,597.00568 L589.33186,599.00568 Z"/>
    <ellipse cx="572.332" cy="471.006" fill="#F5DD48" rx="1" ry="3" transform="rotate(-38.768 572.332 471.006)"/>
    <path fill="#3F3D56" d="M488.53029,641.1377 C478.69929,656.21395 481.39302,675.389 481.39302,675.389 C481.39302,675.389 500.02586,670.12062 509.85683,655.04437 C519.6878,639.96812 516.9941,620.79307 516.9941,620.79307 C516.9941,620.79307 498.36126,626.06145 488.53029,641.1377 Z"/>
    <path fill="#F5DD48" d="M495.91493,643.80322 C495.13787,661.78481 481.78975,675.81215 481.78975,675.81215 C481.78975,675.81215 469.70151,660.68559 470.47857,642.70401 C471.25563,624.72243 484.60375,610.69508 484.60375,610.69508 C484.60375,610.69508 496.692,625.82164 495.91493,643.80322 Z"/>
    <path fill="#3F3D56" d="M326.7413,646.84075 C331.4413,664.21462 347.53968,674.97475 347.53968,674.97475 C347.53968,674.97475 356.01797,657.56621 351.31801,640.19233 C346.61805,622.81845 330.51962,612.05833 330.51962,612.05833 C330.51962,612.05833 322.04134,629.46684 326.7413,646.84075 Z"/>
    <path fill="#33CCAB" d="M333.64756,643.10691 C346.54432,655.66139 348.11956,674.96054 348.11956,674.96054 C348.11956,674.96054 328.78503,673.90486 315.88827,661.35039 C302.99151,648.79592 301.41627,629.49676 301.41627,629.49676 C301.41627,629.49676 320.7508,630.55244 333.64756,643.10691 Z"/>
    <path fill="#F5DD48" d="M290.90208,172.04661 C289.7809,190.01002 276.16668,203.77925 276.16668,203.77925 C276.16668,203.77925 264.37025,188.42403 265.49143,170.46062 C266.61261,152.49721 280.22682,138.72798 280.22682,138.72798 C280.22682,138.72798 292.02326,154.0832 290.90208,172.04661 Z"/>
    <path fill="#33CCAB" d="M148.98593,58.48507 C164.21102,68.08391 169.76425,86.63385 169.76425,86.63385 C169.76425,86.63385 150.63272,89.621 135.40762,80.02216 C120.18252,70.42332 114.6293,51.87338 114.6293,51.87338 C114.6293,51.87338 133.76081,48.88623 148.98593,58.48507 Z"/>
    <path fill="#F5DD48" d="M114.98593,277.48507 C130.21102,287.08391 135.76425,305.63385 135.76425,305.63385 C135.76425,305.63385 116.63272,308.621 101.40762,299.02216 C86.18252,289.42332 80.6293,270.87338 80.6293,270.87338 C80.6293,270.87338 99.76081,267.88623 114.98593,277.48507 Z"/>
    <path fill="#33CCAB" d="M195.98593 361.48507C211.21102 371.08391 216.76425 389.63385 216.76425 389.63385 216.76425 389.63385 197.63272 392.621 182.40762 383.02216 167.18252 373.42332 161.6293 354.87338 161.6293 354.87338 161.6293 354.87338 180.76081 351.88623 195.98593 361.48507zM424.50561 90.50111C419.91414 107.90397 403.88317 118.76429 403.88317 118.76429 403.88317 118.76429 395.29643 101.40898 399.8879 84.00612 404.47937 66.60326 420.51034 55.74294 420.51034 55.74294 420.51034 55.74294 429.09707 73.09825 424.50561 90.50111z"/>
    <path fill="#F5DD48" d="M569.3411,104.07054 C563.94455,121.24082 547.42543,131.34315 547.42543,131.34315 C547.42543,131.34315 539.65585,113.60697 545.05243,96.43669 C550.44901,79.26641 566.9681,69.16408 566.9681,69.16408 C566.9681,69.16408 574.73766,86.90026 569.3411,104.07054 Z"/>
    <path fill="#33CCAB" d="M725.8855,295.16771 C716.11002,310.27999 697.49666,315.61682 697.49666,315.61682 C697.49666,315.61682 694.73251,296.45182 704.508,281.33952 C714.28349,266.22722 732.89684,260.89041 732.89684,260.89041 C732.89684,260.89041 735.66099,280.05543 725.8855,295.16771 Z"/>
  </g>
</svg>
