<svg xmlns="http://www.w3.org/2000/svg" width="48" height="48" viewBox="0 0 48 48">
  <path fill="#FFF" d="M37.125,3 L10.875,3 C6.52734415,3 3,6.52734415 3,10.875 L3,37.125 C3,41.4726558 6.52734415,45 10.875,45 L37.125,45 C41.4726558,45 45,41.4726558 45,37.125 L45,10.875 C45,6.52734415 41.4726558,3 37.125,3 Z M32.1021635,37.2512019 C32.1021635,37.3584732 32.0516827,37.4594347 31.9759615,37.5351558 C31.8686903,37.623498 29.4834732,39.6616595 24,39.6616595 C17.4248806,39.6616595 17.2355769,32.3293269 17.2355769,31.4963942 L17.2355769,22.2521038 L14.0994595,22.2521038 C13.8912268,22.2521038 13.7271635,22.0817308 13.7271635,21.873498 L13.7271635,18.579627 C13.7271635,18.421875 13.8218153,18.2830537 13.9669479,18.2262616 C14.0237384,18.2010212 19.904748,15.8410461 19.904748,10.2944712 C19.904748,10.0862384 20.0688097,9.91586538 20.2770441,9.91586538 L24,9.91586538 C24.2082328,9.91586538 24.3786058,10.0862384 24.3786058,10.2944712 L24.3786058,17.2860577 L30.4552288,17.2860577 C30.6697712,17.2860577 30.8338345,17.4564307 30.8338345,17.6646635 L30.8338345,22.1574519 C30.8338345,22.3656847 30.6697712,22.5360577 30.4552288,22.5360577 L24.3786058,22.5360577 L24.3786058,31.3512616 C24.3786058,31.4648442 24.4227768,34.2097364 27.2307692,34.2097364 C29.5528846,34.2097364 31.5027039,33.0108173 31.5216346,32.9981979 C31.6352172,32.9224768 31.7866595,32.9224768 31.9065501,32.9918866 C32.0264423,33.0549884 32.0958538,33.1811903 32.0958538,33.3200116 L32.0958538,37.2512019 L32.1021635,37.2512019 Z"/>
</svg>
