<svg xmlns="http://www.w3.org/2000/svg" width="164" height="174" viewBox="0 0 164 174">
  <g fill="none">
    <path fill="#B9EFE9" d="M132.922912,54.6023614 C148.899794,77.6779708 164.91839,97.7855217 163.958943,118.770949 C162.999496,139.79818 145.062005,161.745091 123.32844,169.980408 C101.594875,178.257529 76.0652371,172.864859 53.2053648,161.870502 C30.3037774,150.876145 10.0302411,134.2801 2.93867484,112.082367 C-4.15289138,89.9264373 1.89579745,62.1688203 17.7892488,39.0932109 C33.6409851,16.0176015 59.2957687,-2.3341965 80.1116014,1.5117384 C100.927434,5.35767329 116.904316,31.4849484 132.922912,54.6023614 Z" transform="rotate(180 82 87.5)"/>
    <path fill="#29A389" d="M136.810015,147.777197 C121.303383,164.856334 100.967169,176.643737 83.8883986,173.488262 C70.9419108,171.096267 59.8672581,160.085258 49.4902092,146.54 L132.41,146.54 C132.41,146.54 134.234372,146.69031 136.810015,147.777197 Z"/>
    <circle cx="88.95" cy="73.07" r="54.76" fill="#72351C"/>
    <path fill="#E8B497" d="M74.59,117.38 L102.98,117.38 C104.830154,117.38 106.33,118.879846 106.33,120.73 L106.33,145.45 C106.33,155.137075 98.4770745,162.99 88.79,162.99 L88.79,162.99 C79.1029255,162.99 71.25,155.137075 71.25,145.45 L71.25,120.73 C71.25,118.879846 72.7498461,117.38 74.6,117.38 L74.59,117.38 Z"/>
    <path fill="#000" d="M71.27,118.68 L106.360026,118.68 L106.360026,146.75 C106.367965,151.407093 104.523523,155.876171 101.233272,159.172051 C97.9430198,162.46793 93.4770997,164.32 88.82,164.32 L88.82,164.32 C79.1329255,164.32 71.28,156.467075 71.28,146.78 L71.28,118.68 L71.27,118.68 Z" opacity=".1"/>
    <path fill="#000" d="M71.31,131.93 C82.6186913,136.156642 95.0674023,136.192118 106.4,132.03 L106.4,127.72 L71.31,127.72 L71.31,131.93 Z" opacity=".1"/>
    <circle cx="88.95" cy="83.99" r="50.29" fill="#E8B497"/>
    <path fill="#000" d="M53.13,38.25 C53.13,38.25 74.32,81.25 134.13,56.25 L120.21,34.42 L95.54,25.56 L53.13,38.25 Z" opacity=".1"/>
    <path fill="#72351C" d="M53.13,37.62 C53.13,37.62 74.32,80.62 134.13,55.62 L120.21,33.79 L95.54,24.93 L53.13,37.62 Z"/>
    <path fill="#72351C" d="M52.94 34.71C54.3686125 30.286862 56.8377363 26.2711065 60.14 23 70.03 13.22 86.25 11.16 94.57 0 95.4841602 1.59720771 95.6795917 3.50671488 95.1079328 5.25599112 94.5362739 7.00526736 93.2509392 8.43086397 91.57 9.18 99.57 9.13 108.78 8.43 113.28 1.87 115.55322 7.1611302 114.576139 13.288323 110.77 17.61 117.83 17.93 125.37 22.72 125.83 29.78 126.13 34.48 123.19 38.93 119.32 41.63 115.45 44.33 110.79 45.54 106.19 46.54 92.77 49.54 44.18 61.95 52.94 34.71zM139.24 84.43L137.91 84.43 111.97 107.54C86.97 95.84 68.63 107.54 68.63 107.54L41.43 85.4 38.69 85.74C39.4618779 113.204131 62.13251 134.965447 89.6052252 134.613023 117.077941 134.260598 139.182889 111.924894 139.25 84.45L139.24 84.43zM88.88 116.38C79.1 116.38 71.17 114.38 71.17 111.95 71.17 109.52 79.1 107.52 88.88 107.52 98.66 107.52 106.59 109.52 106.59 111.95 106.59 114.38 98.66 116.38 88.87 116.38L88.88 116.38z"/>
    <ellipse cx="38.64" cy="83.94" fill="#E8B497" rx="4.68" ry="8.77"/>
    <ellipse cx="139.23" cy="83.94" fill="#E8B497" rx="4.68" ry="8.77"/>
  </g>
</svg>
