<svg xmlns="http://www.w3.org/2000/svg" width="187" height="193" viewBox="0 0 187 193">
  <g fill="none" fill-rule="evenodd">
    <path fill="#F5DD48" fill-rule="nonzero" d="M140.871537,54.6708123 C155.920435,75.6629138 176.10389,91.7434896 181.32264,106.36395 C186.54139,120.98441 198.409455,166.176898 145.486092,187.416044 C119.695582,196.939071 66.800071,193.891432 39.6730092,181.242158 C5.50070075,170.393657 -1.22838928,112.946017 0.285894755,95.1180086 C1.80017879,77.29 3.17810848,66.37 20.2461895,36.8271598 C37.3142705,7.28431969 59.1108256,-3.60762146 86.2020842,1.58876739 C113.293343,6.78515625 125.82264,33.6787109 140.871537,54.6708123 Z" transform="matrix(-1 0 0 1 186.323 0)"/>
    <g transform="translate(31.38 11)">
      <path fill="#000" fill-rule="nonzero" d="M51.35,113.990218 C62.6586913,118.216859 75.1074023,118.252336 86.44,114.090218 L86.44,109.780218 L51.35,109.780218 L51.35,113.990218 Z" opacity=".1"/>
      <path fill="#07454C" fill-rule="nonzero" d="M131,32.7833078 C126.988729,9.34134731 122.740078,0.78 112.41,0.78 L24.7,0.78 C1,-0.0502175418 5.68434189e-14,44.5069407 5.68434189e-14,44.5069407 C16.193694,56.1697825 98.2200612,62.4468821 131,32.7833078 Z" transform="translate(0 127.83)"/>
      <path fill="#CF9595" fill-rule="nonzero" d="M54.63,99.4402175 L83.02,99.4402175 C84.8701539,99.4402175 86.37,100.940064 86.37,102.790218 L86.37,127.510218 C86.37,137.197292 78.5170745,145.050218 68.83,145.050218 L68.83,145.050218 C59.1429255,145.050218 51.29,137.197292 51.29,127.510218 L51.29,102.790218 C51.29,100.943962 52.7837525,99.4457288 54.63,99.4402175 Z"/>
      <path fill="#000" fill-rule="nonzero" d="M51,101 L86.09,101 L86.09,129.07 C86.09,138.757075 78.2370745,146.61 68.55,146.61 L68.55,146.61 C58.8629255,146.61 51.01,138.757075 51.01,129.07 L51.01,101 L51,101 Z" opacity=".05"/>
      <path fill="#442208" d="M32.9294753,95.3639496 C26.7340065,95.3639496 6.47109872,77.6024057 12.146819,51.1256683 C13.1472537,46.4587285 14.9649518,30.1421499 19.8200781,28.0730093 C27.5232031,24.7901187 26.084319,9.17840269 43.928069,3.58855894 C61.771819,-2.00128481 69.4719275,1.43618186 74.4941406,3.58855894 C79.5163538,5.74093601 93.1211419,4.8515625 100.849475,6.80078125 C108.577809,8.75 122.740078,18.1420492 122.740078,27 C122.740078,35.94805 127.092309,41.9976487 127.092309,51.1256683 C127.092309,83.9518229 109.82,95.3639496 95.4570312,95.3639496 L32.9294753,95.3639496 Z"/>
      <path fill="#CF9595" fill-rule="nonzero" d="M118.808678,72.7520969 C115.637386,97.474407 94.5148683,116.58 68.93,116.58 C43.3734597,116.58 22.2693936,97.5166917 19.0619219,72.8341952 C16.7693659,72.2673788 15,68.5908976 15,64.14 C15,59.2964627 17.0953074,55.37 19.68,55.37 C19.7294932,55.37 19.7788069,55.3714397 19.8279299,55.374298 C24.8133014,32.8482042 44.9040962,16 68.93,16 C92.9552458,16 113.045598,32.8472813 118.03166,55.3724472 C120.56477,55.48359 122.6,59.366405 122.6,64.14 C122.6,68.414125 120.968388,71.9741258 118.808679,72.7520908 Z"/>
      <path fill="#442208" fill-rule="nonzero" d="M38.2008191,30.2397277 C56.1707401,36.5867574 80.8692832,36.5867574 99.6780169,30.2397277 C118.486751,23.892698 82.5212385,15 67.9813728,15 C53.4415071,15 20.2308982,23.892698 38.2008191,30.2397277 Z" transform="matrix(-1 0 0 1 138 0)"/>
      <path fill="#000" fill-opacity=".2" fill-rule="nonzero" d="M50.4925865,52 C42.5066214,52 36,58.4827704 36,66.46875 C36,74.4546991 42.5066214,80.9375 50.4925865,80.9375 C58.4785508,80.9375 64.9613365,74.4546991 64.9613365,66.46875 C64.9613365,65.4200199 64.8641134,64.403619 64.6514621,63.4176792 C66.0778118,62.8873329 67.8306405,62.6549114 69.5617792,62.6549114 C71.2929179,62.6549114 73.0457467,62.8873329 74.4720964,63.4176792 C74.2594451,64.403619 74.1383855,65.4200199 74.1383855,66.46875 C74.1383855,74.4546991 80.6450069,80.9375 88.630972,80.9375 C96.6169363,80.9375 103.099722,74.4546991 103.099722,66.46875 C103.099722,58.4827704 96.6169363,52 88.630972,52 C82.7738336,52 77.7279681,55.4965951 75.4493925,60.5096273 C73.5654547,59.8105819 71.5055036,59.6038406 69.5617792,59.6038406 C67.6170519,59.6038406 65.542972,59.8118382 63.6503295,60.5096273 C61.3712246,55.4978979 56.348776,52 50.4925865,52 Z M50.4925865,55.0033979 C56.8296301,55.0033979 61.9341021,60.1316911 61.9341021,66.46875 C61.9341021,72.8057479 56.8296301,77.9341021 50.4925865,77.9341021 C44.1555429,77.9341021 39.0272343,72.8057479 39.0272343,66.46875 C39.0272343,60.1316911 44.1555429,55.0033979 50.4925865,55.0033979 Z M88.630972,55.0033979 C94.9680149,55.0033979 100.072488,60.1316911 100.072488,66.46875 C100.072488,72.8057479 94.9680149,77.9341021 88.630972,77.9341021 C82.2939284,77.9341021 77.1656199,72.8057479 77.1656199,66.46875 C77.1656199,60.1316911 82.2939284,55.0033979 88.630972,55.0033979 Z"/>
      <path fill="#442208" d="M8.77572528,3.58855894 C31.9803347,8.18680991 30.4479909,32.6689273 43.928069,37.8098958 C32.1347357,42.6141382 20.4172878,31.2070259 8.77572528,3.58855894 Z" transform="matrix(-1 0 0 1 52.704 0)"/>
    </g>
  </g>
</svg>
