<svg xmlns="http://www.w3.org/2000/svg" width="611" height="646" viewBox="0 0 611 646">
  <g fill="none" fill-rule="evenodd">
    <ellipse cx="60.5" cy="341.5" fill="#FFBCA3" fill-rule="nonzero" opacity=".467" rx="4.5" ry="36.5" transform="rotate(90 60.5 341.5)"/>
    <ellipse cx="55.5" cy="641.5" fill="#FFBCA3" fill-rule="nonzero" opacity=".467" rx="4.5" ry="16.5" transform="rotate(90 55.5 641.5)"/>
    <ellipse cx="117.5" cy="553.5" fill="#FFBCA3" fill-rule="nonzero" opacity=".467" rx="4.5" ry="16.5" transform="rotate(90 117.5 553.5)"/>
    <ellipse cx="450.5" cy="609.5" fill="#FFBCA3" fill-rule="nonzero" opacity=".467" rx="4.5" ry="16.5" transform="rotate(90 450.5 609.5)"/>
    <ellipse cx="538.5" cy="452.5" fill="#FFBCA3" fill-rule="nonzero" opacity=".467" rx="4.5" ry="36.5" transform="rotate(90 538.5 452.5)"/>
    <g fill-rule="nonzero" transform="translate(465)">
      <path fill="#3F3D56" d="M84.7654488,346.266714 C86.9279731,342.542841 88.0441618,338.316311 87.9986626,334.023912 C87.9986626,322.962434 81.0774098,314 72.4950562,314 C63.9127027,314 57.0013374,322.962434 57.0013374,334.023912 C56.9558382,338.316311 58.0720269,342.542841 60.2345512,346.266714 C55.9236789,353.873606 55.9236789,363.145425 60.2345512,370.752317 C55.9236789,378.359209 55.9236789,387.631028 60.2345512,395.23792 C55.9236789,402.844812 55.9236789,412.116631 60.2345512,419.723523 C58.073367,423.447936 56.957275,427.674101 57.0013374,431.966325 C57.0013374,443.027803 63.9225902,452 72.4950562,452 C81.0675223,452 87.9986626,443.027803 87.9986626,431.966325 C88.042725,427.674101 86.926633,423.447936 84.7654488,419.723523 C89.0652643,412.124212 89.0652643,402.86652 84.7654488,395.267209 C89.0763211,387.660317 89.0763211,378.388498 84.7654488,370.781606 C89.0763211,363.174714 89.0763211,353.902895 84.7654488,346.296003 L84.7654488,346.266714 Z"/>
      <path fill="#B9EFE9" d="M15.6225553,118.326337 C13.5428409,115.671672 11.6461239,112.878256 9.94557249,109.965484 L49.985799,103.376081 L6.67936319,103.697278 C-1.70777493,85.4136571 -2.21050424,64.479823 5.28928006,45.8137027 L63.3714246,75.9867452 L9.80948043,36.5379255 C23.4732829,12.8422551 49.2126579,-1.22546501 76.508197,0.0840925281 C103.803736,1.39365007 128.081852,17.8610584 139.420337,42.756263 C150.758821,67.6514676 147.257821,96.8030765 130.348157,118.297137 C133.596767,122.42308 136.386905,126.891027 138.669214,131.621942 L86.7014911,158.719281 L142.110399,140.099594 C150.012738,163.498597 145.585206,189.310555 130.338436,208.728666 C153.883757,238.684698 150.476461,281.730323 122.512332,307.59871 C94.5482034,333.467097 51.422509,333.467097 23.4583802,307.59871 C-4.50574847,281.730323 -7.91304486,238.684698 15.6322762,208.728666 C-5.19617997,182.217376 -5.19617997,144.87656 15.6322762,118.36527 L15.6225553,118.326337 Z"/>
      <path fill="#000" d="M145.989145,164.074111 C146.010346,180.413188 140.505142,196.281303 130.364587,209.110096 C153.914633,238.969518 150.506653,281.87632 122.536913,307.66128 C94.5671736,333.44624 51.4328264,333.44624 23.4630869,307.66128 C-4.5066525,281.87632 -7.91463253,238.969518 15.6354127,209.110096 C5.80565031,196.711133 145.989145,155.895452 145.989145,164.074111 Z" opacity=".1"/>
    </g>
    <g fill-rule="nonzero" transform="translate(13 38)">
      <path fill="#3F3D56" d="M56.8088524,231.744959 C58.2737882,229.235393 59.029916,226.387079 58.999094,223.494376 C58.999094,216.039901 54.3105034,210 48.496651,210 C42.6827986,210 38.000906,216.039901 38.000906,223.494376 C37.970084,226.387079 38.7262118,229.235393 40.1911476,231.744959 C37.2708792,236.871343 37.2708792,243.119743 40.1911476,248.246127 C37.2708792,253.37251 37.2708792,259.62091 40.1911476,264.747294 C37.2708792,269.873678 37.2708792,276.122078 40.1911476,281.248461 C38.7271196,283.758392 37.9710572,286.606459 38.000906,289.499045 C38.000906,296.95352 42.6894966,303 48.496651,303 C54.3038054,303 58.999094,296.95352 58.999094,289.499045 C59.0289428,286.606459 58.2728804,283.758392 56.8088524,281.248461 C59.7216307,276.127186 59.7216307,269.888307 56.8088524,264.767032 C59.7291208,259.640648 59.7291208,253.392249 56.8088524,248.265865 C59.7291208,243.139481 59.7291208,236.891081 56.8088524,231.764698 L56.8088524,231.744959 Z"/>
      <path fill="#B9EFE9" d="M10.4863727,79.246079 C9.09040007,77.4681837 7.81726125,75.5973642 6.67579523,73.6466088 L33.5521117,69.2335223 L4.48340817,69.4486358 C-1.14631468,57.2036419 -1.48376312,43.1837347 3.55033867,30.6825716 L42.5369837,50.8902055 L6.58444577,24.4703538 C15.7560392,8.60077637 33.033154,-0.820724276 51.3548172,0.0563188491 C69.6764803,0.933361974 85.9727498,11.9619932 93.5835136,28.6349284 C101.194277,45.3078636 98.8442909,64.8314182 87.4939684,79.2265232 C89.6745424,81.9897694 91.5473745,84.9820641 93.0793355,88.1504751 L58.1968913,106.298234 L95.3891718,93.8281684 C100.693482,109.49906 97.7215765,126.785968 87.4874435,139.790758 C103.291837,159.853054 101.004748,188.681776 82.2343051,206.006475 C63.4638626,223.331175 34.5164786,223.331175 15.7460361,206.006475 C-3.02440651,188.681776 -5.31149586,159.853054 10.4928977,139.790758 C-3.48784683,122.03549 -3.48784683,97.0274207 10.4928977,79.2721534 L10.4863727,79.246079 Z"/>
      <path fill="#000" d="M97.992714,109.720441 C98.0069446,120.679577 94.3116708,131.322825 87.504997,139.927504 C103.312562,159.955165 101.025013,188.734117 82.2508047,206.028907 C63.476596,223.323698 34.523404,223.323698 15.7491953,206.028907 C-3.02501332,188.734117 -5.31256156,159.955165 10.495003,139.927504 C3.89694336,131.611126 97.992714,104.234755 97.992714,109.720441 Z" opacity=".1"/>
    </g>
    <g transform="translate(86 472)">
      <path stroke="#3F3D56" stroke-width="2" d="M32.32009,84.9342 L32.32009,10.52282"/>
      <circle cx="32.32" cy="10.523" r="10.523" fill="#B9EFE9" fill-rule="nonzero"/>
      <path fill="#B9EFE9" fill-rule="nonzero" d="M32.32009,56.38409 C32.32009,56.38409 30.81683,24.05217 5.40012479e-13,27.81032 L32.32009,56.38409 Z"/>
    </g>
    <path fill="#2F2E41" fill-rule="nonzero" d="M222.03113,203.20819 L229.55463,203.89892 L255.15809,206.25671 L296.48989,210.05765 L300.60656,165.36482 C301.396455,156.87994 298.779029,148.429311 293.331449,141.876374 C287.883869,135.323436 280.053547,131.206386 271.56714,130.43307 C253.128652,128.720002 235.693595,139.10838 228.42349,156.13947 L228.41759,156.15412 C226.675154,160.240257 225.581447,164.573414 225.17599,168.99701 L222.03113,203.20819 Z"/>
    <path fill="#FFB8B8" fill-rule="nonzero" d="M253.49999,183.58001 C253.49999,183.58001 256.49999,208.58001 253.49999,209.58001 C250.49999,210.58001 240.49999,214.58001 240.49999,214.58001 L258.49999,233.58001 L284.49999,234.58001 L290.49999,215.58001 L284.49999,210.58001 L282.49999,185.58001 L253.49999,183.58001 Z"/>
    <path fill="#000" fill-rule="nonzero" d="M253.49999,183.58001 C253.49999,183.58001 256.49999,208.58001 253.49999,209.58001 C250.49999,210.58001 240.49999,214.58001 240.49999,214.58001 L258.49999,233.58001 L284.49999,234.58001 L290.49999,215.58001 L284.49999,210.58001 L282.49999,185.58001 L253.49999,183.58001 Z" opacity=".1"/>
    <path fill="#FFB8B8" fill-rule="nonzero" d="M214.49999 229.58001L206.49999 298.58001 195.49999 368.58001C195.49999 368.58001 186.49999 402.58001 203.49999 401.58001 220.49999 400.58001 208.49999 366.58001 208.49999 366.58001L224.49999 307.58001 231.49999 247.58001 214.49999 229.58001zM321.49999 230.58001L328.49999 301.58001 369.49999 340.58001C369.49999 340.58001 396.49999 354.58001 391.49999 363.58001 386.49999 372.58001 358.49999 348.58001 358.49999 348.58001L309.49999 313.58001 306.49999 269.58001 309.49999 225.58001 321.49999 230.58001z"/>
    <path fill="#2F2E41" fill-rule="nonzero" d="M217.49999,566.58001 C217.49999,566.58001 203.49999,590.58001 210.49999,593.58001 C217.49999,596.58001 237.49999,605.58001 237.49999,605.58001 C237.49999,605.58001 268.49999,611.58001 267.49999,602.58001 C266.49999,593.58001 254.49999,593.58001 254.49999,593.58001 C254.49999,593.58001 237.56368,576.58001 238.03183,570.58001 C238.49998,564.58001 217.49999,566.58001 217.49999,566.58001 Z"/>
    <path fill="#000" fill-rule="nonzero" d="M217.49999,566.58001 C217.49999,566.58001 203.49999,590.58001 210.49999,593.58001 C217.49999,596.58001 237.49999,605.58001 237.49999,605.58001 C237.49999,605.58001 268.49999,611.58001 267.49999,602.58001 C266.49999,593.58001 254.49999,593.58001 254.49999,593.58001 C254.49999,593.58001 237.56368,576.58001 238.03183,570.58001 C238.49998,564.58001 217.49999,566.58001 217.49999,566.58001 Z" opacity=".1"/>
    <path fill="#535461" fill-rule="nonzero" d="M305.49999,370.58001 L308.49999,386.58001 L286.49999,475.58001 L273.49999,489.58001 L239.49999,570.58001 L214.49999,570.58001 C214.49999,570.58001 230.49999,507.58001 242.49999,488.58001 C254.49999,469.58001 274.49999,372.58001 274.49999,372.58001 L305.49999,370.58001 Z"/>
    <path fill="#000" fill-rule="nonzero" d="M263.99999,440.08001 L281.99999,443.08001 L286.49999,475.58001 L273.49999,489.58001 L239.49999,570.58001 L214.49999,570.58001 C214.49999,570.58001 230.49999,507.58001 242.49999,488.58001 C254.49999,469.58001 274.49999,372.58001 274.49999,372.58001 L263.99999,440.08001 Z" opacity=".14"/>
    <path fill="#535461" fill-rule="nonzero" d="M233.49999,343.58001 C233.49999,343.58001 217.49999,373.58001 243.49999,410.58001 C269.49999,447.58001 280.49999,484.58001 280.49999,484.58001 C280.49999,484.58001 278.49999,551.58001 299.49999,578.58001 L307.49999,596.58001 L331.49999,582.58001 C331.49999,582.58001 304.49999,541.58001 310.49999,491.58001 C310.49999,491.58001 316.49999,475.58001 310.49999,462.58001 C304.49999,449.58001 288.49999,387.58001 288.49999,387.58001 L308.49999,386.58001 C308.49999,386.58001 314.49999,348.58001 304.49999,343.58001 C294.49999,338.58001 233.49999,343.58001 233.49999,343.58001 Z"/>
    <path fill="#2F2E41" fill-rule="nonzero" d="M324.49999,579.58001 C324.49999,579.58001 346.49999,598.58001 359.49999,600.58001 C372.49999,602.58001 372.49999,611.58001 357.49999,613.58001 C357.49999,613.58001 327.49999,625.58001 308.49999,616.58001 L308.49999,591.58001 L324.49999,579.58001 Z"/>
    <circle cx="270" cy="170.08" r="24" fill="#FFB8B8" fill-rule="nonzero"/>
    <path fill="#F5DD48" fill-rule="nonzero" d="M250.49999,215.58001 L253.99999,209.08001 C253.99999,209.08001 206.49999,225.58001 211.49999,233.58001 C216.49999,241.58001 230.49999,253.58001 230.49999,253.58001 L230.49999,269.58001 C230.49999,269.58001 245.49999,315.58001 230.49999,341.58001 C215.49999,367.58001 312.49999,359.58001 309.49999,341.58001 C306.49999,323.58001 302.49999,304.58001 306.49999,295.58001 C310.49999,286.58001 317.49999,276.58001 311.49999,252.58001 L326.49999,236.58001 C326.49999,236.58001 321.49999,220.58001 308.49999,217.58001 C295.49999,214.58001 284.99999,211.08001 284.99999,211.08001 C284.99999,211.08001 291.49999,223.58001 280.49999,224.58001 C269.49999,225.58001 250.49999,215.58001 250.49999,215.58001 Z"/>
    <path fill="#2F2E41" fill-rule="nonzero" d="M229.55463,203.89892 C234.338686,209.534302 242.03438,211.753376 249.084418,209.530388 C256.134457,207.307401 261.1654,201.075417 261.85172,193.71514 C241.63072,182.26085 248.23009,166.84827 265.89624,149.79294 C266.578383,142.37508 262.709715,135.280562 256.10453,131.83651 C243.682803,135.345134 233.510225,144.27632 228.42353,156.13951 L228.41763,156.15416 L225.26414,190.34476 C224.807155,195.256621 226.354452,200.144713 229.55463,203.89892 Z"/>
    <path fill="#2F2E41" fill-rule="nonzero" d="M257.70943,157.97265 L294.5318,158.81713 L294.8738,143.92147 C291.955988,139.772779 288.097915,136.373378 283.61489,134.00109 L258.27249,133.42443 L257.70943,157.97265 Z"/>
    <g transform="translate(0 424)">
      <path stroke="#3F3D56" stroke-width="2" d="M57.17693,221.72265 L60.40801,14.40135"/>
      <circle cx="60.408" cy="14.401" r="14.401" fill="#B9EFE9" fill-rule="nonzero"/>
      <path fill="#B9EFE9" fill-rule="nonzero" d="M59.49406,73.0445 C59.49406,73.0445 58.12651,28.76889 15.87606,33.25439 L59.49406,73.0445 Z"/>
      <path stroke="#3F3D56" stroke-width="2" d="M57.23862,217.76449 C57.23862,217.76449 67.82148,132.82807 14.40136,127.88035"/>
      <circle cx="14.401" cy="127.88" r="14.401" fill="#B9EFE9" fill-rule="nonzero"/>
    </g>
    <g transform="translate(417 528)">
      <path stroke="#3F3D56" stroke-width="2" d="M32.32009,84.9342 L32.32009,10.52282"/>
      <circle cx="32.32" cy="10.523" r="10.523" fill="#B9EFE9" fill-rule="nonzero"/>
      <path fill="#B9EFE9" fill-rule="nonzero" d="M32.32009,56.38409 C32.32009,56.38409 30.81683,24.05217 5.40012479e-13,27.81032 L32.32009,56.38409 Z"/>
    </g>
  </g>
</svg>
