<svg xmlns="http://www.w3.org/2000/svg" width="1039" height="785" viewBox="0 0 1039 785">
  <g fill="none">
    <path fill="#3F3D56" d="M267.4835,691.97896 C267.4835,691.97896 272.4835,670.97896 307.4835,677.97896 C342.4835,684.97896 347.4835,691.97896 347.4835,691.97896 L267.4835,691.97896 Z"/>
    <g transform="translate(0 99.11)">
      <path fill="#3F3D56" d="M94.9835,565.36896 C94.9835,565.36896 99.9835,544.36896 134.9835,551.36896 C169.9835,558.36896 174.9835,565.36896 174.9835,565.36896 L94.9835,565.36896 Z"/>
      <path fill="#3F3D56" d="M99.90875,529.24975 C108.24488,544.70947 125.93715,551.346 125.93715,551.346 C125.93715,551.346 130.11387,532.91736 121.77774,517.45763 C113.44161,501.9979 95.74933,495.36138 95.74933,495.36138 C95.74933,495.36138 91.57261,513.79002 99.90875,529.24975 Z"/>
      <path fill="#F5DD48" d="M105.63849,524.16361 C120.68864,533.21828 126.48493,551.20335 126.48493,551.20335 C126.48493,551.20335 107.8801,554.5079 92.82993,545.45323 C77.77976,536.39856 71.98349,518.41348 71.98349,518.41348 C71.98349,518.41348 90.58833,515.10893 105.63849,524.16361 Z"/>
      <path fill="#B9EFE9" d="M328.26312,280.86159 C328.26312,404.47159 254.77892,447.63159 164.13156,447.63159 C73.4842,447.63159 -1.98951966e-13,404.47159 -1.98951966e-13,280.86159 C-1.98951966e-13,157.25159 164.13156,0.0001 164.13156,0.0001 C164.13156,0.0001 328.26312,157.25156 328.26312,280.86159 Z"/>
      <polygon fill="#3F3D56" points="158.153 428.723 159.833 325.273 229.79 197.29 160.097 309.044 160.852 262.529 209.067 169.934 161.052 250.219 161.052 250.219 162.412 166.559 214.04 92.842 162.625 153.404 163.474 0 158.138 203.078 158.576 194.701 106.085 114.354 157.735 210.783 152.844 304.217 152.698 301.737 92.185 217.184 152.515 310.498 151.903 322.183 151.794 322.359 151.844 323.318 139.435 560.368 156.014 560.368 158.003 437.927 218.185 344.842"/>
    </g>
    <path fill="#3F3D56" d="M387.4835,691.97896 C387.4835,691.97896 359.4835,674.97896 347.4835,691.97896 L387.4835,691.97896 Z"/>
    <path fill="#3F3D56" d="M256.9835,643.97896 C256.9835,643.97896 228.9835,626.97896 216.9835,643.97896 L256.9835,643.97896 Z" opacity=".2"/>
    <g transform="translate(869.483 410.979)">
      <path fill="#3F3D56" d="M62.50001,268.5 C62.50001,268.5 67.50001,247.5 102.50001,254.5 C137.50001,261.5 142.50001,268.5 142.50001,268.5 L62.50001,268.5 Z"/>
      <path fill="#3F3D56" d="M95.88868,262.45898 L94.11134,261.54098 C117.19334,216.91698 104.85059,158.96578 90.43262,118.20898 C80.6423965,90.8144035 68.1551464,64.4600824 53.15479,39.53418 L54.84522,38.46582 C69.9234511,63.5184267 82.4758006,90.0068726 92.31739,117.54102 C106.86817,158.6709 119.29786,217.2002 95.88868,262.45898 Z"/>
      <rect width="72.18" height="1.999" x="71.413" y="73.506" fill="#3F3D56" transform="rotate(-79.645 107.504 74.506)"/>
      <rect width="2.001" height="98.351" x="58.5" y="86.824" fill="#3F3D56" transform="rotate(-42.94 59.5 136)"/>
      <rect width="58.009" height="2" x="101.996" y="201.5" fill="#3F3D56" transform="rotate(-54.137 131 202.5)"/>
      <circle cx="119" cy="10" r="10" fill="#F5DD48"/>
      <circle cx="10" cy="87" r="10" fill="#3F3D56"/>
      <circle cx="54" cy="97" r="10" fill="#3F3D56"/>
      <circle cx="34" cy="136" r="10" fill="#F5DD48"/>
      <circle cx="159" cy="161" r="10" fill="#3F3D56"/>
      <circle cx="126" cy="172" r="10" fill="#3F3D56"/>
      <circle cx="149" cy="204" r="10" fill="#3F3D56"/>
      <circle cx="44" cy="22" r="10" fill="#3F3D56"/>
    </g>
    <g fill="#3F3D56" transform="translate(319.983 520.479)">
      <path d="M532,171.5 C507.682493,167.69312 484.30153,164.455063 461.85711,161.78583 L470.5,144.5 C467.5,143.5 454.5,153.5 454.5,153.5 L465.5,103.5 C450.5,105.5 443.5,156.5 443.5,156.5 L426.5,139.5 L434.86834,158.74713 C366.18707,151.53046 306.92157,149.27832 257.10254,149.79486 L264.5,135 C261.5,134 248.5,144 248.5,144 L259.5,94 C244.5,96 237.5,147 237.5,147 L220.5,130 L229.3634,150.38586 C195.237718,151.377402 161.185406,154.119638 127.34082,158.60175 C134.72235,135.60596 160.5,113.5 160.5,113.5 C140.67944,119.66638 130.36786,129.7124 125.0307,139.0246 C123.951102,91.7808006 131.219032,44.7172689 146.5,0 C146.5,0 106.5,90 112.5,150 L113.26129,160.65808 C78.46191,166.08685 61,171.5 61,171.5 L532,171.5 Z"/>
      <path d="M271 217C271 217 455 190 569 217M4.54747351e-13 254C4.54747351e-13 254 184 227 298 254M341 263.92736C341 263.92736 449.97986 236.28869 517.5 263.92736" opacity=".2"/>
    </g>
    <g transform="translate(468.616)">
      <path fill="#B9EFE9" d="M401.03117,343.12173 C401.03117,494.13314 311.25728,546.86073 200.51558,546.86073 C89.77388,546.86073 1.13686838e-13,494.13316 1.13686838e-13,343.12173 C1.13686838e-13,192.1103 200.51558,0 200.51558,0 C200.51558,0 401.03117,192.11033 401.03117,343.12173 Z"/>
      <polygon fill="#3F3D56" points="193.211 523.761 195.264 397.378 280.729 241.024 195.586 377.552 196.51 320.725 255.412 207.605 196.754 305.687 196.754 305.687 198.414 203.481 261.488 113.423 198.675 187.409 199.713 0 193.193 248.096 193.729 237.861 129.602 139.704 192.701 257.508 186.725 371.654 186.548 368.625 112.62 265.329 186.324 379.328 185.576 393.603 185.443 393.818 185.504 394.99 170.344 684.589 190.598 684.589 193.029 535.005 266.551 421.285"/>
    </g>
    <g transform="translate(307 226)">
      <path fill="#333" d="M223.99678,511.033127 C223.99678,511.033127 206.81678,535.373127 195.36678,534.893127 C195.36678,534.893127 163.36678,541.093127 185.36678,546.823127 C207.36678,552.553127 271.75678,531.073127 271.75678,531.073127 L264.09678,506.073127 L223.99678,511.033127 Z"/>
      <path fill="#535461" d="M147.15678,342.083127 L171.48678,404.603127 L192.48678,440.873127 C192.48678,440.873127 221.36678,505.063127 219.48678,517.473127 L265.48678,510.073127 C265.48678,510.073127 229.69678,411.763127 219.67678,398.403127 C219.67678,398.403127 209.17678,392.193127 209.67678,381.693127 L196.79678,319.223127 C196.79678,319.223127 209.32678,307.133127 202.32678,291.983127 C201.954697,291.178712 201.540798,290.394308 201.08678,289.633127 C191.54678,273.413127 155.27678,282.473127 155.27678,282.473127 L147.15678,342.083127 Z"/>
      <path fill="#000" d="M147.15678,342.083127 L171.48678,404.603127 L192.48678,440.873127 C192.48678,440.873127 221.36678,505.063127 219.48678,517.473127 L265.48678,510.073127 C265.48678,510.073127 229.69678,411.763127 219.67678,398.403127 C219.67678,398.403127 209.17678,392.193127 209.67678,381.693127 L196.79678,319.223127 C196.79678,319.223127 209.32678,307.133127 202.32678,291.983127 C201.954697,291.178712 201.540798,290.394308 201.08678,289.633127 C191.54678,273.413127 155.27678,282.473127 155.27678,282.473127 L147.15678,342.083127 Z" opacity=".03"/>
      <path fill="#000" d="M44.58,118.57 C44.58,118.57 34.08,112.36 34.58,101.86 L21.67,39.39 C21.67,39.39 34.2,27.3 27.2,12.15 C26.8279172,11.3455852 26.4140186,10.5611806 25.96,9.8 C21.33,1.93 10.42,0.01 0.4,0.12 C10.01,0.21 20.12,2.31 24.53,9.8 C24.9847099,10.5591069 25.3953879,11.3437356 25.76,12.15 C32.76,27.3 20.24,39.39 20.24,39.39 L33.12,101.91 C32.65,112.41 43.12,118.62 43.12,118.62 C53.12,131.98 88.93,230.29 88.93,230.29 L44.36,237.39 C44.36,237.46 44.36,237.55 44.36,237.62 L90.36,230.22 C90.36,230.22 54.6,131.93 44.58,118.57 Z" opacity=".1" transform="translate(175.127 279.833)"/>
      <path fill="#333" d="M62.6867798,500.533127 C62.6867798,500.533127 43.5967798,516.753127 24.9867798,517.233127 C24.9867798,517.233127 -7.46322019,516.233127 1.59677981,523.443127 C10.6567798,530.653127 91.3267798,541.093127 91.3267798,541.093127 L94.9167798,513.223127 L62.6867798,500.533127 Z"/>
      <path fill="#000" d="M73.72,6.78 C73.72,6.78 42.22,51.16 29.81,96.02 C29.81,96.02 18.81,115.11 20.27,134.68 L0.22,231.56 L36.97,245.39 C36.97,245.39 35.06,233.46 42.22,226.78 C49.38,220.1 66.08,152.33 64.65,141.83 C64.65,141.83 87.56,84.56 110.47,62.13 C133.38,39.7 144.77,34.52 148.14,15.13 C148.14,15.16 94.24,-10.88 73.72,6.78 Z" opacity=".1" transform="translate(59.127 271.833)"/>
      <path fill="#535461" d="M131.88678,278.613127 C131.88678,278.613127 100.38678,322.993127 87.9867798,367.853127 C87.9867798,367.853127 76.9867798,386.943127 78.4367798,406.513127 L58.4367798,503.393127 L95.1367798,517.223127 C95.1367798,517.223127 93.2367798,505.293127 100.38678,498.613127 C107.53678,491.933127 124.25678,424.163127 122.81678,413.663127 C122.81678,413.663127 145.72678,356.393127 168.63678,333.963127 C191.54678,311.533127 202.94678,306.353127 206.31678,286.963127 C206.31678,286.993127 152.40678,260.953127 131.88678,278.613127 Z"/>
      <path fill="#000" d="M59.11,0.17 C82.77,0.45 112.23,14.69 112.23,14.69 C108.86,34.05 97.46,39.23 74.56,61.69 C51.66,84.15 28.74,141.39 28.74,141.39 C30.17,151.89 13.47,219.66 6.31,226.34 C0.08,232.16 0.72,241.95 0.99,244.39 L2.49,244.95 C2.49,244.95 0.58,233.02 7.74,226.34 C14.9,219.66 31.6,151.89 30.17,141.39 C30.17,141.39 53.08,84.12 75.99,61.69 C98.9,39.26 110.3,34.08 113.66,14.69 C113.66,14.69 82.99,-0.13 59.11,0.17 Z" opacity=".1" transform="translate(93.127 271.833)"/>
      <path fill="#ECB4B6" d="M108.48678,209.403127 C108.48678,209.403127 85.7067798,237.773127 70.3267798,243.933127 C68.6366062,244.611443 66.998821,245.413624 65.4267798,246.333127 C63.2904158,247.690342 60.9145335,248.627118 58.4267798,249.093127 C56.5856074,249.265742 54.7851219,249.738665 53.0967798,250.493127 C45.0967798,254.173127 26.6667798,264.133127 38.8367798,272.883127 C54.1067798,283.883127 74.6267798,258.563127 74.6267798,258.563127 C74.6267798,258.563127 83.3367798,253.103127 88.4667798,251.883127 C93.5967798,250.663127 117.09678,234.223127 117.09678,234.223127 L108.48678,209.403127 Z"/>
      <polygon fill="#F5DD48" points="112.797 203.683 103.727 211.793 117.087 228.493"/>
      <polygon fill="#000" points="9.67 .85 .6 8.96 13.96 25.66" opacity=".1" transform="translate(103.127 202.833)"/>
      <path fill="#33CCAB" d="M135.77678,108.703127 C135.77678,108.703127 114.05678,127.323127 123.15678,132.573127 L108.48678,168.843127 L113.53678,301.513127 L134.24678,267.153127 L120.09678,192.703127 C120.09678,192.703127 116.09678,148.323127 127.67678,137.823127 L138.78678,115.823127 L135.77678,108.703127 Z"/>
      <path fill="#000" d="M27.52,0.22 C27.52,0.22 5.8,18.84 14.89,24.09 L0.24,60.39 L5.29,193.06 L26,158.7 L11.86,84.22 C11.86,84.22 7.86,39.84 19.43,29.34 L30.55,7.34 L27.52,0.22 Z" opacity=".1" transform="translate(111.127 101.833)"/>
      <path fill="#ECB4B6" d="M119.00678 89.1431272C119.00678 89.1431272 136.66678 110.613127 136.18678 123.023127 135.70678 135.433127 169.59678 101.553127 169.59678 101.553127 169.59678 101.553127 156.70678 85.8031272 160.04678 69.0931272 163.38678 52.3831272 119.00678 89.1431272 119.00678 89.1431272zM219.70678 197.003127L224.48678 235.223127 224.48678 272.923127C224.48678 272.923127 217.80678 321.603127 238.80678 312.533127 259.80678 303.463127 244.48678 270.023127 244.48678 270.023127 244.48678 270.023127 244.48678 251.403127 247.35678 241.863127 250.22678 232.323127 245.92678 190.313127 245.92678 190.313127L219.70678 197.003127z"/>
      <path fill="#B9EFE9" d="M154.31678,106.803127 C154.31678,106.803127 141.48678,119.223127 134.75678,114.913127 L125.59678,137.683127 C119.997715,151.610431 117.457023,166.578343 118.14678,181.573127 L121.38678,267.633127 L135.70678,265.723127 L140.48678,184.113127 L147.64678,134.483127 L154.31678,106.803127 Z"/>
      <path fill="#000" d="M54.93,0.84 C54.93,0.84 37.99,12.53 33.22,22.56 C33.22,22.56 32.74,33.56 28.92,38.31 C25.1,43.06 21.29,66.94 20.33,95.58 C19.37,124.22 15.08,162.39 15.08,162.39 C15.08,162.39 7.92,199.62 0.29,203.39 C0.29,203.39 35.6,176.67 52.78,185.74 C69.96,194.81 89.53,216.74 95.26,213.42 C95.26,213.42 93.88,171.59 100.14,149.28 C100.26,148.86 100.38,148.44 100.51,148.03 C107.19,126.08 102.9,96.03 110.51,83.13 C110.51,83.13 110.51,59.8 106.11,42.38 C103.803039,33.3756788 97.6358194,25.8505731 89.26,21.82 L68.06,11.58 C68.06,11.58 56.84,9.91 54.93,0.84 Z" opacity=".1" transform="translate(110.127 92.833)"/>
      <path fill="#000" d="M53.93,0.84 C53.93,0.84 37.93,13.49 33.17,23.51 C33.17,23.51 32.69,34.51 28.88,39.26 C25.07,44.01 21.24,67.9 20.29,96.53 C19.34,125.16 15.04,163.39 15.04,163.39 C15.04,163.39 7.88,200.61 0.24,204.39 C0.24,204.39 35.56,177.66 52.74,186.73 C69.92,195.8 89.49,217.73 95.21,214.41 C95.21,214.41 93.84,172.59 100.1,150.28 C100.22,149.85 100.34,149.44 100.46,149.03 C107.15,127.03 102.85,97.03 110.46,84.12 C110.46,84.12 110.46,60.79 106.05,43.38 C103.750408,34.3726082 97.5860124,26.8428215 89.21,22.81 L67.98,12.53 C67.98,12.53 55.84,9.91 53.93,0.84 Z" opacity=".1" transform="translate(111.127 92.833)"/>
      <path fill="#33CCAB" d="M164.81678,93.4331272 C164.81678,93.4331272 149.06678,105.363127 144.29678,115.433127 C144.29678,115.433127 143.81678,126.433127 140.00678,131.183127 C136.19678,135.933127 132.36678,159.813127 131.41678,188.453127 C130.46678,217.093127 126.16678,255.223127 126.16678,255.223127 C126.16678,255.223127 119.00678,292.453127 111.36678,296.223127 C111.36678,296.223127 146.68678,269.503127 163.86678,278.573127 C181.04678,287.643127 200.61678,309.573127 206.33678,306.253127 C206.33678,306.253127 204.96678,264.423127 211.22678,242.113127 L211.58678,240.863127 C218.27678,218.913127 213.97678,188.863127 221.58678,175.963127 C221.58678,175.963127 221.58678,152.633127 217.17678,135.213127 C214.877075,126.208215 208.71226,118.681577 200.33678,114.653127 L179.10678,104.373127 C179.10678,104.373127 168.39678,101.783127 164.81678,93.4331272 Z"/>
      <path fill="#000" d="M27.36,3.52 C27.36,3.52 75.8,58.64 69.12,84.89 C69.12,84.89 44.3,79.17 37.62,86.8 C37.62,86.8 32.37,69.14 16.62,59.12 C0.87,49.1 -13.64,-15.09 27.36,3.52 Z" opacity=".1" transform="translate(181.127 117.833)"/>
      <path fill="#33CCAB" d="M208.48678,120.403127 C208.48678,120.403127 256.92678,175.523127 250.24678,201.773127 C250.24678,201.773127 225.42678,196.043127 218.74678,203.683127 C218.74678,203.683127 213.49678,186.023127 197.74678,176.003127 C181.99678,165.983127 167.48678,101.783127 208.48678,120.403127 Z"/>
      <path fill="#000" d="M41.11,13 C40.36,9.15 40.99,8.86 41.83,4.65 C45.17,-12.05 0.83,24.65 0.83,24.65 C0.83,24.65 3.3,27.65 6.36,32.07 C8.62014941,32.5369198 10.922125,32.7714733 13.23,32.7701168 C25.36,32.81 35.13,22.57 41.11,13 Z" opacity=".1" transform="translate(120.127 66.833)"/>
      <circle cx="131.407" cy="63.363" r="33.88" fill="#ECB4B6"/>
      <path fill="#000" d="M12.84,53.26 C7.84,53.93 1.49,52.26 0.53,47.32 C-0.68,41.08 7.67,37.01 8.96,30.78 C9.45,28.44 8.87,26 9.15,23.63 C9.71,18.85 13.57,15.17 17.5,12.4 C29.9492131,3.66371641 45.0942199,-0.372353481 60.24,1.01 C62.1298249,1.03038635 63.9710128,1.61163091 65.53,2.68 C67.18,4.04 67.81,6.23 68.93,8.04 C72.8,14.29 81.47,15.04 87.7,18.92 C94.99,23.47 98.59,32.4 98.92,40.99 C99.25,49.58 96.8,57.99 94.37,66.24 C92.31,73.24 90.15,80.44 85.63,86.18 C81.11,91.92 73.63,95.94 66.5,94.18 C69.76,91.83 67.4,86.39 63.87,84.48 C60.34,82.57 55.97,82.24 52.96,79.61 C49.95,76.98 49.04,72.66 48.05,68.74 C46.81,63.74 45.05,58.74 41.41,55.15 C34.36,48.09 21.54,52.09 12.84,53.26 Z" opacity=".1" transform="translate(88.127 .833)"/>
      <path fill="#464353" d="M101.92678,53.6131272 C96.9267798,54.2931272 90.5767798,52.6131272 89.6067798,47.6831272 C88.3967798,41.4331272 96.7467798,37.3731272 98.0467798,31.1331272 C98.5267798,28.7931272 97.9467798,26.3631272 98.2267798,23.9831272 C98.7867798,19.2031272 102.65678,15.5331272 106.58678,12.7531272 C119.034032,4.02074557 134.174482,-0.0150543159 149.31678,1.36312724 C151.207549,1.38706209 153.048655,1.97176114 154.60678,3.04312724 C156.25678,4.39312724 156.89678,6.58312724 158.01678,8.39312724 C161.87678,14.6431272 170.55678,15.3931272 176.78678,19.2731272 C184.06678,23.8231272 187.67678,32.7631272 187.99678,41.3431272 C188.31678,49.9231272 185.87678,58.3431272 183.45678,66.5931272 C181.38678,73.5931272 179.23678,80.8031272 174.70678,86.5431272 C170.17678,92.2831272 162.70678,96.2931272 155.58678,94.5431272 C158.83678,92.2031272 156.47678,86.7531272 152.95678,84.8431272 C149.43678,82.9331272 145.05678,82.6131272 142.03678,79.9731272 C139.01678,77.3331272 138.11678,73.0231272 137.13678,69.1031272 C135.89678,64.1531272 134.13678,59.1031272 130.49678,55.5231272 C123.40678,48.4431272 110.61678,52.4431272 101.92678,53.6131272 Z"/>
      <path fill="#F5DD48" d="M151.86678,19.2231272 L154.93678,3.50312724 C154.995363,3.19810264 154.930257,2.88230133 154.755809,2.62531892 C154.581361,2.3683365 154.31189,2.19126507 154.00678,2.13312724 L143.18678,0.0231272384 C142.882911,-0.0384694921 142.567029,0.0241443264 142.309633,0.196994835 C142.052236,0.369845344 141.874748,0.638545204 141.81678,0.943127238 L138.74678,16.6531272 L128.25678,55.4531272 L147.48678,59.2231272 L151.86678,19.2231272 Z"/>
      <path fill="#000" d="M8.55 13.55C9.25499999 12.4786437 9.76297648 11.2899787 10.05 10.04 10.53 7.7 9.95 5.26 10.23 2.89 10.3349364 2.04544019 10.5397008 1.21631233 10.84.42 9.91529073 1.84756352 9.32084165 3.46350843 9.1 5.15 8.82 7.53 9.4 9.96 8.91 12.3 8.82652658 12.7263302 8.70607121 13.144578 8.55 13.55L8.55 13.55zM86.71 65.44C82.26 71.1 74.91 75.06 67.91 73.53 67.7183546 74.4186744 67.2011038 75.2034687 66.46 75.73 73.56 77.46 81.06 73.45 85.58 67.73 87.2773877 65.5376333 88.7074705 63.150805 89.84 60.62 88.944571 62.3180126 87.8969442 63.9312909 86.71 65.44L86.71 65.44zM67.96 73.14C70.63 70.66 68.33 65.6 64.96 63.77 61.43 61.86 57.06 61.53 54.04 58.9 51.02 56.27 50.12 51.95 49.14 48.02 47.9 43.07 46.14 38.02 42.5 34.44 35.41 27.35 22.62 31.35 13.93 32.52 8.93 33.19 2.58 31.52 1.62 26.58 1.39287996 25.412925 1.48971572 24.2059365 1.9 23.09.680441075 24.7451998.169535164 26.8176069.48 28.85 1.48 33.79 7.81 35.46 12.8 34.78 21.49 33.61 34.28 29.61 41.37 36.71 44.97 40.32 46.77 45.34 48.01 50.29 49.01 54.21 49.86 58.5 52.91 61.16 55.96 63.82 60.3 64.16 63.83 66.03 66.36 67.39 68.27 70.59 67.96 73.14z" opacity=".1" transform="translate(89.127 18.833)"/>
      <circle cx="16.82" cy="17.25" r="16.7" fill="#000" opacity=".1" transform="translate(119.127 46.833)"/>
      <circle cx="135.947" cy="64.563" r="16.7" fill="#F5DD48"/>
      <circle cx="135.947" cy="64.563" r="10.94" fill="#333"/>
      <circle cx="135.947" cy="64.563" r="3.34" fill="#F5DD48"/>
      <rect width="13.36" height="1" x="138.864" y="16.543" fill="#000" opacity=".05" transform="rotate(11.05 145.544 16.783)"/>
      <rect width="16.23" height="39.61" x="41.99" y="242.548" fill="#CBDAE3" rx="6.34" transform="rotate(-25.74 50.105 262.353)"/>
      <rect width="16.23" height="39.61" x="41.99" y="242.548" fill="#535461" rx="1.45" transform="rotate(-25.74 50.105 262.353)"/>
      <rect width="16.7" height="39.61" x="43.249" y="241.83" fill="#444" rx="1.64" transform="rotate(-25.74 51.599 261.635)"/>
      <rect width="12.62" height="30.07" x="44.464" y="244.881" fill="#F2F2F2" transform="rotate(-25.74 50.774 259.916)"/>
      <ellipse cx="58.972" cy="276.368" fill="#F2F2F2" rx="1.43" ry="1.91" transform="rotate(-25.74 58.972 276.368)"/>
      <path fill="#000" d="M0.76,2.28 C7.47460239,2.35538315 14.1182177,3.66376861 20.36,6.14 C30.36,10.2 40.95,6.14 40.95,6.14 C40.95,6.14 10.79,-2.61 0.76,2.28 Z" opacity=".1" transform="translate(146.127 245.833)"/>
    </g>
  </g>
</svg>
