<svg xmlns="http://www.w3.org/2000/svg" width="165" height="169" viewBox="0 0 165 169">
  <g fill="none">
    <path fill="#B9EFE9" d="M141.732675,42.6023614 C149.667184,55.4318659 164.768706,96.4648437 164.768706,113.770949 C164.768706,143.201854 145.871768,156.745091 124.138203,164.980408 C102.404638,173.257529 76.8749997,167.864859 54.0151274,156.870502 C31.11354,145.876145 10.8400037,129.2801 3.74843744,107.082367 C-3.34312878,84.9264373 -0.190237399,55.4318659 12.5990114,34.0932109 C20.4455844,21.0013306 46.1667009,-5.43935123 80.921364,1.5117384 C105.962106,6.52 127.282079,19.2368371 141.732675,42.6023614 Z" transform="matrix(-1 0 0 1 164.81 0)"/>
    <path fill="#FFBCA3" d="M137.808412,139.776521 C129.823851,146.490428 120.547553,152.188422 110.794635,156.870502 C87.9347629,167.864859 62.4051245,173.257529 40.6715598,164.980408 C35.7685428,163.122549 31.0098925,160.99455 26.5800048,158.474939 C31.8200592,139.678155 45.7,138.54 45.7,138.54 L133.41,138.54 C133.41,138.54 135.233615,138.690248 137.808412,139.776521 Z"/>
    <circle cx="89.95" cy="65.07" r="54.76" fill="#BFBFBF"/>
    <path fill="#EDBA97" d="M75.59,109.38 L103.98,109.38 C105.830154,109.38 107.33,110.879846 107.33,112.73 L107.33,137.45 C107.33,147.137075 99.4770745,154.99 89.79,154.99 L89.79,154.99 C80.1029255,154.99 72.25,147.137075 72.25,137.45 L72.25,112.73 C72.25,110.879846 73.7498461,109.38 75.6,109.38 L75.59,109.38 Z"/>
    <path fill="#000" d="M72.27,110.68 L107.360026,110.68 L107.360026,138.75 C107.367965,143.407093 105.523523,147.876171 102.233272,151.172051 C98.9430198,154.46793 94.4770997,156.32 89.82,156.32 L89.82,156.32 C80.1329255,156.32 72.28,148.467075 72.28,138.78 L72.28,110.68 L72.27,110.68 Z" opacity=".1"/>
    <path fill="#000" d="M72.31,123.93 C83.6186913,128.156642 96.0674023,128.192118 107.4,124.03 L107.4,119.72 L72.31,119.72 L72.31,123.93 Z" opacity=".1"/>
    <path fill="#EDBA97" d="M139.504894,84.6053707 C135.418689,108.275051 114.786985,126.28 89.95,126.28 C65.1100467,126.28 44.4763798,108.270747 40.3936421,84.5968837 C40.1482969,84.6713135 39.8965593,84.71 39.64,84.71 C37.0553074,84.71 34.96,80.7835373 34.96,75.94 C34.96,71.0964627 37.0553074,67.17 39.64,67.17 C39.9023031,67.17 40.1595661,67.2104381 40.4101105,67.2881689 C44.5315745,43.6611173 65.1432654,25.7 89.95,25.7 C114.753701,25.7 135.363384,43.6567243 139.488377,67.2795004 C139.729922,67.2074339 139.977628,67.17 140.23,67.17 C142.814693,67.17 144.91,71.0964627 144.91,75.94 C144.91,80.7835373 142.814693,84.71 140.23,84.71 C139.983377,84.71 139.74121,84.6742522 139.504894,84.6053707 Z"/>
    <path fill="#BFBFBF" d="M57.4137128,38.0621369 C76.3541888,44.4091666 102.3867,44.4091666 122.211293,38.0621369 C142.035886,31.7151072 104.127877,22.8224092 88.8027135,22.8224092 C73.47755,22.8224092 38.4732368,31.7151072 57.4137128,38.0621369 Z" transform="matrix(-1 0 0 1 179.753 0)"/>
  </g>
</svg>
