<svg width="302" height="332" viewBox="0 0 302 332" fill="none" xmlns="http://www.w3.org/2000/svg">
<path fill-rule="evenodd" clip-rule="evenodd" d="M87.603 232.4C87.603 212.754 72.1209 196.828 53.0228 196.828C33.9247 196.828 18.4426 212.754 18.4426 232.4C18.4426 252.045 33.9247 267.971 53.0228 267.971C72.1209 267.971 87.603 252.045 87.603 232.4Z" fill="#9490B0"/>
<path fill-rule="evenodd" clip-rule="evenodd" d="M123.336 291.686C123.336 278.589 113.014 267.971 100.282 267.971C87.5503 267.971 77.2289 278.589 77.2289 291.686C77.2289 304.783 87.5503 315.4 100.282 315.4C113.014 315.4 123.336 304.783 123.336 291.686Z" fill="#9490B0"/>
<path fill-rule="evenodd" clip-rule="evenodd" d="M299.695 75.8856C299.695 56.24 284.213 40.3142 265.115 40.3142C246.016 40.3142 230.534 56.24 230.534 75.8856C230.534 95.5312 246.016 111.457 265.115 111.457C284.213 111.457 299.695 95.5312 299.695 75.8856Z" fill="#9490B0"/>
<path fill-rule="evenodd" clip-rule="evenodd" d="M187.886 23.7144C187.886 10.6174 177.564 0.000131607 164.832 0.000131607C152.1 0.000131607 141.779 10.6174 141.779 23.7144C141.779 36.8115 152.1 47.4287 164.832 47.4287C177.564 47.4287 187.886 36.8115 187.886 23.7144Z" fill="#9490B0"/>
<path fill-rule="evenodd" clip-rule="evenodd" d="M228.229 35.5716C228.229 29.023 223.069 23.7144 216.703 23.7144C210.336 23.7144 205.176 29.023 205.176 35.5716C205.176 42.1201 210.336 47.4287 216.703 47.4287C223.069 47.4287 228.229 42.1201 228.229 35.5716Z" fill="#D3D1E3"/>
<path fill-rule="evenodd" clip-rule="evenodd" d="M23.0534 193.271C23.0534 186.723 17.8928 181.414 11.5267 181.414C5.16069 181.414 0 186.723 0 193.271C0 199.82 5.16069 205.128 11.5267 205.128C17.8928 205.128 23.0534 199.82 23.0534 193.271Z" fill="#D3D1E3"/>
<path fill-rule="evenodd" clip-rule="evenodd" d="M239.756 311.843C239.756 305.295 234.595 299.986 228.229 299.986C221.863 299.986 216.702 305.295 216.702 311.843C216.702 318.392 221.863 323.7 228.229 323.7C234.595 323.7 239.756 318.392 239.756 311.843Z" fill="#D3D1E3"/>
<path fill-rule="evenodd" clip-rule="evenodd" d="M65.7026 289.314C65.7026 282.766 60.5419 277.457 54.1759 277.457C47.8099 277.457 42.6492 282.766 42.6492 289.314C42.6492 295.863 47.8099 301.171 54.1759 301.171C60.5419 301.171 65.7026 295.863 65.7026 289.314Z" fill="#D3D1E3"/>
<path fill-rule="evenodd" clip-rule="evenodd" d="M41.4961 71.1429C41.4961 64.5943 36.3354 59.2857 29.9694 59.2857C23.6033 59.2857 18.4426 64.5943 18.4426 71.1429C18.4426 77.6914 23.6033 83 29.9694 83C36.3354 83 41.4961 77.6914 41.4961 71.1429Z" fill="#D3D1E3"/>
<path fill-rule="evenodd" clip-rule="evenodd" d="M302 183.786C302 177.237 296.839 171.929 290.473 171.929C284.107 171.929 278.946 177.237 278.946 183.786C278.946 190.334 284.107 195.643 290.473 195.643C296.839 195.643 302 190.334 302 183.786Z" fill="#D3D1E3"/>
<path fill-rule="evenodd" clip-rule="evenodd" d="M274.336 284.572C274.336 278.023 269.176 272.714 262.81 272.714C256.444 272.714 251.283 278.023 251.283 284.572C251.283 291.12 256.444 296.429 262.81 296.429C269.176 296.429 274.336 291.12 274.336 284.572Z" fill="#D3D1E3"/>
<path fill-rule="evenodd" clip-rule="evenodd" d="M287.015 142.286C287.015 129.189 276.694 118.571 263.962 118.571C251.23 118.571 240.909 129.189 240.909 142.286C240.909 155.383 251.23 166 263.962 166C276.694 166 287.015 155.383 287.015 142.286Z" fill="#9490B0"/>
<path fill-rule="evenodd" clip-rule="evenodd" d="M100.282 136.357C100.282 110.163 79.6396 88.9285 54.1755 88.9285C28.7114 88.9285 8.0686 110.163 8.0686 136.357C8.0686 162.551 28.7114 183.786 54.1755 183.786C79.6396 183.786 100.282 162.551 100.282 136.357Z" fill="#5E5A7C"/>
<path fill-rule="evenodd" clip-rule="evenodd" d="M276.641 220.543C276.641 194.349 255.999 173.114 230.534 173.114C205.07 173.114 184.427 194.349 184.427 220.543C184.427 246.737 205.07 267.971 230.534 267.971C255.999 267.971 276.641 246.737 276.641 220.543Z" fill="#5E5A7C"/>
<path fill-rule="evenodd" clip-rule="evenodd" d="M228.229 118.571C228.229 85.8286 202.426 59.2855 170.596 59.2855C138.766 59.2855 112.962 85.8286 112.962 118.571C112.962 151.314 138.766 177.857 170.596 177.857C202.426 177.857 228.229 151.314 228.229 118.571Z" fill="#5E5A7C"/>
<path fill-rule="evenodd" clip-rule="evenodd" d="M164.832 219.357C164.832 199.712 149.35 183.786 130.252 183.786C111.154 183.786 95.6718 199.712 95.6718 219.357C95.6718 239.003 111.154 254.929 130.252 254.929C149.35 254.929 164.832 239.003 164.832 219.357Z" fill="#5E5A7C"/>
<path fill-rule="evenodd" clip-rule="evenodd" d="M123.336 47.4286C123.336 27.783 107.854 11.8571 88.7557 11.8571C69.6576 11.8571 54.1755 27.783 54.1755 47.4286C54.1755 67.0741 69.6576 83 88.7557 83C107.854 83 123.336 67.0741 123.336 47.4286Z" fill="#5E5A7C"/>
<path fill-rule="evenodd" clip-rule="evenodd" d="M205.175 296.429C205.175 276.783 189.693 260.857 170.595 260.857C151.497 260.857 136.015 276.783 136.015 296.429C136.015 316.074 151.497 332 170.595 332C189.693 332 205.175 316.074 205.175 296.429Z" fill="#5E5A7C"/>
<path d="M115.812 222.798C115.252 222.798 114.82 222.641 114.517 222.329C114.218 222.016 114.069 221.566 114.069 220.978V216.638H113.215C113.14 216.638 113.077 216.617 113.026 216.575C112.975 216.528 112.949 216.458 112.949 216.365V215.868L114.111 215.721L114.398 213.53C114.407 213.46 114.438 213.404 114.489 213.362C114.54 213.315 114.606 213.292 114.685 213.292H115.315V215.735H117.345V216.638H115.315V220.894C115.315 221.192 115.387 221.414 115.532 221.559C115.677 221.703 115.863 221.776 116.092 221.776C116.223 221.776 116.335 221.759 116.428 221.727C116.526 221.689 116.61 221.65 116.68 221.608C116.75 221.566 116.808 221.528 116.855 221.496C116.906 221.458 116.951 221.44 116.988 221.44C117.053 221.44 117.112 221.479 117.163 221.559L117.527 222.154C117.312 222.354 117.053 222.513 116.75 222.63C116.447 222.742 116.134 222.798 115.812 222.798ZM121.756 215.483C122.274 215.483 122.74 215.569 123.156 215.742C123.576 215.914 123.93 216.159 124.22 216.477C124.514 216.794 124.738 217.179 124.892 217.632C125.05 218.08 125.13 218.581 125.13 219.137C125.13 219.697 125.05 220.201 124.892 220.649C124.738 221.097 124.514 221.479 124.22 221.797C123.93 222.114 123.576 222.359 123.156 222.532C122.74 222.7 122.274 222.784 121.756 222.784C121.238 222.784 120.769 222.7 120.349 222.532C119.933 222.359 119.579 222.114 119.285 221.797C118.991 221.479 118.764 221.097 118.606 220.649C118.447 220.201 118.368 219.697 118.368 219.137C118.368 218.581 118.447 218.08 118.606 217.632C118.764 217.179 118.991 216.794 119.285 216.477C119.579 216.159 119.933 215.914 120.349 215.742C120.769 215.569 121.238 215.483 121.756 215.483ZM121.756 221.811C122.456 221.811 122.978 221.577 123.324 221.111C123.669 220.639 123.842 219.984 123.842 219.144C123.842 218.299 123.669 217.641 123.324 217.17C122.978 216.698 122.456 216.463 121.756 216.463C121.401 216.463 121.093 216.523 120.832 216.645C120.57 216.766 120.351 216.941 120.174 217.17C120.001 217.398 119.87 217.681 119.782 218.017C119.698 218.348 119.656 218.724 119.656 219.144C119.656 219.564 119.698 219.939 119.782 220.271C119.87 220.602 120.001 220.882 120.174 221.111C120.351 221.335 120.57 221.507 120.832 221.629C121.093 221.75 121.401 221.811 121.756 221.811ZM131.656 222.686C131.479 222.686 131.367 222.599 131.32 222.427L131.208 221.566C130.905 221.934 130.557 222.231 130.165 222.455C129.778 222.674 129.332 222.784 128.828 222.784C128.422 222.784 128.053 222.707 127.722 222.553C127.391 222.394 127.108 222.163 126.875 221.86C126.642 221.556 126.462 221.178 126.336 220.726C126.21 220.273 126.147 219.753 126.147 219.165C126.147 218.642 126.217 218.157 126.357 217.709C126.497 217.256 126.698 216.864 126.959 216.533C127.225 216.201 127.547 215.942 127.925 215.756C128.303 215.564 128.732 215.469 129.213 215.469C129.647 215.469 130.018 215.543 130.326 215.693C130.634 215.837 130.909 216.043 131.152 216.309V212.375H132.398V222.686H131.656ZM129.241 221.776C129.647 221.776 130.002 221.682 130.305 221.496C130.613 221.309 130.895 221.045 131.152 220.705V217.275C130.923 216.967 130.671 216.752 130.396 216.631C130.125 216.505 129.824 216.442 129.493 216.442C128.83 216.442 128.322 216.677 127.967 217.149C127.612 217.62 127.435 218.292 127.435 219.165C127.435 219.627 127.475 220.023 127.554 220.355C127.633 220.681 127.75 220.952 127.904 221.167C128.058 221.377 128.247 221.531 128.471 221.629C128.695 221.727 128.952 221.776 129.241 221.776ZM139.693 222.686H139.14C139.019 222.686 138.921 222.667 138.846 222.63C138.772 222.592 138.723 222.513 138.699 222.392L138.559 221.734C138.373 221.902 138.191 222.053 138.013 222.189C137.836 222.319 137.649 222.431 137.453 222.525C137.257 222.613 137.047 222.681 136.823 222.728C136.604 222.774 136.359 222.798 136.088 222.798C135.813 222.798 135.554 222.76 135.311 222.686C135.073 222.606 134.866 222.49 134.688 222.336C134.511 222.182 134.369 221.988 134.261 221.755C134.159 221.517 134.107 221.237 134.107 220.915C134.107 220.635 134.184 220.366 134.338 220.11C134.492 219.848 134.74 219.617 135.08 219.417C135.426 219.216 135.876 219.053 136.431 218.927C136.987 218.796 137.666 218.721 138.468 218.703V218.15C138.468 217.599 138.349 217.184 138.111 216.904C137.878 216.619 137.53 216.477 137.068 216.477C136.765 216.477 136.508 216.516 136.298 216.596C136.093 216.67 135.913 216.757 135.759 216.855C135.61 216.948 135.479 217.034 135.367 217.114C135.26 217.188 135.153 217.226 135.045 217.226C134.961 217.226 134.887 217.205 134.821 217.163C134.761 217.116 134.712 217.06 134.674 216.995L134.45 216.596C134.842 216.218 135.265 215.935 135.717 215.749C136.17 215.562 136.672 215.469 137.222 215.469C137.619 215.469 137.971 215.534 138.279 215.665C138.587 215.795 138.846 215.977 139.056 216.211C139.266 216.444 139.425 216.726 139.532 217.058C139.64 217.389 139.693 217.753 139.693 218.15V222.686ZM136.459 221.923C136.679 221.923 136.879 221.902 137.061 221.86C137.243 221.813 137.414 221.75 137.572 221.671C137.736 221.587 137.89 221.486 138.034 221.37C138.184 221.253 138.328 221.12 138.468 220.971V219.494C137.894 219.512 137.407 219.559 137.005 219.634C136.604 219.704 136.277 219.797 136.025 219.914C135.773 220.03 135.589 220.168 135.472 220.327C135.36 220.485 135.304 220.663 135.304 220.859C135.304 221.045 135.335 221.206 135.395 221.342C135.456 221.477 135.538 221.589 135.64 221.678C135.743 221.762 135.864 221.825 136.004 221.867C136.144 221.904 136.296 221.923 136.459 221.923ZM143.441 224.779C143.399 224.872 143.346 224.947 143.28 225.003C143.22 225.059 143.124 225.087 142.993 225.087H142.069L143.364 222.273L140.438 215.595H141.516C141.624 215.595 141.708 215.623 141.768 215.679C141.829 215.73 141.873 215.788 141.901 215.854L143.798 220.32C143.84 220.422 143.875 220.525 143.903 220.628C143.936 220.73 143.964 220.835 143.987 220.943C144.02 220.835 144.053 220.73 144.085 220.628C144.118 220.525 144.155 220.42 144.197 220.313L146.038 215.854C146.066 215.779 146.113 215.718 146.178 215.672C146.248 215.62 146.323 215.595 146.402 215.595H147.396L143.441 224.779Z" fill="white"/>
<path d="M139.487 113.867C140.094 113.867 140.654 113.971 141.167 114.177C141.681 114.377 142.124 114.671 142.497 115.057C142.871 115.437 143.161 115.911 143.367 116.477C143.581 117.037 143.687 117.677 143.687 118.397C143.687 118.677 143.657 118.864 143.597 118.957C143.537 119.051 143.424 119.097 143.257 119.097H136.517C136.531 119.737 136.617 120.294 136.777 120.767C136.937 121.241 137.157 121.637 137.437 121.957C137.717 122.271 138.051 122.507 138.437 122.667C138.824 122.821 139.257 122.897 139.737 122.897C140.184 122.897 140.567 122.847 140.887 122.747C141.214 122.641 141.494 122.527 141.727 122.407C141.961 122.287 142.154 122.177 142.307 122.077C142.467 121.971 142.604 121.917 142.717 121.917C142.864 121.917 142.977 121.974 143.057 122.087L143.557 122.737C143.337 123.004 143.074 123.237 142.767 123.437C142.461 123.631 142.131 123.791 141.777 123.917C141.431 124.044 141.071 124.137 140.697 124.197C140.324 124.264 139.954 124.297 139.587 124.297C138.887 124.297 138.241 124.181 137.647 123.947C137.061 123.707 136.551 123.361 136.117 122.907C135.691 122.447 135.357 121.881 135.117 121.207C134.877 120.534 134.757 119.761 134.757 118.887C134.757 118.181 134.864 117.521 135.077 116.907C135.297 116.294 135.611 115.764 136.017 115.317C136.424 114.864 136.921 114.511 137.507 114.257C138.094 113.997 138.754 113.867 139.487 113.867ZM139.527 115.177C138.667 115.177 137.991 115.427 137.497 115.927C137.004 116.421 136.697 117.107 136.577 117.987H142.087C142.087 117.574 142.031 117.197 141.917 116.857C141.804 116.511 141.637 116.214 141.417 115.967C141.197 115.714 140.927 115.521 140.607 115.387C140.294 115.247 139.934 115.177 139.527 115.177ZM147.73 118.967L144.32 114.027H146.03C146.177 114.027 146.283 114.051 146.35 114.097C146.417 114.144 146.477 114.211 146.53 114.297L149.01 118.097C149.07 117.911 149.157 117.724 149.27 117.537L151.45 114.337C151.517 114.244 151.583 114.171 151.65 114.117C151.717 114.057 151.8 114.027 151.9 114.027H153.54L150.13 118.867L153.68 124.157H151.97C151.823 124.157 151.707 124.121 151.62 124.047C151.54 123.967 151.473 123.881 151.42 123.787L148.87 119.817C148.823 120.011 148.753 120.184 148.66 120.337L146.3 123.787C146.233 123.881 146.16 123.967 146.08 124.047C146.007 124.121 145.903 124.157 145.77 124.157H144.18L147.73 118.967ZM158.843 113.867C159.449 113.867 160.009 113.971 160.523 114.177C161.036 114.377 161.479 114.671 161.853 115.057C162.226 115.437 162.516 115.911 162.723 116.477C162.936 117.037 163.043 117.677 163.043 118.397C163.043 118.677 163.013 118.864 162.953 118.957C162.893 119.051 162.779 119.097 162.613 119.097H155.873C155.886 119.737 155.973 120.294 156.133 120.767C156.293 121.241 156.513 121.637 156.793 121.957C157.073 122.271 157.406 122.507 157.793 122.667C158.179 122.821 158.613 122.897 159.093 122.897C159.539 122.897 159.923 122.847 160.243 122.747C160.569 122.641 160.849 122.527 161.083 122.407C161.316 122.287 161.509 122.177 161.663 122.077C161.823 121.971 161.959 121.917 162.073 121.917C162.219 121.917 162.333 121.974 162.413 122.087L162.913 122.737C162.693 123.004 162.429 123.237 162.123 123.437C161.816 123.631 161.486 123.791 161.133 123.917C160.786 124.044 160.426 124.137 160.053 124.197C159.679 124.264 159.309 124.297 158.943 124.297C158.243 124.297 157.596 124.181 157.003 123.947C156.416 123.707 155.906 123.361 155.473 122.907C155.046 122.447 154.713 121.881 154.473 121.207C154.233 120.534 154.113 119.761 154.113 118.887C154.113 118.181 154.219 117.521 154.433 116.907C154.653 116.294 154.966 115.764 155.373 115.317C155.779 114.864 156.276 114.511 156.863 114.257C157.449 113.997 158.109 113.867 158.843 113.867ZM158.883 115.177C158.023 115.177 157.346 115.427 156.853 115.927C156.359 116.421 156.053 117.107 155.933 117.987H161.443C161.443 117.574 161.386 117.197 161.273 116.857C161.159 116.511 160.993 116.214 160.773 115.967C160.553 115.714 160.283 115.521 159.963 115.387C159.649 115.247 159.289 115.177 158.883 115.177ZM165.321 124.157V114.027H166.341C166.534 114.027 166.668 114.064 166.741 114.137C166.814 114.211 166.864 114.337 166.891 114.517L167.011 116.097C167.358 115.391 167.784 114.841 168.291 114.447C168.804 114.047 169.404 113.847 170.091 113.847C170.371 113.847 170.624 113.881 170.851 113.947C171.078 114.007 171.288 114.094 171.481 114.207L171.251 115.537C171.204 115.704 171.101 115.787 170.941 115.787C170.848 115.787 170.704 115.757 170.511 115.697C170.318 115.631 170.048 115.597 169.701 115.597C169.081 115.597 168.561 115.777 168.141 116.137C167.728 116.497 167.381 117.021 167.101 117.707V124.157H165.321ZM180.297 115.827C180.244 115.901 180.191 115.957 180.137 115.997C180.084 116.037 180.007 116.057 179.907 116.057C179.807 116.057 179.697 116.017 179.577 115.937C179.464 115.851 179.317 115.757 179.137 115.657C178.957 115.557 178.737 115.467 178.477 115.387C178.224 115.301 177.911 115.257 177.537 115.257C177.044 115.257 176.607 115.347 176.227 115.527C175.847 115.701 175.527 115.954 175.267 116.287C175.014 116.621 174.821 117.024 174.687 117.497C174.561 117.971 174.497 118.501 174.497 119.087C174.497 119.701 174.567 120.247 174.707 120.727C174.847 121.201 175.044 121.601 175.297 121.927C175.551 122.247 175.857 122.494 176.217 122.667C176.584 122.834 176.994 122.917 177.447 122.917C177.881 122.917 178.237 122.867 178.517 122.767C178.797 122.661 179.031 122.544 179.217 122.417C179.404 122.291 179.557 122.177 179.677 122.077C179.797 121.971 179.917 121.917 180.037 121.917C180.191 121.917 180.304 121.974 180.377 122.087L180.877 122.737C180.437 123.277 179.887 123.674 179.227 123.927C178.567 124.174 177.871 124.297 177.137 124.297C176.504 124.297 175.914 124.181 175.367 123.947C174.827 123.714 174.357 123.377 173.957 122.937C173.557 122.491 173.241 121.944 173.007 121.297C172.781 120.651 172.667 119.914 172.667 119.087C172.667 118.334 172.771 117.637 172.977 116.997C173.191 116.357 173.497 115.807 173.897 115.347C174.304 114.881 174.804 114.517 175.397 114.257C175.991 113.997 176.671 113.867 177.437 113.867C178.144 113.867 178.771 113.984 179.317 114.217C179.864 114.444 180.347 114.767 180.767 115.187L180.297 115.827ZM184.703 114.027V124.157H182.923V114.027H184.703ZM185.103 110.847C185.103 111.021 185.067 111.184 184.993 111.337C184.927 111.484 184.833 111.617 184.713 111.737C184.6 111.851 184.467 111.941 184.313 112.007C184.16 112.074 183.997 112.107 183.823 112.107C183.65 112.107 183.487 112.074 183.333 112.007C183.187 111.941 183.053 111.851 182.933 111.737C182.82 111.617 182.73 111.484 182.663 111.337C182.597 111.184 182.563 111.021 182.563 110.847C182.563 110.674 182.597 110.511 182.663 110.357C182.73 110.197 182.82 110.061 182.933 109.947C183.053 109.827 183.187 109.734 183.333 109.667C183.487 109.601 183.65 109.567 183.823 109.567C183.997 109.567 184.16 109.601 184.313 109.667C184.467 109.734 184.6 109.827 184.713 109.947C184.833 110.061 184.927 110.197 184.993 110.357C185.067 110.511 185.103 110.674 185.103 110.847ZM193.64 115.697C193.56 115.844 193.437 115.917 193.27 115.917C193.17 115.917 193.057 115.881 192.93 115.807C192.804 115.734 192.647 115.654 192.46 115.567C192.28 115.474 192.064 115.391 191.81 115.317C191.557 115.237 191.257 115.197 190.91 115.197C190.61 115.197 190.34 115.237 190.1 115.317C189.86 115.391 189.654 115.494 189.48 115.627C189.314 115.761 189.184 115.917 189.09 116.097C189.004 116.271 188.96 116.461 188.96 116.667C188.96 116.927 189.034 117.144 189.18 117.317C189.334 117.491 189.534 117.641 189.78 117.767C190.027 117.894 190.307 118.007 190.62 118.107C190.934 118.201 191.254 118.304 191.58 118.417C191.914 118.524 192.237 118.644 192.55 118.777C192.864 118.911 193.144 119.077 193.39 119.277C193.637 119.477 193.834 119.724 193.98 120.017C194.134 120.304 194.21 120.651 194.21 121.057C194.21 121.524 194.127 121.957 193.96 122.357C193.794 122.751 193.547 123.094 193.22 123.387C192.894 123.674 192.494 123.901 192.02 124.067C191.547 124.234 191 124.317 190.38 124.317C189.674 124.317 189.034 124.204 188.46 123.977C187.887 123.744 187.4 123.447 187 123.087L187.42 122.407C187.474 122.321 187.537 122.254 187.61 122.207C187.684 122.161 187.78 122.137 187.9 122.137C188.02 122.137 188.147 122.184 188.28 122.277C188.414 122.371 188.574 122.474 188.76 122.587C188.954 122.701 189.184 122.804 189.45 122.897C189.724 122.991 190.064 123.037 190.47 123.037C190.817 123.037 191.12 122.994 191.38 122.907C191.64 122.814 191.857 122.691 192.03 122.537C192.204 122.384 192.33 122.207 192.41 122.007C192.497 121.807 192.54 121.594 192.54 121.367C192.54 121.087 192.464 120.857 192.31 120.677C192.164 120.491 191.967 120.334 191.72 120.207C191.474 120.074 191.19 119.961 190.87 119.867C190.557 119.767 190.234 119.664 189.9 119.557C189.574 119.451 189.25 119.331 188.93 119.197C188.617 119.057 188.337 118.884 188.09 118.677C187.844 118.471 187.644 118.217 187.49 117.917C187.344 117.611 187.27 117.241 187.27 116.807C187.27 116.421 187.35 116.051 187.51 115.697C187.67 115.337 187.904 115.024 188.21 114.757C188.517 114.484 188.894 114.267 189.34 114.107C189.787 113.947 190.297 113.867 190.87 113.867C191.537 113.867 192.134 113.974 192.66 114.187C193.194 114.394 193.654 114.681 194.04 115.047L193.64 115.697ZM200.522 113.867C201.129 113.867 201.689 113.971 202.202 114.177C202.716 114.377 203.159 114.671 203.532 115.057C203.906 115.437 204.196 115.911 204.402 116.477C204.616 117.037 204.722 117.677 204.722 118.397C204.722 118.677 204.692 118.864 204.632 118.957C204.572 119.051 204.459 119.097 204.292 119.097H197.552C197.566 119.737 197.652 120.294 197.812 120.767C197.972 121.241 198.192 121.637 198.472 121.957C198.752 122.271 199.086 122.507 199.472 122.667C199.859 122.821 200.292 122.897 200.772 122.897C201.219 122.897 201.602 122.847 201.922 122.747C202.249 122.641 202.529 122.527 202.762 122.407C202.996 122.287 203.189 122.177 203.342 122.077C203.502 121.971 203.639 121.917 203.752 121.917C203.899 121.917 204.012 121.974 204.092 122.087L204.592 122.737C204.372 123.004 204.109 123.237 203.802 123.437C203.496 123.631 203.166 123.791 202.812 123.917C202.466 124.044 202.106 124.137 201.732 124.197C201.359 124.264 200.989 124.297 200.622 124.297C199.922 124.297 199.276 124.181 198.682 123.947C198.096 123.707 197.586 123.361 197.152 122.907C196.726 122.447 196.392 121.881 196.152 121.207C195.912 120.534 195.792 119.761 195.792 118.887C195.792 118.181 195.899 117.521 196.112 116.907C196.332 116.294 196.646 115.764 197.052 115.317C197.459 114.864 197.956 114.511 198.542 114.257C199.129 113.997 199.789 113.867 200.522 113.867ZM200.562 115.177C199.702 115.177 199.026 115.427 198.532 115.927C198.039 116.421 197.732 117.107 197.612 117.987H203.122C203.122 117.574 203.066 117.197 202.952 116.857C202.839 116.511 202.672 116.214 202.452 115.967C202.232 115.714 201.962 115.521 201.642 115.387C201.329 115.247 200.969 115.177 200.562 115.177Z" fill="white"/>
<path d="M63.2936 43.5541C63.8116 43.5541 64.2783 43.6404 64.6936 43.8131C65.1136 43.9857 65.4683 44.2307 65.7576 44.5481C66.0516 44.8654 66.2756 45.2504 66.4296 45.7031C66.5883 46.1511 66.6676 46.6527 66.6676 47.2081C66.6676 47.7681 66.5883 48.2721 66.4296 48.7201C66.2756 49.1681 66.0516 49.5507 65.7576 49.8681C65.4683 50.1854 65.1136 50.4304 64.6936 50.6031C64.2783 50.7711 63.8116 50.8551 63.2936 50.8551C62.7756 50.8551 62.3066 50.7711 61.8866 50.6031C61.4713 50.4304 61.1166 50.1854 60.8226 49.8681C60.5286 49.5507 60.3023 49.1681 60.1436 48.7201C59.9849 48.2721 59.9056 47.7681 59.9056 47.2081C59.9056 46.6527 59.9849 46.1511 60.1436 45.7031C60.3023 45.2504 60.5286 44.8654 60.8226 44.5481C61.1166 44.2307 61.4713 43.9857 61.8866 43.8131C62.3066 43.6404 62.7756 43.5541 63.2936 43.5541ZM63.2936 49.8821C63.9936 49.8821 64.5163 49.6487 64.8616 49.1821C65.2069 48.7107 65.3796 48.0551 65.3796 47.2151C65.3796 46.3704 65.2069 45.7124 64.8616 45.2411C64.5163 44.7697 63.9936 44.5341 63.2936 44.5341C62.9389 44.5341 62.6309 44.5947 62.3696 44.7161C62.1083 44.8374 61.8889 45.0124 61.7116 45.2411C61.5389 45.4697 61.4083 45.7521 61.3196 46.0881C61.2356 46.4194 61.1936 46.7951 61.1936 47.2151C61.1936 47.6351 61.2356 48.0107 61.3196 48.3421C61.4083 48.6734 61.5389 48.9534 61.7116 49.1821C61.8889 49.4061 62.1083 49.5787 62.3696 49.7001C62.6309 49.8214 62.9389 49.8821 63.2936 49.8821ZM68.2449 50.7571V40.4461H69.4979V44.6881C69.7919 44.3474 70.1279 44.0744 70.5059 43.8691C70.8886 43.6591 71.3249 43.5541 71.8149 43.5541C72.2256 43.5541 72.5966 43.6311 72.9279 43.7851C73.2592 43.9391 73.5416 44.1701 73.7749 44.4781C74.0082 44.7814 74.1879 45.1594 74.3139 45.6121C74.4399 46.0601 74.5029 46.5781 74.5029 47.1661C74.5029 47.6887 74.4329 48.1764 74.2929 48.6291C74.1529 49.0771 73.9499 49.4667 73.6839 49.7981C73.4226 50.1247 73.1006 50.3837 72.7179 50.5751C72.3399 50.7617 71.9129 50.8551 71.4369 50.8551C70.9796 50.8551 70.5899 50.7664 70.2679 50.5891C69.9506 50.4117 69.6729 50.1644 69.4349 49.8471L69.3719 50.4911C69.3346 50.6684 69.2272 50.7571 69.0499 50.7571H68.2449ZM71.4089 44.5481C71.0029 44.5481 70.6459 44.6414 70.3379 44.8281C70.0346 45.0147 69.7546 45.2784 69.4979 45.6191V49.0491C69.7219 49.3571 69.9692 49.5741 70.2399 49.7001C70.5152 49.8261 70.8209 49.8891 71.1569 49.8891C71.8196 49.8891 72.3282 49.6534 72.6829 49.1821C73.0376 48.7107 73.2149 48.0387 73.2149 47.1661C73.2149 46.7041 73.1729 46.3074 73.0889 45.9761C73.0096 45.6447 72.8929 45.3741 72.7389 45.1641C72.5849 44.9494 72.3959 44.7931 72.1719 44.6951C71.9479 44.5971 71.6936 44.5481 71.4089 44.5481ZM80.0832 44.8351C80.0272 44.9377 79.9409 44.9891 79.8242 44.9891C79.7542 44.9891 79.6749 44.9634 79.5862 44.9121C79.4976 44.8607 79.3879 44.8047 79.2572 44.7441C79.1312 44.6787 78.9796 44.6204 78.8022 44.5691C78.6249 44.5131 78.4149 44.4851 78.1722 44.4851C77.9622 44.4851 77.7732 44.5131 77.6052 44.5691C77.4372 44.6204 77.2926 44.6927 77.1712 44.7861C77.0546 44.8794 76.9636 44.9891 76.8982 45.1151C76.8376 45.2364 76.8072 45.3694 76.8072 45.5141C76.8072 45.6961 76.8586 45.8477 76.9612 45.9691C77.0686 46.0904 77.2086 46.1954 77.3812 46.2841C77.5539 46.3727 77.7499 46.4521 77.9692 46.5221C78.1886 46.5874 78.4126 46.6597 78.6412 46.7391C78.8746 46.8137 79.1009 46.8977 79.3202 46.9911C79.5396 47.0844 79.7356 47.2011 79.9082 47.3411C80.0809 47.4811 80.2186 47.6537 80.3212 47.8591C80.4286 48.0597 80.4822 48.3024 80.4822 48.5871C80.4822 48.9137 80.4239 49.2171 80.3072 49.4971C80.1906 49.7724 80.0179 50.0127 79.7892 50.2181C79.5606 50.4187 79.2806 50.5774 78.9492 50.6941C78.6179 50.8107 78.2352 50.8691 77.8012 50.8691C77.3066 50.8691 76.8586 50.7897 76.4572 50.6311C76.0559 50.4677 75.7152 50.2601 75.4352 50.0081L75.7292 49.5321C75.7666 49.4714 75.8109 49.4247 75.8622 49.3921C75.9136 49.3594 75.9812 49.3431 76.0652 49.3431C76.1492 49.3431 76.2379 49.3757 76.3312 49.4411C76.4246 49.5064 76.5366 49.5787 76.6672 49.6581C76.8026 49.7374 76.9636 49.8097 77.1502 49.8751C77.3416 49.9404 77.5796 49.9731 77.8642 49.9731C78.1069 49.9731 78.3192 49.9427 78.5012 49.8821C78.6832 49.8167 78.8349 49.7304 78.9562 49.6231C79.0776 49.5157 79.1662 49.3921 79.2222 49.2521C79.2829 49.1121 79.3132 48.9627 79.3132 48.8041C79.3132 48.6081 79.2596 48.4471 79.1522 48.3211C79.0496 48.1904 78.9119 48.0807 78.7392 47.9921C78.5666 47.8987 78.3682 47.8194 78.1442 47.7541C77.9249 47.6841 77.6986 47.6117 77.4652 47.5371C77.2366 47.4624 77.0102 47.3784 76.7862 47.2851C76.5669 47.1871 76.3709 47.0657 76.1982 46.9211C76.0256 46.7764 75.8856 46.5991 75.7782 46.3891C75.6756 46.1744 75.6242 45.9154 75.6242 45.6121C75.6242 45.3414 75.6802 45.0824 75.7922 44.8351C75.9042 44.5831 76.0676 44.3637 76.2822 44.1771C76.4969 43.9857 76.7606 43.8341 77.0732 43.7221C77.3859 43.6101 77.7429 43.5541 78.1442 43.5541C78.6109 43.5541 79.0286 43.6287 79.3972 43.7781C79.7706 43.9227 80.0926 44.1234 80.3632 44.3801L80.0832 44.8351ZM84.2425 50.8691C83.6825 50.8691 83.2509 50.7127 82.9475 50.4001C82.6489 50.0874 82.4995 49.6371 82.4995 49.0491V44.7091H81.6455C81.5709 44.7091 81.5079 44.6881 81.4565 44.6461C81.4052 44.5994 81.3795 44.5294 81.3795 44.4361V43.9391L82.5415 43.7921L82.8285 41.6011C82.8379 41.5311 82.8682 41.4751 82.9195 41.4331C82.9709 41.3864 83.0362 41.3631 83.1155 41.3631H83.7455V43.8061H85.7755V44.7091H83.7455V48.9651C83.7455 49.2637 83.8179 49.4854 83.9625 49.6301C84.1072 49.7747 84.2939 49.8471 84.5225 49.8471C84.6532 49.8471 84.7652 49.8307 84.8585 49.7981C84.9565 49.7607 85.0405 49.7211 85.1105 49.6791C85.1805 49.6371 85.2389 49.5997 85.2855 49.5671C85.3369 49.5297 85.3812 49.5111 85.4185 49.5111C85.4839 49.5111 85.5422 49.5507 85.5935 49.6301L85.9575 50.2251C85.7429 50.4257 85.4839 50.5844 85.1805 50.7011C84.8772 50.8131 84.5645 50.8691 84.2425 50.8691ZM92.5242 50.7571H91.9712C91.8499 50.7571 91.7519 50.7384 91.6772 50.7011C91.6025 50.6637 91.5535 50.5844 91.5302 50.4631L91.3902 49.8051C91.2035 49.9731 91.0215 50.1247 90.8442 50.2601C90.6669 50.3907 90.4802 50.5027 90.2842 50.5961C90.0882 50.6847 89.8782 50.7524 89.6542 50.7991C89.4349 50.8457 89.1899 50.8691 88.9192 50.8691C88.6439 50.8691 88.3849 50.8317 88.1422 50.7571C87.9042 50.6777 87.6965 50.5611 87.5192 50.4071C87.3419 50.2531 87.1995 50.0594 87.0922 49.8261C86.9895 49.5881 86.9382 49.3081 86.9382 48.9861C86.9382 48.7061 87.0152 48.4377 87.1692 48.1811C87.3232 47.9197 87.5705 47.6887 87.9112 47.4881C88.2565 47.2874 88.7069 47.1241 89.2622 46.9981C89.8175 46.8674 90.4965 46.7927 91.2992 46.7741V46.2211C91.2992 45.6704 91.1802 45.2551 90.9422 44.9751C90.7089 44.6904 90.3612 44.5481 89.8992 44.5481C89.5959 44.5481 89.3392 44.5877 89.1292 44.6671C88.9239 44.7417 88.7442 44.8281 88.5902 44.9261C88.4409 45.0194 88.3102 45.1057 88.1982 45.1851C88.0909 45.2597 87.9835 45.2971 87.8762 45.2971C87.7922 45.2971 87.7175 45.2761 87.6522 45.2341C87.5915 45.1874 87.5425 45.1314 87.5052 45.0661L87.2812 44.6671C87.6732 44.2891 88.0955 44.0067 88.5482 43.8201C89.0009 43.6334 89.5025 43.5401 90.0532 43.5401C90.4499 43.5401 90.8022 43.6054 91.1102 43.7361C91.4182 43.8667 91.6772 44.0487 91.8872 44.2821C92.0972 44.5154 92.2559 44.7977 92.3632 45.1291C92.4705 45.4604 92.5242 45.8244 92.5242 46.2211V50.7571ZM89.2902 49.9941C89.5095 49.9941 89.7102 49.9731 89.8922 49.9311C90.0742 49.8844 90.2445 49.8214 90.4032 49.7421C90.5665 49.6581 90.7205 49.5577 90.8652 49.4411C91.0145 49.3244 91.1592 49.1914 91.2992 49.0421V47.5651C90.7252 47.5837 90.2375 47.6304 89.8362 47.7051C89.4349 47.7751 89.1082 47.8684 88.8562 47.9851C88.6042 48.1017 88.4199 48.2394 88.3032 48.3981C88.1912 48.5567 88.1352 48.7341 88.1352 48.9301C88.1352 49.1167 88.1655 49.2777 88.2262 49.4131C88.2869 49.5484 88.3685 49.6604 88.4712 49.7491C88.5739 49.8331 88.6952 49.8961 88.8352 49.9381C88.9752 49.9754 89.1269 49.9941 89.2902 49.9941ZM99.2489 44.9261C99.2116 44.9774 99.1742 45.0171 99.1369 45.0451C99.0996 45.0731 99.0459 45.0871 98.9759 45.0871C98.9059 45.0871 98.8289 45.0591 98.7449 45.0031C98.6656 44.9424 98.5629 44.8771 98.4369 44.8071C98.3109 44.7371 98.1569 44.6741 97.9749 44.6181C97.7976 44.5574 97.5782 44.5271 97.3169 44.5271C96.9716 44.5271 96.6659 44.5901 96.3999 44.7161C96.1339 44.8374 95.9099 45.0147 95.7279 45.2481C95.5506 45.4814 95.4152 45.7637 95.3219 46.0951C95.2332 46.4264 95.1889 46.7974 95.1889 47.2081C95.1889 47.6374 95.2379 48.0201 95.3359 48.3561C95.4339 48.6874 95.5716 48.9674 95.7489 49.1961C95.9262 49.4201 96.1409 49.5927 96.3929 49.7141C96.6496 49.8307 96.9366 49.8891 97.2539 49.8891C97.5572 49.8891 97.8069 49.8541 98.0029 49.7841C98.1989 49.7094 98.3622 49.6277 98.4929 49.5391C98.6236 49.4504 98.7309 49.3711 98.8149 49.3011C98.8989 49.2264 98.9829 49.1891 99.0669 49.1891C99.1742 49.1891 99.2536 49.2287 99.3049 49.3081L99.6549 49.7631C99.3469 50.1411 98.9619 50.4187 98.4999 50.5961C98.0379 50.7687 97.5502 50.8551 97.0369 50.8551C96.5936 50.8551 96.1806 50.7734 95.7979 50.6101C95.4199 50.4467 95.0909 50.2111 94.8109 49.9031C94.5309 49.5904 94.3092 49.2077 94.1459 48.7551C93.9872 48.3024 93.9079 47.7867 93.9079 47.2081C93.9079 46.6807 93.9802 46.1931 94.1249 45.7451C94.2742 45.2971 94.4889 44.9121 94.7689 44.5901C95.0536 44.2634 95.4036 44.0091 95.8189 43.8271C96.2342 43.6451 96.7102 43.5541 97.2469 43.5541C97.7416 43.5541 98.1802 43.6357 98.5629 43.7991C98.9456 43.9577 99.2839 44.1841 99.5779 44.4781L99.2489 44.9261ZM102.333 40.4461V50.7571H101.087V40.4461H102.333ZM107.336 43.5541C107.761 43.5541 108.153 43.6264 108.512 43.7711C108.871 43.9111 109.182 44.1164 109.443 44.3871C109.704 44.6531 109.907 44.9844 110.052 45.3811C110.201 45.7731 110.276 46.2211 110.276 46.7251C110.276 46.9211 110.255 47.0517 110.213 47.1171C110.171 47.1824 110.092 47.2151 109.975 47.2151H105.257C105.266 47.6631 105.327 48.0527 105.439 48.3841C105.551 48.7154 105.705 48.9931 105.901 49.2171C106.097 49.4364 106.33 49.6021 106.601 49.7141C106.872 49.8214 107.175 49.8751 107.511 49.8751C107.824 49.8751 108.092 49.8401 108.316 49.7701C108.545 49.6954 108.741 49.6161 108.904 49.5321C109.067 49.4481 109.203 49.3711 109.31 49.3011C109.422 49.2264 109.518 49.1891 109.597 49.1891C109.7 49.1891 109.779 49.2287 109.835 49.3081L110.185 49.7631C110.031 49.9497 109.847 50.1131 109.632 50.2531C109.417 50.3884 109.186 50.5004 108.939 50.5891C108.696 50.6777 108.444 50.7431 108.183 50.7851C107.922 50.8317 107.663 50.8551 107.406 50.8551C106.916 50.8551 106.463 50.7734 106.048 50.6101C105.637 50.4421 105.28 50.1994 104.977 49.8821C104.678 49.5601 104.445 49.1634 104.277 48.6921C104.109 48.2207 104.025 47.6794 104.025 47.0681C104.025 46.5734 104.1 46.1114 104.249 45.6821C104.403 45.2527 104.622 44.8817 104.907 44.5691C105.192 44.2517 105.539 44.0044 105.95 43.8271C106.361 43.6451 106.823 43.5541 107.336 43.5541ZM107.364 44.4711C106.762 44.4711 106.288 44.6461 105.943 44.9961C105.598 45.3414 105.383 45.8221 105.299 46.4381H109.156C109.156 46.1487 109.116 45.8851 109.037 45.6471C108.958 45.4044 108.841 45.1967 108.687 45.0241C108.533 44.8467 108.344 44.7114 108.12 44.6181C107.901 44.5201 107.649 44.4711 107.364 44.4711ZM115.931 44.8351C115.875 44.9377 115.789 44.9891 115.672 44.9891C115.602 44.9891 115.523 44.9634 115.434 44.9121C115.345 44.8607 115.236 44.8047 115.105 44.7441C114.979 44.6787 114.827 44.6204 114.65 44.5691C114.473 44.5131 114.263 44.4851 114.02 44.4851C113.81 44.4851 113.621 44.5131 113.453 44.5691C113.285 44.6204 113.14 44.6927 113.019 44.7861C112.902 44.8794 112.811 44.9891 112.746 45.1151C112.685 45.2364 112.655 45.3694 112.655 45.5141C112.655 45.6961 112.706 45.8477 112.809 45.9691C112.916 46.0904 113.056 46.1954 113.229 46.2841C113.402 46.3727 113.598 46.4521 113.817 46.5221C114.036 46.5874 114.26 46.6597 114.489 46.7391C114.722 46.8137 114.949 46.8977 115.168 46.9911C115.387 47.0844 115.583 47.2011 115.756 47.3411C115.929 47.4811 116.066 47.6537 116.169 47.8591C116.276 48.0597 116.33 48.3024 116.33 48.5871C116.33 48.9137 116.272 49.2171 116.155 49.4971C116.038 49.7724 115.866 50.0127 115.637 50.2181C115.408 50.4187 115.128 50.5774 114.797 50.6941C114.466 50.8107 114.083 50.8691 113.649 50.8691C113.154 50.8691 112.706 50.7897 112.305 50.6311C111.904 50.4677 111.563 50.2601 111.283 50.0081L111.577 49.5321C111.614 49.4714 111.659 49.4247 111.71 49.3921C111.761 49.3594 111.829 49.3431 111.913 49.3431C111.997 49.3431 112.086 49.3757 112.179 49.4411C112.272 49.5064 112.384 49.5787 112.515 49.6581C112.65 49.7374 112.811 49.8097 112.998 49.8751C113.189 49.9404 113.427 49.9731 113.712 49.9731C113.955 49.9731 114.167 49.9427 114.349 49.8821C114.531 49.8167 114.683 49.7304 114.804 49.6231C114.925 49.5157 115.014 49.3921 115.07 49.2521C115.131 49.1121 115.161 48.9627 115.161 48.8041C115.161 48.6081 115.107 48.4471 115 48.3211C114.897 48.1904 114.76 48.0807 114.587 47.9921C114.414 47.8987 114.216 47.8194 113.992 47.7541C113.773 47.6841 113.546 47.6117 113.313 47.5371C113.084 47.4624 112.858 47.3784 112.634 47.2851C112.415 47.1871 112.219 47.0657 112.046 46.9211C111.873 46.7764 111.733 46.5991 111.626 46.3891C111.523 46.1744 111.472 45.9154 111.472 45.6121C111.472 45.3414 111.528 45.0824 111.64 44.8351C111.752 44.5831 111.915 44.3637 112.13 44.1771C112.345 43.9857 112.608 43.8341 112.921 43.7221C113.234 43.6101 113.591 43.5541 113.992 43.5541C114.459 43.5541 114.876 43.6287 115.245 43.7781C115.618 43.9227 115.94 44.1234 116.211 44.3801L115.931 44.8351Z" fill="white"/>
<path d="M36.2299 136.232C36.1659 136.349 36.0672 136.408 35.9339 136.408C35.8539 136.408 35.7632 136.379 35.6619 136.32C35.5605 136.261 35.4352 136.197 35.2859 136.128C35.1419 136.053 34.9685 135.987 34.7659 135.928C34.5632 135.864 34.3232 135.832 34.0459 135.832C33.8059 135.832 33.5899 135.864 33.3979 135.928C33.2059 135.987 33.0405 136.069 32.9019 136.176C32.7685 136.283 32.6645 136.408 32.5899 136.552C32.5205 136.691 32.4859 136.843 32.4859 137.008C32.4859 137.216 32.5445 137.389 32.6619 137.528C32.7845 137.667 32.9445 137.787 33.1419 137.888C33.3392 137.989 33.5632 138.08 33.8139 138.16C34.0645 138.235 34.3205 138.317 34.5819 138.408C34.8485 138.493 35.1072 138.589 35.3579 138.696C35.6085 138.803 35.8325 138.936 36.0299 139.096C36.2272 139.256 36.3845 139.453 36.5019 139.688C36.6245 139.917 36.6859 140.195 36.6859 140.52C36.6859 140.893 36.6192 141.24 36.4859 141.56C36.3525 141.875 36.1552 142.149 35.8939 142.384C35.6325 142.613 35.3125 142.795 34.9339 142.928C34.5552 143.061 34.1179 143.128 33.6219 143.128C33.0565 143.128 32.5445 143.037 32.0859 142.856C31.6272 142.669 31.2379 142.432 30.9179 142.144L31.2539 141.6C31.2965 141.531 31.3472 141.477 31.4059 141.44C31.4645 141.403 31.5419 141.384 31.6379 141.384C31.7339 141.384 31.8352 141.421 31.9419 141.496C32.0485 141.571 32.1765 141.653 32.3259 141.744C32.4805 141.835 32.6645 141.917 32.8779 141.992C33.0965 142.067 33.3685 142.104 33.6939 142.104C33.9712 142.104 34.2139 142.069 34.4219 142C34.6299 141.925 34.8032 141.827 34.9419 141.704C35.0805 141.581 35.1819 141.44 35.2459 141.28C35.3152 141.12 35.3499 140.949 35.3499 140.768C35.3499 140.544 35.2885 140.36 35.1659 140.216C35.0485 140.067 34.8912 139.941 34.6939 139.84C34.4965 139.733 34.2699 139.643 34.0139 139.568C33.7632 139.488 33.5045 139.405 33.2379 139.32C32.9765 139.235 32.7179 139.139 32.4619 139.032C32.2112 138.92 31.9872 138.781 31.7899 138.616C31.5925 138.451 31.4325 138.248 31.3099 138.008C31.1925 137.763 31.1339 137.467 31.1339 137.12C31.1339 136.811 31.1979 136.515 31.3259 136.232C31.4539 135.944 31.6405 135.693 31.8859 135.48C32.1312 135.261 32.4325 135.088 32.7899 134.96C33.1472 134.832 33.5552 134.768 34.0139 134.768C34.5472 134.768 35.0245 134.853 35.4459 135.024C35.8725 135.189 36.2405 135.419 36.5499 135.712L36.2299 136.232ZM41.7354 134.768C42.2207 134.768 42.6687 134.851 43.0794 135.016C43.49 135.176 43.8447 135.411 44.1434 135.72C44.442 136.024 44.674 136.403 44.8394 136.856C45.01 137.304 45.0954 137.816 45.0954 138.392C45.0954 138.616 45.0714 138.765 45.0234 138.84C44.9754 138.915 44.8847 138.952 44.7514 138.952H39.3594C39.37 139.464 39.4394 139.909 39.5674 140.288C39.6954 140.667 39.8714 140.984 40.0954 141.24C40.3194 141.491 40.586 141.68 40.8954 141.808C41.2047 141.931 41.5514 141.992 41.9354 141.992C42.2927 141.992 42.5994 141.952 42.8554 141.872C43.1167 141.787 43.3407 141.696 43.5274 141.6C43.714 141.504 43.8687 141.416 43.9914 141.336C44.1194 141.251 44.2287 141.208 44.3194 141.208C44.4367 141.208 44.5274 141.253 44.5914 141.344L44.9914 141.864C44.8154 142.077 44.6047 142.264 44.3594 142.424C44.114 142.579 43.85 142.707 43.5674 142.808C43.29 142.909 43.002 142.984 42.7034 143.032C42.4047 143.085 42.1087 143.112 41.8154 143.112C41.2554 143.112 40.738 143.019 40.2634 142.832C39.794 142.64 39.386 142.363 39.0394 142C38.698 141.632 38.4314 141.179 38.2394 140.64C38.0474 140.101 37.9514 139.483 37.9514 138.784C37.9514 138.219 38.0367 137.691 38.2074 137.2C38.3834 136.709 38.634 136.285 38.9594 135.928C39.2847 135.565 39.682 135.283 40.1514 135.08C40.6207 134.872 41.1487 134.768 41.7354 134.768ZM41.7674 135.816C41.0794 135.816 40.538 136.016 40.1434 136.416C39.7487 136.811 39.5034 137.36 39.4074 138.064H43.8154C43.8154 137.733 43.77 137.432 43.6794 137.16C43.5887 136.883 43.4554 136.645 43.2794 136.448C43.1034 136.245 42.8874 136.091 42.6314 135.984C42.3807 135.872 42.0927 135.816 41.7674 135.816ZM52.87 143H52.238C52.0993 143 51.9873 142.979 51.902 142.936C51.8167 142.893 51.7607 142.803 51.734 142.664L51.574 141.912C51.3607 142.104 51.1527 142.277 50.95 142.432C50.7473 142.581 50.534 142.709 50.31 142.816C50.086 142.917 49.846 142.995 49.59 143.048C49.3393 143.101 49.0593 143.128 48.75 143.128C48.4353 143.128 48.1393 143.085 47.862 143C47.59 142.909 47.3527 142.776 47.15 142.6C46.9473 142.424 46.7847 142.203 46.662 141.936C46.5447 141.664 46.486 141.344 46.486 140.976C46.486 140.656 46.574 140.349 46.75 140.056C46.926 139.757 47.2087 139.493 47.598 139.264C47.9927 139.035 48.5073 138.848 49.142 138.704C49.7767 138.555 50.5527 138.469 51.47 138.448V137.816C51.47 137.187 51.334 136.712 51.062 136.392C50.7953 136.067 50.398 135.904 49.87 135.904C49.5233 135.904 49.23 135.949 48.99 136.04C48.7553 136.125 48.55 136.224 48.374 136.336C48.2033 136.443 48.054 136.541 47.926 136.632C47.8033 136.717 47.6807 136.76 47.558 136.76C47.462 136.76 47.3767 136.736 47.302 136.688C47.2327 136.635 47.1767 136.571 47.134 136.496L46.878 136.04C47.326 135.608 47.8087 135.285 48.326 135.072C48.8433 134.859 49.4167 134.752 50.046 134.752C50.4993 134.752 50.902 134.827 51.254 134.976C51.606 135.125 51.902 135.333 52.142 135.6C52.382 135.867 52.5633 136.189 52.686 136.568C52.8087 136.947 52.87 137.363 52.87 137.816V143ZM49.174 142.128C49.4247 142.128 49.654 142.104 49.862 142.056C50.07 142.003 50.2647 141.931 50.446 141.84C50.6327 141.744 50.8087 141.629 50.974 141.496C51.1447 141.363 51.31 141.211 51.47 141.04V139.352C50.814 139.373 50.2567 139.427 49.798 139.512C49.3393 139.592 48.966 139.699 48.678 139.832C48.39 139.965 48.1793 140.123 48.046 140.304C47.918 140.485 47.854 140.688 47.854 140.912C47.854 141.125 47.8887 141.309 47.958 141.464C48.0273 141.619 48.1207 141.747 48.238 141.848C48.3553 141.944 48.494 142.016 48.654 142.064C48.814 142.107 48.9873 142.128 49.174 142.128ZM59.6674 136.232C59.6034 136.349 59.5047 136.408 59.3714 136.408C59.2914 136.408 59.2007 136.379 59.0994 136.32C58.998 136.261 58.8727 136.197 58.7234 136.128C58.5794 136.053 58.406 135.987 58.2034 135.928C58.0007 135.864 57.7607 135.832 57.4834 135.832C57.2434 135.832 57.0274 135.864 56.8354 135.928C56.6434 135.987 56.478 136.069 56.3394 136.176C56.206 136.283 56.102 136.408 56.0274 136.552C55.958 136.691 55.9234 136.843 55.9234 137.008C55.9234 137.216 55.982 137.389 56.0994 137.528C56.222 137.667 56.382 137.787 56.5794 137.888C56.7767 137.989 57.0007 138.08 57.2514 138.16C57.502 138.235 57.758 138.317 58.0194 138.408C58.286 138.493 58.5447 138.589 58.7954 138.696C59.046 138.803 59.27 138.936 59.4674 139.096C59.6647 139.256 59.822 139.453 59.9394 139.688C60.062 139.917 60.1234 140.195 60.1234 140.52C60.1234 140.893 60.0567 141.24 59.9234 141.56C59.79 141.875 59.5927 142.149 59.3314 142.384C59.07 142.613 58.75 142.795 58.3714 142.928C57.9927 143.061 57.5554 143.128 57.0594 143.128C56.494 143.128 55.982 143.037 55.5234 142.856C55.0647 142.669 54.6754 142.432 54.3554 142.144L54.6914 141.6C54.734 141.531 54.7847 141.477 54.8434 141.44C54.902 141.403 54.9794 141.384 55.0754 141.384C55.1714 141.384 55.2727 141.421 55.3794 141.496C55.486 141.571 55.614 141.653 55.7634 141.744C55.918 141.835 56.102 141.917 56.3154 141.992C56.534 142.067 56.806 142.104 57.1314 142.104C57.4087 142.104 57.6514 142.069 57.8594 142C58.0674 141.925 58.2407 141.827 58.3794 141.704C58.518 141.581 58.6194 141.44 58.6834 141.28C58.7527 141.12 58.7874 140.949 58.7874 140.768C58.7874 140.544 58.726 140.36 58.6034 140.216C58.486 140.067 58.3287 139.941 58.1314 139.84C57.934 139.733 57.7074 139.643 57.4514 139.568C57.2007 139.488 56.942 139.405 56.6754 139.32C56.414 139.235 56.1554 139.139 55.8994 139.032C55.6487 138.92 55.4247 138.781 55.2274 138.616C55.03 138.451 54.87 138.248 54.7474 138.008C54.63 137.763 54.5714 137.467 54.5714 137.12C54.5714 136.811 54.6354 136.515 54.7634 136.232C54.8914 135.944 55.078 135.693 55.3234 135.48C55.5687 135.261 55.87 135.088 56.2274 134.96C56.5847 134.832 56.9927 134.768 57.4514 134.768C57.9847 134.768 58.462 134.853 58.8834 135.024C59.31 135.189 59.678 135.419 59.9874 135.712L59.6674 136.232ZM65.2449 134.768C65.8369 134.768 66.3702 134.867 66.8449 135.064C67.3249 135.261 67.7302 135.541 68.0609 135.904C68.3969 136.267 68.6529 136.707 68.8289 137.224C69.0102 137.736 69.1009 138.309 69.1009 138.944C69.1009 139.584 69.0102 140.16 68.8289 140.672C68.6529 141.184 68.3969 141.621 68.0609 141.984C67.7302 142.347 67.3249 142.627 66.8449 142.824C66.3702 143.016 65.8369 143.112 65.2449 143.112C64.6529 143.112 64.1169 143.016 63.6369 142.824C63.1622 142.627 62.7569 142.347 62.4209 141.984C62.0849 141.621 61.8262 141.184 61.6449 140.672C61.4635 140.16 61.3729 139.584 61.3729 138.944C61.3729 138.309 61.4635 137.736 61.6449 137.224C61.8262 136.707 62.0849 136.267 62.4209 135.904C62.7569 135.541 63.1622 135.261 63.6369 135.064C64.1169 134.867 64.6529 134.768 65.2449 134.768ZM65.2449 142C66.0449 142 66.6422 141.733 67.0369 141.2C67.4315 140.661 67.6289 139.912 67.6289 138.952C67.6289 137.987 67.4315 137.235 67.0369 136.696C66.6422 136.157 66.0449 135.888 65.2449 135.888C64.8395 135.888 64.4875 135.957 64.1889 136.096C63.8902 136.235 63.6395 136.435 63.4369 136.696C63.2395 136.957 63.0902 137.28 62.9889 137.664C62.8929 138.043 62.8449 138.472 62.8449 138.952C62.8449 139.432 62.8929 139.861 62.9889 140.24C63.0902 140.619 63.2395 140.939 63.4369 141.2C63.6395 141.456 63.8902 141.653 64.1889 141.792C64.4875 141.931 64.8395 142 65.2449 142ZM70.8555 143V134.896H71.7035C71.9062 134.896 72.0342 134.995 72.0875 135.192L72.1995 136.072C72.5515 135.683 72.9435 135.368 73.3755 135.128C73.8128 134.888 74.3168 134.768 74.8875 134.768C75.3302 134.768 75.7195 134.843 76.0555 134.992C76.3968 135.136 76.6795 135.344 76.9035 135.616C77.1328 135.883 77.3062 136.205 77.4235 136.584C77.5408 136.963 77.5995 137.381 77.5995 137.84V143H76.1755V137.84C76.1755 137.227 76.0342 136.752 75.7515 136.416C75.4742 136.075 75.0475 135.904 74.4715 135.904C74.0502 135.904 73.6555 136.005 73.2875 136.208C72.9248 136.411 72.5888 136.685 72.2795 137.032V143H70.8555Z" fill="white"/>
<path d="M209.98 225V218.112L209.084 218.008C208.972 217.981 208.879 217.941 208.804 217.888C208.735 217.829 208.7 217.747 208.7 217.64V217.056H209.98V216.272C209.98 215.808 210.044 215.397 210.172 215.04C210.306 214.677 210.492 214.373 210.732 214.128C210.978 213.877 211.271 213.688 211.612 213.56C211.954 213.432 212.338 213.368 212.764 213.368C213.127 213.368 213.463 213.421 213.772 213.528L213.74 214.24C213.735 214.347 213.69 214.411 213.604 214.432C213.519 214.453 213.399 214.464 213.244 214.464H212.996C212.751 214.464 212.527 214.496 212.324 214.56C212.127 214.624 211.956 214.728 211.812 214.872C211.668 215.016 211.556 215.205 211.476 215.44C211.402 215.675 211.364 215.965 211.364 216.312V217.056H213.708V218.088H211.412V225H209.98ZM221.003 225H220.371C220.232 225 220.12 224.979 220.035 224.936C219.949 224.893 219.893 224.803 219.867 224.664L219.707 223.912C219.493 224.104 219.285 224.277 219.083 224.432C218.88 224.581 218.667 224.709 218.443 224.816C218.219 224.917 217.979 224.995 217.723 225.048C217.472 225.101 217.192 225.128 216.883 225.128C216.568 225.128 216.272 225.085 215.995 225C215.723 224.909 215.485 224.776 215.283 224.6C215.08 224.424 214.917 224.203 214.795 223.936C214.677 223.664 214.619 223.344 214.619 222.976C214.619 222.656 214.707 222.349 214.883 222.056C215.059 221.757 215.341 221.493 215.731 221.264C216.125 221.035 216.64 220.848 217.275 220.704C217.909 220.555 218.685 220.469 219.603 220.448V219.816C219.603 219.187 219.467 218.712 219.195 218.392C218.928 218.067 218.531 217.904 218.003 217.904C217.656 217.904 217.363 217.949 217.123 218.04C216.888 218.125 216.683 218.224 216.507 218.336C216.336 218.443 216.187 218.541 216.059 218.632C215.936 218.717 215.813 218.76 215.691 218.76C215.595 218.76 215.509 218.736 215.435 218.688C215.365 218.635 215.309 218.571 215.267 218.496L215.011 218.04C215.459 217.608 215.941 217.285 216.459 217.072C216.976 216.859 217.549 216.752 218.179 216.752C218.632 216.752 219.035 216.827 219.387 216.976C219.739 217.125 220.035 217.333 220.275 217.6C220.515 217.867 220.696 218.189 220.819 218.568C220.941 218.947 221.003 219.363 221.003 219.816V225ZM217.307 224.128C217.557 224.128 217.787 224.104 217.995 224.056C218.203 224.003 218.397 223.931 218.579 223.84C218.765 223.744 218.941 223.629 219.107 223.496C219.277 223.363 219.443 223.211 219.603 223.04V221.352C218.947 221.373 218.389 221.427 217.931 221.512C217.472 221.592 217.099 221.699 216.811 221.832C216.523 221.965 216.312 222.123 216.179 222.304C216.051 222.485 215.987 222.688 215.987 222.912C215.987 223.125 216.021 223.309 216.091 223.464C216.16 223.619 216.253 223.747 216.371 223.848C216.488 223.944 216.627 224.016 216.787 224.064C216.947 224.107 217.12 224.128 217.307 224.128ZM223.16 225V216.896H224.008C224.211 216.896 224.339 216.995 224.392 217.192L224.496 218.024C224.795 217.656 225.128 217.355 225.496 217.12C225.87 216.885 226.302 216.768 226.792 216.768C227.342 216.768 227.784 216.92 228.12 217.224C228.462 217.528 228.707 217.939 228.856 218.456C228.968 218.163 229.115 217.909 229.296 217.696C229.483 217.483 229.691 217.307 229.92 217.168C230.15 217.029 230.392 216.928 230.648 216.864C230.91 216.8 231.174 216.768 231.44 216.768C231.867 216.768 232.246 216.837 232.576 216.976C232.912 217.109 233.195 217.307 233.424 217.568C233.659 217.829 233.838 218.152 233.96 218.536C234.083 218.915 234.144 219.349 234.144 219.84V225H232.72V219.84C232.72 219.205 232.582 218.725 232.304 218.4C232.027 218.069 231.624 217.904 231.096 217.904C230.862 217.904 230.638 217.947 230.424 218.032C230.216 218.112 230.032 218.232 229.872 218.392C229.712 218.552 229.584 218.755 229.488 219C229.398 219.24 229.352 219.52 229.352 219.84V225H227.928V219.84C227.928 219.189 227.798 218.704 227.536 218.384C227.275 218.064 226.894 217.904 226.392 217.904C226.04 217.904 225.712 218 225.408 218.192C225.11 218.379 224.835 218.635 224.584 218.96V225H223.16ZM237.885 216.896V225H236.461V216.896H237.885ZM238.205 214.352C238.205 214.491 238.175 214.621 238.117 214.744C238.063 214.861 237.989 214.968 237.893 215.064C237.802 215.155 237.695 215.227 237.573 215.28C237.45 215.333 237.319 215.36 237.181 215.36C237.042 215.36 236.911 215.333 236.789 215.28C236.671 215.227 236.565 215.155 236.469 215.064C236.378 214.968 236.306 214.861 236.253 214.744C236.199 214.621 236.173 214.491 236.173 214.352C236.173 214.213 236.199 214.083 236.253 213.96C236.306 213.832 236.378 213.723 236.469 213.632C236.565 213.536 236.671 213.461 236.789 213.408C236.911 213.355 237.042 213.328 237.181 213.328C237.319 213.328 237.45 213.355 237.573 213.408C237.695 213.461 237.802 213.536 237.893 213.632C237.989 213.723 238.063 213.832 238.117 213.96C238.175 214.083 238.205 214.213 238.205 214.352ZM241.979 213.216V225H240.555V213.216H241.979ZM246.864 227.392C246.816 227.499 246.755 227.584 246.68 227.648C246.611 227.712 246.502 227.744 246.352 227.744H245.296L246.776 224.528L243.432 216.896H244.664C244.787 216.896 244.883 216.928 244.952 216.992C245.022 217.051 245.072 217.117 245.104 217.192L247.272 222.296C247.32 222.413 247.36 222.531 247.392 222.648C247.43 222.765 247.462 222.885 247.488 223.008C247.526 222.885 247.563 222.765 247.6 222.648C247.638 222.531 247.68 222.411 247.728 222.288L249.832 217.192C249.864 217.107 249.918 217.037 249.992 216.984C250.072 216.925 250.158 216.896 250.248 216.896H251.384L246.864 227.392Z" fill="white"/>
<path d="M158.958 294.743H159.761C159.838 294.743 159.902 294.763 159.953 294.803C160.005 294.844 160.041 294.891 160.063 294.946L161.477 298.532C161.528 298.664 161.569 298.796 161.598 298.928C161.627 299.06 161.655 299.191 161.68 299.319C161.71 299.191 161.741 299.06 161.774 298.928C161.807 298.796 161.849 298.664 161.9 298.532L163.33 294.946C163.352 294.888 163.387 294.84 163.435 294.803C163.486 294.763 163.549 294.743 163.622 294.743H164.386L162.115 300.314H161.229L158.958 294.743ZM167.406 294.655C167.813 294.655 168.18 294.723 168.506 294.858C168.836 294.994 169.115 295.187 169.342 295.436C169.573 295.685 169.749 295.988 169.87 296.343C169.995 296.695 170.057 297.09 170.057 297.526C170.057 297.966 169.995 298.362 169.87 298.714C169.749 299.066 169.573 299.367 169.342 299.616C169.115 299.865 168.836 300.058 168.506 300.193C168.18 300.325 167.813 300.391 167.406 300.391C166.999 300.391 166.631 300.325 166.301 300.193C165.974 300.058 165.696 299.865 165.465 299.616C165.234 299.367 165.056 299.066 164.931 298.714C164.807 298.362 164.744 297.966 164.744 297.526C164.744 297.09 164.807 296.695 164.931 296.343C165.056 295.988 165.234 295.685 165.465 295.436C165.696 295.187 165.974 294.994 166.301 294.858C166.631 294.723 166.999 294.655 167.406 294.655ZM167.406 299.627C167.956 299.627 168.367 299.444 168.638 299.077C168.91 298.707 169.045 298.191 169.045 297.531C169.045 296.868 168.91 296.351 168.638 295.98C168.367 295.61 167.956 295.425 167.406 295.425C167.128 295.425 166.886 295.473 166.68 295.568C166.475 295.663 166.303 295.801 166.163 295.98C166.028 296.16 165.925 296.382 165.855 296.646C165.789 296.906 165.756 297.201 165.756 297.531C165.756 297.861 165.789 298.157 165.855 298.417C165.925 298.677 166.028 298.897 166.163 299.077C166.303 299.253 166.475 299.389 166.68 299.484C166.886 299.579 167.128 299.627 167.406 299.627ZM172.952 300.402C172.512 300.402 172.173 300.28 171.935 300.034C171.7 299.788 171.583 299.434 171.583 298.972V295.562H170.912C170.853 295.562 170.803 295.546 170.763 295.513C170.723 295.476 170.703 295.421 170.703 295.348V294.957L171.616 294.842L171.841 293.12C171.848 293.065 171.872 293.021 171.913 292.988C171.953 292.952 172.004 292.933 172.067 292.933H172.562V294.853H174.157V295.562H172.562V298.906C172.562 299.141 172.618 299.315 172.732 299.429C172.846 299.543 172.992 299.599 173.172 299.599C173.275 299.599 173.363 299.587 173.436 299.561C173.513 299.532 173.579 299.5 173.634 299.467C173.689 299.434 173.735 299.405 173.772 299.379C173.812 299.35 173.847 299.335 173.876 299.335C173.927 299.335 173.973 299.367 174.014 299.429L174.3 299.896C174.131 300.054 173.927 300.179 173.689 300.27C173.451 300.358 173.205 300.402 172.952 300.402ZM177.573 294.655C177.906 294.655 178.214 294.712 178.497 294.825C178.779 294.935 179.023 295.097 179.228 295.309C179.433 295.518 179.593 295.779 179.707 296.09C179.824 296.398 179.883 296.75 179.883 297.146C179.883 297.3 179.866 297.403 179.833 297.454C179.8 297.506 179.738 297.531 179.646 297.531H175.939C175.946 297.883 175.994 298.19 176.082 298.45C176.17 298.71 176.291 298.928 176.445 299.104C176.599 299.277 176.782 299.407 176.995 299.495C177.208 299.579 177.446 299.621 177.71 299.621C177.956 299.621 178.167 299.594 178.343 299.539C178.522 299.48 178.676 299.418 178.805 299.352C178.933 299.286 179.039 299.225 179.124 299.17C179.212 299.112 179.287 299.082 179.349 299.082C179.43 299.082 179.492 299.114 179.536 299.176L179.811 299.533C179.69 299.68 179.545 299.808 179.377 299.918C179.208 300.025 179.026 300.113 178.832 300.182C178.641 300.252 178.443 300.303 178.238 300.336C178.033 300.373 177.829 300.391 177.628 300.391C177.243 300.391 176.887 300.327 176.561 300.199C176.238 300.067 175.957 299.876 175.719 299.627C175.484 299.374 175.301 299.062 175.169 298.692C175.037 298.322 174.971 297.896 174.971 297.416C174.971 297.027 175.03 296.664 175.147 296.327C175.268 295.99 175.44 295.698 175.664 295.452C175.888 295.203 176.161 295.009 176.484 294.869C176.806 294.726 177.169 294.655 177.573 294.655ZM177.595 295.375C177.122 295.375 176.749 295.513 176.478 295.788C176.207 296.059 176.038 296.437 175.972 296.921H179.003C179.003 296.694 178.971 296.486 178.909 296.299C178.847 296.109 178.755 295.946 178.634 295.81C178.513 295.671 178.365 295.564 178.189 295.491C178.016 295.414 177.818 295.375 177.595 295.375Z" fill="white"/>
<path d="M35.4436 236.543V230.516L34.6596 230.425C34.5616 230.401 34.4799 230.366 34.4146 230.32C34.3539 230.268 34.3236 230.196 34.3236 230.103V229.592H35.4436V228.906C35.4436 228.5 35.4996 228.14 35.6116 227.828C35.7283 227.51 35.8916 227.244 36.1016 227.03C36.3163 226.81 36.5729 226.645 36.8716 226.533C37.1703 226.421 37.5063 226.365 37.8796 226.365C38.1969 226.365 38.4909 226.411 38.7616 226.505L38.7336 227.128C38.7289 227.221 38.6893 227.277 38.6146 227.296C38.5399 227.314 38.4349 227.324 38.2996 227.324H38.0826C37.8679 227.324 37.6719 227.352 37.4946 227.408C37.3219 227.464 37.1726 227.555 37.0466 227.681C36.9206 227.807 36.8226 227.972 36.7526 228.178C36.6873 228.383 36.6546 228.637 36.6546 228.941V229.592H38.7056V230.495H36.6966V236.543H35.4436ZM40.9584 229.452V233.974C40.9584 234.51 41.0821 234.926 41.3294 235.22C41.5767 235.514 41.9501 235.661 42.4494 235.661C42.8134 235.661 43.1564 235.574 43.4784 235.402C43.8004 235.229 44.0967 234.989 44.3674 234.681V229.452H45.6134V236.543H44.8714C44.6941 236.543 44.5821 236.456 44.5354 236.284L44.4374 235.521C44.1294 235.861 43.7841 236.137 43.4014 236.347C43.0187 236.552 42.5801 236.655 42.0854 236.655C41.6981 236.655 41.3551 236.592 41.0564 236.466C40.7624 236.335 40.5151 236.153 40.3144 235.92C40.1137 235.686 39.9621 235.404 39.8594 235.073C39.7614 234.741 39.7124 234.375 39.7124 233.974V229.452H40.9584ZM49.8087 236.655C49.2487 236.655 48.817 236.498 48.5137 236.186C48.215 235.873 48.0657 235.423 48.0657 234.835V230.495H47.2117C47.137 230.495 47.074 230.474 47.0227 230.432C46.9714 230.385 46.9457 230.315 46.9457 230.222V229.725L48.1077 229.578L48.3947 227.387C48.404 227.317 48.4344 227.261 48.4857 227.219C48.537 227.172 48.6024 227.149 48.6817 227.149H49.3117V229.592H51.3417V230.495H49.3117V234.751C49.3117 235.049 49.384 235.271 49.5287 235.416C49.6734 235.56 49.86 235.633 50.0887 235.633C50.2194 235.633 50.3314 235.616 50.4247 235.584C50.5227 235.546 50.6067 235.507 50.6767 235.465C50.7467 235.423 50.805 235.385 50.8517 235.353C50.903 235.315 50.9474 235.297 50.9847 235.297C51.05 235.297 51.1084 235.336 51.1597 235.416L51.5237 236.011C51.309 236.211 51.05 236.37 50.7467 236.487C50.4434 236.599 50.1307 236.655 49.8087 236.655ZM53.9604 229.452V233.974C53.9604 234.51 54.084 234.926 54.3314 235.22C54.5787 235.514 54.952 235.661 55.4514 235.661C55.8154 235.661 56.1584 235.574 56.4804 235.402C56.8024 235.229 57.0987 234.989 57.3694 234.681V229.452H58.6154V236.543H57.8734C57.696 236.543 57.584 236.456 57.5374 236.284L57.4394 235.521C57.1314 235.861 56.786 236.137 56.4034 236.347C56.0207 236.552 55.582 236.655 55.0874 236.655C54.7 236.655 54.357 236.592 54.0584 236.466C53.7644 236.335 53.517 236.153 53.3164 235.92C53.1157 235.686 52.964 235.404 52.8614 235.073C52.7634 234.741 52.7144 234.375 52.7144 233.974V229.452H53.9604ZM60.6616 236.543V229.452H61.3756C61.511 229.452 61.6043 229.477 61.6556 229.529C61.707 229.58 61.742 229.669 61.7606 229.795L61.8446 230.901C62.0873 230.406 62.386 230.021 62.7406 229.746C63.1 229.466 63.52 229.326 64.0006 229.326C64.1966 229.326 64.374 229.349 64.5326 229.396C64.6913 229.438 64.8383 229.498 64.9736 229.578L64.8126 230.509C64.78 230.625 64.7076 230.684 64.5956 230.684C64.5303 230.684 64.43 230.663 64.2946 230.621C64.1593 230.574 63.9703 230.551 63.7276 230.551C63.2936 230.551 62.9296 230.677 62.6356 230.929C62.3463 231.181 62.1036 231.547 61.9076 232.028V236.543H60.6616ZM69.1151 229.34C69.5398 229.34 69.9318 229.412 70.2911 229.557C70.6505 229.697 70.9608 229.902 71.2221 230.173C71.4835 230.439 71.6865 230.77 71.8311 231.167C71.9805 231.559 72.0551 232.007 72.0551 232.511C72.0551 232.707 72.0341 232.837 71.9921 232.903C71.9501 232.968 71.8708 233.001 71.7541 233.001H67.0361C67.0455 233.449 67.1061 233.838 67.2181 234.17C67.3301 234.501 67.4841 234.779 67.6801 235.003C67.8761 235.222 68.1095 235.388 68.3801 235.5C68.6508 235.607 68.9541 235.661 69.2901 235.661C69.6028 235.661 69.8711 235.626 70.0951 235.556C70.3238 235.481 70.5198 235.402 70.6831 235.318C70.8465 235.234 70.9818 235.157 71.0891 235.087C71.2011 235.012 71.2968 234.975 71.3761 234.975C71.4788 234.975 71.5581 235.014 71.6141 235.094L71.9641 235.549C71.8101 235.735 71.6258 235.899 71.4111 236.039C71.1965 236.174 70.9655 236.286 70.7181 236.375C70.4755 236.463 70.2235 236.529 69.9621 236.571C69.7008 236.617 69.4418 236.641 69.1851 236.641C68.6951 236.641 68.2425 236.559 67.8271 236.396C67.4165 236.228 67.0595 235.985 66.7561 235.668C66.4575 235.346 66.2241 234.949 66.0561 234.478C65.8881 234.006 65.8041 233.465 65.8041 232.854C65.8041 232.359 65.8788 231.897 66.0281 231.468C66.1821 231.038 66.4015 230.667 66.6861 230.355C66.9708 230.037 67.3185 229.79 67.7291 229.613C68.1398 229.431 68.6018 229.34 69.1151 229.34ZM69.1431 230.257C68.5411 230.257 68.0675 230.432 67.7221 230.782C67.3768 231.127 67.1621 231.608 67.0781 232.224H70.9351C70.9351 231.934 70.8955 231.671 70.8161 231.433C70.7368 231.19 70.6201 230.982 70.4661 230.81C70.3121 230.632 70.1231 230.497 69.8991 230.404C69.6798 230.306 69.4278 230.257 69.1431 230.257Z" fill="white"/>
<path d="M252.706 79.1406C252.146 79.1406 251.714 78.9842 251.411 78.6716C251.112 78.3589 250.963 77.9086 250.963 77.3206V72.9806H250.109C250.034 72.9806 249.971 72.9596 249.92 72.9176C249.869 72.8709 249.843 72.8009 249.843 72.7076V72.2106L251.005 72.0636L251.292 69.8726C251.301 69.8026 251.332 69.7466 251.383 69.7046C251.434 69.6579 251.5 69.6346 251.579 69.6346H252.209V72.0776H254.239V72.9806H252.209V77.2366C252.209 77.5352 252.281 77.7569 252.426 77.9016C252.571 78.0462 252.757 78.1186 252.986 78.1186C253.117 78.1186 253.229 78.1022 253.322 78.0696C253.42 78.0322 253.504 77.9926 253.574 77.9506C253.644 77.9086 253.702 77.8712 253.749 77.8386C253.8 77.8012 253.845 77.7826 253.882 77.7826C253.947 77.7826 254.006 77.8222 254.057 77.9016L254.421 78.4966C254.206 78.6972 253.947 78.8559 253.644 78.9726C253.341 79.0846 253.028 79.1406 252.706 79.1406ZM258.587 71.8256C259.011 71.8256 259.403 71.8979 259.763 72.0426C260.122 72.1826 260.432 72.3879 260.694 72.6586C260.955 72.9246 261.158 73.2559 261.303 73.6526C261.452 74.0446 261.527 74.4926 261.527 74.9966C261.527 75.1926 261.506 75.3232 261.464 75.3886C261.422 75.4539 261.342 75.4866 261.226 75.4866H256.508C256.517 75.9346 256.578 76.3242 256.69 76.6556C256.802 76.9869 256.956 77.2646 257.152 77.4886C257.348 77.7079 257.581 77.8736 257.852 77.9856C258.122 78.0929 258.426 78.1466 258.762 78.1466C259.074 78.1466 259.343 78.1116 259.567 78.0416C259.795 77.9669 259.991 77.8876 260.155 77.8036C260.318 77.7196 260.453 77.6426 260.561 77.5726C260.673 77.4979 260.768 77.4606 260.848 77.4606C260.95 77.4606 261.03 77.5002 261.086 77.5796L261.436 78.0346C261.282 78.2212 261.097 78.3846 260.883 78.5246C260.668 78.6599 260.437 78.7719 260.19 78.8606C259.947 78.9492 259.695 79.0146 259.434 79.0566C259.172 79.1032 258.913 79.1266 258.657 79.1266C258.167 79.1266 257.714 79.0449 257.299 78.8816C256.888 78.7136 256.531 78.4709 256.228 78.1536C255.929 77.8316 255.696 77.4349 255.528 76.9636C255.36 76.4922 255.276 75.9509 255.276 75.3396C255.276 74.8449 255.35 74.3829 255.5 73.9536C255.654 73.5242 255.873 73.1532 256.158 72.8406C256.442 72.5232 256.79 72.2759 257.201 72.0986C257.611 71.9166 258.073 71.8256 258.587 71.8256ZM258.615 72.7426C258.013 72.7426 257.539 72.9176 257.194 73.2676C256.848 73.6129 256.634 74.0936 256.55 74.7096H260.407C260.407 74.4202 260.367 74.1566 260.288 73.9186C260.208 73.6759 260.092 73.4682 259.938 73.2956C259.784 73.1182 259.595 72.9829 259.371 72.8896C259.151 72.7916 258.899 72.7426 258.615 72.7426ZM268.33 79.0286H267.777C267.655 79.0286 267.557 79.0099 267.483 78.9726C267.408 78.9352 267.359 78.8559 267.336 78.7346L267.196 78.0766C267.009 78.2446 266.827 78.3962 266.65 78.5316C266.472 78.6622 266.286 78.7742 266.09 78.8676C265.894 78.9562 265.684 79.0239 265.46 79.0706C265.24 79.1172 264.995 79.1406 264.725 79.1406C264.449 79.1406 264.19 79.1032 263.948 79.0286C263.71 78.9492 263.502 78.8326 263.325 78.6786C263.147 78.5246 263.005 78.3309 262.898 78.0976C262.795 77.8596 262.744 77.5796 262.744 77.2576C262.744 76.9776 262.821 76.7092 262.975 76.4526C263.129 76.1912 263.376 75.9602 263.717 75.7596C264.062 75.5589 264.512 75.3956 265.068 75.2696C265.623 75.1389 266.302 75.0642 267.105 75.0456V74.4926C267.105 73.9419 266.986 73.5266 266.748 73.2466C266.514 72.9619 266.167 72.8196 265.705 72.8196C265.401 72.8196 265.145 72.8592 264.935 72.9386C264.729 73.0132 264.55 73.0996 264.396 73.1976C264.246 73.2909 264.116 73.3772 264.004 73.4566C263.896 73.5312 263.789 73.5686 263.682 73.5686C263.598 73.5686 263.523 73.5476 263.458 73.5056C263.397 73.4589 263.348 73.4029 263.311 73.3376L263.087 72.9386C263.479 72.5606 263.901 72.2782 264.354 72.0916C264.806 71.9049 265.308 71.8116 265.859 71.8116C266.255 71.8116 266.608 71.8769 266.916 72.0076C267.224 72.1382 267.483 72.3202 267.693 72.5536C267.903 72.7869 268.061 73.0692 268.169 73.4006C268.276 73.7319 268.33 74.0959 268.33 74.4926V79.0286ZM265.096 78.2656C265.315 78.2656 265.516 78.2446 265.698 78.2026C265.88 78.1559 266.05 78.0929 266.209 78.0136C266.372 77.9296 266.526 77.8292 266.671 77.7126C266.82 77.5959 266.965 77.4629 267.105 77.3136V75.8366C266.531 75.8552 266.043 75.9019 265.642 75.9766C265.24 76.0466 264.914 76.1399 264.662 76.2566C264.41 76.3732 264.225 76.5109 264.109 76.6696C263.997 76.8282 263.941 77.0056 263.941 77.2016C263.941 77.3882 263.971 77.5492 264.032 77.6846C264.092 77.8199 264.174 77.9319 264.277 78.0206C264.379 78.1046 264.501 78.1676 264.641 78.2096C264.781 78.2469 264.932 78.2656 265.096 78.2656ZM270.217 79.0286V71.9376H270.959C271.137 71.9376 271.249 72.0239 271.295 72.1966L271.386 72.9246C271.648 72.6026 271.939 72.3389 272.261 72.1336C272.588 71.9282 272.966 71.8256 273.395 71.8256C273.876 71.8256 274.263 71.9586 274.557 72.2246C274.856 72.4906 275.071 72.8499 275.201 73.3026C275.299 73.0459 275.428 72.8242 275.586 72.6376C275.75 72.4509 275.932 72.2969 276.132 72.1756C276.333 72.0542 276.545 71.9656 276.769 71.9096C276.998 71.8536 277.229 71.8256 277.462 71.8256C277.836 71.8256 278.167 71.8862 278.456 72.0076C278.75 72.1242 278.998 72.2969 279.198 72.5256C279.404 72.7542 279.56 73.0366 279.667 73.3726C279.775 73.7039 279.828 74.0842 279.828 74.5136V79.0286H278.582V74.5136C278.582 73.9582 278.461 73.5382 278.218 73.2536C277.976 72.9642 277.623 72.8196 277.161 72.8196C276.956 72.8196 276.76 72.8569 276.573 72.9316C276.391 73.0016 276.23 73.1066 276.09 73.2466C275.95 73.3866 275.838 73.5639 275.754 73.7786C275.675 73.9886 275.635 74.2336 275.635 74.5136V79.0286H274.389V74.5136C274.389 73.9442 274.275 73.5196 274.046 73.2396C273.818 72.9596 273.484 72.8196 273.045 72.8196C272.737 72.8196 272.45 72.9036 272.184 73.0716C271.923 73.2349 271.683 73.4589 271.463 73.7436V79.0286H270.217Z" fill="white"/>
</svg>
