<svg xmlns="http://www.w3.org/2000/svg" width="1225" height="597" viewBox="0 0 1225 597">
  <g fill="none" fill-rule="evenodd" transform="translate(.013)">
    <path fill="#FFBCA3" fill-rule="nonzero" d="M1225,596.102693 C1225,461.564873 697.416675,401.22051 612.504186,406.294672 C527.591696,411.368833 0,454.525132 0,596.102693 C0,598.121633 1225,596.102693 1225,596.102693 Z" opacity=".5"/>
    <path fill="#F5DD48" fill-rule="nonzero" d="M413,352.620986 C413,507.827313 320.55292,562 206.486451,562 C203.84966,562 201.212869,561.972258 198.604216,561.916955 C193.303535,561.806063 188.085528,561.556901 182.895971,561.16913 C79.9580025,553.940597 0,496.970654 0,352.62096 C0,203.202926 191.443593,14.5956493 205.653716,0.8031012 L205.68149,0.775384788 C206.208656,0.249162238 206.486451,0 206.486451,0 C206.486451,0 413,197.44222 413,352.620986 Z"/>
    <path fill="#3F3D56" fill-rule="nonzero" d="M202.429941,538.344336 L277.483436,433.030051 L202.264689,549.895248 L202.071482,562 C196.805285,561.889092 191.621223,561.639893 186.465427,561.252065 L194.544132,405.99508 L194.488919,404.776286 L194.626913,404.554626 L195.399044,389.901534 L119.986805,272.731671 L195.619224,378.904643 L195.812431,382.007004 L201.905946,264.670947 L137.357896,143.595346 L202.705644,244.062332 L209.075173,0.80321989 L209.102766,0 L209.102766,0.775499382 L208.027054,192.623919 L272.299762,116.588096 L207.751635,209.160733 L206.069405,314.198099 L266.06815,213.398726 L205.821347,329.654592 L204.883939,388.073253 L291.986805,247.74646 L204.553048,408.432668 L202.429941,538.344336 Z"/>
    <path fill="#B9EFE9" fill-rule="nonzero" d="M974.163495,396.01644 C983.334713,396.451163 991.78014,391.045617 995.226003,382.535256 C998.671867,374.024895 996.366432,364.266303 989.476355,358.197772 C982.586278,352.129242 972.614668,351.074659 964.607615,355.56769 L968.426755,366.03317 L960.569175,358.48895 C956.35557,362.340784 953.8436,367.707936 953.585285,373.41095 C953.485815,375.411427 953.670347,377.415906 954.133375,379.3646 C956.340337,388.766642 964.516515,395.563827 974.163495,396.01644 Z"/>
    <path stroke="#3F3D56" d="M1037.34137,511.53001 C1032.75815,503.04453 1037.95837,492.64301 1043.93593,485.07481 C1049.91349,477.50661 1057.19886,469.63166 1057.04411,459.98881 C1056.82172,446.13028 1042.1117,437.94681 1030.35873,430.59993 C1021.63848,425.147171 1013.59526,418.680061 1006.39737,411.33393 C1003.51184,408.38816 1000.7223,405.23822 999.034555,401.47586 C996.604015,396.05763 996.671625,389.89331 996.824895,383.95686 C997.335475,364.18086 998.312545,344.424253 999.756105,324.68704"/>
    <path stroke="#3F3D56" d="M974.163495,393.01644 C983.334713,393.451163 991.78014,388.045617 995.226003,379.535256 C998.671867,371.024895 996.366432,361.266303 989.476355,355.197772 C982.586278,349.129242 972.614668,348.074659 964.607615,352.56769 L968.426755,363.03317 L960.569175,355.48895 C956.35557,359.340784 953.8436,364.707936 953.585285,370.41095 C953.485815,372.411427 953.670347,374.415906 954.133375,376.3646 C956.340337,385.766642 964.516515,392.563827 974.163495,393.01644 Z"/>
    <path fill="#B9EFE9" fill-rule="nonzero" d="M977.414185,327.60642 C977.755679,320.249277 981.823376,313.573535 988.205075,309.89684 L993.044395,319.47047 L992.898585,307.88137 C1001.91824,305.22425 1011.621,308.702577 1016.89821,316.484954 C1022.17543,324.26733 1021.81649,334.568472 1016.0104,341.964662 C1010.2043,349.360851 1000.28296,352.155393 991.470133,348.876918 C982.657303,345.598442 976.974651,336.999033 977.414185,327.60642 L977.414185,327.60642 Z"/>
    <path stroke="#3F3D56" d="M977.414185,323.60642 C977.755679,316.249277 981.823376,309.573535 988.205075,305.89684 L993.044395,315.47047 L992.898585,303.88137 C1001.91824,301.22425 1011.621,304.702577 1016.89821,312.484954 C1022.17543,320.26733 1021.81649,330.568472 1016.0104,337.964662 C1010.2043,345.360851 1000.28296,348.155393 991.470133,344.876918 C982.657303,341.598442 976.974651,332.999033 977.414185,323.60642 L977.414185,323.60642 Z"/>
    <path fill="#B9EFE9" fill-rule="nonzero" d="M1026.79834,431.9309 C1037.77622,432.443511 1047.3915,424.637721 1049.14598,413.78883 C1050.90047,402.939939 1044.23569,392.501329 1033.65582,389.52761 L1033.7681,398.43337 L1028.87447,388.74605 C1028.85501,388.743327 1028.83537,388.742123 1028.81573,388.74245 C1016.88956,388.185363 1006.76989,397.401819 1006.21281,409.32798 C1005.65572,421.254141 1014.87217,431.373813 1026.79834,431.9309 L1026.79834,431.9309 Z"/>
    <path stroke="#3F3D56" d="M1026.63234,427.9309 C1037.61019,428.443465 1047.22542,420.63768 1048.97991,409.788817 C1050.73439,398.939954 1044.06965,388.501364 1033.48982,385.52761 L1033.6021,394.43337 L1028.70847,384.74605 C1028.68901,384.743327 1028.66937,384.742124 1028.64973,384.74245 C1020.93485,384.382078 1013.61376,388.164916 1009.44423,394.666007 C1005.2747,401.167097 1004.89019,409.39877 1008.43553,416.260232 C1011.98088,423.121695 1018.91746,427.570528 1026.63234,427.9309 L1026.63234,427.9309 Z"/>
    <path fill="#B9EFE9" fill-rule="nonzero" d="M1015.9607,472.89519 C1020.63584,481.979645 1031.03483,486.548022 1040.88791,483.84596 C1050.74099,481.143898 1057.3549,471.909986 1056.74199,461.711521 C1056.12909,451.513057 1048.45689,443.137712 1038.35112,441.635138 C1028.24535,440.132564 1018.46834,445.913478 1014.91483,455.49246 L1028.41551,466.47818 L1013.56376,463.03598 C1013.56144,466.46694 1014.38349,469.848238 1015.9607,472.89519 Z"/>
    <path stroke="#3F3D56" d="M1015.9607,469.89519 C1020.63584,478.979645 1031.03483,483.548022 1040.88791,480.84596 C1050.74099,478.143898 1057.3549,468.909986 1056.74199,458.711521 C1056.12909,448.513057 1048.45689,440.137712 1038.35112,438.635138 C1028.24535,437.132564 1018.46834,442.913478 1014.91483,452.49246 L1028.41551,463.47818 L1013.56376,460.03598 C1013.56144,463.46694 1014.38349,466.848238 1015.9607,469.89519 Z"/>
    <path fill="#47465A" fill-rule="nonzero" d="M851.060675,141.71415 C853.666145,151.97432 851.681885,163.00843 847.271675,172.63181 C842.861465,182.25519 836.161805,190.64301 829.071525,198.50352 C825.504095,202.45852 821.643825,206.66252 820.886985,211.93469 C819.877915,218.96391 824.617795,225.32544 827.800985,231.67333 C830.584697,237.232787 832.273374,243.275677 832.775035,249.47285 C833.202675,254.7945 832.537255,260.6594 828.809765,264.48152 C825.215875,268.16665 819.696945,269.05846 814.571595,269.53487 C800.455921,270.845038 786.235503,270.501375 772.199595,268.51087 C776.132685,263.27982 774.655085,260.03442 774.285375,253.50016 C773.560105,240.68142 764.231255,229.07599 762.419685,216.36516 C760.979465,206.25987 767.669135,196.98292 773.991915,188.96959 L802.984015,152.22572 C807.788015,146.1372 812.572785,139.86589 816.022495,132.88548 C818.487725,127.89715 818.950165,118.53178 825.151945,116.86855 C836.837765,113.73458 848.788075,132.76492 851.060675,141.71415 Z"/>
    <path fill="#CF9595" fill-rule="nonzero" d="M708.785345,172.00015 C708.785345,172.00015 688.785345,231.00015 678.785345,235.00015 C668.785345,239.00015 738.785345,311.00015 738.785345,311.00015 L789.785345,286.00015 L791.785345,238.00015 L771.785345,237.00015 C771.785345,237.00015 768.785345,217.00015 778.785345,207.00015 C788.785345,197.00015 708.785345,172.00015 708.785345,172.00015 Z"/>
    <path fill="#000" fill-rule="nonzero" d="M708.785345,172.00015 C708.785345,172.00015 688.785345,231.00015 678.785345,235.00015 C668.785345,239.00015 738.785345,311.00015 738.785345,311.00015 L789.785345,286.00015 L791.785345,238.00015 L771.785345,237.00015 C771.785345,237.00015 768.785345,217.00015 778.785345,207.00015 C788.785345,197.00015 708.785345,172.00015 708.785345,172.00015 Z" opacity=".1"/>
    <path fill="#33CCAB" fill-rule="nonzero" d="M731.785345,272.00015 C731.785345,272.00015 688.785345,243.00015 686.785345,219.00015 C686.785345,219.00015 654.785345,240.00015 644.785345,239.00015 C634.785345,238.00015 607.785345,244.00015 607.785345,248.00015 C607.785345,252.00015 632.785345,365.00015 632.785345,365.00015 C632.785345,365.00015 614.785345,413.00015 623.785345,428.00015 C632.785345,443.00015 637.785345,513.00015 637.785345,513.00015 L845.785345,513.00015 C845.785345,513.00015 817.785345,464.00015 832.785345,429.00015 C847.785345,394.00015 853.785345,247.00015 853.785345,247.00015 C853.785345,247.00015 842.785345,239.00015 831.785345,241.00015 C820.785345,243.00015 807.785345,235.00015 799.785345,234.00015 C791.785345,233.00015 773.655285,237.09365 773.655285,237.09365 L731.785345,272.00015 Z"/>
    <path fill="#47465A" fill-rule="nonzero" d="M1124,556.109933 C1124,572.223543 1111.04285,585.341645 1094.93047,585.540563 L169.11323,596.970403 C164.594042,597.026197 160.240696,595.270027 157.025238,592.094023 C153.80978,588.918019 152,584.586685 152,580.067153 L152,531.428623 C152,522.375754 159.19061,514.95979 168.23917,514.680523 L1097.08487,486.012443 C1104.1459,485.79451 1110.99388,488.447108 1116.06563,493.364726 C1121.13738,498.282344 1124,505.045233 1124,512.109623 L1124,556.109933 Z"/>
    <path fill="#000" fill-rule="nonzero" d="M1123.78535,544.00015 L1123.78535,555.92841 C1123.78535,572.04202 1110.8282,585.160122 1094.71582,585.35904 L168.898575,596.78888 C164.379387,596.844675 160.026041,595.088505 156.810583,591.9125 C153.595125,588.736496 151.785345,584.405162 151.785345,579.88563 L151.785345,578.32016 L1123.78535,544.00015 Z" opacity=".1"/>
    <polygon fill="#F2F2F2" fill-rule="nonzero" points="941.786 513 824.646 497.801 616.349 505.4 691.786 529"/>
    <polygon fill="#9493B6" fill-rule="nonzero" points="630.786 506 630.786 518 516.786 544 505.646 541.43 503.786 541 421.786 497"/>
    <polygon fill="#000" fill-rule="nonzero" points="630.786 506 630.786 518 516.786 544 505.646 541.43 503.786 529" opacity=".1"/>
    <path fill="#47465A" fill-rule="nonzero" d="M499.785345,525.00015 C501.785345,524.00015 543.785345,516.00015 543.785345,516.00015 L467.785345,509.00015 L499.785345,525.00015 Z"/>
    <circle cx="762.785" cy="158" r="65" fill="#CF9595" fill-rule="nonzero"/>
    <path fill="#CF9595" fill-rule="nonzero" d="M573.785345,452.00015 C573.785345,452.00015 515.785345,477.00015 501.785345,470.00015 C487.785345,463.00015 445.785345,445.00015 432.785345,482.00015 C422.301625,511.83843 483.501855,513.71186 507.586465,513.31915 C513.480128,513.223032 519.035367,510.547914 522.785345,506.00015 L522.785345,506.00015 L606.285345,477.50015 C606.285345,477.50015 587.785345,446.00015 573.785345,452.00015 Z"/>
    <path fill="#47465A" fill-rule="nonzero" d="M737.785345,406.00015 L744.785345,412.00015 L679.785345,504.00015 C679.785345,504.00015 669.785345,505.00015 672.785345,500.00015 L737.785345,406.00015 Z"/>
    <polygon fill="#47465A" fill-rule="nonzero" points="741.786 412 748.786 403 745.786 401 738.786 409"/>
    <path fill="#33CCAB" fill-rule="nonzero" d="M623.285345,241.50015 C623.285345,241.50015 589.285345,247.50015 590.285345,273.50015 C591.285345,299.50015 582.785345,329.00015 574.785345,343.00015 C566.785345,357.00015 572.785345,368.00015 574.785345,387.00015 C576.785345,406.00015 564.785345,426.00015 570.785345,436.00015 C576.785345,446.00015 505.785345,453.00015 505.785345,463.00015 C505.785345,473.00015 550.785345,492.00015 542.785345,505.00015 C537.029845,514.35285 577.598765,498.60237 600.815985,489.0282 C613.086275,484.080302 622.168411,473.453858 625.144725,460.56265 C625.847845,457.37515 626.035345,454.50015 625.285345,452.50015 C622.285345,444.50015 657.785345,434.00015 658.785345,414.00015 C659.785345,394.00015 653.785345,374.00015 648.785345,354.00015 C643.785345,334.00015 623.285345,241.50015 623.285345,241.50015 Z"/>
    <path fill="#7A799C" fill-rule="nonzero" d="M127.763435,346.160351 L421.002645,348.93596 C425.141222,348.975126 428.883265,351.40569 430.601715,355.17083 L509.629235,528.32103 C511.162884,531.681272 510.848198,535.595896 508.797472,538.667999 C506.746745,541.740103 503.252131,543.532024 499.560655,543.40433 L205.292145,533.22523 C201.297231,533.087028 197.715188,530.725995 196.013145,527.10916 L118.014895,361.36293 C116.452989,358.043882 116.706837,354.155001 118.686955,351.067159 C120.667073,347.979317 124.095407,346.126117 127.763435,346.160351 Z"/>
    <path fill="#CF9595" fill-rule="nonzero" d="M819.785345,452.00015 C819.785345,452.00015 761.785345,477.00015 747.785345,470.00015 C733.785345,463.00015 691.785345,445.00015 678.785345,482.00015 C668.301625,511.83843 729.501855,513.71186 753.586465,513.31915 C759.480128,513.223032 765.035367,510.547914 768.785345,506.00015 L768.785345,506.00015 L853.785345,497.00015 C853.785345,497.00015 833.785345,446.00015 819.785345,452.00015 Z"/>
    <path fill="#000" fill-rule="nonzero" d="M854.285345,262.50015 C854.285345,262.50015 868.785345,243.00015 875.785345,261.00015 C882.785345,279.00015 881.785345,349.00015 881.785345,349.00015 C881.785345,349.00015 893.785345,384.00015 889.785345,407.00015 C885.785345,430.00015 893.785345,433.00015 893.785345,433.00015 C893.785345,433.00015 895.785345,443.00015 889.785345,448.00015 C883.785345,453.00015 879.785345,475.00015 881.785345,478.00015 C883.785345,481.00015 878.785345,500.00015 874.785345,500.00015 C870.785345,500.00015 862.285345,498.50015 862.285345,498.50015 C862.285345,498.50015 841.785345,461.00015 798.785345,458.00015 C798.785345,458.00015 805.785345,448.00015 801.785345,428.00015 C797.785345,408.00015 854.285345,262.50015 854.285345,262.50015 Z" opacity=".1"/>
    <path fill="#33CCAB" fill-rule="nonzero" d="M851.785345,248.00015 C851.785345,248.00015 868.285345,241.50015 875.285345,259.50015 C882.285345,277.50015 888.785345,349.00015 888.785345,349.00015 C888.785345,349.00015 900.785345,384.00015 896.785345,407.00015 C892.785345,430.00015 900.785345,433.00015 900.785345,433.00015 C900.785345,433.00015 902.785345,443.00015 896.785345,448.00015 C890.785345,453.00015 886.785345,475.00015 888.785345,478.00015 C890.785345,481.00015 885.785345,500.00015 881.785345,500.00015 C877.785345,500.00015 840.785345,506.00015 840.785345,506.00015 C840.785345,506.00015 848.785345,461.00015 805.785345,458.00015 C805.785345,458.00015 812.785345,448.00015 808.785345,428.00015 C804.785345,408.00015 851.785345,248.00015 851.785345,248.00015 Z"/>
    <path fill="#47465A" fill-rule="nonzero" d="M784.559665,66.27224 C764.343457,53.627099 739.361267,51.2133194 717.098075,59.7541 C705.325335,64.38471 694.926685,71.92403 685.201075,80.01434 C677.399265,86.50434 669.791075,93.58448 664.997845,102.52951 C657.730385,116.09196 657.751565,132.23634 657.948425,147.62196 C658.119825,161.01711 658.294165,174.45328 660.119675,187.72457 C662.623505,205.92712 668.232795,223.94857 666.944675,242.27728 C665.656555,260.60599 654.884855,280.16115 636.878275,283.81695 C653.629087,285.084438 670.466463,284.599452 687.116545,282.36988 C697.610345,280.96367 708.626395,278.56047 716.298725,271.2644 C721.902175,265.93575 725.069135,258.58924 727.824585,251.36424 C730.593915,244.10281 733.129435,236.55689 733.032205,228.78592 C732.829885,212.61634 721.602015,199.05292 714.274135,184.63773 C712.217335,180.59164 710.411985,176.24158 710.483325,171.70328 C710.554665,167.16498 712.924135,162.40067 717.142265,160.72481 C722.347035,158.65695 728.373645,161.74157 733.784445,160.2963 C742.478115,157.97417 744.734545,145.90093 752.716305,141.74599 C758.622055,138.67172 766.159795,140.9769 771.125525,145.41205 C773.346295,147.39553 775.248395,149.79287 777.824105,151.28677 C781.316175,153.31216 785.558235,153.41056 789.594915,153.45519 C797.131205,153.53852 822.853915,141.72534 828.285325,136.50019 C833.583625,163.753 872.983325,140.03496 850.372265,99.82719 C842.499435,85.82747 832.057055,72.8248 818.166085,64.76164 C804.275115,56.69848 786.551615,54.19764 771.968925,60.92957"/>
    <ellipse cx="717.285" cy="173.5" fill="#CF9595" fill-rule="nonzero" rx="9" ry="16"/>
    <path fill="#33CCAB" fill-rule="nonzero" d="M805.785345,235.51863 C805.785345,235.51863 861.285345,243.50015 864.285345,247.50015 C867.285345,251.50015 861.285345,275.50015 861.285345,275.50015 L821.285345,282.50015 L790.505825,275.86236 L805.785345,235.51863 Z"/>
    <path fill="#000" fill-rule="nonzero" d="M648.666165,305.67655 C640.307675,304.23583 632.155585,311.80078 627.827575,321.77466 C623.499565,331.74854 622.324225,343.70014 621.898715,355.31114 C621.475805,366.85114 621.725925,378.63604 624.353595,389.60692 C629.749595,412.1361 644.236375,428.0642 652.620515,448.77958 C659.059788,465.216122 661.663805,482.905245 660.234305,500.500152" opacity=".1"/>
    <path fill="#33CCAB" fill-rule="nonzero" d="M654.666165,305.67655 C646.307675,304.23583 638.155585,311.80078 633.827575,321.77466 C629.499565,331.74854 628.324225,343.70014 627.898715,355.31114 C627.475805,366.85114 627.725925,378.63604 630.353595,389.60692 C635.749595,412.1361 650.236375,428.0642 658.620515,448.77958 C665.059788,465.216122 667.663805,482.905245 666.234305,500.500152"/>
    <polygon fill="#5E5E7D" fill-rule="nonzero" points="963.086 498.119 1059.824 536.814 1120.286 525.931 1115.013 482.653 1114.239 476.353 1012.665 444.913 1005.409 452.168"/>
    <polygon fill="#000" fill-rule="nonzero" points="1018.711 452.616 1018.711 494.491 1120.286 525.931 1115.013 482.653" opacity=".1"/>
    <path fill="#7A799C" fill-rule="nonzero" d="M925.205515,507.16182 L932.052275,509.69714 L1013.69728,539.9344 L1020.04265,542.2835 C1020.44775,542.43574 1020.9015,542.382359 1021.26022,542.14026 L1028.73714,537.12697 L1106.51469,484.94583 L1113.86269,480.01848 C1114.29568,479.728028 1114.52284,479.214297 1114.44632,478.698554 C1114.3698,478.182811 1114.00327,477.757163 1113.5046,477.60494 L1101.78784,474.01685 L1019.4267,448.78571 L1012.23618,446.57985 C1011.8457,446.458873 1011.42139,446.522125 1011.08318,446.75173 L1005.41818,450.569 L932.038005,499.98569 L924.926345,504.77696 C924.506131,505.058827 924.278893,505.552072 924.337723,506.054633 C924.396552,506.557195 924.731563,506.984624 925.205515,507.16182 Z"/>
    <path fill="#F2F2F2" fill-rule="nonzero" d="M1093.6639,484.51857 L1020.7853,534.08363 C1020.07146,534.569528 1019.16735,534.682037 1018.35621,534.38591 L940.986075,506.13981 C940.026207,505.786538 939.347489,504.922324 939.231791,503.906075 C939.116092,502.889826 939.583181,501.895164 940.439075,501.33517 L1010.97878,455.30263 C1011.64768,454.866129 1012.4765,454.749859 1013.23959,454.98642 L1092.94859,479.70001 C1093.93863,480.010074 1094.66426,480.858864 1094.8166,481.885079 C1094.96894,482.911294 1094.52117,483.934273 1093.6639,484.51857 L1093.6639,484.51857 Z"/>
    <path fill="#5E5E7D" fill-rule="nonzero" d="M1101.78786 474.01685L1101.78786 484.94585 1106.51466 484.94585 1113.86266 480.0185C1114.29565 479.728048 1114.52281 479.214317 1114.44629 478.698574 1114.36977 478.182831 1114.00324 477.757183 1113.50457 477.60496L1101.78786 474.01685zM1013.69725 536.5111L1013.69725 539.93444 1020.04262 542.28354C1020.44772 542.43578 1020.90147 542.382399 1021.26019 542.1403L1028.73711 537.12701 1028.73711 536.5111 1013.69725 536.5111zM925.205515 507.16182L932.052275 509.69714 932.052275 499.98569 932.037945 499.98569 924.926285 504.77696C924.506074 505.058836 924.278846 505.552089 924.337688 506.054652 924.39653 506.557215 924.731555 506.984637 925.205515 507.16182zM1005.41808 450.569L1019.42668 450.569 1019.42668 448.78571 1012.23616 446.57985C1011.84568 446.458873 1011.42137 446.522125 1011.08316 446.75173L1005.41808 450.569z"/>
    <circle cx="974.785" cy="474" r="1" fill="#F2F2F2" fill-rule="nonzero"/>
  </g>
</svg>
