<svg xmlns="http://www.w3.org/2000/svg" width="1677" height="969" viewBox="0 0 1677 969">
  <path fill="#F9EB91" d="M1664.9898,554.00545 C1629.56326,649.87992 1355.86837,904.51958 1166.14061,958.14984 C976.412853,1011.7801 737.827535,842.107975 624.501161,850.945417 C511.174787,859.782859 511.174787,918.260824 440.299747,934.947285 C369.424707,951.633746 258.259964,1006.16663 123.797323,918.260824 C-10.6653178,830.355017 -21.2568867,541.390763 24.7038252,326.051907 C39.3947347,257.220866 51.5297927,185.479945 99.084917,124.07123 C114.318815,104.413119 133.796093,86.475551 156.476229,70.752724 C173.42904,59.067906 191.19822,48.955339 209.607903,40.5151091 C230.414661,30.920674 251.819194,23.0594723 273.648804,16.9949306 C292.567903,11.7108563 311.740675,7.6529846 331.072632,4.841313 C341.575405,3.3038072 352.208243,2.1140705 362.906114,1.3087103 C371.143582,0.6619817 379.418987,0.2532004 387.732327,0.0823664 L389.016722,0.0823664 C394.100107,-0.0274555 399.183493,-0.0274555 404.266878,0.0823664 C441.333289,0.7284157 478.297961,4.6390286 514.82238,11.7783929 C537.681356,16.0797485 560.345234,21.3511971 582.537626,27.1534513 C595.782608,30.6067382 608.908365,34.2247578 621.914894,38.0075103 C625.881886,39.1606397 629.848877,40.3320727 633.767095,41.5218093 C726.308553,69.434862 807.729429,107.982329 896.88919,139.611021 C897.344419,139.775754 897.783389,139.940486 898.238618,140.068612 C916.538253,146.404259 935.119596,151.658474 953.906565,155.809743 C967.709745,158.921362 981.821829,161.611997 996.177786,163.973167 C1018.15882,167.633895 1040.61134,170.52587 1063.22645,173.015165 L1068.2177,173.564275 C1101.40061,177.225003 1134.87617,179.952245 1167.39249,183.137079 C1178.93579,184.271905 1190.38153,185.443338 1201.6647,186.797807 C1208.81829,187.603167 1215.90685,188.457337 1222.93037,189.360317 C1227.9704,190.019248 1233.02669,190.678179 1238.08298,191.373717 C1243.13927,192.069256 1248.4882,192.801401 1253.69082,193.551851 C1257.07251,194.027745 1260.43795,194.521944 1263.81965,195.052749 C1284.30494,198.109457 1304.74145,201.532238 1324.95034,205.449217 C1337.24151,207.82869 1349.46765,210.3912 1361.54746,213.15505 C1370.29436,215.156248 1378.96537,217.267268 1387.56052,219.48811 C1393.93372,221.111032 1400.25273,222.819372 1406.51754,224.613129 C1457.42185,239.018094 1505.05826,257.907452 1546.11012,283.404424 C1652.71489,349.462264 1700.41634,458.13098 1664.9898,554.00545 Z"/>
</svg>
