<svg xmlns="http://www.w3.org/2000/svg" xmlns:xlink="http://www.w3.org/1999/xlink" width="777" height="612" viewBox="0 0 777 612">
  <defs>
    <path id="yellowneedleblob-a" d="M659.602484,374.304214 C732.180391,479.011459 917.185848,588.171298 912.827383,683.394191 C908.468919,778.806771 826.984585,878.392465 728.255891,915.760812 C629.527198,953.318845 513.554146,928.849217 409.708994,878.961526 C305.674344,829.073836 213.578097,753.768082 181.36336,653.044265 C149.148623,552.510135 176.625898,426.557942 248.824809,321.850697 C320.83422,217.143452 437.375768,133.870842 531.935495,151.32205 C626.495223,168.773257 586.835079,269.407282 659.602484,374.304214 Z"/>
  </defs>
  <g fill="none" fill-rule="evenodd" transform="translate(-186 -285)">
    <mask id="yellowneedleblob-b" fill="#fff">
      <use xlink:href="#yellowneedleblob-a"/>
    </mask>
    <g stroke="#F5DD48" stroke-width="2" mask="url(#yellowneedleblob-b)">
      <g transform="translate(133 272.965)">
        <path d="M39.1607958,31.3013358 L59.237542,50.5954534" transform="rotate(7.78 49.2 40.948)"/>
        <path d="M88.457663,28.6741687 L108.534409,47.9682863" transform="rotate(-135.401 98.496 38.321)"/>
        <path d="M74.5725271,98.8720466 L94.6492734,118.166164" transform="rotate(-8.055 84.61 108.52)"/>
        <path d="M156.967362,20.1651591 L177.044108,39.4592767" transform="rotate(61.146 167.006 29.812)"/>
        <path d="M144.286455,66.3825404 L164.363201,85.6766581" transform="rotate(-93.609 154.325 76.03)"/>
        <path d="M139.90426,116.305719 L159.981006,135.599837" transform="rotate(134.523 149.943 125.953)"/>
        <path d="M35.9458397,80.5591892 L56.022586,99.8533069" transform="rotate(32.812 45.984 90.206)"/>
        <path d="M119.808722,50.3826011 L139.885468,69.6767188" transform="rotate(134.942 129.847 60.03)"/>
        <path d="M115.557405,86.9108483 L135.634151,106.204966" transform="rotate(-21.589 125.596 96.558)"/>
        <path d="M121.166185,20.9688213 L141.242932,40.262939" transform="rotate(21.388 131.205 30.616)"/>
        <path d="M134.97495,143.785359 L155.051697,163.079477" transform="rotate(-107.364 145.013 153.432)"/>
        <path d="M102.509157,328.399861 L122.585904,347.693978" transform="rotate(-104.825 112.548 338.047)"/>
        <path d="M73.9840874,66.4348781 L94.0608336,85.7289957" transform="rotate(137.536 84.022 76.082)"/>
        <path d="M62.8180478,134.34182 L86.9540837,136.842303" transform="rotate(-2.152 74.56 135.746)"/>
        <path d="M107.112337,125.136714 L127.189083,144.430832" transform="rotate(-153.587 117.15 134.784)"/>
        <path d="M159.636765,93.1932326 L179.713511,112.48735" transform="rotate(20.153 169.675 102.84)"/>
        <path d="M31.725565,316.6768 L51.8023113,335.970918" transform="rotate(29.112 41.764 326.324)"/>
        <path d="M65.2224331,338.754426 L85.2991793,358.048544" transform="rotate(-10.2 75.26 348.401)"/>
        <path d="M57.8823529,227.244126 L77.9590992,246.538243" transform="rotate(132.541 67.92 236.891)"/>
        <path d="M100.185142,205.318905 L120.261888,224.613023" transform="rotate(123.592 110.224 214.966)"/>
        <path d="M92.7926509,156.660887 L112.869397,175.955004" transform="rotate(151.38 102.831 166.308)"/>
        <path d="M68.3396894,309.028754 L88.4164356,328.322872" transform="rotate(-155.962 78.378 318.676)"/>
        <path d="M157.392945,308.437175 L177.469691,327.731293" transform="rotate(114.213 167.431 318.084)"/>
        <path d="M53.5625158,156.601997 L73.6392621,175.896114" transform="rotate(-177.937 63.6 166.25)"/>
        <path d="M110.614391,249.614251 L130.691137,268.908369" transform="rotate(-67.397 120.653 259.261)"/>
        <path d="M120.767618,276.261159 L140.844365,295.555277" transform="rotate(153.743 130.806 285.908)"/>
        <path d="M156.595353,175.228867 L176.672099,194.522984" transform="rotate(177.123 166.634 184.876)"/>
        <path d="M124.944935,308.596822 L145.021681,327.89094" transform="rotate(-151.452 134.983 318.244)"/>
        <path d="M71.5646215,191.025704 L91.6413677,210.319822" transform="rotate(138.502 81.603 200.673)"/>
        <path d="M116.725202,180.10528 L136.801948,199.399397" transform="rotate(-118.227 126.764 189.752)"/>
        <path d="M166.303232,144.03019 L186.379978,163.324307" transform="rotate(-165.124 176.342 153.677)"/>
        <path d="M88.4147954,288.7829 L108.491542,308.077018" transform="rotate(170.691 98.453 298.43)"/>
        <path d="M154.546423,268.962723 L174.623169,288.256841" transform="rotate(17.555 164.585 278.61)"/>
        <path d="M144.473939,232.281114 L164.550685,251.575232" transform="rotate(-7.776 154.512 241.928)"/>
        <path d="M148.26835,202.40314 L168.345096,221.697258" transform="rotate(160.983 158.307 212.05)"/>
        <path d="M77.5099985,252.805279 L97.5867447,272.099397" transform="rotate(-98.419 87.548 262.452)"/>
        <path d="M395.098114,69.8728785 L415.17486,89.1669961" transform="rotate(29.112 405.136 79.52)"/>
        <path d="M422.967531,90.3426617 L443.044277,109.636779" transform="rotate(-10.2 433.006 99.99)"/>
        <path d="M60.2941176,6.96961586 L80.3708639,26.2637335" transform="rotate(132.541 70.332 16.617)"/>
        <path d="M370.614199,20.4209112 L390.690945,39.7150288" transform="rotate(-155.962 380.653 30.068)"/>
        <path d="M403.589564,33.4683081 L423.66631,52.7624258" transform="rotate(137.891 413.628 43.115)"/>
        <path d="M402.890691,4.01960784 L422.967438,23.3137255" transform="rotate(-62.178 412.93 13.667)"/>
        <path d="M373.592168,85.9680025 L393.668915,105.26212" transform="rotate(7.78 383.63 95.615)"/>
        <path d="M335.261585,169.360443 L355.338331,188.654561" transform="rotate(-135.401 345.3 179.008)"/>
        <path d="M409.0039,153.538713 L429.080646,172.832831" transform="rotate(-8.055 419.042 163.186)"/>
        <path d="M370.377212,135.225856 L390.453959,154.519974" transform="rotate(32.812 380.416 144.873)"/>
        <path d="M408.41546,121.101545 L428.492206,140.395662" transform="rotate(137.536 418.454 130.749)"/>
        <path d="M338.474283,126.728996 L358.55103,146.023113" transform="rotate(137.536 348.513 136.376)"/>
        <path d="M398.459367,179.930854 L418.536113,199.224972" transform="rotate(-2.152 408.498 189.578)"/>
        <path d="M366.156938,371.343467 L386.233684,390.637584" transform="rotate(29.112 376.195 380.99)"/>
        <path d="M354.938458,193.185376 L375.015204,212.479493" transform="rotate(58.01 364.977 202.832)"/>
        <path d="M392.313725,281.910792 L412.390472,301.20491" transform="rotate(132.541 402.352 291.558)"/>
        <path d="M346.989064,265.613023 L367.06581,284.90714" transform="rotate(123.592 357.027 275.26)"/>
        <path d="M427.224023,211.327553 L447.30077,230.621671" transform="rotate(151.38 437.262 220.975)"/>
        <path d="M402.771062,363.695421 L422.847808,382.989539" transform="rotate(-155.962 412.81 373.342)"/>
        <path d="M387.993888,211.268663 L408.070635,230.562781" transform="rotate(-177.937 398.032 220.916)"/>
        <path d="M370.021514,243.343418 L390.098261,262.637536" transform="rotate(26.785 380.06 252.99)"/>
        <path d="M405.995994,245.692371 L426.07274,264.986489" transform="rotate(138.502 416.034 255.34)"/>
        <path d="M374.648388,334.938896 L394.725134,354.233014" transform="rotate(137.891 384.687 344.586)"/>
        <path d="M411.941371,307.471946 L432.018117,326.766063" transform="rotate(-98.419 421.98 317.119)"/>
        <path d="M373.949515,305.490196 L394.026261,324.784314" transform="rotate(-62.178 383.988 315.137)"/>
        <path d="M195.925502,123.752316 L216.002248,143.046434" transform="rotate(7.78 205.964 133.4)"/>
        <path d="M245.222369,121.125149 L265.299115,140.419267" transform="rotate(-135.401 255.26 130.772)"/>
        <path d="M231.337233,191.323027 L251.413979,210.617145" transform="rotate(-8.055 241.376 200.97)"/>
        <path d="M313.732068,112.616139 L333.808814,131.910257" transform="rotate(61.146 323.77 122.263)"/>
        <path d="M301.051161,158.833521 L321.127907,178.127638" transform="rotate(-93.609 311.09 168.48)"/>
        <path d="M296.668966,208.756699 L316.745712,228.050817" transform="rotate(134.523 306.707 218.404)"/>
        <path d="M192.710546,173.01017 L212.787292,192.304287" transform="rotate(32.812 202.749 182.657)"/>
        <path d="M276.573427,142.833582 L296.650174,162.127699" transform="rotate(134.942 286.612 152.48)"/>
        <path d="M272.322111,179.361829 L292.398857,198.655946" transform="rotate(-21.589 282.36 189.009)"/>
        <path d="M277.930891,113.419802 L298.007638,132.713919" transform="rotate(21.388 287.97 123.067)"/>
        <path d="M291.739656,236.23634 L311.816403,255.530457" transform="rotate(-107.364 301.778 245.883)"/>
        <path d="M161.999354,341.262606 L182.0761,360.556723" transform="rotate(-104.825 172.038 350.91)"/>
        <path d="M230.748793,158.885858 L250.82554,178.179976" transform="rotate(137.536 240.787 168.533)"/>
        <path d="M220.7927,217.715168 L240.869447,237.009286" transform="rotate(-2.152 230.831 227.362)"/>
        <path d="M263.877043,217.587694 L283.953789,236.881812" transform="rotate(-153.587 273.915 227.235)"/>
        <path d="M316.401471,185.644213 L336.478217,204.938331" transform="rotate(20.153 326.44 195.291)"/>
        <path d="M188.490271,409.12778 L208.567017,428.421898" transform="rotate(29.112 198.529 418.775)"/>
        <path d="M124.712629,351.617171 L144.789375,370.911289" transform="rotate(-10.2 134.751 361.264)"/>
        <path d="M177.271792,230.969689 L197.348538,250.263807" transform="rotate(58.01 187.31 240.617)"/>
        <path d="M214.647059,319.695106 L234.723805,338.989224" transform="rotate(132.541 224.685 329.342)"/>
        <path d="M256.949848,297.769885 L277.026594,317.064003" transform="rotate(123.592 266.988 307.417)"/>
        <path d="M249.557357,249.111867 L269.634103,268.405985" transform="rotate(151.38 259.596 258.759)"/>
        <path d="M225.104395,401.479735 L245.181141,420.773852" transform="rotate(-155.962 235.143 411.127)"/>
        <path d="M314.157651,400.888156 L334.234397,420.182273" transform="rotate(114.213 324.196 410.535)"/>
        <path d="M210.327222,249.052977 L230.403968,268.347095" transform="rotate(-177.937 220.366 258.7)"/>
        <path d="M192.354848,281.127732 L212.431594,300.42185" transform="rotate(26.785 202.393 290.775)"/>
        <path d="M206.607843,23.0480472 L226.684589,42.3421649" transform="rotate(132.541 216.646 32.695)"/>
        <path d="M248.910632,5.14243429 L268.987379,24.4365519" transform="rotate(123.592 258.949 14.79)"/>
        <path d="M259.339881,45.4181724 L279.416627,64.7122901" transform="rotate(-67.397 269.378 55.065)"/>
        <path d="M269.493108,72.065081 L289.569855,91.3591987" transform="rotate(153.743 279.531 81.712)"/>
        <path d="M237.140286,84.5868216 L257.217032,103.880939" transform="rotate(170.691 247.179 94.234)"/>
        <path d="M188.942505,76.0761513 L209.019251,95.3702689" transform="rotate(137.891 198.98 85.723)"/>
        <path d="M303.271913,64.7666445 L323.34866,84.0607621" transform="rotate(17.555 313.31 74.414)"/>
        <path d="M226.235489,48.6092005 L246.312235,67.9033181" transform="rotate(-98.419 236.274 58.256)"/>
        <path d="M188.243633,46.627451 L208.320379,65.9215686" transform="rotate(-62.178 198.282 56.275)"/>
        <path d="M89.43795,381.929865 L109.514696,401.223983" transform="rotate(61.146 99.476 391.577)"/>
        <path d="M139.078431,384.812753 L159.155178,404.106871" transform="rotate(132.541 149.117 394.46)"/>
        <path d="M158.706077,410.373906 L178.782823,429.668024" transform="rotate(-98.419 168.744 420.021)"/>
        <path d="M120.714221,408.392157 L140.790967,427.686275" transform="rotate(-62.178 130.753 418.04)"/>
        <path d="M325.997282,26.7736109 L346.074028,46.0677285" transform="rotate(58.01 336.036 36.42)"/>
        <path d="M359.052712,44.8568986 L379.129458,64.1510163" transform="rotate(-177.937 369.091 54.504)"/>
        <path d="M341.080338,76.9316535 L361.157084,96.2257712" transform="rotate(26.785 351.119 86.579)"/>
        <path d="M267.379096,342.065231 L287.455843,361.359349" transform="rotate(-67.397 277.417 351.712)"/>
        <path d="M277.532324,368.71214 L297.60907,388.006258" transform="rotate(153.743 287.57 378.36)"/>
        <path d="M313.360058,267.679847 L333.436805,286.973965" transform="rotate(177.123 323.398 277.327)"/>
        <path d="M281.709641,401.047802 L301.786387,420.34192" transform="rotate(-151.452 291.748 410.695)"/>
        <path d="M228.329327,283.476685 L248.406074,302.770802" transform="rotate(138.502 238.368 293.124)"/>
        <path d="M273.489908,272.55626 L293.566654,291.850378" transform="rotate(-118.227 283.528 282.203)"/>
        <path d="M323.067938,236.48117 L343.144684,255.775288" transform="rotate(-165.124 333.106 246.128)"/>
        <path d="M245.179501,381.23388 L265.256248,400.527998" transform="rotate(170.691 255.218 390.88)"/>
        <path d="M196.981721,372.72321 L217.058467,392.017328" transform="rotate(137.891 207.02 382.37)"/>
        <path d="M311.311129,361.413703 L331.387875,380.707821" transform="rotate(17.555 321.35 371.06)"/>
        <path d="M301.238645,324.732094 L321.315391,344.026212" transform="rotate(-7.776 311.277 334.38)"/>
        <path d="M305.033055,294.854121 L325.109802,314.148238" transform="rotate(160.983 315.071 304.501)"/>
        <path d="M234.274704,345.256259 L254.351451,364.550377" transform="rotate(-98.419 244.313 354.903)"/>
        <path d="M196.282848,343.27451 L216.359594,362.568627" transform="rotate(-62.178 206.321 352.922)"/>
        <path d="M341.273863,301.066527 L361.35061,320.360645" transform="rotate(-104.825 351.312 310.714)"/>
        <path d="M399.653806,393.421093 L419.730552,412.715211" transform="rotate(-10.2 409.692 403.068)"/>
      </g>
    </g>
    <g stroke="#F5DD48" stroke-width="2" mask="url(#yellowneedleblob-b)">
      <g transform="translate(133 696.965)">
        <path d="M39.1607958,31.3013358 L59.237542,50.5954534" transform="rotate(7.78 49.2 40.948)"/>
        <path d="M74.5725271,98.8720466 L94.6492734,118.166164" transform="rotate(-8.055 84.61 108.52)"/>
        <path d="M156.967362,20.1651591 L177.044108,39.4592767" transform="rotate(61.146 167.006 29.812)"/>
        <path d="M144.286455,66.3825404 L164.363201,85.6766581" transform="rotate(-93.609 154.325 76.03)"/>
        <path d="M35.9458397,80.5591892 L56.022586,99.8533069" transform="rotate(32.812 45.984 90.206)"/>
        <path d="M119.808722,50.3826011 L139.885468,69.6767188" transform="rotate(134.942 129.847 60.03)"/>
        <path d="M115.557405,86.9108483 L135.634151,106.204966" transform="rotate(-21.589 125.596 96.558)"/>
        <path d="M121.166185,20.9688213 L141.242932,40.262939" transform="rotate(21.388 131.205 30.616)"/>
        <path d="M134.97495,143.785359 L155.051697,163.079477" transform="rotate(-107.364 145.013 153.432)"/>
        <path d="M73.9840874,66.4348781 L94.0608336,85.7289957" transform="rotate(137.536 84.022 76.082)"/>
        <path d="M64.0279945,125.264188 L84.1047407,144.558305" transform="rotate(-2.152 74.066 134.911)"/>
        <path d="M107.112337,125.136714 L127.189083,144.430832" transform="rotate(-153.587 117.15 134.784)"/>
        <path d="M159.636765,93.1932326 L179.713511,112.48735" transform="rotate(20.153 169.675 102.84)"/>
        <path d="M92.7926509,156.660887 L112.869397,175.955004" transform="rotate(151.38 102.831 166.308)"/>
        <path d="M53.5625158,156.601997 L73.6392621,175.896114" transform="rotate(-177.937 63.6 166.25)"/>
        <path d="M35.5901419,188.676752 L55.6668881,207.970869" transform="rotate(26.785 45.629 198.324)"/>
        <path d="M156.595353,175.228867 L176.672099,194.522984" transform="rotate(177.123 166.634 184.876)"/>
        <path d="M71.5646215,191.025704 L91.6413677,210.319822" transform="rotate(138.502 81.603 200.673)"/>
        <path d="M116.725202,180.10528 L136.801948,199.399397" transform="rotate(-118.227 126.764 189.752)"/>
        <path d="M166.303232,144.03019 L186.379978,163.324307" transform="rotate(-165.124 176.342 153.677)"/>
        <path d="M148.26835,202.40314 L168.345096,221.697258" transform="rotate(160.983 158.307 212.05)"/>
        <path d="M395.098114,69.8728785 L415.17486,89.1669961" transform="rotate(29.112 405.136 79.52)"/>
        <path d="M422.967531,90.3426617 L443.044277,109.636779" transform="rotate(-10.2 433.006 99.99)"/>
        <path d="M60.2941176,6.96961586 L80.3708639,26.2637335" transform="rotate(132.541 70.332 16.617)"/>
        <path d="M370.614199,20.4209112 L390.690945,39.7150288" transform="rotate(-155.962 380.653 30.068)"/>
        <path d="M403.589564,33.4683081 L423.66631,52.7624258" transform="rotate(137.891 413.628 43.115)"/>
        <path d="M402.890691,4.01960784 L422.967438,23.3137255" transform="rotate(-62.178 412.93 13.667)"/>
        <path d="M373.592168,85.9680025 L393.668915,105.26212" transform="rotate(7.78 383.63 95.615)"/>
        <path d="M335.261585,169.360443 L355.338331,188.654561" transform="rotate(-135.401 345.3 179.008)"/>
        <path d="M409.0039,153.538713 L429.080646,172.832831" transform="rotate(-8.055 419.042 163.186)"/>
        <path d="M370.377212,135.225856 L390.453959,154.519974" transform="rotate(32.812 380.416 144.873)"/>
        <path d="M408.41546,121.101545 L428.492206,140.395662" transform="rotate(137.536 418.454 130.749)"/>
        <path d="M338.474283,126.728996 L358.55103,146.023113" transform="rotate(137.536 348.513 136.376)"/>
        <path d="M398.459367,179.930854 L418.536113,199.224972" transform="rotate(-2.152 408.498 189.578)"/>
        <path d="M195.925502,123.752316 L216.002248,143.046434" transform="rotate(7.78 205.964 133.4)"/>
        <path d="M245.222369,121.125149 L265.299115,140.419267" transform="rotate(-135.401 255.26 130.772)"/>
        <path d="M231.337233,191.323027 L251.413979,210.617145" transform="rotate(-8.055 241.376 200.97)"/>
        <path d="M313.732068,112.616139 L333.808814,131.910257" transform="rotate(61.146 323.77 122.263)"/>
        <path d="M301.051161,158.833521 L321.127907,178.127638" transform="rotate(-93.609 311.09 168.48)"/>
        <path d="M192.710546,173.01017 L212.787292,192.304287" transform="rotate(32.812 202.749 182.657)"/>
        <path d="M276.573427,142.833582 L296.650174,162.127699" transform="rotate(134.942 286.612 152.48)"/>
        <path d="M272.322111,179.361829 L292.398857,198.655946" transform="rotate(-21.589 282.36 189.009)"/>
        <path d="M277.930891,113.419802 L298.007638,132.713919" transform="rotate(21.388 287.97 123.067)"/>
        <path d="M230.748793,158.885858 L250.82554,178.179976" transform="rotate(137.536 240.787 168.533)"/>
        <path d="M206.607843,23.0480472 L226.684589,42.3421649" transform="rotate(132.541 216.646 32.695)"/>
        <path d="M248.910632,5.14243429 L268.987379,24.4365519" transform="rotate(123.592 258.949 14.79)"/>
        <path d="M259.339881,45.4181724 L279.416627,64.7122901" transform="rotate(-67.397 269.378 55.065)"/>
        <path d="M269.493108,72.065081 L289.569855,91.3591987" transform="rotate(153.743 279.531 81.712)"/>
        <path d="M237.140286,84.5868216 L257.217032,103.880939" transform="rotate(170.691 247.179 94.234)"/>
        <path d="M188.942505,76.0761513 L209.019251,95.3702689" transform="rotate(137.891 198.98 85.723)"/>
        <path d="M303.271913,64.7666445 L323.34866,84.0607621" transform="rotate(17.555 313.31 74.414)"/>
        <path d="M293.199429,28.0850356 L313.276175,47.3791532" transform="rotate(-7.776 303.238 37.732)"/>
        <path d="M226.235489,48.6092005 L246.312235,67.9033181" transform="rotate(-98.419 236.274 58.256)"/>
        <path d="M188.243633,46.627451 L208.320379,65.9215686" transform="rotate(-62.178 198.282 56.275)"/>
        <path d="M325.997282,26.7736109 L346.074028,46.0677285" transform="rotate(58.01 336.036 36.42)"/>
        <path d="M359.052712,44.8568986 L379.129458,64.1510163" transform="rotate(-177.937 369.091 54.504)"/>
        <path d="M341.080338,76.9316535 L361.157084,96.2257712" transform="rotate(26.785 351.119 86.579)"/>
      </g>
    </g>
    <g stroke="#F5DD48" stroke-width="2" mask="url(#yellowneedleblob-b)">
      <g transform="translate(557 272.965)">
        <path d="M39.1607958,31.3013358 L59.237542,50.5954534" transform="rotate(7.78 49.2 40.948)"/>
        <path d="M88.457663,28.6741687 L108.534409,47.9682863" transform="rotate(-135.401 98.496 38.321)"/>
        <path d="M74.5725271,98.8720466 L94.6492734,118.166164" transform="rotate(-8.055 84.61 108.52)"/>
        <path d="M156.967362,20.1651591 L177.044108,39.4592767" transform="rotate(61.146 167.006 29.812)"/>
        <path d="M139.90426,116.305719 L159.981006,135.599837" transform="rotate(134.523 149.943 125.953)"/>
        <path d="M35.9458397,80.5591892 L56.022586,99.8533069" transform="rotate(32.812 45.984 90.206)"/>
        <path d="M119.808722,50.3826011 L139.885468,69.6767188" transform="rotate(134.942 129.847 60.03)"/>
        <path d="M115.557405,86.9108483 L135.634151,106.204966" transform="rotate(-21.589 125.596 96.558)"/>
        <path d="M121.166185,20.9688213 L141.242932,40.262939" transform="rotate(21.388 131.205 30.616)"/>
        <path d="M134.97495,143.785359 L155.051697,163.079477" transform="rotate(-107.364 145.013 153.432)"/>
        <path d="M102.509157,328.399861 L122.585904,347.693978" transform="rotate(-104.825 112.548 338.047)"/>
        <path d="M64.0279945,125.264188 L84.1047407,144.558305" transform="rotate(-2.152 74.066 134.911)"/>
        <path d="M107.112337,125.136714 L127.189083,144.430832" transform="rotate(-153.587 117.15 134.784)"/>
        <path d="M159.636765,93.1932326 L179.713511,112.48735" transform="rotate(20.153 169.675 102.84)"/>
        <path d="M31.725565,316.6768 L51.8023113,335.970918" transform="rotate(29.112 41.764 326.324)"/>
        <path d="M65.2224331,338.754426 L85.2991793,358.048544" transform="rotate(-10.2 75.26 348.401)"/>
        <path d="M20.5070856,138.518709 L40.5838319,157.812827" transform="rotate(58.01 30.545 148.166)"/>
        <path d="M57.8823529,227.244126 L77.9590992,246.538243" transform="rotate(132.541 67.92 236.891)"/>
        <path d="M4.01960784,194.283341 L24.0963541,213.577459" transform="rotate(132.541 14.058 203.93)"/>
        <path d="M100.185142,205.318905 L120.261888,224.613023" transform="rotate(123.592 110.224 214.966)"/>
        <path d="M92.7926509,156.660887 L112.869397,175.955004" transform="rotate(151.38 102.831 166.308)"/>
        <path d="M68.3396894,309.028754 L88.4164356,328.322872" transform="rotate(-155.962 78.378 318.676)"/>
        <path d="M157.392945,308.437175 L177.469691,327.731293" transform="rotate(114.213 167.431 318.084)"/>
        <path d="M53.5625158,156.601997 L73.6392621,175.896114" transform="rotate(-177.937 63.6 166.25)"/>
        <path d="M35.5901419,188.676752 L55.6668881,207.970869" transform="rotate(26.785 45.629 198.324)"/>
        <path d="M13.080338,235.304203 L33.1570842,254.59832" transform="rotate(26.785 23.119 244.951)"/>
        <path d="M110.614391,249.614251 L130.691137,268.908369" transform="rotate(-67.397 120.653 259.261)"/>
        <path d="M120.767618,276.261159 L140.844365,295.555277" transform="rotate(153.743 130.806 285.908)"/>
        <path d="M156.595353,175.228867 L176.672099,194.522984" transform="rotate(177.123 166.634 184.876)"/>
        <path d="M124.944935,308.596822 L145.021681,327.89094" transform="rotate(-151.452 134.983 318.244)"/>
        <path d="M71.5646215,191.025704 L91.6413677,210.319822" transform="rotate(138.502 81.603 200.673)"/>
        <path d="M116.725202,180.10528 L136.801948,199.399397" transform="rotate(-118.227 126.764 189.752)"/>
        <path d="M166.303232,144.03019 L186.379978,163.324307" transform="rotate(-165.124 176.342 153.677)"/>
        <path d="M88.4147954,288.7829 L108.491542,308.077018" transform="rotate(170.691 98.453 298.43)"/>
        <path d="M40.217015,280.27223 L60.2937612,299.566347" transform="rotate(137.891 50.255 289.92)"/>
        <path d="M154.546423,268.962723 L174.623169,288.256841" transform="rotate(17.555 164.585 278.61)"/>
        <path d="M144.473939,232.281114 L164.550685,251.575232" transform="rotate(-7.776 154.512 241.928)"/>
        <path d="M148.26835,202.40314 L168.345096,221.697258" transform="rotate(160.983 158.307 212.05)"/>
        <path d="M77.5099985,252.805279 L97.5867447,272.099397" transform="rotate(-98.419 87.548 262.452)"/>
        <path d="M39.5181424,250.823529 L59.5948886,270.117647" transform="rotate(-62.178 49.557 260.47)"/>
        <path d="M395.098114,69.8728785 L415.17486,89.1669961" transform="rotate(29.112 405.136 79.52)"/>
        <path d="M60.2941176,6.96961586 L80.3708639,26.2637335" transform="rotate(132.541 70.332 16.617)"/>
        <path d="M370.614199,20.4209112 L390.690945,39.7150288" transform="rotate(-155.962 380.653 30.068)"/>
        <path d="M403.589564,33.4683081 L423.66631,52.7624258" transform="rotate(137.891 413.628 43.115)"/>
        <path d="M9.98058672,50.2170436 L30.057333,69.5111613" transform="rotate(-98.419 20.019 59.864)"/>
        <path d="M402.890691,4.01960784 L422.967438,23.3137255" transform="rotate(-62.178 412.93 13.667)"/>
        <path d="M373.592168,85.9680025 L393.668915,105.26212" transform="rotate(7.78 383.63 95.615)"/>
        <path d="M335.261585,169.360443 L355.338331,188.654561" transform="rotate(-135.401 345.3 179.008)"/>
        <path d="M370.377212,135.225856 L390.453959,154.519974" transform="rotate(32.812 380.416 144.873)"/>
        <path d="M408.41546,121.101545 L428.492206,140.395662" transform="rotate(137.536 418.454 130.749)"/>
        <path d="M338.474283,126.728996 L358.55103,146.023113" transform="rotate(137.536 348.513 136.376)"/>
        <path d="M398.459367,179.930854 L418.536113,199.224972" transform="rotate(-2.152 408.498 189.578)"/>
        <path d="M366.156938,371.343467 L386.233684,390.637584" transform="rotate(29.112 376.195 380.99)"/>
        <path d="M354.938458,193.185376 L375.015204,212.479493" transform="rotate(58.01 364.977 202.832)"/>
        <path d="M392.313725,281.910792 L412.390472,301.20491" transform="rotate(132.541 402.352 291.558)"/>
        <path d="M346.989064,265.613023 L367.06581,284.90714" transform="rotate(123.592 357.027 275.26)"/>
        <path d="M402.771062,363.695421 L422.847808,382.989539" transform="rotate(-155.962 412.81 373.342)"/>
        <path d="M387.993888,211.268663 L408.070635,230.562781" transform="rotate(-177.937 398.032 220.916)"/>
        <path d="M370.021514,243.343418 L390.098261,262.637536" transform="rotate(26.785 380.06 252.99)"/>
        <path d="M374.648388,334.938896 L394.725134,354.233014" transform="rotate(137.891 384.687 344.586)"/>
        <path d="M373.949515,305.490196 L394.026261,324.784314" transform="rotate(-62.178 383.988 315.137)"/>
        <path d="M195.925502,123.752316 L216.002248,143.046434" transform="rotate(7.78 205.964 133.4)"/>
        <path d="M245.222369,121.125149 L265.299115,140.419267" transform="rotate(-135.401 255.26 130.772)"/>
        <path d="M231.337233,191.323027 L251.413979,210.617145" transform="rotate(-8.055 241.376 200.97)"/>
        <path d="M313.732068,112.616139 L333.808814,131.910257" transform="rotate(61.146 323.77 122.263)"/>
        <path d="M301.051161,158.833521 L321.127907,178.127638" transform="rotate(-93.609 311.09 168.48)"/>
        <path d="M296.668966,208.756699 L316.745712,228.050817" transform="rotate(134.523 306.707 218.404)"/>
        <path d="M192.710546,173.01017 L212.787292,192.304287" transform="rotate(32.812 202.749 182.657)"/>
        <path d="M276.573427,142.833582 L296.650174,162.127699" transform="rotate(134.942 286.612 152.48)"/>
        <path d="M272.322111,179.361829 L292.398857,198.655946" transform="rotate(-21.589 282.36 189.009)"/>
        <path d="M277.930891,113.419802 L298.007638,132.713919" transform="rotate(21.388 287.97 123.067)"/>
        <path d="M291.739656,236.23634 L311.816403,255.530457" transform="rotate(-107.364 301.778 245.883)"/>
        <path d="M161.999354,341.262606 L182.0761,360.556723" transform="rotate(-104.825 172.038 350.91)"/>
        <path d="M230.748793,158.885858 L250.82554,178.179976" transform="rotate(137.536 240.787 168.533)"/>
        <path d="M220.7927,217.715168 L240.869447,237.009286" transform="rotate(-2.152 230.831 227.362)"/>
        <path d="M263.877043,217.587694 L283.953789,236.881812" transform="rotate(-153.587 273.915 227.235)"/>
        <path d="M316.401471,185.644213 L336.478217,204.938331" transform="rotate(20.153 326.44 195.291)"/>
        <path d="M188.490271,409.12778 L208.567017,428.421898" transform="rotate(29.112 198.529 418.775)"/>
        <path d="M124.712629,351.617171 L144.789375,370.911289" transform="rotate(-10.2 134.751 361.264)"/>
        <path d="M177.271792,230.969689 L197.348538,250.263807" transform="rotate(58.01 187.31 240.617)"/>
        <path d="M214.647059,319.695106 L234.723805,338.989224" transform="rotate(132.541 224.685 329.342)"/>
        <path d="M256.949848,297.769885 L277.026594,317.064003" transform="rotate(123.592 266.988 307.417)"/>
        <path d="M249.557357,249.111867 L269.634103,268.405985" transform="rotate(151.38 259.596 258.759)"/>
        <path d="M225.104395,401.479735 L245.181141,420.773852" transform="rotate(-155.962 235.143 411.127)"/>
        <path d="M314.157651,400.888156 L334.234397,420.182273" transform="rotate(114.213 324.196 410.535)"/>
        <path d="M210.327222,249.052977 L230.403968,268.347095" transform="rotate(-177.937 220.366 258.7)"/>
        <path d="M192.354848,281.127732 L212.431594,300.42185" transform="rotate(26.785 202.393 290.775)"/>
        <path d="M206.607843,23.0480472 L226.684589,42.3421649" transform="rotate(132.541 216.646 32.695)"/>
        <path d="M248.910632,5.14243429 L268.987379,24.4365519" transform="rotate(123.592 258.949 14.79)"/>
        <path d="M259.339881,45.4181724 L279.416627,64.7122901" transform="rotate(-67.397 269.378 55.065)"/>
        <path d="M237.140286,84.5868216 L257.217032,103.880939" transform="rotate(170.691 247.179 94.234)"/>
        <path d="M188.942505,76.0761513 L209.019251,95.3702689" transform="rotate(137.891 198.98 85.723)"/>
        <path d="M303.271913,64.7666445 L323.34866,84.0607621" transform="rotate(17.555 313.31 74.414)"/>
        <path d="M293.199429,28.0850356 L313.276175,47.3791532" transform="rotate(-7.776 303.238 37.732)"/>
        <path d="M226.235489,48.6092005 L246.312235,67.9033181" transform="rotate(-98.419 236.274 58.256)"/>
        <path d="M188.243633,46.627451 L208.320379,65.9215686" transform="rotate(-62.178 198.282 56.275)"/>
        <path d="M20.9282512,390.438875 L41.0049974,409.732992" transform="rotate(-135.401 30.967 400.086)"/>
        <path d="M89.43795,381.929865 L109.514696,401.223983" transform="rotate(61.146 99.476 391.577)"/>
        <path d="M6.01194533,336.500187 L26.0886916,355.794305" transform="rotate(-93.609 16.05 346.147)"/>
        <path d="M38.6126432,352.657111 L58.6893894,371.951229" transform="rotate(134.942 48.651 362.304)"/>
        <path d="M53.6367736,382.733527 L73.7135199,402.027645" transform="rotate(21.388 63.675 392.38)"/>
        <path d="M139.078431,384.812753 L159.155178,404.106871" transform="rotate(132.541 149.117 394.46)"/>
        <path d="M158.706077,410.373906 L178.782823,429.668024" transform="rotate(-98.419 168.744 420.021)"/>
        <path d="M120.714221,408.392157 L140.790967,427.686275" transform="rotate(-62.178 130.753 418.04)"/>
        <path d="M325.997282,26.7736109 L346.074028,46.0677285" transform="rotate(58.01 336.036 36.42)"/>
        <path d="M359.052712,44.8568986 L379.129458,64.1510163" transform="rotate(-177.937 369.091 54.504)"/>
        <path d="M341.080338,76.9316535 L361.157084,96.2257712" transform="rotate(26.785 351.119 86.579)"/>
        <path d="M267.379096,342.065231 L287.455843,361.359349" transform="rotate(-67.397 277.417 351.712)"/>
        <path d="M277.532324,368.71214 L297.60907,388.006258" transform="rotate(153.743 287.57 378.36)"/>
        <path d="M313.360058,267.679847 L333.436805,286.973965" transform="rotate(177.123 323.398 277.327)"/>
        <path d="M281.709641,401.047802 L301.786387,420.34192" transform="rotate(-151.452 291.748 410.695)"/>
        <path d="M228.329327,283.476685 L248.406074,302.770802" transform="rotate(138.502 238.368 293.124)"/>
        <path d="M273.489908,272.55626 L293.566654,291.850378" transform="rotate(-118.227 283.528 282.203)"/>
        <path d="M323.067938,236.48117 L343.144684,255.775288" transform="rotate(-165.124 333.106 246.128)"/>
        <path d="M245.179501,381.23388 L265.256248,400.527998" transform="rotate(170.691 255.218 390.88)"/>
        <path d="M196.981721,372.72321 L217.058467,392.017328" transform="rotate(137.891 207.02 382.37)"/>
        <path d="M311.311129,361.413703 L331.387875,380.707821" transform="rotate(17.555 321.35 371.06)"/>
        <path d="M301.238645,324.732094 L321.315391,344.026212" transform="rotate(-7.776 311.277 334.38)"/>
        <path d="M305.033055,294.854121 L325.109802,314.148238" transform="rotate(160.983 315.071 304.501)"/>
        <path d="M234.274704,345.256259 L254.351451,364.550377" transform="rotate(-98.419 244.313 354.903)"/>
        <path d="M196.282848,343.27451 L216.359594,362.568627" transform="rotate(-62.178 206.321 352.922)"/>
        <path d="M341.273863,301.066527 L361.35061,320.360645" transform="rotate(-104.825 351.312 310.714)"/>
        <path d="M399.653806,393.421093 L419.730552,412.715211" transform="rotate(-10.2 409.692 403.068)"/>
      </g>
    </g>
    <g stroke="#F5DD48" stroke-width="2" mask="url(#yellowneedleblob-b)">
      <g transform="translate(557 696.965)">
        <path d="M39.1607958,31.3013358 L59.237542,50.5954534" transform="rotate(7.78 49.2 40.948)"/>
        <path d="M88.457663,28.6741687 L108.534409,47.9682863" transform="rotate(-135.401 98.496 38.321)"/>
        <path d="M74.5725271,98.8720466 L94.6492734,118.166164" transform="rotate(-8.055 84.61 108.52)"/>
        <path d="M156.967362,20.1651591 L177.044108,39.4592767" transform="rotate(61.146 167.006 29.812)"/>
        <path d="M144.286455,66.3825404 L164.363201,85.6766581" transform="rotate(-93.609 154.325 76.03)"/>
        <path d="M139.90426,116.305719 L159.981006,135.599837" transform="rotate(134.523 149.943 125.953)"/>
        <path d="M35.9458397,80.5591892 L56.022586,99.8533069" transform="rotate(32.812 45.984 90.206)"/>
        <path d="M119.808722,50.3826011 L139.885468,69.6767188" transform="rotate(134.942 129.847 60.03)"/>
        <path d="M115.557405,86.9108483 L135.634151,106.204966" transform="rotate(-21.589 125.596 96.558)"/>
        <path d="M121.166185,20.9688213 L141.242932,40.262939" transform="rotate(21.388 131.205 30.616)"/>
        <path d="M134.97495,143.785359 L155.051697,163.079477" transform="rotate(-107.364 145.013 153.432)"/>
        <path d="M73.9840874,66.4348781 L94.0608336,85.7289957" transform="rotate(137.536 84.022 76.082)"/>
        <path d="M64.0279945,125.264188 L84.1047407,144.558305" transform="rotate(-2.152 74.066 134.911)"/>
        <path d="M107.112337,125.136714 L127.189083,144.430832" transform="rotate(-153.587 117.15 134.784)"/>
        <path d="M159.636765,93.1932326 L179.713511,112.48735" transform="rotate(20.153 169.675 102.84)"/>
        <path d="M20.5070856,138.518709 L40.5838319,157.812827" transform="rotate(58.01 30.545 148.166)"/>
        <path d="M92.7926509,156.660887 L112.869397,175.955004" transform="rotate(151.38 102.831 166.308)"/>
        <path d="M53.5625158,156.601997 L73.6392621,175.896114" transform="rotate(-177.937 63.6 166.25)"/>
        <path d="M156.595353,175.228867 L176.672099,194.522984" transform="rotate(177.123 166.634 184.876)"/>
        <path d="M116.725202,180.10528 L136.801948,199.399397" transform="rotate(-118.227 126.764 189.752)"/>
        <path d="M148.26835,202.40314 L168.345096,221.697258" transform="rotate(160.983 158.307 212.05)"/>
        <path d="M395.098114,69.8728785 L415.17486,89.1669961" transform="rotate(29.112 405.136 79.52)"/>
        <path d="M60.2941176,6.96961586 L80.3708639,26.2637335" transform="rotate(132.541 70.332 16.617)"/>
        <path d="M370.614199,20.4209112 L390.690945,39.7150288" transform="rotate(-155.962 380.653 30.068)"/>
        <path d="M403.589564,33.4683081 L423.66631,52.7624258" transform="rotate(137.891 413.628 43.115)"/>
        <path d="M9.98058672,50.2170436 L30.057333,69.5111613" transform="rotate(-98.419 20.019 59.864)"/>
        <path d="M402.890691,4.01960784 L422.967438,23.3137255" transform="rotate(-62.178 412.93 13.667)"/>
        <path d="M373.592168,85.9680025 L393.668915,105.26212" transform="rotate(7.78 383.63 95.615)"/>
        <path d="M335.261585,169.360443 L355.338331,188.654561" transform="rotate(-135.401 345.3 179.008)"/>
        <path d="M370.377212,135.225856 L390.453959,154.519974" transform="rotate(32.812 380.416 144.873)"/>
        <path d="M408.41546,121.101545 L428.492206,140.395662" transform="rotate(137.536 418.454 130.749)"/>
        <path d="M338.474283,126.728996 L358.55103,146.023113" transform="rotate(137.536 348.513 136.376)"/>
        <path d="M398.459367,179.930854 L418.536113,199.224972" transform="rotate(-2.152 408.498 189.578)"/>
        <path d="M354.938458,193.185376 L375.015204,212.479493" transform="rotate(58.01 364.977 202.832)"/>
        <path d="M195.925502,123.752316 L216.002248,143.046434" transform="rotate(7.78 205.964 133.4)"/>
        <path d="M245.222369,121.125149 L265.299115,140.419267" transform="rotate(-135.401 255.26 130.772)"/>
        <path d="M231.337233,191.323027 L251.413979,210.617145" transform="rotate(-8.055 241.376 200.97)"/>
        <path d="M313.732068,112.616139 L333.808814,131.910257" transform="rotate(61.146 323.77 122.263)"/>
        <path d="M301.051161,158.833521 L321.127907,178.127638" transform="rotate(-93.609 311.09 168.48)"/>
        <path d="M192.710546,173.01017 L212.787292,192.304287" transform="rotate(32.812 202.749 182.657)"/>
        <path d="M276.573427,142.833582 L296.650174,162.127699" transform="rotate(134.942 286.612 152.48)"/>
        <path d="M272.322111,179.361829 L292.398857,198.655946" transform="rotate(-21.589 282.36 189.009)"/>
        <path d="M277.930891,113.419802 L298.007638,132.713919" transform="rotate(21.388 287.97 123.067)"/>
        <path d="M230.748793,158.885858 L250.82554,178.179976" transform="rotate(137.536 240.787 168.533)"/>
        <path d="M316.401471,185.644213 L336.478217,204.938331" transform="rotate(20.153 326.44 195.291)"/>
        <path d="M206.607843,23.0480472 L226.684589,42.3421649" transform="rotate(132.541 216.646 32.695)"/>
        <path d="M248.910632,5.14243429 L268.987379,24.4365519" transform="rotate(123.592 258.949 14.79)"/>
        <path d="M259.339881,45.4181724 L279.416627,64.7122901" transform="rotate(-67.397 269.378 55.065)"/>
        <path d="M269.493108,72.065081 L289.569855,91.3591987" transform="rotate(153.743 279.531 81.712)"/>
        <path d="M237.140286,84.5868216 L257.217032,103.880939" transform="rotate(170.691 247.179 94.234)"/>
        <path d="M188.942505,76.0761513 L209.019251,95.3702689" transform="rotate(137.891 198.98 85.723)"/>
        <path d="M303.271913,64.7666445 L323.34866,84.0607621" transform="rotate(17.555 313.31 74.414)"/>
        <path d="M293.199429,28.0850356 L313.276175,47.3791532" transform="rotate(-7.776 303.238 37.732)"/>
        <path d="M226.235489,48.6092005 L246.312235,67.9033181" transform="rotate(-98.419 236.274 58.256)"/>
        <path d="M188.243633,46.627451 L208.320379,65.9215686" transform="rotate(-62.178 198.282 56.275)"/>
        <path d="M325.997282,26.7736109 L346.074028,46.0677285" transform="rotate(58.01 336.036 36.42)"/>
        <path d="M359.052712,44.8568986 L379.129458,64.1510163" transform="rotate(-177.937 369.091 54.504)"/>
        <path d="M341.080338,76.9316535 L361.157084,96.2257712" transform="rotate(26.785 351.119 86.579)"/>
      </g>
    </g>
  </g>
</svg>
