<svg xmlns="http://www.w3.org/2000/svg" width="506" height="506" viewBox="0 0 506 506">
  <g fill="none" fill-rule="evenodd" stroke="#F5DD48" stroke-width="2" transform="translate(-36 -26)">
    <path d="M48.7122094,38.9358079 L73.685723,62.9358079" transform="rotate(7.78 61.199 50.936)"/>
    <path d="M110.032703,35.6678683 L135.006216,59.6678683" transform="rotate(-135.401 122.52 47.668)"/>
    <path d="M92.7609484,122.98718 L117.734462,146.98718" transform="rotate(-8.055 105.248 134.987)"/>
    <path d="M195.252084,25.0834906 L220.225598,49.0834906" transform="rotate(61.146 207.739 37.083)"/>
    <path d="M179.478273,82.5734039 L204.451787,106.573404" transform="rotate(-93.609 191.965 94.573)"/>
    <path d="M174.02725,144.672968 L199.000764,168.672968" transform="rotate(134.523 186.514 156.673)"/>
    <path d="M44.7131177,100.207772 L69.6866313,124.207772" transform="rotate(32.812 57.2 112.208)"/>
    <path d="M149.030361,62.6710404 L174.003875,86.6710404" transform="rotate(134.942 161.517 74.671)"/>
    <path d="M143.742138,108.108616 L168.715651,132.108616" transform="rotate(-21.589 156.229 120.109)"/>
    <path d="M150.718914,26.083168 L175.692427,50.083168" transform="rotate(21.388 163.206 38.083)"/>
    <path d="M167.89567,178.854959 L192.869184,202.854959" transform="rotate(-107.364 180.382 190.855)"/>
    <path d="M127.511391,408.497387 L152.484905,432.497387" transform="rotate(-104.825 139.998 420.497)"/>
    <path d="M92.0289868,82.6385069 L117.0025,106.638507" transform="rotate(137.536 104.516 94.639)"/>
    <path d="M79.6445785,155.816429 L104.618092,179.816429" transform="rotate(-2.152 92.131 167.816)"/>
    <path d="M133.237297,155.657864 L158.210811,179.657864" transform="rotate(-153.587 145.724 167.658)"/>
    <path d="M198.572561,115.923289 L223.546075,139.923289" transform="rotate(20.153 211.06 127.923)"/>
    <path d="M39.4635077,393.915044 L64.4370213,417.915044" transform="rotate(29.112 51.95 405.915)"/>
    <path d="M81.1303436,421.377457 L106.103857,445.377457" transform="rotate(-10.2 93.617 433.377)"/>
    <path d="M25.5088138,172.30376 L50.4823275,196.30376" transform="rotate(58.01 37.996 184.304)"/>
    <path d="M72,282.669522 L96.9735136,306.669522" transform="rotate(132.541 84.487 294.67)"/>
    <path d="M124.620543,255.396687 L149.594056,279.396687" transform="rotate(123.592 137.107 267.397)"/>
    <path d="M115.425005,194.870859 L140.398518,218.870859" transform="rotate(151.38 127.912 206.87)"/>
    <path d="M85.0079063,384.401621 L109.98142,408.401621" transform="rotate(-155.962 97.495 396.402)"/>
    <path d="M195.781468,383.665755 L220.754982,407.665755" transform="rotate(114.213 208.268 395.666)"/>
    <path d="M66.6265441,194.797606 L91.6000577,218.797606" transform="rotate(-177.937 79.113 206.798)"/>
    <path d="M44.2706643,234.695471 L69.2441779,258.695471" transform="rotate(26.785 56.757 246.695)"/>
    <path d="M16.2706643,292.695471 L41.2441779,316.695471" transform="rotate(26.785 28.757 304.695)"/>
    <path d="M137.59351,310.495775 L162.567024,334.495775" transform="rotate(-67.397 150.08 322.496)"/>
    <path d="M150.223135,343.64193 L175.196649,367.64193" transform="rotate(153.743 162.71 355.642)"/>
    <path d="M194.789341,217.967615 L219.762855,241.967615" transform="rotate(177.123 207.276 229.968)"/>
    <path d="M155.41931,383.86434 L180.392823,407.86434" transform="rotate(-151.452 167.906 395.864)"/>
    <path d="M89.0194072,237.61734 L113.992921,261.61734" transform="rotate(138.502 101.506 249.617)"/>
    <path d="M145.194763,224.033397 L170.168277,248.033397" transform="rotate(-118.227 157.682 236.033)"/>
    <path d="M206.864996,179.159504 L231.83851,203.159504" transform="rotate(-165.124 219.352 191.16)"/>
    <path d="M109.97938,359.217754 L134.952893,383.217754" transform="rotate(170.691 122.466 371.218)"/>
    <path d="M50.026043,348.63131 L74.9995566,372.63131" transform="rotate(137.891 62.513 360.631)"/>
    <path d="M192.240673,334.563387 L217.214186,358.563387" transform="rotate(17.555 204.727 346.563)"/>
    <path d="M179.711485,288.935044 L204.684998,312.935044" transform="rotate(-7.776 192.198 300.935)"/>
    <path d="M184.431362,251.76976 L209.404875,275.76976" transform="rotate(160.983 196.918 263.77)"/>
    <path d="M96.4148762,314.465103 L121.38839,338.465103" transform="rotate(-98.419 108.902 326.465)"/>
    <path d="M49.1567137,312 L74.1302273,336" transform="rotate(-62.178 61.643 324)"/>
    <path d="M491.463508,86.915044 L516.437021,110.915044" transform="rotate(29.112 503.95 98.915)"/>
    <path d="M526.130344,112.377457 L551.103857,136.377457" transform="rotate(-10.2 538.617 124.377)"/>
    <path d="M75,8.66952216 L99.9735136,32.6695222" transform="rotate(132.541 87.487 20.67)"/>
    <path d="M461.007906,25.4016212 L485.98142,49.4016212" transform="rotate(-155.962 473.495 37.402)"/>
    <path d="M502.026043,41.6313101 L526.999557,65.6313101" transform="rotate(137.891 514.513 53.631)"/>
    <path d="M12.4148762,62.465103 L37.3883898,86.465103" transform="rotate(-98.419 24.902 74.465)"/>
    <path d="M501.156714,5 L526.130227,29" transform="rotate(-62.178 513.643 17)"/>
    <path d="M464.712209,106.935808 L489.685723,130.935808" transform="rotate(7.78 477.199 118.936)"/>
    <path d="M417.032703,210.667868 L442.006216,234.667868" transform="rotate(-135.401 429.52 222.668)"/>
    <path d="M508.760948,190.98718 L533.734462,214.98718" transform="rotate(-8.055 521.248 202.987)"/>
    <path d="M460.713118,168.207772 L485.686631,192.207772" transform="rotate(32.812 473.2 180.208)"/>
    <path d="M508.028987,150.638507 L533.0025,174.638507" transform="rotate(137.536 520.516 162.639)"/>
    <path d="M421.028987,157.638507 L446.0025,181.638507" transform="rotate(137.536 433.516 169.639)"/>
    <path d="M495.644579,223.816429 L520.618092,247.816429" transform="rotate(-2.152 508.131 235.816)"/>
    <path d="M455.463508,461.915044 L480.437021,485.915044" transform="rotate(29.112 467.95 473.915)"/>
    <path d="M441.508814,240.30376 L466.482327,264.30376" transform="rotate(58.01 453.996 252.304)"/>
    <path d="M488,350.669522 L512.973514,374.669522" transform="rotate(132.541 500.487 362.67)"/>
    <path d="M431.620543,330.396687 L456.594056,354.396687" transform="rotate(123.592 444.107 342.397)"/>
    <path d="M531.425005,262.870859 L556.398518,286.870859" transform="rotate(151.38 543.912 274.87)"/>
    <path d="M501.007906,452.401621 L525.98142,476.401621" transform="rotate(-155.962 513.495 464.402)"/>
    <path d="M482.626544,262.797606 L507.600058,286.797606" transform="rotate(-177.937 495.113 274.798)"/>
    <path d="M460.270664,302.695471 L485.244178,326.695471" transform="rotate(26.785 472.757 314.695)"/>
    <path d="M505.019407,305.61734 L529.992921,329.61734" transform="rotate(138.502 517.506 317.617)"/>
    <path d="M525.97938,427.217754 L550.952893,451.217754" transform="rotate(170.691 538.466 439.218)"/>
    <path d="M466.026043,416.63131 L490.999557,440.63131" transform="rotate(137.891 478.513 428.631)"/>
    <path d="M512.414876,382.465103 L537.38839,406.465103" transform="rotate(-98.419 524.902 394.465)"/>
    <path d="M465.156714,380 L490.130227,404" transform="rotate(-62.178 477.643 392)"/>
    <path d="M243.712209,153.935808 L268.685723,177.935808" transform="rotate(7.78 256.199 165.936)"/>
    <path d="M305.032703,150.667868 L330.006216,174.667868" transform="rotate(-135.401 317.52 162.668)"/>
    <path d="M287.760948,237.98718 L312.734462,261.98718" transform="rotate(-8.055 300.248 249.987)"/>
    <path d="M390.252084,140.083491 L415.225598,164.083491" transform="rotate(61.146 402.739 152.083)"/>
    <path d="M374.478273,197.573404 L399.451787,221.573404" transform="rotate(-93.609 386.965 209.573)"/>
    <path d="M369.02725,259.672968 L394.000764,283.672968" transform="rotate(134.523 381.514 271.673)"/>
    <path d="M239.713118,215.207772 L264.686631,239.207772" transform="rotate(32.812 252.2 227.208)"/>
    <path d="M344.030361,177.67104 L369.003875,201.67104" transform="rotate(134.942 356.517 189.671)"/>
    <path d="M338.742138,223.108616 L363.715651,247.108616" transform="rotate(-21.589 351.229 235.109)"/>
    <path d="M345.718914,141.083168 L370.692427,165.083168" transform="rotate(21.388 358.206 153.083)"/>
    <path d="M362.89567,293.854959 L387.869184,317.854959" transform="rotate(-107.364 375.382 305.855)"/>
    <path d="M201.511391,424.497387 L226.484905,448.497387" transform="rotate(-104.825 213.998 436.497)"/>
    <path d="M287.028987,197.638507 L312.0025,221.638507" transform="rotate(137.536 299.516 209.639)"/>
    <path d="M274.644579,270.816429 L299.618092,294.816429" transform="rotate(-2.152 287.131 282.816)"/>
    <path d="M328.237297,270.657864 L353.210811,294.657864" transform="rotate(-153.587 340.724 282.658)"/>
    <path d="M393.572561,230.923289 L418.546075,254.923289" transform="rotate(20.153 406.06 242.923)"/>
    <path d="M234.463508,508.915044 L259.437021,532.915044" transform="rotate(29.112 246.95 520.915)"/>
    <path d="M155.130344,437.377457 L180.103857,461.377457" transform="rotate(-10.2 167.617 449.377)"/>
    <path d="M220.508814,287.30376 L245.482327,311.30376" transform="rotate(58.01 232.996 299.304)"/>
    <path d="M267,397.669522 L291.973514,421.669522" transform="rotate(132.541 279.487 409.67)"/>
    <path d="M319.620543,370.396687 L344.594056,394.396687" transform="rotate(123.592 332.107 382.397)"/>
    <path d="M310.425005,309.870859 L335.398518,333.870859" transform="rotate(151.38 322.912 321.87)"/>
    <path d="M280.007906,499.401621 L304.98142,523.401621" transform="rotate(-155.962 292.495 511.402)"/>
    <path d="M390.781468,498.665755 L415.754982,522.665755" transform="rotate(114.213 403.268 510.666)"/>
    <path d="M261.626544,309.797606 L286.600058,333.797606" transform="rotate(-177.937 274.113 321.798)"/>
    <path d="M239.270664,349.695471 L264.244178,373.695471" transform="rotate(26.785 251.757 361.695)"/>
    <path d="M257,28.6695222 L281.973514,52.6695222" transform="rotate(132.541 269.487 40.67)"/>
    <path d="M309.620543,6.39668655 L334.594056,30.3966865" transform="rotate(123.592 322.107 18.397)"/>
    <path d="M322.59351,56.4957755 L347.567024,80.4957755" transform="rotate(-67.397 335.08 68.496)"/>
    <path d="M335.223135,89.6419301 L360.196649,113.64193" transform="rotate(153.743 347.71 101.642)"/>
    <path d="M294.97938,105.217754 L319.952893,129.217754" transform="rotate(170.691 307.466 117.218)"/>
    <path d="M235.026043,94.6313101 L259.999557,118.63131" transform="rotate(137.891 247.513 106.631)"/>
    <path d="M377.240673,80.5633871 L402.214186,104.563387" transform="rotate(17.555 389.727 92.563)"/>
    <path d="M364.711485,34.9350443 L389.684998,58.9350443" transform="rotate(-7.776 377.198 46.935)"/>
    <path d="M281.414876,60.465103 L306.38839,84.465103" transform="rotate(-98.419 293.902 72.465)"/>
    <path d="M234.156714,58 L259.130227,82" transform="rotate(-62.178 246.643 70)"/>
    <path d="M26.0327027,485.667868 L51.0062163,509.667868" transform="rotate(-135.401 38.52 497.668)"/>
    <path d="M111.252084,475.083491 L136.225598,499.083491" transform="rotate(61.146 123.739 487.083)"/>
    <path d="M48.030361,438.67104 L73.0038746,462.67104" transform="rotate(134.942 60.517 450.671)"/>
    <path d="M66.7189136,476.083168 L91.6924272,500.083168" transform="rotate(21.388 79.206 488.083)"/>
    <path d="M173,478.669522 L197.973514,502.669522" transform="rotate(132.541 185.487 490.67)"/>
    <path d="M197.414876,510.465103 L222.38839,534.465103" transform="rotate(-98.419 209.902 522.465)"/>
    <path d="M150.156714,508 L175.130227,532" transform="rotate(-62.178 162.643 520)"/>
    <path d="M405.508814,33.3037599 L430.482327,57.3037599" transform="rotate(58.01 417.996 45.304)"/>
    <path d="M446.626544,55.7976056 L471.600058,79.7976056" transform="rotate(-177.937 459.113 67.798)"/>
    <path d="M424.270664,95.6954715 L449.244178,119.695471" transform="rotate(26.785 436.757 107.695)"/>
    <path d="M332.59351,425.495775 L357.567024,449.495775" transform="rotate(-67.397 345.08 437.496)"/>
    <path d="M345.223135,458.64193 L370.196649,482.64193" transform="rotate(153.743 357.71 470.642)"/>
    <path d="M389.789341,332.967615 L414.762855,356.967615" transform="rotate(177.123 402.276 344.968)"/>
    <path d="M350.41931,498.86434 L375.392823,522.86434" transform="rotate(-151.452 362.906 510.864)"/>
    <path d="M284.019407,352.61734 L308.992921,376.61734" transform="rotate(138.502 296.506 364.617)"/>
    <path d="M340.194763,339.033397 L365.168277,363.033397" transform="rotate(-118.227 352.682 351.033)"/>
    <path d="M401.864996,294.159504 L426.83851,318.159504" transform="rotate(-165.124 414.352 306.16)"/>
    <path d="M304.97938,474.217754 L329.952893,498.217754" transform="rotate(170.691 317.466 486.218)"/>
    <path d="M245.026043,463.63131 L269.999557,487.63131" transform="rotate(137.891 257.513 475.631)"/>
    <path d="M387.240673,449.563387 L412.214186,473.563387" transform="rotate(17.555 399.727 461.563)"/>
    <path d="M374.711485,403.935044 L399.684998,427.935044" transform="rotate(-7.776 387.198 415.935)"/>
    <path d="M379.431362,366.76976 L404.404875,390.76976" transform="rotate(160.983 391.918 378.77)"/>
    <path d="M291.414876,429.465103 L316.38839,453.465103" transform="rotate(-98.419 303.902 441.465)"/>
    <path d="M244.156714,427 L269.130227,451" transform="rotate(-62.178 256.643 439)"/>
    <path d="M424.511391,374.497387 L449.484905,398.497387" transform="rotate(-104.825 436.998 386.497)"/>
    <path d="M497.130344,489.377457 L522.103857,513.377457" transform="rotate(-10.2 509.617 501.377)"/>
  </g>
</svg>
