<svg xmlns="http://www.w3.org/2000/svg" width="869" height="678" viewBox="0 0 869 678">
  <g fill="none" transform="translate(-82.636 -22.584)">
    <ellipse cx="442.136" cy="648.024" fill="#FECEBA" rx="329.5" ry="41"/>
    <ellipse cx="871.136" cy="616.524" fill="#FECEBA" rx="76.5" ry="9.5"/>
    <g transform="translate(739.636 265.584)">
      <path fill="#3F3D56" d="M149.80788,353.724879 C149.196124,354.864989 148.490344,355.952091 147.69788,356.974879 C140.69788,352.074879 133.571213,347.251546 126.31788,342.504879 L126.78788,341.574879 C128.464687,338.335979 130.974062,335.602244 134.05788,333.654879 C138.05788,331.194879 142.56788,330.654879 146.27788,332.654879 C149.98788,334.654879 152.05788,338.654879 152.27788,343.324879 C152.383979,346.948491 151.531961,350.535935 149.80788,353.724879 L149.80788,353.724879 Z" transform="rotate(-26 139.302 344.204)"/>
      <ellipse cx="140.648" cy="326.971" fill="#3F3D56" rx="17.05" ry="13.02" transform="rotate(-88.09 140.648 326.971)"/>
      <ellipse cx="141.344" cy="306.145" fill="#3F3D56" rx="17.05" ry="13.02" transform="rotate(-88.09 141.344 306.145)"/>
      <ellipse cx="142.044" cy="285.328" fill="#3F3D56" rx="17.05" ry="13.02" transform="rotate(-88.09 142.044 285.328)"/>
      <ellipse cx="142.731" cy="264.506" fill="#3F3D56" rx="17.05" ry="13.02" transform="rotate(-88.09 142.731 264.506)"/>
      <path fill="#F5DD48" d="M121.151864,103.511064 C120.618493,100.677939 120.284341,97.8109145 120.151864,94.9310645 L153.071864,106.011064 L120.241864,88.9310645 C121.204789,71.7782711 129.191405,55.7797187 142.321864,44.7010645 L174.131864,90.7010645 L149.401864,39.5010645 C169.187389,27.1178734 194.231311,26.8185551 214.307143,38.7253339 C234.382975,50.6321126 246.130309,72.7519627 244.752213,96.0524191 C243.374117,119.352875 229.101266,139.933773 207.761864,149.391064 C208.575837,153.805438 208.911111,158.294755 208.761864,162.781064 L158.761864,162.381064 L208.041864,170.501064 C204.673094,191.309166 191.022008,209.007805 171.751864,217.551064 C177.555073,249.558552 157.784304,280.651213 126.337343,288.972579 C94.8903816,297.293945 62.3287817,280.049261 51.5415962,249.360613 C40.7544106,218.671965 55.3645467,184.846223 85.1018645,171.661064 C79.9731089,143.336635 94.8880947,115.179952 121.201864,103.511064 L121.151864,103.511064 Z" transform="rotate(-26 146.43 160.53)"/>
      <path fill="#000" d="M233.945863,192.237688 C227.415283,204.608691 216.90152,214.414254 204.105863,220.067688 C209.909071,252.075176 190.138302,283.167836 158.691341,291.489202 C127.24438,299.810568 94.6827797,282.565885 83.8955942,251.877237 C73.1084086,221.188589 87.7185447,187.362847 117.455863,174.177688 C115.035863,160.887688 237.225863,186.047688 233.945863,192.237688 Z" opacity=".1" transform="rotate(-26 157.182 231.967)"/>
    </g>
    <path fill="#3F3D56" d="M196.286287,657.874536 C196.878955,660.288829 197.67858,662.647555 198.676287,664.924536 C214.082954,659.024536 229.666287,653.357869 245.426287,647.924536 C245.286287,647.284536 245.146287,646.624536 244.986287,645.924536 C243.386402,639.085784 239.993369,632.796765 235.156287,627.704536 C228.866287,621.224536 220.706287,618.064536 212.856287,619.984536 C205.006287,621.904536 199.226287,628.454536 196.616287,637.074536 C194.652183,643.854203 194.538241,651.035975 196.286287,657.874536 Z" transform="rotate(12 220.24 642.176)"/>
    <ellipse cx="217.467" cy="611.671" fill="#3F3D56" rx="25.07" ry="32.81" transform="rotate(-1.72 217.467 611.67)"/>
    <ellipse cx="216.254" cy="571.58" fill="#3F3D56" rx="25.07" ry="32.81" transform="rotate(-1.72 216.254 571.58)"/>
    <ellipse cx="215.054" cy="531.492" fill="#3F3D56" rx="25.07" ry="32.81" transform="rotate(-1.72 215.054 531.492)"/>
    <ellipse cx="213.851" cy="491.413" fill="#3F3D56" rx="25.07" ry="32.81" transform="rotate(-1.72 213.851 491.413)"/>
    <path fill="#F5DD48" d="M281.347552,196.841937 C283.645317,191.797358 285.586739,186.597955 287.157552,181.281937 L220.607552,186.391937 L289.937552,170.011937 C296.233978,137.535305 288.880997,103.898941 269.607552,77.0119373 L188.517552,147.841937 L258.777552,64.0119373 C227.69441,31.5656837 181.096564,19.1894623 138.010227,31.9365666 C94.92389,44.683671 62.5603453,80.4206407 54.133844,124.555833 C45.7073427,168.691025 62.6282134,213.837611 97.9875521,241.561937 C94.4051046,249.417801 91.6858495,257.639273 89.8775521,266.081937 L183.467552,288.961937 L87.6475521,280.841937 C84.1101276,321.288519 101.24052,360.785471 133.187552,385.841937 C107.245543,442.841145 129.468491,510.206455 184.234063,540.581272 C238.999636,570.956089 307.91338,554.138234 342.530179,501.950355 C377.146978,449.762476 365.839872,379.733242 316.557552,341.091937 C339.519053,290.645003 324.969225,231.036577 281.347552,196.841937 Z" transform="rotate(12 207.274 291.332)"/>
    <path fill="#000" d="M60.3632629,320.657699 C66.7101808,346.823833 81.7069359,370.08008 102.923263,386.657699 C76.9812543,443.656906 99.2042014,511.022216 153.969774,541.397033 C208.735347,571.77185 277.649091,554.953995 312.26589,502.766116 C346.882689,450.578238 335.575583,380.549003 286.293263,341.907699 C297.083263,318.267699 57.2032629,307.567699 60.3632629,320.657699 Z" opacity=".1" transform="rotate(12 196.308 435.743)"/>
    <g transform="translate(392.636 337.584)">
      <path fill="#DB8B8B" d="M206.463297,180.272187 L183.293297,201.702187 L181.573297,206.192187 L180.403297,209.192187 L82.5032974,213.832187 L77.2432974,205.492187 L75.5532974,202.822187 L70.9232974,216.142187 L47.7332974,201.702187 C47.7332974,201.702187 50.6232974,182.012187 52.9432974,172.162187 C55.1532974,162.752187 62.1332974,157.042187 86.5432974,149.982187 L87.5432974,149.672187 L89.9832974,148.992187 C90.5032974,148.852187 90.9832974,148.702187 91.5132974,148.532187 C103.313297,144.702187 108.573297,136.082187 110.823297,127.922187 C112.39477,121.948711 112.792115,115.727041 111.993297,109.602187 C111.993297,109.602187 147.623297,98.3121874 146.463297,120.902187 C146.323768,123.208491 146.498706,125.523056 146.983297,127.782187 C149.103297,137.132187 156.923297,141.782187 166.333297,144.782187 C168.033297,145.328854 169.773297,145.832187 171.553297,146.292187 L171.933297,146.392187 C177.243297,147.762187 182.763297,148.842187 187.933297,150.122187 C206.463297,154.782187 206.463297,180.272187 206.463297,180.272187 Z"/>
      <path fill="#35323E" d="M123.953297,9.93218735 C126.013297,7.18218735 129.233297,5.55218735 132.423297,4.25218735 C147.503297,-1.90781265 166.513297,-2.19781265 178.423297,8.90218735 C182.013297,12.2421874 184.733297,16.3921874 187.993297,20.0621874 C203.383297,37.4321874 229.793297,42.1121874 252.103297,35.7121874 C257.263297,34.2321874 262.503297,32.2121874 267.823297,32.9021874 C270.845441,33.3830244 273.737736,34.4752913 276.323297,36.1121874 C288.903297,43.5921874 296.033297,57.3821874 305.463297,68.5821874 C312.273297,76.6721874 320.623297,83.6521874 330.343297,87.8521874 C340.063297,92.0521874 351.223297,93.2921874 361.343297,90.2321874 C354.662623,94.8975871 347.396877,98.6632676 339.733297,101.432187 C331.593297,104.372187 322.733297,106.162187 314.263297,104.562187 C303.673297,102.562187 294.803297,95.6721874 285.993297,89.4821874 C277.061523,83.201249 267.761535,77.4609691 258.143297,72.2921874 C249.453297,67.6121874 239.843297,63.2921874 230.063297,64.6521874 C221.753297,65.8021874 214.533297,70.9221874 206.453297,73.2021874 C198.353399,75.4858019 189.709426,74.8595296 182.023297,71.4321874 C161.353297,62.0321874 151.893297,34.3121874 129.763297,29.2021874 C124.103297,27.9021874 123.063297,29.9021874 121.903297,22.9721874 C121.153297,18.5121874 121.143297,13.6821874 123.953297,9.93218735 Z"/>
      <path fill="#000" d="M347.553297,92.4321874 C339.413297,95.3721874 330.553297,97.1621874 322.083297,95.5621874 C311.493297,93.5621874 302.623297,86.6821874 293.813297,80.4821874 C284.881523,74.201249 275.581535,68.4609691 265.963297,63.2921874 C257.273297,58.6121874 247.663297,54.2921874 237.883297,55.6521874 C229.573297,56.8021874 222.353297,61.9221874 214.273297,64.2121874 C206.17224,66.4926621 197.528235,65.8628492 189.843297,62.4321874 C169.173297,53.0321874 159.713297,25.3121874 137.583297,20.2121874 C131.923297,18.9021874 130.883297,20.9021874 129.713297,13.9721874 C129.105603,10.9631868 129.1602,7.85796516 129.873297,4.87218735 C127.116946,5.94051128 124.679693,7.69616004 122.793297,9.97218735 C119.983297,13.7121874 119.993297,18.5421874 120.793297,22.9721874 C121.963297,29.9021874 122.993297,27.9021874 128.653297,29.2021874 C150.783297,34.3121874 160.243297,62.0321874 180.913297,71.4321874 C188.591084,74.8827767 197.235281,75.5338338 205.343297,73.2721874 C213.423297,70.9921874 220.643297,65.8721874 228.953297,64.7221874 C238.733297,63.3621874 248.343297,67.7221874 257.033297,72.3621874 C266.653472,77.5331847 275.956658,83.2733771 284.893297,89.5521874 C293.703297,95.7421874 302.573297,102.652187 313.153297,104.632187 C321.663297,106.232187 330.483297,104.442187 338.623297,101.502187 C346.29835,98.7294048 353.574368,94.9569035 360.263297,90.2821874 C356.627047,91.3638594 352.856879,91.9293846 349.063297,91.9621874 L347.553297,92.4321874 Z" opacity=".1"/>
      <circle cx="128.553" cy="78.612" r="43.73" fill="#35323E"/>
      <path fill="#000" d="M128.553297,112.502187 C106.207818,112.497087 87.4590626,95.6499417 85.0732974,73.4321874 C84.9091797,74.9700969 84.825732,76.5155476 84.8232974,78.0621874 C84.5846389,93.8448095 92.8678925,108.531763 106.497655,116.492773 C120.127418,124.453783 136.989177,124.453783 150.61894,116.492773 C164.248702,108.531763 172.531956,93.8448095 172.293297,78.0621874 C172.290863,76.5155476 172.207415,74.9700969 172.043297,73.4321874 C169.657124,95.6537422 150.9026,112.502196 128.553297,112.502187 Z" opacity=".1"/>
      <path fill="#000" d="M147.033297,127.782187 C136.123534,135.157105 121.83984,135.212407 110.873297,127.922187 C112.44477,121.948711 112.842115,115.727041 112.043297,109.602187 C112.043297,109.602187 147.673297,98.3121874 146.513297,120.902187 C146.373768,123.208491 146.548706,125.523056 147.033297,127.782187 L147.033297,127.782187 Z" opacity=".1"/>
      <circle cx="128.843" cy="99.172" r="32.44" fill="#DB8B8B"/>
      <path fill="#000" d="M124.323297,187.692187 C125.912953,189.383986 127.259221,191.288955 128.323297,193.352187 C130.013297,196.672187 130.943297,200.702187 129.433297,204.122187 C128.297827,199.814519 129.093617,195.225947 131.613297,191.552187 C134.156582,187.94833 137.663957,185.134112 141.733297,183.432187" opacity=".05"/>
      <path fill="#35323E" d="M270.083297,342.432187 C263.763297,352.672187 250.793297,360.142187 228.193297,360.142187 L121.476661,356.072187 C121.476661,356.072187 55.3261719,362.858178 42.5432974,358.952187 C34.5486916,356.509321 19.6532974,349.562187 9.32329745,340.632187 C-0.176702552,332.422187 -4.80670255,322.382187 7.18329745,312.062187 C13.8947179,306.373082 22.4571822,303.33869 31.2532974,303.532187 L92.6532974,304.532187 L188.223297,300.432187 C188.223297,300.432187 271.633297,297.532187 274.533297,317.802187 C275.733297,326.312187 274.623297,335.082187 270.083297,342.432187 Z"/>
      <path fill="#33CCAB" d="M195.733297,306.432187 C194.733297,308.612187 192.033297,309.132187 189.733297,309.802187 C180.273297,312.572187 174.433297,321.802187 166.893297,328.112187 C163.091096,331.303408 158.772528,333.822855 154.123297,335.562187 C143.563297,339.562187 131.793297,339.192187 120.823297,336.632187 C109.853297,334.072187 97.3732974,331.912187 89.1232974,324.232187 C82.5247782,318.100743 76.8731627,311.023586 72.3532974,303.232187 C71.4415842,301.886142 70.8717978,300.338107 70.6932974,298.722187 C70.6833187,298.548998 70.6833187,298.375377 70.6932974,298.202187 C70.6834699,298.102429 70.6834699,298.001946 70.6932974,297.902187 C70.6834703,297.80577 70.6834703,297.708604 70.6932974,297.612187 C70.6932974,297.482187 70.6932974,297.352187 70.7632974,297.232187 C70.7860249,297.086593 70.8194487,296.94287 70.8632974,296.802187 C70.8632974,296.652187 70.9332974,296.512187 70.9732974,296.362187 C71.0132974,296.212187 71.0632974,296.082187 71.1032974,295.942187 C71.3032974,295.282187 71.5432974,294.642187 71.7432974,293.942187 C71.8132974,293.722187 71.8732974,293.502187 71.9232974,293.292187 L71.9232974,293.292187 C72.1146618,292.612965 72.192377,291.90677 72.1532974,291.202187 C71.9451777,289.936167 71.5928867,288.698115 71.1032974,287.512187 C71.1032974,287.372187 71.0132974,287.222187 70.9732974,287.082187 C70.9332974,286.942187 70.8832974,286.752187 70.8432974,286.592187 C70.7732974,286.272187 70.7032974,285.952187 70.6432974,285.592187 C70.5832974,285.232187 70.5532974,284.942187 70.5232974,284.592187 C70.4752807,284.107018 70.4519174,283.619725 70.4532974,283.132187 C70.4532974,282.862187 70.4532974,282.592187 70.4532974,282.332187 C70.4433918,282.303005 70.4433918,282.27137 70.4532974,282.242187 C70.4532974,281.972187 70.4532974,281.712187 70.5032974,281.452187 C70.5632974,280.892187 70.6432974,280.322187 70.7532974,279.762187 C70.7532974,279.452187 70.8632974,279.152187 70.9332974,278.832187 C70.9732974,278.685521 71.0132974,278.525521 71.0532974,278.352187 C71.0487991,278.315659 71.0487991,278.278716 71.0532974,278.242187 L71.0532974,278.242187 C72.0532974,274.242187 73.9932974,270.352187 75.5932974,266.562187 C79.2058455,258.005283 81.1832892,248.84731 81.4232974,239.562187 C81.4867309,237.736418 81.4198948,235.908449 81.2232974,234.092187 L81.2232974,234.092187 C81.2232974,233.892187 81.1732974,233.702187 81.1532974,233.502187 C81.1332974,233.302187 81.0632974,232.862187 80.9932974,232.502187 C80.9232974,232.142187 80.8632974,231.802187 80.7832974,231.502187 C80.7032974,231.202187 80.6732974,231.062187 80.6032974,230.842187 C80.5332974,230.622187 80.4432974,230.262187 80.3532974,229.972187 C79.3532974,226.792187 77.3532974,223.972187 76.5032974,220.712187 C76.4032974,220.312187 76.3132974,219.912187 76.2332974,219.512187 C76.1632974,219.162187 76.1032974,218.822187 76.0632974,218.512187 C76.0632974,218.392187 76.0632974,218.272187 76.0632974,218.142187 C76.0032974,217.622187 75.9732974,217.142187 75.9632974,216.572187 C75.9632974,216.342187 75.9632974,216.122187 75.9632974,215.882187 C75.9632974,215.642187 75.9632974,215.362187 75.9632974,215.102187 C75.9632974,214.842187 75.9632974,214.392187 76.0132974,214.032187 C76.0632974,213.672187 76.0132974,213.552187 76.0132974,213.312187 C76.0132974,212.872187 76.0932974,212.442187 76.1532974,212.022187 C76.2132974,211.602187 76.2532974,211.162187 76.3132974,210.732187 C76.4232974,209.902187 76.5532974,209.062187 76.6832974,208.232187 C76.8132974,207.402187 76.9632974,206.442187 77.1132974,205.552187 C77.8132974,201.462187 78.7432974,197.382187 80.8432974,193.832187 C83.9232974,188.642187 89.4332974,184.632187 90.3832974,178.672187 C90.6388894,176.285219 90.452443,173.871585 89.8332974,171.552187 C89.7132974,171.032187 89.6032974,170.552187 89.4932974,170.002187 C88.0298868,163.410947 87.0076191,156.729459 86.4332974,150.002187 L87.4332974,149.692187 L89.8732974,149.012187 C90.3932974,148.872187 90.8732974,148.722187 91.4032974,148.552187 C91.7529712,155.278754 92.6391197,161.966668 94.0532974,168.552187 C95.1532974,173.692187 96.6032974,178.852187 99.3532974,183.352187 C102.103297,187.852187 106.273297,191.652187 111.353297,193.002187 C114.723297,193.902187 118.293297,193.682187 121.773297,193.382187 C128.773297,192.772187 135.723297,191.812187 142.613297,190.522187 C147.613297,189.522187 152.683297,188.432187 157.163297,185.982187 C158.347569,185.398629 159.404564,184.586341 160.273297,183.592187 C161.238414,182.223476 161.902971,180.666027 162.223297,179.022187 C165.12064,167.846316 166.466593,156.324956 166.223297,144.782187 C167.923297,145.328854 169.663297,145.832187 171.443297,146.292187 L171.823297,146.392187 C171.823297,148.282187 171.733297,150.162187 171.643297,152.042187 C171.593297,153.182187 171.523297,154.322187 171.453297,155.472187 C171.453297,156.112187 171.363297,156.762187 171.303297,157.402187 C171.303297,157.862187 171.213297,158.332187 171.173297,158.792187 C171.173297,158.932187 171.173297,159.072187 171.123297,159.212187 C171.063297,159.772187 171.003297,160.332187 170.933297,160.882187 C170.843297,161.632187 170.733297,162.382187 170.623297,163.132187 L170.473297,164.132187 C170.263297,165.572187 170.043297,167.022187 169.863297,168.472187 L169.863297,168.472187 C169.570715,170.625897 169.447005,172.799188 169.493297,174.972187 C169.653297,179.712187 172.313297,184.392187 175.153297,188.192187 C178.563297,192.762187 179.453297,197.852187 180.823297,203.382187 C181.043297,204.292187 181.243297,205.212187 181.413297,206.132187 C181.693297,207.592187 181.903297,209.062187 182.043297,210.532187 C182.043297,210.812187 182.043297,211.092187 182.113297,211.372187 C182.183297,211.652187 182.113297,211.792187 182.113297,211.992187 C182.113297,212.192187 182.113297,212.452187 182.113297,212.682187 C182.113297,212.912187 182.113297,213.162187 182.113297,213.412187 C182.113297,213.662187 182.113297,213.962187 182.113297,214.232187 C182.113297,215.002187 182.113297,215.782187 182.113297,216.552187 C182.113297,216.822187 182.113297,217.112187 182.113297,217.392187 L182.113297,217.542187 C182.113297,217.772187 182.113297,218.002187 182.113297,218.242187 C182.113297,218.482187 182.113297,218.832187 182.043297,219.142187 C181.973297,219.452187 182.043297,219.502187 182.043297,219.672187 L181.983297,220.252187 C181.983297,220.542187 181.913297,220.842187 181.873297,221.132187 C181.833297,221.422187 181.783297,221.842187 181.733297,222.192187 C181.683297,222.542187 181.623297,222.902187 181.563297,223.252187 C181.453297,223.912187 181.323297,224.582187 181.173297,225.252187 C180.993297,226.082187 180.793297,226.902187 180.563297,227.722187 C180.503297,227.972187 180.433297,228.212187 180.363297,228.452187 C180.103297,229.352187 179.813297,230.242187 179.493297,231.132187 C178.363297,234.262187 177.143297,237.392187 175.993297,240.532187 C175.803297,241.052187 175.613297,241.532187 175.433297,242.102187 C175.253297,242.672187 175.063297,243.102187 174.893297,243.652187 L174.893297,243.652187 C174.713297,244.182187 174.543297,244.712187 174.363297,245.232187 C174.183297,245.752187 174.033297,246.232187 173.873297,246.812187 C173.543297,247.892187 173.243297,248.972187 172.963297,250.062187 C172.883297,250.382187 172.793297,250.702187 172.723297,251.062187 C172.723297,251.202187 172.653297,251.362187 172.623297,251.502187 C172.593297,251.642187 172.553297,251.792187 172.523297,251.942187 C172.373297,252.622187 172.233297,253.302187 172.103297,253.992187 L171.953297,254.852187 C171.863297,255.422187 171.783297,255.982187 171.703297,256.542187 L171.703297,256.542187 C171.623297,257.142187 171.563297,257.762187 171.503297,258.372187 C170.703297,267.822187 173.853297,278.372187 181.963297,283.292187 C184.343297,284.742187 187.383297,286.082187 187.833297,288.832187 C188.083297,290.422187 187.343297,292.012187 187.503297,293.612187 C187.763297,296.272187 190.293297,297.992187 192.393297,299.612187 L192.393297,299.612187 C194.733297,301.332187 196.733297,303.992187 195.733297,306.432187 Z"/>
      <path fill="#000" d="M101.5 102.93C101.288781 105.409419 101.352502 107.904594 101.69 110.37 102.81 101.6 106.49 93.37 109.49 84.97 111.843623 78.3777436 112.707655 71.345954 112.02 64.38 111.649345 68.2436476 110.799486 72.0461794 109.49 75.7 106.23 84.63 102.25 93.47 101.5 102.93zM101.75.22C101.75 2.11 101.66 3.99 101.57 5.87 101.52 7.01 101.46 8.15 101.38 9.3 101.38 9.94 101.29 10.59 101.23 11.23 101.23 11.69 101.14 12.16 101.1 12.62 101.1 12.76 101.1 12.9 101.05 13.04 100.99 13.6 100.93 14.16 100.86 14.71 100.77 15.46 100.66 16.21 100.55 16.96L100.4 17.96C100.19 19.4 99.97 20.85 99.79 22.3 99.5778919 21.3907106 99.4539848 20.463082 99.42 19.53 99.26 14.8 100.27 10.12 100.86 5.41 101.08 3.65 101.25 1.87 101.37.09L101.75.22zM10.24 83.78C10.6692727 85.1304377 10.9607582 86.520857 11.11 87.93 11.21 86.67 11.28 85.4 11.31 84.14 11.5036374 80.8925068 11.1417789 77.6357803 10.24 74.51 9.24 71.33 7.24 68.51 6.39 65.26 6.33 65 6.26 64.75 6.21 64.5 5.60127074 67.8118801 5.662476 71.2121724 6.39 74.5 7.27 77.75 9.2 80.6 10.24 83.78zM122.35 153.48L122.35 153.48C121.42 153.82 120.42 154.07 119.5 154.34 110.04 157.11 104.2 166.34 96.66 172.65 92.8581969 175.844287 88.5396715 178.367091 83.89 180.11 73.33 184.05 61.56 183.73 50.59 181.17 39.62 178.61 27.14 176.45 18.89 168.78 12.2974201 162.643047 6.64655081 155.566824 2.12 147.78L1.77 147.16C1.32 148.95.41 150.7.47 152.54.641111676 154.156063 1.207818 155.70506 2.12 157.05 6.64327932 164.839063 12.2945133 171.915742 18.89 178.05 27.14 185.73 39.62 187.89 50.59 190.45 61.56 193.01 73.33 193.33 83.89 189.38 88.5410877 187.644584 92.8602945 185.124765 96.66 181.93 104.2 175.58 110.04 166.39 119.5 163.62 121.78 162.95 124.5 162.43 125.5 160.25 126.5 157.78 124.5 155.13 122.35 153.48zM1.98 135.76C1.7927639 134.511183 1.45705331 133.289197.98 132.12.154445372 134.985708.106126316 138.019455.84 140.91 1.29 139.22 2.1 137.52 1.98 135.76zM20.28 23.22C20.1605667 23.9515127 19.9765128 24.670996 19.73 25.37 19.61 24.85 19.5 24.37 19.39 23.82 17.9265893 17.2287594 16.9043216 10.5472712 16.33 3.82L17.33 3.51C17.87 7.22333333 18.5366667 10.89 19.33 14.51 20.02 17.36 20.74 20.29 20.28 23.22z" opacity=".1" transform="translate(70.233 146.212)"/>
      <path fill="#DB8B8B" d="M54.9932974 193.882187L48.3332974 198.812187C48.3332974 198.812187 34.2532974 230.432187 35.2832974 248.162187 35.4432974 250.982187 35.5232974 253.812187 35.4732974 256.642187 35.3632974 262.382187 37.0132974 271.642187 49.2032974 269.192187 66.5732974 265.712187 109.443297 250.072187 109.443297 250.072187L106.543297 236.172187C106.543297 236.172187 70.0532974 245.432187 63.7332974 241.432187 63.7332974 241.432187 72.1332974 217.972187 70.9732974 215.082187 69.8132974 212.192187 54.9932974 193.882187 54.9932974 193.882187zM202.733297 171.292187L206.733297 180.562187C206.733297 180.562187 218.323297 206.632187 220.633297 216.472187 222.943297 226.312187 227.013297 251.812187 227.013297 251.812187 227.013297 251.812187 236.273297 269.812187 200.363297 262.232187 164.453297 254.652187 149.363297 245.442187 149.363297 245.442187L156.363297 232.692187C156.363297 232.692187 190.533297 239.062187 195.173297 235.592187 195.173297 235.592187 181.273297 203.732187 182.423297 201.412187 183.573297 199.092187 202.733297 171.292187 202.733297 171.292187z"/>
      <path fill="#DB8B8B" d="M100.733297,240.222187 L106.523297,235.012187 C106.523297,235.012187 117.523297,184.012187 127.383297,191.572187 C137.243297,199.132187 123.323297,242.572187 123.323297,242.572187 L109.423297,250.102187 L100.733297,240.222187 Z"/>
      <path fill="#DB8B8B" d="M159.833297 236.752187L156.363297 232.692187C156.363297 232.692187 144.193297 182.302187 133.773297 190.992187 123.353297 199.682187 144.733297 241.432187 144.733297 241.432187L149.373297 245.492187 158.633297 243.172187 159.833297 236.752187zM183.583297 330.012187C183.583297 330.012187 140.073297 334.552187 136.343297 337.202187 132.613297 339.852187 134.933297 356.072187 134.933297 356.072187L192.273297 352.602187 183.583297 330.012187z"/>
      <path fill="#000" d="M183.583297,330.012187 C183.583297,330.012187 140.073297,334.552187 136.343297,337.202187 C132.613297,339.852187 134.933297,356.072187 134.933297,356.072187 L192.273297,352.602187 L183.583297,330.012187 Z" opacity=".1"/>
      <path fill="#000" d="M258.023297,343.042187 C251.703297,353.282187 249.633297,358.972187 227.023297,358.972187 L177.213297,358.972187 L177.213297,328.852187 L183.583297,325.372187 C210.813297,313.212187 240.933297,317.262187 240.933297,317.262187 L258.023297,343.042187 Z" opacity=".1"/>
      <path fill="#35323E" d="M270.083297,342.432187 C263.763297,352.672187 250.793297,360.142187 228.193297,360.142187 L178.373297,360.142187 L178.373297,330.012187 L184.733297,326.532187 C211.963297,314.372187 242.083297,318.422187 242.083297,318.422187 L270.083297,342.432187 Z"/>
      <path fill="#DB8B8B" d="M162.553297,335.202187 C164.553297,334.682187 166.703297,334.072187 168.783297,334.402187 C171.318355,334.896524 173.510426,336.474815 174.783297,338.722187 C175.204805,339.62006 175.795604,340.428165 176.523297,341.102187 C177.379031,341.624649 178.360706,341.904634 179.363297,341.912187 C186.213297,342.562187 193.193297,342.552187 199.853297,344.302187 C206.513297,346.052187 213.043297,349.922187 215.943297,356.172187 C216.314374,356.880142 216.51955,357.66323 216.543297,358.462187 C216.305016,360.144341 215.147472,361.552686 213.543297,362.112187 C208.793297,364.182187 203.483297,361.402187 198.413297,360.312187 C192.693297,359.082187 186.773297,360.082187 180.953297,360.742187 C175.214228,361.41047 169.441145,361.744367 163.663297,361.742187 C158.914628,361.781308 154.174075,361.34243 149.513297,360.432187 C146.903297,359.882187 144.333297,359.112187 141.693297,358.762187 C139.176494,358.488857 136.643408,358.395286 134.113297,358.482187 C122.399964,358.615521 110.699964,358.438854 99.0132974,357.952187 C95.3032974,357.802187 91.5232974,357.612187 88.0732974,356.252187 C87.3190419,356.029855 86.6630161,355.557235 86.2132974,354.912187 C85.9605081,354.406575 85.833576,353.847388 85.8432974,353.282187 C85.5275951,347.621435 86.6707664,341.974444 89.1632974,336.882187 C89.9732974,335.212187 91.5632974,331.332187 93.3632974,330.512187 C95.1632974,329.692187 99.9032974,331.682187 101.913297,332.132187 C114.703297,335.032187 127.713297,337.522187 140.913297,337.612187 C148.199352,337.723662 155.470288,336.913914 162.553297,335.202187 Z"/>
      <ellipse cx="128.634" cy="70.364" fill="#35323E" rx="16.8" ry="34.7" transform="rotate(-83.23 128.634 70.364)"/>
      <circle cx="131.163" cy="34.882" r="12.16" fill="#35323E"/>
      <path fill="#000" d="M119.003297,34.8821874 C119.003297,34.8821874 134.253297,31.9421874 141.683297,36.8821874 C149.113297,41.8221874 119.003297,34.8821874 119.003297,34.8821874 Z" opacity=".1"/>
      <path fill="#F5DD48" d="M172.233297,73.3021874 C172.233297,74.3021874 171.563297,75.4721874 169.233297,73.4321874 C163.353297,68.3021874 149.823297,54.7821874 131.233297,54.7821874 C111.853297,54.7821874 96.1432974,68.6521874 89.2332974,73.4321874 C86.8932974,75.0521874 85.2332974,74.1721874 85.2332974,73.3021874 C85.2332974,69.8921874 105.233297,42.4321874 131.233297,42.4321874 C157.233297,42.4321874 172.233297,69.8921874 172.233297,73.3021874 Z"/>
      <path fill="#000" d="M171.093297,70.0221874 C170.793297,70.6721874 169.973297,70.9521874 168.233297,69.4321874 C162.353297,64.3021874 148.823297,50.7821874 130.233297,50.7821874 C110.853297,50.7821874 95.1432974,64.6521874 88.2332974,69.4321874 C87.7398384,69.7879701 87.1882978,70.0552812 86.6032974,70.2221874 C85.9407591,71.1443346 85.4744773,72.1926177 85.2332974,73.3021874 C85.2332974,74.1721874 86.8932974,75.0521874 89.2332974,73.4321874 C96.1432974,68.6521874 111.853297,54.7821874 131.233297,54.7821874 C149.823297,54.7821874 163.353297,68.3021874 169.233297,73.4321874 C171.563297,75.4321874 172.233297,74.2721874 172.233297,73.3021874 C172.043949,72.1516341 171.658341,71.0421636 171.093297,70.0221874 L171.093297,70.0221874 Z" opacity=".1"/>
      <rect width="3.27" height="18.51" x="169.343" y="73.172" fill="#6A5C99"/>
      <path fill="#F5DD48" d="M164.983297,85.1421874 L164.983297,85.1421874 C171.196501,85.1421874 176.233297,90.1789839 176.233297,96.3921874 L176.233297,97.1221874 C176.233297,103.335391 171.196501,108.372187 164.983297,108.372187 L164.983297,108.372187 L164.983297,85.1421874 Z"/>
      <rect width="5.08" height="25.4" x="162.803" y="84.052" fill="#6A5C99" rx="2.54"/>
      <rect width="3.27" height="18.51" x="85.243" y="73.532" fill="#6A5C99" transform="rotate(-180 86.878 82.787)"/>
      <path fill="#F5DD48" d="M81.6232974,85.5021874 L81.6232974,85.5021874 C87.8365009,85.5021874 92.8732974,90.5389839 92.8732974,96.7521874 L92.8732974,97.4821874 C92.8732974,103.695391 87.8365009,108.732187 81.6232974,108.732187 L81.6232974,108.732187 L81.6232974,85.5021874 L81.6232974,85.5021874 Z" transform="rotate(-180 87.248 97.117)"/>
      <rect width="5.08" height="25.4" x="89.963" y="84.422" fill="#6A5C99" rx="2.54" transform="rotate(-180 92.503 97.122)"/>
    </g>
  </g>
</svg>
