<svg xmlns="http://www.w3.org/2000/svg" width="165" height="169" viewBox="0 0 165 169">
  <g fill="none">
    <path fill="#B9EFE9" d="M141.732675,42.6023614 C149.667184,55.4318659 164.768706,96.4648437 164.768706,113.770949 C164.768706,143.201854 145.871768,156.745091 124.138203,164.980408 C102.404638,173.257529 76.8749997,167.864859 54.0151274,156.870502 C31.11354,145.876145 10.8400037,129.2801 3.74843744,107.082367 C-3.34312878,84.9264373 -0.190237399,55.4318659 12.5990114,34.0932109 C20.4455844,21.0013306 46.1667009,-5.43935123 80.921364,1.5117384 C105.962106,6.52 127.282079,19.2368371 141.732675,42.6023614 Z" transform="matrix(-1 0 0 1 164.81 0)"/>
    <path fill="#07454C" d="M137.808412,139.776521 C129.823851,146.490428 120.547553,152.188422 110.794635,156.870502 C87.9347629,167.864859 62.4051245,173.257529 40.6715598,164.980408 C35.7685428,163.122549 31.0098925,160.99455 26.5800048,158.474939 C31.8200592,139.678155 45.7,138.54 45.7,138.54 L133.41,138.54 C133.41,138.54 135.233615,138.690248 137.808412,139.776521 Z"/>
    <circle cx="89.95" cy="65.07" r="54.76" fill="#252229"/>
    <path fill="#E2B6A6" d="M75.59,109.38 L103.98,109.38 C105.830154,109.38 107.33,110.879846 107.33,112.73 L107.33,137.45 C107.33,147.137075 99.4770745,154.99 89.79,154.99 L89.79,154.99 C80.1029255,154.99 72.25,147.137075 72.25,137.45 L72.25,112.73 C72.25,110.879846 73.7498461,109.38 75.6,109.38 L75.59,109.38 Z"/>
    <path fill="#000" d="M72.27,110.68 L107.360026,110.68 L107.360026,138.75 C107.367965,143.407093 105.523523,147.876171 102.233272,151.172051 C98.9430198,154.46793 94.4770997,156.32 89.82,156.32 L89.82,156.32 C80.1329255,156.32 72.28,148.467075 72.28,138.78 L72.28,110.68 L72.27,110.68 Z" opacity=".1"/>
    <path fill="#000" d="M72.31,123.93 C83.6186913,128.156642 96.0674023,128.192118 107.4,124.03 L107.4,119.72 L72.31,119.72 L72.31,123.93 Z" opacity=".1"/>
    <path fill="#E2B6A6" d="M139.544894,84.9053707 C135.458689,108.575051 114.826985,126.58 89.99,126.58 C65.1500467,126.58 44.5163798,108.570747 40.4336421,84.8968837 C40.1882969,84.9713135 39.9365593,85.01 39.68,85.01 C37.0953074,85.01 35,81.0835373 35,76.24 C35,71.3964627 37.0953074,67.47 39.68,67.47 C39.9423031,67.47 40.1995661,67.5104381 40.4501105,67.5881689 C44.5715745,43.9611173 65.1832654,26 89.99,26 C114.793701,26 135.403384,43.9567243 139.528377,67.5795004 C139.769922,67.5074339 140.017628,67.47 140.27,67.47 C142.854693,67.47 144.95,71.3964627 144.95,76.24 C144.95,81.0835373 142.854693,85.01 140.27,85.01 C140.023377,85.01 139.78121,84.9742522 139.544894,84.9053707 Z"/>
    <path fill="#000" fill-opacity=".2" d="M70.4925865,60 C62.5066214,60 56,66.4827704 56,74.46875 C56,82.4546991 62.5066214,88.9375 70.4925865,88.9375 C78.4785508,88.9375 84.9613365,82.4546991 84.9613365,74.46875 C84.9613365,73.4200199 84.8641134,72.403619 84.6514621,71.4176792 C86.0778118,70.8873329 87.8306405,70.6549114 89.5617792,70.6549114 C91.2929179,70.6549114 93.0457467,70.8873329 94.4720964,71.4176792 C94.2594451,72.403619 94.1383855,73.4200199 94.1383855,74.46875 C94.1383855,82.4546991 100.645007,88.9375 108.630972,88.9375 C116.616936,88.9375 123.099722,82.4546991 123.099722,74.46875 C123.099722,66.4827704 116.616936,60 108.630972,60 C102.773834,60 97.7279681,63.4965951 95.4493925,68.5096273 C93.5654547,67.8105819 91.5055036,67.6038406 89.5617792,67.6038406 C87.6170519,67.6038406 85.542972,67.8118382 83.6503295,68.5096273 C81.3712246,63.4978979 76.348776,60 70.4925865,60 Z M70.4925865,63.0033979 C76.8296301,63.0033979 81.9341021,68.1316911 81.9341021,74.46875 C81.9341021,80.8057479 76.8296301,85.9341021 70.4925865,85.9341021 C64.1555429,85.9341021 59.0272343,80.8057479 59.0272343,74.46875 C59.0272343,68.1316911 64.1555429,63.0033979 70.4925865,63.0033979 Z M108.630972,63.0033979 C114.968015,63.0033979 120.072488,68.1316911 120.072488,74.46875 C120.072488,80.8057479 114.968015,85.9341021 108.630972,85.9341021 C102.293928,85.9341021 97.1656199,80.8057479 97.1656199,74.46875 C97.1656199,68.1316911 102.293928,63.0033979 108.630972,63.0033979 Z"/>
    <path fill="#252229" d="M57.4137128,38.0621369 C76.3541888,44.4091666 102.3867,44.4091666 122.211293,38.0621369 C142.035886,31.7151072 104.127877,22.8224092 88.8027135,22.8224092 C73.47755,22.8224092 38.4732368,31.7151072 57.4137128,38.0621369 Z" transform="matrix(-1 0 0 1 179.753 0)"/>
  </g>
</svg>
