<svg xmlns="http://www.w3.org/2000/svg" viewBox="0 0 62 121">
    <path fill="#0D7F8C" d="M23.524 83.962c-12.927-4.212-5.517-4.063-3.436-8.806.532-1.212-2.906 1.418-4.888.452-.746-.364 3.083-5.442 3.22-5.912.911-3.153-8.512.109-6.232-3.827.702-1.213 4.703-2.22 3.503-2.925-5.331-1.124-7.951-2.658-7.86-4.6.137-2.912 1.85-1.815 2.71-3.687 1.389-3.026-7.657-.082-5.018-4.73 1.447-2.55 4.785-3.054.254-6.335-1.656-1.2-3.545-.844-4.088-2.8-.463-1.67 2.54-.608 2.66-2.345.226-3.253-3.73-5.804-3.551-9.06.08-1.47 2.699-2.155 4.148-1.8 2.317.569 3.412 3.514 5.689 4.213 1.27.39 2.525-1.612 3.817-1.295 2.986.733-.451 5.815.056 6.307.901.874 3.008-2.427 3.62-1.337 1.142 2.035-1.313 4.863-.43 7.022.394.963 5.046-2.517 6.084.052.692 1.713.372 4.868-.962 9.465 1.398 1.336 4.1-.753 5.917-.036 4.312 1.703-3.19 7.604.507 9.691 1.106.624 2.626-1.194 3.795-.778 3.811 1.358-5.05 5.592-.484 7.558 1.436.619 3.313-1.664 4.672-.898 2.86 1.614.07 7.557-.825 8.77"/>
    <path fill="#29A389" d="M3.459 27.746c-1.851 4.591 1.332 8.248 4.575 8.605.937.104-2.604.886-3.013 3.05-.153.815 5.549 2.236 5.957 2.52 2.733 1.906-4.769 5.857-.728 7.439 1.246.488 4.162-1.496 4-.088-2.143 4.63-2.502 7.697-1.078 9.2 2.136 2.252 2.303.171 4.101 1.08 2.907 1.471-4.16 5.414.582 7.32 2.6 1.046 4.797-.879 4.621 4.932-.064 2.125-1.357 3.157-.272 5.114.925 1.67 1.83-1.285 3.125.032 2.425 2.467 2.05 7.287 4.45 9.788 1.085 1.13 3.013-.147 3.56-1.446.584-1.384-2.977-9.684-10.682-24.899-4.443-9.432-7.392-15.434-8.847-18.008-2.758-4.88-6.208-9.76-10.351-14.64z"/>
    <path fill="#0D7F8C" d="M38.272 81.618c-5.018-9.11-.96-5.159 2.677-6.734.93-.403-2.362-.72-2.964-2.297-.226-.594 4.56-1.445 4.882-1.638 2.154-1.293-4.808-4.38-1.481-5.399 1.025-.314 3.783 1.21 3.482.187-2.39-3.413-3.052-5.64-1.988-6.682 1.597-1.563 1.98-.054 3.437-.655 2.355-.973-4.23-4.042-.332-5.274 2.138-.675 4.264.785 3.448-3.421-.3-1.538-1.539-2.324-.821-3.705.612-1.178 1.735.985 2.709.073 1.823-1.708.946-5.204 2.744-6.937.812-.782 2.632.2 3.255 1.155.997 1.528.071 3.752.977 5.332.506.882 2.25.414 2.806 1.266 1.285 1.97-3.285 3.027-3.26 3.568.047.961 2.946.208 2.719 1.14-.425 1.737-3.27 2.042-3.904 3.715-.283.746 4.13 1.22 3.368 3.204-.507 1.323-2.333 2.926-5.476 4.81.083 1.478 2.682 1.716 3.322 3.067 1.518 3.206-5.749 2.602-4.774 5.702.29.928 2.088.7 2.523 1.544 1.42 2.751-5.736.502-4.214 3.988.48 1.097 2.718.796 3.076 1.934.755 2.399-3.904 4.277-5.036 4.49"/>
    <path fill="#33CCAB" d="M23.748 84c-13.018-13.506-4.15-8.608 1.304-13.24 1.395-1.183-4.392-.066-6.188-2.54-.677-.931 7.1-4.872 7.556-5.376 3.057-3.378-10.358-5.274-5.162-8.766 1.602-1.076 7.062.205 6.049-1.444-5.749-4.801-7.966-8.392-6.652-10.772 1.972-3.569 3.362-1.103 5.561-2.906 3.556-2.917-9.205-4.971-3.133-9.13 3.33-2.28 7.678-.79 4.234-7.791-1.26-2.56-3.763-3.314-3.207-6.114.475-2.39 3.448.852 4.67-1.252 2.289-3.942-.913-9.66 1.321-13.632 1.009-1.794 4.6-.99 6.131.377 2.45 2.187 1.947 6.58 4.267 8.905 1.293 1.297 4.051-.417 5.417.802 3.156 2.818-4.15 7.013-3.841 7.953.547 1.67 5.14-1.134 5.204.624.119 3.28-4.601 5.27-4.872 8.541-.121 1.46 7.66.048 7.323 3.935-.225 2.59-2.568 6.347-7.03 11.27.861 2.566 5.424 1.662 7.176 3.717 4.158 4.88-8.57 7.518-5.394 12.49.95 1.486 3.914.17 5.07 1.435 3.766 4.128-9.571 3.81-5.27 9.181 1.353 1.69 5.037.017 6.204 1.843 2.458 3.844-4.6 9.531-6.432 10.484"/>
    <path fill="#29A389" d="M33.847 0c4.729 4.034 3.364 10.014 0 12.343-.97.672 3.388-.558 5.106 1.619.646.82-4.803 5.798-5.086 6.358-1.894 3.756 8.683 3.714 5.158 7.886-1.086 1.286-5.46.802-4.457 2.28 5.073 3.903 7.265 7.118 6.576 9.644-1.034 3.79-2.437 1.562-3.885 3.648-2.34 3.373 7.755 3.58 3.647 8.53-2.252 2.716-5.8 1.87-2.202 8.263 1.315 2.337 3.344 2.723 3.295 5.555-.042 2.418-2.768-.348-3.423 1.894-1.227 4.2 2.01 9.367.83 13.59-.533 1.908-3.405 1.628-4.768.5-1.454-1.2-2.393-12.598-2.817-34.191-.63-13.188-.897-21.653-.802-25.396C31.199 15.427 32.14 7.92 33.847 0z"/>
    <path fill="#5C82D6" d="M12 78l9.959 34.968S25.956 114 35.664 114c9.707 0 12.856-1.03 12.856-1.03L58 78"/>
</svg>
