<svg xmlns="http://www.w3.org/2000/svg" width="59" height="68" viewBox="0 0 59 68">
  <g fill="none" fill-rule="evenodd" transform="translate(-1 -1)">
    <path fill="#000" fill-opacity=".25" d="M60,59.5 C60,64.7482671 46.7913103,69 30.5,69 C14.2070724,69 1,64.7482671 1,59.5 C1,54.2517329 14.2070724,50 30.5,50 C46.7913103,50 60,54.2517329 60,59.5"/>
    <g transform="translate(.574 .838)">
      <path fill="#33CCAB" d="M53.40521,42.5498458 C60.5233927,28.6833287 53.3260053,13.0314009 50.1505191,9.88441838 C45.3871526,5.16380867 39.8554334,3.5767386 33.5281264,3.5767386 C24.9846884,3.5767386 16.0360585,5.32006718 9.84107187,11.175346 C3.64608527,17.0306248 0.709481888,26.4359546 3.50693723,34.4667922 C4.45198432,37.1898426 5.99130949,39.6766072 7.74225563,41.9731905 C38.131422,42.4604902 53.3524069,42.6527086 53.40521,42.5498458 Z"/>
      <g transform="translate(1 37.888)">
        <path fill="#B9EFE9" d="M57.4257327,0.41840428 C43.6775374,0.0906807193 0.451431876,0.42445084 0.451431876,0.42445084 C0.451431876,0.42445084 0.0969599097,9.38787162 2.03858011,12.9347838 C3.73915937,16.0427157 6.17969885,18.7588306 11.5561524,20.6780087 C17.5192571,22.8063979 40.3313221,22.8063979 46.2944267,20.6780087 C51.6717665,18.7588306 54.112306,16.0427157 55.8128852,12.9347838 C57.7536192,9.38787162 57.4000334,0.42445084 57.4000334,0.42445084"/>
        <path fill="#000" fill-rule="nonzero" d="M52.6259891,1.27430063 C52.6259891,14.1169926 44.5592369,20.3768131 28.4257327,20.0537621 C31.0467175,20.8674545 35.0871943,20.9409673 40.547163,20.2743006 C42.9043425,20.2743006 56.4257327,19.6627023 56.4257327,1.27430063 L52.6259891,1.27430063 Z" opacity=".05"/>
      </g>
      <path stroke="#2AA98E" d="M33.4442346,1.5767386 L38.4442346,5.5767386" transform="rotate(29.112 35.944 3.577)"/>
      <path stroke="#2AA98E" d="M20.4442346,26.5767386 L25.4442346,30.5767386" transform="rotate(29.112 22.944 28.577)"/>
      <path stroke="#2AA98E" d="M41.4442346,31.5767386 L46.4442346,35.5767386" transform="rotate(29.112 43.944 33.577)"/>
      <path stroke="#2AA98E" d="M52.4442346,13.5767386 L56.4442346,17.5767386" transform="rotate(132.541 54.444 15.577)"/>
      <path stroke="#2AA98E" d="M53.4442346,31.5767386 L58.4442346,35.5767386" transform="rotate(123.592 55.944 33.577)"/>
      <path stroke="#2AA98E" d="M31.4442346,30.5767386 L36.4442346,34.5767386" transform="rotate(-155.962 33.944 32.577)"/>
      <path stroke="#2AA98E" d="M30.4442346,19.5767386 L33.4442346,24.5767386" transform="rotate(170.691 31.944 22.077)"/>
      <path stroke="#2AA98E" d="M50.4442346,23.5767386 L55.4442346,28.5767386" transform="rotate(-98.419 52.944 26.077)"/>
      <path stroke="#2AA98E" d="M12.4442346,31.5767386 L17.4442346,36.5767386" transform="rotate(123.592 14.944 34.077)"/>
      <path stroke="#2AA98E" d="M13.4442346,19.5767386 L18.4442346,23.5767386" transform="rotate(138.502 15.944 21.577)"/>
      <path stroke="#2AA98E" d="M21.4442346,1.5767386 L26.4442346,5.5767386" transform="rotate(17.555 23.944 3.577)"/>
      <path stroke="#2AA98E" d="M7.44423463,11.5767386 L12.4442346,15.5767386" transform="rotate(-7.776 9.944 13.577)"/>
      <path stroke="#2AA98E" d="M1.44423463,23.5767386 L6.44423463,28.5767386" transform="rotate(160.983 3.944 26.077)"/>
      <path stroke="#2AA98E" d="M37.4442346,12.5767386 L42.4442346,15.5767386" transform="rotate(-10.2 39.944 14.077)"/>
      <path stroke="#2AA98E" d="M21.4442346,12.5767386 L26.4442346,15.5767386" transform="rotate(-10.2 23.944 14.077)"/>
      <path stroke="#2AA98E" d="M43.4442346,20.5767386 L48.4442346,23.5767386" transform="rotate(-10.2 45.944 22.077)"/>
    </g>
  </g>
</svg>
