<svg xmlns="http://www.w3.org/2000/svg" width="62" height="100" viewBox="0 0 62 100">
  <g fill="none" fill-rule="evenodd" transform="translate(8 9)">
    <path fill="#000" fill-opacity=".25" d="M46,9.5 C46,14.7482671 35.7016996,19 23,19 C10.2970395,19 0,14.7482671 0,9.5 C0,4.2517329 10.2970395,0 23,0 C35.7016996,0 46,4.2517329 46,9.5" transform="translate(0 63.3)"/>
    <path fill="#33CCAB" d="M15.7701324,67.6350617 C4.59554086,57.9698436 11.9127106,61.1892019 15.8912262,57.1917023 C16.9083966,56.1696783 12.4283596,57.4419873 10.8443512,55.6311554 C10.2480823,54.9495033 16.1017537,51.3321063 16.4263824,50.9065461 C18.6025153,48.0538236 7.90979303,47.4954471 11.7623199,44.4065461 C12.9497552,43.4544774 17.3365407,44.0801546 16.4263824,42.8602985 C11.5712071,39.5014691 9.57967062,36.8463121 10.4517731,34.8948273 C11.7599267,31.9676002 13.02302,33.800644 14.6314606,32.2385773 C17.2321176,29.7129013 7.04363488,28.9853831 11.5396637,25.3147492 C14.005371,23.3017041 17.5313893,24.1672298 14.3404449,18.9299836 C13.1739565,17.0154447 11.1505676,16.5977507 11.3970856,14.3694367 C11.607514,12.4673413 14.1708228,14.7986917 14.9888824,13.0686554 C16.5210241,9.82847518 13.6091981,5.57779743 15.0963043,2.31670232 C15.7677918,0.844188503 18.6499105,1.22568086 19.9498199,2.18974919 C22.0278242,3.73088584 21.933006,7.20113568 23.9185699,8.85967107 C25.0257276,9.78447645 27.0802478,8.25414212 28.2388824,9.11357732 C30.9168533,11.1000037 25.4515689,14.8838054 25.7584137,15.5979523 C26.3035409,16.8666752 29.7285919,14.3565414 29.8990387,15.7268586 C30.2171961,18.2847044 26.6364784,20.1649486 26.6470856,22.7424836 C26.6518176,23.8923773 32.6828002,22.2524224 32.6828002,25.3147492 C32.6828002,27.3563004 31.0947235,30.4559097 27.9185699,34.6135773 C28.7721679,36.5606928 32.3030566,35.5390579 33.8228668,37.0256867 C37.4308499,40.554898 27.5894608,43.4952916 30.4302887,47.1643586 C31.2796938,48.2614064 33.5241631,47.0274636 34.5201324,47.9377961 C37.7681589,50.9065461 27.2446573,51.5765429 30.9986481,55.4807648 C32.1799722,56.7093645 34.9663924,55.1471797 36.0103668,56.4944367 C38.2088489,59.3315948 33.0403412,64.2653503 31.6627106,65.1370148" transform="rotate(5 23.193 34.486)"/>
    <path fill="#29A389" d="M21.7498369,66.5774968 C18.1912046,63.1358168 19.6119121,58.5009739 22.4297235,56.8546655 C23.2431826,56.3794014 19.6899816,57.1049505 18.4367498,55.2941187 C17.9649953,54.6124665 22.5962881,50.9950695 22.853127,50.5695093 C24.5748343,47.7167868 16.1149936,47.1584103 19.163026,44.0695093 C20.102498,43.1174407 23.5732237,43.7431179 22.853127,42.5232617 C19.0118218,39.1644324 17.4361631,36.5092753 18.1261509,34.5577905 C19.1611325,31.6305634 20.1604634,33.4636073 21.4330253,31.9015405 C23.4906065,29.3758645 15.4297089,28.6483463 18.9868654,24.9777124 C20.9376774,22.9646673 23.7273835,23.830193 21.2027803,18.5929468 C20.279881,16.6784079 18.6790214,16.2607139 18.8740608,14.0323999 C19.040547,12.1303045 21.0685791,14.461655 21.7158094,12.7316187 C22.9280053,9.4914384 20.6242343,5.24076065 21.8007992,1.97966554 C22.3320649,0.507151725 24.6123322,0.888644083 25.6407913,1.85271242 C26.736838,2.88013685 26.8597831,11.9106009 26.0096267,28.9441045 C25.7867647,39.36741 25.5343173,46.0504873 25.2522846,48.9933365 C24.7174928,54.5735807 23.5500103,60.4349675 21.7498369,66.5774968 Z" transform="rotate(176 22.268 33.789)"/>
    <path fill="#F57647" d="M0,39.2992391 L9.95873436,74.2667645 C9.95873436,74.2667645 13.9559517,75.2992391 23.6636884,75.2992391 C33.3714252,75.2992391 36.5199711,74.2695253 36.5199711,74.2695253 L46,39.2992391"/>
  </g>
</svg>
