<svg xmlns="http://www.w3.org/2000/svg" width="70" height="120" viewBox="0 0 70 120">
  <g fill="none" fill-rule="evenodd">
    <path fill="#0D7F8C" d="M15.5298325,75.8645734 C8.41743359,69.8874128 13.0746624,71.8783272 15.6069062,69.406195 C16.2543143,68.7741553 13.4028625,69.5609761 12.3946735,68.4411222 C12.0151605,68.0195751 15.7409026,65.7825058 15.9475222,65.519331 C17.3325862,63.7551514 10.5268873,63.4098404 12.9789418,61.4996034 C13.7347201,60.9108255 16.5268193,61.2977565 15.9475222,60.5433735 C12.8573024,58.4662075 11.5897302,56.8242063 12.1448056,55.6173698 C12.9774186,53.8071151 13.7813516,54.9407054 14.8050911,53.9746927 C16.4603561,52.412765 9.97559534,51.9628535 12.8372257,49.6928614 C14.406598,48.4479548 16.6508365,48.9832129 14.6198656,45.7443971 C13.8774196,44.5604086 12.589574,44.3020985 12.7464776,42.9240653 C12.880411,41.7477722 14.5119046,43.1895251 15.0325828,42.1196367 C16.0077596,40.1158456 14.154442,37.487143 15.1009547,35.4704178 C15.5283427,34.5597864 17.3627523,34.7957087 18.1901181,35.3919075 C19.5127252,36.3449767 19.4523754,38.4910473 20.7161462,39.5167181 C21.4208294,40.0886359 22.7284895,39.1422471 23.4659367,39.6737387 C25.1704104,40.9021838 21.6918687,43.242161 21.8871691,43.6838035 C22.2341315,44.4684066 24.4141063,42.9160906 24.5225922,43.7635217 C24.7250929,45.3453437 22.4460394,46.5081236 22.4527906,48.1021219 C22.4558025,48.8132387 26.2943995,47.7990585 26.2943995,49.6928614 C26.2943995,50.9553968 25.2836211,52.872256 23.2620644,55.4434393 C23.805362,56.6475737 26.0527004,56.0157747 27.0200285,56.9351351 C29.3164359,59.1176686 23.0525931,60.9360657 24.860722,63.2050888 C25.4013509,63.8835247 26.8299098,63.1204303 27.4638238,63.6833977 C29.5311262,65.519331 22.8331328,65.9336701 25.2224711,68.3481176 C25.9743598,69.1079078 27.7478592,68.1418221 28.4123275,68.9749922 C29.8116164,70.7295465 26.521967,73.7806778 25.6451333,74.3197322" transform="rotate(-22 20.254 55.365)"/>
    <path fill="#33CCAB" d="M27.7701324,76.3358226 C16.5955409,66.6706045 23.9127106,69.8899629 27.8912262,65.8924633 C28.9083966,64.8704393 24.4283596,66.1427482 22.8443512,64.3319164 C22.2480823,63.6502642 28.1017537,60.0328673 28.4263824,59.607307 C30.6025153,56.7545846 19.909793,56.196208 23.7623199,53.107307 C24.9497552,52.1552384 29.3365407,52.7809156 28.4263824,51.5610594 C23.5712071,48.2022301 21.5796706,45.547073 22.4517731,43.5955883 C23.7599267,40.6683611 25.02302,42.501405 26.6314606,40.9393383 C29.2321176,38.4136622 19.0436349,37.686144 23.5396637,34.0155101 C26.005371,32.002465 29.5313893,32.8679907 26.3404449,27.6307445 C25.1739565,25.7162056 23.1505676,25.2985116 23.3970856,23.0701976 C23.607514,21.1681022 26.1708228,23.4994527 26.9888824,21.7694164 C28.5210241,18.5292361 25.6091981,14.2785584 27.0963043,11.0174633 C27.7677918,9.54494944 30.6499105,9.9264418 31.9498199,10.8905101 C34.0278242,12.4316468 33.933006,15.9018966 35.9185699,17.560432 C37.0257276,18.4852374 39.0802478,16.9549031 40.2388824,17.8143383 C42.9168533,19.8007646 37.4515689,23.5845663 37.7584137,24.2987133 C38.3035409,25.5674361 41.7285919,23.0573023 41.8990387,24.4276195 C42.2171961,26.9854653 38.6364784,28.8657095 38.6470856,31.4432445 C38.6518176,32.5931382 44.6828002,30.9531834 44.6828002,34.0155101 C44.6828002,36.0570613 43.0947235,39.1566707 39.9185699,43.3143383 C40.7721679,45.2614537 44.3030566,44.2398189 45.8228668,45.7264476 C49.4308499,49.255659 39.5894608,52.1960525 42.4302887,55.8651195 C43.2796938,56.9621674 45.5241631,55.7282246 46.5201324,56.638557 C49.7681589,59.607307 39.2446573,60.2773038 42.9986481,64.1815258 C44.1799722,65.4101254 46.9663924,63.8479406 48.0103668,65.1951976 C50.2088489,68.0323558 45.0403412,72.9661113 43.6627106,73.8377758" transform="rotate(5 35.193 43.187)"/>
    <path fill="#29A389" d="M33.7498369,75.2782577 C30.1912046,71.8365777 31.6119121,67.2017348 34.4297235,65.5554265 C35.2431826,65.0801624 31.6899816,65.8057115 30.4367498,63.9948796 C29.9649953,63.3132274 34.5962881,59.6958305 34.853127,59.2702702 C36.5748343,56.4175478 28.1149936,55.8591713 31.163026,52.7702702 C32.102498,51.8182016 35.5732237,52.4438788 34.853127,51.2240226 C31.0118218,47.8651933 29.4361631,45.2100363 30.1261509,43.2585515 C31.1611325,40.3313243 32.1604634,42.1643682 33.4330253,40.6023015 C35.4906065,38.0766255 27.4297089,37.3491072 30.9868654,33.6784734 C32.9376774,31.6654282 35.7273835,32.5309539 33.2027803,27.2937077 C32.279881,25.3791688 30.6790214,24.9614749 30.8740608,22.7331609 C31.040547,20.8310654 33.0685791,23.1624159 33.7158094,21.4323796 C34.9280053,18.1921993 32.6242343,13.9415216 33.8007992,10.6804265 C34.3320649,9.20791266 36.6123322,9.58940502 37.6407913,10.5534734 C38.736838,11.5808978 38.8597831,20.6113618 38.0096267,37.6448654 C37.7867647,48.0681709 37.5343173,54.7512483 37.2522846,57.6940975 C36.7174928,63.2743417 35.5500103,69.1357284 33.7498369,75.2782577 Z" transform="rotate(176 34.268 42.49)"/>
    <path fill="#5C82D6" d="M12,68 L21.9587344,102.967525 C21.9587344,102.967525 25.9559517,104 35.6636884,104 C45.3714252,104 48.5199711,102.970286 48.5199711,102.970286 L58,68"/>
  </g>
</svg>
