<svg xmlns="http://www.w3.org/2000/svg" width="84" height="140" viewBox="0 0 84 140">
  <g fill="none" fill-rule="evenodd">
    <path fill="#000" fill-opacity=".25" d="M46,9.5 C46,14.7482671 35.7016996,19 23,19 C10.2970395,19 0,14.7482671 0,9.5 C0,4.2517329 10.2970395,0 23,0 C35.7016996,0 46,4.2517329 46,9.5" transform="translate(19 112)"/>
    <path fill="#0D7F8C" d="M18.7816604,93.5563268 C8.37327174,84.8092625 15.1887285,87.7227958 18.8944511,84.1050413 C19.8418777,83.1801052 15.6690213,84.3315503 14.1936228,82.6927396 C13.638238,82.0758414 19.0905435,78.8020815 19.3929136,78.4169476 C21.4198366,75.8352214 11.4602771,75.3298883 15.0486497,72.5344194 C16.1546666,71.6727932 20.2406655,72.2390338 19.3929136,71.1350587 C14.8706407,68.0953036 13.015657,65.6923749 13.8279624,63.9262727 C15.0464205,61.2771195 16.2229079,62.9360321 17.7210633,61.522355 C20.1434023,59.2366072 10.6535085,58.5782001 14.8412602,55.2562605 C17.1379025,53.4344459 20.422154,54.2177504 17.4500016,49.4780199 C16.3634952,47.7453539 14.4788431,47.3673391 14.7084581,45.3507052 C14.9044582,43.6293006 17.2920099,45.7391829 18.053978,44.1734926 C19.481066,41.2411154 16.7688938,37.3942336 18.1540343,34.4429284 C18.7794802,33.110297 21.463982,33.4555492 22.6747612,34.3280352 C24.6102839,35.7227706 24.5219671,38.8633617 26.3713878,40.3643435 C27.4026315,41.2012963 29.3162804,39.8163371 30.3954715,40.5941297 C32.8898232,42.3918542 27.7992744,45.8162111 28.0850799,46.4625172 C28.5928296,47.6107169 31.7830367,45.3390349 31.9417966,46.5791779 C32.238139,48.8940394 28.9029387,50.5956686 28.9128186,52.928349 C28.9172262,53.9690077 34.5346853,52.4848415 34.5346853,55.2562605 C34.5346853,57.1038732 33.0554974,59.9090331 30.0971217,63.6717403 C30.8921914,65.4338882 34.1809793,64.5093042 35.5965814,65.8547097 C38.9571776,69.0486613 29.7905784,71.7097302 32.4366206,75.0302517 C33.2277849,76.0230848 35.3183588,74.9063612 36.246038,75.730216 C39.2713586,78.4169476 29.4694169,79.0232976 32.9660096,82.5566354 C34.0663344,83.6685234 36.6616995,82.2547394 37.6340922,83.4740129 C39.681832,86.0416533 34.8677109,90.5067234 33.5845396,91.2955835" transform="rotate(-22 25.696 63.556)"/>
    <path fill="#29A389" d="M23.7498369,100.278258 C20.1912046,96.8365777 21.6119121,92.2017348 24.4297235,90.5554265 C25.2431826,90.0801624 21.6899816,90.8057115 20.4367498,88.9948796 C19.9649953,88.3132274 24.5962881,84.6958305 24.853127,84.2702702 C26.5748343,81.4175478 18.1149936,80.8591713 21.163026,77.7702702 C22.102498,76.8182016 25.5732237,77.4438788 24.853127,76.2240226 C21.0118218,72.8651933 19.4361631,70.2100363 20.1261509,68.2585515 C21.1611325,65.3313243 22.1604634,67.1643682 23.4330253,65.6023015 C25.4906065,63.0766255 17.4297089,62.3491072 20.9868654,58.6784734 C22.9376774,56.6654282 25.7273835,57.5309539 23.2027803,52.2937077 C22.279881,50.3791688 20.6790214,49.9614749 20.8740608,47.7331609 C21.040547,45.8310654 23.0685791,48.1624159 23.7158094,46.4323796 C24.9280053,43.1921993 22.6242343,38.9415216 23.8007992,35.6804265 C24.3320649,34.2079127 26.6123322,34.589405 27.6407913,35.5534734 C28.736838,36.5808978 28.8597831,45.6113618 28.0096267,62.6448654 C27.7867647,73.0681709 27.5343173,79.7512483 27.2522846,82.6940975 C26.7174928,88.2743417 25.5500103,94.1357284 23.7498369,100.278258 Z" transform="scale(1 -1) rotate(24 341.78 0)"/>
    <path fill="#0D7F8C" d="M53.1628532,95.0381376 C45.2137015,88.332055 50.4188396,90.5657639 53.2489944,87.7921521 C53.9725683,87.0830344 50.7856515,87.965809 49.658852,86.7093875 C49.2346905,86.2364322 53.3987552,83.7265496 53.6296829,83.4312803 C55.1776957,81.4519569 47.5713262,81.0645348 50.3118578,78.921342 C51.1565511,78.2607619 54.2771326,78.6948797 53.6296829,77.8484987 C50.1759079,75.5180198 48.7592095,73.6757745 49.3795879,72.3217629 C50.3101554,70.2907454 51.2086687,71.5625784 52.3528482,70.4787592 C54.2028502,68.7263526 46.9551764,68.2215738 50.1534692,65.6747535 C51.9074735,64.278029 54.41574,64.8785624 52.1458315,61.244769 C51.3160389,59.9163918 49.876682,59.6265804 50.0520449,58.0804944 C50.2017351,56.7607509 52.0251692,58.3783273 52.6071036,57.1779647 C53.6970071,54.9298089 51.6256521,51.9805328 52.6835192,49.7178655 C53.1611882,48.6961814 55.2114107,48.9608748 56.1361136,49.6297808 C57.6143216,50.6990779 57.5468718,53.1068644 58.9593215,54.2576171 C59.7469087,54.8992809 61.2084111,53.8374789 62.0326168,54.4337865 C63.9376168,55.812042 60.0498349,58.4373823 60.2681118,58.9328836 C60.6558933,59.81317 63.0923358,58.0715472 63.2135847,59.0223235 C63.439909,60.7970507 60.8927315,62.101633 60.900277,63.8900213 C60.9036432,64.6878597 65.1938399,63.5499989 65.1938399,65.6747535 C65.1938399,67.0912565 64.0641464,69.2418791 61.8047595,72.1266213 C62.4119745,73.4776014 64.9237057,72.7687537 66.0048371,73.8002312 C68.57141,76.2489274 61.5706446,78.2890802 63.5914944,80.8348134 C64.1957268,81.5959854 65.7923514,80.7398307 66.5008436,81.3714527 C68.811358,83.4312803 61.3253653,83.8961486 63.9958023,86.6050409 C64.8361484,87.4574884 66.8182949,86.3735873 67.5609359,87.3083636 C69.124847,89.276888 65.44818,92.7001084 64.4681894,93.3049011" transform="rotate(21 58.443 72.038)"/>
    <path fill="#33CCAB" d="M30.748098,94 C17.730077,80.4942798 26.5971982,85.3919917 32.0522567,80.7608992 C33.4469287,79.5768871 27.6602778,80.694053 25.8635641,78.2202604 C25.1872264,77.2890496 32.9637023,73.3484889 33.4197687,72.8444972 C36.4769871,69.4660134 23.0621159,67.5703055 28.2581992,64.0782301 C29.8597487,63.0018942 35.3195893,64.2829056 34.3069902,62.6338692 C28.558192,57.8325064 26.3409551,54.2420267 27.6552797,51.86243 C29.6267665,48.2930351 31.0165695,50.7593858 33.2159894,48.9557078 C36.7721898,46.0393752 24.0114811,43.9850096 30.082739,39.8261628 C33.4123318,37.5453725 37.7608681,39.0351853 34.316687,32.0348926 C33.0576248,29.4758507 30.5535287,28.7211585 31.1099302,25.9208137 C31.5848761,23.5304311 34.5584438,26.7734823 35.7802381,24.6689022 C38.0685332,20.7272398 34.8673513,15.0098834 37.1011928,11.0366803 C38.1098609,9.24262145 41.7002383,10.0467123 43.2322599,11.414427 C45.6813132,13.600823 45.1791622,17.9940171 47.4987644,20.3191283 C48.7921831,21.6156188 51.5503149,19.9017339 52.91582,21.1209852 C56.0719338,23.9390603 48.7666081,28.1339071 49.0745905,29.0742208 C49.6217388,30.744742 54.2152402,27.9396586 54.2789623,29.6975043 C54.3979066,32.9787141 49.6776676,34.9671898 49.4068236,38.2392401 C49.2859943,39.698972 57.0678989,38.2874561 56.7302307,42.1735258 C56.5051185,44.764239 54.1618263,48.521308 49.700354,53.4447326 C50.5614765,56.0103762 55.1242394,55.1059371 56.87579,57.161191 C61.0339175,62.0403009 48.3062208,64.6790231 51.4820526,69.6504374 C52.4316236,71.136886 55.396474,69.8202083 56.5513535,71.0859883 C60.3176137,75.2139138 46.9805707,74.8957896 51.2813667,80.2669954 C52.6347622,81.9572327 56.3188473,80.2841871 57.4860519,82.1097508 C59.9440417,85.9541641 52.8859549,91.6412426 51.0535608,92.5944303"/>
    <path fill="#29A389" d="M40.8472861,10 C45.5756666,14.0335069 44.2108937,20.0142027 40.8472861,22.3429036 C39.8762639,23.015164 44.2352245,21.7846942 45.9525131,23.9616078 C46.5989527,24.7810642 41.1499313,29.7600397 40.8673199,30.3203383 C38.9728486,34.0762728 49.5500571,34.0343399 46.0254742,38.2058042 C44.9391187,39.4915431 40.5652091,39.0077243 41.5675587,40.4851552 C46.6405269,44.389026 48.8325678,47.6040921 48.1436814,50.1303534 C47.1103518,53.9197454 45.7071201,51.6923422 44.2593068,53.7781158 C41.918365,57.1505635 52.0137926,57.3575492 47.9062104,62.3088912 C45.6535345,65.024301 42.1063081,64.1773216 45.7040598,70.5705101 C47.0192615,72.9076177 49.0479468,73.2938726 48.9991353,76.126129 C48.9574696,78.5437515 46.2306115,75.7777119 45.5756666,78.0204405 C44.349022,82.2208407 47.5860812,87.3872062 46.405601,91.6108805 C45.8725673,93.518037 43.0014821,93.2375334 41.6376234,92.1104793 C40.1841354,90.9093581 39.2452332,79.5120423 38.8209168,57.9185319 C38.1911712,44.7310928 37.9237457,36.2660667 38.0186402,32.5234537 C38.1985797,25.4266939 39.1414616,17.918876 40.8472861,10 Z"/>
    <path fill="#F57647" d="M19,88 L28.9587344,122.967525 C28.9587344,122.967525 32.9559517,124 42.6636884,124 C52.3714252,124 55.5199711,122.970286 55.5199711,122.970286 L65,88"/>
  </g>
</svg>
