<svg xmlns="http://www.w3.org/2000/svg" width="83" height="74" viewBox="0 0 83 74">
  <g fill="none" fill-rule="evenodd" transform="translate(0 -1)">
    <path fill="#000" fill-opacity=".25" d="M83,65.5 C83,70.7482671 64.418284,75 41.5,75 C18.5794408,75 0,70.7482671 0,65.5 C0,60.2517329 18.5794408,56 41.5,56 C64.418284,56 83,60.2517329 83,65.5"/>
    <g transform="translate(.574 .838)">
      <g transform="translate(15.444 .577)">
        <path fill="#29A389" d="M59.5485258,48.5542733 C67.5894358,32.5544459 59.4590537,14.4945292 55.8719305,10.8633955 C50.4910906,5.41653816 44.2422966,3.58530346 37.0947832,3.58530346 C27.4438625,3.58530346 17.335225,5.59683644 10.3371845,12.3529274 C3.33914411,19.1090183 0.0218699238,29.9613219 3.18195837,39.227673 C4.24951156,42.3696543 5.98837888,45.238998 7.96629953,47.8889018 C42.2948023,48.4511707 59.4888778,48.6729611 59.5485258,48.5542733 Z"/>
        <path stroke="#20826D" d="M37.4641026,1.13857695 L43.163016,5.71856591" transform="rotate(29.112 40.314 3.429)"/>
        <path stroke="#000" stroke-opacity=".2" d="M22.7013908,29.7100055 L28.4003042,34.2899945" transform="rotate(29.112 25.55 32)"/>
        <path stroke="#000" stroke-opacity=".2" d="M46.5488484,35.4242912 L52.2477618,40.0042802" transform="rotate(29.112 49.398 37.714)"/>
        <path stroke="#20826D" d="M59.0501979,14.8722668 L63.5938699,19.4134475" transform="rotate(132.541 61.322 17.143)"/>
        <path stroke="#20826D" d="M60.1805353,35.4470216 L65.8703122,39.9815498" transform="rotate(123.592 63.025 37.714)"/>
        <path stroke="#000" stroke-opacity=".2" d="M35.1949721,34.2813691 L40.8897737,38.861488" transform="rotate(-155.962 38.042 36.571)"/>
        <path stroke="#000" stroke-opacity=".2" d="M34.0704103,21.7165002 L37.4719626,27.426357" transform="rotate(170.691 35.771 24.571)"/>
        <path stroke="#000" stroke-opacity=".2" d="M56.7592603,26.3008546 L62.4780278,31.9848597" transform="rotate(-98.419 59.619 29.143)"/>
        <path stroke="#2AA98E" d="M13.6228871,35.4495418 L19.3093163,41.1218868" transform="rotate(123.592 16.466 38.286)"/>
        <path stroke="#000" stroke-opacity=".2" d="M14.7619489,21.729676 L20.4414409,26.270324" transform="rotate(138.502 17.602 24)"/>
        <path stroke="#20826D" d="M23.8416276,1.1389565 L29.5312537,5.71818635" transform="rotate(17.555 26.686 3.429)"/>
        <path stroke="#20826D" d="M7.95076763,12.5741289 L13.6255036,17.1401568" transform="rotate(-7.776 10.788 14.857)"/>
        <path stroke="#2AA98E" d="M1.13925943,26.2932367 L6.80989311,31.9924776" transform="rotate(160.983 3.975 29.143)"/>
        <path stroke="#000" stroke-opacity=".2" d="M42.0182787,13.7177923 L47.6935857,17.1393506" transform="rotate(-10.2 44.856 15.429)"/>
        <path stroke="#000" stroke-opacity=".2" d="M23.8487871,13.7177923 L29.5240942,17.1393506" transform="rotate(-10.2 26.686 15.429)"/>
        <path stroke="#000" stroke-opacity=".2" d="M48.831838,22.8606494 L54.5071451,26.2822077" transform="rotate(-10.2 51.67 24.571)"/>
      </g>
      <g transform="translate(.444 19.577)">
        <path fill="#33CCAB" d="M35.8992034,29.5659958 C40.7764767,19.6105476 35.8449335,8.37326613 33.6691374,6.11389407 C30.4053492,2.72473838 26.6150972,1.58530346 22.2797202,1.58530346 C16.425883,1.58530346 10.2944144,2.83692398 6.04970132,7.0407139 C1.80498828,11.2445038 -0.207128856,17.9970483 1.7096461,23.7627778 C2.35717837,25.7177884 3.41190117,27.5031578 4.61162353,29.1519869 C25.4338301,29.501843 35.8630234,29.639846 35.8992034,29.5659958 Z"/>
        <path stroke="#28A388" d="M22.9252922,0.696884107 L26.4136908,3.50136662" transform="rotate(29.112 24.67 2.1)"/>
        <path stroke="#28A388" d="M13.8913939,18.1895955 L17.3797925,20.994078" transform="rotate(29.112 15.636 19.592)"/>
        <path stroke="#28A388" d="M28.4846142,21.6881378 L31.9730129,24.4926203" transform="rotate(29.112 30.229 23.09)"/>
        <path stroke="#2AA98E" d="M34.1351646,9.10618964 L36.9156829,11.885064" transform="rotate(132.541 35.525 10.496)"/>
        <path stroke="#28A388" d="M36.8266117,21.7031367 L40.3089815,24.4776213" transform="rotate(123.592 38.568 23.09)"/>
        <path stroke="#28A388" d="M21.5368183,20.9883864 L25.0225037,23.7929547" transform="rotate(-155.962 23.28 22.39)"/>
        <path stroke="#28A388" d="M20.8491823,13.2959219 L22.9304787,16.7915417" transform="rotate(170.691 21.89 15.044)"/>
        <path stroke="#28A388" d="M34.732301,16.103285 L38.2338007,19.5818462" transform="rotate(-98.419 36.483 17.843)"/>
        <path stroke="#28A388" d="M8.33619082,21.7047997 L11.8163515,25.1756668" transform="rotate(123.592 10.076 23.44)"/>
        <path stroke="#28A388" d="M9.03339487,13.3046161 L12.508978,16.083139" transform="rotate(138.502 10.771 14.694)"/>
        <path stroke="#28A388" d="M14.5893733,0.697134564 L18.0716436,3.50111617" transform="rotate(17.555 16.33 2.1)"/>
        <path stroke="#28A388" d="M4.86547252,7.69857486 L8.33791731,10.493845" transform="rotate(-7.776 6.602 9.096)"/>
        <path stroke="#28A388" d="M0.697334456,16.0982582 L4.16707232,19.586873" transform="rotate(160.983 2.432 17.843)"/>
        <path stroke="#28A388" d="M25.7127417,8.39881532 L29.1855634,10.493313" transform="rotate(-10.2 27.45 9.446)"/>
        <path stroke="#28A388" d="M14.5940976,8.39881532 L18.0669193,10.493313" transform="rotate(-10.2 16.33 9.446)"/>
        <path stroke="#28A388" d="M29.8822332,13.996483 L33.3550549,16.0909806" transform="rotate(-10.2 31.619 15.044)"/>
      </g>
      <g transform="translate(0 43.888)">
        <path fill="#B9EFE9" d="M81.4257327,0.41840428 C67.6775374,0.0906807193 0.451431876,0.42445084 0.451431876,0.42445084 C0.451431876,0.42445084 0.0969599097,9.38787162 2.03858011,12.9347838 C3.73915937,16.0427157 6.17969885,18.7588306 11.5561524,20.6780087 C17.5192571,22.8063979 64.3313221,22.8063979 70.2944267,20.6780087 C75.6717665,18.7588306 78.112306,16.0427157 79.8128852,12.9347838 C81.7536192,9.38787162 81.4000334,0.42445084 81.4000334,0.42445084"/>
        <path fill="#000" fill-rule="nonzero" d="M76.6259891,1.27430063 C76.6259891,14.1169926 63.2259036,20.3768131 36.4257327,20.0537621 C39.0467175,20.8674545 48.4205276,20.9409673 64.547163,20.2743006 C66.9043425,20.2743006 80.4257327,19.6627023 80.4257327,1.27430063 L76.6259891,1.27430063 Z" opacity=".05"/>
      </g>
    </g>
  </g>
</svg>
