<svg xmlns="http://www.w3.org/2000/svg" width="42" height="56" viewBox="0 0 42 56">
  <g fill="none" fill-rule="evenodd" transform="translate(-1 -1)">
    <path fill="#000" fill-opacity=".25" d="M43,47.5 C43,52.7482671 33.5972039,57 22,57 C10.4016447,57 1,52.7482671 1,47.5 C1,42.2517329 10.4016447,38 22,38 C33.5972039,38 43,42.2517329 43,47.5"/>
    <g transform="translate(.574 .838)">
      <path fill="#33CCAB" d="M36.7228687,28.5587321 C41.4786637,19.2742054 36.6699505,8.7942311 34.548347,6.68712353 C31.3658502,3.52637113 27.670002,2.46372544 23.4426063,2.46372544 C17.7345708,2.46372544 11.7558188,3.63099627 7.61682896,7.55148275 C3.4778391,11.4719692 1.51583782,17.7694436 3.38487161,23.1466069 C4.01627578,24.9698646 5.04472857,26.6349137 6.21456941,28.1726242 C26.5181568,28.4989028 36.6875899,28.6276054 36.7228687,28.5587321 Z"/>
      <g transform="translate(0 25.888)">
        <path fill="#B9EFE9" d="M41.4257327,0.41840428 C27.6775374,0.0906807193 0.451431876,0.42445084 0.451431876,0.42445084 C0.451431876,0.42445084 0.0969599097,9.38787162 2.03858011,12.9347838 C3.73915937,16.0427157 6.17969885,18.7588306 11.5561524,20.6780087 C17.5192571,22.8063979 24.3313221,22.8063979 30.2944267,20.6780087 C35.6717665,18.7588306 38.112306,16.0427157 39.8128852,12.9347838 C41.7536192,9.38787162 41.4000334,0.42445084 41.4000334,0.42445084 C41.4000334,0.42445084 14.1730417,0.0906807193 0.425732659,0.41840428"/>
        <path fill="#000" fill-rule="nonzero" d="M36.6259891,1.27430063 C36.6259891,14.1169926 28.5592369,20.3768131 12.4257327,20.0537621 C15.0467175,20.8674545 19.0871943,20.9409673 24.547163,20.2743006 C26.9043425,20.2743006 40.4257327,19.6627023 40.4257327,1.27430063 L36.6259891,1.27430063 Z" opacity=".05"/>
      </g>
      <path stroke="#2AA98E" d="M23.418316,1 L26.534858,3.99964261" transform="rotate(29.112 24.977 2.5)"/>
      <path stroke="#2AA98E" d="M35.5709268,9.0656202 L38.6825176,12.0548887" transform="rotate(132.541 37.127 10.56)"/>
      <path stroke="#2AA98E" d="M36.4257327,21.1620421 L39.5389156,24.1503916" transform="rotate(123.592 37.982 22.656)"/>
      <path stroke="#2AA98E" d="M21.4257327,20.1620421 L24.5412372,23.1618123" transform="rotate(-155.962 22.983 21.662)"/>
      <path stroke="#2AA98E" d="M20.4257327,13.1620421 L23.5356927,16.1584265" transform="rotate(170.691 21.98 14.66)"/>
      <path stroke="#2AA98E" d="M34.2265932,15.794382 L37.347162,18.7855617" transform="rotate(-98.419 35.787 17.29)"/>
      <path stroke="#2AA98E" d="M8.55847395,21.1743309 L11.6716568,24.1626804" transform="rotate(123.592 10.115 22.669)"/>
      <path stroke="#2AA98E" d="M9.90741314,13.1026805 L13.0181345,16.0928156" transform="rotate(138.502 11.463 14.598)"/>
      <path stroke="#2AA98E" d="M15.3125693,1.00001534 L18.4267437,3.99967979" transform="rotate(17.555 16.87 2.5)"/>
      <path stroke="#2AA98E" d="M5.85493903,7.72533059 L8.9650415,10.7219974" transform="rotate(-7.776 7.41 9.224)"/>
      <path stroke="#2AA98E" d="M1.80242441,15.7966883 L4.91185068,18.7911528" transform="rotate(160.983 3.357 17.294)"/>
      <path stroke="#2AA98E" d="M25.4257327,8.16204205 L28.5356169,11.1582592" transform="rotate(-10.2 26.98 9.66)"/>
    </g>
  </g>
</svg>
