<svg xmlns="http://www.w3.org/2000/svg" width="61" height="74" viewBox="0 0 61 74">
  <g fill="none" fill-rule="evenodd" transform="translate(-3 -1)">
    <path fill="#000" fill-opacity=".25" d="M48.5876364,65.2878788 C48.5876364,70.5361459 38.497261,74.7878788 26.0520117,74.7878788 C13.6055269,74.7878788 3.51515152,70.5361459 3.51515152,65.2878788 C3.51515152,60.0396117 13.6055269,55.7878788 26.0520117,55.7878788 C38.497261,55.7878788 48.5876364,60.0396117 48.5876364,65.2878788"/>
    <g transform="translate(.03 .064)">
      <g transform="rotate(-9 80.108 3.101)">
        <path fill="#2AA98E" d="M4.01313553,19.1905519 C3.64280307,25.1074268 11.2260585,32 11.2260585,32 L11.2260585,32 C17.1243463,27.5266864 16.8828643,17.0601862 16.8828643,17.0601862 L16.8828643,17.0601862 C17.2937442,14.6182149 16.5810118,13.8332955 15.4114461,11.8837156 L15.4114461,11.8837156 C14.2418803,9.93595276 12.7218052,8.35430388 11.4351026,6.5210084 L11.4351026,6.5210084 C10.1502022,4.68771292 9.06803847,2.470134 9.04010585,0 L9.04010585,0 C6.70187535,6.20031797 4.43482797,12.4669543 4.01313553,19.1905519"/>
        <path stroke="#000" stroke-opacity=".2" d="M1,12 C11.875,24.1505092 21.5416667,27.7836218 30,22.8993379" transform="rotate(42 15.5 18.5)"/>
      </g>
      <path fill="#2AA98E" d="M33.1841753,8.11275758 C31.7571753,10.1317576 30.0691753,11.8727576 28.7721753,14.0177576 L28.7721753,14.0177576 C27.4741753,16.1627576 26.6831753,17.0267576 27.1381753,19.7147576 L27.1381753,19.7147576 C27.1381753,19.7147576 26.8701753,31.2367576 33.4161753,36.1597576 L33.4161753,36.1597576 C33.4161753,36.1597576 41.8331753,28.5737576 41.4211753,22.0597576 L41.4211753,22.0597576 C40.9531753,14.6587576 38.4381753,7.76075758 35.8421753,0.935757576 L35.8421753,0.935757576 C35.8121753,3.65475758 34.6121753,6.09575758 33.1841753,8.11275758"/>
      <path stroke="#000" stroke-opacity=".2" d="M22.5918686,10.5033631 C32.6099986,19.4547306 39.842298,24.1891875 44.2887667,24.7067339" transform="scale(-1 1) rotate(42 0 -69.51)"/>
      <path fill="#F5DD48" d="M3.03970869,52.1209697 C2.82831475,55.1493333 3.4527996,58.2833939 5.10904202,60.8278788 C7.17255717,64.0007273 10.6712238,66.0235152 14.3163147,67.0484848 C17.9167996,68.0608485 21.6966784,68.2014545 25.4358299,68.312 C29.1749814,68.2014545 32.9538905,68.0608485 36.5543754,67.0484848 C40.1994663,66.0235152 43.6981329,64.0007273 45.7626178,60.8278788 C47.4188602,58.2833939 48.043345,55.1493333 47.8319511,52.1209697 C47.6205572,49.0926061 46.3977693,45.8033939 45.0140117,43.1008485 C44.5294404,42.1551089 43.4104929,41.1156892 42.7232185,40.7296453 C42.7232185,40.5744235 8.48315313,40.5744235 8.43301824,40.5744235 C6.99014375,41.6279573 5.98101228,42.3324888 5.2098905,43.8378182 C3.82516323,46.5393939 3.25013293,49.0926061 3.03970869,52.1209697 Z"/>
      <path fill="#000" fill-rule="nonzero" d="M35.8157254,42.0257558 C44.0497868,53.624857 43.4098834,63.9819108 24.1248485,66.8403524 C20.5768154,67.3246172 19.1793329,67.5685401 19.9324009,67.5721212 L27.5385548,67.5721212 C50.1348435,66.9333313 48.7750468,51.4758697 43.3727148,42.1161837 C43.3727148,42.0257558 35.8157254,42.1161837 35.8157254,42.0257558 Z" opacity=".05"/>
      <path fill="#2AA98E" d="M47.1741753,29.5797576 C46.2951753,29.5877576 45.4021753,29.5497576 44.5071753,29.5127576 L44.5071753,29.5127576 C41.6151753,29.3917576 38.7021753,29.2697576 36.2121753,30.6647576 L36.2121753,30.6647576 L29.5041753,44.3277576 C34.0441753,45.9847576 39.2141753,46.7007576 43.9131753,45.6067576 L43.9131753,45.6067576 C48.6131753,44.5147576 52.9931753,41.7287576 55.7061753,37.6477576 L55.7061753,37.6477576 C58.6351753,33.2377576 63.4081753,23.1557576 63.4081753,23.1557576 L63.4081753,23.1557576 C63.4081753,23.1557576 53.1021753,29.5297576 47.1741753,29.5797576"/>
      <path stroke="#000" stroke-opacity=".2" d="M33.4450188,25.1557576 C46.6488073,35.9244189 56.0505261,40.4752752 61.6501753,38.8083266" transform="matrix(-1 0 0 1 95.095 0)"/>
      <path fill="#33CCAB" d="M22.9372356,10.9624691 C22.7661408,12.979687 22.4642614,14.5970003 21.6777627,16.4461167 L21.6777627,16.4461167 C20.4120192,19.4232826 18.2191388,21.934188 16.8432138,24.8635776 L16.8432138,24.8635776 C14.6897479,29.4474398 14.7237878,34.9806331 16.9327923,39.537953 L16.9327923,39.537953 C17.9154679,41.5666725 19.3379736,43.4299448 21.2388283,44.6659332 L21.2388283,44.6659332 C23.1405787,45.903691 27.0650105,45.945274 27.1931077,45.934657 L27.1931077,45.934657 C29.4890033,45.7479759 32.291913,44.0395339 33.5693016,42.0922109 L33.5693016,42.0922109 C34.8762512,40.1006506 36.0927265,37.9834566 36.5173284,35.6468458 L36.5173284,35.6468458 C37.3907182,30.8391432 34.7723402,26.0862948 31.6935289,22.2624283 L31.6935289,22.2624283 C28.6156135,18.4385617 23.1074347,7.93575758 23.1074347,7.93575758 L23.1074347,7.93575758 C23.1074347,7.93575758 22.9426104,10.9023065 22.9372356,10.9624691"/>
      <path stroke="#000" stroke-opacity=".2" d="M23.969697,11.9357576 C27.0371154,27.0737508 27.5258263,37.9841892 25.4358299,44.6670726"/>
    </g>
  </g>
</svg>
