<svg xmlns="http://www.w3.org/2000/svg" width="120" height="120" viewBox="0 0 120 120">
  <g fill="none" fill-rule="evenodd">
    <g transform="translate(27.102 18)">
      <path fill="#2AA98E" d="M7.92059187,31.7843516 C7.2938754,41.5841756 20.1270769,53 20.1270769,53 L20.1270769,53 C30.1087948,45.5910743 29.7001329,28.2559335 29.7001329,28.2559335 L29.7001329,28.2559335 C30.395468,24.2114184 29.1893056,22.9113956 27.2100405,19.682404 L27.2100405,19.682404 C25.2307753,16.4564218 22.6583405,13.8368158 20.4808439,10.8004202 L20.4808439,10.8004202 C18.306397,7.76402453 16.475043,4.09115944 16.4277724,0 L16.4277724,0 C12.4707669,10.2692766 8.63422522,20.6483931 7.92059187,31.7843516"/>
      <path stroke="#000" stroke-opacity=".2" d="M2,20.2177883 C20.2963117,40.6213116 36.568165,46.7145595 50.8155599,38.497532" transform="rotate(42 26.408 31.127)"/>
    </g>
    <g transform="translate(36 68)">
      <path fill="#000" fill-opacity=".25" d="M49,33.5 C49,38.7482671 38.2542419,43 25.0006579,43 C11.7457581,43 1,38.7482671 1,33.5 C1,28.2517329 11.7457581,24 25.0006579,24 C38.2542419,24 49,28.2517329 49,33.5"/>
      <path fill="#294FA3" d="M0.0821041166,15.1833389 C-0.144027681,19.1435068 0.523994694,23.2418937 2.29570621,26.569297 C4.50308449,30.7184065 8.24566947,33.3635907 12.144887,34.7039357 C15.9963887,36.0277958 20.0397912,36.2116653 24.039627,36.3562247 C28.0394629,36.2116653 32.0818281,36.0277958 35.9333298,34.7039357 C39.8325473,33.3635907 43.5751323,30.7184065 45.7835479,26.569297 C47.5552594,23.2418937 48.2232818,19.1435068 47.99715,15.1833389 C47.7710182,11.2231711 46.4629806,6.92189372 44.9827509,3.38779581 C44.4643964,2.15105945 43.2674387,0.79181831 42.5322493,0.286991622 C42.5322493,0.084009324 5.90505193,0.084009324 5.85142176,0.084009324 C4.30795366,1.46170732 3.22846806,2.38301772 2.4035856,4.35152542 C0.922318594,7.88435526 0.307198612,11.2231711 0.0821041166,15.1833389 Z"/>
      <path fill="#000" fill-rule="nonzero" d="M35.3296492,1.98190533 C44.1827174,17.1499608 43.4947084,30.6938003 22.7598948,34.4317625 C18.9451335,35.0650318 17.4425933,35.384008 18.2522743,35.3886909 L26.4302311,35.3886909 C50.7252265,34.5533502 49.2632052,14.3397467 43.4547456,2.10015727 C43.4547456,1.98190533 35.3296492,2.10015727 35.3296492,1.98190533 Z" opacity=".05"/>
    </g>
    <g transform="translate(52 9)">
      <path fill="#2AA98E" d="M18.6131351,9.96039304 C16.6289884,12.7624041 14.2819388,15.1786009 12.4785483,18.1554775 L12.4785483,18.1554775 C10.6737673,21.132354 9.57393543,22.3314316 10.2065821,26.0618951 L10.2065821,26.0618951 C10.2065821,26.0618951 9.83394625,42.0523714 18.9357154,48.8846154 L18.9357154,48.8846154 C18.9357154,48.8846154 30.6389832,38.3566035 30.0661251,29.3163359 L30.0661251,29.3163359 C29.4154028,19.0450709 25.9184659,9.47187997 22.3089039,0 L22.3089039,0 C22.2671909,3.77348595 20.5986723,7.1611576 18.6131351,9.96039304"/>
      <path stroke="#000" stroke-opacity=".2" d="M3.60017462,13.1120505 C17.3472027,25.4227628 27.2592892,31.9476417 33.3364343,32.686687" transform="scale(-1 1) rotate(42 0 -25.212)"/>
      <path fill="#2AA98E" d="M37.5510755,39.6682413 C36.3579544,39.6790361 35.1458301,39.6277607 33.9309912,39.5778347 L33.9309912,39.5778347 C30.0055004,39.414563 26.051505,39.249942 22.6716737,41.1322889 L22.6716737,41.1322889 L13.5664896,59.5684939 C19.728913,61.8043712 26.7464743,62.7705076 33.1247182,61.2943159 L33.1247182,61.2943159 C39.5043194,59.8208228 45.4495648,56.0615264 49.1320878,50.5548183 L49.1320878,50.5548183 C53.107801,44.6041732 59.5864896,31 59.5864896,31 L59.5864896,31 C59.5864896,31 45.5975173,39.6007737 37.5510755,39.6682413"/>
      <path stroke="#000" stroke-opacity=".2" d="M18.2864896,33.3846154 C35.9632238,48.0712552 48.5498904,54.2778565 56.0464896,52.0044194" transform="matrix(-1 0 0 1 74.333 0)"/>
    </g>
    <g transform="translate(43 12)">
      <path fill="#33CCAB" d="M11.996379,4.74584983 C11.7293148,7.90882487 11.2581073,10.444754 10.030451,13.3441478 L10.030451,13.3441478 C8.05473525,18.0123105 4.63183918,21.9493821 2.48413969,26.5426322 L2.48413969,26.5426322 C-0.877233727,33.7300768 -0.824100536,42.4060619 2.62396388,49.5518884 L2.62396388,49.5518884 C4.1578352,52.7328979 6.37824326,55.654488 9.34531248,57.5925039 L9.34531248,57.5925039 C12.3137799,59.5332943 18.4394775,59.5984959 18.6394261,59.5818487 L18.6394261,59.5818487 C22.22312,59.2891348 26.5982187,56.6103169 28.5921116,53.5569362 L28.5921116,53.5569362 C30.6321465,50.4341919 32.5309589,47.1144554 33.1937256,43.450676 L33.1937256,43.450676 C34.5570114,35.9122521 30.4699504,28.459839 25.6641932,22.4640591 L25.6641932,22.4640591 C20.8598342,16.4682793 12.262045,4.4408921e-13 12.262045,4.4408921e-13 L12.262045,4.4408921e-13 C12.262045,4.4408921e-13 12.0047685,4.65151549 11.996379,4.74584983"/>
      <path stroke="#000" stroke-opacity=".2" d="M13.3838305,6.62039715 C19.5385658,30.2887681 20.6534204,47.5270556 16.7283943,58.3352596"/>
    </g>
  </g>
</svg>
