<svg xmlns="http://www.w3.org/2000/svg" width="46" height="64" viewBox="0 0 46 64">
  <g fill="none" fill-rule="evenodd" transform="translate(0 -1)">
    <path fill="#000" fill-opacity=".25" d="M45.5876364,55.2878788 C45.5876364,60.5361459 35.497261,64.7878788 23.0520117,64.7878788 C10.6055269,64.7878788 0.515151515,60.5361459 0.515151515,55.2878788 C0.515151515,50.0396117 10.6055269,45.7878788 23.0520117,45.7878788 C35.497261,45.7878788 45.5876364,50.0396117 45.5876364,55.2878788"/>
    <g transform="translate(.03 .064)">
      <g transform="translate(5.19)">
        <path fill="#2AA98E" d="M3.79242814,20.3271952 C3.45058279,25.6893631 10.4505109,31.9357576 10.4505109,31.9357576 L10.4505109,31.9357576 C15.8950843,27.8818171 15.6721778,18.3965514 15.6721778,18.3965514 L15.6721778,18.3965514 C16.0514515,16.1835148 15.3935447,15.4721816 14.3139456,13.7053749 L14.3139456,13.7053749 C13.2343464,11.9402148 11.8312001,10.5068455 10.6434747,8.84542144 L10.6434747,8.84542144 C9.45741273,7.18399741 8.45849238,5.17431651 8.43270843,2.93575758 L8.43270843,2.93575758 C6.27434181,8.55479573 4.18168269,14.233935 3.79242814,20.3271952"/>
        <path stroke="#000" stroke-opacity=".2" d="M0.863636364,13.9734435 C10.9132231,25.1803903 19.8461892,28.5313691 27.6625344,24.0263802" transform="rotate(42 14.263 19.969)"/>
        <path fill="#33CCAB" d="M15.9509731,3.80316853 C15.7913392,5.71421705 15.5096814,7.24640859 14.7758667,8.99820306 L14.7758667,8.99820306 C13.5949099,11.818676 11.548921,14.1974285 10.2651633,16.9726397 L10.2651633,16.9726397 C8.25594867,21.315246 8.2877083,26.5572186 10.3487412,30.8746795 L10.3487412,30.8746795 C11.2655917,32.7966244 12.5928099,34.5618297 14.3663346,35.732766 L14.3663346,35.732766 C16.1406951,36.9053787 19.8022463,36.9447731 19.9217628,36.934715 L19.9217628,36.934715 C22.0638664,36.7578592 24.6790213,35.1393352 25.8708433,33.2945028 L25.8708433,33.2945028 C27.090246,31.4077615 28.2252349,29.4019987 28.6213945,27.1883675 L28.6213945,27.1883675 C29.4362798,22.6337019 26.9932955,18.1310034 24.1207204,14.508393 L24.1207204,14.508393 C21.2489811,10.8857826 16.1097712,0.935757576 16.1097712,0.935757576 L16.1097712,0.935757576 C16.1097712,0.935757576 15.9559878,3.74617235 15.9509731,3.80316853"/>
        <path stroke="#000" stroke-opacity=".2" d="M16.780303,4.93575758 C19.4953317,17.995177 20.8276505,26.744839 20.7772595,31.1847438"/>
      </g>
      <path fill="#F5DD48" d="M0.0397086864,42.1209697 C-0.171685253,45.1493333 0.452799595,48.2833939 2.10904202,50.8278788 C4.17255717,54.0007273 7.67122384,56.0235152 11.3163147,57.0484848 C14.9167996,58.0608485 18.6966784,58.2014545 22.4358299,58.312 C26.1749814,58.2014545 29.9538905,58.0608485 33.5543754,57.0484848 C37.1994663,56.0235152 40.6981329,54.0007273 42.7626178,50.8278788 C44.4188602,48.2833939 45.043345,45.1493333 44.8319511,42.1209697 C44.6205572,39.0926061 43.3977693,35.8033939 42.0140117,33.1008485 C41.5294404,32.1551089 40.4104929,31.1156892 39.7232185,30.7296453 C39.7232185,30.5744235 5.48315313,30.5744235 5.43301824,30.5744235 C3.99014375,31.6279573 2.98101228,32.3324888 2.2098905,33.8378182 C0.825163232,36.5393939 0.250132929,39.0926061 0.0397086864,42.1209697 Z"/>
      <path fill="#000" fill-rule="nonzero" d="M32.8157254,32.0257558 C41.0497868,43.624857 40.4098834,53.9819108 21.1248485,56.8403524 C17.5768154,57.3246172 16.1793329,57.5685401 16.9324009,57.5721212 L24.5385548,57.5721212 C47.1348435,56.9333313 45.7750468,41.4758697 40.3727148,32.1161837 C40.3727148,32.0257558 32.8157254,32.1161837 32.8157254,32.0257558 Z" opacity=".05"/>
    </g>
  </g>
</svg>
