<svg xmlns="http://www.w3.org/2000/svg" width="65" height="100" viewBox="0 0 65 100">
  <g fill="none" fill-rule="evenodd" transform="translate(8 8)">
    <g transform="translate(1.826)">
      <path fill="#2AA98E" d="M4.9593291,26.5817168 C4.51230057,33.5937825 13.6660527,41.7621445 13.6660527,41.7621445 L13.6660527,41.7621445 C20.7858794,36.4608377 20.4943864,24.0570287 20.4943864,24.0570287 L20.4943864,24.0570287 C20.9903596,21.1630578 20.13002,20.2328529 18.7182365,17.9224133 L18.7182365,17.9224133 C17.306453,15.614127 15.4715694,13.739721 13.91839,11.5670896 L13.91839,11.5670896 C12.3673859,9.39445815 11.0611054,6.7664139 11.0273879,3.8390676 L11.0273879,3.8390676 C8.20490852,11.1870406 5.46835429,18.6136072 4.9593291,26.5817168"/>
      <path stroke="#000" stroke-opacity=".2" d="M1.12937063,18.2729646 C14.271138,32.9282027 25.9527089,37.310252 36.1740835,31.4191125" transform="rotate(42 18.652 26.113)"/>
      <path fill="#33CCAB" d="M20.8589648,4.97337424 C20.6502127,7.47243768 20.281891,9.47607277 19.3222872,11.7668809 L19.3222872,11.7668809 C17.7779591,15.4551917 15.1024352,18.565868 13.423675,22.1949904 L13.423675,22.1949904 C10.7962406,27.8737833 10.8377724,34.7286705 13.5329693,40.3745809 L13.5329693,40.3745809 C14.7319275,42.8878934 16.4675207,45.1962389 18.7867453,46.7274633 L18.7867453,46.7274633 C21.1070628,48.2608798 25.8952452,48.3123956 26.051536,48.2992426 L26.051536,48.2992426 C28.8527483,48.0679697 32.2725663,45.9514383 33.8311027,43.5389652 L33.8311027,43.5389652 C35.4257063,41.0716881 36.9099226,38.4487676 37.4279774,35.5540191 L37.4279774,35.5540191 C38.4935967,29.5979178 35.2989249,23.7097736 31.5424805,18.9725139 L31.5424805,18.9725139 C27.7871291,14.2352541 21.0666239,1.22368298 21.0666239,1.22368298 L21.0666239,1.22368298 C21.0666239,1.22368298 20.8655225,4.89884077 20.8589648,4.97337424"/>
      <path stroke="#000" stroke-opacity=".2" d="M21.9434732,6.45445221 C25.4938953,23.5321545 27.2361584,34.9740203 27.1702624,40.7800496"/>
    </g>
    <g transform="translate(0 39.916)">
      <path fill="#294FA3" d="M0.0821041166,15.1833389 C-0.144027681,19.1435068 0.523994694,23.2418937 2.29570621,26.569297 C4.50308449,30.7184065 8.24566947,33.3635907 12.144887,34.7039357 C15.9963887,36.0277958 20.0397912,36.2116653 24.039627,36.3562247 C28.0394629,36.2116653 32.0818281,36.0277958 35.9333298,34.7039357 C39.8325473,33.3635907 43.5751323,30.7184065 45.7835479,26.569297 C47.5552594,23.2418937 48.2232818,19.1435068 47.99715,15.1833389 C47.7710182,11.2231711 46.4629806,6.92189372 44.9827509,3.38779581 C44.4643964,2.15105945 43.2674387,0.79181831 42.5322493,0.286991622 C42.5322493,0.084009324 5.90505193,0.084009324 5.85142176,0.084009324 C4.30795366,1.46170732 3.22846806,2.38301772 2.4035856,4.35152542 C0.922318594,7.88435526 0.307198612,11.2231711 0.0821041166,15.1833389 Z"/>
      <path fill="#000" fill-rule="nonzero" d="M35.3296492,1.98190533 C44.1827174,17.1499608 43.4947084,30.6938003 22.7598948,34.4317625 C18.9451335,35.0650318 17.4425933,35.384008 18.2522743,35.3886909 L26.4302311,35.3886909 C50.7252265,34.5533502 49.2632052,14.3397467 43.4547456,2.10015727 C43.4547456,1.98190533 35.3296492,2.10015727 35.3296492,1.98190533 Z" opacity=".05"/>
    </g>
  </g>
</svg>
