<svg xmlns="http://www.w3.org/2000/svg" width="140" height="140" viewBox="0 0 140 140">
  <g fill="none" fill-rule="evenodd">
    <g transform="translate(5.112 26)">
      <path fill="#238C76" d="M19.0446675,20.4251096 C19.7182427,27.2491109 21.5334413,34.3718468 26.4159974,39.1568109 L26.4159974,39.1568109 L37.9116796,42 L45.379728,42 L52.8875,24.5882888 L51.5973446,21.6131007 C50.7925086,16.8732942 46.5904361,13.3892151 42.1431131,11.6263336 L42.1431131,11.6263336 C37.6975173,9.86345215 32.858139,9.39103465 28.2622841,8.07278141 L28.2622841,8.07278141 C23.6664292,6.75452816 19.0204879,4.30038872 16.8875,0 L16.8875,0 C18.6094344,6.63468696 18.3693653,13.6011083 19.0446675,20.4251096"/>
      <path stroke="#000" stroke-opacity=".2" d="M14.7387389,10.4296458 C28.8270042,23.43817 40.2746172,30.7359443 49.081578,32.3229687" transform="rotate(18 31.91 21.376)"/>
      <path fill="#238C76" d="M89.4194964,12.6699119 C84.9347731,14.4394011 80.6973627,17.9365393 79.8875,22.6941117 L86.1556628,43.157426 C95.5046056,44.8084877 101.820863,44.0330521 105.104435,40.8311193 C110.029794,36.0282201 112.034693,28.3512471 112.712191,21.5016678 C113.393173,14.6520885 113.152826,7.65955534 114.8875,1 C112.736574,5.3165076 108.053304,7.77984574 103.417058,9.10304011 C98.7825537,10.4262345 93.9024781,10.9004227 89.4194964,12.6699119 Z"/>
      <path stroke="#000" stroke-opacity=".2" d="M80.3422126,11.5914892 C90.8539714,24.7813497 102.418213,29.6447844 115.034937,26.1817935" transform="scale(-1 1) rotate(18 0 -597.355)"/>
      <path fill="#238C76" d="M14.0637971,49.9704224 C18.7050973,56.7205807 26.1965287,61.3287505 34.2371151,63.1349678 L34.2371151,63.1349678 C42.2777015,64.9444932 51.1206357,63.7601969 58.8875,61.0194441 L58.8875,61.0194441 L47.4134122,38.4202251 C43.1501906,36.1128321 38.1684486,36.3146256 33.2209218,36.5147651 L33.2209218,36.5147651 C31.6880781,36.5759647 30.1620775,36.6388185 28.6583167,36.6255861 L28.6583167,36.6255861 C18.5186241,36.5428838 0.8875,26 0.8875,26 L0.8875,26 C0.8875,26 9.05126132,42.6760833 14.0637971,49.9704224"/>
      <path stroke="#000" stroke-opacity=".2" d="M5.8875,31 C29.8875,60.5526924 44.4752403,55.8133446 53.8875,52.6003875"/>
    </g>
    <g transform="rotate(-6 256.393 -220.636)">
      <path fill="#2AA98E" d="M24.4598786,67.1964286 C41.2024066,71 43,62.40625 43,62.40625 L36.636134,35.8244871 C37.5205514,30.6966197 35.9863975,29.0483766 33.4689111,24.9544766 C30.9514247,20.8643919 27.6794682,17.5431058 24.9098453,13.6933899 C22.1441014,9.84367396 19.8147477,5.18700571 19.7546228,0 C14.7215895,13.0199757 9.8417777,26.1792127 8.93408615,40.2980172 C8.13694678,52.722794 24.4598786,67.1964286 24.4598786,67.1964286 Z"/>
      <path stroke="#000" stroke-opacity=".2" d="M1.46052161,25.6618755 C24.6574622,51.5307803 45.3121062,59.2343056 63.4244538,48.7724514" transform="rotate(42 32.442 39.477)"/>
    </g>
    <g transform="translate(46 88)">
      <path fill="#000" fill-opacity=".25" d="M49,33.5 C49,38.7482671 38.2542419,43 25.0006579,43 C11.7457581,43 1,38.7482671 1,33.5 C1,28.2517329 11.7457581,24 25.0006579,24 C38.2542419,24 49,28.2517329 49,33.5"/>
      <path fill="#294FA3" d="M0.0821041166,15.1833389 C-0.144027681,19.1435068 0.523994694,23.2418937 2.29570621,26.569297 C4.50308449,30.7184065 8.24566947,33.3635907 12.144887,34.7039357 C15.9963887,36.0277958 20.0397912,36.2116653 24.039627,36.3562247 C28.0394629,36.2116653 32.0818281,36.0277958 35.9333298,34.7039357 C39.8325473,33.3635907 43.5751323,30.7184065 45.7835479,26.569297 C47.5552594,23.2418937 48.2232818,19.1435068 47.99715,15.1833389 C47.7710182,11.2231711 46.4629806,6.92189372 44.9827509,3.38779581 C44.4643964,2.15105945 43.2674387,0.79181831 42.5322493,0.286991622 C42.5322493,0.084009324 5.90505193,0.084009324 5.85142176,0.084009324 C4.30795366,1.46170732 3.22846806,2.38301772 2.4035856,4.35152542 C0.922318594,7.88435526 0.307198612,11.2231711 0.0821041166,15.1833389 Z"/>
      <path fill="#000" fill-rule="nonzero" d="M35.3296492,1.98190533 C44.1827174,17.1499608 43.4947084,30.6938003 22.7598948,34.4317625 C18.9451335,35.0650318 17.4425933,35.384008 18.2522743,35.3886909 L26.4302311,35.3886909 C50.7252265,34.5533502 49.2632052,14.3397467 43.4547456,2.10015727 C43.4547456,1.98190533 35.3296492,2.10015727 35.3296492,1.98190533 Z" opacity=".05"/>
    </g>
    <g transform="translate(56 11)">
      <path fill="#2AA98E" d="M23.4825768,12.6914686 C20.9648148,16.261773 17.9865512,19.3404754 15.6981579,23.1335923 L15.6981579,23.1335923 C13.4080002,26.9267092 12.0123802,28.4545661 12.8151704,33.2078986 L12.8151704,33.2078986 C12.8151704,33.2078986 12.3423182,53.5828604 23.8919116,62.2884615 L23.8919116,62.2884615 C23.8919116,62.2884615 38.7426491,48.8737367 38.0157269,37.3546861 L38.0157269,37.3546861 C37.1899998,24.2671065 32.7525987,12.0690083 28.1722833,0 L28.1722833,0 C28.1193521,4.80815146 26.0021031,9.12470082 23.4825768,12.6914686"/>
      <path stroke="#000" stroke-opacity=".2" d="M4.3714917,16.6914687 C21.8801407,32.3846551 34.4983432,40.7091612 42.2260991,41.664987" transform="scale(-1 1) rotate(42 0 -31.517)"/>
      <path fill="#2AA98E" d="M47.5136754,50.5450171 C45.9996769,50.5587718 44.4615648,50.493437 42.9200077,50.4298216 L42.9200077,50.4298216 C37.9387978,50.2217819 32.9214173,50.0120228 28.6326162,52.4104971 L28.6326162,52.4104971 L17.0786895,75.9017906 C24.8984312,78.750731 33.8032913,79.9817759 41.8968962,78.1008218 L41.8968962,78.1008218 C49.9922235,76.2233065 57.5363796,71.4332352 62.2092781,64.4166233 L62.2092781,64.4166233 C67.2542172,56.8343497 75.4752804,39.5 75.4752804,39.5 L75.4752804,39.5 C75.4752804,39.5 57.7241223,50.4590503 47.5136754,50.5450171"/>
      <path stroke="#000" stroke-opacity=".2" d="M23.0680835,44.5384615 C45.4987878,63.2520832 61.4705049,71.1604946 70.983235,68.2636957" transform="matrix(-1 0 0 1 94.051 0)"/>
    </g>
    <g transform="translate(51 21)">
      <path fill="#33CCAB" d="M13.9809732,5.59718612 C13.6697278,9.32755279 13.1205671,12.3183906 11.6898162,15.7378934 L11.6898162,15.7378934 C9.38725236,21.2434565 5.39809714,25.8867813 2.89509779,31.3039936 L2.89509779,31.3039936 C-1.02235693,39.780761 -0.960433765,50.0130913 3.05805348,58.440775 L3.05805348,58.440775 C4.84567736,62.1924113 7.43341367,65.6380921 10.8913333,67.9237597 L10.8913333,67.9237597 C14.3508826,70.2126996 21.4899712,70.2895975 21.7229979,70.269964 L21.7229979,70.269964 C25.8995521,69.9247415 30.9984356,66.7653827 33.3221837,63.16427 L33.3221837,63.16427 C35.6997071,59.4813509 37.9126454,55.5661021 38.6850553,51.245094 L38.6850553,51.245094 C40.2738733,42.3543868 35.5106785,33.5651194 29.9098916,26.493784 L29.9098916,26.493784 C24.3107342,19.4224485 14.290589,4.4408921e-13 14.290589,4.4408921e-13 L14.290589,4.4408921e-13 C14.290589,4.4408921e-13 13.9907505,5.48592957 13.9809732,5.59718612"/>
      <path stroke="#000" stroke-opacity=".2" d="M15.5979545,7.80799991 C22.7708847,35.7221317 24.0701728,56.0527167 19.4958188,68.799755"/>
    </g>
  </g>
</svg>
