<svg xmlns="http://www.w3.org/2000/svg" width="75" height="74" viewBox="0 0 75 74">
  <g fill="none" fill-rule="evenodd" transform="translate(-1 -1)">
    <path fill="#000" fill-opacity=".25" d="M60.5876364,65.2878788 C60.5876364,70.5361459 50.497261,74.7878788 38.0520117,74.7878788 C25.6055269,74.7878788 15.5151515,70.5361459 15.5151515,65.2878788 C15.5151515,60.0396117 25.6055269,55.7878788 38.0520117,55.7878788 C50.497261,55.7878788 60.5876364,60.0396117 60.5876364,65.2878788"/>
    <g transform="translate(.03 .064)">
      <path fill="#238C76" d="M12.841697,19.6957576 C13.231697,23.6247576 14.282697,27.7257576 17.109697,30.4807576 L17.109697,30.4807576 L23.765697,32.1177576 L28.089697,32.1177576 L32.436697,22.0927576 L31.689697,20.3797576 C31.223697,17.6507576 28.790697,15.6447576 26.215697,14.6297576 L26.215697,14.6297576 C23.641697,13.6147576 20.839697,13.3427576 18.178697,12.5837576 L18.178697,12.5837576 C15.517697,11.8247576 12.827697,10.4117576 11.592697,7.93575758 L11.592697,7.93575758 C12.589697,11.7557576 12.450697,15.7667576 12.841697,19.6957576"/>
      <path stroke="#000" stroke-opacity=".2" d="M10.5298181,13.9687513 C18.6911318,21.4665481 25.3260035,25.6692506 30.4344332,26.5768588" transform="rotate(18 20.482 20.273)"/>
      <path fill="#238C76" d="M51.6794393,17.4897576 C49.1044393,18.5047576 46.6714393,20.5107576 46.2064393,23.2397576 L49.8054393,34.9777576 C55.1733352,35.9248262 58.7999498,35.4800271 60.6852831,33.6433604 C63.5132831,30.8883604 64.6644393,26.4847576 65.0534393,22.5557576 C65.4444393,18.6267576 65.3064393,14.6157576 66.3024393,10.7957576 C65.0674393,13.2717576 62.3784393,14.6847576 59.7164393,15.4437576 C57.0554393,16.2027576 54.2534393,16.4747576 51.6794393,17.4897576 Z"/>
      <path stroke="#000" stroke-opacity=".2" d="M46.8714399,16.9490068 C52.9573916,24.5551081 59.6623773,27.3519535 66.9863968,25.3395429" transform="scale(-1 1) rotate(18 0 -337.975)"/>
      <path fill="#2AA98E" d="M45.1841753,8.11275758 C43.7571753,10.1317576 42.0691753,11.8727576 40.7721753,14.0177576 L40.7721753,14.0177576 C39.4741753,16.1627576 38.6831753,17.0267576 39.1381753,19.7147576 L39.1381753,19.7147576 C39.1381753,19.7147576 38.8701753,31.2367576 45.4161753,36.1597576 L45.4161753,36.1597576 C45.4161753,36.1597576 53.8331753,28.5737576 53.4211753,22.0597576 L53.4211753,22.0597576 C52.9531753,14.6587576 50.4381753,7.76075758 47.8421753,0.935757576 L47.8421753,0.935757576 C47.8121753,3.65475758 46.6121753,6.09575758 45.1841753,8.11275758"/>
      <path stroke="#000" stroke-opacity=".2" d="M34.5918686,10.5033631 C44.6099986,19.4547306 51.842298,24.1891875 56.2887667,24.7067339" transform="scale(-1 1) rotate(42 0 -100.771)"/>
      <path fill="#F5DD48" d="M15.0397087,52.1209697 C14.8283147,55.1493333 15.4527996,58.2833939 17.109042,60.8278788 C19.1725572,64.0007273 22.6712238,66.0235152 26.3163147,67.0484848 C29.9167996,68.0608485 33.6966784,68.2014545 37.4358299,68.312 C41.1749814,68.2014545 44.9538905,68.0608485 48.5543754,67.0484848 C52.1994663,66.0235152 55.6981329,64.0007273 57.7626178,60.8278788 C59.4188602,58.2833939 60.043345,55.1493333 59.8319511,52.1209697 C59.6205572,49.0926061 58.3977693,45.8033939 57.0140117,43.1008485 C56.5294404,42.1551089 55.4104929,41.1156892 54.7232185,40.7296453 C54.7232185,40.5744235 20.4831531,40.5744235 20.4330182,40.5744235 C18.9901437,41.6279573 17.9810123,42.3324888 17.2098905,43.8378182 C15.8251632,46.5393939 15.2501329,49.0926061 15.0397087,52.1209697 Z"/>
      <path fill="#000" fill-rule="nonzero" d="M47.8157254,42.0257558 C56.0497868,53.624857 55.4098834,63.9819108 36.1248485,66.8403524 C32.5768154,67.3246172 31.1793329,67.5685401 31.9324009,67.5721212 L39.5385548,67.5721212 C62.1348435,66.9333313 60.7750468,51.4758697 55.3727148,42.1161837 C55.3727148,42.0257558 47.8157254,42.1161837 47.8157254,42.0257558 Z" opacity=".05"/>
      <path fill="#2AA98E" d="M59.1741753,29.5797576 C58.2951753,29.5877576 57.4021753,29.5497576 56.5071753,29.5127576 L56.5071753,29.5127576 C53.6151753,29.3917576 50.7021753,29.2697576 48.2121753,30.6647576 L48.2121753,30.6647576 L41.5041753,44.3277576 C46.0441753,45.9847576 51.2141753,46.7007576 55.9131753,45.6067576 L55.9131753,45.6067576 C60.6131753,44.5147576 64.9931753,41.7287576 67.7061753,37.6477576 L67.7061753,37.6477576 C70.6351753,33.2377576 75.4081753,23.1557576 75.4081753,23.1557576 L75.4081753,23.1557576 C75.4081753,23.1557576 65.1021753,29.5297576 59.1741753,29.5797576"/>
      <path stroke="#000" stroke-opacity=".2" d="M45.4450188,25.1557576 C58.6488073,35.9244189 68.0505261,40.4752752 73.6501753,38.8083266" transform="matrix(-1 0 0 1 119.095 0)"/>
      <path fill="#238C76" d="M8.67169697,38.5077576 C11.384697,42.5887576 15.763697,45.3747576 20.463697,46.4667576 L20.463697,46.4667576 C25.163697,47.5607576 30.332697,46.8447576 34.872697,45.1877576 L34.872697,45.1877576 L28.165697,31.5247576 C25.673697,30.1297576 22.761697,30.2517576 19.869697,30.3727576 L19.869697,30.3727576 C18.973697,30.4097576 18.081697,30.4477576 17.202697,30.4397576 L17.202697,30.4397576 C11.275697,30.3897576 0.96969697,24.0157576 0.96969697,24.0157576 L0.96969697,24.0157576 C0.96969697,24.0157576 5.74169697,34.0977576 8.67169697,38.5077576"/>
      <path stroke="#000" stroke-opacity=".2" d="M2.98978626,26.3604897 C16.8336941,42.9826995 25.2483329,40.3170055 30.6776019,38.5098454"/>
      <g transform="rotate(-9 98.565 -68.297)">
        <path fill="#2AA98E" d="M11.2872866,32.3128689 C14.8765122,32.8813464 16.8972645,33.1020451 17.3261768,32.6258185 C21.7626255,27.6999741 16.9440925,17.3730552 16.9440925,17.3730552 C17.3549723,14.9310838 16.64224,14.1461644 15.4726742,12.1965846 C14.3031084,10.2488217 12.7830333,8.66717281 11.4963308,6.83387733 C10.2114303,5.00058185 9.12926659,2.78300293 9.10133397,0.31286893 C6.76310347,6.5131869 4.49605609,12.7798233 4.07436365,19.5034208 C3.70403119,25.4202957 6.56431135,30.9213064 11.2872866,32.3128689 Z"/>
        <path stroke="#000" stroke-opacity=".2" d="M1,12.3215635 C11.875,24.4720727 21.5416667,28.1051853 30,23.2209014" transform="rotate(42 15.5 18.822)"/>
      </g>
      <path fill="#33CCAB" d="M34.9372356,10.9624691 C34.7661408,12.979687 34.4642614,14.5970003 33.6777627,16.4461167 L33.6777627,16.4461167 C32.4120192,19.4232826 30.2191388,21.934188 28.8432138,24.8635776 L28.8432138,24.8635776 C26.6897479,29.4474398 26.7237878,34.9806331 28.9327923,39.537953 L28.9327923,39.537953 C29.9154679,41.5666725 31.3379736,43.4299448 33.2388283,44.6659332 L33.2388283,44.6659332 C35.1405787,45.903691 39.0650105,45.945274 39.1931077,45.934657 L39.1931077,45.934657 C41.4890033,45.7479759 44.291913,44.0395339 45.5693016,42.0922109 L45.5693016,42.0922109 C46.8762512,40.1006506 48.0927265,37.9834566 48.5173284,35.6468458 L48.5173284,35.6468458 C49.3907182,30.8391432 46.7723402,26.0862948 43.6935289,22.2624283 L43.6935289,22.2624283 C40.6156135,18.4385617 35.1074347,7.93575758 35.1074347,7.93575758 L35.1074347,7.93575758 C35.1074347,7.93575758 34.9426104,10.9023065 34.9372356,10.9624691"/>
      <path stroke="#000" stroke-opacity=".2" d="M35.969697,11.9357576 C39.0371154,27.0737508 39.5258263,37.9841892 37.4358299,44.6670726"/>
    </g>
  </g>
</svg>
