<svg class="grow5 experience" viewBox="0 0 69 122" xmlns="http://www.w3.org/2000/svg">
    <g class="leaf1" fill="none" fill-rule="evenodd">
        <path d="M21.915 39.468c-3.121-2.465-4.809-5.92-5.294-9.948-.436-3.607.394-7.23.754-10.847.358-3.617.156-7.55-2.012-10.449-.547-.733-1.232-1.393-2.081-1.72-1.575-.607-3.358.049-4.764.987-4.06 2.71-6.375 7.684-6.512 12.6-.265 9.602 8.174 21.837 12.348 24.193-.946.96 10.532-5.897 7.561-4.816z" fill="#07454C"/>
        <path d="M4.179 8.917l3.058 5.544-6.04-.164 2.982-5.38zM15.433 25.402l-1.24 6.203-4.52-3.988 5.76-2.215z" stroke="#33CCAB"/>
    </g>
    <g class="leaf2" fill="none" fill-rule="evenodd">
        <path d="M47.088 48.844c5.473-3.72 9.343-9.406 11.507-15.724 2.24-6.54 2.465-13.71 1.064-20.484-.74-3.58-2.007-7.201-4.587-9.768C52.494.303 48.34-.914 45.14.79c-3.712 1.979-4.8 6.933-4.263 11.14.538 4.207 2.261 8.216 2.518 12.45.347 5.773-2.281 11.637-6.762 15.22" fill="#07454C"/>
        <path d="M53.527 36.04l3.98 4.932-5.977.882 1.997-5.813zM46.433 28.402l-1.24 6.203-4.52-3.988 5.76-2.215zM50.49 7.092l1.148 6.664-6.665-2.356 5.516-4.308zM61.49 18.092l1.148 6.664-6.665-2.356 5.516-4.308z" stroke="#33CCAB"/>
    </g>
    <g class="leaf5" fill="none" fill-rule="evenodd">
        <path d="M66.37 44.225c-1.212-.26-2.357.624-3.22 1.525-2.317 2.421-4.039 5.366-6.307 7.836a23.203 23.203 0 01-9.572 6.242c.377-2.556-3.35 20.444-2.55 15.615 6.415-1.512 12.667-4.253 17.363-8.902 4.954-4.905 7.935-12.17 6.595-19.05-.27-1.394-.935-2.972-2.309-3.266z" fill="#07454C"/>
        <path d="M62.49 59.092l1.148 6.664-6.665-2.356 5.516-4.308z" stroke="#33CCAB"/>
    </g>
    <g class="leaf7" fill="none" fill-rule="evenodd">
        <path d="M48.437 57.3c.399-2.647 1.037-7.332 0-12.933C47.144 39.31 41.176 34 29.83 34c-11.348 0-17.852 7.755-18.488 9.007-2.206 4.342-1.25 9.536-.245 14.294l6.173 29.225L43.405 87c.843-5.078 4.839-26.889 5.032-29.7z" fill="#07454C"/>
        <path d="M12.527 62.04l3.98 4.932-5.977.882 1.997-5.813zM29.179 40.917l3.058 5.544-6.04-.164 2.982-5.38zM29.433 59.402l-1.24 6.203-4.52-3.988 5.76-2.215zM20.067 78.073l4.78 4.168-5.732 1.901.952-6.07zM40.092 73.51l6.664-1.148-2.356 6.665-4.308-5.516zM42.49 55.092l1.148 6.664-6.665-2.356 5.516-4.308zM15.49 47.092l1.148 6.664L9.973 51.4l5.516-4.308z" stroke="#33CCAB"/>
    </g>
    <g>
        <path d="M52 79v6.798h-1.775l-4.832 29.337-31.785.122-4.86-29.459H7V79h45z" fill="#5C82D6"/>
        <path fill-opacity=".05" fill="#000" d="M9.288 88.064h40.424l.763-2.266H8.525z"/>
    </g>
</svg>
