<svg xmlns="http://www.w3.org/2000/svg" width="82" height="161" viewBox="0 0 82 161">
  <g fill="none" fill-rule="evenodd" transform="translate(1)">
    <path fill="#000" fill-opacity=".25" d="M69,151.5 C69,156.748267 53.7764254,161 35,161 C16.2217105,161 1,156.748267 1,151.5 C1,146.251733 16.2217105,142 35,142 C53.7764254,142 69,146.251733 69,151.5"/>
    <path fill="#07454C" d="M80.381633,56.4625909 C80.0592044,54.8045018 79.2689381,52.927781 77.6330868,52.5782896 C76.1900606,52.2686945 74.826061,53.3203603 73.7987148,54.3911764 C71.0406855,57.2700915 68.9907347,60.7713886 66.2911851,63.7077544 C63.183858,67.086171 59.2246239,69.6586828 54.8955452,71.1284615 C55.3444165,68.0899612 55.6526203,65.0307149 55.3886714,61.977852 C55.274873,60.6644666 55.0409542,59.3462937 54.6774317,58.0696129 C61.192387,53.6475098 65.7996395,46.887485 68.3759076,39.3758144 C71.042266,31.6008284 71.3109565,23.0773883 69.6434947,15.0231284 C68.7615575,10.7669938 67.2537294,6.46138781 64.1827546,3.41012073 C61.1133604,0.360449489 56.1678739,-1.08698736 52.3587904,0.939743397 C47.9396214,3.29202775 46.6435847,9.18231375 47.2837003,14.1837107 C47.923816,19.1851077 49.9753473,23.9519146 50.2803901,28.9852286 C50.6944896,35.8489837 47.5650351,42.8196609 42.2307377,47.080583 C39.9215796,46.5108642 35.9449597,45.9012491 35.7142019,45.8565653 C32.055269,45.1879037 28.2461855,45.6379337 24.7089536,46.9225937 C20.9931215,43.9926113 18.9842646,39.8848909 18.4057897,35.0957421 C17.887375,30.8076905 18.8752078,26.5004887 19.3035322,22.1996702 C19.730276,17.9004477 19.490035,13.2246043 16.9090253,9.77756616 C16.2578459,8.90623152 15.4422911,8.12107284 14.4307502,7.7316852 C12.5562386,7.01036055 10.4335834,7.79073168 8.75979936,8.90623152 C3.92653075,12.1282547 1.17008194,18.0408826 1.00728708,23.8848889 C0.691180568,35.3016069 10.7386261,49.8477886 15.7078206,52.6485071 C14.5809008,53.7911364 13.5914874,55.0726047 12.8755062,56.5088706 C10.3893284,61.4927133 11.4656711,67.4532167 12.598913,72.9142188 C14.9175543,84.0931549 17.2361956,95.2752828 19.5548368,106.455815 L49.0064809,107 C49.9563809,101.171952 50.9078615,95.4348679 51.8593421,89.692996 C59.4964756,87.8960678 66.9392034,84.6373401 72.5295472,79.1093123 C78.4280947,73.2780728 81.9763904,64.6413272 80.381633,56.4625909"/>
    <path stroke="#33CCAB" d="M8.02245267,72.5447724 L15.7257392,71.3752599 L13.0156402,78.2464357 L8.02245267,72.5447724 Z" transform="rotate(60 11.97 74.65)"/>
    <path stroke="#33CCAB" d="M29.022096,44.5475986 L36.7307461,43.3748529 L34.0154312,50.2432517 L29.022096,44.5475986 Z" transform="rotate(70 32.973 46.649)"/>
    <path stroke="#33CCAB" d="M26.4607396,67.5305152 L34.172877,66.3350109 L31.4372098,73.2114372 L26.4607396,67.5305152 Z" transform="rotate(110 30.41 69.615)"/>
    <path stroke="#33CCAB" d="M66.4607396,24.5305152 L74.172877,23.3350109 L71.4372098,30.2114372 L66.4607396,24.5305152 Z" transform="rotate(110 70.41 26.615)"/>
    <path stroke="#33CCAB" d="M0.460739564,11.5305152 L8.17287703,10.3350109 L5.43720981,17.2114372 L0.460739564,11.5305152 Z" transform="rotate(110 4.41 13.615)"/>
    <path stroke="#33CCAB" d="M18.7354941,93.6576138 L26.4326219,92.4893225 L23.7264664,99.3648729 L18.7354941,93.6576138 Z" transform="rotate(50 22.68 95.766)"/>
    <path stroke="#33CCAB" d="M52.7354941,9.65761385 L60.4326219,8.48932249 L57.7264664,15.3648729 L52.7354941,9.65761385 Z" transform="rotate(50 56.68 11.766)"/>
    <path stroke="#33CCAB" d="M49.0915104 85.6829735L56.7556897 84.3624261 54.0465346 92.0266054 49.0915104 85.6829735zM65.0915104 69.6829735L72.7556897 68.3624261 70.0465346 76.0266054 65.0915104 69.6829735z"/>
    <path stroke="#33CCAB" d="M45.0915104,62.6829735 L52.7556897,61.3624261 L50.0465346,69.0266054 L45.0915104,62.6829735 Z" transform="rotate(90 49 65)"/>
    <path stroke="#33CCAB" d="M45.0915104,30.6829735 L52.7556897,29.3624261 L50.0465346,37.0266054 L45.0915104,30.6829735 Z" transform="rotate(90 49 33)"/>
    <path stroke="#33CCAB" d="M58.0915104,46.6829735 L65.7556897,45.3624261 L63.0465346,53.0266054 L58.0915104,46.6829735 Z" transform="rotate(90 62 49)"/>
    <path stroke="#33CCAB" d="M9.71651038,51.6829735 L17.3806897,50.3624261 L14.6715346,58.0266054 L9.71651038,51.6829735 Z" transform="rotate(90 13.625 54)"/>
    <path stroke="#33CCAB" d="M9.71651038,29.6829735 L17.3806897,28.3624261 L14.6715346,36.0266054 L9.71651038,29.6829735 Z" transform="rotate(90 13.625 32)"/>
    <path stroke="#33CCAB" d="M38.7165104,99.6829735 L46.3806897,98.3624261 L43.6715346,106.026605 L38.7165104,99.6829735 Z" transform="rotate(90 42.625 102)"/>
    <g transform="translate(5 106)">
      <path fill="#F57647" d="M59,0 L59,9 L56.674,9 L50.338002,47.837901 C36.4460007,47.89132 22.5539993,47.946581 8.6638542,48 L2.292,9 L0,9 L0,0 L59,0 Z"/>
      <polygon fill="#000" fill-opacity=".05" points="3 12 56 12 57 9 2 9"/>
    </g>
  </g>
</svg>
