<svg xmlns="http://www.w3.org/2000/svg" width="68" height="120" viewBox="0 0 68 120">
  <g fill="none" fill-rule="evenodd" transform="translate(0 1)">
    <path fill="#000" fill-opacity=".25" d="M68,109.5 C68,114.748267 52.7764254,119 34,119 C15.2217105,119 0,114.748267 0,109.5 C0,104.251733 15.2217105,100 34,100 C52.7764254,100 68,104.251733 68,109.5"/>
    <g transform="translate(4)">
      <g transform="translate(3)">
        <path fill="#07454C" d="M47.7818803,32.500471 C48.2498548,29.3359453 49,23.7357685 47.7818803,17.0401676 C46.2621398,10.9968611 39.2506329,4.6489172 25.9199096,4.6489172 C12.5891863,4.6489172 4.94738139,13.918855 4.20092907,15.4146918 C1.60894343,20.6052451 2.73109361,26.8129674 3.91256449,32.500471 C6.32988359,44.1430666 8.74720268,55.7889864 11.1645218,67.4332441 L41.8695825,68 C42.8599088,61.9302271 47.5544842,35.8598236 47.7818803,32.500471 Z"/>
        <path stroke="#33CCAB" d="M0.0224526722,30.5447724 L7.72573923,29.3752599 L5.01564022,36.2464357 L0.0224526722,30.5447724 Z" transform="rotate(60 3.97 32.65)"/>
        <path stroke="#33CCAB" d="M21.022096,2.54759862 L28.7307461,1.37485288 L26.0154312,8.24325167 L21.022096,2.54759862 Z" transform="rotate(70 24.973 4.649)"/>
        <path stroke="#33CCAB" d="M18.4607396,25.5305152 L26.172877,24.3350109 L23.4372098,31.2114372 L18.4607396,25.5305152 Z" transform="rotate(110 22.41 27.615)"/>
        <path stroke="#33CCAB" d="M10.7354941,51.6576138 L18.4326219,50.4893225 L15.7264664,57.3648729 L10.7354941,51.6576138 Z" transform="rotate(50 14.68 53.766)"/>
        <path stroke="#33CCAB" d="M41.0915104,43.6829735 L48.7556897,42.3624261 L46.0465346,50.0266054 L41.0915104,43.6829735 Z"/>
        <path stroke="#33CCAB" d="M37.0915104,20.6829735 L44.7556897,19.3624261 L42.0465346,27.0266054 L37.0915104,20.6829735 Z" transform="rotate(90 41 23)"/>
        <path stroke="#33CCAB" d="M1.71651038,9.68297352 L9.38068968,8.3624261 L6.67153461,16.0266054 L1.71651038,9.68297352 Z" transform="rotate(90 5.625 12)"/>
        <path stroke="#33CCAB" d="M30.7165104,57.6829735 L38.3806897,56.3624261 L35.6715346,64.0266054 L30.7165104,57.6829735 Z" transform="rotate(90 34.625 60)"/>
      </g>
      <g transform="translate(0 64)">
        <path fill="#F57647" d="M59,0 L59,9 L56.674,9 L50.338002,47.837901 C36.4460007,47.89132 22.5539993,47.946581 8.6638542,48 L2.292,9 L0,9 L0,0 L59,0 Z"/>
        <polygon fill="#000" fill-opacity=".05" points="3 12 56 12 57 9 2 9"/>
      </g>
    </g>
  </g>
</svg>
