<svg xmlns="http://www.w3.org/2000/svg" width="68" height="100" viewBox="0 0 68 100">
  <g fill="none" fill-rule="evenodd" transform="translate(8 10)">
    <path fill="#000" fill-opacity=".25" d="M51.75,71.5 C51.75,76.7482671 40.164412,81 25.875,81 C11.5841694,81 0,76.7482671 0,71.5 C0,66.2517329 11.5841694,62 25.875,62 C40.164412,62 51.75,66.2517329 51.75,71.5"/>
    <g transform="translate(4.368)">
      <g transform="translate(2.288)">
        <path fill="#07454C" d="M36.443807,24.5494629 C36.8007367,22.1591158 37.3728814,17.9289823 36.443807,12.8714123 C35.2846829,8.30655755 29.9369234,3.51159282 19.7694226,3.51159282 C9.60192173,3.51159282 3.77342649,10.5137066 3.20409845,11.6435975 C1.22716025,15.5643191 2.0830375,20.2533665 2.98415936,24.5494629 C4.82787731,33.3437807 6.67159527,42.1406094 8.51531322,50.9361826 L31.9344273,51.3642857 C32.689761,46.7794394 36.2703693,27.0869739 36.443807,24.5494629 Z"/>
        <path stroke="#33CCAB" d="M-0.184571154,22.9970947 L6.07554297,22.0163656 L3.85110264,27.6330557 L-0.184571154,22.9970947 Z" transform="rotate(60 3.037 24.665)"/>
        <path stroke="#33CCAB" d="M15.833297,1.84322779 L22.0885725,0.865411814 L19.8688323,6.48459427 L15.833297,1.84322779 Z" transform="rotate(70 19.053 3.515)"/>
        <path stroke="#33CCAB" d="M13.8688232,19.1666128 L20.120963,18.2092896 L17.9195478,23.8212478 L13.8688232,19.1666128 Z" transform="rotate(110 17.09 20.853)"/>
        <path stroke="#33CCAB" d="M7.98291432,38.9479387 L14.2485859,37.966108 L12.0205902,43.5788694 L7.98291432,38.9479387 Z" transform="rotate(50 11.208 40.614)"/>
        <path stroke="#33CCAB" d="M31.1200359,32.9099649 L37.3682787,31.8437663 L35.1596327,38.0317582 L31.1200359,32.9099649 Z"/>
        <path stroke="#33CCAB" d="M28.1019332,15.5231996 L34.2905571,14.4465098 L32.1029854,20.6953908 L28.1019332,15.5231996 Z" transform="rotate(90 31.271 17.373)"/>
        <path stroke="#33CCAB" d="M1.12100095,7.21427102 L7.30962488,6.13758122 L5.12205316,12.3864622 L1.12100095,7.21427102 Z" transform="rotate(90 4.29 9.064)"/>
        <path stroke="#33CCAB" d="M23.239645,43.4714139 L29.428269,42.3947241 L27.2406972,48.6436051 L23.239645,43.4714139 Z" transform="rotate(90 26.409 45.321)"/>
      </g>
      <g transform="translate(0 38.343)">
        <path fill="#F57647" d="M45,0 L45,6.79821429 L43.225,6.798 L38.3933914,36.1347002 C27.7977971,36.1750506 17.2022029,36.2167924 6.60802439,36.2571429 L1.748,6.798 L0,6.79821429 L0,0 L45,0 Z"/>
        <polygon fill="#000" fill-opacity=".05" points="2.288 9.064 42.712 9.064 43.475 6.798 1.525 6.798"/>
      </g>
    </g>
  </g>
</svg>
