<svg xmlns="http://www.w3.org/2000/svg" width="90" height="120" viewBox="0 0 90 120">
  <g fill="none" fill-rule="evenodd">
    <g transform="translate(21 9)">
      <path fill="#07454C" d="M51.3229281,33.8549264 C48.7013691,36.7094121 45.3610815,38.8829742 41.7087671,40.1248171 C42.0874663,37.5575328 42.3474887,34.9727198 42.1248029,32.3933003 C42.0287946,31.283597 41.8314443,30.1698487 41.5247512,29.0911578 C47.0212245,25.3548423 50.9082258,19.6431742 53.0817462,13.2964268 C55.3312733,6.72719936 48.5244703,0.852745023 44.7485071,0.207861405 C40.9725439,-0.437022214 37.557743,0.264492675 37.8150985,4.51723143 C38.1644619,10.3165432 35.5242346,16.2061954 31.0238471,19.8063262 C29.0756794,19.3249604 25.7207239,18.8098855 25.5260405,18.7721313 C22.439108,18.207167 19.225498,18.5874055 16.2412411,19.6728382 C13.1063045,17.1972426 11.4114919,13.7265547 10.9234499,9.68011562 C10.4860789,6.05706265 5.26558756,5.65796119 3.85346598,6.60046734 C-0.224218426,9.32281343 -1.22759038,12.0419416 1.88244153,16.9275696 C4.23791823,20.6278477 6.84046719,23.490926 8.64725394,24.5107667 C7.69650542,25.4761951 6.86176688,26.558931 6.25771488,27.7724582 C4.16020095,31.9833977 5.06827914,37.0195357 6.02436145,41.6336359 C7.98052987,51.0789229 9.93669829,60.5269065 11.8928667,69.9735418 L36.7403393,70.4333338 C37.5417416,65.50911 38.3444774,60.6617429 39.1472132,55.8103307 C45.5904346,54.2920733 51.8696419,51.5387149 56.5860479,46.8679834 C61.5624764,41.9410628 60.6972846,37.6133279 59.5206355,35.0033141 C58.3439863,32.3933003 53.6004576,31.3739374 51.3229281,33.8549264 Z"/>
      <path stroke="#33CCAB" d="M3.81542885,43.9970947 L10.075543,43.0163656 L7.85110264,48.6330557 L3.81542885,43.9970947 Z" transform="rotate(60 7.037 45.665)"/>
      <path stroke="#33CCAB" d="M44.8154288,17.9970947 L51.075543,17.0163656 L48.8511026,22.6330557 L44.8154288,17.9970947 Z" transform="rotate(60 48.037 19.665)"/>
      <path stroke="#33CCAB" d="M19.833297,22.8432278 L26.0885725,21.8654118 L23.8688323,27.4845943 L19.833297,22.8432278 Z" transform="rotate(70 23.053 24.515)"/>
      <path stroke="#33CCAB" d="M17.8688232,40.1666128 L24.120963,39.2092896 L21.9195478,44.8212478 L17.8688232,40.1666128 Z" transform="rotate(110 21.09 41.853)"/>
      <path stroke="#33CCAB" d="M34.8688232,9.16661279 L41.120963,8.20928961 L38.9195478,13.8212478 L34.8688232,9.16661279 Z" transform="rotate(110 38.09 10.853)"/>
      <path stroke="#33CCAB" d="M3.86882318,6.16661279 L10.120963,5.20928961 L7.91954784,10.8212478 L3.86882318,6.16661279 Z" transform="rotate(110 7.09 7.853)"/>
      <path stroke="#33CCAB" d="M11.9829143,59.9479387 L18.2485859,58.966108 L16.0205902,64.5788694 L11.9829143,59.9479387 Z" transform="rotate(50 15.208 61.614)"/>
      <path stroke="#33CCAB" d="M35.1200359,53.9099649 L41.3682787,52.8437663 L39.1596327,59.0317582 L35.1200359,53.9099649 Z"/>
      <path stroke="#33CCAB" d="M32.1019332,36.5231996 L38.2905571,35.4465098 L36.1029854,41.6953908 L32.1019332,36.5231996 Z" transform="rotate(90 35.271 38.373)"/>
      <path stroke="#33CCAB" d="M52.1019332,40.5231996 L58.2905571,39.4465098 L56.1029854,45.6953908 L52.1019332,40.5231996 Z" transform="rotate(90 55.271 42.373)"/>
      <path stroke="#33CCAB" d="M5.12100095,28.214271 L11.3096249,27.1375812 L9.12205316,33.3864622 L5.12100095,28.214271 Z" transform="rotate(90 8.29 30.064)"/>
      <path stroke="#33CCAB" d="M27.239645,64.4714139 L33.428269,63.3947241 L31.2406972,69.6436051 L27.239645,64.4714139 Z" transform="rotate(90 30.409 66.321)"/>
    </g>
    <g transform="translate(22 68)">
      <path fill="#1F3B7A" d="M45,0 L45,6.79821429 L43.225,6.798 L38.3933914,36.1347002 C27.7977971,36.1750506 17.2022029,36.2167924 6.60802439,36.2571429 L1.748,6.798 L0,6.79821429 L0,0 L45,0 Z"/>
      <polygon fill="#000" fill-opacity=".05" points="2.288 9.064 42.712 9.064 43.475 6.798 1.525 6.798"/>
    </g>
  </g>
</svg>
