<svg xmlns="http://www.w3.org/2000/svg" width="76" height="137" viewBox="0 0 76 137">
  <g fill="none" fill-rule="evenodd">
    <path fill="#000" fill-opacity=".25" d="M68,127.5 C68,132.748267 52.7764254,137 34,137 C15.2217105,137 0,132.748267 0,127.5 C0,122.251733 15.2217105,118 34,118 C52.7764254,118 68,122.251733 68,127.5"/>
    <g transform="translate(4)">
      <path fill="#07454C" d="M61.1390817,40.3759649 C58.0125655,43.7802735 54.0288814,46.3725009 49.6730686,47.8535439 C50.1247118,44.7917568 50.434819,41.7090645 50.1692401,38.6328046 C50.054739,37.3093535 49.8193756,35.9810782 49.4536082,34.694613 C56.0087963,30.2386191 60.6445006,23.4267859 63.2366783,15.8575462 C65.9195027,8.02297315 57.801593,1.01699832 53.2983146,0.24789907 C48.7950362,-0.521200176 44.7224862,0.315438494 45.0294128,5.38732756 C45.4460696,12.3036861 42.2972893,19.3277861 36.9300501,23.6213637 C34.6066319,23.0472786 30.6054545,22.4329915 30.3732718,22.3879652 C26.6917433,21.7141791 22.8591369,22.1676581 19.300061,23.4621637 C15.561282,20.509726 13.5400195,16.3705242 12.9579722,11.5446716 C12.4363561,7.22375664 6.21030868,6.74778141 4.52618831,7.87183038 C-0.336927939,11.1185469 -1.53356651,14.3614258 2.1755108,20.1881094 C4.98469264,24.6011244 8.0885371,28.0156806 10.2433419,29.2319601 C9.10946295,30.3833465 8.11393948,31.6746359 7.39353671,33.1219093 C4.89200569,38.1439478 5.97499528,44.1501322 7.11523542,49.6529871 C9.44819537,60.9175981 11.7811553,72.1854252 14.1141153,83.4516442 L43.7476366,84 C44.7034027,78.1272863 45.6607592,72.3462333 46.6181156,66.5603561 C54.3024118,64.7496563 61.7911019,61.4659539 67.4159685,55.8955595 C73.3509423,50.0196297 72.3190997,44.8582989 70.9158078,41.7455517 C69.5125159,38.6328046 63.8553023,37.417095 61.1390817,40.3759649 Z"/>
      <path stroke="#33CCAB" d="M3.02245267,48.5447724 L10.7257392,47.3752599 L8.01564022,54.2464357 L3.02245267,48.5447724 Z" transform="rotate(60 6.97 50.65)"/>
      <path stroke="#33CCAB" d="M24.022096,20.5475986 L31.7307461,19.3748529 L29.0154312,26.2432517 L24.022096,20.5475986 Z" transform="rotate(70 27.973 22.649)"/>
      <path stroke="#33CCAB" d="M21.4607396,43.5305152 L29.172877,42.3350109 L26.4372098,49.2114372 L21.4607396,43.5305152 Z" transform="rotate(110 25.41 45.615)"/>
      <path stroke="#33CCAB" d="M13.7354941,69.6576138 L21.4326219,68.4893225 L18.7264664,75.3648729 L13.7354941,69.6576138 Z" transform="rotate(50 17.68 71.766)"/>
      <path stroke="#33CCAB" d="M44.0915104 61.6829735L51.7556897 60.3624261 49.0465346 68.0266054 44.0915104 61.6829735zM60.0915104 45.6829735L67.7556897 44.3624261 65.0465346 52.0266054 60.0915104 45.6829735z"/>
      <path stroke="#33CCAB" d="M40.0915104,38.6829735 L47.7556897,37.3624261 L45.0465346,45.0266054 L40.0915104,38.6829735 Z" transform="rotate(90 44 41)"/>
      <path stroke="#33CCAB" d="M40.0915104,6.68297352 L47.7556897,5.3624261 L45.0465346,13.0266054 L40.0915104,6.68297352 Z" transform="rotate(90 44 9)"/>
      <path stroke="#33CCAB" d="M53.0915104,22.6829735 L60.7556897,21.3624261 L58.0465346,29.0266054 L53.0915104,22.6829735 Z" transform="rotate(90 57 25)"/>
      <path stroke="#33CCAB" d="M4.71651038,27.6829735 L12.3806897,26.3624261 L9.67153461,34.0266054 L4.71651038,27.6829735 Z" transform="rotate(90 8.625 30)"/>
      <path stroke="#33CCAB" d="M4.71651038,5.68297352 L12.3806897,4.3624261 L9.67153461,12.0266054 L4.71651038,5.68297352 Z" transform="rotate(90 8.625 8)"/>
      <path stroke="#33CCAB" d="M33.7165104,75.6829735 L41.3806897,74.3624261 L38.6715346,82.0266054 L33.7165104,75.6829735 Z" transform="rotate(90 37.625 78)"/>
      <g transform="translate(0 82)">
        <path fill="#F57647" d="M59,0 L59,9 L56.674,9 L50.338002,47.837901 C36.4460007,47.89132 22.5539993,47.946581 8.6638542,48 L2.292,9 L0,9 L0,0 L59,0 Z"/>
        <polygon fill="#000" fill-opacity=".05" points="3 12 56 12 57 9 2 9"/>
      </g>
    </g>
  </g>
</svg>
