<svg xmlns="http://www.w3.org/2000/svg" width="96" height="140" viewBox="0 0 96 140">
  <g fill="none" fill-rule="evenodd">
    <path fill="#000" fill-opacity=".25" d="M74,121.5 C74,126.748267 62.358443,131 48,131 C33.6401316,131 22,126.748267 22,121.5 C22,116.251733 33.6401316,112 48,112 C62.358443,112 74,116.251733 74,121.5"/>
    <path fill="#07454C" d="M87.6791241,56.4918989 C87.40829,55.0972445 86.7444807,53.5186943 85.3703955,53.2247296 C84.1582798,52.9643225 83.012545,53.8489012 82.1495929,54.7495876 C79.8328986,57.171105 78.1109773,60.1161213 75.8434048,62.5859617 C73.2333068,65.4276204 69.9076223,67.5914154 66.2712752,68.8276779 C66.6483188,66.27193 66.9072044,63.6987322 66.6854922,61.1309035 C66.5899036,60.0261869 66.3934161,58.9174433 66.0880638,57.8435996 C71.5605074,54.1240737 75.4305155,48.4380715 77.5945337,42.1198439 C79.8342262,35.580136 80.0599213,28.4108873 78.6592838,21.6362762 C77.9184726,18.0563499 76.6519245,14.4348122 74.0723617,11.8683258 C71.4941265,9.30318181 67.3400081,8.08571157 64.1404474,9.79043837 C60.428426,11.7689953 59.3397788,16.7234415 59.8774643,20.930224 C60.4151498,25.1370065 62.1383986,29.1464703 62.394629,33.3800989 C62.7424651,39.1533508 60.1137804,45.0165372 55.6330678,48.6004904 C53.6934171,48.1212876 50.3531289,47.6085273 50.1592966,47.5709428 C47.0858596,47.0085171 43.8862989,47.387047 40.9150887,48.4676022 C37.7938575,46.003131 36.1064543,42.5480391 35.6205459,38.5197831 C35.185087,34.9130107 36.0148486,31.2901306 36.3746332,27.6726198 C36.7330903,24.0564513 36.5312922,20.1234989 34.3632912,17.2241211 C33.8163123,16.4912228 33.1312612,15.8308089 32.2815853,15.5032866 C30.7070297,14.896565 28.924038,15.5529519 27.51809,16.4912228 C23.4582325,19.2013357 21.1428657,24.1745741 21.006121,29.0900935 C20.7405973,38.6929403 29.1802684,50.9280465 33.3543011,53.283791 C32.407709,54.2448811 31.5766198,55.3227516 30.9752086,56.5308258 C28.8868647,60.7228429 29.7909729,65.7363505 30.7428754,70.3297167 C32.6904918,79.7325602 34.6381082,89.1380883 36.5857246,98.5422741 L61.3245685,99 C62.1224672,94.0979037 62.9216936,89.2723188 63.7209199,84.442707 C70.1359727,82.931272 76.3877284,80.1902861 81.0835152,75.5405431 C86.0381876,70.6357622 89.0186912,63.3712098 87.6791241,56.4918989"/>
    <path stroke="#33CCAB" d="M28.4714216,72.9970947 L34.7315357,72.0163656 L32.5070954,77.6330557 L28.4714216,72.9970947 Z" transform="rotate(60 31.693 74.665)"/>
    <path stroke="#33CCAB" d="M69.4714216,46.9970947 L75.7315357,46.0163656 L73.5070954,51.6330557 L69.4714216,46.9970947 Z" transform="rotate(60 72.693 48.665)"/>
    <path stroke="#33CCAB" d="M44.4892898,51.8432278 L50.7445652,50.8654118 L48.524825,56.4845943 L44.4892898,51.8432278 Z" transform="rotate(70 47.71 53.515)"/>
    <path stroke="#33CCAB" d="M19.4892898,19.8432278 L25.7445652,18.8654118 L23.524825,24.4845943 L19.4892898,19.8432278 Z" transform="rotate(70 22.71 21.515)"/>
    <path stroke="#33CCAB" d="M42.5248159,69.1666128 L48.7769557,68.2092896 L46.5755406,73.8212478 L42.5248159,69.1666128 Z" transform="rotate(110 45.746 70.853)"/>
    <path stroke="#33CCAB" d="M59.5248159,38.1666128 L65.7769557,37.2092896 L63.5755406,42.8212478 L59.5248159,38.1666128 Z" transform="rotate(110 62.746 39.853)"/>
    <path stroke="#33CCAB" d="M28.5248159,35.1666128 L34.7769557,34.2092896 L32.5755406,39.8212478 L28.5248159,35.1666128 Z" transform="rotate(110 31.746 36.853)"/>
    <path stroke="#33CCAB" d="M36.6389071,88.9479387 L42.9045786,87.966108 L40.6765829,93.5788694 L36.6389071,88.9479387 Z" transform="rotate(50 39.864 90.614)"/>
    <path stroke="#33CCAB" d="M59.0915104,82.5106723 L65.7556897,81.3624261 L63.4000173,88.0266054 L59.0915104,82.5106723 Z"/>
    <path stroke="#33CCAB" d="M56.0915104,65.5106723 L62.7556897,64.3624261 L60.4000173,71.0266054 L56.0915104,65.5106723 Z" transform="rotate(90 59.5 67.5)"/>
    <path stroke="#33CCAB" d="M64.0915104,17.5106723 L70.7556897,16.3624261 L68.4000173,23.0266054 L64.0915104,17.5106723 Z" transform="rotate(90 67.5 19.5)"/>
    <path stroke="#33CCAB" d="M76.0915104,69.5106723 L82.7556897,68.3624261 L80.4000173,75.0266054 L76.0915104,69.5106723 Z" transform="rotate(90 79.5 71.5)"/>
    <path stroke="#33CCAB" d="M75.0915104,28.5106723 L81.7556897,27.3624261 L79.4000173,34.0266054 L75.0915104,28.5106723 Z" transform="rotate(90 78.5 30.5)"/>
    <path stroke="#33CCAB" d="M29.0915104,57.5106723 L35.7556897,56.3624261 L33.4000173,63.0266054 L29.0915104,57.5106723 Z" transform="rotate(90 32.5 59.5)"/>
    <path stroke="#33CCAB" d="M52.0915104,93.5106723 L58.7556897,92.3624261 L56.4000173,99.0266054 L52.0915104,93.5106723 Z" transform="rotate(90 55.5 95.5)"/>
    <g transform="translate(26 88)">
      <path fill="#F57647" d="M45,0 L45,6.79821429 L43.225,6.798 L38.3933914,36.1347002 C27.7977971,36.1750506 17.2022029,36.2167924 6.60802439,36.2571429 L1.748,6.798 L0,6.79821429 L0,0 L45,0 Z"/>
      <polygon fill="#000" fill-opacity=".05" points="2.288 9.064 42.712 9.064 43.475 6.798 1.525 6.798"/>
    </g>
  </g>
</svg>
