<svg xmlns="http://www.w3.org/2000/svg" width="44" height="108" viewBox="0 0 44 108">
  <g fill="none" fill-rule="evenodd" transform="translate(0 -1)">
    <path fill="#000" fill-opacity=".25" d="M43.3295836,99.0757576 C43.3295836,104.324025 33.7029114,108.575758 21.8295836,108.575758 C9.95507698,108.575758 0.329583562,104.324025 0.329583562,99.0757576 C0.329583562,93.8274905 9.95507698,89.5757576 21.8295836,89.5757576 C33.7029114,89.5757576 43.3295836,93.8274905 43.3295836,99.0757576"/>
    <g transform="translate(.33 .576)">
      <path fill="#2AA98E" d="M34.4726707,17.1731087 C31.4576479,0.205278084 18.8430029,0.984043898 18.8254906,0.981148857 C18.177538,0.931933174 6.24295136,0.205278084 3.22792861,17.1731087 C0.128263407,34.6128308 3.22792861,62.4283771 3.22792861,62.4283771 L18.7875475,64.944167 L18.7875475,64.9644323 L18.8488403,64.9528521 L18.9101331,64.9644323 L18.9101331,64.944167 L34.4726707,62.4283771 C34.4726707,62.4283771 37.5723359,34.6128308 34.4726707,17.1731087"/>
      <polyline stroke="#000" stroke-opacity=".2" points="17.67 47.424 20.761 51.588 23.78 47.424"/>
      <path fill="#33CCAB" d="M39.1614851,39.0687705 C37.6539738,30.5848552 31.3466513,30.9742381 31.3378951,30.9727906 C31.0139188,30.9481827 25.0466255,30.5848552 23.5391141,39.0687705 C21.9892815,47.7886316 23.5391141,61.6964047 23.5391141,61.6964047 L31.3189235,62.9542996 L31.3189235,62.9644323 L31.34957,62.9586422 L31.3802164,62.9644323 L31.3802164,62.9542996 L39.1614851,61.6964047 C39.1614851,61.6964047 40.7113177,47.7886316 39.1614851,39.0687705"/>
      <polyline stroke="#000" stroke-opacity=".2" points="30.67 40.424 33.761 44.588 36.78 40.424"/>
      <polyline stroke="#000" stroke-opacity=".2" points="25.67 52.424 28.761 56.588 31.78 52.424"/>
      <path fill="#7A3814" d="M41.8752766,58.6001197 C41.8752766,58.6001197 42.9447985,77.8544942 39.2761917,86.9000128 C39.2761917,86.9000128 34.9644066,100.598684 28.2498598,100.598684 L21.0752721,100.598684 L20.8481818,100.598684 L13.672129,100.598684 C6.95758226,100.598684 2.64726226,86.9000128 2.64726226,86.9000128 C-1.02134457,77.8544942 0.200547636,58.5796573 0.272337466,58.6001197 C0.272337466,58.6001197 41.8752766,58.6001197 41.8752766,58.6001197 Z"/>
      <path fill="#000" fill-rule="nonzero" d="M28.5768109,60.6923666 C34.7750418,78.5923455 27.8213462,98.6295765 19.6327637,98.6295765 C15.097011,99.2649719 13.3104901,99.5850177 14.2732011,99.5897139 L28.5768109,99.5897139 C36.9461918,97.8605515 41.4623544,72.1833352 39.6070522,60.742649 L28.5768109,60.6923666 Z" opacity=".15"/>
      <polyline stroke="#000" stroke-opacity=".2" points="6.67 16.424 9.761 20.588 12.78 16.424" transform="rotate(3 9.725 18.506)"/>
      <polyline stroke="#000" stroke-opacity=".2" points="18.67 8.424 21.761 12.588 24.78 8.424" transform="rotate(-10 21.725 10.506)"/>
      <polyline stroke="#000" stroke-opacity=".2" points="20.67 24.424 23.761 28.588 26.78 24.424"/>
      <polyline stroke="#000" stroke-opacity=".2" points="6.67 34.424 9.761 38.588 12.78 34.424" transform="rotate(6 9.725 36.506)"/>
      <polyline stroke="#000" stroke-opacity=".2" points="4.67 52.424 7.761 56.588 10.78 52.424" transform="rotate(6 7.725 54.506)"/>
    </g>
  </g>
</svg>
