<svg xmlns="http://www.w3.org/2000/svg" width="59" height="140" viewBox="0 0 59 140">
  <g fill="none" fill-rule="evenodd">
    <g transform="translate(10 9)">
      <path fill="#2AA98E" d="M17.911421,0.183319322 C17.3521642,0.145354217 3.97124131,0.584810599 1.36893371,13.6738391 C-1.30642995,27.1268859 1.36893371,79.5838703 1.36893371,79.5838703 L35.0353113,80 C35.935532,67.4161297 36.1960496,27.1268859 33.5206859,13.6738391 C30.9183783,0.584810599 17.926536,0.185552564 17.911421,0.183319322 Z"/>
      <polyline stroke="#000" stroke-opacity=".2" points="5 31 8.091 35.163 11.109 31" transform="rotate(3 8.055 33.082)"/>
      <polyline stroke="#000" stroke-opacity=".2" points="26 30 29.091 34.163 32.109 30" transform="rotate(3 29.055 32.082)"/>
      <polyline stroke="#000" stroke-opacity=".2" points="17 23 20.091 27.163 23.109 23" transform="rotate(-10 20.055 25.082)"/>
      <polyline stroke="#000" stroke-opacity=".2" points="9 11 12.091 15.163 15.109 11" transform="rotate(-10 12.055 13.082)"/>
      <polyline stroke="#000" stroke-opacity=".2" points="19 39 22.091 43.163 25.109 39"/>
      <polyline stroke="#000" stroke-opacity=".2" points="7 48 10.091 52.163 13.109 48" transform="rotate(6 10.055 50.082)"/>
      <polyline stroke="#000" stroke-opacity=".2" points="22 8 25.091 12.163 28.109 8" transform="rotate(6 25.055 10.082)"/>
      <polyline stroke="#000" stroke-opacity=".2" points="5 65 8.091 69.163 11.109 65" transform="rotate(3 8.055 67.082)"/>
      <polyline stroke="#000" stroke-opacity=".2" points="17 57 20.091 61.163 23.109 57" transform="rotate(-10 20.055 59.082)"/>
      <polyline stroke="#000" stroke-opacity=".2" points="19 73 22.091 77.163 25.109 73"/>
    </g>
    <g transform="translate(28 52)">
      <path fill="#33CCAB" d="M20.1491115,10.1304228 C18.2868916,-0.474471366 10.4954932,0.0122572672 10.4846768,0.010447867 C10.0844708,-0.0203119351 2.71310842,-0.474471366 0.850888488,10.1304228 C-1.06361061,21.0302491 0.850888488,38.4149655 0.850888488,38.4149655 L10.4612413,39.9873342 L10.4612413,40 L10.4990986,39.9927624 L10.536956,40 L10.536956,39.9873342 L20.1491115,38.4149655 C20.1491115,38.4149655 22.0636106,21.0302491 20.1491115,10.1304228"/>
      <polyline stroke="#000" stroke-opacity=".2" points="11.82 17.46 14.911 21.623 17.929 17.46"/>
      <polyline stroke="#000" stroke-opacity=".2" points="4.82 6.46 7.911 10.623 10.929 6.46"/>
      <polyline stroke="#000" stroke-opacity=".2" points="4.82 29.46 7.911 33.623 10.929 29.46"/>
    </g>
    <g transform="translate(8 88)">
      <path fill="#294FA3" d="M42.2048602,0 C42.2048602,0 43.2743821,16.5043135 39.6057753,24.2578802 C39.6057753,24.2578802 35.2939902,36 28.5794434,36 L21.4048557,36 L21.1777654,36 L14.0017126,36 C7.28716582,36 2.97684582,24.2578802 2.97684582,24.2578802 C-0.691761013,16.5043135 0.530131198,-0.0175397872 0.601921028,0 C0.601921028,0 42.2048602,0 42.2048602,0 Z"/>
      <path fill="#000" fill-rule="nonzero" d="M28.9063944,2 C35.1046253,17.1861076 28.1509298,34.1854321 19.9623473,34.1854321 C15.4265945,34.7244932 13.6400737,34.9960158 14.6027847,35 L28.9063944,35 C37.2757754,33.5330013 41.791938,11.7487873 39.9366358,2.0426589 L28.9063944,2 Z" opacity=".15"/>
    </g>
  </g>
</svg>
