<svg xmlns="http://www.w3.org/2000/svg" width="44" height="124" viewBox="0 0 44 124">
  <g fill="none" fill-rule="evenodd" transform="translate(0 -1)">
    <path fill="#000" fill-opacity=".25" d="M43.3295836,115.075758 C43.3295836,120.324025 33.7029114,124.575758 21.8295836,124.575758 C9.95507698,124.575758 0.329583562,120.324025 0.329583562,115.075758 C0.329583562,109.82749 9.95507698,105.575758 21.8295836,105.575758 C33.7029114,105.575758 43.3295836,109.82749 43.3295836,115.075758"/>
    <g transform="translate(.33 .576)">
      <path fill="#2AA98E" d="M18.8254906,0.981148857 C18.177538,0.931933174 6.24295136,0.205278084 3.22792861,17.1731087 C0.128263407,34.6128308 3.22792861,78.4283771 3.22792861,78.4283771 L18.7875475,80.944167 L18.7875475,80.9644323 L18.8488403,80.9528521 L18.9101331,80.9644323 L18.9101331,80.944167 L34.4726707,78.4283771 C34.4726707,78.4283771 37.5723359,34.6128308 34.4726707,17.1731087 C31.4576479,0.205278084 18.8430029,0.984043898 18.8254906,0.981148857 Z"/>
      <polyline stroke="#000" stroke-opacity=".2" points="17.67 63.424 20.761 67.588 23.78 63.424"/>
      <path fill="#33CCAB" d="M38.9183741,46.1078973 C36.8787999,34.4425138 28.3453636,34.9779153 28.3335171,34.9759249 C27.8951962,34.9420891 19.8217993,34.4425138 17.7822251,46.1078973 C15.6853928,58.0977063 17.7822251,77.2208943 17.7822251,77.2208943 L28.3078496,78.9504999 L28.3078496,78.9644323 L28.3493124,78.9564709 L28.3907752,78.9644323 L28.3907752,78.9504999 L38.9183741,77.2208943 C38.9183741,77.2208943 41.0152065,58.0977063 38.9183741,46.1078973"/>
      <polyline stroke="#000" stroke-opacity=".2" points="30.67 56.424 33.761 60.588 36.78 56.424"/>
      <polyline stroke="#000" stroke-opacity=".2" points="22.67 44.424 25.761 48.588 28.78 44.424"/>
      <polyline stroke="#000" stroke-opacity=".2" points="25.67 68.424 28.761 72.588 31.78 68.424"/>
      <path fill="#7A3814" d="M41.8752766,74.6001197 C41.8752766,74.6001197 42.9447985,93.8544942 39.2761917,102.900013 C39.2761917,102.900013 34.9644066,116.598684 28.2498598,116.598684 L21.0752721,116.598684 L20.8481818,116.598684 L13.672129,116.598684 C6.95758226,116.598684 2.64726226,102.900013 2.64726226,102.900013 C-1.02134457,93.8544942 0.200547636,74.5796573 0.272337466,74.6001197 C0.272337466,74.6001197 41.8752766,74.6001197 41.8752766,74.6001197 Z"/>
      <path fill="#000" fill-rule="nonzero" d="M28.5768109,76.6923666 C34.7750418,94.5923455 27.8213462,114.629577 19.6327637,114.629577 C15.097011,115.264972 13.3104901,115.585018 14.2732011,115.589714 L28.5768109,115.589714 C36.9461918,113.860551 41.4623544,88.1833352 39.6070522,76.742649 L28.5768109,76.6923666 Z" opacity=".15"/>
      <polyline stroke="#000" stroke-opacity=".2" points="6.67 32.424 9.761 36.588 12.78 32.424" transform="rotate(3 9.725 34.506)"/>
      <polyline stroke="#000" stroke-opacity=".2" points="22.67 20.424 25.761 24.588 28.78 20.424" transform="rotate(-10 25.725 22.506)"/>
      <polyline stroke="#000" stroke-opacity=".2" points="10.67 11.424 13.761 15.588 16.78 11.424"/>
      <polyline stroke="#000" stroke-opacity=".2" points="6.67 50.424 9.761 54.588 12.78 50.424" transform="rotate(6 9.725 52.506)"/>
      <polyline stroke="#000" stroke-opacity=".2" points="4.67 68.424 7.761 72.588 10.78 68.424" transform="rotate(6 7.725 70.506)"/>
    </g>
  </g>
</svg>
