<svg xmlns="http://www.w3.org/2000/svg" width="44" height="95" viewBox="0 0 44 95">
  <g fill="none" fill-rule="evenodd" transform="translate(0 -1)">
    <path fill="#000" fill-opacity=".25" d="M43.3295836,86.0757576 C43.3295836,91.3240247 33.7029114,95.5757576 21.8295836,95.5757576 C9.95507698,95.5757576 0.329583562,91.3240247 0.329583562,86.0757576 C0.329583562,80.8274905 9.95507698,76.5757576 21.8295836,76.5757576 C33.7029114,76.5757576 43.3295836,80.8274905 43.3295836,86.0757576"/>
    <g transform="translate(.33 .576)">
      <path fill="#33CCAB" d="M32.7962096,13.0980815 C30.4892712,0.00905302306 20.8372014,0.609794988 20.8238019,0.607561747 C20.3280223,0.569596641 11.1962978,0.00905302306 8.88935932,13.0980815 C6.51765684,26.5511283 8.88935932,48.0081127 8.88935932,48.0081127 L20.7947698,49.9487996 L20.7947698,49.9644323 L20.8416679,49.9554993 L20.8885659,49.9644323 L20.8885659,49.9487996 L32.7962096,48.0081127 C32.7962096,48.0081127 35.1679121,26.5511283 32.7962096,13.0980815"/>
      <path fill="#7A3814" d="M41.8752766,45.6001197 C41.8752766,45.6001197 42.9447985,64.8544942 39.2761917,73.9000128 C39.2761917,73.9000128 34.9644066,87.5986844 28.2498598,87.5986844 L21.0752721,87.5986844 L20.8481818,87.5986844 L13.672129,87.5986844 C6.95758226,87.5986844 2.64726226,73.9000128 2.64726226,73.9000128 C-1.02134457,64.8544942 0.200547636,45.5796573 0.272337466,45.6001197 C0.272337466,45.6001197 41.8752766,45.6001197 41.8752766,45.6001197 Z"/>
      <path fill="#000" fill-rule="nonzero" d="M28.5768109,47.6923666 C34.7750418,65.5923455 27.8213462,85.6295765 19.6327637,85.6295765 C15.097011,86.2649719 13.3104901,86.5850177 14.2732011,86.5897139 L28.5768109,86.5897139 C36.9461918,84.8605515 41.4623544,59.1833352 39.6070522,47.742649 L28.5768109,47.6923666 Z" opacity=".15"/>
      <polyline stroke="#000" stroke-opacity=".2" points="10.67 15.424 13.761 19.588 16.78 15.424" transform="rotate(3 13.725 17.506)"/>
      <polyline stroke="#000" stroke-opacity=".2" points="22.67 7.424 25.761 11.588 28.78 7.424" transform="rotate(-10 25.725 9.506)"/>
      <polyline stroke="#000" stroke-opacity=".2" points="24.67 23.424 27.761 27.588 30.78 23.424"/>
      <polyline stroke="#000" stroke-opacity=".2" points="12.67 32.424 15.761 36.588 18.78 32.424" transform="rotate(6 15.725 34.506)"/>
      <polyline stroke="#000" stroke-opacity=".2" points="21.67 39.424 24.761 43.588 27.78 39.424"/>
    </g>
  </g>
</svg>
