<svg xmlns="http://www.w3.org/2000/svg" width="59" height="120" viewBox="0 0 59 120">
  <g fill="none" fill-rule="evenodd">
    <g transform="translate(11 9)">
      <path fill="#2AA98E" d="M15.6572632,0.183319322 C15.0664829,0.145354217 4.18494801,-0.415189401 1.43595668,12.6738391 C-1.39020866,26.1268859 1.43595668,63.5838703 1.43595668,63.5838703 L29.9238097,63.5838703 C29.9238097,63.5838703 32.749975,26.1268859 29.9238097,12.6738391 C27.1748184,-0.415189401 15.6732303,0.185552564 15.6572632,0.183319322 Z"/>
      <polyline stroke="#000" stroke-opacity=".2" points="5 15 8.091 19.163 11.109 15" transform="rotate(3 8.055 17.082)"/>
      <polyline stroke="#000" stroke-opacity=".2" points="17 7 20.091 11.163 23.109 7" transform="rotate(-10 20.055 9.082)"/>
      <polyline stroke="#000" stroke-opacity=".2" points="19 23 22.091 27.163 25.109 23"/>
      <polyline stroke="#000" stroke-opacity=".2" points="7 32 10.091 36.163 13.109 32" transform="rotate(6 10.055 34.082)"/>
      <polyline stroke="#000" stroke-opacity=".2" points="5 49 8.091 53.163 11.109 49" transform="rotate(3 8.055 51.082)"/>
      <polyline stroke="#000" stroke-opacity=".2" points="17 41 20.091 45.163 23.109 41" transform="rotate(-10 20.055 43.082)"/>
      <polyline stroke="#000" stroke-opacity=".2" points="19 57 22.091 61.163 25.109 57"/>
    </g>
    <path fill="#33CCAB" d="M46.3111855,49.1043382 C44.8036741,40.6204229 38.4963516,41.0098058 38.4875955,41.0083583 C38.1636192,40.9837505 32.1963259,40.6204229 30.6888145,49.1043382 C29.1389819,57.8241993 30.6888145,71.7319724 30.6888145,71.7319724 L38.4686239,72.9898674 L38.4686239,73 L38.4992703,72.9942099 L38.5299167,73 L38.5299167,72.9898674 L46.3111855,71.7319724 C46.3111855,71.7319724 47.8610181,57.8241993 46.3111855,49.1043382"/>
    <polyline stroke="#000" stroke-opacity=".2" points="38 51 41.036 55 44 51"/>
    <polyline stroke="#000" stroke-opacity=".2" points="33 63 36.036 67 39 63"/>
    <g transform="translate(8 68)">
      <path fill="#000" fill-opacity=".25" d="M43,33.3241227 C43,38.5723898 33.3733279,42.8241227 21.5,42.8241227 C9.62549342,42.8241227 0,38.5723898 0,33.3241227 C0,28.0758556 9.62549342,23.8241227 21.5,23.8241227 C33.3733279,23.8241227 43,28.0758556 43,33.3241227"/>
      <path fill="#7A3814" d="M42.2048602,0 C42.2048602,0 43.2743821,16.5043135 39.6057753,24.2578802 C39.6057753,24.2578802 35.2939902,36 28.5794434,36 L21.4048557,36 L21.1777654,36 L14.0017126,36 C7.28716582,36 2.97684582,24.2578802 2.97684582,24.2578802 C-0.691761013,16.5043135 0.530131198,-0.0175397872 0.601921028,0 C0.601921028,0 42.2048602,0 42.2048602,0 Z"/>
      <path fill="#000" fill-rule="nonzero" d="M28.9063944,2 C35.1046253,17.1861076 28.1509298,34.1854321 19.9623473,34.1854321 C15.4265945,34.7244932 13.6400737,34.9960158 14.6027847,35 L28.9063944,35 C37.2757754,33.5330013 41.791938,11.7487873 39.9366358,2.0426589 L28.9063944,2 Z" opacity=".15"/>
    </g>
  </g>
</svg>
