<svg xmlns="http://www.w3.org/2000/svg" viewBox="0 0 43 122">
    <g fill="none" fill-rule="evenodd">
        <path fill="#2AA98E" d="M19.911.183C19.352.145 5.971.585 3.37 13.673c-2.675 13.454 0 65.91 0 65.91L37.035 80c.9-12.584 1.161-52.873-1.514-66.326C32.918.584 19.927.186 19.91.184z"/>
        <path stroke="#000" stroke-opacity=".2" d="M7.113 30.843l2.869 4.319 3.232-4M28.113 29.843l2.869 4.319 3.232-4M18.685 23.562l3.767 3.563 2.25-4.624M10.685 11.562l3.767 3.563 2.25-4.624M21 39l3.091 4.163L27.109 39M9.234 47.692l2.64 4.463 3.436-3.824M24.234 7.692l2.64 4.463 3.436-3.824M7.113 64.843l2.869 4.319 3.232-4M18.685 57.562l3.767 3.563 2.25-4.624M21 73l3.091 4.163L27.109 73"/>
    </g>
    <g fill="none" fill-rule="evenodd">
        <path fill="#33CCAB" d="M40.15 53.13c-1.863-10.604-9.655-10.118-9.665-10.12-.4-.03-7.772-.484-9.634 10.12-1.915 10.9 0 28.285 0 28.285l9.61 1.572V83l.038-.007.038.007v-.013l9.612-1.572s1.915-17.385 0-28.285"/>
        <path stroke="#000" stroke-opacity=".2" d="M31.82 60.46l3.091 4.163 3.018-4.163M24.82 49.46l3.091 4.163 3.018-4.163M24.82 72.46l3.091 4.163 3.018-4.163"/>
    </g>
    <path fill="#000" fill-opacity=".25" d="M43 112.324c0 5.248-9.627 9.5-21.5 9.5-11.875 0-21.5-4.252-21.5-9.5s9.625-9.5 21.5-9.5c11.873 0 21.5 4.252 21.5 9.5"/>
    <path fill="#294FA3" d="M42.205 79s1.07 16.504-2.6 24.258c0 0-4.311 11.742-11.026 11.742H14.002c-6.715 0-11.025-11.742-11.025-11.742C-.692 95.504.53 78.982.602 79h41.603z"/>
    <path fill="#000" fill-rule="nonzero" d="M28.906 81c6.199 15.186-.755 32.185-8.944 32.185-4.535.54-6.322.811-5.36.815h14.304c8.37-1.467 12.886-23.251 11.03-32.957L28.907 81z" opacity=".15"/>
</svg>
