<svg xmlns="http://www.w3.org/2000/svg" width="59" height="100" viewBox="0 0 59 100">
  <g fill="none" fill-rule="evenodd">
    <path fill="#33CCAB" d="M41.1257932,21.6738391 C38.8188547,8.5848106 29.1667849,9.18555256 29.1533855,9.18331932 C28.6576059,9.14535422 19.5258814,8.5848106 17.2189429,21.6738391 C14.8472404,35.1268859 17.2189429,56.5838703 17.2189429,56.5838703 L29.1243534,58.5245572 L29.1243534,58.5401898 L29.1712514,58.5312569 L29.2181495,58.5401898 L29.2181495,58.5245572 L41.1257932,56.5838703 C41.1257932,56.5838703 43.4974957,35.1268859 41.1257932,21.6738391"/>
    <path fill="#294FA3" d="M50.2048602,48.1758773 C50.2048602,48.1758773 51.2743821,64.6801908 47.6057753,72.4337574 C47.6057753,72.4337574 43.2939902,84.1758773 36.5794434,84.1758773 L29.4048557,84.1758773 L29.1777654,84.1758773 L22.0017126,84.1758773 C15.2871658,84.1758773 10.9768458,72.4337574 10.9768458,72.4337574 C7.30823899,64.6801908 8.5301312,48.1583375 8.60192103,48.1758773 C8.60192103,48.1758773 50.2048602,48.1758773 50.2048602,48.1758773 Z"/>
    <polyline stroke="#000" stroke-opacity=".2" points="19 24 22.091 28.163 25.109 24" transform="rotate(3 22.055 26.082)"/>
    <polyline stroke="#000" stroke-opacity=".2" points="31 16 34.091 20.163 37.109 16" transform="rotate(-10 34.055 18.082)"/>
    <polyline stroke="#000" stroke-opacity=".2" points="33 32 36.091 36.163 39.109 32"/>
    <polyline stroke="#000" stroke-opacity=".2" points="21 41 24.091 45.163 27.109 41" transform="rotate(6 24.055 43.082)"/>
  </g>
</svg>
