<svg xmlns="http://www.w3.org/2000/svg" width="123" height="140" viewBox="0 0 123 140">
  <g fill="none" fill-rule="evenodd" transform="translate(.401 -.938)">
    <path fill="#000" fill-opacity=".25" d="M94.7863368,131.437924 C94.7863368,136.686191 80.6419269,140.937924 63.1926511,140.937924 C45.7433754,140.937924 31.5989655,136.686191 31.5989655,131.437924 C31.5989655,126.189657 45.7433754,121.937924 63.1926511,121.937924 C80.6419269,121.937924 94.7863368,126.189657 94.7863368,131.437924"/>
    <path fill="#07454C" d="M74.8747083,49.9329333 C80.6072798,36.2330286 78.9045179,24.9506476 77.8025179,10.6698857 C77.5654702,7.59912381 78.1390893,1.49921905 78.1390893,1.49921905 C78.1390893,1.49921905 73.3275655,20.0486476 69.4388988,28.3290286 C65.1376607,37.4870286 59.0341369,40.867219 57.6679464,52.3016 L56.7885179,62.6484571 L60.4455655,83.9936 L63.297375,86.231981 L74.8747083,49.9329333 Z"/>
    <path fill="#29A389" d="M75.362178,38.6144952 C76.8713208,30.3594476 61.4885589,2.93792381 61.4885589,2.93792381 C61.4885589,2.93792381 64.2372256,29.8419238 60.466178,45.4128762 L58.6059875,54.6161143 L64.9791303,72.6371619 L75.4671303,47.7779238 L75.362178,38.6144952 Z"/>
    <path fill="#07454C" d="M54.6827494,76.9457143 C49.979797,50.510381 43.8907494,1 43.8907494,1 C43.8907494,1 37.1647494,36.7091429 37.8125589,54.0841905 C37.8125589,54.0841905 36.4988446,78.326381 40.3875113,86.8999048 L47.5948446,94.9794286 L54.6827494,89.3861905 L54.6827494,76.9457143 Z" transform="rotate(-18 46.14 47.99)"/>
    <path fill="#33CCAB" d="M77.2780161,68.8913429 C85.9022065,56.1848667 99.0303018,46.4984857 113.761635,42.1610571 C112.105921,43.0676286 92.2102065,61.1664857 85.3521113,77.9299143 L82.4695399,88.7020095 L66.1566827,100.63401 L68.9542065,69.3129619 L77.2780161,68.8913429 Z"/>
    <path fill="#29A389" d="M59.7883369,92.7889714 C55.4219559,75.4664 46.4738607,59.320019 34.0967179,46.438019 C31.6846226,43.9264 29.1404321,41.5342095 26.3953845,39.3917333 C22.3637655,36.246781 13.1750036,31.7030667 13.1750036,31.7030667 C13.1750036,31.7030667 36.2500512,61.3503048 40.5350036,79.0836381 L40.8444321,87.972019 L46.6819559,93.3318286 L59.7883369,92.7889714 Z"/>
    <path fill="#07454C" d="M84.0626988,95.089781 C90.7470798,76.4281619 104.841461,59.3589238 122.278032,49.9331143 C111.869651,53.8181619 101.779746,58.7183524 92.8117464,65.2742571 C83.8437464,71.8301619 81.0824131,74.729019 74.5102226,83.4491143 L69.2028893,93.8774 L84.0626988,95.089781 Z"/>
    <path fill="#33CCAB" d="M53.7886062,5.22310509 C53.7886062,5.22310509 44.4622467,25.9379238 44.4622467,40.9756842 C44.4622467,51.0008578 48.0493516,66.0046364 55.2235613,85.98702 L67.1376906,86.1242796 L65.6627169,73.3095732 C66.2477517,47.1673434 53.7886062,5.22310509 53.7886062,5.22310509 Z"/>
    <path fill="#07454C" d="M51.7041197,85.9002796 C38.8447876,59.7961774 0,49.3167902 0,49.3167902 C0,49.3167902 29.977794,74.3304413 33.6919076,87.0784242 L51.7041197,85.9002796 Z"/>
    <path fill="#238C76" d="M65.6459471,85.5725723 C60.226276,47.7480276 110.062858,2.09778083 110.062858,2.09778083 C110.062858,2.09778083 105.0186,10.2761638 102.699423,14.1289638 C89.4627718,36.1324361 84.1574398,61.1117723 80.6186461,86.5486404"/>
    <path fill="#FFBCA3" d="M30.5989655,83.6689196 L44.3158405,131.95886 C44.3158405,131.95886 49.821493,133.384701 63.1926511,133.384701 C76.5638092,133.384701 80.9005261,131.962673 80.9005261,131.962673 L93.958046,83.6689196"/>
  </g>
</svg>
