<svg xmlns="http://www.w3.org/2000/svg" width="123" height="140" viewBox="0 0 123 140">
  <g fill="none" fill-rule="evenodd">
    <path fill="#000" fill-opacity=".25" d="M95.1873713,130.5 C95.1873713,135.748267 81.0429614,140 63.5936857,140 C46.1444099,140 32,135.748267 32,130.5 C32,125.251733 46.1444099,121 63.5936857,121 C81.0429614,121 95.1873713,125.251733 95.1873713,130.5"/>
    <path fill="#07454C" d="M75.2757429,48.9950095 C81.0083143,35.2951048 79.3055524,24.0127238 78.2035524,9.7319619 C77.9665048,6.6612 78.5401238,0.561295238 78.5401238,0.561295238 C78.5401238,0.561295238 73.7286,19.1107238 69.8399333,27.3911048 C65.5386952,36.5491048 59.4351714,39.9292952 58.068981,51.3636762 L57.1895524,61.7105333 L60.8466,83.0556762 L63.6984095,85.2940571 L75.2757429,48.9950095 Z"/>
    <path fill="#29A389" d="M60.1893714,91.8510476 C55.8229905,74.5284762 46.8748952,58.3820952 34.4977524,45.5000952 C32.0856571,42.9884762 29.5414667,40.5962857 26.796419,38.4538095 C22.7648,35.3088571 13.5760381,30.7651429 13.5760381,30.7651429 C13.5760381,30.7651429 36.6510857,60.412381 40.9360381,78.1457143 L41.2454667,87.0340952 L47.0829905,92.3939048 L60.1893714,91.8510476 Z"/>
    <path fill="#07454C" d="M84.4637333,94.1518571 C91.1481143,75.4902381 105.242495,58.421 122.679067,48.9951905 C112.270686,52.8802381 102.180781,57.7804286 93.212781,64.3363333 C84.244781,70.8922381 81.4834476,73.7910952 74.9112571,82.5111905 L69.6039238,92.9394762 L84.4637333,94.1518571 Z"/>
    <path fill="#33CCAB" d="M54.1896407,4.28518128 C54.1896407,4.28518128 44.8632812,25 44.8632812,40.0377604 C44.8632812,50.062934 48.4503861,65.0667126 55.6245959,85.0490962 L67.5387252,85.1863557 L66.0637514,72.3716494 C66.6487862,46.2294196 54.1896407,4.28518128 54.1896407,4.28518128 Z"/>
    <path fill="#07454C" d="M52.1051542,84.9623557 C39.2458221,58.8582536 0.401034528,48.3788664 0.401034528,48.3788664 C0.401034528,48.3788664 30.3788285,73.3925174 34.0929421,86.1405004 L52.1051542,84.9623557 Z"/>
    <path fill="#238C76" d="M66.0469817,84.6346485 C60.6273105,46.8101038 110.463892,1.15985702 110.463892,1.15985702 C110.463892,1.15985702 105.419635,9.33824 103.100457,13.19104 C89.8638064,35.1945123 84.5584743,60.1738485 81.0196806,85.6107166"/>
    <path fill="#FFBCA3" d="M31,82.7309957 L44.716875,131.020936 C44.716875,131.020936 50.2225276,132.446777 63.5936857,132.446777 C76.9648438,132.446777 81.3015606,131.024749 81.3015606,131.024749 L94.3590805,82.7309957"/>
  </g>
</svg>
