<svg xmlns="http://www.w3.org/2000/svg" viewBox="0 0 109 122">
    <path fill="#29A389" d="M69.05 38.815C70.652 29.978 54.303.624 54.303.624s2.922 28.8-1.086 45.468l-1.977 9.852 6.773 19.291 11.147-26.611-.112-9.81z"/>
    <path fill="#07454C" d="M62.58 77.7C49.122 52.45 26.67 4.26 26.67 4.26s4.937 38.418 11.309 55.82c0 0 6.645 25.01 13.402 32.421l9.956 5.817 5.336-8.005L62.58 77.7z"/>
    <path fill="#33CCAB" d="M64.082 64.063c9.227-13.545 23.273-23.87 39.034-28.495-1.772.967-23.058 20.26-30.395 38.13l-3.084 11.484-17.453 12.72 2.993-33.39 8.905-.449z"/>
    <path fill="#07454C" d="M71.446 51.157c5.439-12.773 3.824-23.292 2.778-36.606-.225-2.863.32-8.55.32-8.55s-4.566 17.294-8.255 25.014c-4.08 8.538-9.871 11.69-11.168 22.35l-.834 9.647 3.47 19.901L60.462 85l10.984-33.843z"/>
    <path fill="#29A389" d="M56.287 84.49c-4.028-16.303-12.282-31.499-23.7-43.622-2.225-2.364-4.572-4.615-7.104-6.632C21.763 31.276 13.287 27 13.287 27s21.286 27.902 25.24 44.591l.285 8.365L44.197 85l12.09-.51z"/>
    <path fill="#07454C" d="M73.006 87c6.171-17.357 19.183-33.233 35.281-42-9.61 3.614-18.924 8.172-27.204 14.27-8.28 6.097-10.829 8.793-16.896 16.904l-4.9 9.699L73.006 87z"/>
    <path fill="#33CCAB" d="M50.98 6S40.288 28.533 40.288 44.89c0 10.905 4.113 27.225 12.34 48.961l13.66.15-1.691-13.94c.67-28.436-13.615-74.06-13.615-74.06z"/>
    <path fill="#07454C" d="M57.287 81.69C43.111 52.656.287 41 .287 41S33.335 68.822 37.43 83l19.857-1.31z"/>
    <path fill="#238C76" d="M53.719 96.937C48.037 55.731 100.287 6 100.287 6s-5.289 8.91-7.72 13.107C78.689 43.077 73.127 70.29 69.417 98"/>
    <g fill="none" fill-rule="evenodd">
        <path fill="#000" fill-opacity=".25" d="M79.28 112.5c0 5.25-10.297 9.5-23 9.5s-23-4.25-23-9.5c0-5.247 10.297-9.5 23-9.5s23 4.253 23 9.5"/>
        <path fill="#B9EFE9" d="M78.438 78.841c-15.09-.535-44.972.01-44.972.01s-.389 14.625 1.742 20.412c1.867 5.07 4.545 9.502 10.446 12.633 6.545 3.473 14.022 3.473 20.567 0 5.901-3.131 8.58-7.563 10.447-12.633 2.13-5.787 1.742-20.412 1.742-20.412s-29.884-.545-44.972-.01"/>
        <path fill="#000" fill-rule="nonzero" d="M69.196 80.685c0 20.954-3.828 31.167-11.485 30.64.418.24 1.344.36 2.777.36 3.846 0 14.908-.998 14.908-31h-6.2z" opacity=".05"/>
    </g>
</svg>
