<svg xmlns="http://www.w3.org/2000/svg" width="90" height="100" viewBox="0 0 90 100">
  <g fill="none" fill-rule="evenodd">
    <path fill="#000" fill-opacity=".25" d="M68,81.5 C68,86.7482671 57.7029605,91 45,91 C32.2970395,91 22,86.7482671 22,81.5 C22,76.2517329 32.2970395,72 45,72 C57.7029605,72 68,76.2517329 68,81.5"/>
    <path fill="#33CCAB" d="M43.9920621,9 C43.9920621,9 37,24.1070032 37,35.0738139 C37,42.385021 39.6892873,53.3270493 45.0678618,67.8998987 L54,68 L52.8941979,58.6544289 C53.3328041,39.5892971 43.9920621,9 43.9920621,9 Z"/>
    <path fill="#07454C" d="M46,49.1264136 C36.5490196,29.7703958 8,22 8,22 C8,22 30.0322129,40.5474556 32.7619048,50 L46,49.1264136 Z"/>
    <path fill="#238C76" d="M41.2941203,70.283415 C37.4254262,42.5143457 73,9 73,9 C73,9 69.3992851,15.0041987 67.7437996,17.8327502 C58.2951536,33.986704 54.5080775,52.3254024 51.9819999,71"/>
    <g transform="translate(23 48)">
      <path fill="#B9EFE9" d="M45,0.23511648 C29.9105174,-0.299590382 0.0282064583,0.24498192 0.0282064583,0.24498192 C0.0282064583,0.24498192 -0.360848139,14.8695106 1.77019842,20.6565778 C3.63668785,25.7274141 6.31532875,30.1589699 12.2163144,33.2902606 C18.7611853,36.7628956 26.237842,36.7628956 32.782713,33.2902606 C38.6846712,30.1589699 41.3633122,25.7274141 43.2298016,20.6565778 C45.3598755,14.8695106 44.9717935,0.24498192 44.9717935,0.24498192 C44.9717935,0.24498192 15.0885099,-0.299590382 0,0.23511648"/>
      <path fill="#000" fill-rule="nonzero" d="M35.7581927,2.07912208 C35.7581927,23.0329879 31.9299831,33.2463792 24.2735638,32.7192961 C24.6910743,32.9591801 25.6167645,33.0791221 27.0506344,33.0791221 C30.8965588,33.0791221 41.9577743,32.0812511 41.9577743,2.07912208 L35.7581927,2.07912208 Z" opacity=".05"/>
    </g>
  </g>
</svg>
