<svg xmlns="http://www.w3.org/2000/svg" width="129" height="140" viewBox="0 0 129 140">
  <g fill="none" fill-rule="evenodd">
    <g transform="translate(8 9)">
      <g transform="translate(19.287)">
        <path fill="#29A389" d="M49.7624774,38.8143552 C51.3664331,29.9775545 35.0172397,0.623569951 35.0172397,0.623569951 C35.0172397,0.623569951 37.938593,29.4235596 33.930627,46.0918344 L31.9535689,55.9436469 L38.7271084,75.2346811 L49.8740235,48.6235526 L49.7624774,38.8143552 Z"/>
        <path fill="#07454C" d="M34.2021598,82.0199795 C29.205916,53.845307 22.743537,1.07620228 22.743537,1.07620228 C22.743537,1.07620228 15.5672904,39.1403418 16.2497472,57.6596213 C16.2497472,57.6596213 14.840859,83.4992075 18.9775997,92.635845 L26.64799,101.244552 L34.1969492,95.2799162 L34.2021598,82.0199795 Z" transform="rotate(-18 25.11 51.16)"/>
        <path fill="#33CCAB" d="M44.795297,64.063032 C54.0221879,50.517675 68.0677383,40.1917998 83.8285689,35.5680144 C82.0571453,36.5344376 60.7710216,55.8281803 53.4336493,73.6983294 L50.3496298,85.1815978 L32.8967507,97.9013477 L35.8897791,64.5124863 L44.795297,64.063032 Z"/>
      </g>
      <path fill="#07454C" d="M71.4461555,51.1568359 C76.8849216,38.3838252 75.2694295,27.864776 74.2239091,14.5502071 C73.9990107,11.6872037 74.5432306,6 74.5432306,6 C74.5432306,6 69.9783067,23.2944304 66.2889417,31.0145859 C62.2081504,39.5529834 56.4174439,42.7044804 55.1212733,53.3652458 L54.2869172,63.0120659 L57.7565341,82.9130611 L60.4621828,85 L71.4461555,51.1568359 Z"/>
      <path fill="#29A389" d="M56.2869172,84.4891068 C52.2590057,68.1865054 44.0045414,52.9908392 32.5868395,40.8673439 C30.3617231,38.5036115 28.014751,36.2522755 25.4824917,34.2359504 C21.7633923,31.2761759 13.2869172,27 13.2869172,27 C13.2869172,27 34.5732526,54.9015797 38.5260476,71.5907569 L38.8114902,79.9557813 L44.1965057,85 L56.2869172,84.4891068 Z"/>
      <path fill="#07454C" d="M73.0057812,87 C79.1769312,69.6429173 92.1891367,53.7669004 108.286917,45 C98.6776983,48.6134642 89.3625027,53.171108 81.0830714,59.2687237 C72.8036401,65.3663394 70.2543237,68.0625526 64.1867501,76.1730715 L59.2869172,85.8723703 L73.0057812,87 Z"/>
      <path fill="#33CCAB" d="M50.9806592,6 C50.9806592,6 40.2869172,28.5324794 40.2869172,44.8897564 C40.2869172,55.7946077 44.3999448,72.114921 52.626,93.8506963 L66.2869172,94 L64.5956904,80.0608431 C65.2665,51.6247143 50.9806592,6 50.9806592,6 Z"/>
      <path fill="#07454C" d="M57.2869172,81.6896204 C43.1104466,52.6555937 0.28691718,41 0.28691718,41 C0.28691718,41 33.3352365,68.8211834 37.4297743,83 L57.2869172,81.6896204 Z"/>
      <path fill="#238C76" d="M53.7189064,96.9366803 C48.0367619,55.7309646 100.286917,6 100.286917,6 C100.286917,6 94.9983671,14.9094562 92.5668728,19.1066615 C78.689174,43.0770446 73.1269061,70.2893068 69.4167295,98"/>
    </g>
    <g transform="translate(41.437 87.605)">
      <path fill="#5C82D6" d="M45,0.23511648 C29.9105174,-0.299590382 0.0282064583,0.24498192 0.0282064583,0.24498192 C0.0282064583,0.24498192 -0.360848139,14.8695106 1.77019842,20.6565778 C3.63668785,25.7274141 6.31532875,30.1589699 12.2163144,33.2902606 C18.7611853,36.7628956 26.237842,36.7628956 32.782713,33.2902606 C38.6846712,30.1589699 41.3633122,25.7274141 43.2298016,20.6565778 C45.3598755,14.8695106 44.9717935,0.24498192 44.9717935,0.24498192 C44.9717935,0.24498192 15.0885099,-0.299590382 0,0.23511648"/>
    </g>
  </g>
</svg>
