<svg xmlns="http://www.w3.org/2000/svg" width="112" height="120" viewBox="0 0 112 120">
  <g fill="none" fill-rule="evenodd">
    <path fill="#000" fill-opacity=".25" d="M79,101.5 C79,106.748267 68.7029605,111 56,111 C43.2970395,111 33,106.748267 33,101.5 C33,96.2517329 43.2970395,92 56,92 C68.7029605,92 79,96.2517329 79,101.5"/>
    <g transform="translate(8 9)">
      <g transform="translate(12.993)">
        <path fill="#07454C" d="M46.6597384,36.0675581 C50.916164,25.8655301 49.6518658,17.4637807 48.8336325,6.82920065 C48.657625,4.5424695 49.0835363,-1.49213975e-13 49.0835363,-1.49213975e-13 C49.0835363,-1.49213975e-13 45.5109871,13.8133654 42.623658,19.9795892 C39.4299952,26.7993573 34.898138,29.3165133 33.8837436,37.8314539 L33.2307692,45.5365386 L35.9461216,61.4318131 L38.0635858,63.0986878 L46.6597384,36.0675581 Z"/>
        <path fill="#29A389" d="M34.6554117,63.4004701 C31.4664787,50.3496446 24.9313467,38.1849611 15.8918517,28.4796621 C14.1302074,26.5874083 12.272089,24.785132 10.267277,23.1709904 C7.32283334,20.8015832 0.611933395,17.3783488 0.611933395,17.3783488 C0.611933395,17.3783488 17.4645124,39.7145783 20.593975,53.0748719 L20.8199624,59.7713782 L25.0833265,63.8094587 L34.6554117,63.4004701 Z"/>
        <path fill="#07454C" d="M52.5449483,65 C57.4238255,51.2237843 67.7112036,38.6230821 80.4380204,31.6648442 C72.8410247,34.5328297 65.4764824,38.1502051 58.9308096,42.9898472 C52.3851367,47.8294894 50.3696612,49.9694581 45.5726709,56.4067298 L41.6988899,64.1050068 L52.5449483,65 Z"/>
      </g>
      <path fill="#33CCAB" d="M43.2186294,0 C43.2186294,0 34.992674,17.9235632 34.992674,30.9350335 C34.992674,39.609347 38.1565414,52.5914144 44.4842761,69.8812357 L54.992674,70 L53.6917303,58.9120343 C54.2077377,36.2923864 43.2186294,0 43.2186294,0 Z"/>
      <path fill="#07454C" d="M45.992674,60.970416 C34.8007235,38.1579665 0.992673993,29 0.992673993,29 C0.992673993,29 27.0834524,50.8595012 30.3159823,62 L45.992674,60.970416 Z"/>
      <path fill="#238C76" d="M48.3419418,72.1562789 C43.7478676,39.4604393 85.992674,0 85.992674,0 C85.992674,0 81.716825,7.06945981 79.750936,10.399851 C68.5306689,29.4198289 64.0335161,51.0121673 61.0337988,73"/>
    </g>
    <g transform="translate(33 68)">
      <path fill="#B9EFE9" d="M45,0.23511648 C29.9105174,-0.299590382 0.0282064583,0.24498192 0.0282064583,0.24498192 C0.0282064583,0.24498192 -0.360848139,14.8695106 1.77019842,20.6565778 C3.63668785,25.7274141 6.31532875,30.1589699 12.2163144,33.2902606 C18.7611853,36.7628956 26.237842,36.7628956 32.782713,33.2902606 C38.6846712,30.1589699 41.3633122,25.7274141 43.2298016,20.6565778 C45.3598755,14.8695106 44.9717935,0.24498192 44.9717935,0.24498192 C44.9717935,0.24498192 15.0885099,-0.299590382 0,0.23511648"/>
      <path fill="#000" fill-rule="nonzero" d="M35.7581927,2.07912208 C35.7581927,23.0329879 31.9299831,33.2463792 24.2735638,32.7192961 C24.6910743,32.9591801 25.6167645,33.0791221 27.0506344,33.0791221 C30.8965588,33.0791221 41.9577743,32.0812511 41.9577743,2.07912208 L35.7581927,2.07912208 Z" opacity=".05"/>
    </g>
  </g>
</svg>
