<svg xmlns="http://www.w3.org/2000/svg" width="111" height="139" viewBox="0 0 111 139">
  <g fill="none" fill-rule="evenodd">
    <path fill="#000" fill-opacity=".25" d="M95.1873713,129.5 C95.1873713,134.748267 81.0429614,139 63.5936857,139 C46.1444099,139 32,134.748267 32,129.5 C32,124.251733 46.1444099,120 63.5936857,120 C81.0429614,120 95.1873713,124.251733 95.1873713,129.5"/>
    <path fill="#33CCAB" d="M54.1896407,3.28518128 C54.1896407,3.28518128 44.8632812,24 44.8632812,39.0377604 C44.8632812,49.062934 48.4503861,64.0667126 55.6245959,84.0490962 L67.5387252,84.1863557 L66.0637514,71.3716494 C66.6487862,45.2294196 54.1896407,3.28518128 54.1896407,3.28518128 Z"/>
    <path fill="#07454C" d="M52.1051542,83.9623557 C39.2458221,57.8582536 0.401034528,47.3788664 0.401034528,47.3788664 C0.401034528,47.3788664 30.3788285,72.3925174 34.0929421,85.1405004 L52.1051542,83.9623557 Z"/>
    <path fill="#238C76" d="M66.0469817,83.6346485 C60.6273105,45.8101038 110.463892,0.159857021 110.463892,0.159857021 C110.463892,0.159857021 105.419635,8.33824 103.100457,12.19104 C89.8638064,34.1945123 84.5584743,59.1738485 81.0196806,84.6107166"/>
    <path fill="#FFBCA3" d="M31,81.7309957 L44.716875,130.020936 C44.716875,130.020936 50.2225276,131.446777 63.5936857,131.446777 C76.9648438,131.446777 81.3015606,130.024749 81.3015606,130.024749 L94.3590805,81.7309957"/>
  </g>
</svg>
